%TF.GenerationSoftware,KiCad,Pcbnew,(5.1.10)-1*%
%TF.CreationDate,2021-05-31T11:52:34-04:00*%
%TF.ProjectId,Charger,43686172-6765-4722-9e6b-696361645f70,rev?*%
%TF.SameCoordinates,Original*%
%TF.FileFunction,Soldermask,Bot*%
%TF.FilePolarity,Negative*%
%FSLAX46Y46*%
G04 Gerber Fmt 4.6, Leading zero omitted, Abs format (unit mm)*
G04 Created by KiCad (PCBNEW (5.1.10)-1) date 2021-05-31 11:52:34*
%MOMM*%
%LPD*%
G01*
G04 APERTURE LIST*
%ADD10R,0.700000X0.700000*%
%ADD11C,2.000000*%
%ADD12C,2.400000*%
%ADD13R,1.200000X0.800000*%
%ADD14R,1.000000X1.000000*%
%ADD15R,0.900000X0.800000*%
%ADD16R,1.060000X0.650000*%
%ADD17R,1.000000X1.500000*%
%ADD18R,1.500000X1.000000*%
%ADD19R,0.900000X1.200000*%
G04 APERTURE END LIST*
D10*
%TO.C,TP7*%
X144400000Y-97400000D03*
%TD*%
D11*
%TO.C,J3*%
X139700000Y-105900000D03*
%TD*%
%TO.C,J2*%
X139700000Y-94000000D03*
%TD*%
D12*
%TO.C,J1*%
X156350000Y-104320000D03*
X156350000Y-95680000D03*
X160150000Y-104320000D03*
X160150000Y-95680000D03*
D13*
X156200000Y-102750000D03*
X156200000Y-101520000D03*
X156200000Y-100500000D03*
X156200000Y-99500000D03*
X156200000Y-98480000D03*
X156200000Y-97250000D03*
%TD*%
D14*
%TO.C,TP12*%
X139100000Y-101050000D03*
%TD*%
%TO.C,TP11*%
X143400000Y-105000000D03*
%TD*%
%TO.C,TP10*%
X146100000Y-108200000D03*
%TD*%
%TO.C,TP9*%
X144300000Y-108200000D03*
%TD*%
%TO.C,TP8*%
X143100000Y-95400000D03*
%TD*%
%TO.C,TP6*%
X151750000Y-93250000D03*
%TD*%
%TO.C,TP5*%
X147500000Y-100900000D03*
%TD*%
%TO.C,TP4*%
X158500000Y-106600000D03*
%TD*%
%TO.C,TP3*%
X146500000Y-93100000D03*
%TD*%
D15*
%TO.C,Q1*%
X139450000Y-102300000D03*
X141450000Y-103250000D03*
X141450000Y-101350000D03*
%TD*%
D16*
%TO.C,U1*%
X147700000Y-98350000D03*
X147700000Y-99300000D03*
X147700000Y-97400000D03*
X145500000Y-97400000D03*
X145500000Y-98350000D03*
X145500000Y-99300000D03*
%TD*%
%TO.C,U2*%
G36*
G01*
X150100000Y-106705000D02*
X150100000Y-106405000D01*
G75*
G02*
X150250000Y-106255000I150000J0D01*
G01*
X151900000Y-106255000D01*
G75*
G02*
X152050000Y-106405000I0J-150000D01*
G01*
X152050000Y-106705000D01*
G75*
G02*
X151900000Y-106855000I-150000J0D01*
G01*
X150250000Y-106855000D01*
G75*
G02*
X150100000Y-106705000I0J150000D01*
G01*
G37*
G36*
G01*
X150100000Y-105435000D02*
X150100000Y-105135000D01*
G75*
G02*
X150250000Y-104985000I150000J0D01*
G01*
X151900000Y-104985000D01*
G75*
G02*
X152050000Y-105135000I0J-150000D01*
G01*
X152050000Y-105435000D01*
G75*
G02*
X151900000Y-105585000I-150000J0D01*
G01*
X150250000Y-105585000D01*
G75*
G02*
X150100000Y-105435000I0J150000D01*
G01*
G37*
G36*
G01*
X150100000Y-104165000D02*
X150100000Y-103865000D01*
G75*
G02*
X150250000Y-103715000I150000J0D01*
G01*
X151900000Y-103715000D01*
G75*
G02*
X152050000Y-103865000I0J-150000D01*
G01*
X152050000Y-104165000D01*
G75*
G02*
X151900000Y-104315000I-150000J0D01*
G01*
X150250000Y-104315000D01*
G75*
G02*
X150100000Y-104165000I0J150000D01*
G01*
G37*
G36*
G01*
X150100000Y-102895000D02*
X150100000Y-102595000D01*
G75*
G02*
X150250000Y-102445000I150000J0D01*
G01*
X151900000Y-102445000D01*
G75*
G02*
X152050000Y-102595000I0J-150000D01*
G01*
X152050000Y-102895000D01*
G75*
G02*
X151900000Y-103045000I-150000J0D01*
G01*
X150250000Y-103045000D01*
G75*
G02*
X150100000Y-102895000I0J150000D01*
G01*
G37*
G36*
G01*
X145150000Y-102895000D02*
X145150000Y-102595000D01*
G75*
G02*
X145300000Y-102445000I150000J0D01*
G01*
X146950000Y-102445000D01*
G75*
G02*
X147100000Y-102595000I0J-150000D01*
G01*
X147100000Y-102895000D01*
G75*
G02*
X146950000Y-103045000I-150000J0D01*
G01*
X145300000Y-103045000D01*
G75*
G02*
X145150000Y-102895000I0J150000D01*
G01*
G37*
G36*
G01*
X145150000Y-104165000D02*
X145150000Y-103865000D01*
G75*
G02*
X145300000Y-103715000I150000J0D01*
G01*
X146950000Y-103715000D01*
G75*
G02*
X147100000Y-103865000I0J-150000D01*
G01*
X147100000Y-104165000D01*
G75*
G02*
X146950000Y-104315000I-150000J0D01*
G01*
X145300000Y-104315000D01*
G75*
G02*
X145150000Y-104165000I0J150000D01*
G01*
G37*
G36*
G01*
X145150000Y-105435000D02*
X145150000Y-105135000D01*
G75*
G02*
X145300000Y-104985000I150000J0D01*
G01*
X146950000Y-104985000D01*
G75*
G02*
X147100000Y-105135000I0J-150000D01*
G01*
X147100000Y-105435000D01*
G75*
G02*
X146950000Y-105585000I-150000J0D01*
G01*
X145300000Y-105585000D01*
G75*
G02*
X145150000Y-105435000I0J150000D01*
G01*
G37*
G36*
G01*
X145150000Y-106705000D02*
X145150000Y-106405000D01*
G75*
G02*
X145300000Y-106255000I150000J0D01*
G01*
X146950000Y-106255000D01*
G75*
G02*
X147100000Y-106405000I0J-150000D01*
G01*
X147100000Y-106705000D01*
G75*
G02*
X146950000Y-106855000I-150000J0D01*
G01*
X145300000Y-106855000D01*
G75*
G02*
X145150000Y-106705000I0J150000D01*
G01*
G37*
%TD*%
%TO.C,R9*%
G36*
G01*
X142915000Y-103440000D02*
X143285000Y-103440000D01*
G75*
G02*
X143420000Y-103575000I0J-135000D01*
G01*
X143420000Y-103845000D01*
G75*
G02*
X143285000Y-103980000I-135000J0D01*
G01*
X142915000Y-103980000D01*
G75*
G02*
X142780000Y-103845000I0J135000D01*
G01*
X142780000Y-103575000D01*
G75*
G02*
X142915000Y-103440000I135000J0D01*
G01*
G37*
G36*
G01*
X142915000Y-102420000D02*
X143285000Y-102420000D01*
G75*
G02*
X143420000Y-102555000I0J-135000D01*
G01*
X143420000Y-102825000D01*
G75*
G02*
X143285000Y-102960000I-135000J0D01*
G01*
X142915000Y-102960000D01*
G75*
G02*
X142780000Y-102825000I0J135000D01*
G01*
X142780000Y-102555000D01*
G75*
G02*
X142915000Y-102420000I135000J0D01*
G01*
G37*
%TD*%
%TO.C,R8*%
G36*
G01*
X152715000Y-104740000D02*
X153085000Y-104740000D01*
G75*
G02*
X153220000Y-104875000I0J-135000D01*
G01*
X153220000Y-105145000D01*
G75*
G02*
X153085000Y-105280000I-135000J0D01*
G01*
X152715000Y-105280000D01*
G75*
G02*
X152580000Y-105145000I0J135000D01*
G01*
X152580000Y-104875000D01*
G75*
G02*
X152715000Y-104740000I135000J0D01*
G01*
G37*
G36*
G01*
X152715000Y-103720000D02*
X153085000Y-103720000D01*
G75*
G02*
X153220000Y-103855000I0J-135000D01*
G01*
X153220000Y-104125000D01*
G75*
G02*
X153085000Y-104260000I-135000J0D01*
G01*
X152715000Y-104260000D01*
G75*
G02*
X152580000Y-104125000I0J135000D01*
G01*
X152580000Y-103855000D01*
G75*
G02*
X152715000Y-103720000I135000J0D01*
G01*
G37*
%TD*%
%TO.C,R7*%
G36*
G01*
X152715000Y-106740000D02*
X153085000Y-106740000D01*
G75*
G02*
X153220000Y-106875000I0J-135000D01*
G01*
X153220000Y-107145000D01*
G75*
G02*
X153085000Y-107280000I-135000J0D01*
G01*
X152715000Y-107280000D01*
G75*
G02*
X152580000Y-107145000I0J135000D01*
G01*
X152580000Y-106875000D01*
G75*
G02*
X152715000Y-106740000I135000J0D01*
G01*
G37*
G36*
G01*
X152715000Y-105720000D02*
X153085000Y-105720000D01*
G75*
G02*
X153220000Y-105855000I0J-135000D01*
G01*
X153220000Y-106125000D01*
G75*
G02*
X153085000Y-106260000I-135000J0D01*
G01*
X152715000Y-106260000D01*
G75*
G02*
X152580000Y-106125000I0J135000D01*
G01*
X152580000Y-105855000D01*
G75*
G02*
X152715000Y-105720000I135000J0D01*
G01*
G37*
%TD*%
%TO.C,R6*%
G36*
G01*
X144485000Y-102960000D02*
X144115000Y-102960000D01*
G75*
G02*
X143980000Y-102825000I0J135000D01*
G01*
X143980000Y-102555000D01*
G75*
G02*
X144115000Y-102420000I135000J0D01*
G01*
X144485000Y-102420000D01*
G75*
G02*
X144620000Y-102555000I0J-135000D01*
G01*
X144620000Y-102825000D01*
G75*
G02*
X144485000Y-102960000I-135000J0D01*
G01*
G37*
G36*
G01*
X144485000Y-103980000D02*
X144115000Y-103980000D01*
G75*
G02*
X143980000Y-103845000I0J135000D01*
G01*
X143980000Y-103575000D01*
G75*
G02*
X144115000Y-103440000I135000J0D01*
G01*
X144485000Y-103440000D01*
G75*
G02*
X144620000Y-103575000I0J-135000D01*
G01*
X144620000Y-103845000D01*
G75*
G02*
X144485000Y-103980000I-135000J0D01*
G01*
G37*
%TD*%
%TO.C,R5*%
G36*
G01*
X143290000Y-98735000D02*
X143290000Y-98365000D01*
G75*
G02*
X143425000Y-98230000I135000J0D01*
G01*
X143695000Y-98230000D01*
G75*
G02*
X143830000Y-98365000I0J-135000D01*
G01*
X143830000Y-98735000D01*
G75*
G02*
X143695000Y-98870000I-135000J0D01*
G01*
X143425000Y-98870000D01*
G75*
G02*
X143290000Y-98735000I0J135000D01*
G01*
G37*
G36*
G01*
X142270000Y-98735000D02*
X142270000Y-98365000D01*
G75*
G02*
X142405000Y-98230000I135000J0D01*
G01*
X142675000Y-98230000D01*
G75*
G02*
X142810000Y-98365000I0J-135000D01*
G01*
X142810000Y-98735000D01*
G75*
G02*
X142675000Y-98870000I-135000J0D01*
G01*
X142405000Y-98870000D01*
G75*
G02*
X142270000Y-98735000I0J135000D01*
G01*
G37*
%TD*%
%TO.C,R4*%
G36*
G01*
X142810000Y-97327436D02*
X142810000Y-97697436D01*
G75*
G02*
X142675000Y-97832436I-135000J0D01*
G01*
X142405000Y-97832436D01*
G75*
G02*
X142270000Y-97697436I0J135000D01*
G01*
X142270000Y-97327436D01*
G75*
G02*
X142405000Y-97192436I135000J0D01*
G01*
X142675000Y-97192436D01*
G75*
G02*
X142810000Y-97327436I0J-135000D01*
G01*
G37*
G36*
G01*
X143830000Y-97327436D02*
X143830000Y-97697436D01*
G75*
G02*
X143695000Y-97832436I-135000J0D01*
G01*
X143425000Y-97832436D01*
G75*
G02*
X143290000Y-97697436I0J135000D01*
G01*
X143290000Y-97327436D01*
G75*
G02*
X143425000Y-97192436I135000J0D01*
G01*
X143695000Y-97192436D01*
G75*
G02*
X143830000Y-97327436I0J-135000D01*
G01*
G37*
%TD*%
%TO.C,R3*%
G36*
G01*
X146090000Y-100835000D02*
X146090000Y-100465000D01*
G75*
G02*
X146225000Y-100330000I135000J0D01*
G01*
X146495000Y-100330000D01*
G75*
G02*
X146630000Y-100465000I0J-135000D01*
G01*
X146630000Y-100835000D01*
G75*
G02*
X146495000Y-100970000I-135000J0D01*
G01*
X146225000Y-100970000D01*
G75*
G02*
X146090000Y-100835000I0J135000D01*
G01*
G37*
G36*
G01*
X145070000Y-100835000D02*
X145070000Y-100465000D01*
G75*
G02*
X145205000Y-100330000I135000J0D01*
G01*
X145475000Y-100330000D01*
G75*
G02*
X145610000Y-100465000I0J-135000D01*
G01*
X145610000Y-100835000D01*
G75*
G02*
X145475000Y-100970000I-135000J0D01*
G01*
X145205000Y-100970000D01*
G75*
G02*
X145070000Y-100835000I0J135000D01*
G01*
G37*
%TD*%
%TO.C,R2*%
G36*
G01*
X154390000Y-99585000D02*
X154390000Y-99215000D01*
G75*
G02*
X154525000Y-99080000I135000J0D01*
G01*
X154795000Y-99080000D01*
G75*
G02*
X154930000Y-99215000I0J-135000D01*
G01*
X154930000Y-99585000D01*
G75*
G02*
X154795000Y-99720000I-135000J0D01*
G01*
X154525000Y-99720000D01*
G75*
G02*
X154390000Y-99585000I0J135000D01*
G01*
G37*
G36*
G01*
X153370000Y-99585000D02*
X153370000Y-99215000D01*
G75*
G02*
X153505000Y-99080000I135000J0D01*
G01*
X153775000Y-99080000D01*
G75*
G02*
X153910000Y-99215000I0J-135000D01*
G01*
X153910000Y-99585000D01*
G75*
G02*
X153775000Y-99720000I-135000J0D01*
G01*
X153505000Y-99720000D01*
G75*
G02*
X153370000Y-99585000I0J135000D01*
G01*
G37*
%TD*%
%TO.C,R1*%
G36*
G01*
X154390000Y-100635000D02*
X154390000Y-100265000D01*
G75*
G02*
X154525000Y-100130000I135000J0D01*
G01*
X154795000Y-100130000D01*
G75*
G02*
X154930000Y-100265000I0J-135000D01*
G01*
X154930000Y-100635000D01*
G75*
G02*
X154795000Y-100770000I-135000J0D01*
G01*
X154525000Y-100770000D01*
G75*
G02*
X154390000Y-100635000I0J135000D01*
G01*
G37*
G36*
G01*
X153370000Y-100635000D02*
X153370000Y-100265000D01*
G75*
G02*
X153505000Y-100130000I135000J0D01*
G01*
X153775000Y-100130000D01*
G75*
G02*
X153910000Y-100265000I0J-135000D01*
G01*
X153910000Y-100635000D01*
G75*
G02*
X153775000Y-100770000I-135000J0D01*
G01*
X153505000Y-100770000D01*
G75*
G02*
X153370000Y-100635000I0J135000D01*
G01*
G37*
%TD*%
%TO.C,L1*%
G36*
G01*
X151500000Y-95350000D02*
X149800000Y-95350000D01*
G75*
G02*
X149550000Y-95100000I0J250000D01*
G01*
X149550000Y-94350000D01*
G75*
G02*
X149800000Y-94100000I250000J0D01*
G01*
X151500000Y-94100000D01*
G75*
G02*
X151750000Y-94350000I0J-250000D01*
G01*
X151750000Y-95100000D01*
G75*
G02*
X151500000Y-95350000I-250000J0D01*
G01*
G37*
G36*
G01*
X151500000Y-97500000D02*
X149800000Y-97500000D01*
G75*
G02*
X149550000Y-97250000I0J250000D01*
G01*
X149550000Y-96500000D01*
G75*
G02*
X149800000Y-96250000I250000J0D01*
G01*
X151500000Y-96250000D01*
G75*
G02*
X151750000Y-96500000I0J-250000D01*
G01*
X151750000Y-97250000D01*
G75*
G02*
X151500000Y-97500000I-250000J0D01*
G01*
G37*
%TD*%
D17*
%TO.C,JP2*%
X144900000Y-93400000D03*
X143600000Y-93400000D03*
%TD*%
D18*
%TO.C,JP1*%
X141600000Y-94000000D03*
X141600000Y-95300000D03*
%TD*%
D19*
%TO.C,D1*%
X147600000Y-95550000D03*
X144300000Y-95550000D03*
%TD*%
%TO.C,C6*%
G36*
G01*
X141920000Y-105950000D02*
X141580000Y-105950000D01*
G75*
G02*
X141440000Y-105810000I0J140000D01*
G01*
X141440000Y-105530000D01*
G75*
G02*
X141580000Y-105390000I140000J0D01*
G01*
X141920000Y-105390000D01*
G75*
G02*
X142060000Y-105530000I0J-140000D01*
G01*
X142060000Y-105810000D01*
G75*
G02*
X141920000Y-105950000I-140000J0D01*
G01*
G37*
G36*
G01*
X141920000Y-106910000D02*
X141580000Y-106910000D01*
G75*
G02*
X141440000Y-106770000I0J140000D01*
G01*
X141440000Y-106490000D01*
G75*
G02*
X141580000Y-106350000I140000J0D01*
G01*
X141920000Y-106350000D01*
G75*
G02*
X142060000Y-106490000I0J-140000D01*
G01*
X142060000Y-106770000D01*
G75*
G02*
X141920000Y-106910000I-140000J0D01*
G01*
G37*
%TD*%
%TO.C,C5*%
G36*
G01*
X144230000Y-105950000D02*
X144570000Y-105950000D01*
G75*
G02*
X144710000Y-106090000I0J-140000D01*
G01*
X144710000Y-106370000D01*
G75*
G02*
X144570000Y-106510000I-140000J0D01*
G01*
X144230000Y-106510000D01*
G75*
G02*
X144090000Y-106370000I0J140000D01*
G01*
X144090000Y-106090000D01*
G75*
G02*
X144230000Y-105950000I140000J0D01*
G01*
G37*
G36*
G01*
X144230000Y-104990000D02*
X144570000Y-104990000D01*
G75*
G02*
X144710000Y-105130000I0J-140000D01*
G01*
X144710000Y-105410000D01*
G75*
G02*
X144570000Y-105550000I-140000J0D01*
G01*
X144230000Y-105550000D01*
G75*
G02*
X144090000Y-105410000I0J140000D01*
G01*
X144090000Y-105130000D01*
G75*
G02*
X144230000Y-104990000I140000J0D01*
G01*
G37*
%TD*%
%TO.C,C4*%
G36*
G01*
X140725000Y-98250000D02*
X141675000Y-98250000D01*
G75*
G02*
X141925000Y-98500000I0J-250000D01*
G01*
X141925000Y-99000000D01*
G75*
G02*
X141675000Y-99250000I-250000J0D01*
G01*
X140725000Y-99250000D01*
G75*
G02*
X140475000Y-99000000I0J250000D01*
G01*
X140475000Y-98500000D01*
G75*
G02*
X140725000Y-98250000I250000J0D01*
G01*
G37*
G36*
G01*
X140725000Y-96350000D02*
X141675000Y-96350000D01*
G75*
G02*
X141925000Y-96600000I0J-250000D01*
G01*
X141925000Y-97100000D01*
G75*
G02*
X141675000Y-97350000I-250000J0D01*
G01*
X140725000Y-97350000D01*
G75*
G02*
X140475000Y-97100000I0J250000D01*
G01*
X140475000Y-96600000D01*
G75*
G02*
X140725000Y-96350000I250000J0D01*
G01*
G37*
%TD*%
%TO.C,C3*%
G36*
G01*
X139680000Y-98000000D02*
X140020000Y-98000000D01*
G75*
G02*
X140160000Y-98140000I0J-140000D01*
G01*
X140160000Y-98420000D01*
G75*
G02*
X140020000Y-98560000I-140000J0D01*
G01*
X139680000Y-98560000D01*
G75*
G02*
X139540000Y-98420000I0J140000D01*
G01*
X139540000Y-98140000D01*
G75*
G02*
X139680000Y-98000000I140000J0D01*
G01*
G37*
G36*
G01*
X139680000Y-97040000D02*
X140020000Y-97040000D01*
G75*
G02*
X140160000Y-97180000I0J-140000D01*
G01*
X140160000Y-97460000D01*
G75*
G02*
X140020000Y-97600000I-140000J0D01*
G01*
X139680000Y-97600000D01*
G75*
G02*
X139540000Y-97460000I0J140000D01*
G01*
X139540000Y-97180000D01*
G75*
G02*
X139680000Y-97040000I140000J0D01*
G01*
G37*
%TD*%
%TO.C,C2*%
G36*
G01*
X153375000Y-97800000D02*
X153375000Y-98300000D01*
G75*
G02*
X153150000Y-98525000I-225000J0D01*
G01*
X152700000Y-98525000D01*
G75*
G02*
X152475000Y-98300000I0J225000D01*
G01*
X152475000Y-97800000D01*
G75*
G02*
X152700000Y-97575000I225000J0D01*
G01*
X153150000Y-97575000D01*
G75*
G02*
X153375000Y-97800000I0J-225000D01*
G01*
G37*
G36*
G01*
X154925000Y-97800000D02*
X154925000Y-98300000D01*
G75*
G02*
X154700000Y-98525000I-225000J0D01*
G01*
X154250000Y-98525000D01*
G75*
G02*
X154025000Y-98300000I0J225000D01*
G01*
X154025000Y-97800000D01*
G75*
G02*
X154250000Y-97575000I225000J0D01*
G01*
X154700000Y-97575000D01*
G75*
G02*
X154925000Y-97800000I0J-225000D01*
G01*
G37*
%TD*%
%TO.C,C1*%
G36*
G01*
X153500000Y-96680000D02*
X153500000Y-97020000D01*
G75*
G02*
X153360000Y-97160000I-140000J0D01*
G01*
X153080000Y-97160000D01*
G75*
G02*
X152940000Y-97020000I0J140000D01*
G01*
X152940000Y-96680000D01*
G75*
G02*
X153080000Y-96540000I140000J0D01*
G01*
X153360000Y-96540000D01*
G75*
G02*
X153500000Y-96680000I0J-140000D01*
G01*
G37*
G36*
G01*
X154460000Y-96680000D02*
X154460000Y-97020000D01*
G75*
G02*
X154320000Y-97160000I-140000J0D01*
G01*
X154040000Y-97160000D01*
G75*
G02*
X153900000Y-97020000I0J140000D01*
G01*
X153900000Y-96680000D01*
G75*
G02*
X154040000Y-96540000I140000J0D01*
G01*
X154320000Y-96540000D01*
G75*
G02*
X154460000Y-96680000I0J-140000D01*
G01*
G37*
%TD*%
M02*
