%TF.GenerationSoftware,KiCad,Pcbnew,(5.1.10)-1*%
%TF.CreationDate,2021-05-31T11:52:34-04:00*%
%TF.ProjectId,Charger,43686172-6765-4722-9e6b-696361645f70,rev?*%
%TF.SameCoordinates,Original*%
%TF.FileFunction,Copper,L2,Bot*%
%TF.FilePolarity,Positive*%
%FSLAX46Y46*%
G04 Gerber Fmt 4.6, Leading zero omitted, Abs format (unit mm)*
G04 Created by KiCad (PCBNEW (5.1.10)-1) date 2021-05-31 11:52:34*
%MOMM*%
%LPD*%
G01*
G04 APERTURE LIST*
%TA.AperFunction,EtchedComponent*%
%ADD10C,0.100000*%
%TD*%
%TA.AperFunction,SMDPad,CuDef*%
%ADD11R,0.700000X0.700000*%
%TD*%
%TA.AperFunction,ComponentPad*%
%ADD12C,2.000000*%
%TD*%
%TA.AperFunction,ComponentPad*%
%ADD13C,2.400000*%
%TD*%
%TA.AperFunction,SMDPad,CuDef*%
%ADD14R,1.200000X0.800000*%
%TD*%
%TA.AperFunction,SMDPad,CuDef*%
%ADD15R,1.000000X1.000000*%
%TD*%
%TA.AperFunction,SMDPad,CuDef*%
%ADD16R,0.900000X0.800000*%
%TD*%
%TA.AperFunction,SMDPad,CuDef*%
%ADD17R,1.060000X0.650000*%
%TD*%
%TA.AperFunction,SMDPad,CuDef*%
%ADD18R,1.000000X1.500000*%
%TD*%
%TA.AperFunction,SMDPad,CuDef*%
%ADD19R,1.500000X1.000000*%
%TD*%
%TA.AperFunction,SMDPad,CuDef*%
%ADD20R,0.900000X1.200000*%
%TD*%
%TA.AperFunction,ViaPad*%
%ADD21C,0.800000*%
%TD*%
%TA.AperFunction,Conductor*%
%ADD22C,0.500000*%
%TD*%
%TA.AperFunction,Conductor*%
%ADD23C,0.250000*%
%TD*%
G04 APERTURE END LIST*
D10*
%TO.C,JP1*%
G36*
X141900000Y-94900000D02*
G01*
X141900000Y-94400000D01*
X141300000Y-94400000D01*
X141300000Y-94900000D01*
X141900000Y-94900000D01*
G37*
%TD*%
D11*
%TO.P,TP7,1*%
%TO.N,Net-(R4-Pad1)*%
X144400000Y-97400000D03*
%TD*%
D12*
%TO.P,J3,1*%
%TO.N,Net-(C6-Pad1)*%
X139700000Y-105900000D03*
%TD*%
%TO.P,J2,1*%
%TO.N,+9V*%
X139700000Y-94000000D03*
%TD*%
D13*
%TO.P,J1,S1*%
%TO.N,GND*%
X156350000Y-104320000D03*
X156350000Y-95680000D03*
X160150000Y-104320000D03*
X160150000Y-95680000D03*
D14*
%TO.P,J1,A12*%
X156200000Y-102750000D03*
%TO.P,J1,A9*%
%TO.N,VBUS*%
X156200000Y-101520000D03*
%TO.P,J1,B5*%
%TO.N,Net-(J1-PadB5)*%
X156200000Y-100500000D03*
%TO.P,J1,A5*%
%TO.N,Net-(J1-PadA5)*%
X156200000Y-99500000D03*
%TO.P,J1,B9*%
%TO.N,VBUS*%
X156200000Y-98480000D03*
%TO.P,J1,B12*%
%TO.N,GND*%
X156200000Y-97250000D03*
%TD*%
D15*
%TO.P,TP12,1*%
%TO.N,Net-(Q1-Pad1)*%
X139100000Y-101050000D03*
%TD*%
%TO.P,TP11,1*%
%TO.N,Net-(C5-Pad1)*%
X143400000Y-105000000D03*
%TD*%
%TO.P,TP10,1*%
%TO.N,Net-(R7-Pad1)*%
X146100000Y-108200000D03*
%TD*%
%TO.P,TP9,1*%
%TO.N,Net-(R6-Pad1)*%
X144300000Y-108200000D03*
%TD*%
%TO.P,TP8,1*%
%TO.N,VD*%
X143100000Y-95400000D03*
%TD*%
%TO.P,TP6,1*%
%TO.N,Net-(D1-Pad2)*%
X151750000Y-93250000D03*
%TD*%
%TO.P,TP5,1*%
%TO.N,Net-(R3-Pad2)*%
X147500000Y-100900000D03*
%TD*%
%TO.P,TP4,1*%
%TO.N,GND*%
X158500000Y-106600000D03*
%TD*%
%TO.P,TP3,1*%
%TO.N,VBUS*%
X146500000Y-93100000D03*
%TD*%
D16*
%TO.P,Q1,3*%
%TO.N,Net-(C6-Pad1)*%
X139450000Y-102300000D03*
%TO.P,Q1,2*%
%TO.N,GND*%
X141450000Y-103250000D03*
%TO.P,Q1,1*%
%TO.N,Net-(Q1-Pad1)*%
X141450000Y-101350000D03*
%TD*%
D17*
%TO.P,U1,5*%
%TO.N,VBUS*%
X147700000Y-98350000D03*
%TO.P,U1,6*%
%TO.N,Net-(R3-Pad2)*%
X147700000Y-99300000D03*
%TO.P,U1,4*%
%TO.N,VBUS*%
X147700000Y-97400000D03*
%TO.P,U1,3*%
%TO.N,Net-(R4-Pad1)*%
X145500000Y-97400000D03*
%TO.P,U1,2*%
%TO.N,GND*%
X145500000Y-98350000D03*
%TO.P,U1,1*%
%TO.N,Net-(D1-Pad2)*%
X145500000Y-99300000D03*
%TD*%
%TO.P,U2,8*%
%TO.N,+9V*%
%TA.AperFunction,SMDPad,CuDef*%
G36*
G01*
X150100000Y-106705000D02*
X150100000Y-106405000D01*
G75*
G02*
X150250000Y-106255000I150000J0D01*
G01*
X151900000Y-106255000D01*
G75*
G02*
X152050000Y-106405000I0J-150000D01*
G01*
X152050000Y-106705000D01*
G75*
G02*
X151900000Y-106855000I-150000J0D01*
G01*
X150250000Y-106855000D01*
G75*
G02*
X150100000Y-106705000I0J150000D01*
G01*
G37*
%TD.AperFunction*%
%TO.P,U2,7*%
%TO.N,Net-(R7-Pad1)*%
%TA.AperFunction,SMDPad,CuDef*%
G36*
G01*
X150100000Y-105435000D02*
X150100000Y-105135000D01*
G75*
G02*
X150250000Y-104985000I150000J0D01*
G01*
X151900000Y-104985000D01*
G75*
G02*
X152050000Y-105135000I0J-150000D01*
G01*
X152050000Y-105435000D01*
G75*
G02*
X151900000Y-105585000I-150000J0D01*
G01*
X150250000Y-105585000D01*
G75*
G02*
X150100000Y-105435000I0J150000D01*
G01*
G37*
%TD.AperFunction*%
%TO.P,U2,6*%
%TO.N,Net-(C5-Pad1)*%
%TA.AperFunction,SMDPad,CuDef*%
G36*
G01*
X150100000Y-104165000D02*
X150100000Y-103865000D01*
G75*
G02*
X150250000Y-103715000I150000J0D01*
G01*
X151900000Y-103715000D01*
G75*
G02*
X152050000Y-103865000I0J-150000D01*
G01*
X152050000Y-104165000D01*
G75*
G02*
X151900000Y-104315000I-150000J0D01*
G01*
X150250000Y-104315000D01*
G75*
G02*
X150100000Y-104165000I0J150000D01*
G01*
G37*
%TD.AperFunction*%
%TO.P,U2,5*%
%TO.N,N/C*%
%TA.AperFunction,SMDPad,CuDef*%
G36*
G01*
X150100000Y-102895000D02*
X150100000Y-102595000D01*
G75*
G02*
X150250000Y-102445000I150000J0D01*
G01*
X151900000Y-102445000D01*
G75*
G02*
X152050000Y-102595000I0J-150000D01*
G01*
X152050000Y-102895000D01*
G75*
G02*
X151900000Y-103045000I-150000J0D01*
G01*
X150250000Y-103045000D01*
G75*
G02*
X150100000Y-102895000I0J150000D01*
G01*
G37*
%TD.AperFunction*%
%TO.P,U2,4*%
%TO.N,+9V*%
%TA.AperFunction,SMDPad,CuDef*%
G36*
G01*
X145150000Y-102895000D02*
X145150000Y-102595000D01*
G75*
G02*
X145300000Y-102445000I150000J0D01*
G01*
X146950000Y-102445000D01*
G75*
G02*
X147100000Y-102595000I0J-150000D01*
G01*
X147100000Y-102895000D01*
G75*
G02*
X146950000Y-103045000I-150000J0D01*
G01*
X145300000Y-103045000D01*
G75*
G02*
X145150000Y-102895000I0J150000D01*
G01*
G37*
%TD.AperFunction*%
%TO.P,U2,3*%
%TO.N,Net-(R6-Pad1)*%
%TA.AperFunction,SMDPad,CuDef*%
G36*
G01*
X145150000Y-104165000D02*
X145150000Y-103865000D01*
G75*
G02*
X145300000Y-103715000I150000J0D01*
G01*
X146950000Y-103715000D01*
G75*
G02*
X147100000Y-103865000I0J-150000D01*
G01*
X147100000Y-104165000D01*
G75*
G02*
X146950000Y-104315000I-150000J0D01*
G01*
X145300000Y-104315000D01*
G75*
G02*
X145150000Y-104165000I0J150000D01*
G01*
G37*
%TD.AperFunction*%
%TO.P,U2,2*%
%TO.N,Net-(C5-Pad1)*%
%TA.AperFunction,SMDPad,CuDef*%
G36*
G01*
X145150000Y-105435000D02*
X145150000Y-105135000D01*
G75*
G02*
X145300000Y-104985000I150000J0D01*
G01*
X146950000Y-104985000D01*
G75*
G02*
X147100000Y-105135000I0J-150000D01*
G01*
X147100000Y-105435000D01*
G75*
G02*
X146950000Y-105585000I-150000J0D01*
G01*
X145300000Y-105585000D01*
G75*
G02*
X145150000Y-105435000I0J150000D01*
G01*
G37*
%TD.AperFunction*%
%TO.P,U2,1*%
%TO.N,GND*%
%TA.AperFunction,SMDPad,CuDef*%
G36*
G01*
X145150000Y-106705000D02*
X145150000Y-106405000D01*
G75*
G02*
X145300000Y-106255000I150000J0D01*
G01*
X146950000Y-106255000D01*
G75*
G02*
X147100000Y-106405000I0J-150000D01*
G01*
X147100000Y-106705000D01*
G75*
G02*
X146950000Y-106855000I-150000J0D01*
G01*
X145300000Y-106855000D01*
G75*
G02*
X145150000Y-106705000I0J150000D01*
G01*
G37*
%TD.AperFunction*%
%TD*%
%TO.P,R9,2*%
%TO.N,Net-(R6-Pad1)*%
%TA.AperFunction,SMDPad,CuDef*%
G36*
G01*
X142915000Y-103440000D02*
X143285000Y-103440000D01*
G75*
G02*
X143420000Y-103575000I0J-135000D01*
G01*
X143420000Y-103845000D01*
G75*
G02*
X143285000Y-103980000I-135000J0D01*
G01*
X142915000Y-103980000D01*
G75*
G02*
X142780000Y-103845000I0J135000D01*
G01*
X142780000Y-103575000D01*
G75*
G02*
X142915000Y-103440000I135000J0D01*
G01*
G37*
%TD.AperFunction*%
%TO.P,R9,1*%
%TO.N,Net-(Q1-Pad1)*%
%TA.AperFunction,SMDPad,CuDef*%
G36*
G01*
X142915000Y-102420000D02*
X143285000Y-102420000D01*
G75*
G02*
X143420000Y-102555000I0J-135000D01*
G01*
X143420000Y-102825000D01*
G75*
G02*
X143285000Y-102960000I-135000J0D01*
G01*
X142915000Y-102960000D01*
G75*
G02*
X142780000Y-102825000I0J135000D01*
G01*
X142780000Y-102555000D01*
G75*
G02*
X142915000Y-102420000I135000J0D01*
G01*
G37*
%TD.AperFunction*%
%TD*%
%TO.P,R8,2*%
%TO.N,Net-(R7-Pad1)*%
%TA.AperFunction,SMDPad,CuDef*%
G36*
G01*
X152715000Y-104740000D02*
X153085000Y-104740000D01*
G75*
G02*
X153220000Y-104875000I0J-135000D01*
G01*
X153220000Y-105145000D01*
G75*
G02*
X153085000Y-105280000I-135000J0D01*
G01*
X152715000Y-105280000D01*
G75*
G02*
X152580000Y-105145000I0J135000D01*
G01*
X152580000Y-104875000D01*
G75*
G02*
X152715000Y-104740000I135000J0D01*
G01*
G37*
%TD.AperFunction*%
%TO.P,R8,1*%
%TO.N,Net-(C5-Pad1)*%
%TA.AperFunction,SMDPad,CuDef*%
G36*
G01*
X152715000Y-103720000D02*
X153085000Y-103720000D01*
G75*
G02*
X153220000Y-103855000I0J-135000D01*
G01*
X153220000Y-104125000D01*
G75*
G02*
X153085000Y-104260000I-135000J0D01*
G01*
X152715000Y-104260000D01*
G75*
G02*
X152580000Y-104125000I0J135000D01*
G01*
X152580000Y-103855000D01*
G75*
G02*
X152715000Y-103720000I135000J0D01*
G01*
G37*
%TD.AperFunction*%
%TD*%
%TO.P,R7,2*%
%TO.N,+9V*%
%TA.AperFunction,SMDPad,CuDef*%
G36*
G01*
X152715000Y-106740000D02*
X153085000Y-106740000D01*
G75*
G02*
X153220000Y-106875000I0J-135000D01*
G01*
X153220000Y-107145000D01*
G75*
G02*
X153085000Y-107280000I-135000J0D01*
G01*
X152715000Y-107280000D01*
G75*
G02*
X152580000Y-107145000I0J135000D01*
G01*
X152580000Y-106875000D01*
G75*
G02*
X152715000Y-106740000I135000J0D01*
G01*
G37*
%TD.AperFunction*%
%TO.P,R7,1*%
%TO.N,Net-(R7-Pad1)*%
%TA.AperFunction,SMDPad,CuDef*%
G36*
G01*
X152715000Y-105720000D02*
X153085000Y-105720000D01*
G75*
G02*
X153220000Y-105855000I0J-135000D01*
G01*
X153220000Y-106125000D01*
G75*
G02*
X153085000Y-106260000I-135000J0D01*
G01*
X152715000Y-106260000D01*
G75*
G02*
X152580000Y-106125000I0J135000D01*
G01*
X152580000Y-105855000D01*
G75*
G02*
X152715000Y-105720000I135000J0D01*
G01*
G37*
%TD.AperFunction*%
%TD*%
%TO.P,R6,2*%
%TO.N,+9V*%
%TA.AperFunction,SMDPad,CuDef*%
G36*
G01*
X144485000Y-102960000D02*
X144115000Y-102960000D01*
G75*
G02*
X143980000Y-102825000I0J135000D01*
G01*
X143980000Y-102555000D01*
G75*
G02*
X144115000Y-102420000I135000J0D01*
G01*
X144485000Y-102420000D01*
G75*
G02*
X144620000Y-102555000I0J-135000D01*
G01*
X144620000Y-102825000D01*
G75*
G02*
X144485000Y-102960000I-135000J0D01*
G01*
G37*
%TD.AperFunction*%
%TO.P,R6,1*%
%TO.N,Net-(R6-Pad1)*%
%TA.AperFunction,SMDPad,CuDef*%
G36*
G01*
X144485000Y-103980000D02*
X144115000Y-103980000D01*
G75*
G02*
X143980000Y-103845000I0J135000D01*
G01*
X143980000Y-103575000D01*
G75*
G02*
X144115000Y-103440000I135000J0D01*
G01*
X144485000Y-103440000D01*
G75*
G02*
X144620000Y-103575000I0J-135000D01*
G01*
X144620000Y-103845000D01*
G75*
G02*
X144485000Y-103980000I-135000J0D01*
G01*
G37*
%TD.AperFunction*%
%TD*%
%TO.P,R5,2*%
%TO.N,Net-(R4-Pad1)*%
%TA.AperFunction,SMDPad,CuDef*%
G36*
G01*
X143290000Y-98735000D02*
X143290000Y-98365000D01*
G75*
G02*
X143425000Y-98230000I135000J0D01*
G01*
X143695000Y-98230000D01*
G75*
G02*
X143830000Y-98365000I0J-135000D01*
G01*
X143830000Y-98735000D01*
G75*
G02*
X143695000Y-98870000I-135000J0D01*
G01*
X143425000Y-98870000D01*
G75*
G02*
X143290000Y-98735000I0J135000D01*
G01*
G37*
%TD.AperFunction*%
%TO.P,R5,1*%
%TO.N,GND*%
%TA.AperFunction,SMDPad,CuDef*%
G36*
G01*
X142270000Y-98735000D02*
X142270000Y-98365000D01*
G75*
G02*
X142405000Y-98230000I135000J0D01*
G01*
X142675000Y-98230000D01*
G75*
G02*
X142810000Y-98365000I0J-135000D01*
G01*
X142810000Y-98735000D01*
G75*
G02*
X142675000Y-98870000I-135000J0D01*
G01*
X142405000Y-98870000D01*
G75*
G02*
X142270000Y-98735000I0J135000D01*
G01*
G37*
%TD.AperFunction*%
%TD*%
%TO.P,R4,2*%
%TO.N,VD*%
%TA.AperFunction,SMDPad,CuDef*%
G36*
G01*
X142810000Y-97327436D02*
X142810000Y-97697436D01*
G75*
G02*
X142675000Y-97832436I-135000J0D01*
G01*
X142405000Y-97832436D01*
G75*
G02*
X142270000Y-97697436I0J135000D01*
G01*
X142270000Y-97327436D01*
G75*
G02*
X142405000Y-97192436I135000J0D01*
G01*
X142675000Y-97192436D01*
G75*
G02*
X142810000Y-97327436I0J-135000D01*
G01*
G37*
%TD.AperFunction*%
%TO.P,R4,1*%
%TO.N,Net-(R4-Pad1)*%
%TA.AperFunction,SMDPad,CuDef*%
G36*
G01*
X143830000Y-97327436D02*
X143830000Y-97697436D01*
G75*
G02*
X143695000Y-97832436I-135000J0D01*
G01*
X143425000Y-97832436D01*
G75*
G02*
X143290000Y-97697436I0J135000D01*
G01*
X143290000Y-97327436D01*
G75*
G02*
X143425000Y-97192436I135000J0D01*
G01*
X143695000Y-97192436D01*
G75*
G02*
X143830000Y-97327436I0J-135000D01*
G01*
G37*
%TD.AperFunction*%
%TD*%
%TO.P,R3,2*%
%TO.N,Net-(R3-Pad2)*%
%TA.AperFunction,SMDPad,CuDef*%
G36*
G01*
X146090000Y-100835000D02*
X146090000Y-100465000D01*
G75*
G02*
X146225000Y-100330000I135000J0D01*
G01*
X146495000Y-100330000D01*
G75*
G02*
X146630000Y-100465000I0J-135000D01*
G01*
X146630000Y-100835000D01*
G75*
G02*
X146495000Y-100970000I-135000J0D01*
G01*
X146225000Y-100970000D01*
G75*
G02*
X146090000Y-100835000I0J135000D01*
G01*
G37*
%TD.AperFunction*%
%TO.P,R3,1*%
%TO.N,GND*%
%TA.AperFunction,SMDPad,CuDef*%
G36*
G01*
X145070000Y-100835000D02*
X145070000Y-100465000D01*
G75*
G02*
X145205000Y-100330000I135000J0D01*
G01*
X145475000Y-100330000D01*
G75*
G02*
X145610000Y-100465000I0J-135000D01*
G01*
X145610000Y-100835000D01*
G75*
G02*
X145475000Y-100970000I-135000J0D01*
G01*
X145205000Y-100970000D01*
G75*
G02*
X145070000Y-100835000I0J135000D01*
G01*
G37*
%TD.AperFunction*%
%TD*%
%TO.P,R2,2*%
%TO.N,Net-(J1-PadA5)*%
%TA.AperFunction,SMDPad,CuDef*%
G36*
G01*
X154390000Y-99585000D02*
X154390000Y-99215000D01*
G75*
G02*
X154525000Y-99080000I135000J0D01*
G01*
X154795000Y-99080000D01*
G75*
G02*
X154930000Y-99215000I0J-135000D01*
G01*
X154930000Y-99585000D01*
G75*
G02*
X154795000Y-99720000I-135000J0D01*
G01*
X154525000Y-99720000D01*
G75*
G02*
X154390000Y-99585000I0J135000D01*
G01*
G37*
%TD.AperFunction*%
%TO.P,R2,1*%
%TO.N,GND*%
%TA.AperFunction,SMDPad,CuDef*%
G36*
G01*
X153370000Y-99585000D02*
X153370000Y-99215000D01*
G75*
G02*
X153505000Y-99080000I135000J0D01*
G01*
X153775000Y-99080000D01*
G75*
G02*
X153910000Y-99215000I0J-135000D01*
G01*
X153910000Y-99585000D01*
G75*
G02*
X153775000Y-99720000I-135000J0D01*
G01*
X153505000Y-99720000D01*
G75*
G02*
X153370000Y-99585000I0J135000D01*
G01*
G37*
%TD.AperFunction*%
%TD*%
%TO.P,R1,2*%
%TO.N,Net-(J1-PadB5)*%
%TA.AperFunction,SMDPad,CuDef*%
G36*
G01*
X154390000Y-100635000D02*
X154390000Y-100265000D01*
G75*
G02*
X154525000Y-100130000I135000J0D01*
G01*
X154795000Y-100130000D01*
G75*
G02*
X154930000Y-100265000I0J-135000D01*
G01*
X154930000Y-100635000D01*
G75*
G02*
X154795000Y-100770000I-135000J0D01*
G01*
X154525000Y-100770000D01*
G75*
G02*
X154390000Y-100635000I0J135000D01*
G01*
G37*
%TD.AperFunction*%
%TO.P,R1,1*%
%TO.N,GND*%
%TA.AperFunction,SMDPad,CuDef*%
G36*
G01*
X153370000Y-100635000D02*
X153370000Y-100265000D01*
G75*
G02*
X153505000Y-100130000I135000J0D01*
G01*
X153775000Y-100130000D01*
G75*
G02*
X153910000Y-100265000I0J-135000D01*
G01*
X153910000Y-100635000D01*
G75*
G02*
X153775000Y-100770000I-135000J0D01*
G01*
X153505000Y-100770000D01*
G75*
G02*
X153370000Y-100635000I0J135000D01*
G01*
G37*
%TD.AperFunction*%
%TD*%
%TO.P,L1,2*%
%TO.N,Net-(D1-Pad2)*%
%TA.AperFunction,SMDPad,CuDef*%
G36*
G01*
X151500000Y-95350000D02*
X149800000Y-95350000D01*
G75*
G02*
X149550000Y-95100000I0J250000D01*
G01*
X149550000Y-94350000D01*
G75*
G02*
X149800000Y-94100000I250000J0D01*
G01*
X151500000Y-94100000D01*
G75*
G02*
X151750000Y-94350000I0J-250000D01*
G01*
X151750000Y-95100000D01*
G75*
G02*
X151500000Y-95350000I-250000J0D01*
G01*
G37*
%TD.AperFunction*%
%TO.P,L1,1*%
%TO.N,VBUS*%
%TA.AperFunction,SMDPad,CuDef*%
G36*
G01*
X151500000Y-97500000D02*
X149800000Y-97500000D01*
G75*
G02*
X149550000Y-97250000I0J250000D01*
G01*
X149550000Y-96500000D01*
G75*
G02*
X149800000Y-96250000I250000J0D01*
G01*
X151500000Y-96250000D01*
G75*
G02*
X151750000Y-96500000I0J-250000D01*
G01*
X151750000Y-97250000D01*
G75*
G02*
X151500000Y-97500000I-250000J0D01*
G01*
G37*
%TD.AperFunction*%
%TD*%
D18*
%TO.P,JP2,1*%
%TO.N,VBUS*%
X144900000Y-93400000D03*
%TO.P,JP2,2*%
%TO.N,+9V*%
X143600000Y-93400000D03*
%TD*%
D19*
%TO.P,JP1,2*%
%TO.N,+9V*%
X141600000Y-94000000D03*
%TO.P,JP1,1*%
%TO.N,VD*%
X141600000Y-95300000D03*
%TD*%
D20*
%TO.P,D1,2*%
%TO.N,Net-(D1-Pad2)*%
X147600000Y-95550000D03*
%TO.P,D1,1*%
%TO.N,VD*%
X144300000Y-95550000D03*
%TD*%
%TO.P,C6,2*%
%TO.N,GND*%
%TA.AperFunction,SMDPad,CuDef*%
G36*
G01*
X141920000Y-105950000D02*
X141580000Y-105950000D01*
G75*
G02*
X141440000Y-105810000I0J140000D01*
G01*
X141440000Y-105530000D01*
G75*
G02*
X141580000Y-105390000I140000J0D01*
G01*
X141920000Y-105390000D01*
G75*
G02*
X142060000Y-105530000I0J-140000D01*
G01*
X142060000Y-105810000D01*
G75*
G02*
X141920000Y-105950000I-140000J0D01*
G01*
G37*
%TD.AperFunction*%
%TO.P,C6,1*%
%TO.N,Net-(C6-Pad1)*%
%TA.AperFunction,SMDPad,CuDef*%
G36*
G01*
X141920000Y-106910000D02*
X141580000Y-106910000D01*
G75*
G02*
X141440000Y-106770000I0J140000D01*
G01*
X141440000Y-106490000D01*
G75*
G02*
X141580000Y-106350000I140000J0D01*
G01*
X141920000Y-106350000D01*
G75*
G02*
X142060000Y-106490000I0J-140000D01*
G01*
X142060000Y-106770000D01*
G75*
G02*
X141920000Y-106910000I-140000J0D01*
G01*
G37*
%TD.AperFunction*%
%TD*%
%TO.P,C5,2*%
%TO.N,GND*%
%TA.AperFunction,SMDPad,CuDef*%
G36*
G01*
X144230000Y-105950000D02*
X144570000Y-105950000D01*
G75*
G02*
X144710000Y-106090000I0J-140000D01*
G01*
X144710000Y-106370000D01*
G75*
G02*
X144570000Y-106510000I-140000J0D01*
G01*
X144230000Y-106510000D01*
G75*
G02*
X144090000Y-106370000I0J140000D01*
G01*
X144090000Y-106090000D01*
G75*
G02*
X144230000Y-105950000I140000J0D01*
G01*
G37*
%TD.AperFunction*%
%TO.P,C5,1*%
%TO.N,Net-(C5-Pad1)*%
%TA.AperFunction,SMDPad,CuDef*%
G36*
G01*
X144230000Y-104990000D02*
X144570000Y-104990000D01*
G75*
G02*
X144710000Y-105130000I0J-140000D01*
G01*
X144710000Y-105410000D01*
G75*
G02*
X144570000Y-105550000I-140000J0D01*
G01*
X144230000Y-105550000D01*
G75*
G02*
X144090000Y-105410000I0J140000D01*
G01*
X144090000Y-105130000D01*
G75*
G02*
X144230000Y-104990000I140000J0D01*
G01*
G37*
%TD.AperFunction*%
%TD*%
%TO.P,C4,2*%
%TO.N,GND*%
%TA.AperFunction,SMDPad,CuDef*%
G36*
G01*
X140725000Y-98250000D02*
X141675000Y-98250000D01*
G75*
G02*
X141925000Y-98500000I0J-250000D01*
G01*
X141925000Y-99000000D01*
G75*
G02*
X141675000Y-99250000I-250000J0D01*
G01*
X140725000Y-99250000D01*
G75*
G02*
X140475000Y-99000000I0J250000D01*
G01*
X140475000Y-98500000D01*
G75*
G02*
X140725000Y-98250000I250000J0D01*
G01*
G37*
%TD.AperFunction*%
%TO.P,C4,1*%
%TO.N,VD*%
%TA.AperFunction,SMDPad,CuDef*%
G36*
G01*
X140725000Y-96350000D02*
X141675000Y-96350000D01*
G75*
G02*
X141925000Y-96600000I0J-250000D01*
G01*
X141925000Y-97100000D01*
G75*
G02*
X141675000Y-97350000I-250000J0D01*
G01*
X140725000Y-97350000D01*
G75*
G02*
X140475000Y-97100000I0J250000D01*
G01*
X140475000Y-96600000D01*
G75*
G02*
X140725000Y-96350000I250000J0D01*
G01*
G37*
%TD.AperFunction*%
%TD*%
%TO.P,C3,2*%
%TO.N,GND*%
%TA.AperFunction,SMDPad,CuDef*%
G36*
G01*
X139680000Y-98000000D02*
X140020000Y-98000000D01*
G75*
G02*
X140160000Y-98140000I0J-140000D01*
G01*
X140160000Y-98420000D01*
G75*
G02*
X140020000Y-98560000I-140000J0D01*
G01*
X139680000Y-98560000D01*
G75*
G02*
X139540000Y-98420000I0J140000D01*
G01*
X139540000Y-98140000D01*
G75*
G02*
X139680000Y-98000000I140000J0D01*
G01*
G37*
%TD.AperFunction*%
%TO.P,C3,1*%
%TO.N,VD*%
%TA.AperFunction,SMDPad,CuDef*%
G36*
G01*
X139680000Y-97040000D02*
X140020000Y-97040000D01*
G75*
G02*
X140160000Y-97180000I0J-140000D01*
G01*
X140160000Y-97460000D01*
G75*
G02*
X140020000Y-97600000I-140000J0D01*
G01*
X139680000Y-97600000D01*
G75*
G02*
X139540000Y-97460000I0J140000D01*
G01*
X139540000Y-97180000D01*
G75*
G02*
X139680000Y-97040000I140000J0D01*
G01*
G37*
%TD.AperFunction*%
%TD*%
%TO.P,C2,2*%
%TO.N,GND*%
%TA.AperFunction,SMDPad,CuDef*%
G36*
G01*
X153375000Y-97800000D02*
X153375000Y-98300000D01*
G75*
G02*
X153150000Y-98525000I-225000J0D01*
G01*
X152700000Y-98525000D01*
G75*
G02*
X152475000Y-98300000I0J225000D01*
G01*
X152475000Y-97800000D01*
G75*
G02*
X152700000Y-97575000I225000J0D01*
G01*
X153150000Y-97575000D01*
G75*
G02*
X153375000Y-97800000I0J-225000D01*
G01*
G37*
%TD.AperFunction*%
%TO.P,C2,1*%
%TO.N,VBUS*%
%TA.AperFunction,SMDPad,CuDef*%
G36*
G01*
X154925000Y-97800000D02*
X154925000Y-98300000D01*
G75*
G02*
X154700000Y-98525000I-225000J0D01*
G01*
X154250000Y-98525000D01*
G75*
G02*
X154025000Y-98300000I0J225000D01*
G01*
X154025000Y-97800000D01*
G75*
G02*
X154250000Y-97575000I225000J0D01*
G01*
X154700000Y-97575000D01*
G75*
G02*
X154925000Y-97800000I0J-225000D01*
G01*
G37*
%TD.AperFunction*%
%TD*%
%TO.P,C1,2*%
%TO.N,GND*%
%TA.AperFunction,SMDPad,CuDef*%
G36*
G01*
X153500000Y-96680000D02*
X153500000Y-97020000D01*
G75*
G02*
X153360000Y-97160000I-140000J0D01*
G01*
X153080000Y-97160000D01*
G75*
G02*
X152940000Y-97020000I0J140000D01*
G01*
X152940000Y-96680000D01*
G75*
G02*
X153080000Y-96540000I140000J0D01*
G01*
X153360000Y-96540000D01*
G75*
G02*
X153500000Y-96680000I0J-140000D01*
G01*
G37*
%TD.AperFunction*%
%TO.P,C1,1*%
%TO.N,VBUS*%
%TA.AperFunction,SMDPad,CuDef*%
G36*
G01*
X154460000Y-96680000D02*
X154460000Y-97020000D01*
G75*
G02*
X154320000Y-97160000I-140000J0D01*
G01*
X154040000Y-97160000D01*
G75*
G02*
X153900000Y-97020000I0J140000D01*
G01*
X153900000Y-96680000D01*
G75*
G02*
X154040000Y-96540000I140000J0D01*
G01*
X154320000Y-96540000D01*
G75*
G02*
X154460000Y-96680000I0J-140000D01*
G01*
G37*
%TD.AperFunction*%
%TD*%
D21*
%TO.N,GND*%
X141450000Y-104250000D03*
X143650000Y-106250000D03*
X143700000Y-99600000D03*
X152750000Y-100950000D03*
%TO.N,VBUS*%
X155270000Y-98480000D03*
X154800000Y-101900000D03*
X149200000Y-96850000D03*
X147600000Y-93850000D03*
%TD*%
D22*
%TO.N,GND*%
X156350000Y-95680000D02*
X160150000Y-95680000D01*
X157250000Y-97250000D02*
X157900000Y-97900000D01*
X156200000Y-97250000D02*
X157250000Y-97250000D01*
X157300000Y-102750000D02*
X157900000Y-102150000D01*
X156200000Y-102750000D02*
X157300000Y-102750000D01*
X157900000Y-102150000D02*
X157900000Y-97900000D01*
X156350000Y-104320000D02*
X160150000Y-104320000D01*
X156200000Y-104170000D02*
X156350000Y-104320000D01*
X156200000Y-102750000D02*
X156200000Y-104170000D01*
X156350000Y-97100000D02*
X156200000Y-97250000D01*
X156350000Y-95680000D02*
X156350000Y-97100000D01*
X143150000Y-99600000D02*
X142370834Y-98820834D01*
X143700000Y-99600000D02*
X143150000Y-99600000D01*
X145500000Y-98350000D02*
X144700000Y-98350000D01*
X144700000Y-98350000D02*
X144400000Y-98650000D01*
X144400000Y-98650000D02*
X144400000Y-99350000D01*
X144150000Y-99600000D02*
X143700000Y-99600000D01*
X144400000Y-99350000D02*
X144150000Y-99600000D01*
X142540000Y-98651668D02*
X142370834Y-98820834D01*
X142540000Y-98550000D02*
X142540000Y-98651668D01*
X141450000Y-104250000D02*
X141450000Y-103250000D01*
X141780000Y-104580000D02*
X141780000Y-105650000D01*
X141450000Y-104250000D02*
X141780000Y-104580000D01*
X140320000Y-98750000D02*
X141200000Y-98750000D01*
X139850000Y-98280000D02*
X140320000Y-98750000D01*
X142340000Y-98750000D02*
X141200000Y-98750000D01*
X142540000Y-98550000D02*
X142340000Y-98750000D01*
X144380000Y-106250000D02*
X144400000Y-106230000D01*
X143650000Y-106250000D02*
X144380000Y-106250000D01*
X144725000Y-106555000D02*
X144400000Y-106230000D01*
X146125000Y-106555000D02*
X144725000Y-106555000D01*
X153640000Y-99400000D02*
X153250000Y-99400000D01*
X153640000Y-99400000D02*
X153640000Y-100450000D01*
X160150000Y-104320000D02*
X160150000Y-106150000D01*
X159700000Y-106600000D02*
X158500000Y-106600000D01*
X160150000Y-106150000D02*
X159700000Y-106600000D01*
X145340000Y-100650000D02*
X144300000Y-100650000D01*
X143700000Y-100050000D02*
X143700000Y-99600000D01*
X144300000Y-100650000D02*
X143700000Y-100050000D01*
X152750000Y-100950000D02*
X152900000Y-100900000D01*
X152925000Y-99075000D02*
X152925000Y-98050000D01*
X153250000Y-99400000D02*
X152925000Y-99075000D01*
X153250000Y-100450000D02*
X152750000Y-100950000D01*
X153640000Y-100450000D02*
X153250000Y-100450000D01*
X152925000Y-97145000D02*
X152925000Y-98050000D01*
X153220000Y-96850000D02*
X152925000Y-97145000D01*
%TO.N,VBUS*%
X156200000Y-98480000D02*
X155270000Y-98480000D01*
X154495000Y-98030000D02*
X154475000Y-98050000D01*
X155270000Y-98480000D02*
X154595000Y-98480000D01*
X150625000Y-96850000D02*
X150650000Y-96875000D01*
X149200000Y-96850000D02*
X150625000Y-96850000D01*
X147150000Y-93400000D02*
X147600000Y-93850000D01*
X148650000Y-97400000D02*
X147700000Y-97400000D01*
X149200000Y-96850000D02*
X148650000Y-97400000D01*
X147700000Y-97400000D02*
X147700000Y-98350000D01*
X146850000Y-93100000D02*
X147150000Y-93400000D01*
X146500000Y-93100000D02*
X146850000Y-93100000D01*
X154475000Y-98360000D02*
X154595000Y-98480000D01*
X154475000Y-98050000D02*
X154475000Y-98360000D01*
X154475000Y-97145000D02*
X154475000Y-98050000D01*
X154180000Y-96850000D02*
X154475000Y-97145000D01*
X155180000Y-101520000D02*
X154800000Y-101900000D01*
X156200000Y-101520000D02*
X155180000Y-101520000D01*
X145200000Y-93100000D02*
X144900000Y-93400000D01*
X146500000Y-93100000D02*
X145200000Y-93100000D01*
%TO.N,VD*%
X141850000Y-95550000D02*
X141600000Y-95300000D01*
X144300000Y-95550000D02*
X141850000Y-95550000D01*
X141600000Y-96450000D02*
X141200000Y-96850000D01*
X141600000Y-95300000D02*
X141600000Y-96450000D01*
X141877564Y-96850000D02*
X141200000Y-96850000D01*
X142540000Y-97512436D02*
X141877564Y-96850000D01*
X140320000Y-96850000D02*
X139850000Y-97320000D01*
X141200000Y-96850000D02*
X140320000Y-96850000D01*
D23*
%TO.N,Net-(C5-Pad1)*%
X144415000Y-105285000D02*
X144400000Y-105270000D01*
X146125000Y-105285000D02*
X144415000Y-105285000D01*
X146125000Y-105285000D02*
X147915000Y-105285000D01*
X149185000Y-104015000D02*
X151075000Y-104015000D01*
X147915000Y-105285000D02*
X149185000Y-104015000D01*
X151100000Y-103990000D02*
X151075000Y-104015000D01*
X152900000Y-103990000D02*
X151100000Y-103990000D01*
X143620000Y-105270000D02*
X143350000Y-105000000D01*
X144400000Y-105270000D02*
X143520000Y-105270000D01*
D22*
%TO.N,Net-(C6-Pad1)*%
X139450000Y-105650000D02*
X139400000Y-105700000D01*
X139400000Y-102350000D02*
X139450000Y-102300000D01*
X139400000Y-105700000D02*
X139400000Y-102350000D01*
X140430000Y-106630000D02*
X139700000Y-105900000D01*
X141750000Y-106630000D02*
X140430000Y-106630000D01*
D23*
%TO.N,Net-(D1-Pad2)*%
X150650000Y-94725000D02*
X150650000Y-93650000D01*
X151050000Y-93250000D02*
X151750000Y-93250000D01*
X150650000Y-93650000D02*
X151050000Y-93250000D01*
D22*
X146350000Y-99300000D02*
X146600000Y-99050000D01*
X145500000Y-99300000D02*
X146350000Y-99300000D01*
X146600000Y-99050000D02*
X146600000Y-95700000D01*
X147600000Y-95550000D02*
X146750000Y-95550000D01*
X147600000Y-95550000D02*
X148425000Y-94725000D01*
X148425000Y-94725000D02*
X150650000Y-94725000D01*
X146600000Y-95700000D02*
X146750000Y-95550000D01*
D23*
%TO.N,Net-(J1-PadB5)*%
X156150000Y-100450000D02*
X156200000Y-100500000D01*
X154660000Y-100450000D02*
X156150000Y-100450000D01*
%TO.N,Net-(J1-PadA5)*%
X156100000Y-99400000D02*
X156200000Y-99500000D01*
X154660000Y-99400000D02*
X156100000Y-99400000D01*
D22*
%TO.N,+9V*%
X142500000Y-94000000D02*
X143100000Y-93400000D01*
X141600000Y-94000000D02*
X142500000Y-94000000D01*
X143600000Y-93400000D02*
X143100000Y-93400000D01*
X139700000Y-94000000D02*
X139400000Y-94300000D01*
X141600000Y-94000000D02*
X139700000Y-94000000D01*
X142350000Y-100050000D02*
X144300000Y-102000000D01*
X144300000Y-102000000D02*
X144300000Y-102690000D01*
X139250000Y-100050000D02*
X142350000Y-100050000D01*
X138875000Y-99675000D02*
X139250000Y-100050000D01*
X138875000Y-94825000D02*
X138875000Y-99675000D01*
X139400000Y-94300000D02*
X138875000Y-94825000D01*
X146125000Y-102745000D02*
X144945000Y-102745000D01*
X144890000Y-102690000D02*
X144300000Y-102690000D01*
X144945000Y-102745000D02*
X144890000Y-102690000D01*
X152900000Y-107010000D02*
X152560000Y-107010000D01*
X152105000Y-106555000D02*
X151075000Y-106555000D01*
X152560000Y-107010000D02*
X152105000Y-106555000D01*
X146125000Y-102745000D02*
X148655000Y-102745000D01*
X148655000Y-102745000D02*
X149500000Y-101900000D01*
X149500000Y-101900000D02*
X152400000Y-101900000D01*
X152400000Y-101900000D02*
X154000000Y-103500000D01*
X154000000Y-103500000D02*
X154000000Y-106550000D01*
X153540000Y-107010000D02*
X152900000Y-107010000D01*
X154000000Y-106550000D02*
X153540000Y-107010000D01*
D23*
%TO.N,Net-(Q1-Pad1)*%
X143100000Y-102690000D02*
X143100000Y-101950000D01*
X142500000Y-101350000D02*
X141450000Y-101350000D01*
X143100000Y-101950000D02*
X142500000Y-101350000D01*
X141150000Y-101050000D02*
X139100000Y-101050000D01*
X141450000Y-101350000D02*
X141150000Y-101050000D01*
%TO.N,Net-(R3-Pad2)*%
X147700000Y-100700000D02*
X147500000Y-100900000D01*
X147700000Y-99300000D02*
X147700000Y-100700000D01*
X147250000Y-100650000D02*
X147500000Y-100900000D01*
X146360000Y-100650000D02*
X147250000Y-100650000D01*
%TO.N,Net-(R4-Pad1)*%
X143649231Y-98562436D02*
X143649231Y-97512436D01*
X143672436Y-97400000D02*
X143560000Y-97512436D01*
X145500000Y-97400000D02*
X143672436Y-97400000D01*
%TO.N,Net-(R6-Pad1)*%
X144300000Y-103710000D02*
X143100000Y-103710000D01*
X144300000Y-103710000D02*
X144710000Y-103710000D01*
X145015000Y-104015000D02*
X146125000Y-104015000D01*
X144710000Y-103710000D02*
X145015000Y-104015000D01*
X143250000Y-108200000D02*
X144300000Y-108200000D01*
X142450000Y-107400000D02*
X143250000Y-108200000D01*
X142450000Y-103950000D02*
X142450000Y-107400000D01*
X142690000Y-103710000D02*
X142450000Y-103950000D01*
X143100000Y-103710000D02*
X142690000Y-103710000D01*
%TO.N,Net-(R7-Pad1)*%
X152625000Y-105285000D02*
X152900000Y-105010000D01*
X151075000Y-105285000D02*
X152625000Y-105285000D01*
X152900000Y-105560000D02*
X152625000Y-105285000D01*
X152900000Y-105990000D02*
X152900000Y-105560000D01*
X151075000Y-105285000D02*
X149365000Y-105285000D01*
X148450000Y-106200000D02*
X148450000Y-107250000D01*
X149365000Y-105285000D02*
X148450000Y-106200000D01*
X147500000Y-108200000D02*
X146100000Y-108200000D01*
X148450000Y-107250000D02*
X147500000Y-108200000D01*
%TD*%
M02*
