%TF.GenerationSoftware,KiCad,Pcbnew,(5.1.10)-1*%
%TF.CreationDate,2021-05-31T11:52:34-04:00*%
%TF.ProjectId,Charger,43686172-6765-4722-9e6b-696361645f70,rev?*%
%TF.SameCoordinates,Original*%
%TF.FileFunction,Legend,Bot*%
%TF.FilePolarity,Positive*%
%FSLAX46Y46*%
G04 Gerber Fmt 4.6, Leading zero omitted, Abs format (unit mm)*
G04 Created by KiCad (PCBNEW (5.1.10)-1) date 2021-05-31 11:52:34*
%MOMM*%
%LPD*%
G01*
G04 APERTURE LIST*
%ADD10C,0.150000*%
%ADD11C,0.120000*%
%ADD12C,0.100000*%
G04 APERTURE END LIST*
D10*
X147095998Y-111836219D02*
G75*
G02*
X152899999Y-111849999I2904002J836219D01*
G01*
X152849500Y-88048502D02*
G75*
G02*
X147150001Y-88050001I-2849500J-951498D01*
G01*
D11*
%TO.C,TP7*%
X143700000Y-98100000D02*
X145100000Y-98100000D01*
X145100000Y-98100000D02*
X145100000Y-96700000D01*
X145100000Y-96700000D02*
X143700000Y-96700000D01*
X143700000Y-96700000D02*
X143700000Y-98100000D01*
%TO.C,J1*%
X162750000Y-92000000D02*
X162750000Y-107600000D01*
%TO.C,TP12*%
X138400000Y-101750000D02*
X139800000Y-101750000D01*
X139800000Y-101750000D02*
X139800000Y-100350000D01*
X139800000Y-100350000D02*
X138400000Y-100350000D01*
X138400000Y-100350000D02*
X138400000Y-101750000D01*
%TO.C,TP11*%
X142700000Y-105700000D02*
X144100000Y-105700000D01*
X144100000Y-105700000D02*
X144100000Y-104300000D01*
X144100000Y-104300000D02*
X142700000Y-104300000D01*
X142700000Y-104300000D02*
X142700000Y-105700000D01*
%TO.C,TP10*%
X145400000Y-108900000D02*
X146800000Y-108900000D01*
X146800000Y-108900000D02*
X146800000Y-107500000D01*
X146800000Y-107500000D02*
X145400000Y-107500000D01*
X145400000Y-107500000D02*
X145400000Y-108900000D01*
%TO.C,TP9*%
X143600000Y-108900000D02*
X145000000Y-108900000D01*
X145000000Y-108900000D02*
X145000000Y-107500000D01*
X145000000Y-107500000D02*
X143600000Y-107500000D01*
X143600000Y-107500000D02*
X143600000Y-108900000D01*
%TO.C,TP8*%
X142400000Y-96100000D02*
X143800000Y-96100000D01*
X143800000Y-96100000D02*
X143800000Y-94700000D01*
X143800000Y-94700000D02*
X142400000Y-94700000D01*
X142400000Y-94700000D02*
X142400000Y-96100000D01*
%TO.C,TP6*%
X151050000Y-93950000D02*
X152450000Y-93950000D01*
X152450000Y-93950000D02*
X152450000Y-92550000D01*
X152450000Y-92550000D02*
X151050000Y-92550000D01*
X151050000Y-92550000D02*
X151050000Y-93950000D01*
%TO.C,TP5*%
X146800000Y-101600000D02*
X148200000Y-101600000D01*
X148200000Y-101600000D02*
X148200000Y-100200000D01*
X148200000Y-100200000D02*
X146800000Y-100200000D01*
X146800000Y-100200000D02*
X146800000Y-101600000D01*
%TO.C,TP4*%
X157800000Y-107300000D02*
X159200000Y-107300000D01*
X159200000Y-107300000D02*
X159200000Y-105900000D01*
X159200000Y-105900000D02*
X157800000Y-105900000D01*
X157800000Y-105900000D02*
X157800000Y-107300000D01*
%TO.C,TP3*%
X145800000Y-93800000D02*
X147200000Y-93800000D01*
X147200000Y-93800000D02*
X147200000Y-92400000D01*
X147200000Y-92400000D02*
X145800000Y-92400000D01*
X145800000Y-92400000D02*
X145800000Y-93800000D01*
%TO.C,Q1*%
X139690000Y-103880000D02*
X139690000Y-102950000D01*
X139690000Y-100720000D02*
X139690000Y-101650000D01*
X139690000Y-100720000D02*
X141850000Y-100720000D01*
X139690000Y-103880000D02*
X141150000Y-103880000D01*
%TO.C,U1*%
X147500000Y-99960000D02*
X145050000Y-99960000D01*
X145700000Y-96740000D02*
X147500000Y-96740000D01*
%TO.C,U2*%
X148600000Y-102090000D02*
X150550000Y-102090000D01*
X148600000Y-102090000D02*
X146650000Y-102090000D01*
X148600000Y-107210000D02*
X150550000Y-107210000D01*
X148600000Y-107210000D02*
X145150000Y-107210000D01*
%TO.C,R9*%
X142720000Y-103046359D02*
X142720000Y-103353641D01*
X143480000Y-103046359D02*
X143480000Y-103353641D01*
%TO.C,R8*%
X152520000Y-104346359D02*
X152520000Y-104653641D01*
X153280000Y-104346359D02*
X153280000Y-104653641D01*
%TO.C,R7*%
X152520000Y-106346359D02*
X152520000Y-106653641D01*
X153280000Y-106346359D02*
X153280000Y-106653641D01*
%TO.C,R6*%
X144680000Y-103353641D02*
X144680000Y-103046359D01*
X143920000Y-103353641D02*
X143920000Y-103046359D01*
%TO.C,R5*%
X142896359Y-98930000D02*
X143203641Y-98930000D01*
X142896359Y-98170000D02*
X143203641Y-98170000D01*
%TO.C,R4*%
X143203641Y-97132436D02*
X142896359Y-97132436D01*
X143203641Y-97892436D02*
X142896359Y-97892436D01*
%TO.C,R3*%
X145696359Y-101030000D02*
X146003641Y-101030000D01*
X145696359Y-100270000D02*
X146003641Y-100270000D01*
%TO.C,R2*%
X153996359Y-99780000D02*
X154303641Y-99780000D01*
X153996359Y-99020000D02*
X154303641Y-99020000D01*
%TO.C,R1*%
X153996359Y-100830000D02*
X154303641Y-100830000D01*
X153996359Y-100070000D02*
X154303641Y-100070000D01*
%TO.C,L1*%
X151760000Y-96061252D02*
X151760000Y-95538748D01*
X149540000Y-96061252D02*
X149540000Y-95538748D01*
%TO.C,JP2*%
X145650000Y-94400000D02*
X145650000Y-92400000D01*
X142850000Y-94400000D02*
X145650000Y-94400000D01*
X142850000Y-92400000D02*
X142850000Y-94400000D01*
X145650000Y-92400000D02*
X142850000Y-92400000D01*
%TO.C,JP1*%
X140600000Y-96050000D02*
X142600000Y-96050000D01*
X140600000Y-93250000D02*
X140600000Y-96050000D01*
X142600000Y-93250000D02*
X140600000Y-93250000D01*
X142600000Y-96050000D02*
X142600000Y-93250000D01*
%TO.C,D1*%
X143700000Y-96550000D02*
X143700000Y-94550000D01*
X143700000Y-94550000D02*
X147600000Y-94550000D01*
X143700000Y-96550000D02*
X147600000Y-96550000D01*
%TO.C,C6*%
X142110000Y-106257836D02*
X142110000Y-106042164D01*
X141390000Y-106257836D02*
X141390000Y-106042164D01*
%TO.C,C5*%
X144040000Y-105642164D02*
X144040000Y-105857836D01*
X144760000Y-105642164D02*
X144760000Y-105857836D01*
%TO.C,C4*%
X140465000Y-97538748D02*
X140465000Y-98061252D01*
X141935000Y-97538748D02*
X141935000Y-98061252D01*
%TO.C,C3*%
X139490000Y-97692164D02*
X139490000Y-97907836D01*
X140210000Y-97692164D02*
X140210000Y-97907836D01*
%TO.C,C2*%
X153840580Y-97540000D02*
X153559420Y-97540000D01*
X153840580Y-98560000D02*
X153559420Y-98560000D01*
%TO.C,C1*%
X153807836Y-96490000D02*
X153592164Y-96490000D01*
X153807836Y-97210000D02*
X153592164Y-97210000D01*
%TO.C,TP7*%
D12*
X144176190Y-98319047D02*
X144176190Y-98604761D01*
X144676190Y-98461904D02*
X144176190Y-98461904D01*
X144676190Y-98771428D02*
X144176190Y-98771428D01*
X144176190Y-98961904D01*
X144200000Y-99009523D01*
X144223809Y-99033333D01*
X144271428Y-99057142D01*
X144342857Y-99057142D01*
X144390476Y-99033333D01*
X144414285Y-99009523D01*
X144438095Y-98961904D01*
X144438095Y-98771428D01*
X144176190Y-99223809D02*
X144176190Y-99557142D01*
X144676190Y-99342857D01*
%TO.C,J1*%
X158516666Y-93576190D02*
X158516666Y-93933333D01*
X158540476Y-94004761D01*
X158588095Y-94052380D01*
X158659523Y-94076190D01*
X158707142Y-94076190D01*
X158016666Y-94076190D02*
X158302380Y-94076190D01*
X158159523Y-94076190D02*
X158159523Y-93576190D01*
X158207142Y-93647619D01*
X158254761Y-93695238D01*
X158302380Y-93719047D01*
%TO.C,TP12*%
X140119047Y-99626190D02*
X139833333Y-99626190D01*
X139976190Y-100126190D02*
X139976190Y-99626190D01*
X139666666Y-100126190D02*
X139666666Y-99626190D01*
X139476190Y-99626190D01*
X139428571Y-99650000D01*
X139404761Y-99673809D01*
X139380952Y-99721428D01*
X139380952Y-99792857D01*
X139404761Y-99840476D01*
X139428571Y-99864285D01*
X139476190Y-99888095D01*
X139666666Y-99888095D01*
X138904761Y-100126190D02*
X139190476Y-100126190D01*
X139047619Y-100126190D02*
X139047619Y-99626190D01*
X139095238Y-99697619D01*
X139142857Y-99745238D01*
X139190476Y-99769047D01*
X138714285Y-99673809D02*
X138690476Y-99650000D01*
X138642857Y-99626190D01*
X138523809Y-99626190D01*
X138476190Y-99650000D01*
X138452380Y-99673809D01*
X138428571Y-99721428D01*
X138428571Y-99769047D01*
X138452380Y-99840476D01*
X138738095Y-100126190D01*
X138428571Y-100126190D01*
%TO.C,TP11*%
X142676190Y-105830952D02*
X142676190Y-106116666D01*
X143176190Y-105973809D02*
X142676190Y-105973809D01*
X143176190Y-106283333D02*
X142676190Y-106283333D01*
X142676190Y-106473809D01*
X142700000Y-106521428D01*
X142723809Y-106545238D01*
X142771428Y-106569047D01*
X142842857Y-106569047D01*
X142890476Y-106545238D01*
X142914285Y-106521428D01*
X142938095Y-106473809D01*
X142938095Y-106283333D01*
X143176190Y-107045238D02*
X143176190Y-106759523D01*
X143176190Y-106902380D02*
X142676190Y-106902380D01*
X142747619Y-106854761D01*
X142795238Y-106807142D01*
X142819047Y-106759523D01*
X143176190Y-107521428D02*
X143176190Y-107235714D01*
X143176190Y-107378571D02*
X142676190Y-107378571D01*
X142747619Y-107330952D01*
X142795238Y-107283333D01*
X142819047Y-107235714D01*
%TO.C,TP10*%
X147019047Y-109126190D02*
X146733333Y-109126190D01*
X146876190Y-109626190D02*
X146876190Y-109126190D01*
X146566666Y-109626190D02*
X146566666Y-109126190D01*
X146376190Y-109126190D01*
X146328571Y-109150000D01*
X146304761Y-109173809D01*
X146280952Y-109221428D01*
X146280952Y-109292857D01*
X146304761Y-109340476D01*
X146328571Y-109364285D01*
X146376190Y-109388095D01*
X146566666Y-109388095D01*
X145804761Y-109626190D02*
X146090476Y-109626190D01*
X145947619Y-109626190D02*
X145947619Y-109126190D01*
X145995238Y-109197619D01*
X146042857Y-109245238D01*
X146090476Y-109269047D01*
X145495238Y-109126190D02*
X145447619Y-109126190D01*
X145400000Y-109150000D01*
X145376190Y-109173809D01*
X145352380Y-109221428D01*
X145328571Y-109316666D01*
X145328571Y-109435714D01*
X145352380Y-109530952D01*
X145376190Y-109578571D01*
X145400000Y-109602380D01*
X145447619Y-109626190D01*
X145495238Y-109626190D01*
X145542857Y-109602380D01*
X145566666Y-109578571D01*
X145590476Y-109530952D01*
X145614285Y-109435714D01*
X145614285Y-109316666D01*
X145590476Y-109221428D01*
X145566666Y-109173809D01*
X145542857Y-109150000D01*
X145495238Y-109126190D01*
%TO.C,TP9*%
X144880952Y-109126190D02*
X144595238Y-109126190D01*
X144738095Y-109626190D02*
X144738095Y-109126190D01*
X144428571Y-109626190D02*
X144428571Y-109126190D01*
X144238095Y-109126190D01*
X144190476Y-109150000D01*
X144166666Y-109173809D01*
X144142857Y-109221428D01*
X144142857Y-109292857D01*
X144166666Y-109340476D01*
X144190476Y-109364285D01*
X144238095Y-109388095D01*
X144428571Y-109388095D01*
X143904761Y-109626190D02*
X143809523Y-109626190D01*
X143761904Y-109602380D01*
X143738095Y-109578571D01*
X143690476Y-109507142D01*
X143666666Y-109411904D01*
X143666666Y-109221428D01*
X143690476Y-109173809D01*
X143714285Y-109150000D01*
X143761904Y-109126190D01*
X143857142Y-109126190D01*
X143904761Y-109150000D01*
X143928571Y-109173809D01*
X143952380Y-109221428D01*
X143952380Y-109340476D01*
X143928571Y-109388095D01*
X143904761Y-109411904D01*
X143857142Y-109435714D01*
X143761904Y-109435714D01*
X143714285Y-109411904D01*
X143690476Y-109388095D01*
X143666666Y-109340476D01*
%TO.C,TP8*%
X143330952Y-96176190D02*
X143045238Y-96176190D01*
X143188095Y-96676190D02*
X143188095Y-96176190D01*
X142878571Y-96676190D02*
X142878571Y-96176190D01*
X142688095Y-96176190D01*
X142640476Y-96200000D01*
X142616666Y-96223809D01*
X142592857Y-96271428D01*
X142592857Y-96342857D01*
X142616666Y-96390476D01*
X142640476Y-96414285D01*
X142688095Y-96438095D01*
X142878571Y-96438095D01*
X142307142Y-96390476D02*
X142354761Y-96366666D01*
X142378571Y-96342857D01*
X142402380Y-96295238D01*
X142402380Y-96271428D01*
X142378571Y-96223809D01*
X142354761Y-96200000D01*
X142307142Y-96176190D01*
X142211904Y-96176190D01*
X142164285Y-96200000D01*
X142140476Y-96223809D01*
X142116666Y-96271428D01*
X142116666Y-96295238D01*
X142140476Y-96342857D01*
X142164285Y-96366666D01*
X142211904Y-96390476D01*
X142307142Y-96390476D01*
X142354761Y-96414285D01*
X142378571Y-96438095D01*
X142402380Y-96485714D01*
X142402380Y-96580952D01*
X142378571Y-96628571D01*
X142354761Y-96652380D01*
X142307142Y-96676190D01*
X142211904Y-96676190D01*
X142164285Y-96652380D01*
X142140476Y-96628571D01*
X142116666Y-96580952D01*
X142116666Y-96485714D01*
X142140476Y-96438095D01*
X142164285Y-96414285D01*
X142211904Y-96390476D01*
%TO.C,TP6*%
X152480952Y-91826190D02*
X152195238Y-91826190D01*
X152338095Y-92326190D02*
X152338095Y-91826190D01*
X152028571Y-92326190D02*
X152028571Y-91826190D01*
X151838095Y-91826190D01*
X151790476Y-91850000D01*
X151766666Y-91873809D01*
X151742857Y-91921428D01*
X151742857Y-91992857D01*
X151766666Y-92040476D01*
X151790476Y-92064285D01*
X151838095Y-92088095D01*
X152028571Y-92088095D01*
X151314285Y-91826190D02*
X151409523Y-91826190D01*
X151457142Y-91850000D01*
X151480952Y-91873809D01*
X151528571Y-91945238D01*
X151552380Y-92040476D01*
X151552380Y-92230952D01*
X151528571Y-92278571D01*
X151504761Y-92302380D01*
X151457142Y-92326190D01*
X151361904Y-92326190D01*
X151314285Y-92302380D01*
X151290476Y-92278571D01*
X151266666Y-92230952D01*
X151266666Y-92111904D01*
X151290476Y-92064285D01*
X151314285Y-92040476D01*
X151361904Y-92016666D01*
X151457142Y-92016666D01*
X151504761Y-92040476D01*
X151528571Y-92064285D01*
X151552380Y-92111904D01*
%TO.C,TP5*%
X146630952Y-101426190D02*
X146345238Y-101426190D01*
X146488095Y-101926190D02*
X146488095Y-101426190D01*
X146178571Y-101926190D02*
X146178571Y-101426190D01*
X145988095Y-101426190D01*
X145940476Y-101450000D01*
X145916666Y-101473809D01*
X145892857Y-101521428D01*
X145892857Y-101592857D01*
X145916666Y-101640476D01*
X145940476Y-101664285D01*
X145988095Y-101688095D01*
X146178571Y-101688095D01*
X145440476Y-101426190D02*
X145678571Y-101426190D01*
X145702380Y-101664285D01*
X145678571Y-101640476D01*
X145630952Y-101616666D01*
X145511904Y-101616666D01*
X145464285Y-101640476D01*
X145440476Y-101664285D01*
X145416666Y-101711904D01*
X145416666Y-101830952D01*
X145440476Y-101878571D01*
X145464285Y-101902380D01*
X145511904Y-101926190D01*
X145630952Y-101926190D01*
X145678571Y-101902380D01*
X145702380Y-101878571D01*
%TO.C,TP4*%
X157580952Y-106326190D02*
X157295238Y-106326190D01*
X157438095Y-106826190D02*
X157438095Y-106326190D01*
X157128571Y-106826190D02*
X157128571Y-106326190D01*
X156938095Y-106326190D01*
X156890476Y-106350000D01*
X156866666Y-106373809D01*
X156842857Y-106421428D01*
X156842857Y-106492857D01*
X156866666Y-106540476D01*
X156890476Y-106564285D01*
X156938095Y-106588095D01*
X157128571Y-106588095D01*
X156414285Y-106492857D02*
X156414285Y-106826190D01*
X156533333Y-106302380D02*
X156652380Y-106659523D01*
X156342857Y-106659523D01*
%TO.C,TP3*%
X147180952Y-91626190D02*
X146895238Y-91626190D01*
X147038095Y-92126190D02*
X147038095Y-91626190D01*
X146728571Y-92126190D02*
X146728571Y-91626190D01*
X146538095Y-91626190D01*
X146490476Y-91650000D01*
X146466666Y-91673809D01*
X146442857Y-91721428D01*
X146442857Y-91792857D01*
X146466666Y-91840476D01*
X146490476Y-91864285D01*
X146538095Y-91888095D01*
X146728571Y-91888095D01*
X146276190Y-91626190D02*
X145966666Y-91626190D01*
X146133333Y-91816666D01*
X146061904Y-91816666D01*
X146014285Y-91840476D01*
X145990476Y-91864285D01*
X145966666Y-91911904D01*
X145966666Y-92030952D01*
X145990476Y-92078571D01*
X146014285Y-92102380D01*
X146061904Y-92126190D01*
X146204761Y-92126190D01*
X146252380Y-92102380D01*
X146276190Y-92078571D01*
%TO.C,Q1*%
X140497619Y-104623809D02*
X140545238Y-104600000D01*
X140592857Y-104552380D01*
X140664285Y-104480952D01*
X140711904Y-104457142D01*
X140759523Y-104457142D01*
X140735714Y-104576190D02*
X140783333Y-104552380D01*
X140830952Y-104504761D01*
X140854761Y-104409523D01*
X140854761Y-104242857D01*
X140830952Y-104147619D01*
X140783333Y-104100000D01*
X140735714Y-104076190D01*
X140640476Y-104076190D01*
X140592857Y-104100000D01*
X140545238Y-104147619D01*
X140521428Y-104242857D01*
X140521428Y-104409523D01*
X140545238Y-104504761D01*
X140592857Y-104552380D01*
X140640476Y-104576190D01*
X140735714Y-104576190D01*
X140045238Y-104576190D02*
X140330952Y-104576190D01*
X140188095Y-104576190D02*
X140188095Y-104076190D01*
X140235714Y-104147619D01*
X140283333Y-104195238D01*
X140330952Y-104219047D01*
%TO.C,U1*%
X149330952Y-98076190D02*
X149330952Y-98480952D01*
X149307142Y-98528571D01*
X149283333Y-98552380D01*
X149235714Y-98576190D01*
X149140476Y-98576190D01*
X149092857Y-98552380D01*
X149069047Y-98528571D01*
X149045238Y-98480952D01*
X149045238Y-98076190D01*
X148545238Y-98576190D02*
X148830952Y-98576190D01*
X148688095Y-98576190D02*
X148688095Y-98076190D01*
X148735714Y-98147619D01*
X148783333Y-98195238D01*
X148830952Y-98219047D01*
%TO.C,U2*%
X151780952Y-101276190D02*
X151780952Y-101680952D01*
X151757142Y-101728571D01*
X151733333Y-101752380D01*
X151685714Y-101776190D01*
X151590476Y-101776190D01*
X151542857Y-101752380D01*
X151519047Y-101728571D01*
X151495238Y-101680952D01*
X151495238Y-101276190D01*
X151280952Y-101323809D02*
X151257142Y-101300000D01*
X151209523Y-101276190D01*
X151090476Y-101276190D01*
X151042857Y-101300000D01*
X151019047Y-101323809D01*
X150995238Y-101371428D01*
X150995238Y-101419047D01*
X151019047Y-101490476D01*
X151304761Y-101776190D01*
X150995238Y-101776190D01*
%TO.C,R9*%
X143376190Y-101566666D02*
X143138095Y-101400000D01*
X143376190Y-101280952D02*
X142876190Y-101280952D01*
X142876190Y-101471428D01*
X142900000Y-101519047D01*
X142923809Y-101542857D01*
X142971428Y-101566666D01*
X143042857Y-101566666D01*
X143090476Y-101542857D01*
X143114285Y-101519047D01*
X143138095Y-101471428D01*
X143138095Y-101280952D01*
X143376190Y-101804761D02*
X143376190Y-101900000D01*
X143352380Y-101947619D01*
X143328571Y-101971428D01*
X143257142Y-102019047D01*
X143161904Y-102042857D01*
X142971428Y-102042857D01*
X142923809Y-102019047D01*
X142900000Y-101995238D01*
X142876190Y-101947619D01*
X142876190Y-101852380D01*
X142900000Y-101804761D01*
X142923809Y-101780952D01*
X142971428Y-101757142D01*
X143090476Y-101757142D01*
X143138095Y-101780952D01*
X143161904Y-101804761D01*
X143185714Y-101852380D01*
X143185714Y-101947619D01*
X143161904Y-101995238D01*
X143138095Y-102019047D01*
X143090476Y-102042857D01*
%TO.C,R8*%
X154326190Y-104366666D02*
X154088095Y-104200000D01*
X154326190Y-104080952D02*
X153826190Y-104080952D01*
X153826190Y-104271428D01*
X153850000Y-104319047D01*
X153873809Y-104342857D01*
X153921428Y-104366666D01*
X153992857Y-104366666D01*
X154040476Y-104342857D01*
X154064285Y-104319047D01*
X154088095Y-104271428D01*
X154088095Y-104080952D01*
X154040476Y-104652380D02*
X154016666Y-104604761D01*
X153992857Y-104580952D01*
X153945238Y-104557142D01*
X153921428Y-104557142D01*
X153873809Y-104580952D01*
X153850000Y-104604761D01*
X153826190Y-104652380D01*
X153826190Y-104747619D01*
X153850000Y-104795238D01*
X153873809Y-104819047D01*
X153921428Y-104842857D01*
X153945238Y-104842857D01*
X153992857Y-104819047D01*
X154016666Y-104795238D01*
X154040476Y-104747619D01*
X154040476Y-104652380D01*
X154064285Y-104604761D01*
X154088095Y-104580952D01*
X154135714Y-104557142D01*
X154230952Y-104557142D01*
X154278571Y-104580952D01*
X154302380Y-104604761D01*
X154326190Y-104652380D01*
X154326190Y-104747619D01*
X154302380Y-104795238D01*
X154278571Y-104819047D01*
X154230952Y-104842857D01*
X154135714Y-104842857D01*
X154088095Y-104819047D01*
X154064285Y-104795238D01*
X154040476Y-104747619D01*
%TO.C,R7*%
X154326190Y-106366666D02*
X154088095Y-106200000D01*
X154326190Y-106080952D02*
X153826190Y-106080952D01*
X153826190Y-106271428D01*
X153850000Y-106319047D01*
X153873809Y-106342857D01*
X153921428Y-106366666D01*
X153992857Y-106366666D01*
X154040476Y-106342857D01*
X154064285Y-106319047D01*
X154088095Y-106271428D01*
X154088095Y-106080952D01*
X153826190Y-106533333D02*
X153826190Y-106866666D01*
X154326190Y-106652380D01*
%TO.C,R6*%
X144576190Y-101566666D02*
X144338095Y-101400000D01*
X144576190Y-101280952D02*
X144076190Y-101280952D01*
X144076190Y-101471428D01*
X144100000Y-101519047D01*
X144123809Y-101542857D01*
X144171428Y-101566666D01*
X144242857Y-101566666D01*
X144290476Y-101542857D01*
X144314285Y-101519047D01*
X144338095Y-101471428D01*
X144338095Y-101280952D01*
X144076190Y-101995238D02*
X144076190Y-101900000D01*
X144100000Y-101852380D01*
X144123809Y-101828571D01*
X144195238Y-101780952D01*
X144290476Y-101757142D01*
X144480952Y-101757142D01*
X144528571Y-101780952D01*
X144552380Y-101804761D01*
X144576190Y-101852380D01*
X144576190Y-101947619D01*
X144552380Y-101995238D01*
X144528571Y-102019047D01*
X144480952Y-102042857D01*
X144361904Y-102042857D01*
X144314285Y-102019047D01*
X144290476Y-101995238D01*
X144266666Y-101947619D01*
X144266666Y-101852380D01*
X144290476Y-101804761D01*
X144314285Y-101780952D01*
X144361904Y-101757142D01*
%TO.C,R5*%
X142833333Y-99676190D02*
X143000000Y-99438095D01*
X143119047Y-99676190D02*
X143119047Y-99176190D01*
X142928571Y-99176190D01*
X142880952Y-99200000D01*
X142857142Y-99223809D01*
X142833333Y-99271428D01*
X142833333Y-99342857D01*
X142857142Y-99390476D01*
X142880952Y-99414285D01*
X142928571Y-99438095D01*
X143119047Y-99438095D01*
X142380952Y-99176190D02*
X142619047Y-99176190D01*
X142642857Y-99414285D01*
X142619047Y-99390476D01*
X142571428Y-99366666D01*
X142452380Y-99366666D01*
X142404761Y-99390476D01*
X142380952Y-99414285D01*
X142357142Y-99461904D01*
X142357142Y-99580952D01*
X142380952Y-99628571D01*
X142404761Y-99652380D01*
X142452380Y-99676190D01*
X142571428Y-99676190D01*
X142619047Y-99652380D01*
X142642857Y-99628571D01*
%TO.C,R4*%
X143333333Y-96976190D02*
X143500000Y-96738095D01*
X143619047Y-96976190D02*
X143619047Y-96476190D01*
X143428571Y-96476190D01*
X143380952Y-96500000D01*
X143357142Y-96523809D01*
X143333333Y-96571428D01*
X143333333Y-96642857D01*
X143357142Y-96690476D01*
X143380952Y-96714285D01*
X143428571Y-96738095D01*
X143619047Y-96738095D01*
X142904761Y-96642857D02*
X142904761Y-96976190D01*
X143023809Y-96452380D02*
X143142857Y-96809523D01*
X142833333Y-96809523D01*
%TO.C,R3*%
X144433333Y-100876190D02*
X144600000Y-100638095D01*
X144719047Y-100876190D02*
X144719047Y-100376190D01*
X144528571Y-100376190D01*
X144480952Y-100400000D01*
X144457142Y-100423809D01*
X144433333Y-100471428D01*
X144433333Y-100542857D01*
X144457142Y-100590476D01*
X144480952Y-100614285D01*
X144528571Y-100638095D01*
X144719047Y-100638095D01*
X144266666Y-100376190D02*
X143957142Y-100376190D01*
X144123809Y-100566666D01*
X144052380Y-100566666D01*
X144004761Y-100590476D01*
X143980952Y-100614285D01*
X143957142Y-100661904D01*
X143957142Y-100780952D01*
X143980952Y-100828571D01*
X144004761Y-100852380D01*
X144052380Y-100876190D01*
X144195238Y-100876190D01*
X144242857Y-100852380D01*
X144266666Y-100828571D01*
%TO.C,R2*%
X152633333Y-99626190D02*
X152800000Y-99388095D01*
X152919047Y-99626190D02*
X152919047Y-99126190D01*
X152728571Y-99126190D01*
X152680952Y-99150000D01*
X152657142Y-99173809D01*
X152633333Y-99221428D01*
X152633333Y-99292857D01*
X152657142Y-99340476D01*
X152680952Y-99364285D01*
X152728571Y-99388095D01*
X152919047Y-99388095D01*
X152442857Y-99173809D02*
X152419047Y-99150000D01*
X152371428Y-99126190D01*
X152252380Y-99126190D01*
X152204761Y-99150000D01*
X152180952Y-99173809D01*
X152157142Y-99221428D01*
X152157142Y-99269047D01*
X152180952Y-99340476D01*
X152466666Y-99626190D01*
X152157142Y-99626190D01*
%TO.C,R1*%
X152583333Y-100426190D02*
X152750000Y-100188095D01*
X152869047Y-100426190D02*
X152869047Y-99926190D01*
X152678571Y-99926190D01*
X152630952Y-99950000D01*
X152607142Y-99973809D01*
X152583333Y-100021428D01*
X152583333Y-100092857D01*
X152607142Y-100140476D01*
X152630952Y-100164285D01*
X152678571Y-100188095D01*
X152869047Y-100188095D01*
X152107142Y-100426190D02*
X152392857Y-100426190D01*
X152250000Y-100426190D02*
X152250000Y-99926190D01*
X152297619Y-99997619D01*
X152345238Y-100045238D01*
X152392857Y-100069047D01*
%TO.C,L1*%
X150033333Y-93726190D02*
X150271428Y-93726190D01*
X150271428Y-93226190D01*
X149604761Y-93726190D02*
X149890476Y-93726190D01*
X149747619Y-93726190D02*
X149747619Y-93226190D01*
X149795238Y-93297619D01*
X149842857Y-93345238D01*
X149890476Y-93369047D01*
%TO.C,JP2*%
X144766666Y-91626190D02*
X144766666Y-91983333D01*
X144790476Y-92054761D01*
X144838095Y-92102380D01*
X144909523Y-92126190D01*
X144957142Y-92126190D01*
X144528571Y-92126190D02*
X144528571Y-91626190D01*
X144338095Y-91626190D01*
X144290476Y-91650000D01*
X144266666Y-91673809D01*
X144242857Y-91721428D01*
X144242857Y-91792857D01*
X144266666Y-91840476D01*
X144290476Y-91864285D01*
X144338095Y-91888095D01*
X144528571Y-91888095D01*
X144052380Y-91673809D02*
X144028571Y-91650000D01*
X143980952Y-91626190D01*
X143861904Y-91626190D01*
X143814285Y-91650000D01*
X143790476Y-91673809D01*
X143766666Y-91721428D01*
X143766666Y-91769047D01*
X143790476Y-91840476D01*
X144076190Y-92126190D01*
X143766666Y-92126190D01*
%TO.C,JP1*%
X142016666Y-92476190D02*
X142016666Y-92833333D01*
X142040476Y-92904761D01*
X142088095Y-92952380D01*
X142159523Y-92976190D01*
X142207142Y-92976190D01*
X141778571Y-92976190D02*
X141778571Y-92476190D01*
X141588095Y-92476190D01*
X141540476Y-92500000D01*
X141516666Y-92523809D01*
X141492857Y-92571428D01*
X141492857Y-92642857D01*
X141516666Y-92690476D01*
X141540476Y-92714285D01*
X141588095Y-92738095D01*
X141778571Y-92738095D01*
X141016666Y-92976190D02*
X141302380Y-92976190D01*
X141159523Y-92976190D02*
X141159523Y-92476190D01*
X141207142Y-92547619D01*
X141254761Y-92595238D01*
X141302380Y-92619047D01*
%TO.C,D1*%
X148969047Y-94276190D02*
X148969047Y-93776190D01*
X148850000Y-93776190D01*
X148778571Y-93800000D01*
X148730952Y-93847619D01*
X148707142Y-93895238D01*
X148683333Y-93990476D01*
X148683333Y-94061904D01*
X148707142Y-94157142D01*
X148730952Y-94204761D01*
X148778571Y-94252380D01*
X148850000Y-94276190D01*
X148969047Y-94276190D01*
X148207142Y-94276190D02*
X148492857Y-94276190D01*
X148350000Y-94276190D02*
X148350000Y-93776190D01*
X148397619Y-93847619D01*
X148445238Y-93895238D01*
X148492857Y-93919047D01*
%TO.C,C6*%
X141928571Y-107566666D02*
X141952380Y-107542857D01*
X141976190Y-107471428D01*
X141976190Y-107423809D01*
X141952380Y-107352380D01*
X141904761Y-107304761D01*
X141857142Y-107280952D01*
X141761904Y-107257142D01*
X141690476Y-107257142D01*
X141595238Y-107280952D01*
X141547619Y-107304761D01*
X141500000Y-107352380D01*
X141476190Y-107423809D01*
X141476190Y-107471428D01*
X141500000Y-107542857D01*
X141523809Y-107566666D01*
X141476190Y-107995238D02*
X141476190Y-107900000D01*
X141500000Y-107852380D01*
X141523809Y-107828571D01*
X141595238Y-107780952D01*
X141690476Y-107757142D01*
X141880952Y-107757142D01*
X141928571Y-107780952D01*
X141952380Y-107804761D01*
X141976190Y-107852380D01*
X141976190Y-107947619D01*
X141952380Y-107995238D01*
X141928571Y-108019047D01*
X141880952Y-108042857D01*
X141761904Y-108042857D01*
X141714285Y-108019047D01*
X141690476Y-107995238D01*
X141666666Y-107947619D01*
X141666666Y-107852380D01*
X141690476Y-107804761D01*
X141714285Y-107780952D01*
X141761904Y-107757142D01*
%TO.C,C5*%
X144433333Y-107278571D02*
X144457142Y-107302380D01*
X144528571Y-107326190D01*
X144576190Y-107326190D01*
X144647619Y-107302380D01*
X144695238Y-107254761D01*
X144719047Y-107207142D01*
X144742857Y-107111904D01*
X144742857Y-107040476D01*
X144719047Y-106945238D01*
X144695238Y-106897619D01*
X144647619Y-106850000D01*
X144576190Y-106826190D01*
X144528571Y-106826190D01*
X144457142Y-106850000D01*
X144433333Y-106873809D01*
X143980952Y-106826190D02*
X144219047Y-106826190D01*
X144242857Y-107064285D01*
X144219047Y-107040476D01*
X144171428Y-107016666D01*
X144052380Y-107016666D01*
X144004761Y-107040476D01*
X143980952Y-107064285D01*
X143957142Y-107111904D01*
X143957142Y-107230952D01*
X143980952Y-107278571D01*
X144004761Y-107302380D01*
X144052380Y-107326190D01*
X144171428Y-107326190D01*
X144219047Y-107302380D01*
X144242857Y-107278571D01*
%TO.C,C4*%
X141333333Y-100078571D02*
X141357142Y-100102380D01*
X141428571Y-100126190D01*
X141476190Y-100126190D01*
X141547619Y-100102380D01*
X141595238Y-100054761D01*
X141619047Y-100007142D01*
X141642857Y-99911904D01*
X141642857Y-99840476D01*
X141619047Y-99745238D01*
X141595238Y-99697619D01*
X141547619Y-99650000D01*
X141476190Y-99626190D01*
X141428571Y-99626190D01*
X141357142Y-99650000D01*
X141333333Y-99673809D01*
X140904761Y-99792857D02*
X140904761Y-100126190D01*
X141023809Y-99602380D02*
X141142857Y-99959523D01*
X140833333Y-99959523D01*
%TO.C,C3*%
X139128571Y-97716666D02*
X139152380Y-97692857D01*
X139176190Y-97621428D01*
X139176190Y-97573809D01*
X139152380Y-97502380D01*
X139104761Y-97454761D01*
X139057142Y-97430952D01*
X138961904Y-97407142D01*
X138890476Y-97407142D01*
X138795238Y-97430952D01*
X138747619Y-97454761D01*
X138700000Y-97502380D01*
X138676190Y-97573809D01*
X138676190Y-97621428D01*
X138700000Y-97692857D01*
X138723809Y-97716666D01*
X138676190Y-97883333D02*
X138676190Y-98192857D01*
X138866666Y-98026190D01*
X138866666Y-98097619D01*
X138890476Y-98145238D01*
X138914285Y-98169047D01*
X138961904Y-98192857D01*
X139080952Y-98192857D01*
X139128571Y-98169047D01*
X139152380Y-98145238D01*
X139176190Y-98097619D01*
X139176190Y-97954761D01*
X139152380Y-97907142D01*
X139128571Y-97883333D01*
%TO.C,C2*%
X151833333Y-98278571D02*
X151857142Y-98302380D01*
X151928571Y-98326190D01*
X151976190Y-98326190D01*
X152047619Y-98302380D01*
X152095238Y-98254761D01*
X152119047Y-98207142D01*
X152142857Y-98111904D01*
X152142857Y-98040476D01*
X152119047Y-97945238D01*
X152095238Y-97897619D01*
X152047619Y-97850000D01*
X151976190Y-97826190D01*
X151928571Y-97826190D01*
X151857142Y-97850000D01*
X151833333Y-97873809D01*
X151642857Y-97873809D02*
X151619047Y-97850000D01*
X151571428Y-97826190D01*
X151452380Y-97826190D01*
X151404761Y-97850000D01*
X151380952Y-97873809D01*
X151357142Y-97921428D01*
X151357142Y-97969047D01*
X151380952Y-98040476D01*
X151666666Y-98326190D01*
X151357142Y-98326190D01*
%TO.C,C1*%
X153833333Y-96178571D02*
X153857142Y-96202380D01*
X153928571Y-96226190D01*
X153976190Y-96226190D01*
X154047619Y-96202380D01*
X154095238Y-96154761D01*
X154119047Y-96107142D01*
X154142857Y-96011904D01*
X154142857Y-95940476D01*
X154119047Y-95845238D01*
X154095238Y-95797619D01*
X154047619Y-95750000D01*
X153976190Y-95726190D01*
X153928571Y-95726190D01*
X153857142Y-95750000D01*
X153833333Y-95773809D01*
X153357142Y-96226190D02*
X153642857Y-96226190D01*
X153500000Y-96226190D02*
X153500000Y-95726190D01*
X153547619Y-95797619D01*
X153595238Y-95845238D01*
X153642857Y-95869047D01*
%TD*%
M02*
