%TF.GenerationSoftware,KiCad,Pcbnew,(5.1.10)-1*%
%TF.CreationDate,2021-05-31T11:52:34-04:00*%
%TF.ProjectId,Charger,43686172-6765-4722-9e6b-696361645f70,rev?*%
%TF.SameCoordinates,Original*%
%TF.FileFunction,Legend,Top*%
%TF.FilePolarity,Positive*%
%FSLAX46Y46*%
G04 Gerber Fmt 4.6, Leading zero omitted, Abs format (unit mm)*
G04 Created by KiCad (PCBNEW (5.1.10)-1) date 2021-05-31 11:52:34*
%MOMM*%
%LPD*%
G01*
G04 APERTURE LIST*
%ADD10C,0.150000*%
%ADD11C,0.120000*%
G04 APERTURE END LIST*
D10*
X147095998Y-111836219D02*
G75*
G02*
X152899999Y-111849999I2904002J836219D01*
G01*
X152849500Y-88048502D02*
G75*
G02*
X147150001Y-88050001I-2849500J-951498D01*
G01*
X152500000Y-100000000D02*
G75*
G03*
X152500000Y-100000000I-2500000J0D01*
G01*
X158000000Y-100000000D02*
G75*
G03*
X158000000Y-100000000I-8000000J0D01*
G01*
D11*
%TO.C,J3*%
X140900000Y-105900000D02*
G75*
G03*
X140900000Y-105900000I-1200000J0D01*
G01*
%TO.C,J2*%
X140900000Y-94000000D02*
G75*
G03*
X140900000Y-94000000I-1200000J0D01*
G01*
%TO.C,J3*%
D10*
X139366666Y-103354380D02*
X139366666Y-104068666D01*
X139319047Y-104211523D01*
X139223809Y-104306761D01*
X139080952Y-104354380D01*
X138985714Y-104354380D01*
X139747619Y-103354380D02*
X140366666Y-103354380D01*
X140033333Y-103735333D01*
X140176190Y-103735333D01*
X140271428Y-103782952D01*
X140319047Y-103830571D01*
X140366666Y-103925809D01*
X140366666Y-104163904D01*
X140319047Y-104259142D01*
X140271428Y-104306761D01*
X140176190Y-104354380D01*
X139890476Y-104354380D01*
X139795238Y-104306761D01*
X139747619Y-104259142D01*
%TO.C,J2*%
X139366666Y-95552380D02*
X139366666Y-96266666D01*
X139319047Y-96409523D01*
X139223809Y-96504761D01*
X139080952Y-96552380D01*
X138985714Y-96552380D01*
X139795238Y-95647619D02*
X139842857Y-95600000D01*
X139938095Y-95552380D01*
X140176190Y-95552380D01*
X140271428Y-95600000D01*
X140319047Y-95647619D01*
X140366666Y-95742857D01*
X140366666Y-95838095D01*
X140319047Y-95980952D01*
X139747619Y-96552380D01*
X140366666Y-96552380D01*
%TD*%
M02*
