0
SECTION
2
HEADER
9
$INSUNITS
70
4
9
$ACADVER
1
AC1014
9
$HANDSEED
5
FFFF
0
ENDSEC
0
SECTION
2
TABLES
0
TABLE
2
VPORT
5
8
100
AcDbSymbolTable
0
ENDTAB
0
TABLE
2
LTYPE
5
5
100
AcDbSymbolTable
0
LTYPE
5
14
100
AcDbSymbolTableRecord
100
AcDbLinetypeTableRecord
2
BYBLOCK
70
0
0
LTYPE
5
15
100
AcDbSymbolTableRecord
100
AcDbLinetypeTableRecord
2
BYLAYER
70
0
0
LTYPE
5
16
100
AcDbSymbolTableRecord
100
AcDbLinetypeTableRecord
2
DASHED
70
0
3
Dashed __ __ __ __ __ __ __ __ __ __ __ __ __ _
72
65
73
2
40
0.75
49
0.5
74
0
49
-0.25
74
0
0
ENDTAB
0
TABLE
2
LAYER
5
2
100
AcDbSymbolTable
70
2
0
LAYER
5
50
100
AcDbSymbolTableRecord
100
AcDbLayerTableRecord
2
0
70
0
62
7
6
CONTINUOUS
0
ENDTAB
0
TABLE
2
STYLE
5
3
100
AcDbSymbolTable
70
1
0
STYLE
5
11
100
AcDbSymbolTableRecord
100
AcDbTextStyleTableRecord
2
STANDARD
70
0
0
ENDTAB
0
TABLE
2
VIEW
5
6
100
AcDbSymbolTable
70
0
0
ENDTAB
0
TABLE
2
UCS
5
7
100
AcDbSymbolTable
70
0
0
ENDTAB
0
TABLE
2
APPID
5
9
100
AcDbSymbolTable
70
2
0
APPID
5
12
100
AcDbSymbolTableRecord
100
AcDbRegAppTableRecord
2
ACAD
70
0
0
ENDTAB
0
TABLE
2
DIMSTYLE
5
A
100
AcDbSymbolTable
70
1
0
ENDTAB
0
TABLE
2
BLOCK_RECORD
5
1
100
AcDbSymbolTable
70
1
0
BLOCK_RECORD
5
1F
100
AcDbSymbolTableRecord
100
AcDbBlockTableRecord
2
*MODEL_SPACE
0
BLOCK_RECORD
5
1B
100
AcDbSymbolTableRecord
100
AcDbBlockTableRecord
2
*PAPER_SPACE
0
ENDTAB
0
ENDSEC
0
SECTION
2
BLOCKS
0
BLOCK
5
20
100
AcDbEntity
100
AcDbBlockBegin
2
*MODEL_SPACE
0
ENDBLK
5
21
100
AcDbEntity
100
AcDbBlockEnd
0
BLOCK
5
1C
100
AcDbEntity
100
AcDbBlockBegin
2
*PAPER_SPACE
0
ENDBLK
5
1D
100
AcDbEntity
100
AcDbBlockEnd
0
ENDSEC
0
SECTION
2
ENTITIES
0
LWPOLYLINE
5
100
100
AcDbEntity
8
0
100
AcDbPolyline
90
58
70
1
43
0.0
10
-16.484195164389828
20
-21.244467209148276
10
-12.749693988174862
20
-27.712812987278525
42
0.13165249758740089
10
-12.566681286282639
20
-27.895825689170746
10
27.059117766801997
20
-50.773791439323205
42
0.13165249758740338
10
27.309117766801986
20
-50.840778737430988
10
32.819509124868773
20
-50.840778737431023
42
0.13165249758739836
10
33.069509124868773
20
-50.773791439323247
10
47.393844797660222
20
-42.503632382674553
42
0.41421356237309503
10
47.576857499552432
20
-41.820619680782336
10
46.649454779605868
20
-40.21431105075731
10
45.899454954449617
20
-38.915273353595538
42
-0.4142135754770544
10
46.082467651655179
20
-38.232260634071679
10
55.327544531829574
20
-32.894613125902758
42
-0.41421354926913684
10
56.010557220795654
20
-33.077625814920403
10
56.760557045951813
20
-34.37666351208199
10
57.68795973272816
20
-35.98297208465452
42
0.41421356237308571
10
58.370972434620398
20
-36.165984786546744
10
72.695308177953422
20
-27.895825689170852
42
0.13165249758742417
10
72.878320879845646
20
-27.712812987278632
10
75.633516558879052
20
-22.940674086398559
42
0.13165249758739836
10
75.700503856986828
20
-22.690674086398559
10
75.700503856986842
20
23.065257413906295
42
0.13165249758739608
10
75.633516558879052
20
23.315257413906295
10
72.878320879845674
20
28.087396314786368
42
0.13165249758741829
10
72.69530817795345
20
28.270409016678585
10
58.357907127032703
20
36.548111372907314
42
0.41421356237309503
10
57.674894425140479
20
36.365098671015097
10
56.747491862939
20
34.758790314212568
10
55.997492037782941
20
33.459752617051116
42
-0.41421353555087193
10
55.31447936909791
20
33.276739916324196
10
46.069403421936244
20
38.614386308467779
42
-0.41421358919531964
10
45.88639070444961
20
39.29739903970092
10
46.636390962618613
20
40.596437486862733
10
47.563793374977472
20
42.202745584130213
42
0.41421356237307633
10
47.380780673085248
20
42.885758286022437
10
33.069509124868951
20
51.148374766830969
42
0.13165249758739128
10
32.819509124868958
20
51.215362064938752
10
27.309117766802267
20
51.215362064938795
42
0.13165249758739089
10
27.059117766802263
20
51.148374766831012
10
-12.566681286282449
20
28.270409016678677
42
0.13165249758740694
10
-12.74969398817467
20
28.08739631478646
10
-15.504889667208058
20
23.315257413906476
42
0.13165249758739639
10
-15.571876965315838
20
23.065257413906473
10
-15.571876965315885
20
6.5400240595590358
42
0.41421356237310025
10
-15.071876965315889
20
6.0400240595590349
10
-13.217071999799273
20
6.0400240595590287
10
-11.717071999799273
20
6.0400240595590287
42
-0.41421356237309309
10
-11.21707199979927
20
5.5400240595590269
10
-11.21707199979927
20
-5.135269940440975
42
-0.41421356237309176
10
-11.71707199979927
20
-5.6352699404409767
10
-13.21707199979927
20
-5.6352699404409758
10
-15.071876965315923
20
-5.6352699404409767
42
0.41421356237309176
10
-15.571876965315923
20
-6.1352699404409758
10
-15.571876965315933
20
-10.431050667728199
42
-0.13164880952171237
10
-15.638860638235734
20
-10.681044388613287
10
-16.483962831148752
20
-12.144853344642314
42
0.13164183108255051
10
-16.550946503880336
20
-12.394833346408129
10
-16.551182462309388
20
-20.994453490029006
42
0.13165947604582273
0
LWPOLYLINE
5
101
100
AcDbEntity
8
0
100
AcDbPolyline
90
16
70
1
43
0.0
10
40.464479369097901
20
7.5557854239263715
10
31.219403421936246
20
12.893431816069951
42
-0.41421358919532025
10
31.036390704449609
20
13.576444547303094
10
31.786390962618615
20
14.875482994464907
42
-0.41421346474207565
10
32.469403526620042
20
15.058495755630904
10
33.335429656794219
20
14.558495680474866
42
0.4142135413453874
10
34.018442286180665
20
14.741508554891052
10
34.518433830250544
20
15.607519765196523
42
-0.41421223372380955
10
35.20144452644832
20
15.790533755733184
10
40.982435223609102
20
12.452913930575566
42
-0.41421499541320228
10
41.165449955251034
20
11.769899981703897
10
40.665441728166591
20
10.903860588382219
42
0.41421368779027823
10
40.848454526619861
20
10.220847755631022
10
41.714479040768765
20
9.7208486134869556
42
-0.41421366000411886
10
41.897491862938992
20
9.0378358218147383
10
41.147492037782925
20
7.7387981246532895
42
-0.41421353555087237
0
LWPOLYLINE
5
102
100
AcDbEntity
8
0
100
AcDbPolyline
90
16
70
1
43
0.0
10
16.482928000200729
20
6.0400240595590287
10
17.982928000200729
20
6.0400240595590287
42
-0.41421356237309309
10
18.482928000200729
20
5.5400240595590269
10
18.482928000200729
20
-5.135269940440975
42
-0.41421356237309176
10
17.982928000200733
20
-5.6352699404409767
10
16.482928000200733
20
-5.6352699404409767
42
-0.41421356237309309
10
15.982928000200731
20
-5.135269940440975
10
15.982928000200731
20
-4.1352699404409758
42
0.41421356237309048
10
15.482928000200733
20
-3.6352699404409758
10
14.482928000200729
20
-3.635269940440975
42
-0.41421356237309209
10
13.982928000200729
20
-3.135269940440975
10
13.982928000200729
20
3.5400240595590278
42
-0.41421356237309048
10
14.482928000200728
20
4.0400240595590269
10
15.482928000200731
20
4.0400240595590269
42
0.41421356237309209
10
15.982928000200731
20
4.5400240595590269
10
15.982928000200731
20
5.5400240595590269
42
-0.41421356237309176
0
LWPOLYLINE
5
103
100
AcDbEntity
8
0
100
AcDbPolyline
90
16
70
1
43
0.0
10
31.232467651655178
20
-12.511306141673845
10
40.477544531829572
20
-7.173658633504929
42
-0.41421354926913595
10
41.160557220795653
20
-7.3566713225225744
10
41.910557045951805
20
-8.6557090196841582
42
-0.41421351355752783
10
41.7275444402879
20
-9.3387216863564184
10
40.861518560113552
20
-9.8387221945255448
42
0.41421357288804783
10
40.678506005091421
20
-10.521734948911899
10
41.178501812297725
20
-11.387752614983595
42
-0.41421288254387578
10
40.995490277878361
20
-12.070764780122779
10
35.214524263729608
20
-15.408426788291614
42
-0.41421426323239646
10
34.531510495310847
20
-15.225414797996519
10
34.031505755091111
20
-14.359381515898832
42
0.41421357288788457
10
33.348493007275117
20
-14.176368936356576
10
32.482467560113619
20
-14.676369194525506
42
-0.41421361118865663
10
31.79945477960587
20
-14.493356558359485
10
31.049454954449608
20
-13.194318861197711
42
-0.41421357547705634
0
LWPOLYLINE
5
104
100
AcDbEntity
8
0
100
AcDbPolyline
90
16
70
1
43
0.0
10
3.132928000200732
20
20.085684551956852
42
0.41421356237309243
10
3.6329280002007303
20
20.585684551956852
10
3.6329280002007303
20
31.260978551956853
42
0.4142135623730937
10
3.1329280002007298
20
31.760978551956853
10
1.6329280002007285
20
31.760978551956853
42
0.41421356237309243
10
1.1329280002007303
20
31.260978551956853
10
1.1329280002007303
20
30.26097855195686
42
-0.41421356237309115
10
0.63292800020072981
20
29.760978551956857
10
-0.3670719997992733
20
29.760978551956857
42
0.41421356237309243
10
-0.86707199979927152
20
29.260978551956853
10
-0.86707199979927152
20
22.585684551956852
42
0.41421356237309115
10
-0.36707199979927108
20
22.085684551956852
10
0.63292800020073203
20
22.085684551956852
42
-0.41421356237308982
10
1.1329280002007303
20
21.585684551956852
10
1.1329280002007303
20
20.585684551956852
42
0.4142135623730937
10
1.6329280002007307
20
20.085684551956852
0
LWPOLYLINE
5
105
100
AcDbEntity
8
0
100
AcDbPolyline
90
16
70
1
43
0.0
10
16.186390704449607
20
39.29739903970092
42
0.41421358919531964
10
16.369403421936244
20
38.614386308467779
10
25.6144793690979
20
33.276739916324196
42
0.41421353555087193
10
26.297492037782924
20
33.459752617051123
10
27.04749186293899
20
34.758790314212568
42
0.41421366000411941
10
26.864479040768757
20
35.441803105884787
10
25.998454526619852
20
35.94180224802885
42
-0.41421368779027873
10
25.81544172816659
20
36.624815080780046
10
26.315449955251033
20
37.490854474101724
42
0.41421499541320228
10
26.1324352236091
20
38.173868422973392
10
20.351444526448319
20
41.511488248131016
42
0.41421223372380639
10
19.668433830250546
20
41.328474257594351
10
19.16844228618066
20
40.462463047288878
42
-0.41421354134538524
10
18.485429656794217
20
40.279450172872693
10
17.619403526620044
20
40.779450248028731
42
0.41421346474207743
10
16.936390962618614
20
40.596437486862733
0
LWPOLYLINE
5
106
100
AcDbEntity
8
0
100
AcDbPolyline
90
16
70
1
43
0.0
10
26.310557220795651
20
18.364283169875254
42
0.41421354926913684
10
25.627544531829571
20
18.547295858892898
10
16.382467651655176
20
13.209648350723981
42
0.41421357547705634
10
16.199454954449607
20
12.526635631200115
10
16.949454779605869
20
11.227597934038343
42
0.41421361118865663
10
17.632467560113618
20
11.044585297872318
10
18.498493007275115
20
11.544585556041252
42
-0.41421357288788457
10
19.181505755091109
20
11.361572976498994
10
19.681510495310846
20
10.495539694401309
42
0.4142142632323958
10
20.364524263729606
20
10.312527704106213
10
26.145490277878352
20
13.650189712275047
42
0.41421288254387578
10
26.32850181229772
20
14.333201877414233
10
25.828506005091416
20
15.199219543485929
42
-0.41421357288804783
10
26.011518560113551
20
15.882232297872283
10
26.877544440287899
20
16.382232806041408
42
0.41421351355752761
10
27.060557045951803
20
17.06524547271367
0
LWPOLYLINE
5
107
100
AcDbEntity
8
0
100
AcDbPolyline
90
16
70
1
43
0.0
10
32.832928000200738
20
20.085684551956852
42
0.41421356237308982
10
33.332928000200738
20
20.585684551956852
10
33.332928000200738
20
31.260978551956853
42
0.41421356237309243
10
32.832928000200731
20
31.760978551956853
10
31.332928000200731
20
31.760978551956853
42
0.41421356237309503
10
30.832928000200734
20
31.260978551956853
10
30.832928000200731
20
30.260978551956853
42
-0.41421356237308982
10
30.332928000200731
20
29.760978551956857
10
29.332928000200731
20
29.760978551956857
42
0.41421356237309503
10
28.832928000200731
20
29.260978551956853
10
28.832928000200731
20
22.585684551956852
42
0.41421356237309243
10
29.332928000200731
20
22.085684551956852
10
30.332928000200738
20
22.085684551956856
42
-0.41421356237308721
10
30.832928000200734
20
21.585684551956852
10
30.832928000200734
20
20.585684551956852
42
0.41421356237309503
10
31.332928000200731
20
20.085684551956852
0
LWPOLYLINE
5
108
100
AcDbEntity
8
0
100
AcDbPolyline
90
16
70
1
43
0.0
10
56.010557220795654
20
18.364283169875254
42
0.41421354926913684
10
55.327544531829574
20
18.547295858892898
10
46.082467651655179
20
13.209648350723981
42
0.41421357547705501
10
45.89945495444961
20
12.526635631200115
10
46.649454779605868
20
11.227597934038343
42
0.4142136111886579
10
47.332467560113621
20
11.044585297872318
10
48.198493007275118
20
11.544585556041246
42
-0.4142135728878833
10
48.881505755091112
20
11.361572976498994
10
49.381510495310849
20
10.495539694401309
42
0.41421426323239774
10
50.064524263729609
20
10.312527704106213
10
55.845490277878362
20
13.650189712275047
42
0.41421288254387578
10
56.028501812297726
20
14.333201877414233
10
55.528506005091423
20
15.199219543485929
42
-0.41421357288804783
10
55.711518560113554
20
15.882232297872283
10
56.577544440287902
20
16.382232806041408
42
0.41421351355752761
10
56.760557045951813
20
17.06524547271367
0
LWPOLYLINE
5
109
100
AcDbEntity
8
0
100
AcDbPolyline
90
16
70
1
43
0.0
10
1.3363907044496059
20
13.576444547303094
42
0.41421358919532025
10
1.5194034219362429
20
12.893431816069951
10
10.764479369097902
20
7.5557854239263715
42
0.41421353555087237
10
11.447492037782926
20
7.7387981246532895
10
12.197491862938993
20
9.0378358218147383
42
0.41421366000411886
10
12.014479040768759
20
9.7208486134869556
10
11.148454526619854
20
10.220847755631022
42
-0.41421368779027823
10
10.965441728166589
20
10.903860588382219
10
11.465449955251032
20
11.769899981703897
42
0.41421499541320228
10
11.282435223609099
20
12.452913930575566
10
5.5014445264483181
20
15.790533755733184
42
0.41421223372380955
10
4.8184338302505436
20
15.607519765196521
10
4.3184422861806588
20
14.741508554891052
42
-0.4142135413453874
10
3.6354296567942157
20
14.558495680474866
10
2.7694035266200423
20
15.058495755630904
42
0.41421346474207565
10
2.0863909626186139
20
14.875482994464907
0
LWPOLYLINE
5
110
100
AcDbEntity
8
0
100
AcDbPolyline
90
16
70
1
43
0.0
10
11.46055722079565
20
-7.3566713225225744
42
0.41421354926913595
10
10.77754453182957
20
-7.173658633504929
10
1.5324676516551738
20
-12.511306141673845
42
0.41421357547705634
10
1.3494549544496071
20
-13.194318861197711
10
2.0994547796058693
20
-14.493356558359485
42
0.41421361118865663
10
2.7824675601136173
20
-14.67636919452551
10
3.6484930072751132
20
-14.176368936356576
42
-0.41421357288788457
10
4.3315057550911096
20
-14.359381515898832
10
4.8315104953108445
20
-15.225414797996519
42
0.41421426323239646
10
5.5145242637296077
20
-15.408426788291614
10
11.295490277878354
20
-12.070764780122779
42
0.41421288254387578
10
11.478501812297722
20
-11.387752614983595
10
10.978506005091415
20
-10.521734948911899
42
-0.41421357288804783
10
11.161518560113549
20
-9.8387221945255448
10
12.027544440287897
20
-9.3387216863564184
42
0.41421351355752783
10
12.210557045951806
20
-8.6557090196841582
0
LWPOLYLINE
5
111
100
AcDbEntity
8
0
100
AcDbPolyline
90
16
70
1
43
0.0
10
47.682928000200739
20
-5.6352699404409767
42
0.41421356237308915
10
48.182928000200732
20
-5.135269940440975
10
48.182928000200732
20
5.5400240595590269
42
0.41421356237309437
10
47.682928000200732
20
6.0400240595590269
10
46.182928000200732
20
6.0400240595590287
42
0.41421356237309437
10
45.682928000200732
20
5.5400240595590269
10
45.682928000200732
20
4.5400240595590269
42
-0.41421356237309342
10
45.182928000200732
20
4.0400240595590269
10
44.182928000200725
20
4.0400240595590269
42
0.41421356237308787
10
43.682928000200732
20
3.5400240595590278
10
43.682928000200732
20
-3.135269940440975
42
0.41421356237309342
10
44.182928000200732
20
-3.6352699404409754
10
45.182928000200739
20
-3.6352699404409803
42
-0.41421356237308787
10
45.682928000200732
20
-4.1352699404409758
10
45.682928000200732
20
-5.135269940440975
42
0.41421356237309437
10
46.182928000200732
20
-5.6352699404409758
0
LWPOLYLINE
5
112
100
AcDbEntity
8
0
100
AcDbPolyline
90
16
70
1
43
0.0
10
60.736390704449612
20
13.576444547303094
42
0.41421358919532025
10
60.919403421936245
20
12.893431816069951
10
70.164479369097904
20
7.5557854239263715
42
0.41421353555087426
10
70.847492037782928
20
7.7387981246532895
10
71.597491862938995
20
9.0378358218147383
42
0.4142136600041143
10
71.414479040768768
20
9.7208486134869556
10
70.548454526619864
20
10.220847755631022
42
-0.41421368779027823
10
70.365441728166601
20
10.903860588382219
10
70.865449955251037
20
11.769899981703897
42
0.41421499541320228
10
70.682435223609104
20
12.452913930575566
10
64.90144452644833
20
15.790533755733184
42
0.41421223372381211
10
64.218433830250547
20
15.607519765196521
10
63.718442286180661
20
14.74150855489105
42
-0.41421354134538613
10
63.035429656794221
20
14.558495680474866
10
62.169403526620044
20
15.058495755630904
42
0.41421346474207565
10
61.486390962618614
20
14.875482994464907
0
LWPOLYLINE
5
113
100
AcDbEntity
8
0
100
AcDbPolyline
90
16
70
1
43
0.0
10
70.860557220795656
20
-7.3566713225225744
42
0.41421354926913406
10
70.177544531829582
20
-7.173658633504929
10
60.932467651655173
20
-12.511306141673845
42
0.41421357547705046
10
60.749454954449611
20
-13.194318861197711
10
61.49945477960587
20
-14.493356558359485
42
0.41421361118865979
10
62.182467560113622
20
-14.67636919452551
10
63.048493007275113
20
-14.176368936356582
42
-0.41421357288788779
10
63.731505755091113
20
-14.359381515898832
10
64.231510495310843
20
-15.225414797996519
42
0.41421426323239324
10
64.914524263729604
20
-15.408426788291614
10
70.695490277878363
20
-12.070764780122779
42
0.41421288254387134
10
70.878501812297714
20
-11.387752614983595
10
70.378506005091424
20
-10.521734948911895
42
-0.41421357288804522
10
70.561518560113555
20
-9.8387221945255448
10
71.427544440287903
20
-9.3387216863564184
42
0.41421351355752067
10
71.610557045951822
20
-8.6557090196841582
0
LWPOLYLINE
5
114
100
AcDbEntity
8
0
100
AcDbPolyline
90
16
70
1
43
0.0
10
3.132928000200732
20
-31.356224432838804
42
0.41421356237309243
10
3.6329280002007303
20
-30.8562244328388
10
3.6329280002007303
20
-20.1809304328388
42
0.4142135623730937
10
3.1329280002007298
20
-19.6809304328388
10
1.6329280002007285
20
-19.6809304328388
42
0.41421356237309243
10
1.1329280002007303
20
-20.1809304328388
10
1.1329280002007303
20
-21.180930432838796
42
-0.41421356237309115
10
0.63292800020072981
20
-21.6809304328388
10
-0.3670719997992733
20
-21.6809304328388
42
0.41421356237309243
10
-0.86707199979927152
20
-22.1809304328388
10
-0.86707199979927152
20
-28.856224432838804
42
0.41421356237309115
10
-0.36707199979927108
20
-29.3562244328388
10
0.63292800020073203
20
-29.3562244328388
42
-0.41421356237308982
10
1.1329280002007303
20
-29.8562244328388
10
1.1329280002007303
20
-30.8562244328388
42
0.4142135623730937
10
1.6329280002007307
20
-31.356224432838804
0
LWPOLYLINE
5
115
100
AcDbEntity
8
0
100
AcDbPolyline
90
16
70
1
43
0.0
10
16.186390704449607
20
-12.144509945094732
42
0.41421358919532025
10
16.369403421936244
20
-12.827522676327876
10
25.6144793690979
20
-18.165169068471457
42
0.41421353555087143
10
26.297492037782924
20
-17.982156367744537
10
27.04749186293899
20
-16.683118670583088
42
0.41421366000411941
10
26.864479040768757
20
-16.000105878910873
10
25.998454526619852
20
-15.500106736766806
42
-0.41421368779027823
10
25.81544172816659
20
-14.817093904015607
10
26.315449955251033
20
-13.951054510693929
42
0.41421499541320228
10
26.1324352236091
20
-13.268040561822261
10
20.351444526448319
20
-9.930420736664642
42
0.41421223372380889
10
19.668433830250546
20
-10.113434727201307
10
19.16844228618066
20
-10.979445937506775
42
-0.4142135413453874
10
18.485429656794217
20
-11.162458811922962
10
17.619403526620044
20
-10.662458736766922
42
0.41421346474207565
10
16.936390962618614
20
-10.845471497932921
0
LWPOLYLINE
5
116
100
AcDbEntity
8
0
100
AcDbPolyline
90
16
70
1
43
0.0
10
26.310557220795651
20
-33.077625814920403
42
0.41421354926913684
10
25.627544531829571
20
-32.894613125902758
10
16.382467651655176
20
-38.232260634071679
42
0.41421357547705562
10
16.199454954449607
20
-38.915273353595538
10
16.949454779605869
20
-40.21431105075731
42
0.4142136111886584
10
17.632467560113618
20
-40.397323686923336
10
18.498493007275115
20
-39.897323428754405
42
-0.4142135728878833
10
19.181505755091109
20
-40.080336008296662
10
19.681510495310846
20
-40.946369290394351
42
0.41421426323239313
10
20.364524263729606
20
-41.129381280689437
10
26.145490277878352
20
-37.791719272520609
42
0.41421288254387695
10
26.32850181229772
20
-37.10870710738142
10
25.828506005091416
20
-36.242689441309722
42
-0.41421357288804783
10
26.011518560113551
20
-35.559676686923368
10
26.877544440287899
20
-35.059676178754245
42
0.41421351355752761
10
27.060557045951803
20
-34.37666351208199
0
LWPOLYLINE
5
117
100
AcDbEntity
8
0
100
AcDbPolyline
90
16
70
1
43
0.0
10
32.832928000200738
20
-31.356224432838804
42
0.41421356237308982
10
33.332928000200738
20
-30.8562244328388
10
33.332928000200738
20
-20.1809304328388
42
0.41421356237309243
10
32.832928000200731
20
-19.6809304328388
10
31.332928000200731
20
-19.6809304328388
42
0.41421356237309503
10
30.832928000200734
20
-20.1809304328388
10
30.832928000200731
20
-21.1809304328388
42
-0.41421356237308982
10
30.332928000200731
20
-21.6809304328388
10
29.332928000200731
20
-21.6809304328388
42
0.41421356237309503
10
28.832928000200731
20
-22.1809304328388
10
28.832928000200731
20
-28.856224432838804
42
0.41421356237309243
10
29.332928000200731
20
-29.3562244328388
10
30.332928000200738
20
-29.356224432838797
42
-0.41421356237308721
10
30.832928000200734
20
-29.8562244328388
10
30.832928000200734
20
-30.8562244328388
42
0.41421356237309503
10
31.332928000200731
20
-31.356224432838804
0
LWPOLYLINE
5
118
100
AcDbEntity
8
0
100
AcDbPolyline
90
16
70
1
43
0.0
10
45.88639070444961
20
-12.144509945094732
42
0.41421358919532025
10
46.069403421936244
20
-12.827522676327876
10
55.31447936909791
20
-18.165169068471457
42
0.41421353555087143
10
55.997492037782933
20
-17.982156367744537
10
56.747491862939
20
-16.683118670583088
42
0.41421366000411941
10
56.564479040768767
20
-16.000105878910873
10
55.698454526619862
20
-15.500106736766806
42
-0.41421368779027823
10
55.515441728166593
20
-14.817093904015607
10
56.015449955251036
20
-13.951054510693929
42
0.41421499541320228
10
55.832435223609103
20
-13.268040561822261
10
50.051444526448321
20
-9.930420736664642
42
0.41421223372380955
10
49.368433830250552
20
-10.113434727201307
10
48.86844228618066
20
-10.979445937506773
42
-0.41421354134538874
10
48.185429656794213
20
-11.162458811922962
10
47.319403526620043
20
-10.662458736766922
42
0.41421346474207565
10
46.636390962618613
20
-10.845471497932921
0
CIRCLE
5
119
100
AcDbEntity
8
0
100
AcDbCircle
10
62.520594826513388
20
29.147303789037252
30
9.9920072216264089e-15
40
1.6509999999999989
210
-4.924829393251824e-17
220
-1.2884669580670648e-16
230
1
0
CIRCLE
5
120
100
AcDbEntity
8
0
100
AcDbCircle
10
71.69695900803103
20
13.253478518921593
30
7.7715611723760958e-15
40
1.6509999999999985
210
-5.2717757865298627e-17
220
-1.2977634111958192e-16
230
1
0
CIRCLE
5
121
100
AcDbEntity
8
0
100
AcDbCircle
10
62.351117687096206
20
-18.453503456210722
30
1.1102230246251565e-15
40
1.6509999999999982
210
-8.6050616674665945e-18
220
-5.1075000943034842e-17
230
1
0
CIRCLE
5
122
100
AcDbEntity
8
0
100
AcDbCircle
10
39.085775417799653
20
-42.677403083068384
30
-1.1102230246251565e-15
40
1.6509999999999982
210
-8.7467956732044974e-17
220
-1.4774244770874476e-16
230
1
0
CIRCLE
5
123
100
AcDbEntity
8
0
100
AcDbCircle
10
20.733136879809607
20
-42.677454943582418
30
-2.2204460492503131e-15
40
1.6509999999999982
210
-8.7467956732044974e-17
220
-1.4774244770874474e-16
230
1
0
CIRCLE
5
124
100
AcDbEntity
8
0
100
AcDbCircle
10
-11.398835648457716
20
13.530099294031157
30
1.1102230246251565e-15
40
1.6509999999999989
210
-4.9031453498021121e-17
220
-4.5579968959819712e-17
230
1
0
CIRCLE
5
125
100
AcDbEntity
8
0
100
AcDbCircle
10
-2.2225612919852971
20
29.423976424660854
30
3.3306690738754696e-15
40
1.6509999999999994
210
-4.903145349802114e-17
220
-7.3335544575448681e-17
230
1
0
ENDSEC
0
SECTION
2
OBJECTS
0
DICTIONARY
5
C
100
AcDbDictionary
3
ACAD_GROUP
350
D
3
ACAD_MLINESTYLE
350
17
0
DICTIONARY
5
D
100
AcDbDictionary
0
DICTIONARY
5
1A
330
C
100
AcDbDictionary
0
DICTIONARY
5
17
100
AcDbDictionary
0
ENDSEC
0
EOF
