  0
SECTION
  2
HEADER
  9
$ANGBASE
  50
0.0
  9
$ANGDIR
  70
1
  9
$MEASUREMENT
  70
1
  0
ENDSEC
  0
SECTION
  2
TABLES
  0
TABLE
  2
LTYPE
  70
4
  0
LTYPE
  5
40F
  2
CONTINUOUS
  70
0
  3
Solid line
  72
65
  73
0
  40
0.0
  0
LTYPE
  5
410
  2
DASHDOT
 70
0
  3
Dash Dot ____ _ ____ _
 72
65
 73
4
 40
2.0
 49
1.25
 49
-0.25
 49
0.25
 49
-0.25
  0
LTYPE
  5
411
  2
DASHED
 70
0
  3
Dashed __ __ __ __ __
 72
65
 73
2
 40
0.75
 49
0.5
 49
-0.25
  0
LTYPE
  5
43B
  2
DOTTED
 70
0
  3
Dotted .  .  .  .
 72
65
 73
2
 40
0.2
 49
0.0
 49
-0.2
  0
ENDTAB
  0
TABLE
  2
STYLE
  70
4
  0
STYLE
  2
KICAD
  70
0
  40
0
  41
1
  42
1
  50
0
  71
0
  3
isocp.shx
  0
STYLE
  2
KICADB
  70
0
  40
0
  41
1
  42
1
  50
0
  71
0
  3
isocp.shx
  0
STYLE
  2
KICADI
  70
0
  40
0
  41
1
  42
1
  50
15
  71
0
  3
isocp.shx
  0
STYLE
  2
KICADBI
  70
0
  40
0
  41
1
  42
1
  50
15
  71
0
  3
isocp.shx
  0
ENDTAB
  0
TABLE
  2
LAYER
  70
1
  0
LAYER
  2
BLACK
  70
0
  62
7
  6
CONTINUOUS
  0
ENDTAB
  0
ENDSEC
  0
SECTION
  2
ENTITIES
0
CIRCLE
8
BLACK
10
382.5
20
-79.8999999999999915
40
3.
0
CIRCLE
8
BLACK
10
382.5
20
-70.0999999999999943
40
3.
0
CIRCLE
8
BLACK
10
207.3999999999999773
20
-79.8999999999999915
40
3.
0
CIRCLE
8
BLACK
10
207.3999999999999773
20
-70.0999999999999943
40
3.
0
CIRCLE
8
BLACK
10
170.5
20
-35.4999989999999954
40
2.5
0
LINE
8
BLACK
6
CONTINUOUS
10
418.5
20
-402.4999990000000025
11
418.5
21
-27.499998999999999
0
LINE
8
BLACK
6
CONTINUOUS
10
162.5
20
-27.499998999999999
11
162.5
21
-402.4999990000000025
0
CIRCLE
8
BLACK
10
170.5
20
-394.4999990000000025
40
2.5
0
LINE
8
BLACK
6
CONTINUOUS
10
162.5
20
-402.4999990000000025
11
418.5
21
-402.4999990000000025
0
CIRCLE
8
BLACK
10
410.5
20
-394.4999990000000025
40
2.5
0
CIRCLE
8
BLACK
10
410.5
20
-35.4999989999999954
40
2.5
0
LINE
8
BLACK
6
CONTINUOUS
10
418.5
20
-27.499998999999999
11
162.5
21
-27.499998999999999
0
CIRCLE
8
BLACK
10
325.5
20
-57.4999989999999954
40
0.75
0
CIRCLE
8
BLACK
10
395.5
20
-162.4999990000000025
40
0.75
0
CIRCLE
8
BLACK
10
185.5
20
-267.4999990000000025
40
0.75
0
CIRCLE
8
BLACK
10
360.5
20
-57.4999989999999954
40
0.75
0
CIRCLE
8
BLACK
10
360.5
20
-127.4999989999999883
40
0.75
0
CIRCLE
8
BLACK
10
325.5
20
-127.4999989999999883
40
0.75
0
CIRCLE
8
BLACK
10
290.5
20
-127.4999989999999883
40
0.75
0
CIRCLE
8
BLACK
10
325.5
20
-92.4999990000000025
40
0.75
0
CIRCLE
8
BLACK
10
395.5
20
-92.4999990000000025
40
0.75
0
CIRCLE
8
BLACK
10
360.5
20
-372.4999990000000025
40
0.75
0
CIRCLE
8
BLACK
10
290.5
20
-372.4999990000000025
40
0.75
0
CIRCLE
8
BLACK
10
395.5
20
-372.4999990000000025
40
0.75
0
CIRCLE
8
BLACK
10
220.5
20
-127.4999989999999883
40
0.75
0
CIRCLE
8
BLACK
10
325.5
20
-162.4999990000000025
40
0.75
0
CIRCLE
8
BLACK
10
220.5
20
-162.4999990000000025
40
0.75
0
CIRCLE
8
BLACK
10
290.5
20
-57.4999989999999954
40
0.75
0
CIRCLE
8
BLACK
10
360.5
20
-197.4999990000000025
40
0.75
0
CIRCLE
8
BLACK
10
220.5
20
-267.4999990000000025
40
0.75
0
CIRCLE
8
BLACK
10
290.5
20
-337.4999990000000025
40
0.75
0
CIRCLE
8
BLACK
10
395.5
20
-267.4999990000000025
40
0.75
0
CIRCLE
8
BLACK
10
290.5
20
-267.4999990000000025
40
0.75
0
CIRCLE
8
BLACK
10
395.5
20
-232.4999990000000025
40
0.75
0
CIRCLE
8
BLACK
10
325.5
20
-302.4999990000000025
40
0.75
0
CIRCLE
8
BLACK
10
290.5
20
-197.4999990000000025
40
0.75
0
CIRCLE
8
BLACK
10
185.5
20
-337.4999990000000025
40
0.75
0
CIRCLE
8
BLACK
10
395.5
20
-337.4999990000000025
40
0.75
0
CIRCLE
8
BLACK
10
255.5
20
-267.4999990000000025
40
0.75
0
CIRCLE
8
BLACK
10
255.5
20
-92.4999990000000025
40
0.75
0
CIRCLE
8
BLACK
10
220.5
20
-302.4999990000000025
40
0.75
0
CIRCLE
8
BLACK
10
360.5
20
-92.4999990000000025
40
0.75
0
CIRCLE
8
BLACK
10
325.5
20
-337.4999990000000025
40
0.75
0
CIRCLE
8
BLACK
10
185.5
20
-232.4999990000000025
40
0.75
0
CIRCLE
8
BLACK
10
255.5
20
-57.4999989999999954
40
0.75
0
CIRCLE
8
BLACK
10
325.5
20
-372.4999990000000025
40
0.75
0
CIRCLE
8
BLACK
10
255.5
20
-162.4999990000000025
40
0.75
0
CIRCLE
8
BLACK
10
255.5
20
-127.4999989999999883
40
0.75
0
CIRCLE
8
BLACK
10
185.5
20
-57.4999989999999954
40
0.749999
0
CIRCLE
8
BLACK
10
360.5
20
-232.4999990000000025
40
0.75
0
CIRCLE
8
BLACK
10
185.5
20
-197.4999990000000025
40
0.75
0
CIRCLE
8
BLACK
10
290.5
20
-92.4999990000000025
40
0.75
0
CIRCLE
8
BLACK
10
255.5
20
-232.4999990000000025
40
0.75
0
CIRCLE
8
BLACK
10
290.5
20
-162.4999990000000025
40
0.75
0
CIRCLE
8
BLACK
10
185.5
20
-372.4999990000000025
40
0.75
0
CIRCLE
8
BLACK
10
185.5
20
-302.4999990000000025
40
0.75
0
CIRCLE
8
BLACK
10
325.5
20
-197.4999990000000025
40
0.75
0
CIRCLE
8
BLACK
10
220.5
20
-232.4999990000000025
40
0.75
0
CIRCLE
8
BLACK
10
360.5
20
-337.4999990000000025
40
0.75
0
CIRCLE
8
BLACK
10
395.5
20
-197.4999990000000025
40
0.75
0
CIRCLE
8
BLACK
10
255.5
20
-302.4999990000000025
40
0.75
0
CIRCLE
8
BLACK
10
220.5
20
-372.4999990000000025
40
0.75
0
CIRCLE
8
BLACK
10
255.5
20
-337.4999990000000025
40
0.75
0
CIRCLE
8
BLACK
10
325.5
20
-232.4999990000000025
40
0.75
0
CIRCLE
8
BLACK
10
395.5
20
-127.4999989999999883
40
0.75
0
CIRCLE
8
BLACK
10
395.5
20
-57.4999989999999954
40
0.75
0
CIRCLE
8
BLACK
10
185.5
20
-162.4999990000000025
40
0.75
0
CIRCLE
8
BLACK
10
360.5
20
-267.4999990000000025
40
0.75
0
CIRCLE
8
BLACK
10
255.5
20
-372.4999990000000025
40
0.75
0
CIRCLE
8
BLACK
10
255.5
20
-197.4999990000000025
40
0.75
0
CIRCLE
8
BLACK
10
185.5
20
-92.4999990000000025
40
0.75
0
CIRCLE
8
BLACK
10
290.5
20
-302.4999990000000025
40
0.75
0
CIRCLE
8
BLACK
10
395.5
20
-302.4999990000000025
40
0.75
0
CIRCLE
8
BLACK
10
290.5
20
-232.4999990000000025
40
0.75
0
CIRCLE
8
BLACK
10
220.5
20
-337.4999990000000025
40
0.75
0
CIRCLE
8
BLACK
10
220.5
20
-197.4999990000000025
40
0.75
0
CIRCLE
8
BLACK
10
185.5
20
-127.4999989999999883
40
0.75
0
CIRCLE
8
BLACK
10
220.5
20
-92.4999990000000025
40
0.75
0
CIRCLE
8
BLACK
10
360.5
20
-162.4999990000000025
40
0.75
0
CIRCLE
8
BLACK
10
360.5
20
-302.4999990000000025
40
0.75
0
CIRCLE
8
BLACK
10
325.5
20
-267.4999990000000025
40
0.75
0
CIRCLE
8
BLACK
10
220.5
20
-57.4999989999999954
40
0.75
  0
ENDSEC
  0
EOF
