0
SECTION
2
HEADER
9
$INSUNITS
70
4
9
$ACADVER
1
AC1014
9
$HANDSEED
5
FFFF
0
ENDSEC
0
SECTION
2
TABLES
0
TABLE
2
VPORT
5
8
100
AcDbSymbolTable
0
ENDTAB
0
TABLE
2
LTYPE
5
5
100
AcDbSymbolTable
0
LTYPE
5
14
100
AcDbSymbolTableRecord
100
AcDbLinetypeTableRecord
2
BYBLOCK
70
0
0
LTYPE
5
15
100
AcDbSymbolTableRecord
100
AcDbLinetypeTableRecord
2
BYLAYER
70
0
0
ENDTAB
0
TABLE
2
LAYER
5
2
100
AcDbSymbolTable
70
2
0
LAYER
5
50
100
AcDbSymbolTableRecord
100
AcDbLayerTableRecord
2
0
70
0
6
CONTINUOUS
0
ENDTAB
0
TABLE
2
STYLE
5
3
100
AcDbSymbolTable
70
1
0
STYLE
5
11
100
AcDbSymbolTableRecord
100
AcDbTextStyleTableRecord
2
STANDARD
70
0
0
ENDTAB
0
TABLE
2
VIEW
5
6
100
AcDbSymbolTable
70
0
0
ENDTAB
0
TABLE
2
UCS
5
7
100
AcDbSymbolTable
70
0
0
ENDTAB
0
TABLE
2
APPID
5
9
100
AcDbSymbolTable
70
2
0
APPID
5
12
100
AcDbSymbolTableRecord
100
AcDbRegAppTableRecord
2
ACAD
70
0
0
ENDTAB
0
TABLE
2
DIMSTYLE
5
A
100
AcDbSymbolTable
70
1
0
ENDTAB
0
TABLE
2
BLOCK_RECORD
5
1
100
AcDbSymbolTable
70
1
0
BLOCK_RECORD
5
1F
100
AcDbSymbolTableRecord
100
AcDbBlockTableRecord
2
*MODEL_SPACE
0
BLOCK_RECORD
5
1B
100
AcDbSymbolTableRecord
100
AcDbBlockTableRecord
2
*PAPER_SPACE
0
ENDTAB
0
ENDSEC
0
SECTION
2
BLOCKS
0
BLOCK
5
20
100
AcDbEntity
100
AcDbBlockBegin
2
*MODEL_SPACE
0
ENDBLK
5
21
100
AcDbEntity
100
AcDbBlockEnd
0
BLOCK
5
1C
100
AcDbEntity
100
AcDbBlockBegin
2
*PAPER_SPACE
0
ENDBLK
5
1D
100
AcDbEntity
100
AcDbBlockEnd
0
ENDSEC
0
SECTION
2
ENTITIES
0
ELLIPSE
5
100
100
AcDbEntity
8
0
100
AcDbEllipse
10
82.13402938679225
20
7.4209220000000347
30
0
11
4.0006093121756301
21
-2.3314683517128287e-14
31
0.0
40
0.99984769515639171
41
4.7123889803846968
42
6.2831853071795924
0
LINE
5
101
100
AcDbEntity
8
0
100
AcDbLine
10
82.13402938679225
20
3.4209220000000329
30
0
11
62.248343999999982
21
3.4209220000000351
31
0
0
ARC
5
102
100
AcDbEntity
8
0
100
AcDbCircle
10
62.248343999999989
20
7.4209220000000471
30
0
40
4.0000000000000124
210
0
220
0
230
1
100
AcDbArc
50
180
51
269.99999999999989
0
LINE
5
103
100
AcDbEntity
8
0
100
AcDbLine
10
58.248343999999975
20
7.4209220000000231
30
0
11
58.248343999999975
21
18.420922000000029
31
0
0
ARC
5
104
100
AcDbEntity
8
0
100
AcDbCircle
10
62.248343999999989
20
18.420922000000026
30
0
40
4.0000000000000053
210
0
220
0
230
1
100
AcDbArc
50
90.000000000000199
51
180
0
LINE
5
105
100
AcDbEntity
8
0
100
AcDbLine
10
62.248343999999975
20
22.420922000000033
30
0
11
82.13402938679225
21
22.420922000000033
31
0
0
ELLIPSE
5
106
100
AcDbEntity
8
0
100
AcDbEllipse
10
82.13402938679225
20
18.420922000000036
30
0
11
4.0006093121756239
21
-1.915134717478395e-14
31
0.0
40
0.99984769515639116
41
3.5527136788005009e-15
42
1.5707963267949037
0
LINE
5
107
100
AcDbEntity
8
0
100
AcDbLine
10
86.134638698967876
20
18.420922000000036
30
-8.75277897568005e-47
11
86.13463869896789
21
7.4209220000000355
31
0
0
LINE
5
108
100
AcDbEntity
8
0
100
AcDbLine
10
-33.734474495923024
20
7.4209220000000364
30
0
11
-33.734474495923024
21
18.420922000000036
31
0
0
ELLIPSE
5
109
100
AcDbEntity
8
0
100
AcDbEllipse
10
-29.733865183747405
20
18.420922000000036
30
0
11
-4.0006093121756283
21
3.0531133177191809e-15
31
0.0
40
0.99984769515639116
41
4.7123889803846906
42
6.2831853071795871
0
LINE
5
110
100
AcDbEntity
8
0
100
AcDbLine
10
-29.733865183747405
20
22.420922000000033
30
0
11
-9.8516559999999931
21
22.420922000000033
31
0
0
ARC
5
111
100
AcDbEntity
8
0
100
AcDbCircle
10
-9.8516560000000002
20
18.420922000000026
30
0
40
4.000000000000008
210
0
220
-0
230
1
100
AcDbArc
50
0
51
89.999999999999901
0
LINE
5
112
100
AcDbEntity
8
0
100
AcDbLine
10
-5.8516559999999931
20
18.420922000000029
30
0
11
-5.8516559999999895
21
7.4209220000000258
31
0
0
ARC
5
113
100
AcDbEntity
8
0
100
AcDbCircle
10
-9.8516559999999913
20
7.4209220000000293
30
0
40
4
210
0
220
0
230
1
100
AcDbArc
50
269.99999999999994
51
360
0
LINE
5
114
100
AcDbEntity
8
0
100
AcDbLine
10
-9.8516559999999949
20
3.4209220000000293
30
0
11
-29.733865183747401
21
3.4209220000000338
31
0
0
ELLIPSE
5
115
100
AcDbEntity
8
0
100
AcDbEllipse
10
-29.733865183747401
20
7.4209220000000364
30
0
11
-4.0006093121756328
21
-7.7715611723760974e-15
31
0.0
40
0.99984769515639127
41
6.2831853071795836
42
7.853981633974481
0
LINE
5
116
100
AcDbEntity
8
0
100
AcDbLine
10
-48.584616413934008
20
-18.299996999999962
30
0
11
-48.584616413934008
21
-7.2999970000000358
31
0
0
ELLIPSE
5
117
100
AcDbEntity
8
0
100
AcDbEllipse
10
-44.584007101758303
20
-7.2999970000000358
30
0
11
-4.0006093121756869
21
-2.7478019859472624e-14
31
0.0
40
0.99984769515639138
41
4.7123889803846826
42
6.2831853071795791
0
LINE
5
118
100
AcDbEntity
8
0
100
AcDbLine
10
-44.584007101758303
20
-3.299996999999979
30
0
11
-24.70171800000001
21
-3.2999969999999852
31
0
0
ARC
5
119
100
AcDbEntity
8
0
100
AcDbCircle
10
-24.701718000000014
20
-7.2999969999999914
30
0
40
4.000000000000008
210
0
220
-0
230
1
100
AcDbArc
50
0
51
89.999999999999943
0
LINE
5
120
100
AcDbEntity
8
0
100
AcDbLine
10
-20.701718000000007
20
-7.2999969999999852
30
0
11
-20.701718000000007
21
-18.299996999999987
31
0
0
ARC
5
121
100
AcDbEntity
8
0
100
AcDbCircle
10
-24.701718000000021
20
-18.29999699999998
30
0
40
4.000000000000008
210
0
220
0
230
1
100
AcDbArc
50
270.00000000000017
51
360
0
LINE
5
122
100
AcDbEntity
8
0
100
AcDbLine
10
-24.70171800000001
20
-22.299996999999987
30
0
11
-44.584007101758381
21
-22.299996999999976
31
0
0
ELLIPSE
5
123
100
AcDbEntity
8
0
100
AcDbEllipse
10
-44.584007101758367
20
-18.299996999999966
30
0
11
-4.0006093121756416
21
1.3877787807814457e-15
31
0.0
40
0.99984769515639127
41
0
42
1.570796326794893
0
ELLIPSE
5
124
100
AcDbEntity
8
0
100
AcDbEllipse
10
67.283967223882271
20
-18.299996999999976
30
0
11
4.0006093121756328
21
1.1304845948245656e-12
31
0.0
40
0.99984769515639127
41
4.7123889803844161
42
6.2831853071793029
0
LINE
5
125
100
AcDbEntity
8
0
100
AcDbLine
10
67.283967223882286
20
-22.299996999999976
30
6.2380408157661589e-57
11
47.398281999999973
21
-22.299996999999983
31
0
0
ARC
5
126
100
AcDbEntity
8
0
100
AcDbCircle
10
47.39828199999998
20
-18.299996999999959
30
0
40
4.0000000000000213
210
0
220
0
230
1
100
AcDbArc
50
180
51
269.99999999999989
0
LINE
5
127
100
AcDbEntity
8
0
100
AcDbLine
10
43.398281999999959
20
-18.299996999999976
30
0
11
43.398281999999988
21
-7.2999969999999736
31
0
0
ARC
5
128
100
AcDbEntity
8
0
100
AcDbCircle
10
47.398281999999973
20
-7.2999969999999648
30
0
40
3.9999999999999836
210
0
220
-0
230
1
100
AcDbArc
50
89.999999999999801
51
180
0
LINE
5
129
100
AcDbEntity
8
0
100
AcDbLine
10
47.398281999999988
20
-3.2999969999999812
30
0
11
67.283967223882257
21
-3.2999969999999799
31
0
0
ELLIPSE
5
130
100
AcDbEntity
8
0
100
AcDbEllipse
10
67.283967223882257
20
-7.2999969999999825
30
0
11
4.0006093121756336
21
7.2164496600635191e-15
31
0.0
40
0.99984769515639127
41
6.2831853071795845
42
7.8539816339744792
0
LINE
5
131
100
AcDbEntity
8
0
100
AcDbLine
10
71.284576536057898
20
-7.2999969999999816
30
0
11
71.284576536057898
21
-18.299996999999976
31
-2.2424190742061108e-44
0
LINE
5
132
100
AcDbEntity
8
0
100
AcDbLine
10
40.09597812549675
20
29.060462500000025
30
0
11
12.298790751880446
21
29.060462500000028
31
0
0
ELLIPSE
5
133
100
AcDbEntity
8
0
100
AcDbEllipse
10
10.419917824564447
20
25.529003306931202
30
0
11
-2.0003046560887987
21
3.4646292949601207
31
0.0
40
0.99984769515639138
41
4.7123889803844055
42
5.2705692553206278
0
LINE
5
134
100
AcDbEntity
8
0
100
AcDbLine
10
13.884019439702202
20
27.529003306931202
30
0
11
23.825585335952148
21
10.309706067832284
31
0
0
ARC
5
135
100
AcDbEntity
8
0
100
AcDbCircle
10
20.361483720814398
20
8.309706067832284
30
0
40
3.9999999999999987
210
0
220
0
230
1
100
AcDbArc
50
-60.000000000000028
51
30.000000000000014
0
LINE
5
136
100
AcDbEntity
8
0
100
AcDbLine
10
22.361483720814395
20
4.8456044526945306
30
0
11
12.835204279185602
21
-0.65439554730545302
31
0
0
ARC
5
137
100
AcDbEntity
8
0
100
AcDbCircle
10
10.8352042791856
20
2.8097060678322934
30
0
40
3.9999999999999956
210
0
220
0
230
1
100
AcDbArc
50
209.99999999999997
51
300.00000000000006
0
LINE
5
138
100
AcDbEntity
8
0
100
AcDbLine
10
7.3711026640478474
20
0.80970606783229759
30
0
11
-2.5704632322020937
21
18.029003306931216
31
0
0
ELLIPSE
5
139
100
AcDbEntity
8
0
100
AcDbEllipse
10
0.89363838293566211
20
20.029003306931212
30
0
11
-2.000304656087819
21
3.4646292949606874
31
0.0
40
0.99984769515639171
41
6.2831853071795862
42
7.853981633974481
0
LINE
5
140
100
AcDbEntity
8
0
100
AcDbLine
10
-1.1066662731521568
20
23.4936326018919
30
4.9311316928726246e-32
11
8.41961316847663
21
28.993632601891889
31
0
0
ELLIPSE
5
141
100
AcDbEntity
8
0
100
AcDbEllipse
10
10.419917824564447
20
25.529003306931202
30
0
11
-2.0003046560887987
21
3.4646292949601207
31
0.0
40
0.99984769515639138
41
6.2487357127273135
42
6.2831853071793029
0
LINE
5
142
100
AcDbEntity
8
0
100
AcDbLine
10
8.5401132992814919
20
29.060462500000025
30
0
11
-46.226686999999998
21
29.060462500000021
31
-1.0162872723124809e-31
0
ARC
5
143
100
AcDbEntity
8
0
100
AcDbCircle
10
-46.226686999999998
20
25.060462500000025
30
0
40
3.9999999999999947
210
0
220
2.540718180781206e-32
230
1
100
AcDbArc
50
90
51
180
0
LINE
5
144
100
AcDbEntity
8
0
100
AcDbLine
10
-50.226686999999998
20
25.060462500000025
30
0
11
-50.226686999999998
21
-24.939537499999965
31
0
0
ARC
5
145
100
AcDbEntity
8
0
100
AcDbCircle
10
-46.226686999999998
20
-24.939537499999975
30
0
40
3.9999999999999947
210
0
220
0
230
1
100
AcDbArc
50
180
51
270
0
LINE
5
146
100
AcDbEntity
8
0
100
AcDbLine
10
-46.226686999999998
20
-28.939537499999965
30
0
11
-6.3098100656188816
21
-28.939537499999965
31
3.3301356842360299e-47
0
ELLIPSE
5
147
100
AcDbEntity
8
0
100
AcDbEllipse
10
-4.4301115867322087
20
-25.408021861641291
30
0
11
-2.0003046560878137
21
-3.4646292949606874
31
0.0
40
0.99984769515639127
41
6.2831853071795862
42
6.3176649348461993
0
LINE
5
148
100
AcDbEntity
8
0
100
AcDbLine
10
-6.4304162428200229
20
-28.872651156601982
30
0
11
-15.956695684448828
21
-23.372651156601989
31
0
0
ELLIPSE
5
149
100
AcDbEntity
8
0
100
AcDbEllipse
10
-13.956391028361011
20
-19.908021861641302
30
0
11
-2.0003046560868305
21
-3.4646292949612558
31
0.0
40
0.99984769515639127
41
4.7123889803844072
42
6.283185307179302
0
LINE
5
150
100
AcDbEntity
8
0
100
AcDbLine
10
-17.420492643498768
20
-17.908021861641309
30
4.9303806576299312e-32
11
-7.4789593359521289
21
-0.68878106783224702
31
0
0
ARC
5
151
100
AcDbEntity
8
0
100
AcDbCircle
10
-4.0148577208143728
20
-2.6887810678322497
30
1.3684555315672042e-47
40
4.0000000000000018
210
6.1629758220391534e-33
220
1.067458724959038e-32
230
1
100
AcDbArc
50
59.999999999999957
51
149.99999999999997
0
LINE
5
152
100
AcDbEntity
8
0
100
AcDbLine
10
-2.0148577208143696
20
0.77532054730550359
30
-4.9303806576313227e-32
11
7.5114217208144325
21
-4.7246794526944935
31
0
0
ARC
5
153
100
AcDbEntity
8
0
100
AcDbCircle
10
5.5114217208144245
20
-8.1887810678322523
30
0
40
4.0000000000000089
210
-0
220
0
230
1
100
AcDbArc
50
-29.999999999999915
51
59.999999999999929
0
LINE
5
154
100
AcDbEntity
8
0
100
AcDbLine
10
8.9755233359521895
20
-10.188781067832251
30
0
11
-0.96600997159445701
21
-27.408021861641288
31
2.4651903288156619e-31
0
ELLIPSE
5
155
100
AcDbEntity
8
0
100
AcDbEllipse
10
-4.4301115867322087
20
-25.408021861641291
30
0
11
-2.0003046560878137
21
-3.4646292949606874
31
0.0
40
0.99984769515639127
41
1.0125860186440543
42
1.5707963267948966
0
LINE
5
156
100
AcDbEntity
8
0
100
AcDbLine
10
-2.551344720702728
20
-28.939537499999965
30
0
11
25.245909988962172
21
-28.939537499999965
31
0
0
ELLIPSE
5
157
100
AcDbEntity
8
0
100
AcDbEllipse
10
27.127563338238268
20
-25.409559492354248
30
0
11
2.0003046560878261
21
-3.4646292949606829
31
0.0
40
0.99984769515639083
41
4.7123889803846879
42
5.2697817560800067
0
LINE
5
158
100
AcDbEntity
8
0
100
AcDbLine
10
23.663461723100518
20
-27.409559492354248
30
0
11
13.721040664047832
21
-10.188781067832245
31
0
0
ARC
5
159
100
AcDbEntity
8
0
100
AcDbCircle
10
17.185142279185584
20
-8.1887810678322435
30
2.7369110631344083e-47
40
4.0000000000000009
210
6.1629758220391424e-33
220
-1.0674587249590383e-32
230
1
100
AcDbArc
50
119.99999999999994
51
210.00000000000006
0
LINE
5
160
100
AcDbEntity
8
0
100
AcDbLine
10
15.185142279185587
20
-4.7246794526944864
30
4.9303806576313249e-32
11
24.711421720814396
21
0.77532054730550415
31
0
0
ARC
5
161
100
AcDbEntity
8
0
100
AcDbCircle
10
26.7114217208144
20
-2.6887810678322572
30
1.1631872018321235e-46
40
4.0000000000000027
210
1.0674587249590388e-32
220
6.1629758220391835e-33
230
1
100
AcDbArc
50
29.999999999999964
51
120.00000000000001
0
LINE
5
162
100
AcDbEntity
8
0
100
AcDbLine
10
30.175523335952157
20
-0.6887810678322579
30
-4.9303806576313227e-32
11
40.117944395004834
21
-17.909559492354262
31
0
0
ELLIPSE
5
163
100
AcDbEntity
8
0
100
AcDbEllipse
10
36.653842779867077
20
-19.909559492354258
30
0
11
2.0003046560878137
21
-3.4646292949606874
31
0.0
40
0.99984769515639127
41
0
42
1.5707963267948966
0
LINE
5
164
100
AcDbEntity
8
0
100
AcDbLine
10
38.654147435954883
20
-23.374188787314946
30
0
11
29.127867994326088
21
-28.874188787314932
31
0
0
ELLIPSE
5
165
100
AcDbEntity
8
0
100
AcDbEllipse
10
27.127563338238268
20
-25.409559492354248
30
0
11
2.0003046560878261
21
-3.4646292949606829
31
0.0
40
0.99984769515639083
41
6.2495232119685022
42
6.2831853071795845
0
LINE
5
166
100
AcDbEntity
8
0
100
AcDbLine
10
29.010147894745035
20
-28.939537499999958
30
0
11
83.773313000000002
21
-28.939537499999965
31
-3.3301356842360299e-47
0
ARC
5
167
100
AcDbEntity
8
0
100
AcDbCircle
10
83.773313000000002
20
-24.939537499999965
30
0
40
3.9999999999999991
210
0
220
-8.325339210590076e-48
230
1
100
AcDbArc
50
270
51
360
0
LINE
5
168
100
AcDbEntity
8
0
100
AcDbLine
10
87.773313000000002
20
-24.939537499999972
30
0
11
87.773313000000002
21
25.060462500000028
31
0
0
ARC
5
169
100
AcDbEntity
8
0
100
AcDbCircle
10
83.773313000000002
20
25.060462500000025
30
0
40
4.0000000000000036
210
0
220
-0
230
1
100
AcDbArc
50
0
51
90
0
LINE
5
170
100
AcDbEntity
8
0
100
AcDbLine
10
83.773313000000002
20
29.060462500000025
30
0
11
43.860198300547154
21
29.060462500000025
31
-3.3301356842360299e-47
0
ELLIPSE
5
171
100
AcDbEntity
8
0
100
AcDbEllipse
10
41.977622608783072
20
25.530479764799278
30
0
11
2.0003046560887916
21
3.4646292949601158
31
0.0
40
0.99984769515639116
41
2.7799984536613869e-13
42
0.033664606851820413
0
LINE
5
172
100
AcDbEntity
8
0
100
AcDbLine
10
43.9779272648709
20
28.995109059759955
30
1.3837822335207549e-44
11
53.504206706499701
21
23.495109059759983
31
0
0
ELLIPSE
5
173
100
AcDbEntity
8
0
100
AcDbEllipse
10
51.503902050411874
20
20.030479764799303
30
0
11
2.0003046560868238
21
3.4646292949612572
31
0.0
40
0.99984769515639138
41
4.7123889803844037
42
6.2831853071792967
0
LINE
5
174
100
AcDbEntity
8
0
100
AcDbLine
10
54.968003665549631
20
18.030479764799306
30
0
11
45.02558533595213
21
0.80970606783231869
31
0
0
ARC
5
175
100
AcDbEntity
8
0
100
AcDbCircle
10
41.56148372081438
20
2.8097060678323005
30
0
40
3.9999999999999858
210
0
220
0
230
1
100
AcDbArc
50
239.99999999999994
51
330.00000000000017
0
LINE
5
176
100
AcDbEntity
8
0
100
AcDbLine
10
39.56148372081438
20
-0.65439554730544192
30
0
11
30.035204279185571
21
4.8456044526945306
31
0
0
ARC
5
177
100
AcDbEntity
8
0
100
AcDbCircle
10
32.035204279185557
20
8.3097060678322876
30
2.7369110631344083e-47
40
3.9999999999999956
210
-6.1629758220391342e-33
220
-1.0674587249590399e-32
230
1
100
AcDbArc
50
150.00000000000003
51
240.0000000000002
0
LINE
5
178
100
AcDbEntity
8
0
100
AcDbLine
10
28.571102664047807
20
10.30970606783228
30
6.5685865515225742e-47
11
38.513520993645329
21
27.530479764799274
31
0
0
ELLIPSE
5
179
100
AcDbEntity
8
0
100
AcDbEllipse
10
41.977622608783072
20
25.530479764799278
30
0
11
2.0003046560887916
21
3.4646292949601158
31
0.0
40
0.99984769515639116
41
1.0134010394594093
42
1.570796326795179
0
LWPOLYLINE
5
180
100
AcDbEntity
8
0
100
AcDbPolyline
90
4
70
1
43
0.0
10
65.269795812797597
20
-14.918957238653041
10
65.269449060316461
20
-15.558957144717658
10
65.909448966381078
20
-15.559303897198793
10
65.909795718862213
20
-14.919303991134177
0
LWPOLYLINE
5
181
100
AcDbEntity
8
0
100
AcDbPolyline
90
4
70
1
43
0.0
10
65.911171892771719
20
-12.379304363940234
10
65.271171986707103
20
-12.378957611459098
10
65.270825234225967
20
-13.018957517523713
10
65.910825140290584
20
-13.01930427000485
0
LWPOLYLINE
5
182
100
AcDbEntity
8
0
100
AcDbPolyline
90
4
70
1
43
0.0
10
65.272201408135487
20
-10.47895789032977
10
65.912201314200104
20
-10.479304642810908
10
65.912548066681225
20
-9.8393047367462909
10
65.272548160616623
20
-9.8389579842651553
0
LWPOLYLINE
5
183
100
AcDbEntity
8
0
100
AcDbPolyline
90
4
70
1
43
0.0
10
49.310426644183337
20
-13.750310268912475
10
48.670426738118721
20
-13.74996351643134
10
48.670079985637578
20
-14.389963422495956
10
49.310079891702195
20
-14.390310174977092
0
LWPOLYLINE
5
184
100
AcDbEntity
8
0
100
AcDbPolyline
90
4
70
1
43
0.0
10
49.308703717792696
20
-16.930309802171035
10
49.309050470273831
20
-16.290309896106418
10
48.669050564209215
20
-16.289963143625286
10
48.668703811728079
20
-16.929963049689899
0
LWPOLYLINE
5
185
100
AcDbEntity
8
0
100
AcDbPolyline
90
4
70
1
43
0.0
10
49.312832239521221
20
-9.3103109205892061
10
49.313178992002349
20
-8.6703110145245912
10
48.673179085937733
20
-8.6699642620434538
10
48.672832333456604
20
-9.3099641681080705
0
LWPOLYLINE
5
186
100
AcDbEntity
8
0
100
AcDbPolyline
90
4
70
1
43
0.0
10
49.311802818092843
20
-11.210310641718532
10
48.671802912028227
20
-11.209963889237397
10
48.671456159547091
20
-11.849963795302012
10
49.311456065611708
20
-11.850310547783149
0
LWPOLYLINE
5
187
100
AcDbEntity
8
0
100
AcDbPolyline
90
4
70
1
43
0.0
10
80.119857812798017
20
10.801961761347936
10
80.119511060316896
20
10.16196185528332
10
80.759510966381512
20
10.161615102802216
10
80.759857718862605
20
10.801615008866829
0
LWPOLYLINE
5
188
100
AcDbEntity
8
0
100
AcDbPolyline
90
4
70
1
43
0.0
10
80.761233892771997
20
13.341614636060775
10
80.121233986707381
20
13.341961388541879
10
80.120887234226288
20
12.701961482477264
10
80.760887140290905
20
12.701614729996159
0
LWPOLYLINE
5
189
100
AcDbEntity
8
0
100
AcDbPolyline
90
4
70
1
43
0.0
10
80.12226340813568
20
15.241961109671207
10
80.762263314200297
20
15.241614357190102
10
80.76261006668139
20
15.881614263254718
10
80.122610160616773
20
15.881961015735824
0
LWPOLYLINE
5
190
100
AcDbEntity
8
0
100
AcDbPolyline
90
4
70
1
43
0.0
10
64.160488644183616
20
11.970608731087673
10
63.520488738118999
20
11.97095548356878
10
63.520141985637899
20
11.330955577504163
10
64.160141891702523
20
11.330608825023056
0
LWPOLYLINE
5
191
100
AcDbEntity
8
0
100
AcDbPolyline
90
4
70
1
43
0.0
10
64.158765717793131
20
8.790609197829113
10
64.159112470274223
20
9.4306091038937296
10
63.519112564209621
20
9.430955856374835
10
63.518765811728514
20
8.7909559503102201
0
LWPOLYLINE
5
192
100
AcDbEntity
8
0
100
AcDbPolyline
90
4
70
1
43
0.0
10
64.162894239521279
20
16.410608079410945
10
64.1632409920024
20
17.050607985475558
10
63.523241085937777
20
17.050954737956665
10
63.522894333456669
20
16.410954831892049
0
LWPOLYLINE
5
193
100
AcDbEntity
8
0
100
AcDbPolyline
90
4
70
1
43
0.0
10
64.161864818093008
20
14.510608358281615
10
63.521864912028391
20
14.510955110762723
10
63.521518159547284
20
13.870955204698106
10
64.161518065611901
20
13.870608452216999
0
LWPOLYLINE
5
194
100
AcDbEntity
8
0
100
AcDbPolyline
90
4
70
1
43
0.0
10
38.582871387633176
20
6.7305981707107874
10
38.262871387633169
20
6.1763419122887555
10
38.817127646055198
20
5.8563419122887392
10
39.137127646055212
20
6.410598170710772
0
LWPOLYLINE
5
195
100
AcDbEntity
8
0
100
AcDbPolyline
90
4
70
1
43
0.0
10
41.336832171667652
20
5.1405981707107093
10
40.782575913245616
20
5.4605981707107256
10
40.462575913245608
20
4.9063419122886938
10
41.01683217166763
20
4.5863419122886775
0
LWPOLYLINE
5
196
100
AcDbEntity
8
0
100
AcDbPolyline
90
4
70
1
43
0.0
10
34.737718594830334
20
8.9505981707108955
10
34.183462336408304
20
9.2705981707109117
10
33.86346233640829
20
8.716341912288879
10
34.417718594830319
20
8.3963419122888645
0
LWPOLYLINE
5
197
100
AcDbEntity
8
0
100
AcDbPolyline
90
4
70
1
43
0.0
10
36.383166862020744
20
8.0005981707108482
10
36.063166862020722
20
7.4463419122888173
10
36.617423120442758
20
7.1263419122888019
10
36.937423120442773
20
7.6805981707108337
0
LWPOLYLINE
5
198
100
AcDbEntity
8
0
100
AcDbPolyline
90
4
70
1
43
0.0
10
47.567460856023168
20
19.972363615109913
10
48.121717114445204
20
19.652363615109898
10
48.441717114445225
20
20.206619873531928
10
47.887460856023189
20
20.526619873531939
0
LWPOLYLINE
5
199
100
AcDbEntity
8
0
100
AcDbPolyline
90
4
70
1
43
0.0
10
45.68775633041075
20
21.796619873532002
10
45.367756330410735
20
21.242363615109969
10
45.922012588832757
20
20.922363615109955
10
46.242012588832779
20
21.476619873531988
0
LWPOLYLINE
5
200
100
AcDbEntity
8
0
100
AcDbPolyline
90
4
70
1
43
0.0
10
43.722308063220325
20
22.192363615110015
10
44.042308063220339
20
22.746619873532051
10
43.488051804798303
20
23.066619873532062
10
43.168051804798289
20
22.512363615110033
0
LWPOLYLINE
5
201
100
AcDbEntity
8
0
100
AcDbPolyline
90
4
70
1
43
0.0
10
29.046727774476881
20
-21.973649803998889
10
28.492471516054835
20
-22.293649803998868
10
28.812471516054817
20
-22.847906062420922
10
29.366727774476864
20
-22.527906062420939
0
LWPOLYLINE
5
202
100
AcDbEntity
8
0
100
AcDbPolyline
90
4
70
1
43
0.0
10
31.566432300089375
20
-21.257906062421004
10
31.246432300089392
20
-20.70364980399895
10
30.692176041667341
20
-21.023649803998936
10
31.012176041667328
20
-21.577906062420986
0
LWPOLYLINE
5
203
100
AcDbEntity
8
0
100
AcDbPolyline
90
4
70
1
43
0.0
10
32.891880567279856
20
-19.753649803998993
10
33.211880567279842
20
-20.307906062421051
10
33.766136825701885
20
-19.987906062421064
10
33.446136825701906
20
-19.43364980399901
0
LWPOLYLINE
5
204
100
AcDbEntity
8
0
100
AcDbPolyline
90
4
70
1
43
0.0
10
22.071317242867295
20
-7.5718843595994514
10
21.751317242867316
20
-7.0176281011774
10
21.197060984445262
20
-7.3376281011773852
10
21.517060984445244
20
-7.8918843595994348
0
LWPOLYLINE
5
205
100
AcDbEntity
8
0
100
AcDbPolyline
90
4
70
1
43
0.0
10
19.317356458832734
20
-9.1618843595993695
10
19.871612717254781
20
-8.8418843595993852
10
19.551612717254798
20
-8.2876281011773365
10
18.997356458832751
20
-8.607628101177319
0
LWPOLYLINE
5
206
100
AcDbEntity
8
0
100
AcDbPolyline
90
4
70
1
43
0.0
10
25.916470035670265
20
-5.3518843595995644
10
26.470726294092319
20
-5.031884359599581
10
26.150726294092337
20
-4.4776281011775314
10
25.596470035670286
20
-4.7976281011775139
0
LWPOLYLINE
5
207
100
AcDbEntity
8
0
100
AcDbPolyline
90
4
70
1
43
0.0
10
24.271021768479809
20
-6.3018843595995158
10
23.951021768479819
20
-5.7476281011774653
10
23.396765510057772
20
-6.0676281011774496
10
23.716765510057755
20
-6.6218843595994992
0
LWPOLYLINE
5
208
100
AcDbEntity
8
0
100
AcDbPolyline
90
4
70
1
43
0.0
10
15.474890018891074
20
7.6891217128428826
10
15.794890018891056
20
7.1348654544208321
10
16.349146277313107
20
7.4548654544208146
10
16.029146277313124
20
8.0091217128428642
0
LWPOLYLINE
5
209
100
AcDbEntity
8
0
100
AcDbPolyline
90
4
70
1
43
0.0
10
18.228850802925642
20
9.2791217128427963
10
17.674594544503591
20
8.9591217128428138
10
17.994594544503574
20
8.4048654544207615
10
18.548850802925621
20
8.724865454420744
0
LWPOLYLINE
5
210
100
AcDbEntity
8
0
100
AcDbPolyline
90
4
70
1
43
0.0
10
11.629737226088096
20
5.4691217128430045
10
11.075480967666046
20
5.149121712843022
10
11.395480967666028
20
4.5948654544209715
10
11.949737226088077
20
4.9148654544209531
0
LWPOLYLINE
5
211
100
AcDbEntity
8
0
100
AcDbPolyline
90
4
70
1
43
0.0
10
13.275185493278558
20
6.4191217128429532
10
13.595185493278541
20
5.8648654544209009
10
14.149441751700593
20
6.1848654544208834
10
13.82944175170061
20
6.7391217128429348
0
LWPOLYLINE
5
212
100
AcDbEntity
8
0
100
AcDbPolyline
90
4
70
1
43
0.0
10
8.4994794872815902
20
22.090887157241799
10
9.0537357457036407
20
22.410887157241781
10
8.7337357457036582
20
22.965143415663832
10
8.1794794872816077
20
22.645143415663853
0
LWPOLYLINE
5
213
100
AcDbEntity
8
0
100
AcDbPolyline
90
4
70
1
43
0.0
10
5.9797749616690918
20
21.375143415663921
10
6.2997749616690744
20
20.820887157241867
10
6.8540312200911258
20
21.140887157241849
10
6.5340312200911432
20
21.695143415663903
0
LWPOLYLINE
5
214
100
AcDbEntity
8
0
100
AcDbPolyline
90
4
70
1
43
0.0
10
4.6543266944786117
20
19.870887157241924
10
4.3343266944786292
20
20.425143415663971
10
3.7800704360565778
20
20.105143415663989
10
4.1000704360565603
20
19.550887157241942
0
LWPOLYLINE
5
215
100
AcDbEntity
8
0
100
AcDbPolyline
90
4
70
1
43
0.0
10
-11.757862204315614
20
13.880922000000009
10
-11.117862204315614
20
13.880922000000009
10
-11.117862204315614
20
14.520922000000009
10
-11.757862204315614
20
14.520922000000009
0
LWPOLYLINE
5
216
100
AcDbEntity
8
0
100
AcDbPolyline
90
4
70
1
43
0.0
10
-11.757862204315614
20
17.060922000000009
10
-11.757862204315614
20
16.420922000000008
10
-11.117862204315616
20
16.420922000000008
10
-11.117862204315616
20
17.060922000000009
0
LWPOLYLINE
5
217
100
AcDbEntity
8
0
100
AcDbPolyline
90
4
70
1
43
0.0
10
-11.757862204315614
20
9.4409220000000076
10
-11.757862204315614
20
8.8009220000000088
10
-11.117862204315614
20
8.8009220000000088
10
-11.117862204315614
20
9.4409220000000076
0
LWPOLYLINE
5
218
100
AcDbEntity
8
0
100
AcDbPolyline
90
4
70
1
43
0.0
10
-11.757862204315614
20
11.340922000000011
10
-11.117862204315614
20
11.340922000000011
10
-11.117862204315614
20
11.98092200000001
10
-11.757862204315614
20
11.98092200000001
0
LWPOLYLINE
5
219
100
AcDbEntity
8
0
100
AcDbPolyline
90
4
70
1
43
0.0
10
-27.717862204315669
20
15.040922000000005
10
-27.717862204315669
20
15.680922000000006
10
-28.357862204315669
20
15.680922000000006
10
-28.357862204315669
20
15.040922000000005
0
LWPOLYLINE
5
220
100
AcDbEntity
8
0
100
AcDbPolyline
90
4
70
1
43
0.0
10
-28.357862204315669
20
12.500922000000006
10
-27.717862204315669
20
12.500922000000006
10
-27.717862204315669
20
13.140922000000007
10
-28.357862204315669
20
13.140922000000007
0
LWPOLYLINE
5
221
100
AcDbEntity
8
0
100
AcDbPolyline
90
4
70
1
43
0.0
10
-27.717862204315669
20
10.600922000000006
10
-28.357862204315669
20
10.600922000000006
10
-28.357862204315669
20
9.9609220000000036
10
-27.717862204315669
20
9.9609220000000036
0
LWPOLYLINE
5
222
100
AcDbEntity
8
0
100
AcDbPolyline
90
4
70
1
43
0.0
10
-1.0349714865889679
20
-6.6074667093766317
10
-0.71497148658895548
20
-6.0532104509545981
10
-1.2692277450109897
20
-5.7332104509545854
10
-1.5892277450110019
20
-6.287466709376619
0
LWPOLYLINE
5
223
100
AcDbEntity
8
0
100
AcDbPolyline
90
4
70
1
43
0.0
10
-3.7889322706234485
20
-5.0174667093765688
10
-3.234676012201414
20
-5.3374667093765815
10
-2.9146760122014004
20
-4.7832104509545479
10
-3.4689322706234349
20
-4.4632104509545352
0
LWPOLYLINE
5
224
100
AcDbEntity
8
0
100
AcDbPolyline
90
4
70
1
43
0.0
10
2.810181306213889
20
-8.8274667093767203
10
3.3644375646359226
20
-9.147466709376733
10
3.6844375646359353
20
-8.5932104509546985
10
3.1301813062139017
20
-8.2732104509546858
0
LWPOLYLINE
5
225
100
AcDbEntity
8
0
100
AcDbPolyline
90
4
70
1
43
0.0
10
1.1647330390234769
20
-7.8774667093766819
10
1.4847330390234892
20
-7.3232104509546483
10
0.93047678060145644
20
-7.0032104509546365
10
0.61047678060144395
20
-7.5574667093766692
0
LWPOLYLINE
5
226
100
AcDbEntity
8
0
100
AcDbPolyline
90
4
70
1
43
0.0
10
-10.019560954979237
20
-19.849232153776072
10
-10.57381721340127
20
-19.529232153776061
10
-10.893817213401283
20
-20.083488412198093
10
-10.33956095497925
20
-20.403488412198104
0
LWPOLYLINE
5
227
100
AcDbEntity
8
0
100
AcDbPolyline
90
4
70
1
43
0.0
10
-8.1398564293668034
20
-21.673488412198157
10
-7.8198564293667916
20
-21.119232153776121
10
-8.3741126877888235
20
-20.79923215377611
10
-8.6941126877888379
20
-21.353488412198143
0
LWPOLYLINE
5
228
100
AcDbEntity
8
0
100
AcDbPolyline
90
4
70
1
43
0.0
10
-6.1744081621763787
20
-22.069232153776159
10
-6.4944081621763932
20
-22.623488412198192
10
-5.9401519037543586
20
-22.943488412198207
10
-5.6201519037543459
20
-22.389232153776174
0
LWPOLYLINE
5
229
100
AcDbEntity
8
0
100
AcDbPolyline
90
4
70
1
43
0.0
10
-26.608004122326605
20
-11.839997000000015
10
-25.968004122326604
20
-11.839997000000015
10
-25.968004122326604
20
-11.199997000000014
10
-26.608004122326605
20
-11.199997000000014
0
LWPOLYLINE
5
230
100
AcDbEntity
8
0
100
AcDbPolyline
90
4
70
1
43
0.0
10
-26.608004122326602
20
-8.6599970000000166
10
-26.608004122326602
20
-9.2999970000000172
10
-25.968004122326601
20
-9.2999970000000172
10
-25.968004122326601
20
-8.6599970000000166
0
LWPOLYLINE
5
231
100
AcDbEntity
8
0
100
AcDbPolyline
90
4
70
1
43
0.0
10
-26.608004122326612
20
-16.279997000000016
10
-26.608004122326612
20
-16.919997000000016
10
-25.968004122326612
20
-16.919997000000016
10
-25.968004122326612
20
-16.279997000000016
0
LWPOLYLINE
5
232
100
AcDbEntity
8
0
100
AcDbPolyline
90
4
70
1
43
0.0
10
-26.608004122326609
20
-14.379997000000015
10
-25.968004122326608
20
-14.379997000000015
10
-25.968004122326608
20
-13.739997000000017
10
-26.608004122326609
20
-13.739997000000015
0
LWPOLYLINE
5
233
100
AcDbEntity
8
0
100
AcDbPolyline
90
4
70
1
43
0.0
10
-42.568004122326556
20
-10.679996999999943
10
-42.568004122326556
20
-10.039996999999945
10
-43.208004122326557
20
-10.039996999999943
10
-43.208004122326557
20
-10.679996999999943
0
LWPOLYLINE
5
234
100
AcDbEntity
8
0
100
AcDbPolyline
90
4
70
1
43
0.0
10
-43.208004122326564
20
-13.219996999999942
10
-42.568004122326563
20
-13.219996999999942
10
-42.568004122326556
20
-12.579996999999945
10
-43.208004122326557
20
-12.579996999999942
0
LWPOLYLINE
5
235
100
AcDbEntity
8
0
100
AcDbPolyline
90
4
70
1
43
0.0
10
-42.568004122326563
20
-15.119996999999943
10
-43.208004122326564
20
-15.119996999999943
10
-43.208004122326564
20
-15.759996999999943
10
-42.568004122326563
20
-15.759996999999943
0
ENDSEC
0
SECTION
2
OBJECTS
0
DICTIONARY
5
C
100
AcDbDictionary
3
ACAD_GROUP
350
D
3
ACAD_MLINESTYLE
350
17
0
DICTIONARY
5
D
100
AcDbDictionary
0
DICTIONARY
5
1A
330
C
100
AcDbDictionary
0
DICTIONARY
5
17
100
AcDbDictionary
0
ENDSEC
0
EOF
