0
SECTION
2
HEADER
9
$INSUNITS
70
4
9
$ACADVER
1
AC1014
9
$HANDSEED
5
FFFF
0
ENDSEC
0
SECTION
2
TABLES
0
TABLE
2
VPORT
5
8
100
AcDbSymbolTable
0
ENDTAB
0
TABLE
2
LTYPE
5
5
100
AcDbSymbolTable
0
LTYPE
5
14
100
AcDbSymbolTableRecord
100
AcDbLinetypeTableRecord
2
BYBLOCK
70
0
0
LTYPE
5
15
100
AcDbSymbolTableRecord
100
AcDbLinetypeTableRecord
2
BYLAYER
70
0
0
ENDTAB
0
TABLE
2
LAYER
5
2
100
AcDbSymbolTable
70
2
0
LAYER
5
50
100
AcDbSymbolTableRecord
100
AcDbLayerTableRecord
2
0
70
0
6
CONTINUOUS
0
ENDTAB
0
TABLE
2
STYLE
5
3
100
AcDbSymbolTable
70
1
0
STYLE
5
11
100
AcDbSymbolTableRecord
100
AcDbTextStyleTableRecord
2
STANDARD
70
0
0
ENDTAB
0
TABLE
2
VIEW
5
6
100
AcDbSymbolTable
70
0
0
ENDTAB
0
TABLE
2
UCS
5
7
100
AcDbSymbolTable
70
0
0
ENDTAB
0
TABLE
2
APPID
5
9
100
AcDbSymbolTable
70
2
0
APPID
5
12
100
AcDbSymbolTableRecord
100
AcDbRegAppTableRecord
2
ACAD
70
0
0
ENDTAB
0
TABLE
2
DIMSTYLE
5
A
100
AcDbSymbolTable
70
1
0
ENDTAB
0
TABLE
2
BLOCK_RECORD
5
1
100
AcDbSymbolTable
70
1
0
BLOCK_RECORD
5
1F
100
AcDbSymbolTableRecord
100
AcDbBlockTableRecord
2
*MODEL_SPACE
0
BLOCK_RECORD
5
1B
100
AcDbSymbolTableRecord
100
AcDbBlockTableRecord
2
*PAPER_SPACE
0
ENDTAB
0
ENDSEC
0
SECTION
2
BLOCKS
0
BLOCK
5
20
100
AcDbEntity
100
AcDbBlockBegin
2
*MODEL_SPACE
0
ENDBLK
5
21
100
AcDbEntity
100
AcDbBlockEnd
0
BLOCK
5
1C
100
AcDbEntity
100
AcDbBlockBegin
2
*PAPER_SPACE
0
ENDBLK
5
1D
100
AcDbEntity
100
AcDbBlockEnd
0
ENDSEC
0
SECTION
2
ENTITIES
0
LWPOLYLINE
5
100
100
AcDbEntity
8
0
100
AcDbPolyline
90
16
70
1
43
0.0
10
-133.27438130213307
20
77.749482649047067
10
-133.0913764062816
20
77.749482649047067
10
-133.0913764062816
20
74.700000000000003
10
-136.68688436006963
20
74.700000000000003
10
-136.68688436006963
20
77.585633886497504
10
-136.92371422528919
20
77.585633886497504
10
-136.92371422528919
20
78.847512024155989
10
-137.18207407825599
20
78.847512024155989
10
-137.18207407825599
20
81.571055474181065
10
-135.41661508298284
20
81.571055474181065
10
-135.41661508298284
20
84.240773954838062
10
-132.16558693315054
20
84.240773954838062
10
-132.16558693315054
20
79.891716429896832
10
-135.1474902361424
20
79.891716429896832
10
-135.1474902361424
20
79.019751926133864
10
-133.27438130213307
20
79.019751926133864
0
LWPOLYLINE
5
101
100
AcDbEntity
8
0
100
AcDbPolyline
90
4
70
1
43
0.0
10
-129.34515853826289
20
74.885994278664981
10
-129.34515853826289
20
73.271245197622449
10
-132.44547677386458
20
73.271245197622449
10
-132.44547677386458
20
74.885994278664981
0
LWPOLYLINE
5
102
100
AcDbEntity
8
0
100
AcDbPolyline
90
4
70
1
43
0.0
10
-128.94685376493908
20
77.975547520393022
10
-126.06919999999072
20
77.975547520393022
10
-126.06919999999072
20
76.015199999999993
10
-128.94685376493908
20
76.015199999999993
0
LWPOLYLINE
5
103
100
AcDbEntity
8
0
100
AcDbPolyline
90
8
70
1
43
0.0
10
-130.51854287048715
20
81.334225608961503
10
-128.98400697671735
20
81.334225608961503
10
-128.98400697671735
20
82.121367218806341
10
-126.4865201052292
20
82.121367218806341
10
-126.4865201052292
20
81.018601337278696
10
-128.73155388746673
20
81.018601337278696
10
-128.73155388746673
20
80.569911043934695
10
-130.51854287048715
20
80.569911043934695
0
LWPOLYLINE
5
104
100
AcDbEntity
8
0
100
AcDbPolyline
90
8
70
1
43
0.0
10
-127.84790418430953
20
89.957495355098189
10
-126.71180139190172
20
89.957495355098189
10
-126.71180139190172
20
87.722387004320382
10
-128.98400697671735
20
87.722387004320382
10
-128.98400697671735
20
89.957495355098189
10
-129.1880417639253
20
89.957495355098189
10
-129.1880417639253
20
90.662342801816521
10
-127.84790418430953
20
90.662342801816521
0
LWPOLYLINE
5
105
100
AcDbEntity
8
0
100
AcDbPolyline
90
24
70
1
43
0.0
10
-136.09536403827232
20
87.624294124852042
10
-136.09536403827232
20
93.486094841710155
10
-137.09911261393057
20
93.486094841710155
10
-137.09911261393057
20
96.424711148943317
10
-134.96618234396715
20
96.424711148943317
10
-134.96618234396715
20
93.659533091782322
10
-133.38930351870684
20
93.659533091782322
10
-133.38930351870684
20
94.288597429012071
10
-132.8235706996303
20
94.288597429012071
10
-132.8235706996303
20
95.865229875618837
10
-131.52516750830708
20
95.865229875618837
10
-131.52516750830708
20
96.059990354317307
10
-130.02166217268831
20
96.059990354317307
10
-130.02166217268831
20
96.480357000000012
10
-124.5923851218723
20
96.480357000000012
10
-124.5923851218723
20
94.427343412733237
10
-130.02166217268831
20
94.427343412733237
10
-130.02166217268831
20
95.25312551399503
10
-131.34999999999999
20
95.25312551399503
10
-131.34999999999999
20
94.140208492860836
10
-131.80339676359063
20
94.140208492860836
10
-131.80339676359063
20
93.659533091782322
10
-129.80352157689657
20
93.659533091782322
10
-129.80352157689657
20
87.624294124852042
0
LWPOLYLINE
5
106
100
AcDbEntity
8
0
100
AcDbPolyline
90
4
70
1
43
0.0
10
-165.44999999999999
20
99.033402561933187
10
-163.72914336311624
20
99.033402561933187
10
-163.72914336311624
20
98.152246768125693
10
-165.44999999999999
20
98.152246768125693
0
LWPOLYLINE
5
107
100
AcDbEntity
8
0
100
AcDbPolyline
90
8
70
1
43
0.0
10
-169.13270168690639
20
101.09375213863015
10
-166.39852709141542
20
101.09375213863015
10
-166.39852709141542
20
98.333661196262511
10
-169.13270168690639
20
98.333661196262511
10
-169.13270168690639
20
97.931957819673826
10
-173.11086093247849
20
97.931957819673826
10
-173.11086093247849
20
101.33995743395872
10
-169.13270168690639
20
101.33995743395872
0
LWPOLYLINE
5
108
100
AcDbEntity
8
0
100
AcDbPolyline
90
16
70
1
43
0.0
10
-165.88002122000552
20
104.64026212025672
10
-165.88002122000552
20
102.38956948246471
10
-169.67162152625542
20
102.38956948246471
10
-169.67162152625542
20
103.84379552834761
10
-172.86922760890891
20
103.84379552834761
10
-172.86922760890891
20
107.28714817454808
10
-172.38253465538236
20
107.28714817454808
10
-172.38253465538236
20
108.22241576628606
10
-170.79511380024479
20
108.22241576628606
10
-170.79511380024479
20
107.28714817454808
10
-169.58405017260461
20
107.28714817454808
10
-169.58405017260461
20
107.25351814846405
10
-165.97086496329555
20
107.25351814846405
10
-165.97086496329555
20
107.76208593838464
10
-162.36394571478186
20
107.76208593838464
10
-162.36394571478186
20
104.64026212025672
0
LWPOLYLINE
5
109
100
AcDbEntity
8
0
100
AcDbPolyline
90
4
70
1
43
0.0
10
-92.402448609091721
20
124.54908369948755
10
-92.402448609091721
20
64.549083699487554
10
-192.40244860909172
20
64.549083699487554
10
-192.40244860909172
20
124.54908369948755
0
ENDSEC
0
SECTION
2
OBJECTS
0
DICTIONARY
5
C
100
AcDbDictionary
3
ACAD_GROUP
350
D
3
ACAD_MLINESTYLE
350
17
0
DICTIONARY
5
D
100
AcDbDictionary
0
DICTIONARY
5
1A
330
C
100
AcDbDictionary
0
DICTIONARY
5
17
100
AcDbDictionary
0
ENDSEC
0
EOF
