G04 #@! TF.GenerationSoftware,KiCad,Pcbnew,(6.0.1)*
G04 #@! TF.CreationDate,2022-05-29T23:08:32-04:00*
G04 #@! TF.ProjectId,Main-rounded,4d61696e-2d72-46f7-956e-6465642e6b69,10*
G04 #@! TF.SameCoordinates,Original*
G04 #@! TF.FileFunction,Paste,Top*
G04 #@! TF.FilePolarity,Positive*
%FSLAX46Y46*%
G04 Gerber Fmt 4.6, Leading zero omitted, Abs format (unit mm)*
G04 Created by KiCad (PCBNEW (6.0.1)) date 2022-05-29 23:08:32*
%MOMM*%
%LPD*%
G01*
G04 APERTURE LIST*
G04 Aperture macros list*
%AMRoundRect*
0 Rectangle with rounded corners*
0 $1 Rounding radius*
0 $2 $3 $4 $5 $6 $7 $8 $9 X,Y pos of 4 corners*
0 Add a 4 corners polygon primitive as box body*
4,1,4,$2,$3,$4,$5,$6,$7,$8,$9,$2,$3,0*
0 Add four circle primitives for the rounded corners*
1,1,$1+$1,$2,$3*
1,1,$1+$1,$4,$5*
1,1,$1+$1,$6,$7*
1,1,$1+$1,$8,$9*
0 Add four rect primitives between the rounded corners*
20,1,$1+$1,$2,$3,$4,$5,0*
20,1,$1+$1,$4,$5,$6,$7,0*
20,1,$1+$1,$6,$7,$8,$9,0*
20,1,$1+$1,$8,$9,$2,$3,0*%
%AMRotRect*
0 Rectangle, with rotation*
0 The origin of the aperture is its center*
0 $1 length*
0 $2 width*
0 $3 Rotation angle, in degrees counterclockwise*
0 Add horizontal line*
21,1,$1,$2,0,0,$3*%
%AMFreePoly0*
4,1,14,0.285355,0.385355,0.435355,0.235355,0.450000,0.200000,0.450000,-0.350000,0.435355,-0.385355,0.400000,-0.400000,-0.400000,-0.400000,-0.435355,-0.385355,-0.450000,-0.350000,-0.450000,0.350000,-0.435355,0.385355,-0.400000,0.400000,0.250000,0.400000,0.285355,0.385355,0.285355,0.385355,$1*%
%AMFreePoly1*
4,1,14,0.435355,0.385355,0.450000,0.350000,0.450000,-0.350000,0.435355,-0.385355,0.400000,-0.400000,-0.250000,-0.400000,-0.285355,-0.385355,-0.435355,-0.235355,-0.450000,-0.200000,-0.450000,0.350000,-0.435355,0.385355,-0.400000,0.400000,0.400000,0.400000,0.435355,0.385355,0.435355,0.385355,$1*%
G04 Aperture macros list end*
%ADD10RotRect,0.650000X0.400000X250.000000*%
%ADD11RotRect,1.060000X0.650000X220.000000*%
%ADD12R,0.800000X0.900000*%
%ADD13RoundRect,0.162500X-0.400915X-0.027008X0.289759X-0.278392X0.400915X0.027008X-0.289759X0.278392X0*%
%ADD14RoundRect,0.135000X0.127670X-0.190132X0.220016X0.063585X-0.127670X0.190132X-0.220016X-0.063585X0*%
%ADD15RoundRect,0.147500X0.147500X0.172500X-0.147500X0.172500X-0.147500X-0.172500X0.147500X-0.172500X0*%
%ADD16RoundRect,0.243750X0.106549X-0.506187X0.479995X-0.192828X-0.106549X0.506187X-0.479995X0.192828X0*%
%ADD17RoundRect,0.147500X-0.147500X-0.172500X0.147500X-0.172500X0.147500X0.172500X-0.147500X0.172500X0*%
%ADD18RoundRect,0.140000X0.140000X0.170000X-0.140000X0.170000X-0.140000X-0.170000X0.140000X-0.170000X0*%
%ADD19RoundRect,0.147500X-0.172500X0.147500X-0.172500X-0.147500X0.172500X-0.147500X0.172500X0.147500X0*%
%ADD20RoundRect,0.140000X-0.002028X0.220218X-0.216520X0.040237X0.002028X-0.220218X0.216520X-0.040237X0*%
%ADD21RoundRect,0.147500X0.226954X-0.002111X0.037331X0.223872X-0.226954X0.002111X-0.037331X-0.223872X0*%
%ADD22RoundRect,0.147500X-0.226954X0.002111X-0.037331X-0.223872X0.226954X-0.002111X0.037331X0.223872X0*%
%ADD23RoundRect,0.162500X-0.360707X0.177068X0.111742X-0.385974X0.360707X-0.177068X-0.111742X0.385974X0*%
%ADD24RoundRect,0.147500X-0.002111X-0.226954X0.223872X-0.037331X0.002111X0.226954X-0.223872X0.037331X0*%
%ADD25RoundRect,0.225000X-0.319856X-0.104006X0.069856X-0.329006X0.319856X0.104006X-0.069856X0.329006X0*%
%ADD26RotRect,0.650000X0.400000X220.000000*%
%ADD27RoundRect,0.147500X0.002111X0.226954X-0.223872X0.037331X-0.002111X-0.226954X0.223872X-0.037331X0*%
%ADD28RoundRect,0.140000X-0.220218X-0.002028X-0.040237X-0.216520X0.220218X0.002028X0.040237X0.216520X0*%
%ADD29FreePoly0,90.000000*%
%ADD30RoundRect,0.060000X0.340000X-0.390000X0.340000X0.390000X-0.340000X0.390000X-0.340000X-0.390000X0*%
%ADD31FreePoly1,90.000000*%
%ADD32R,0.375000X0.350000*%
%ADD33R,0.350000X0.375000*%
%ADD34RotRect,0.900000X0.800000X130.000000*%
%ADD35RoundRect,0.250000X0.168848X-0.706835X0.666776X-0.289023X-0.168848X0.706835X-0.666776X0.289023X0*%
%ADD36RoundRect,0.275000X0.775000X-0.275000X0.775000X0.275000X-0.775000X0.275000X-0.775000X-0.275000X0*%
%ADD37RoundRect,0.140000X-0.111865X0.189700X-0.207631X-0.073414X0.111865X-0.189700X0.207631X0.073414X0*%
G04 APERTURE END LIST*
D10*
X255425719Y-133079605D03*
X254814919Y-132857292D03*
X254204119Y-132634979D03*
X253554281Y-134420395D03*
X254775881Y-134865021D03*
D11*
X247554980Y-131219391D03*
X246944332Y-130491649D03*
X246333684Y-129763906D03*
X244648386Y-131178039D03*
X245869682Y-132633524D03*
D12*
X233990000Y-106800000D03*
X232090000Y-106800000D03*
X233040000Y-108800000D03*
D13*
X253011257Y-135261070D03*
X252686338Y-136153778D03*
X252361419Y-137046486D03*
X254428743Y-137798930D03*
X255078581Y-136013514D03*
D14*
X250961998Y-136753997D03*
X251310858Y-135795511D03*
D15*
X256735000Y-111500000D03*
X255765000Y-111500000D03*
D16*
X257098490Y-124038022D03*
X258534824Y-122832796D03*
D17*
X255785000Y-112310000D03*
X256755000Y-112310000D03*
D18*
X257720000Y-116760000D03*
X256760000Y-116760000D03*
D19*
X258710000Y-112935000D03*
X258710000Y-113905000D03*
D17*
X255045000Y-116750000D03*
X256015000Y-116750000D03*
D20*
X257750813Y-125161579D03*
X257015411Y-125778655D03*
D21*
X259384495Y-126081748D03*
X258760991Y-125338684D03*
D22*
X258140497Y-125859341D03*
X258764001Y-126602405D03*
D23*
X255951392Y-125770743D03*
X255223650Y-126381391D03*
X254495907Y-126992039D03*
X255910040Y-128677337D03*
X257365525Y-127456041D03*
D18*
X257730000Y-115990000D03*
X256770000Y-115990000D03*
D16*
X253011833Y-125122613D03*
X254448167Y-123917387D03*
D24*
X246518468Y-133541752D03*
X247261532Y-132918248D03*
D25*
X240878830Y-134912500D03*
X242221170Y-135687500D03*
D26*
X242825554Y-132417281D03*
X242407742Y-131919352D03*
X241989930Y-131421423D03*
X240534446Y-132642719D03*
X240952258Y-133140648D03*
X241370070Y-133638577D03*
D20*
X246047701Y-135181462D03*
X245312299Y-135798538D03*
D27*
X259324771Y-123762548D03*
X258581707Y-124386052D03*
D28*
X259393595Y-124801341D03*
X260010671Y-125536743D03*
D29*
X257690000Y-114600000D03*
D30*
X257690000Y-113200000D03*
D31*
X256590000Y-113200000D03*
D30*
X256590000Y-114600000D03*
D32*
X253507500Y-113890000D03*
X253507500Y-114390000D03*
X253507500Y-114890000D03*
X253507500Y-115390000D03*
D33*
X254020000Y-115402500D03*
X254520000Y-115402500D03*
D32*
X255032500Y-115390000D03*
X255032500Y-114890000D03*
X255032500Y-114390000D03*
X255032500Y-113890000D03*
D33*
X254520000Y-113877500D03*
X254020000Y-113877500D03*
D22*
X257520000Y-126380000D03*
X258143504Y-127123064D03*
D34*
X243965045Y-135516693D03*
X245420530Y-134295396D03*
X243407212Y-133373956D03*
D35*
X242510084Y-130308112D03*
X244769916Y-128411888D03*
D36*
X239417500Y-85570000D03*
X236877500Y-84300000D03*
X239417500Y-83030000D03*
X236877500Y-81760000D03*
X239417500Y-80490000D03*
X236877500Y-79220000D03*
X239417500Y-77950000D03*
X236877500Y-76680000D03*
X239417500Y-75410000D03*
X236877500Y-74140000D03*
X239417500Y-72870000D03*
D37*
X251900380Y-134215115D03*
X251572040Y-135117219D03*
G36*
X239802122Y-120769998D02*
G01*
X239848615Y-120823654D01*
X239860001Y-120875999D01*
X239860000Y-120923999D01*
X239839997Y-120992119D01*
X239786340Y-121038611D01*
X239734000Y-121049996D01*
X236986000Y-121050000D01*
X236917879Y-121029998D01*
X236871386Y-120976342D01*
X236860000Y-120924000D01*
X236860000Y-120875999D01*
X236880002Y-120807878D01*
X236933658Y-120761385D01*
X236986000Y-120749999D01*
X239734001Y-120749996D01*
X239802122Y-120769998D01*
G37*
G36*
X231996391Y-94593506D02*
G01*
X232036370Y-94629160D01*
X232064584Y-94667994D01*
X232088442Y-94734862D01*
X232072360Y-94804013D01*
X232036708Y-94843990D01*
X229813530Y-96459226D01*
X229746662Y-96483085D01*
X229677511Y-96467004D01*
X229637532Y-96431350D01*
X229609319Y-96392517D01*
X229585461Y-96325648D01*
X229601543Y-96256497D01*
X229637195Y-96216521D01*
X231860372Y-94601284D01*
X231927240Y-94577426D01*
X231996391Y-94593506D01*
G37*
G36*
X260233040Y-128198195D02*
G01*
X260273018Y-128233848D01*
X260301231Y-128272680D01*
X260325090Y-128339548D01*
X260309009Y-128408700D01*
X260273356Y-128448677D01*
X258577125Y-129681068D01*
X258510258Y-129704926D01*
X258441106Y-129688846D01*
X258401128Y-129653193D01*
X258372914Y-129614360D01*
X258349056Y-129547493D01*
X258365136Y-129478341D01*
X258400789Y-129438363D01*
X260097021Y-128205973D01*
X260163889Y-128182115D01*
X260233040Y-128198195D01*
G37*
G36*
X230673875Y-92773219D02*
G01*
X230713853Y-92808872D01*
X230742067Y-92847705D01*
X230765925Y-92914572D01*
X230749845Y-92983724D01*
X230714192Y-93023702D01*
X228491014Y-94638939D01*
X228424146Y-94662797D01*
X228354995Y-94646717D01*
X228315015Y-94611061D01*
X228286802Y-94572227D01*
X228262945Y-94505359D01*
X228279028Y-94436208D01*
X228314679Y-94396233D01*
X230537856Y-92780997D01*
X230604724Y-92757139D01*
X230673875Y-92773219D01*
G37*
G36*
X239802122Y-118519999D02*
G01*
X239848615Y-118573655D01*
X239860001Y-118626000D01*
X239860000Y-118674000D01*
X239839997Y-118742120D01*
X239786340Y-118788612D01*
X239734000Y-118799997D01*
X237186000Y-118800001D01*
X237117879Y-118779999D01*
X237071386Y-118726343D01*
X237060000Y-118674001D01*
X237060000Y-118626000D01*
X237080002Y-118557879D01*
X237133658Y-118511386D01*
X237186000Y-118500000D01*
X239734001Y-118499997D01*
X239802122Y-118519999D01*
G37*
G36*
X237355828Y-111452084D02*
G01*
X237395806Y-111487736D01*
X237424021Y-111526570D01*
X237447879Y-111593438D01*
X237431799Y-111662590D01*
X237396146Y-111702568D01*
X235485661Y-113090621D01*
X235418793Y-113114479D01*
X235349642Y-113098399D01*
X235309663Y-113062745D01*
X235281450Y-113023912D01*
X235257592Y-112957043D01*
X235273674Y-112887892D01*
X235309326Y-112847916D01*
X237219809Y-111459862D01*
X237286677Y-111436004D01*
X237355828Y-111452084D01*
G37*
G36*
X212812874Y-92919950D02*
G01*
X212852853Y-92955604D01*
X212881066Y-92994437D01*
X212904924Y-93061306D01*
X212888842Y-93130457D01*
X212853190Y-93170433D01*
X211122646Y-94427753D01*
X211055778Y-94451611D01*
X210986627Y-94435531D01*
X210946649Y-94399878D01*
X210918435Y-94361045D01*
X210894577Y-94294178D01*
X210910657Y-94225026D01*
X210946310Y-94185048D01*
X212676855Y-92927728D01*
X212743723Y-92903870D01*
X212812874Y-92919950D01*
G37*
G36*
X236238616Y-109482637D02*
G01*
X236278594Y-109518290D01*
X236306808Y-109557123D01*
X236330666Y-109623990D01*
X236314586Y-109693142D01*
X236278933Y-109733120D01*
X234055755Y-111348357D01*
X233988887Y-111372215D01*
X233919736Y-111356135D01*
X233879756Y-111320479D01*
X233851543Y-111281645D01*
X233827686Y-111214777D01*
X233843769Y-111145626D01*
X233879420Y-111105651D01*
X236102597Y-109490415D01*
X236169465Y-109466557D01*
X236238616Y-109482637D01*
G37*
G36*
X222477990Y-87650165D02*
G01*
X222523639Y-87664998D01*
X222582244Y-87705073D01*
X222609880Y-87770470D01*
X222604534Y-87823767D01*
X221755359Y-90437272D01*
X221715286Y-90495878D01*
X221649889Y-90523515D01*
X221596590Y-90518169D01*
X221550939Y-90503336D01*
X221492333Y-90463262D01*
X221464696Y-90397866D01*
X221470042Y-90344567D01*
X222319219Y-87731062D01*
X222359292Y-87672456D01*
X222424689Y-87644819D01*
X222477990Y-87650165D01*
G37*
G36*
X224617863Y-88345452D02*
G01*
X224663514Y-88360285D01*
X224722120Y-88400359D01*
X224749757Y-88465755D01*
X224744411Y-88519054D01*
X223895234Y-91132560D01*
X223855161Y-91191166D01*
X223789764Y-91218803D01*
X223736464Y-91213457D01*
X223690814Y-91198624D01*
X223632208Y-91158550D01*
X223604572Y-91093153D01*
X223609918Y-91039855D01*
X224459094Y-88426349D01*
X224499167Y-88367743D01*
X224564564Y-88340106D01*
X224617863Y-88345452D01*
G37*
G36*
X234042122Y-101719999D02*
G01*
X234088615Y-101773655D01*
X234100001Y-101826000D01*
X234100000Y-101874000D01*
X234079997Y-101942120D01*
X234026340Y-101988612D01*
X233974000Y-101999997D01*
X231226000Y-102000001D01*
X231157879Y-101979999D01*
X231111386Y-101926343D01*
X231100000Y-101874001D01*
X231100000Y-101826000D01*
X231120002Y-101757879D01*
X231173658Y-101711386D01*
X231226000Y-101700000D01*
X233974001Y-101699997D01*
X234042122Y-101719999D01*
G37*
G36*
X234042122Y-103969998D02*
G01*
X234088615Y-104023654D01*
X234100001Y-104075999D01*
X234100000Y-104123999D01*
X234079997Y-104192119D01*
X234026340Y-104238611D01*
X233974000Y-104249996D01*
X231226000Y-104250000D01*
X231157879Y-104229998D01*
X231111386Y-104176342D01*
X231100000Y-104124000D01*
X231100000Y-104075999D01*
X231120002Y-104007878D01*
X231173658Y-103961385D01*
X231226000Y-103949999D01*
X233974001Y-103949996D01*
X234042122Y-103969998D01*
G37*
G36*
X214089583Y-94773517D02*
G01*
X214129561Y-94809169D01*
X214157776Y-94848003D01*
X214181634Y-94914871D01*
X214165554Y-94984023D01*
X214129901Y-95024001D01*
X212442086Y-96250275D01*
X212375218Y-96274133D01*
X212306067Y-96258053D01*
X212266088Y-96222399D01*
X212237875Y-96183566D01*
X212214017Y-96116697D01*
X212230099Y-96047546D01*
X212265751Y-96007570D01*
X213953564Y-94781295D01*
X214020431Y-94757437D01*
X214089583Y-94773517D01*
G37*
G36*
X213088027Y-89051115D02*
G01*
X213115031Y-89097378D01*
X213748570Y-91047192D01*
X213750598Y-91118159D01*
X213713935Y-91178957D01*
X213667673Y-91205961D01*
X213622021Y-91220794D01*
X213551053Y-91222821D01*
X213490255Y-91186159D01*
X213463252Y-91139897D01*
X212829715Y-89190083D01*
X212827687Y-89119116D01*
X212864350Y-89058318D01*
X212910611Y-89031314D01*
X212956261Y-89016481D01*
X213027229Y-89014453D01*
X213088027Y-89051115D01*
G37*
G36*
X215227903Y-88355827D02*
G01*
X215254907Y-88402089D01*
X215893319Y-90366903D01*
X215895347Y-90437870D01*
X215858684Y-90498668D01*
X215812421Y-90525673D01*
X215766771Y-90540505D01*
X215695803Y-90542531D01*
X215635006Y-90505868D01*
X215608003Y-90459608D01*
X214969590Y-88494795D01*
X214967562Y-88423827D01*
X215004225Y-88363029D01*
X215050487Y-88336025D01*
X215096138Y-88321192D01*
X215167105Y-88319164D01*
X215227903Y-88355827D01*
G37*
M02*
