G04 #@! TF.GenerationSoftware,KiCad,Pcbnew,(6.0.1)*
G04 #@! TF.CreationDate,2022-05-29T23:08:33-04:00*
G04 #@! TF.ProjectId,Main-rounded,4d61696e-2d72-46f7-956e-6465642e6b69,10*
G04 #@! TF.SameCoordinates,Original*
G04 #@! TF.FileFunction,Other,Comment*
%FSLAX46Y46*%
G04 Gerber Fmt 4.6, Leading zero omitted, Abs format (unit mm)*
G04 Created by KiCad (PCBNEW (6.0.1)) date 2022-05-29 23:08:33*
%MOMM*%
%LPD*%
G01*
G04 APERTURE LIST*
G04 APERTURE END LIST*
G36*
X248532122Y-60130062D02*
G01*
X248578615Y-60183718D01*
X248590001Y-60236060D01*
X248589999Y-92073999D01*
X248569997Y-92142120D01*
X248516341Y-92188613D01*
X248463999Y-92199999D01*
X243938661Y-92199999D01*
X243911879Y-92197120D01*
X243880343Y-92190260D01*
X239316001Y-92190260D01*
X239247880Y-92170258D01*
X239201387Y-92116602D01*
X239190001Y-92064260D01*
X239190002Y-88818112D01*
X239182472Y-88792467D01*
X238602807Y-88212808D01*
X238579351Y-88200000D01*
X235249890Y-88199999D01*
X235181769Y-88179997D01*
X235135276Y-88126341D01*
X235123890Y-88073999D01*
X235123890Y-70426000D01*
X235143892Y-70357879D01*
X235197548Y-70311386D01*
X235249890Y-70300000D01*
X238571883Y-70299999D01*
X238597528Y-70292469D01*
X239177194Y-69712809D01*
X239190002Y-69689352D01*
X239189999Y-66326001D01*
X239210001Y-66257880D01*
X239263657Y-66211387D01*
X239315999Y-66200001D01*
X241071884Y-66200002D01*
X241088361Y-66195164D01*
X241088422Y-66195155D01*
X241121014Y-66185585D01*
X241122219Y-66184195D01*
X241123890Y-66176512D01*
X241123890Y-60236060D01*
X241143892Y-60167939D01*
X241197548Y-60121446D01*
X241249890Y-60110060D01*
X248464001Y-60110060D01*
X248532122Y-60130062D01*
G37*
M02*
