G04 #@! TF.GenerationSoftware,KiCad,Pcbnew,(6.0.1)*
G04 #@! TF.CreationDate,2022-05-29T23:08:33-04:00*
G04 #@! TF.ProjectId,Main-rounded,4d61696e-2d72-46f7-956e-6465642e6b69,10*
G04 #@! TF.SameCoordinates,Original*
G04 #@! TF.FileFunction,Other,ECO1*
%FSLAX46Y46*%
G04 Gerber Fmt 4.6, Leading zero omitted, Abs format (unit mm)*
G04 Created by KiCad (PCBNEW (6.0.1)) date 2022-05-29 23:08:33*
%MOMM*%
%LPD*%
G01*
G04 APERTURE LIST*
%ADD10C,0.100000*%
G04 APERTURE END LIST*
D10*
X268900000Y-126400000D02*
X267100000Y-129900000D01*
X267100000Y-129900000D02*
X265000000Y-136500000D01*
X265000000Y-136500000D02*
X258200000Y-136500000D01*
X258200000Y-136500000D02*
X256800000Y-131700000D01*
X256800000Y-131700000D02*
X256700000Y-129700000D01*
X256700000Y-129700000D02*
X261200000Y-126400000D01*
X261200000Y-126400000D02*
X262900000Y-123200000D01*
X262900000Y-123200000D02*
X268900000Y-126400000D01*
G36*
X268900000Y-126400000D02*
G01*
X267100000Y-129900000D01*
X265000000Y-136500000D01*
X258200000Y-136500000D01*
X256800000Y-131700000D01*
X256700000Y-129700000D01*
X261200000Y-126400000D01*
X262900000Y-123200000D01*
X268900000Y-126400000D01*
G37*
X268900000Y-126400000D02*
X267100000Y-129900000D01*
X265000000Y-136500000D01*
X258200000Y-136500000D01*
X256800000Y-131700000D01*
X256700000Y-129700000D01*
X261200000Y-126400000D01*
X262900000Y-123200000D01*
X268900000Y-126400000D01*
X224000000Y-86300000D02*
X230800000Y-86300000D01*
X230800000Y-86300000D02*
X232900000Y-92700000D01*
X232900000Y-92700000D02*
X238200000Y-96400000D01*
X238200000Y-96400000D02*
X243000000Y-98200000D01*
X243000000Y-98200000D02*
X240500000Y-105100000D01*
X240500000Y-105100000D02*
X235100000Y-103200000D01*
X235100000Y-103200000D02*
X229500000Y-103200000D01*
X229500000Y-103200000D02*
X227300000Y-96700000D01*
X227300000Y-96700000D02*
X222000000Y-92500000D01*
X222000000Y-92500000D02*
X215000000Y-92500000D01*
X215000000Y-92500000D02*
X209800000Y-96300000D01*
X209800000Y-96300000D02*
X206200000Y-93700000D01*
X206200000Y-93700000D02*
X206200000Y-87400000D01*
X206200000Y-87400000D02*
X206900000Y-86300000D01*
X206900000Y-86300000D02*
X213200000Y-86300000D01*
X213200000Y-86300000D02*
X218700000Y-82400000D01*
X218700000Y-82400000D02*
X224000000Y-86300000D01*
G36*
X224000000Y-86300000D02*
G01*
X230800000Y-86300000D01*
X232900000Y-92700000D01*
X238200000Y-96400000D01*
X243000000Y-98200000D01*
X240500000Y-105100000D01*
X235100000Y-103200000D01*
X229500000Y-103200000D01*
X227300000Y-96700000D01*
X222000000Y-92500000D01*
X215000000Y-92500000D01*
X209800000Y-96300000D01*
X206200000Y-93700000D01*
X206200000Y-87400000D01*
X206900000Y-86300000D01*
X213200000Y-86300000D01*
X218700000Y-82400000D01*
X224000000Y-86300000D01*
G37*
X224000000Y-86300000D02*
X230800000Y-86300000D01*
X232900000Y-92700000D01*
X238200000Y-96400000D01*
X243000000Y-98200000D01*
X240500000Y-105100000D01*
X235100000Y-103200000D01*
X229500000Y-103200000D01*
X227300000Y-96700000D01*
X222000000Y-92500000D01*
X215000000Y-92500000D01*
X209800000Y-96300000D01*
X206200000Y-93700000D01*
X206200000Y-87400000D01*
X206900000Y-86300000D01*
X213200000Y-86300000D01*
X218700000Y-82400000D01*
X224000000Y-86300000D01*
X220600000Y-96500000D02*
X218600000Y-102800000D01*
X218600000Y-102800000D02*
X206800000Y-102800000D01*
X206800000Y-102800000D02*
X206800000Y-96600000D01*
X206800000Y-96600000D02*
X209900000Y-96600000D01*
X209900000Y-96600000D02*
X214400000Y-93300000D01*
X214400000Y-93300000D02*
X216200000Y-93300000D01*
X216200000Y-93300000D02*
X220600000Y-96500000D01*
G36*
X220600000Y-96500000D02*
G01*
X218600000Y-102800000D01*
X206800000Y-102800000D01*
X206800000Y-96600000D01*
X209900000Y-96600000D01*
X214400000Y-93300000D01*
X216200000Y-93300000D01*
X220600000Y-96500000D01*
G37*
X220600000Y-96500000D02*
X218600000Y-102800000D01*
X206800000Y-102800000D01*
X206800000Y-96600000D01*
X209900000Y-96600000D01*
X214400000Y-93300000D01*
X216200000Y-93300000D01*
X220600000Y-96500000D01*
X254700000Y-95500000D02*
X257300000Y-95500000D01*
X257300000Y-95500000D02*
X257300000Y-106000000D01*
X257300000Y-106000000D02*
X254700000Y-106000000D01*
X254700000Y-106000000D02*
X254700000Y-95500000D01*
G36*
X254700000Y-95500000D02*
G01*
X257300000Y-95500000D01*
X257300000Y-106000000D01*
X254700000Y-106000000D01*
X254700000Y-95500000D01*
G37*
X243600000Y-113500000D02*
X241600000Y-119800000D01*
X241600000Y-119800000D02*
X243800000Y-126300000D01*
X243800000Y-126300000D02*
X238500000Y-130100000D01*
X238500000Y-130100000D02*
X236600000Y-133400000D01*
X236600000Y-133400000D02*
X230800000Y-130100000D01*
X230800000Y-130100000D02*
X233500000Y-125200000D01*
X233500000Y-125200000D02*
X235900000Y-117700000D01*
X235900000Y-117700000D02*
X233200000Y-113100000D01*
X233200000Y-113100000D02*
X238400000Y-109500000D01*
X238400000Y-109500000D02*
X243600000Y-113500000D01*
G36*
X243600000Y-113500000D02*
G01*
X241600000Y-119800000D01*
X243800000Y-126300000D01*
X238500000Y-130100000D01*
X236600000Y-133400000D01*
X230800000Y-130100000D01*
X233500000Y-125200000D01*
X235900000Y-117700000D01*
X233200000Y-113100000D01*
X238400000Y-109500000D01*
X243600000Y-113500000D01*
G37*
X243600000Y-113500000D02*
X241600000Y-119800000D01*
X243800000Y-126300000D01*
X238500000Y-130100000D01*
X236600000Y-133400000D01*
X230800000Y-130100000D01*
X233500000Y-125200000D01*
X235900000Y-117700000D01*
X233200000Y-113100000D01*
X238400000Y-109500000D01*
X243600000Y-113500000D01*
M02*
