G04 #@! TF.GenerationSoftware,KiCad,Pcbnew,(6.0.1)*
G04 #@! TF.CreationDate,2022-05-29T23:08:33-04:00*
G04 #@! TF.ProjectId,Main-rounded,4d61696e-2d72-46f7-956e-6465642e6b69,10*
G04 #@! TF.SameCoordinates,Original*
G04 #@! TF.FileFunction,Profile,NP*
%FSLAX46Y46*%
G04 Gerber Fmt 4.6, Leading zero omitted, Abs format (unit mm)*
G04 Created by KiCad (PCBNEW (6.0.1)) date 2022-05-29 23:08:33*
%MOMM*%
%LPD*%
G01*
G04 APERTURE LIST*
G04 #@! TA.AperFunction,Profile*
%ADD10C,0.050000*%
G04 #@! TD*
G04 #@! TA.AperFunction,Profile*
%ADD11C,0.250000*%
G04 #@! TD*
G04 APERTURE END LIST*
D10*
X263823981Y-113250446D02*
X263048929Y-113250446D01*
X259161188Y-121307091D02*
G75*
G03*
X259261086Y-121407127I99999J-37D01*
G01*
X213526656Y-87933181D02*
X213370036Y-87450460D01*
X213171890Y-102822060D02*
X212872836Y-101903165D01*
X207779999Y-89930000D02*
G75*
G03*
X207773241Y-89768751I-186211J72961D01*
G01*
X260819092Y-127004731D02*
X260861739Y-126973747D01*
X261227890Y-125903060D02*
X261144682Y-126157307D01*
X214476267Y-93528509D02*
X215188360Y-94045785D01*
X261690375Y-111154971D02*
X263871109Y-111154851D01*
X237596767Y-110305187D02*
X237491109Y-110381869D01*
X233483890Y-125069060D02*
X235070966Y-120188902D01*
X243150847Y-126890151D02*
G75*
G03*
X243290522Y-126912308I80916J58760D01*
G01*
D11*
X257700000Y-100750000D02*
X257700000Y-104300000D01*
D10*
X257039428Y-129627056D02*
X256862859Y-129384387D01*
X263871109Y-111154851D02*
G75*
G03*
X265184143Y-110782192I-136J2499993D01*
G01*
X259525302Y-105865390D02*
G75*
G03*
X259255705Y-106548256I730395J-683013D01*
G01*
X257144671Y-135653256D02*
G75*
G03*
X257020890Y-135896046I176223J-242792D01*
G01*
X244250284Y-126658984D02*
X248891785Y-130034616D01*
X236049847Y-120033038D02*
G75*
G03*
X236149869Y-119933060I21J100001D01*
G01*
X252555111Y-108933437D02*
X250200410Y-106734302D01*
X234337923Y-125861218D02*
G75*
G03*
X234265399Y-125637588I-190178J61900D01*
G01*
X243893890Y-92190260D02*
X243893890Y-105390238D01*
X243290522Y-126912308D02*
X243639432Y-126658938D01*
X267082057Y-107840608D02*
G75*
G03*
X267226368Y-108269618I995396J96056D01*
G01*
X213937992Y-87904854D02*
G75*
G03*
X214002250Y-87778874I-30862J95120D01*
G01*
X267523262Y-108750849D02*
X267226368Y-108269618D01*
X235286010Y-120032868D02*
X236049847Y-120033038D01*
X267360364Y-109438847D02*
G75*
G03*
X267523262Y-108750849I-262636J425468D01*
G01*
X249922890Y-138334060D02*
X250072841Y-135662644D01*
X241723035Y-119347784D02*
X241466851Y-119534242D01*
X243367984Y-126238131D02*
X242996727Y-126507729D01*
X224505890Y-86374160D02*
X228951890Y-86375960D01*
D11*
X254750000Y-100770000D02*
X254750000Y-104320000D01*
D10*
X238669005Y-110653580D02*
G75*
G03*
X238848322Y-110625204I61804J190208D01*
G01*
D11*
X257300000Y-104300000D02*
G75*
G03*
X257700000Y-104300000I200000J0D01*
G01*
D10*
X241123890Y-66190060D02*
X241123890Y-60110060D01*
X234265399Y-125637588D02*
X233483890Y-125069060D01*
X260528463Y-126603989D02*
G75*
G03*
X260506189Y-126743647I58692J-80966D01*
G01*
X238708711Y-130581176D02*
X238855870Y-130132637D01*
X223697152Y-86094638D02*
X223803339Y-86421524D01*
X213526656Y-87933181D02*
G75*
G03*
X213652636Y-87997439I95120J30862D01*
G01*
X248982007Y-130341953D02*
G75*
G03*
X249046288Y-130468046I95090J-30955D01*
G01*
X261564789Y-127941436D02*
G75*
G03*
X261983843Y-128007801I242708J176332D01*
G01*
X256723308Y-129362256D02*
X256141324Y-129784123D01*
X221640944Y-92438968D02*
X215825808Y-92436638D01*
X265184143Y-110782192D02*
X267360364Y-109438847D01*
X257020890Y-137173060D02*
X252669890Y-140331060D01*
X239320890Y-110282060D02*
X242319890Y-112463060D01*
X255069469Y-131685100D02*
X255070000Y-130330000D01*
X228474526Y-96185949D02*
G75*
G03*
X228496695Y-96046276I-58751J80921D01*
G01*
X211004570Y-95554278D02*
G75*
G03*
X210864899Y-95532094I-80927J-58743D01*
G01*
X250773013Y-126125969D02*
X252311171Y-121400080D01*
X248613172Y-103079486D02*
G75*
G03*
X250200410Y-106734302I4999992J-636D01*
G01*
X230321510Y-102845974D02*
G75*
G03*
X230221533Y-102745951I-99999J24D01*
G01*
X274308890Y-107386060D02*
G75*
G03*
X274308890Y-107386060I-2500000J0D01*
G01*
X215825808Y-92436638D02*
X215416949Y-92139155D01*
X248618616Y-60110060D02*
X248613172Y-103079486D01*
X252336041Y-118335253D02*
X249365890Y-112702060D01*
X232669535Y-92274228D02*
X232563957Y-92598986D01*
X212872836Y-101903165D02*
G75*
G03*
X212682655Y-101765060I-190180J-61893D01*
G01*
X248986794Y-130327245D02*
X248982006Y-130341953D01*
X233979479Y-112436214D02*
G75*
G03*
X233839810Y-112414020I-80932J-58736D01*
G01*
X219364847Y-96907578D02*
G75*
G03*
X219437566Y-97131273I190199J-61837D01*
G01*
X230221533Y-102745951D02*
X230008026Y-102745903D01*
X229519790Y-87858990D02*
X231439890Y-88483760D01*
X211004570Y-95554278D02*
X211180801Y-95797059D01*
X242974570Y-126647403D02*
X243150847Y-126890151D01*
X212313991Y-87368040D02*
G75*
G03*
X212475777Y-87450460I161785J117577D01*
G01*
X238855870Y-130132637D02*
X238995325Y-130031369D01*
X221907551Y-92245253D02*
X221640944Y-92438968D01*
D11*
X257300000Y-104300000D02*
X257300000Y-100750000D01*
D10*
X256847850Y-131830902D02*
X257655174Y-131244290D01*
X237012857Y-96913203D02*
G75*
G03*
X237085380Y-97136833I190179J-61900D01*
G01*
X220221890Y-97700560D02*
X218899890Y-101763060D01*
D11*
X254350000Y-104320000D02*
X254350000Y-100770000D01*
D10*
X252836303Y-118336741D02*
X252336041Y-118335253D01*
X240649840Y-119934060D02*
G75*
G03*
X240749818Y-120034082I100001J-21D01*
G01*
X222484604Y-92698842D02*
X222385255Y-92393080D01*
X206480000Y-87190000D02*
X206995890Y-86367060D01*
X263241890Y-136413060D02*
X259758341Y-136411153D01*
X237596767Y-110305187D02*
X238669005Y-110653580D01*
X210392890Y-97702460D02*
X211176368Y-97133069D01*
X231439890Y-88483760D02*
X232669535Y-92274228D01*
D11*
X254750000Y-100770000D02*
G75*
G03*
X254350000Y-100770000I-200000J0D01*
G01*
D10*
X237351440Y-110359675D02*
G75*
G03*
X237491109Y-110381869I80932J58736D01*
G01*
X211158617Y-95936730D02*
G75*
G03*
X211180801Y-95797059I-58743J80927D01*
G01*
X222253313Y-91506155D02*
G75*
G03*
X222127271Y-91570291I-30954J-95088D01*
G01*
X250122890Y-130328060D02*
X255070000Y-130330000D01*
X228496695Y-96046276D02*
X228320440Y-95803512D01*
X235003903Y-102731665D02*
G75*
G03*
X234998990Y-102762599I95093J-30960D01*
G01*
X257482806Y-135407836D02*
X257958396Y-135253520D01*
X233979478Y-112436215D02*
X234155689Y-112679011D01*
X247513556Y-134852512D02*
X245374890Y-136405060D01*
X263925007Y-134982213D02*
G75*
G03*
X263639483Y-135189500I-209J-300001D01*
G01*
X214476267Y-93528509D02*
X214343981Y-93624533D01*
X222602714Y-91725061D02*
G75*
G03*
X222538579Y-91599018I-95089J30954D01*
G01*
X268286751Y-110933192D02*
X265137350Y-112877666D01*
X237465123Y-109782925D02*
X237903300Y-108405093D01*
X257017345Y-129766793D02*
G75*
G03*
X257039428Y-129627056I-58776J80902D01*
G01*
X249331698Y-130560464D02*
G75*
G03*
X249457592Y-130496284I30807J95135D01*
G01*
X216208890Y-93475360D02*
X219663890Y-95987760D01*
X223582100Y-87101156D02*
G75*
G03*
X223646234Y-87227199I95090J-30954D01*
G01*
X268977946Y-111100433D02*
G75*
G03*
X269291469Y-111411540I843720J536740D01*
G01*
X223931500Y-87320061D02*
G75*
G03*
X224057543Y-87255927I30954J95090D01*
G01*
X233595070Y-112591641D02*
X233839810Y-112414020D01*
X243893890Y-105390238D02*
G75*
G03*
X245466403Y-109030613I5000002J1D01*
G01*
X240749929Y-119534082D02*
G75*
G03*
X240649907Y-119634060I-21J-100001D01*
G01*
X262840890Y-127385060D02*
X265838890Y-129565060D01*
X249457592Y-130496284D02*
X249512359Y-130328060D01*
X259255705Y-106548256D02*
X259255370Y-108764506D01*
X247686697Y-134320683D02*
X247513556Y-134852512D01*
X215416949Y-92139155D02*
X215224971Y-91547453D01*
X211587853Y-86368891D02*
X212313991Y-87368040D01*
X207773241Y-89768751D02*
X206480000Y-87190000D01*
X236513890Y-104122060D02*
X237903300Y-108405093D01*
X255803473Y-129784123D02*
X250773013Y-126125969D01*
X243639432Y-126658938D02*
X244250284Y-126658984D01*
X229609532Y-103449327D02*
X229889212Y-103245876D01*
X219663890Y-95987760D02*
X219364847Y-96907578D01*
X217933115Y-101763928D02*
G75*
G03*
X217743062Y-101902193I183J-200004D01*
G01*
X211710890Y-101765060D02*
X210392890Y-97702460D01*
X214560399Y-86773356D02*
G75*
G03*
X214642890Y-86611518I-117509J161838D01*
G01*
X222127271Y-91570291D02*
X221907551Y-92245253D01*
X234998990Y-102762599D02*
X234998903Y-103147033D01*
X261983843Y-128007801D02*
X262840890Y-127385060D01*
X222385255Y-92393080D02*
X222602714Y-91725061D01*
X241454858Y-120034239D02*
X241766912Y-120261375D01*
X252850954Y-108733008D02*
X252851781Y-106544188D01*
X214642890Y-85381745D02*
X218682890Y-82448560D01*
X238098235Y-129732516D02*
X234037890Y-126783060D01*
X236513890Y-104122060D02*
X235349455Y-103247112D01*
X261144682Y-126157307D02*
X260528463Y-126603989D01*
X209912085Y-96223725D02*
X210864899Y-95532094D01*
X214050260Y-93219896D02*
X214754189Y-92708896D01*
X234345075Y-113697826D02*
X234074046Y-112861824D01*
X263639483Y-135189500D02*
X263241890Y-136413060D01*
X252311171Y-121400080D02*
X252834870Y-121400611D01*
X252834870Y-121400611D02*
G75*
G03*
X252934971Y-121300647I100J100001D01*
G01*
X234133494Y-112818680D02*
X234074046Y-112861824D01*
X259007419Y-135377226D02*
G75*
G03*
X258764684Y-135253520I-242732J-176288D01*
G01*
X215224971Y-91547453D02*
G75*
G03*
X215098991Y-91483196I-95118J-30861D01*
G01*
D11*
X257700000Y-100750000D02*
G75*
G03*
X257300000Y-100750000I-200000J0D01*
G01*
D10*
X232563957Y-92598986D02*
X231984292Y-93019844D01*
X215098991Y-91483196D02*
X214810000Y-91580000D01*
X260679351Y-126982520D02*
G75*
G03*
X260819092Y-127004731I80964J58691D01*
G01*
X236396890Y-92190260D02*
X235123890Y-90917260D01*
X257020890Y-135896046D02*
X257020890Y-137173060D01*
X224294608Y-86527679D02*
X224505890Y-86374160D01*
X232897192Y-92974930D02*
X233158890Y-92975060D01*
X252936005Y-118436777D02*
G75*
G03*
X252836303Y-118336741I-99999J37D01*
G01*
X235003903Y-102731665D02*
X235263740Y-101933538D01*
X240749818Y-120034082D02*
X241454858Y-120034239D01*
X250072841Y-135662644D02*
G75*
G03*
X249995268Y-135444000I-299529J16813D01*
G01*
X256862859Y-129384387D02*
G75*
G03*
X256723308Y-129362256I-80861J-58835D01*
G01*
X257482806Y-135407836D02*
X257144671Y-135653256D01*
X214810000Y-91580000D02*
G75*
G03*
X214750636Y-91706535I34503J-93380D01*
G01*
X252851781Y-106544188D02*
G75*
G03*
X252582930Y-105861593I-999994J379D01*
G01*
X232138378Y-93402280D02*
G75*
G03*
X232278051Y-93424449I80921J58751D01*
G01*
X237311890Y-95994460D02*
X237012857Y-96913203D01*
X236049958Y-119533038D02*
X235983936Y-119533023D01*
X214050260Y-93219896D02*
G75*
G03*
X214028078Y-93359565I58745J-80926D01*
G01*
X235123890Y-67462860D02*
X236396890Y-66190060D01*
D11*
X254350000Y-104320000D02*
G75*
G03*
X254750000Y-104320000I200000J0D01*
G01*
D10*
X212475777Y-87450460D02*
X213370036Y-87450460D01*
X257958396Y-135253520D02*
X258764684Y-135253520D01*
X243385115Y-114239646D02*
X241723035Y-119347784D01*
X266288908Y-131670813D02*
X265211356Y-134983114D01*
X214028078Y-93359565D02*
X214204311Y-93602349D01*
X234133494Y-112818680D02*
G75*
G03*
X234155689Y-112679011I-58737J80932D01*
G01*
X265594733Y-130714792D02*
X266288908Y-131670813D01*
X265838890Y-129565060D02*
X265552223Y-130445661D01*
X256372260Y-131985218D02*
X256847850Y-131830902D01*
X236671890Y-101389060D02*
X235392064Y-101805255D01*
X256372260Y-131985218D02*
X255369469Y-131985218D01*
X268977946Y-111100433D02*
X268971521Y-111090615D01*
X237869890Y-97707560D02*
X236671890Y-101389060D01*
X229391438Y-87730534D02*
G75*
G03*
X229519790Y-87858990I190235J61729D01*
G01*
X213652636Y-87997439D02*
X213937992Y-87904854D01*
X228180767Y-95781343D02*
X227607906Y-96197261D01*
X249302185Y-134740464D02*
X247812696Y-134256500D01*
X259769078Y-121407642D02*
X261227890Y-125903060D01*
X259255370Y-108764506D02*
G75*
G03*
X259303105Y-108894210I199988J-34D01*
G01*
X211158617Y-95936730D02*
X210976046Y-96069255D01*
X234272265Y-113921392D02*
G75*
G03*
X234345075Y-113697826I-117444J161888D01*
G01*
X218899890Y-101763060D02*
X217933115Y-101763929D01*
X248618616Y-60110060D02*
X241123890Y-60110060D01*
X249365890Y-112702060D02*
X245466403Y-109030613D01*
X235984884Y-117995050D02*
X233839890Y-114235060D01*
X214002250Y-87778874D02*
X213844630Y-87293070D01*
X217443890Y-102824060D02*
X213171890Y-102822060D01*
X230321442Y-103145974D02*
X230321510Y-102845974D01*
X237197425Y-109977209D02*
X237465123Y-109782925D01*
X249046288Y-130468046D02*
X249331698Y-130560464D01*
X227691890Y-109342060D02*
X229609532Y-103449327D01*
X265211356Y-134983114D02*
X263925007Y-134982213D01*
X235392064Y-101805255D02*
G75*
G03*
X235263740Y-101933538I61853J-190197D01*
G01*
X223646234Y-87227199D02*
X223931500Y-87320061D01*
X212682655Y-101765060D02*
X211710890Y-101765060D01*
X219437566Y-97131273D02*
X220221890Y-97700560D01*
X252934971Y-121300647D02*
X252936005Y-118436777D01*
X242319890Y-112463060D02*
X241960823Y-113565849D01*
X235098881Y-103247056D02*
X235349455Y-103247112D01*
X215423429Y-94045798D02*
X216208890Y-93475360D01*
X234998903Y-103147033D02*
G75*
G03*
X235098881Y-103247056I100002J-21D01*
G01*
X217743062Y-101902193D02*
X217443890Y-102824060D01*
X213844630Y-87293070D02*
X214560399Y-86773356D01*
X247812685Y-134256534D02*
G75*
G03*
X247686697Y-134320683I-30900J-95106D01*
G01*
X234037890Y-126783060D02*
X234337923Y-125861218D01*
X236396890Y-66190060D02*
X241123890Y-66190060D01*
X263048929Y-113250446D02*
G75*
G03*
X262163620Y-113785442I-2J-999998D01*
G01*
X242996727Y-126507729D02*
G75*
G03*
X242974570Y-126647403I58758J-80915D01*
G01*
X243516351Y-125650111D02*
X243367984Y-126238131D01*
X263823981Y-113250446D02*
G75*
G03*
X265137350Y-112877666I0J2500005D01*
G01*
X214204311Y-93602349D02*
G75*
G03*
X214343981Y-93624533I80927J58745D01*
G01*
X238841205Y-129648946D02*
G75*
G03*
X238701530Y-129626789I-80916J-58760D01*
G01*
X249431443Y-134823953D02*
G75*
G03*
X249302185Y-134740464I-221954J-201827D01*
G01*
X259762253Y-118357344D02*
X259262514Y-118355857D01*
X255069469Y-131685100D02*
G75*
G03*
X255369469Y-131985218I299998J-120D01*
G01*
X256974924Y-129797613D02*
X257017345Y-129766793D01*
X259303105Y-108894210D02*
X260928996Y-110803344D01*
X230221420Y-103245951D02*
G75*
G03*
X230321442Y-103145974I23J99999D01*
G01*
X209650890Y-96223660D02*
X206270000Y-93760000D01*
X237175230Y-110116878D02*
X237351441Y-110359674D01*
X238701530Y-129626789D02*
X238555962Y-129732497D01*
X240596890Y-136403060D02*
X238708711Y-130581176D01*
X259261086Y-121407127D02*
X259769078Y-121407642D01*
X238555962Y-129732497D02*
X238098235Y-129732516D01*
X241466851Y-119534242D02*
X240749929Y-119534082D01*
X231984292Y-93019844D02*
G75*
G03*
X231962123Y-93159517I58751J-80921D01*
G01*
X241960823Y-113565849D02*
G75*
G03*
X242089114Y-113817955I190172J-61921D01*
G01*
X228951890Y-86375960D02*
X229391438Y-87730534D01*
X227607906Y-96197261D02*
X227295781Y-96197109D01*
X233839890Y-114235060D02*
X234272265Y-113921392D01*
X214750636Y-91706535D02*
X214915229Y-92212937D01*
X211176368Y-97133069D02*
G75*
G03*
X211249004Y-96909488I-117580J161788D01*
G01*
X214642890Y-86611518D02*
X214642890Y-85381745D01*
X209912085Y-96223725D02*
X209650890Y-96223660D01*
X252652000Y-108932930D02*
G75*
G03*
X252850954Y-108733008I-1047J199998D01*
G01*
X260928996Y-110803344D02*
G75*
G03*
X261690375Y-111154971I761322J648372D01*
G01*
X261564789Y-127941436D02*
X260861739Y-126973747D01*
X230008026Y-102745903D02*
X229588712Y-102441390D01*
X259525302Y-105865390D02*
G75*
G03*
X252582930Y-105861593I-3469413J3244330D01*
G01*
X218682890Y-82448560D02*
X223697152Y-86094638D01*
X227295781Y-96197109D02*
X222484604Y-92698842D01*
X265552223Y-130445661D02*
G75*
G03*
X265594733Y-130714792I285266J-92864D01*
G01*
X238995325Y-130031369D02*
G75*
G03*
X239017482Y-129891694I-58760J80916D01*
G01*
X222538579Y-91599018D02*
X222253313Y-91506156D01*
X260506189Y-126743647D02*
X260679350Y-126982520D01*
X206270000Y-93760000D02*
X207780000Y-89930000D01*
X233158890Y-92975060D02*
X237311890Y-95994460D01*
X259262514Y-118355857D02*
G75*
G03*
X259162217Y-118455821I-298J-99999D01*
G01*
X223803339Y-86421524D02*
X223582100Y-87101156D01*
X233595070Y-112591641D02*
X232119890Y-112562060D01*
X256141324Y-129784123D02*
X255803473Y-129784123D01*
X235983936Y-119533023D02*
X235984884Y-117995050D01*
X269291469Y-111411540D02*
G75*
G03*
X267082057Y-107840608I2518388J4027152D01*
G01*
X249995268Y-135444000D02*
X249431443Y-134823953D01*
X236149936Y-119633060D02*
G75*
G03*
X236049958Y-119533038I-100001J21D01*
G01*
X237197425Y-109977209D02*
G75*
G03*
X237175230Y-110116878I58737J-80932D01*
G01*
X239017482Y-129891694D02*
X238841205Y-129648946D01*
X232278051Y-93424449D02*
X232897192Y-92974930D01*
X215188360Y-94045785D02*
G75*
G03*
X215423429Y-94045798I117543J161817D01*
G01*
X235123890Y-90917260D02*
X235123890Y-67462860D01*
X262163620Y-113785442D02*
X259762253Y-118357344D01*
X232119890Y-112562060D02*
X227691890Y-109342060D01*
X248891785Y-130034616D02*
X248986794Y-130327245D01*
X259758341Y-136411153D02*
X259007419Y-135377226D01*
X238848322Y-110625204D02*
X239320890Y-110282060D01*
X245374890Y-136405060D02*
X240596890Y-136403060D01*
X252669890Y-140331060D02*
X249922890Y-138334060D01*
X224057543Y-87255927D02*
X224294608Y-86527679D01*
X214915229Y-92212937D02*
X214754189Y-92708896D01*
X259162217Y-118455821D02*
X259161188Y-121307091D01*
X236149869Y-119933060D02*
X236149936Y-119633060D01*
X227796927Y-96920136D02*
X227899941Y-96603118D01*
X240649907Y-119634060D02*
X240649840Y-119934060D01*
X229889212Y-103245876D02*
X230221420Y-103245951D01*
X211249004Y-96909488D02*
X210976046Y-96069255D01*
X268971521Y-111090615D02*
G75*
G03*
X268286751Y-110933192I-422096J-268022D01*
G01*
X241766912Y-120261375D02*
X243516351Y-125650111D01*
X257721535Y-130825261D02*
X256974924Y-129797613D01*
X257655174Y-131244290D02*
G75*
G03*
X257721535Y-130825261I-176345J242697D01*
G01*
X237085380Y-97136833D02*
X237869890Y-97707560D01*
X242089114Y-113817955D02*
X243385115Y-114239646D01*
X243893890Y-92190260D02*
X236396890Y-92190260D01*
X228320441Y-95803512D02*
G75*
G03*
X228180767Y-95781343I-80922J-58754D01*
G01*
X227899941Y-96603118D02*
X228474526Y-96185949D01*
X252555111Y-108933437D02*
X252652000Y-108932930D01*
X229588712Y-102441390D02*
X227796927Y-96920136D01*
X249512359Y-130328060D02*
X250122890Y-130328060D01*
X231962123Y-93159517D02*
X232138378Y-93402280D01*
X206995890Y-86367060D02*
X211587853Y-86368891D01*
X235070966Y-120188902D02*
X235286010Y-120032868D01*
M02*
