G04 #@! TF.GenerationSoftware,KiCad,Pcbnew,(6.0.1)*
G04 #@! TF.CreationDate,2022-05-29T23:08:32-04:00*
G04 #@! TF.ProjectId,Main-rounded,4d61696e-2d72-46f7-956e-6465642e6b69,10*
G04 #@! TF.SameCoordinates,Original*
G04 #@! TF.FileFunction,Legend,Top*
G04 #@! TF.FilePolarity,Positive*
%FSLAX46Y46*%
G04 Gerber Fmt 4.6, Leading zero omitted, Abs format (unit mm)*
G04 Created by KiCad (PCBNEW (6.0.1)) date 2022-05-29 23:08:32*
%MOMM*%
%LPD*%
G01*
G04 APERTURE LIST*
G04 Aperture macros list*
%AMRoundRect*
0 Rectangle with rounded corners*
0 $1 Rounding radius*
0 $2 $3 $4 $5 $6 $7 $8 $9 X,Y pos of 4 corners*
0 Add a 4 corners polygon primitive as box body*
4,1,4,$2,$3,$4,$5,$6,$7,$8,$9,$2,$3,0*
0 Add four circle primitives for the rounded corners*
1,1,$1+$1,$2,$3*
1,1,$1+$1,$4,$5*
1,1,$1+$1,$6,$7*
1,1,$1+$1,$8,$9*
0 Add four rect primitives between the rounded corners*
20,1,$1+$1,$2,$3,$4,$5,0*
20,1,$1+$1,$4,$5,$6,$7,0*
20,1,$1+$1,$6,$7,$8,$9,0*
20,1,$1+$1,$8,$9,$2,$3,0*%
%AMRotRect*
0 Rectangle, with rotation*
0 The origin of the aperture is its center*
0 $1 length*
0 $2 width*
0 $3 Rotation angle, in degrees counterclockwise*
0 Add horizontal line*
21,1,$1,$2,0,0,$3*%
%AMFreePoly0*
4,1,14,0.285355,0.385355,0.435355,0.235355,0.450000,0.200000,0.450000,-0.350000,0.435355,-0.385355,0.400000,-0.400000,-0.400000,-0.400000,-0.435355,-0.385355,-0.450000,-0.350000,-0.450000,0.350000,-0.435355,0.385355,-0.400000,0.400000,0.250000,0.400000,0.285355,0.385355,0.285355,0.385355,$1*%
%AMFreePoly1*
4,1,14,0.435355,0.385355,0.450000,0.350000,0.450000,-0.350000,0.435355,-0.385355,0.400000,-0.400000,-0.250000,-0.400000,-0.285355,-0.385355,-0.435355,-0.235355,-0.450000,-0.200000,-0.450000,0.350000,-0.435355,0.385355,-0.400000,0.400000,0.400000,0.400000,0.435355,0.385355,0.435355,0.385355,$1*%
G04 Aperture macros list end*
%ADD10C,0.181301*%
%ADD11C,0.150000*%
%ADD12C,0.120000*%
%ADD13O,2.000000X4.500000*%
%ADD14RotRect,0.650000X0.400000X250.000000*%
%ADD15C,1.500000*%
%ADD16RotRect,1.060000X0.650000X220.000000*%
%ADD17R,0.800000X0.900000*%
%ADD18RoundRect,0.162500X-0.400915X-0.027008X0.289759X-0.278392X0.400915X0.027008X-0.289759X0.278392X0*%
%ADD19RoundRect,0.135000X0.127670X-0.190132X0.220016X0.063585X-0.127670X0.190132X-0.220016X-0.063585X0*%
%ADD20RoundRect,0.147500X0.147500X0.172500X-0.147500X0.172500X-0.147500X-0.172500X0.147500X-0.172500X0*%
%ADD21RoundRect,0.243750X0.106549X-0.506187X0.479995X-0.192828X-0.106549X0.506187X-0.479995X0.192828X0*%
%ADD22RoundRect,0.147500X-0.147500X-0.172500X0.147500X-0.172500X0.147500X0.172500X-0.147500X0.172500X0*%
%ADD23RoundRect,0.140000X0.140000X0.170000X-0.140000X0.170000X-0.140000X-0.170000X0.140000X-0.170000X0*%
%ADD24RoundRect,0.147500X-0.172500X0.147500X-0.172500X-0.147500X0.172500X-0.147500X0.172500X0.147500X0*%
%ADD25RoundRect,0.140000X-0.002028X0.220218X-0.216520X0.040237X0.002028X-0.220218X0.216520X-0.040237X0*%
%ADD26RoundRect,0.147500X0.226954X-0.002111X0.037331X0.223872X-0.226954X0.002111X-0.037331X-0.223872X0*%
%ADD27RoundRect,0.147500X-0.226954X0.002111X-0.037331X-0.223872X0.226954X-0.002111X0.037331X0.223872X0*%
%ADD28RoundRect,0.162500X-0.360707X0.177068X0.111742X-0.385974X0.360707X-0.177068X-0.111742X0.385974X0*%
%ADD29RoundRect,0.147500X-0.002111X-0.226954X0.223872X-0.037331X0.002111X0.226954X-0.223872X0.037331X0*%
%ADD30RoundRect,0.225000X-0.319856X-0.104006X0.069856X-0.329006X0.319856X0.104006X-0.069856X0.329006X0*%
%ADD31RotRect,0.650000X0.400000X220.000000*%
%ADD32RoundRect,0.147500X0.002111X0.226954X-0.223872X0.037331X-0.002111X-0.226954X0.223872X-0.037331X0*%
%ADD33RoundRect,0.140000X-0.220218X-0.002028X-0.040237X-0.216520X0.220218X0.002028X0.040237X0.216520X0*%
%ADD34FreePoly0,90.000000*%
%ADD35RoundRect,0.060000X0.340000X-0.390000X0.340000X0.390000X-0.340000X0.390000X-0.340000X-0.390000X0*%
%ADD36FreePoly1,90.000000*%
%ADD37R,0.375000X0.350000*%
%ADD38R,0.350000X0.375000*%
%ADD39RotRect,0.900000X0.800000X130.000000*%
%ADD40RoundRect,0.250000X0.168848X-0.706835X0.666776X-0.289023X-0.168848X0.706835X-0.666776X0.289023X0*%
%ADD41C,2.000000*%
%ADD42RoundRect,0.275000X0.775000X-0.275000X0.775000X0.275000X-0.775000X0.275000X-0.775000X-0.275000X0*%
%ADD43RoundRect,0.140000X-0.111865X0.189700X-0.207631X-0.073414X0.111865X-0.189700X0.207631X0.073414X0*%
%ADD44R,0.300000X2.000000*%
G04 APERTURE END LIST*
D10*
X258640650Y-115410000D02*
G75*
G03*
X258640650Y-115410000I-90650J0D01*
G01*
X243450650Y-131980000D02*
G75*
G03*
X243450650Y-131980000I-90650J0D01*
G01*
X253060650Y-113880000D02*
G75*
G03*
X253060650Y-113880000I-90650J0D01*
G01*
D11*
X253269047Y-106082380D02*
X253269047Y-105082380D01*
X253650000Y-105082380D01*
X253745238Y-105130000D01*
X253792857Y-105177619D01*
X253840476Y-105272857D01*
X253840476Y-105415714D01*
X253792857Y-105510952D01*
X253745238Y-105558571D01*
X253650000Y-105606190D01*
X253269047Y-105606190D01*
X254269047Y-105701428D02*
X255030952Y-105701428D01*
X254650000Y-106082380D02*
X254650000Y-105320476D01*
X257379047Y-106132380D02*
X257379047Y-105132380D01*
X257760000Y-105132380D01*
X257855238Y-105180000D01*
X257902857Y-105227619D01*
X257950476Y-105322857D01*
X257950476Y-105465714D01*
X257902857Y-105560952D01*
X257855238Y-105608571D01*
X257760000Y-105656190D01*
X257379047Y-105656190D01*
X258379047Y-105751428D02*
X259140952Y-105751428D01*
D12*
X255712409Y-134364329D02*
X256092761Y-134502766D01*
X256145652Y-134496679D01*
X256176169Y-134482449D01*
X256214829Y-134445845D01*
X256247402Y-134356350D01*
X256241315Y-134303460D01*
X256227085Y-134272943D01*
X256190481Y-134234282D01*
X255810129Y-134095846D01*
X255875276Y-133916857D02*
X255989283Y-133603626D01*
X256385839Y-133975998D01*
X241481362Y-127142699D02*
X241048350Y-126892699D01*
X241143588Y-126727742D01*
X241188017Y-126698408D01*
X241220541Y-126689693D01*
X241273685Y-126692883D01*
X241335544Y-126728597D01*
X241364879Y-126773026D01*
X241373594Y-126805550D01*
X241370404Y-126858695D01*
X241275166Y-127023652D01*
X241405493Y-126274110D02*
X241357873Y-126356588D01*
X241354684Y-126409732D01*
X241363399Y-126442257D01*
X241401448Y-126519210D01*
X241472022Y-126587449D01*
X241636979Y-126682687D01*
X241690123Y-126685877D01*
X241722647Y-126677162D01*
X241767077Y-126647828D01*
X241814696Y-126565349D01*
X241817886Y-126512205D01*
X241809171Y-126479681D01*
X241779836Y-126435251D01*
X241676738Y-126375728D01*
X241623594Y-126372538D01*
X241591069Y-126381253D01*
X241546640Y-126410587D01*
X241499021Y-126493066D01*
X241495831Y-126546210D01*
X241504546Y-126578734D01*
X241533881Y-126623163D01*
X247785121Y-130297827D02*
X248095186Y-130037651D01*
X248116360Y-129988803D01*
X248119295Y-129955260D01*
X248106925Y-129903477D01*
X248045707Y-129830520D01*
X247996859Y-129809346D01*
X247963315Y-129806412D01*
X247911533Y-129818782D01*
X247601467Y-130078957D01*
X247295378Y-129714174D02*
X247448422Y-129896566D01*
X247646118Y-129761760D01*
X247612575Y-129758826D01*
X247563727Y-129737652D01*
X247487204Y-129646456D01*
X247474835Y-129594673D01*
X247477769Y-129561130D01*
X247498943Y-129512282D01*
X247590139Y-129435759D01*
X247641922Y-129423390D01*
X247675465Y-129426324D01*
X247724313Y-129447498D01*
X247800836Y-129538694D01*
X247813206Y-129590477D01*
X247810271Y-129624020D01*
X234856190Y-107900952D02*
X235260952Y-107900952D01*
X235308571Y-107877142D01*
X235332380Y-107853333D01*
X235356190Y-107805714D01*
X235356190Y-107710476D01*
X235332380Y-107662857D01*
X235308571Y-107639047D01*
X235260952Y-107615238D01*
X234856190Y-107615238D01*
X235070476Y-107305714D02*
X235046666Y-107353333D01*
X235022857Y-107377142D01*
X234975238Y-107400952D01*
X234951428Y-107400952D01*
X234903809Y-107377142D01*
X234880000Y-107353333D01*
X234856190Y-107305714D01*
X234856190Y-107210476D01*
X234880000Y-107162857D01*
X234903809Y-107139047D01*
X234951428Y-107115238D01*
X234975238Y-107115238D01*
X235022857Y-107139047D01*
X235046666Y-107162857D01*
X235070476Y-107210476D01*
X235070476Y-107305714D01*
X235094285Y-107353333D01*
X235118095Y-107377142D01*
X235165714Y-107400952D01*
X235260952Y-107400952D01*
X235308571Y-107377142D01*
X235332380Y-107353333D01*
X235356190Y-107305714D01*
X235356190Y-107210476D01*
X235332380Y-107162857D01*
X235308571Y-107139047D01*
X235260952Y-107115238D01*
X235165714Y-107115238D01*
X235118095Y-107139047D01*
X235094285Y-107162857D01*
X235070476Y-107210476D01*
X238871363Y-127622699D02*
X238438351Y-127372699D01*
X238533589Y-127207742D01*
X238578018Y-127178408D01*
X238610542Y-127169693D01*
X238663686Y-127172883D01*
X238725545Y-127208597D01*
X238754880Y-127253026D01*
X238763595Y-127285550D01*
X238760405Y-127338695D01*
X238665167Y-127503652D01*
X238807398Y-126733490D02*
X238688351Y-126939687D01*
X238882642Y-127079354D01*
X238873928Y-127046830D01*
X238877117Y-126993685D01*
X238936641Y-126890587D01*
X238981070Y-126861253D01*
X239013595Y-126852538D01*
X239066739Y-126855728D01*
X239169837Y-126915251D01*
X239199172Y-126959681D01*
X239207887Y-126992205D01*
X239204697Y-127045349D01*
X239145173Y-127148447D01*
X239100744Y-127177782D01*
X239068219Y-127186497D01*
X255322409Y-137484329D02*
X255702761Y-137622766D01*
X255755652Y-137616679D01*
X255786169Y-137602449D01*
X255824829Y-137565845D01*
X255857402Y-137476350D01*
X255851315Y-137423460D01*
X255837085Y-137392943D01*
X255800481Y-137354282D01*
X255420129Y-137215846D01*
X255574853Y-136790747D02*
X255542279Y-136880241D01*
X255548366Y-136933132D01*
X255562597Y-136963649D01*
X255613431Y-137032826D01*
X255694782Y-137087773D01*
X255873771Y-137152920D01*
X255926662Y-137146833D01*
X255957179Y-137132602D01*
X255995839Y-137095998D01*
X256028412Y-137006504D01*
X256022325Y-136953613D01*
X256008095Y-136923096D01*
X255971491Y-136884436D01*
X255859623Y-136843719D01*
X255806732Y-136849806D01*
X255776215Y-136864037D01*
X255737555Y-136900641D01*
X255704982Y-136990135D01*
X255711069Y-137043026D01*
X255725299Y-137073543D01*
X255761903Y-137112203D01*
X250865559Y-137708840D02*
X250584820Y-137784022D01*
X250767839Y-137977324D02*
X250297993Y-137806313D01*
X250363140Y-137627324D01*
X250401800Y-137590720D01*
X250432317Y-137576490D01*
X250485208Y-137570403D01*
X250552328Y-137594833D01*
X250588932Y-137633494D01*
X250603163Y-137664010D01*
X250609250Y-137716901D01*
X250544103Y-137895890D01*
X250452716Y-137381214D02*
X250558580Y-137090357D01*
X250680565Y-137312119D01*
X250704995Y-137244998D01*
X250743656Y-137208394D01*
X250774173Y-137194164D01*
X250827063Y-137188077D01*
X250938932Y-137228794D01*
X250975535Y-137267454D01*
X250989766Y-137297971D01*
X250995853Y-137350862D01*
X250946993Y-137485104D01*
X250908332Y-137521708D01*
X250877815Y-137535938D01*
X257576666Y-111678571D02*
X257552857Y-111702380D01*
X257481428Y-111726190D01*
X257433809Y-111726190D01*
X257362380Y-111702380D01*
X257314761Y-111654761D01*
X257290952Y-111607142D01*
X257267142Y-111511904D01*
X257267142Y-111440476D01*
X257290952Y-111345238D01*
X257314761Y-111297619D01*
X257362380Y-111250000D01*
X257433809Y-111226190D01*
X257481428Y-111226190D01*
X257552857Y-111250000D01*
X257576666Y-111273809D01*
X257743333Y-111226190D02*
X258076666Y-111226190D01*
X257862380Y-111726190D01*
X259466837Y-122058444D02*
X259619882Y-122240836D01*
X259236860Y-122562229D01*
X259191357Y-121730139D02*
X259375010Y-121949009D01*
X259283183Y-121839574D02*
X258900161Y-122160968D01*
X258985488Y-122151533D01*
X259052575Y-122157402D01*
X259101423Y-122178576D01*
X257576666Y-112458571D02*
X257552857Y-112482380D01*
X257481428Y-112506190D01*
X257433809Y-112506190D01*
X257362380Y-112482380D01*
X257314761Y-112434761D01*
X257290952Y-112387142D01*
X257267142Y-112291904D01*
X257267142Y-112220476D01*
X257290952Y-112125238D01*
X257314761Y-112077619D01*
X257362380Y-112030000D01*
X257433809Y-112006190D01*
X257481428Y-112006190D01*
X257552857Y-112030000D01*
X257576666Y-112053809D01*
X258029047Y-112006190D02*
X257790952Y-112006190D01*
X257767142Y-112244285D01*
X257790952Y-112220476D01*
X257838571Y-112196666D01*
X257957619Y-112196666D01*
X258005238Y-112220476D01*
X258029047Y-112244285D01*
X258052857Y-112291904D01*
X258052857Y-112410952D01*
X258029047Y-112458571D01*
X258005238Y-112482380D01*
X257957619Y-112506190D01*
X257838571Y-112506190D01*
X257790952Y-112482380D01*
X257767142Y-112458571D01*
X258526666Y-116948571D02*
X258502857Y-116972380D01*
X258431428Y-116996190D01*
X258383809Y-116996190D01*
X258312380Y-116972380D01*
X258264761Y-116924761D01*
X258240952Y-116877142D01*
X258217142Y-116781904D01*
X258217142Y-116710476D01*
X258240952Y-116615238D01*
X258264761Y-116567619D01*
X258312380Y-116520000D01*
X258383809Y-116496190D01*
X258431428Y-116496190D01*
X258502857Y-116520000D01*
X258526666Y-116543809D01*
X258693333Y-116496190D02*
X259002857Y-116496190D01*
X258836190Y-116686666D01*
X258907619Y-116686666D01*
X258955238Y-116710476D01*
X258979047Y-116734285D01*
X259002857Y-116781904D01*
X259002857Y-116900952D01*
X258979047Y-116948571D01*
X258955238Y-116972380D01*
X258907619Y-116996190D01*
X258764761Y-116996190D01*
X258717142Y-116972380D01*
X258693333Y-116948571D01*
X259818571Y-113543333D02*
X259842380Y-113567142D01*
X259866190Y-113638571D01*
X259866190Y-113686190D01*
X259842380Y-113757619D01*
X259794761Y-113805238D01*
X259747142Y-113829047D01*
X259651904Y-113852857D01*
X259580476Y-113852857D01*
X259485238Y-113829047D01*
X259437619Y-113805238D01*
X259390000Y-113757619D01*
X259366190Y-113686190D01*
X259366190Y-113638571D01*
X259390000Y-113567142D01*
X259413809Y-113543333D01*
X259413809Y-113352857D02*
X259390000Y-113329047D01*
X259366190Y-113281428D01*
X259366190Y-113162380D01*
X259390000Y-113114761D01*
X259413809Y-113090952D01*
X259461428Y-113067142D01*
X259509047Y-113067142D01*
X259580476Y-113090952D01*
X259866190Y-113376666D01*
X259866190Y-113067142D01*
X255228571Y-117728571D02*
X255204761Y-117752380D01*
X255133333Y-117776190D01*
X255085714Y-117776190D01*
X255014285Y-117752380D01*
X254966666Y-117704761D01*
X254942857Y-117657142D01*
X254919047Y-117561904D01*
X254919047Y-117490476D01*
X254942857Y-117395238D01*
X254966666Y-117347619D01*
X255014285Y-117300000D01*
X255085714Y-117276190D01*
X255133333Y-117276190D01*
X255204761Y-117300000D01*
X255228571Y-117323809D01*
X255704761Y-117776190D02*
X255419047Y-117776190D01*
X255561904Y-117776190D02*
X255561904Y-117276190D01*
X255514285Y-117347619D01*
X255466666Y-117395238D01*
X255419047Y-117419047D01*
X256014285Y-117276190D02*
X256061904Y-117276190D01*
X256109523Y-117300000D01*
X256133333Y-117323809D01*
X256157142Y-117371428D01*
X256180952Y-117466666D01*
X256180952Y-117585714D01*
X256157142Y-117680952D01*
X256133333Y-117728571D01*
X256109523Y-117752380D01*
X256061904Y-117776190D01*
X256014285Y-117776190D01*
X255966666Y-117752380D01*
X255942857Y-117728571D01*
X255919047Y-117680952D01*
X255895238Y-117585714D01*
X255895238Y-117466666D01*
X255919047Y-117371428D01*
X255942857Y-117323809D01*
X255966666Y-117300000D01*
X256014285Y-117276190D01*
X256833403Y-124891445D02*
X256866947Y-124894379D01*
X256931100Y-124933792D01*
X256961709Y-124970271D01*
X256989383Y-125040292D01*
X256983513Y-125107380D01*
X256962340Y-125156228D01*
X256904687Y-125235685D01*
X256849970Y-125281598D01*
X256761709Y-125324577D01*
X256709926Y-125336947D01*
X256642839Y-125331077D01*
X256578686Y-125291664D01*
X256548077Y-125255186D01*
X256520403Y-125185164D01*
X256523338Y-125151621D01*
X256563792Y-124496053D02*
X256747446Y-124714922D01*
X256655619Y-124605487D02*
X256272597Y-124926881D01*
X256357923Y-124917446D01*
X256425011Y-124923316D01*
X256473859Y-124944489D01*
X256161269Y-124460836D02*
X256173639Y-124512619D01*
X256170704Y-124546163D01*
X256149530Y-124595011D01*
X256131291Y-124610315D01*
X256079508Y-124622685D01*
X256045965Y-124619750D01*
X255997117Y-124598577D01*
X255935899Y-124525620D01*
X255923529Y-124473837D01*
X255926464Y-124440294D01*
X255947637Y-124391445D01*
X255965877Y-124376141D01*
X256017659Y-124363771D01*
X256051203Y-124366706D01*
X256100051Y-124387880D01*
X256161269Y-124460836D01*
X256210117Y-124482010D01*
X256243661Y-124484945D01*
X256295443Y-124472575D01*
X256368400Y-124411357D01*
X256389574Y-124362509D01*
X256392509Y-124328966D01*
X256380139Y-124277183D01*
X256318921Y-124204226D01*
X256270073Y-124183052D01*
X256236529Y-124180118D01*
X256184746Y-124192487D01*
X256111790Y-124253705D01*
X256090616Y-124302553D01*
X256087681Y-124336097D01*
X256100051Y-124387880D01*
X260151555Y-126716837D02*
X259870836Y-126641577D01*
X259932685Y-126900491D02*
X259611291Y-126517468D01*
X259757204Y-126395033D01*
X259808987Y-126382663D01*
X259842531Y-126385598D01*
X259891379Y-126406771D01*
X259937292Y-126461489D01*
X259949662Y-126513272D01*
X259946727Y-126546815D01*
X259925554Y-126595663D01*
X259779640Y-126718099D01*
X260265597Y-126186009D02*
X260479860Y-126441357D01*
X260051966Y-126116618D02*
X260190337Y-126466727D01*
X260427446Y-126267769D01*
X259028555Y-127603403D02*
X259025621Y-127636947D01*
X258986208Y-127701100D01*
X258949729Y-127731709D01*
X258879708Y-127759383D01*
X258812620Y-127753513D01*
X258763772Y-127732340D01*
X258684315Y-127674687D01*
X258638402Y-127619970D01*
X258595423Y-127531709D01*
X258583053Y-127479926D01*
X258588923Y-127412839D01*
X258628336Y-127348686D01*
X258664814Y-127318077D01*
X258734836Y-127290403D01*
X258768379Y-127293338D01*
X259423947Y-127333792D02*
X259205078Y-127517446D01*
X259314513Y-127425619D02*
X258993119Y-127042597D01*
X259002554Y-127127923D01*
X258996684Y-127195011D01*
X258975511Y-127243859D01*
X259230228Y-126843639D02*
X259485576Y-126629376D01*
X259642817Y-127150139D01*
X254199191Y-125578308D02*
X254459367Y-125888373D01*
X254508215Y-125909547D01*
X254541758Y-125912482D01*
X254593541Y-125900112D01*
X254666498Y-125838894D01*
X254687672Y-125790046D01*
X254690606Y-125756502D01*
X254678236Y-125704720D01*
X254418061Y-125394654D01*
X254871736Y-125231543D02*
X255085998Y-125486891D01*
X254658104Y-125162152D02*
X254796475Y-125512262D01*
X255033584Y-125313304D01*
X258536666Y-116198571D02*
X258512857Y-116222380D01*
X258441428Y-116246190D01*
X258393809Y-116246190D01*
X258322380Y-116222380D01*
X258274761Y-116174761D01*
X258250952Y-116127142D01*
X258227142Y-116031904D01*
X258227142Y-115960476D01*
X258250952Y-115865238D01*
X258274761Y-115817619D01*
X258322380Y-115770000D01*
X258393809Y-115746190D01*
X258441428Y-115746190D01*
X258512857Y-115770000D01*
X258536666Y-115793809D01*
X258965238Y-115912857D02*
X258965238Y-116246190D01*
X258846190Y-115722380D02*
X258727142Y-116079523D01*
X259036666Y-116079523D01*
X255416837Y-123148444D02*
X255569882Y-123330836D01*
X255186860Y-123652229D01*
X254916617Y-123070880D02*
X255171966Y-122856618D01*
X254847227Y-123284512D02*
X255197336Y-123146140D01*
X254998378Y-122909031D01*
X248011554Y-132586837D02*
X247730835Y-132511577D01*
X247792684Y-132770491D02*
X247471290Y-132387468D01*
X247617203Y-132265033D01*
X247668986Y-132252663D01*
X247702530Y-132255598D01*
X247751378Y-132276771D01*
X247797291Y-132331489D01*
X247809661Y-132383272D01*
X247806726Y-132416815D01*
X247785553Y-132465663D01*
X247639639Y-132588099D01*
X248018465Y-131928334D02*
X247945508Y-131989552D01*
X247924334Y-132038400D01*
X247921400Y-132071944D01*
X247930835Y-132157270D01*
X247973814Y-132245532D01*
X248096249Y-132391445D01*
X248145097Y-132412619D01*
X248178641Y-132415553D01*
X248230424Y-132403183D01*
X248303380Y-132341966D01*
X248324554Y-132293118D01*
X248327489Y-132259574D01*
X248315119Y-132207791D01*
X248238597Y-132116595D01*
X248189749Y-132095422D01*
X248156205Y-132092487D01*
X248104422Y-132104857D01*
X248031466Y-132166074D01*
X248010292Y-132214923D01*
X248007357Y-132248466D01*
X248019727Y-132300249D01*
X240475678Y-133994258D02*
X240504839Y-134011094D01*
X240546324Y-134073926D01*
X240558649Y-134119923D01*
X240554138Y-134195080D01*
X240520466Y-134253401D01*
X240480632Y-134288724D01*
X240394801Y-134336372D01*
X240325806Y-134354859D01*
X240227651Y-134356510D01*
X240175492Y-134345836D01*
X240117171Y-134312165D01*
X240075686Y-134249332D01*
X240063361Y-134203336D01*
X240067872Y-134128179D01*
X240084708Y-134099018D01*
X240398427Y-133521969D02*
X240472376Y-133797947D01*
X240435402Y-133659958D02*
X239952439Y-133789368D01*
X240033758Y-133816877D01*
X240092079Y-133850549D01*
X240127402Y-133890383D01*
X239872328Y-133490390D02*
X239792217Y-133191413D01*
X240019340Y-133303102D01*
X240000853Y-133234107D01*
X240011526Y-133181949D01*
X240028362Y-133152788D01*
X240068196Y-133117465D01*
X240183187Y-133086653D01*
X240235346Y-133097327D01*
X240264507Y-133114163D01*
X240299830Y-133153997D01*
X240336804Y-133291986D01*
X240326130Y-133344145D01*
X240309294Y-133373306D01*
X240562685Y-131660491D02*
X240241291Y-131277468D01*
X240332487Y-131200946D01*
X240402509Y-131173272D01*
X240469596Y-131179141D01*
X240518444Y-131200315D01*
X240597901Y-131257967D01*
X240643815Y-131312685D01*
X240686793Y-131400946D01*
X240699163Y-131452729D01*
X240693294Y-131519816D01*
X240653881Y-131583968D01*
X240562685Y-131660491D01*
X241146338Y-131170748D02*
X240927468Y-131354401D01*
X241036903Y-131262575D02*
X240715509Y-130879552D01*
X240724944Y-130964879D01*
X240719075Y-131031966D01*
X240697901Y-131080814D01*
X246798554Y-134833403D02*
X246795620Y-134866947D01*
X246756207Y-134931100D01*
X246719728Y-134961709D01*
X246649707Y-134989383D01*
X246582619Y-134983513D01*
X246533771Y-134962340D01*
X246454314Y-134904687D01*
X246408401Y-134849970D01*
X246365422Y-134761709D01*
X246353052Y-134709926D01*
X246358922Y-134642839D01*
X246398335Y-134578686D01*
X246434813Y-134548077D01*
X246504835Y-134520403D01*
X246538378Y-134523338D01*
X247193946Y-134563792D02*
X246975077Y-134747446D01*
X247084512Y-134655619D02*
X246763118Y-134272597D01*
X246772553Y-134357923D01*
X246766683Y-134425011D01*
X246745510Y-134473859D01*
X247219097Y-133889985D02*
X247036705Y-134043030D01*
X247171511Y-134240726D01*
X247174445Y-134207182D01*
X247195619Y-134158334D01*
X247286815Y-134081812D01*
X247338598Y-134069442D01*
X247372141Y-134072377D01*
X247420989Y-134093551D01*
X247497512Y-134184746D01*
X247509881Y-134236529D01*
X247506947Y-134270073D01*
X247485773Y-134318921D01*
X247394577Y-134395443D01*
X247342794Y-134407813D01*
X247309251Y-134404878D01*
X260086837Y-123138444D02*
X260239882Y-123320836D01*
X259856860Y-123642229D01*
X259648466Y-123319794D02*
X259614923Y-123316859D01*
X259566075Y-123295686D01*
X259489552Y-123204490D01*
X259477183Y-123152707D01*
X259480117Y-123119163D01*
X259501291Y-123070315D01*
X259537769Y-123039706D01*
X259607791Y-123012032D01*
X260010315Y-123047248D01*
X259811357Y-122810139D01*
X260500359Y-124579053D02*
X260533902Y-124581988D01*
X260598055Y-124621401D01*
X260628664Y-124657879D01*
X260656338Y-124727901D01*
X260650469Y-124794988D01*
X260629295Y-124843836D01*
X260571643Y-124923293D01*
X260516925Y-124969207D01*
X260428664Y-125012185D01*
X260376881Y-125024555D01*
X260309794Y-125018686D01*
X260245642Y-124979273D01*
X260215033Y-124942795D01*
X260187358Y-124872773D01*
X260190293Y-124839229D01*
X260230748Y-124183661D02*
X260414401Y-124402531D01*
X260322575Y-124293096D02*
X259939552Y-124614490D01*
X260024879Y-124605055D01*
X260091966Y-124610924D01*
X260140814Y-124632098D01*
X258738095Y-114928095D02*
X258976190Y-114928095D01*
X258476190Y-115094761D02*
X258738095Y-114928095D01*
X258476190Y-114761428D01*
X258976190Y-114332857D02*
X258976190Y-114618571D01*
X258976190Y-114475714D02*
X258476190Y-114475714D01*
X258547619Y-114523333D01*
X258595238Y-114570952D01*
X258619047Y-114618571D01*
X253859047Y-112786190D02*
X253859047Y-113190952D01*
X253882857Y-113238571D01*
X253906666Y-113262380D01*
X253954285Y-113286190D01*
X254049523Y-113286190D01*
X254097142Y-113262380D01*
X254120952Y-113238571D01*
X254144761Y-113190952D01*
X254144761Y-112786190D01*
X254359047Y-112833809D02*
X254382857Y-112810000D01*
X254430476Y-112786190D01*
X254549523Y-112786190D01*
X254597142Y-112810000D01*
X254620952Y-112833809D01*
X254644761Y-112881428D01*
X254644761Y-112929047D01*
X254620952Y-113000476D01*
X254335238Y-113286190D01*
X254644761Y-113286190D01*
X258341555Y-128256837D02*
X258060836Y-128181577D01*
X258122685Y-128440491D02*
X257801291Y-128057468D01*
X257947204Y-127935033D01*
X257998987Y-127922663D01*
X258032531Y-127925598D01*
X258081379Y-127946771D01*
X258127292Y-128001489D01*
X258139662Y-128053272D01*
X258136727Y-128086815D01*
X258115554Y-128135663D01*
X257969640Y-128258099D01*
X258366705Y-127583030D02*
X258184313Y-127736075D01*
X258319119Y-127933771D01*
X258322054Y-127900227D01*
X258343228Y-127851379D01*
X258434423Y-127774857D01*
X258486206Y-127762487D01*
X258519750Y-127765422D01*
X258568598Y-127786595D01*
X258645120Y-127877791D01*
X258657490Y-127929574D01*
X258654555Y-127963118D01*
X258633381Y-128011966D01*
X258542186Y-128088488D01*
X258490403Y-128100858D01*
X258456859Y-128097923D01*
X244225121Y-132717827D02*
X244535186Y-132457651D01*
X244556360Y-132408803D01*
X244559295Y-132375260D01*
X244546925Y-132323477D01*
X244485707Y-132250520D01*
X244436859Y-132229346D01*
X244403315Y-132226412D01*
X244351533Y-132238782D01*
X244041467Y-132498957D01*
X243919031Y-132353044D02*
X243720073Y-132115935D01*
X243973118Y-132121174D01*
X243927204Y-132066456D01*
X243914835Y-132014673D01*
X243917769Y-131981130D01*
X243938943Y-131932282D01*
X244030139Y-131855759D01*
X244081922Y-131843390D01*
X244115465Y-131846324D01*
X244164313Y-131867498D01*
X244256140Y-131976933D01*
X244268510Y-132028716D01*
X244265575Y-132062259D01*
X242578554Y-128653403D02*
X242575620Y-128686947D01*
X242536207Y-128751100D01*
X242499728Y-128781709D01*
X242429707Y-128809383D01*
X242362619Y-128803513D01*
X242313771Y-128782340D01*
X242234314Y-128724687D01*
X242188401Y-128669970D01*
X242145422Y-128581709D01*
X242133052Y-128529926D01*
X242138922Y-128462839D01*
X242178335Y-128398686D01*
X242214813Y-128368077D01*
X242284835Y-128340403D01*
X242318378Y-128343338D01*
X242973946Y-128383792D02*
X242755077Y-128567446D01*
X242864512Y-128475619D02*
X242543118Y-128092597D01*
X242552553Y-128177923D01*
X242546683Y-128245011D01*
X242525510Y-128293859D01*
X243156338Y-128230748D02*
X243229295Y-128169530D01*
X243250468Y-128120682D01*
X243253403Y-128087138D01*
X243243968Y-128001812D01*
X243200989Y-127913551D01*
X243078554Y-127767637D01*
X243029705Y-127746464D01*
X242996162Y-127743529D01*
X242944379Y-127755899D01*
X242871422Y-127817117D01*
X242850249Y-127865965D01*
X242847314Y-127899508D01*
X242859684Y-127951291D01*
X242936206Y-128042487D01*
X242985054Y-128063661D01*
X243018598Y-128066595D01*
X243070381Y-128054226D01*
X243143337Y-127993008D01*
X243164511Y-127944160D01*
X243167446Y-127910616D01*
X243155076Y-127858833D01*
X236971985Y-85972359D02*
X237329128Y-85972359D01*
X237400556Y-85996169D01*
X237448175Y-86043788D01*
X237471985Y-86115216D01*
X237471985Y-86162835D01*
X237019604Y-85758073D02*
X236995795Y-85734264D01*
X236971985Y-85686645D01*
X236971985Y-85567597D01*
X236995795Y-85519978D01*
X237019604Y-85496169D01*
X237067223Y-85472359D01*
X237114842Y-85472359D01*
X237186271Y-85496169D01*
X237471985Y-85781883D01*
X237471985Y-85472359D01*
X251047867Y-134753119D02*
X251062097Y-134783636D01*
X251060041Y-134858900D01*
X251043754Y-134903647D01*
X250996950Y-134962625D01*
X250935916Y-134991085D01*
X250883026Y-134997172D01*
X250785388Y-134986972D01*
X250718267Y-134962542D01*
X250636916Y-134907595D01*
X250600312Y-134868935D01*
X250571851Y-134807901D01*
X250573908Y-134732637D01*
X250590194Y-134687890D01*
X250636998Y-134628912D01*
X250667515Y-134614682D01*
X250732662Y-134435693D02*
X250718431Y-134405176D01*
X250712344Y-134352285D01*
X250753061Y-134240417D01*
X250791721Y-134203813D01*
X250822238Y-134189583D01*
X250875129Y-134183496D01*
X250919876Y-134199783D01*
X250978854Y-134246586D01*
X251149617Y-134612790D01*
X251255481Y-134321933D01*
X251088830Y-133805200D02*
X251402061Y-133919207D01*
X250869124Y-133851922D02*
X251164012Y-134085940D01*
X251269875Y-133795083D01*
X241731971Y-63689049D02*
X241731971Y-64046192D01*
X241708161Y-64117620D01*
X241660542Y-64165239D01*
X241589114Y-64189049D01*
X241541495Y-64189049D01*
X242231971Y-64189049D02*
X241946257Y-64189049D01*
X242089114Y-64189049D02*
X242089114Y-63689049D01*
X242041495Y-63760478D01*
X241993876Y-63808097D01*
X241946257Y-63831906D01*
X255340629Y-134804528D02*
X255990468Y-133019112D01*
X253639371Y-132695472D02*
X253160542Y-134011041D01*
X243330000Y-125400000D02*
G75*
G03*
X243330000Y-125400000I-950000J0D01*
G01*
X246447131Y-133010555D02*
X248323940Y-131435726D01*
X245756235Y-129386875D02*
X244377355Y-130543892D01*
X231460000Y-108560000D02*
X232390000Y-108560000D01*
X234620000Y-108560000D02*
X233690000Y-108560000D01*
X231460000Y-108560000D02*
X231460000Y-107100000D01*
X234620000Y-108560000D02*
X234620000Y-106400000D01*
X239040000Y-128540000D02*
G75*
G03*
X239040000Y-128540000I-950000J0D01*
G01*
X255116376Y-135324913D02*
X252814129Y-134486964D01*
X252323624Y-137735087D02*
X254015071Y-138350723D01*
X251440963Y-136549097D02*
X251546060Y-136260346D01*
X250726796Y-136289162D02*
X250831893Y-136000411D01*
X257162196Y-123057728D02*
X257558360Y-122725307D01*
X258074954Y-124145511D02*
X258471118Y-123813090D01*
X257347836Y-117120000D02*
X257132164Y-117120000D01*
X257347836Y-116400000D02*
X257132164Y-116400000D01*
X257697123Y-125676577D02*
X257531908Y-125815209D01*
X257234316Y-125125025D02*
X257069101Y-125263657D01*
X254118876Y-127569488D02*
X255275893Y-128948368D01*
X257742556Y-126878592D02*
X256167727Y-125001783D01*
X257357836Y-116350000D02*
X257142164Y-116350000D01*
X257357836Y-115630000D02*
X257142164Y-115630000D01*
X253988297Y-125230102D02*
X254384461Y-124897681D01*
X253075539Y-124142319D02*
X253471703Y-123809898D01*
X241683254Y-134788037D02*
X241926746Y-134928617D01*
X241173254Y-135671383D02*
X241416746Y-135811963D01*
X241470597Y-131191437D02*
X240398135Y-132091340D01*
X241889403Y-133868563D02*
X243344887Y-132647266D01*
X245994011Y-135696460D02*
X245828796Y-135835092D01*
X245531204Y-135144908D02*
X245365989Y-135283540D01*
X259908593Y-124855031D02*
X260047225Y-125020246D01*
X259357041Y-125317838D02*
X259495673Y-125483053D01*
X258290000Y-115250000D02*
X258290000Y-112550000D01*
X255990000Y-115250000D02*
X258290000Y-115250000D01*
X254870000Y-115740000D02*
X254870000Y-115740000D01*
X255370000Y-115740000D02*
X254870000Y-115740000D01*
X254870000Y-113540000D02*
X255370000Y-113540000D01*
X255370000Y-113540000D02*
X255370000Y-114040000D01*
X253170000Y-113540000D02*
X253170000Y-113540000D01*
X255370000Y-114040000D02*
X255370000Y-114040000D01*
X253670000Y-115740000D02*
X253170000Y-115740000D01*
X253670000Y-113540000D02*
X253170000Y-113540000D01*
X255370000Y-115240000D02*
X255370000Y-115740000D01*
X253170000Y-115740000D02*
X253170000Y-115240000D01*
X253170000Y-115240000D02*
X253170000Y-115240000D01*
X244771832Y-132542202D02*
X244059410Y-133139994D01*
X244771832Y-132542202D02*
X245710302Y-133660627D01*
X242351131Y-134573411D02*
X243739552Y-136228067D01*
X242351131Y-134573411D02*
X243063553Y-133975618D01*
X242510213Y-129120084D02*
X243599914Y-128205716D01*
X243680086Y-130514284D02*
X244769787Y-129599916D01*
X242592500Y-85570000D02*
G75*
G03*
X242592500Y-85570000I-635000J0D01*
G01*
X252111381Y-134687962D02*
X252037617Y-134890627D01*
X251434803Y-134441707D02*
X251361039Y-134644372D01*
%LPC*%
D13*
X252840000Y-102530000D03*
X259240000Y-102530000D03*
D14*
X255425719Y-133079605D03*
X254814919Y-132857292D03*
X254204119Y-132634979D03*
X253554281Y-134420395D03*
X254775881Y-134865021D03*
D15*
X242380000Y-125400000D03*
D16*
X247554980Y-131219391D03*
X246944332Y-130491649D03*
X246333684Y-129763906D03*
X244648386Y-131178039D03*
X245869682Y-132633524D03*
D17*
X233990000Y-106800000D03*
X232090000Y-106800000D03*
X233040000Y-108800000D03*
D15*
X238090000Y-128540000D03*
D18*
X253011257Y-135261070D03*
X252686338Y-136153778D03*
X252361419Y-137046486D03*
X254428743Y-137798930D03*
X255078581Y-136013514D03*
D19*
X250961998Y-136753997D03*
X251310858Y-135795511D03*
D20*
X256735000Y-111500000D03*
X255765000Y-111500000D03*
D21*
X257098490Y-124038022D03*
X258534824Y-122832796D03*
D22*
X255785000Y-112310000D03*
X256755000Y-112310000D03*
D23*
X257720000Y-116760000D03*
X256760000Y-116760000D03*
D24*
X258710000Y-112935000D03*
X258710000Y-113905000D03*
D22*
X255045000Y-116750000D03*
X256015000Y-116750000D03*
D25*
X257750813Y-125161579D03*
X257015411Y-125778655D03*
D26*
X259384495Y-126081748D03*
X258760991Y-125338684D03*
D27*
X258140497Y-125859341D03*
X258764001Y-126602405D03*
D28*
X255951392Y-125770743D03*
X255223650Y-126381391D03*
X254495907Y-126992039D03*
X255910040Y-128677337D03*
X257365525Y-127456041D03*
D23*
X257730000Y-115990000D03*
X256770000Y-115990000D03*
D21*
X253011833Y-125122613D03*
X254448167Y-123917387D03*
D29*
X246518468Y-133541752D03*
X247261532Y-132918248D03*
D30*
X240878830Y-134912500D03*
X242221170Y-135687500D03*
D31*
X242825554Y-132417281D03*
X242407742Y-131919352D03*
X241989930Y-131421423D03*
X240534446Y-132642719D03*
X240952258Y-133140648D03*
X241370070Y-133638577D03*
D25*
X246047701Y-135181462D03*
X245312299Y-135798538D03*
D32*
X259324771Y-123762548D03*
X258581707Y-124386052D03*
D33*
X259393595Y-124801341D03*
X260010671Y-125536743D03*
D34*
X257690000Y-114600000D03*
D35*
X257690000Y-113200000D03*
D36*
X256590000Y-113200000D03*
D35*
X256590000Y-114600000D03*
D37*
X253507500Y-113890000D03*
X253507500Y-114390000D03*
X253507500Y-114890000D03*
X253507500Y-115390000D03*
D38*
X254020000Y-115402500D03*
X254520000Y-115402500D03*
D37*
X255032500Y-115390000D03*
X255032500Y-114890000D03*
X255032500Y-114390000D03*
X255032500Y-113890000D03*
D38*
X254520000Y-113877500D03*
X254020000Y-113877500D03*
D27*
X257520000Y-126380000D03*
X258143504Y-127123064D03*
D39*
X243965045Y-135516693D03*
X245420530Y-134295396D03*
X243407212Y-133373956D03*
D40*
X242510084Y-130308112D03*
X244769916Y-128411888D03*
D41*
X238147500Y-89220000D03*
X238147500Y-69220000D03*
D42*
X239417500Y-85570000D03*
X236877500Y-84300000D03*
X239417500Y-83030000D03*
X236877500Y-81760000D03*
X239417500Y-80490000D03*
X236877500Y-79220000D03*
X239417500Y-77950000D03*
X236877500Y-76680000D03*
X239417500Y-75410000D03*
X236877500Y-74140000D03*
X239417500Y-72870000D03*
D43*
X251900380Y-134215115D03*
X251572040Y-135117219D03*
D44*
X241620000Y-61279999D03*
X242119999Y-61279999D03*
X242620000Y-61279999D03*
X243120000Y-61279999D03*
X243620001Y-61279999D03*
X244120000Y-61279999D03*
X244620000Y-61279999D03*
X245120000Y-61279999D03*
X245620000Y-61279999D03*
X246120001Y-61279999D03*
X246620000Y-61279999D03*
X247120000Y-61279999D03*
X247620000Y-61279999D03*
X248120000Y-61279999D03*
G36*
X240434000Y-118300004D02*
G01*
X240502121Y-118320006D01*
X240548614Y-118373662D01*
X240560000Y-118426004D01*
X240560001Y-118874003D01*
X240539999Y-118942124D01*
X240486344Y-118988617D01*
X240434001Y-119000003D01*
X236586000Y-119000001D01*
X236517879Y-118979999D01*
X236471386Y-118926343D01*
X236460000Y-118874001D01*
X236460000Y-118426000D01*
X236480002Y-118357879D01*
X236533658Y-118311386D01*
X236586000Y-118300000D01*
X240434000Y-118300004D01*
G37*
G36*
X214043931Y-87947920D02*
G01*
X214070899Y-87994143D01*
X215155614Y-91332553D01*
X215157642Y-91403521D01*
X215120979Y-91464318D01*
X215075802Y-91490964D01*
X214812187Y-91579268D01*
X214741241Y-91581939D01*
X214680113Y-91545829D01*
X214652333Y-91498729D01*
X213566487Y-88156838D01*
X213564459Y-88085870D01*
X213601122Y-88025073D01*
X213653769Y-88000932D01*
X213652636Y-87997439D01*
X213912180Y-87913229D01*
X213983149Y-87911232D01*
X214043931Y-87947920D01*
G37*
G36*
X231122634Y-92199971D02*
G01*
X231162612Y-92235624D01*
X231425939Y-92598064D01*
X231449798Y-92664932D01*
X231433717Y-92734084D01*
X231398064Y-92774061D01*
X228123162Y-95153413D01*
X228056294Y-95177272D01*
X227987143Y-95161191D01*
X227947165Y-95125538D01*
X227683837Y-94763097D01*
X227659978Y-94696229D01*
X227676059Y-94627077D01*
X227711712Y-94587100D01*
X230986615Y-92207749D01*
X231053483Y-92183890D01*
X231122634Y-92199971D01*
G37*
G36*
X249052914Y-130470191D02*
G01*
X249317393Y-130555832D01*
X249376039Y-130595847D01*
X249403741Y-130661215D01*
X249398410Y-130714640D01*
X248244988Y-134264506D01*
X248204915Y-134323112D01*
X248139518Y-134350749D01*
X248086221Y-134345404D01*
X247821826Y-134259503D01*
X247763220Y-134219431D01*
X247735582Y-134154035D01*
X247740927Y-134100733D01*
X248894265Y-130551127D01*
X248934338Y-130492521D01*
X248999735Y-130464884D01*
X249052914Y-130470191D01*
G37*
G36*
X234941092Y-102740002D02*
G01*
X234987585Y-102793658D01*
X234998971Y-102846029D01*
X234998908Y-103124029D01*
X234978891Y-103192145D01*
X234925224Y-103238625D01*
X234872908Y-103250000D01*
X230447447Y-103250000D01*
X230379326Y-103229998D01*
X230332833Y-103176342D01*
X230321447Y-103123971D01*
X230321510Y-102845974D01*
X230326533Y-102845975D01*
X230325409Y-102814894D01*
X230361609Y-102753820D01*
X230425081Y-102722012D01*
X230447509Y-102720000D01*
X234872971Y-102720000D01*
X234941092Y-102740002D01*
G37*
G36*
X260478339Y-126724724D02*
G01*
X260518396Y-126760486D01*
X260679350Y-126982520D01*
X260676486Y-126984596D01*
X260702153Y-127027596D01*
X260699807Y-127098554D01*
X260654211Y-127161015D01*
X257216969Y-129658317D01*
X257150101Y-129682176D01*
X257080950Y-129666095D01*
X257042746Y-129624641D01*
X257039428Y-129627056D01*
X256878064Y-129405284D01*
X256854159Y-129338433D01*
X256870191Y-129269270D01*
X256905887Y-129229216D01*
X260342320Y-126732502D01*
X260409188Y-126708643D01*
X260478339Y-126724724D01*
G37*
G36*
X240434000Y-120550003D02*
G01*
X240502121Y-120570005D01*
X240548614Y-120623661D01*
X240560000Y-120676003D01*
X240560001Y-121124002D01*
X240539999Y-121192123D01*
X240486344Y-121238616D01*
X240434001Y-121250002D01*
X236386000Y-121250000D01*
X236317879Y-121229998D01*
X236271386Y-121176342D01*
X236260000Y-121124000D01*
X236260000Y-120675999D01*
X236280002Y-120607878D01*
X236333658Y-120561385D01*
X236386000Y-120549999D01*
X240434000Y-120550003D01*
G37*
G36*
X234674000Y-101500004D02*
G01*
X234742121Y-101520006D01*
X234788614Y-101573662D01*
X234800000Y-101626004D01*
X234800001Y-102074003D01*
X234779999Y-102142124D01*
X234726344Y-102188617D01*
X234674001Y-102200003D01*
X230626000Y-102200001D01*
X230557879Y-102179999D01*
X230511386Y-102126343D01*
X230500000Y-102074001D01*
X230500000Y-101626000D01*
X230520002Y-101557879D01*
X230573658Y-101511386D01*
X230626000Y-101500000D01*
X234674000Y-101500004D01*
G37*
G36*
X263869728Y-111154851D02*
G01*
X263871109Y-111154851D01*
X263871109Y-111155205D01*
X263938407Y-111172456D01*
X263986731Y-111224468D01*
X264000000Y-111280751D01*
X264000000Y-113120681D01*
X263979998Y-113188802D01*
X263926342Y-113235295D01*
X263882703Y-113246380D01*
X263828327Y-113250145D01*
X263819624Y-113250446D01*
X263326000Y-113250446D01*
X263257879Y-113230444D01*
X263211386Y-113176788D01*
X263200000Y-113124446D01*
X263200000Y-111280881D01*
X263220002Y-111212760D01*
X263273658Y-111166267D01*
X263325993Y-111154881D01*
X263868938Y-111154851D01*
X263869634Y-111154827D01*
X263869728Y-111154851D01*
G37*
G36*
X214449641Y-94264721D02*
G01*
X214489618Y-94300374D01*
X214752946Y-94662811D01*
X214776804Y-94729678D01*
X214760724Y-94798830D01*
X214725071Y-94838808D01*
X212121000Y-96730774D01*
X212054132Y-96754633D01*
X211984981Y-96738552D01*
X211945003Y-96702899D01*
X211681675Y-96340458D01*
X211657816Y-96273590D01*
X211673897Y-96204438D01*
X211709550Y-96164461D01*
X214313621Y-94272499D01*
X214380489Y-94248640D01*
X214449641Y-94264721D01*
G37*
G36*
X260592572Y-127689775D02*
G01*
X260632550Y-127725428D01*
X260895877Y-128087868D01*
X260919736Y-128154736D01*
X260903655Y-128223888D01*
X260868002Y-128263865D01*
X258190844Y-130208931D01*
X258123976Y-130232790D01*
X258054825Y-130216709D01*
X258014847Y-130181056D01*
X257751519Y-129818615D01*
X257727660Y-129751747D01*
X257743741Y-129682595D01*
X257779394Y-129642618D01*
X260456553Y-127697553D01*
X260523421Y-127673694D01*
X260592572Y-127689775D01*
G37*
G36*
X240592025Y-119540002D02*
G01*
X240638518Y-119593658D01*
X240649904Y-119646028D01*
X240649842Y-119924028D01*
X240629825Y-119992144D01*
X240576159Y-120038625D01*
X240523842Y-120050000D01*
X236275871Y-120050000D01*
X236207750Y-120029998D01*
X236161257Y-119976342D01*
X236149871Y-119923972D01*
X236149933Y-119645972D01*
X236169950Y-119577856D01*
X236223616Y-119531375D01*
X236275933Y-119520000D01*
X240523904Y-119520000D01*
X240592025Y-119540002D01*
G37*
G36*
X224643971Y-87617913D02*
G01*
X225070043Y-87756351D01*
X225128649Y-87796424D01*
X225156286Y-87861821D01*
X225150940Y-87915120D01*
X223900037Y-91764998D01*
X223859964Y-91823604D01*
X223794567Y-91851241D01*
X223741268Y-91845895D01*
X223315194Y-91707455D01*
X223256588Y-91667382D01*
X223228951Y-91601985D01*
X223234297Y-91548686D01*
X224485202Y-87698810D01*
X224525276Y-87640204D01*
X224590672Y-87612567D01*
X224643971Y-87617913D01*
G37*
G36*
X232445150Y-94020260D02*
G01*
X232485128Y-94055913D01*
X232748456Y-94418350D01*
X232772314Y-94485217D01*
X232756234Y-94554369D01*
X232720581Y-94594347D01*
X229445678Y-96973702D01*
X229378810Y-96997561D01*
X229309659Y-96981480D01*
X229269681Y-96945827D01*
X229006353Y-96583386D01*
X228982494Y-96516518D01*
X228998575Y-96447366D01*
X229034228Y-96407389D01*
X232309131Y-94028038D01*
X232375999Y-94004179D01*
X232445150Y-94020260D01*
G37*
G36*
X259192121Y-106690002D02*
G01*
X259238614Y-106743658D01*
X259250000Y-106796000D01*
X259250000Y-107074000D01*
X259229998Y-107142121D01*
X259176342Y-107188614D01*
X259124000Y-107200000D01*
X252977581Y-107200000D01*
X252909460Y-107179998D01*
X252862967Y-107126342D01*
X252851581Y-107073953D01*
X252851685Y-106795953D01*
X252871713Y-106727840D01*
X252925386Y-106681367D01*
X252977685Y-106670000D01*
X259124000Y-106670000D01*
X259192121Y-106690002D01*
G37*
G36*
X259104277Y-118520002D02*
G01*
X259150770Y-118573658D01*
X259162156Y-118626046D01*
X259162055Y-118904046D01*
X259142028Y-118972159D01*
X259088356Y-119018633D01*
X259036055Y-119030000D01*
X253076000Y-119030000D01*
X253007879Y-119009998D01*
X252961386Y-118956342D01*
X252950000Y-118904000D01*
X252950000Y-118626000D01*
X252970002Y-118557879D01*
X253023658Y-118511386D01*
X253076000Y-118500000D01*
X259036156Y-118500000D01*
X259104277Y-118520002D01*
G37*
G36*
X259192121Y-108290002D02*
G01*
X259238614Y-108343658D01*
X259250000Y-108396000D01*
X259250000Y-108674000D01*
X259229998Y-108742121D01*
X259176342Y-108788614D01*
X259124000Y-108800000D01*
X252976976Y-108800000D01*
X252908855Y-108779998D01*
X252862362Y-108726342D01*
X252850976Y-108673952D01*
X252851081Y-108395952D01*
X252871109Y-108327839D01*
X252924782Y-108281367D01*
X252977081Y-108270000D01*
X259124000Y-108270000D01*
X259192121Y-108290002D01*
G37*
G36*
X213255749Y-92350980D02*
G01*
X213295727Y-92386633D01*
X213559054Y-92749073D01*
X213582913Y-92815941D01*
X213566832Y-92885093D01*
X213531179Y-92925070D01*
X210760668Y-94937960D01*
X210693800Y-94961819D01*
X210624649Y-94945738D01*
X210584671Y-94910085D01*
X210321343Y-94547644D01*
X210297484Y-94480776D01*
X210313565Y-94411624D01*
X210349218Y-94371647D01*
X213119730Y-92358758D01*
X213186598Y-92334899D01*
X213255749Y-92350980D01*
G37*
G36*
X222504095Y-86922623D02*
G01*
X222930168Y-87061064D01*
X222988773Y-87101138D01*
X223016410Y-87166534D01*
X223011064Y-87219833D01*
X221760161Y-91069708D01*
X221720088Y-91128314D01*
X221654691Y-91155951D01*
X221601392Y-91150605D01*
X221175317Y-91012165D01*
X221116711Y-90972092D01*
X221089074Y-90906695D01*
X221094420Y-90853396D01*
X222345325Y-87003520D01*
X222385399Y-86944914D01*
X222450795Y-86917277D01*
X222504095Y-86922623D01*
G37*
G36*
X242950706Y-126633940D02*
G01*
X242990702Y-126669618D01*
X243150847Y-126890151D01*
X243148381Y-126891942D01*
X243174956Y-126936392D01*
X243172660Y-127007352D01*
X243127036Y-127069898D01*
X239196323Y-129925728D01*
X239129455Y-129949587D01*
X239060304Y-129933506D01*
X239020070Y-129889815D01*
X239017482Y-129891694D01*
X238858025Y-129672108D01*
X238834183Y-129605235D01*
X238850280Y-129536087D01*
X238885918Y-129496136D01*
X242814687Y-126641718D01*
X242881555Y-126617859D01*
X242950706Y-126633940D01*
G37*
G36*
X234674000Y-103750003D02*
G01*
X234742121Y-103770005D01*
X234788614Y-103823661D01*
X234800000Y-103876003D01*
X234800001Y-104324002D01*
X234779999Y-104392123D01*
X234726344Y-104438616D01*
X234674001Y-104450002D01*
X230626000Y-104450000D01*
X230557879Y-104429998D01*
X230511386Y-104376342D01*
X230500000Y-104324000D01*
X230500000Y-103875999D01*
X230520002Y-103807878D01*
X230573658Y-103761385D01*
X230626000Y-103749999D01*
X234674000Y-103750003D01*
G37*
G36*
X259103494Y-120690002D02*
G01*
X259149987Y-120743658D01*
X259161373Y-120796046D01*
X259161272Y-121074046D01*
X259141245Y-121142159D01*
X259087573Y-121188633D01*
X259035272Y-121200000D01*
X253076000Y-121200000D01*
X253007879Y-121179998D01*
X252961386Y-121126342D01*
X252950000Y-121074000D01*
X252950000Y-120796000D01*
X252970002Y-120727879D01*
X253023658Y-120681386D01*
X253076000Y-120670000D01*
X259035373Y-120670000D01*
X259103494Y-120690002D01*
G37*
G36*
X237140366Y-110088272D02*
G01*
X237180382Y-110123977D01*
X237343670Y-110348966D01*
X237367494Y-110415846D01*
X237351378Y-110484990D01*
X237315757Y-110524911D01*
X234325071Y-112697771D01*
X234258203Y-112721630D01*
X234189052Y-112705549D01*
X234149036Y-112669843D01*
X233985748Y-112444853D01*
X233961924Y-112377973D01*
X233978040Y-112308830D01*
X234013661Y-112268909D01*
X237004347Y-110096050D01*
X237071215Y-110072191D01*
X237140366Y-110088272D01*
G37*
G36*
X236687375Y-108909389D02*
G01*
X236727353Y-108945042D01*
X236990680Y-109307482D01*
X237014539Y-109374350D01*
X236998458Y-109443502D01*
X236962805Y-109483479D01*
X233687903Y-111862831D01*
X233621035Y-111886690D01*
X233551884Y-111870609D01*
X233511906Y-111834956D01*
X233248578Y-111472515D01*
X233224719Y-111405647D01*
X233240800Y-111336495D01*
X233276453Y-111296518D01*
X236551356Y-108917167D01*
X236618224Y-108893308D01*
X236687375Y-108909389D01*
G37*
G36*
X223683991Y-87239490D02*
G01*
X223919699Y-87316219D01*
X223925298Y-87316885D01*
X223990581Y-87344789D01*
X224030414Y-87403558D01*
X224030256Y-87480940D01*
X222715242Y-91528139D01*
X222675169Y-91586745D01*
X222609772Y-91614382D01*
X222533782Y-91599104D01*
X222526778Y-91595176D01*
X222293293Y-91519171D01*
X222234709Y-91479065D01*
X222207108Y-91413653D01*
X222212462Y-91360423D01*
X223525156Y-87320366D01*
X223565229Y-87261760D01*
X223630626Y-87234123D01*
X223683991Y-87239490D01*
G37*
G36*
X256877970Y-131898567D02*
G01*
X256904939Y-131944792D01*
X257938997Y-135127294D01*
X257941025Y-135198261D01*
X257904362Y-135259059D01*
X257858052Y-135286079D01*
X257593624Y-135371879D01*
X257522655Y-135373878D01*
X257461872Y-135337191D01*
X257434903Y-135290966D01*
X256400845Y-132108464D01*
X256398817Y-132037497D01*
X256435480Y-131976699D01*
X256481790Y-131949679D01*
X256746218Y-131863879D01*
X256817187Y-131861880D01*
X256877970Y-131898567D01*
G37*
G36*
X213061932Y-88323571D02*
G01*
X213088936Y-88369833D01*
X214153303Y-91645626D01*
X214155330Y-91716594D01*
X214118668Y-91777391D01*
X214072407Y-91804395D01*
X213646331Y-91942837D01*
X213575363Y-91944865D01*
X213514565Y-91908202D01*
X213487561Y-91861940D01*
X212423197Y-88586144D01*
X212421170Y-88515176D01*
X212457832Y-88454378D01*
X212504094Y-88427375D01*
X212930167Y-88288936D01*
X213001135Y-88286909D01*
X213061932Y-88323571D01*
G37*
G36*
X213989517Y-93325864D02*
G01*
X214029527Y-93361561D01*
X214192834Y-93586538D01*
X214216664Y-93653416D01*
X214200553Y-93722561D01*
X214164927Y-93762491D01*
X211346239Y-95810387D01*
X211279371Y-95834246D01*
X211210220Y-95818165D01*
X211170210Y-95782468D01*
X211006903Y-95557492D01*
X210983073Y-95490614D01*
X210999184Y-95421470D01*
X211034810Y-95381539D01*
X213853498Y-93333642D01*
X213920366Y-93309783D01*
X213989517Y-93325864D01*
G37*
G36*
X231923679Y-93125977D02*
G01*
X231963682Y-93161664D01*
X232127011Y-93386624D01*
X232150847Y-93453500D01*
X232134743Y-93522646D01*
X232099111Y-93562587D01*
X228662176Y-96059666D01*
X228595308Y-96083525D01*
X228526157Y-96067444D01*
X228486154Y-96031757D01*
X228322825Y-95806797D01*
X228298989Y-95739921D01*
X228315093Y-95670775D01*
X228350725Y-95630834D01*
X231787660Y-93133755D01*
X231854528Y-93109896D01*
X231923679Y-93125977D01*
G37*
G36*
X215201808Y-87628284D02*
G01*
X215228812Y-87674546D01*
X216305604Y-90988570D01*
X216307632Y-91059537D01*
X216270969Y-91120335D01*
X216224707Y-91147339D01*
X215798632Y-91285778D01*
X215727664Y-91287805D01*
X215666866Y-91251143D01*
X215639863Y-91204881D01*
X214563074Y-87890858D01*
X214561047Y-87819890D01*
X214597709Y-87759093D01*
X214643971Y-87732089D01*
X215070043Y-87593649D01*
X215141010Y-87591621D01*
X215201808Y-87628284D01*
G37*
G36*
X267423379Y-109486510D02*
G01*
X267459876Y-109523970D01*
X268264219Y-110797513D01*
X268283683Y-110865789D01*
X268263145Y-110933750D01*
X268223881Y-110972008D01*
X267830428Y-111214930D01*
X267761957Y-111233697D01*
X267694209Y-111212467D01*
X267656925Y-111173754D01*
X266867506Y-109890948D01*
X266848839Y-109822450D01*
X266870169Y-109754733D01*
X266908631Y-109717694D01*
X267287160Y-109484035D01*
X267355633Y-109465274D01*
X267423379Y-109486510D01*
G37*
G36*
X237659122Y-110984529D02*
G01*
X237699099Y-111020182D01*
X237962427Y-111382619D01*
X237986285Y-111449486D01*
X237970205Y-111518638D01*
X237934552Y-111558616D01*
X235206771Y-113540462D01*
X235139903Y-113564321D01*
X235070752Y-113548240D01*
X235030774Y-113512587D01*
X234767446Y-113150146D01*
X234743587Y-113083278D01*
X234759668Y-113014126D01*
X234795321Y-112974149D01*
X237523102Y-110992307D01*
X237589970Y-110968448D01*
X237659122Y-110984529D01*
G37*
M02*
