M48
; DRILL file {KiCad (6.0.1)} date Sun May 29 23:08:36 2022
; FORMAT={-:-/ absolute / inch / decimal}
; #@! TF.CreationDate,2022-05-29T23:08:36-04:00
; #@! TF.GenerationSoftware,Kicad,Pcbnew,(6.0.1)
; #@! TF.FileFunction,MixedPlating,1,2
FMAT,2
INCH
; #@! TA.AperFunction,Plated,PTH,ViaDrill
T1C0.0059
; #@! TA.AperFunction,Plated,PTH,ComponentDrill
T2C0.0276
; #@! TA.AperFunction,Plated,PTH,ComponentDrill
T3C0.0315
; #@! TA.AperFunction,NonPlated,NPTH,ComponentDrill
T4C0.0787
%
G90
G05
T1
X8.4299Y-3.9051
X8.5673Y-3.9106
X9.102Y-4.2047
X9.2169Y-4.2957
X9.239Y-4.2055
X9.2669Y-4.5323
X9.3004Y-4.861
X9.4055Y-4.8453
X9.4811Y-4.6496
X9.4909Y-5.2055
X9.5039Y-5.1524
X9.5303Y-2.8406
X9.5524Y-2.8681
X9.5717Y-2.9102
X9.5835Y-3.2189
X9.5913Y-2.9496
X9.611Y-2.989
X9.6126Y-3.2717
X9.6311Y-2.8681
X9.6335Y-5.1378
X9.6339Y-5.3461
X9.6346Y-3.0323
X9.6402Y-3.3303
X9.652Y-3.0689
X9.661Y-3.3693
X9.6693Y-3.1035
X9.6728Y-5.1791
X9.6764Y-5.1264
X9.6807Y-5.0646
X9.7209Y-5.2961
X9.7685Y-5.148
X9.8161Y-4.3642
X9.8315Y-4.3425
X9.8625Y-5.3342
X9.8961Y-5.2661
X9.902Y-4.478
X9.9035Y-5.2256
X9.9087Y-4.4138
X9.9382Y-4.8697
X9.9387Y-4.5023
X9.9417Y-4.6142
X9.9496Y-4.9972
X9.9591Y-4.5492
X9.9622Y-4.8819
X9.9673Y-4.3063
X9.9689Y-5.4315
X9.9811Y-4.8425
X9.9846Y-4.5807
X9.9882Y-5.3583
X9.9984Y-4.3008
X10.0024Y-4.9476
X10.0106Y-4.8335
X10.0256Y-5.2476
X10.0299Y-4.6272
X10.035Y-4.3579
X10.0366Y-5.3724
X10.0531Y-4.339
X10.0705Y-4.3224
X10.0705Y-4.4476
X10.0705Y-4.8106
X10.0732Y-5.2339
X10.0736Y-4.3701
X10.0783Y-4.5118
X10.0795Y-4.563
X10.0858Y-4.8295
X10.0906Y-4.3516
X10.0909Y-4.9795
X10.0917Y-5.0547
X10.0965Y-4.3173
X10.1079Y-4.3693
X10.1193Y-4.9791
X10.1252Y-4.3173
X10.128Y-4.3516
X10.1461Y-4.3709
X10.1484Y-4.8055
X10.1512Y-5.185
X10.1614Y-4.5961
X10.1661Y-4.3524
X10.1756Y-4.3933
X10.1764Y-4.5776
X10.189Y-4.3717
X10.1894Y-5.163
X10.1953Y-4.3039
X10.2098Y-4.3965
X10.2102Y-5.1484
X10.2134Y-5.2374
X10.2165Y-5.1957
X10.2201Y-4.3232
X10.2256Y-4.426
X10.2272Y-4.9012
X10.2272Y-5.3287
X10.239Y-4.3488
X10.2575Y-5.228
X10.2594Y-4.4602
X10.2634Y-4.3764
X10.2732Y-5.0831
X10.289Y-4.3937
X10.289Y-4.4358
X10.3004Y-5.0996
X10.3177Y-4.3941
X10.3177Y-4.4358
X10.3465Y-4.3937
X10.3465Y-4.4358
X10.3772Y-5.2276
X10.4094Y-4.4331
T2
X9.3736Y-5.0606
X9.5425Y-4.937
T4
X9.3759Y-2.7252
X9.3759Y-3.5126
T3
G00X9.9543Y-4.013
M15
G01X9.9543Y-4.0602
M16
G05
G00X10.2063Y-4.013
M15
G01X10.2063Y-4.0602
M16
G05
T0
M30
