G04 #@! TF.GenerationSoftware,KiCad,Pcbnew,(5.1.10)-1*
G04 #@! TF.CreationDate,2021-06-26T09:27:45-04:00*
G04 #@! TF.ProjectId,Main,4d61696e-2e6b-4696-9361-645f70636258,5*
G04 #@! TF.SameCoordinates,Original*
G04 #@! TF.FileFunction,Profile,NP*
%FSLAX46Y46*%
G04 Gerber Fmt 4.6, Leading zero omitted, Abs format (unit mm)*
G04 Created by KiCad (PCBNEW (5.1.10)-1) date 2021-06-26 09:27:45*
%MOMM*%
%LPD*%
G01*
G04 APERTURE LIST*
G04 #@! TA.AperFunction,Profile*
%ADD10C,0.250000*%
G04 #@! TD*
G04 APERTURE END LIST*
D10*
X122910000Y-98430495D02*
X122910000Y-97894226D01*
X122270000Y-98800000D02*
X122910000Y-98430495D01*
X122270000Y-99158231D02*
X122270000Y-98800000D01*
X122784974Y-99455551D02*
X122270000Y-99158231D01*
X122124226Y-100600000D02*
X122784974Y-99455551D01*
X132000000Y-115173046D02*
X132000000Y-117283811D01*
X131210000Y-114804663D02*
X132000000Y-115173046D01*
X131210000Y-114476824D02*
X131210000Y-114804663D01*
X131881182Y-114089317D02*
X131210000Y-114476824D01*
X131299724Y-113082202D02*
X131881182Y-114089317D01*
X130683205Y-113438149D02*
X131299724Y-113082202D01*
X130360000Y-113251546D02*
X130683205Y-113438149D01*
X130360000Y-112423619D02*
X130360000Y-113251546D01*
X130006883Y-112219747D02*
X130360000Y-112423619D01*
X177360000Y-109955692D02*
X177360000Y-112005773D01*
X176650000Y-109545773D02*
X177360000Y-109955692D01*
X176650000Y-109204144D02*
X176650000Y-109545773D01*
X177350000Y-108800000D02*
X176650000Y-109204144D01*
X177350000Y-108350000D02*
X177350000Y-108800000D01*
X158800599Y-100556867D02*
X159350456Y-99604486D01*
X149390000Y-104355773D02*
X150262409Y-104859458D01*
X164000000Y-104748786D02*
X164000000Y-105121961D01*
X164760000Y-104310000D02*
X164000000Y-104748786D01*
X164760000Y-103919835D02*
X164760000Y-104310000D01*
X163339116Y-103099488D02*
X164760000Y-103919835D01*
X165590000Y-102818858D02*
X165285877Y-102994443D01*
X165590000Y-101510000D02*
X165590000Y-102818858D01*
X167013614Y-102945555D02*
X166710000Y-102734335D01*
X167829323Y-102474605D02*
X167013614Y-102945555D01*
X169634833Y-103517017D02*
X167829323Y-102474605D01*
X172990000Y-99531465D02*
X172990000Y-99958149D01*
X173730000Y-99104226D02*
X172990000Y-99531465D01*
X173730000Y-98678480D02*
X173730000Y-99104226D01*
X172784274Y-98132465D02*
X173730000Y-98678480D01*
X174600000Y-97599998D02*
X174352415Y-97742941D01*
X175700000Y-97555245D02*
X175700000Y-96400000D01*
X176056817Y-97761253D02*
X175700000Y-97555245D01*
X176580000Y-99039667D02*
X176580000Y-98711547D01*
X177360000Y-99490000D02*
X176580000Y-99039667D01*
X177360000Y-99970132D02*
X177360000Y-99490000D01*
X182641260Y-102573486D02*
X182255203Y-102796376D01*
X183369669Y-102994034D02*
X182641260Y-102573486D01*
X183710000Y-102835336D02*
X183369669Y-102994034D01*
X185110773Y-103017493D02*
X184790000Y-102794338D01*
X185660000Y-104326541D02*
X185660000Y-104003094D01*
X187444526Y-105356837D02*
X185660000Y-104326541D01*
X185097223Y-105292623D02*
X186885506Y-106325088D01*
X184800000Y-105464226D02*
X185097223Y-105292623D01*
X184800000Y-106390000D02*
X184800000Y-105464226D01*
X183690000Y-105473203D02*
X183690000Y-106390000D01*
X183353702Y-105316385D02*
X183690000Y-105473203D01*
X182629176Y-105734690D02*
X183353702Y-105316385D01*
X182254511Y-105518378D02*
X182629176Y-105734690D01*
X185862381Y-95260160D02*
X186251891Y-95035277D01*
X185098563Y-94819170D02*
X185862381Y-95260160D01*
X184800000Y-94991546D02*
X185098563Y-94819170D01*
X183384968Y-94801318D02*
X183710000Y-94988975D01*
X182398857Y-95370650D02*
X183384968Y-94801318D01*
X182820000Y-93870000D02*
X181854342Y-94427522D01*
X182820000Y-93516106D02*
X182820000Y-93870000D01*
X182041025Y-93066365D02*
X182820000Y-93516106D01*
X182041025Y-90980400D02*
X182041025Y-93066365D01*
X176768720Y-90026500D02*
X177184210Y-89786616D01*
X176035216Y-89603011D02*
X176768720Y-90026500D01*
X175700000Y-89759326D02*
X176035216Y-89603011D01*
X175700000Y-91100000D02*
X175700000Y-89759326D01*
X174620000Y-89748541D02*
X174620000Y-91100000D01*
X174267523Y-89584178D02*
X174620000Y-89748541D01*
X173511759Y-90020519D02*
X174267523Y-89584178D01*
X172879967Y-89655754D02*
X173511759Y-90020519D01*
X168310000Y-93028120D02*
X168310000Y-92294226D01*
X167510000Y-93490000D02*
X168310000Y-93028120D01*
X167510000Y-93828005D02*
X167510000Y-93490000D01*
X168559297Y-94433817D02*
X167510000Y-93828005D01*
X166979544Y-94769737D02*
X168018902Y-95369810D01*
X166660000Y-94954226D02*
X166979544Y-94769737D01*
X166660000Y-96090000D02*
X166660000Y-94954226D01*
X165560000Y-94988976D02*
X165560000Y-96090000D01*
X165252023Y-94811165D02*
X165560000Y-94988976D01*
X164450656Y-95273835D02*
X165252023Y-94811165D01*
X162676135Y-94249315D02*
X164450656Y-95273835D01*
X159190000Y-98355855D02*
X159190000Y-97874225D01*
X158480000Y-98765773D02*
X159190000Y-98355855D01*
X158480000Y-99101929D02*
X158480000Y-98765773D01*
X159350456Y-99604486D02*
X158480000Y-99101929D01*
X157950330Y-100065964D02*
X158800599Y-100556867D01*
X157620000Y-100220000D02*
X157950330Y-100065964D01*
X157620000Y-101110000D02*
X157620000Y-100220000D01*
X156510000Y-100238540D02*
X156510000Y-101110000D01*
X156172637Y-100081225D02*
X156510000Y-100238540D01*
X155439009Y-100504786D02*
X156172637Y-100081225D01*
X154764897Y-100115587D02*
X155439009Y-100504786D01*
X150150000Y-102780000D02*
X150150000Y-103551214D01*
X149390000Y-103990000D02*
X150150000Y-103551214D01*
X149390000Y-104355773D02*
X149390000Y-103990000D01*
X148812224Y-105315510D02*
X149702386Y-105829445D01*
X148530000Y-105478452D02*
X148812224Y-105315510D01*
X148530000Y-106830000D02*
X148530000Y-105478452D01*
X147440000Y-105537843D02*
X147440000Y-106830000D01*
X147101043Y-105342146D02*
X147440000Y-105537843D01*
X146361714Y-105768998D02*
X147101043Y-105342146D01*
X144517552Y-104704271D02*
X146361714Y-105768998D01*
X140336760Y-118172353D02*
X142290491Y-119300341D01*
X139698554Y-118540822D02*
X140336760Y-118172353D01*
X139400000Y-118368452D02*
X139698554Y-118540822D01*
X139400000Y-117470000D02*
X139400000Y-118368452D01*
X138330000Y-118313689D02*
X138330000Y-117470000D01*
X137983457Y-118513764D02*
X138330000Y-118313689D01*
X137431146Y-118194888D02*
X137983457Y-118513764D01*
X136901376Y-118500752D02*
X137431146Y-118194888D01*
X141070100Y-108761155D02*
X141033928Y-108347715D01*
X140300000Y-109205773D02*
X141070100Y-108761155D01*
X140300000Y-109571706D02*
X140300000Y-109205773D01*
X141725683Y-110394825D02*
X140300000Y-109571706D01*
X141171400Y-111354872D02*
X141725683Y-110394825D01*
X139775443Y-110548916D02*
X141171400Y-111354872D01*
X139450000Y-110700673D02*
X139775443Y-110548916D01*
X139450000Y-112710000D02*
X139450000Y-110700673D01*
X138340000Y-112710000D02*
X139450000Y-112710000D01*
X138340000Y-110710522D02*
X138340000Y-112710000D01*
X138013074Y-110521771D02*
X138340000Y-110710522D01*
X136418366Y-111442476D02*
X138013074Y-110521771D01*
X135874128Y-110499829D02*
X136418366Y-111442476D01*
X137450000Y-109590000D02*
X135874128Y-110499829D01*
X137450000Y-109217236D02*
X137450000Y-109590000D01*
X136702468Y-108785648D02*
X137450000Y-109217236D01*
X137265624Y-107810234D02*
X136702468Y-108785648D01*
X138010455Y-108240262D02*
X137265624Y-107810234D01*
X138330000Y-108055773D02*
X138010455Y-108240262D01*
X138330000Y-107203782D02*
X138330000Y-108055773D01*
X140100000Y-106181873D02*
X138330000Y-107203782D01*
X131250000Y-104300000D02*
X131780557Y-104606317D01*
X128390000Y-103995773D02*
X128007227Y-103774779D01*
X130350000Y-105894226D02*
X128590000Y-106910362D01*
X130350000Y-105466286D02*
X130350000Y-105894226D01*
X130703844Y-105261994D02*
X130350000Y-105466286D01*
X131227463Y-105564305D02*
X130703844Y-105261994D01*
X131250000Y-103864426D02*
X131250000Y-104300000D01*
X131276057Y-102723175D02*
X131763719Y-103567830D01*
X130390000Y-102871546D02*
X130704536Y-103053143D01*
X130390000Y-102230000D02*
X130390000Y-102871546D01*
X129280000Y-102861009D02*
X129280000Y-102230000D01*
X128977839Y-103035461D02*
X129280000Y-102861009D01*
X128570014Y-102800004D02*
X128977839Y-103035461D01*
X128007227Y-103774779D02*
X128570014Y-102800004D01*
X128390000Y-104344833D02*
X128390000Y-103995773D01*
X127990000Y-104575773D02*
X128390000Y-104344833D01*
X127990000Y-105010000D02*
X127990000Y-104575773D01*
X138160000Y-101000000D02*
X138693834Y-101308209D01*
X138160000Y-100334749D02*
X138160000Y-101000000D01*
X137837477Y-100148540D02*
X138160000Y-100334749D01*
X137365016Y-100421316D02*
X137837477Y-100148540D01*
X136808756Y-99457846D02*
X137365016Y-100421316D01*
X137290000Y-99180000D02*
X136808756Y-99457846D01*
X137290000Y-98820636D02*
X137290000Y-99180000D01*
X136710000Y-98485773D02*
X137290000Y-98820636D01*
X136710000Y-97839149D02*
X136710000Y-98485773D01*
X131243458Y-95347991D02*
X131819323Y-95015515D01*
X130715862Y-95043384D02*
X131243458Y-95347991D01*
X130390000Y-95195336D02*
X130715862Y-95043384D01*
X130390000Y-95740000D02*
X130390000Y-95195336D01*
X129270000Y-95740000D02*
X130390000Y-95740000D01*
X129270000Y-95214748D02*
X129270000Y-95740000D01*
X128958101Y-95034674D02*
X129270000Y-95214748D01*
X128373597Y-95372137D02*
X128958101Y-95034674D01*
X126423596Y-94246303D02*
X128373597Y-95372137D01*
X183690000Y-106390000D02*
X184800000Y-106390000D01*
X165560000Y-96090000D02*
X166660000Y-96090000D01*
X153489296Y-107993815D02*
X153542534Y-108024551D01*
X154040575Y-107038973D02*
X153489296Y-107993815D01*
X154110853Y-107071745D02*
X154040575Y-107038973D01*
X144935779Y-112312689D02*
X145043463Y-112362902D01*
X144361505Y-113307360D02*
X144935779Y-112312689D01*
X144464228Y-113366667D02*
X144361505Y-113307360D01*
X131780557Y-104606317D02*
X131227463Y-105564305D01*
X131763719Y-103567830D02*
X131250000Y-103864426D01*
X130704536Y-103053143D02*
X131276057Y-102723175D01*
X129280000Y-102230000D02*
X130390000Y-102230000D01*
X110994452Y-111936111D02*
X111242635Y-111936111D01*
X109689455Y-111595515D02*
X110235729Y-112246539D01*
X110331456Y-111145982D02*
X109689455Y-111595515D01*
X110331456Y-111145982D02*
X110994452Y-111936111D01*
X107078390Y-107300000D02*
X107647754Y-107978541D01*
X100191407Y-110150000D02*
X89454537Y-117668036D01*
X104546589Y-110150000D02*
X100191407Y-110150000D01*
X107647754Y-107978541D02*
X104546589Y-110150000D01*
X186600000Y-110251851D02*
X186600000Y-113419999D01*
X185280435Y-109490000D02*
X186600000Y-110251851D01*
X180953193Y-112439163D02*
X179618454Y-111668551D01*
X180953193Y-110757912D02*
X180953193Y-112439163D01*
X183149282Y-109490000D02*
X180953193Y-110757912D01*
X183149282Y-109490000D02*
X185280435Y-109490000D01*
X128590000Y-106910362D02*
X128590000Y-110850000D01*
X127990000Y-105010000D02*
X125016716Y-106726625D01*
X126686909Y-106191448D02*
X125202526Y-107048457D01*
X125202526Y-107048457D02*
X125016716Y-106726625D01*
X129602198Y-110850000D02*
X129602198Y-109130288D01*
X130006883Y-112219747D02*
X130006883Y-109130288D01*
X129602198Y-109130288D02*
X130006883Y-109130288D01*
X136901376Y-118500752D02*
X134247063Y-116968284D01*
X134044724Y-117318743D02*
X134247063Y-116968284D01*
X135538324Y-118181073D02*
X134044724Y-117318743D01*
X180892198Y-112897537D02*
X179404724Y-112038743D01*
X179404724Y-112038743D02*
X179618454Y-111668551D01*
X145377896Y-115876949D02*
X143116914Y-117182328D01*
X143322525Y-117538457D02*
X143116914Y-117182328D01*
X144807689Y-116680997D02*
X143322525Y-117538457D01*
X152422525Y-112238457D02*
X152210084Y-111870499D01*
X153907689Y-111380997D02*
X152422525Y-112238457D01*
X154467892Y-110566953D02*
X152210084Y-111870499D01*
X161472525Y-107048457D02*
X161270196Y-106698013D01*
X164000000Y-105121961D02*
X161270196Y-106698013D01*
X162960479Y-106189386D02*
X161472525Y-107048457D01*
X172032981Y-100977941D02*
X170542525Y-101838457D01*
X170542525Y-101838457D02*
X170340196Y-101488013D01*
X172990000Y-99958149D02*
X170340196Y-101488013D01*
X190287913Y-110881168D02*
X188455168Y-111939303D01*
X190151372Y-111438870D02*
X188662524Y-112298456D01*
X188662524Y-112298456D02*
X188455168Y-111939303D01*
X139098520Y-102650000D02*
X139098520Y-104367752D01*
X138693834Y-101308209D02*
X138693834Y-104367752D01*
X139098520Y-104367752D02*
X138693834Y-104367752D01*
X193080000Y-102250000D02*
X193080000Y-104357752D01*
X193498520Y-104357752D02*
X193080000Y-104357752D01*
X193498520Y-102637436D02*
X193498520Y-104357752D01*
X186251891Y-95035277D02*
X188874824Y-96549628D01*
X189077170Y-96199154D02*
X188874824Y-96549628D01*
X187588142Y-95339464D02*
X189077170Y-96199154D01*
X180007170Y-90949154D02*
X179804824Y-91299629D01*
X178514392Y-90087298D02*
X180007170Y-90949154D01*
X177184210Y-89786616D02*
X179804824Y-91299629D01*
X160121301Y-96869213D02*
X161608315Y-96010686D01*
X161608315Y-96010686D02*
X161810672Y-96361179D01*
X159190000Y-97874225D02*
X161810672Y-96361179D01*
X141969135Y-107340464D02*
X143458315Y-106480686D01*
X143458315Y-106480686D02*
X143660666Y-106831168D01*
X141033928Y-108347715D02*
X143660666Y-106831168D01*
X123841330Y-96889197D02*
X125328315Y-96030686D01*
X125328315Y-96030686D02*
X125530672Y-96381181D01*
X107078390Y-107300000D02*
X106350000Y-107300000D01*
X106350000Y-107300000D02*
X105657178Y-107700000D01*
X105657178Y-107700000D02*
X99150000Y-107700000D01*
X105647178Y-100600000D02*
X99140000Y-100600000D01*
X106340000Y-101000000D02*
X105647178Y-100600000D01*
X107129045Y-101000000D02*
X106340000Y-101000000D01*
X193533236Y-106787589D02*
X192353208Y-106106300D01*
X190001621Y-108194551D02*
X190001621Y-110385296D01*
X190001621Y-110385296D02*
X190287913Y-110881168D01*
X192353208Y-106106300D02*
X190634305Y-107098708D01*
X190634305Y-107098708D02*
X190001621Y-108194551D01*
X194513208Y-106221803D02*
X193533236Y-106787589D01*
X192509898Y-102250000D02*
X193080000Y-102250000D01*
X190612724Y-101154666D02*
X192509898Y-102250000D01*
X189980000Y-100058756D02*
X190612724Y-101154666D01*
X189980000Y-98073952D02*
X189980000Y-100058756D01*
X191160000Y-97392679D02*
X189980000Y-98073952D01*
X191160000Y-96260399D02*
X191160000Y-97392679D01*
X186600000Y-113419999D02*
X187666139Y-114035534D01*
X150602938Y-113691987D02*
X151263754Y-114073510D01*
X148767002Y-111070000D02*
X150602938Y-113691987D01*
X144464228Y-113366667D02*
X145377896Y-115876949D01*
X159692938Y-108381987D02*
X160437094Y-108811626D01*
X157850000Y-105750000D02*
X159692938Y-108381987D01*
X153542534Y-108024551D02*
X154467892Y-110566953D01*
X156400182Y-105750000D02*
X157850000Y-105750000D01*
X154110853Y-107071745D02*
X156400182Y-105750000D01*
X147282836Y-111070000D02*
X148767002Y-111070000D01*
X145043463Y-112362902D02*
X147282836Y-111070000D01*
X122910000Y-97894226D02*
X125530672Y-96381181D01*
X93744069Y-123794124D02*
X89454537Y-117668036D01*
X110235729Y-112246539D02*
X93744069Y-123794124D01*
X110350000Y-96400000D02*
X107129045Y-101000000D01*
X111312690Y-96400000D02*
X110350000Y-96400000D01*
X116180202Y-99786244D02*
X111312690Y-96400000D01*
X116750000Y-100600000D02*
X116180202Y-99786244D01*
X99140000Y-103180000D02*
X99140000Y-100600000D01*
X116137320Y-108508815D02*
X111242635Y-111936111D01*
X116700000Y-107700000D02*
X116137320Y-108508815D01*
X103870000Y-105080000D02*
X104100000Y-104850000D01*
X131819323Y-95015515D02*
X136710000Y-97839149D01*
X150150000Y-102780000D02*
X154764897Y-100115587D01*
X168310000Y-92294226D02*
X172879967Y-89655754D01*
X163465096Y-107063409D02*
X162960479Y-106189386D01*
X160437094Y-108811626D02*
X163465096Y-107063409D01*
X154412598Y-112255525D02*
X153907689Y-111380997D01*
X151263754Y-114073510D02*
X154412598Y-112255525D01*
X122150000Y-107700000D02*
X124109420Y-108831272D01*
X126423596Y-94246303D02*
X123342490Y-96025180D01*
X141464734Y-106466815D02*
X141969135Y-107340464D01*
X144517552Y-104704271D02*
X141464734Y-106466815D01*
X162676135Y-94249315D02*
X159625560Y-96010565D01*
X159625560Y-96010565D02*
X160121301Y-96869213D01*
X182041025Y-90980400D02*
X179009326Y-89230047D01*
X179009326Y-89230047D02*
X178514392Y-90087298D01*
X191160000Y-96260399D02*
X188082330Y-94483505D01*
X188082330Y-94483505D02*
X187588142Y-95339464D01*
X194513208Y-106221803D02*
X194513208Y-102637436D01*
X194513208Y-102637436D02*
X193498520Y-102637436D01*
X190654453Y-112310231D02*
X190151372Y-111438870D01*
X187666139Y-114035534D02*
X190654453Y-112310231D01*
X180395293Y-113758201D02*
X180892198Y-112897537D01*
X177360000Y-112005773D02*
X180395293Y-113758201D01*
X169634833Y-103517017D02*
X172532896Y-101843819D01*
X172532896Y-101843819D02*
X172032981Y-100977941D01*
X145312599Y-117555526D02*
X144807689Y-116680997D01*
X142290491Y-119300341D02*
X145312599Y-117555526D01*
X132000000Y-117283811D02*
X135042269Y-119040266D01*
X135042269Y-119040266D02*
X135538324Y-118181073D01*
X127185614Y-107055230D02*
X126686909Y-106191448D01*
X124109420Y-108831272D02*
X127185614Y-107055230D01*
X123342490Y-96025180D02*
X123841330Y-96889197D01*
X128590000Y-110850000D02*
X129602198Y-110850000D01*
X179750000Y-101350000D02*
X177360000Y-99970132D01*
X139400000Y-117470000D02*
X138330000Y-117470000D01*
X163871292Y-102177732D02*
X163339116Y-103099488D01*
X165285877Y-102994443D02*
X163871292Y-102177732D01*
X166710000Y-101510000D02*
X165590000Y-101510000D01*
X166710000Y-102734335D02*
X166710000Y-101510000D01*
X147440000Y-106830000D02*
X148530000Y-106830000D01*
X149702386Y-105829445D02*
X150262409Y-104859458D01*
X156510000Y-101110000D02*
X157620000Y-101110000D01*
X173344979Y-97161297D02*
X172784274Y-98132465D01*
X174352415Y-97742941D02*
X173344979Y-97161297D01*
X168018902Y-95369810D02*
X168559297Y-94433817D01*
X174620000Y-91100000D02*
X175700000Y-91100000D01*
X175700000Y-96400000D02*
X174600000Y-96400000D01*
X174600000Y-96400000D02*
X174600000Y-97599998D01*
X177403657Y-96983655D02*
X176056817Y-97761253D01*
X177945942Y-97922919D02*
X177403657Y-96983655D01*
X176580000Y-98711547D02*
X177945942Y-97922919D01*
X184790000Y-100800000D02*
X183710000Y-100800000D01*
X184790000Y-102794338D02*
X184790000Y-100800000D01*
X183710000Y-100800000D02*
X183710000Y-102835336D01*
X187224979Y-101796856D02*
X185110773Y-103017493D01*
X187789063Y-102773878D02*
X187224979Y-101796856D01*
X185660000Y-104003094D02*
X187789063Y-102773878D01*
X184800000Y-97050000D02*
X184800000Y-94991546D01*
X183710000Y-97050000D02*
X184800000Y-97050000D01*
X183710000Y-94988975D02*
X183710000Y-97050000D01*
X181854342Y-94427522D02*
X182398857Y-95370650D01*
X186885506Y-106325088D02*
X187444526Y-105356837D01*
X116750000Y-100600000D02*
X122124226Y-100600000D01*
X103879998Y-103180000D02*
X99140000Y-103180000D01*
X104100000Y-103400000D02*
X103879998Y-103180000D01*
X104100000Y-104850000D02*
X104100000Y-103400000D01*
X99150000Y-105080000D02*
X103870000Y-105080000D01*
X99150000Y-107700000D02*
X99150000Y-105080000D01*
X122150000Y-107700000D02*
X116700000Y-107700000D01*
X182255203Y-102796376D02*
X179750041Y-101350021D01*
X177350000Y-108350000D02*
X182254511Y-105518378D01*
X140100000Y-106181873D02*
X140100000Y-102650000D01*
X140100000Y-102650000D02*
X139098520Y-102650000D01*
M02*
