G04 #@! TF.GenerationSoftware,KiCad,Pcbnew,(5.1.10)-1*
G04 #@! TF.CreationDate,2021-06-26T09:27:45-04:00*
G04 #@! TF.ProjectId,Main,4d61696e-2e6b-4696-9361-645f70636258,5*
G04 #@! TF.SameCoordinates,Original*
G04 #@! TF.FileFunction,Paste,Top*
G04 #@! TF.FilePolarity,Positive*
%FSLAX46Y46*%
G04 Gerber Fmt 4.6, Leading zero omitted, Abs format (unit mm)*
G04 Created by KiCad (PCBNEW (5.1.10)-1) date 2021-06-26 09:27:45*
%MOMM*%
%LPD*%
G01*
G04 APERTURE LIST*
%ADD10C,0.100000*%
%ADD11R,0.600000X1.100000*%
%ADD12R,0.375000X0.350000*%
%ADD13R,0.350000X0.375000*%
%ADD14R,0.650000X1.060000*%
%ADD15C,0.254000*%
G04 APERTURE END LIST*
D10*
G36*
X112037722Y-99589908D02*
G01*
X112031671Y-99582198D01*
X112027240Y-99573454D01*
X112024601Y-99564015D01*
X112023852Y-99554243D01*
X112025026Y-99544511D01*
X112028075Y-99535196D01*
X112032883Y-99526654D01*
X112434386Y-98953247D01*
X112440769Y-98945808D01*
X112448479Y-98939757D01*
X112457223Y-98935326D01*
X112466662Y-98932686D01*
X112476434Y-98931938D01*
X112486166Y-98933111D01*
X112495481Y-98936161D01*
X112504023Y-98940969D01*
X113036472Y-99313793D01*
X113043911Y-99320176D01*
X113049962Y-99327886D01*
X113054393Y-99336630D01*
X113057033Y-99346069D01*
X113093869Y-99554978D01*
X113094617Y-99564750D01*
X113093444Y-99574482D01*
X113090395Y-99583797D01*
X113085587Y-99592339D01*
X112770120Y-100042873D01*
X112763737Y-100050312D01*
X112756027Y-100056363D01*
X112747283Y-100060794D01*
X112737844Y-100063434D01*
X112728072Y-100064182D01*
X112718340Y-100063009D01*
X112709025Y-100059959D01*
X112700483Y-100055151D01*
X112045162Y-99596290D01*
X112037722Y-99589908D01*
G37*
G36*
X113938341Y-99577884D02*
G01*
X113932290Y-99570174D01*
X113927859Y-99561430D01*
X113925219Y-99551991D01*
X113888383Y-99343082D01*
X113887635Y-99333310D01*
X113888808Y-99323578D01*
X113891857Y-99314263D01*
X113896665Y-99305721D01*
X114212132Y-98855187D01*
X114218515Y-98847748D01*
X114226225Y-98841697D01*
X114234969Y-98837266D01*
X114244408Y-98834626D01*
X114254180Y-98833878D01*
X114263912Y-98835051D01*
X114273227Y-98838101D01*
X114281769Y-98842909D01*
X114937090Y-99301770D01*
X114944530Y-99308152D01*
X114950581Y-99315862D01*
X114955012Y-99324606D01*
X114957651Y-99334045D01*
X114958400Y-99343817D01*
X114957226Y-99353549D01*
X114954177Y-99362864D01*
X114949369Y-99371406D01*
X114547866Y-99944813D01*
X114541483Y-99952252D01*
X114533773Y-99958303D01*
X114525029Y-99962734D01*
X114515590Y-99965374D01*
X114505818Y-99966122D01*
X114496086Y-99964949D01*
X114486771Y-99961899D01*
X114478229Y-99957091D01*
X113945780Y-99584267D01*
X113938341Y-99577884D01*
G37*
G36*
G01*
X113796821Y-98576591D02*
X113406789Y-99133615D01*
G75*
G02*
X113323225Y-99148349I-49149J34415D01*
G01*
X112684287Y-98700959D01*
G75*
G02*
X112669553Y-98617395I34415J49149D01*
G01*
X113059585Y-98060371D01*
G75*
G02*
X113143149Y-98045637I49149J-34415D01*
G01*
X113782087Y-98493027D01*
G75*
G02*
X113796821Y-98576591I-34415J-49149D01*
G01*
G37*
G36*
G01*
X114312699Y-100280665D02*
X113922667Y-100837689D01*
G75*
G02*
X113839103Y-100852423I-49149J34415D01*
G01*
X113200165Y-100405033D01*
G75*
G02*
X113185431Y-100321469I34415J49149D01*
G01*
X113575463Y-99764445D01*
G75*
G02*
X113659027Y-99749711I49149J-34415D01*
G01*
X114297965Y-100197101D01*
G75*
G02*
X114312699Y-100280665I-34415J-49149D01*
G01*
G37*
G36*
X132883205Y-100119808D02*
G01*
X132536795Y-99919808D01*
X132836795Y-99400192D01*
X133183205Y-99600192D01*
X132883205Y-100119808D01*
G37*
G36*
G01*
X132412035Y-99385898D02*
X132195529Y-99260898D01*
G75*
G02*
X132168077Y-99158446I37500J64952D01*
G01*
X132243077Y-99028542D01*
G75*
G02*
X132345529Y-99001090I64952J-37500D01*
G01*
X132562035Y-99126090D01*
G75*
G02*
X132589487Y-99228542I-37500J-64952D01*
G01*
X132514487Y-99358446D01*
G75*
G02*
X132412035Y-99385898I-64952J37500D01*
G01*
G37*
G36*
G01*
X133624471Y-100085898D02*
X133407965Y-99960898D01*
G75*
G02*
X133380513Y-99858446I37500J64952D01*
G01*
X133455513Y-99728542D01*
G75*
G02*
X133557965Y-99701090I64952J-37500D01*
G01*
X133774471Y-99826090D01*
G75*
G02*
X133801923Y-99928542I-37500J-64952D01*
G01*
X133726923Y-100058446D01*
G75*
G02*
X133624471Y-100085898I-64952J37500D01*
G01*
G37*
G36*
G01*
X133374471Y-100518910D02*
X133157965Y-100393910D01*
G75*
G02*
X133130513Y-100291458I37500J64952D01*
G01*
X133205513Y-100161554D01*
G75*
G02*
X133307965Y-100134102I64952J-37500D01*
G01*
X133524471Y-100259102D01*
G75*
G02*
X133551923Y-100361554I-37500J-64952D01*
G01*
X133476923Y-100491458D01*
G75*
G02*
X133374471Y-100518910I-64952J37500D01*
G01*
G37*
G36*
G01*
X132162035Y-99818910D02*
X131945529Y-99693910D01*
G75*
G02*
X131918077Y-99591458I37500J64952D01*
G01*
X131993077Y-99461554D01*
G75*
G02*
X132095529Y-99434102I64952J-37500D01*
G01*
X132312035Y-99559102D01*
G75*
G02*
X132339487Y-99661554I-37500J-64952D01*
G01*
X132264487Y-99791458D01*
G75*
G02*
X132162035Y-99818910I-64952J37500D01*
G01*
G37*
G36*
X136312212Y-104436266D02*
G01*
X136658622Y-104236266D01*
X136983622Y-104799182D01*
X136637212Y-104999182D01*
X136312212Y-104436266D01*
G37*
G36*
X135186378Y-105086266D02*
G01*
X135532788Y-104886266D01*
X135857788Y-105449182D01*
X135511378Y-105649182D01*
X135186378Y-105086266D01*
G37*
G36*
X134799295Y-103115818D02*
G01*
X135145705Y-102915818D01*
X135470705Y-103478734D01*
X135124295Y-103678734D01*
X134799295Y-103115818D01*
G37*
G36*
X134236378Y-103440818D02*
G01*
X134582788Y-103240818D01*
X134907788Y-103803734D01*
X134561378Y-104003734D01*
X134236378Y-103440818D01*
G37*
G36*
X135362212Y-102790818D02*
G01*
X135708622Y-102590818D01*
X136033622Y-103153734D01*
X135687212Y-103353734D01*
X135362212Y-102790818D01*
G37*
D11*
X133050000Y-109890000D03*
G36*
G01*
X132550000Y-110302500D02*
X132550000Y-110477500D01*
G75*
G02*
X132512500Y-110515000I-37500J0D01*
G01*
X132187500Y-110515000D01*
G75*
G02*
X132150000Y-110477500I0J37500D01*
G01*
X132150000Y-110302500D01*
G75*
G02*
X132187500Y-110265000I37500J0D01*
G01*
X132512500Y-110265000D01*
G75*
G02*
X132550000Y-110302500I0J-37500D01*
G01*
G37*
G36*
G01*
X132550000Y-109802500D02*
X132550000Y-109977500D01*
G75*
G02*
X132512500Y-110015000I-37500J0D01*
G01*
X132187500Y-110015000D01*
G75*
G02*
X132150000Y-109977500I0J37500D01*
G01*
X132150000Y-109802500D01*
G75*
G02*
X132187500Y-109765000I37500J0D01*
G01*
X132512500Y-109765000D01*
G75*
G02*
X132550000Y-109802500I0J-37500D01*
G01*
G37*
G36*
G01*
X132550000Y-109302500D02*
X132550000Y-109477500D01*
G75*
G02*
X132512500Y-109515000I-37500J0D01*
G01*
X132187500Y-109515000D01*
G75*
G02*
X132150000Y-109477500I0J37500D01*
G01*
X132150000Y-109302500D01*
G75*
G02*
X132187500Y-109265000I37500J0D01*
G01*
X132512500Y-109265000D01*
G75*
G02*
X132550000Y-109302500I0J-37500D01*
G01*
G37*
G36*
G01*
X133950000Y-109302500D02*
X133950000Y-109477500D01*
G75*
G02*
X133912500Y-109515000I-37500J0D01*
G01*
X133587500Y-109515000D01*
G75*
G02*
X133550000Y-109477500I0J37500D01*
G01*
X133550000Y-109302500D01*
G75*
G02*
X133587500Y-109265000I37500J0D01*
G01*
X133912500Y-109265000D01*
G75*
G02*
X133950000Y-109302500I0J-37500D01*
G01*
G37*
G36*
G01*
X133950000Y-109802500D02*
X133950000Y-109977500D01*
G75*
G02*
X133912500Y-110015000I-37500J0D01*
G01*
X133587500Y-110015000D01*
G75*
G02*
X133550000Y-109977500I0J37500D01*
G01*
X133550000Y-109802500D01*
G75*
G02*
X133587500Y-109765000I37500J0D01*
G01*
X133912500Y-109765000D01*
G75*
G02*
X133950000Y-109802500I0J-37500D01*
G01*
G37*
G36*
G01*
X133950000Y-110302500D02*
X133950000Y-110477500D01*
G75*
G02*
X133912500Y-110515000I-37500J0D01*
G01*
X133587500Y-110515000D01*
G75*
G02*
X133550000Y-110477500I0J37500D01*
G01*
X133550000Y-110302500D01*
G75*
G02*
X133587500Y-110265000I37500J0D01*
G01*
X133912500Y-110265000D01*
G75*
G02*
X133950000Y-110302500I0J-37500D01*
G01*
G37*
D10*
G36*
X159263734Y-103378865D02*
G01*
X158700818Y-103703865D01*
X158170818Y-102785879D01*
X158733734Y-102460879D01*
X159263734Y-103378865D01*
G37*
G36*
X160909182Y-102428865D02*
G01*
X160346266Y-102753865D01*
X159816266Y-101835879D01*
X160379182Y-101510879D01*
X160909182Y-102428865D01*
G37*
G36*
X162009182Y-104334121D02*
G01*
X161446266Y-104659121D01*
X160916266Y-103741135D01*
X161479182Y-103416135D01*
X162009182Y-104334121D01*
G37*
G36*
X161186458Y-104809121D02*
G01*
X160623542Y-105134121D01*
X160093542Y-104216135D01*
X160656458Y-103891135D01*
X161186458Y-104809121D01*
G37*
G36*
X160363734Y-105284121D02*
G01*
X159800818Y-105609121D01*
X159270818Y-104691135D01*
X159833734Y-104366135D01*
X160363734Y-105284121D01*
G37*
G36*
G01*
X119830000Y-105122500D02*
X119830000Y-104777500D01*
G75*
G02*
X119977500Y-104630000I147500J0D01*
G01*
X120272500Y-104630000D01*
G75*
G02*
X120420000Y-104777500I0J-147500D01*
G01*
X120420000Y-105122500D01*
G75*
G02*
X120272500Y-105270000I-147500J0D01*
G01*
X119977500Y-105270000D01*
G75*
G02*
X119830000Y-105122500I0J147500D01*
G01*
G37*
G36*
G01*
X118860000Y-105122500D02*
X118860000Y-104777500D01*
G75*
G02*
X119007500Y-104630000I147500J0D01*
G01*
X119302500Y-104630000D01*
G75*
G02*
X119450000Y-104777500I0J-147500D01*
G01*
X119450000Y-105122500D01*
G75*
G02*
X119302500Y-105270000I-147500J0D01*
G01*
X119007500Y-105270000D01*
G75*
G02*
X118860000Y-105122500I0J147500D01*
G01*
G37*
G36*
G01*
X120410000Y-106537500D02*
X120410000Y-106882500D01*
G75*
G02*
X120262500Y-107030000I-147500J0D01*
G01*
X119967500Y-107030000D01*
G75*
G02*
X119820000Y-106882500I0J147500D01*
G01*
X119820000Y-106537500D01*
G75*
G02*
X119967500Y-106390000I147500J0D01*
G01*
X120262500Y-106390000D01*
G75*
G02*
X120410000Y-106537500I0J-147500D01*
G01*
G37*
G36*
G01*
X119440000Y-106537500D02*
X119440000Y-106882500D01*
G75*
G02*
X119292500Y-107030000I-147500J0D01*
G01*
X118997500Y-107030000D01*
G75*
G02*
X118850000Y-106882500I0J147500D01*
G01*
X118850000Y-106537500D01*
G75*
G02*
X118997500Y-106390000I147500J0D01*
G01*
X119292500Y-106390000D01*
G75*
G02*
X119440000Y-106537500I0J-147500D01*
G01*
G37*
G36*
G01*
X119830000Y-106002500D02*
X119830000Y-105657500D01*
G75*
G02*
X119977500Y-105510000I147500J0D01*
G01*
X120272500Y-105510000D01*
G75*
G02*
X120420000Y-105657500I0J-147500D01*
G01*
X120420000Y-106002500D01*
G75*
G02*
X120272500Y-106150000I-147500J0D01*
G01*
X119977500Y-106150000D01*
G75*
G02*
X119830000Y-106002500I0J147500D01*
G01*
G37*
G36*
G01*
X118860000Y-106002500D02*
X118860000Y-105657500D01*
G75*
G02*
X119007500Y-105510000I147500J0D01*
G01*
X119302500Y-105510000D01*
G75*
G02*
X119450000Y-105657500I0J-147500D01*
G01*
X119450000Y-106002500D01*
G75*
G02*
X119302500Y-106150000I-147500J0D01*
G01*
X119007500Y-106150000D01*
G75*
G02*
X118860000Y-106002500I0J147500D01*
G01*
G37*
G36*
G01*
X150412776Y-108736820D02*
X150707224Y-108566820D01*
G75*
G02*
X150898468Y-108618064I70000J-121244D01*
G01*
X151038468Y-108860552D01*
G75*
G02*
X150987224Y-109051796I-121244J-70000D01*
G01*
X150692776Y-109221796D01*
G75*
G02*
X150501532Y-109170552I-70000J121244D01*
G01*
X150361532Y-108928064D01*
G75*
G02*
X150412776Y-108736820I121244J70000D01*
G01*
G37*
G36*
G01*
X150892776Y-109568204D02*
X151187224Y-109398204D01*
G75*
G02*
X151378468Y-109449448I70000J-121244D01*
G01*
X151518468Y-109691936D01*
G75*
G02*
X151467224Y-109883180I-121244J-70000D01*
G01*
X151172776Y-110053180D01*
G75*
G02*
X150981532Y-110001936I-70000J121244D01*
G01*
X150841532Y-109759448D01*
G75*
G02*
X150892776Y-109568204I121244J70000D01*
G01*
G37*
G36*
G01*
X155289250Y-100800611D02*
X155461750Y-101099389D01*
G75*
G02*
X155407761Y-101300878I-127739J-73750D01*
G01*
X155152283Y-101448378D01*
G75*
G02*
X154950794Y-101394389I-73750J127739D01*
G01*
X154778294Y-101095611D01*
G75*
G02*
X154832283Y-100894122I127739J73750D01*
G01*
X155087761Y-100746622D01*
G75*
G02*
X155289250Y-100800611I73750J-127739D01*
G01*
G37*
G36*
G01*
X154449206Y-101285611D02*
X154621706Y-101584389D01*
G75*
G02*
X154567717Y-101785878I-127739J-73750D01*
G01*
X154312239Y-101933378D01*
G75*
G02*
X154110750Y-101879389I-73750J127739D01*
G01*
X153938250Y-101580611D01*
G75*
G02*
X153992239Y-101379122I127739J73750D01*
G01*
X154247717Y-101231622D01*
G75*
G02*
X154449206Y-101285611I73750J-127739D01*
G01*
G37*
G36*
G01*
X155021126Y-105045937D02*
X155811374Y-104589687D01*
G75*
G02*
X156144343Y-104678906I121875J-211094D01*
G01*
X156388093Y-105101094D01*
G75*
G02*
X156298874Y-105434063I-211094J-121875D01*
G01*
X155508626Y-105890313D01*
G75*
G02*
X155175657Y-105801094I-121875J211094D01*
G01*
X154931907Y-105378906D01*
G75*
G02*
X155021126Y-105045937I211094J121875D01*
G01*
G37*
G36*
G01*
X154083626Y-103422139D02*
X154873874Y-102965889D01*
G75*
G02*
X155206843Y-103055108I121875J-211094D01*
G01*
X155450593Y-103477296D01*
G75*
G02*
X155361374Y-103810265I-211094J-121875D01*
G01*
X154571126Y-104266515D01*
G75*
G02*
X154238157Y-104177296I-121875J211094D01*
G01*
X153994407Y-103755108D01*
G75*
G02*
X154083626Y-103422139I211094J121875D01*
G01*
G37*
G36*
G01*
X133837595Y-114210027D02*
X134182595Y-114210027D01*
G75*
G02*
X134330095Y-114357527I0J-147500D01*
G01*
X134330095Y-114652527D01*
G75*
G02*
X134182595Y-114800027I-147500J0D01*
G01*
X133837595Y-114800027D01*
G75*
G02*
X133690095Y-114652527I0J147500D01*
G01*
X133690095Y-114357527D01*
G75*
G02*
X133837595Y-114210027I147500J0D01*
G01*
G37*
G36*
G01*
X133837595Y-115180027D02*
X134182595Y-115180027D01*
G75*
G02*
X134330095Y-115327527I0J-147500D01*
G01*
X134330095Y-115622527D01*
G75*
G02*
X134182595Y-115770027I-147500J0D01*
G01*
X133837595Y-115770027D01*
G75*
G02*
X133690095Y-115622527I0J147500D01*
G01*
X133690095Y-115327527D01*
G75*
G02*
X133837595Y-115180027I147500J0D01*
G01*
G37*
G36*
G01*
X134717500Y-115180000D02*
X135062500Y-115180000D01*
G75*
G02*
X135210000Y-115327500I0J-147500D01*
G01*
X135210000Y-115622500D01*
G75*
G02*
X135062500Y-115770000I-147500J0D01*
G01*
X134717500Y-115770000D01*
G75*
G02*
X134570000Y-115622500I0J147500D01*
G01*
X134570000Y-115327500D01*
G75*
G02*
X134717500Y-115180000I147500J0D01*
G01*
G37*
G36*
G01*
X134717500Y-114210000D02*
X135062500Y-114210000D01*
G75*
G02*
X135210000Y-114357500I0J-147500D01*
G01*
X135210000Y-114652500D01*
G75*
G02*
X135062500Y-114800000I-147500J0D01*
G01*
X134717500Y-114800000D01*
G75*
G02*
X134570000Y-114652500I0J147500D01*
G01*
X134570000Y-114357500D01*
G75*
G02*
X134717500Y-114210000I147500J0D01*
G01*
G37*
G36*
G01*
X119863750Y-103370000D02*
X120376250Y-103370000D01*
G75*
G02*
X120595000Y-103588750I0J-218750D01*
G01*
X120595000Y-104026250D01*
G75*
G02*
X120376250Y-104245000I-218750J0D01*
G01*
X119863750Y-104245000D01*
G75*
G02*
X119645000Y-104026250I0J218750D01*
G01*
X119645000Y-103588750D01*
G75*
G02*
X119863750Y-103370000I218750J0D01*
G01*
G37*
G36*
G01*
X119863750Y-101795000D02*
X120376250Y-101795000D01*
G75*
G02*
X120595000Y-102013750I0J-218750D01*
G01*
X120595000Y-102451250D01*
G75*
G02*
X120376250Y-102670000I-218750J0D01*
G01*
X119863750Y-102670000D01*
G75*
G02*
X119645000Y-102451250I0J218750D01*
G01*
X119645000Y-102013750D01*
G75*
G02*
X119863750Y-101795000I218750J0D01*
G01*
G37*
G36*
G01*
X118716250Y-103755000D02*
X117803750Y-103755000D01*
G75*
G02*
X117560000Y-103511250I0J243750D01*
G01*
X117560000Y-103023750D01*
G75*
G02*
X117803750Y-102780000I243750J0D01*
G01*
X118716250Y-102780000D01*
G75*
G02*
X118960000Y-103023750I0J-243750D01*
G01*
X118960000Y-103511250D01*
G75*
G02*
X118716250Y-103755000I-243750J0D01*
G01*
G37*
G36*
G01*
X118716250Y-101880000D02*
X117803750Y-101880000D01*
G75*
G02*
X117560000Y-101636250I0J243750D01*
G01*
X117560000Y-101148750D01*
G75*
G02*
X117803750Y-100905000I243750J0D01*
G01*
X118716250Y-100905000D01*
G75*
G02*
X118960000Y-101148750I0J-243750D01*
G01*
X118960000Y-101636250D01*
G75*
G02*
X118716250Y-101880000I-243750J0D01*
G01*
G37*
G36*
G01*
X120160000Y-101432500D02*
X120160000Y-101087500D01*
G75*
G02*
X120307500Y-100940000I147500J0D01*
G01*
X120602500Y-100940000D01*
G75*
G02*
X120750000Y-101087500I0J-147500D01*
G01*
X120750000Y-101432500D01*
G75*
G02*
X120602500Y-101580000I-147500J0D01*
G01*
X120307500Y-101580000D01*
G75*
G02*
X120160000Y-101432500I0J147500D01*
G01*
G37*
G36*
G01*
X119190000Y-101432500D02*
X119190000Y-101087500D01*
G75*
G02*
X119337500Y-100940000I147500J0D01*
G01*
X119632500Y-100940000D01*
G75*
G02*
X119780000Y-101087500I0J-147500D01*
G01*
X119780000Y-101432500D01*
G75*
G02*
X119632500Y-101580000I-147500J0D01*
G01*
X119337500Y-101580000D01*
G75*
G02*
X119190000Y-101432500I0J147500D01*
G01*
G37*
G36*
G01*
X124925611Y-104200794D02*
X125224389Y-104028294D01*
G75*
G02*
X125425878Y-104082283I73750J-127739D01*
G01*
X125573378Y-104337761D01*
G75*
G02*
X125519389Y-104539250I-127739J-73750D01*
G01*
X125220611Y-104711750D01*
G75*
G02*
X125019122Y-104657761I-73750J127739D01*
G01*
X124871622Y-104402283D01*
G75*
G02*
X124925611Y-104200794I127739J73750D01*
G01*
G37*
G36*
G01*
X124440611Y-103360750D02*
X124739389Y-103188250D01*
G75*
G02*
X124940878Y-103242239I73750J-127739D01*
G01*
X125088378Y-103497717D01*
G75*
G02*
X125034389Y-103699206I-127739J-73750D01*
G01*
X124735611Y-103871706D01*
G75*
G02*
X124534122Y-103817717I-73750J127739D01*
G01*
X124386622Y-103562239D01*
G75*
G02*
X124440611Y-103360750I127739J73750D01*
G01*
G37*
G36*
G01*
X115302098Y-100290592D02*
X115019491Y-100092708D01*
G75*
G02*
X114983269Y-99887280I84603J120825D01*
G01*
X115152474Y-99645630D01*
G75*
G02*
X115357902Y-99609408I120825J-84603D01*
G01*
X115640509Y-99807292D01*
G75*
G02*
X115676731Y-100012720I-84603J-120825D01*
G01*
X115507526Y-100254370D01*
G75*
G02*
X115302098Y-100290592I-120825J84603D01*
G01*
G37*
G36*
G01*
X114745728Y-101085170D02*
X114463121Y-100887286D01*
G75*
G02*
X114426899Y-100681858I84603J120825D01*
G01*
X114596104Y-100440208D01*
G75*
G02*
X114801532Y-100403986I120825J-84603D01*
G01*
X115084139Y-100601870D01*
G75*
G02*
X115120361Y-100807298I-84603J-120825D01*
G01*
X114951156Y-101048948D01*
G75*
G02*
X114745728Y-101085170I-120825J84603D01*
G01*
G37*
G36*
G01*
X111879717Y-98356697D02*
X112162324Y-98554581D01*
G75*
G02*
X112198546Y-98760009I-84603J-120825D01*
G01*
X112029341Y-99001659D01*
G75*
G02*
X111823913Y-99037881I-120825J84603D01*
G01*
X111541306Y-98839997D01*
G75*
G02*
X111505084Y-98634569I84603J120825D01*
G01*
X111674289Y-98392919D01*
G75*
G02*
X111879717Y-98356697I120825J-84603D01*
G01*
G37*
G36*
G01*
X112436087Y-97562119D02*
X112718694Y-97760003D01*
G75*
G02*
X112754916Y-97965431I-84603J-120825D01*
G01*
X112585711Y-98207081D01*
G75*
G02*
X112380283Y-98243303I-120825J84603D01*
G01*
X112097676Y-98045419D01*
G75*
G02*
X112061454Y-97839991I84603J120825D01*
G01*
X112230659Y-97598341D01*
G75*
G02*
X112436087Y-97562119I120825J-84603D01*
G01*
G37*
G36*
G01*
X109657500Y-105090000D02*
X110002500Y-105090000D01*
G75*
G02*
X110150000Y-105237500I0J-147500D01*
G01*
X110150000Y-105532500D01*
G75*
G02*
X110002500Y-105680000I-147500J0D01*
G01*
X109657500Y-105680000D01*
G75*
G02*
X109510000Y-105532500I0J147500D01*
G01*
X109510000Y-105237500D01*
G75*
G02*
X109657500Y-105090000I147500J0D01*
G01*
G37*
G36*
G01*
X109657500Y-104120000D02*
X110002500Y-104120000D01*
G75*
G02*
X110150000Y-104267500I0J-147500D01*
G01*
X110150000Y-104562500D01*
G75*
G02*
X110002500Y-104710000I-147500J0D01*
G01*
X109657500Y-104710000D01*
G75*
G02*
X109510000Y-104562500I0J147500D01*
G01*
X109510000Y-104267500D01*
G75*
G02*
X109657500Y-104120000I147500J0D01*
G01*
G37*
G36*
G01*
X113440000Y-105467500D02*
X113440000Y-105812500D01*
G75*
G02*
X113292500Y-105960000I-147500J0D01*
G01*
X112997500Y-105960000D01*
G75*
G02*
X112850000Y-105812500I0J147500D01*
G01*
X112850000Y-105467500D01*
G75*
G02*
X112997500Y-105320000I147500J0D01*
G01*
X113292500Y-105320000D01*
G75*
G02*
X113440000Y-105467500I0J-147500D01*
G01*
G37*
G36*
G01*
X114410000Y-105467500D02*
X114410000Y-105812500D01*
G75*
G02*
X114262500Y-105960000I-147500J0D01*
G01*
X113967500Y-105960000D01*
G75*
G02*
X113820000Y-105812500I0J147500D01*
G01*
X113820000Y-105467500D01*
G75*
G02*
X113967500Y-105320000I147500J0D01*
G01*
X114262500Y-105320000D01*
G75*
G02*
X114410000Y-105467500I0J-147500D01*
G01*
G37*
G36*
G01*
X115702500Y-106360000D02*
X115357500Y-106360000D01*
G75*
G02*
X115210000Y-106212500I0J147500D01*
G01*
X115210000Y-105917500D01*
G75*
G02*
X115357500Y-105770000I147500J0D01*
G01*
X115702500Y-105770000D01*
G75*
G02*
X115850000Y-105917500I0J-147500D01*
G01*
X115850000Y-106212500D01*
G75*
G02*
X115702500Y-106360000I-147500J0D01*
G01*
G37*
G36*
G01*
X115702500Y-107330000D02*
X115357500Y-107330000D01*
G75*
G02*
X115210000Y-107182500I0J147500D01*
G01*
X115210000Y-106887500D01*
G75*
G02*
X115357500Y-106740000I147500J0D01*
G01*
X115702500Y-106740000D01*
G75*
G02*
X115850000Y-106887500I0J-147500D01*
G01*
X115850000Y-107182500D01*
G75*
G02*
X115702500Y-107330000I-147500J0D01*
G01*
G37*
G36*
G01*
X128460000Y-101962500D02*
X128460000Y-101617500D01*
G75*
G02*
X128607500Y-101470000I147500J0D01*
G01*
X128902500Y-101470000D01*
G75*
G02*
X129050000Y-101617500I0J-147500D01*
G01*
X129050000Y-101962500D01*
G75*
G02*
X128902500Y-102110000I-147500J0D01*
G01*
X128607500Y-102110000D01*
G75*
G02*
X128460000Y-101962500I0J147500D01*
G01*
G37*
G36*
G01*
X127490000Y-101962500D02*
X127490000Y-101617500D01*
G75*
G02*
X127637500Y-101470000I147500J0D01*
G01*
X127932500Y-101470000D01*
G75*
G02*
X128080000Y-101617500I0J-147500D01*
G01*
X128080000Y-101962500D01*
G75*
G02*
X127932500Y-102110000I-147500J0D01*
G01*
X127637500Y-102110000D01*
G75*
G02*
X127490000Y-101962500I0J147500D01*
G01*
G37*
G36*
G01*
X164199206Y-101115611D02*
X164371706Y-101414389D01*
G75*
G02*
X164317717Y-101615878I-127739J-73750D01*
G01*
X164062239Y-101763378D01*
G75*
G02*
X163860750Y-101709389I-73750J127739D01*
G01*
X163688250Y-101410611D01*
G75*
G02*
X163742239Y-101209122I127739J73750D01*
G01*
X163997717Y-101061622D01*
G75*
G02*
X164199206Y-101115611I73750J-127739D01*
G01*
G37*
G36*
G01*
X165039250Y-100630611D02*
X165211750Y-100929389D01*
G75*
G02*
X165157761Y-101130878I-127739J-73750D01*
G01*
X164902283Y-101278378D01*
G75*
G02*
X164700794Y-101224389I-73750J127739D01*
G01*
X164528294Y-100925611D01*
G75*
G02*
X164582283Y-100724122I127739J73750D01*
G01*
X164837761Y-100576622D01*
G75*
G02*
X165039250Y-100630611I73750J-127739D01*
G01*
G37*
G36*
G01*
X114140000Y-104412500D02*
X114140000Y-104067500D01*
G75*
G02*
X114287500Y-103920000I147500J0D01*
G01*
X114582500Y-103920000D01*
G75*
G02*
X114730000Y-104067500I0J-147500D01*
G01*
X114730000Y-104412500D01*
G75*
G02*
X114582500Y-104560000I-147500J0D01*
G01*
X114287500Y-104560000D01*
G75*
G02*
X114140000Y-104412500I0J147500D01*
G01*
G37*
G36*
G01*
X113170000Y-104412500D02*
X113170000Y-104067500D01*
G75*
G02*
X113317500Y-103920000I147500J0D01*
G01*
X113612500Y-103920000D01*
G75*
G02*
X113760000Y-104067500I0J-147500D01*
G01*
X113760000Y-104412500D01*
G75*
G02*
X113612500Y-104560000I-147500J0D01*
G01*
X113317500Y-104560000D01*
G75*
G02*
X113170000Y-104412500I0J147500D01*
G01*
G37*
G36*
G01*
X181220794Y-109004389D02*
X181048294Y-108705611D01*
G75*
G02*
X181102283Y-108504122I127739J73750D01*
G01*
X181357761Y-108356622D01*
G75*
G02*
X181559250Y-108410611I73750J-127739D01*
G01*
X181731750Y-108709389D01*
G75*
G02*
X181677761Y-108910878I-127739J-73750D01*
G01*
X181422283Y-109058378D01*
G75*
G02*
X181220794Y-109004389I-73750J127739D01*
G01*
G37*
G36*
G01*
X180380750Y-109489389D02*
X180208250Y-109190611D01*
G75*
G02*
X180262239Y-108989122I127739J73750D01*
G01*
X180517717Y-108841622D01*
G75*
G02*
X180719206Y-108895611I73750J-127739D01*
G01*
X180891706Y-109194389D01*
G75*
G02*
X180837717Y-109395878I-127739J-73750D01*
G01*
X180582239Y-109543378D01*
G75*
G02*
X180380750Y-109489389I-73750J127739D01*
G01*
G37*
D12*
X113007500Y-107500000D03*
X113007500Y-107000000D03*
X114532500Y-107000000D03*
X114532500Y-107500000D03*
D13*
X113020000Y-106487500D03*
X113020000Y-108012500D03*
X114520000Y-106487500D03*
X114520000Y-108012500D03*
X114020000Y-106487500D03*
X113520000Y-106487500D03*
X114020000Y-108012500D03*
X113520000Y-108012500D03*
D10*
G36*
X162687788Y-97883734D02*
G01*
X162341378Y-98083734D01*
X162016378Y-97520818D01*
X162362788Y-97320818D01*
X162687788Y-97883734D01*
G37*
G36*
X163813622Y-97233734D02*
G01*
X163467212Y-97433734D01*
X163142212Y-96870818D01*
X163488622Y-96670818D01*
X163813622Y-97233734D01*
G37*
G36*
X164200705Y-99204182D02*
G01*
X163854295Y-99404182D01*
X163529295Y-98841266D01*
X163875705Y-98641266D01*
X164200705Y-99204182D01*
G37*
G36*
X163250705Y-97558734D02*
G01*
X162904295Y-97758734D01*
X162579295Y-97195818D01*
X162925705Y-96995818D01*
X163250705Y-97558734D01*
G37*
G36*
X164763622Y-98879182D02*
G01*
X164417212Y-99079182D01*
X164092212Y-98516266D01*
X164438622Y-98316266D01*
X164763622Y-98879182D01*
G37*
G36*
X163637788Y-99529182D02*
G01*
X163291378Y-99729182D01*
X162966378Y-99166266D01*
X163312788Y-98966266D01*
X163637788Y-99529182D01*
G37*
D14*
X136010000Y-114040000D03*
X137910000Y-114040000D03*
X137910000Y-116240000D03*
X136960000Y-116240000D03*
X136010000Y-116240000D03*
D10*
G36*
X133872570Y-97315792D02*
G01*
X133557570Y-97861388D01*
X132847430Y-97451388D01*
X133162430Y-96905792D01*
X133872570Y-97315792D01*
G37*
G36*
X133472570Y-98008612D02*
G01*
X133157570Y-98554208D01*
X132447430Y-98144208D01*
X132762430Y-97598612D01*
X133472570Y-98008612D01*
G37*
G36*
X132294631Y-97778863D02*
G01*
X132119631Y-98081971D01*
X131556715Y-97756971D01*
X131731715Y-97453863D01*
X132294631Y-97778863D01*
G37*
G36*
X132619631Y-97215946D02*
G01*
X132444631Y-97519054D01*
X131881715Y-97194054D01*
X132056715Y-96890946D01*
X132619631Y-97215946D01*
G37*
G36*
X132944631Y-96653029D02*
G01*
X132769631Y-96956137D01*
X132206715Y-96631137D01*
X132381715Y-96328029D01*
X132944631Y-96653029D01*
G37*
G36*
X134763285Y-97703029D02*
G01*
X134588285Y-98006137D01*
X134025369Y-97681137D01*
X134200369Y-97378029D01*
X134763285Y-97703029D01*
G37*
G36*
X134438285Y-98265946D02*
G01*
X134263285Y-98569054D01*
X133700369Y-98244054D01*
X133875369Y-97940946D01*
X134438285Y-98265946D01*
G37*
G36*
X134113285Y-98828863D02*
G01*
X133938285Y-99131971D01*
X133375369Y-98806971D01*
X133550369Y-98503863D01*
X134113285Y-98828863D01*
G37*
G36*
G01*
X138044419Y-104302756D02*
X137600581Y-104559006D01*
G75*
G02*
X137301763Y-104478938I-109375J189443D01*
G01*
X137083013Y-104100052D01*
G75*
G02*
X137163081Y-103801234I189443J109375D01*
G01*
X137606919Y-103544984D01*
G75*
G02*
X137905737Y-103625052I109375J-189443D01*
G01*
X138124487Y-104003938D01*
G75*
G02*
X138044419Y-104302756I-189443J-109375D01*
G01*
G37*
G36*
G01*
X137256919Y-102938766D02*
X136813081Y-103195016D01*
G75*
G02*
X136514263Y-103114948I-109375J189443D01*
G01*
X136295513Y-102736062D01*
G75*
G02*
X136375581Y-102437244I189443J109375D01*
G01*
X136819419Y-102180994D01*
G75*
G02*
X137118237Y-102261062I109375J-189443D01*
G01*
X137336987Y-102639948D01*
G75*
G02*
X137256919Y-102938766I-189443J-109375D01*
G01*
G37*
G36*
G01*
X115786250Y-105095000D02*
X115273750Y-105095000D01*
G75*
G02*
X115055000Y-104876250I0J218750D01*
G01*
X115055000Y-104438750D01*
G75*
G02*
X115273750Y-104220000I218750J0D01*
G01*
X115786250Y-104220000D01*
G75*
G02*
X116005000Y-104438750I0J-218750D01*
G01*
X116005000Y-104876250D01*
G75*
G02*
X115786250Y-105095000I-218750J0D01*
G01*
G37*
G36*
G01*
X115786250Y-103520000D02*
X115273750Y-103520000D01*
G75*
G02*
X115055000Y-103301250I0J218750D01*
G01*
X115055000Y-102863750D01*
G75*
G02*
X115273750Y-102645000I218750J0D01*
G01*
X115786250Y-102645000D01*
G75*
G02*
X116005000Y-102863750I0J-218750D01*
G01*
X116005000Y-103301250D01*
G75*
G02*
X115786250Y-103520000I-218750J0D01*
G01*
G37*
G36*
G01*
X111592500Y-107206250D02*
X111592500Y-106693750D01*
G75*
G02*
X111811250Y-106475000I218750J0D01*
G01*
X112248750Y-106475000D01*
G75*
G02*
X112467500Y-106693750I0J-218750D01*
G01*
X112467500Y-107206250D01*
G75*
G02*
X112248750Y-107425000I-218750J0D01*
G01*
X111811250Y-107425000D01*
G75*
G02*
X111592500Y-107206250I0J218750D01*
G01*
G37*
G36*
G01*
X110017500Y-107206250D02*
X110017500Y-106693750D01*
G75*
G02*
X110236250Y-106475000I218750J0D01*
G01*
X110673750Y-106475000D01*
G75*
G02*
X110892500Y-106693750I0J-218750D01*
G01*
X110892500Y-107206250D01*
G75*
G02*
X110673750Y-107425000I-218750J0D01*
G01*
X110236250Y-107425000D01*
G75*
G02*
X110017500Y-107206250I0J218750D01*
G01*
G37*
G36*
G01*
X152613626Y-104262139D02*
X153403874Y-103805889D01*
G75*
G02*
X153736843Y-103895108I121875J-211094D01*
G01*
X153980593Y-104317296D01*
G75*
G02*
X153891374Y-104650265I-211094J-121875D01*
G01*
X153101126Y-105106515D01*
G75*
G02*
X152768157Y-105017296I-121875J211094D01*
G01*
X152524407Y-104595108D01*
G75*
G02*
X152613626Y-104262139I211094J121875D01*
G01*
G37*
G36*
G01*
X153551126Y-105885937D02*
X154341374Y-105429687D01*
G75*
G02*
X154674343Y-105518906I121875J-211094D01*
G01*
X154918093Y-105941094D01*
G75*
G02*
X154828874Y-106274063I-211094J-121875D01*
G01*
X154038626Y-106730313D01*
G75*
G02*
X153705657Y-106641094I-121875J211094D01*
G01*
X153461907Y-106218906D01*
G75*
G02*
X153551126Y-105885937I211094J121875D01*
G01*
G37*
G36*
G01*
X159039331Y-106189239D02*
X159483169Y-105932989D01*
G75*
G02*
X159781987Y-106013057I109375J-189443D01*
G01*
X160000737Y-106391943D01*
G75*
G02*
X159920669Y-106690761I-189443J-109375D01*
G01*
X159476831Y-106947011D01*
G75*
G02*
X159178013Y-106866943I-109375J189443D01*
G01*
X158959263Y-106488057D01*
G75*
G02*
X159039331Y-106189239I189443J109375D01*
G01*
G37*
G36*
G01*
X158251831Y-104825249D02*
X158695669Y-104568999D01*
G75*
G02*
X158994487Y-104649067I109375J-189443D01*
G01*
X159213237Y-105027953D01*
G75*
G02*
X159133169Y-105326771I-189443J-109375D01*
G01*
X158689331Y-105583021D01*
G75*
G02*
X158390513Y-105502953I-109375J189443D01*
G01*
X158171763Y-105124067D01*
G75*
G02*
X158251831Y-104825249I189443J109375D01*
G01*
G37*
G36*
G01*
X125727244Y-99354419D02*
X125470994Y-98910581D01*
G75*
G02*
X125551062Y-98611763I189443J109375D01*
G01*
X125929948Y-98393013D01*
G75*
G02*
X126228766Y-98473081I109375J-189443D01*
G01*
X126485016Y-98916919D01*
G75*
G02*
X126404948Y-99215737I-189443J-109375D01*
G01*
X126026062Y-99434487D01*
G75*
G02*
X125727244Y-99354419I-109375J189443D01*
G01*
G37*
G36*
G01*
X127091234Y-98566919D02*
X126834984Y-98123081D01*
G75*
G02*
X126915052Y-97824263I189443J109375D01*
G01*
X127293938Y-97605513D01*
G75*
G02*
X127592756Y-97685581I109375J-189443D01*
G01*
X127849006Y-98129419D01*
G75*
G02*
X127768938Y-98428237I-189443J-109375D01*
G01*
X127390052Y-98646987D01*
G75*
G02*
X127091234Y-98566919I-109375J189443D01*
G01*
G37*
G36*
G01*
X131666250Y-112045000D02*
X131153750Y-112045000D01*
G75*
G02*
X130935000Y-111826250I0J218750D01*
G01*
X130935000Y-111388750D01*
G75*
G02*
X131153750Y-111170000I218750J0D01*
G01*
X131666250Y-111170000D01*
G75*
G02*
X131885000Y-111388750I0J-218750D01*
G01*
X131885000Y-111826250D01*
G75*
G02*
X131666250Y-112045000I-218750J0D01*
G01*
G37*
G36*
G01*
X131666250Y-110470000D02*
X131153750Y-110470000D01*
G75*
G02*
X130935000Y-110251250I0J218750D01*
G01*
X130935000Y-109813750D01*
G75*
G02*
X131153750Y-109595000I218750J0D01*
G01*
X131666250Y-109595000D01*
G75*
G02*
X131885000Y-109813750I0J-218750D01*
G01*
X131885000Y-110251250D01*
G75*
G02*
X131666250Y-110470000I-218750J0D01*
G01*
G37*
G36*
G01*
X125434063Y-97079876D02*
X125890313Y-97870124D01*
G75*
G02*
X125801094Y-98203093I-211094J-121875D01*
G01*
X125378906Y-98446843D01*
G75*
G02*
X125045937Y-98357624I-121875J211094D01*
G01*
X124589687Y-97567376D01*
G75*
G02*
X124678906Y-97234407I211094J121875D01*
G01*
X125101094Y-96990657D01*
G75*
G02*
X125434063Y-97079876I121875J-211094D01*
G01*
G37*
G36*
G01*
X127057861Y-96142376D02*
X127514111Y-96932624D01*
G75*
G02*
X127424892Y-97265593I-211094J-121875D01*
G01*
X127002704Y-97509343D01*
G75*
G02*
X126669735Y-97420124I-121875J211094D01*
G01*
X126213485Y-96629876D01*
G75*
G02*
X126302704Y-96296907I211094J121875D01*
G01*
X126724892Y-96053157D01*
G75*
G02*
X127057861Y-96142376I121875J-211094D01*
G01*
G37*
G36*
G01*
X128460000Y-99282500D02*
X128460000Y-98937500D01*
G75*
G02*
X128607500Y-98790000I147500J0D01*
G01*
X128902500Y-98790000D01*
G75*
G02*
X129050000Y-98937500I0J-147500D01*
G01*
X129050000Y-99282500D01*
G75*
G02*
X128902500Y-99430000I-147500J0D01*
G01*
X128607500Y-99430000D01*
G75*
G02*
X128460000Y-99282500I0J147500D01*
G01*
G37*
G36*
G01*
X127490000Y-99282500D02*
X127490000Y-98937500D01*
G75*
G02*
X127637500Y-98790000I147500J0D01*
G01*
X127932500Y-98790000D01*
G75*
G02*
X128080000Y-98937500I0J-147500D01*
G01*
X128080000Y-99282500D01*
G75*
G02*
X127932500Y-99430000I-147500J0D01*
G01*
X127637500Y-99430000D01*
G75*
G02*
X127490000Y-99282500I0J147500D01*
G01*
G37*
G36*
G01*
X129050000Y-100727500D02*
X129050000Y-101072500D01*
G75*
G02*
X128902500Y-101220000I-147500J0D01*
G01*
X128607500Y-101220000D01*
G75*
G02*
X128460000Y-101072500I0J147500D01*
G01*
X128460000Y-100727500D01*
G75*
G02*
X128607500Y-100580000I147500J0D01*
G01*
X128902500Y-100580000D01*
G75*
G02*
X129050000Y-100727500I0J-147500D01*
G01*
G37*
G36*
G01*
X128080000Y-100727500D02*
X128080000Y-101072500D01*
G75*
G02*
X127932500Y-101220000I-147500J0D01*
G01*
X127637500Y-101220000D01*
G75*
G02*
X127490000Y-101072500I0J147500D01*
G01*
X127490000Y-100727500D01*
G75*
G02*
X127637500Y-100580000I147500J0D01*
G01*
X127932500Y-100580000D01*
G75*
G02*
X128080000Y-100727500I0J-147500D01*
G01*
G37*
G36*
G01*
X113507500Y-102180000D02*
X113852500Y-102180000D01*
G75*
G02*
X114000000Y-102327500I0J-147500D01*
G01*
X114000000Y-102622500D01*
G75*
G02*
X113852500Y-102770000I-147500J0D01*
G01*
X113507500Y-102770000D01*
G75*
G02*
X113360000Y-102622500I0J147500D01*
G01*
X113360000Y-102327500D01*
G75*
G02*
X113507500Y-102180000I147500J0D01*
G01*
G37*
G36*
G01*
X113507500Y-101210000D02*
X113852500Y-101210000D01*
G75*
G02*
X114000000Y-101357500I0J-147500D01*
G01*
X114000000Y-101652500D01*
G75*
G02*
X113852500Y-101800000I-147500J0D01*
G01*
X113507500Y-101800000D01*
G75*
G02*
X113360000Y-101652500I0J147500D01*
G01*
X113360000Y-101357500D01*
G75*
G02*
X113507500Y-101210000I147500J0D01*
G01*
G37*
G36*
G01*
X113160000Y-103492500D02*
X113160000Y-103147500D01*
G75*
G02*
X113307500Y-103000000I147500J0D01*
G01*
X113602500Y-103000000D01*
G75*
G02*
X113750000Y-103147500I0J-147500D01*
G01*
X113750000Y-103492500D01*
G75*
G02*
X113602500Y-103640000I-147500J0D01*
G01*
X113307500Y-103640000D01*
G75*
G02*
X113160000Y-103492500I0J147500D01*
G01*
G37*
G36*
G01*
X114130000Y-103492500D02*
X114130000Y-103147500D01*
G75*
G02*
X114277500Y-103000000I147500J0D01*
G01*
X114572500Y-103000000D01*
G75*
G02*
X114720000Y-103147500I0J-147500D01*
G01*
X114720000Y-103492500D01*
G75*
G02*
X114572500Y-103640000I-147500J0D01*
G01*
X114277500Y-103640000D01*
G75*
G02*
X114130000Y-103492500I0J147500D01*
G01*
G37*
G36*
G01*
X135819250Y-112490611D02*
X135991750Y-112789389D01*
G75*
G02*
X135937761Y-112990878I-127739J-73750D01*
G01*
X135682283Y-113138378D01*
G75*
G02*
X135480794Y-113084389I-73750J127739D01*
G01*
X135308294Y-112785611D01*
G75*
G02*
X135362283Y-112584122I127739J73750D01*
G01*
X135617761Y-112436622D01*
G75*
G02*
X135819250Y-112490611I73750J-127739D01*
G01*
G37*
G36*
G01*
X134979206Y-112975611D02*
X135151706Y-113274389D01*
G75*
G02*
X135097717Y-113475878I-127739J-73750D01*
G01*
X134842239Y-113623378D01*
G75*
G02*
X134640750Y-113569389I-73750J127739D01*
G01*
X134468250Y-113270611D01*
G75*
G02*
X134522239Y-113069122I127739J73750D01*
G01*
X134777717Y-112921622D01*
G75*
G02*
X134979206Y-112975611I73750J-127739D01*
G01*
G37*
G36*
G01*
X133292595Y-114800026D02*
X132947595Y-114800026D01*
G75*
G02*
X132800095Y-114652526I0J147500D01*
G01*
X132800095Y-114357526D01*
G75*
G02*
X132947595Y-114210026I147500J0D01*
G01*
X133292595Y-114210026D01*
G75*
G02*
X133440095Y-114357526I0J-147500D01*
G01*
X133440095Y-114652526D01*
G75*
G02*
X133292595Y-114800026I-147500J0D01*
G01*
G37*
G36*
G01*
X133292595Y-115770026D02*
X132947595Y-115770026D01*
G75*
G02*
X132800095Y-115622526I0J147500D01*
G01*
X132800095Y-115327526D01*
G75*
G02*
X132947595Y-115180026I147500J0D01*
G01*
X133292595Y-115180026D01*
G75*
G02*
X133440095Y-115327526I0J-147500D01*
G01*
X133440095Y-115622526D01*
G75*
G02*
X133292595Y-115770026I-147500J0D01*
G01*
G37*
G36*
G01*
X112230000Y-103722500D02*
X112230000Y-103377500D01*
G75*
G02*
X112377500Y-103230000I147500J0D01*
G01*
X112672500Y-103230000D01*
G75*
G02*
X112820000Y-103377500I0J-147500D01*
G01*
X112820000Y-103722500D01*
G75*
G02*
X112672500Y-103870000I-147500J0D01*
G01*
X112377500Y-103870000D01*
G75*
G02*
X112230000Y-103722500I0J147500D01*
G01*
G37*
G36*
G01*
X111260000Y-103722500D02*
X111260000Y-103377500D01*
G75*
G02*
X111407500Y-103230000I147500J0D01*
G01*
X111702500Y-103230000D01*
G75*
G02*
X111850000Y-103377500I0J-147500D01*
G01*
X111850000Y-103722500D01*
G75*
G02*
X111702500Y-103870000I-147500J0D01*
G01*
X111407500Y-103870000D01*
G75*
G02*
X111260000Y-103722500I0J147500D01*
G01*
G37*
G36*
G01*
X112820000Y-102477500D02*
X112820000Y-102822500D01*
G75*
G02*
X112672500Y-102970000I-147500J0D01*
G01*
X112377500Y-102970000D01*
G75*
G02*
X112230000Y-102822500I0J147500D01*
G01*
X112230000Y-102477500D01*
G75*
G02*
X112377500Y-102330000I147500J0D01*
G01*
X112672500Y-102330000D01*
G75*
G02*
X112820000Y-102477500I0J-147500D01*
G01*
G37*
G36*
G01*
X111850000Y-102477500D02*
X111850000Y-102822500D01*
G75*
G02*
X111702500Y-102970000I-147500J0D01*
G01*
X111407500Y-102970000D01*
G75*
G02*
X111260000Y-102822500I0J147500D01*
G01*
X111260000Y-102477500D01*
G75*
G02*
X111407500Y-102330000I147500J0D01*
G01*
X111702500Y-102330000D01*
G75*
G02*
X111850000Y-102477500I0J-147500D01*
G01*
G37*
D15*
X183203000Y-100174917D02*
X183177000Y-100174917D01*
X183177000Y-98478917D01*
X183203000Y-98478917D01*
X183203000Y-100174917D01*
D10*
G36*
X183203000Y-100174917D02*
G01*
X183177000Y-100174917D01*
X183177000Y-98478917D01*
X183203000Y-98478917D01*
X183203000Y-100174917D01*
G37*
D15*
X167223000Y-100305158D02*
X167177000Y-100305158D01*
X167177000Y-96827000D01*
X167223000Y-96827000D01*
X167223000Y-100305158D01*
D10*
G36*
X167223000Y-100305158D02*
G01*
X167177000Y-100305158D01*
X167177000Y-96827000D01*
X167223000Y-96827000D01*
X167223000Y-100305158D01*
G37*
D15*
X146883000Y-109943000D02*
X146837000Y-109943000D01*
X146837000Y-108167000D01*
X146883000Y-108167000D01*
X146883000Y-109943000D01*
D10*
G36*
X146883000Y-109943000D02*
G01*
X146837000Y-109943000D01*
X146837000Y-108167000D01*
X146883000Y-108167000D01*
X146883000Y-109943000D01*
G37*
D15*
X190041383Y-106196810D02*
X190018383Y-106236647D01*
X188428617Y-105323190D01*
X188451617Y-105283353D01*
X190041383Y-106196810D01*
D10*
G36*
X190041383Y-106196810D02*
G01*
X190018383Y-106236647D01*
X188428617Y-105323190D01*
X188451617Y-105283353D01*
X190041383Y-106196810D01*
G37*
D15*
X188951194Y-108127137D02*
X188928196Y-108166971D01*
X187308806Y-107242863D01*
X187331805Y-107203028D01*
X188951194Y-108127137D01*
D10*
G36*
X188951194Y-108127137D02*
G01*
X188928196Y-108166971D01*
X187308806Y-107242863D01*
X187331805Y-107203028D01*
X188951194Y-108127137D01*
G37*
D15*
X172311658Y-95956334D02*
X172288658Y-95996170D01*
X170084328Y-94716857D01*
X170107328Y-94677021D01*
X172311658Y-95956334D01*
D10*
G36*
X172311658Y-95956334D02*
G01*
X172288658Y-95996170D01*
X170084328Y-94716857D01*
X170107328Y-94677021D01*
X172311658Y-95956334D01*
G37*
D15*
X171329918Y-97948043D02*
X171323779Y-97958770D01*
X168902374Y-96560771D01*
X168908512Y-96550044D01*
X171329918Y-97948043D01*
D10*
G36*
X171329918Y-97948043D02*
G01*
X171323779Y-97958770D01*
X168902374Y-96560771D01*
X168908512Y-96550044D01*
X171329918Y-97948043D01*
G37*
D15*
X189019735Y-100142031D02*
X187705879Y-100902106D01*
X187682879Y-100862268D01*
X188996734Y-100102193D01*
X189019735Y-100142031D01*
D10*
G36*
X189019735Y-100142031D02*
G01*
X187705879Y-100902106D01*
X187682879Y-100862268D01*
X188996734Y-100102193D01*
X189019735Y-100142031D01*
G37*
D15*
X190116477Y-102060836D02*
X188836195Y-102803400D01*
X188813195Y-102763562D01*
X190093477Y-102020999D01*
X190116477Y-102060836D01*
D10*
G36*
X190116477Y-102060836D02*
G01*
X188836195Y-102803400D01*
X188813195Y-102763562D01*
X190093477Y-102020999D01*
X190116477Y-102060836D01*
G37*
D15*
X152145592Y-107760301D02*
X152122592Y-107800138D01*
X150670582Y-106960876D01*
X150693582Y-106921039D01*
X152145592Y-107760301D01*
D10*
G36*
X152145592Y-107760301D02*
G01*
X152122592Y-107800138D01*
X150670582Y-106960876D01*
X150693582Y-106921039D01*
X152145592Y-107760301D01*
G37*
D15*
X149113000Y-107836606D02*
X149113000Y-109637917D01*
X149097000Y-109637572D01*
X149097000Y-107836261D01*
X149113000Y-107836606D01*
D10*
G36*
X149113000Y-107836606D02*
G01*
X149113000Y-109637917D01*
X149097000Y-109637572D01*
X149097000Y-107836261D01*
X149113000Y-107836606D01*
G37*
D15*
X144676797Y-111461500D02*
X144668361Y-111476180D01*
X142728203Y-110353404D01*
X142736640Y-110338724D01*
X144676797Y-111461500D01*
D10*
G36*
X144676797Y-111461500D02*
G01*
X144668361Y-111476180D01*
X142728203Y-110353404D01*
X142736640Y-110338724D01*
X144676797Y-111461500D01*
G37*
D15*
X143550502Y-113326251D02*
X143542986Y-113339026D01*
X141565811Y-112202037D01*
X141573327Y-112189261D01*
X143550502Y-113326251D01*
D10*
G36*
X143550502Y-113326251D02*
G01*
X143542986Y-113339026D01*
X141565811Y-112202037D01*
X141573327Y-112189261D01*
X143550502Y-113326251D01*
G37*
D15*
X140013000Y-113465600D02*
X140013000Y-116301262D01*
X139977000Y-116299400D01*
X139977000Y-113463738D01*
X140013000Y-113465600D01*
D10*
G36*
X140013000Y-113465600D02*
G01*
X140013000Y-116301262D01*
X139977000Y-116299400D01*
X139977000Y-113463738D01*
X140013000Y-113465600D01*
G37*
D15*
X174093000Y-95386989D02*
X174077000Y-95387221D01*
X174077000Y-91909090D01*
X174093000Y-91908858D01*
X174093000Y-95386989D01*
D10*
G36*
X174093000Y-95386989D02*
G01*
X174077000Y-95387221D01*
X174077000Y-91909090D01*
X174093000Y-91908858D01*
X174093000Y-95386989D01*
G37*
D15*
X183303000Y-108913000D02*
X183257000Y-108913000D01*
X183257000Y-107217000D01*
X183303000Y-107217000D01*
X183303000Y-108913000D01*
D10*
G36*
X183303000Y-108913000D02*
G01*
X183257000Y-108913000D01*
X183257000Y-107217000D01*
X183303000Y-107217000D01*
X183303000Y-108913000D01*
G37*
D15*
X185253000Y-108863000D02*
X185207000Y-108863000D01*
X185207000Y-108837000D01*
X185253000Y-108837000D01*
X185253000Y-108863000D01*
D10*
G36*
X185253000Y-108863000D02*
G01*
X185207000Y-108863000D01*
X185207000Y-108837000D01*
X185253000Y-108837000D01*
X185253000Y-108863000D01*
G37*
D15*
X133868673Y-107675083D02*
X133845674Y-107714919D01*
X131795250Y-106522602D01*
X131818249Y-106482765D01*
X133868673Y-107675083D01*
D10*
G36*
X133868673Y-107675083D02*
G01*
X133845674Y-107714919D01*
X131795250Y-106522602D01*
X131818249Y-106482765D01*
X133868673Y-107675083D01*
G37*
D15*
X122643000Y-106095158D02*
X122597000Y-106095158D01*
X122597000Y-102617000D01*
X122643000Y-102617000D01*
X122643000Y-106095158D01*
D10*
G36*
X122643000Y-106095158D02*
G01*
X122597000Y-106095158D01*
X122597000Y-102617000D01*
X122643000Y-102617000D01*
X122643000Y-106095158D01*
G37*
M02*
