G04 #@! TF.GenerationSoftware,KiCad,Pcbnew,(5.1.10)-1*
G04 #@! TF.CreationDate,2021-06-26T09:27:45-04:00*
G04 #@! TF.ProjectId,Main,4d61696e-2e6b-4696-9361-645f70636258,5*
G04 #@! TF.SameCoordinates,Original*
G04 #@! TF.FileFunction,Legend,Top*
G04 #@! TF.FilePolarity,Positive*
%FSLAX46Y46*%
G04 Gerber Fmt 4.6, Leading zero omitted, Abs format (unit mm)*
G04 Created by KiCad (PCBNEW (5.1.10)-1) date 2021-06-26 09:27:45*
%MOMM*%
%LPD*%
G01*
G04 APERTURE LIST*
%ADD10C,0.100000*%
%ADD11C,0.120000*%
%ADD12C,0.150000*%
%ADD13C,0.500000*%
%ADD14R,0.600000X1.100000*%
%ADD15C,2.500000*%
%ADD16R,0.375000X0.350000*%
%ADD17R,0.350000X0.375000*%
%ADD18R,0.650000X1.060000*%
%ADD19C,1.500000*%
%ADD20C,0.254000*%
G04 APERTURE END LIST*
D10*
X179809471Y-100778440D02*
X179397078Y-100540344D01*
X179897078Y-99674319D01*
X181010540Y-100317176D02*
X180598147Y-100079081D01*
X180318812Y-100467664D01*
X180383861Y-100450235D01*
X180490149Y-100456614D01*
X180696346Y-100575662D01*
X180755015Y-100664520D01*
X180772444Y-100729569D01*
X180766065Y-100835857D01*
X180647017Y-101042054D01*
X180558159Y-101100723D01*
X180493110Y-101118153D01*
X180386822Y-101111773D01*
X180180625Y-100992725D01*
X180121956Y-100903867D01*
X180104526Y-100838818D01*
X110500000Y-97250000D02*
X108000000Y-100800000D01*
X102719523Y-102056190D02*
X102719523Y-101556190D01*
X102910000Y-101556190D01*
X102957619Y-101580000D01*
X102981428Y-101603809D01*
X103005238Y-101651428D01*
X103005238Y-101722857D01*
X102981428Y-101770476D01*
X102957619Y-101794285D01*
X102910000Y-101818095D01*
X102719523Y-101818095D01*
X103219523Y-101865714D02*
X103600476Y-101865714D01*
X102699523Y-106616190D02*
X102699523Y-106116190D01*
X102890000Y-106116190D01*
X102937619Y-106140000D01*
X102961428Y-106163809D01*
X102985238Y-106211428D01*
X102985238Y-106282857D01*
X102961428Y-106330476D01*
X102937619Y-106354285D01*
X102890000Y-106378095D01*
X102699523Y-106378095D01*
X103199523Y-106425714D02*
X103580476Y-106425714D01*
X103390000Y-106616190D02*
X103390000Y-106235238D01*
D11*
X115256594Y-99281333D02*
X113044884Y-97732677D01*
X113937368Y-101165383D02*
X115256594Y-99281333D01*
D10*
X132090385Y-99893013D02*
X133129615Y-100493013D01*
X132590385Y-99026987D02*
X133629615Y-99626987D01*
X131917180Y-99966218D02*
G75*
G03*
X131917180Y-99966218I-100000J0D01*
G01*
D11*
X134255411Y-104093782D02*
X134955411Y-105306218D01*
X136964589Y-104146218D02*
X136014589Y-102500770D01*
D10*
X134391421Y-110790000D02*
G75*
G03*
X134391421Y-110790000I-141421J0D01*
G01*
X132050000Y-110590000D02*
X134050000Y-110590000D01*
X132050000Y-109190000D02*
X132050000Y-110590000D01*
X134050000Y-109190000D02*
X132050000Y-109190000D01*
X134050000Y-110590000D02*
X134050000Y-109190000D01*
D11*
X158245699Y-103585577D02*
X159470699Y-105707339D01*
X161934301Y-103534423D02*
X161034301Y-101975577D01*
X151197851Y-109036611D02*
X151305687Y-109223389D01*
X150574313Y-109396611D02*
X150682149Y-109583389D01*
X154447083Y-104559166D02*
X154705661Y-105007036D01*
X155676839Y-103849166D02*
X155935417Y-104297036D01*
X119610001Y-102857221D02*
X119610001Y-103182779D01*
X120629999Y-102857221D02*
X120629999Y-103182779D01*
X117550000Y-102588578D02*
X117550000Y-102071422D01*
X118970000Y-102588578D02*
X118970000Y-102071422D01*
X112670000Y-108350000D02*
X112670000Y-108350000D01*
X112670000Y-107850000D02*
X112670000Y-108350000D01*
X114370000Y-108350000D02*
X114370000Y-108350000D01*
X114870000Y-108350000D02*
X114370000Y-108350000D01*
X114870000Y-107850000D02*
X114870000Y-108350000D01*
X114870000Y-106650000D02*
X114870000Y-106650000D01*
X114870000Y-106150000D02*
X114870000Y-106650000D01*
X114370000Y-106150000D02*
X114870000Y-106150000D01*
X113170000Y-106150000D02*
X113170000Y-106150000D01*
X112670000Y-106150000D02*
X113170000Y-106150000D01*
X112670000Y-106650000D02*
X112670000Y-106150000D01*
X164744589Y-98226218D02*
X164044589Y-97013782D01*
X162035411Y-98173782D02*
X162985411Y-99819230D01*
X135350000Y-114240000D02*
X135350000Y-116690000D01*
X138570000Y-116040000D02*
X138570000Y-114240000D01*
D12*
X133865737Y-99407628D02*
X131982132Y-98320128D01*
X134337868Y-97139872D02*
X133082132Y-96414872D01*
D11*
X136849717Y-103765970D02*
X136686938Y-103484029D01*
X137733062Y-103255971D02*
X137570283Y-102974030D01*
X115020000Y-104032779D02*
X115020000Y-103707221D01*
X116040000Y-104032779D02*
X116040000Y-103707221D01*
X111079721Y-107460000D02*
X111405279Y-107460000D01*
X111079721Y-106440000D02*
X111405279Y-106440000D01*
X154206839Y-104689166D02*
X154465417Y-105137036D01*
X152977083Y-105399166D02*
X153235661Y-105847036D01*
X158563188Y-105872034D02*
X158725967Y-106153976D01*
X159446533Y-105362034D02*
X159609312Y-105643976D01*
X126264029Y-98159717D02*
X126545971Y-97996938D01*
X126774029Y-99043062D02*
X127055971Y-98880283D01*
X130900000Y-110982779D02*
X130900000Y-110657221D01*
X131920000Y-110982779D02*
X131920000Y-110657221D01*
X125920834Y-96505833D02*
X125472964Y-96764411D01*
X126630834Y-97735589D02*
X126182964Y-97994167D01*
X186790000Y-101470000D02*
G75*
G03*
X186790000Y-101470000I-950000J0D01*
G01*
X177650000Y-96190000D02*
G75*
G03*
X177650000Y-96190000I-950000J0D01*
G01*
D12*
X111967557Y-100794698D02*
X111694425Y-101184771D01*
X111994951Y-100174426D02*
X111967557Y-100794698D01*
X112541052Y-100556811D01*
X112669606Y-101867600D02*
X112201519Y-101539842D01*
X112435563Y-101703721D02*
X113009139Y-100884569D01*
X112849185Y-100946964D01*
X112716544Y-100970352D01*
X112611217Y-100954733D01*
D10*
X115483008Y-107616695D02*
X115532962Y-107673029D01*
X115636060Y-107732553D01*
X115689204Y-107735743D01*
X115721729Y-107727028D01*
X115766158Y-107697693D01*
X115789968Y-107656454D01*
X115793157Y-107603310D01*
X115784443Y-107570786D01*
X115755108Y-107526356D01*
X115684534Y-107458118D01*
X115655200Y-107413688D01*
X115646485Y-107381164D01*
X115649675Y-107328020D01*
X115673484Y-107286781D01*
X115717913Y-107257446D01*
X115750438Y-107248731D01*
X115803582Y-107251921D01*
X115906680Y-107311445D01*
X115956634Y-107367779D01*
X115904116Y-107887315D02*
X116154116Y-107454302D01*
X116257214Y-107513826D01*
X116307168Y-107570160D01*
X116324598Y-107635209D01*
X116321408Y-107688353D01*
X116294409Y-107782736D01*
X116258695Y-107844595D01*
X116190456Y-107915169D01*
X116146027Y-107944503D01*
X116080978Y-107961933D01*
X116007214Y-107946839D01*
X115904116Y-107887315D01*
X116387937Y-108001692D02*
X116594134Y-108120740D01*
X116275270Y-108101600D02*
X116669607Y-107751921D01*
X116563945Y-108268267D01*
X112862393Y-108566692D02*
X113068590Y-108685740D01*
X112749725Y-108666600D02*
X113144063Y-108316921D01*
X113038400Y-108833267D01*
X113453983Y-109018218D02*
X113421459Y-109026933D01*
X113347695Y-109011839D01*
X113306456Y-108988029D01*
X113256502Y-108931695D01*
X113239072Y-108866646D01*
X113242262Y-108813502D01*
X113269261Y-108719119D01*
X113304975Y-108657260D01*
X113373214Y-108586686D01*
X113417643Y-108557352D01*
X113482692Y-108539922D01*
X113556456Y-108555016D01*
X113597695Y-108578826D01*
X113647649Y-108635160D01*
X113656364Y-108667684D01*
X113886996Y-109268218D02*
X113854471Y-109276933D01*
X113780708Y-109261839D01*
X113739468Y-109238029D01*
X113689514Y-109181695D01*
X113672084Y-109116646D01*
X113675274Y-109063502D01*
X113702274Y-108969119D01*
X113737988Y-108907260D01*
X113806227Y-108836686D01*
X113850656Y-108807352D01*
X113915705Y-108789922D01*
X113989468Y-108805016D01*
X114030708Y-108828826D01*
X114080662Y-108885160D01*
X114089377Y-108917684D01*
X113921855Y-109398316D02*
X114251770Y-109588792D01*
X114378678Y-109607077D02*
X114628678Y-109174064D01*
X114584874Y-109726124D02*
X114834874Y-109293112D01*
X114832310Y-109868981D01*
X115082310Y-109435969D01*
X115226648Y-109519302D02*
X115474083Y-109662159D01*
X115100365Y-110023743D02*
X115350365Y-109590731D01*
X133191990Y-98423070D02*
X132989609Y-98773604D01*
X132986419Y-98826748D01*
X132995134Y-98859273D01*
X133024468Y-98903702D01*
X133106947Y-98951321D01*
X133160091Y-98954511D01*
X133192616Y-98945796D01*
X133237045Y-98916462D01*
X133439426Y-98565927D01*
X133600338Y-98906266D02*
X133571004Y-98861837D01*
X133562289Y-98829313D01*
X133565479Y-98776169D01*
X133577383Y-98755549D01*
X133621813Y-98726214D01*
X133654337Y-98717499D01*
X133707481Y-98720689D01*
X133789960Y-98768308D01*
X133819294Y-98812738D01*
X133828009Y-98845262D01*
X133824819Y-98898406D01*
X133812915Y-98919026D01*
X133768485Y-98948360D01*
X133735961Y-98957075D01*
X133682817Y-98953885D01*
X133600338Y-98906266D01*
X133547194Y-98903076D01*
X133514670Y-98911791D01*
X133470241Y-98941126D01*
X133422622Y-99023604D01*
X133419432Y-99076748D01*
X133428147Y-99109273D01*
X133457481Y-99153702D01*
X133539960Y-99201321D01*
X133593104Y-99204511D01*
X133625628Y-99195796D01*
X133670057Y-99166462D01*
X133717676Y-99083983D01*
X133720866Y-99030839D01*
X133712151Y-98998314D01*
X133682817Y-98953885D01*
X133580184Y-105016161D02*
X133782565Y-105366695D01*
X133826994Y-105396029D01*
X133859519Y-105404744D01*
X133912663Y-105401554D01*
X133995142Y-105353935D01*
X134024476Y-105309506D01*
X134033191Y-105276982D01*
X134030001Y-105223838D01*
X133827620Y-104873304D01*
X133992577Y-104778065D02*
X134281252Y-104611399D01*
X134345676Y-105151554D01*
X134351190Y-110265952D02*
X134755952Y-110265952D01*
X134803571Y-110242142D01*
X134827380Y-110218333D01*
X134851190Y-110170714D01*
X134851190Y-110075476D01*
X134827380Y-110027857D01*
X134803571Y-110004047D01*
X134755952Y-109980238D01*
X134351190Y-109980238D01*
X134351190Y-109527857D02*
X134351190Y-109623095D01*
X134375000Y-109670714D01*
X134398809Y-109694523D01*
X134470238Y-109742142D01*
X134565476Y-109765952D01*
X134755952Y-109765952D01*
X134803571Y-109742142D01*
X134827380Y-109718333D01*
X134851190Y-109670714D01*
X134851190Y-109575476D01*
X134827380Y-109527857D01*
X134803571Y-109504047D01*
X134755952Y-109480238D01*
X134636904Y-109480238D01*
X134589285Y-109504047D01*
X134565476Y-109527857D01*
X134541666Y-109575476D01*
X134541666Y-109670714D01*
X134565476Y-109718333D01*
X134589285Y-109742142D01*
X134636904Y-109765952D01*
D12*
X96965785Y-118706885D02*
X96380676Y-119116583D01*
X96236341Y-119159515D01*
X96103700Y-119136127D01*
X95982754Y-119046418D01*
X95928127Y-118968404D01*
X96720209Y-120099614D02*
X96392451Y-119631527D01*
X96556330Y-119865570D02*
X97375482Y-119291994D01*
X97203834Y-119295919D01*
X97071193Y-119272531D01*
X96977560Y-119221830D01*
D10*
X161553180Y-102373350D02*
X161755561Y-102723884D01*
X161799990Y-102753218D01*
X161832515Y-102761933D01*
X161885659Y-102758743D01*
X161968138Y-102711124D01*
X161997472Y-102666695D01*
X162006187Y-102634171D01*
X162002997Y-102581027D01*
X161800616Y-102230493D01*
X161965573Y-102135254D02*
X162233629Y-101980493D01*
X162184529Y-102228783D01*
X162246388Y-102193069D01*
X162299532Y-102189879D01*
X162332057Y-102198594D01*
X162376486Y-102227928D01*
X162436010Y-102331027D01*
X162439200Y-102384171D01*
X162430485Y-102416695D01*
X162401150Y-102461124D01*
X162277432Y-102532553D01*
X162224288Y-102535743D01*
X162191764Y-102527028D01*
X117987243Y-105050294D02*
X117963434Y-105074103D01*
X117892005Y-105097913D01*
X117844386Y-105097913D01*
X117772957Y-105074103D01*
X117725338Y-105026484D01*
X117701529Y-104978865D01*
X117677719Y-104883627D01*
X117677719Y-104812199D01*
X117701529Y-104716961D01*
X117725338Y-104669342D01*
X117772957Y-104621723D01*
X117844386Y-104597913D01*
X117892005Y-104597913D01*
X117963434Y-104621723D01*
X117987243Y-104645532D01*
X118415815Y-104597913D02*
X118320577Y-104597913D01*
X118272957Y-104621723D01*
X118249148Y-104645532D01*
X118201529Y-104716961D01*
X118177719Y-104812199D01*
X118177719Y-105002675D01*
X118201529Y-105050294D01*
X118225338Y-105074103D01*
X118272957Y-105097913D01*
X118368196Y-105097913D01*
X118415815Y-105074103D01*
X118439624Y-105050294D01*
X118463434Y-105002675D01*
X118463434Y-104883627D01*
X118439624Y-104836008D01*
X118415815Y-104812199D01*
X118368196Y-104788389D01*
X118272957Y-104788389D01*
X118225338Y-104812199D01*
X118201529Y-104836008D01*
X118177719Y-104883627D01*
X117618571Y-107036190D02*
X117451904Y-106798095D01*
X117332857Y-107036190D02*
X117332857Y-106536190D01*
X117523333Y-106536190D01*
X117570952Y-106560000D01*
X117594761Y-106583809D01*
X117618571Y-106631428D01*
X117618571Y-106702857D01*
X117594761Y-106750476D01*
X117570952Y-106774285D01*
X117523333Y-106798095D01*
X117332857Y-106798095D01*
X118094761Y-107036190D02*
X117809047Y-107036190D01*
X117951904Y-107036190D02*
X117951904Y-106536190D01*
X117904285Y-106607619D01*
X117856666Y-106655238D01*
X117809047Y-106679047D01*
X118261428Y-106536190D02*
X118570952Y-106536190D01*
X118404285Y-106726666D01*
X118475714Y-106726666D01*
X118523333Y-106750476D01*
X118547142Y-106774285D01*
X118570952Y-106821904D01*
X118570952Y-106940952D01*
X118547142Y-106988571D01*
X118523333Y-107012380D01*
X118475714Y-107036190D01*
X118332857Y-107036190D01*
X118285238Y-107012380D01*
X118261428Y-106988571D01*
X117588571Y-106126190D02*
X117421904Y-105888095D01*
X117302857Y-106126190D02*
X117302857Y-105626190D01*
X117493333Y-105626190D01*
X117540952Y-105650000D01*
X117564761Y-105673809D01*
X117588571Y-105721428D01*
X117588571Y-105792857D01*
X117564761Y-105840476D01*
X117540952Y-105864285D01*
X117493333Y-105888095D01*
X117302857Y-105888095D01*
X118064761Y-106126190D02*
X117779047Y-106126190D01*
X117921904Y-106126190D02*
X117921904Y-105626190D01*
X117874285Y-105697619D01*
X117826666Y-105745238D01*
X117779047Y-105769047D01*
X118493333Y-105792857D02*
X118493333Y-106126190D01*
X118374285Y-105602380D02*
X118255238Y-105959523D01*
X118564761Y-105959523D01*
X151629227Y-108540920D02*
X151596702Y-108532205D01*
X151540368Y-108482251D01*
X151516559Y-108441012D01*
X151501464Y-108367248D01*
X151518894Y-108302199D01*
X151548229Y-108257770D01*
X151618802Y-108189531D01*
X151680661Y-108153817D01*
X151775045Y-108126817D01*
X151828189Y-108123628D01*
X151893238Y-108141057D01*
X151949572Y-108191012D01*
X151973381Y-108232251D01*
X151988476Y-108306015D01*
X151979761Y-108338539D01*
X152074999Y-108503496D02*
X152107523Y-108512211D01*
X152151953Y-108541546D01*
X152211476Y-108644644D01*
X152214666Y-108697788D01*
X152205951Y-108730312D01*
X152176617Y-108774742D01*
X152135378Y-108798551D01*
X152061614Y-108813646D01*
X151671321Y-108709067D01*
X151826083Y-108977122D01*
X152485286Y-109118896D02*
X152366238Y-108912699D01*
X152148137Y-109011127D01*
X152180661Y-109019842D01*
X152225091Y-109049177D01*
X152284614Y-109152275D01*
X152287804Y-109205419D01*
X152279089Y-109237943D01*
X152249755Y-109282373D01*
X152146657Y-109341896D01*
X152093513Y-109345086D01*
X152060988Y-109336371D01*
X152016559Y-109307037D01*
X151957035Y-109203939D01*
X151953845Y-109150795D01*
X151962560Y-109118270D01*
X154634729Y-102606600D02*
X154371344Y-102483737D01*
X154387294Y-102749458D02*
X154137294Y-102316445D01*
X154302251Y-102221207D01*
X154355395Y-102218017D01*
X154387919Y-102226732D01*
X154432348Y-102256066D01*
X154468063Y-102317925D01*
X154471253Y-102371069D01*
X154462538Y-102403594D01*
X154433203Y-102448023D01*
X154268246Y-102543261D01*
X155047122Y-102368505D02*
X154799687Y-102511362D01*
X154923405Y-102439934D02*
X154673405Y-102006921D01*
X154667880Y-102092590D01*
X154650450Y-102157638D01*
X154621115Y-102202068D01*
X155188896Y-101709302D02*
X154982699Y-101828350D01*
X155081127Y-102046451D01*
X155089842Y-102013927D01*
X155119177Y-101969497D01*
X155222275Y-101909974D01*
X155275419Y-101906784D01*
X155307943Y-101915499D01*
X155352373Y-101944833D01*
X155411896Y-102047931D01*
X155415086Y-102101075D01*
X155406371Y-102133600D01*
X155377037Y-102178029D01*
X155273939Y-102237553D01*
X155220795Y-102240743D01*
X155188270Y-102232028D01*
X155887138Y-103577122D02*
X155854613Y-103568407D01*
X155798279Y-103518453D01*
X155774470Y-103477214D01*
X155759375Y-103403450D01*
X155776805Y-103338401D01*
X155806140Y-103293972D01*
X155876713Y-103225733D01*
X155938572Y-103190019D01*
X156032956Y-103163019D01*
X156086100Y-103159830D01*
X156151149Y-103177259D01*
X156207483Y-103227214D01*
X156231292Y-103268453D01*
X156246387Y-103342217D01*
X156237672Y-103374741D01*
X156083994Y-104013324D02*
X155941137Y-103765889D01*
X156012565Y-103889607D02*
X156445578Y-103639607D01*
X156359909Y-103634082D01*
X156294861Y-103616652D01*
X156250431Y-103587317D01*
X156600340Y-103907662D02*
X156755102Y-104175718D01*
X156506811Y-104126618D01*
X156542525Y-104188477D01*
X156545715Y-104241621D01*
X156537000Y-104274145D01*
X156507666Y-104318575D01*
X156404568Y-104378098D01*
X156351424Y-104381288D01*
X156318899Y-104372573D01*
X156274470Y-104343239D01*
X156203041Y-104219521D01*
X156199852Y-104166377D01*
X156208566Y-104133853D01*
X133933933Y-116877651D02*
X133942647Y-116910175D01*
X133927553Y-116983939D01*
X133903743Y-117025178D01*
X133847409Y-117075132D01*
X133782361Y-117092562D01*
X133729217Y-117089372D01*
X133634833Y-117062373D01*
X133572974Y-117026658D01*
X133502400Y-116958420D01*
X133473066Y-116913991D01*
X133455636Y-116848942D01*
X133470731Y-116775178D01*
X133494540Y-116733939D01*
X133550874Y-116683984D01*
X133583399Y-116675270D01*
X133678637Y-116510312D02*
X133669922Y-116477788D01*
X133673112Y-116424644D01*
X133732635Y-116321546D01*
X133777065Y-116292211D01*
X133809589Y-116283496D01*
X133862733Y-116286686D01*
X133903972Y-116310496D01*
X133953927Y-116366830D01*
X134058505Y-116757122D01*
X134213267Y-116489067D01*
X134451362Y-116076674D02*
X134308505Y-116324110D01*
X134379934Y-116200392D02*
X133946921Y-115950392D01*
X133984971Y-116027345D01*
X134002400Y-116092394D01*
X133999210Y-116145538D01*
X134796666Y-116766190D02*
X134630000Y-116528095D01*
X134510952Y-116766190D02*
X134510952Y-116266190D01*
X134701428Y-116266190D01*
X134749047Y-116290000D01*
X134772857Y-116313809D01*
X134796666Y-116361428D01*
X134796666Y-116432857D01*
X134772857Y-116480476D01*
X134749047Y-116504285D01*
X134701428Y-116528095D01*
X134510952Y-116528095D01*
X135225238Y-116266190D02*
X135130000Y-116266190D01*
X135082380Y-116290000D01*
X135058571Y-116313809D01*
X135010952Y-116385238D01*
X134987142Y-116480476D01*
X134987142Y-116670952D01*
X135010952Y-116718571D01*
X135034761Y-116742380D01*
X135082380Y-116766190D01*
X135177619Y-116766190D01*
X135225238Y-116742380D01*
X135249047Y-116718571D01*
X135272857Y-116670952D01*
X135272857Y-116551904D01*
X135249047Y-116504285D01*
X135225238Y-116480476D01*
X135177619Y-116456666D01*
X135082380Y-116456666D01*
X135034761Y-116480476D01*
X135010952Y-116504285D01*
X134987142Y-116551904D01*
X121258571Y-103553333D02*
X121282380Y-103577142D01*
X121306190Y-103648571D01*
X121306190Y-103696190D01*
X121282380Y-103767619D01*
X121234761Y-103815238D01*
X121187142Y-103839047D01*
X121091904Y-103862857D01*
X121020476Y-103862857D01*
X120925238Y-103839047D01*
X120877619Y-103815238D01*
X120830000Y-103767619D01*
X120806190Y-103696190D01*
X120806190Y-103648571D01*
X120830000Y-103577142D01*
X120853809Y-103553333D01*
X121306190Y-103077142D02*
X121306190Y-103362857D01*
X121306190Y-103220000D02*
X120806190Y-103220000D01*
X120877619Y-103267619D01*
X120925238Y-103315238D01*
X120949047Y-103362857D01*
X117176190Y-102373333D02*
X117176190Y-102611428D01*
X116676190Y-102611428D01*
X117176190Y-101944761D02*
X117176190Y-102230476D01*
X117176190Y-102087619D02*
X116676190Y-102087619D01*
X116747619Y-102135238D01*
X116795238Y-102182857D01*
X116819047Y-102230476D01*
X121386666Y-101486190D02*
X121148571Y-101486190D01*
X121148571Y-100986190D01*
X121529523Y-101033809D02*
X121553333Y-101010000D01*
X121600952Y-100986190D01*
X121720000Y-100986190D01*
X121767619Y-101010000D01*
X121791428Y-101033809D01*
X121815238Y-101081428D01*
X121815238Y-101129047D01*
X121791428Y-101200476D01*
X121505714Y-101486190D01*
X121815238Y-101486190D01*
X125414638Y-103360920D02*
X125382113Y-103352205D01*
X125325779Y-103302251D01*
X125301970Y-103261012D01*
X125286875Y-103187248D01*
X125304305Y-103122199D01*
X125333640Y-103077770D01*
X125404213Y-103009531D01*
X125466072Y-102973817D01*
X125560456Y-102946817D01*
X125613600Y-102943628D01*
X125678649Y-102961057D01*
X125734983Y-103011012D01*
X125758792Y-103052251D01*
X125773887Y-103126015D01*
X125765172Y-103158539D01*
X125860410Y-103323496D02*
X125892934Y-103332211D01*
X125937364Y-103361546D01*
X125996887Y-103464644D01*
X126000077Y-103517788D01*
X125991362Y-103550312D01*
X125962028Y-103594742D01*
X125920789Y-103618551D01*
X125847025Y-103633646D01*
X125456732Y-103529067D01*
X125611494Y-103797122D01*
X126127840Y-103691460D02*
X126282602Y-103959516D01*
X126034311Y-103910416D01*
X126070025Y-103972275D01*
X126073215Y-104025419D01*
X126064500Y-104057943D01*
X126035166Y-104102373D01*
X125932068Y-104161896D01*
X125878924Y-104165086D01*
X125846399Y-104156371D01*
X125801970Y-104127037D01*
X125730541Y-104003319D01*
X125727352Y-103950175D01*
X125736066Y-103917651D01*
X114342748Y-99995606D02*
X114348595Y-100028766D01*
X114327129Y-100100933D01*
X114299815Y-100139940D01*
X114239342Y-100184795D01*
X114173022Y-100196489D01*
X114120358Y-100188679D01*
X114028687Y-100153557D01*
X113970176Y-100112587D01*
X113905818Y-100038457D01*
X113880467Y-99991640D01*
X113868773Y-99925320D01*
X113890239Y-99853152D01*
X113917553Y-99814145D01*
X113978026Y-99769291D01*
X114011186Y-99763444D01*
X114120439Y-99607415D02*
X114114592Y-99574254D01*
X114122401Y-99521591D01*
X114190684Y-99424073D01*
X114237501Y-99398722D01*
X114270661Y-99392875D01*
X114323325Y-99400684D01*
X114362332Y-99427998D01*
X114407186Y-99488471D01*
X114477351Y-99886393D01*
X114654886Y-99632846D01*
X111483320Y-97923661D02*
X111489167Y-97956821D01*
X111467701Y-98028988D01*
X111440387Y-98067995D01*
X111379914Y-98112850D01*
X111313594Y-98124544D01*
X111260930Y-98116734D01*
X111169259Y-98081612D01*
X111110748Y-98040642D01*
X111046390Y-97966512D01*
X111021039Y-97919695D01*
X111009345Y-97853375D01*
X111030811Y-97781207D01*
X111058125Y-97742200D01*
X111118598Y-97697346D01*
X111151758Y-97691499D01*
X111372226Y-97293617D02*
X111235660Y-97488653D01*
X111417040Y-97644722D01*
X111411193Y-97611562D01*
X111419002Y-97558898D01*
X111487285Y-97461380D01*
X111534102Y-97436030D01*
X111567262Y-97430183D01*
X111619926Y-97437992D01*
X111717444Y-97506275D01*
X111742795Y-97553092D01*
X111748642Y-97586252D01*
X111740832Y-97638916D01*
X111672549Y-97736434D01*
X111625732Y-97761785D01*
X111592572Y-97767632D01*
X110948571Y-104593333D02*
X110972380Y-104617142D01*
X110996190Y-104688571D01*
X110996190Y-104736190D01*
X110972380Y-104807619D01*
X110924761Y-104855238D01*
X110877142Y-104879047D01*
X110781904Y-104902857D01*
X110710476Y-104902857D01*
X110615238Y-104879047D01*
X110567619Y-104855238D01*
X110520000Y-104807619D01*
X110496190Y-104736190D01*
X110496190Y-104688571D01*
X110520000Y-104617142D01*
X110543809Y-104593333D01*
X110496190Y-104426666D02*
X110496190Y-104093333D01*
X110996190Y-104307619D01*
X113958571Y-104968571D02*
X113934761Y-104992380D01*
X113863333Y-105016190D01*
X113815714Y-105016190D01*
X113744285Y-104992380D01*
X113696666Y-104944761D01*
X113672857Y-104897142D01*
X113649047Y-104801904D01*
X113649047Y-104730476D01*
X113672857Y-104635238D01*
X113696666Y-104587619D01*
X113744285Y-104540000D01*
X113815714Y-104516190D01*
X113863333Y-104516190D01*
X113934761Y-104540000D01*
X113958571Y-104563809D01*
X114434761Y-105016190D02*
X114149047Y-105016190D01*
X114291904Y-105016190D02*
X114291904Y-104516190D01*
X114244285Y-104587619D01*
X114196666Y-104635238D01*
X114149047Y-104659047D01*
X114910952Y-105016190D02*
X114625238Y-105016190D01*
X114768095Y-105016190D02*
X114768095Y-104516190D01*
X114720476Y-104587619D01*
X114672857Y-104635238D01*
X114625238Y-104659047D01*
X116538571Y-106841428D02*
X116562380Y-106865238D01*
X116586190Y-106936666D01*
X116586190Y-106984285D01*
X116562380Y-107055714D01*
X116514761Y-107103333D01*
X116467142Y-107127142D01*
X116371904Y-107150952D01*
X116300476Y-107150952D01*
X116205238Y-107127142D01*
X116157619Y-107103333D01*
X116110000Y-107055714D01*
X116086190Y-106984285D01*
X116086190Y-106936666D01*
X116110000Y-106865238D01*
X116133809Y-106841428D01*
X116586190Y-106365238D02*
X116586190Y-106650952D01*
X116586190Y-106508095D02*
X116086190Y-106508095D01*
X116157619Y-106555714D01*
X116205238Y-106603333D01*
X116229047Y-106650952D01*
X116086190Y-106055714D02*
X116086190Y-106008095D01*
X116110000Y-105960476D01*
X116133809Y-105936666D01*
X116181428Y-105912857D01*
X116276666Y-105889047D01*
X116395714Y-105889047D01*
X116490952Y-105912857D01*
X116538571Y-105936666D01*
X116562380Y-105960476D01*
X116586190Y-106008095D01*
X116586190Y-106055714D01*
X116562380Y-106103333D01*
X116538571Y-106127142D01*
X116490952Y-106150952D01*
X116395714Y-106174761D01*
X116276666Y-106174761D01*
X116181428Y-106150952D01*
X116133809Y-106127142D01*
X116110000Y-106103333D01*
X116086190Y-106055714D01*
X126364638Y-101470920D02*
X126332113Y-101462205D01*
X126275779Y-101412251D01*
X126251970Y-101371012D01*
X126236875Y-101297248D01*
X126254305Y-101232199D01*
X126283640Y-101187770D01*
X126354213Y-101119531D01*
X126416072Y-101083817D01*
X126510456Y-101056817D01*
X126563600Y-101053628D01*
X126628649Y-101071057D01*
X126684983Y-101121012D01*
X126708792Y-101162251D01*
X126723887Y-101236015D01*
X126715172Y-101268539D01*
X126561494Y-101907122D02*
X126418637Y-101659687D01*
X126490065Y-101783405D02*
X126923078Y-101533405D01*
X126837409Y-101527880D01*
X126772361Y-101510450D01*
X126727931Y-101481115D01*
X127077840Y-101801460D02*
X127244506Y-102090135D01*
X126704351Y-102154558D01*
X165720920Y-100595361D02*
X165712205Y-100627886D01*
X165662251Y-100684220D01*
X165621012Y-100708029D01*
X165547248Y-100723124D01*
X165482199Y-100705694D01*
X165437770Y-100676359D01*
X165369531Y-100605786D01*
X165333817Y-100543927D01*
X165306817Y-100449543D01*
X165303628Y-100396399D01*
X165321057Y-100331350D01*
X165371012Y-100275016D01*
X165412251Y-100251207D01*
X165486015Y-100236112D01*
X165518539Y-100244827D01*
X166157122Y-100398505D02*
X165909687Y-100541362D01*
X166033405Y-100469934D02*
X165783405Y-100036921D01*
X165777880Y-100122590D01*
X165760450Y-100187638D01*
X165731115Y-100232068D01*
X166363319Y-100279458D02*
X166445798Y-100231839D01*
X166475132Y-100187409D01*
X166483847Y-100154885D01*
X166489372Y-100069217D01*
X166462373Y-99974833D01*
X166367135Y-99809876D01*
X166322705Y-99780541D01*
X166290181Y-99771826D01*
X166237037Y-99775016D01*
X166154558Y-99822635D01*
X166125224Y-99867065D01*
X166116509Y-99899589D01*
X166119699Y-99952733D01*
X166179223Y-100055831D01*
X166223652Y-100085166D01*
X166256176Y-100093881D01*
X166309320Y-100090691D01*
X166391799Y-100043072D01*
X166421133Y-99998643D01*
X166429848Y-99966118D01*
X166426658Y-99912974D01*
X111978571Y-104978571D02*
X111954761Y-105002380D01*
X111883333Y-105026190D01*
X111835714Y-105026190D01*
X111764285Y-105002380D01*
X111716666Y-104954761D01*
X111692857Y-104907142D01*
X111669047Y-104811904D01*
X111669047Y-104740476D01*
X111692857Y-104645238D01*
X111716666Y-104597619D01*
X111764285Y-104550000D01*
X111835714Y-104526190D01*
X111883333Y-104526190D01*
X111954761Y-104550000D01*
X111978571Y-104573809D01*
X112169047Y-104573809D02*
X112192857Y-104550000D01*
X112240476Y-104526190D01*
X112359523Y-104526190D01*
X112407142Y-104550000D01*
X112430952Y-104573809D01*
X112454761Y-104621428D01*
X112454761Y-104669047D01*
X112430952Y-104740476D01*
X112145238Y-105026190D01*
X112454761Y-105026190D01*
X112645238Y-104573809D02*
X112669047Y-104550000D01*
X112716666Y-104526190D01*
X112835714Y-104526190D01*
X112883333Y-104550000D01*
X112907142Y-104573809D01*
X112930952Y-104621428D01*
X112930952Y-104669047D01*
X112907142Y-104740476D01*
X112621428Y-105026190D01*
X112930952Y-105026190D01*
X180210920Y-108515361D02*
X180202205Y-108547886D01*
X180152251Y-108604220D01*
X180111012Y-108628029D01*
X180037248Y-108643124D01*
X179972199Y-108625694D01*
X179927770Y-108596359D01*
X179859531Y-108525786D01*
X179823817Y-108463927D01*
X179796817Y-108369543D01*
X179793628Y-108316399D01*
X179811057Y-108251350D01*
X179861012Y-108195016D01*
X179902251Y-108171207D01*
X179976015Y-108156112D01*
X180008539Y-108164827D01*
X180173496Y-108069589D02*
X180182211Y-108037065D01*
X180211546Y-107992635D01*
X180314644Y-107933112D01*
X180367788Y-107929922D01*
X180400312Y-107938637D01*
X180444742Y-107967971D01*
X180468551Y-108009210D01*
X180483646Y-108082974D01*
X180379067Y-108473267D01*
X180647122Y-108318505D01*
X180851610Y-107815544D02*
X181018276Y-108104220D01*
X180653273Y-107710111D02*
X180728746Y-108078930D01*
X180996802Y-107924168D01*
X112409047Y-108446190D02*
X112409047Y-108850952D01*
X112432857Y-108898571D01*
X112456666Y-108922380D01*
X112504285Y-108946190D01*
X112599523Y-108946190D01*
X112647142Y-108922380D01*
X112670952Y-108898571D01*
X112694761Y-108850952D01*
X112694761Y-108446190D01*
X112909047Y-108493809D02*
X112932857Y-108470000D01*
X112980476Y-108446190D01*
X113099523Y-108446190D01*
X113147142Y-108470000D01*
X113170952Y-108493809D01*
X113194761Y-108541428D01*
X113194761Y-108589047D01*
X113170952Y-108660476D01*
X112885238Y-108946190D01*
X113194761Y-108946190D01*
X162243490Y-96990410D02*
X161993490Y-96557397D01*
X162096588Y-96497873D01*
X162170352Y-96482779D01*
X162235401Y-96500209D01*
X162279830Y-96529543D01*
X162348069Y-96600117D01*
X162383783Y-96661976D01*
X162410782Y-96756359D01*
X162413972Y-96809503D01*
X162396543Y-96874552D01*
X162346588Y-96930886D01*
X162243490Y-96990410D01*
X162903319Y-96609458D02*
X162655883Y-96752315D01*
X162779601Y-96680886D02*
X162529601Y-96247873D01*
X162524076Y-96333542D01*
X162506646Y-96398591D01*
X162477312Y-96443020D01*
X136539047Y-112766190D02*
X136539047Y-113170952D01*
X136562857Y-113218571D01*
X136586666Y-113242380D01*
X136634285Y-113266190D01*
X136729523Y-113266190D01*
X136777142Y-113242380D01*
X136800952Y-113218571D01*
X136824761Y-113170952D01*
X136824761Y-112766190D01*
X137300952Y-112766190D02*
X137062857Y-112766190D01*
X137039047Y-113004285D01*
X137062857Y-112980476D01*
X137110476Y-112956666D01*
X137229523Y-112956666D01*
X137277142Y-112980476D01*
X137300952Y-113004285D01*
X137324761Y-113051904D01*
X137324761Y-113170952D01*
X137300952Y-113218571D01*
X137277142Y-113242380D01*
X137229523Y-113266190D01*
X137110476Y-113266190D01*
X137062857Y-113242380D01*
X137039047Y-113218571D01*
X134796989Y-98432397D02*
X134594608Y-98782931D01*
X134591418Y-98836075D01*
X134600133Y-98868600D01*
X134629467Y-98913029D01*
X134711946Y-98960648D01*
X134765090Y-98963838D01*
X134797615Y-98955123D01*
X134842044Y-98925789D01*
X135044425Y-98575254D01*
X135352865Y-98945782D02*
X135186198Y-99234458D01*
X135345005Y-98721301D02*
X135063335Y-98971072D01*
X135331390Y-99125834D01*
X137564638Y-102210920D02*
X137532113Y-102202205D01*
X137475779Y-102152251D01*
X137451970Y-102111012D01*
X137436875Y-102037248D01*
X137454305Y-101972199D01*
X137483640Y-101927770D01*
X137554213Y-101859531D01*
X137616072Y-101823817D01*
X137710456Y-101796817D01*
X137763600Y-101793628D01*
X137828649Y-101811057D01*
X137884983Y-101861012D01*
X137908792Y-101902251D01*
X137923887Y-101976015D01*
X137915172Y-102008539D01*
X137761494Y-102647122D02*
X137618637Y-102399687D01*
X137690065Y-102523405D02*
X138123078Y-102273405D01*
X138037409Y-102267880D01*
X137972361Y-102250450D01*
X137927931Y-102221115D01*
X138408792Y-102768276D02*
X138361173Y-102685798D01*
X138316744Y-102656463D01*
X138284220Y-102647748D01*
X138198551Y-102642223D01*
X138104168Y-102669223D01*
X137939210Y-102764461D01*
X137909876Y-102808890D01*
X137901161Y-102841414D01*
X137904351Y-102894558D01*
X137951970Y-102977037D01*
X137996399Y-103006371D01*
X138028924Y-103015086D01*
X138082068Y-103011896D01*
X138185166Y-102952373D01*
X138214500Y-102907943D01*
X138223215Y-102875419D01*
X138220025Y-102822275D01*
X138172406Y-102739796D01*
X138127977Y-102710462D01*
X138095453Y-102701747D01*
X138042309Y-102704937D01*
X115496666Y-102228571D02*
X115472857Y-102252380D01*
X115401428Y-102276190D01*
X115353809Y-102276190D01*
X115282380Y-102252380D01*
X115234761Y-102204761D01*
X115210952Y-102157142D01*
X115187142Y-102061904D01*
X115187142Y-101990476D01*
X115210952Y-101895238D01*
X115234761Y-101847619D01*
X115282380Y-101800000D01*
X115353809Y-101776190D01*
X115401428Y-101776190D01*
X115472857Y-101800000D01*
X115496666Y-101823809D01*
X115925238Y-101942857D02*
X115925238Y-102276190D01*
X115806190Y-101752380D02*
X115687142Y-102109523D01*
X115996666Y-102109523D01*
X109551071Y-108008571D02*
X109527261Y-108032380D01*
X109455833Y-108056190D01*
X109408214Y-108056190D01*
X109336785Y-108032380D01*
X109289166Y-107984761D01*
X109265357Y-107937142D01*
X109241547Y-107841904D01*
X109241547Y-107770476D01*
X109265357Y-107675238D01*
X109289166Y-107627619D01*
X109336785Y-107580000D01*
X109408214Y-107556190D01*
X109455833Y-107556190D01*
X109527261Y-107580000D01*
X109551071Y-107603809D01*
X110027261Y-108056190D02*
X109741547Y-108056190D01*
X109884404Y-108056190D02*
X109884404Y-107556190D01*
X109836785Y-107627619D01*
X109789166Y-107675238D01*
X109741547Y-107699047D01*
X110217738Y-107603809D02*
X110241547Y-107580000D01*
X110289166Y-107556190D01*
X110408214Y-107556190D01*
X110455833Y-107580000D01*
X110479642Y-107603809D01*
X110503452Y-107651428D01*
X110503452Y-107699047D01*
X110479642Y-107770476D01*
X110193928Y-108056190D01*
X110503452Y-108056190D01*
X152437138Y-105767122D02*
X152404613Y-105758407D01*
X152348279Y-105708453D01*
X152324470Y-105667214D01*
X152309375Y-105593450D01*
X152326805Y-105528401D01*
X152356140Y-105483972D01*
X152426713Y-105415733D01*
X152488572Y-105380019D01*
X152582956Y-105353019D01*
X152636100Y-105349830D01*
X152701149Y-105367259D01*
X152757483Y-105417214D01*
X152781292Y-105458453D01*
X152796387Y-105532217D01*
X152787672Y-105564741D01*
X152633994Y-106203324D02*
X152491137Y-105955889D01*
X152562565Y-106079607D02*
X152995578Y-105829607D01*
X152909909Y-105824082D01*
X152844861Y-105806652D01*
X152800431Y-105777317D01*
X153136955Y-106407812D02*
X152848279Y-106574478D01*
X153242388Y-106209475D02*
X152873569Y-106284948D01*
X153028331Y-106553004D01*
X157634638Y-103820920D02*
X157602113Y-103812205D01*
X157545779Y-103762251D01*
X157521970Y-103721012D01*
X157506875Y-103647248D01*
X157524305Y-103582199D01*
X157553640Y-103537770D01*
X157624213Y-103469531D01*
X157686072Y-103433817D01*
X157780456Y-103406817D01*
X157833600Y-103403628D01*
X157898649Y-103421057D01*
X157954983Y-103471012D01*
X157978792Y-103512251D01*
X157993887Y-103586015D01*
X157985172Y-103618539D01*
X157831494Y-104257122D02*
X157688637Y-104009687D01*
X157760065Y-104133405D02*
X158193078Y-103883405D01*
X158107409Y-103877880D01*
X158042361Y-103860450D01*
X157997931Y-103831115D01*
X158490697Y-104398896D02*
X158371649Y-104192699D01*
X158153548Y-104291127D01*
X158186072Y-104299842D01*
X158230502Y-104329177D01*
X158290025Y-104432275D01*
X158293215Y-104485419D01*
X158284500Y-104517943D01*
X158255166Y-104562373D01*
X158152068Y-104621896D01*
X158098924Y-104625086D01*
X158066399Y-104616371D01*
X158021970Y-104587037D01*
X157962446Y-104483939D01*
X157959256Y-104430795D01*
X157967971Y-104398270D01*
X124680920Y-100055361D02*
X124672205Y-100087886D01*
X124622251Y-100144220D01*
X124581012Y-100168029D01*
X124507248Y-100183124D01*
X124442199Y-100165694D01*
X124397770Y-100136359D01*
X124329531Y-100065786D01*
X124293817Y-100003927D01*
X124266817Y-99909543D01*
X124263628Y-99856399D01*
X124281057Y-99791350D01*
X124331012Y-99735016D01*
X124372251Y-99711207D01*
X124446015Y-99696112D01*
X124478539Y-99704827D01*
X125117122Y-99858505D02*
X124869687Y-100001362D01*
X124993405Y-99929934D02*
X124743405Y-99496921D01*
X124737880Y-99582590D01*
X124720450Y-99647638D01*
X124691115Y-99692068D01*
X125221701Y-99468212D02*
X125168557Y-99471402D01*
X125136033Y-99462687D01*
X125091604Y-99433353D01*
X125079699Y-99412733D01*
X125076509Y-99359589D01*
X125085224Y-99327065D01*
X125114558Y-99282635D01*
X125197037Y-99235016D01*
X125250181Y-99231826D01*
X125282705Y-99240541D01*
X125327135Y-99269876D01*
X125339039Y-99290496D01*
X125342229Y-99343640D01*
X125333514Y-99376164D01*
X125304180Y-99420593D01*
X125221701Y-99468212D01*
X125192367Y-99512641D01*
X125183652Y-99545166D01*
X125186842Y-99598310D01*
X125234461Y-99680789D01*
X125278890Y-99710123D01*
X125311414Y-99718838D01*
X125364558Y-99715648D01*
X125447037Y-99668029D01*
X125476371Y-99623600D01*
X125485086Y-99591075D01*
X125481896Y-99537931D01*
X125434277Y-99455453D01*
X125389848Y-99426118D01*
X125357324Y-99417403D01*
X125304180Y-99420593D01*
X130608571Y-110981428D02*
X130632380Y-111005238D01*
X130656190Y-111076666D01*
X130656190Y-111124285D01*
X130632380Y-111195714D01*
X130584761Y-111243333D01*
X130537142Y-111267142D01*
X130441904Y-111290952D01*
X130370476Y-111290952D01*
X130275238Y-111267142D01*
X130227619Y-111243333D01*
X130180000Y-111195714D01*
X130156190Y-111124285D01*
X130156190Y-111076666D01*
X130180000Y-111005238D01*
X130203809Y-110981428D01*
X130203809Y-110790952D02*
X130180000Y-110767142D01*
X130156190Y-110719523D01*
X130156190Y-110600476D01*
X130180000Y-110552857D01*
X130203809Y-110529047D01*
X130251428Y-110505238D01*
X130299047Y-110505238D01*
X130370476Y-110529047D01*
X130656190Y-110814761D01*
X130656190Y-110505238D01*
X130156190Y-110195714D02*
X130156190Y-110148095D01*
X130180000Y-110100476D01*
X130203809Y-110076666D01*
X130251428Y-110052857D01*
X130346666Y-110029047D01*
X130465714Y-110029047D01*
X130560952Y-110052857D01*
X130608571Y-110076666D01*
X130632380Y-110100476D01*
X130656190Y-110148095D01*
X130656190Y-110195714D01*
X130632380Y-110243333D01*
X130608571Y-110267142D01*
X130560952Y-110290952D01*
X130465714Y-110314761D01*
X130346666Y-110314761D01*
X130251428Y-110290952D01*
X130203809Y-110267142D01*
X130180000Y-110243333D01*
X130156190Y-110195714D01*
X124067139Y-98299676D02*
X123948092Y-98093479D01*
X124381104Y-97843479D01*
X124546290Y-98462924D02*
X124257615Y-98629590D01*
X124651724Y-98264587D02*
X124282905Y-98340061D01*
X124437667Y-98608116D01*
X126866666Y-99746190D02*
X126700000Y-99508095D01*
X126580952Y-99746190D02*
X126580952Y-99246190D01*
X126771428Y-99246190D01*
X126819047Y-99270000D01*
X126842857Y-99293809D01*
X126866666Y-99341428D01*
X126866666Y-99412857D01*
X126842857Y-99460476D01*
X126819047Y-99484285D01*
X126771428Y-99508095D01*
X126580952Y-99508095D01*
X127319047Y-99246190D02*
X127080952Y-99246190D01*
X127057142Y-99484285D01*
X127080952Y-99460476D01*
X127128571Y-99436666D01*
X127247619Y-99436666D01*
X127295238Y-99460476D01*
X127319047Y-99484285D01*
X127342857Y-99531904D01*
X127342857Y-99650952D01*
X127319047Y-99698571D01*
X127295238Y-99722380D01*
X127247619Y-99746190D01*
X127128571Y-99746190D01*
X127080952Y-99722380D01*
X127057142Y-99698571D01*
X128243698Y-100284972D02*
X128077032Y-100046877D01*
X127957984Y-100284972D02*
X127957984Y-99784972D01*
X128148460Y-99784972D01*
X128196079Y-99808782D01*
X128219889Y-99832591D01*
X128243698Y-99880210D01*
X128243698Y-99951639D01*
X128219889Y-99999258D01*
X128196079Y-100023067D01*
X128148460Y-100046877D01*
X127957984Y-100046877D01*
X128672270Y-99951639D02*
X128672270Y-100284972D01*
X128553222Y-99761162D02*
X128434174Y-100118305D01*
X128743698Y-100118305D01*
X113036190Y-102063333D02*
X112798095Y-102230000D01*
X113036190Y-102349047D02*
X112536190Y-102349047D01*
X112536190Y-102158571D01*
X112560000Y-102110952D01*
X112583809Y-102087142D01*
X112631428Y-102063333D01*
X112702857Y-102063333D01*
X112750476Y-102087142D01*
X112774285Y-102110952D01*
X112798095Y-102158571D01*
X112798095Y-102349047D01*
X112536190Y-101896666D02*
X112536190Y-101563333D01*
X113036190Y-101777619D01*
X114466666Y-102596190D02*
X114300000Y-102358095D01*
X114180952Y-102596190D02*
X114180952Y-102096190D01*
X114371428Y-102096190D01*
X114419047Y-102120000D01*
X114442857Y-102143809D01*
X114466666Y-102191428D01*
X114466666Y-102262857D01*
X114442857Y-102310476D01*
X114419047Y-102334285D01*
X114371428Y-102358095D01*
X114180952Y-102358095D01*
X114752380Y-102310476D02*
X114704761Y-102286666D01*
X114680952Y-102262857D01*
X114657142Y-102215238D01*
X114657142Y-102191428D01*
X114680952Y-102143809D01*
X114704761Y-102120000D01*
X114752380Y-102096190D01*
X114847619Y-102096190D01*
X114895238Y-102120000D01*
X114919047Y-102143809D01*
X114942857Y-102191428D01*
X114942857Y-102215238D01*
X114919047Y-102262857D01*
X114895238Y-102286666D01*
X114847619Y-102310476D01*
X114752380Y-102310476D01*
X114704761Y-102334285D01*
X114680952Y-102358095D01*
X114657142Y-102405714D01*
X114657142Y-102500952D01*
X114680952Y-102548571D01*
X114704761Y-102572380D01*
X114752380Y-102596190D01*
X114847619Y-102596190D01*
X114895238Y-102572380D01*
X114919047Y-102548571D01*
X114942857Y-102500952D01*
X114942857Y-102405714D01*
X114919047Y-102358095D01*
X114895238Y-102334285D01*
X114847619Y-102310476D01*
X134780926Y-112527553D02*
X134517541Y-112404690D01*
X134533490Y-112670410D02*
X134283490Y-112237397D01*
X134448447Y-112142159D01*
X134501591Y-112138969D01*
X134534116Y-112147684D01*
X134578545Y-112177019D01*
X134614259Y-112238878D01*
X134617449Y-112292022D01*
X134608734Y-112324546D01*
X134579400Y-112368975D01*
X134414443Y-112464213D01*
X135193319Y-112289458D02*
X134945883Y-112432315D01*
X135069601Y-112360886D02*
X134819601Y-111927873D01*
X134814076Y-112013542D01*
X134796646Y-112078591D01*
X134767312Y-112123020D01*
X133346285Y-116613359D02*
X133108190Y-116780026D01*
X133346285Y-116899073D02*
X132846285Y-116899073D01*
X132846285Y-116708597D01*
X132870095Y-116660978D01*
X132893904Y-116637168D01*
X132941523Y-116613359D01*
X133012952Y-116613359D01*
X133060571Y-116637168D01*
X133084380Y-116660978D01*
X133108190Y-116708597D01*
X133108190Y-116899073D01*
X132893904Y-116422883D02*
X132870095Y-116399073D01*
X132846285Y-116351454D01*
X132846285Y-116232406D01*
X132870095Y-116184787D01*
X132893904Y-116160978D01*
X132941523Y-116137168D01*
X132989142Y-116137168D01*
X133060571Y-116160978D01*
X133346285Y-116446692D01*
X133346285Y-116137168D01*
X110496666Y-103776190D02*
X110330000Y-103538095D01*
X110210952Y-103776190D02*
X110210952Y-103276190D01*
X110401428Y-103276190D01*
X110449047Y-103300000D01*
X110472857Y-103323809D01*
X110496666Y-103371428D01*
X110496666Y-103442857D01*
X110472857Y-103490476D01*
X110449047Y-103514285D01*
X110401428Y-103538095D01*
X110210952Y-103538095D01*
X110734761Y-103776190D02*
X110830000Y-103776190D01*
X110877619Y-103752380D01*
X110901428Y-103728571D01*
X110949047Y-103657142D01*
X110972857Y-103561904D01*
X110972857Y-103371428D01*
X110949047Y-103323809D01*
X110925238Y-103300000D01*
X110877619Y-103276190D01*
X110782380Y-103276190D01*
X110734761Y-103300000D01*
X110710952Y-103323809D01*
X110687142Y-103371428D01*
X110687142Y-103490476D01*
X110710952Y-103538095D01*
X110734761Y-103561904D01*
X110782380Y-103585714D01*
X110877619Y-103585714D01*
X110925238Y-103561904D01*
X110949047Y-103538095D01*
X110972857Y-103490476D01*
X110008571Y-102826190D02*
X109841904Y-102588095D01*
X109722857Y-102826190D02*
X109722857Y-102326190D01*
X109913333Y-102326190D01*
X109960952Y-102350000D01*
X109984761Y-102373809D01*
X110008571Y-102421428D01*
X110008571Y-102492857D01*
X109984761Y-102540476D01*
X109960952Y-102564285D01*
X109913333Y-102588095D01*
X109722857Y-102588095D01*
X110484761Y-102826190D02*
X110199047Y-102826190D01*
X110341904Y-102826190D02*
X110341904Y-102326190D01*
X110294285Y-102397619D01*
X110246666Y-102445238D01*
X110199047Y-102469047D01*
X110794285Y-102326190D02*
X110841904Y-102326190D01*
X110889523Y-102350000D01*
X110913333Y-102373809D01*
X110937142Y-102421428D01*
X110960952Y-102516666D01*
X110960952Y-102635714D01*
X110937142Y-102730952D01*
X110913333Y-102778571D01*
X110889523Y-102802380D01*
X110841904Y-102826190D01*
X110794285Y-102826190D01*
X110746666Y-102802380D01*
X110722857Y-102778571D01*
X110699047Y-102730952D01*
X110675238Y-102635714D01*
X110675238Y-102516666D01*
X110699047Y-102421428D01*
X110722857Y-102373809D01*
X110746666Y-102350000D01*
X110794285Y-102326190D01*
X186027248Y-100315144D02*
X186277248Y-99882132D01*
X186442205Y-99977370D01*
X186471539Y-100021799D01*
X186480254Y-100054323D01*
X186477064Y-100107467D01*
X186441350Y-100169326D01*
X186396921Y-100198661D01*
X186364397Y-100207376D01*
X186311252Y-100204186D01*
X186146295Y-100108948D01*
X186916457Y-100251179D02*
X186710260Y-100132132D01*
X186570593Y-100326423D01*
X186603117Y-100317709D01*
X186656262Y-100320898D01*
X186759360Y-100380422D01*
X186788694Y-100424851D01*
X186797409Y-100457376D01*
X186794219Y-100510520D01*
X186734696Y-100613618D01*
X186690266Y-100642953D01*
X186657742Y-100651668D01*
X186604598Y-100648478D01*
X186501500Y-100588954D01*
X186472165Y-100544525D01*
X186463450Y-100512000D01*
X175960952Y-95116190D02*
X175960952Y-94616190D01*
X176151428Y-94616190D01*
X176199047Y-94640000D01*
X176222857Y-94663809D01*
X176246666Y-94711428D01*
X176246666Y-94782857D01*
X176222857Y-94830476D01*
X176199047Y-94854285D01*
X176151428Y-94878095D01*
X175960952Y-94878095D01*
X176675238Y-94616190D02*
X176580000Y-94616190D01*
X176532380Y-94640000D01*
X176508571Y-94663809D01*
X176460952Y-94735238D01*
X176437142Y-94830476D01*
X176437142Y-95020952D01*
X176460952Y-95068571D01*
X176484761Y-95092380D01*
X176532380Y-95116190D01*
X176627619Y-95116190D01*
X176675238Y-95092380D01*
X176699047Y-95068571D01*
X176722857Y-95020952D01*
X176722857Y-94901904D01*
X176699047Y-94854285D01*
X176675238Y-94830476D01*
X176627619Y-94806666D01*
X176532380Y-94806666D01*
X176484761Y-94830476D01*
X176460952Y-94854285D01*
X176437142Y-94901904D01*
%LPC*%
G36*
X112037722Y-99589908D02*
G01*
X112031671Y-99582198D01*
X112027240Y-99573454D01*
X112024601Y-99564015D01*
X112023852Y-99554243D01*
X112025026Y-99544511D01*
X112028075Y-99535196D01*
X112032883Y-99526654D01*
X112434386Y-98953247D01*
X112440769Y-98945808D01*
X112448479Y-98939757D01*
X112457223Y-98935326D01*
X112466662Y-98932686D01*
X112476434Y-98931938D01*
X112486166Y-98933111D01*
X112495481Y-98936161D01*
X112504023Y-98940969D01*
X113036472Y-99313793D01*
X113043911Y-99320176D01*
X113049962Y-99327886D01*
X113054393Y-99336630D01*
X113057033Y-99346069D01*
X113093869Y-99554978D01*
X113094617Y-99564750D01*
X113093444Y-99574482D01*
X113090395Y-99583797D01*
X113085587Y-99592339D01*
X112770120Y-100042873D01*
X112763737Y-100050312D01*
X112756027Y-100056363D01*
X112747283Y-100060794D01*
X112737844Y-100063434D01*
X112728072Y-100064182D01*
X112718340Y-100063009D01*
X112709025Y-100059959D01*
X112700483Y-100055151D01*
X112045162Y-99596290D01*
X112037722Y-99589908D01*
G37*
G36*
X113938341Y-99577884D02*
G01*
X113932290Y-99570174D01*
X113927859Y-99561430D01*
X113925219Y-99551991D01*
X113888383Y-99343082D01*
X113887635Y-99333310D01*
X113888808Y-99323578D01*
X113891857Y-99314263D01*
X113896665Y-99305721D01*
X114212132Y-98855187D01*
X114218515Y-98847748D01*
X114226225Y-98841697D01*
X114234969Y-98837266D01*
X114244408Y-98834626D01*
X114254180Y-98833878D01*
X114263912Y-98835051D01*
X114273227Y-98838101D01*
X114281769Y-98842909D01*
X114937090Y-99301770D01*
X114944530Y-99308152D01*
X114950581Y-99315862D01*
X114955012Y-99324606D01*
X114957651Y-99334045D01*
X114958400Y-99343817D01*
X114957226Y-99353549D01*
X114954177Y-99362864D01*
X114949369Y-99371406D01*
X114547866Y-99944813D01*
X114541483Y-99952252D01*
X114533773Y-99958303D01*
X114525029Y-99962734D01*
X114515590Y-99965374D01*
X114505818Y-99966122D01*
X114496086Y-99964949D01*
X114486771Y-99961899D01*
X114478229Y-99957091D01*
X113945780Y-99584267D01*
X113938341Y-99577884D01*
G37*
G36*
G01*
X113796821Y-98576591D02*
X113406789Y-99133615D01*
G75*
G02*
X113323225Y-99148349I-49149J34415D01*
G01*
X112684287Y-98700959D01*
G75*
G02*
X112669553Y-98617395I34415J49149D01*
G01*
X113059585Y-98060371D01*
G75*
G02*
X113143149Y-98045637I49149J-34415D01*
G01*
X113782087Y-98493027D01*
G75*
G02*
X113796821Y-98576591I-34415J-49149D01*
G01*
G37*
G36*
G01*
X114312699Y-100280665D02*
X113922667Y-100837689D01*
G75*
G02*
X113839103Y-100852423I-49149J34415D01*
G01*
X113200165Y-100405033D01*
G75*
G02*
X113185431Y-100321469I34415J49149D01*
G01*
X113575463Y-99764445D01*
G75*
G02*
X113659027Y-99749711I49149J-34415D01*
G01*
X114297965Y-100197101D01*
G75*
G02*
X114312699Y-100280665I-34415J-49149D01*
G01*
G37*
D13*
X114860000Y-108120000D03*
X112850000Y-109560000D03*
D10*
G36*
X132883205Y-100119808D02*
G01*
X132536795Y-99919808D01*
X132836795Y-99400192D01*
X133183205Y-99600192D01*
X132883205Y-100119808D01*
G37*
G36*
G01*
X132412035Y-99385898D02*
X132195529Y-99260898D01*
G75*
G02*
X132168077Y-99158446I37500J64952D01*
G01*
X132243077Y-99028542D01*
G75*
G02*
X132345529Y-99001090I64952J-37500D01*
G01*
X132562035Y-99126090D01*
G75*
G02*
X132589487Y-99228542I-37500J-64952D01*
G01*
X132514487Y-99358446D01*
G75*
G02*
X132412035Y-99385898I-64952J37500D01*
G01*
G37*
G36*
G01*
X133624471Y-100085898D02*
X133407965Y-99960898D01*
G75*
G02*
X133380513Y-99858446I37500J64952D01*
G01*
X133455513Y-99728542D01*
G75*
G02*
X133557965Y-99701090I64952J-37500D01*
G01*
X133774471Y-99826090D01*
G75*
G02*
X133801923Y-99928542I-37500J-64952D01*
G01*
X133726923Y-100058446D01*
G75*
G02*
X133624471Y-100085898I-64952J37500D01*
G01*
G37*
G36*
G01*
X133374471Y-100518910D02*
X133157965Y-100393910D01*
G75*
G02*
X133130513Y-100291458I37500J64952D01*
G01*
X133205513Y-100161554D01*
G75*
G02*
X133307965Y-100134102I64952J-37500D01*
G01*
X133524471Y-100259102D01*
G75*
G02*
X133551923Y-100361554I-37500J-64952D01*
G01*
X133476923Y-100491458D01*
G75*
G02*
X133374471Y-100518910I-64952J37500D01*
G01*
G37*
G36*
G01*
X132162035Y-99818910D02*
X131945529Y-99693910D01*
G75*
G02*
X131918077Y-99591458I37500J64952D01*
G01*
X131993077Y-99461554D01*
G75*
G02*
X132095529Y-99434102I64952J-37500D01*
G01*
X132312035Y-99559102D01*
G75*
G02*
X132339487Y-99661554I-37500J-64952D01*
G01*
X132264487Y-99791458D01*
G75*
G02*
X132162035Y-99818910I-64952J37500D01*
G01*
G37*
G36*
X136312212Y-104436266D02*
G01*
X136658622Y-104236266D01*
X136983622Y-104799182D01*
X136637212Y-104999182D01*
X136312212Y-104436266D01*
G37*
G36*
X135186378Y-105086266D02*
G01*
X135532788Y-104886266D01*
X135857788Y-105449182D01*
X135511378Y-105649182D01*
X135186378Y-105086266D01*
G37*
G36*
X134799295Y-103115818D02*
G01*
X135145705Y-102915818D01*
X135470705Y-103478734D01*
X135124295Y-103678734D01*
X134799295Y-103115818D01*
G37*
G36*
X134236378Y-103440818D02*
G01*
X134582788Y-103240818D01*
X134907788Y-103803734D01*
X134561378Y-104003734D01*
X134236378Y-103440818D01*
G37*
G36*
X135362212Y-102790818D02*
G01*
X135708622Y-102590818D01*
X136033622Y-103153734D01*
X135687212Y-103353734D01*
X135362212Y-102790818D01*
G37*
D14*
X133050000Y-109890000D03*
G36*
G01*
X132550000Y-110302500D02*
X132550000Y-110477500D01*
G75*
G02*
X132512500Y-110515000I-37500J0D01*
G01*
X132187500Y-110515000D01*
G75*
G02*
X132150000Y-110477500I0J37500D01*
G01*
X132150000Y-110302500D01*
G75*
G02*
X132187500Y-110265000I37500J0D01*
G01*
X132512500Y-110265000D01*
G75*
G02*
X132550000Y-110302500I0J-37500D01*
G01*
G37*
G36*
G01*
X132550000Y-109802500D02*
X132550000Y-109977500D01*
G75*
G02*
X132512500Y-110015000I-37500J0D01*
G01*
X132187500Y-110015000D01*
G75*
G02*
X132150000Y-109977500I0J37500D01*
G01*
X132150000Y-109802500D01*
G75*
G02*
X132187500Y-109765000I37500J0D01*
G01*
X132512500Y-109765000D01*
G75*
G02*
X132550000Y-109802500I0J-37500D01*
G01*
G37*
G36*
G01*
X132550000Y-109302500D02*
X132550000Y-109477500D01*
G75*
G02*
X132512500Y-109515000I-37500J0D01*
G01*
X132187500Y-109515000D01*
G75*
G02*
X132150000Y-109477500I0J37500D01*
G01*
X132150000Y-109302500D01*
G75*
G02*
X132187500Y-109265000I37500J0D01*
G01*
X132512500Y-109265000D01*
G75*
G02*
X132550000Y-109302500I0J-37500D01*
G01*
G37*
G36*
G01*
X133950000Y-109302500D02*
X133950000Y-109477500D01*
G75*
G02*
X133912500Y-109515000I-37500J0D01*
G01*
X133587500Y-109515000D01*
G75*
G02*
X133550000Y-109477500I0J37500D01*
G01*
X133550000Y-109302500D01*
G75*
G02*
X133587500Y-109265000I37500J0D01*
G01*
X133912500Y-109265000D01*
G75*
G02*
X133950000Y-109302500I0J-37500D01*
G01*
G37*
G36*
G01*
X133950000Y-109802500D02*
X133950000Y-109977500D01*
G75*
G02*
X133912500Y-110015000I-37500J0D01*
G01*
X133587500Y-110015000D01*
G75*
G02*
X133550000Y-109977500I0J37500D01*
G01*
X133550000Y-109802500D01*
G75*
G02*
X133587500Y-109765000I37500J0D01*
G01*
X133912500Y-109765000D01*
G75*
G02*
X133950000Y-109802500I0J-37500D01*
G01*
G37*
G36*
G01*
X133950000Y-110302500D02*
X133950000Y-110477500D01*
G75*
G02*
X133912500Y-110515000I-37500J0D01*
G01*
X133587500Y-110515000D01*
G75*
G02*
X133550000Y-110477500I0J37500D01*
G01*
X133550000Y-110302500D01*
G75*
G02*
X133587500Y-110265000I37500J0D01*
G01*
X133912500Y-110265000D01*
G75*
G02*
X133950000Y-110302500I0J-37500D01*
G01*
G37*
D15*
X100430000Y-101900000D03*
X100480000Y-106400000D03*
D10*
G36*
X95197339Y-122366368D02*
G01*
X93559034Y-123513521D01*
X93386961Y-123267776D01*
X95025266Y-122120623D01*
X95197339Y-122366368D01*
G37*
G36*
X94910551Y-121956793D02*
G01*
X93272246Y-123103946D01*
X93100173Y-122858201D01*
X94738478Y-121711048D01*
X94910551Y-121956793D01*
G37*
G36*
X94623763Y-121547216D02*
G01*
X92985458Y-122694369D01*
X92813385Y-122448624D01*
X94451690Y-121301471D01*
X94623763Y-121547216D01*
G37*
G36*
X94336974Y-121137640D02*
G01*
X92698669Y-122284793D01*
X92526596Y-122039048D01*
X94164901Y-120891895D01*
X94336974Y-121137640D01*
G37*
G36*
X94050186Y-120728063D02*
G01*
X92411881Y-121875216D01*
X92239808Y-121629471D01*
X93878113Y-120482318D01*
X94050186Y-120728063D01*
G37*
G36*
X93763398Y-120318488D02*
G01*
X92125093Y-121465641D01*
X91953020Y-121219896D01*
X93591325Y-120072743D01*
X93763398Y-120318488D01*
G37*
G36*
X93476610Y-119908912D02*
G01*
X91838305Y-121056065D01*
X91666232Y-120810320D01*
X93304537Y-119663167D01*
X93476610Y-119908912D01*
G37*
G36*
X93189821Y-119499336D02*
G01*
X91551516Y-120646489D01*
X91379443Y-120400744D01*
X93017748Y-119253591D01*
X93189821Y-119499336D01*
G37*
G36*
X92903033Y-119089760D02*
G01*
X91264728Y-120236913D01*
X91092655Y-119991168D01*
X92730960Y-118844015D01*
X92903033Y-119089760D01*
G37*
G36*
X92616244Y-118680183D02*
G01*
X90977939Y-119827336D01*
X90805866Y-119581591D01*
X92444171Y-118434438D01*
X92616244Y-118680183D01*
G37*
G36*
X92329457Y-118270608D02*
G01*
X90691152Y-119417761D01*
X90519079Y-119172016D01*
X92157384Y-118024863D01*
X92329457Y-118270608D01*
G37*
G36*
X92042669Y-117861032D02*
G01*
X90404364Y-119008185D01*
X90232291Y-118762440D01*
X91870596Y-117615287D01*
X92042669Y-117861032D01*
G37*
G36*
X91755880Y-117451456D02*
G01*
X90117575Y-118598609D01*
X89945502Y-118352864D01*
X91583807Y-117205711D01*
X91755880Y-117451456D01*
G37*
G36*
X91469092Y-117041880D02*
G01*
X89830787Y-118189033D01*
X89658714Y-117943288D01*
X91297019Y-116796135D01*
X91469092Y-117041880D01*
G37*
G36*
X159263734Y-103378865D02*
G01*
X158700818Y-103703865D01*
X158170818Y-102785879D01*
X158733734Y-102460879D01*
X159263734Y-103378865D01*
G37*
G36*
X160909182Y-102428865D02*
G01*
X160346266Y-102753865D01*
X159816266Y-101835879D01*
X160379182Y-101510879D01*
X160909182Y-102428865D01*
G37*
G36*
X162009182Y-104334121D02*
G01*
X161446266Y-104659121D01*
X160916266Y-103741135D01*
X161479182Y-103416135D01*
X162009182Y-104334121D01*
G37*
G36*
X161186458Y-104809121D02*
G01*
X160623542Y-105134121D01*
X160093542Y-104216135D01*
X160656458Y-103891135D01*
X161186458Y-104809121D01*
G37*
G36*
X160363734Y-105284121D02*
G01*
X159800818Y-105609121D01*
X159270818Y-104691135D01*
X159833734Y-104366135D01*
X160363734Y-105284121D01*
G37*
G36*
G01*
X119830000Y-105122500D02*
X119830000Y-104777500D01*
G75*
G02*
X119977500Y-104630000I147500J0D01*
G01*
X120272500Y-104630000D01*
G75*
G02*
X120420000Y-104777500I0J-147500D01*
G01*
X120420000Y-105122500D01*
G75*
G02*
X120272500Y-105270000I-147500J0D01*
G01*
X119977500Y-105270000D01*
G75*
G02*
X119830000Y-105122500I0J147500D01*
G01*
G37*
G36*
G01*
X118860000Y-105122500D02*
X118860000Y-104777500D01*
G75*
G02*
X119007500Y-104630000I147500J0D01*
G01*
X119302500Y-104630000D01*
G75*
G02*
X119450000Y-104777500I0J-147500D01*
G01*
X119450000Y-105122500D01*
G75*
G02*
X119302500Y-105270000I-147500J0D01*
G01*
X119007500Y-105270000D01*
G75*
G02*
X118860000Y-105122500I0J147500D01*
G01*
G37*
G36*
G01*
X120410000Y-106537500D02*
X120410000Y-106882500D01*
G75*
G02*
X120262500Y-107030000I-147500J0D01*
G01*
X119967500Y-107030000D01*
G75*
G02*
X119820000Y-106882500I0J147500D01*
G01*
X119820000Y-106537500D01*
G75*
G02*
X119967500Y-106390000I147500J0D01*
G01*
X120262500Y-106390000D01*
G75*
G02*
X120410000Y-106537500I0J-147500D01*
G01*
G37*
G36*
G01*
X119440000Y-106537500D02*
X119440000Y-106882500D01*
G75*
G02*
X119292500Y-107030000I-147500J0D01*
G01*
X118997500Y-107030000D01*
G75*
G02*
X118850000Y-106882500I0J147500D01*
G01*
X118850000Y-106537500D01*
G75*
G02*
X118997500Y-106390000I147500J0D01*
G01*
X119292500Y-106390000D01*
G75*
G02*
X119440000Y-106537500I0J-147500D01*
G01*
G37*
G36*
G01*
X119830000Y-106002500D02*
X119830000Y-105657500D01*
G75*
G02*
X119977500Y-105510000I147500J0D01*
G01*
X120272500Y-105510000D01*
G75*
G02*
X120420000Y-105657500I0J-147500D01*
G01*
X120420000Y-106002500D01*
G75*
G02*
X120272500Y-106150000I-147500J0D01*
G01*
X119977500Y-106150000D01*
G75*
G02*
X119830000Y-106002500I0J147500D01*
G01*
G37*
G36*
G01*
X118860000Y-106002500D02*
X118860000Y-105657500D01*
G75*
G02*
X119007500Y-105510000I147500J0D01*
G01*
X119302500Y-105510000D01*
G75*
G02*
X119450000Y-105657500I0J-147500D01*
G01*
X119450000Y-106002500D01*
G75*
G02*
X119302500Y-106150000I-147500J0D01*
G01*
X119007500Y-106150000D01*
G75*
G02*
X118860000Y-106002500I0J147500D01*
G01*
G37*
G36*
G01*
X150412776Y-108736820D02*
X150707224Y-108566820D01*
G75*
G02*
X150898468Y-108618064I70000J-121244D01*
G01*
X151038468Y-108860552D01*
G75*
G02*
X150987224Y-109051796I-121244J-70000D01*
G01*
X150692776Y-109221796D01*
G75*
G02*
X150501532Y-109170552I-70000J121244D01*
G01*
X150361532Y-108928064D01*
G75*
G02*
X150412776Y-108736820I121244J70000D01*
G01*
G37*
G36*
G01*
X150892776Y-109568204D02*
X151187224Y-109398204D01*
G75*
G02*
X151378468Y-109449448I70000J-121244D01*
G01*
X151518468Y-109691936D01*
G75*
G02*
X151467224Y-109883180I-121244J-70000D01*
G01*
X151172776Y-110053180D01*
G75*
G02*
X150981532Y-110001936I-70000J121244D01*
G01*
X150841532Y-109759448D01*
G75*
G02*
X150892776Y-109568204I121244J70000D01*
G01*
G37*
G36*
G01*
X155289250Y-100800611D02*
X155461750Y-101099389D01*
G75*
G02*
X155407761Y-101300878I-127739J-73750D01*
G01*
X155152283Y-101448378D01*
G75*
G02*
X154950794Y-101394389I-73750J127739D01*
G01*
X154778294Y-101095611D01*
G75*
G02*
X154832283Y-100894122I127739J73750D01*
G01*
X155087761Y-100746622D01*
G75*
G02*
X155289250Y-100800611I73750J-127739D01*
G01*
G37*
G36*
G01*
X154449206Y-101285611D02*
X154621706Y-101584389D01*
G75*
G02*
X154567717Y-101785878I-127739J-73750D01*
G01*
X154312239Y-101933378D01*
G75*
G02*
X154110750Y-101879389I-73750J127739D01*
G01*
X153938250Y-101580611D01*
G75*
G02*
X153992239Y-101379122I127739J73750D01*
G01*
X154247717Y-101231622D01*
G75*
G02*
X154449206Y-101285611I73750J-127739D01*
G01*
G37*
G36*
G01*
X155021126Y-105045937D02*
X155811374Y-104589687D01*
G75*
G02*
X156144343Y-104678906I121875J-211094D01*
G01*
X156388093Y-105101094D01*
G75*
G02*
X156298874Y-105434063I-211094J-121875D01*
G01*
X155508626Y-105890313D01*
G75*
G02*
X155175657Y-105801094I-121875J211094D01*
G01*
X154931907Y-105378906D01*
G75*
G02*
X155021126Y-105045937I211094J121875D01*
G01*
G37*
G36*
G01*
X154083626Y-103422139D02*
X154873874Y-102965889D01*
G75*
G02*
X155206843Y-103055108I121875J-211094D01*
G01*
X155450593Y-103477296D01*
G75*
G02*
X155361374Y-103810265I-211094J-121875D01*
G01*
X154571126Y-104266515D01*
G75*
G02*
X154238157Y-104177296I-121875J211094D01*
G01*
X153994407Y-103755108D01*
G75*
G02*
X154083626Y-103422139I211094J121875D01*
G01*
G37*
G36*
G01*
X133837595Y-114210027D02*
X134182595Y-114210027D01*
G75*
G02*
X134330095Y-114357527I0J-147500D01*
G01*
X134330095Y-114652527D01*
G75*
G02*
X134182595Y-114800027I-147500J0D01*
G01*
X133837595Y-114800027D01*
G75*
G02*
X133690095Y-114652527I0J147500D01*
G01*
X133690095Y-114357527D01*
G75*
G02*
X133837595Y-114210027I147500J0D01*
G01*
G37*
G36*
G01*
X133837595Y-115180027D02*
X134182595Y-115180027D01*
G75*
G02*
X134330095Y-115327527I0J-147500D01*
G01*
X134330095Y-115622527D01*
G75*
G02*
X134182595Y-115770027I-147500J0D01*
G01*
X133837595Y-115770027D01*
G75*
G02*
X133690095Y-115622527I0J147500D01*
G01*
X133690095Y-115327527D01*
G75*
G02*
X133837595Y-115180027I147500J0D01*
G01*
G37*
G36*
G01*
X134717500Y-115180000D02*
X135062500Y-115180000D01*
G75*
G02*
X135210000Y-115327500I0J-147500D01*
G01*
X135210000Y-115622500D01*
G75*
G02*
X135062500Y-115770000I-147500J0D01*
G01*
X134717500Y-115770000D01*
G75*
G02*
X134570000Y-115622500I0J147500D01*
G01*
X134570000Y-115327500D01*
G75*
G02*
X134717500Y-115180000I147500J0D01*
G01*
G37*
G36*
G01*
X134717500Y-114210000D02*
X135062500Y-114210000D01*
G75*
G02*
X135210000Y-114357500I0J-147500D01*
G01*
X135210000Y-114652500D01*
G75*
G02*
X135062500Y-114800000I-147500J0D01*
G01*
X134717500Y-114800000D01*
G75*
G02*
X134570000Y-114652500I0J147500D01*
G01*
X134570000Y-114357500D01*
G75*
G02*
X134717500Y-114210000I147500J0D01*
G01*
G37*
G36*
G01*
X119863750Y-103370000D02*
X120376250Y-103370000D01*
G75*
G02*
X120595000Y-103588750I0J-218750D01*
G01*
X120595000Y-104026250D01*
G75*
G02*
X120376250Y-104245000I-218750J0D01*
G01*
X119863750Y-104245000D01*
G75*
G02*
X119645000Y-104026250I0J218750D01*
G01*
X119645000Y-103588750D01*
G75*
G02*
X119863750Y-103370000I218750J0D01*
G01*
G37*
G36*
G01*
X119863750Y-101795000D02*
X120376250Y-101795000D01*
G75*
G02*
X120595000Y-102013750I0J-218750D01*
G01*
X120595000Y-102451250D01*
G75*
G02*
X120376250Y-102670000I-218750J0D01*
G01*
X119863750Y-102670000D01*
G75*
G02*
X119645000Y-102451250I0J218750D01*
G01*
X119645000Y-102013750D01*
G75*
G02*
X119863750Y-101795000I218750J0D01*
G01*
G37*
G36*
G01*
X118716250Y-103755000D02*
X117803750Y-103755000D01*
G75*
G02*
X117560000Y-103511250I0J243750D01*
G01*
X117560000Y-103023750D01*
G75*
G02*
X117803750Y-102780000I243750J0D01*
G01*
X118716250Y-102780000D01*
G75*
G02*
X118960000Y-103023750I0J-243750D01*
G01*
X118960000Y-103511250D01*
G75*
G02*
X118716250Y-103755000I-243750J0D01*
G01*
G37*
G36*
G01*
X118716250Y-101880000D02*
X117803750Y-101880000D01*
G75*
G02*
X117560000Y-101636250I0J243750D01*
G01*
X117560000Y-101148750D01*
G75*
G02*
X117803750Y-100905000I243750J0D01*
G01*
X118716250Y-100905000D01*
G75*
G02*
X118960000Y-101148750I0J-243750D01*
G01*
X118960000Y-101636250D01*
G75*
G02*
X118716250Y-101880000I-243750J0D01*
G01*
G37*
G36*
G01*
X120160000Y-101432500D02*
X120160000Y-101087500D01*
G75*
G02*
X120307500Y-100940000I147500J0D01*
G01*
X120602500Y-100940000D01*
G75*
G02*
X120750000Y-101087500I0J-147500D01*
G01*
X120750000Y-101432500D01*
G75*
G02*
X120602500Y-101580000I-147500J0D01*
G01*
X120307500Y-101580000D01*
G75*
G02*
X120160000Y-101432500I0J147500D01*
G01*
G37*
G36*
G01*
X119190000Y-101432500D02*
X119190000Y-101087500D01*
G75*
G02*
X119337500Y-100940000I147500J0D01*
G01*
X119632500Y-100940000D01*
G75*
G02*
X119780000Y-101087500I0J-147500D01*
G01*
X119780000Y-101432500D01*
G75*
G02*
X119632500Y-101580000I-147500J0D01*
G01*
X119337500Y-101580000D01*
G75*
G02*
X119190000Y-101432500I0J147500D01*
G01*
G37*
G36*
G01*
X124925611Y-104200794D02*
X125224389Y-104028294D01*
G75*
G02*
X125425878Y-104082283I73750J-127739D01*
G01*
X125573378Y-104337761D01*
G75*
G02*
X125519389Y-104539250I-127739J-73750D01*
G01*
X125220611Y-104711750D01*
G75*
G02*
X125019122Y-104657761I-73750J127739D01*
G01*
X124871622Y-104402283D01*
G75*
G02*
X124925611Y-104200794I127739J73750D01*
G01*
G37*
G36*
G01*
X124440611Y-103360750D02*
X124739389Y-103188250D01*
G75*
G02*
X124940878Y-103242239I73750J-127739D01*
G01*
X125088378Y-103497717D01*
G75*
G02*
X125034389Y-103699206I-127739J-73750D01*
G01*
X124735611Y-103871706D01*
G75*
G02*
X124534122Y-103817717I-73750J127739D01*
G01*
X124386622Y-103562239D01*
G75*
G02*
X124440611Y-103360750I127739J73750D01*
G01*
G37*
G36*
G01*
X115302098Y-100290592D02*
X115019491Y-100092708D01*
G75*
G02*
X114983269Y-99887280I84603J120825D01*
G01*
X115152474Y-99645630D01*
G75*
G02*
X115357902Y-99609408I120825J-84603D01*
G01*
X115640509Y-99807292D01*
G75*
G02*
X115676731Y-100012720I-84603J-120825D01*
G01*
X115507526Y-100254370D01*
G75*
G02*
X115302098Y-100290592I-120825J84603D01*
G01*
G37*
G36*
G01*
X114745728Y-101085170D02*
X114463121Y-100887286D01*
G75*
G02*
X114426899Y-100681858I84603J120825D01*
G01*
X114596104Y-100440208D01*
G75*
G02*
X114801532Y-100403986I120825J-84603D01*
G01*
X115084139Y-100601870D01*
G75*
G02*
X115120361Y-100807298I-84603J-120825D01*
G01*
X114951156Y-101048948D01*
G75*
G02*
X114745728Y-101085170I-120825J84603D01*
G01*
G37*
G36*
G01*
X111879717Y-98356697D02*
X112162324Y-98554581D01*
G75*
G02*
X112198546Y-98760009I-84603J-120825D01*
G01*
X112029341Y-99001659D01*
G75*
G02*
X111823913Y-99037881I-120825J84603D01*
G01*
X111541306Y-98839997D01*
G75*
G02*
X111505084Y-98634569I84603J120825D01*
G01*
X111674289Y-98392919D01*
G75*
G02*
X111879717Y-98356697I120825J-84603D01*
G01*
G37*
G36*
G01*
X112436087Y-97562119D02*
X112718694Y-97760003D01*
G75*
G02*
X112754916Y-97965431I-84603J-120825D01*
G01*
X112585711Y-98207081D01*
G75*
G02*
X112380283Y-98243303I-120825J84603D01*
G01*
X112097676Y-98045419D01*
G75*
G02*
X112061454Y-97839991I84603J120825D01*
G01*
X112230659Y-97598341D01*
G75*
G02*
X112436087Y-97562119I120825J-84603D01*
G01*
G37*
G36*
G01*
X109657500Y-105090000D02*
X110002500Y-105090000D01*
G75*
G02*
X110150000Y-105237500I0J-147500D01*
G01*
X110150000Y-105532500D01*
G75*
G02*
X110002500Y-105680000I-147500J0D01*
G01*
X109657500Y-105680000D01*
G75*
G02*
X109510000Y-105532500I0J147500D01*
G01*
X109510000Y-105237500D01*
G75*
G02*
X109657500Y-105090000I147500J0D01*
G01*
G37*
G36*
G01*
X109657500Y-104120000D02*
X110002500Y-104120000D01*
G75*
G02*
X110150000Y-104267500I0J-147500D01*
G01*
X110150000Y-104562500D01*
G75*
G02*
X110002500Y-104710000I-147500J0D01*
G01*
X109657500Y-104710000D01*
G75*
G02*
X109510000Y-104562500I0J147500D01*
G01*
X109510000Y-104267500D01*
G75*
G02*
X109657500Y-104120000I147500J0D01*
G01*
G37*
G36*
G01*
X113440000Y-105467500D02*
X113440000Y-105812500D01*
G75*
G02*
X113292500Y-105960000I-147500J0D01*
G01*
X112997500Y-105960000D01*
G75*
G02*
X112850000Y-105812500I0J147500D01*
G01*
X112850000Y-105467500D01*
G75*
G02*
X112997500Y-105320000I147500J0D01*
G01*
X113292500Y-105320000D01*
G75*
G02*
X113440000Y-105467500I0J-147500D01*
G01*
G37*
G36*
G01*
X114410000Y-105467500D02*
X114410000Y-105812500D01*
G75*
G02*
X114262500Y-105960000I-147500J0D01*
G01*
X113967500Y-105960000D01*
G75*
G02*
X113820000Y-105812500I0J147500D01*
G01*
X113820000Y-105467500D01*
G75*
G02*
X113967500Y-105320000I147500J0D01*
G01*
X114262500Y-105320000D01*
G75*
G02*
X114410000Y-105467500I0J-147500D01*
G01*
G37*
G36*
G01*
X115702500Y-106360000D02*
X115357500Y-106360000D01*
G75*
G02*
X115210000Y-106212500I0J147500D01*
G01*
X115210000Y-105917500D01*
G75*
G02*
X115357500Y-105770000I147500J0D01*
G01*
X115702500Y-105770000D01*
G75*
G02*
X115850000Y-105917500I0J-147500D01*
G01*
X115850000Y-106212500D01*
G75*
G02*
X115702500Y-106360000I-147500J0D01*
G01*
G37*
G36*
G01*
X115702500Y-107330000D02*
X115357500Y-107330000D01*
G75*
G02*
X115210000Y-107182500I0J147500D01*
G01*
X115210000Y-106887500D01*
G75*
G02*
X115357500Y-106740000I147500J0D01*
G01*
X115702500Y-106740000D01*
G75*
G02*
X115850000Y-106887500I0J-147500D01*
G01*
X115850000Y-107182500D01*
G75*
G02*
X115702500Y-107330000I-147500J0D01*
G01*
G37*
G36*
G01*
X128460000Y-101962500D02*
X128460000Y-101617500D01*
G75*
G02*
X128607500Y-101470000I147500J0D01*
G01*
X128902500Y-101470000D01*
G75*
G02*
X129050000Y-101617500I0J-147500D01*
G01*
X129050000Y-101962500D01*
G75*
G02*
X128902500Y-102110000I-147500J0D01*
G01*
X128607500Y-102110000D01*
G75*
G02*
X128460000Y-101962500I0J147500D01*
G01*
G37*
G36*
G01*
X127490000Y-101962500D02*
X127490000Y-101617500D01*
G75*
G02*
X127637500Y-101470000I147500J0D01*
G01*
X127932500Y-101470000D01*
G75*
G02*
X128080000Y-101617500I0J-147500D01*
G01*
X128080000Y-101962500D01*
G75*
G02*
X127932500Y-102110000I-147500J0D01*
G01*
X127637500Y-102110000D01*
G75*
G02*
X127490000Y-101962500I0J147500D01*
G01*
G37*
G36*
G01*
X164199206Y-101115611D02*
X164371706Y-101414389D01*
G75*
G02*
X164317717Y-101615878I-127739J-73750D01*
G01*
X164062239Y-101763378D01*
G75*
G02*
X163860750Y-101709389I-73750J127739D01*
G01*
X163688250Y-101410611D01*
G75*
G02*
X163742239Y-101209122I127739J73750D01*
G01*
X163997717Y-101061622D01*
G75*
G02*
X164199206Y-101115611I73750J-127739D01*
G01*
G37*
G36*
G01*
X165039250Y-100630611D02*
X165211750Y-100929389D01*
G75*
G02*
X165157761Y-101130878I-127739J-73750D01*
G01*
X164902283Y-101278378D01*
G75*
G02*
X164700794Y-101224389I-73750J127739D01*
G01*
X164528294Y-100925611D01*
G75*
G02*
X164582283Y-100724122I127739J73750D01*
G01*
X164837761Y-100576622D01*
G75*
G02*
X165039250Y-100630611I73750J-127739D01*
G01*
G37*
G36*
G01*
X114140000Y-104412500D02*
X114140000Y-104067500D01*
G75*
G02*
X114287500Y-103920000I147500J0D01*
G01*
X114582500Y-103920000D01*
G75*
G02*
X114730000Y-104067500I0J-147500D01*
G01*
X114730000Y-104412500D01*
G75*
G02*
X114582500Y-104560000I-147500J0D01*
G01*
X114287500Y-104560000D01*
G75*
G02*
X114140000Y-104412500I0J147500D01*
G01*
G37*
G36*
G01*
X113170000Y-104412500D02*
X113170000Y-104067500D01*
G75*
G02*
X113317500Y-103920000I147500J0D01*
G01*
X113612500Y-103920000D01*
G75*
G02*
X113760000Y-104067500I0J-147500D01*
G01*
X113760000Y-104412500D01*
G75*
G02*
X113612500Y-104560000I-147500J0D01*
G01*
X113317500Y-104560000D01*
G75*
G02*
X113170000Y-104412500I0J147500D01*
G01*
G37*
G36*
G01*
X181220794Y-109004389D02*
X181048294Y-108705611D01*
G75*
G02*
X181102283Y-108504122I127739J73750D01*
G01*
X181357761Y-108356622D01*
G75*
G02*
X181559250Y-108410611I73750J-127739D01*
G01*
X181731750Y-108709389D01*
G75*
G02*
X181677761Y-108910878I-127739J-73750D01*
G01*
X181422283Y-109058378D01*
G75*
G02*
X181220794Y-109004389I-73750J127739D01*
G01*
G37*
G36*
G01*
X180380750Y-109489389D02*
X180208250Y-109190611D01*
G75*
G02*
X180262239Y-108989122I127739J73750D01*
G01*
X180517717Y-108841622D01*
G75*
G02*
X180719206Y-108895611I73750J-127739D01*
G01*
X180891706Y-109194389D01*
G75*
G02*
X180837717Y-109395878I-127739J-73750D01*
G01*
X180582239Y-109543378D01*
G75*
G02*
X180380750Y-109489389I-73750J127739D01*
G01*
G37*
D16*
X113007500Y-107500000D03*
X113007500Y-107000000D03*
X114532500Y-107000000D03*
X114532500Y-107500000D03*
D17*
X113020000Y-106487500D03*
X113020000Y-108012500D03*
X114520000Y-106487500D03*
X114520000Y-108012500D03*
X114020000Y-106487500D03*
X113520000Y-106487500D03*
X114020000Y-108012500D03*
X113520000Y-108012500D03*
D10*
G36*
X162687788Y-97883734D02*
G01*
X162341378Y-98083734D01*
X162016378Y-97520818D01*
X162362788Y-97320818D01*
X162687788Y-97883734D01*
G37*
G36*
X163813622Y-97233734D02*
G01*
X163467212Y-97433734D01*
X163142212Y-96870818D01*
X163488622Y-96670818D01*
X163813622Y-97233734D01*
G37*
G36*
X164200705Y-99204182D02*
G01*
X163854295Y-99404182D01*
X163529295Y-98841266D01*
X163875705Y-98641266D01*
X164200705Y-99204182D01*
G37*
G36*
X163250705Y-97558734D02*
G01*
X162904295Y-97758734D01*
X162579295Y-97195818D01*
X162925705Y-96995818D01*
X163250705Y-97558734D01*
G37*
G36*
X164763622Y-98879182D02*
G01*
X164417212Y-99079182D01*
X164092212Y-98516266D01*
X164438622Y-98316266D01*
X164763622Y-98879182D01*
G37*
G36*
X163637788Y-99529182D02*
G01*
X163291378Y-99729182D01*
X162966378Y-99166266D01*
X163312788Y-98966266D01*
X163637788Y-99529182D01*
G37*
D18*
X136010000Y-114040000D03*
X137910000Y-114040000D03*
X137910000Y-116240000D03*
X136960000Y-116240000D03*
X136010000Y-116240000D03*
D10*
G36*
X133993013Y-97287180D02*
G01*
X133193013Y-98672820D01*
X132326987Y-98172820D01*
X133126987Y-96787180D01*
X133993013Y-97287180D01*
G37*
G36*
X132294631Y-97778863D02*
G01*
X132119631Y-98081971D01*
X131556715Y-97756971D01*
X131731715Y-97453863D01*
X132294631Y-97778863D01*
G37*
G36*
X132619631Y-97215946D02*
G01*
X132444631Y-97519054D01*
X131881715Y-97194054D01*
X132056715Y-96890946D01*
X132619631Y-97215946D01*
G37*
G36*
X132944631Y-96653029D02*
G01*
X132769631Y-96956137D01*
X132206715Y-96631137D01*
X132381715Y-96328029D01*
X132944631Y-96653029D01*
G37*
G36*
X134763285Y-97703029D02*
G01*
X134588285Y-98006137D01*
X134025369Y-97681137D01*
X134200369Y-97378029D01*
X134763285Y-97703029D01*
G37*
G36*
X134438285Y-98265946D02*
G01*
X134263285Y-98569054D01*
X133700369Y-98244054D01*
X133875369Y-97940946D01*
X134438285Y-98265946D01*
G37*
G36*
X134113285Y-98828863D02*
G01*
X133938285Y-99131971D01*
X133375369Y-98806971D01*
X133550369Y-98503863D01*
X134113285Y-98828863D01*
G37*
G36*
G01*
X138044419Y-104302756D02*
X137600581Y-104559006D01*
G75*
G02*
X137301763Y-104478938I-109375J189443D01*
G01*
X137083013Y-104100052D01*
G75*
G02*
X137163081Y-103801234I189443J109375D01*
G01*
X137606919Y-103544984D01*
G75*
G02*
X137905737Y-103625052I109375J-189443D01*
G01*
X138124487Y-104003938D01*
G75*
G02*
X138044419Y-104302756I-189443J-109375D01*
G01*
G37*
G36*
G01*
X137256919Y-102938766D02*
X136813081Y-103195016D01*
G75*
G02*
X136514263Y-103114948I-109375J189443D01*
G01*
X136295513Y-102736062D01*
G75*
G02*
X136375581Y-102437244I189443J109375D01*
G01*
X136819419Y-102180994D01*
G75*
G02*
X137118237Y-102261062I109375J-189443D01*
G01*
X137336987Y-102639948D01*
G75*
G02*
X137256919Y-102938766I-189443J-109375D01*
G01*
G37*
G36*
G01*
X115786250Y-105095000D02*
X115273750Y-105095000D01*
G75*
G02*
X115055000Y-104876250I0J218750D01*
G01*
X115055000Y-104438750D01*
G75*
G02*
X115273750Y-104220000I218750J0D01*
G01*
X115786250Y-104220000D01*
G75*
G02*
X116005000Y-104438750I0J-218750D01*
G01*
X116005000Y-104876250D01*
G75*
G02*
X115786250Y-105095000I-218750J0D01*
G01*
G37*
G36*
G01*
X115786250Y-103520000D02*
X115273750Y-103520000D01*
G75*
G02*
X115055000Y-103301250I0J218750D01*
G01*
X115055000Y-102863750D01*
G75*
G02*
X115273750Y-102645000I218750J0D01*
G01*
X115786250Y-102645000D01*
G75*
G02*
X116005000Y-102863750I0J-218750D01*
G01*
X116005000Y-103301250D01*
G75*
G02*
X115786250Y-103520000I-218750J0D01*
G01*
G37*
G36*
G01*
X111592500Y-107206250D02*
X111592500Y-106693750D01*
G75*
G02*
X111811250Y-106475000I218750J0D01*
G01*
X112248750Y-106475000D01*
G75*
G02*
X112467500Y-106693750I0J-218750D01*
G01*
X112467500Y-107206250D01*
G75*
G02*
X112248750Y-107425000I-218750J0D01*
G01*
X111811250Y-107425000D01*
G75*
G02*
X111592500Y-107206250I0J218750D01*
G01*
G37*
G36*
G01*
X110017500Y-107206250D02*
X110017500Y-106693750D01*
G75*
G02*
X110236250Y-106475000I218750J0D01*
G01*
X110673750Y-106475000D01*
G75*
G02*
X110892500Y-106693750I0J-218750D01*
G01*
X110892500Y-107206250D01*
G75*
G02*
X110673750Y-107425000I-218750J0D01*
G01*
X110236250Y-107425000D01*
G75*
G02*
X110017500Y-107206250I0J218750D01*
G01*
G37*
G36*
G01*
X152613626Y-104262139D02*
X153403874Y-103805889D01*
G75*
G02*
X153736843Y-103895108I121875J-211094D01*
G01*
X153980593Y-104317296D01*
G75*
G02*
X153891374Y-104650265I-211094J-121875D01*
G01*
X153101126Y-105106515D01*
G75*
G02*
X152768157Y-105017296I-121875J211094D01*
G01*
X152524407Y-104595108D01*
G75*
G02*
X152613626Y-104262139I211094J121875D01*
G01*
G37*
G36*
G01*
X153551126Y-105885937D02*
X154341374Y-105429687D01*
G75*
G02*
X154674343Y-105518906I121875J-211094D01*
G01*
X154918093Y-105941094D01*
G75*
G02*
X154828874Y-106274063I-211094J-121875D01*
G01*
X154038626Y-106730313D01*
G75*
G02*
X153705657Y-106641094I-121875J211094D01*
G01*
X153461907Y-106218906D01*
G75*
G02*
X153551126Y-105885937I211094J121875D01*
G01*
G37*
G36*
G01*
X159039331Y-106189239D02*
X159483169Y-105932989D01*
G75*
G02*
X159781987Y-106013057I109375J-189443D01*
G01*
X160000737Y-106391943D01*
G75*
G02*
X159920669Y-106690761I-189443J-109375D01*
G01*
X159476831Y-106947011D01*
G75*
G02*
X159178013Y-106866943I-109375J189443D01*
G01*
X158959263Y-106488057D01*
G75*
G02*
X159039331Y-106189239I189443J109375D01*
G01*
G37*
G36*
G01*
X158251831Y-104825249D02*
X158695669Y-104568999D01*
G75*
G02*
X158994487Y-104649067I109375J-189443D01*
G01*
X159213237Y-105027953D01*
G75*
G02*
X159133169Y-105326771I-189443J-109375D01*
G01*
X158689331Y-105583021D01*
G75*
G02*
X158390513Y-105502953I-109375J189443D01*
G01*
X158171763Y-105124067D01*
G75*
G02*
X158251831Y-104825249I189443J109375D01*
G01*
G37*
G36*
G01*
X125727244Y-99354419D02*
X125470994Y-98910581D01*
G75*
G02*
X125551062Y-98611763I189443J109375D01*
G01*
X125929948Y-98393013D01*
G75*
G02*
X126228766Y-98473081I109375J-189443D01*
G01*
X126485016Y-98916919D01*
G75*
G02*
X126404948Y-99215737I-189443J-109375D01*
G01*
X126026062Y-99434487D01*
G75*
G02*
X125727244Y-99354419I-109375J189443D01*
G01*
G37*
G36*
G01*
X127091234Y-98566919D02*
X126834984Y-98123081D01*
G75*
G02*
X126915052Y-97824263I189443J109375D01*
G01*
X127293938Y-97605513D01*
G75*
G02*
X127592756Y-97685581I109375J-189443D01*
G01*
X127849006Y-98129419D01*
G75*
G02*
X127768938Y-98428237I-189443J-109375D01*
G01*
X127390052Y-98646987D01*
G75*
G02*
X127091234Y-98566919I-109375J189443D01*
G01*
G37*
G36*
G01*
X131666250Y-112045000D02*
X131153750Y-112045000D01*
G75*
G02*
X130935000Y-111826250I0J218750D01*
G01*
X130935000Y-111388750D01*
G75*
G02*
X131153750Y-111170000I218750J0D01*
G01*
X131666250Y-111170000D01*
G75*
G02*
X131885000Y-111388750I0J-218750D01*
G01*
X131885000Y-111826250D01*
G75*
G02*
X131666250Y-112045000I-218750J0D01*
G01*
G37*
G36*
G01*
X131666250Y-110470000D02*
X131153750Y-110470000D01*
G75*
G02*
X130935000Y-110251250I0J218750D01*
G01*
X130935000Y-109813750D01*
G75*
G02*
X131153750Y-109595000I218750J0D01*
G01*
X131666250Y-109595000D01*
G75*
G02*
X131885000Y-109813750I0J-218750D01*
G01*
X131885000Y-110251250D01*
G75*
G02*
X131666250Y-110470000I-218750J0D01*
G01*
G37*
G36*
G01*
X125434063Y-97079876D02*
X125890313Y-97870124D01*
G75*
G02*
X125801094Y-98203093I-211094J-121875D01*
G01*
X125378906Y-98446843D01*
G75*
G02*
X125045937Y-98357624I-121875J211094D01*
G01*
X124589687Y-97567376D01*
G75*
G02*
X124678906Y-97234407I211094J121875D01*
G01*
X125101094Y-96990657D01*
G75*
G02*
X125434063Y-97079876I121875J-211094D01*
G01*
G37*
G36*
G01*
X127057861Y-96142376D02*
X127514111Y-96932624D01*
G75*
G02*
X127424892Y-97265593I-211094J-121875D01*
G01*
X127002704Y-97509343D01*
G75*
G02*
X126669735Y-97420124I-121875J211094D01*
G01*
X126213485Y-96629876D01*
G75*
G02*
X126302704Y-96296907I211094J121875D01*
G01*
X126724892Y-96053157D01*
G75*
G02*
X127057861Y-96142376I121875J-211094D01*
G01*
G37*
G36*
G01*
X128460000Y-99282500D02*
X128460000Y-98937500D01*
G75*
G02*
X128607500Y-98790000I147500J0D01*
G01*
X128902500Y-98790000D01*
G75*
G02*
X129050000Y-98937500I0J-147500D01*
G01*
X129050000Y-99282500D01*
G75*
G02*
X128902500Y-99430000I-147500J0D01*
G01*
X128607500Y-99430000D01*
G75*
G02*
X128460000Y-99282500I0J147500D01*
G01*
G37*
G36*
G01*
X127490000Y-99282500D02*
X127490000Y-98937500D01*
G75*
G02*
X127637500Y-98790000I147500J0D01*
G01*
X127932500Y-98790000D01*
G75*
G02*
X128080000Y-98937500I0J-147500D01*
G01*
X128080000Y-99282500D01*
G75*
G02*
X127932500Y-99430000I-147500J0D01*
G01*
X127637500Y-99430000D01*
G75*
G02*
X127490000Y-99282500I0J147500D01*
G01*
G37*
G36*
G01*
X129050000Y-100727500D02*
X129050000Y-101072500D01*
G75*
G02*
X128902500Y-101220000I-147500J0D01*
G01*
X128607500Y-101220000D01*
G75*
G02*
X128460000Y-101072500I0J147500D01*
G01*
X128460000Y-100727500D01*
G75*
G02*
X128607500Y-100580000I147500J0D01*
G01*
X128902500Y-100580000D01*
G75*
G02*
X129050000Y-100727500I0J-147500D01*
G01*
G37*
G36*
G01*
X128080000Y-100727500D02*
X128080000Y-101072500D01*
G75*
G02*
X127932500Y-101220000I-147500J0D01*
G01*
X127637500Y-101220000D01*
G75*
G02*
X127490000Y-101072500I0J147500D01*
G01*
X127490000Y-100727500D01*
G75*
G02*
X127637500Y-100580000I147500J0D01*
G01*
X127932500Y-100580000D01*
G75*
G02*
X128080000Y-100727500I0J-147500D01*
G01*
G37*
G36*
G01*
X113507500Y-102180000D02*
X113852500Y-102180000D01*
G75*
G02*
X114000000Y-102327500I0J-147500D01*
G01*
X114000000Y-102622500D01*
G75*
G02*
X113852500Y-102770000I-147500J0D01*
G01*
X113507500Y-102770000D01*
G75*
G02*
X113360000Y-102622500I0J147500D01*
G01*
X113360000Y-102327500D01*
G75*
G02*
X113507500Y-102180000I147500J0D01*
G01*
G37*
G36*
G01*
X113507500Y-101210000D02*
X113852500Y-101210000D01*
G75*
G02*
X114000000Y-101357500I0J-147500D01*
G01*
X114000000Y-101652500D01*
G75*
G02*
X113852500Y-101800000I-147500J0D01*
G01*
X113507500Y-101800000D01*
G75*
G02*
X113360000Y-101652500I0J147500D01*
G01*
X113360000Y-101357500D01*
G75*
G02*
X113507500Y-101210000I147500J0D01*
G01*
G37*
G36*
G01*
X113160000Y-103492500D02*
X113160000Y-103147500D01*
G75*
G02*
X113307500Y-103000000I147500J0D01*
G01*
X113602500Y-103000000D01*
G75*
G02*
X113750000Y-103147500I0J-147500D01*
G01*
X113750000Y-103492500D01*
G75*
G02*
X113602500Y-103640000I-147500J0D01*
G01*
X113307500Y-103640000D01*
G75*
G02*
X113160000Y-103492500I0J147500D01*
G01*
G37*
G36*
G01*
X114130000Y-103492500D02*
X114130000Y-103147500D01*
G75*
G02*
X114277500Y-103000000I147500J0D01*
G01*
X114572500Y-103000000D01*
G75*
G02*
X114720000Y-103147500I0J-147500D01*
G01*
X114720000Y-103492500D01*
G75*
G02*
X114572500Y-103640000I-147500J0D01*
G01*
X114277500Y-103640000D01*
G75*
G02*
X114130000Y-103492500I0J147500D01*
G01*
G37*
G36*
G01*
X135819250Y-112490611D02*
X135991750Y-112789389D01*
G75*
G02*
X135937761Y-112990878I-127739J-73750D01*
G01*
X135682283Y-113138378D01*
G75*
G02*
X135480794Y-113084389I-73750J127739D01*
G01*
X135308294Y-112785611D01*
G75*
G02*
X135362283Y-112584122I127739J73750D01*
G01*
X135617761Y-112436622D01*
G75*
G02*
X135819250Y-112490611I73750J-127739D01*
G01*
G37*
G36*
G01*
X134979206Y-112975611D02*
X135151706Y-113274389D01*
G75*
G02*
X135097717Y-113475878I-127739J-73750D01*
G01*
X134842239Y-113623378D01*
G75*
G02*
X134640750Y-113569389I-73750J127739D01*
G01*
X134468250Y-113270611D01*
G75*
G02*
X134522239Y-113069122I127739J73750D01*
G01*
X134777717Y-112921622D01*
G75*
G02*
X134979206Y-112975611I73750J-127739D01*
G01*
G37*
G36*
G01*
X133292595Y-114800026D02*
X132947595Y-114800026D01*
G75*
G02*
X132800095Y-114652526I0J147500D01*
G01*
X132800095Y-114357526D01*
G75*
G02*
X132947595Y-114210026I147500J0D01*
G01*
X133292595Y-114210026D01*
G75*
G02*
X133440095Y-114357526I0J-147500D01*
G01*
X133440095Y-114652526D01*
G75*
G02*
X133292595Y-114800026I-147500J0D01*
G01*
G37*
G36*
G01*
X133292595Y-115770026D02*
X132947595Y-115770026D01*
G75*
G02*
X132800095Y-115622526I0J147500D01*
G01*
X132800095Y-115327526D01*
G75*
G02*
X132947595Y-115180026I147500J0D01*
G01*
X133292595Y-115180026D01*
G75*
G02*
X133440095Y-115327526I0J-147500D01*
G01*
X133440095Y-115622526D01*
G75*
G02*
X133292595Y-115770026I-147500J0D01*
G01*
G37*
G36*
G01*
X112230000Y-103722500D02*
X112230000Y-103377500D01*
G75*
G02*
X112377500Y-103230000I147500J0D01*
G01*
X112672500Y-103230000D01*
G75*
G02*
X112820000Y-103377500I0J-147500D01*
G01*
X112820000Y-103722500D01*
G75*
G02*
X112672500Y-103870000I-147500J0D01*
G01*
X112377500Y-103870000D01*
G75*
G02*
X112230000Y-103722500I0J147500D01*
G01*
G37*
G36*
G01*
X111260000Y-103722500D02*
X111260000Y-103377500D01*
G75*
G02*
X111407500Y-103230000I147500J0D01*
G01*
X111702500Y-103230000D01*
G75*
G02*
X111850000Y-103377500I0J-147500D01*
G01*
X111850000Y-103722500D01*
G75*
G02*
X111702500Y-103870000I-147500J0D01*
G01*
X111407500Y-103870000D01*
G75*
G02*
X111260000Y-103722500I0J147500D01*
G01*
G37*
G36*
G01*
X112820000Y-102477500D02*
X112820000Y-102822500D01*
G75*
G02*
X112672500Y-102970000I-147500J0D01*
G01*
X112377500Y-102970000D01*
G75*
G02*
X112230000Y-102822500I0J147500D01*
G01*
X112230000Y-102477500D01*
G75*
G02*
X112377500Y-102330000I147500J0D01*
G01*
X112672500Y-102330000D01*
G75*
G02*
X112820000Y-102477500I0J-147500D01*
G01*
G37*
G36*
G01*
X111850000Y-102477500D02*
X111850000Y-102822500D01*
G75*
G02*
X111702500Y-102970000I-147500J0D01*
G01*
X111407500Y-102970000D01*
G75*
G02*
X111260000Y-102822500I0J147500D01*
G01*
X111260000Y-102477500D01*
G75*
G02*
X111407500Y-102330000I147500J0D01*
G01*
X111702500Y-102330000D01*
G75*
G02*
X111850000Y-102477500I0J-147500D01*
G01*
G37*
D19*
X185840000Y-101470000D03*
X176700000Y-96190000D03*
D20*
X184573000Y-100800000D02*
X183977000Y-100800000D01*
X183977000Y-97050000D01*
X184573000Y-97050000D01*
X184573000Y-100800000D01*
D10*
G36*
X184573000Y-100800000D02*
G01*
X183977000Y-100800000D01*
X183977000Y-97050000D01*
X184573000Y-97050000D01*
X184573000Y-100800000D01*
G37*
D20*
X183313000Y-100643000D02*
X183067000Y-100643000D01*
X183067000Y-98047000D01*
X183313000Y-98047000D01*
X183313000Y-100643000D01*
D10*
G36*
X183313000Y-100643000D02*
G01*
X183067000Y-100643000D01*
X183067000Y-98047000D01*
X183313000Y-98047000D01*
X183313000Y-100643000D01*
G37*
D20*
X184559733Y-109490000D02*
X183977000Y-109490000D01*
X183977000Y-106390000D01*
X184572233Y-106390000D01*
X184559733Y-109490000D01*
D10*
G36*
X184559733Y-109490000D02*
G01*
X183977000Y-109490000D01*
X183977000Y-106390000D01*
X184572233Y-106390000D01*
X184559733Y-109490000D01*
G37*
D20*
X175473000Y-96400000D02*
X174877000Y-96400000D01*
X174877000Y-91100000D01*
X175473000Y-91100000D01*
X175473000Y-96400000D01*
D10*
G36*
X175473000Y-96400000D02*
G01*
X174877000Y-96400000D01*
X174877000Y-91100000D01*
X175473000Y-91100000D01*
X175473000Y-96400000D01*
G37*
D20*
X166423000Y-101510000D02*
X165827000Y-101510000D01*
X165827000Y-96090000D01*
X166423000Y-96090000D01*
X166423000Y-101510000D01*
D10*
G36*
X166423000Y-101510000D02*
G01*
X165827000Y-101510000D01*
X165827000Y-96090000D01*
X166423000Y-96090000D01*
X166423000Y-101510000D01*
G37*
D20*
X157373000Y-105750000D02*
X156777000Y-105750000D01*
X156777000Y-101127000D01*
X157373000Y-101127000D01*
X157373000Y-105750000D01*
D10*
G36*
X157373000Y-105750000D02*
G01*
X156777000Y-105750000D01*
X156777000Y-101127000D01*
X157373000Y-101127000D01*
X157373000Y-105750000D01*
G37*
D20*
X146983000Y-110393000D02*
X146737000Y-110393000D01*
X146737000Y-107667000D01*
X146983000Y-107667000D01*
X146983000Y-110393000D01*
D10*
G36*
X146983000Y-110393000D02*
G01*
X146737000Y-110393000D01*
X146737000Y-107667000D01*
X146983000Y-107667000D01*
X146983000Y-110393000D01*
G37*
D20*
X148273000Y-111070000D02*
X147677000Y-111070000D01*
X147677000Y-106830000D01*
X148273000Y-106830000D01*
X148273000Y-111070000D01*
D10*
G36*
X148273000Y-111070000D02*
G01*
X147677000Y-111070000D01*
X147677000Y-106830000D01*
X148273000Y-106830000D01*
X148273000Y-111070000D01*
G37*
D20*
X139223000Y-117470000D02*
X138627000Y-117470000D01*
X138627000Y-112710000D01*
X139223000Y-112710000D01*
X139223000Y-117470000D01*
D10*
G36*
X139223000Y-117470000D02*
G01*
X138627000Y-117470000D01*
X138627000Y-112710000D01*
X139223000Y-112710000D01*
X139223000Y-117470000D01*
G37*
D20*
X130118172Y-102230000D02*
X129522172Y-102230000D01*
X129526905Y-95877000D01*
X130122905Y-95877000D01*
X130118172Y-102230000D01*
D10*
G36*
X130118172Y-102230000D02*
G01*
X129522172Y-102230000D01*
X129526905Y-95877000D01*
X130122905Y-95877000D01*
X130118172Y-102230000D01*
G37*
D20*
X189280980Y-108210906D02*
X189157984Y-108423942D01*
X187189020Y-107309095D01*
X187312016Y-107096059D01*
X189280980Y-108210906D01*
D10*
G36*
X189280980Y-108210906D02*
G01*
X189157984Y-108423942D01*
X187189020Y-107309095D01*
X187312016Y-107096059D01*
X189280980Y-108210906D01*
G37*
D20*
X190416691Y-106306180D02*
X190293691Y-106519221D01*
X188058309Y-105220326D01*
X188181309Y-105007285D01*
X190416691Y-106306180D01*
D10*
G36*
X190416691Y-106306180D02*
G01*
X190293691Y-106519221D01*
X188058309Y-105220326D01*
X188181309Y-105007285D01*
X190416691Y-106306180D01*
G37*
D20*
X190470580Y-107382289D02*
X190172580Y-107898441D01*
X187025993Y-106081758D01*
X187323993Y-105565606D01*
X190470580Y-107382289D01*
D10*
G36*
X190470580Y-107382289D02*
G01*
X190172580Y-107898441D01*
X187025993Y-106081758D01*
X187323993Y-105565606D01*
X190470580Y-107382289D01*
G37*
D20*
X171699814Y-98024637D02*
X171576814Y-98237680D01*
X168419285Y-96414680D01*
X168542285Y-96201637D01*
X171699814Y-98024637D01*
D10*
G36*
X171699814Y-98024637D02*
G01*
X171576814Y-98237680D01*
X168419285Y-96414680D01*
X168542285Y-96201637D01*
X171699814Y-98024637D01*
G37*
D20*
X172712071Y-96089017D02*
X172589076Y-96302049D01*
X169569283Y-94522980D01*
X169692278Y-94309948D01*
X172712071Y-96089017D01*
D10*
G36*
X172712071Y-96089017D02*
G01*
X172589076Y-96302049D01*
X169569283Y-94522980D01*
X169692278Y-94309948D01*
X172712071Y-96089017D01*
G37*
D20*
X173200543Y-97411468D02*
X172902542Y-97927619D01*
X168132248Y-95173489D01*
X168430248Y-94657338D01*
X173200543Y-97411468D01*
D10*
G36*
X173200543Y-97411468D02*
G01*
X172902542Y-97927619D01*
X168132248Y-95173489D01*
X168430248Y-94657338D01*
X173200543Y-97411468D01*
G37*
D20*
X163728138Y-102425682D02*
X163430138Y-102941833D01*
X158925407Y-100340694D01*
X159223406Y-99824543D01*
X163728138Y-102425682D01*
D10*
G36*
X163728138Y-102425682D02*
G01*
X163430138Y-102941833D01*
X158925407Y-100340694D01*
X159223406Y-99824543D01*
X163728138Y-102425682D01*
G37*
D20*
X153936916Y-107218515D02*
X153638916Y-107734667D01*
X149861533Y-105553794D01*
X150159534Y-105037643D01*
X153936916Y-107218515D01*
D10*
G36*
X153936916Y-107218515D02*
G01*
X153638916Y-107734667D01*
X149861533Y-105553794D01*
X150159534Y-105037643D01*
X153936916Y-107218515D01*
G37*
D20*
X128329277Y-102997971D02*
X128031278Y-103514121D01*
X122480884Y-100278968D01*
X122778883Y-99762819D01*
X128329277Y-102997971D01*
D10*
G36*
X128329277Y-102997971D02*
G01*
X128031278Y-103514121D01*
X122480884Y-100278968D01*
X122778883Y-99762819D01*
X128329277Y-102997971D01*
G37*
D20*
X190390227Y-102018149D02*
X188673962Y-103020939D01*
X188550964Y-102807900D01*
X190267228Y-101805110D01*
X190390227Y-102018149D01*
D10*
G36*
X190390227Y-102018149D02*
G01*
X188673962Y-103020939D01*
X188550964Y-102807900D01*
X190267228Y-101805110D01*
X190390227Y-102018149D01*
G37*
D20*
X189301885Y-100098076D02*
X187481752Y-101150898D01*
X187358753Y-100937856D01*
X189178886Y-99885034D01*
X189301885Y-100098076D01*
D10*
G36*
X189301885Y-100098076D02*
G01*
X187481752Y-101150898D01*
X187358753Y-100937856D01*
X189178886Y-99885034D01*
X189301885Y-100098076D01*
G37*
D20*
X190448398Y-100870046D02*
X187629513Y-102497530D01*
X187331513Y-101981379D01*
X190150398Y-100353895D01*
X190448398Y-100870046D01*
D10*
G36*
X190448398Y-100870046D02*
G01*
X187629513Y-102497530D01*
X187331513Y-101981379D01*
X190150398Y-100353895D01*
X190448398Y-100870046D01*
G37*
D20*
X182256734Y-95124485D02*
X177811883Y-97690721D01*
X177513882Y-97174571D01*
X181958734Y-94608334D01*
X182256734Y-95124485D01*
D10*
G36*
X182256734Y-95124485D02*
G01*
X177811883Y-97690721D01*
X177513882Y-97174571D01*
X181958734Y-94608334D01*
X182256734Y-95124485D01*
G37*
D20*
X136282011Y-111206302D02*
X131825333Y-113779366D01*
X131527333Y-113263215D01*
X135984011Y-110690151D01*
X136282011Y-111206302D01*
D10*
G36*
X136282011Y-111206302D02*
G01*
X131825333Y-113779366D01*
X131527333Y-113263215D01*
X135984011Y-110690151D01*
X136282011Y-111206302D01*
G37*
D20*
X137154232Y-100230687D02*
X131646810Y-103365337D01*
X131370017Y-102885919D01*
X131468601Y-102825992D01*
X136856624Y-99715215D01*
X137154232Y-100230687D01*
D10*
G36*
X137154232Y-100230687D02*
G01*
X131646810Y-103365337D01*
X131370017Y-102885919D01*
X131468601Y-102825992D01*
X136856624Y-99715215D01*
X137154232Y-100230687D01*
G37*
D20*
X121973000Y-100722934D02*
X121973000Y-107575888D01*
X121477000Y-107573587D01*
X121477000Y-100720633D01*
X121973000Y-100722934D01*
D10*
G36*
X121973000Y-100722934D02*
G01*
X121973000Y-107575888D01*
X121477000Y-107573587D01*
X121477000Y-100720633D01*
X121973000Y-100722934D01*
G37*
D20*
X117373000Y-107573000D02*
X116777000Y-107573000D01*
X116777000Y-100720042D01*
X117373000Y-100720042D01*
X117373000Y-107573000D01*
D10*
G36*
X117373000Y-107573000D02*
G01*
X116777000Y-107573000D01*
X116777000Y-100720042D01*
X117373000Y-100720042D01*
X117373000Y-107573000D01*
G37*
D20*
X144951523Y-111479965D02*
X144828523Y-111693007D01*
X142468477Y-110330035D01*
X142591477Y-110116993D01*
X144951523Y-111479965D01*
D10*
G36*
X144951523Y-111479965D02*
G01*
X144828523Y-111693007D01*
X142468477Y-110330035D01*
X142591477Y-110116993D01*
X144951523Y-111479965D01*
G37*
D20*
X106340000Y-101000000D02*
X107103000Y-101000000D01*
X107103000Y-107329329D01*
X107078390Y-107300000D01*
X106350000Y-107300000D01*
X106057000Y-107469163D01*
X106057000Y-100836610D01*
X106340000Y-101000000D01*
D10*
G36*
X106340000Y-101000000D02*
G01*
X107103000Y-101000000D01*
X107103000Y-107329329D01*
X107078390Y-107300000D01*
X106350000Y-107300000D01*
X106057000Y-107469163D01*
X106057000Y-100836610D01*
X106340000Y-101000000D01*
G37*
D20*
X149233000Y-110333000D02*
X148987000Y-110333000D01*
X148987000Y-107197000D01*
X149233000Y-107197000D01*
X149233000Y-110333000D01*
D10*
G36*
X149233000Y-110333000D02*
G01*
X148987000Y-110333000D01*
X148987000Y-107197000D01*
X149233000Y-107197000D01*
X149233000Y-110333000D01*
G37*
D20*
X152806582Y-108026369D02*
X152683583Y-108239410D01*
X149983418Y-106676643D01*
X150106417Y-106463602D01*
X152806582Y-108026369D01*
D10*
G36*
X152806582Y-108026369D02*
G01*
X152683583Y-108239410D01*
X149983418Y-106676643D01*
X150106417Y-106463602D01*
X152806582Y-108026369D01*
G37*
D20*
X167323000Y-100673000D02*
X167077000Y-100673000D01*
X167077000Y-96427000D01*
X167323000Y-96427000D01*
X167323000Y-100673000D01*
D10*
G36*
X167323000Y-100673000D02*
G01*
X167077000Y-100673000D01*
X167077000Y-96427000D01*
X167323000Y-96427000D01*
X167323000Y-100673000D01*
G37*
D20*
X140113000Y-116637067D02*
X139867000Y-116637067D01*
X139867000Y-113131067D01*
X140113000Y-113131067D01*
X140113000Y-116637067D01*
D10*
G36*
X140113000Y-116637067D02*
G01*
X139867000Y-116637067D01*
X139867000Y-113131067D01*
X140113000Y-113131067D01*
X140113000Y-116637067D01*
G37*
D20*
X143818340Y-113338315D02*
X143695341Y-113551357D01*
X141289399Y-112169623D01*
X141412398Y-111956581D01*
X143818340Y-113338315D01*
D10*
G36*
X143818340Y-113338315D02*
G01*
X143695341Y-113551357D01*
X141289399Y-112169623D01*
X141412398Y-111956581D01*
X143818340Y-113338315D01*
G37*
D20*
X174213000Y-95751273D02*
X173967000Y-95751273D01*
X173967000Y-91505273D01*
X174213000Y-91505273D01*
X174213000Y-95751273D01*
D10*
G36*
X174213000Y-95751273D02*
G01*
X173967000Y-95751273D01*
X173967000Y-91505273D01*
X174213000Y-91505273D01*
X174213000Y-95751273D01*
G37*
D20*
X183403000Y-108903000D02*
X183157000Y-108903000D01*
X183157000Y-107007000D01*
X183403000Y-107007000D01*
X183403000Y-108903000D01*
D10*
G36*
X183403000Y-108903000D02*
G01*
X183157000Y-108903000D01*
X183157000Y-107007000D01*
X183403000Y-107007000D01*
X183403000Y-108903000D01*
G37*
D20*
X185323000Y-108933000D02*
X185137000Y-108933000D01*
X185137000Y-108477000D01*
X185323000Y-108477000D01*
X185323000Y-108933000D01*
D10*
G36*
X185323000Y-108933000D02*
G01*
X185137000Y-108933000D01*
X185137000Y-108477000D01*
X185323000Y-108477000D01*
X185323000Y-108933000D01*
G37*
D20*
X134286288Y-107807019D02*
X134163289Y-108020060D01*
X131413090Y-106427353D01*
X131536089Y-106214312D01*
X134286288Y-107807019D01*
D10*
G36*
X134286288Y-107807019D02*
G01*
X134163289Y-108020060D01*
X131413090Y-106427353D01*
X131536089Y-106214312D01*
X134286288Y-107807019D01*
G37*
D20*
X122743000Y-106463000D02*
X122497000Y-106463000D01*
X122497000Y-102217000D01*
X122743000Y-102217000D01*
X122743000Y-106463000D01*
D10*
G36*
X122743000Y-106463000D02*
G01*
X122497000Y-106463000D01*
X122497000Y-102217000D01*
X122743000Y-102217000D01*
X122743000Y-106463000D01*
G37*
D20*
X131719996Y-104899346D02*
X137108437Y-108010363D01*
X136810854Y-108525792D01*
X131361657Y-105331874D01*
X131637807Y-104853567D01*
X131719996Y-104899346D01*
D10*
G36*
X131719996Y-104899346D02*
G01*
X137108437Y-108010363D01*
X136810854Y-108525792D01*
X131361657Y-105331874D01*
X131637807Y-104853567D01*
X131719996Y-104899346D01*
G37*
D20*
X144843588Y-112472368D02*
X144545588Y-112988519D01*
X141307557Y-111119041D01*
X141605557Y-110602890D01*
X144843588Y-112472368D01*
D10*
G36*
X144843588Y-112472368D02*
G01*
X144545588Y-112988519D01*
X141307557Y-111119041D01*
X141605557Y-110602890D01*
X144843588Y-112472368D01*
G37*
M02*
