M48
; DRILL file {KiCad (5.1.10)-1} date 06/26/21 09:27:48
; FORMAT={-:-/ absolute / inch / decimal}
; #@! TF.CreationDate,2021-06-26T09:27:48-04:00
; #@! TF.GenerationSoftware,Kicad,Pcbnew,(5.1.10)-1
; #@! TF.FileFunction,Plated,1,2,PTH
FMAT,2
INCH
T1C0.0059
T2C0.0276
T3C0.0512
%
G90
G05
T1
X3.7961Y-4.7652
X3.8701Y-4.6732
X3.9083Y-4.6469
X3.9465Y-4.6201
X3.9823Y-4.5945
X3.9871Y-4.3739
X4.0205Y-4.5681
X4.0602Y-4.5398
X4.098Y-4.5134
X4.2453Y-3.9823
X4.2453Y-4.0276
X4.2453Y-4.0846
X4.2453Y-4.1555
X4.2984Y-4.1752
X4.3043Y-3.998
X4.3043Y-4.0709
X4.324Y-4.0984
X4.3563Y-4.2213
X4.3677Y-4.0134
X4.3882Y-3.9933
X4.4Y-4.0933
X4.4008Y-4.1535
X4.4169Y-3.987
X4.4185Y-3.8976
X4.4429Y-4.3134
X4.4453Y-3.9996
X4.4657Y-3.9803
X4.4752Y-4.2953
X4.5047Y-4.085
X4.5075Y-4.1594
X4.522Y-4.2567
X4.5248Y-3.9252
X4.5323Y-4.0091
X4.5433Y-4.0346
X4.5543Y-4.2402
X4.678Y-4.1492
X4.6929Y-4.0205
X4.7268Y-4.0622
X4.7346Y-4.0028
X4.7638Y-4.0413
X4.835Y-3.9949
X4.8358Y-4.2268
X4.8575Y-4.0122
X4.8591Y-4.1657
X4.8622Y-4.2134
X4.8866Y-3.9012
X4.8866Y-4.0354
X4.9378Y-4.122
X4.9969Y-4.111
X4.9976Y-4.0803
X5.0177Y-3.94
X5.0484Y-3.8276
X5.0713Y-3.876
X5.152Y-3.8252
X5.1626Y-3.8764
X5.1681Y-3.9374
X5.1752Y-4.3071
X5.2146Y-3.9646
X5.2409Y-4.4937
X5.2528Y-4.0618
X5.2642Y-4.1075
X5.2835Y-3.926
X5.2965Y-4.2819
X5.2972Y-4.3287
X5.3205Y-4.5622
X5.331Y-3.8525
X5.3437Y-4.0232
X5.3465Y-4.3154
X5.3555Y-4.6169
X5.3815Y-4.1709
X5.4047Y-4.4445
X5.4315Y-4.4606
X5.4346Y-4.128
X5.5311Y-4.4161
X5.5512Y-4.615
X5.578Y-4.3165
X5.7677Y-4.2063
X5.915Y-4.2563
X5.975Y-4.3605
X6.0329Y-4.0468
X6.0728Y-3.9795
X6.0941Y-4.1539
X6.1287Y-4.0177
X6.1331Y-3.9909
X6.2213Y-4.0461
X6.2248Y-4.0185
X6.2299Y-3.9902
X6.3055Y-4.2004
X6.3328Y-4.1551
X6.3858Y-3.9677
X6.4055Y-4.115
X6.4213Y-4.0882
X6.4389Y-3.9269
X6.4654Y-4.0059
X6.4677Y-3.9472
X6.5016Y-3.7933
X6.9343Y-3.7406
X6.9587Y-3.6243
X7.0551Y-3.752
X7.0669Y-3.7244
X7.0707Y-4.3206
X7.1713Y-4.2626
X7.3Y-3.8193
X7.3134Y-4.2362
X7.3218Y-4.207
X7.4295Y-4.3169
X7.4571Y-4.3469
T2
X6.9567Y-3.787
X7.3165Y-3.9949
T3
X3.9539Y-4.0118
X3.9559Y-4.189
T0
M30
