G04 #@! TF.GenerationSoftware,KiCad,Pcbnew,(5.1.10)-1*
G04 #@! TF.CreationDate,2021-06-26T09:27:45-04:00*
G04 #@! TF.ProjectId,Main,4d61696e-2e6b-4696-9361-645f70636258,5*
G04 #@! TF.SameCoordinates,Original*
G04 #@! TF.FileFunction,Copper,L1,Top*
G04 #@! TF.FilePolarity,Positive*
%FSLAX46Y46*%
G04 Gerber Fmt 4.6, Leading zero omitted, Abs format (unit mm)*
G04 Created by KiCad (PCBNEW (5.1.10)-1) date 2021-06-26 09:27:45*
%MOMM*%
%LPD*%
G01*
G04 APERTURE LIST*
G04 #@! TA.AperFunction,SMDPad,CuDef*
%ADD10C,0.100000*%
G04 #@! TD*
G04 #@! TA.AperFunction,SMDPad,CuDef*
%ADD11C,0.500000*%
G04 #@! TD*
G04 #@! TA.AperFunction,SMDPad,CuDef*
%ADD12R,0.600000X1.100000*%
G04 #@! TD*
G04 #@! TA.AperFunction,ComponentPad*
%ADD13C,2.500000*%
G04 #@! TD*
G04 #@! TA.AperFunction,SMDPad,CuDef*
%ADD14R,0.375000X0.350000*%
G04 #@! TD*
G04 #@! TA.AperFunction,SMDPad,CuDef*
%ADD15R,0.350000X0.375000*%
G04 #@! TD*
G04 #@! TA.AperFunction,SMDPad,CuDef*
%ADD16R,0.650000X1.060000*%
G04 #@! TD*
G04 #@! TA.AperFunction,ComponentPad*
%ADD17C,1.500000*%
G04 #@! TD*
G04 #@! TA.AperFunction,ViaPad*
%ADD18C,0.500000*%
G04 #@! TD*
G04 #@! TA.AperFunction,Conductor*
%ADD19C,0.250000*%
G04 #@! TD*
G04 #@! TA.AperFunction,NonConductor*
%ADD20C,0.254000*%
G04 #@! TD*
G04 #@! TA.AperFunction,NonConductor*
%ADD21C,0.100000*%
G04 #@! TD*
G04 #@! TA.AperFunction,Conductor*
%ADD22C,0.100000*%
G04 #@! TD*
G04 #@! TA.AperFunction,Conductor*
%ADD23C,0.254000*%
G04 #@! TD*
G04 APERTURE END LIST*
G04 #@! TA.AperFunction,SMDPad,CuDef*
D10*
G36*
X112037722Y-99589908D02*
G01*
X112031671Y-99582198D01*
X112027240Y-99573454D01*
X112024601Y-99564015D01*
X112023852Y-99554243D01*
X112025026Y-99544511D01*
X112028075Y-99535196D01*
X112032883Y-99526654D01*
X112434386Y-98953247D01*
X112440769Y-98945808D01*
X112448479Y-98939757D01*
X112457223Y-98935326D01*
X112466662Y-98932686D01*
X112476434Y-98931938D01*
X112486166Y-98933111D01*
X112495481Y-98936161D01*
X112504023Y-98940969D01*
X113036472Y-99313793D01*
X113043911Y-99320176D01*
X113049962Y-99327886D01*
X113054393Y-99336630D01*
X113057033Y-99346069D01*
X113093869Y-99554978D01*
X113094617Y-99564750D01*
X113093444Y-99574482D01*
X113090395Y-99583797D01*
X113085587Y-99592339D01*
X112770120Y-100042873D01*
X112763737Y-100050312D01*
X112756027Y-100056363D01*
X112747283Y-100060794D01*
X112737844Y-100063434D01*
X112728072Y-100064182D01*
X112718340Y-100063009D01*
X112709025Y-100059959D01*
X112700483Y-100055151D01*
X112045162Y-99596290D01*
X112037722Y-99589908D01*
G37*
G04 #@! TD.AperFunction*
G04 #@! TA.AperFunction,SMDPad,CuDef*
G36*
X113938341Y-99577884D02*
G01*
X113932290Y-99570174D01*
X113927859Y-99561430D01*
X113925219Y-99551991D01*
X113888383Y-99343082D01*
X113887635Y-99333310D01*
X113888808Y-99323578D01*
X113891857Y-99314263D01*
X113896665Y-99305721D01*
X114212132Y-98855187D01*
X114218515Y-98847748D01*
X114226225Y-98841697D01*
X114234969Y-98837266D01*
X114244408Y-98834626D01*
X114254180Y-98833878D01*
X114263912Y-98835051D01*
X114273227Y-98838101D01*
X114281769Y-98842909D01*
X114937090Y-99301770D01*
X114944530Y-99308152D01*
X114950581Y-99315862D01*
X114955012Y-99324606D01*
X114957651Y-99334045D01*
X114958400Y-99343817D01*
X114957226Y-99353549D01*
X114954177Y-99362864D01*
X114949369Y-99371406D01*
X114547866Y-99944813D01*
X114541483Y-99952252D01*
X114533773Y-99958303D01*
X114525029Y-99962734D01*
X114515590Y-99965374D01*
X114505818Y-99966122D01*
X114496086Y-99964949D01*
X114486771Y-99961899D01*
X114478229Y-99957091D01*
X113945780Y-99584267D01*
X113938341Y-99577884D01*
G37*
G04 #@! TD.AperFunction*
G04 #@! TA.AperFunction,SMDPad,CuDef*
G36*
G01*
X113796821Y-98576591D02*
X113406789Y-99133615D01*
G75*
G02*
X113323225Y-99148349I-49149J34415D01*
G01*
X112684287Y-98700959D01*
G75*
G02*
X112669553Y-98617395I34415J49149D01*
G01*
X113059585Y-98060371D01*
G75*
G02*
X113143149Y-98045637I49149J-34415D01*
G01*
X113782087Y-98493027D01*
G75*
G02*
X113796821Y-98576591I-34415J-49149D01*
G01*
G37*
G04 #@! TD.AperFunction*
G04 #@! TA.AperFunction,SMDPad,CuDef*
G36*
G01*
X114312699Y-100280665D02*
X113922667Y-100837689D01*
G75*
G02*
X113839103Y-100852423I-49149J34415D01*
G01*
X113200165Y-100405033D01*
G75*
G02*
X113185431Y-100321469I34415J49149D01*
G01*
X113575463Y-99764445D01*
G75*
G02*
X113659027Y-99749711I49149J-34415D01*
G01*
X114297965Y-100197101D01*
G75*
G02*
X114312699Y-100280665I-34415J-49149D01*
G01*
G37*
G04 #@! TD.AperFunction*
D11*
X114860000Y-108120000D03*
X112850000Y-109560000D03*
G04 #@! TA.AperFunction,SMDPad,CuDef*
D10*
G36*
X132883205Y-100119808D02*
G01*
X132536795Y-99919808D01*
X132836795Y-99400192D01*
X133183205Y-99600192D01*
X132883205Y-100119808D01*
G37*
G04 #@! TD.AperFunction*
G04 #@! TA.AperFunction,SMDPad,CuDef*
G36*
G01*
X132412035Y-99385898D02*
X132195529Y-99260898D01*
G75*
G02*
X132168077Y-99158446I37500J64952D01*
G01*
X132243077Y-99028542D01*
G75*
G02*
X132345529Y-99001090I64952J-37500D01*
G01*
X132562035Y-99126090D01*
G75*
G02*
X132589487Y-99228542I-37500J-64952D01*
G01*
X132514487Y-99358446D01*
G75*
G02*
X132412035Y-99385898I-64952J37500D01*
G01*
G37*
G04 #@! TD.AperFunction*
G04 #@! TA.AperFunction,SMDPad,CuDef*
G36*
G01*
X133624471Y-100085898D02*
X133407965Y-99960898D01*
G75*
G02*
X133380513Y-99858446I37500J64952D01*
G01*
X133455513Y-99728542D01*
G75*
G02*
X133557965Y-99701090I64952J-37500D01*
G01*
X133774471Y-99826090D01*
G75*
G02*
X133801923Y-99928542I-37500J-64952D01*
G01*
X133726923Y-100058446D01*
G75*
G02*
X133624471Y-100085898I-64952J37500D01*
G01*
G37*
G04 #@! TD.AperFunction*
G04 #@! TA.AperFunction,SMDPad,CuDef*
G36*
G01*
X133374471Y-100518910D02*
X133157965Y-100393910D01*
G75*
G02*
X133130513Y-100291458I37500J64952D01*
G01*
X133205513Y-100161554D01*
G75*
G02*
X133307965Y-100134102I64952J-37500D01*
G01*
X133524471Y-100259102D01*
G75*
G02*
X133551923Y-100361554I-37500J-64952D01*
G01*
X133476923Y-100491458D01*
G75*
G02*
X133374471Y-100518910I-64952J37500D01*
G01*
G37*
G04 #@! TD.AperFunction*
G04 #@! TA.AperFunction,SMDPad,CuDef*
G36*
G01*
X132162035Y-99818910D02*
X131945529Y-99693910D01*
G75*
G02*
X131918077Y-99591458I37500J64952D01*
G01*
X131993077Y-99461554D01*
G75*
G02*
X132095529Y-99434102I64952J-37500D01*
G01*
X132312035Y-99559102D01*
G75*
G02*
X132339487Y-99661554I-37500J-64952D01*
G01*
X132264487Y-99791458D01*
G75*
G02*
X132162035Y-99818910I-64952J37500D01*
G01*
G37*
G04 #@! TD.AperFunction*
G04 #@! TA.AperFunction,SMDPad,CuDef*
G36*
X136312212Y-104436266D02*
G01*
X136658622Y-104236266D01*
X136983622Y-104799182D01*
X136637212Y-104999182D01*
X136312212Y-104436266D01*
G37*
G04 #@! TD.AperFunction*
G04 #@! TA.AperFunction,SMDPad,CuDef*
G36*
X135186378Y-105086266D02*
G01*
X135532788Y-104886266D01*
X135857788Y-105449182D01*
X135511378Y-105649182D01*
X135186378Y-105086266D01*
G37*
G04 #@! TD.AperFunction*
G04 #@! TA.AperFunction,SMDPad,CuDef*
G36*
X134799295Y-103115818D02*
G01*
X135145705Y-102915818D01*
X135470705Y-103478734D01*
X135124295Y-103678734D01*
X134799295Y-103115818D01*
G37*
G04 #@! TD.AperFunction*
G04 #@! TA.AperFunction,SMDPad,CuDef*
G36*
X134236378Y-103440818D02*
G01*
X134582788Y-103240818D01*
X134907788Y-103803734D01*
X134561378Y-104003734D01*
X134236378Y-103440818D01*
G37*
G04 #@! TD.AperFunction*
G04 #@! TA.AperFunction,SMDPad,CuDef*
G36*
X135362212Y-102790818D02*
G01*
X135708622Y-102590818D01*
X136033622Y-103153734D01*
X135687212Y-103353734D01*
X135362212Y-102790818D01*
G37*
G04 #@! TD.AperFunction*
D12*
X133050000Y-109890000D03*
G04 #@! TA.AperFunction,SMDPad,CuDef*
G36*
G01*
X132550000Y-110302500D02*
X132550000Y-110477500D01*
G75*
G02*
X132512500Y-110515000I-37500J0D01*
G01*
X132187500Y-110515000D01*
G75*
G02*
X132150000Y-110477500I0J37500D01*
G01*
X132150000Y-110302500D01*
G75*
G02*
X132187500Y-110265000I37500J0D01*
G01*
X132512500Y-110265000D01*
G75*
G02*
X132550000Y-110302500I0J-37500D01*
G01*
G37*
G04 #@! TD.AperFunction*
G04 #@! TA.AperFunction,SMDPad,CuDef*
G36*
G01*
X132550000Y-109802500D02*
X132550000Y-109977500D01*
G75*
G02*
X132512500Y-110015000I-37500J0D01*
G01*
X132187500Y-110015000D01*
G75*
G02*
X132150000Y-109977500I0J37500D01*
G01*
X132150000Y-109802500D01*
G75*
G02*
X132187500Y-109765000I37500J0D01*
G01*
X132512500Y-109765000D01*
G75*
G02*
X132550000Y-109802500I0J-37500D01*
G01*
G37*
G04 #@! TD.AperFunction*
G04 #@! TA.AperFunction,SMDPad,CuDef*
G36*
G01*
X132550000Y-109302500D02*
X132550000Y-109477500D01*
G75*
G02*
X132512500Y-109515000I-37500J0D01*
G01*
X132187500Y-109515000D01*
G75*
G02*
X132150000Y-109477500I0J37500D01*
G01*
X132150000Y-109302500D01*
G75*
G02*
X132187500Y-109265000I37500J0D01*
G01*
X132512500Y-109265000D01*
G75*
G02*
X132550000Y-109302500I0J-37500D01*
G01*
G37*
G04 #@! TD.AperFunction*
G04 #@! TA.AperFunction,SMDPad,CuDef*
G36*
G01*
X133950000Y-109302500D02*
X133950000Y-109477500D01*
G75*
G02*
X133912500Y-109515000I-37500J0D01*
G01*
X133587500Y-109515000D01*
G75*
G02*
X133550000Y-109477500I0J37500D01*
G01*
X133550000Y-109302500D01*
G75*
G02*
X133587500Y-109265000I37500J0D01*
G01*
X133912500Y-109265000D01*
G75*
G02*
X133950000Y-109302500I0J-37500D01*
G01*
G37*
G04 #@! TD.AperFunction*
G04 #@! TA.AperFunction,SMDPad,CuDef*
G36*
G01*
X133950000Y-109802500D02*
X133950000Y-109977500D01*
G75*
G02*
X133912500Y-110015000I-37500J0D01*
G01*
X133587500Y-110015000D01*
G75*
G02*
X133550000Y-109977500I0J37500D01*
G01*
X133550000Y-109802500D01*
G75*
G02*
X133587500Y-109765000I37500J0D01*
G01*
X133912500Y-109765000D01*
G75*
G02*
X133950000Y-109802500I0J-37500D01*
G01*
G37*
G04 #@! TD.AperFunction*
G04 #@! TA.AperFunction,SMDPad,CuDef*
G36*
G01*
X133950000Y-110302500D02*
X133950000Y-110477500D01*
G75*
G02*
X133912500Y-110515000I-37500J0D01*
G01*
X133587500Y-110515000D01*
G75*
G02*
X133550000Y-110477500I0J37500D01*
G01*
X133550000Y-110302500D01*
G75*
G02*
X133587500Y-110265000I37500J0D01*
G01*
X133912500Y-110265000D01*
G75*
G02*
X133950000Y-110302500I0J-37500D01*
G01*
G37*
G04 #@! TD.AperFunction*
D13*
X100430000Y-101900000D03*
X100480000Y-106400000D03*
G04 #@! TA.AperFunction,SMDPad,CuDef*
D10*
G36*
X95197339Y-122366368D02*
G01*
X93559034Y-123513521D01*
X93386961Y-123267776D01*
X95025266Y-122120623D01*
X95197339Y-122366368D01*
G37*
G04 #@! TD.AperFunction*
G04 #@! TA.AperFunction,SMDPad,CuDef*
G36*
X94910551Y-121956793D02*
G01*
X93272246Y-123103946D01*
X93100173Y-122858201D01*
X94738478Y-121711048D01*
X94910551Y-121956793D01*
G37*
G04 #@! TD.AperFunction*
G04 #@! TA.AperFunction,SMDPad,CuDef*
G36*
X94623763Y-121547216D02*
G01*
X92985458Y-122694369D01*
X92813385Y-122448624D01*
X94451690Y-121301471D01*
X94623763Y-121547216D01*
G37*
G04 #@! TD.AperFunction*
G04 #@! TA.AperFunction,SMDPad,CuDef*
G36*
X94336974Y-121137640D02*
G01*
X92698669Y-122284793D01*
X92526596Y-122039048D01*
X94164901Y-120891895D01*
X94336974Y-121137640D01*
G37*
G04 #@! TD.AperFunction*
G04 #@! TA.AperFunction,SMDPad,CuDef*
G36*
X94050186Y-120728063D02*
G01*
X92411881Y-121875216D01*
X92239808Y-121629471D01*
X93878113Y-120482318D01*
X94050186Y-120728063D01*
G37*
G04 #@! TD.AperFunction*
G04 #@! TA.AperFunction,SMDPad,CuDef*
G36*
X93763398Y-120318488D02*
G01*
X92125093Y-121465641D01*
X91953020Y-121219896D01*
X93591325Y-120072743D01*
X93763398Y-120318488D01*
G37*
G04 #@! TD.AperFunction*
G04 #@! TA.AperFunction,SMDPad,CuDef*
G36*
X93476610Y-119908912D02*
G01*
X91838305Y-121056065D01*
X91666232Y-120810320D01*
X93304537Y-119663167D01*
X93476610Y-119908912D01*
G37*
G04 #@! TD.AperFunction*
G04 #@! TA.AperFunction,SMDPad,CuDef*
G36*
X93189821Y-119499336D02*
G01*
X91551516Y-120646489D01*
X91379443Y-120400744D01*
X93017748Y-119253591D01*
X93189821Y-119499336D01*
G37*
G04 #@! TD.AperFunction*
G04 #@! TA.AperFunction,SMDPad,CuDef*
G36*
X92903033Y-119089760D02*
G01*
X91264728Y-120236913D01*
X91092655Y-119991168D01*
X92730960Y-118844015D01*
X92903033Y-119089760D01*
G37*
G04 #@! TD.AperFunction*
G04 #@! TA.AperFunction,SMDPad,CuDef*
G36*
X92616244Y-118680183D02*
G01*
X90977939Y-119827336D01*
X90805866Y-119581591D01*
X92444171Y-118434438D01*
X92616244Y-118680183D01*
G37*
G04 #@! TD.AperFunction*
G04 #@! TA.AperFunction,SMDPad,CuDef*
G36*
X92329457Y-118270608D02*
G01*
X90691152Y-119417761D01*
X90519079Y-119172016D01*
X92157384Y-118024863D01*
X92329457Y-118270608D01*
G37*
G04 #@! TD.AperFunction*
G04 #@! TA.AperFunction,SMDPad,CuDef*
G36*
X92042669Y-117861032D02*
G01*
X90404364Y-119008185D01*
X90232291Y-118762440D01*
X91870596Y-117615287D01*
X92042669Y-117861032D01*
G37*
G04 #@! TD.AperFunction*
G04 #@! TA.AperFunction,SMDPad,CuDef*
G36*
X91755880Y-117451456D02*
G01*
X90117575Y-118598609D01*
X89945502Y-118352864D01*
X91583807Y-117205711D01*
X91755880Y-117451456D01*
G37*
G04 #@! TD.AperFunction*
G04 #@! TA.AperFunction,SMDPad,CuDef*
G36*
X91469092Y-117041880D02*
G01*
X89830787Y-118189033D01*
X89658714Y-117943288D01*
X91297019Y-116796135D01*
X91469092Y-117041880D01*
G37*
G04 #@! TD.AperFunction*
G04 #@! TA.AperFunction,SMDPad,CuDef*
G36*
X159263734Y-103378865D02*
G01*
X158700818Y-103703865D01*
X158170818Y-102785879D01*
X158733734Y-102460879D01*
X159263734Y-103378865D01*
G37*
G04 #@! TD.AperFunction*
G04 #@! TA.AperFunction,SMDPad,CuDef*
G36*
X160909182Y-102428865D02*
G01*
X160346266Y-102753865D01*
X159816266Y-101835879D01*
X160379182Y-101510879D01*
X160909182Y-102428865D01*
G37*
G04 #@! TD.AperFunction*
G04 #@! TA.AperFunction,SMDPad,CuDef*
G36*
X162009182Y-104334121D02*
G01*
X161446266Y-104659121D01*
X160916266Y-103741135D01*
X161479182Y-103416135D01*
X162009182Y-104334121D01*
G37*
G04 #@! TD.AperFunction*
G04 #@! TA.AperFunction,SMDPad,CuDef*
G36*
X161186458Y-104809121D02*
G01*
X160623542Y-105134121D01*
X160093542Y-104216135D01*
X160656458Y-103891135D01*
X161186458Y-104809121D01*
G37*
G04 #@! TD.AperFunction*
G04 #@! TA.AperFunction,SMDPad,CuDef*
G36*
X160363734Y-105284121D02*
G01*
X159800818Y-105609121D01*
X159270818Y-104691135D01*
X159833734Y-104366135D01*
X160363734Y-105284121D01*
G37*
G04 #@! TD.AperFunction*
G04 #@! TA.AperFunction,SMDPad,CuDef*
G36*
G01*
X119830000Y-105122500D02*
X119830000Y-104777500D01*
G75*
G02*
X119977500Y-104630000I147500J0D01*
G01*
X120272500Y-104630000D01*
G75*
G02*
X120420000Y-104777500I0J-147500D01*
G01*
X120420000Y-105122500D01*
G75*
G02*
X120272500Y-105270000I-147500J0D01*
G01*
X119977500Y-105270000D01*
G75*
G02*
X119830000Y-105122500I0J147500D01*
G01*
G37*
G04 #@! TD.AperFunction*
G04 #@! TA.AperFunction,SMDPad,CuDef*
G36*
G01*
X118860000Y-105122500D02*
X118860000Y-104777500D01*
G75*
G02*
X119007500Y-104630000I147500J0D01*
G01*
X119302500Y-104630000D01*
G75*
G02*
X119450000Y-104777500I0J-147500D01*
G01*
X119450000Y-105122500D01*
G75*
G02*
X119302500Y-105270000I-147500J0D01*
G01*
X119007500Y-105270000D01*
G75*
G02*
X118860000Y-105122500I0J147500D01*
G01*
G37*
G04 #@! TD.AperFunction*
G04 #@! TA.AperFunction,SMDPad,CuDef*
G36*
G01*
X120410000Y-106537500D02*
X120410000Y-106882500D01*
G75*
G02*
X120262500Y-107030000I-147500J0D01*
G01*
X119967500Y-107030000D01*
G75*
G02*
X119820000Y-106882500I0J147500D01*
G01*
X119820000Y-106537500D01*
G75*
G02*
X119967500Y-106390000I147500J0D01*
G01*
X120262500Y-106390000D01*
G75*
G02*
X120410000Y-106537500I0J-147500D01*
G01*
G37*
G04 #@! TD.AperFunction*
G04 #@! TA.AperFunction,SMDPad,CuDef*
G36*
G01*
X119440000Y-106537500D02*
X119440000Y-106882500D01*
G75*
G02*
X119292500Y-107030000I-147500J0D01*
G01*
X118997500Y-107030000D01*
G75*
G02*
X118850000Y-106882500I0J147500D01*
G01*
X118850000Y-106537500D01*
G75*
G02*
X118997500Y-106390000I147500J0D01*
G01*
X119292500Y-106390000D01*
G75*
G02*
X119440000Y-106537500I0J-147500D01*
G01*
G37*
G04 #@! TD.AperFunction*
G04 #@! TA.AperFunction,SMDPad,CuDef*
G36*
G01*
X119830000Y-106002500D02*
X119830000Y-105657500D01*
G75*
G02*
X119977500Y-105510000I147500J0D01*
G01*
X120272500Y-105510000D01*
G75*
G02*
X120420000Y-105657500I0J-147500D01*
G01*
X120420000Y-106002500D01*
G75*
G02*
X120272500Y-106150000I-147500J0D01*
G01*
X119977500Y-106150000D01*
G75*
G02*
X119830000Y-106002500I0J147500D01*
G01*
G37*
G04 #@! TD.AperFunction*
G04 #@! TA.AperFunction,SMDPad,CuDef*
G36*
G01*
X118860000Y-106002500D02*
X118860000Y-105657500D01*
G75*
G02*
X119007500Y-105510000I147500J0D01*
G01*
X119302500Y-105510000D01*
G75*
G02*
X119450000Y-105657500I0J-147500D01*
G01*
X119450000Y-106002500D01*
G75*
G02*
X119302500Y-106150000I-147500J0D01*
G01*
X119007500Y-106150000D01*
G75*
G02*
X118860000Y-106002500I0J147500D01*
G01*
G37*
G04 #@! TD.AperFunction*
G04 #@! TA.AperFunction,SMDPad,CuDef*
G36*
G01*
X150412776Y-108736820D02*
X150707224Y-108566820D01*
G75*
G02*
X150898468Y-108618064I70000J-121244D01*
G01*
X151038468Y-108860552D01*
G75*
G02*
X150987224Y-109051796I-121244J-70000D01*
G01*
X150692776Y-109221796D01*
G75*
G02*
X150501532Y-109170552I-70000J121244D01*
G01*
X150361532Y-108928064D01*
G75*
G02*
X150412776Y-108736820I121244J70000D01*
G01*
G37*
G04 #@! TD.AperFunction*
G04 #@! TA.AperFunction,SMDPad,CuDef*
G36*
G01*
X150892776Y-109568204D02*
X151187224Y-109398204D01*
G75*
G02*
X151378468Y-109449448I70000J-121244D01*
G01*
X151518468Y-109691936D01*
G75*
G02*
X151467224Y-109883180I-121244J-70000D01*
G01*
X151172776Y-110053180D01*
G75*
G02*
X150981532Y-110001936I-70000J121244D01*
G01*
X150841532Y-109759448D01*
G75*
G02*
X150892776Y-109568204I121244J70000D01*
G01*
G37*
G04 #@! TD.AperFunction*
G04 #@! TA.AperFunction,SMDPad,CuDef*
G36*
G01*
X155289250Y-100800611D02*
X155461750Y-101099389D01*
G75*
G02*
X155407761Y-101300878I-127739J-73750D01*
G01*
X155152283Y-101448378D01*
G75*
G02*
X154950794Y-101394389I-73750J127739D01*
G01*
X154778294Y-101095611D01*
G75*
G02*
X154832283Y-100894122I127739J73750D01*
G01*
X155087761Y-100746622D01*
G75*
G02*
X155289250Y-100800611I73750J-127739D01*
G01*
G37*
G04 #@! TD.AperFunction*
G04 #@! TA.AperFunction,SMDPad,CuDef*
G36*
G01*
X154449206Y-101285611D02*
X154621706Y-101584389D01*
G75*
G02*
X154567717Y-101785878I-127739J-73750D01*
G01*
X154312239Y-101933378D01*
G75*
G02*
X154110750Y-101879389I-73750J127739D01*
G01*
X153938250Y-101580611D01*
G75*
G02*
X153992239Y-101379122I127739J73750D01*
G01*
X154247717Y-101231622D01*
G75*
G02*
X154449206Y-101285611I73750J-127739D01*
G01*
G37*
G04 #@! TD.AperFunction*
G04 #@! TA.AperFunction,SMDPad,CuDef*
G36*
G01*
X155021126Y-105045937D02*
X155811374Y-104589687D01*
G75*
G02*
X156144343Y-104678906I121875J-211094D01*
G01*
X156388093Y-105101094D01*
G75*
G02*
X156298874Y-105434063I-211094J-121875D01*
G01*
X155508626Y-105890313D01*
G75*
G02*
X155175657Y-105801094I-121875J211094D01*
G01*
X154931907Y-105378906D01*
G75*
G02*
X155021126Y-105045937I211094J121875D01*
G01*
G37*
G04 #@! TD.AperFunction*
G04 #@! TA.AperFunction,SMDPad,CuDef*
G36*
G01*
X154083626Y-103422139D02*
X154873874Y-102965889D01*
G75*
G02*
X155206843Y-103055108I121875J-211094D01*
G01*
X155450593Y-103477296D01*
G75*
G02*
X155361374Y-103810265I-211094J-121875D01*
G01*
X154571126Y-104266515D01*
G75*
G02*
X154238157Y-104177296I-121875J211094D01*
G01*
X153994407Y-103755108D01*
G75*
G02*
X154083626Y-103422139I211094J121875D01*
G01*
G37*
G04 #@! TD.AperFunction*
G04 #@! TA.AperFunction,SMDPad,CuDef*
G36*
G01*
X133837595Y-114210027D02*
X134182595Y-114210027D01*
G75*
G02*
X134330095Y-114357527I0J-147500D01*
G01*
X134330095Y-114652527D01*
G75*
G02*
X134182595Y-114800027I-147500J0D01*
G01*
X133837595Y-114800027D01*
G75*
G02*
X133690095Y-114652527I0J147500D01*
G01*
X133690095Y-114357527D01*
G75*
G02*
X133837595Y-114210027I147500J0D01*
G01*
G37*
G04 #@! TD.AperFunction*
G04 #@! TA.AperFunction,SMDPad,CuDef*
G36*
G01*
X133837595Y-115180027D02*
X134182595Y-115180027D01*
G75*
G02*
X134330095Y-115327527I0J-147500D01*
G01*
X134330095Y-115622527D01*
G75*
G02*
X134182595Y-115770027I-147500J0D01*
G01*
X133837595Y-115770027D01*
G75*
G02*
X133690095Y-115622527I0J147500D01*
G01*
X133690095Y-115327527D01*
G75*
G02*
X133837595Y-115180027I147500J0D01*
G01*
G37*
G04 #@! TD.AperFunction*
G04 #@! TA.AperFunction,SMDPad,CuDef*
G36*
G01*
X134717500Y-115180000D02*
X135062500Y-115180000D01*
G75*
G02*
X135210000Y-115327500I0J-147500D01*
G01*
X135210000Y-115622500D01*
G75*
G02*
X135062500Y-115770000I-147500J0D01*
G01*
X134717500Y-115770000D01*
G75*
G02*
X134570000Y-115622500I0J147500D01*
G01*
X134570000Y-115327500D01*
G75*
G02*
X134717500Y-115180000I147500J0D01*
G01*
G37*
G04 #@! TD.AperFunction*
G04 #@! TA.AperFunction,SMDPad,CuDef*
G36*
G01*
X134717500Y-114210000D02*
X135062500Y-114210000D01*
G75*
G02*
X135210000Y-114357500I0J-147500D01*
G01*
X135210000Y-114652500D01*
G75*
G02*
X135062500Y-114800000I-147500J0D01*
G01*
X134717500Y-114800000D01*
G75*
G02*
X134570000Y-114652500I0J147500D01*
G01*
X134570000Y-114357500D01*
G75*
G02*
X134717500Y-114210000I147500J0D01*
G01*
G37*
G04 #@! TD.AperFunction*
G04 #@! TA.AperFunction,SMDPad,CuDef*
G36*
G01*
X119863750Y-103370000D02*
X120376250Y-103370000D01*
G75*
G02*
X120595000Y-103588750I0J-218750D01*
G01*
X120595000Y-104026250D01*
G75*
G02*
X120376250Y-104245000I-218750J0D01*
G01*
X119863750Y-104245000D01*
G75*
G02*
X119645000Y-104026250I0J218750D01*
G01*
X119645000Y-103588750D01*
G75*
G02*
X119863750Y-103370000I218750J0D01*
G01*
G37*
G04 #@! TD.AperFunction*
G04 #@! TA.AperFunction,SMDPad,CuDef*
G36*
G01*
X119863750Y-101795000D02*
X120376250Y-101795000D01*
G75*
G02*
X120595000Y-102013750I0J-218750D01*
G01*
X120595000Y-102451250D01*
G75*
G02*
X120376250Y-102670000I-218750J0D01*
G01*
X119863750Y-102670000D01*
G75*
G02*
X119645000Y-102451250I0J218750D01*
G01*
X119645000Y-102013750D01*
G75*
G02*
X119863750Y-101795000I218750J0D01*
G01*
G37*
G04 #@! TD.AperFunction*
G04 #@! TA.AperFunction,SMDPad,CuDef*
G36*
G01*
X118716250Y-103755000D02*
X117803750Y-103755000D01*
G75*
G02*
X117560000Y-103511250I0J243750D01*
G01*
X117560000Y-103023750D01*
G75*
G02*
X117803750Y-102780000I243750J0D01*
G01*
X118716250Y-102780000D01*
G75*
G02*
X118960000Y-103023750I0J-243750D01*
G01*
X118960000Y-103511250D01*
G75*
G02*
X118716250Y-103755000I-243750J0D01*
G01*
G37*
G04 #@! TD.AperFunction*
G04 #@! TA.AperFunction,SMDPad,CuDef*
G36*
G01*
X118716250Y-101880000D02*
X117803750Y-101880000D01*
G75*
G02*
X117560000Y-101636250I0J243750D01*
G01*
X117560000Y-101148750D01*
G75*
G02*
X117803750Y-100905000I243750J0D01*
G01*
X118716250Y-100905000D01*
G75*
G02*
X118960000Y-101148750I0J-243750D01*
G01*
X118960000Y-101636250D01*
G75*
G02*
X118716250Y-101880000I-243750J0D01*
G01*
G37*
G04 #@! TD.AperFunction*
G04 #@! TA.AperFunction,SMDPad,CuDef*
G36*
G01*
X120160000Y-101432500D02*
X120160000Y-101087500D01*
G75*
G02*
X120307500Y-100940000I147500J0D01*
G01*
X120602500Y-100940000D01*
G75*
G02*
X120750000Y-101087500I0J-147500D01*
G01*
X120750000Y-101432500D01*
G75*
G02*
X120602500Y-101580000I-147500J0D01*
G01*
X120307500Y-101580000D01*
G75*
G02*
X120160000Y-101432500I0J147500D01*
G01*
G37*
G04 #@! TD.AperFunction*
G04 #@! TA.AperFunction,SMDPad,CuDef*
G36*
G01*
X119190000Y-101432500D02*
X119190000Y-101087500D01*
G75*
G02*
X119337500Y-100940000I147500J0D01*
G01*
X119632500Y-100940000D01*
G75*
G02*
X119780000Y-101087500I0J-147500D01*
G01*
X119780000Y-101432500D01*
G75*
G02*
X119632500Y-101580000I-147500J0D01*
G01*
X119337500Y-101580000D01*
G75*
G02*
X119190000Y-101432500I0J147500D01*
G01*
G37*
G04 #@! TD.AperFunction*
G04 #@! TA.AperFunction,SMDPad,CuDef*
G36*
G01*
X124925611Y-104200794D02*
X125224389Y-104028294D01*
G75*
G02*
X125425878Y-104082283I73750J-127739D01*
G01*
X125573378Y-104337761D01*
G75*
G02*
X125519389Y-104539250I-127739J-73750D01*
G01*
X125220611Y-104711750D01*
G75*
G02*
X125019122Y-104657761I-73750J127739D01*
G01*
X124871622Y-104402283D01*
G75*
G02*
X124925611Y-104200794I127739J73750D01*
G01*
G37*
G04 #@! TD.AperFunction*
G04 #@! TA.AperFunction,SMDPad,CuDef*
G36*
G01*
X124440611Y-103360750D02*
X124739389Y-103188250D01*
G75*
G02*
X124940878Y-103242239I73750J-127739D01*
G01*
X125088378Y-103497717D01*
G75*
G02*
X125034389Y-103699206I-127739J-73750D01*
G01*
X124735611Y-103871706D01*
G75*
G02*
X124534122Y-103817717I-73750J127739D01*
G01*
X124386622Y-103562239D01*
G75*
G02*
X124440611Y-103360750I127739J73750D01*
G01*
G37*
G04 #@! TD.AperFunction*
G04 #@! TA.AperFunction,SMDPad,CuDef*
G36*
G01*
X115302098Y-100290592D02*
X115019491Y-100092708D01*
G75*
G02*
X114983269Y-99887280I84603J120825D01*
G01*
X115152474Y-99645630D01*
G75*
G02*
X115357902Y-99609408I120825J-84603D01*
G01*
X115640509Y-99807292D01*
G75*
G02*
X115676731Y-100012720I-84603J-120825D01*
G01*
X115507526Y-100254370D01*
G75*
G02*
X115302098Y-100290592I-120825J84603D01*
G01*
G37*
G04 #@! TD.AperFunction*
G04 #@! TA.AperFunction,SMDPad,CuDef*
G36*
G01*
X114745728Y-101085170D02*
X114463121Y-100887286D01*
G75*
G02*
X114426899Y-100681858I84603J120825D01*
G01*
X114596104Y-100440208D01*
G75*
G02*
X114801532Y-100403986I120825J-84603D01*
G01*
X115084139Y-100601870D01*
G75*
G02*
X115120361Y-100807298I-84603J-120825D01*
G01*
X114951156Y-101048948D01*
G75*
G02*
X114745728Y-101085170I-120825J84603D01*
G01*
G37*
G04 #@! TD.AperFunction*
G04 #@! TA.AperFunction,SMDPad,CuDef*
G36*
G01*
X111879717Y-98356697D02*
X112162324Y-98554581D01*
G75*
G02*
X112198546Y-98760009I-84603J-120825D01*
G01*
X112029341Y-99001659D01*
G75*
G02*
X111823913Y-99037881I-120825J84603D01*
G01*
X111541306Y-98839997D01*
G75*
G02*
X111505084Y-98634569I84603J120825D01*
G01*
X111674289Y-98392919D01*
G75*
G02*
X111879717Y-98356697I120825J-84603D01*
G01*
G37*
G04 #@! TD.AperFunction*
G04 #@! TA.AperFunction,SMDPad,CuDef*
G36*
G01*
X112436087Y-97562119D02*
X112718694Y-97760003D01*
G75*
G02*
X112754916Y-97965431I-84603J-120825D01*
G01*
X112585711Y-98207081D01*
G75*
G02*
X112380283Y-98243303I-120825J84603D01*
G01*
X112097676Y-98045419D01*
G75*
G02*
X112061454Y-97839991I84603J120825D01*
G01*
X112230659Y-97598341D01*
G75*
G02*
X112436087Y-97562119I120825J-84603D01*
G01*
G37*
G04 #@! TD.AperFunction*
G04 #@! TA.AperFunction,SMDPad,CuDef*
G36*
G01*
X109657500Y-105090000D02*
X110002500Y-105090000D01*
G75*
G02*
X110150000Y-105237500I0J-147500D01*
G01*
X110150000Y-105532500D01*
G75*
G02*
X110002500Y-105680000I-147500J0D01*
G01*
X109657500Y-105680000D01*
G75*
G02*
X109510000Y-105532500I0J147500D01*
G01*
X109510000Y-105237500D01*
G75*
G02*
X109657500Y-105090000I147500J0D01*
G01*
G37*
G04 #@! TD.AperFunction*
G04 #@! TA.AperFunction,SMDPad,CuDef*
G36*
G01*
X109657500Y-104120000D02*
X110002500Y-104120000D01*
G75*
G02*
X110150000Y-104267500I0J-147500D01*
G01*
X110150000Y-104562500D01*
G75*
G02*
X110002500Y-104710000I-147500J0D01*
G01*
X109657500Y-104710000D01*
G75*
G02*
X109510000Y-104562500I0J147500D01*
G01*
X109510000Y-104267500D01*
G75*
G02*
X109657500Y-104120000I147500J0D01*
G01*
G37*
G04 #@! TD.AperFunction*
G04 #@! TA.AperFunction,SMDPad,CuDef*
G36*
G01*
X113440000Y-105467500D02*
X113440000Y-105812500D01*
G75*
G02*
X113292500Y-105960000I-147500J0D01*
G01*
X112997500Y-105960000D01*
G75*
G02*
X112850000Y-105812500I0J147500D01*
G01*
X112850000Y-105467500D01*
G75*
G02*
X112997500Y-105320000I147500J0D01*
G01*
X113292500Y-105320000D01*
G75*
G02*
X113440000Y-105467500I0J-147500D01*
G01*
G37*
G04 #@! TD.AperFunction*
G04 #@! TA.AperFunction,SMDPad,CuDef*
G36*
G01*
X114410000Y-105467500D02*
X114410000Y-105812500D01*
G75*
G02*
X114262500Y-105960000I-147500J0D01*
G01*
X113967500Y-105960000D01*
G75*
G02*
X113820000Y-105812500I0J147500D01*
G01*
X113820000Y-105467500D01*
G75*
G02*
X113967500Y-105320000I147500J0D01*
G01*
X114262500Y-105320000D01*
G75*
G02*
X114410000Y-105467500I0J-147500D01*
G01*
G37*
G04 #@! TD.AperFunction*
G04 #@! TA.AperFunction,SMDPad,CuDef*
G36*
G01*
X115702500Y-106360000D02*
X115357500Y-106360000D01*
G75*
G02*
X115210000Y-106212500I0J147500D01*
G01*
X115210000Y-105917500D01*
G75*
G02*
X115357500Y-105770000I147500J0D01*
G01*
X115702500Y-105770000D01*
G75*
G02*
X115850000Y-105917500I0J-147500D01*
G01*
X115850000Y-106212500D01*
G75*
G02*
X115702500Y-106360000I-147500J0D01*
G01*
G37*
G04 #@! TD.AperFunction*
G04 #@! TA.AperFunction,SMDPad,CuDef*
G36*
G01*
X115702500Y-107330000D02*
X115357500Y-107330000D01*
G75*
G02*
X115210000Y-107182500I0J147500D01*
G01*
X115210000Y-106887500D01*
G75*
G02*
X115357500Y-106740000I147500J0D01*
G01*
X115702500Y-106740000D01*
G75*
G02*
X115850000Y-106887500I0J-147500D01*
G01*
X115850000Y-107182500D01*
G75*
G02*
X115702500Y-107330000I-147500J0D01*
G01*
G37*
G04 #@! TD.AperFunction*
G04 #@! TA.AperFunction,SMDPad,CuDef*
G36*
G01*
X128460000Y-101962500D02*
X128460000Y-101617500D01*
G75*
G02*
X128607500Y-101470000I147500J0D01*
G01*
X128902500Y-101470000D01*
G75*
G02*
X129050000Y-101617500I0J-147500D01*
G01*
X129050000Y-101962500D01*
G75*
G02*
X128902500Y-102110000I-147500J0D01*
G01*
X128607500Y-102110000D01*
G75*
G02*
X128460000Y-101962500I0J147500D01*
G01*
G37*
G04 #@! TD.AperFunction*
G04 #@! TA.AperFunction,SMDPad,CuDef*
G36*
G01*
X127490000Y-101962500D02*
X127490000Y-101617500D01*
G75*
G02*
X127637500Y-101470000I147500J0D01*
G01*
X127932500Y-101470000D01*
G75*
G02*
X128080000Y-101617500I0J-147500D01*
G01*
X128080000Y-101962500D01*
G75*
G02*
X127932500Y-102110000I-147500J0D01*
G01*
X127637500Y-102110000D01*
G75*
G02*
X127490000Y-101962500I0J147500D01*
G01*
G37*
G04 #@! TD.AperFunction*
G04 #@! TA.AperFunction,SMDPad,CuDef*
G36*
G01*
X164199206Y-101115611D02*
X164371706Y-101414389D01*
G75*
G02*
X164317717Y-101615878I-127739J-73750D01*
G01*
X164062239Y-101763378D01*
G75*
G02*
X163860750Y-101709389I-73750J127739D01*
G01*
X163688250Y-101410611D01*
G75*
G02*
X163742239Y-101209122I127739J73750D01*
G01*
X163997717Y-101061622D01*
G75*
G02*
X164199206Y-101115611I73750J-127739D01*
G01*
G37*
G04 #@! TD.AperFunction*
G04 #@! TA.AperFunction,SMDPad,CuDef*
G36*
G01*
X165039250Y-100630611D02*
X165211750Y-100929389D01*
G75*
G02*
X165157761Y-101130878I-127739J-73750D01*
G01*
X164902283Y-101278378D01*
G75*
G02*
X164700794Y-101224389I-73750J127739D01*
G01*
X164528294Y-100925611D01*
G75*
G02*
X164582283Y-100724122I127739J73750D01*
G01*
X164837761Y-100576622D01*
G75*
G02*
X165039250Y-100630611I73750J-127739D01*
G01*
G37*
G04 #@! TD.AperFunction*
G04 #@! TA.AperFunction,SMDPad,CuDef*
G36*
G01*
X114140000Y-104412500D02*
X114140000Y-104067500D01*
G75*
G02*
X114287500Y-103920000I147500J0D01*
G01*
X114582500Y-103920000D01*
G75*
G02*
X114730000Y-104067500I0J-147500D01*
G01*
X114730000Y-104412500D01*
G75*
G02*
X114582500Y-104560000I-147500J0D01*
G01*
X114287500Y-104560000D01*
G75*
G02*
X114140000Y-104412500I0J147500D01*
G01*
G37*
G04 #@! TD.AperFunction*
G04 #@! TA.AperFunction,SMDPad,CuDef*
G36*
G01*
X113170000Y-104412500D02*
X113170000Y-104067500D01*
G75*
G02*
X113317500Y-103920000I147500J0D01*
G01*
X113612500Y-103920000D01*
G75*
G02*
X113760000Y-104067500I0J-147500D01*
G01*
X113760000Y-104412500D01*
G75*
G02*
X113612500Y-104560000I-147500J0D01*
G01*
X113317500Y-104560000D01*
G75*
G02*
X113170000Y-104412500I0J147500D01*
G01*
G37*
G04 #@! TD.AperFunction*
G04 #@! TA.AperFunction,SMDPad,CuDef*
G36*
G01*
X181220794Y-109004389D02*
X181048294Y-108705611D01*
G75*
G02*
X181102283Y-108504122I127739J73750D01*
G01*
X181357761Y-108356622D01*
G75*
G02*
X181559250Y-108410611I73750J-127739D01*
G01*
X181731750Y-108709389D01*
G75*
G02*
X181677761Y-108910878I-127739J-73750D01*
G01*
X181422283Y-109058378D01*
G75*
G02*
X181220794Y-109004389I-73750J127739D01*
G01*
G37*
G04 #@! TD.AperFunction*
G04 #@! TA.AperFunction,SMDPad,CuDef*
G36*
G01*
X180380750Y-109489389D02*
X180208250Y-109190611D01*
G75*
G02*
X180262239Y-108989122I127739J73750D01*
G01*
X180517717Y-108841622D01*
G75*
G02*
X180719206Y-108895611I73750J-127739D01*
G01*
X180891706Y-109194389D01*
G75*
G02*
X180837717Y-109395878I-127739J-73750D01*
G01*
X180582239Y-109543378D01*
G75*
G02*
X180380750Y-109489389I-73750J127739D01*
G01*
G37*
G04 #@! TD.AperFunction*
D14*
X113007500Y-107500000D03*
X113007500Y-107000000D03*
X114532500Y-107000000D03*
X114532500Y-107500000D03*
D15*
X113020000Y-106487500D03*
X113020000Y-108012500D03*
X114520000Y-106487500D03*
X114520000Y-108012500D03*
X114020000Y-106487500D03*
X113520000Y-106487500D03*
X114020000Y-108012500D03*
X113520000Y-108012500D03*
G04 #@! TA.AperFunction,SMDPad,CuDef*
D10*
G36*
X162687788Y-97883734D02*
G01*
X162341378Y-98083734D01*
X162016378Y-97520818D01*
X162362788Y-97320818D01*
X162687788Y-97883734D01*
G37*
G04 #@! TD.AperFunction*
G04 #@! TA.AperFunction,SMDPad,CuDef*
G36*
X163813622Y-97233734D02*
G01*
X163467212Y-97433734D01*
X163142212Y-96870818D01*
X163488622Y-96670818D01*
X163813622Y-97233734D01*
G37*
G04 #@! TD.AperFunction*
G04 #@! TA.AperFunction,SMDPad,CuDef*
G36*
X164200705Y-99204182D02*
G01*
X163854295Y-99404182D01*
X163529295Y-98841266D01*
X163875705Y-98641266D01*
X164200705Y-99204182D01*
G37*
G04 #@! TD.AperFunction*
G04 #@! TA.AperFunction,SMDPad,CuDef*
G36*
X163250705Y-97558734D02*
G01*
X162904295Y-97758734D01*
X162579295Y-97195818D01*
X162925705Y-96995818D01*
X163250705Y-97558734D01*
G37*
G04 #@! TD.AperFunction*
G04 #@! TA.AperFunction,SMDPad,CuDef*
G36*
X164763622Y-98879182D02*
G01*
X164417212Y-99079182D01*
X164092212Y-98516266D01*
X164438622Y-98316266D01*
X164763622Y-98879182D01*
G37*
G04 #@! TD.AperFunction*
G04 #@! TA.AperFunction,SMDPad,CuDef*
G36*
X163637788Y-99529182D02*
G01*
X163291378Y-99729182D01*
X162966378Y-99166266D01*
X163312788Y-98966266D01*
X163637788Y-99529182D01*
G37*
G04 #@! TD.AperFunction*
D16*
X136010000Y-114040000D03*
X137910000Y-114040000D03*
X137910000Y-116240000D03*
X136960000Y-116240000D03*
X136010000Y-116240000D03*
G04 #@! TA.AperFunction,SMDPad,CuDef*
D10*
G36*
X133993013Y-97287180D02*
G01*
X133193013Y-98672820D01*
X132326987Y-98172820D01*
X133126987Y-96787180D01*
X133993013Y-97287180D01*
G37*
G04 #@! TD.AperFunction*
G04 #@! TA.AperFunction,SMDPad,CuDef*
G36*
X132294631Y-97778863D02*
G01*
X132119631Y-98081971D01*
X131556715Y-97756971D01*
X131731715Y-97453863D01*
X132294631Y-97778863D01*
G37*
G04 #@! TD.AperFunction*
G04 #@! TA.AperFunction,SMDPad,CuDef*
G36*
X132619631Y-97215946D02*
G01*
X132444631Y-97519054D01*
X131881715Y-97194054D01*
X132056715Y-96890946D01*
X132619631Y-97215946D01*
G37*
G04 #@! TD.AperFunction*
G04 #@! TA.AperFunction,SMDPad,CuDef*
G36*
X132944631Y-96653029D02*
G01*
X132769631Y-96956137D01*
X132206715Y-96631137D01*
X132381715Y-96328029D01*
X132944631Y-96653029D01*
G37*
G04 #@! TD.AperFunction*
G04 #@! TA.AperFunction,SMDPad,CuDef*
G36*
X134763285Y-97703029D02*
G01*
X134588285Y-98006137D01*
X134025369Y-97681137D01*
X134200369Y-97378029D01*
X134763285Y-97703029D01*
G37*
G04 #@! TD.AperFunction*
G04 #@! TA.AperFunction,SMDPad,CuDef*
G36*
X134438285Y-98265946D02*
G01*
X134263285Y-98569054D01*
X133700369Y-98244054D01*
X133875369Y-97940946D01*
X134438285Y-98265946D01*
G37*
G04 #@! TD.AperFunction*
G04 #@! TA.AperFunction,SMDPad,CuDef*
G36*
X134113285Y-98828863D02*
G01*
X133938285Y-99131971D01*
X133375369Y-98806971D01*
X133550369Y-98503863D01*
X134113285Y-98828863D01*
G37*
G04 #@! TD.AperFunction*
G04 #@! TA.AperFunction,SMDPad,CuDef*
G36*
G01*
X138044419Y-104302756D02*
X137600581Y-104559006D01*
G75*
G02*
X137301763Y-104478938I-109375J189443D01*
G01*
X137083013Y-104100052D01*
G75*
G02*
X137163081Y-103801234I189443J109375D01*
G01*
X137606919Y-103544984D01*
G75*
G02*
X137905737Y-103625052I109375J-189443D01*
G01*
X138124487Y-104003938D01*
G75*
G02*
X138044419Y-104302756I-189443J-109375D01*
G01*
G37*
G04 #@! TD.AperFunction*
G04 #@! TA.AperFunction,SMDPad,CuDef*
G36*
G01*
X137256919Y-102938766D02*
X136813081Y-103195016D01*
G75*
G02*
X136514263Y-103114948I-109375J189443D01*
G01*
X136295513Y-102736062D01*
G75*
G02*
X136375581Y-102437244I189443J109375D01*
G01*
X136819419Y-102180994D01*
G75*
G02*
X137118237Y-102261062I109375J-189443D01*
G01*
X137336987Y-102639948D01*
G75*
G02*
X137256919Y-102938766I-189443J-109375D01*
G01*
G37*
G04 #@! TD.AperFunction*
G04 #@! TA.AperFunction,SMDPad,CuDef*
G36*
G01*
X115786250Y-105095000D02*
X115273750Y-105095000D01*
G75*
G02*
X115055000Y-104876250I0J218750D01*
G01*
X115055000Y-104438750D01*
G75*
G02*
X115273750Y-104220000I218750J0D01*
G01*
X115786250Y-104220000D01*
G75*
G02*
X116005000Y-104438750I0J-218750D01*
G01*
X116005000Y-104876250D01*
G75*
G02*
X115786250Y-105095000I-218750J0D01*
G01*
G37*
G04 #@! TD.AperFunction*
G04 #@! TA.AperFunction,SMDPad,CuDef*
G36*
G01*
X115786250Y-103520000D02*
X115273750Y-103520000D01*
G75*
G02*
X115055000Y-103301250I0J218750D01*
G01*
X115055000Y-102863750D01*
G75*
G02*
X115273750Y-102645000I218750J0D01*
G01*
X115786250Y-102645000D01*
G75*
G02*
X116005000Y-102863750I0J-218750D01*
G01*
X116005000Y-103301250D01*
G75*
G02*
X115786250Y-103520000I-218750J0D01*
G01*
G37*
G04 #@! TD.AperFunction*
G04 #@! TA.AperFunction,SMDPad,CuDef*
G36*
G01*
X111592500Y-107206250D02*
X111592500Y-106693750D01*
G75*
G02*
X111811250Y-106475000I218750J0D01*
G01*
X112248750Y-106475000D01*
G75*
G02*
X112467500Y-106693750I0J-218750D01*
G01*
X112467500Y-107206250D01*
G75*
G02*
X112248750Y-107425000I-218750J0D01*
G01*
X111811250Y-107425000D01*
G75*
G02*
X111592500Y-107206250I0J218750D01*
G01*
G37*
G04 #@! TD.AperFunction*
G04 #@! TA.AperFunction,SMDPad,CuDef*
G36*
G01*
X110017500Y-107206250D02*
X110017500Y-106693750D01*
G75*
G02*
X110236250Y-106475000I218750J0D01*
G01*
X110673750Y-106475000D01*
G75*
G02*
X110892500Y-106693750I0J-218750D01*
G01*
X110892500Y-107206250D01*
G75*
G02*
X110673750Y-107425000I-218750J0D01*
G01*
X110236250Y-107425000D01*
G75*
G02*
X110017500Y-107206250I0J218750D01*
G01*
G37*
G04 #@! TD.AperFunction*
G04 #@! TA.AperFunction,SMDPad,CuDef*
G36*
G01*
X152613626Y-104262139D02*
X153403874Y-103805889D01*
G75*
G02*
X153736843Y-103895108I121875J-211094D01*
G01*
X153980593Y-104317296D01*
G75*
G02*
X153891374Y-104650265I-211094J-121875D01*
G01*
X153101126Y-105106515D01*
G75*
G02*
X152768157Y-105017296I-121875J211094D01*
G01*
X152524407Y-104595108D01*
G75*
G02*
X152613626Y-104262139I211094J121875D01*
G01*
G37*
G04 #@! TD.AperFunction*
G04 #@! TA.AperFunction,SMDPad,CuDef*
G36*
G01*
X153551126Y-105885937D02*
X154341374Y-105429687D01*
G75*
G02*
X154674343Y-105518906I121875J-211094D01*
G01*
X154918093Y-105941094D01*
G75*
G02*
X154828874Y-106274063I-211094J-121875D01*
G01*
X154038626Y-106730313D01*
G75*
G02*
X153705657Y-106641094I-121875J211094D01*
G01*
X153461907Y-106218906D01*
G75*
G02*
X153551126Y-105885937I211094J121875D01*
G01*
G37*
G04 #@! TD.AperFunction*
G04 #@! TA.AperFunction,SMDPad,CuDef*
G36*
G01*
X159039331Y-106189239D02*
X159483169Y-105932989D01*
G75*
G02*
X159781987Y-106013057I109375J-189443D01*
G01*
X160000737Y-106391943D01*
G75*
G02*
X159920669Y-106690761I-189443J-109375D01*
G01*
X159476831Y-106947011D01*
G75*
G02*
X159178013Y-106866943I-109375J189443D01*
G01*
X158959263Y-106488057D01*
G75*
G02*
X159039331Y-106189239I189443J109375D01*
G01*
G37*
G04 #@! TD.AperFunction*
G04 #@! TA.AperFunction,SMDPad,CuDef*
G36*
G01*
X158251831Y-104825249D02*
X158695669Y-104568999D01*
G75*
G02*
X158994487Y-104649067I109375J-189443D01*
G01*
X159213237Y-105027953D01*
G75*
G02*
X159133169Y-105326771I-189443J-109375D01*
G01*
X158689331Y-105583021D01*
G75*
G02*
X158390513Y-105502953I-109375J189443D01*
G01*
X158171763Y-105124067D01*
G75*
G02*
X158251831Y-104825249I189443J109375D01*
G01*
G37*
G04 #@! TD.AperFunction*
G04 #@! TA.AperFunction,SMDPad,CuDef*
G36*
G01*
X125727244Y-99354419D02*
X125470994Y-98910581D01*
G75*
G02*
X125551062Y-98611763I189443J109375D01*
G01*
X125929948Y-98393013D01*
G75*
G02*
X126228766Y-98473081I109375J-189443D01*
G01*
X126485016Y-98916919D01*
G75*
G02*
X126404948Y-99215737I-189443J-109375D01*
G01*
X126026062Y-99434487D01*
G75*
G02*
X125727244Y-99354419I-109375J189443D01*
G01*
G37*
G04 #@! TD.AperFunction*
G04 #@! TA.AperFunction,SMDPad,CuDef*
G36*
G01*
X127091234Y-98566919D02*
X126834984Y-98123081D01*
G75*
G02*
X126915052Y-97824263I189443J109375D01*
G01*
X127293938Y-97605513D01*
G75*
G02*
X127592756Y-97685581I109375J-189443D01*
G01*
X127849006Y-98129419D01*
G75*
G02*
X127768938Y-98428237I-189443J-109375D01*
G01*
X127390052Y-98646987D01*
G75*
G02*
X127091234Y-98566919I-109375J189443D01*
G01*
G37*
G04 #@! TD.AperFunction*
G04 #@! TA.AperFunction,SMDPad,CuDef*
G36*
G01*
X131666250Y-112045000D02*
X131153750Y-112045000D01*
G75*
G02*
X130935000Y-111826250I0J218750D01*
G01*
X130935000Y-111388750D01*
G75*
G02*
X131153750Y-111170000I218750J0D01*
G01*
X131666250Y-111170000D01*
G75*
G02*
X131885000Y-111388750I0J-218750D01*
G01*
X131885000Y-111826250D01*
G75*
G02*
X131666250Y-112045000I-218750J0D01*
G01*
G37*
G04 #@! TD.AperFunction*
G04 #@! TA.AperFunction,SMDPad,CuDef*
G36*
G01*
X131666250Y-110470000D02*
X131153750Y-110470000D01*
G75*
G02*
X130935000Y-110251250I0J218750D01*
G01*
X130935000Y-109813750D01*
G75*
G02*
X131153750Y-109595000I218750J0D01*
G01*
X131666250Y-109595000D01*
G75*
G02*
X131885000Y-109813750I0J-218750D01*
G01*
X131885000Y-110251250D01*
G75*
G02*
X131666250Y-110470000I-218750J0D01*
G01*
G37*
G04 #@! TD.AperFunction*
G04 #@! TA.AperFunction,SMDPad,CuDef*
G36*
G01*
X125434063Y-97079876D02*
X125890313Y-97870124D01*
G75*
G02*
X125801094Y-98203093I-211094J-121875D01*
G01*
X125378906Y-98446843D01*
G75*
G02*
X125045937Y-98357624I-121875J211094D01*
G01*
X124589687Y-97567376D01*
G75*
G02*
X124678906Y-97234407I211094J121875D01*
G01*
X125101094Y-96990657D01*
G75*
G02*
X125434063Y-97079876I121875J-211094D01*
G01*
G37*
G04 #@! TD.AperFunction*
G04 #@! TA.AperFunction,SMDPad,CuDef*
G36*
G01*
X127057861Y-96142376D02*
X127514111Y-96932624D01*
G75*
G02*
X127424892Y-97265593I-211094J-121875D01*
G01*
X127002704Y-97509343D01*
G75*
G02*
X126669735Y-97420124I-121875J211094D01*
G01*
X126213485Y-96629876D01*
G75*
G02*
X126302704Y-96296907I211094J121875D01*
G01*
X126724892Y-96053157D01*
G75*
G02*
X127057861Y-96142376I121875J-211094D01*
G01*
G37*
G04 #@! TD.AperFunction*
G04 #@! TA.AperFunction,SMDPad,CuDef*
G36*
G01*
X128460000Y-99282500D02*
X128460000Y-98937500D01*
G75*
G02*
X128607500Y-98790000I147500J0D01*
G01*
X128902500Y-98790000D01*
G75*
G02*
X129050000Y-98937500I0J-147500D01*
G01*
X129050000Y-99282500D01*
G75*
G02*
X128902500Y-99430000I-147500J0D01*
G01*
X128607500Y-99430000D01*
G75*
G02*
X128460000Y-99282500I0J147500D01*
G01*
G37*
G04 #@! TD.AperFunction*
G04 #@! TA.AperFunction,SMDPad,CuDef*
G36*
G01*
X127490000Y-99282500D02*
X127490000Y-98937500D01*
G75*
G02*
X127637500Y-98790000I147500J0D01*
G01*
X127932500Y-98790000D01*
G75*
G02*
X128080000Y-98937500I0J-147500D01*
G01*
X128080000Y-99282500D01*
G75*
G02*
X127932500Y-99430000I-147500J0D01*
G01*
X127637500Y-99430000D01*
G75*
G02*
X127490000Y-99282500I0J147500D01*
G01*
G37*
G04 #@! TD.AperFunction*
G04 #@! TA.AperFunction,SMDPad,CuDef*
G36*
G01*
X129050000Y-100727500D02*
X129050000Y-101072500D01*
G75*
G02*
X128902500Y-101220000I-147500J0D01*
G01*
X128607500Y-101220000D01*
G75*
G02*
X128460000Y-101072500I0J147500D01*
G01*
X128460000Y-100727500D01*
G75*
G02*
X128607500Y-100580000I147500J0D01*
G01*
X128902500Y-100580000D01*
G75*
G02*
X129050000Y-100727500I0J-147500D01*
G01*
G37*
G04 #@! TD.AperFunction*
G04 #@! TA.AperFunction,SMDPad,CuDef*
G36*
G01*
X128080000Y-100727500D02*
X128080000Y-101072500D01*
G75*
G02*
X127932500Y-101220000I-147500J0D01*
G01*
X127637500Y-101220000D01*
G75*
G02*
X127490000Y-101072500I0J147500D01*
G01*
X127490000Y-100727500D01*
G75*
G02*
X127637500Y-100580000I147500J0D01*
G01*
X127932500Y-100580000D01*
G75*
G02*
X128080000Y-100727500I0J-147500D01*
G01*
G37*
G04 #@! TD.AperFunction*
G04 #@! TA.AperFunction,SMDPad,CuDef*
G36*
G01*
X113507500Y-102180000D02*
X113852500Y-102180000D01*
G75*
G02*
X114000000Y-102327500I0J-147500D01*
G01*
X114000000Y-102622500D01*
G75*
G02*
X113852500Y-102770000I-147500J0D01*
G01*
X113507500Y-102770000D01*
G75*
G02*
X113360000Y-102622500I0J147500D01*
G01*
X113360000Y-102327500D01*
G75*
G02*
X113507500Y-102180000I147500J0D01*
G01*
G37*
G04 #@! TD.AperFunction*
G04 #@! TA.AperFunction,SMDPad,CuDef*
G36*
G01*
X113507500Y-101210000D02*
X113852500Y-101210000D01*
G75*
G02*
X114000000Y-101357500I0J-147500D01*
G01*
X114000000Y-101652500D01*
G75*
G02*
X113852500Y-101800000I-147500J0D01*
G01*
X113507500Y-101800000D01*
G75*
G02*
X113360000Y-101652500I0J147500D01*
G01*
X113360000Y-101357500D01*
G75*
G02*
X113507500Y-101210000I147500J0D01*
G01*
G37*
G04 #@! TD.AperFunction*
G04 #@! TA.AperFunction,SMDPad,CuDef*
G36*
G01*
X113160000Y-103492500D02*
X113160000Y-103147500D01*
G75*
G02*
X113307500Y-103000000I147500J0D01*
G01*
X113602500Y-103000000D01*
G75*
G02*
X113750000Y-103147500I0J-147500D01*
G01*
X113750000Y-103492500D01*
G75*
G02*
X113602500Y-103640000I-147500J0D01*
G01*
X113307500Y-103640000D01*
G75*
G02*
X113160000Y-103492500I0J147500D01*
G01*
G37*
G04 #@! TD.AperFunction*
G04 #@! TA.AperFunction,SMDPad,CuDef*
G36*
G01*
X114130000Y-103492500D02*
X114130000Y-103147500D01*
G75*
G02*
X114277500Y-103000000I147500J0D01*
G01*
X114572500Y-103000000D01*
G75*
G02*
X114720000Y-103147500I0J-147500D01*
G01*
X114720000Y-103492500D01*
G75*
G02*
X114572500Y-103640000I-147500J0D01*
G01*
X114277500Y-103640000D01*
G75*
G02*
X114130000Y-103492500I0J147500D01*
G01*
G37*
G04 #@! TD.AperFunction*
G04 #@! TA.AperFunction,SMDPad,CuDef*
G36*
G01*
X135819250Y-112490611D02*
X135991750Y-112789389D01*
G75*
G02*
X135937761Y-112990878I-127739J-73750D01*
G01*
X135682283Y-113138378D01*
G75*
G02*
X135480794Y-113084389I-73750J127739D01*
G01*
X135308294Y-112785611D01*
G75*
G02*
X135362283Y-112584122I127739J73750D01*
G01*
X135617761Y-112436622D01*
G75*
G02*
X135819250Y-112490611I73750J-127739D01*
G01*
G37*
G04 #@! TD.AperFunction*
G04 #@! TA.AperFunction,SMDPad,CuDef*
G36*
G01*
X134979206Y-112975611D02*
X135151706Y-113274389D01*
G75*
G02*
X135097717Y-113475878I-127739J-73750D01*
G01*
X134842239Y-113623378D01*
G75*
G02*
X134640750Y-113569389I-73750J127739D01*
G01*
X134468250Y-113270611D01*
G75*
G02*
X134522239Y-113069122I127739J73750D01*
G01*
X134777717Y-112921622D01*
G75*
G02*
X134979206Y-112975611I73750J-127739D01*
G01*
G37*
G04 #@! TD.AperFunction*
G04 #@! TA.AperFunction,SMDPad,CuDef*
G36*
G01*
X133292595Y-114800026D02*
X132947595Y-114800026D01*
G75*
G02*
X132800095Y-114652526I0J147500D01*
G01*
X132800095Y-114357526D01*
G75*
G02*
X132947595Y-114210026I147500J0D01*
G01*
X133292595Y-114210026D01*
G75*
G02*
X133440095Y-114357526I0J-147500D01*
G01*
X133440095Y-114652526D01*
G75*
G02*
X133292595Y-114800026I-147500J0D01*
G01*
G37*
G04 #@! TD.AperFunction*
G04 #@! TA.AperFunction,SMDPad,CuDef*
G36*
G01*
X133292595Y-115770026D02*
X132947595Y-115770026D01*
G75*
G02*
X132800095Y-115622526I0J147500D01*
G01*
X132800095Y-115327526D01*
G75*
G02*
X132947595Y-115180026I147500J0D01*
G01*
X133292595Y-115180026D01*
G75*
G02*
X133440095Y-115327526I0J-147500D01*
G01*
X133440095Y-115622526D01*
G75*
G02*
X133292595Y-115770026I-147500J0D01*
G01*
G37*
G04 #@! TD.AperFunction*
G04 #@! TA.AperFunction,SMDPad,CuDef*
G36*
G01*
X112230000Y-103722500D02*
X112230000Y-103377500D01*
G75*
G02*
X112377500Y-103230000I147500J0D01*
G01*
X112672500Y-103230000D01*
G75*
G02*
X112820000Y-103377500I0J-147500D01*
G01*
X112820000Y-103722500D01*
G75*
G02*
X112672500Y-103870000I-147500J0D01*
G01*
X112377500Y-103870000D01*
G75*
G02*
X112230000Y-103722500I0J147500D01*
G01*
G37*
G04 #@! TD.AperFunction*
G04 #@! TA.AperFunction,SMDPad,CuDef*
G36*
G01*
X111260000Y-103722500D02*
X111260000Y-103377500D01*
G75*
G02*
X111407500Y-103230000I147500J0D01*
G01*
X111702500Y-103230000D01*
G75*
G02*
X111850000Y-103377500I0J-147500D01*
G01*
X111850000Y-103722500D01*
G75*
G02*
X111702500Y-103870000I-147500J0D01*
G01*
X111407500Y-103870000D01*
G75*
G02*
X111260000Y-103722500I0J147500D01*
G01*
G37*
G04 #@! TD.AperFunction*
G04 #@! TA.AperFunction,SMDPad,CuDef*
G36*
G01*
X112820000Y-102477500D02*
X112820000Y-102822500D01*
G75*
G02*
X112672500Y-102970000I-147500J0D01*
G01*
X112377500Y-102970000D01*
G75*
G02*
X112230000Y-102822500I0J147500D01*
G01*
X112230000Y-102477500D01*
G75*
G02*
X112377500Y-102330000I147500J0D01*
G01*
X112672500Y-102330000D01*
G75*
G02*
X112820000Y-102477500I0J-147500D01*
G01*
G37*
G04 #@! TD.AperFunction*
G04 #@! TA.AperFunction,SMDPad,CuDef*
G36*
G01*
X111850000Y-102477500D02*
X111850000Y-102822500D01*
G75*
G02*
X111702500Y-102970000I-147500J0D01*
G01*
X111407500Y-102970000D01*
G75*
G02*
X111260000Y-102822500I0J147500D01*
G01*
X111260000Y-102477500D01*
G75*
G02*
X111407500Y-102330000I147500J0D01*
G01*
X111702500Y-102330000D01*
G75*
G02*
X111850000Y-102477500I0J-147500D01*
G01*
G37*
G04 #@! TD.AperFunction*
D17*
X185840000Y-101470000D03*
X176700000Y-96190000D03*
D18*
X120260000Y-101670000D03*
X135140000Y-115880000D03*
X133710000Y-104330000D03*
X114490000Y-105650000D03*
X115400000Y-102480000D03*
X114420000Y-103760000D03*
X111760000Y-103970000D03*
X182150000Y-108270000D03*
X111780000Y-105500000D03*
X110650000Y-107220000D03*
X131450000Y-109400000D03*
X107830000Y-101150000D03*
X107830000Y-102300000D03*
X107830000Y-103750000D03*
X107830000Y-105550000D03*
X109180000Y-106050000D03*
X109330000Y-101550000D03*
X109330000Y-103400000D03*
X120060000Y-103180000D03*
X125420000Y-104700000D03*
X123380000Y-101910000D03*
X154790000Y-105510000D03*
X151763895Y-110757745D03*
X132450000Y-100700000D03*
X127450000Y-100075115D03*
X100240000Y-117350000D03*
X131270000Y-100010000D03*
X163547901Y-99742099D03*
X162200000Y-100780000D03*
X160851884Y-105538903D03*
X160160000Y-106690000D03*
X110940000Y-101940000D03*
X115680000Y-107700000D03*
X115120000Y-101830000D03*
X122830000Y-107360000D03*
X124120000Y-99090000D03*
X122810000Y-101470000D03*
X164280000Y-100260000D03*
X162700000Y-104520000D03*
X158110000Y-102070000D03*
X155670000Y-102050000D03*
X153236842Y-102789173D03*
X134550047Y-109950000D03*
X179596069Y-109743240D03*
X121000000Y-102650000D03*
X188710000Y-109650000D03*
X185760000Y-107600000D03*
X150240628Y-108109372D03*
X124120000Y-102500000D03*
X119200000Y-102120000D03*
X137960000Y-113300000D03*
X179500000Y-94600000D03*
X176750000Y-92056475D03*
X158020000Y-102770000D03*
X114860000Y-108120000D03*
X113670000Y-109100000D03*
X112850000Y-109560000D03*
X133420000Y-103170000D03*
X123500000Y-107020000D03*
X126920000Y-104420000D03*
X114930000Y-99700000D03*
X112230000Y-99000000D03*
X109830000Y-104100000D03*
X128810000Y-98450000D03*
X131130000Y-98460000D03*
X185420000Y-97010000D03*
X165140000Y-96350000D03*
X164220000Y-101750000D03*
X128230000Y-97220000D03*
X130860000Y-97160000D03*
X102120000Y-116030000D03*
X104090000Y-114640000D03*
X103130000Y-115310000D03*
X101150000Y-116700000D03*
X99270000Y-118030000D03*
X98300000Y-118700000D03*
X112190000Y-101270000D03*
X111460000Y-101430000D03*
X134530000Y-108760000D03*
X136690000Y-105940000D03*
X140490000Y-112170000D03*
X141000000Y-117220000D03*
X136030000Y-117270000D03*
X154250000Y-101080000D03*
X141680000Y-109640000D03*
X146500000Y-106840000D03*
X118820000Y-105390000D03*
X126940000Y-103640000D03*
X123420000Y-105810000D03*
X133120000Y-114140000D03*
X112910000Y-101590000D03*
X135730000Y-102190000D03*
X134200000Y-99720000D03*
X189410000Y-110410000D03*
X185973334Y-106856666D03*
X155780000Y-101370000D03*
X176130000Y-95010000D03*
X158240000Y-101350000D03*
X163100000Y-103840000D03*
X179200000Y-95300000D03*
X113430000Y-101100000D03*
X137280000Y-112890000D03*
X135800000Y-109610000D03*
X138040000Y-104850000D03*
X96420391Y-121034876D03*
X101271952Y-111098048D03*
X135407584Y-97852416D03*
D19*
X120460000Y-101210000D02*
X120263701Y-101550000D01*
X120260000Y-101670000D02*
X120122436Y-102183396D01*
X114520000Y-105650000D02*
X114020000Y-105650000D01*
X114020000Y-108012500D02*
X114020000Y-107480000D01*
X114020000Y-107480000D02*
X114532890Y-107480000D01*
X114020000Y-107480000D02*
X114020000Y-107000000D01*
X114020000Y-107000000D02*
X114532500Y-107000000D01*
X114020000Y-107000000D02*
X114020000Y-106487500D01*
X114020000Y-106487500D02*
X114520000Y-106487500D01*
X114020000Y-106487500D02*
X114020000Y-105650000D01*
X115530000Y-106065000D02*
X114530000Y-106065000D01*
X114520000Y-106487500D02*
X114520000Y-105650000D01*
X111760000Y-103970000D02*
X111526321Y-103565256D01*
X114360692Y-103080000D02*
X115400000Y-103080000D01*
X115400000Y-102500000D02*
X115400000Y-103080000D01*
X114370000Y-104280000D02*
X114370000Y-103837705D01*
X111780000Y-105500000D02*
X111480000Y-105500000D01*
X111480000Y-105500000D02*
X110830001Y-106149999D01*
X110830001Y-106149999D02*
X110650000Y-106330000D01*
X110650000Y-107190000D02*
X110650000Y-106330000D01*
X101429602Y-101900000D02*
X100479602Y-100950001D01*
X107830000Y-105550000D02*
X106080000Y-105550000D01*
X106080000Y-105550000D02*
X105530000Y-105000001D01*
X105530000Y-105000001D02*
X105530000Y-103000000D01*
X105530000Y-103000000D02*
X104430000Y-101900000D01*
X104430000Y-101900000D02*
X100430000Y-101900000D01*
X114370000Y-103114737D02*
X114360692Y-103080000D01*
X114313218Y-100626782D02*
X114715928Y-100859286D01*
X114370000Y-103837705D02*
X114370000Y-103114737D01*
X133050000Y-109890000D02*
X132310000Y-109890000D01*
X132310000Y-109890000D02*
X131410000Y-109890000D01*
X136816250Y-102688005D02*
X136327771Y-103534076D01*
X134772154Y-104420000D02*
X133710000Y-104420000D01*
X136960000Y-116240000D02*
X136960000Y-115520000D01*
X136960000Y-115520000D02*
X136650000Y-115210000D01*
X136650000Y-115210000D02*
X135550000Y-115210000D01*
X135381660Y-115501574D02*
X134889648Y-115501574D01*
X135550000Y-115210000D02*
X135381660Y-115501573D01*
X134889648Y-115501574D02*
X134069511Y-115501574D01*
X134069511Y-115501574D02*
X133229402Y-115501574D01*
X134572083Y-103622276D02*
X134972813Y-104316361D01*
X135239806Y-104150000D02*
X134772154Y-104420000D01*
X136327771Y-103534076D02*
X134972813Y-104316361D01*
X120120000Y-103807500D02*
X120120000Y-103297827D01*
X120125000Y-104950000D02*
X120125000Y-105800014D01*
X93431786Y-121588345D02*
X94951793Y-120513334D01*
X94951793Y-120513334D02*
X96033333Y-120377793D01*
X93718574Y-121997922D02*
X96033333Y-120377793D01*
X92284633Y-119950041D02*
X94064205Y-118743960D01*
X94064205Y-118743960D02*
X95120755Y-118615142D01*
X92571421Y-120359617D02*
X95120755Y-118615142D01*
X96033333Y-120377793D02*
X97120000Y-120250000D01*
X97120000Y-120250000D02*
X100240000Y-118080000D01*
X100240000Y-118080000D02*
X100240000Y-117350000D01*
X100240000Y-117350000D02*
X96934215Y-117374215D01*
X95120755Y-118615142D02*
X96934215Y-117374215D01*
X133529986Y-97340742D02*
X132906876Y-98420000D01*
X132906876Y-98420000D02*
X132228867Y-98420000D01*
X132228867Y-98420000D02*
X131411886Y-99835054D01*
X133341218Y-100326506D02*
X133119807Y-100710000D01*
X133119807Y-100710000D02*
X132449925Y-100710000D01*
X132250673Y-97205000D02*
X133159999Y-97730000D01*
X131410000Y-109890000D02*
X131410000Y-109400000D01*
X163302083Y-99347724D02*
X163534439Y-99750177D01*
X163250000Y-96690000D02*
X163557902Y-97223303D01*
X162370422Y-96690000D02*
X163250000Y-96690000D01*
X159480000Y-106680000D02*
X160160073Y-106680000D01*
X154190000Y-106080000D02*
X154799405Y-105470594D01*
X155660000Y-105240000D02*
X154799405Y-105470594D01*
X125274448Y-104460000D02*
X125389948Y-104660052D01*
X123380000Y-103739282D02*
X123796106Y-104460000D01*
X123380000Y-101905313D02*
X123380000Y-103739282D01*
X123796106Y-104460000D02*
X125274448Y-104460000D01*
X113595582Y-99728261D02*
X113749065Y-100301067D01*
X113425371Y-99093024D02*
X113595582Y-99728261D01*
X113320000Y-98540000D02*
X113425371Y-99093024D01*
X112408185Y-97902711D02*
X113320000Y-98540000D01*
X114310000Y-100624923D02*
X114310000Y-103010000D01*
X113810000Y-100270000D02*
X114310000Y-100624923D01*
X120125000Y-104950000D02*
X120125000Y-103779990D01*
X127872868Y-99832570D02*
X127450691Y-100076314D01*
X127872868Y-99045750D02*
X127872868Y-99832570D01*
X127341995Y-98126250D02*
X127872868Y-99045750D01*
X135381660Y-115501573D02*
X135187196Y-115838394D01*
X151763895Y-110757745D02*
X151166061Y-109722265D01*
X154790000Y-105510000D02*
X155560000Y-105070000D01*
X154790000Y-105510000D02*
X154010000Y-105960000D01*
X160851884Y-105538903D02*
X160851884Y-104897904D01*
X160851884Y-104897904D02*
X160635257Y-104522695D01*
X161571346Y-97151346D02*
X161571346Y-97839651D01*
X161571346Y-97151346D02*
X162370421Y-96690000D01*
X161571346Y-97839651D02*
X162080000Y-98720666D01*
X162080000Y-98720666D02*
X162080000Y-99461445D01*
X162080000Y-99461445D02*
X162240000Y-99804567D01*
X162240000Y-99804567D02*
X162240000Y-100780791D01*
X131410000Y-110032500D02*
X131420000Y-109420000D01*
X131410000Y-110032500D02*
X131450000Y-109400000D01*
X120120000Y-103807500D02*
X120130000Y-103190000D01*
X181489615Y-108650000D02*
X182150000Y-108270000D01*
X116330000Y-104150000D02*
X115420075Y-104675346D01*
X125240000Y-97718750D02*
X125240000Y-98353204D01*
X110930000Y-104130000D02*
X110930000Y-101880000D01*
X112749998Y-104500000D02*
X111300000Y-104500000D01*
X111300000Y-104500000D02*
X110930000Y-104130000D01*
X113219998Y-104970000D02*
X112749998Y-104500000D01*
X113010000Y-105620000D02*
X113010000Y-104760001D01*
X115510000Y-104970000D02*
X113219998Y-104970000D01*
X113020000Y-106447500D02*
X112262500Y-106447500D01*
X113010000Y-105567501D02*
X113010000Y-104760001D01*
X112262500Y-106447500D02*
X111720000Y-106990000D01*
X113520000Y-106447500D02*
X113020000Y-106447500D01*
X115530000Y-107035000D02*
X115530000Y-107510001D01*
X115530000Y-107510001D02*
X115720002Y-107700003D01*
X116330000Y-106590000D02*
X116330000Y-104150000D01*
X115530000Y-107035000D02*
X115885000Y-107035000D01*
X115885000Y-107035000D02*
X116330000Y-106590000D01*
X116330000Y-105840000D02*
X116330000Y-104150000D01*
X113020000Y-106487500D02*
X113020000Y-105720000D01*
X115720002Y-107700003D02*
X115679998Y-107700003D01*
X122829029Y-107356379D02*
X122670000Y-106762867D01*
X122670000Y-106762867D02*
X122670000Y-103169987D01*
X125240000Y-97718750D02*
X124160000Y-98342287D01*
X124160000Y-98342287D02*
X124160000Y-99090999D01*
X122670000Y-103169987D02*
X122670000Y-101754641D01*
X122670000Y-101754641D02*
X122858731Y-101427748D01*
X127785000Y-101998384D02*
X127785000Y-100919986D01*
X127785000Y-100919986D02*
X127785000Y-100880000D01*
X127785000Y-100880000D02*
X127111547Y-100880000D01*
X127111547Y-100880000D02*
X125950805Y-98869536D01*
X126668444Y-100112523D02*
X125950805Y-98869536D01*
X112030000Y-106950000D02*
X112030000Y-108283515D01*
X90563903Y-117492585D02*
X92009456Y-116484445D01*
X92009456Y-116484445D02*
X93024575Y-116357784D01*
X93024575Y-116357784D02*
X94874189Y-115062671D01*
X90850692Y-117902161D02*
X93024575Y-116357784D01*
X94874189Y-115062671D02*
X97305856Y-113360000D01*
X97305856Y-113360000D02*
X104780029Y-113360000D01*
X104780029Y-113360000D02*
X112030000Y-108283515D01*
X116329999Y-102459998D02*
X116329999Y-104150000D01*
X115700000Y-101830000D02*
X116329999Y-102459998D01*
X115120000Y-101830000D02*
X115700000Y-101830000D01*
X115570000Y-107850000D02*
X115584907Y-107835092D01*
X115570000Y-108333900D02*
X115570000Y-107850000D01*
X115075718Y-108680000D02*
X115570000Y-108333900D01*
X114070001Y-108680000D02*
X115075718Y-108680000D01*
X113520000Y-108362457D02*
X114070001Y-108680000D01*
X113520000Y-108012500D02*
X113520000Y-108362457D01*
X125978005Y-98913750D02*
X125277194Y-97699910D01*
X162915000Y-97377276D02*
X163393039Y-98205265D01*
X163393039Y-98205265D02*
X163871910Y-99034695D01*
X163871910Y-99034695D02*
X164260000Y-99706888D01*
X164260000Y-99706888D02*
X164260000Y-100271547D01*
X153252500Y-104456202D02*
X154695898Y-103622856D01*
X154695898Y-103622856D02*
X154810000Y-103556980D01*
X159817276Y-104987628D02*
X160153585Y-105570132D01*
X159486199Y-104414185D02*
X159742618Y-103457214D01*
X159742618Y-103457214D02*
X158930162Y-102050000D01*
X155670000Y-102050000D02*
X154810000Y-102546520D01*
X154810000Y-102546520D02*
X154810000Y-103556980D01*
X158930162Y-102050000D02*
X158109601Y-102050000D01*
X159817276Y-104987628D02*
X159486199Y-104414185D01*
X162700000Y-104520000D02*
X162010000Y-104918371D01*
X162010000Y-104918371D02*
X162010000Y-105670000D01*
X162010000Y-104910000D02*
X161489496Y-104008460D01*
X161307320Y-106070000D02*
X162010000Y-105670000D01*
X160442183Y-106070000D02*
X161307320Y-106070000D01*
X159817276Y-104987628D02*
X160442183Y-106070000D01*
X180549978Y-109192500D02*
X179596069Y-109743239D01*
X150700000Y-108894308D02*
X150245262Y-108106679D01*
X133900000Y-110390000D02*
X134060000Y-110390000D01*
X134060000Y-110390000D02*
X134550047Y-110107071D01*
X134550047Y-109950000D02*
X134550047Y-110107071D01*
X124630000Y-103343782D02*
X124137050Y-102489969D01*
X121030000Y-106181724D02*
X121030000Y-102649873D01*
X120115000Y-106710000D02*
X121030000Y-106181724D01*
X185800000Y-107966957D02*
X185760000Y-107600000D01*
X188710000Y-109650000D02*
X185800000Y-107966957D01*
X119485000Y-101260000D02*
X118330000Y-101260000D01*
X118330000Y-101260000D02*
X118295958Y-101387047D01*
X119200000Y-102030000D02*
X119200000Y-102930000D01*
X119200000Y-102930000D02*
X118270702Y-103179004D01*
X137257512Y-112130000D02*
X137960000Y-112535581D01*
X136788845Y-112130000D02*
X137257512Y-112130000D01*
X135650022Y-112787500D02*
X136788845Y-112130000D01*
X137960000Y-112535581D02*
X137960000Y-113300000D01*
X137910000Y-114040000D02*
X137910000Y-113298313D01*
X158803241Y-105267820D02*
X158310000Y-104413499D01*
X158310000Y-104413499D02*
X158310000Y-103280000D01*
X158310000Y-103280000D02*
X158701032Y-103054237D01*
X158701032Y-103054237D02*
X158560022Y-102810000D01*
X158560022Y-102810000D02*
X157950717Y-102810000D01*
X179500000Y-94600000D02*
X176750000Y-92292475D01*
X176750000Y-92292475D02*
X176750000Y-92056475D01*
X134890000Y-114505000D02*
X135635000Y-114505000D01*
X136060000Y-114000000D02*
X136060000Y-114000000D01*
X136060000Y-114000000D02*
X135943382Y-114000000D01*
X136010000Y-114040000D02*
X135635000Y-114505000D01*
X114519932Y-108030000D02*
X114930000Y-108030000D01*
X114860000Y-108120000D02*
X114630000Y-107990000D01*
X114630000Y-107990000D02*
X114500000Y-107990000D01*
X113020000Y-108618453D02*
X113684591Y-109002155D01*
X113020000Y-107972500D02*
X113020000Y-108618453D01*
X112850000Y-109200526D02*
X112850000Y-109511547D01*
X112540000Y-109021548D02*
X112850000Y-109200526D01*
X112540000Y-107680000D02*
X112540000Y-109021548D01*
X113007500Y-107500000D02*
X112720000Y-107500000D01*
X112720000Y-107500000D02*
X112540000Y-107680000D01*
X123490438Y-107073153D02*
X126920000Y-105093096D01*
X126920000Y-105093096D02*
X126920000Y-104405692D01*
X133449900Y-103152737D02*
X134268704Y-102680000D01*
X134268704Y-102680000D02*
X134800000Y-102680000D01*
X134800000Y-102680000D02*
X135146770Y-103280624D01*
X115330000Y-99950000D02*
X114921497Y-99714151D01*
X114756794Y-99600000D02*
X114387436Y-99386751D01*
X112191775Y-98933793D02*
X112540900Y-99538495D01*
X111851815Y-98697289D02*
X112191775Y-98933793D01*
X109680000Y-104450000D02*
X109680000Y-104060000D01*
X128755000Y-100900000D02*
X128755000Y-101750132D01*
X128810000Y-98460000D02*
X128810000Y-99090702D01*
X131925673Y-97767917D02*
X131526099Y-98460000D01*
X131526099Y-98460000D02*
X131130000Y-98460000D01*
X128755000Y-99110000D02*
X128755000Y-100900006D01*
X185840000Y-101470000D02*
X185840000Y-97440000D01*
X185840000Y-97440000D02*
X185420000Y-97020000D01*
X165140000Y-96350000D02*
X165140000Y-98259585D01*
X165140000Y-98259585D02*
X164392884Y-98690932D01*
X164860000Y-99500000D02*
X164392884Y-98690932D01*
X164860000Y-99500000D02*
X164860000Y-100890035D01*
X164014971Y-101564971D02*
X164247320Y-101797320D01*
X164247320Y-101797320D02*
X164027063Y-101415822D01*
X162352083Y-97702276D02*
X162540000Y-98105265D01*
X162540000Y-98105265D02*
X162540000Y-99330102D01*
X164029978Y-101412500D02*
X163468505Y-100440000D01*
X163468505Y-100440000D02*
X163180800Y-100440000D01*
X163180800Y-100440000D02*
X162540001Y-99330102D01*
X127911443Y-96752500D02*
X128146713Y-97160000D01*
X126863798Y-96752500D02*
X127911443Y-96752500D01*
X132575673Y-96642083D02*
X132087091Y-96360000D01*
X132087091Y-96360000D02*
X131540000Y-96360000D01*
X131540000Y-96360000D02*
X130850000Y-96758371D01*
X130850000Y-96758371D02*
X130850000Y-97160000D01*
X91711056Y-119130888D02*
X95533117Y-116487348D01*
X102120000Y-116030000D02*
X96160000Y-116050000D01*
X96160000Y-116050000D02*
X95533117Y-116487348D01*
X91137480Y-118311737D02*
X95143617Y-115477453D01*
X104090000Y-114640000D02*
X96320000Y-114710000D01*
X96320000Y-114710000D02*
X95143617Y-115477453D01*
X91424267Y-118721313D02*
X95321058Y-116014029D01*
X103130000Y-115310000D02*
X96340000Y-115350000D01*
X96340000Y-115350000D02*
X95321058Y-116014029D01*
X91997845Y-119540465D02*
X95698854Y-117004873D01*
X101150000Y-116700000D02*
X96150000Y-116700000D01*
X96150000Y-116700000D02*
X95698854Y-117004873D01*
X99270000Y-118030000D02*
X96871400Y-118021400D01*
X92858209Y-120769193D02*
X96871400Y-118021400D01*
X93144997Y-121178768D02*
X94914188Y-119939968D01*
X94923782Y-119953782D02*
X96857975Y-119784562D01*
X96850000Y-119710000D02*
X98297513Y-118696441D01*
X112380000Y-101460000D02*
X112190000Y-101270000D01*
X112525000Y-103550000D02*
X112525000Y-102661669D01*
X112380000Y-101460000D02*
X112380000Y-102540000D01*
X112380000Y-102540000D02*
X112525000Y-102661669D01*
X111630000Y-101724448D02*
X111630000Y-102610052D01*
X111460000Y-101430000D02*
X111630000Y-101724448D01*
X134504584Y-108760000D02*
X132632679Y-108760000D01*
X132632679Y-108760000D02*
X132350000Y-108923204D01*
X132350000Y-108923204D02*
X132350000Y-109380099D01*
X135522083Y-105267724D02*
X136019917Y-106130000D01*
X136019917Y-106130000D02*
X136590000Y-106130000D01*
X136010000Y-116240000D02*
X136010000Y-117270194D01*
X154279978Y-101582500D02*
X154279978Y-101130000D01*
X141680000Y-109640000D02*
X146507452Y-106852869D01*
X140490000Y-112170000D02*
X141000000Y-112777795D01*
X141000000Y-112777795D02*
X141000000Y-117220000D01*
X119155000Y-104950000D02*
X118878493Y-105428924D01*
X118751600Y-105351600D02*
X119103878Y-105703878D01*
X119103878Y-105703878D02*
X119113877Y-105713877D01*
X119140000Y-105790000D02*
X119140000Y-106630535D01*
X126904615Y-103615383D02*
X126400001Y-104119999D01*
X124110294Y-105810000D02*
X123355165Y-105810000D01*
X126400001Y-104119999D02*
X126200000Y-104320001D01*
X126200000Y-104320001D02*
X126200000Y-104940000D01*
X126200000Y-104940000D02*
X124693114Y-105810000D01*
X124693114Y-105810000D02*
X124110294Y-105810000D01*
X133180000Y-114270899D02*
X133180000Y-114652081D01*
X133180000Y-114652081D02*
X133180000Y-114662081D01*
X133090000Y-114510000D02*
X134010000Y-114510000D01*
X134809978Y-113272500D02*
X134010000Y-113734367D01*
X134010000Y-113734367D02*
X134010000Y-114510000D01*
X113381961Y-102401960D02*
X113680000Y-102481818D01*
X113465000Y-104240000D02*
X113465000Y-103319946D01*
X112942597Y-101962597D02*
X113381961Y-102401960D01*
X112910000Y-101590000D02*
X112942597Y-101962597D01*
X113680000Y-102481818D02*
X113680000Y-102750000D01*
X113680000Y-102750000D02*
X113470000Y-103000267D01*
X113470000Y-103000267D02*
X113470000Y-103310172D01*
X135720000Y-102200000D02*
X135423327Y-102496672D01*
X135697917Y-102972276D02*
X135423327Y-102496672D01*
X133744327Y-98817917D02*
X134200000Y-99080999D01*
X134200000Y-99080999D02*
X134200000Y-99763286D01*
X133782846Y-100004130D02*
X133782846Y-100004130D01*
X133782846Y-100004130D02*
X134200000Y-99763286D01*
X133782846Y-100004130D02*
X133590000Y-99900000D01*
X189410000Y-110410000D02*
X189380000Y-109310000D01*
X189380000Y-109310000D02*
X186690000Y-107760000D01*
X186690000Y-107760000D02*
X186340000Y-107040000D01*
X185920000Y-106830000D02*
X185973334Y-106856666D01*
X186340000Y-107040000D02*
X185973334Y-106856666D01*
X155780000Y-101370000D02*
X155317002Y-101370000D01*
X155317002Y-101370000D02*
X155115915Y-101082817D01*
X179200000Y-95300000D02*
X178067833Y-94350000D01*
X178067833Y-94350000D02*
X177247320Y-94350000D01*
X177247320Y-94350000D02*
X176123486Y-94998846D01*
X161754226Y-103100000D02*
X162175691Y-103830000D01*
X162175691Y-103830000D02*
X163039000Y-103830000D01*
X158240000Y-101350000D02*
X159088453Y-101350000D01*
X160098815Y-103100000D02*
X160408675Y-103100000D01*
X160408675Y-103100000D02*
X161754226Y-103100000D01*
X159088453Y-101350000D02*
X160098815Y-103100000D01*
X111360000Y-100640000D02*
X110310000Y-101690001D01*
X110310000Y-101690001D02*
X110310000Y-102840000D01*
X110310000Y-102840000D02*
X110465322Y-103109025D01*
X107883860Y-106391753D02*
X106129982Y-106391753D01*
X106129982Y-106391753D02*
X100479982Y-106391753D01*
X113488973Y-101141026D02*
X111937974Y-100062024D01*
X111937974Y-100062024D02*
X111360000Y-100640000D01*
X113680000Y-101505000D02*
X113442027Y-101092819D01*
X137236685Y-112965022D02*
X137020000Y-113340333D01*
X137020000Y-114730000D02*
X137020000Y-113340333D01*
X137910000Y-115620000D02*
X137020000Y-114730000D01*
X137910000Y-116240000D02*
X137910000Y-115620000D01*
X135800000Y-109650523D02*
X135800000Y-110030000D01*
X135800000Y-110030000D02*
X134189193Y-110960000D01*
X134189193Y-110960000D02*
X133540000Y-110960000D01*
X137470000Y-103820333D02*
X138040000Y-104807602D01*
X133540000Y-110960000D02*
X132810000Y-110960000D01*
X132810000Y-110960000D02*
X132590000Y-110960000D01*
X132590000Y-110960000D02*
X132350000Y-110720000D01*
X132350000Y-110720000D02*
X132350000Y-110390000D01*
X131410000Y-111607500D02*
X132052500Y-111607500D01*
X132052500Y-111607500D02*
X132647579Y-111012421D01*
X136647917Y-104617724D02*
X137607906Y-104063474D01*
X108840527Y-107057288D02*
X107883862Y-106391753D01*
X94005363Y-122407498D02*
X95740025Y-121147047D01*
X95740025Y-121147047D02*
X96420391Y-121034876D01*
X94292150Y-122817072D02*
X96036512Y-121552750D01*
X96036512Y-121552750D02*
X96420391Y-121034876D01*
X132128782Y-99626506D02*
X131660000Y-100438460D01*
X131660000Y-100438460D02*
X131660000Y-101055773D01*
X131660000Y-101055773D02*
X132496673Y-101538826D01*
X132496673Y-101538826D02*
X135310000Y-99914552D01*
X135310000Y-99914552D02*
X135310000Y-97850104D01*
X134394327Y-97692083D02*
X134754449Y-97900000D01*
X134754449Y-97900000D02*
X135409475Y-97900000D01*
X108710000Y-108890000D02*
X109967456Y-107834869D01*
X105560000Y-111120000D02*
X108710000Y-108890000D01*
X101271952Y-111098048D02*
X105560000Y-111120000D01*
X111580000Y-106050000D02*
X111240000Y-106390001D01*
X109980000Y-107850000D02*
X108840527Y-107057289D01*
X112080001Y-106050000D02*
X111580000Y-106050000D01*
X111240000Y-107650001D02*
X111040001Y-107850000D01*
X111240000Y-106390001D02*
X111240000Y-107650001D01*
X112430000Y-105700000D02*
X112080001Y-106050000D01*
X111040001Y-107850000D02*
X109980000Y-107850000D01*
X112430000Y-105199999D02*
X112430000Y-105700000D01*
X112180000Y-104950000D02*
X112430000Y-105199999D01*
X111080000Y-104950000D02*
X112180000Y-104950000D01*
X110465322Y-104335322D02*
X111080000Y-104949999D01*
X110465322Y-103109025D02*
X110465322Y-104335322D01*
D20*
X174174540Y-91188607D02*
X174200386Y-91273810D01*
X174242357Y-91352333D01*
X174298841Y-91421159D01*
X174363000Y-91473813D01*
X174363000Y-96014161D01*
X174347667Y-96022357D01*
X174322513Y-96043000D01*
X173817000Y-96043000D01*
X173817000Y-91187000D01*
X174174382Y-91187000D01*
X174174540Y-91188607D01*
G04 #@! TA.AperFunction,NonConductor*
D21*
G36*
X174174540Y-91188607D02*
G01*
X174200386Y-91273810D01*
X174242357Y-91352333D01*
X174298841Y-91421159D01*
X174363000Y-91473813D01*
X174363000Y-96014161D01*
X174347667Y-96022357D01*
X174322513Y-96043000D01*
X173817000Y-96043000D01*
X173817000Y-91187000D01*
X174174382Y-91187000D01*
X174174540Y-91188607D01*
G37*
G04 #@! TD.AperFunction*
D20*
X172029718Y-98042484D02*
X171756719Y-98515334D01*
X168079574Y-96392333D01*
X168352574Y-95919483D01*
X172029718Y-98042484D01*
G04 #@! TA.AperFunction,NonConductor*
D21*
G36*
X172029718Y-98042484D02*
G01*
X171756719Y-98515334D01*
X168079574Y-96392333D01*
X168352574Y-95919483D01*
X172029718Y-98042484D01*
G37*
G04 #@! TD.AperFunction*
D20*
X173133565Y-96139449D02*
X172860566Y-96612299D01*
X169183422Y-94489299D01*
X169456421Y-94016449D01*
X173133565Y-96139449D01*
G04 #@! TA.AperFunction,NonConductor*
D21*
G36*
X173133565Y-96139449D02*
G01*
X172860566Y-96612299D01*
X169183422Y-94489299D01*
X169456421Y-94016449D01*
X173133565Y-96139449D01*
G37*
G04 #@! TD.AperFunction*
D20*
X145446537Y-111608263D02*
X145003123Y-111864268D01*
X144995062Y-111862388D01*
X144975227Y-111861739D01*
X144955587Y-111858935D01*
X144930845Y-111860286D01*
X144906073Y-111859475D01*
X144886494Y-111862707D01*
X144866684Y-111863789D01*
X144842683Y-111869940D01*
X144818226Y-111873978D01*
X144816133Y-111874766D01*
X142176532Y-110350791D01*
X142164394Y-110277273D01*
X142133031Y-110193943D01*
X142086013Y-110118333D01*
X142065751Y-110096700D01*
X142101883Y-110034118D01*
X142128185Y-110007816D01*
X142191331Y-109913312D01*
X142216703Y-109852057D01*
X142310701Y-109797787D01*
X145446537Y-111608263D01*
G04 #@! TA.AperFunction,NonConductor*
D21*
G36*
X145446537Y-111608263D02*
G01*
X145003123Y-111864268D01*
X144995062Y-111862388D01*
X144975227Y-111861739D01*
X144955587Y-111858935D01*
X144930845Y-111860286D01*
X144906073Y-111859475D01*
X144886494Y-111862707D01*
X144866684Y-111863789D01*
X144842683Y-111869940D01*
X144818226Y-111873978D01*
X144816133Y-111874766D01*
X142176532Y-110350791D01*
X142164394Y-110277273D01*
X142133031Y-110193943D01*
X142086013Y-110118333D01*
X142065751Y-110096700D01*
X142101883Y-110034118D01*
X142128185Y-110007816D01*
X142191331Y-109913312D01*
X142216703Y-109852057D01*
X142310701Y-109797787D01*
X145446537Y-111608263D01*
G37*
G04 #@! TD.AperFunction*
D19*
X109705000Y-101666898D02*
X109705000Y-103487620D01*
X109647694Y-103499019D01*
X109533952Y-103546132D01*
X109431586Y-103614531D01*
X109407298Y-103638819D01*
X109400872Y-103642254D01*
X109324737Y-103704736D01*
X109262255Y-103780871D01*
X109215826Y-103867733D01*
X109187236Y-103961983D01*
X109180000Y-104035440D01*
X109180000Y-104053939D01*
X109173097Y-104066854D01*
X109143261Y-104165211D01*
X109133186Y-104267500D01*
X109133186Y-104562500D01*
X109143261Y-104664789D01*
X109173097Y-104763146D01*
X109221549Y-104853793D01*
X109286754Y-104933246D01*
X109366207Y-104998451D01*
X109456854Y-105046903D01*
X109555211Y-105076739D01*
X109657500Y-105086814D01*
X110002500Y-105086814D01*
X110104789Y-105076739D01*
X110203146Y-105046903D01*
X110293793Y-104998451D01*
X110322369Y-104975000D01*
X110397894Y-104975000D01*
X110709075Y-105286181D01*
X110724736Y-105305264D01*
X110800871Y-105367746D01*
X110887733Y-105414175D01*
X110981983Y-105442765D01*
X111055440Y-105450000D01*
X111055460Y-105450000D01*
X111080000Y-105452417D01*
X111104540Y-105450000D01*
X111930000Y-105450000D01*
X111930001Y-105492893D01*
X111872894Y-105550000D01*
X111604549Y-105550000D01*
X111579999Y-105547582D01*
X111555449Y-105550000D01*
X111555440Y-105550000D01*
X111481983Y-105557235D01*
X111387733Y-105585825D01*
X111300871Y-105632254D01*
X111224736Y-105694736D01*
X111209079Y-105713814D01*
X110903818Y-106019077D01*
X110884736Y-106034737D01*
X110822254Y-106110872D01*
X110775825Y-106197735D01*
X110753108Y-106272623D01*
X110747235Y-106291985D01*
X110737581Y-106390001D01*
X110740000Y-106414559D01*
X110740001Y-107350000D01*
X110136814Y-107350000D01*
X109146241Y-106660878D01*
X109146229Y-106660867D01*
X108544447Y-106242218D01*
X107655000Y-105586836D01*
X107655000Y-101120579D01*
X108046609Y-100561304D01*
X109705000Y-101666898D01*
G04 #@! TA.AperFunction,Conductor*
D22*
G36*
X109705000Y-101666898D02*
G01*
X109705000Y-103487620D01*
X109647694Y-103499019D01*
X109533952Y-103546132D01*
X109431586Y-103614531D01*
X109407298Y-103638819D01*
X109400872Y-103642254D01*
X109324737Y-103704736D01*
X109262255Y-103780871D01*
X109215826Y-103867733D01*
X109187236Y-103961983D01*
X109180000Y-104035440D01*
X109180000Y-104053939D01*
X109173097Y-104066854D01*
X109143261Y-104165211D01*
X109133186Y-104267500D01*
X109133186Y-104562500D01*
X109143261Y-104664789D01*
X109173097Y-104763146D01*
X109221549Y-104853793D01*
X109286754Y-104933246D01*
X109366207Y-104998451D01*
X109456854Y-105046903D01*
X109555211Y-105076739D01*
X109657500Y-105086814D01*
X110002500Y-105086814D01*
X110104789Y-105076739D01*
X110203146Y-105046903D01*
X110293793Y-104998451D01*
X110322369Y-104975000D01*
X110397894Y-104975000D01*
X110709075Y-105286181D01*
X110724736Y-105305264D01*
X110800871Y-105367746D01*
X110887733Y-105414175D01*
X110981983Y-105442765D01*
X111055440Y-105450000D01*
X111055460Y-105450000D01*
X111080000Y-105452417D01*
X111104540Y-105450000D01*
X111930000Y-105450000D01*
X111930001Y-105492893D01*
X111872894Y-105550000D01*
X111604549Y-105550000D01*
X111579999Y-105547582D01*
X111555449Y-105550000D01*
X111555440Y-105550000D01*
X111481983Y-105557235D01*
X111387733Y-105585825D01*
X111300871Y-105632254D01*
X111224736Y-105694736D01*
X111209079Y-105713814D01*
X110903818Y-106019077D01*
X110884736Y-106034737D01*
X110822254Y-106110872D01*
X110775825Y-106197735D01*
X110753108Y-106272623D01*
X110747235Y-106291985D01*
X110737581Y-106390001D01*
X110740000Y-106414559D01*
X110740001Y-107350000D01*
X110136814Y-107350000D01*
X109146241Y-106660878D01*
X109146229Y-106660867D01*
X108544447Y-106242218D01*
X107655000Y-105586836D01*
X107655000Y-101120579D01*
X108046609Y-100561304D01*
X109705000Y-101666898D01*
G37*
G04 #@! TD.AperFunction*
D20*
X143912820Y-113241147D02*
X143911204Y-113248078D01*
X143908291Y-113337065D01*
X143922794Y-113424912D01*
X143954157Y-113508242D01*
X143981735Y-113552590D01*
X144001175Y-113583851D01*
X144062039Y-113648836D01*
X144094348Y-113671988D01*
X144234630Y-114057410D01*
X141187642Y-112298231D01*
X141067000Y-112154456D01*
X141067000Y-112113170D01*
X141048464Y-112019985D01*
X141171366Y-111807113D01*
X141201105Y-111808086D01*
X141288952Y-111793583D01*
X141346820Y-111771803D01*
X141359546Y-111767014D01*
X143912820Y-113241147D01*
G04 #@! TA.AperFunction,NonConductor*
D21*
G36*
X143912820Y-113241147D02*
G01*
X143911204Y-113248078D01*
X143908291Y-113337065D01*
X143922794Y-113424912D01*
X143954157Y-113508242D01*
X143981735Y-113552590D01*
X144001175Y-113583851D01*
X144062039Y-113648836D01*
X144094348Y-113671988D01*
X144234630Y-114057410D01*
X141187642Y-112298231D01*
X141067000Y-112154456D01*
X141067000Y-112113170D01*
X141048464Y-112019985D01*
X141171366Y-111807113D01*
X141201105Y-111808086D01*
X141288952Y-111793583D01*
X141346820Y-111771803D01*
X141359546Y-111767014D01*
X143912820Y-113241147D01*
G37*
G04 #@! TD.AperFunction*
D20*
X135003565Y-108049449D02*
X134864818Y-108289766D01*
X134803312Y-108248669D01*
X134698305Y-108205174D01*
X134586830Y-108183000D01*
X134473170Y-108183000D01*
X134361695Y-108205174D01*
X134256688Y-108248669D01*
X134256659Y-108248689D01*
X131053422Y-106399299D01*
X131275599Y-106014476D01*
X131345015Y-106003016D01*
X131414041Y-105977037D01*
X135003565Y-108049449D01*
G04 #@! TA.AperFunction,NonConductor*
D21*
G36*
X135003565Y-108049449D02*
G01*
X134864818Y-108289766D01*
X134803312Y-108248669D01*
X134698305Y-108205174D01*
X134586830Y-108183000D01*
X134473170Y-108183000D01*
X134361695Y-108205174D01*
X134256688Y-108248669D01*
X134256659Y-108248689D01*
X131053422Y-106399299D01*
X131275599Y-106014476D01*
X131345015Y-106003016D01*
X131414041Y-105977037D01*
X135003565Y-108049449D01*
G37*
G04 #@! TD.AperFunction*
D20*
X140284748Y-116863000D02*
X139738748Y-116863000D01*
X139727931Y-113066635D01*
X139771159Y-113031159D01*
X139827643Y-112962333D01*
X139869614Y-112883810D01*
X139874713Y-112867000D01*
X140273362Y-112867000D01*
X140284748Y-116863000D01*
G04 #@! TA.AperFunction,NonConductor*
D21*
G36*
X140284748Y-116863000D02*
G01*
X139738748Y-116863000D01*
X139727931Y-113066635D01*
X139771159Y-113031159D01*
X139827643Y-112962333D01*
X139869614Y-112883810D01*
X139874713Y-112867000D01*
X140273362Y-112867000D01*
X140284748Y-116863000D01*
G37*
G04 #@! TD.AperFunction*
D20*
X147135955Y-110640319D02*
X147123278Y-110646063D01*
X147109026Y-110650386D01*
X147082813Y-110664397D01*
X147076066Y-110667454D01*
X147063245Y-110674856D01*
X147030503Y-110692357D01*
X147024738Y-110697088D01*
X146650767Y-110913000D01*
X146589379Y-110913000D01*
X146596732Y-107437000D01*
X147142731Y-107437000D01*
X147135955Y-110640319D01*
G04 #@! TA.AperFunction,NonConductor*
D21*
G36*
X147135955Y-110640319D02*
G01*
X147123278Y-110646063D01*
X147109026Y-110650386D01*
X147082813Y-110664397D01*
X147076066Y-110667454D01*
X147063245Y-110674856D01*
X147030503Y-110692357D01*
X147024738Y-110697088D01*
X146650767Y-110913000D01*
X146589379Y-110913000D01*
X146596732Y-107437000D01*
X147142731Y-107437000D01*
X147135955Y-110640319D01*
G37*
G04 #@! TD.AperFunction*
D20*
X149373000Y-110953000D02*
X149236867Y-110953000D01*
X149152836Y-110832992D01*
X149144645Y-110817667D01*
X149127346Y-110796588D01*
X149124522Y-110792555D01*
X149113308Y-110779483D01*
X149088161Y-110748841D01*
X149084313Y-110745683D01*
X149081078Y-110741912D01*
X149049969Y-110717497D01*
X149019335Y-110692357D01*
X149014944Y-110690010D01*
X149011036Y-110686943D01*
X148975749Y-110669060D01*
X148940812Y-110650386D01*
X148936052Y-110648942D01*
X148931616Y-110646694D01*
X148893493Y-110636032D01*
X148855609Y-110624540D01*
X148850660Y-110624053D01*
X148845870Y-110622713D01*
X148827000Y-110621269D01*
X148827000Y-107170986D01*
X148851159Y-107151159D01*
X148907643Y-107082333D01*
X148949614Y-107003810D01*
X148975460Y-106918607D01*
X148975618Y-106917000D01*
X149373000Y-106917000D01*
X149373000Y-110953000D01*
G04 #@! TA.AperFunction,NonConductor*
D21*
G36*
X149373000Y-110953000D02*
G01*
X149236867Y-110953000D01*
X149152836Y-110832992D01*
X149144645Y-110817667D01*
X149127346Y-110796588D01*
X149124522Y-110792555D01*
X149113308Y-110779483D01*
X149088161Y-110748841D01*
X149084313Y-110745683D01*
X149081078Y-110741912D01*
X149049969Y-110717497D01*
X149019335Y-110692357D01*
X149014944Y-110690010D01*
X149011036Y-110686943D01*
X148975749Y-110669060D01*
X148940812Y-110650386D01*
X148936052Y-110648942D01*
X148931616Y-110646694D01*
X148893493Y-110636032D01*
X148855609Y-110624540D01*
X148850660Y-110624053D01*
X148845870Y-110622713D01*
X148827000Y-110621269D01*
X148827000Y-107170986D01*
X148851159Y-107151159D01*
X148907643Y-107082333D01*
X148949614Y-107003810D01*
X148975460Y-106918607D01*
X148975618Y-106917000D01*
X149373000Y-106917000D01*
X149373000Y-110953000D01*
G37*
G04 #@! TD.AperFunction*
D20*
X153037266Y-107987334D02*
X153036082Y-108023526D01*
X153040873Y-108052542D01*
X153050585Y-108111367D01*
X153081948Y-108194696D01*
X153081950Y-108194699D01*
X153081951Y-108194702D01*
X153099854Y-108223491D01*
X153128965Y-108270306D01*
X153128968Y-108270309D01*
X153128969Y-108270311D01*
X153140161Y-108282260D01*
X153164963Y-108308741D01*
X153262707Y-108577292D01*
X153188807Y-108705292D01*
X149511662Y-106582291D01*
X149685534Y-106281135D01*
X149732091Y-106282659D01*
X149819938Y-106268156D01*
X149903267Y-106236793D01*
X149952363Y-106206263D01*
X153037266Y-107987334D01*
G04 #@! TA.AperFunction,NonConductor*
D21*
G36*
X153037266Y-107987334D02*
G01*
X153036082Y-108023526D01*
X153040873Y-108052542D01*
X153050585Y-108111367D01*
X153081948Y-108194696D01*
X153081950Y-108194699D01*
X153081951Y-108194702D01*
X153099854Y-108223491D01*
X153128965Y-108270306D01*
X153128968Y-108270309D01*
X153128969Y-108270311D01*
X153140161Y-108282260D01*
X153164963Y-108308741D01*
X153262707Y-108577292D01*
X153188807Y-108705292D01*
X149511662Y-106582291D01*
X149685534Y-106281135D01*
X149732091Y-106282659D01*
X149819938Y-106268156D01*
X149903267Y-106236793D01*
X149952363Y-106206263D01*
X153037266Y-107987334D01*
G37*
G04 #@! TD.AperFunction*
D20*
X167473000Y-101113000D02*
X166927000Y-101113000D01*
X166927000Y-96455606D01*
X166981159Y-96411159D01*
X167037643Y-96342333D01*
X167079614Y-96263810D01*
X167105460Y-96178607D01*
X167110543Y-96127000D01*
X167473000Y-96127000D01*
X167473000Y-101113000D01*
G04 #@! TA.AperFunction,NonConductor*
D21*
G36*
X167473000Y-101113000D02*
G01*
X166927000Y-101113000D01*
X166927000Y-96455606D01*
X166981159Y-96411159D01*
X167037643Y-96342333D01*
X167079614Y-96263810D01*
X167105460Y-96178607D01*
X167110543Y-96127000D01*
X167473000Y-96127000D01*
X167473000Y-101113000D01*
G37*
G04 #@! TD.AperFunction*
D20*
X183332357Y-97302333D02*
X183388841Y-97371159D01*
X183457667Y-97427643D01*
X183471797Y-97435195D01*
X183458755Y-100421776D01*
X183457667Y-100422357D01*
X183388841Y-100478841D01*
X183332357Y-100547667D01*
X183290386Y-100626190D01*
X183264540Y-100711393D01*
X183255813Y-100800000D01*
X183258000Y-100822205D01*
X183258000Y-101613000D01*
X182907556Y-101613000D01*
X182926447Y-97287000D01*
X183324161Y-97287000D01*
X183332357Y-97302333D01*
G04 #@! TA.AperFunction,NonConductor*
D21*
G36*
X183332357Y-97302333D02*
G01*
X183388841Y-97371159D01*
X183457667Y-97427643D01*
X183471797Y-97435195D01*
X183458755Y-100421776D01*
X183457667Y-100422357D01*
X183388841Y-100478841D01*
X183332357Y-100547667D01*
X183290386Y-100626190D01*
X183264540Y-100711393D01*
X183255813Y-100800000D01*
X183258000Y-100822205D01*
X183258000Y-101613000D01*
X182907556Y-101613000D01*
X182926447Y-97287000D01*
X183324161Y-97287000D01*
X183332357Y-97302333D01*
G37*
G04 #@! TD.AperFunction*
D20*
X183238001Y-106367785D02*
X183235813Y-106390000D01*
X183244540Y-106478607D01*
X183270386Y-106563810D01*
X183312357Y-106642333D01*
X183368841Y-106711159D01*
X183437667Y-106767643D01*
X183516190Y-106809614D01*
X183543880Y-106818014D01*
X183534185Y-109038000D01*
X183186340Y-109038000D01*
X183178987Y-109036786D01*
X183141901Y-109038000D01*
X183127077Y-109038000D01*
X183119697Y-109038727D01*
X183089999Y-109039699D01*
X183075498Y-109043080D01*
X183060675Y-109044540D01*
X183032229Y-109053169D01*
X183003288Y-109059917D01*
X182989724Y-109066063D01*
X182988064Y-109066567D01*
X183001272Y-106041784D01*
X183200201Y-105926933D01*
X183238000Y-105926933D01*
X183238001Y-106367785D01*
G04 #@! TA.AperFunction,NonConductor*
D21*
G36*
X183238001Y-106367785D02*
G01*
X183235813Y-106390000D01*
X183244540Y-106478607D01*
X183270386Y-106563810D01*
X183312357Y-106642333D01*
X183368841Y-106711159D01*
X183437667Y-106767643D01*
X183516190Y-106809614D01*
X183543880Y-106818014D01*
X183534185Y-109038000D01*
X183186340Y-109038000D01*
X183178987Y-109036786D01*
X183141901Y-109038000D01*
X183127077Y-109038000D01*
X183119697Y-109038727D01*
X183089999Y-109039699D01*
X183075498Y-109043080D01*
X183060675Y-109044540D01*
X183032229Y-109053169D01*
X183003288Y-109059917D01*
X182989724Y-109066063D01*
X182988064Y-109066567D01*
X183001272Y-106041784D01*
X183200201Y-105926933D01*
X183238000Y-105926933D01*
X183238001Y-106367785D01*
G37*
G04 #@! TD.AperFunction*
D20*
X185521472Y-106059488D02*
X185519561Y-106497213D01*
X185462003Y-106583354D01*
X185418508Y-106688361D01*
X185396334Y-106799836D01*
X185396334Y-106913496D01*
X185418508Y-107024971D01*
X185453953Y-107110542D01*
X185392184Y-107151815D01*
X185311815Y-107232184D01*
X185248669Y-107326688D01*
X185205174Y-107431695D01*
X185183000Y-107543170D01*
X185183000Y-107656830D01*
X185205174Y-107768305D01*
X185248669Y-107873312D01*
X185311815Y-107967816D01*
X185348031Y-108004032D01*
X185351992Y-108028137D01*
X185353068Y-108038011D01*
X185355590Y-108050036D01*
X185361200Y-108084175D01*
X185364713Y-108093531D01*
X185366765Y-108103313D01*
X185380334Y-108135132D01*
X185392499Y-108167528D01*
X185397772Y-108176022D01*
X185401692Y-108185214D01*
X185421207Y-108213773D01*
X185439459Y-108243174D01*
X185446287Y-108250475D01*
X185451925Y-108258726D01*
X185476645Y-108282938D01*
X185500275Y-108308205D01*
X185508392Y-108314031D01*
X185511613Y-108317186D01*
X185508198Y-109099224D01*
X185500013Y-109094849D01*
X185487204Y-109087454D01*
X185480463Y-109084400D01*
X185454245Y-109070386D01*
X185439992Y-109066063D01*
X185426429Y-109059917D01*
X185397488Y-109053169D01*
X185369042Y-109044540D01*
X185354219Y-109043080D01*
X185339718Y-109039699D01*
X185310020Y-109038727D01*
X185302640Y-109038000D01*
X185287816Y-109038000D01*
X185250730Y-109036786D01*
X185243377Y-109038000D01*
X184962469Y-109038000D01*
X184972198Y-106810103D01*
X184973810Y-106809614D01*
X185052333Y-106767643D01*
X185121159Y-106711159D01*
X185177643Y-106642333D01*
X185219614Y-106563810D01*
X185245460Y-106478607D01*
X185254187Y-106390000D01*
X185252000Y-106367795D01*
X185252000Y-105903908D01*
X185521472Y-106059488D01*
G04 #@! TA.AperFunction,NonConductor*
D21*
G36*
X185521472Y-106059488D02*
G01*
X185519561Y-106497213D01*
X185462003Y-106583354D01*
X185418508Y-106688361D01*
X185396334Y-106799836D01*
X185396334Y-106913496D01*
X185418508Y-107024971D01*
X185453953Y-107110542D01*
X185392184Y-107151815D01*
X185311815Y-107232184D01*
X185248669Y-107326688D01*
X185205174Y-107431695D01*
X185183000Y-107543170D01*
X185183000Y-107656830D01*
X185205174Y-107768305D01*
X185248669Y-107873312D01*
X185311815Y-107967816D01*
X185348031Y-108004032D01*
X185351992Y-108028137D01*
X185353068Y-108038011D01*
X185355590Y-108050036D01*
X185361200Y-108084175D01*
X185364713Y-108093531D01*
X185366765Y-108103313D01*
X185380334Y-108135132D01*
X185392499Y-108167528D01*
X185397772Y-108176022D01*
X185401692Y-108185214D01*
X185421207Y-108213773D01*
X185439459Y-108243174D01*
X185446287Y-108250475D01*
X185451925Y-108258726D01*
X185476645Y-108282938D01*
X185500275Y-108308205D01*
X185508392Y-108314031D01*
X185511613Y-108317186D01*
X185508198Y-109099224D01*
X185500013Y-109094849D01*
X185487204Y-109087454D01*
X185480463Y-109084400D01*
X185454245Y-109070386D01*
X185439992Y-109066063D01*
X185426429Y-109059917D01*
X185397488Y-109053169D01*
X185369042Y-109044540D01*
X185354219Y-109043080D01*
X185339718Y-109039699D01*
X185310020Y-109038727D01*
X185302640Y-109038000D01*
X185287816Y-109038000D01*
X185250730Y-109036786D01*
X185243377Y-109038000D01*
X184962469Y-109038000D01*
X184972198Y-106810103D01*
X184973810Y-106809614D01*
X185052333Y-106767643D01*
X185121159Y-106711159D01*
X185177643Y-106642333D01*
X185219614Y-106563810D01*
X185245460Y-106478607D01*
X185254187Y-106390000D01*
X185252000Y-106367795D01*
X185252000Y-105903908D01*
X185521472Y-106059488D01*
G37*
G04 #@! TD.AperFunction*
D20*
X186658413Y-106718425D02*
X186678731Y-106727631D01*
X186678736Y-106727634D01*
X186739512Y-106755171D01*
X186826222Y-106775389D01*
X186915211Y-106778302D01*
X187003058Y-106763799D01*
X187025982Y-106755171D01*
X187033565Y-106752317D01*
X189549049Y-108204632D01*
X189548407Y-108224256D01*
X189549621Y-108231610D01*
X189549621Y-108835428D01*
X186999701Y-107363231D01*
X186749727Y-106849000D01*
X186734580Y-106815074D01*
X186717429Y-106790859D01*
X186701894Y-106765558D01*
X186691745Y-106754598D01*
X186683117Y-106742417D01*
X186661570Y-106722012D01*
X186657922Y-106718073D01*
X186658413Y-106718425D01*
G04 #@! TA.AperFunction,NonConductor*
D21*
G36*
X186658413Y-106718425D02*
G01*
X186678731Y-106727631D01*
X186678736Y-106727634D01*
X186739512Y-106755171D01*
X186826222Y-106775389D01*
X186915211Y-106778302D01*
X187003058Y-106763799D01*
X187025982Y-106755171D01*
X187033565Y-106752317D01*
X189549049Y-108204632D01*
X189548407Y-108224256D01*
X189549621Y-108231610D01*
X189549621Y-108835428D01*
X186999701Y-107363231D01*
X186749727Y-106849000D01*
X186734580Y-106815074D01*
X186717429Y-106790859D01*
X186701894Y-106765558D01*
X186691745Y-106754598D01*
X186683117Y-106742417D01*
X186661570Y-106722012D01*
X186657922Y-106718073D01*
X186658413Y-106718425D01*
G37*
G04 #@! TD.AperFunction*
D20*
X190907009Y-106419338D02*
X190440407Y-106688731D01*
X190433422Y-106691360D01*
X190401880Y-106710974D01*
X190389076Y-106718367D01*
X190383060Y-106722678D01*
X190362526Y-106735447D01*
X187895053Y-105310851D01*
X187883237Y-105239284D01*
X187851874Y-105155955D01*
X187804856Y-105080345D01*
X187743991Y-105015360D01*
X187689756Y-104976496D01*
X187689750Y-104976493D01*
X187671619Y-104963500D01*
X187651300Y-104954293D01*
X187339828Y-104774465D01*
X187519371Y-104463485D01*
X190907009Y-106419338D01*
G04 #@! TA.AperFunction,NonConductor*
D21*
G36*
X190907009Y-106419338D02*
G01*
X190440407Y-106688731D01*
X190433422Y-106691360D01*
X190401880Y-106710974D01*
X190389076Y-106718367D01*
X190383060Y-106722678D01*
X190362526Y-106735447D01*
X187895053Y-105310851D01*
X187883237Y-105239284D01*
X187851874Y-105155955D01*
X187804856Y-105080345D01*
X187743991Y-105015360D01*
X187689756Y-104976496D01*
X187689750Y-104976493D01*
X187671619Y-104963500D01*
X187651300Y-104954293D01*
X187339828Y-104774465D01*
X187519371Y-104463485D01*
X190907009Y-106419338D01*
G37*
G04 #@! TD.AperFunction*
D20*
X190411842Y-101562014D02*
X190418826Y-101564643D01*
X190959034Y-101876533D01*
X187836486Y-103679335D01*
X187658555Y-103371151D01*
X187995837Y-103176421D01*
X188016156Y-103167215D01*
X188034287Y-103154222D01*
X188034293Y-103154219D01*
X188088529Y-103115354D01*
X188149394Y-103050370D01*
X188196411Y-102974760D01*
X188227774Y-102891431D01*
X188240270Y-102815742D01*
X190411817Y-101561999D01*
X190411842Y-101562014D01*
G04 #@! TA.AperFunction,NonConductor*
D21*
G36*
X190411842Y-101562014D02*
G01*
X190418826Y-101564643D01*
X190959034Y-101876533D01*
X187836486Y-103679335D01*
X187658555Y-103371151D01*
X187995837Y-103176421D01*
X188016156Y-103167215D01*
X188034287Y-103154222D01*
X188034293Y-103154219D01*
X188088529Y-103115354D01*
X188149394Y-103050370D01*
X188196411Y-102974760D01*
X188227774Y-102891431D01*
X188240270Y-102815742D01*
X190411817Y-101561999D01*
X190411842Y-101562014D01*
G37*
G04 #@! TD.AperFunction*
D20*
X189528001Y-100021692D02*
X189526786Y-100029051D01*
X189528001Y-100066167D01*
X189528001Y-100080961D01*
X189528726Y-100088325D01*
X189529699Y-100118039D01*
X189533082Y-100132547D01*
X189534093Y-100142812D01*
X187394920Y-101377863D01*
X187342531Y-101358145D01*
X187254684Y-101343641D01*
X187165696Y-101346555D01*
X187165610Y-101346575D01*
X186963485Y-100996485D01*
X189528001Y-99515860D01*
X189528001Y-100021692D01*
G04 #@! TA.AperFunction,NonConductor*
D21*
G36*
X189528001Y-100021692D02*
G01*
X189526786Y-100029051D01*
X189528001Y-100066167D01*
X189528001Y-100080961D01*
X189528726Y-100088325D01*
X189529699Y-100118039D01*
X189533082Y-100132547D01*
X189534093Y-100142812D01*
X187394920Y-101377863D01*
X187342531Y-101358145D01*
X187254684Y-101343641D01*
X187165696Y-101346555D01*
X187165610Y-101346575D01*
X186963485Y-100996485D01*
X189528001Y-99515860D01*
X189528001Y-100021692D01*
G37*
G04 #@! TD.AperFunction*
D23*
X122893000Y-101600274D02*
X122868669Y-101636688D01*
X122825174Y-101741695D01*
X122803000Y-101853170D01*
X122803000Y-101966830D01*
X122825174Y-102078305D01*
X122868669Y-102183312D01*
X122893000Y-102219726D01*
X122893000Y-105574517D01*
X122865174Y-105641695D01*
X122843000Y-105753170D01*
X122843000Y-105866830D01*
X122865174Y-105978305D01*
X122893000Y-106045483D01*
X122893000Y-107453000D01*
X122626182Y-107453000D01*
X122408104Y-107327093D01*
X122402333Y-107322357D01*
X122369554Y-107304837D01*
X122356769Y-107297455D01*
X122350039Y-107294405D01*
X122347000Y-107292781D01*
X122347000Y-101317000D01*
X122893000Y-101317000D01*
X122893000Y-101600274D01*
G04 #@! TA.AperFunction,Conductor*
D22*
G36*
X122893000Y-101600274D02*
G01*
X122868669Y-101636688D01*
X122825174Y-101741695D01*
X122803000Y-101853170D01*
X122803000Y-101966830D01*
X122825174Y-102078305D01*
X122868669Y-102183312D01*
X122893000Y-102219726D01*
X122893000Y-105574517D01*
X122865174Y-105641695D01*
X122843000Y-105753170D01*
X122843000Y-105866830D01*
X122865174Y-105978305D01*
X122893000Y-106045483D01*
X122893000Y-107453000D01*
X122626182Y-107453000D01*
X122408104Y-107327093D01*
X122402333Y-107322357D01*
X122369554Y-107304837D01*
X122356769Y-107297455D01*
X122350039Y-107294405D01*
X122347000Y-107292781D01*
X122347000Y-101317000D01*
X122893000Y-101317000D01*
X122893000Y-101600274D01*
G37*
G04 #@! TD.AperFunction*
M02*
