G04 #@! TF.GenerationSoftware,KiCad,Pcbnew,(5.1.10)-1*
G04 #@! TF.CreationDate,2021-06-26T09:27:45-04:00*
G04 #@! TF.ProjectId,Main,4d61696e-2e6b-4696-9361-645f70636258,5*
G04 #@! TF.SameCoordinates,Original*
G04 #@! TF.FileFunction,OtherDrawing,Comment*
%FSLAX46Y46*%
G04 Gerber Fmt 4.6, Leading zero omitted, Abs format (unit mm)*
G04 Created by KiCad (PCBNEW (5.1.10)-1) date 2021-06-26 09:27:45*
%MOMM*%
%LPD*%
G01*
G04 APERTURE LIST*
%ADD10C,0.150000*%
G04 APERTURE END LIST*
D10*
X184800000Y-109150000D02*
X184800000Y-106300000D01*
X188900000Y-111600000D02*
X184800000Y-109150000D01*
X190000000Y-111000000D02*
X188900000Y-111600000D01*
X190000000Y-108200000D02*
X190000000Y-111000000D01*
X185800000Y-105750000D02*
X190000000Y-108200000D01*
X184800000Y-106300000D02*
X185800000Y-105750000D01*
X177350000Y-110350000D02*
X177350000Y-108350000D01*
X179500000Y-111600000D02*
X177350000Y-110350000D01*
X183650000Y-109200000D02*
X179500000Y-111600000D01*
X183650000Y-106300000D02*
X183650000Y-109200000D01*
X182250000Y-105500000D02*
X183650000Y-106300000D01*
X177350000Y-108350000D02*
X182250000Y-105500000D01*
X167050000Y-94850000D02*
X166700000Y-95000000D01*
X173600000Y-98650000D02*
X167050000Y-94850000D01*
X173600000Y-99150000D02*
X173600000Y-98650000D01*
X167050000Y-102900000D02*
X173600000Y-99150000D01*
X166700000Y-102650000D02*
X167050000Y-102900000D01*
X166700000Y-95000000D02*
X166700000Y-102650000D01*
X140450000Y-109650000D02*
X140450000Y-109100000D01*
X145050000Y-112350000D02*
X140450000Y-109650000D01*
X147450000Y-111000000D02*
X145050000Y-112350000D01*
X147450000Y-105750000D02*
X147450000Y-111000000D01*
X146900000Y-105450000D02*
X147450000Y-105750000D01*
X140450000Y-109100000D02*
X146900000Y-105450000D01*
M02*
