G04 #@! TF.GenerationSoftware,KiCad,Pcbnew,(5.1.10)-1*
G04 #@! TF.CreationDate,2021-06-26T09:27:45-04:00*
G04 #@! TF.ProjectId,Main,4d61696e-2e6b-4696-9361-645f70636258,5*
G04 #@! TF.SameCoordinates,Original*
G04 #@! TF.FileFunction,Legend,Bot*
G04 #@! TF.FilePolarity,Positive*
%FSLAX46Y46*%
G04 Gerber Fmt 4.6, Leading zero omitted, Abs format (unit mm)*
G04 Created by KiCad (PCBNEW (5.1.10)-1) date 2021-06-26 09:27:45*
%MOMM*%
%LPD*%
G01*
G04 APERTURE LIST*
%ADD10C,0.050000*%
%ADD11C,0.100000*%
%ADD12C,0.120000*%
%ADD13C,0.500000*%
%ADD14C,2.500000*%
%ADD15C,1.500000*%
G04 APERTURE END LIST*
D10*
X183720000Y-98920000D02*
G75*
G03*
X183720000Y-98920000I-2500000J0D01*
G01*
D11*
X103580476Y-106616190D02*
X103580476Y-106116190D01*
X103390000Y-106116190D01*
X103342380Y-106140000D01*
X103318571Y-106163809D01*
X103294761Y-106211428D01*
X103294761Y-106282857D01*
X103318571Y-106330476D01*
X103342380Y-106354285D01*
X103390000Y-106378095D01*
X103580476Y-106378095D01*
X103080476Y-106425714D02*
X102699523Y-106425714D01*
X102890000Y-106616190D02*
X102890000Y-106235238D01*
X103520476Y-102106190D02*
X103520476Y-101606190D01*
X103330000Y-101606190D01*
X103282380Y-101630000D01*
X103258571Y-101653809D01*
X103234761Y-101701428D01*
X103234761Y-101772857D01*
X103258571Y-101820476D01*
X103282380Y-101844285D01*
X103330000Y-101868095D01*
X103520476Y-101868095D01*
X103020476Y-101915714D02*
X102639523Y-101915714D01*
X110500000Y-97250000D02*
X108000000Y-100800000D01*
X178336666Y-109146190D02*
X178003333Y-109146190D01*
X178217619Y-109646190D01*
X188095238Y-111356190D02*
X188380952Y-111356190D01*
X188238095Y-111356190D02*
X188238095Y-110856190D01*
X188285714Y-110927619D01*
X188333333Y-110975238D01*
X188380952Y-110999047D01*
X187928571Y-110856190D02*
X187595238Y-110856190D01*
X187809523Y-111356190D01*
X187766666Y-103926190D02*
X187457142Y-103926190D01*
X187623809Y-104116666D01*
X187552380Y-104116666D01*
X187504761Y-104140476D01*
X187480952Y-104164285D01*
X187457142Y-104211904D01*
X187457142Y-104330952D01*
X187480952Y-104378571D01*
X187504761Y-104402380D01*
X187552380Y-104426190D01*
X187695238Y-104426190D01*
X187742857Y-104402380D01*
X187766666Y-104378571D01*
X189735238Y-97776190D02*
X190020952Y-97776190D01*
X189878095Y-97776190D02*
X189878095Y-97276190D01*
X189925714Y-97347619D01*
X189973333Y-97395238D01*
X190020952Y-97419047D01*
X189497142Y-97776190D02*
X189401904Y-97776190D01*
X189354285Y-97752380D01*
X189330476Y-97728571D01*
X189282857Y-97657142D01*
X189259047Y-97561904D01*
X189259047Y-97371428D01*
X189282857Y-97323809D01*
X189306666Y-97300000D01*
X189354285Y-97276190D01*
X189449523Y-97276190D01*
X189497142Y-97300000D01*
X189520952Y-97323809D01*
X189544761Y-97371428D01*
X189544761Y-97490476D01*
X189520952Y-97538095D01*
X189497142Y-97561904D01*
X189449523Y-97585714D01*
X189354285Y-97585714D01*
X189306666Y-97561904D01*
X189282857Y-97538095D01*
X189259047Y-97490476D01*
X182627142Y-96306190D02*
X182912857Y-96306190D01*
X182770000Y-96306190D02*
X182770000Y-95806190D01*
X182817619Y-95877619D01*
X182865238Y-95925238D01*
X182912857Y-95949047D01*
X181070238Y-93901190D02*
X181355952Y-93901190D01*
X181213095Y-93901190D02*
X181213095Y-93401190D01*
X181260714Y-93472619D01*
X181308333Y-93520238D01*
X181355952Y-93544047D01*
X180903571Y-93401190D02*
X180594047Y-93401190D01*
X180760714Y-93591666D01*
X180689285Y-93591666D01*
X180641666Y-93615476D01*
X180617857Y-93639285D01*
X180594047Y-93686904D01*
X180594047Y-93805952D01*
X180617857Y-93853571D01*
X180641666Y-93877380D01*
X180689285Y-93901190D01*
X180832142Y-93901190D01*
X180879761Y-93877380D01*
X180903571Y-93853571D01*
X173130952Y-95626190D02*
X173369047Y-95626190D01*
X173392857Y-95864285D01*
X173369047Y-95840476D01*
X173321428Y-95816666D01*
X173202380Y-95816666D01*
X173154761Y-95840476D01*
X173130952Y-95864285D01*
X173107142Y-95911904D01*
X173107142Y-96030952D01*
X173130952Y-96078571D01*
X173154761Y-96102380D01*
X173202380Y-96126190D01*
X173321428Y-96126190D01*
X173369047Y-96102380D01*
X173392857Y-96078571D01*
X167705238Y-96596190D02*
X167990952Y-96596190D01*
X167848095Y-96596190D02*
X167848095Y-96096190D01*
X167895714Y-96167619D01*
X167943333Y-96215238D01*
X167990952Y-96239047D01*
X167252857Y-96096190D02*
X167490952Y-96096190D01*
X167514761Y-96334285D01*
X167490952Y-96310476D01*
X167443333Y-96286666D01*
X167324285Y-96286666D01*
X167276666Y-96310476D01*
X167252857Y-96334285D01*
X167229047Y-96381904D01*
X167229047Y-96500952D01*
X167252857Y-96548571D01*
X167276666Y-96572380D01*
X167324285Y-96596190D01*
X167443333Y-96596190D01*
X167490952Y-96572380D01*
X167514761Y-96548571D01*
X163995238Y-100876190D02*
X164280952Y-100876190D01*
X164138095Y-100876190D02*
X164138095Y-100376190D01*
X164185714Y-100447619D01*
X164233333Y-100495238D01*
X164280952Y-100519047D01*
X163804761Y-100423809D02*
X163780952Y-100400000D01*
X163733333Y-100376190D01*
X163614285Y-100376190D01*
X163566666Y-100400000D01*
X163542857Y-100423809D01*
X163519047Y-100471428D01*
X163519047Y-100519047D01*
X163542857Y-100590476D01*
X163828571Y-100876190D01*
X163519047Y-100876190D01*
X159225238Y-101756190D02*
X159510952Y-101756190D01*
X159368095Y-101756190D02*
X159368095Y-101256190D01*
X159415714Y-101327619D01*
X159463333Y-101375238D01*
X159510952Y-101399047D01*
X158915714Y-101256190D02*
X158868095Y-101256190D01*
X158820476Y-101280000D01*
X158796666Y-101303809D01*
X158772857Y-101351428D01*
X158749047Y-101446666D01*
X158749047Y-101565714D01*
X158772857Y-101660952D01*
X158796666Y-101708571D01*
X158820476Y-101732380D01*
X158868095Y-101756190D01*
X158915714Y-101756190D01*
X158963333Y-101732380D01*
X158987142Y-101708571D01*
X159010952Y-101660952D01*
X159034761Y-101565714D01*
X159034761Y-101446666D01*
X159010952Y-101351428D01*
X158987142Y-101303809D01*
X158963333Y-101280000D01*
X158915714Y-101256190D01*
X155097619Y-101540476D02*
X155145238Y-101516666D01*
X155169047Y-101492857D01*
X155192857Y-101445238D01*
X155192857Y-101421428D01*
X155169047Y-101373809D01*
X155145238Y-101350000D01*
X155097619Y-101326190D01*
X155002380Y-101326190D01*
X154954761Y-101350000D01*
X154930952Y-101373809D01*
X154907142Y-101421428D01*
X154907142Y-101445238D01*
X154930952Y-101492857D01*
X154954761Y-101516666D01*
X155002380Y-101540476D01*
X155097619Y-101540476D01*
X155145238Y-101564285D01*
X155169047Y-101588095D01*
X155192857Y-101635714D01*
X155192857Y-101730952D01*
X155169047Y-101778571D01*
X155145238Y-101802380D01*
X155097619Y-101826190D01*
X155002380Y-101826190D01*
X154954761Y-101802380D01*
X154930952Y-101778571D01*
X154907142Y-101730952D01*
X154907142Y-101635714D01*
X154930952Y-101588095D01*
X154954761Y-101564285D01*
X155002380Y-101540476D01*
X149705238Y-107026190D02*
X149990952Y-107026190D01*
X149848095Y-107026190D02*
X149848095Y-106526190D01*
X149895714Y-106597619D01*
X149943333Y-106645238D01*
X149990952Y-106669047D01*
X149276666Y-106526190D02*
X149371904Y-106526190D01*
X149419523Y-106550000D01*
X149443333Y-106573809D01*
X149490952Y-106645238D01*
X149514761Y-106740476D01*
X149514761Y-106930952D01*
X149490952Y-106978571D01*
X149467142Y-107002380D01*
X149419523Y-107026190D01*
X149324285Y-107026190D01*
X149276666Y-107002380D01*
X149252857Y-106978571D01*
X149229047Y-106930952D01*
X149229047Y-106811904D01*
X149252857Y-106764285D01*
X149276666Y-106740476D01*
X149324285Y-106716666D01*
X149419523Y-106716666D01*
X149467142Y-106740476D01*
X149490952Y-106764285D01*
X149514761Y-106811904D01*
X142233809Y-108846190D02*
X142329047Y-108846190D01*
X142376666Y-108870000D01*
X142400476Y-108893809D01*
X142448095Y-108965238D01*
X142471904Y-109060476D01*
X142471904Y-109250952D01*
X142448095Y-109298571D01*
X142424285Y-109322380D01*
X142376666Y-109346190D01*
X142281428Y-109346190D01*
X142233809Y-109322380D01*
X142210000Y-109298571D01*
X142186190Y-109250952D01*
X142186190Y-109131904D01*
X142210000Y-109084285D01*
X142233809Y-109060476D01*
X142281428Y-109036666D01*
X142376666Y-109036666D01*
X142424285Y-109060476D01*
X142448095Y-109084285D01*
X142471904Y-109131904D01*
X141971904Y-109298571D02*
X141948095Y-109322380D01*
X141971904Y-109346190D01*
X141995714Y-109322380D01*
X141971904Y-109298571D01*
X141971904Y-109346190D01*
X144739285Y-115226190D02*
X144644047Y-115226190D01*
X144596428Y-115202380D01*
X144572619Y-115178571D01*
X144525000Y-115107142D01*
X144501190Y-115011904D01*
X144501190Y-114821428D01*
X144525000Y-114773809D01*
X144548809Y-114750000D01*
X144596428Y-114726190D01*
X144691666Y-114726190D01*
X144739285Y-114750000D01*
X144763095Y-114773809D01*
X144786904Y-114821428D01*
X144786904Y-114940476D01*
X144763095Y-114988095D01*
X144739285Y-115011904D01*
X144691666Y-115035714D01*
X144596428Y-115035714D01*
X144548809Y-115011904D01*
X144525000Y-114988095D01*
X144501190Y-114940476D01*
X144286904Y-115178571D02*
X144263095Y-115202380D01*
X144286904Y-115226190D01*
X144310714Y-115202380D01*
X144286904Y-115178571D01*
X144286904Y-115226190D01*
X133095238Y-115276190D02*
X133380952Y-115276190D01*
X133238095Y-115276190D02*
X133238095Y-114776190D01*
X133285714Y-114847619D01*
X133333333Y-114895238D01*
X133380952Y-114919047D01*
X132619047Y-115276190D02*
X132904761Y-115276190D01*
X132761904Y-115276190D02*
X132761904Y-114776190D01*
X132809523Y-114847619D01*
X132857142Y-114895238D01*
X132904761Y-114919047D01*
X130854761Y-107042857D02*
X130854761Y-107376190D01*
X130973809Y-106852380D02*
X131092857Y-107209523D01*
X130783333Y-107209523D01*
X137445238Y-106576190D02*
X137730952Y-106576190D01*
X137588095Y-106576190D02*
X137588095Y-106076190D01*
X137635714Y-106147619D01*
X137683333Y-106195238D01*
X137730952Y-106219047D01*
X137016666Y-106242857D02*
X137016666Y-106576190D01*
X137135714Y-106052380D02*
X137254761Y-106409523D01*
X136945238Y-106409523D01*
X133033009Y-96414589D02*
X133024294Y-96382065D01*
X132994960Y-96337635D01*
X132891861Y-96278112D01*
X132838717Y-96274922D01*
X132806193Y-96283637D01*
X132761764Y-96312971D01*
X132737954Y-96354210D01*
X132722860Y-96427974D01*
X132827438Y-96818267D01*
X132559383Y-96663505D01*
X132541327Y-96075731D02*
X132500088Y-96051921D01*
X132446944Y-96048731D01*
X132414420Y-96057446D01*
X132369990Y-96086781D01*
X132301752Y-96157355D01*
X132242228Y-96260453D01*
X132215229Y-96354836D01*
X132212039Y-96407980D01*
X132220754Y-96440505D01*
X132250088Y-96484934D01*
X132291327Y-96508743D01*
X132344471Y-96511933D01*
X132376996Y-96503218D01*
X132421425Y-96473884D01*
X132489664Y-96403310D01*
X132549188Y-96300212D01*
X132576187Y-96205828D01*
X132579377Y-96152684D01*
X132570662Y-96120160D01*
X132541327Y-96075731D01*
X128182857Y-96413809D02*
X128159047Y-96390000D01*
X128111428Y-96366190D01*
X127992380Y-96366190D01*
X127944761Y-96390000D01*
X127920952Y-96413809D01*
X127897142Y-96461428D01*
X127897142Y-96509047D01*
X127920952Y-96580476D01*
X128206666Y-96866190D01*
X127897142Y-96866190D01*
X126573809Y-104470238D02*
X126573809Y-104755952D01*
X126573809Y-104613095D02*
X127073809Y-104613095D01*
X127002380Y-104660714D01*
X126954761Y-104708333D01*
X126930952Y-104755952D01*
X126859523Y-104184523D02*
X126883333Y-104232142D01*
X126907142Y-104255952D01*
X126954761Y-104279761D01*
X126978571Y-104279761D01*
X127026190Y-104255952D01*
X127050000Y-104232142D01*
X127073809Y-104184523D01*
X127073809Y-104089285D01*
X127050000Y-104041666D01*
X127026190Y-104017857D01*
X126978571Y-103994047D01*
X126954761Y-103994047D01*
X126907142Y-104017857D01*
X126883333Y-104041666D01*
X126859523Y-104089285D01*
X126859523Y-104184523D01*
X126835714Y-104232142D01*
X126811904Y-104255952D01*
X126764285Y-104279761D01*
X126669047Y-104279761D01*
X126621428Y-104255952D01*
X126597619Y-104232142D01*
X126573809Y-104184523D01*
X126573809Y-104089285D01*
X126597619Y-104041666D01*
X126621428Y-104017857D01*
X126669047Y-103994047D01*
X126764285Y-103994047D01*
X126811904Y-104017857D01*
X126835714Y-104041666D01*
X126859523Y-104089285D01*
X111248533Y-98418438D02*
X109871950Y-100384403D01*
X109937890Y-97500716D02*
X108561307Y-99466681D01*
X179535673Y-108565673D02*
X181354327Y-107515673D01*
X180585673Y-110384327D02*
X179535673Y-108565673D01*
X182404327Y-109334327D02*
X180585673Y-110384327D01*
X181354327Y-107515673D02*
X182404327Y-109334327D01*
X181156122Y-107225962D02*
G75*
G03*
X181156122Y-107225962I-200000J0D01*
G01*
X181306603Y-109333013D02*
X181133397Y-109433013D01*
X181170000Y-109296410D02*
X181270000Y-109469615D01*
X187904327Y-110394327D02*
X186085673Y-109344327D01*
X188954327Y-108575673D02*
X187904327Y-110394327D01*
X187135673Y-107525673D02*
X188954327Y-108575673D01*
X186085673Y-109344327D02*
X187135673Y-107525673D01*
X186233878Y-109834038D02*
G75*
G03*
X186233878Y-109834038I-200000J0D01*
G01*
X187683397Y-108476987D02*
X187856603Y-108576987D01*
X187720000Y-108613590D02*
X187820000Y-108440385D01*
X191340000Y-105200000D02*
X189240000Y-105200000D01*
X191340000Y-103100000D02*
X191340000Y-105200000D01*
X189240000Y-103100000D02*
X191340000Y-103100000D01*
X189240000Y-105200000D02*
X189240000Y-103100000D01*
X189640000Y-105650000D02*
G75*
G03*
X189640000Y-105650000I-200000J0D01*
G01*
X190190000Y-103650000D02*
X190390000Y-103650000D01*
X190290000Y-103750000D02*
X190290000Y-103550000D01*
X188694327Y-98525673D02*
X187644327Y-100344327D01*
X186875673Y-97475673D02*
X188694327Y-98525673D01*
X185825673Y-99294327D02*
X186875673Y-97475673D01*
X187644327Y-100344327D02*
X185825673Y-99294327D01*
X188334038Y-100396122D02*
G75*
G03*
X188334038Y-100396122I-200000J0D01*
G01*
X186776987Y-98746603D02*
X186876987Y-98573397D01*
X186913590Y-98710000D02*
X186740385Y-98610000D01*
X183054327Y-98785673D02*
X182004327Y-100604327D01*
X181235673Y-97735673D02*
X183054327Y-98785673D01*
X180185673Y-99554327D02*
X181235673Y-97735673D01*
X182004327Y-100604327D02*
X180185673Y-99554327D01*
X182694038Y-100656122D02*
G75*
G03*
X182694038Y-100656122I-200000J0D01*
G01*
X181136987Y-99006603D02*
X181236987Y-98833397D01*
X181273590Y-98970000D02*
X181100385Y-98870000D01*
X179624327Y-93285673D02*
X178574327Y-95104327D01*
X177805673Y-92235673D02*
X179624327Y-93285673D01*
X176755673Y-94054327D02*
X177805673Y-92235673D01*
X178574327Y-95104327D02*
X176755673Y-94054327D01*
X179264038Y-95156122D02*
G75*
G03*
X179264038Y-95156122I-200000J0D01*
G01*
X177706987Y-93506603D02*
X177806987Y-93333397D01*
X177843590Y-93470000D02*
X177670385Y-93370000D01*
X172524327Y-92235673D02*
X173574327Y-94054327D01*
X170705673Y-93285673D02*
X172524327Y-92235673D01*
X171755673Y-95104327D02*
X170705673Y-93285673D01*
X173574327Y-94054327D02*
X171755673Y-95104327D01*
X174064038Y-93656122D02*
G75*
G03*
X174064038Y-93656122I-200000J0D01*
G01*
X171756987Y-94006603D02*
X171656987Y-93833397D01*
X171793590Y-93870000D02*
X171620385Y-93970000D01*
X169504327Y-97475673D02*
X170554327Y-99294327D01*
X167685673Y-98525673D02*
X169504327Y-97475673D01*
X168735673Y-100344327D02*
X167685673Y-98525673D01*
X170554327Y-99294327D02*
X168735673Y-100344327D01*
X171044038Y-98896122D02*
G75*
G03*
X171044038Y-98896122I-200000J0D01*
G01*
X168736987Y-99246603D02*
X168636987Y-99073397D01*
X168773590Y-99110000D02*
X168600385Y-99210000D01*
X163244327Y-97115673D02*
X164294327Y-98934327D01*
X161425673Y-98165673D02*
X163244327Y-97115673D01*
X162475673Y-99984327D02*
X161425673Y-98165673D01*
X164294327Y-98934327D02*
X162475673Y-99984327D01*
X164784038Y-98536122D02*
G75*
G03*
X164784038Y-98536122I-200000J0D01*
G01*
X162476987Y-98886603D02*
X162376987Y-98713397D01*
X162513590Y-98750000D02*
X162340385Y-98850000D01*
X160434327Y-102715673D02*
X161484327Y-104534327D01*
X158615673Y-103765673D02*
X160434327Y-102715673D01*
X159665673Y-105584327D02*
X158615673Y-103765673D01*
X161484327Y-104534327D02*
X159665673Y-105584327D01*
X161974038Y-104136122D02*
G75*
G03*
X161974038Y-104136122I-200000J0D01*
G01*
X159666987Y-104486603D02*
X159566987Y-104313397D01*
X159703590Y-104350000D02*
X159530385Y-104450000D01*
X154384327Y-102715673D02*
X155434327Y-104534327D01*
X152565673Y-103765673D02*
X154384327Y-102715673D01*
X153615673Y-105584327D02*
X152565673Y-103765673D01*
X155434327Y-104534327D02*
X153615673Y-105584327D01*
X155924038Y-104136122D02*
G75*
G03*
X155924038Y-104136122I-200000J0D01*
G01*
X153616987Y-104486603D02*
X153516987Y-104313397D01*
X153653590Y-104350000D02*
X153480385Y-104450000D01*
X151364327Y-107955673D02*
X152414327Y-109774327D01*
X149545673Y-109005673D02*
X151364327Y-107955673D01*
X150595673Y-110824327D02*
X149545673Y-109005673D01*
X152414327Y-109774327D02*
X150595673Y-110824327D01*
X152904038Y-109376122D02*
G75*
G03*
X152904038Y-109376122I-200000J0D01*
G01*
X150596987Y-109726603D02*
X150496987Y-109553397D01*
X150633590Y-109590000D02*
X150460385Y-109690000D01*
X145304327Y-107945673D02*
X146354327Y-109764327D01*
X143485673Y-108995673D02*
X145304327Y-107945673D01*
X144535673Y-110814327D02*
X143485673Y-108995673D01*
X146354327Y-109764327D02*
X144535673Y-110814327D01*
X146844038Y-109366122D02*
G75*
G03*
X146844038Y-109366122I-200000J0D01*
G01*
X144536987Y-109716603D02*
X144436987Y-109543397D01*
X144573590Y-109580000D02*
X144400385Y-109680000D01*
X142284327Y-113185673D02*
X143334327Y-115004327D01*
X140465673Y-114235673D02*
X142284327Y-113185673D01*
X141515673Y-116054327D02*
X140465673Y-114235673D01*
X143334327Y-115004327D02*
X141515673Y-116054327D01*
X143824038Y-114606122D02*
G75*
G03*
X143824038Y-114606122I-200000J0D01*
G01*
X141516987Y-114956603D02*
X141416987Y-114783397D01*
X141553590Y-114820000D02*
X141380385Y-114920000D01*
X137294327Y-114245673D02*
X136244327Y-116064327D01*
X135475673Y-113195673D02*
X137294327Y-114245673D01*
X134425673Y-115014327D02*
X135475673Y-113195673D01*
X136244327Y-116064327D02*
X134425673Y-115014327D01*
X136934038Y-116116122D02*
G75*
G03*
X136934038Y-116116122I-200000J0D01*
G01*
X135376987Y-114466603D02*
X135476987Y-114293397D01*
X135513590Y-114430000D02*
X135340385Y-114330000D01*
X133880000Y-110440000D02*
X131780000Y-110440000D01*
X133880000Y-108340000D02*
X133880000Y-110440000D01*
X131780000Y-108340000D02*
X133880000Y-108340000D01*
X131780000Y-110440000D02*
X131780000Y-108340000D01*
X132180000Y-110890000D02*
G75*
G03*
X132180000Y-110890000I-200000J0D01*
G01*
X132730000Y-108890000D02*
X132930000Y-108890000D01*
X132830000Y-108990000D02*
X132830000Y-108790000D01*
X136900000Y-105200000D02*
X134800000Y-105200000D01*
X136900000Y-103100000D02*
X136900000Y-105200000D01*
X134800000Y-103100000D02*
X136900000Y-103100000D01*
X134800000Y-105200000D02*
X134800000Y-103100000D01*
X135200000Y-105650000D02*
G75*
G03*
X135200000Y-105650000I-200000J0D01*
G01*
X135750000Y-103650000D02*
X135950000Y-103650000D01*
X135850000Y-103750000D02*
X135850000Y-103550000D01*
X134276827Y-98467805D02*
X133226827Y-100286459D01*
X132458173Y-97417805D02*
X134276827Y-98467805D01*
X131408173Y-99236459D02*
X132458173Y-97417805D01*
X133226827Y-100286459D02*
X131408173Y-99236459D01*
X133916538Y-100338254D02*
G75*
G03*
X133916538Y-100338254I-200000J0D01*
G01*
X132359487Y-98688735D02*
X132459487Y-98515529D01*
X132496090Y-98652132D02*
X132322885Y-98552132D01*
X127144327Y-97445673D02*
X128194327Y-99264327D01*
X125325673Y-98495673D02*
X127144327Y-97445673D01*
X126375673Y-100314327D02*
X125325673Y-98495673D01*
X128194327Y-99264327D02*
X126375673Y-100314327D01*
X128684038Y-98866122D02*
G75*
G03*
X128684038Y-98866122I-200000J0D01*
G01*
X126376987Y-99216603D02*
X126276987Y-99043397D01*
X126413590Y-99080000D02*
X126240385Y-99180000D01*
X124855000Y-103100000D02*
X124855000Y-105200000D01*
X122755000Y-103100000D02*
X124855000Y-103100000D01*
X122755000Y-105200000D02*
X122755000Y-103100000D01*
X124855000Y-105200000D02*
X122755000Y-105200000D01*
X125505000Y-105000000D02*
G75*
G03*
X125505000Y-105000000I-200000J0D01*
G01*
X123305000Y-104250000D02*
X123305000Y-104050000D01*
X123405000Y-104150000D02*
X123205000Y-104150000D01*
D12*
X119099190Y-102851693D02*
X119251693Y-102699190D01*
X119608307Y-103360810D02*
X119760810Y-103208307D01*
D11*
X179435001Y-99093968D02*
G75*
G03*
X179435001Y-99093968I-50001J0D01*
G01*
D12*
X110935000Y-102200000D02*
X110460000Y-102200000D01*
X110460000Y-102200000D02*
X110460000Y-102675000D01*
X115205000Y-107420000D02*
X115680000Y-107420000D01*
X115680000Y-107420000D02*
X115680000Y-106945000D01*
X110935000Y-107420000D02*
X110460000Y-107420000D01*
X110460000Y-107420000D02*
X110460000Y-106945000D01*
X115205000Y-102200000D02*
X115680000Y-102200000D01*
D11*
X111892688Y-98475077D02*
X111756123Y-98670113D01*
X112037023Y-98518009D02*
X111531851Y-98367746D01*
X111845831Y-98791060D01*
X111535695Y-98777363D02*
X111440099Y-98913888D01*
X111613669Y-99122621D02*
X111750235Y-98927585D01*
X111340659Y-98640797D01*
X111204093Y-98835833D01*
X111340538Y-99512694D02*
X111504417Y-99278650D01*
X111422477Y-99395672D02*
X111012901Y-99108884D01*
X111098725Y-99110846D01*
X111165046Y-99099152D01*
X111211862Y-99073802D01*
X136377657Y-109051124D02*
X136583853Y-108932077D01*
X136333853Y-108499064D01*
X136102367Y-108907641D02*
X135958029Y-108990975D01*
X136027122Y-109253505D02*
X136233319Y-109134458D01*
X135983319Y-108701445D01*
X135777122Y-108820493D01*
X135841546Y-109360648D02*
X135591546Y-108927635D01*
X135488447Y-108987159D01*
X135438493Y-109043493D01*
X135421063Y-109108542D01*
X135424253Y-109161686D01*
X135451253Y-109256069D01*
X135486967Y-109317928D01*
X135555206Y-109388502D01*
X135599635Y-109417837D01*
X135664684Y-109435267D01*
X135738447Y-109420172D01*
X135841546Y-109360648D01*
X135202962Y-109206970D02*
X135170438Y-109198255D01*
X135117294Y-109201445D01*
X135014195Y-109260969D01*
X134984861Y-109305398D01*
X134976146Y-109337922D01*
X134979336Y-109391066D01*
X135003145Y-109432306D01*
X135059479Y-109482260D01*
X135449772Y-109586839D01*
X135181717Y-109741600D01*
X187705525Y-95680857D02*
X188055204Y-96075195D01*
X187538858Y-95969532D01*
X187769490Y-96570066D02*
X187888537Y-96363870D01*
X187455525Y-96113870D01*
X187459340Y-96583451D02*
X187376007Y-96727789D01*
X187567109Y-96920600D02*
X187686156Y-96714404D01*
X187253144Y-96464404D01*
X187134096Y-96670600D01*
X187459966Y-97106177D02*
X187026953Y-96856177D01*
X186967429Y-96959276D01*
X186952335Y-97033039D01*
X186969764Y-97098088D01*
X186999099Y-97142517D01*
X187069673Y-97210756D01*
X187131532Y-97246470D01*
X187225915Y-97273470D01*
X187279059Y-97276660D01*
X187344108Y-97259230D01*
X187400442Y-97209276D01*
X187459966Y-97106177D01*
X103999047Y-102076190D02*
X103999047Y-101576190D01*
X103808571Y-101576190D01*
X103760952Y-101600000D01*
X103737142Y-101623809D01*
X103713333Y-101671428D01*
X103713333Y-101742857D01*
X103737142Y-101790476D01*
X103760952Y-101814285D01*
X103808571Y-101838095D01*
X103999047Y-101838095D01*
X103284761Y-101742857D02*
X103284761Y-102076190D01*
X103403809Y-101552380D02*
X103522857Y-101909523D01*
X103213333Y-101909523D01*
X104049047Y-106576190D02*
X104049047Y-106076190D01*
X103858571Y-106076190D01*
X103810952Y-106100000D01*
X103787142Y-106123809D01*
X103763333Y-106171428D01*
X103763333Y-106242857D01*
X103787142Y-106290476D01*
X103810952Y-106314285D01*
X103858571Y-106338095D01*
X104049047Y-106338095D01*
X103596666Y-106076190D02*
X103287142Y-106076190D01*
X103453809Y-106266666D01*
X103382380Y-106266666D01*
X103334761Y-106290476D01*
X103310952Y-106314285D01*
X103287142Y-106361904D01*
X103287142Y-106480952D01*
X103310952Y-106528571D01*
X103334761Y-106552380D01*
X103382380Y-106576190D01*
X103525238Y-106576190D01*
X103572857Y-106552380D01*
X103596666Y-106528571D01*
X179370633Y-110632197D02*
X179803646Y-110382197D01*
X179744122Y-110279099D01*
X179687788Y-110229144D01*
X179622739Y-110211715D01*
X179569595Y-110214905D01*
X179475212Y-110241904D01*
X179413353Y-110277618D01*
X179342779Y-110345857D01*
X179313445Y-110390286D01*
X179296015Y-110455335D01*
X179311109Y-110529099D01*
X179370633Y-110632197D01*
X179524311Y-109993613D02*
X179533026Y-109961089D01*
X179529836Y-109907945D01*
X179470313Y-109804847D01*
X179425883Y-109775512D01*
X179393359Y-109766797D01*
X179340215Y-109769987D01*
X179298976Y-109793797D01*
X179249021Y-109850131D01*
X179144443Y-110240423D01*
X178989681Y-109972368D01*
X178751586Y-109559975D02*
X178894443Y-109807411D01*
X178823014Y-109683693D02*
X179256027Y-109433693D01*
X179217977Y-109510646D01*
X179200548Y-109575695D01*
X179203738Y-109628839D01*
X189776509Y-109503993D02*
X189343496Y-109253993D01*
X189283972Y-109357091D01*
X189268877Y-109430855D01*
X189286307Y-109495903D01*
X189315642Y-109540333D01*
X189386216Y-109608571D01*
X189448075Y-109644286D01*
X189542458Y-109671285D01*
X189595602Y-109674475D01*
X189660651Y-109657045D01*
X189716985Y-109607091D01*
X189776509Y-109503993D01*
X189146640Y-109690195D02*
X189114116Y-109698910D01*
X189069686Y-109728245D01*
X189010163Y-109831343D01*
X189006973Y-109884487D01*
X189015688Y-109917011D01*
X189045022Y-109961441D01*
X189086261Y-109985250D01*
X189160025Y-110000345D01*
X189550318Y-109895766D01*
X189395556Y-110163821D01*
X188807782Y-110181877D02*
X188783972Y-110223116D01*
X188780782Y-110276260D01*
X188789497Y-110308785D01*
X188818832Y-110353214D01*
X188889406Y-110421453D01*
X188992504Y-110480976D01*
X189086887Y-110507976D01*
X189140031Y-110511166D01*
X189172556Y-110502451D01*
X189216985Y-110473116D01*
X189240794Y-110431877D01*
X189243984Y-110378733D01*
X189235269Y-110346208D01*
X189205935Y-110301779D01*
X189135361Y-110233541D01*
X189032263Y-110174017D01*
X188937879Y-110147017D01*
X188884735Y-110143828D01*
X188852211Y-110152542D01*
X188807782Y-110181877D01*
X192063809Y-104707142D02*
X192563809Y-104707142D01*
X192563809Y-104588095D01*
X192540000Y-104516666D01*
X192492380Y-104469047D01*
X192444761Y-104445238D01*
X192349523Y-104421428D01*
X192278095Y-104421428D01*
X192182857Y-104445238D01*
X192135238Y-104469047D01*
X192087619Y-104516666D01*
X192063809Y-104588095D01*
X192063809Y-104707142D01*
X192063809Y-103945238D02*
X192063809Y-104230952D01*
X192063809Y-104088095D02*
X192563809Y-104088095D01*
X192492380Y-104135714D01*
X192444761Y-104183333D01*
X192420952Y-104230952D01*
X192063809Y-103707142D02*
X192063809Y-103611904D01*
X192087619Y-103564285D01*
X192111428Y-103540476D01*
X192182857Y-103492857D01*
X192278095Y-103469047D01*
X192468571Y-103469047D01*
X192516190Y-103492857D01*
X192540000Y-103516666D01*
X192563809Y-103564285D01*
X192563809Y-103659523D01*
X192540000Y-103707142D01*
X192516190Y-103730952D01*
X192468571Y-103754761D01*
X192349523Y-103754761D01*
X192301904Y-103730952D01*
X192278095Y-103707142D01*
X192254285Y-103659523D01*
X192254285Y-103564285D01*
X192278095Y-103516666D01*
X192301904Y-103492857D01*
X192349523Y-103469047D01*
X188629404Y-97652407D02*
X188879404Y-97219394D01*
X188776306Y-97159870D01*
X188702542Y-97144775D01*
X188637494Y-97162205D01*
X188593064Y-97191540D01*
X188524826Y-97262114D01*
X188489111Y-97323973D01*
X188462112Y-97418356D01*
X188458922Y-97471500D01*
X188476352Y-97536549D01*
X188526306Y-97592883D01*
X188629404Y-97652407D01*
X187969576Y-97271454D02*
X188217011Y-97414311D01*
X188093293Y-97342883D02*
X188343293Y-96909870D01*
X188348818Y-96995539D01*
X188366248Y-97060587D01*
X188395583Y-97105017D01*
X187864997Y-96881161D02*
X187918141Y-96884351D01*
X187950665Y-96875636D01*
X187995094Y-96846302D01*
X188006999Y-96825682D01*
X188010189Y-96772538D01*
X188001474Y-96740014D01*
X187972140Y-96695584D01*
X187889661Y-96647965D01*
X187836517Y-96644775D01*
X187803993Y-96653490D01*
X187759563Y-96682825D01*
X187747659Y-96703445D01*
X187744469Y-96756589D01*
X187753184Y-96789113D01*
X187782518Y-96833542D01*
X187864997Y-96881161D01*
X187894331Y-96925590D01*
X187903046Y-96958115D01*
X187899856Y-97011259D01*
X187852237Y-97093738D01*
X187807808Y-97123072D01*
X187775284Y-97131787D01*
X187722140Y-97128597D01*
X187639661Y-97080978D01*
X187610327Y-97036549D01*
X187601612Y-97004024D01*
X187604802Y-96950880D01*
X187652421Y-96868402D01*
X187696850Y-96839067D01*
X187729374Y-96830352D01*
X187782518Y-96833542D01*
X182989404Y-97912407D02*
X183239404Y-97479394D01*
X183136306Y-97419870D01*
X183062542Y-97404775D01*
X182997494Y-97422205D01*
X182953064Y-97451540D01*
X182884826Y-97522114D01*
X182849111Y-97583973D01*
X182822112Y-97678356D01*
X182818922Y-97731500D01*
X182836352Y-97796549D01*
X182886306Y-97852883D01*
X182989404Y-97912407D01*
X182329576Y-97531454D02*
X182577011Y-97674311D01*
X182453293Y-97602883D02*
X182703293Y-97169870D01*
X182708818Y-97255539D01*
X182726248Y-97320587D01*
X182755583Y-97365017D01*
X182435238Y-97015108D02*
X182146563Y-96848442D01*
X182082140Y-97388597D01*
X179559404Y-92412407D02*
X179809404Y-91979394D01*
X179706306Y-91919870D01*
X179632542Y-91904775D01*
X179567494Y-91922205D01*
X179523064Y-91951540D01*
X179454826Y-92022114D01*
X179419111Y-92083973D01*
X179392112Y-92178356D01*
X179388922Y-92231500D01*
X179406352Y-92296549D01*
X179456306Y-92352883D01*
X179559404Y-92412407D01*
X178899576Y-92031454D02*
X179147011Y-92174311D01*
X179023293Y-92102883D02*
X179273293Y-91669870D01*
X179278818Y-91755539D01*
X179296248Y-91820587D01*
X179325583Y-91865017D01*
X178778422Y-91384156D02*
X178860900Y-91431775D01*
X178890235Y-91476204D01*
X178898950Y-91508728D01*
X178904475Y-91594397D01*
X178877475Y-91688780D01*
X178782237Y-91853738D01*
X178737808Y-91883072D01*
X178705284Y-91891787D01*
X178652140Y-91888597D01*
X178569661Y-91840978D01*
X178540327Y-91796549D01*
X178531612Y-91764024D01*
X178534802Y-91710880D01*
X178594325Y-91607782D01*
X178638755Y-91578448D01*
X178671279Y-91569733D01*
X178724423Y-91572923D01*
X178806902Y-91620542D01*
X178836236Y-91664971D01*
X178844951Y-91697495D01*
X178841761Y-91750639D01*
X171735595Y-91855264D02*
X171485595Y-91422251D01*
X171382497Y-91481775D01*
X171332542Y-91538109D01*
X171315113Y-91603158D01*
X171318303Y-91656302D01*
X171345302Y-91750685D01*
X171381016Y-91812544D01*
X171449255Y-91883118D01*
X171493684Y-91912452D01*
X171558733Y-91929882D01*
X171632497Y-91914788D01*
X171735595Y-91855264D01*
X171075766Y-92236216D02*
X171323202Y-92093359D01*
X171199484Y-92164788D02*
X170949484Y-91731775D01*
X171026438Y-91769824D01*
X171091486Y-91787254D01*
X171144630Y-91784064D01*
X170433993Y-92029394D02*
X170640189Y-91910346D01*
X170779856Y-92104638D01*
X170747332Y-92095923D01*
X170694188Y-92099113D01*
X170591090Y-92158637D01*
X170561755Y-92203066D01*
X170553040Y-92235590D01*
X170556230Y-92288735D01*
X170615754Y-92391833D01*
X170660183Y-92421167D01*
X170692707Y-92429882D01*
X170745852Y-92426692D01*
X170848950Y-92367169D01*
X170878284Y-92322739D01*
X170886999Y-92290215D01*
X168715595Y-97095264D02*
X168465595Y-96662251D01*
X168362497Y-96721775D01*
X168312542Y-96778109D01*
X168295113Y-96843158D01*
X168298303Y-96896302D01*
X168325302Y-96990685D01*
X168361016Y-97052544D01*
X168429255Y-97123118D01*
X168473684Y-97152452D01*
X168538733Y-97169882D01*
X168612497Y-97154788D01*
X168715595Y-97095264D01*
X168055766Y-97476216D02*
X168303202Y-97333359D01*
X168179484Y-97404788D02*
X167929484Y-96971775D01*
X168006438Y-97009824D01*
X168071486Y-97027254D01*
X168124630Y-97024064D01*
X167517946Y-97401827D02*
X167684612Y-97690502D01*
X167525806Y-97177346D02*
X167807475Y-97427117D01*
X167539420Y-97581879D01*
X162455595Y-96735264D02*
X162205595Y-96302251D01*
X162102497Y-96361775D01*
X162052542Y-96418109D01*
X162035113Y-96483158D01*
X162038303Y-96536302D01*
X162065302Y-96630685D01*
X162101016Y-96692544D01*
X162169255Y-96763118D01*
X162213684Y-96792452D01*
X162278733Y-96809882D01*
X162352497Y-96794788D01*
X162455595Y-96735264D01*
X161795766Y-97116216D02*
X162043202Y-96973359D01*
X161919484Y-97044788D02*
X161669484Y-96611775D01*
X161746438Y-96649824D01*
X161811486Y-96667254D01*
X161864630Y-96664064D01*
X161401428Y-96766537D02*
X161133373Y-96921299D01*
X161372949Y-97002923D01*
X161311090Y-97038637D01*
X161281755Y-97083066D01*
X161273040Y-97115590D01*
X161276230Y-97168735D01*
X161335754Y-97271833D01*
X161380183Y-97301167D01*
X161412707Y-97309882D01*
X161465852Y-97306692D01*
X161589569Y-97235264D01*
X161618904Y-97190835D01*
X161627619Y-97158310D01*
X159645595Y-102335264D02*
X159395595Y-101902251D01*
X159292497Y-101961775D01*
X159242542Y-102018109D01*
X159225113Y-102083158D01*
X159228303Y-102136302D01*
X159255302Y-102230685D01*
X159291016Y-102292544D01*
X159359255Y-102363118D01*
X159403684Y-102392452D01*
X159468733Y-102409882D01*
X159542497Y-102394788D01*
X159645595Y-102335264D01*
X158985766Y-102716216D02*
X159233202Y-102573359D01*
X159109484Y-102644788D02*
X158859484Y-102211775D01*
X158936438Y-102249824D01*
X159001486Y-102267254D01*
X159054630Y-102264064D01*
X158594618Y-102419681D02*
X158562094Y-102410966D01*
X158508950Y-102414156D01*
X158405852Y-102473680D01*
X158376517Y-102518109D01*
X158367802Y-102550633D01*
X158370992Y-102603777D01*
X158394802Y-102645017D01*
X158451135Y-102694971D01*
X158841428Y-102799549D01*
X158573373Y-102954311D01*
X153595595Y-102335264D02*
X153345595Y-101902251D01*
X153242497Y-101961775D01*
X153192542Y-102018109D01*
X153175113Y-102083158D01*
X153178303Y-102136302D01*
X153205302Y-102230685D01*
X153241016Y-102292544D01*
X153309255Y-102363118D01*
X153353684Y-102392452D01*
X153418733Y-102409882D01*
X153492497Y-102394788D01*
X153595595Y-102335264D01*
X152935766Y-102716216D02*
X153183202Y-102573359D01*
X153059484Y-102644788D02*
X152809484Y-102211775D01*
X152886438Y-102249824D01*
X152951486Y-102267254D01*
X153004630Y-102264064D01*
X152523373Y-102954311D02*
X152770809Y-102811454D01*
X152647091Y-102882883D02*
X152397091Y-102449870D01*
X152474044Y-102487920D01*
X152539093Y-102505349D01*
X152592237Y-102502159D01*
X150575595Y-107575264D02*
X150325595Y-107142251D01*
X150222497Y-107201775D01*
X150172542Y-107258109D01*
X150155113Y-107323158D01*
X150158303Y-107376302D01*
X150185302Y-107470685D01*
X150221016Y-107532544D01*
X150289255Y-107603118D01*
X150333684Y-107632452D01*
X150398733Y-107649882D01*
X150472497Y-107634788D01*
X150575595Y-107575264D01*
X149915766Y-107956216D02*
X150163202Y-107813359D01*
X150039484Y-107884788D02*
X149789484Y-107451775D01*
X149866438Y-107489824D01*
X149931486Y-107507254D01*
X149984630Y-107504064D01*
X149397711Y-107677965D02*
X149356471Y-107701775D01*
X149327137Y-107746204D01*
X149318422Y-107778728D01*
X149321612Y-107831873D01*
X149348611Y-107926256D01*
X149408135Y-108029354D01*
X149476374Y-108099928D01*
X149520803Y-108129263D01*
X149553327Y-108137977D01*
X149606471Y-108134788D01*
X149647711Y-108110978D01*
X149677045Y-108066549D01*
X149685760Y-108034024D01*
X149682570Y-107980880D01*
X149655571Y-107886497D01*
X149596047Y-107783399D01*
X149527808Y-107712825D01*
X149483379Y-107683490D01*
X149450855Y-107674775D01*
X149397711Y-107677965D01*
X144309398Y-107684311D02*
X144059398Y-107251299D01*
X143956300Y-107310822D01*
X143906346Y-107367156D01*
X143888916Y-107432205D01*
X143892106Y-107485349D01*
X143919105Y-107579733D01*
X143954820Y-107641592D01*
X144023058Y-107712166D01*
X144067488Y-107741500D01*
X144132536Y-107758930D01*
X144206300Y-107743835D01*
X144309398Y-107684311D01*
X143855766Y-107946216D02*
X143773287Y-107993835D01*
X143720143Y-107997025D01*
X143687619Y-107988310D01*
X143610665Y-107950261D01*
X143542427Y-107879687D01*
X143447189Y-107714730D01*
X143443999Y-107661586D01*
X143452714Y-107629061D01*
X143482048Y-107584632D01*
X143564527Y-107537013D01*
X143617671Y-107533823D01*
X143650195Y-107542538D01*
X143694624Y-107571873D01*
X143754148Y-107674971D01*
X143757338Y-107728115D01*
X143748623Y-107760639D01*
X143719289Y-107805068D01*
X143636810Y-107852688D01*
X143583666Y-107855877D01*
X143551142Y-107847162D01*
X143506712Y-107817828D01*
X141289398Y-112924311D02*
X141039398Y-112491299D01*
X140936300Y-112550822D01*
X140886346Y-112607156D01*
X140868916Y-112672205D01*
X140872106Y-112725349D01*
X140899105Y-112819733D01*
X140934820Y-112881592D01*
X141003058Y-112952166D01*
X141047488Y-112981500D01*
X141112536Y-112998930D01*
X141186300Y-112983835D01*
X141289398Y-112924311D01*
X140651670Y-112962590D02*
X140681004Y-112918161D01*
X140689719Y-112885636D01*
X140686529Y-112832492D01*
X140674624Y-112811873D01*
X140630195Y-112782538D01*
X140597671Y-112773823D01*
X140544527Y-112777013D01*
X140462048Y-112824632D01*
X140432714Y-112869061D01*
X140423999Y-112901586D01*
X140427189Y-112954730D01*
X140439093Y-112975349D01*
X140483522Y-113004684D01*
X140516047Y-113013399D01*
X140569191Y-113010209D01*
X140651670Y-112962590D01*
X140704814Y-112959400D01*
X140737338Y-112968115D01*
X140781767Y-112997449D01*
X140829386Y-113079928D01*
X140832576Y-113133072D01*
X140823861Y-113165596D01*
X140794527Y-113210026D01*
X140712048Y-113257645D01*
X140658904Y-113260835D01*
X140626380Y-113252120D01*
X140581950Y-113222785D01*
X140534331Y-113140307D01*
X140531142Y-113087162D01*
X140539856Y-113054638D01*
X140569191Y-113010209D01*
X137023208Y-113253359D02*
X137273208Y-112820346D01*
X137170110Y-112760822D01*
X137096346Y-112745728D01*
X137031297Y-112763158D01*
X136986868Y-112792492D01*
X136918629Y-112863066D01*
X136882915Y-112924925D01*
X136855916Y-113019308D01*
X136852726Y-113072452D01*
X136870155Y-113137501D01*
X136920110Y-113193835D01*
X137023208Y-113253359D01*
X136881434Y-112594156D02*
X136592759Y-112427489D01*
X136528336Y-112967645D01*
X134603809Y-109709047D02*
X135103809Y-109709047D01*
X135103809Y-109590000D01*
X135080000Y-109518571D01*
X135032380Y-109470952D01*
X134984761Y-109447142D01*
X134889523Y-109423333D01*
X134818095Y-109423333D01*
X134722857Y-109447142D01*
X134675238Y-109470952D01*
X134627619Y-109518571D01*
X134603809Y-109590000D01*
X134603809Y-109709047D01*
X135103809Y-108994761D02*
X135103809Y-109090000D01*
X135080000Y-109137619D01*
X135056190Y-109161428D01*
X134984761Y-109209047D01*
X134889523Y-109232857D01*
X134699047Y-109232857D01*
X134651428Y-109209047D01*
X134627619Y-109185238D01*
X134603809Y-109137619D01*
X134603809Y-109042380D01*
X134627619Y-108994761D01*
X134651428Y-108970952D01*
X134699047Y-108947142D01*
X134818095Y-108947142D01*
X134865714Y-108970952D01*
X134889523Y-108994761D01*
X134913333Y-109042380D01*
X134913333Y-109137619D01*
X134889523Y-109185238D01*
X134865714Y-109209047D01*
X134818095Y-109232857D01*
X137623809Y-104469047D02*
X138123809Y-104469047D01*
X138123809Y-104350000D01*
X138100000Y-104278571D01*
X138052380Y-104230952D01*
X138004761Y-104207142D01*
X137909523Y-104183333D01*
X137838095Y-104183333D01*
X137742857Y-104207142D01*
X137695238Y-104230952D01*
X137647619Y-104278571D01*
X137623809Y-104350000D01*
X137623809Y-104469047D01*
X138123809Y-103730952D02*
X138123809Y-103969047D01*
X137885714Y-103992857D01*
X137909523Y-103969047D01*
X137933333Y-103921428D01*
X137933333Y-103802380D01*
X137909523Y-103754761D01*
X137885714Y-103730952D01*
X137838095Y-103707142D01*
X137719047Y-103707142D01*
X137671428Y-103730952D01*
X137647619Y-103754761D01*
X137623809Y-103802380D01*
X137623809Y-103921428D01*
X137647619Y-103969047D01*
X137671428Y-103992857D01*
X134005708Y-97475491D02*
X134255708Y-97042478D01*
X134152610Y-96982954D01*
X134078846Y-96967860D01*
X134013797Y-96985290D01*
X133969368Y-97014624D01*
X133901129Y-97085198D01*
X133865415Y-97147057D01*
X133838416Y-97241440D01*
X133835226Y-97294584D01*
X133852655Y-97359633D01*
X133902610Y-97415967D01*
X134005708Y-97475491D01*
X133553785Y-96829673D02*
X133387118Y-97118348D01*
X133752121Y-96724240D02*
X133676648Y-97093058D01*
X133408593Y-96938296D01*
X126149398Y-97184311D02*
X125899398Y-96751299D01*
X125796300Y-96810822D01*
X125746346Y-96867156D01*
X125728916Y-96932205D01*
X125732106Y-96985349D01*
X125759105Y-97079733D01*
X125794820Y-97141592D01*
X125863058Y-97212166D01*
X125907488Y-97241500D01*
X125972536Y-97258930D01*
X126046300Y-97243835D01*
X126149398Y-97184311D01*
X125507625Y-96977489D02*
X125239569Y-97132251D01*
X125479145Y-97213875D01*
X125417286Y-97249589D01*
X125387952Y-97294018D01*
X125379237Y-97326543D01*
X125382427Y-97379687D01*
X125441950Y-97482785D01*
X125486380Y-97512120D01*
X125518904Y-97520835D01*
X125572048Y-97517645D01*
X125695766Y-97446216D01*
X125725101Y-97401787D01*
X125733815Y-97369263D01*
X124124047Y-102376190D02*
X124124047Y-101876190D01*
X124005000Y-101876190D01*
X123933571Y-101900000D01*
X123885952Y-101947619D01*
X123862142Y-101995238D01*
X123838333Y-102090476D01*
X123838333Y-102161904D01*
X123862142Y-102257142D01*
X123885952Y-102304761D01*
X123933571Y-102352380D01*
X124005000Y-102376190D01*
X124124047Y-102376190D01*
X123647857Y-101923809D02*
X123624047Y-101900000D01*
X123576428Y-101876190D01*
X123457380Y-101876190D01*
X123409761Y-101900000D01*
X123385952Y-101923809D01*
X123362142Y-101971428D01*
X123362142Y-102019047D01*
X123385952Y-102090476D01*
X123671666Y-102376190D01*
X123362142Y-102376190D01*
X120435438Y-103917587D02*
X120469110Y-103917587D01*
X120536453Y-103883915D01*
X120570125Y-103850244D01*
X120603797Y-103782900D01*
X120603797Y-103715556D01*
X120586961Y-103665049D01*
X120536453Y-103580869D01*
X120485946Y-103530362D01*
X120401766Y-103479854D01*
X120351259Y-103463018D01*
X120283915Y-103463018D01*
X120216572Y-103496690D01*
X120182900Y-103530362D01*
X120149228Y-103597705D01*
X120149228Y-103631377D01*
X119997705Y-103715556D02*
X119778839Y-103934423D01*
X120031377Y-103951259D01*
X119980869Y-104001766D01*
X119964034Y-104052274D01*
X119964034Y-104085946D01*
X119980869Y-104136453D01*
X120065049Y-104220633D01*
X120115556Y-104237469D01*
X120149228Y-104237469D01*
X120199736Y-104220633D01*
X120300751Y-104119618D01*
X120317587Y-104069110D01*
X120317587Y-104035438D01*
X179279458Y-97057294D02*
X178846445Y-96807294D01*
X178786921Y-96910392D01*
X178771826Y-96984156D01*
X178789256Y-97049204D01*
X178818591Y-97093634D01*
X178889165Y-97161872D01*
X178951024Y-97197587D01*
X179045407Y-97224586D01*
X179098551Y-97227776D01*
X179163600Y-97210346D01*
X179219934Y-97160392D01*
X179279458Y-97057294D01*
X178649589Y-97243496D02*
X178617065Y-97252211D01*
X178572635Y-97281546D01*
X178513112Y-97384644D01*
X178509922Y-97437788D01*
X178518637Y-97470312D01*
X178547971Y-97514742D01*
X178589210Y-97538551D01*
X178662974Y-97553646D01*
X179053267Y-97449067D01*
X178898505Y-97717122D01*
X178411494Y-97655889D02*
X178378969Y-97664604D01*
X178334540Y-97693939D01*
X178275016Y-97797037D01*
X178271826Y-97850181D01*
X178280541Y-97882705D01*
X178309876Y-97927135D01*
X178351115Y-97950944D01*
X178424879Y-97966039D01*
X178815172Y-97861460D01*
X178660410Y-98129516D01*
X108518333Y-105808571D02*
X108542142Y-105832380D01*
X108613571Y-105856190D01*
X108661190Y-105856190D01*
X108732619Y-105832380D01*
X108780238Y-105784761D01*
X108804047Y-105737142D01*
X108827857Y-105641904D01*
X108827857Y-105570476D01*
X108804047Y-105475238D01*
X108780238Y-105427619D01*
X108732619Y-105380000D01*
X108661190Y-105356190D01*
X108613571Y-105356190D01*
X108542142Y-105380000D01*
X108518333Y-105403809D01*
X108232619Y-105570476D02*
X108280238Y-105546666D01*
X108304047Y-105522857D01*
X108327857Y-105475238D01*
X108327857Y-105451428D01*
X108304047Y-105403809D01*
X108280238Y-105380000D01*
X108232619Y-105356190D01*
X108137380Y-105356190D01*
X108089761Y-105380000D01*
X108065952Y-105403809D01*
X108042142Y-105451428D01*
X108042142Y-105475238D01*
X108065952Y-105522857D01*
X108089761Y-105546666D01*
X108137380Y-105570476D01*
X108232619Y-105570476D01*
X108280238Y-105594285D01*
X108304047Y-105618095D01*
X108327857Y-105665714D01*
X108327857Y-105760952D01*
X108304047Y-105808571D01*
X108280238Y-105832380D01*
X108232619Y-105856190D01*
X108137380Y-105856190D01*
X108089761Y-105832380D01*
X108065952Y-105808571D01*
X108042142Y-105760952D01*
X108042142Y-105665714D01*
X108065952Y-105618095D01*
X108089761Y-105594285D01*
X108137380Y-105570476D01*
X113460952Y-108076190D02*
X113460952Y-108480952D01*
X113437142Y-108528571D01*
X113413333Y-108552380D01*
X113365714Y-108576190D01*
X113270476Y-108576190D01*
X113222857Y-108552380D01*
X113199047Y-108528571D01*
X113175238Y-108480952D01*
X113175238Y-108076190D01*
X112675238Y-108576190D02*
X112960952Y-108576190D01*
X112818095Y-108576190D02*
X112818095Y-108076190D01*
X112865714Y-108147619D01*
X112913333Y-108195238D01*
X112960952Y-108219047D01*
X108796190Y-103626666D02*
X108796190Y-103388571D01*
X108296190Y-103388571D01*
X108296190Y-103745714D02*
X108296190Y-104055238D01*
X108486666Y-103888571D01*
X108486666Y-103960000D01*
X108510476Y-104007619D01*
X108534285Y-104031428D01*
X108581904Y-104055238D01*
X108700952Y-104055238D01*
X108748571Y-104031428D01*
X108772380Y-104007619D01*
X108796190Y-103960000D01*
X108796190Y-103817142D01*
X108772380Y-103769523D01*
X108748571Y-103745714D01*
%LPC*%
G36*
G01*
X109768706Y-100531850D02*
X109401617Y-101056108D01*
G75*
G02*
X109290199Y-101075754I-65532J45886D01*
G01*
X108110620Y-100249804D01*
G75*
G02*
X108090974Y-100138386I45886J65532D01*
G01*
X108458063Y-99614128D01*
G75*
G02*
X108569481Y-99594482I65532J-45886D01*
G01*
X109749060Y-100420432D01*
G75*
G02*
X109768706Y-100531850I-45886J-65532D01*
G01*
G37*
G36*
G01*
X111718866Y-97746732D02*
X111351777Y-98270990D01*
G75*
G02*
X111240359Y-98290636I-65532J45886D01*
G01*
X110060780Y-97464686D01*
G75*
G02*
X110041134Y-97353268I45886J65532D01*
G01*
X110408223Y-96829010D01*
G75*
G02*
X110519641Y-96809364I65532J-45886D01*
G01*
X111699220Y-97635314D01*
G75*
G02*
X111718866Y-97746732I-45886J-65532D01*
G01*
G37*
D13*
X134530000Y-108760000D03*
X186250000Y-96850000D03*
D14*
X100430000Y-101900000D03*
X100480000Y-106400000D03*
G36*
G01*
X181952531Y-108151795D02*
X182152531Y-108498205D01*
G75*
G02*
X182134230Y-108566506I-43301J-25000D01*
G01*
X181311506Y-109041506D01*
G75*
G02*
X181243205Y-109023205I-25000J43301D01*
G01*
X181043205Y-108676795D01*
G75*
G02*
X181061506Y-108608494I43301J25000D01*
G01*
X181884230Y-108133494D01*
G75*
G02*
X181952531Y-108151795I25000J-43301D01*
G01*
G37*
G36*
G01*
X179987469Y-109748205D02*
X179787469Y-109401795D01*
G75*
G02*
X179805770Y-109333494I43301J25000D01*
G01*
X180498590Y-108933494D01*
G75*
G02*
X180566891Y-108951795I25000J-43301D01*
G01*
X180766891Y-109298205D01*
G75*
G02*
X180748590Y-109366506I-43301J-25000D01*
G01*
X180055770Y-109766506D01*
G75*
G02*
X179987469Y-109748205I-25000J43301D01*
G01*
G37*
G36*
G01*
X179582468Y-109046724D02*
X179342468Y-108631032D01*
G75*
G02*
X179364430Y-108549070I51962J30000D01*
G01*
X180039930Y-108159070D01*
G75*
G02*
X180121892Y-108181032I30000J-51962D01*
G01*
X180361892Y-108596724D01*
G75*
G02*
X180339930Y-108678686I-51962J-30000D01*
G01*
X179664430Y-109068686D01*
G75*
G02*
X179582468Y-109046724I-30000J51962D01*
G01*
G37*
G36*
G01*
X182357532Y-108853276D02*
X182597532Y-109268968D01*
G75*
G02*
X182575570Y-109350930I-51962J-30000D01*
G01*
X181900070Y-109740930D01*
G75*
G02*
X181818108Y-109718968I-30000J51962D01*
G01*
X181578108Y-109303276D01*
G75*
G02*
X181600070Y-109221314I51962J30000D01*
G01*
X182275570Y-108831314D01*
G75*
G02*
X182357532Y-108853276I30000J-51962D01*
G01*
G37*
G36*
G01*
X180971892Y-109653276D02*
X181211892Y-110068968D01*
G75*
G02*
X181189930Y-110150930I-51962J-30000D01*
G01*
X180514430Y-110540930D01*
G75*
G02*
X180432468Y-110518968I-30000J51962D01*
G01*
X180192468Y-110103276D01*
G75*
G02*
X180214430Y-110021314I51962J30000D01*
G01*
X180889930Y-109631314D01*
G75*
G02*
X180971892Y-109653276I30000J-51962D01*
G01*
G37*
G36*
G01*
X181507532Y-107381032D02*
X181747532Y-107796724D01*
G75*
G02*
X181725570Y-107878686I-51962J-30000D01*
G01*
X181050070Y-108268686D01*
G75*
G02*
X180968108Y-108246724I-30000J51962D01*
G01*
X180728108Y-107831032D01*
G75*
G02*
X180750070Y-107749070I51962J30000D01*
G01*
X181425570Y-107359070D01*
G75*
G02*
X181507532Y-107381032I30000J-51962D01*
G01*
G37*
G36*
G01*
X186337469Y-108508205D02*
X186537469Y-108161795D01*
G75*
G02*
X186605770Y-108143494I43301J-25000D01*
G01*
X187428494Y-108618494D01*
G75*
G02*
X187446795Y-108686795I-25000J-43301D01*
G01*
X187246795Y-109033205D01*
G75*
G02*
X187178494Y-109051506I-43301J25000D01*
G01*
X186355770Y-108576506D01*
G75*
G02*
X186337469Y-108508205I25000J43301D01*
G01*
G37*
G36*
G01*
X188702531Y-109411795D02*
X188502531Y-109758205D01*
G75*
G02*
X188434230Y-109776506I-43301J25000D01*
G01*
X187741410Y-109376506D01*
G75*
G02*
X187723109Y-109308205I25000J43301D01*
G01*
X187923109Y-108961795D01*
G75*
G02*
X187991410Y-108943494I43301J-25000D01*
G01*
X188684230Y-109343494D01*
G75*
G02*
X188702531Y-109411795I-25000J-43301D01*
G01*
G37*
G36*
G01*
X188297532Y-110113276D02*
X188057532Y-110528968D01*
G75*
G02*
X187975570Y-110550930I-51962J30000D01*
G01*
X187300070Y-110160930D01*
G75*
G02*
X187278108Y-110078968I30000J51962D01*
G01*
X187518108Y-109663276D01*
G75*
G02*
X187600070Y-109641314I51962J-30000D01*
G01*
X188275570Y-110031314D01*
G75*
G02*
X188297532Y-110113276I-30000J-51962D01*
G01*
G37*
G36*
G01*
X186742468Y-107806724D02*
X186982468Y-107391032D01*
G75*
G02*
X187064430Y-107369070I51962J-30000D01*
G01*
X187739930Y-107759070D01*
G75*
G02*
X187761892Y-107841032I-30000J-51962D01*
G01*
X187521892Y-108256724D01*
G75*
G02*
X187439930Y-108278686I-51962J30000D01*
G01*
X186764430Y-107888686D01*
G75*
G02*
X186742468Y-107806724I30000J51962D01*
G01*
G37*
G36*
G01*
X188128108Y-108606724D02*
X188368108Y-108191032D01*
G75*
G02*
X188450070Y-108169070I51962J-30000D01*
G01*
X189125570Y-108559070D01*
G75*
G02*
X189147532Y-108641032I-30000J-51962D01*
G01*
X188907532Y-109056724D01*
G75*
G02*
X188825570Y-109078686I-51962J30000D01*
G01*
X188150070Y-108688686D01*
G75*
G02*
X188128108Y-108606724I30000J51962D01*
G01*
G37*
G36*
G01*
X185892468Y-109278968D02*
X186132468Y-108863276D01*
G75*
G02*
X186214430Y-108841314I51962J-30000D01*
G01*
X186889930Y-109231314D01*
G75*
G02*
X186911892Y-109313276I-30000J-51962D01*
G01*
X186671892Y-109728968D01*
G75*
G02*
X186589930Y-109750930I-51962J30000D01*
G01*
X185914430Y-109360930D01*
G75*
G02*
X185892468Y-109278968I30000J51962D01*
G01*
G37*
G36*
G01*
X189040000Y-104350000D02*
X189040000Y-103950000D01*
G75*
G02*
X189090000Y-103900000I50000J0D01*
G01*
X190040000Y-103900000D01*
G75*
G02*
X190090000Y-103950000I0J-50000D01*
G01*
X190090000Y-104350000D01*
G75*
G02*
X190040000Y-104400000I-50000J0D01*
G01*
X189090000Y-104400000D01*
G75*
G02*
X189040000Y-104350000I0J50000D01*
G01*
G37*
G36*
G01*
X191540000Y-103950000D02*
X191540000Y-104350000D01*
G75*
G02*
X191490000Y-104400000I-50000J0D01*
G01*
X190690000Y-104400000D01*
G75*
G02*
X190640000Y-104350000I0J50000D01*
G01*
X190640000Y-103950000D01*
G75*
G02*
X190690000Y-103900000I50000J0D01*
G01*
X191490000Y-103900000D01*
G75*
G02*
X191540000Y-103950000I0J-50000D01*
G01*
G37*
G36*
G01*
X191540000Y-104760000D02*
X191540000Y-105240000D01*
G75*
G02*
X191480000Y-105300000I-60000J0D01*
G01*
X190700000Y-105300000D01*
G75*
G02*
X190640000Y-105240000I0J60000D01*
G01*
X190640000Y-104760000D01*
G75*
G02*
X190700000Y-104700000I60000J0D01*
G01*
X191480000Y-104700000D01*
G75*
G02*
X191540000Y-104760000I0J-60000D01*
G01*
G37*
G36*
G01*
X189040000Y-103540000D02*
X189040000Y-103060000D01*
G75*
G02*
X189100000Y-103000000I60000J0D01*
G01*
X189880000Y-103000000D01*
G75*
G02*
X189940000Y-103060000I0J-60000D01*
G01*
X189940000Y-103540000D01*
G75*
G02*
X189880000Y-103600000I-60000J0D01*
G01*
X189100000Y-103600000D01*
G75*
G02*
X189040000Y-103540000I0J60000D01*
G01*
G37*
G36*
G01*
X190640000Y-103540000D02*
X190640000Y-103060000D01*
G75*
G02*
X190700000Y-103000000I60000J0D01*
G01*
X191480000Y-103000000D01*
G75*
G02*
X191540000Y-103060000I0J-60000D01*
G01*
X191540000Y-103540000D01*
G75*
G02*
X191480000Y-103600000I-60000J0D01*
G01*
X190700000Y-103600000D01*
G75*
G02*
X190640000Y-103540000I0J60000D01*
G01*
G37*
G36*
G01*
X189040000Y-105240000D02*
X189040000Y-104760000D01*
G75*
G02*
X189100000Y-104700000I60000J0D01*
G01*
X189880000Y-104700000D01*
G75*
G02*
X189940000Y-104760000I0J-60000D01*
G01*
X189940000Y-105240000D01*
G75*
G02*
X189880000Y-105300000I-60000J0D01*
G01*
X189100000Y-105300000D01*
G75*
G02*
X189040000Y-105240000I0J60000D01*
G01*
G37*
G36*
G01*
X186808205Y-100092531D02*
X186461795Y-99892531D01*
G75*
G02*
X186443494Y-99824230I25000J43301D01*
G01*
X186918494Y-99001506D01*
G75*
G02*
X186986795Y-98983205I43301J-25000D01*
G01*
X187333205Y-99183205D01*
G75*
G02*
X187351506Y-99251506I-25000J-43301D01*
G01*
X186876506Y-100074230D01*
G75*
G02*
X186808205Y-100092531I-43301J25000D01*
G01*
G37*
G36*
G01*
X187711795Y-97727469D02*
X188058205Y-97927469D01*
G75*
G02*
X188076506Y-97995770I-25000J-43301D01*
G01*
X187676506Y-98688590D01*
G75*
G02*
X187608205Y-98706891I-43301J25000D01*
G01*
X187261795Y-98506891D01*
G75*
G02*
X187243494Y-98438590I25000J43301D01*
G01*
X187643494Y-97745770D01*
G75*
G02*
X187711795Y-97727469I43301J-25000D01*
G01*
G37*
G36*
G01*
X188413276Y-98132468D02*
X188828968Y-98372468D01*
G75*
G02*
X188850930Y-98454430I-30000J-51962D01*
G01*
X188460930Y-99129930D01*
G75*
G02*
X188378968Y-99151892I-51962J30000D01*
G01*
X187963276Y-98911892D01*
G75*
G02*
X187941314Y-98829930I30000J51962D01*
G01*
X188331314Y-98154430D01*
G75*
G02*
X188413276Y-98132468I51962J-30000D01*
G01*
G37*
G36*
G01*
X186106724Y-99687532D02*
X185691032Y-99447532D01*
G75*
G02*
X185669070Y-99365570I30000J51962D01*
G01*
X186059070Y-98690070D01*
G75*
G02*
X186141032Y-98668108I51962J-30000D01*
G01*
X186556724Y-98908108D01*
G75*
G02*
X186578686Y-98990070I-30000J-51962D01*
G01*
X186188686Y-99665570D01*
G75*
G02*
X186106724Y-99687532I-51962J30000D01*
G01*
G37*
G36*
G01*
X186906724Y-98301892D02*
X186491032Y-98061892D01*
G75*
G02*
X186469070Y-97979930I30000J51962D01*
G01*
X186859070Y-97304430D01*
G75*
G02*
X186941032Y-97282468I51962J-30000D01*
G01*
X187356724Y-97522468D01*
G75*
G02*
X187378686Y-97604430I-30000J-51962D01*
G01*
X186988686Y-98279930D01*
G75*
G02*
X186906724Y-98301892I-51962J30000D01*
G01*
G37*
G36*
G01*
X187578968Y-100537532D02*
X187163276Y-100297532D01*
G75*
G02*
X187141314Y-100215570I30000J51962D01*
G01*
X187531314Y-99540070D01*
G75*
G02*
X187613276Y-99518108I51962J-30000D01*
G01*
X188028968Y-99758108D01*
G75*
G02*
X188050930Y-99840070I-30000J-51962D01*
G01*
X187660930Y-100515570D01*
G75*
G02*
X187578968Y-100537532I-51962J30000D01*
G01*
G37*
G36*
G01*
X181168205Y-100352531D02*
X180821795Y-100152531D01*
G75*
G02*
X180803494Y-100084230I25000J43301D01*
G01*
X181278494Y-99261506D01*
G75*
G02*
X181346795Y-99243205I43301J-25000D01*
G01*
X181693205Y-99443205D01*
G75*
G02*
X181711506Y-99511506I-25000J-43301D01*
G01*
X181236506Y-100334230D01*
G75*
G02*
X181168205Y-100352531I-43301J25000D01*
G01*
G37*
G36*
G01*
X182071795Y-97987469D02*
X182418205Y-98187469D01*
G75*
G02*
X182436506Y-98255770I-25000J-43301D01*
G01*
X182036506Y-98948590D01*
G75*
G02*
X181968205Y-98966891I-43301J25000D01*
G01*
X181621795Y-98766891D01*
G75*
G02*
X181603494Y-98698590I25000J43301D01*
G01*
X182003494Y-98005770D01*
G75*
G02*
X182071795Y-97987469I43301J-25000D01*
G01*
G37*
G36*
G01*
X182773276Y-98392468D02*
X183188968Y-98632468D01*
G75*
G02*
X183210930Y-98714430I-30000J-51962D01*
G01*
X182820930Y-99389930D01*
G75*
G02*
X182738968Y-99411892I-51962J30000D01*
G01*
X182323276Y-99171892D01*
G75*
G02*
X182301314Y-99089930I30000J51962D01*
G01*
X182691314Y-98414430D01*
G75*
G02*
X182773276Y-98392468I51962J-30000D01*
G01*
G37*
G36*
G01*
X180466724Y-99947532D02*
X180051032Y-99707532D01*
G75*
G02*
X180029070Y-99625570I30000J51962D01*
G01*
X180419070Y-98950070D01*
G75*
G02*
X180501032Y-98928108I51962J-30000D01*
G01*
X180916724Y-99168108D01*
G75*
G02*
X180938686Y-99250070I-30000J-51962D01*
G01*
X180548686Y-99925570D01*
G75*
G02*
X180466724Y-99947532I-51962J30000D01*
G01*
G37*
G36*
G01*
X181266724Y-98561892D02*
X180851032Y-98321892D01*
G75*
G02*
X180829070Y-98239930I30000J51962D01*
G01*
X181219070Y-97564430D01*
G75*
G02*
X181301032Y-97542468I51962J-30000D01*
G01*
X181716724Y-97782468D01*
G75*
G02*
X181738686Y-97864430I-30000J-51962D01*
G01*
X181348686Y-98539930D01*
G75*
G02*
X181266724Y-98561892I-51962J30000D01*
G01*
G37*
G36*
G01*
X181938968Y-100797532D02*
X181523276Y-100557532D01*
G75*
G02*
X181501314Y-100475570I30000J51962D01*
G01*
X181891314Y-99800070D01*
G75*
G02*
X181973276Y-99778108I51962J-30000D01*
G01*
X182388968Y-100018108D01*
G75*
G02*
X182410930Y-100100070I-30000J-51962D01*
G01*
X182020930Y-100775570D01*
G75*
G02*
X181938968Y-100797532I-51962J30000D01*
G01*
G37*
G36*
G01*
X177738205Y-94852531D02*
X177391795Y-94652531D01*
G75*
G02*
X177373494Y-94584230I25000J43301D01*
G01*
X177848494Y-93761506D01*
G75*
G02*
X177916795Y-93743205I43301J-25000D01*
G01*
X178263205Y-93943205D01*
G75*
G02*
X178281506Y-94011506I-25000J-43301D01*
G01*
X177806506Y-94834230D01*
G75*
G02*
X177738205Y-94852531I-43301J25000D01*
G01*
G37*
G36*
G01*
X178641795Y-92487469D02*
X178988205Y-92687469D01*
G75*
G02*
X179006506Y-92755770I-25000J-43301D01*
G01*
X178606506Y-93448590D01*
G75*
G02*
X178538205Y-93466891I-43301J25000D01*
G01*
X178191795Y-93266891D01*
G75*
G02*
X178173494Y-93198590I25000J43301D01*
G01*
X178573494Y-92505770D01*
G75*
G02*
X178641795Y-92487469I43301J-25000D01*
G01*
G37*
G36*
G01*
X179343276Y-92892468D02*
X179758968Y-93132468D01*
G75*
G02*
X179780930Y-93214430I-30000J-51962D01*
G01*
X179390930Y-93889930D01*
G75*
G02*
X179308968Y-93911892I-51962J30000D01*
G01*
X178893276Y-93671892D01*
G75*
G02*
X178871314Y-93589930I30000J51962D01*
G01*
X179261314Y-92914430D01*
G75*
G02*
X179343276Y-92892468I51962J-30000D01*
G01*
G37*
G36*
G01*
X177036724Y-94447532D02*
X176621032Y-94207532D01*
G75*
G02*
X176599070Y-94125570I30000J51962D01*
G01*
X176989070Y-93450070D01*
G75*
G02*
X177071032Y-93428108I51962J-30000D01*
G01*
X177486724Y-93668108D01*
G75*
G02*
X177508686Y-93750070I-30000J-51962D01*
G01*
X177118686Y-94425570D01*
G75*
G02*
X177036724Y-94447532I-51962J30000D01*
G01*
G37*
G36*
G01*
X177836724Y-93061892D02*
X177421032Y-92821892D01*
G75*
G02*
X177399070Y-92739930I30000J51962D01*
G01*
X177789070Y-92064430D01*
G75*
G02*
X177871032Y-92042468I51962J-30000D01*
G01*
X178286724Y-92282468D01*
G75*
G02*
X178308686Y-92364430I-30000J-51962D01*
G01*
X177918686Y-93039930D01*
G75*
G02*
X177836724Y-93061892I-51962J30000D01*
G01*
G37*
G36*
G01*
X178508968Y-95297532D02*
X178093276Y-95057532D01*
G75*
G02*
X178071314Y-94975570I30000J51962D01*
G01*
X178461314Y-94300070D01*
G75*
G02*
X178543276Y-94278108I51962J-30000D01*
G01*
X178958968Y-94518108D01*
G75*
G02*
X178980930Y-94600070I-30000J-51962D01*
G01*
X178590930Y-95275570D01*
G75*
G02*
X178508968Y-95297532I-51962J30000D01*
G01*
G37*
G36*
G01*
X172938205Y-94652531D02*
X172591795Y-94852531D01*
G75*
G02*
X172523494Y-94834230I-25000J43301D01*
G01*
X172048494Y-94011506D01*
G75*
G02*
X172066795Y-93943205I43301J25000D01*
G01*
X172413205Y-93743205D01*
G75*
G02*
X172481506Y-93761506I25000J-43301D01*
G01*
X172956506Y-94584230D01*
G75*
G02*
X172938205Y-94652531I-43301J-25000D01*
G01*
G37*
G36*
G01*
X171341795Y-92687469D02*
X171688205Y-92487469D01*
G75*
G02*
X171756506Y-92505770I25000J-43301D01*
G01*
X172156506Y-93198590D01*
G75*
G02*
X172138205Y-93266891I-43301J-25000D01*
G01*
X171791795Y-93466891D01*
G75*
G02*
X171723494Y-93448590I-25000J43301D01*
G01*
X171323494Y-92755770D01*
G75*
G02*
X171341795Y-92687469I43301J25000D01*
G01*
G37*
G36*
G01*
X172043276Y-92282468D02*
X172458968Y-92042468D01*
G75*
G02*
X172540930Y-92064430I30000J-51962D01*
G01*
X172930930Y-92739930D01*
G75*
G02*
X172908968Y-92821892I-51962J-30000D01*
G01*
X172493276Y-93061892D01*
G75*
G02*
X172411314Y-93039930I-30000J51962D01*
G01*
X172021314Y-92364430D01*
G75*
G02*
X172043276Y-92282468I51962J30000D01*
G01*
G37*
G36*
G01*
X172236724Y-95057532D02*
X171821032Y-95297532D01*
G75*
G02*
X171739070Y-95275570I-30000J51962D01*
G01*
X171349070Y-94600070D01*
G75*
G02*
X171371032Y-94518108I51962J30000D01*
G01*
X171786724Y-94278108D01*
G75*
G02*
X171868686Y-94300070I30000J-51962D01*
G01*
X172258686Y-94975570D01*
G75*
G02*
X172236724Y-95057532I-51962J-30000D01*
G01*
G37*
G36*
G01*
X171436724Y-93671892D02*
X171021032Y-93911892D01*
G75*
G02*
X170939070Y-93889930I-30000J51962D01*
G01*
X170549070Y-93214430D01*
G75*
G02*
X170571032Y-93132468I51962J30000D01*
G01*
X170986724Y-92892468D01*
G75*
G02*
X171068686Y-92914430I30000J-51962D01*
G01*
X171458686Y-93589930D01*
G75*
G02*
X171436724Y-93671892I-51962J-30000D01*
G01*
G37*
G36*
G01*
X173708968Y-94207532D02*
X173293276Y-94447532D01*
G75*
G02*
X173211314Y-94425570I-30000J51962D01*
G01*
X172821314Y-93750070D01*
G75*
G02*
X172843276Y-93668108I51962J30000D01*
G01*
X173258968Y-93428108D01*
G75*
G02*
X173340930Y-93450070I30000J-51962D01*
G01*
X173730930Y-94125570D01*
G75*
G02*
X173708968Y-94207532I-51962J-30000D01*
G01*
G37*
G36*
G01*
X169918205Y-99892531D02*
X169571795Y-100092531D01*
G75*
G02*
X169503494Y-100074230I-25000J43301D01*
G01*
X169028494Y-99251506D01*
G75*
G02*
X169046795Y-99183205I43301J25000D01*
G01*
X169393205Y-98983205D01*
G75*
G02*
X169461506Y-99001506I25000J-43301D01*
G01*
X169936506Y-99824230D01*
G75*
G02*
X169918205Y-99892531I-43301J-25000D01*
G01*
G37*
G36*
G01*
X168321795Y-97927469D02*
X168668205Y-97727469D01*
G75*
G02*
X168736506Y-97745770I25000J-43301D01*
G01*
X169136506Y-98438590D01*
G75*
G02*
X169118205Y-98506891I-43301J-25000D01*
G01*
X168771795Y-98706891D01*
G75*
G02*
X168703494Y-98688590I-25000J43301D01*
G01*
X168303494Y-97995770D01*
G75*
G02*
X168321795Y-97927469I43301J25000D01*
G01*
G37*
G36*
G01*
X169023276Y-97522468D02*
X169438968Y-97282468D01*
G75*
G02*
X169520930Y-97304430I30000J-51962D01*
G01*
X169910930Y-97979930D01*
G75*
G02*
X169888968Y-98061892I-51962J-30000D01*
G01*
X169473276Y-98301892D01*
G75*
G02*
X169391314Y-98279930I-30000J51962D01*
G01*
X169001314Y-97604430D01*
G75*
G02*
X169023276Y-97522468I51962J30000D01*
G01*
G37*
G36*
G01*
X169216724Y-100297532D02*
X168801032Y-100537532D01*
G75*
G02*
X168719070Y-100515570I-30000J51962D01*
G01*
X168329070Y-99840070D01*
G75*
G02*
X168351032Y-99758108I51962J30000D01*
G01*
X168766724Y-99518108D01*
G75*
G02*
X168848686Y-99540070I30000J-51962D01*
G01*
X169238686Y-100215570D01*
G75*
G02*
X169216724Y-100297532I-51962J-30000D01*
G01*
G37*
G36*
G01*
X168416724Y-98911892D02*
X168001032Y-99151892D01*
G75*
G02*
X167919070Y-99129930I-30000J51962D01*
G01*
X167529070Y-98454430D01*
G75*
G02*
X167551032Y-98372468I51962J30000D01*
G01*
X167966724Y-98132468D01*
G75*
G02*
X168048686Y-98154430I30000J-51962D01*
G01*
X168438686Y-98829930D01*
G75*
G02*
X168416724Y-98911892I-51962J-30000D01*
G01*
G37*
G36*
G01*
X170688968Y-99447532D02*
X170273276Y-99687532D01*
G75*
G02*
X170191314Y-99665570I-30000J51962D01*
G01*
X169801314Y-98990070D01*
G75*
G02*
X169823276Y-98908108I51962J30000D01*
G01*
X170238968Y-98668108D01*
G75*
G02*
X170320930Y-98690070I30000J-51962D01*
G01*
X170710930Y-99365570D01*
G75*
G02*
X170688968Y-99447532I-51962J-30000D01*
G01*
G37*
G36*
G01*
X163658205Y-99532531D02*
X163311795Y-99732531D01*
G75*
G02*
X163243494Y-99714230I-25000J43301D01*
G01*
X162768494Y-98891506D01*
G75*
G02*
X162786795Y-98823205I43301J25000D01*
G01*
X163133205Y-98623205D01*
G75*
G02*
X163201506Y-98641506I25000J-43301D01*
G01*
X163676506Y-99464230D01*
G75*
G02*
X163658205Y-99532531I-43301J-25000D01*
G01*
G37*
G36*
G01*
X162061795Y-97567469D02*
X162408205Y-97367469D01*
G75*
G02*
X162476506Y-97385770I25000J-43301D01*
G01*
X162876506Y-98078590D01*
G75*
G02*
X162858205Y-98146891I-43301J-25000D01*
G01*
X162511795Y-98346891D01*
G75*
G02*
X162443494Y-98328590I-25000J43301D01*
G01*
X162043494Y-97635770D01*
G75*
G02*
X162061795Y-97567469I43301J25000D01*
G01*
G37*
G36*
G01*
X162763276Y-97162468D02*
X163178968Y-96922468D01*
G75*
G02*
X163260930Y-96944430I30000J-51962D01*
G01*
X163650930Y-97619930D01*
G75*
G02*
X163628968Y-97701892I-51962J-30000D01*
G01*
X163213276Y-97941892D01*
G75*
G02*
X163131314Y-97919930I-30000J51962D01*
G01*
X162741314Y-97244430D01*
G75*
G02*
X162763276Y-97162468I51962J30000D01*
G01*
G37*
G36*
G01*
X162956724Y-99937532D02*
X162541032Y-100177532D01*
G75*
G02*
X162459070Y-100155570I-30000J51962D01*
G01*
X162069070Y-99480070D01*
G75*
G02*
X162091032Y-99398108I51962J30000D01*
G01*
X162506724Y-99158108D01*
G75*
G02*
X162588686Y-99180070I30000J-51962D01*
G01*
X162978686Y-99855570D01*
G75*
G02*
X162956724Y-99937532I-51962J-30000D01*
G01*
G37*
G36*
G01*
X162156724Y-98551892D02*
X161741032Y-98791892D01*
G75*
G02*
X161659070Y-98769930I-30000J51962D01*
G01*
X161269070Y-98094430D01*
G75*
G02*
X161291032Y-98012468I51962J30000D01*
G01*
X161706724Y-97772468D01*
G75*
G02*
X161788686Y-97794430I30000J-51962D01*
G01*
X162178686Y-98469930D01*
G75*
G02*
X162156724Y-98551892I-51962J-30000D01*
G01*
G37*
G36*
G01*
X164428968Y-99087532D02*
X164013276Y-99327532D01*
G75*
G02*
X163931314Y-99305570I-30000J51962D01*
G01*
X163541314Y-98630070D01*
G75*
G02*
X163563276Y-98548108I51962J30000D01*
G01*
X163978968Y-98308108D01*
G75*
G02*
X164060930Y-98330070I30000J-51962D01*
G01*
X164450930Y-99005570D01*
G75*
G02*
X164428968Y-99087532I-51962J-30000D01*
G01*
G37*
G36*
G01*
X160848205Y-105132531D02*
X160501795Y-105332531D01*
G75*
G02*
X160433494Y-105314230I-25000J43301D01*
G01*
X159958494Y-104491506D01*
G75*
G02*
X159976795Y-104423205I43301J25000D01*
G01*
X160323205Y-104223205D01*
G75*
G02*
X160391506Y-104241506I25000J-43301D01*
G01*
X160866506Y-105064230D01*
G75*
G02*
X160848205Y-105132531I-43301J-25000D01*
G01*
G37*
G36*
G01*
X159251795Y-103167469D02*
X159598205Y-102967469D01*
G75*
G02*
X159666506Y-102985770I25000J-43301D01*
G01*
X160066506Y-103678590D01*
G75*
G02*
X160048205Y-103746891I-43301J-25000D01*
G01*
X159701795Y-103946891D01*
G75*
G02*
X159633494Y-103928590I-25000J43301D01*
G01*
X159233494Y-103235770D01*
G75*
G02*
X159251795Y-103167469I43301J25000D01*
G01*
G37*
G36*
G01*
X159953276Y-102762468D02*
X160368968Y-102522468D01*
G75*
G02*
X160450930Y-102544430I30000J-51962D01*
G01*
X160840930Y-103219930D01*
G75*
G02*
X160818968Y-103301892I-51962J-30000D01*
G01*
X160403276Y-103541892D01*
G75*
G02*
X160321314Y-103519930I-30000J51962D01*
G01*
X159931314Y-102844430D01*
G75*
G02*
X159953276Y-102762468I51962J30000D01*
G01*
G37*
G36*
G01*
X160146724Y-105537532D02*
X159731032Y-105777532D01*
G75*
G02*
X159649070Y-105755570I-30000J51962D01*
G01*
X159259070Y-105080070D01*
G75*
G02*
X159281032Y-104998108I51962J30000D01*
G01*
X159696724Y-104758108D01*
G75*
G02*
X159778686Y-104780070I30000J-51962D01*
G01*
X160168686Y-105455570D01*
G75*
G02*
X160146724Y-105537532I-51962J-30000D01*
G01*
G37*
G36*
G01*
X159346724Y-104151892D02*
X158931032Y-104391892D01*
G75*
G02*
X158849070Y-104369930I-30000J51962D01*
G01*
X158459070Y-103694430D01*
G75*
G02*
X158481032Y-103612468I51962J30000D01*
G01*
X158896724Y-103372468D01*
G75*
G02*
X158978686Y-103394430I30000J-51962D01*
G01*
X159368686Y-104069930D01*
G75*
G02*
X159346724Y-104151892I-51962J-30000D01*
G01*
G37*
G36*
G01*
X161618968Y-104687532D02*
X161203276Y-104927532D01*
G75*
G02*
X161121314Y-104905570I-30000J51962D01*
G01*
X160731314Y-104230070D01*
G75*
G02*
X160753276Y-104148108I51962J30000D01*
G01*
X161168968Y-103908108D01*
G75*
G02*
X161250930Y-103930070I30000J-51962D01*
G01*
X161640930Y-104605570D01*
G75*
G02*
X161618968Y-104687532I-51962J-30000D01*
G01*
G37*
G36*
G01*
X154798205Y-105132531D02*
X154451795Y-105332531D01*
G75*
G02*
X154383494Y-105314230I-25000J43301D01*
G01*
X153908494Y-104491506D01*
G75*
G02*
X153926795Y-104423205I43301J25000D01*
G01*
X154273205Y-104223205D01*
G75*
G02*
X154341506Y-104241506I25000J-43301D01*
G01*
X154816506Y-105064230D01*
G75*
G02*
X154798205Y-105132531I-43301J-25000D01*
G01*
G37*
G36*
G01*
X153201795Y-103167469D02*
X153548205Y-102967469D01*
G75*
G02*
X153616506Y-102985770I25000J-43301D01*
G01*
X154016506Y-103678590D01*
G75*
G02*
X153998205Y-103746891I-43301J-25000D01*
G01*
X153651795Y-103946891D01*
G75*
G02*
X153583494Y-103928590I-25000J43301D01*
G01*
X153183494Y-103235770D01*
G75*
G02*
X153201795Y-103167469I43301J25000D01*
G01*
G37*
G36*
G01*
X153903276Y-102762468D02*
X154318968Y-102522468D01*
G75*
G02*
X154400930Y-102544430I30000J-51962D01*
G01*
X154790930Y-103219930D01*
G75*
G02*
X154768968Y-103301892I-51962J-30000D01*
G01*
X154353276Y-103541892D01*
G75*
G02*
X154271314Y-103519930I-30000J51962D01*
G01*
X153881314Y-102844430D01*
G75*
G02*
X153903276Y-102762468I51962J30000D01*
G01*
G37*
G36*
G01*
X154096724Y-105537532D02*
X153681032Y-105777532D01*
G75*
G02*
X153599070Y-105755570I-30000J51962D01*
G01*
X153209070Y-105080070D01*
G75*
G02*
X153231032Y-104998108I51962J30000D01*
G01*
X153646724Y-104758108D01*
G75*
G02*
X153728686Y-104780070I30000J-51962D01*
G01*
X154118686Y-105455570D01*
G75*
G02*
X154096724Y-105537532I-51962J-30000D01*
G01*
G37*
G36*
G01*
X153296724Y-104151892D02*
X152881032Y-104391892D01*
G75*
G02*
X152799070Y-104369930I-30000J51962D01*
G01*
X152409070Y-103694430D01*
G75*
G02*
X152431032Y-103612468I51962J30000D01*
G01*
X152846724Y-103372468D01*
G75*
G02*
X152928686Y-103394430I30000J-51962D01*
G01*
X153318686Y-104069930D01*
G75*
G02*
X153296724Y-104151892I-51962J-30000D01*
G01*
G37*
G36*
G01*
X155568968Y-104687532D02*
X155153276Y-104927532D01*
G75*
G02*
X155071314Y-104905570I-30000J51962D01*
G01*
X154681314Y-104230070D01*
G75*
G02*
X154703276Y-104148108I51962J30000D01*
G01*
X155118968Y-103908108D01*
G75*
G02*
X155200930Y-103930070I30000J-51962D01*
G01*
X155590930Y-104605570D01*
G75*
G02*
X155568968Y-104687532I-51962J-30000D01*
G01*
G37*
G36*
G01*
X151778205Y-110372531D02*
X151431795Y-110572531D01*
G75*
G02*
X151363494Y-110554230I-25000J43301D01*
G01*
X150888494Y-109731506D01*
G75*
G02*
X150906795Y-109663205I43301J25000D01*
G01*
X151253205Y-109463205D01*
G75*
G02*
X151321506Y-109481506I25000J-43301D01*
G01*
X151796506Y-110304230D01*
G75*
G02*
X151778205Y-110372531I-43301J-25000D01*
G01*
G37*
G36*
G01*
X150181795Y-108407469D02*
X150528205Y-108207469D01*
G75*
G02*
X150596506Y-108225770I25000J-43301D01*
G01*
X150996506Y-108918590D01*
G75*
G02*
X150978205Y-108986891I-43301J-25000D01*
G01*
X150631795Y-109186891D01*
G75*
G02*
X150563494Y-109168590I-25000J43301D01*
G01*
X150163494Y-108475770D01*
G75*
G02*
X150181795Y-108407469I43301J25000D01*
G01*
G37*
G36*
G01*
X150883276Y-108002468D02*
X151298968Y-107762468D01*
G75*
G02*
X151380930Y-107784430I30000J-51962D01*
G01*
X151770930Y-108459930D01*
G75*
G02*
X151748968Y-108541892I-51962J-30000D01*
G01*
X151333276Y-108781892D01*
G75*
G02*
X151251314Y-108759930I-30000J51962D01*
G01*
X150861314Y-108084430D01*
G75*
G02*
X150883276Y-108002468I51962J30000D01*
G01*
G37*
G36*
G01*
X151076724Y-110777532D02*
X150661032Y-111017532D01*
G75*
G02*
X150579070Y-110995570I-30000J51962D01*
G01*
X150189070Y-110320070D01*
G75*
G02*
X150211032Y-110238108I51962J30000D01*
G01*
X150626724Y-109998108D01*
G75*
G02*
X150708686Y-110020070I30000J-51962D01*
G01*
X151098686Y-110695570D01*
G75*
G02*
X151076724Y-110777532I-51962J-30000D01*
G01*
G37*
G36*
G01*
X150276724Y-109391892D02*
X149861032Y-109631892D01*
G75*
G02*
X149779070Y-109609930I-30000J51962D01*
G01*
X149389070Y-108934430D01*
G75*
G02*
X149411032Y-108852468I51962J30000D01*
G01*
X149826724Y-108612468D01*
G75*
G02*
X149908686Y-108634430I30000J-51962D01*
G01*
X150298686Y-109309930D01*
G75*
G02*
X150276724Y-109391892I-51962J-30000D01*
G01*
G37*
G36*
G01*
X152548968Y-109927532D02*
X152133276Y-110167532D01*
G75*
G02*
X152051314Y-110145570I-30000J51962D01*
G01*
X151661314Y-109470070D01*
G75*
G02*
X151683276Y-109388108I51962J30000D01*
G01*
X152098968Y-109148108D01*
G75*
G02*
X152180930Y-109170070I30000J-51962D01*
G01*
X152570930Y-109845570D01*
G75*
G02*
X152548968Y-109927532I-51962J-30000D01*
G01*
G37*
G36*
G01*
X145718205Y-110362531D02*
X145371795Y-110562531D01*
G75*
G02*
X145303494Y-110544230I-25000J43301D01*
G01*
X144828494Y-109721506D01*
G75*
G02*
X144846795Y-109653205I43301J25000D01*
G01*
X145193205Y-109453205D01*
G75*
G02*
X145261506Y-109471506I25000J-43301D01*
G01*
X145736506Y-110294230D01*
G75*
G02*
X145718205Y-110362531I-43301J-25000D01*
G01*
G37*
G36*
G01*
X144121795Y-108397469D02*
X144468205Y-108197469D01*
G75*
G02*
X144536506Y-108215770I25000J-43301D01*
G01*
X144936506Y-108908590D01*
G75*
G02*
X144918205Y-108976891I-43301J-25000D01*
G01*
X144571795Y-109176891D01*
G75*
G02*
X144503494Y-109158590I-25000J43301D01*
G01*
X144103494Y-108465770D01*
G75*
G02*
X144121795Y-108397469I43301J25000D01*
G01*
G37*
G36*
G01*
X144823276Y-107992468D02*
X145238968Y-107752468D01*
G75*
G02*
X145320930Y-107774430I30000J-51962D01*
G01*
X145710930Y-108449930D01*
G75*
G02*
X145688968Y-108531892I-51962J-30000D01*
G01*
X145273276Y-108771892D01*
G75*
G02*
X145191314Y-108749930I-30000J51962D01*
G01*
X144801314Y-108074430D01*
G75*
G02*
X144823276Y-107992468I51962J30000D01*
G01*
G37*
G36*
G01*
X145016724Y-110767532D02*
X144601032Y-111007532D01*
G75*
G02*
X144519070Y-110985570I-30000J51962D01*
G01*
X144129070Y-110310070D01*
G75*
G02*
X144151032Y-110228108I51962J30000D01*
G01*
X144566724Y-109988108D01*
G75*
G02*
X144648686Y-110010070I30000J-51962D01*
G01*
X145038686Y-110685570D01*
G75*
G02*
X145016724Y-110767532I-51962J-30000D01*
G01*
G37*
G36*
G01*
X144216724Y-109381892D02*
X143801032Y-109621892D01*
G75*
G02*
X143719070Y-109599930I-30000J51962D01*
G01*
X143329070Y-108924430D01*
G75*
G02*
X143351032Y-108842468I51962J30000D01*
G01*
X143766724Y-108602468D01*
G75*
G02*
X143848686Y-108624430I30000J-51962D01*
G01*
X144238686Y-109299930D01*
G75*
G02*
X144216724Y-109381892I-51962J-30000D01*
G01*
G37*
G36*
G01*
X146488968Y-109917532D02*
X146073276Y-110157532D01*
G75*
G02*
X145991314Y-110135570I-30000J51962D01*
G01*
X145601314Y-109460070D01*
G75*
G02*
X145623276Y-109378108I51962J30000D01*
G01*
X146038968Y-109138108D01*
G75*
G02*
X146120930Y-109160070I30000J-51962D01*
G01*
X146510930Y-109835570D01*
G75*
G02*
X146488968Y-109917532I-51962J-30000D01*
G01*
G37*
G36*
G01*
X142698205Y-115602531D02*
X142351795Y-115802531D01*
G75*
G02*
X142283494Y-115784230I-25000J43301D01*
G01*
X141808494Y-114961506D01*
G75*
G02*
X141826795Y-114893205I43301J25000D01*
G01*
X142173205Y-114693205D01*
G75*
G02*
X142241506Y-114711506I25000J-43301D01*
G01*
X142716506Y-115534230D01*
G75*
G02*
X142698205Y-115602531I-43301J-25000D01*
G01*
G37*
G36*
G01*
X141101795Y-113637469D02*
X141448205Y-113437469D01*
G75*
G02*
X141516506Y-113455770I25000J-43301D01*
G01*
X141916506Y-114148590D01*
G75*
G02*
X141898205Y-114216891I-43301J-25000D01*
G01*
X141551795Y-114416891D01*
G75*
G02*
X141483494Y-114398590I-25000J43301D01*
G01*
X141083494Y-113705770D01*
G75*
G02*
X141101795Y-113637469I43301J25000D01*
G01*
G37*
G36*
G01*
X141803276Y-113232468D02*
X142218968Y-112992468D01*
G75*
G02*
X142300930Y-113014430I30000J-51962D01*
G01*
X142690930Y-113689930D01*
G75*
G02*
X142668968Y-113771892I-51962J-30000D01*
G01*
X142253276Y-114011892D01*
G75*
G02*
X142171314Y-113989930I-30000J51962D01*
G01*
X141781314Y-113314430D01*
G75*
G02*
X141803276Y-113232468I51962J30000D01*
G01*
G37*
G36*
G01*
X141996724Y-116007532D02*
X141581032Y-116247532D01*
G75*
G02*
X141499070Y-116225570I-30000J51962D01*
G01*
X141109070Y-115550070D01*
G75*
G02*
X141131032Y-115468108I51962J30000D01*
G01*
X141546724Y-115228108D01*
G75*
G02*
X141628686Y-115250070I30000J-51962D01*
G01*
X142018686Y-115925570D01*
G75*
G02*
X141996724Y-116007532I-51962J-30000D01*
G01*
G37*
G36*
G01*
X141196724Y-114621892D02*
X140781032Y-114861892D01*
G75*
G02*
X140699070Y-114839930I-30000J51962D01*
G01*
X140309070Y-114164430D01*
G75*
G02*
X140331032Y-114082468I51962J30000D01*
G01*
X140746724Y-113842468D01*
G75*
G02*
X140828686Y-113864430I30000J-51962D01*
G01*
X141218686Y-114539930D01*
G75*
G02*
X141196724Y-114621892I-51962J-30000D01*
G01*
G37*
G36*
G01*
X143468968Y-115157532D02*
X143053276Y-115397532D01*
G75*
G02*
X142971314Y-115375570I-30000J51962D01*
G01*
X142581314Y-114700070D01*
G75*
G02*
X142603276Y-114618108I51962J30000D01*
G01*
X143018968Y-114378108D01*
G75*
G02*
X143100930Y-114400070I30000J-51962D01*
G01*
X143490930Y-115075570D01*
G75*
G02*
X143468968Y-115157532I-51962J-30000D01*
G01*
G37*
G36*
G01*
X135408205Y-115812531D02*
X135061795Y-115612531D01*
G75*
G02*
X135043494Y-115544230I25000J43301D01*
G01*
X135518494Y-114721506D01*
G75*
G02*
X135586795Y-114703205I43301J-25000D01*
G01*
X135933205Y-114903205D01*
G75*
G02*
X135951506Y-114971506I-25000J-43301D01*
G01*
X135476506Y-115794230D01*
G75*
G02*
X135408205Y-115812531I-43301J25000D01*
G01*
G37*
G36*
G01*
X136311795Y-113447469D02*
X136658205Y-113647469D01*
G75*
G02*
X136676506Y-113715770I-25000J-43301D01*
G01*
X136276506Y-114408590D01*
G75*
G02*
X136208205Y-114426891I-43301J25000D01*
G01*
X135861795Y-114226891D01*
G75*
G02*
X135843494Y-114158590I25000J43301D01*
G01*
X136243494Y-113465770D01*
G75*
G02*
X136311795Y-113447469I43301J-25000D01*
G01*
G37*
G36*
G01*
X137013276Y-113852468D02*
X137428968Y-114092468D01*
G75*
G02*
X137450930Y-114174430I-30000J-51962D01*
G01*
X137060930Y-114849930D01*
G75*
G02*
X136978968Y-114871892I-51962J30000D01*
G01*
X136563276Y-114631892D01*
G75*
G02*
X136541314Y-114549930I30000J51962D01*
G01*
X136931314Y-113874430D01*
G75*
G02*
X137013276Y-113852468I51962J-30000D01*
G01*
G37*
G36*
G01*
X134706724Y-115407532D02*
X134291032Y-115167532D01*
G75*
G02*
X134269070Y-115085570I30000J51962D01*
G01*
X134659070Y-114410070D01*
G75*
G02*
X134741032Y-114388108I51962J-30000D01*
G01*
X135156724Y-114628108D01*
G75*
G02*
X135178686Y-114710070I-30000J-51962D01*
G01*
X134788686Y-115385570D01*
G75*
G02*
X134706724Y-115407532I-51962J30000D01*
G01*
G37*
G36*
G01*
X135506724Y-114021892D02*
X135091032Y-113781892D01*
G75*
G02*
X135069070Y-113699930I30000J51962D01*
G01*
X135459070Y-113024430D01*
G75*
G02*
X135541032Y-113002468I51962J-30000D01*
G01*
X135956724Y-113242468D01*
G75*
G02*
X135978686Y-113324430I-30000J-51962D01*
G01*
X135588686Y-113999930D01*
G75*
G02*
X135506724Y-114021892I-51962J30000D01*
G01*
G37*
G36*
G01*
X136178968Y-116257532D02*
X135763276Y-116017532D01*
G75*
G02*
X135741314Y-115935570I30000J51962D01*
G01*
X136131314Y-115260070D01*
G75*
G02*
X136213276Y-115238108I51962J-30000D01*
G01*
X136628968Y-115478108D01*
G75*
G02*
X136650930Y-115560070I-30000J-51962D01*
G01*
X136260930Y-116235570D01*
G75*
G02*
X136178968Y-116257532I-51962J30000D01*
G01*
G37*
G36*
G01*
X131580000Y-109590000D02*
X131580000Y-109190000D01*
G75*
G02*
X131630000Y-109140000I50000J0D01*
G01*
X132580000Y-109140000D01*
G75*
G02*
X132630000Y-109190000I0J-50000D01*
G01*
X132630000Y-109590000D01*
G75*
G02*
X132580000Y-109640000I-50000J0D01*
G01*
X131630000Y-109640000D01*
G75*
G02*
X131580000Y-109590000I0J50000D01*
G01*
G37*
G36*
G01*
X134080000Y-109190000D02*
X134080000Y-109590000D01*
G75*
G02*
X134030000Y-109640000I-50000J0D01*
G01*
X133230000Y-109640000D01*
G75*
G02*
X133180000Y-109590000I0J50000D01*
G01*
X133180000Y-109190000D01*
G75*
G02*
X133230000Y-109140000I50000J0D01*
G01*
X134030000Y-109140000D01*
G75*
G02*
X134080000Y-109190000I0J-50000D01*
G01*
G37*
G36*
G01*
X134080000Y-110000000D02*
X134080000Y-110480000D01*
G75*
G02*
X134020000Y-110540000I-60000J0D01*
G01*
X133240000Y-110540000D01*
G75*
G02*
X133180000Y-110480000I0J60000D01*
G01*
X133180000Y-110000000D01*
G75*
G02*
X133240000Y-109940000I60000J0D01*
G01*
X134020000Y-109940000D01*
G75*
G02*
X134080000Y-110000000I0J-60000D01*
G01*
G37*
G36*
G01*
X131580000Y-108780000D02*
X131580000Y-108300000D01*
G75*
G02*
X131640000Y-108240000I60000J0D01*
G01*
X132420000Y-108240000D01*
G75*
G02*
X132480000Y-108300000I0J-60000D01*
G01*
X132480000Y-108780000D01*
G75*
G02*
X132420000Y-108840000I-60000J0D01*
G01*
X131640000Y-108840000D01*
G75*
G02*
X131580000Y-108780000I0J60000D01*
G01*
G37*
G36*
G01*
X133180000Y-108780000D02*
X133180000Y-108300000D01*
G75*
G02*
X133240000Y-108240000I60000J0D01*
G01*
X134020000Y-108240000D01*
G75*
G02*
X134080000Y-108300000I0J-60000D01*
G01*
X134080000Y-108780000D01*
G75*
G02*
X134020000Y-108840000I-60000J0D01*
G01*
X133240000Y-108840000D01*
G75*
G02*
X133180000Y-108780000I0J60000D01*
G01*
G37*
G36*
G01*
X131580000Y-110480000D02*
X131580000Y-110000000D01*
G75*
G02*
X131640000Y-109940000I60000J0D01*
G01*
X132420000Y-109940000D01*
G75*
G02*
X132480000Y-110000000I0J-60000D01*
G01*
X132480000Y-110480000D01*
G75*
G02*
X132420000Y-110540000I-60000J0D01*
G01*
X131640000Y-110540000D01*
G75*
G02*
X131580000Y-110480000I0J60000D01*
G01*
G37*
G36*
G01*
X134600000Y-104350000D02*
X134600000Y-103950000D01*
G75*
G02*
X134650000Y-103900000I50000J0D01*
G01*
X135600000Y-103900000D01*
G75*
G02*
X135650000Y-103950000I0J-50000D01*
G01*
X135650000Y-104350000D01*
G75*
G02*
X135600000Y-104400000I-50000J0D01*
G01*
X134650000Y-104400000D01*
G75*
G02*
X134600000Y-104350000I0J50000D01*
G01*
G37*
G36*
G01*
X137100000Y-103950000D02*
X137100000Y-104350000D01*
G75*
G02*
X137050000Y-104400000I-50000J0D01*
G01*
X136250000Y-104400000D01*
G75*
G02*
X136200000Y-104350000I0J50000D01*
G01*
X136200000Y-103950000D01*
G75*
G02*
X136250000Y-103900000I50000J0D01*
G01*
X137050000Y-103900000D01*
G75*
G02*
X137100000Y-103950000I0J-50000D01*
G01*
G37*
G36*
G01*
X137100000Y-104760000D02*
X137100000Y-105240000D01*
G75*
G02*
X137040000Y-105300000I-60000J0D01*
G01*
X136260000Y-105300000D01*
G75*
G02*
X136200000Y-105240000I0J60000D01*
G01*
X136200000Y-104760000D01*
G75*
G02*
X136260000Y-104700000I60000J0D01*
G01*
X137040000Y-104700000D01*
G75*
G02*
X137100000Y-104760000I0J-60000D01*
G01*
G37*
G36*
G01*
X134600000Y-103540000D02*
X134600000Y-103060000D01*
G75*
G02*
X134660000Y-103000000I60000J0D01*
G01*
X135440000Y-103000000D01*
G75*
G02*
X135500000Y-103060000I0J-60000D01*
G01*
X135500000Y-103540000D01*
G75*
G02*
X135440000Y-103600000I-60000J0D01*
G01*
X134660000Y-103600000D01*
G75*
G02*
X134600000Y-103540000I0J60000D01*
G01*
G37*
G36*
G01*
X136200000Y-103540000D02*
X136200000Y-103060000D01*
G75*
G02*
X136260000Y-103000000I60000J0D01*
G01*
X137040000Y-103000000D01*
G75*
G02*
X137100000Y-103060000I0J-60000D01*
G01*
X137100000Y-103540000D01*
G75*
G02*
X137040000Y-103600000I-60000J0D01*
G01*
X136260000Y-103600000D01*
G75*
G02*
X136200000Y-103540000I0J60000D01*
G01*
G37*
G36*
G01*
X134600000Y-105240000D02*
X134600000Y-104760000D01*
G75*
G02*
X134660000Y-104700000I60000J0D01*
G01*
X135440000Y-104700000D01*
G75*
G02*
X135500000Y-104760000I0J-60000D01*
G01*
X135500000Y-105240000D01*
G75*
G02*
X135440000Y-105300000I-60000J0D01*
G01*
X134660000Y-105300000D01*
G75*
G02*
X134600000Y-105240000I0J60000D01*
G01*
G37*
G36*
G01*
X132390705Y-100034663D02*
X132044295Y-99834663D01*
G75*
G02*
X132025994Y-99766362I25000J43301D01*
G01*
X132500994Y-98943638D01*
G75*
G02*
X132569295Y-98925337I43301J-25000D01*
G01*
X132915705Y-99125337D01*
G75*
G02*
X132934006Y-99193638I-25000J-43301D01*
G01*
X132459006Y-100016362D01*
G75*
G02*
X132390705Y-100034663I-43301J25000D01*
G01*
G37*
G36*
G01*
X133294295Y-97669601D02*
X133640705Y-97869601D01*
G75*
G02*
X133659006Y-97937902I-25000J-43301D01*
G01*
X133259006Y-98630722D01*
G75*
G02*
X133190705Y-98649023I-43301J25000D01*
G01*
X132844295Y-98449023D01*
G75*
G02*
X132825994Y-98380722I25000J43301D01*
G01*
X133225994Y-97687902D01*
G75*
G02*
X133294295Y-97669601I43301J-25000D01*
G01*
G37*
G36*
G01*
X133995776Y-98074600D02*
X134411468Y-98314600D01*
G75*
G02*
X134433430Y-98396562I-30000J-51962D01*
G01*
X134043430Y-99072062D01*
G75*
G02*
X133961468Y-99094024I-51962J30000D01*
G01*
X133545776Y-98854024D01*
G75*
G02*
X133523814Y-98772062I30000J51962D01*
G01*
X133913814Y-98096562D01*
G75*
G02*
X133995776Y-98074600I51962J-30000D01*
G01*
G37*
G36*
G01*
X131689224Y-99629664D02*
X131273532Y-99389664D01*
G75*
G02*
X131251570Y-99307702I30000J51962D01*
G01*
X131641570Y-98632202D01*
G75*
G02*
X131723532Y-98610240I51962J-30000D01*
G01*
X132139224Y-98850240D01*
G75*
G02*
X132161186Y-98932202I-30000J-51962D01*
G01*
X131771186Y-99607702D01*
G75*
G02*
X131689224Y-99629664I-51962J30000D01*
G01*
G37*
G36*
G01*
X132489224Y-98244024D02*
X132073532Y-98004024D01*
G75*
G02*
X132051570Y-97922062I30000J51962D01*
G01*
X132441570Y-97246562D01*
G75*
G02*
X132523532Y-97224600I51962J-30000D01*
G01*
X132939224Y-97464600D01*
G75*
G02*
X132961186Y-97546562I-30000J-51962D01*
G01*
X132571186Y-98222062D01*
G75*
G02*
X132489224Y-98244024I-51962J30000D01*
G01*
G37*
G36*
G01*
X133161468Y-100479664D02*
X132745776Y-100239664D01*
G75*
G02*
X132723814Y-100157702I30000J51962D01*
G01*
X133113814Y-99482202D01*
G75*
G02*
X133195776Y-99460240I51962J-30000D01*
G01*
X133611468Y-99700240D01*
G75*
G02*
X133633430Y-99782202I-30000J-51962D01*
G01*
X133243430Y-100457702D01*
G75*
G02*
X133161468Y-100479664I-51962J30000D01*
G01*
G37*
G36*
G01*
X127558205Y-99862531D02*
X127211795Y-100062531D01*
G75*
G02*
X127143494Y-100044230I-25000J43301D01*
G01*
X126668494Y-99221506D01*
G75*
G02*
X126686795Y-99153205I43301J25000D01*
G01*
X127033205Y-98953205D01*
G75*
G02*
X127101506Y-98971506I25000J-43301D01*
G01*
X127576506Y-99794230D01*
G75*
G02*
X127558205Y-99862531I-43301J-25000D01*
G01*
G37*
G36*
G01*
X125961795Y-97897469D02*
X126308205Y-97697469D01*
G75*
G02*
X126376506Y-97715770I25000J-43301D01*
G01*
X126776506Y-98408590D01*
G75*
G02*
X126758205Y-98476891I-43301J-25000D01*
G01*
X126411795Y-98676891D01*
G75*
G02*
X126343494Y-98658590I-25000J43301D01*
G01*
X125943494Y-97965770D01*
G75*
G02*
X125961795Y-97897469I43301J25000D01*
G01*
G37*
G36*
G01*
X126663276Y-97492468D02*
X127078968Y-97252468D01*
G75*
G02*
X127160930Y-97274430I30000J-51962D01*
G01*
X127550930Y-97949930D01*
G75*
G02*
X127528968Y-98031892I-51962J-30000D01*
G01*
X127113276Y-98271892D01*
G75*
G02*
X127031314Y-98249930I-30000J51962D01*
G01*
X126641314Y-97574430D01*
G75*
G02*
X126663276Y-97492468I51962J30000D01*
G01*
G37*
G36*
G01*
X126856724Y-100267532D02*
X126441032Y-100507532D01*
G75*
G02*
X126359070Y-100485570I-30000J51962D01*
G01*
X125969070Y-99810070D01*
G75*
G02*
X125991032Y-99728108I51962J30000D01*
G01*
X126406724Y-99488108D01*
G75*
G02*
X126488686Y-99510070I30000J-51962D01*
G01*
X126878686Y-100185570D01*
G75*
G02*
X126856724Y-100267532I-51962J-30000D01*
G01*
G37*
G36*
G01*
X126056724Y-98881892D02*
X125641032Y-99121892D01*
G75*
G02*
X125559070Y-99099930I-30000J51962D01*
G01*
X125169070Y-98424430D01*
G75*
G02*
X125191032Y-98342468I51962J30000D01*
G01*
X125606724Y-98102468D01*
G75*
G02*
X125688686Y-98124430I30000J-51962D01*
G01*
X126078686Y-98799930D01*
G75*
G02*
X126056724Y-98881892I-51962J-30000D01*
G01*
G37*
G36*
G01*
X128328968Y-99417532D02*
X127913276Y-99657532D01*
G75*
G02*
X127831314Y-99635570I-30000J51962D01*
G01*
X127441314Y-98960070D01*
G75*
G02*
X127463276Y-98878108I51962J30000D01*
G01*
X127878968Y-98638108D01*
G75*
G02*
X127960930Y-98660070I30000J-51962D01*
G01*
X128350930Y-99335570D01*
G75*
G02*
X128328968Y-99417532I-51962J-30000D01*
G01*
G37*
G36*
G01*
X124005000Y-105400000D02*
X123605000Y-105400000D01*
G75*
G02*
X123555000Y-105350000I0J50000D01*
G01*
X123555000Y-104400000D01*
G75*
G02*
X123605000Y-104350000I50000J0D01*
G01*
X124005000Y-104350000D01*
G75*
G02*
X124055000Y-104400000I0J-50000D01*
G01*
X124055000Y-105350000D01*
G75*
G02*
X124005000Y-105400000I-50000J0D01*
G01*
G37*
G36*
G01*
X123605000Y-102900000D02*
X124005000Y-102900000D01*
G75*
G02*
X124055000Y-102950000I0J-50000D01*
G01*
X124055000Y-103750000D01*
G75*
G02*
X124005000Y-103800000I-50000J0D01*
G01*
X123605000Y-103800000D01*
G75*
G02*
X123555000Y-103750000I0J50000D01*
G01*
X123555000Y-102950000D01*
G75*
G02*
X123605000Y-102900000I50000J0D01*
G01*
G37*
G36*
G01*
X124415000Y-102900000D02*
X124895000Y-102900000D01*
G75*
G02*
X124955000Y-102960000I0J-60000D01*
G01*
X124955000Y-103740000D01*
G75*
G02*
X124895000Y-103800000I-60000J0D01*
G01*
X124415000Y-103800000D01*
G75*
G02*
X124355000Y-103740000I0J60000D01*
G01*
X124355000Y-102960000D01*
G75*
G02*
X124415000Y-102900000I60000J0D01*
G01*
G37*
G36*
G01*
X123195000Y-105400000D02*
X122715000Y-105400000D01*
G75*
G02*
X122655000Y-105340000I0J60000D01*
G01*
X122655000Y-104560000D01*
G75*
G02*
X122715000Y-104500000I60000J0D01*
G01*
X123195000Y-104500000D01*
G75*
G02*
X123255000Y-104560000I0J-60000D01*
G01*
X123255000Y-105340000D01*
G75*
G02*
X123195000Y-105400000I-60000J0D01*
G01*
G37*
G36*
G01*
X123195000Y-103800000D02*
X122715000Y-103800000D01*
G75*
G02*
X122655000Y-103740000I0J60000D01*
G01*
X122655000Y-102960000D01*
G75*
G02*
X122715000Y-102900000I60000J0D01*
G01*
X123195000Y-102900000D01*
G75*
G02*
X123255000Y-102960000I0J-60000D01*
G01*
X123255000Y-103740000D01*
G75*
G02*
X123195000Y-103800000I-60000J0D01*
G01*
G37*
G36*
G01*
X124895000Y-105400000D02*
X124415000Y-105400000D01*
G75*
G02*
X124355000Y-105340000I0J60000D01*
G01*
X124355000Y-104560000D01*
G75*
G02*
X124415000Y-104500000I60000J0D01*
G01*
X124895000Y-104500000D01*
G75*
G02*
X124955000Y-104560000I0J-60000D01*
G01*
X124955000Y-105340000D01*
G75*
G02*
X124895000Y-105400000I-60000J0D01*
G01*
G37*
G36*
G01*
X119691629Y-103008787D02*
X119451213Y-102768371D01*
G75*
G02*
X119451213Y-102570381I98995J98995D01*
G01*
X119649203Y-102372391D01*
G75*
G02*
X119847193Y-102372391I98995J-98995D01*
G01*
X120087609Y-102612807D01*
G75*
G02*
X120087609Y-102810797I-98995J-98995D01*
G01*
X119889619Y-103008787D01*
G75*
G02*
X119691629Y-103008787I-98995J98995D01*
G01*
G37*
G36*
G01*
X119012807Y-103687609D02*
X118772391Y-103447193D01*
G75*
G02*
X118772391Y-103249203I98995J98995D01*
G01*
X118970381Y-103051213D01*
G75*
G02*
X119168371Y-103051213I98995J-98995D01*
G01*
X119408787Y-103291629D01*
G75*
G02*
X119408787Y-103489619I-98995J-98995D01*
G01*
X119210797Y-103687609D01*
G75*
G02*
X119012807Y-103687609I-98995J98995D01*
G01*
G37*
G36*
G01*
X179689389Y-98911750D02*
X179390611Y-98739250D01*
G75*
G02*
X179336622Y-98537761I73750J127739D01*
G01*
X179484122Y-98282283D01*
G75*
G02*
X179685611Y-98228294I127739J-73750D01*
G01*
X179984389Y-98400794D01*
G75*
G02*
X180038378Y-98602283I-73750J-127739D01*
G01*
X179890878Y-98857761D01*
G75*
G02*
X179689389Y-98911750I-127739J73750D01*
G01*
G37*
G36*
G01*
X180174389Y-98071706D02*
X179875611Y-97899206D01*
G75*
G02*
X179821622Y-97697717I73750J127739D01*
G01*
X179969122Y-97442239D01*
G75*
G02*
X180170611Y-97388250I127739J-73750D01*
G01*
X180469389Y-97560750D01*
G75*
G02*
X180523378Y-97762239I-73750J-127739D01*
G01*
X180375878Y-98017717D01*
G75*
G02*
X180174389Y-98071706I-127739J73750D01*
G01*
G37*
G36*
G01*
X108255000Y-104577500D02*
X108255000Y-104922500D01*
G75*
G02*
X108107500Y-105070000I-147500J0D01*
G01*
X107812500Y-105070000D01*
G75*
G02*
X107665000Y-104922500I0J147500D01*
G01*
X107665000Y-104577500D01*
G75*
G02*
X107812500Y-104430000I147500J0D01*
G01*
X108107500Y-104430000D01*
G75*
G02*
X108255000Y-104577500I0J-147500D01*
G01*
G37*
G36*
G01*
X109225000Y-104577500D02*
X109225000Y-104922500D01*
G75*
G02*
X109077500Y-105070000I-147500J0D01*
G01*
X108782500Y-105070000D01*
G75*
G02*
X108635000Y-104922500I0J147500D01*
G01*
X108635000Y-104577500D01*
G75*
G02*
X108782500Y-104430000I147500J0D01*
G01*
X109077500Y-104430000D01*
G75*
G02*
X109225000Y-104577500I0J-147500D01*
G01*
G37*
G36*
G01*
X114620000Y-103509999D02*
X114620000Y-106110001D01*
G75*
G02*
X114370001Y-106360000I-249999J0D01*
G01*
X111769999Y-106360000D01*
G75*
G02*
X111520000Y-106110001I0J249999D01*
G01*
X111520000Y-103509999D01*
G75*
G02*
X111769999Y-103260000I249999J0D01*
G01*
X114370001Y-103260000D01*
G75*
G02*
X114620000Y-103509999I0J-249999D01*
G01*
G37*
G36*
G01*
X115945000Y-102997500D02*
X115945000Y-103122500D01*
G75*
G02*
X115882500Y-103185000I-62500J0D01*
G01*
X115132500Y-103185000D01*
G75*
G02*
X115070000Y-103122500I0J62500D01*
G01*
X115070000Y-102997500D01*
G75*
G02*
X115132500Y-102935000I62500J0D01*
G01*
X115882500Y-102935000D01*
G75*
G02*
X115945000Y-102997500I0J-62500D01*
G01*
G37*
G36*
G01*
X115945000Y-103497500D02*
X115945000Y-103622500D01*
G75*
G02*
X115882500Y-103685000I-62500J0D01*
G01*
X115132500Y-103685000D01*
G75*
G02*
X115070000Y-103622500I0J62500D01*
G01*
X115070000Y-103497500D01*
G75*
G02*
X115132500Y-103435000I62500J0D01*
G01*
X115882500Y-103435000D01*
G75*
G02*
X115945000Y-103497500I0J-62500D01*
G01*
G37*
G36*
G01*
X115945000Y-103997500D02*
X115945000Y-104122500D01*
G75*
G02*
X115882500Y-104185000I-62500J0D01*
G01*
X115132500Y-104185000D01*
G75*
G02*
X115070000Y-104122500I0J62500D01*
G01*
X115070000Y-103997500D01*
G75*
G02*
X115132500Y-103935000I62500J0D01*
G01*
X115882500Y-103935000D01*
G75*
G02*
X115945000Y-103997500I0J-62500D01*
G01*
G37*
G36*
G01*
X115945000Y-104497500D02*
X115945000Y-104622500D01*
G75*
G02*
X115882500Y-104685000I-62500J0D01*
G01*
X115132500Y-104685000D01*
G75*
G02*
X115070000Y-104622500I0J62500D01*
G01*
X115070000Y-104497500D01*
G75*
G02*
X115132500Y-104435000I62500J0D01*
G01*
X115882500Y-104435000D01*
G75*
G02*
X115945000Y-104497500I0J-62500D01*
G01*
G37*
G36*
G01*
X115945000Y-104997500D02*
X115945000Y-105122500D01*
G75*
G02*
X115882500Y-105185000I-62500J0D01*
G01*
X115132500Y-105185000D01*
G75*
G02*
X115070000Y-105122500I0J62500D01*
G01*
X115070000Y-104997500D01*
G75*
G02*
X115132500Y-104935000I62500J0D01*
G01*
X115882500Y-104935000D01*
G75*
G02*
X115945000Y-104997500I0J-62500D01*
G01*
G37*
G36*
G01*
X115945000Y-105497500D02*
X115945000Y-105622500D01*
G75*
G02*
X115882500Y-105685000I-62500J0D01*
G01*
X115132500Y-105685000D01*
G75*
G02*
X115070000Y-105622500I0J62500D01*
G01*
X115070000Y-105497500D01*
G75*
G02*
X115132500Y-105435000I62500J0D01*
G01*
X115882500Y-105435000D01*
G75*
G02*
X115945000Y-105497500I0J-62500D01*
G01*
G37*
G36*
G01*
X115945000Y-105997500D02*
X115945000Y-106122500D01*
G75*
G02*
X115882500Y-106185000I-62500J0D01*
G01*
X115132500Y-106185000D01*
G75*
G02*
X115070000Y-106122500I0J62500D01*
G01*
X115070000Y-105997500D01*
G75*
G02*
X115132500Y-105935000I62500J0D01*
G01*
X115882500Y-105935000D01*
G75*
G02*
X115945000Y-105997500I0J-62500D01*
G01*
G37*
G36*
G01*
X115945000Y-106497500D02*
X115945000Y-106622500D01*
G75*
G02*
X115882500Y-106685000I-62500J0D01*
G01*
X115132500Y-106685000D01*
G75*
G02*
X115070000Y-106622500I0J62500D01*
G01*
X115070000Y-106497500D01*
G75*
G02*
X115132500Y-106435000I62500J0D01*
G01*
X115882500Y-106435000D01*
G75*
G02*
X115945000Y-106497500I0J-62500D01*
G01*
G37*
G36*
G01*
X114945000Y-106872500D02*
X114945000Y-107622500D01*
G75*
G02*
X114882500Y-107685000I-62500J0D01*
G01*
X114757500Y-107685000D01*
G75*
G02*
X114695000Y-107622500I0J62500D01*
G01*
X114695000Y-106872500D01*
G75*
G02*
X114757500Y-106810000I62500J0D01*
G01*
X114882500Y-106810000D01*
G75*
G02*
X114945000Y-106872500I0J-62500D01*
G01*
G37*
G36*
G01*
X114445000Y-106872500D02*
X114445000Y-107622500D01*
G75*
G02*
X114382500Y-107685000I-62500J0D01*
G01*
X114257500Y-107685000D01*
G75*
G02*
X114195000Y-107622500I0J62500D01*
G01*
X114195000Y-106872500D01*
G75*
G02*
X114257500Y-106810000I62500J0D01*
G01*
X114382500Y-106810000D01*
G75*
G02*
X114445000Y-106872500I0J-62500D01*
G01*
G37*
G36*
G01*
X113945000Y-106872500D02*
X113945000Y-107622500D01*
G75*
G02*
X113882500Y-107685000I-62500J0D01*
G01*
X113757500Y-107685000D01*
G75*
G02*
X113695000Y-107622500I0J62500D01*
G01*
X113695000Y-106872500D01*
G75*
G02*
X113757500Y-106810000I62500J0D01*
G01*
X113882500Y-106810000D01*
G75*
G02*
X113945000Y-106872500I0J-62500D01*
G01*
G37*
G36*
G01*
X113445000Y-106872500D02*
X113445000Y-107622500D01*
G75*
G02*
X113382500Y-107685000I-62500J0D01*
G01*
X113257500Y-107685000D01*
G75*
G02*
X113195000Y-107622500I0J62500D01*
G01*
X113195000Y-106872500D01*
G75*
G02*
X113257500Y-106810000I62500J0D01*
G01*
X113382500Y-106810000D01*
G75*
G02*
X113445000Y-106872500I0J-62500D01*
G01*
G37*
G36*
G01*
X112945000Y-106872500D02*
X112945000Y-107622500D01*
G75*
G02*
X112882500Y-107685000I-62500J0D01*
G01*
X112757500Y-107685000D01*
G75*
G02*
X112695000Y-107622500I0J62500D01*
G01*
X112695000Y-106872500D01*
G75*
G02*
X112757500Y-106810000I62500J0D01*
G01*
X112882500Y-106810000D01*
G75*
G02*
X112945000Y-106872500I0J-62500D01*
G01*
G37*
G36*
G01*
X112445000Y-106872500D02*
X112445000Y-107622500D01*
G75*
G02*
X112382500Y-107685000I-62500J0D01*
G01*
X112257500Y-107685000D01*
G75*
G02*
X112195000Y-107622500I0J62500D01*
G01*
X112195000Y-106872500D01*
G75*
G02*
X112257500Y-106810000I62500J0D01*
G01*
X112382500Y-106810000D01*
G75*
G02*
X112445000Y-106872500I0J-62500D01*
G01*
G37*
G36*
G01*
X111945000Y-106872500D02*
X111945000Y-107622500D01*
G75*
G02*
X111882500Y-107685000I-62500J0D01*
G01*
X111757500Y-107685000D01*
G75*
G02*
X111695000Y-107622500I0J62500D01*
G01*
X111695000Y-106872500D01*
G75*
G02*
X111757500Y-106810000I62500J0D01*
G01*
X111882500Y-106810000D01*
G75*
G02*
X111945000Y-106872500I0J-62500D01*
G01*
G37*
G36*
G01*
X111445000Y-106872500D02*
X111445000Y-107622500D01*
G75*
G02*
X111382500Y-107685000I-62500J0D01*
G01*
X111257500Y-107685000D01*
G75*
G02*
X111195000Y-107622500I0J62500D01*
G01*
X111195000Y-106872500D01*
G75*
G02*
X111257500Y-106810000I62500J0D01*
G01*
X111382500Y-106810000D01*
G75*
G02*
X111445000Y-106872500I0J-62500D01*
G01*
G37*
G36*
G01*
X111070000Y-106497500D02*
X111070000Y-106622500D01*
G75*
G02*
X111007500Y-106685000I-62500J0D01*
G01*
X110257500Y-106685000D01*
G75*
G02*
X110195000Y-106622500I0J62500D01*
G01*
X110195000Y-106497500D01*
G75*
G02*
X110257500Y-106435000I62500J0D01*
G01*
X111007500Y-106435000D01*
G75*
G02*
X111070000Y-106497500I0J-62500D01*
G01*
G37*
G36*
G01*
X111070000Y-105997500D02*
X111070000Y-106122500D01*
G75*
G02*
X111007500Y-106185000I-62500J0D01*
G01*
X110257500Y-106185000D01*
G75*
G02*
X110195000Y-106122500I0J62500D01*
G01*
X110195000Y-105997500D01*
G75*
G02*
X110257500Y-105935000I62500J0D01*
G01*
X111007500Y-105935000D01*
G75*
G02*
X111070000Y-105997500I0J-62500D01*
G01*
G37*
G36*
G01*
X111070000Y-105497500D02*
X111070000Y-105622500D01*
G75*
G02*
X111007500Y-105685000I-62500J0D01*
G01*
X110257500Y-105685000D01*
G75*
G02*
X110195000Y-105622500I0J62500D01*
G01*
X110195000Y-105497500D01*
G75*
G02*
X110257500Y-105435000I62500J0D01*
G01*
X111007500Y-105435000D01*
G75*
G02*
X111070000Y-105497500I0J-62500D01*
G01*
G37*
G36*
G01*
X111070000Y-104997500D02*
X111070000Y-105122500D01*
G75*
G02*
X111007500Y-105185000I-62500J0D01*
G01*
X110257500Y-105185000D01*
G75*
G02*
X110195000Y-105122500I0J62500D01*
G01*
X110195000Y-104997500D01*
G75*
G02*
X110257500Y-104935000I62500J0D01*
G01*
X111007500Y-104935000D01*
G75*
G02*
X111070000Y-104997500I0J-62500D01*
G01*
G37*
G36*
G01*
X111070000Y-104497500D02*
X111070000Y-104622500D01*
G75*
G02*
X111007500Y-104685000I-62500J0D01*
G01*
X110257500Y-104685000D01*
G75*
G02*
X110195000Y-104622500I0J62500D01*
G01*
X110195000Y-104497500D01*
G75*
G02*
X110257500Y-104435000I62500J0D01*
G01*
X111007500Y-104435000D01*
G75*
G02*
X111070000Y-104497500I0J-62500D01*
G01*
G37*
G36*
G01*
X111070000Y-103997500D02*
X111070000Y-104122500D01*
G75*
G02*
X111007500Y-104185000I-62500J0D01*
G01*
X110257500Y-104185000D01*
G75*
G02*
X110195000Y-104122500I0J62500D01*
G01*
X110195000Y-103997500D01*
G75*
G02*
X110257500Y-103935000I62500J0D01*
G01*
X111007500Y-103935000D01*
G75*
G02*
X111070000Y-103997500I0J-62500D01*
G01*
G37*
G36*
G01*
X111070000Y-103497500D02*
X111070000Y-103622500D01*
G75*
G02*
X111007500Y-103685000I-62500J0D01*
G01*
X110257500Y-103685000D01*
G75*
G02*
X110195000Y-103622500I0J62500D01*
G01*
X110195000Y-103497500D01*
G75*
G02*
X110257500Y-103435000I62500J0D01*
G01*
X111007500Y-103435000D01*
G75*
G02*
X111070000Y-103497500I0J-62500D01*
G01*
G37*
G36*
G01*
X111070000Y-102997500D02*
X111070000Y-103122500D01*
G75*
G02*
X111007500Y-103185000I-62500J0D01*
G01*
X110257500Y-103185000D01*
G75*
G02*
X110195000Y-103122500I0J62500D01*
G01*
X110195000Y-102997500D01*
G75*
G02*
X110257500Y-102935000I62500J0D01*
G01*
X111007500Y-102935000D01*
G75*
G02*
X111070000Y-102997500I0J-62500D01*
G01*
G37*
G36*
G01*
X111445000Y-101997500D02*
X111445000Y-102747500D01*
G75*
G02*
X111382500Y-102810000I-62500J0D01*
G01*
X111257500Y-102810000D01*
G75*
G02*
X111195000Y-102747500I0J62500D01*
G01*
X111195000Y-101997500D01*
G75*
G02*
X111257500Y-101935000I62500J0D01*
G01*
X111382500Y-101935000D01*
G75*
G02*
X111445000Y-101997500I0J-62500D01*
G01*
G37*
G36*
G01*
X111945000Y-101997500D02*
X111945000Y-102747500D01*
G75*
G02*
X111882500Y-102810000I-62500J0D01*
G01*
X111757500Y-102810000D01*
G75*
G02*
X111695000Y-102747500I0J62500D01*
G01*
X111695000Y-101997500D01*
G75*
G02*
X111757500Y-101935000I62500J0D01*
G01*
X111882500Y-101935000D01*
G75*
G02*
X111945000Y-101997500I0J-62500D01*
G01*
G37*
G36*
G01*
X112445000Y-101997500D02*
X112445000Y-102747500D01*
G75*
G02*
X112382500Y-102810000I-62500J0D01*
G01*
X112257500Y-102810000D01*
G75*
G02*
X112195000Y-102747500I0J62500D01*
G01*
X112195000Y-101997500D01*
G75*
G02*
X112257500Y-101935000I62500J0D01*
G01*
X112382500Y-101935000D01*
G75*
G02*
X112445000Y-101997500I0J-62500D01*
G01*
G37*
G36*
G01*
X112945000Y-101997500D02*
X112945000Y-102747500D01*
G75*
G02*
X112882500Y-102810000I-62500J0D01*
G01*
X112757500Y-102810000D01*
G75*
G02*
X112695000Y-102747500I0J62500D01*
G01*
X112695000Y-101997500D01*
G75*
G02*
X112757500Y-101935000I62500J0D01*
G01*
X112882500Y-101935000D01*
G75*
G02*
X112945000Y-101997500I0J-62500D01*
G01*
G37*
G36*
G01*
X113445000Y-101997500D02*
X113445000Y-102747500D01*
G75*
G02*
X113382500Y-102810000I-62500J0D01*
G01*
X113257500Y-102810000D01*
G75*
G02*
X113195000Y-102747500I0J62500D01*
G01*
X113195000Y-101997500D01*
G75*
G02*
X113257500Y-101935000I62500J0D01*
G01*
X113382500Y-101935000D01*
G75*
G02*
X113445000Y-101997500I0J-62500D01*
G01*
G37*
G36*
G01*
X113945000Y-101997500D02*
X113945000Y-102747500D01*
G75*
G02*
X113882500Y-102810000I-62500J0D01*
G01*
X113757500Y-102810000D01*
G75*
G02*
X113695000Y-102747500I0J62500D01*
G01*
X113695000Y-101997500D01*
G75*
G02*
X113757500Y-101935000I62500J0D01*
G01*
X113882500Y-101935000D01*
G75*
G02*
X113945000Y-101997500I0J-62500D01*
G01*
G37*
G36*
G01*
X114445000Y-101997500D02*
X114445000Y-102747500D01*
G75*
G02*
X114382500Y-102810000I-62500J0D01*
G01*
X114257500Y-102810000D01*
G75*
G02*
X114195000Y-102747500I0J62500D01*
G01*
X114195000Y-101997500D01*
G75*
G02*
X114257500Y-101935000I62500J0D01*
G01*
X114382500Y-101935000D01*
G75*
G02*
X114445000Y-101997500I0J-62500D01*
G01*
G37*
G36*
G01*
X114945000Y-101997500D02*
X114945000Y-102747500D01*
G75*
G02*
X114882500Y-102810000I-62500J0D01*
G01*
X114757500Y-102810000D01*
G75*
G02*
X114695000Y-102747500I0J62500D01*
G01*
X114695000Y-101997500D01*
G75*
G02*
X114757500Y-101935000I62500J0D01*
G01*
X114882500Y-101935000D01*
G75*
G02*
X114945000Y-101997500I0J-62500D01*
G01*
G37*
G36*
G01*
X108752500Y-103080000D02*
X108407500Y-103080000D01*
G75*
G02*
X108260000Y-102932500I0J147500D01*
G01*
X108260000Y-102637500D01*
G75*
G02*
X108407500Y-102490000I147500J0D01*
G01*
X108752500Y-102490000D01*
G75*
G02*
X108900000Y-102637500I0J-147500D01*
G01*
X108900000Y-102932500D01*
G75*
G02*
X108752500Y-103080000I-147500J0D01*
G01*
G37*
G36*
G01*
X108752500Y-102110000D02*
X108407500Y-102110000D01*
G75*
G02*
X108260000Y-101962500I0J147500D01*
G01*
X108260000Y-101667500D01*
G75*
G02*
X108407500Y-101520000I147500J0D01*
G01*
X108752500Y-101520000D01*
G75*
G02*
X108900000Y-101667500I0J-147500D01*
G01*
X108900000Y-101962500D01*
G75*
G02*
X108752500Y-102110000I-147500J0D01*
G01*
G37*
D15*
X185840000Y-101470000D03*
X176700000Y-96190000D03*
M02*
