G04 #@! TF.GenerationSoftware,KiCad,Pcbnew,(5.1.10)-1*
G04 #@! TF.CreationDate,2021-06-26T09:27:45-04:00*
G04 #@! TF.ProjectId,Main,4d61696e-2e6b-4696-9361-645f70636258,5*
G04 #@! TF.SameCoordinates,Original*
G04 #@! TF.FileFunction,Soldermask,Bot*
G04 #@! TF.FilePolarity,Negative*
%FSLAX46Y46*%
G04 Gerber Fmt 4.6, Leading zero omitted, Abs format (unit mm)*
G04 Created by KiCad (PCBNEW (5.1.10)-1) date 2021-06-26 09:27:45*
%MOMM*%
%LPD*%
G01*
G04 APERTURE LIST*
%ADD10C,0.500000*%
%ADD11C,2.500000*%
%ADD12C,1.500000*%
G04 APERTURE END LIST*
G36*
G01*
X109768706Y-100531850D02*
X109401617Y-101056108D01*
G75*
G02*
X109290199Y-101075754I-65532J45886D01*
G01*
X108110620Y-100249804D01*
G75*
G02*
X108090974Y-100138386I45886J65532D01*
G01*
X108458063Y-99614128D01*
G75*
G02*
X108569481Y-99594482I65532J-45886D01*
G01*
X109749060Y-100420432D01*
G75*
G02*
X109768706Y-100531850I-45886J-65532D01*
G01*
G37*
G36*
G01*
X111718866Y-97746732D02*
X111351777Y-98270990D01*
G75*
G02*
X111240359Y-98290636I-65532J45886D01*
G01*
X110060780Y-97464686D01*
G75*
G02*
X110041134Y-97353268I45886J65532D01*
G01*
X110408223Y-96829010D01*
G75*
G02*
X110519641Y-96809364I65532J-45886D01*
G01*
X111699220Y-97635314D01*
G75*
G02*
X111718866Y-97746732I-45886J-65532D01*
G01*
G37*
D10*
X134530000Y-108760000D03*
X186250000Y-96850000D03*
D11*
X100430000Y-101900000D03*
X100480000Y-106400000D03*
G36*
G01*
X181952531Y-108151795D02*
X182152531Y-108498205D01*
G75*
G02*
X182134230Y-108566506I-43301J-25000D01*
G01*
X181311506Y-109041506D01*
G75*
G02*
X181243205Y-109023205I-25000J43301D01*
G01*
X181043205Y-108676795D01*
G75*
G02*
X181061506Y-108608494I43301J25000D01*
G01*
X181884230Y-108133494D01*
G75*
G02*
X181952531Y-108151795I25000J-43301D01*
G01*
G37*
G36*
G01*
X179987469Y-109748205D02*
X179787469Y-109401795D01*
G75*
G02*
X179805770Y-109333494I43301J25000D01*
G01*
X180498590Y-108933494D01*
G75*
G02*
X180566891Y-108951795I25000J-43301D01*
G01*
X180766891Y-109298205D01*
G75*
G02*
X180748590Y-109366506I-43301J-25000D01*
G01*
X180055770Y-109766506D01*
G75*
G02*
X179987469Y-109748205I-25000J43301D01*
G01*
G37*
G36*
G01*
X179582468Y-109046724D02*
X179342468Y-108631032D01*
G75*
G02*
X179364430Y-108549070I51962J30000D01*
G01*
X180039930Y-108159070D01*
G75*
G02*
X180121892Y-108181032I30000J-51962D01*
G01*
X180361892Y-108596724D01*
G75*
G02*
X180339930Y-108678686I-51962J-30000D01*
G01*
X179664430Y-109068686D01*
G75*
G02*
X179582468Y-109046724I-30000J51962D01*
G01*
G37*
G36*
G01*
X182357532Y-108853276D02*
X182597532Y-109268968D01*
G75*
G02*
X182575570Y-109350930I-51962J-30000D01*
G01*
X181900070Y-109740930D01*
G75*
G02*
X181818108Y-109718968I-30000J51962D01*
G01*
X181578108Y-109303276D01*
G75*
G02*
X181600070Y-109221314I51962J30000D01*
G01*
X182275570Y-108831314D01*
G75*
G02*
X182357532Y-108853276I30000J-51962D01*
G01*
G37*
G36*
G01*
X180971892Y-109653276D02*
X181211892Y-110068968D01*
G75*
G02*
X181189930Y-110150930I-51962J-30000D01*
G01*
X180514430Y-110540930D01*
G75*
G02*
X180432468Y-110518968I-30000J51962D01*
G01*
X180192468Y-110103276D01*
G75*
G02*
X180214430Y-110021314I51962J30000D01*
G01*
X180889930Y-109631314D01*
G75*
G02*
X180971892Y-109653276I30000J-51962D01*
G01*
G37*
G36*
G01*
X181507532Y-107381032D02*
X181747532Y-107796724D01*
G75*
G02*
X181725570Y-107878686I-51962J-30000D01*
G01*
X181050070Y-108268686D01*
G75*
G02*
X180968108Y-108246724I-30000J51962D01*
G01*
X180728108Y-107831032D01*
G75*
G02*
X180750070Y-107749070I51962J30000D01*
G01*
X181425570Y-107359070D01*
G75*
G02*
X181507532Y-107381032I30000J-51962D01*
G01*
G37*
G36*
G01*
X186337469Y-108508205D02*
X186537469Y-108161795D01*
G75*
G02*
X186605770Y-108143494I43301J-25000D01*
G01*
X187428494Y-108618494D01*
G75*
G02*
X187446795Y-108686795I-25000J-43301D01*
G01*
X187246795Y-109033205D01*
G75*
G02*
X187178494Y-109051506I-43301J25000D01*
G01*
X186355770Y-108576506D01*
G75*
G02*
X186337469Y-108508205I25000J43301D01*
G01*
G37*
G36*
G01*
X188702531Y-109411795D02*
X188502531Y-109758205D01*
G75*
G02*
X188434230Y-109776506I-43301J25000D01*
G01*
X187741410Y-109376506D01*
G75*
G02*
X187723109Y-109308205I25000J43301D01*
G01*
X187923109Y-108961795D01*
G75*
G02*
X187991410Y-108943494I43301J-25000D01*
G01*
X188684230Y-109343494D01*
G75*
G02*
X188702531Y-109411795I-25000J-43301D01*
G01*
G37*
G36*
G01*
X188297532Y-110113276D02*
X188057532Y-110528968D01*
G75*
G02*
X187975570Y-110550930I-51962J30000D01*
G01*
X187300070Y-110160930D01*
G75*
G02*
X187278108Y-110078968I30000J51962D01*
G01*
X187518108Y-109663276D01*
G75*
G02*
X187600070Y-109641314I51962J-30000D01*
G01*
X188275570Y-110031314D01*
G75*
G02*
X188297532Y-110113276I-30000J-51962D01*
G01*
G37*
G36*
G01*
X186742468Y-107806724D02*
X186982468Y-107391032D01*
G75*
G02*
X187064430Y-107369070I51962J-30000D01*
G01*
X187739930Y-107759070D01*
G75*
G02*
X187761892Y-107841032I-30000J-51962D01*
G01*
X187521892Y-108256724D01*
G75*
G02*
X187439930Y-108278686I-51962J30000D01*
G01*
X186764430Y-107888686D01*
G75*
G02*
X186742468Y-107806724I30000J51962D01*
G01*
G37*
G36*
G01*
X188128108Y-108606724D02*
X188368108Y-108191032D01*
G75*
G02*
X188450070Y-108169070I51962J-30000D01*
G01*
X189125570Y-108559070D01*
G75*
G02*
X189147532Y-108641032I-30000J-51962D01*
G01*
X188907532Y-109056724D01*
G75*
G02*
X188825570Y-109078686I-51962J30000D01*
G01*
X188150070Y-108688686D01*
G75*
G02*
X188128108Y-108606724I30000J51962D01*
G01*
G37*
G36*
G01*
X185892468Y-109278968D02*
X186132468Y-108863276D01*
G75*
G02*
X186214430Y-108841314I51962J-30000D01*
G01*
X186889930Y-109231314D01*
G75*
G02*
X186911892Y-109313276I-30000J-51962D01*
G01*
X186671892Y-109728968D01*
G75*
G02*
X186589930Y-109750930I-51962J30000D01*
G01*
X185914430Y-109360930D01*
G75*
G02*
X185892468Y-109278968I30000J51962D01*
G01*
G37*
G36*
G01*
X189040000Y-104350000D02*
X189040000Y-103950000D01*
G75*
G02*
X189090000Y-103900000I50000J0D01*
G01*
X190040000Y-103900000D01*
G75*
G02*
X190090000Y-103950000I0J-50000D01*
G01*
X190090000Y-104350000D01*
G75*
G02*
X190040000Y-104400000I-50000J0D01*
G01*
X189090000Y-104400000D01*
G75*
G02*
X189040000Y-104350000I0J50000D01*
G01*
G37*
G36*
G01*
X191540000Y-103950000D02*
X191540000Y-104350000D01*
G75*
G02*
X191490000Y-104400000I-50000J0D01*
G01*
X190690000Y-104400000D01*
G75*
G02*
X190640000Y-104350000I0J50000D01*
G01*
X190640000Y-103950000D01*
G75*
G02*
X190690000Y-103900000I50000J0D01*
G01*
X191490000Y-103900000D01*
G75*
G02*
X191540000Y-103950000I0J-50000D01*
G01*
G37*
G36*
G01*
X191540000Y-104760000D02*
X191540000Y-105240000D01*
G75*
G02*
X191480000Y-105300000I-60000J0D01*
G01*
X190700000Y-105300000D01*
G75*
G02*
X190640000Y-105240000I0J60000D01*
G01*
X190640000Y-104760000D01*
G75*
G02*
X190700000Y-104700000I60000J0D01*
G01*
X191480000Y-104700000D01*
G75*
G02*
X191540000Y-104760000I0J-60000D01*
G01*
G37*
G36*
G01*
X189040000Y-103540000D02*
X189040000Y-103060000D01*
G75*
G02*
X189100000Y-103000000I60000J0D01*
G01*
X189880000Y-103000000D01*
G75*
G02*
X189940000Y-103060000I0J-60000D01*
G01*
X189940000Y-103540000D01*
G75*
G02*
X189880000Y-103600000I-60000J0D01*
G01*
X189100000Y-103600000D01*
G75*
G02*
X189040000Y-103540000I0J60000D01*
G01*
G37*
G36*
G01*
X190640000Y-103540000D02*
X190640000Y-103060000D01*
G75*
G02*
X190700000Y-103000000I60000J0D01*
G01*
X191480000Y-103000000D01*
G75*
G02*
X191540000Y-103060000I0J-60000D01*
G01*
X191540000Y-103540000D01*
G75*
G02*
X191480000Y-103600000I-60000J0D01*
G01*
X190700000Y-103600000D01*
G75*
G02*
X190640000Y-103540000I0J60000D01*
G01*
G37*
G36*
G01*
X189040000Y-105240000D02*
X189040000Y-104760000D01*
G75*
G02*
X189100000Y-104700000I60000J0D01*
G01*
X189880000Y-104700000D01*
G75*
G02*
X189940000Y-104760000I0J-60000D01*
G01*
X189940000Y-105240000D01*
G75*
G02*
X189880000Y-105300000I-60000J0D01*
G01*
X189100000Y-105300000D01*
G75*
G02*
X189040000Y-105240000I0J60000D01*
G01*
G37*
G36*
G01*
X186808205Y-100092531D02*
X186461795Y-99892531D01*
G75*
G02*
X186443494Y-99824230I25000J43301D01*
G01*
X186918494Y-99001506D01*
G75*
G02*
X186986795Y-98983205I43301J-25000D01*
G01*
X187333205Y-99183205D01*
G75*
G02*
X187351506Y-99251506I-25000J-43301D01*
G01*
X186876506Y-100074230D01*
G75*
G02*
X186808205Y-100092531I-43301J25000D01*
G01*
G37*
G36*
G01*
X187711795Y-97727469D02*
X188058205Y-97927469D01*
G75*
G02*
X188076506Y-97995770I-25000J-43301D01*
G01*
X187676506Y-98688590D01*
G75*
G02*
X187608205Y-98706891I-43301J25000D01*
G01*
X187261795Y-98506891D01*
G75*
G02*
X187243494Y-98438590I25000J43301D01*
G01*
X187643494Y-97745770D01*
G75*
G02*
X187711795Y-97727469I43301J-25000D01*
G01*
G37*
G36*
G01*
X188413276Y-98132468D02*
X188828968Y-98372468D01*
G75*
G02*
X188850930Y-98454430I-30000J-51962D01*
G01*
X188460930Y-99129930D01*
G75*
G02*
X188378968Y-99151892I-51962J30000D01*
G01*
X187963276Y-98911892D01*
G75*
G02*
X187941314Y-98829930I30000J51962D01*
G01*
X188331314Y-98154430D01*
G75*
G02*
X188413276Y-98132468I51962J-30000D01*
G01*
G37*
G36*
G01*
X186106724Y-99687532D02*
X185691032Y-99447532D01*
G75*
G02*
X185669070Y-99365570I30000J51962D01*
G01*
X186059070Y-98690070D01*
G75*
G02*
X186141032Y-98668108I51962J-30000D01*
G01*
X186556724Y-98908108D01*
G75*
G02*
X186578686Y-98990070I-30000J-51962D01*
G01*
X186188686Y-99665570D01*
G75*
G02*
X186106724Y-99687532I-51962J30000D01*
G01*
G37*
G36*
G01*
X186906724Y-98301892D02*
X186491032Y-98061892D01*
G75*
G02*
X186469070Y-97979930I30000J51962D01*
G01*
X186859070Y-97304430D01*
G75*
G02*
X186941032Y-97282468I51962J-30000D01*
G01*
X187356724Y-97522468D01*
G75*
G02*
X187378686Y-97604430I-30000J-51962D01*
G01*
X186988686Y-98279930D01*
G75*
G02*
X186906724Y-98301892I-51962J30000D01*
G01*
G37*
G36*
G01*
X187578968Y-100537532D02*
X187163276Y-100297532D01*
G75*
G02*
X187141314Y-100215570I30000J51962D01*
G01*
X187531314Y-99540070D01*
G75*
G02*
X187613276Y-99518108I51962J-30000D01*
G01*
X188028968Y-99758108D01*
G75*
G02*
X188050930Y-99840070I-30000J-51962D01*
G01*
X187660930Y-100515570D01*
G75*
G02*
X187578968Y-100537532I-51962J30000D01*
G01*
G37*
G36*
G01*
X181168205Y-100352531D02*
X180821795Y-100152531D01*
G75*
G02*
X180803494Y-100084230I25000J43301D01*
G01*
X181278494Y-99261506D01*
G75*
G02*
X181346795Y-99243205I43301J-25000D01*
G01*
X181693205Y-99443205D01*
G75*
G02*
X181711506Y-99511506I-25000J-43301D01*
G01*
X181236506Y-100334230D01*
G75*
G02*
X181168205Y-100352531I-43301J25000D01*
G01*
G37*
G36*
G01*
X182071795Y-97987469D02*
X182418205Y-98187469D01*
G75*
G02*
X182436506Y-98255770I-25000J-43301D01*
G01*
X182036506Y-98948590D01*
G75*
G02*
X181968205Y-98966891I-43301J25000D01*
G01*
X181621795Y-98766891D01*
G75*
G02*
X181603494Y-98698590I25000J43301D01*
G01*
X182003494Y-98005770D01*
G75*
G02*
X182071795Y-97987469I43301J-25000D01*
G01*
G37*
G36*
G01*
X182773276Y-98392468D02*
X183188968Y-98632468D01*
G75*
G02*
X183210930Y-98714430I-30000J-51962D01*
G01*
X182820930Y-99389930D01*
G75*
G02*
X182738968Y-99411892I-51962J30000D01*
G01*
X182323276Y-99171892D01*
G75*
G02*
X182301314Y-99089930I30000J51962D01*
G01*
X182691314Y-98414430D01*
G75*
G02*
X182773276Y-98392468I51962J-30000D01*
G01*
G37*
G36*
G01*
X180466724Y-99947532D02*
X180051032Y-99707532D01*
G75*
G02*
X180029070Y-99625570I30000J51962D01*
G01*
X180419070Y-98950070D01*
G75*
G02*
X180501032Y-98928108I51962J-30000D01*
G01*
X180916724Y-99168108D01*
G75*
G02*
X180938686Y-99250070I-30000J-51962D01*
G01*
X180548686Y-99925570D01*
G75*
G02*
X180466724Y-99947532I-51962J30000D01*
G01*
G37*
G36*
G01*
X181266724Y-98561892D02*
X180851032Y-98321892D01*
G75*
G02*
X180829070Y-98239930I30000J51962D01*
G01*
X181219070Y-97564430D01*
G75*
G02*
X181301032Y-97542468I51962J-30000D01*
G01*
X181716724Y-97782468D01*
G75*
G02*
X181738686Y-97864430I-30000J-51962D01*
G01*
X181348686Y-98539930D01*
G75*
G02*
X181266724Y-98561892I-51962J30000D01*
G01*
G37*
G36*
G01*
X181938968Y-100797532D02*
X181523276Y-100557532D01*
G75*
G02*
X181501314Y-100475570I30000J51962D01*
G01*
X181891314Y-99800070D01*
G75*
G02*
X181973276Y-99778108I51962J-30000D01*
G01*
X182388968Y-100018108D01*
G75*
G02*
X182410930Y-100100070I-30000J-51962D01*
G01*
X182020930Y-100775570D01*
G75*
G02*
X181938968Y-100797532I-51962J30000D01*
G01*
G37*
G36*
G01*
X177738205Y-94852531D02*
X177391795Y-94652531D01*
G75*
G02*
X177373494Y-94584230I25000J43301D01*
G01*
X177848494Y-93761506D01*
G75*
G02*
X177916795Y-93743205I43301J-25000D01*
G01*
X178263205Y-93943205D01*
G75*
G02*
X178281506Y-94011506I-25000J-43301D01*
G01*
X177806506Y-94834230D01*
G75*
G02*
X177738205Y-94852531I-43301J25000D01*
G01*
G37*
G36*
G01*
X178641795Y-92487469D02*
X178988205Y-92687469D01*
G75*
G02*
X179006506Y-92755770I-25000J-43301D01*
G01*
X178606506Y-93448590D01*
G75*
G02*
X178538205Y-93466891I-43301J25000D01*
G01*
X178191795Y-93266891D01*
G75*
G02*
X178173494Y-93198590I25000J43301D01*
G01*
X178573494Y-92505770D01*
G75*
G02*
X178641795Y-92487469I43301J-25000D01*
G01*
G37*
G36*
G01*
X179343276Y-92892468D02*
X179758968Y-93132468D01*
G75*
G02*
X179780930Y-93214430I-30000J-51962D01*
G01*
X179390930Y-93889930D01*
G75*
G02*
X179308968Y-93911892I-51962J30000D01*
G01*
X178893276Y-93671892D01*
G75*
G02*
X178871314Y-93589930I30000J51962D01*
G01*
X179261314Y-92914430D01*
G75*
G02*
X179343276Y-92892468I51962J-30000D01*
G01*
G37*
G36*
G01*
X177036724Y-94447532D02*
X176621032Y-94207532D01*
G75*
G02*
X176599070Y-94125570I30000J51962D01*
G01*
X176989070Y-93450070D01*
G75*
G02*
X177071032Y-93428108I51962J-30000D01*
G01*
X177486724Y-93668108D01*
G75*
G02*
X177508686Y-93750070I-30000J-51962D01*
G01*
X177118686Y-94425570D01*
G75*
G02*
X177036724Y-94447532I-51962J30000D01*
G01*
G37*
G36*
G01*
X177836724Y-93061892D02*
X177421032Y-92821892D01*
G75*
G02*
X177399070Y-92739930I30000J51962D01*
G01*
X177789070Y-92064430D01*
G75*
G02*
X177871032Y-92042468I51962J-30000D01*
G01*
X178286724Y-92282468D01*
G75*
G02*
X178308686Y-92364430I-30000J-51962D01*
G01*
X177918686Y-93039930D01*
G75*
G02*
X177836724Y-93061892I-51962J30000D01*
G01*
G37*
G36*
G01*
X178508968Y-95297532D02*
X178093276Y-95057532D01*
G75*
G02*
X178071314Y-94975570I30000J51962D01*
G01*
X178461314Y-94300070D01*
G75*
G02*
X178543276Y-94278108I51962J-30000D01*
G01*
X178958968Y-94518108D01*
G75*
G02*
X178980930Y-94600070I-30000J-51962D01*
G01*
X178590930Y-95275570D01*
G75*
G02*
X178508968Y-95297532I-51962J30000D01*
G01*
G37*
G36*
G01*
X172938205Y-94652531D02*
X172591795Y-94852531D01*
G75*
G02*
X172523494Y-94834230I-25000J43301D01*
G01*
X172048494Y-94011506D01*
G75*
G02*
X172066795Y-93943205I43301J25000D01*
G01*
X172413205Y-93743205D01*
G75*
G02*
X172481506Y-93761506I25000J-43301D01*
G01*
X172956506Y-94584230D01*
G75*
G02*
X172938205Y-94652531I-43301J-25000D01*
G01*
G37*
G36*
G01*
X171341795Y-92687469D02*
X171688205Y-92487469D01*
G75*
G02*
X171756506Y-92505770I25000J-43301D01*
G01*
X172156506Y-93198590D01*
G75*
G02*
X172138205Y-93266891I-43301J-25000D01*
G01*
X171791795Y-93466891D01*
G75*
G02*
X171723494Y-93448590I-25000J43301D01*
G01*
X171323494Y-92755770D01*
G75*
G02*
X171341795Y-92687469I43301J25000D01*
G01*
G37*
G36*
G01*
X172043276Y-92282468D02*
X172458968Y-92042468D01*
G75*
G02*
X172540930Y-92064430I30000J-51962D01*
G01*
X172930930Y-92739930D01*
G75*
G02*
X172908968Y-92821892I-51962J-30000D01*
G01*
X172493276Y-93061892D01*
G75*
G02*
X172411314Y-93039930I-30000J51962D01*
G01*
X172021314Y-92364430D01*
G75*
G02*
X172043276Y-92282468I51962J30000D01*
G01*
G37*
G36*
G01*
X172236724Y-95057532D02*
X171821032Y-95297532D01*
G75*
G02*
X171739070Y-95275570I-30000J51962D01*
G01*
X171349070Y-94600070D01*
G75*
G02*
X171371032Y-94518108I51962J30000D01*
G01*
X171786724Y-94278108D01*
G75*
G02*
X171868686Y-94300070I30000J-51962D01*
G01*
X172258686Y-94975570D01*
G75*
G02*
X172236724Y-95057532I-51962J-30000D01*
G01*
G37*
G36*
G01*
X171436724Y-93671892D02*
X171021032Y-93911892D01*
G75*
G02*
X170939070Y-93889930I-30000J51962D01*
G01*
X170549070Y-93214430D01*
G75*
G02*
X170571032Y-93132468I51962J30000D01*
G01*
X170986724Y-92892468D01*
G75*
G02*
X171068686Y-92914430I30000J-51962D01*
G01*
X171458686Y-93589930D01*
G75*
G02*
X171436724Y-93671892I-51962J-30000D01*
G01*
G37*
G36*
G01*
X173708968Y-94207532D02*
X173293276Y-94447532D01*
G75*
G02*
X173211314Y-94425570I-30000J51962D01*
G01*
X172821314Y-93750070D01*
G75*
G02*
X172843276Y-93668108I51962J30000D01*
G01*
X173258968Y-93428108D01*
G75*
G02*
X173340930Y-93450070I30000J-51962D01*
G01*
X173730930Y-94125570D01*
G75*
G02*
X173708968Y-94207532I-51962J-30000D01*
G01*
G37*
G36*
G01*
X169918205Y-99892531D02*
X169571795Y-100092531D01*
G75*
G02*
X169503494Y-100074230I-25000J43301D01*
G01*
X169028494Y-99251506D01*
G75*
G02*
X169046795Y-99183205I43301J25000D01*
G01*
X169393205Y-98983205D01*
G75*
G02*
X169461506Y-99001506I25000J-43301D01*
G01*
X169936506Y-99824230D01*
G75*
G02*
X169918205Y-99892531I-43301J-25000D01*
G01*
G37*
G36*
G01*
X168321795Y-97927469D02*
X168668205Y-97727469D01*
G75*
G02*
X168736506Y-97745770I25000J-43301D01*
G01*
X169136506Y-98438590D01*
G75*
G02*
X169118205Y-98506891I-43301J-25000D01*
G01*
X168771795Y-98706891D01*
G75*
G02*
X168703494Y-98688590I-25000J43301D01*
G01*
X168303494Y-97995770D01*
G75*
G02*
X168321795Y-97927469I43301J25000D01*
G01*
G37*
G36*
G01*
X169023276Y-97522468D02*
X169438968Y-97282468D01*
G75*
G02*
X169520930Y-97304430I30000J-51962D01*
G01*
X169910930Y-97979930D01*
G75*
G02*
X169888968Y-98061892I-51962J-30000D01*
G01*
X169473276Y-98301892D01*
G75*
G02*
X169391314Y-98279930I-30000J51962D01*
G01*
X169001314Y-97604430D01*
G75*
G02*
X169023276Y-97522468I51962J30000D01*
G01*
G37*
G36*
G01*
X169216724Y-100297532D02*
X168801032Y-100537532D01*
G75*
G02*
X168719070Y-100515570I-30000J51962D01*
G01*
X168329070Y-99840070D01*
G75*
G02*
X168351032Y-99758108I51962J30000D01*
G01*
X168766724Y-99518108D01*
G75*
G02*
X168848686Y-99540070I30000J-51962D01*
G01*
X169238686Y-100215570D01*
G75*
G02*
X169216724Y-100297532I-51962J-30000D01*
G01*
G37*
G36*
G01*
X168416724Y-98911892D02*
X168001032Y-99151892D01*
G75*
G02*
X167919070Y-99129930I-30000J51962D01*
G01*
X167529070Y-98454430D01*
G75*
G02*
X167551032Y-98372468I51962J30000D01*
G01*
X167966724Y-98132468D01*
G75*
G02*
X168048686Y-98154430I30000J-51962D01*
G01*
X168438686Y-98829930D01*
G75*
G02*
X168416724Y-98911892I-51962J-30000D01*
G01*
G37*
G36*
G01*
X170688968Y-99447532D02*
X170273276Y-99687532D01*
G75*
G02*
X170191314Y-99665570I-30000J51962D01*
G01*
X169801314Y-98990070D01*
G75*
G02*
X169823276Y-98908108I51962J30000D01*
G01*
X170238968Y-98668108D01*
G75*
G02*
X170320930Y-98690070I30000J-51962D01*
G01*
X170710930Y-99365570D01*
G75*
G02*
X170688968Y-99447532I-51962J-30000D01*
G01*
G37*
G36*
G01*
X163658205Y-99532531D02*
X163311795Y-99732531D01*
G75*
G02*
X163243494Y-99714230I-25000J43301D01*
G01*
X162768494Y-98891506D01*
G75*
G02*
X162786795Y-98823205I43301J25000D01*
G01*
X163133205Y-98623205D01*
G75*
G02*
X163201506Y-98641506I25000J-43301D01*
G01*
X163676506Y-99464230D01*
G75*
G02*
X163658205Y-99532531I-43301J-25000D01*
G01*
G37*
G36*
G01*
X162061795Y-97567469D02*
X162408205Y-97367469D01*
G75*
G02*
X162476506Y-97385770I25000J-43301D01*
G01*
X162876506Y-98078590D01*
G75*
G02*
X162858205Y-98146891I-43301J-25000D01*
G01*
X162511795Y-98346891D01*
G75*
G02*
X162443494Y-98328590I-25000J43301D01*
G01*
X162043494Y-97635770D01*
G75*
G02*
X162061795Y-97567469I43301J25000D01*
G01*
G37*
G36*
G01*
X162763276Y-97162468D02*
X163178968Y-96922468D01*
G75*
G02*
X163260930Y-96944430I30000J-51962D01*
G01*
X163650930Y-97619930D01*
G75*
G02*
X163628968Y-97701892I-51962J-30000D01*
G01*
X163213276Y-97941892D01*
G75*
G02*
X163131314Y-97919930I-30000J51962D01*
G01*
X162741314Y-97244430D01*
G75*
G02*
X162763276Y-97162468I51962J30000D01*
G01*
G37*
G36*
G01*
X162956724Y-99937532D02*
X162541032Y-100177532D01*
G75*
G02*
X162459070Y-100155570I-30000J51962D01*
G01*
X162069070Y-99480070D01*
G75*
G02*
X162091032Y-99398108I51962J30000D01*
G01*
X162506724Y-99158108D01*
G75*
G02*
X162588686Y-99180070I30000J-51962D01*
G01*
X162978686Y-99855570D01*
G75*
G02*
X162956724Y-99937532I-51962J-30000D01*
G01*
G37*
G36*
G01*
X162156724Y-98551892D02*
X161741032Y-98791892D01*
G75*
G02*
X161659070Y-98769930I-30000J51962D01*
G01*
X161269070Y-98094430D01*
G75*
G02*
X161291032Y-98012468I51962J30000D01*
G01*
X161706724Y-97772468D01*
G75*
G02*
X161788686Y-97794430I30000J-51962D01*
G01*
X162178686Y-98469930D01*
G75*
G02*
X162156724Y-98551892I-51962J-30000D01*
G01*
G37*
G36*
G01*
X164428968Y-99087532D02*
X164013276Y-99327532D01*
G75*
G02*
X163931314Y-99305570I-30000J51962D01*
G01*
X163541314Y-98630070D01*
G75*
G02*
X163563276Y-98548108I51962J30000D01*
G01*
X163978968Y-98308108D01*
G75*
G02*
X164060930Y-98330070I30000J-51962D01*
G01*
X164450930Y-99005570D01*
G75*
G02*
X164428968Y-99087532I-51962J-30000D01*
G01*
G37*
G36*
G01*
X160848205Y-105132531D02*
X160501795Y-105332531D01*
G75*
G02*
X160433494Y-105314230I-25000J43301D01*
G01*
X159958494Y-104491506D01*
G75*
G02*
X159976795Y-104423205I43301J25000D01*
G01*
X160323205Y-104223205D01*
G75*
G02*
X160391506Y-104241506I25000J-43301D01*
G01*
X160866506Y-105064230D01*
G75*
G02*
X160848205Y-105132531I-43301J-25000D01*
G01*
G37*
G36*
G01*
X159251795Y-103167469D02*
X159598205Y-102967469D01*
G75*
G02*
X159666506Y-102985770I25000J-43301D01*
G01*
X160066506Y-103678590D01*
G75*
G02*
X160048205Y-103746891I-43301J-25000D01*
G01*
X159701795Y-103946891D01*
G75*
G02*
X159633494Y-103928590I-25000J43301D01*
G01*
X159233494Y-103235770D01*
G75*
G02*
X159251795Y-103167469I43301J25000D01*
G01*
G37*
G36*
G01*
X159953276Y-102762468D02*
X160368968Y-102522468D01*
G75*
G02*
X160450930Y-102544430I30000J-51962D01*
G01*
X160840930Y-103219930D01*
G75*
G02*
X160818968Y-103301892I-51962J-30000D01*
G01*
X160403276Y-103541892D01*
G75*
G02*
X160321314Y-103519930I-30000J51962D01*
G01*
X159931314Y-102844430D01*
G75*
G02*
X159953276Y-102762468I51962J30000D01*
G01*
G37*
G36*
G01*
X160146724Y-105537532D02*
X159731032Y-105777532D01*
G75*
G02*
X159649070Y-105755570I-30000J51962D01*
G01*
X159259070Y-105080070D01*
G75*
G02*
X159281032Y-104998108I51962J30000D01*
G01*
X159696724Y-104758108D01*
G75*
G02*
X159778686Y-104780070I30000J-51962D01*
G01*
X160168686Y-105455570D01*
G75*
G02*
X160146724Y-105537532I-51962J-30000D01*
G01*
G37*
G36*
G01*
X159346724Y-104151892D02*
X158931032Y-104391892D01*
G75*
G02*
X158849070Y-104369930I-30000J51962D01*
G01*
X158459070Y-103694430D01*
G75*
G02*
X158481032Y-103612468I51962J30000D01*
G01*
X158896724Y-103372468D01*
G75*
G02*
X158978686Y-103394430I30000J-51962D01*
G01*
X159368686Y-104069930D01*
G75*
G02*
X159346724Y-104151892I-51962J-30000D01*
G01*
G37*
G36*
G01*
X161618968Y-104687532D02*
X161203276Y-104927532D01*
G75*
G02*
X161121314Y-104905570I-30000J51962D01*
G01*
X160731314Y-104230070D01*
G75*
G02*
X160753276Y-104148108I51962J30000D01*
G01*
X161168968Y-103908108D01*
G75*
G02*
X161250930Y-103930070I30000J-51962D01*
G01*
X161640930Y-104605570D01*
G75*
G02*
X161618968Y-104687532I-51962J-30000D01*
G01*
G37*
G36*
G01*
X154798205Y-105132531D02*
X154451795Y-105332531D01*
G75*
G02*
X154383494Y-105314230I-25000J43301D01*
G01*
X153908494Y-104491506D01*
G75*
G02*
X153926795Y-104423205I43301J25000D01*
G01*
X154273205Y-104223205D01*
G75*
G02*
X154341506Y-104241506I25000J-43301D01*
G01*
X154816506Y-105064230D01*
G75*
G02*
X154798205Y-105132531I-43301J-25000D01*
G01*
G37*
G36*
G01*
X153201795Y-103167469D02*
X153548205Y-102967469D01*
G75*
G02*
X153616506Y-102985770I25000J-43301D01*
G01*
X154016506Y-103678590D01*
G75*
G02*
X153998205Y-103746891I-43301J-25000D01*
G01*
X153651795Y-103946891D01*
G75*
G02*
X153583494Y-103928590I-25000J43301D01*
G01*
X153183494Y-103235770D01*
G75*
G02*
X153201795Y-103167469I43301J25000D01*
G01*
G37*
G36*
G01*
X153903276Y-102762468D02*
X154318968Y-102522468D01*
G75*
G02*
X154400930Y-102544430I30000J-51962D01*
G01*
X154790930Y-103219930D01*
G75*
G02*
X154768968Y-103301892I-51962J-30000D01*
G01*
X154353276Y-103541892D01*
G75*
G02*
X154271314Y-103519930I-30000J51962D01*
G01*
X153881314Y-102844430D01*
G75*
G02*
X153903276Y-102762468I51962J30000D01*
G01*
G37*
G36*
G01*
X154096724Y-105537532D02*
X153681032Y-105777532D01*
G75*
G02*
X153599070Y-105755570I-30000J51962D01*
G01*
X153209070Y-105080070D01*
G75*
G02*
X153231032Y-104998108I51962J30000D01*
G01*
X153646724Y-104758108D01*
G75*
G02*
X153728686Y-104780070I30000J-51962D01*
G01*
X154118686Y-105455570D01*
G75*
G02*
X154096724Y-105537532I-51962J-30000D01*
G01*
G37*
G36*
G01*
X153296724Y-104151892D02*
X152881032Y-104391892D01*
G75*
G02*
X152799070Y-104369930I-30000J51962D01*
G01*
X152409070Y-103694430D01*
G75*
G02*
X152431032Y-103612468I51962J30000D01*
G01*
X152846724Y-103372468D01*
G75*
G02*
X152928686Y-103394430I30000J-51962D01*
G01*
X153318686Y-104069930D01*
G75*
G02*
X153296724Y-104151892I-51962J-30000D01*
G01*
G37*
G36*
G01*
X155568968Y-104687532D02*
X155153276Y-104927532D01*
G75*
G02*
X155071314Y-104905570I-30000J51962D01*
G01*
X154681314Y-104230070D01*
G75*
G02*
X154703276Y-104148108I51962J30000D01*
G01*
X155118968Y-103908108D01*
G75*
G02*
X155200930Y-103930070I30000J-51962D01*
G01*
X155590930Y-104605570D01*
G75*
G02*
X155568968Y-104687532I-51962J-30000D01*
G01*
G37*
G36*
G01*
X151778205Y-110372531D02*
X151431795Y-110572531D01*
G75*
G02*
X151363494Y-110554230I-25000J43301D01*
G01*
X150888494Y-109731506D01*
G75*
G02*
X150906795Y-109663205I43301J25000D01*
G01*
X151253205Y-109463205D01*
G75*
G02*
X151321506Y-109481506I25000J-43301D01*
G01*
X151796506Y-110304230D01*
G75*
G02*
X151778205Y-110372531I-43301J-25000D01*
G01*
G37*
G36*
G01*
X150181795Y-108407469D02*
X150528205Y-108207469D01*
G75*
G02*
X150596506Y-108225770I25000J-43301D01*
G01*
X150996506Y-108918590D01*
G75*
G02*
X150978205Y-108986891I-43301J-25000D01*
G01*
X150631795Y-109186891D01*
G75*
G02*
X150563494Y-109168590I-25000J43301D01*
G01*
X150163494Y-108475770D01*
G75*
G02*
X150181795Y-108407469I43301J25000D01*
G01*
G37*
G36*
G01*
X150883276Y-108002468D02*
X151298968Y-107762468D01*
G75*
G02*
X151380930Y-107784430I30000J-51962D01*
G01*
X151770930Y-108459930D01*
G75*
G02*
X151748968Y-108541892I-51962J-30000D01*
G01*
X151333276Y-108781892D01*
G75*
G02*
X151251314Y-108759930I-30000J51962D01*
G01*
X150861314Y-108084430D01*
G75*
G02*
X150883276Y-108002468I51962J30000D01*
G01*
G37*
G36*
G01*
X151076724Y-110777532D02*
X150661032Y-111017532D01*
G75*
G02*
X150579070Y-110995570I-30000J51962D01*
G01*
X150189070Y-110320070D01*
G75*
G02*
X150211032Y-110238108I51962J30000D01*
G01*
X150626724Y-109998108D01*
G75*
G02*
X150708686Y-110020070I30000J-51962D01*
G01*
X151098686Y-110695570D01*
G75*
G02*
X151076724Y-110777532I-51962J-30000D01*
G01*
G37*
G36*
G01*
X150276724Y-109391892D02*
X149861032Y-109631892D01*
G75*
G02*
X149779070Y-109609930I-30000J51962D01*
G01*
X149389070Y-108934430D01*
G75*
G02*
X149411032Y-108852468I51962J30000D01*
G01*
X149826724Y-108612468D01*
G75*
G02*
X149908686Y-108634430I30000J-51962D01*
G01*
X150298686Y-109309930D01*
G75*
G02*
X150276724Y-109391892I-51962J-30000D01*
G01*
G37*
G36*
G01*
X152548968Y-109927532D02*
X152133276Y-110167532D01*
G75*
G02*
X152051314Y-110145570I-30000J51962D01*
G01*
X151661314Y-109470070D01*
G75*
G02*
X151683276Y-109388108I51962J30000D01*
G01*
X152098968Y-109148108D01*
G75*
G02*
X152180930Y-109170070I30000J-51962D01*
G01*
X152570930Y-109845570D01*
G75*
G02*
X152548968Y-109927532I-51962J-30000D01*
G01*
G37*
G36*
G01*
X145718205Y-110362531D02*
X145371795Y-110562531D01*
G75*
G02*
X145303494Y-110544230I-25000J43301D01*
G01*
X144828494Y-109721506D01*
G75*
G02*
X144846795Y-109653205I43301J25000D01*
G01*
X145193205Y-109453205D01*
G75*
G02*
X145261506Y-109471506I25000J-43301D01*
G01*
X145736506Y-110294230D01*
G75*
G02*
X145718205Y-110362531I-43301J-25000D01*
G01*
G37*
G36*
G01*
X144121795Y-108397469D02*
X144468205Y-108197469D01*
G75*
G02*
X144536506Y-108215770I25000J-43301D01*
G01*
X144936506Y-108908590D01*
G75*
G02*
X144918205Y-108976891I-43301J-25000D01*
G01*
X144571795Y-109176891D01*
G75*
G02*
X144503494Y-109158590I-25000J43301D01*
G01*
X144103494Y-108465770D01*
G75*
G02*
X144121795Y-108397469I43301J25000D01*
G01*
G37*
G36*
G01*
X144823276Y-107992468D02*
X145238968Y-107752468D01*
G75*
G02*
X145320930Y-107774430I30000J-51962D01*
G01*
X145710930Y-108449930D01*
G75*
G02*
X145688968Y-108531892I-51962J-30000D01*
G01*
X145273276Y-108771892D01*
G75*
G02*
X145191314Y-108749930I-30000J51962D01*
G01*
X144801314Y-108074430D01*
G75*
G02*
X144823276Y-107992468I51962J30000D01*
G01*
G37*
G36*
G01*
X145016724Y-110767532D02*
X144601032Y-111007532D01*
G75*
G02*
X144519070Y-110985570I-30000J51962D01*
G01*
X144129070Y-110310070D01*
G75*
G02*
X144151032Y-110228108I51962J30000D01*
G01*
X144566724Y-109988108D01*
G75*
G02*
X144648686Y-110010070I30000J-51962D01*
G01*
X145038686Y-110685570D01*
G75*
G02*
X145016724Y-110767532I-51962J-30000D01*
G01*
G37*
G36*
G01*
X144216724Y-109381892D02*
X143801032Y-109621892D01*
G75*
G02*
X143719070Y-109599930I-30000J51962D01*
G01*
X143329070Y-108924430D01*
G75*
G02*
X143351032Y-108842468I51962J30000D01*
G01*
X143766724Y-108602468D01*
G75*
G02*
X143848686Y-108624430I30000J-51962D01*
G01*
X144238686Y-109299930D01*
G75*
G02*
X144216724Y-109381892I-51962J-30000D01*
G01*
G37*
G36*
G01*
X146488968Y-109917532D02*
X146073276Y-110157532D01*
G75*
G02*
X145991314Y-110135570I-30000J51962D01*
G01*
X145601314Y-109460070D01*
G75*
G02*
X145623276Y-109378108I51962J30000D01*
G01*
X146038968Y-109138108D01*
G75*
G02*
X146120930Y-109160070I30000J-51962D01*
G01*
X146510930Y-109835570D01*
G75*
G02*
X146488968Y-109917532I-51962J-30000D01*
G01*
G37*
G36*
G01*
X142698205Y-115602531D02*
X142351795Y-115802531D01*
G75*
G02*
X142283494Y-115784230I-25000J43301D01*
G01*
X141808494Y-114961506D01*
G75*
G02*
X141826795Y-114893205I43301J25000D01*
G01*
X142173205Y-114693205D01*
G75*
G02*
X142241506Y-114711506I25000J-43301D01*
G01*
X142716506Y-115534230D01*
G75*
G02*
X142698205Y-115602531I-43301J-25000D01*
G01*
G37*
G36*
G01*
X141101795Y-113637469D02*
X141448205Y-113437469D01*
G75*
G02*
X141516506Y-113455770I25000J-43301D01*
G01*
X141916506Y-114148590D01*
G75*
G02*
X141898205Y-114216891I-43301J-25000D01*
G01*
X141551795Y-114416891D01*
G75*
G02*
X141483494Y-114398590I-25000J43301D01*
G01*
X141083494Y-113705770D01*
G75*
G02*
X141101795Y-113637469I43301J25000D01*
G01*
G37*
G36*
G01*
X141803276Y-113232468D02*
X142218968Y-112992468D01*
G75*
G02*
X142300930Y-113014430I30000J-51962D01*
G01*
X142690930Y-113689930D01*
G75*
G02*
X142668968Y-113771892I-51962J-30000D01*
G01*
X142253276Y-114011892D01*
G75*
G02*
X142171314Y-113989930I-30000J51962D01*
G01*
X141781314Y-113314430D01*
G75*
G02*
X141803276Y-113232468I51962J30000D01*
G01*
G37*
G36*
G01*
X141996724Y-116007532D02*
X141581032Y-116247532D01*
G75*
G02*
X141499070Y-116225570I-30000J51962D01*
G01*
X141109070Y-115550070D01*
G75*
G02*
X141131032Y-115468108I51962J30000D01*
G01*
X141546724Y-115228108D01*
G75*
G02*
X141628686Y-115250070I30000J-51962D01*
G01*
X142018686Y-115925570D01*
G75*
G02*
X141996724Y-116007532I-51962J-30000D01*
G01*
G37*
G36*
G01*
X141196724Y-114621892D02*
X140781032Y-114861892D01*
G75*
G02*
X140699070Y-114839930I-30000J51962D01*
G01*
X140309070Y-114164430D01*
G75*
G02*
X140331032Y-114082468I51962J30000D01*
G01*
X140746724Y-113842468D01*
G75*
G02*
X140828686Y-113864430I30000J-51962D01*
G01*
X141218686Y-114539930D01*
G75*
G02*
X141196724Y-114621892I-51962J-30000D01*
G01*
G37*
G36*
G01*
X143468968Y-115157532D02*
X143053276Y-115397532D01*
G75*
G02*
X142971314Y-115375570I-30000J51962D01*
G01*
X142581314Y-114700070D01*
G75*
G02*
X142603276Y-114618108I51962J30000D01*
G01*
X143018968Y-114378108D01*
G75*
G02*
X143100930Y-114400070I30000J-51962D01*
G01*
X143490930Y-115075570D01*
G75*
G02*
X143468968Y-115157532I-51962J-30000D01*
G01*
G37*
G36*
G01*
X135408205Y-115812531D02*
X135061795Y-115612531D01*
G75*
G02*
X135043494Y-115544230I25000J43301D01*
G01*
X135518494Y-114721506D01*
G75*
G02*
X135586795Y-114703205I43301J-25000D01*
G01*
X135933205Y-114903205D01*
G75*
G02*
X135951506Y-114971506I-25000J-43301D01*
G01*
X135476506Y-115794230D01*
G75*
G02*
X135408205Y-115812531I-43301J25000D01*
G01*
G37*
G36*
G01*
X136311795Y-113447469D02*
X136658205Y-113647469D01*
G75*
G02*
X136676506Y-113715770I-25000J-43301D01*
G01*
X136276506Y-114408590D01*
G75*
G02*
X136208205Y-114426891I-43301J25000D01*
G01*
X135861795Y-114226891D01*
G75*
G02*
X135843494Y-114158590I25000J43301D01*
G01*
X136243494Y-113465770D01*
G75*
G02*
X136311795Y-113447469I43301J-25000D01*
G01*
G37*
G36*
G01*
X137013276Y-113852468D02*
X137428968Y-114092468D01*
G75*
G02*
X137450930Y-114174430I-30000J-51962D01*
G01*
X137060930Y-114849930D01*
G75*
G02*
X136978968Y-114871892I-51962J30000D01*
G01*
X136563276Y-114631892D01*
G75*
G02*
X136541314Y-114549930I30000J51962D01*
G01*
X136931314Y-113874430D01*
G75*
G02*
X137013276Y-113852468I51962J-30000D01*
G01*
G37*
G36*
G01*
X134706724Y-115407532D02*
X134291032Y-115167532D01*
G75*
G02*
X134269070Y-115085570I30000J51962D01*
G01*
X134659070Y-114410070D01*
G75*
G02*
X134741032Y-114388108I51962J-30000D01*
G01*
X135156724Y-114628108D01*
G75*
G02*
X135178686Y-114710070I-30000J-51962D01*
G01*
X134788686Y-115385570D01*
G75*
G02*
X134706724Y-115407532I-51962J30000D01*
G01*
G37*
G36*
G01*
X135506724Y-114021892D02*
X135091032Y-113781892D01*
G75*
G02*
X135069070Y-113699930I30000J51962D01*
G01*
X135459070Y-113024430D01*
G75*
G02*
X135541032Y-113002468I51962J-30000D01*
G01*
X135956724Y-113242468D01*
G75*
G02*
X135978686Y-113324430I-30000J-51962D01*
G01*
X135588686Y-113999930D01*
G75*
G02*
X135506724Y-114021892I-51962J30000D01*
G01*
G37*
G36*
G01*
X136178968Y-116257532D02*
X135763276Y-116017532D01*
G75*
G02*
X135741314Y-115935570I30000J51962D01*
G01*
X136131314Y-115260070D01*
G75*
G02*
X136213276Y-115238108I51962J-30000D01*
G01*
X136628968Y-115478108D01*
G75*
G02*
X136650930Y-115560070I-30000J-51962D01*
G01*
X136260930Y-116235570D01*
G75*
G02*
X136178968Y-116257532I-51962J30000D01*
G01*
G37*
G36*
G01*
X131580000Y-109590000D02*
X131580000Y-109190000D01*
G75*
G02*
X131630000Y-109140000I50000J0D01*
G01*
X132580000Y-109140000D01*
G75*
G02*
X132630000Y-109190000I0J-50000D01*
G01*
X132630000Y-109590000D01*
G75*
G02*
X132580000Y-109640000I-50000J0D01*
G01*
X131630000Y-109640000D01*
G75*
G02*
X131580000Y-109590000I0J50000D01*
G01*
G37*
G36*
G01*
X134080000Y-109190000D02*
X134080000Y-109590000D01*
G75*
G02*
X134030000Y-109640000I-50000J0D01*
G01*
X133230000Y-109640000D01*
G75*
G02*
X133180000Y-109590000I0J50000D01*
G01*
X133180000Y-109190000D01*
G75*
G02*
X133230000Y-109140000I50000J0D01*
G01*
X134030000Y-109140000D01*
G75*
G02*
X134080000Y-109190000I0J-50000D01*
G01*
G37*
G36*
G01*
X134080000Y-110000000D02*
X134080000Y-110480000D01*
G75*
G02*
X134020000Y-110540000I-60000J0D01*
G01*
X133240000Y-110540000D01*
G75*
G02*
X133180000Y-110480000I0J60000D01*
G01*
X133180000Y-110000000D01*
G75*
G02*
X133240000Y-109940000I60000J0D01*
G01*
X134020000Y-109940000D01*
G75*
G02*
X134080000Y-110000000I0J-60000D01*
G01*
G37*
G36*
G01*
X131580000Y-108780000D02*
X131580000Y-108300000D01*
G75*
G02*
X131640000Y-108240000I60000J0D01*
G01*
X132420000Y-108240000D01*
G75*
G02*
X132480000Y-108300000I0J-60000D01*
G01*
X132480000Y-108780000D01*
G75*
G02*
X132420000Y-108840000I-60000J0D01*
G01*
X131640000Y-108840000D01*
G75*
G02*
X131580000Y-108780000I0J60000D01*
G01*
G37*
G36*
G01*
X133180000Y-108780000D02*
X133180000Y-108300000D01*
G75*
G02*
X133240000Y-108240000I60000J0D01*
G01*
X134020000Y-108240000D01*
G75*
G02*
X134080000Y-108300000I0J-60000D01*
G01*
X134080000Y-108780000D01*
G75*
G02*
X134020000Y-108840000I-60000J0D01*
G01*
X133240000Y-108840000D01*
G75*
G02*
X133180000Y-108780000I0J60000D01*
G01*
G37*
G36*
G01*
X131580000Y-110480000D02*
X131580000Y-110000000D01*
G75*
G02*
X131640000Y-109940000I60000J0D01*
G01*
X132420000Y-109940000D01*
G75*
G02*
X132480000Y-110000000I0J-60000D01*
G01*
X132480000Y-110480000D01*
G75*
G02*
X132420000Y-110540000I-60000J0D01*
G01*
X131640000Y-110540000D01*
G75*
G02*
X131580000Y-110480000I0J60000D01*
G01*
G37*
G36*
G01*
X134600000Y-104350000D02*
X134600000Y-103950000D01*
G75*
G02*
X134650000Y-103900000I50000J0D01*
G01*
X135600000Y-103900000D01*
G75*
G02*
X135650000Y-103950000I0J-50000D01*
G01*
X135650000Y-104350000D01*
G75*
G02*
X135600000Y-104400000I-50000J0D01*
G01*
X134650000Y-104400000D01*
G75*
G02*
X134600000Y-104350000I0J50000D01*
G01*
G37*
G36*
G01*
X137100000Y-103950000D02*
X137100000Y-104350000D01*
G75*
G02*
X137050000Y-104400000I-50000J0D01*
G01*
X136250000Y-104400000D01*
G75*
G02*
X136200000Y-104350000I0J50000D01*
G01*
X136200000Y-103950000D01*
G75*
G02*
X136250000Y-103900000I50000J0D01*
G01*
X137050000Y-103900000D01*
G75*
G02*
X137100000Y-103950000I0J-50000D01*
G01*
G37*
G36*
G01*
X137100000Y-104760000D02*
X137100000Y-105240000D01*
G75*
G02*
X137040000Y-105300000I-60000J0D01*
G01*
X136260000Y-105300000D01*
G75*
G02*
X136200000Y-105240000I0J60000D01*
G01*
X136200000Y-104760000D01*
G75*
G02*
X136260000Y-104700000I60000J0D01*
G01*
X137040000Y-104700000D01*
G75*
G02*
X137100000Y-104760000I0J-60000D01*
G01*
G37*
G36*
G01*
X134600000Y-103540000D02*
X134600000Y-103060000D01*
G75*
G02*
X134660000Y-103000000I60000J0D01*
G01*
X135440000Y-103000000D01*
G75*
G02*
X135500000Y-103060000I0J-60000D01*
G01*
X135500000Y-103540000D01*
G75*
G02*
X135440000Y-103600000I-60000J0D01*
G01*
X134660000Y-103600000D01*
G75*
G02*
X134600000Y-103540000I0J60000D01*
G01*
G37*
G36*
G01*
X136200000Y-103540000D02*
X136200000Y-103060000D01*
G75*
G02*
X136260000Y-103000000I60000J0D01*
G01*
X137040000Y-103000000D01*
G75*
G02*
X137100000Y-103060000I0J-60000D01*
G01*
X137100000Y-103540000D01*
G75*
G02*
X137040000Y-103600000I-60000J0D01*
G01*
X136260000Y-103600000D01*
G75*
G02*
X136200000Y-103540000I0J60000D01*
G01*
G37*
G36*
G01*
X134600000Y-105240000D02*
X134600000Y-104760000D01*
G75*
G02*
X134660000Y-104700000I60000J0D01*
G01*
X135440000Y-104700000D01*
G75*
G02*
X135500000Y-104760000I0J-60000D01*
G01*
X135500000Y-105240000D01*
G75*
G02*
X135440000Y-105300000I-60000J0D01*
G01*
X134660000Y-105300000D01*
G75*
G02*
X134600000Y-105240000I0J60000D01*
G01*
G37*
G36*
G01*
X132390705Y-100034663D02*
X132044295Y-99834663D01*
G75*
G02*
X132025994Y-99766362I25000J43301D01*
G01*
X132500994Y-98943638D01*
G75*
G02*
X132569295Y-98925337I43301J-25000D01*
G01*
X132915705Y-99125337D01*
G75*
G02*
X132934006Y-99193638I-25000J-43301D01*
G01*
X132459006Y-100016362D01*
G75*
G02*
X132390705Y-100034663I-43301J25000D01*
G01*
G37*
G36*
G01*
X133294295Y-97669601D02*
X133640705Y-97869601D01*
G75*
G02*
X133659006Y-97937902I-25000J-43301D01*
G01*
X133259006Y-98630722D01*
G75*
G02*
X133190705Y-98649023I-43301J25000D01*
G01*
X132844295Y-98449023D01*
G75*
G02*
X132825994Y-98380722I25000J43301D01*
G01*
X133225994Y-97687902D01*
G75*
G02*
X133294295Y-97669601I43301J-25000D01*
G01*
G37*
G36*
G01*
X133995776Y-98074600D02*
X134411468Y-98314600D01*
G75*
G02*
X134433430Y-98396562I-30000J-51962D01*
G01*
X134043430Y-99072062D01*
G75*
G02*
X133961468Y-99094024I-51962J30000D01*
G01*
X133545776Y-98854024D01*
G75*
G02*
X133523814Y-98772062I30000J51962D01*
G01*
X133913814Y-98096562D01*
G75*
G02*
X133995776Y-98074600I51962J-30000D01*
G01*
G37*
G36*
G01*
X131689224Y-99629664D02*
X131273532Y-99389664D01*
G75*
G02*
X131251570Y-99307702I30000J51962D01*
G01*
X131641570Y-98632202D01*
G75*
G02*
X131723532Y-98610240I51962J-30000D01*
G01*
X132139224Y-98850240D01*
G75*
G02*
X132161186Y-98932202I-30000J-51962D01*
G01*
X131771186Y-99607702D01*
G75*
G02*
X131689224Y-99629664I-51962J30000D01*
G01*
G37*
G36*
G01*
X132489224Y-98244024D02*
X132073532Y-98004024D01*
G75*
G02*
X132051570Y-97922062I30000J51962D01*
G01*
X132441570Y-97246562D01*
G75*
G02*
X132523532Y-97224600I51962J-30000D01*
G01*
X132939224Y-97464600D01*
G75*
G02*
X132961186Y-97546562I-30000J-51962D01*
G01*
X132571186Y-98222062D01*
G75*
G02*
X132489224Y-98244024I-51962J30000D01*
G01*
G37*
G36*
G01*
X133161468Y-100479664D02*
X132745776Y-100239664D01*
G75*
G02*
X132723814Y-100157702I30000J51962D01*
G01*
X133113814Y-99482202D01*
G75*
G02*
X133195776Y-99460240I51962J-30000D01*
G01*
X133611468Y-99700240D01*
G75*
G02*
X133633430Y-99782202I-30000J-51962D01*
G01*
X133243430Y-100457702D01*
G75*
G02*
X133161468Y-100479664I-51962J30000D01*
G01*
G37*
G36*
G01*
X127558205Y-99862531D02*
X127211795Y-100062531D01*
G75*
G02*
X127143494Y-100044230I-25000J43301D01*
G01*
X126668494Y-99221506D01*
G75*
G02*
X126686795Y-99153205I43301J25000D01*
G01*
X127033205Y-98953205D01*
G75*
G02*
X127101506Y-98971506I25000J-43301D01*
G01*
X127576506Y-99794230D01*
G75*
G02*
X127558205Y-99862531I-43301J-25000D01*
G01*
G37*
G36*
G01*
X125961795Y-97897469D02*
X126308205Y-97697469D01*
G75*
G02*
X126376506Y-97715770I25000J-43301D01*
G01*
X126776506Y-98408590D01*
G75*
G02*
X126758205Y-98476891I-43301J-25000D01*
G01*
X126411795Y-98676891D01*
G75*
G02*
X126343494Y-98658590I-25000J43301D01*
G01*
X125943494Y-97965770D01*
G75*
G02*
X125961795Y-97897469I43301J25000D01*
G01*
G37*
G36*
G01*
X126663276Y-97492468D02*
X127078968Y-97252468D01*
G75*
G02*
X127160930Y-97274430I30000J-51962D01*
G01*
X127550930Y-97949930D01*
G75*
G02*
X127528968Y-98031892I-51962J-30000D01*
G01*
X127113276Y-98271892D01*
G75*
G02*
X127031314Y-98249930I-30000J51962D01*
G01*
X126641314Y-97574430D01*
G75*
G02*
X126663276Y-97492468I51962J30000D01*
G01*
G37*
G36*
G01*
X126856724Y-100267532D02*
X126441032Y-100507532D01*
G75*
G02*
X126359070Y-100485570I-30000J51962D01*
G01*
X125969070Y-99810070D01*
G75*
G02*
X125991032Y-99728108I51962J30000D01*
G01*
X126406724Y-99488108D01*
G75*
G02*
X126488686Y-99510070I30000J-51962D01*
G01*
X126878686Y-100185570D01*
G75*
G02*
X126856724Y-100267532I-51962J-30000D01*
G01*
G37*
G36*
G01*
X126056724Y-98881892D02*
X125641032Y-99121892D01*
G75*
G02*
X125559070Y-99099930I-30000J51962D01*
G01*
X125169070Y-98424430D01*
G75*
G02*
X125191032Y-98342468I51962J30000D01*
G01*
X125606724Y-98102468D01*
G75*
G02*
X125688686Y-98124430I30000J-51962D01*
G01*
X126078686Y-98799930D01*
G75*
G02*
X126056724Y-98881892I-51962J-30000D01*
G01*
G37*
G36*
G01*
X128328968Y-99417532D02*
X127913276Y-99657532D01*
G75*
G02*
X127831314Y-99635570I-30000J51962D01*
G01*
X127441314Y-98960070D01*
G75*
G02*
X127463276Y-98878108I51962J30000D01*
G01*
X127878968Y-98638108D01*
G75*
G02*
X127960930Y-98660070I30000J-51962D01*
G01*
X128350930Y-99335570D01*
G75*
G02*
X128328968Y-99417532I-51962J-30000D01*
G01*
G37*
G36*
G01*
X124005000Y-105400000D02*
X123605000Y-105400000D01*
G75*
G02*
X123555000Y-105350000I0J50000D01*
G01*
X123555000Y-104400000D01*
G75*
G02*
X123605000Y-104350000I50000J0D01*
G01*
X124005000Y-104350000D01*
G75*
G02*
X124055000Y-104400000I0J-50000D01*
G01*
X124055000Y-105350000D01*
G75*
G02*
X124005000Y-105400000I-50000J0D01*
G01*
G37*
G36*
G01*
X123605000Y-102900000D02*
X124005000Y-102900000D01*
G75*
G02*
X124055000Y-102950000I0J-50000D01*
G01*
X124055000Y-103750000D01*
G75*
G02*
X124005000Y-103800000I-50000J0D01*
G01*
X123605000Y-103800000D01*
G75*
G02*
X123555000Y-103750000I0J50000D01*
G01*
X123555000Y-102950000D01*
G75*
G02*
X123605000Y-102900000I50000J0D01*
G01*
G37*
G36*
G01*
X124415000Y-102900000D02*
X124895000Y-102900000D01*
G75*
G02*
X124955000Y-102960000I0J-60000D01*
G01*
X124955000Y-103740000D01*
G75*
G02*
X124895000Y-103800000I-60000J0D01*
G01*
X124415000Y-103800000D01*
G75*
G02*
X124355000Y-103740000I0J60000D01*
G01*
X124355000Y-102960000D01*
G75*
G02*
X124415000Y-102900000I60000J0D01*
G01*
G37*
G36*
G01*
X123195000Y-105400000D02*
X122715000Y-105400000D01*
G75*
G02*
X122655000Y-105340000I0J60000D01*
G01*
X122655000Y-104560000D01*
G75*
G02*
X122715000Y-104500000I60000J0D01*
G01*
X123195000Y-104500000D01*
G75*
G02*
X123255000Y-104560000I0J-60000D01*
G01*
X123255000Y-105340000D01*
G75*
G02*
X123195000Y-105400000I-60000J0D01*
G01*
G37*
G36*
G01*
X123195000Y-103800000D02*
X122715000Y-103800000D01*
G75*
G02*
X122655000Y-103740000I0J60000D01*
G01*
X122655000Y-102960000D01*
G75*
G02*
X122715000Y-102900000I60000J0D01*
G01*
X123195000Y-102900000D01*
G75*
G02*
X123255000Y-102960000I0J-60000D01*
G01*
X123255000Y-103740000D01*
G75*
G02*
X123195000Y-103800000I-60000J0D01*
G01*
G37*
G36*
G01*
X124895000Y-105400000D02*
X124415000Y-105400000D01*
G75*
G02*
X124355000Y-105340000I0J60000D01*
G01*
X124355000Y-104560000D01*
G75*
G02*
X124415000Y-104500000I60000J0D01*
G01*
X124895000Y-104500000D01*
G75*
G02*
X124955000Y-104560000I0J-60000D01*
G01*
X124955000Y-105340000D01*
G75*
G02*
X124895000Y-105400000I-60000J0D01*
G01*
G37*
G36*
G01*
X119691629Y-103008787D02*
X119451213Y-102768371D01*
G75*
G02*
X119451213Y-102570381I98995J98995D01*
G01*
X119649203Y-102372391D01*
G75*
G02*
X119847193Y-102372391I98995J-98995D01*
G01*
X120087609Y-102612807D01*
G75*
G02*
X120087609Y-102810797I-98995J-98995D01*
G01*
X119889619Y-103008787D01*
G75*
G02*
X119691629Y-103008787I-98995J98995D01*
G01*
G37*
G36*
G01*
X119012807Y-103687609D02*
X118772391Y-103447193D01*
G75*
G02*
X118772391Y-103249203I98995J98995D01*
G01*
X118970381Y-103051213D01*
G75*
G02*
X119168371Y-103051213I98995J-98995D01*
G01*
X119408787Y-103291629D01*
G75*
G02*
X119408787Y-103489619I-98995J-98995D01*
G01*
X119210797Y-103687609D01*
G75*
G02*
X119012807Y-103687609I-98995J98995D01*
G01*
G37*
G36*
G01*
X179689389Y-98911750D02*
X179390611Y-98739250D01*
G75*
G02*
X179336622Y-98537761I73750J127739D01*
G01*
X179484122Y-98282283D01*
G75*
G02*
X179685611Y-98228294I127739J-73750D01*
G01*
X179984389Y-98400794D01*
G75*
G02*
X180038378Y-98602283I-73750J-127739D01*
G01*
X179890878Y-98857761D01*
G75*
G02*
X179689389Y-98911750I-127739J73750D01*
G01*
G37*
G36*
G01*
X180174389Y-98071706D02*
X179875611Y-97899206D01*
G75*
G02*
X179821622Y-97697717I73750J127739D01*
G01*
X179969122Y-97442239D01*
G75*
G02*
X180170611Y-97388250I127739J-73750D01*
G01*
X180469389Y-97560750D01*
G75*
G02*
X180523378Y-97762239I-73750J-127739D01*
G01*
X180375878Y-98017717D01*
G75*
G02*
X180174389Y-98071706I-127739J73750D01*
G01*
G37*
G36*
G01*
X108255000Y-104577500D02*
X108255000Y-104922500D01*
G75*
G02*
X108107500Y-105070000I-147500J0D01*
G01*
X107812500Y-105070000D01*
G75*
G02*
X107665000Y-104922500I0J147500D01*
G01*
X107665000Y-104577500D01*
G75*
G02*
X107812500Y-104430000I147500J0D01*
G01*
X108107500Y-104430000D01*
G75*
G02*
X108255000Y-104577500I0J-147500D01*
G01*
G37*
G36*
G01*
X109225000Y-104577500D02*
X109225000Y-104922500D01*
G75*
G02*
X109077500Y-105070000I-147500J0D01*
G01*
X108782500Y-105070000D01*
G75*
G02*
X108635000Y-104922500I0J147500D01*
G01*
X108635000Y-104577500D01*
G75*
G02*
X108782500Y-104430000I147500J0D01*
G01*
X109077500Y-104430000D01*
G75*
G02*
X109225000Y-104577500I0J-147500D01*
G01*
G37*
G36*
G01*
X114620000Y-103509999D02*
X114620000Y-106110001D01*
G75*
G02*
X114370001Y-106360000I-249999J0D01*
G01*
X111769999Y-106360000D01*
G75*
G02*
X111520000Y-106110001I0J249999D01*
G01*
X111520000Y-103509999D01*
G75*
G02*
X111769999Y-103260000I249999J0D01*
G01*
X114370001Y-103260000D01*
G75*
G02*
X114620000Y-103509999I0J-249999D01*
G01*
G37*
G36*
G01*
X115945000Y-102997500D02*
X115945000Y-103122500D01*
G75*
G02*
X115882500Y-103185000I-62500J0D01*
G01*
X115132500Y-103185000D01*
G75*
G02*
X115070000Y-103122500I0J62500D01*
G01*
X115070000Y-102997500D01*
G75*
G02*
X115132500Y-102935000I62500J0D01*
G01*
X115882500Y-102935000D01*
G75*
G02*
X115945000Y-102997500I0J-62500D01*
G01*
G37*
G36*
G01*
X115945000Y-103497500D02*
X115945000Y-103622500D01*
G75*
G02*
X115882500Y-103685000I-62500J0D01*
G01*
X115132500Y-103685000D01*
G75*
G02*
X115070000Y-103622500I0J62500D01*
G01*
X115070000Y-103497500D01*
G75*
G02*
X115132500Y-103435000I62500J0D01*
G01*
X115882500Y-103435000D01*
G75*
G02*
X115945000Y-103497500I0J-62500D01*
G01*
G37*
G36*
G01*
X115945000Y-103997500D02*
X115945000Y-104122500D01*
G75*
G02*
X115882500Y-104185000I-62500J0D01*
G01*
X115132500Y-104185000D01*
G75*
G02*
X115070000Y-104122500I0J62500D01*
G01*
X115070000Y-103997500D01*
G75*
G02*
X115132500Y-103935000I62500J0D01*
G01*
X115882500Y-103935000D01*
G75*
G02*
X115945000Y-103997500I0J-62500D01*
G01*
G37*
G36*
G01*
X115945000Y-104497500D02*
X115945000Y-104622500D01*
G75*
G02*
X115882500Y-104685000I-62500J0D01*
G01*
X115132500Y-104685000D01*
G75*
G02*
X115070000Y-104622500I0J62500D01*
G01*
X115070000Y-104497500D01*
G75*
G02*
X115132500Y-104435000I62500J0D01*
G01*
X115882500Y-104435000D01*
G75*
G02*
X115945000Y-104497500I0J-62500D01*
G01*
G37*
G36*
G01*
X115945000Y-104997500D02*
X115945000Y-105122500D01*
G75*
G02*
X115882500Y-105185000I-62500J0D01*
G01*
X115132500Y-105185000D01*
G75*
G02*
X115070000Y-105122500I0J62500D01*
G01*
X115070000Y-104997500D01*
G75*
G02*
X115132500Y-104935000I62500J0D01*
G01*
X115882500Y-104935000D01*
G75*
G02*
X115945000Y-104997500I0J-62500D01*
G01*
G37*
G36*
G01*
X115945000Y-105497500D02*
X115945000Y-105622500D01*
G75*
G02*
X115882500Y-105685000I-62500J0D01*
G01*
X115132500Y-105685000D01*
G75*
G02*
X115070000Y-105622500I0J62500D01*
G01*
X115070000Y-105497500D01*
G75*
G02*
X115132500Y-105435000I62500J0D01*
G01*
X115882500Y-105435000D01*
G75*
G02*
X115945000Y-105497500I0J-62500D01*
G01*
G37*
G36*
G01*
X115945000Y-105997500D02*
X115945000Y-106122500D01*
G75*
G02*
X115882500Y-106185000I-62500J0D01*
G01*
X115132500Y-106185000D01*
G75*
G02*
X115070000Y-106122500I0J62500D01*
G01*
X115070000Y-105997500D01*
G75*
G02*
X115132500Y-105935000I62500J0D01*
G01*
X115882500Y-105935000D01*
G75*
G02*
X115945000Y-105997500I0J-62500D01*
G01*
G37*
G36*
G01*
X115945000Y-106497500D02*
X115945000Y-106622500D01*
G75*
G02*
X115882500Y-106685000I-62500J0D01*
G01*
X115132500Y-106685000D01*
G75*
G02*
X115070000Y-106622500I0J62500D01*
G01*
X115070000Y-106497500D01*
G75*
G02*
X115132500Y-106435000I62500J0D01*
G01*
X115882500Y-106435000D01*
G75*
G02*
X115945000Y-106497500I0J-62500D01*
G01*
G37*
G36*
G01*
X114945000Y-106872500D02*
X114945000Y-107622500D01*
G75*
G02*
X114882500Y-107685000I-62500J0D01*
G01*
X114757500Y-107685000D01*
G75*
G02*
X114695000Y-107622500I0J62500D01*
G01*
X114695000Y-106872500D01*
G75*
G02*
X114757500Y-106810000I62500J0D01*
G01*
X114882500Y-106810000D01*
G75*
G02*
X114945000Y-106872500I0J-62500D01*
G01*
G37*
G36*
G01*
X114445000Y-106872500D02*
X114445000Y-107622500D01*
G75*
G02*
X114382500Y-107685000I-62500J0D01*
G01*
X114257500Y-107685000D01*
G75*
G02*
X114195000Y-107622500I0J62500D01*
G01*
X114195000Y-106872500D01*
G75*
G02*
X114257500Y-106810000I62500J0D01*
G01*
X114382500Y-106810000D01*
G75*
G02*
X114445000Y-106872500I0J-62500D01*
G01*
G37*
G36*
G01*
X113945000Y-106872500D02*
X113945000Y-107622500D01*
G75*
G02*
X113882500Y-107685000I-62500J0D01*
G01*
X113757500Y-107685000D01*
G75*
G02*
X113695000Y-107622500I0J62500D01*
G01*
X113695000Y-106872500D01*
G75*
G02*
X113757500Y-106810000I62500J0D01*
G01*
X113882500Y-106810000D01*
G75*
G02*
X113945000Y-106872500I0J-62500D01*
G01*
G37*
G36*
G01*
X113445000Y-106872500D02*
X113445000Y-107622500D01*
G75*
G02*
X113382500Y-107685000I-62500J0D01*
G01*
X113257500Y-107685000D01*
G75*
G02*
X113195000Y-107622500I0J62500D01*
G01*
X113195000Y-106872500D01*
G75*
G02*
X113257500Y-106810000I62500J0D01*
G01*
X113382500Y-106810000D01*
G75*
G02*
X113445000Y-106872500I0J-62500D01*
G01*
G37*
G36*
G01*
X112945000Y-106872500D02*
X112945000Y-107622500D01*
G75*
G02*
X112882500Y-107685000I-62500J0D01*
G01*
X112757500Y-107685000D01*
G75*
G02*
X112695000Y-107622500I0J62500D01*
G01*
X112695000Y-106872500D01*
G75*
G02*
X112757500Y-106810000I62500J0D01*
G01*
X112882500Y-106810000D01*
G75*
G02*
X112945000Y-106872500I0J-62500D01*
G01*
G37*
G36*
G01*
X112445000Y-106872500D02*
X112445000Y-107622500D01*
G75*
G02*
X112382500Y-107685000I-62500J0D01*
G01*
X112257500Y-107685000D01*
G75*
G02*
X112195000Y-107622500I0J62500D01*
G01*
X112195000Y-106872500D01*
G75*
G02*
X112257500Y-106810000I62500J0D01*
G01*
X112382500Y-106810000D01*
G75*
G02*
X112445000Y-106872500I0J-62500D01*
G01*
G37*
G36*
G01*
X111945000Y-106872500D02*
X111945000Y-107622500D01*
G75*
G02*
X111882500Y-107685000I-62500J0D01*
G01*
X111757500Y-107685000D01*
G75*
G02*
X111695000Y-107622500I0J62500D01*
G01*
X111695000Y-106872500D01*
G75*
G02*
X111757500Y-106810000I62500J0D01*
G01*
X111882500Y-106810000D01*
G75*
G02*
X111945000Y-106872500I0J-62500D01*
G01*
G37*
G36*
G01*
X111445000Y-106872500D02*
X111445000Y-107622500D01*
G75*
G02*
X111382500Y-107685000I-62500J0D01*
G01*
X111257500Y-107685000D01*
G75*
G02*
X111195000Y-107622500I0J62500D01*
G01*
X111195000Y-106872500D01*
G75*
G02*
X111257500Y-106810000I62500J0D01*
G01*
X111382500Y-106810000D01*
G75*
G02*
X111445000Y-106872500I0J-62500D01*
G01*
G37*
G36*
G01*
X111070000Y-106497500D02*
X111070000Y-106622500D01*
G75*
G02*
X111007500Y-106685000I-62500J0D01*
G01*
X110257500Y-106685000D01*
G75*
G02*
X110195000Y-106622500I0J62500D01*
G01*
X110195000Y-106497500D01*
G75*
G02*
X110257500Y-106435000I62500J0D01*
G01*
X111007500Y-106435000D01*
G75*
G02*
X111070000Y-106497500I0J-62500D01*
G01*
G37*
G36*
G01*
X111070000Y-105997500D02*
X111070000Y-106122500D01*
G75*
G02*
X111007500Y-106185000I-62500J0D01*
G01*
X110257500Y-106185000D01*
G75*
G02*
X110195000Y-106122500I0J62500D01*
G01*
X110195000Y-105997500D01*
G75*
G02*
X110257500Y-105935000I62500J0D01*
G01*
X111007500Y-105935000D01*
G75*
G02*
X111070000Y-105997500I0J-62500D01*
G01*
G37*
G36*
G01*
X111070000Y-105497500D02*
X111070000Y-105622500D01*
G75*
G02*
X111007500Y-105685000I-62500J0D01*
G01*
X110257500Y-105685000D01*
G75*
G02*
X110195000Y-105622500I0J62500D01*
G01*
X110195000Y-105497500D01*
G75*
G02*
X110257500Y-105435000I62500J0D01*
G01*
X111007500Y-105435000D01*
G75*
G02*
X111070000Y-105497500I0J-62500D01*
G01*
G37*
G36*
G01*
X111070000Y-104997500D02*
X111070000Y-105122500D01*
G75*
G02*
X111007500Y-105185000I-62500J0D01*
G01*
X110257500Y-105185000D01*
G75*
G02*
X110195000Y-105122500I0J62500D01*
G01*
X110195000Y-104997500D01*
G75*
G02*
X110257500Y-104935000I62500J0D01*
G01*
X111007500Y-104935000D01*
G75*
G02*
X111070000Y-104997500I0J-62500D01*
G01*
G37*
G36*
G01*
X111070000Y-104497500D02*
X111070000Y-104622500D01*
G75*
G02*
X111007500Y-104685000I-62500J0D01*
G01*
X110257500Y-104685000D01*
G75*
G02*
X110195000Y-104622500I0J62500D01*
G01*
X110195000Y-104497500D01*
G75*
G02*
X110257500Y-104435000I62500J0D01*
G01*
X111007500Y-104435000D01*
G75*
G02*
X111070000Y-104497500I0J-62500D01*
G01*
G37*
G36*
G01*
X111070000Y-103997500D02*
X111070000Y-104122500D01*
G75*
G02*
X111007500Y-104185000I-62500J0D01*
G01*
X110257500Y-104185000D01*
G75*
G02*
X110195000Y-104122500I0J62500D01*
G01*
X110195000Y-103997500D01*
G75*
G02*
X110257500Y-103935000I62500J0D01*
G01*
X111007500Y-103935000D01*
G75*
G02*
X111070000Y-103997500I0J-62500D01*
G01*
G37*
G36*
G01*
X111070000Y-103497500D02*
X111070000Y-103622500D01*
G75*
G02*
X111007500Y-103685000I-62500J0D01*
G01*
X110257500Y-103685000D01*
G75*
G02*
X110195000Y-103622500I0J62500D01*
G01*
X110195000Y-103497500D01*
G75*
G02*
X110257500Y-103435000I62500J0D01*
G01*
X111007500Y-103435000D01*
G75*
G02*
X111070000Y-103497500I0J-62500D01*
G01*
G37*
G36*
G01*
X111070000Y-102997500D02*
X111070000Y-103122500D01*
G75*
G02*
X111007500Y-103185000I-62500J0D01*
G01*
X110257500Y-103185000D01*
G75*
G02*
X110195000Y-103122500I0J62500D01*
G01*
X110195000Y-102997500D01*
G75*
G02*
X110257500Y-102935000I62500J0D01*
G01*
X111007500Y-102935000D01*
G75*
G02*
X111070000Y-102997500I0J-62500D01*
G01*
G37*
G36*
G01*
X111445000Y-101997500D02*
X111445000Y-102747500D01*
G75*
G02*
X111382500Y-102810000I-62500J0D01*
G01*
X111257500Y-102810000D01*
G75*
G02*
X111195000Y-102747500I0J62500D01*
G01*
X111195000Y-101997500D01*
G75*
G02*
X111257500Y-101935000I62500J0D01*
G01*
X111382500Y-101935000D01*
G75*
G02*
X111445000Y-101997500I0J-62500D01*
G01*
G37*
G36*
G01*
X111945000Y-101997500D02*
X111945000Y-102747500D01*
G75*
G02*
X111882500Y-102810000I-62500J0D01*
G01*
X111757500Y-102810000D01*
G75*
G02*
X111695000Y-102747500I0J62500D01*
G01*
X111695000Y-101997500D01*
G75*
G02*
X111757500Y-101935000I62500J0D01*
G01*
X111882500Y-101935000D01*
G75*
G02*
X111945000Y-101997500I0J-62500D01*
G01*
G37*
G36*
G01*
X112445000Y-101997500D02*
X112445000Y-102747500D01*
G75*
G02*
X112382500Y-102810000I-62500J0D01*
G01*
X112257500Y-102810000D01*
G75*
G02*
X112195000Y-102747500I0J62500D01*
G01*
X112195000Y-101997500D01*
G75*
G02*
X112257500Y-101935000I62500J0D01*
G01*
X112382500Y-101935000D01*
G75*
G02*
X112445000Y-101997500I0J-62500D01*
G01*
G37*
G36*
G01*
X112945000Y-101997500D02*
X112945000Y-102747500D01*
G75*
G02*
X112882500Y-102810000I-62500J0D01*
G01*
X112757500Y-102810000D01*
G75*
G02*
X112695000Y-102747500I0J62500D01*
G01*
X112695000Y-101997500D01*
G75*
G02*
X112757500Y-101935000I62500J0D01*
G01*
X112882500Y-101935000D01*
G75*
G02*
X112945000Y-101997500I0J-62500D01*
G01*
G37*
G36*
G01*
X113445000Y-101997500D02*
X113445000Y-102747500D01*
G75*
G02*
X113382500Y-102810000I-62500J0D01*
G01*
X113257500Y-102810000D01*
G75*
G02*
X113195000Y-102747500I0J62500D01*
G01*
X113195000Y-101997500D01*
G75*
G02*
X113257500Y-101935000I62500J0D01*
G01*
X113382500Y-101935000D01*
G75*
G02*
X113445000Y-101997500I0J-62500D01*
G01*
G37*
G36*
G01*
X113945000Y-101997500D02*
X113945000Y-102747500D01*
G75*
G02*
X113882500Y-102810000I-62500J0D01*
G01*
X113757500Y-102810000D01*
G75*
G02*
X113695000Y-102747500I0J62500D01*
G01*
X113695000Y-101997500D01*
G75*
G02*
X113757500Y-101935000I62500J0D01*
G01*
X113882500Y-101935000D01*
G75*
G02*
X113945000Y-101997500I0J-62500D01*
G01*
G37*
G36*
G01*
X114445000Y-101997500D02*
X114445000Y-102747500D01*
G75*
G02*
X114382500Y-102810000I-62500J0D01*
G01*
X114257500Y-102810000D01*
G75*
G02*
X114195000Y-102747500I0J62500D01*
G01*
X114195000Y-101997500D01*
G75*
G02*
X114257500Y-101935000I62500J0D01*
G01*
X114382500Y-101935000D01*
G75*
G02*
X114445000Y-101997500I0J-62500D01*
G01*
G37*
G36*
G01*
X114945000Y-101997500D02*
X114945000Y-102747500D01*
G75*
G02*
X114882500Y-102810000I-62500J0D01*
G01*
X114757500Y-102810000D01*
G75*
G02*
X114695000Y-102747500I0J62500D01*
G01*
X114695000Y-101997500D01*
G75*
G02*
X114757500Y-101935000I62500J0D01*
G01*
X114882500Y-101935000D01*
G75*
G02*
X114945000Y-101997500I0J-62500D01*
G01*
G37*
G36*
G01*
X108752500Y-103080000D02*
X108407500Y-103080000D01*
G75*
G02*
X108260000Y-102932500I0J147500D01*
G01*
X108260000Y-102637500D01*
G75*
G02*
X108407500Y-102490000I147500J0D01*
G01*
X108752500Y-102490000D01*
G75*
G02*
X108900000Y-102637500I0J-147500D01*
G01*
X108900000Y-102932500D01*
G75*
G02*
X108752500Y-103080000I-147500J0D01*
G01*
G37*
G36*
G01*
X108752500Y-102110000D02*
X108407500Y-102110000D01*
G75*
G02*
X108260000Y-101962500I0J147500D01*
G01*
X108260000Y-101667500D01*
G75*
G02*
X108407500Y-101520000I147500J0D01*
G01*
X108752500Y-101520000D01*
G75*
G02*
X108900000Y-101667500I0J-147500D01*
G01*
X108900000Y-101962500D01*
G75*
G02*
X108752500Y-102110000I-147500J0D01*
G01*
G37*
D12*
X185840000Y-101470000D03*
X176700000Y-96190000D03*
M02*
