G04 #@! TF.GenerationSoftware,KiCad,Pcbnew,(5.1.10)-1*
G04 #@! TF.CreationDate,2021-06-26T09:27:45-04:00*
G04 #@! TF.ProjectId,Main,4d61696e-2e6b-4696-9361-645f70636258,5*
G04 #@! TF.SameCoordinates,Original*
G04 #@! TF.FileFunction,Copper,L2,Bot*
G04 #@! TF.FilePolarity,Positive*
%FSLAX46Y46*%
G04 Gerber Fmt 4.6, Leading zero omitted, Abs format (unit mm)*
G04 Created by KiCad (PCBNEW (5.1.10)-1) date 2021-06-26 09:27:45*
%MOMM*%
%LPD*%
G01*
G04 APERTURE LIST*
G04 #@! TA.AperFunction,SMDPad,CuDef*
%ADD10C,0.500000*%
G04 #@! TD*
G04 #@! TA.AperFunction,ComponentPad*
%ADD11C,2.500000*%
G04 #@! TD*
G04 #@! TA.AperFunction,ComponentPad*
%ADD12C,1.500000*%
G04 #@! TD*
G04 #@! TA.AperFunction,ViaPad*
%ADD13C,0.500000*%
G04 #@! TD*
G04 #@! TA.AperFunction,Conductor*
%ADD14C,0.250000*%
G04 #@! TD*
G04 #@! TA.AperFunction,Conductor*
%ADD15C,0.500000*%
G04 #@! TD*
G04 #@! TA.AperFunction,Conductor*
%ADD16C,0.100000*%
G04 #@! TD*
G04 APERTURE END LIST*
G04 #@! TA.AperFunction,SMDPad,CuDef*
G36*
G01*
X109768706Y-100531850D02*
X109401617Y-101056108D01*
G75*
G02*
X109290199Y-101075754I-65532J45886D01*
G01*
X108110620Y-100249804D01*
G75*
G02*
X108090974Y-100138386I45886J65532D01*
G01*
X108458063Y-99614128D01*
G75*
G02*
X108569481Y-99594482I65532J-45886D01*
G01*
X109749060Y-100420432D01*
G75*
G02*
X109768706Y-100531850I-45886J-65532D01*
G01*
G37*
G04 #@! TD.AperFunction*
G04 #@! TA.AperFunction,SMDPad,CuDef*
G36*
G01*
X111718866Y-97746732D02*
X111351777Y-98270990D01*
G75*
G02*
X111240359Y-98290636I-65532J45886D01*
G01*
X110060780Y-97464686D01*
G75*
G02*
X110041134Y-97353268I45886J65532D01*
G01*
X110408223Y-96829010D01*
G75*
G02*
X110519641Y-96809364I65532J-45886D01*
G01*
X111699220Y-97635314D01*
G75*
G02*
X111718866Y-97746732I-45886J-65532D01*
G01*
G37*
G04 #@! TD.AperFunction*
D10*
X134530000Y-108760000D03*
X186250000Y-96850000D03*
D11*
X100430000Y-101900000D03*
X100480000Y-106400000D03*
G04 #@! TA.AperFunction,SMDPad,CuDef*
G36*
G01*
X181952531Y-108151795D02*
X182152531Y-108498205D01*
G75*
G02*
X182134230Y-108566506I-43301J-25000D01*
G01*
X181311506Y-109041506D01*
G75*
G02*
X181243205Y-109023205I-25000J43301D01*
G01*
X181043205Y-108676795D01*
G75*
G02*
X181061506Y-108608494I43301J25000D01*
G01*
X181884230Y-108133494D01*
G75*
G02*
X181952531Y-108151795I25000J-43301D01*
G01*
G37*
G04 #@! TD.AperFunction*
G04 #@! TA.AperFunction,SMDPad,CuDef*
G36*
G01*
X179987469Y-109748205D02*
X179787469Y-109401795D01*
G75*
G02*
X179805770Y-109333494I43301J25000D01*
G01*
X180498590Y-108933494D01*
G75*
G02*
X180566891Y-108951795I25000J-43301D01*
G01*
X180766891Y-109298205D01*
G75*
G02*
X180748590Y-109366506I-43301J-25000D01*
G01*
X180055770Y-109766506D01*
G75*
G02*
X179987469Y-109748205I-25000J43301D01*
G01*
G37*
G04 #@! TD.AperFunction*
G04 #@! TA.AperFunction,SMDPad,CuDef*
G36*
G01*
X179582468Y-109046724D02*
X179342468Y-108631032D01*
G75*
G02*
X179364430Y-108549070I51962J30000D01*
G01*
X180039930Y-108159070D01*
G75*
G02*
X180121892Y-108181032I30000J-51962D01*
G01*
X180361892Y-108596724D01*
G75*
G02*
X180339930Y-108678686I-51962J-30000D01*
G01*
X179664430Y-109068686D01*
G75*
G02*
X179582468Y-109046724I-30000J51962D01*
G01*
G37*
G04 #@! TD.AperFunction*
G04 #@! TA.AperFunction,SMDPad,CuDef*
G36*
G01*
X182357532Y-108853276D02*
X182597532Y-109268968D01*
G75*
G02*
X182575570Y-109350930I-51962J-30000D01*
G01*
X181900070Y-109740930D01*
G75*
G02*
X181818108Y-109718968I-30000J51962D01*
G01*
X181578108Y-109303276D01*
G75*
G02*
X181600070Y-109221314I51962J30000D01*
G01*
X182275570Y-108831314D01*
G75*
G02*
X182357532Y-108853276I30000J-51962D01*
G01*
G37*
G04 #@! TD.AperFunction*
G04 #@! TA.AperFunction,SMDPad,CuDef*
G36*
G01*
X180971892Y-109653276D02*
X181211892Y-110068968D01*
G75*
G02*
X181189930Y-110150930I-51962J-30000D01*
G01*
X180514430Y-110540930D01*
G75*
G02*
X180432468Y-110518968I-30000J51962D01*
G01*
X180192468Y-110103276D01*
G75*
G02*
X180214430Y-110021314I51962J30000D01*
G01*
X180889930Y-109631314D01*
G75*
G02*
X180971892Y-109653276I30000J-51962D01*
G01*
G37*
G04 #@! TD.AperFunction*
G04 #@! TA.AperFunction,SMDPad,CuDef*
G36*
G01*
X181507532Y-107381032D02*
X181747532Y-107796724D01*
G75*
G02*
X181725570Y-107878686I-51962J-30000D01*
G01*
X181050070Y-108268686D01*
G75*
G02*
X180968108Y-108246724I-30000J51962D01*
G01*
X180728108Y-107831032D01*
G75*
G02*
X180750070Y-107749070I51962J30000D01*
G01*
X181425570Y-107359070D01*
G75*
G02*
X181507532Y-107381032I30000J-51962D01*
G01*
G37*
G04 #@! TD.AperFunction*
G04 #@! TA.AperFunction,SMDPad,CuDef*
G36*
G01*
X186337469Y-108508205D02*
X186537469Y-108161795D01*
G75*
G02*
X186605770Y-108143494I43301J-25000D01*
G01*
X187428494Y-108618494D01*
G75*
G02*
X187446795Y-108686795I-25000J-43301D01*
G01*
X187246795Y-109033205D01*
G75*
G02*
X187178494Y-109051506I-43301J25000D01*
G01*
X186355770Y-108576506D01*
G75*
G02*
X186337469Y-108508205I25000J43301D01*
G01*
G37*
G04 #@! TD.AperFunction*
G04 #@! TA.AperFunction,SMDPad,CuDef*
G36*
G01*
X188702531Y-109411795D02*
X188502531Y-109758205D01*
G75*
G02*
X188434230Y-109776506I-43301J25000D01*
G01*
X187741410Y-109376506D01*
G75*
G02*
X187723109Y-109308205I25000J43301D01*
G01*
X187923109Y-108961795D01*
G75*
G02*
X187991410Y-108943494I43301J-25000D01*
G01*
X188684230Y-109343494D01*
G75*
G02*
X188702531Y-109411795I-25000J-43301D01*
G01*
G37*
G04 #@! TD.AperFunction*
G04 #@! TA.AperFunction,SMDPad,CuDef*
G36*
G01*
X188297532Y-110113276D02*
X188057532Y-110528968D01*
G75*
G02*
X187975570Y-110550930I-51962J30000D01*
G01*
X187300070Y-110160930D01*
G75*
G02*
X187278108Y-110078968I30000J51962D01*
G01*
X187518108Y-109663276D01*
G75*
G02*
X187600070Y-109641314I51962J-30000D01*
G01*
X188275570Y-110031314D01*
G75*
G02*
X188297532Y-110113276I-30000J-51962D01*
G01*
G37*
G04 #@! TD.AperFunction*
G04 #@! TA.AperFunction,SMDPad,CuDef*
G36*
G01*
X186742468Y-107806724D02*
X186982468Y-107391032D01*
G75*
G02*
X187064430Y-107369070I51962J-30000D01*
G01*
X187739930Y-107759070D01*
G75*
G02*
X187761892Y-107841032I-30000J-51962D01*
G01*
X187521892Y-108256724D01*
G75*
G02*
X187439930Y-108278686I-51962J30000D01*
G01*
X186764430Y-107888686D01*
G75*
G02*
X186742468Y-107806724I30000J51962D01*
G01*
G37*
G04 #@! TD.AperFunction*
G04 #@! TA.AperFunction,SMDPad,CuDef*
G36*
G01*
X188128108Y-108606724D02*
X188368108Y-108191032D01*
G75*
G02*
X188450070Y-108169070I51962J-30000D01*
G01*
X189125570Y-108559070D01*
G75*
G02*
X189147532Y-108641032I-30000J-51962D01*
G01*
X188907532Y-109056724D01*
G75*
G02*
X188825570Y-109078686I-51962J30000D01*
G01*
X188150070Y-108688686D01*
G75*
G02*
X188128108Y-108606724I30000J51962D01*
G01*
G37*
G04 #@! TD.AperFunction*
G04 #@! TA.AperFunction,SMDPad,CuDef*
G36*
G01*
X185892468Y-109278968D02*
X186132468Y-108863276D01*
G75*
G02*
X186214430Y-108841314I51962J-30000D01*
G01*
X186889930Y-109231314D01*
G75*
G02*
X186911892Y-109313276I-30000J-51962D01*
G01*
X186671892Y-109728968D01*
G75*
G02*
X186589930Y-109750930I-51962J30000D01*
G01*
X185914430Y-109360930D01*
G75*
G02*
X185892468Y-109278968I30000J51962D01*
G01*
G37*
G04 #@! TD.AperFunction*
G04 #@! TA.AperFunction,SMDPad,CuDef*
G36*
G01*
X189040000Y-104350000D02*
X189040000Y-103950000D01*
G75*
G02*
X189090000Y-103900000I50000J0D01*
G01*
X190040000Y-103900000D01*
G75*
G02*
X190090000Y-103950000I0J-50000D01*
G01*
X190090000Y-104350000D01*
G75*
G02*
X190040000Y-104400000I-50000J0D01*
G01*
X189090000Y-104400000D01*
G75*
G02*
X189040000Y-104350000I0J50000D01*
G01*
G37*
G04 #@! TD.AperFunction*
G04 #@! TA.AperFunction,SMDPad,CuDef*
G36*
G01*
X191540000Y-103950000D02*
X191540000Y-104350000D01*
G75*
G02*
X191490000Y-104400000I-50000J0D01*
G01*
X190690000Y-104400000D01*
G75*
G02*
X190640000Y-104350000I0J50000D01*
G01*
X190640000Y-103950000D01*
G75*
G02*
X190690000Y-103900000I50000J0D01*
G01*
X191490000Y-103900000D01*
G75*
G02*
X191540000Y-103950000I0J-50000D01*
G01*
G37*
G04 #@! TD.AperFunction*
G04 #@! TA.AperFunction,SMDPad,CuDef*
G36*
G01*
X191540000Y-104760000D02*
X191540000Y-105240000D01*
G75*
G02*
X191480000Y-105300000I-60000J0D01*
G01*
X190700000Y-105300000D01*
G75*
G02*
X190640000Y-105240000I0J60000D01*
G01*
X190640000Y-104760000D01*
G75*
G02*
X190700000Y-104700000I60000J0D01*
G01*
X191480000Y-104700000D01*
G75*
G02*
X191540000Y-104760000I0J-60000D01*
G01*
G37*
G04 #@! TD.AperFunction*
G04 #@! TA.AperFunction,SMDPad,CuDef*
G36*
G01*
X189040000Y-103540000D02*
X189040000Y-103060000D01*
G75*
G02*
X189100000Y-103000000I60000J0D01*
G01*
X189880000Y-103000000D01*
G75*
G02*
X189940000Y-103060000I0J-60000D01*
G01*
X189940000Y-103540000D01*
G75*
G02*
X189880000Y-103600000I-60000J0D01*
G01*
X189100000Y-103600000D01*
G75*
G02*
X189040000Y-103540000I0J60000D01*
G01*
G37*
G04 #@! TD.AperFunction*
G04 #@! TA.AperFunction,SMDPad,CuDef*
G36*
G01*
X190640000Y-103540000D02*
X190640000Y-103060000D01*
G75*
G02*
X190700000Y-103000000I60000J0D01*
G01*
X191480000Y-103000000D01*
G75*
G02*
X191540000Y-103060000I0J-60000D01*
G01*
X191540000Y-103540000D01*
G75*
G02*
X191480000Y-103600000I-60000J0D01*
G01*
X190700000Y-103600000D01*
G75*
G02*
X190640000Y-103540000I0J60000D01*
G01*
G37*
G04 #@! TD.AperFunction*
G04 #@! TA.AperFunction,SMDPad,CuDef*
G36*
G01*
X189040000Y-105240000D02*
X189040000Y-104760000D01*
G75*
G02*
X189100000Y-104700000I60000J0D01*
G01*
X189880000Y-104700000D01*
G75*
G02*
X189940000Y-104760000I0J-60000D01*
G01*
X189940000Y-105240000D01*
G75*
G02*
X189880000Y-105300000I-60000J0D01*
G01*
X189100000Y-105300000D01*
G75*
G02*
X189040000Y-105240000I0J60000D01*
G01*
G37*
G04 #@! TD.AperFunction*
G04 #@! TA.AperFunction,SMDPad,CuDef*
G36*
G01*
X186808205Y-100092531D02*
X186461795Y-99892531D01*
G75*
G02*
X186443494Y-99824230I25000J43301D01*
G01*
X186918494Y-99001506D01*
G75*
G02*
X186986795Y-98983205I43301J-25000D01*
G01*
X187333205Y-99183205D01*
G75*
G02*
X187351506Y-99251506I-25000J-43301D01*
G01*
X186876506Y-100074230D01*
G75*
G02*
X186808205Y-100092531I-43301J25000D01*
G01*
G37*
G04 #@! TD.AperFunction*
G04 #@! TA.AperFunction,SMDPad,CuDef*
G36*
G01*
X187711795Y-97727469D02*
X188058205Y-97927469D01*
G75*
G02*
X188076506Y-97995770I-25000J-43301D01*
G01*
X187676506Y-98688590D01*
G75*
G02*
X187608205Y-98706891I-43301J25000D01*
G01*
X187261795Y-98506891D01*
G75*
G02*
X187243494Y-98438590I25000J43301D01*
G01*
X187643494Y-97745770D01*
G75*
G02*
X187711795Y-97727469I43301J-25000D01*
G01*
G37*
G04 #@! TD.AperFunction*
G04 #@! TA.AperFunction,SMDPad,CuDef*
G36*
G01*
X188413276Y-98132468D02*
X188828968Y-98372468D01*
G75*
G02*
X188850930Y-98454430I-30000J-51962D01*
G01*
X188460930Y-99129930D01*
G75*
G02*
X188378968Y-99151892I-51962J30000D01*
G01*
X187963276Y-98911892D01*
G75*
G02*
X187941314Y-98829930I30000J51962D01*
G01*
X188331314Y-98154430D01*
G75*
G02*
X188413276Y-98132468I51962J-30000D01*
G01*
G37*
G04 #@! TD.AperFunction*
G04 #@! TA.AperFunction,SMDPad,CuDef*
G36*
G01*
X186106724Y-99687532D02*
X185691032Y-99447532D01*
G75*
G02*
X185669070Y-99365570I30000J51962D01*
G01*
X186059070Y-98690070D01*
G75*
G02*
X186141032Y-98668108I51962J-30000D01*
G01*
X186556724Y-98908108D01*
G75*
G02*
X186578686Y-98990070I-30000J-51962D01*
G01*
X186188686Y-99665570D01*
G75*
G02*
X186106724Y-99687532I-51962J30000D01*
G01*
G37*
G04 #@! TD.AperFunction*
G04 #@! TA.AperFunction,SMDPad,CuDef*
G36*
G01*
X186906724Y-98301892D02*
X186491032Y-98061892D01*
G75*
G02*
X186469070Y-97979930I30000J51962D01*
G01*
X186859070Y-97304430D01*
G75*
G02*
X186941032Y-97282468I51962J-30000D01*
G01*
X187356724Y-97522468D01*
G75*
G02*
X187378686Y-97604430I-30000J-51962D01*
G01*
X186988686Y-98279930D01*
G75*
G02*
X186906724Y-98301892I-51962J30000D01*
G01*
G37*
G04 #@! TD.AperFunction*
G04 #@! TA.AperFunction,SMDPad,CuDef*
G36*
G01*
X187578968Y-100537532D02*
X187163276Y-100297532D01*
G75*
G02*
X187141314Y-100215570I30000J51962D01*
G01*
X187531314Y-99540070D01*
G75*
G02*
X187613276Y-99518108I51962J-30000D01*
G01*
X188028968Y-99758108D01*
G75*
G02*
X188050930Y-99840070I-30000J-51962D01*
G01*
X187660930Y-100515570D01*
G75*
G02*
X187578968Y-100537532I-51962J30000D01*
G01*
G37*
G04 #@! TD.AperFunction*
G04 #@! TA.AperFunction,SMDPad,CuDef*
G36*
G01*
X181168205Y-100352531D02*
X180821795Y-100152531D01*
G75*
G02*
X180803494Y-100084230I25000J43301D01*
G01*
X181278494Y-99261506D01*
G75*
G02*
X181346795Y-99243205I43301J-25000D01*
G01*
X181693205Y-99443205D01*
G75*
G02*
X181711506Y-99511506I-25000J-43301D01*
G01*
X181236506Y-100334230D01*
G75*
G02*
X181168205Y-100352531I-43301J25000D01*
G01*
G37*
G04 #@! TD.AperFunction*
G04 #@! TA.AperFunction,SMDPad,CuDef*
G36*
G01*
X182071795Y-97987469D02*
X182418205Y-98187469D01*
G75*
G02*
X182436506Y-98255770I-25000J-43301D01*
G01*
X182036506Y-98948590D01*
G75*
G02*
X181968205Y-98966891I-43301J25000D01*
G01*
X181621795Y-98766891D01*
G75*
G02*
X181603494Y-98698590I25000J43301D01*
G01*
X182003494Y-98005770D01*
G75*
G02*
X182071795Y-97987469I43301J-25000D01*
G01*
G37*
G04 #@! TD.AperFunction*
G04 #@! TA.AperFunction,SMDPad,CuDef*
G36*
G01*
X182773276Y-98392468D02*
X183188968Y-98632468D01*
G75*
G02*
X183210930Y-98714430I-30000J-51962D01*
G01*
X182820930Y-99389930D01*
G75*
G02*
X182738968Y-99411892I-51962J30000D01*
G01*
X182323276Y-99171892D01*
G75*
G02*
X182301314Y-99089930I30000J51962D01*
G01*
X182691314Y-98414430D01*
G75*
G02*
X182773276Y-98392468I51962J-30000D01*
G01*
G37*
G04 #@! TD.AperFunction*
G04 #@! TA.AperFunction,SMDPad,CuDef*
G36*
G01*
X180466724Y-99947532D02*
X180051032Y-99707532D01*
G75*
G02*
X180029070Y-99625570I30000J51962D01*
G01*
X180419070Y-98950070D01*
G75*
G02*
X180501032Y-98928108I51962J-30000D01*
G01*
X180916724Y-99168108D01*
G75*
G02*
X180938686Y-99250070I-30000J-51962D01*
G01*
X180548686Y-99925570D01*
G75*
G02*
X180466724Y-99947532I-51962J30000D01*
G01*
G37*
G04 #@! TD.AperFunction*
G04 #@! TA.AperFunction,SMDPad,CuDef*
G36*
G01*
X181266724Y-98561892D02*
X180851032Y-98321892D01*
G75*
G02*
X180829070Y-98239930I30000J51962D01*
G01*
X181219070Y-97564430D01*
G75*
G02*
X181301032Y-97542468I51962J-30000D01*
G01*
X181716724Y-97782468D01*
G75*
G02*
X181738686Y-97864430I-30000J-51962D01*
G01*
X181348686Y-98539930D01*
G75*
G02*
X181266724Y-98561892I-51962J30000D01*
G01*
G37*
G04 #@! TD.AperFunction*
G04 #@! TA.AperFunction,SMDPad,CuDef*
G36*
G01*
X181938968Y-100797532D02*
X181523276Y-100557532D01*
G75*
G02*
X181501314Y-100475570I30000J51962D01*
G01*
X181891314Y-99800070D01*
G75*
G02*
X181973276Y-99778108I51962J-30000D01*
G01*
X182388968Y-100018108D01*
G75*
G02*
X182410930Y-100100070I-30000J-51962D01*
G01*
X182020930Y-100775570D01*
G75*
G02*
X181938968Y-100797532I-51962J30000D01*
G01*
G37*
G04 #@! TD.AperFunction*
G04 #@! TA.AperFunction,SMDPad,CuDef*
G36*
G01*
X177738205Y-94852531D02*
X177391795Y-94652531D01*
G75*
G02*
X177373494Y-94584230I25000J43301D01*
G01*
X177848494Y-93761506D01*
G75*
G02*
X177916795Y-93743205I43301J-25000D01*
G01*
X178263205Y-93943205D01*
G75*
G02*
X178281506Y-94011506I-25000J-43301D01*
G01*
X177806506Y-94834230D01*
G75*
G02*
X177738205Y-94852531I-43301J25000D01*
G01*
G37*
G04 #@! TD.AperFunction*
G04 #@! TA.AperFunction,SMDPad,CuDef*
G36*
G01*
X178641795Y-92487469D02*
X178988205Y-92687469D01*
G75*
G02*
X179006506Y-92755770I-25000J-43301D01*
G01*
X178606506Y-93448590D01*
G75*
G02*
X178538205Y-93466891I-43301J25000D01*
G01*
X178191795Y-93266891D01*
G75*
G02*
X178173494Y-93198590I25000J43301D01*
G01*
X178573494Y-92505770D01*
G75*
G02*
X178641795Y-92487469I43301J-25000D01*
G01*
G37*
G04 #@! TD.AperFunction*
G04 #@! TA.AperFunction,SMDPad,CuDef*
G36*
G01*
X179343276Y-92892468D02*
X179758968Y-93132468D01*
G75*
G02*
X179780930Y-93214430I-30000J-51962D01*
G01*
X179390930Y-93889930D01*
G75*
G02*
X179308968Y-93911892I-51962J30000D01*
G01*
X178893276Y-93671892D01*
G75*
G02*
X178871314Y-93589930I30000J51962D01*
G01*
X179261314Y-92914430D01*
G75*
G02*
X179343276Y-92892468I51962J-30000D01*
G01*
G37*
G04 #@! TD.AperFunction*
G04 #@! TA.AperFunction,SMDPad,CuDef*
G36*
G01*
X177036724Y-94447532D02*
X176621032Y-94207532D01*
G75*
G02*
X176599070Y-94125570I30000J51962D01*
G01*
X176989070Y-93450070D01*
G75*
G02*
X177071032Y-93428108I51962J-30000D01*
G01*
X177486724Y-93668108D01*
G75*
G02*
X177508686Y-93750070I-30000J-51962D01*
G01*
X177118686Y-94425570D01*
G75*
G02*
X177036724Y-94447532I-51962J30000D01*
G01*
G37*
G04 #@! TD.AperFunction*
G04 #@! TA.AperFunction,SMDPad,CuDef*
G36*
G01*
X177836724Y-93061892D02*
X177421032Y-92821892D01*
G75*
G02*
X177399070Y-92739930I30000J51962D01*
G01*
X177789070Y-92064430D01*
G75*
G02*
X177871032Y-92042468I51962J-30000D01*
G01*
X178286724Y-92282468D01*
G75*
G02*
X178308686Y-92364430I-30000J-51962D01*
G01*
X177918686Y-93039930D01*
G75*
G02*
X177836724Y-93061892I-51962J30000D01*
G01*
G37*
G04 #@! TD.AperFunction*
G04 #@! TA.AperFunction,SMDPad,CuDef*
G36*
G01*
X178508968Y-95297532D02*
X178093276Y-95057532D01*
G75*
G02*
X178071314Y-94975570I30000J51962D01*
G01*
X178461314Y-94300070D01*
G75*
G02*
X178543276Y-94278108I51962J-30000D01*
G01*
X178958968Y-94518108D01*
G75*
G02*
X178980930Y-94600070I-30000J-51962D01*
G01*
X178590930Y-95275570D01*
G75*
G02*
X178508968Y-95297532I-51962J30000D01*
G01*
G37*
G04 #@! TD.AperFunction*
G04 #@! TA.AperFunction,SMDPad,CuDef*
G36*
G01*
X172938205Y-94652531D02*
X172591795Y-94852531D01*
G75*
G02*
X172523494Y-94834230I-25000J43301D01*
G01*
X172048494Y-94011506D01*
G75*
G02*
X172066795Y-93943205I43301J25000D01*
G01*
X172413205Y-93743205D01*
G75*
G02*
X172481506Y-93761506I25000J-43301D01*
G01*
X172956506Y-94584230D01*
G75*
G02*
X172938205Y-94652531I-43301J-25000D01*
G01*
G37*
G04 #@! TD.AperFunction*
G04 #@! TA.AperFunction,SMDPad,CuDef*
G36*
G01*
X171341795Y-92687469D02*
X171688205Y-92487469D01*
G75*
G02*
X171756506Y-92505770I25000J-43301D01*
G01*
X172156506Y-93198590D01*
G75*
G02*
X172138205Y-93266891I-43301J-25000D01*
G01*
X171791795Y-93466891D01*
G75*
G02*
X171723494Y-93448590I-25000J43301D01*
G01*
X171323494Y-92755770D01*
G75*
G02*
X171341795Y-92687469I43301J25000D01*
G01*
G37*
G04 #@! TD.AperFunction*
G04 #@! TA.AperFunction,SMDPad,CuDef*
G36*
G01*
X172043276Y-92282468D02*
X172458968Y-92042468D01*
G75*
G02*
X172540930Y-92064430I30000J-51962D01*
G01*
X172930930Y-92739930D01*
G75*
G02*
X172908968Y-92821892I-51962J-30000D01*
G01*
X172493276Y-93061892D01*
G75*
G02*
X172411314Y-93039930I-30000J51962D01*
G01*
X172021314Y-92364430D01*
G75*
G02*
X172043276Y-92282468I51962J30000D01*
G01*
G37*
G04 #@! TD.AperFunction*
G04 #@! TA.AperFunction,SMDPad,CuDef*
G36*
G01*
X172236724Y-95057532D02*
X171821032Y-95297532D01*
G75*
G02*
X171739070Y-95275570I-30000J51962D01*
G01*
X171349070Y-94600070D01*
G75*
G02*
X171371032Y-94518108I51962J30000D01*
G01*
X171786724Y-94278108D01*
G75*
G02*
X171868686Y-94300070I30000J-51962D01*
G01*
X172258686Y-94975570D01*
G75*
G02*
X172236724Y-95057532I-51962J-30000D01*
G01*
G37*
G04 #@! TD.AperFunction*
G04 #@! TA.AperFunction,SMDPad,CuDef*
G36*
G01*
X171436724Y-93671892D02*
X171021032Y-93911892D01*
G75*
G02*
X170939070Y-93889930I-30000J51962D01*
G01*
X170549070Y-93214430D01*
G75*
G02*
X170571032Y-93132468I51962J30000D01*
G01*
X170986724Y-92892468D01*
G75*
G02*
X171068686Y-92914430I30000J-51962D01*
G01*
X171458686Y-93589930D01*
G75*
G02*
X171436724Y-93671892I-51962J-30000D01*
G01*
G37*
G04 #@! TD.AperFunction*
G04 #@! TA.AperFunction,SMDPad,CuDef*
G36*
G01*
X173708968Y-94207532D02*
X173293276Y-94447532D01*
G75*
G02*
X173211314Y-94425570I-30000J51962D01*
G01*
X172821314Y-93750070D01*
G75*
G02*
X172843276Y-93668108I51962J30000D01*
G01*
X173258968Y-93428108D01*
G75*
G02*
X173340930Y-93450070I30000J-51962D01*
G01*
X173730930Y-94125570D01*
G75*
G02*
X173708968Y-94207532I-51962J-30000D01*
G01*
G37*
G04 #@! TD.AperFunction*
G04 #@! TA.AperFunction,SMDPad,CuDef*
G36*
G01*
X169918205Y-99892531D02*
X169571795Y-100092531D01*
G75*
G02*
X169503494Y-100074230I-25000J43301D01*
G01*
X169028494Y-99251506D01*
G75*
G02*
X169046795Y-99183205I43301J25000D01*
G01*
X169393205Y-98983205D01*
G75*
G02*
X169461506Y-99001506I25000J-43301D01*
G01*
X169936506Y-99824230D01*
G75*
G02*
X169918205Y-99892531I-43301J-25000D01*
G01*
G37*
G04 #@! TD.AperFunction*
G04 #@! TA.AperFunction,SMDPad,CuDef*
G36*
G01*
X168321795Y-97927469D02*
X168668205Y-97727469D01*
G75*
G02*
X168736506Y-97745770I25000J-43301D01*
G01*
X169136506Y-98438590D01*
G75*
G02*
X169118205Y-98506891I-43301J-25000D01*
G01*
X168771795Y-98706891D01*
G75*
G02*
X168703494Y-98688590I-25000J43301D01*
G01*
X168303494Y-97995770D01*
G75*
G02*
X168321795Y-97927469I43301J25000D01*
G01*
G37*
G04 #@! TD.AperFunction*
G04 #@! TA.AperFunction,SMDPad,CuDef*
G36*
G01*
X169023276Y-97522468D02*
X169438968Y-97282468D01*
G75*
G02*
X169520930Y-97304430I30000J-51962D01*
G01*
X169910930Y-97979930D01*
G75*
G02*
X169888968Y-98061892I-51962J-30000D01*
G01*
X169473276Y-98301892D01*
G75*
G02*
X169391314Y-98279930I-30000J51962D01*
G01*
X169001314Y-97604430D01*
G75*
G02*
X169023276Y-97522468I51962J30000D01*
G01*
G37*
G04 #@! TD.AperFunction*
G04 #@! TA.AperFunction,SMDPad,CuDef*
G36*
G01*
X169216724Y-100297532D02*
X168801032Y-100537532D01*
G75*
G02*
X168719070Y-100515570I-30000J51962D01*
G01*
X168329070Y-99840070D01*
G75*
G02*
X168351032Y-99758108I51962J30000D01*
G01*
X168766724Y-99518108D01*
G75*
G02*
X168848686Y-99540070I30000J-51962D01*
G01*
X169238686Y-100215570D01*
G75*
G02*
X169216724Y-100297532I-51962J-30000D01*
G01*
G37*
G04 #@! TD.AperFunction*
G04 #@! TA.AperFunction,SMDPad,CuDef*
G36*
G01*
X168416724Y-98911892D02*
X168001032Y-99151892D01*
G75*
G02*
X167919070Y-99129930I-30000J51962D01*
G01*
X167529070Y-98454430D01*
G75*
G02*
X167551032Y-98372468I51962J30000D01*
G01*
X167966724Y-98132468D01*
G75*
G02*
X168048686Y-98154430I30000J-51962D01*
G01*
X168438686Y-98829930D01*
G75*
G02*
X168416724Y-98911892I-51962J-30000D01*
G01*
G37*
G04 #@! TD.AperFunction*
G04 #@! TA.AperFunction,SMDPad,CuDef*
G36*
G01*
X170688968Y-99447532D02*
X170273276Y-99687532D01*
G75*
G02*
X170191314Y-99665570I-30000J51962D01*
G01*
X169801314Y-98990070D01*
G75*
G02*
X169823276Y-98908108I51962J30000D01*
G01*
X170238968Y-98668108D01*
G75*
G02*
X170320930Y-98690070I30000J-51962D01*
G01*
X170710930Y-99365570D01*
G75*
G02*
X170688968Y-99447532I-51962J-30000D01*
G01*
G37*
G04 #@! TD.AperFunction*
G04 #@! TA.AperFunction,SMDPad,CuDef*
G36*
G01*
X163658205Y-99532531D02*
X163311795Y-99732531D01*
G75*
G02*
X163243494Y-99714230I-25000J43301D01*
G01*
X162768494Y-98891506D01*
G75*
G02*
X162786795Y-98823205I43301J25000D01*
G01*
X163133205Y-98623205D01*
G75*
G02*
X163201506Y-98641506I25000J-43301D01*
G01*
X163676506Y-99464230D01*
G75*
G02*
X163658205Y-99532531I-43301J-25000D01*
G01*
G37*
G04 #@! TD.AperFunction*
G04 #@! TA.AperFunction,SMDPad,CuDef*
G36*
G01*
X162061795Y-97567469D02*
X162408205Y-97367469D01*
G75*
G02*
X162476506Y-97385770I25000J-43301D01*
G01*
X162876506Y-98078590D01*
G75*
G02*
X162858205Y-98146891I-43301J-25000D01*
G01*
X162511795Y-98346891D01*
G75*
G02*
X162443494Y-98328590I-25000J43301D01*
G01*
X162043494Y-97635770D01*
G75*
G02*
X162061795Y-97567469I43301J25000D01*
G01*
G37*
G04 #@! TD.AperFunction*
G04 #@! TA.AperFunction,SMDPad,CuDef*
G36*
G01*
X162763276Y-97162468D02*
X163178968Y-96922468D01*
G75*
G02*
X163260930Y-96944430I30000J-51962D01*
G01*
X163650930Y-97619930D01*
G75*
G02*
X163628968Y-97701892I-51962J-30000D01*
G01*
X163213276Y-97941892D01*
G75*
G02*
X163131314Y-97919930I-30000J51962D01*
G01*
X162741314Y-97244430D01*
G75*
G02*
X162763276Y-97162468I51962J30000D01*
G01*
G37*
G04 #@! TD.AperFunction*
G04 #@! TA.AperFunction,SMDPad,CuDef*
G36*
G01*
X162956724Y-99937532D02*
X162541032Y-100177532D01*
G75*
G02*
X162459070Y-100155570I-30000J51962D01*
G01*
X162069070Y-99480070D01*
G75*
G02*
X162091032Y-99398108I51962J30000D01*
G01*
X162506724Y-99158108D01*
G75*
G02*
X162588686Y-99180070I30000J-51962D01*
G01*
X162978686Y-99855570D01*
G75*
G02*
X162956724Y-99937532I-51962J-30000D01*
G01*
G37*
G04 #@! TD.AperFunction*
G04 #@! TA.AperFunction,SMDPad,CuDef*
G36*
G01*
X162156724Y-98551892D02*
X161741032Y-98791892D01*
G75*
G02*
X161659070Y-98769930I-30000J51962D01*
G01*
X161269070Y-98094430D01*
G75*
G02*
X161291032Y-98012468I51962J30000D01*
G01*
X161706724Y-97772468D01*
G75*
G02*
X161788686Y-97794430I30000J-51962D01*
G01*
X162178686Y-98469930D01*
G75*
G02*
X162156724Y-98551892I-51962J-30000D01*
G01*
G37*
G04 #@! TD.AperFunction*
G04 #@! TA.AperFunction,SMDPad,CuDef*
G36*
G01*
X164428968Y-99087532D02*
X164013276Y-99327532D01*
G75*
G02*
X163931314Y-99305570I-30000J51962D01*
G01*
X163541314Y-98630070D01*
G75*
G02*
X163563276Y-98548108I51962J30000D01*
G01*
X163978968Y-98308108D01*
G75*
G02*
X164060930Y-98330070I30000J-51962D01*
G01*
X164450930Y-99005570D01*
G75*
G02*
X164428968Y-99087532I-51962J-30000D01*
G01*
G37*
G04 #@! TD.AperFunction*
G04 #@! TA.AperFunction,SMDPad,CuDef*
G36*
G01*
X160848205Y-105132531D02*
X160501795Y-105332531D01*
G75*
G02*
X160433494Y-105314230I-25000J43301D01*
G01*
X159958494Y-104491506D01*
G75*
G02*
X159976795Y-104423205I43301J25000D01*
G01*
X160323205Y-104223205D01*
G75*
G02*
X160391506Y-104241506I25000J-43301D01*
G01*
X160866506Y-105064230D01*
G75*
G02*
X160848205Y-105132531I-43301J-25000D01*
G01*
G37*
G04 #@! TD.AperFunction*
G04 #@! TA.AperFunction,SMDPad,CuDef*
G36*
G01*
X159251795Y-103167469D02*
X159598205Y-102967469D01*
G75*
G02*
X159666506Y-102985770I25000J-43301D01*
G01*
X160066506Y-103678590D01*
G75*
G02*
X160048205Y-103746891I-43301J-25000D01*
G01*
X159701795Y-103946891D01*
G75*
G02*
X159633494Y-103928590I-25000J43301D01*
G01*
X159233494Y-103235770D01*
G75*
G02*
X159251795Y-103167469I43301J25000D01*
G01*
G37*
G04 #@! TD.AperFunction*
G04 #@! TA.AperFunction,SMDPad,CuDef*
G36*
G01*
X159953276Y-102762468D02*
X160368968Y-102522468D01*
G75*
G02*
X160450930Y-102544430I30000J-51962D01*
G01*
X160840930Y-103219930D01*
G75*
G02*
X160818968Y-103301892I-51962J-30000D01*
G01*
X160403276Y-103541892D01*
G75*
G02*
X160321314Y-103519930I-30000J51962D01*
G01*
X159931314Y-102844430D01*
G75*
G02*
X159953276Y-102762468I51962J30000D01*
G01*
G37*
G04 #@! TD.AperFunction*
G04 #@! TA.AperFunction,SMDPad,CuDef*
G36*
G01*
X160146724Y-105537532D02*
X159731032Y-105777532D01*
G75*
G02*
X159649070Y-105755570I-30000J51962D01*
G01*
X159259070Y-105080070D01*
G75*
G02*
X159281032Y-104998108I51962J30000D01*
G01*
X159696724Y-104758108D01*
G75*
G02*
X159778686Y-104780070I30000J-51962D01*
G01*
X160168686Y-105455570D01*
G75*
G02*
X160146724Y-105537532I-51962J-30000D01*
G01*
G37*
G04 #@! TD.AperFunction*
G04 #@! TA.AperFunction,SMDPad,CuDef*
G36*
G01*
X159346724Y-104151892D02*
X158931032Y-104391892D01*
G75*
G02*
X158849070Y-104369930I-30000J51962D01*
G01*
X158459070Y-103694430D01*
G75*
G02*
X158481032Y-103612468I51962J30000D01*
G01*
X158896724Y-103372468D01*
G75*
G02*
X158978686Y-103394430I30000J-51962D01*
G01*
X159368686Y-104069930D01*
G75*
G02*
X159346724Y-104151892I-51962J-30000D01*
G01*
G37*
G04 #@! TD.AperFunction*
G04 #@! TA.AperFunction,SMDPad,CuDef*
G36*
G01*
X161618968Y-104687532D02*
X161203276Y-104927532D01*
G75*
G02*
X161121314Y-104905570I-30000J51962D01*
G01*
X160731314Y-104230070D01*
G75*
G02*
X160753276Y-104148108I51962J30000D01*
G01*
X161168968Y-103908108D01*
G75*
G02*
X161250930Y-103930070I30000J-51962D01*
G01*
X161640930Y-104605570D01*
G75*
G02*
X161618968Y-104687532I-51962J-30000D01*
G01*
G37*
G04 #@! TD.AperFunction*
G04 #@! TA.AperFunction,SMDPad,CuDef*
G36*
G01*
X154798205Y-105132531D02*
X154451795Y-105332531D01*
G75*
G02*
X154383494Y-105314230I-25000J43301D01*
G01*
X153908494Y-104491506D01*
G75*
G02*
X153926795Y-104423205I43301J25000D01*
G01*
X154273205Y-104223205D01*
G75*
G02*
X154341506Y-104241506I25000J-43301D01*
G01*
X154816506Y-105064230D01*
G75*
G02*
X154798205Y-105132531I-43301J-25000D01*
G01*
G37*
G04 #@! TD.AperFunction*
G04 #@! TA.AperFunction,SMDPad,CuDef*
G36*
G01*
X153201795Y-103167469D02*
X153548205Y-102967469D01*
G75*
G02*
X153616506Y-102985770I25000J-43301D01*
G01*
X154016506Y-103678590D01*
G75*
G02*
X153998205Y-103746891I-43301J-25000D01*
G01*
X153651795Y-103946891D01*
G75*
G02*
X153583494Y-103928590I-25000J43301D01*
G01*
X153183494Y-103235770D01*
G75*
G02*
X153201795Y-103167469I43301J25000D01*
G01*
G37*
G04 #@! TD.AperFunction*
G04 #@! TA.AperFunction,SMDPad,CuDef*
G36*
G01*
X153903276Y-102762468D02*
X154318968Y-102522468D01*
G75*
G02*
X154400930Y-102544430I30000J-51962D01*
G01*
X154790930Y-103219930D01*
G75*
G02*
X154768968Y-103301892I-51962J-30000D01*
G01*
X154353276Y-103541892D01*
G75*
G02*
X154271314Y-103519930I-30000J51962D01*
G01*
X153881314Y-102844430D01*
G75*
G02*
X153903276Y-102762468I51962J30000D01*
G01*
G37*
G04 #@! TD.AperFunction*
G04 #@! TA.AperFunction,SMDPad,CuDef*
G36*
G01*
X154096724Y-105537532D02*
X153681032Y-105777532D01*
G75*
G02*
X153599070Y-105755570I-30000J51962D01*
G01*
X153209070Y-105080070D01*
G75*
G02*
X153231032Y-104998108I51962J30000D01*
G01*
X153646724Y-104758108D01*
G75*
G02*
X153728686Y-104780070I30000J-51962D01*
G01*
X154118686Y-105455570D01*
G75*
G02*
X154096724Y-105537532I-51962J-30000D01*
G01*
G37*
G04 #@! TD.AperFunction*
G04 #@! TA.AperFunction,SMDPad,CuDef*
G36*
G01*
X153296724Y-104151892D02*
X152881032Y-104391892D01*
G75*
G02*
X152799070Y-104369930I-30000J51962D01*
G01*
X152409070Y-103694430D01*
G75*
G02*
X152431032Y-103612468I51962J30000D01*
G01*
X152846724Y-103372468D01*
G75*
G02*
X152928686Y-103394430I30000J-51962D01*
G01*
X153318686Y-104069930D01*
G75*
G02*
X153296724Y-104151892I-51962J-30000D01*
G01*
G37*
G04 #@! TD.AperFunction*
G04 #@! TA.AperFunction,SMDPad,CuDef*
G36*
G01*
X155568968Y-104687532D02*
X155153276Y-104927532D01*
G75*
G02*
X155071314Y-104905570I-30000J51962D01*
G01*
X154681314Y-104230070D01*
G75*
G02*
X154703276Y-104148108I51962J30000D01*
G01*
X155118968Y-103908108D01*
G75*
G02*
X155200930Y-103930070I30000J-51962D01*
G01*
X155590930Y-104605570D01*
G75*
G02*
X155568968Y-104687532I-51962J-30000D01*
G01*
G37*
G04 #@! TD.AperFunction*
G04 #@! TA.AperFunction,SMDPad,CuDef*
G36*
G01*
X151778205Y-110372531D02*
X151431795Y-110572531D01*
G75*
G02*
X151363494Y-110554230I-25000J43301D01*
G01*
X150888494Y-109731506D01*
G75*
G02*
X150906795Y-109663205I43301J25000D01*
G01*
X151253205Y-109463205D01*
G75*
G02*
X151321506Y-109481506I25000J-43301D01*
G01*
X151796506Y-110304230D01*
G75*
G02*
X151778205Y-110372531I-43301J-25000D01*
G01*
G37*
G04 #@! TD.AperFunction*
G04 #@! TA.AperFunction,SMDPad,CuDef*
G36*
G01*
X150181795Y-108407469D02*
X150528205Y-108207469D01*
G75*
G02*
X150596506Y-108225770I25000J-43301D01*
G01*
X150996506Y-108918590D01*
G75*
G02*
X150978205Y-108986891I-43301J-25000D01*
G01*
X150631795Y-109186891D01*
G75*
G02*
X150563494Y-109168590I-25000J43301D01*
G01*
X150163494Y-108475770D01*
G75*
G02*
X150181795Y-108407469I43301J25000D01*
G01*
G37*
G04 #@! TD.AperFunction*
G04 #@! TA.AperFunction,SMDPad,CuDef*
G36*
G01*
X150883276Y-108002468D02*
X151298968Y-107762468D01*
G75*
G02*
X151380930Y-107784430I30000J-51962D01*
G01*
X151770930Y-108459930D01*
G75*
G02*
X151748968Y-108541892I-51962J-30000D01*
G01*
X151333276Y-108781892D01*
G75*
G02*
X151251314Y-108759930I-30000J51962D01*
G01*
X150861314Y-108084430D01*
G75*
G02*
X150883276Y-108002468I51962J30000D01*
G01*
G37*
G04 #@! TD.AperFunction*
G04 #@! TA.AperFunction,SMDPad,CuDef*
G36*
G01*
X151076724Y-110777532D02*
X150661032Y-111017532D01*
G75*
G02*
X150579070Y-110995570I-30000J51962D01*
G01*
X150189070Y-110320070D01*
G75*
G02*
X150211032Y-110238108I51962J30000D01*
G01*
X150626724Y-109998108D01*
G75*
G02*
X150708686Y-110020070I30000J-51962D01*
G01*
X151098686Y-110695570D01*
G75*
G02*
X151076724Y-110777532I-51962J-30000D01*
G01*
G37*
G04 #@! TD.AperFunction*
G04 #@! TA.AperFunction,SMDPad,CuDef*
G36*
G01*
X150276724Y-109391892D02*
X149861032Y-109631892D01*
G75*
G02*
X149779070Y-109609930I-30000J51962D01*
G01*
X149389070Y-108934430D01*
G75*
G02*
X149411032Y-108852468I51962J30000D01*
G01*
X149826724Y-108612468D01*
G75*
G02*
X149908686Y-108634430I30000J-51962D01*
G01*
X150298686Y-109309930D01*
G75*
G02*
X150276724Y-109391892I-51962J-30000D01*
G01*
G37*
G04 #@! TD.AperFunction*
G04 #@! TA.AperFunction,SMDPad,CuDef*
G36*
G01*
X152548968Y-109927532D02*
X152133276Y-110167532D01*
G75*
G02*
X152051314Y-110145570I-30000J51962D01*
G01*
X151661314Y-109470070D01*
G75*
G02*
X151683276Y-109388108I51962J30000D01*
G01*
X152098968Y-109148108D01*
G75*
G02*
X152180930Y-109170070I30000J-51962D01*
G01*
X152570930Y-109845570D01*
G75*
G02*
X152548968Y-109927532I-51962J-30000D01*
G01*
G37*
G04 #@! TD.AperFunction*
G04 #@! TA.AperFunction,SMDPad,CuDef*
G36*
G01*
X145718205Y-110362531D02*
X145371795Y-110562531D01*
G75*
G02*
X145303494Y-110544230I-25000J43301D01*
G01*
X144828494Y-109721506D01*
G75*
G02*
X144846795Y-109653205I43301J25000D01*
G01*
X145193205Y-109453205D01*
G75*
G02*
X145261506Y-109471506I25000J-43301D01*
G01*
X145736506Y-110294230D01*
G75*
G02*
X145718205Y-110362531I-43301J-25000D01*
G01*
G37*
G04 #@! TD.AperFunction*
G04 #@! TA.AperFunction,SMDPad,CuDef*
G36*
G01*
X144121795Y-108397469D02*
X144468205Y-108197469D01*
G75*
G02*
X144536506Y-108215770I25000J-43301D01*
G01*
X144936506Y-108908590D01*
G75*
G02*
X144918205Y-108976891I-43301J-25000D01*
G01*
X144571795Y-109176891D01*
G75*
G02*
X144503494Y-109158590I-25000J43301D01*
G01*
X144103494Y-108465770D01*
G75*
G02*
X144121795Y-108397469I43301J25000D01*
G01*
G37*
G04 #@! TD.AperFunction*
G04 #@! TA.AperFunction,SMDPad,CuDef*
G36*
G01*
X144823276Y-107992468D02*
X145238968Y-107752468D01*
G75*
G02*
X145320930Y-107774430I30000J-51962D01*
G01*
X145710930Y-108449930D01*
G75*
G02*
X145688968Y-108531892I-51962J-30000D01*
G01*
X145273276Y-108771892D01*
G75*
G02*
X145191314Y-108749930I-30000J51962D01*
G01*
X144801314Y-108074430D01*
G75*
G02*
X144823276Y-107992468I51962J30000D01*
G01*
G37*
G04 #@! TD.AperFunction*
G04 #@! TA.AperFunction,SMDPad,CuDef*
G36*
G01*
X145016724Y-110767532D02*
X144601032Y-111007532D01*
G75*
G02*
X144519070Y-110985570I-30000J51962D01*
G01*
X144129070Y-110310070D01*
G75*
G02*
X144151032Y-110228108I51962J30000D01*
G01*
X144566724Y-109988108D01*
G75*
G02*
X144648686Y-110010070I30000J-51962D01*
G01*
X145038686Y-110685570D01*
G75*
G02*
X145016724Y-110767532I-51962J-30000D01*
G01*
G37*
G04 #@! TD.AperFunction*
G04 #@! TA.AperFunction,SMDPad,CuDef*
G36*
G01*
X144216724Y-109381892D02*
X143801032Y-109621892D01*
G75*
G02*
X143719070Y-109599930I-30000J51962D01*
G01*
X143329070Y-108924430D01*
G75*
G02*
X143351032Y-108842468I51962J30000D01*
G01*
X143766724Y-108602468D01*
G75*
G02*
X143848686Y-108624430I30000J-51962D01*
G01*
X144238686Y-109299930D01*
G75*
G02*
X144216724Y-109381892I-51962J-30000D01*
G01*
G37*
G04 #@! TD.AperFunction*
G04 #@! TA.AperFunction,SMDPad,CuDef*
G36*
G01*
X146488968Y-109917532D02*
X146073276Y-110157532D01*
G75*
G02*
X145991314Y-110135570I-30000J51962D01*
G01*
X145601314Y-109460070D01*
G75*
G02*
X145623276Y-109378108I51962J30000D01*
G01*
X146038968Y-109138108D01*
G75*
G02*
X146120930Y-109160070I30000J-51962D01*
G01*
X146510930Y-109835570D01*
G75*
G02*
X146488968Y-109917532I-51962J-30000D01*
G01*
G37*
G04 #@! TD.AperFunction*
G04 #@! TA.AperFunction,SMDPad,CuDef*
G36*
G01*
X142698205Y-115602531D02*
X142351795Y-115802531D01*
G75*
G02*
X142283494Y-115784230I-25000J43301D01*
G01*
X141808494Y-114961506D01*
G75*
G02*
X141826795Y-114893205I43301J25000D01*
G01*
X142173205Y-114693205D01*
G75*
G02*
X142241506Y-114711506I25000J-43301D01*
G01*
X142716506Y-115534230D01*
G75*
G02*
X142698205Y-115602531I-43301J-25000D01*
G01*
G37*
G04 #@! TD.AperFunction*
G04 #@! TA.AperFunction,SMDPad,CuDef*
G36*
G01*
X141101795Y-113637469D02*
X141448205Y-113437469D01*
G75*
G02*
X141516506Y-113455770I25000J-43301D01*
G01*
X141916506Y-114148590D01*
G75*
G02*
X141898205Y-114216891I-43301J-25000D01*
G01*
X141551795Y-114416891D01*
G75*
G02*
X141483494Y-114398590I-25000J43301D01*
G01*
X141083494Y-113705770D01*
G75*
G02*
X141101795Y-113637469I43301J25000D01*
G01*
G37*
G04 #@! TD.AperFunction*
G04 #@! TA.AperFunction,SMDPad,CuDef*
G36*
G01*
X141803276Y-113232468D02*
X142218968Y-112992468D01*
G75*
G02*
X142300930Y-113014430I30000J-51962D01*
G01*
X142690930Y-113689930D01*
G75*
G02*
X142668968Y-113771892I-51962J-30000D01*
G01*
X142253276Y-114011892D01*
G75*
G02*
X142171314Y-113989930I-30000J51962D01*
G01*
X141781314Y-113314430D01*
G75*
G02*
X141803276Y-113232468I51962J30000D01*
G01*
G37*
G04 #@! TD.AperFunction*
G04 #@! TA.AperFunction,SMDPad,CuDef*
G36*
G01*
X141996724Y-116007532D02*
X141581032Y-116247532D01*
G75*
G02*
X141499070Y-116225570I-30000J51962D01*
G01*
X141109070Y-115550070D01*
G75*
G02*
X141131032Y-115468108I51962J30000D01*
G01*
X141546724Y-115228108D01*
G75*
G02*
X141628686Y-115250070I30000J-51962D01*
G01*
X142018686Y-115925570D01*
G75*
G02*
X141996724Y-116007532I-51962J-30000D01*
G01*
G37*
G04 #@! TD.AperFunction*
G04 #@! TA.AperFunction,SMDPad,CuDef*
G36*
G01*
X141196724Y-114621892D02*
X140781032Y-114861892D01*
G75*
G02*
X140699070Y-114839930I-30000J51962D01*
G01*
X140309070Y-114164430D01*
G75*
G02*
X140331032Y-114082468I51962J30000D01*
G01*
X140746724Y-113842468D01*
G75*
G02*
X140828686Y-113864430I30000J-51962D01*
G01*
X141218686Y-114539930D01*
G75*
G02*
X141196724Y-114621892I-51962J-30000D01*
G01*
G37*
G04 #@! TD.AperFunction*
G04 #@! TA.AperFunction,SMDPad,CuDef*
G36*
G01*
X143468968Y-115157532D02*
X143053276Y-115397532D01*
G75*
G02*
X142971314Y-115375570I-30000J51962D01*
G01*
X142581314Y-114700070D01*
G75*
G02*
X142603276Y-114618108I51962J30000D01*
G01*
X143018968Y-114378108D01*
G75*
G02*
X143100930Y-114400070I30000J-51962D01*
G01*
X143490930Y-115075570D01*
G75*
G02*
X143468968Y-115157532I-51962J-30000D01*
G01*
G37*
G04 #@! TD.AperFunction*
G04 #@! TA.AperFunction,SMDPad,CuDef*
G36*
G01*
X135408205Y-115812531D02*
X135061795Y-115612531D01*
G75*
G02*
X135043494Y-115544230I25000J43301D01*
G01*
X135518494Y-114721506D01*
G75*
G02*
X135586795Y-114703205I43301J-25000D01*
G01*
X135933205Y-114903205D01*
G75*
G02*
X135951506Y-114971506I-25000J-43301D01*
G01*
X135476506Y-115794230D01*
G75*
G02*
X135408205Y-115812531I-43301J25000D01*
G01*
G37*
G04 #@! TD.AperFunction*
G04 #@! TA.AperFunction,SMDPad,CuDef*
G36*
G01*
X136311795Y-113447469D02*
X136658205Y-113647469D01*
G75*
G02*
X136676506Y-113715770I-25000J-43301D01*
G01*
X136276506Y-114408590D01*
G75*
G02*
X136208205Y-114426891I-43301J25000D01*
G01*
X135861795Y-114226891D01*
G75*
G02*
X135843494Y-114158590I25000J43301D01*
G01*
X136243494Y-113465770D01*
G75*
G02*
X136311795Y-113447469I43301J-25000D01*
G01*
G37*
G04 #@! TD.AperFunction*
G04 #@! TA.AperFunction,SMDPad,CuDef*
G36*
G01*
X137013276Y-113852468D02*
X137428968Y-114092468D01*
G75*
G02*
X137450930Y-114174430I-30000J-51962D01*
G01*
X137060930Y-114849930D01*
G75*
G02*
X136978968Y-114871892I-51962J30000D01*
G01*
X136563276Y-114631892D01*
G75*
G02*
X136541314Y-114549930I30000J51962D01*
G01*
X136931314Y-113874430D01*
G75*
G02*
X137013276Y-113852468I51962J-30000D01*
G01*
G37*
G04 #@! TD.AperFunction*
G04 #@! TA.AperFunction,SMDPad,CuDef*
G36*
G01*
X134706724Y-115407532D02*
X134291032Y-115167532D01*
G75*
G02*
X134269070Y-115085570I30000J51962D01*
G01*
X134659070Y-114410070D01*
G75*
G02*
X134741032Y-114388108I51962J-30000D01*
G01*
X135156724Y-114628108D01*
G75*
G02*
X135178686Y-114710070I-30000J-51962D01*
G01*
X134788686Y-115385570D01*
G75*
G02*
X134706724Y-115407532I-51962J30000D01*
G01*
G37*
G04 #@! TD.AperFunction*
G04 #@! TA.AperFunction,SMDPad,CuDef*
G36*
G01*
X135506724Y-114021892D02*
X135091032Y-113781892D01*
G75*
G02*
X135069070Y-113699930I30000J51962D01*
G01*
X135459070Y-113024430D01*
G75*
G02*
X135541032Y-113002468I51962J-30000D01*
G01*
X135956724Y-113242468D01*
G75*
G02*
X135978686Y-113324430I-30000J-51962D01*
G01*
X135588686Y-113999930D01*
G75*
G02*
X135506724Y-114021892I-51962J30000D01*
G01*
G37*
G04 #@! TD.AperFunction*
G04 #@! TA.AperFunction,SMDPad,CuDef*
G36*
G01*
X136178968Y-116257532D02*
X135763276Y-116017532D01*
G75*
G02*
X135741314Y-115935570I30000J51962D01*
G01*
X136131314Y-115260070D01*
G75*
G02*
X136213276Y-115238108I51962J-30000D01*
G01*
X136628968Y-115478108D01*
G75*
G02*
X136650930Y-115560070I-30000J-51962D01*
G01*
X136260930Y-116235570D01*
G75*
G02*
X136178968Y-116257532I-51962J30000D01*
G01*
G37*
G04 #@! TD.AperFunction*
G04 #@! TA.AperFunction,SMDPad,CuDef*
G36*
G01*
X131580000Y-109590000D02*
X131580000Y-109190000D01*
G75*
G02*
X131630000Y-109140000I50000J0D01*
G01*
X132580000Y-109140000D01*
G75*
G02*
X132630000Y-109190000I0J-50000D01*
G01*
X132630000Y-109590000D01*
G75*
G02*
X132580000Y-109640000I-50000J0D01*
G01*
X131630000Y-109640000D01*
G75*
G02*
X131580000Y-109590000I0J50000D01*
G01*
G37*
G04 #@! TD.AperFunction*
G04 #@! TA.AperFunction,SMDPad,CuDef*
G36*
G01*
X134080000Y-109190000D02*
X134080000Y-109590000D01*
G75*
G02*
X134030000Y-109640000I-50000J0D01*
G01*
X133230000Y-109640000D01*
G75*
G02*
X133180000Y-109590000I0J50000D01*
G01*
X133180000Y-109190000D01*
G75*
G02*
X133230000Y-109140000I50000J0D01*
G01*
X134030000Y-109140000D01*
G75*
G02*
X134080000Y-109190000I0J-50000D01*
G01*
G37*
G04 #@! TD.AperFunction*
G04 #@! TA.AperFunction,SMDPad,CuDef*
G36*
G01*
X134080000Y-110000000D02*
X134080000Y-110480000D01*
G75*
G02*
X134020000Y-110540000I-60000J0D01*
G01*
X133240000Y-110540000D01*
G75*
G02*
X133180000Y-110480000I0J60000D01*
G01*
X133180000Y-110000000D01*
G75*
G02*
X133240000Y-109940000I60000J0D01*
G01*
X134020000Y-109940000D01*
G75*
G02*
X134080000Y-110000000I0J-60000D01*
G01*
G37*
G04 #@! TD.AperFunction*
G04 #@! TA.AperFunction,SMDPad,CuDef*
G36*
G01*
X131580000Y-108780000D02*
X131580000Y-108300000D01*
G75*
G02*
X131640000Y-108240000I60000J0D01*
G01*
X132420000Y-108240000D01*
G75*
G02*
X132480000Y-108300000I0J-60000D01*
G01*
X132480000Y-108780000D01*
G75*
G02*
X132420000Y-108840000I-60000J0D01*
G01*
X131640000Y-108840000D01*
G75*
G02*
X131580000Y-108780000I0J60000D01*
G01*
G37*
G04 #@! TD.AperFunction*
G04 #@! TA.AperFunction,SMDPad,CuDef*
G36*
G01*
X133180000Y-108780000D02*
X133180000Y-108300000D01*
G75*
G02*
X133240000Y-108240000I60000J0D01*
G01*
X134020000Y-108240000D01*
G75*
G02*
X134080000Y-108300000I0J-60000D01*
G01*
X134080000Y-108780000D01*
G75*
G02*
X134020000Y-108840000I-60000J0D01*
G01*
X133240000Y-108840000D01*
G75*
G02*
X133180000Y-108780000I0J60000D01*
G01*
G37*
G04 #@! TD.AperFunction*
G04 #@! TA.AperFunction,SMDPad,CuDef*
G36*
G01*
X131580000Y-110480000D02*
X131580000Y-110000000D01*
G75*
G02*
X131640000Y-109940000I60000J0D01*
G01*
X132420000Y-109940000D01*
G75*
G02*
X132480000Y-110000000I0J-60000D01*
G01*
X132480000Y-110480000D01*
G75*
G02*
X132420000Y-110540000I-60000J0D01*
G01*
X131640000Y-110540000D01*
G75*
G02*
X131580000Y-110480000I0J60000D01*
G01*
G37*
G04 #@! TD.AperFunction*
G04 #@! TA.AperFunction,SMDPad,CuDef*
G36*
G01*
X134600000Y-104350000D02*
X134600000Y-103950000D01*
G75*
G02*
X134650000Y-103900000I50000J0D01*
G01*
X135600000Y-103900000D01*
G75*
G02*
X135650000Y-103950000I0J-50000D01*
G01*
X135650000Y-104350000D01*
G75*
G02*
X135600000Y-104400000I-50000J0D01*
G01*
X134650000Y-104400000D01*
G75*
G02*
X134600000Y-104350000I0J50000D01*
G01*
G37*
G04 #@! TD.AperFunction*
G04 #@! TA.AperFunction,SMDPad,CuDef*
G36*
G01*
X137100000Y-103950000D02*
X137100000Y-104350000D01*
G75*
G02*
X137050000Y-104400000I-50000J0D01*
G01*
X136250000Y-104400000D01*
G75*
G02*
X136200000Y-104350000I0J50000D01*
G01*
X136200000Y-103950000D01*
G75*
G02*
X136250000Y-103900000I50000J0D01*
G01*
X137050000Y-103900000D01*
G75*
G02*
X137100000Y-103950000I0J-50000D01*
G01*
G37*
G04 #@! TD.AperFunction*
G04 #@! TA.AperFunction,SMDPad,CuDef*
G36*
G01*
X137100000Y-104760000D02*
X137100000Y-105240000D01*
G75*
G02*
X137040000Y-105300000I-60000J0D01*
G01*
X136260000Y-105300000D01*
G75*
G02*
X136200000Y-105240000I0J60000D01*
G01*
X136200000Y-104760000D01*
G75*
G02*
X136260000Y-104700000I60000J0D01*
G01*
X137040000Y-104700000D01*
G75*
G02*
X137100000Y-104760000I0J-60000D01*
G01*
G37*
G04 #@! TD.AperFunction*
G04 #@! TA.AperFunction,SMDPad,CuDef*
G36*
G01*
X134600000Y-103540000D02*
X134600000Y-103060000D01*
G75*
G02*
X134660000Y-103000000I60000J0D01*
G01*
X135440000Y-103000000D01*
G75*
G02*
X135500000Y-103060000I0J-60000D01*
G01*
X135500000Y-103540000D01*
G75*
G02*
X135440000Y-103600000I-60000J0D01*
G01*
X134660000Y-103600000D01*
G75*
G02*
X134600000Y-103540000I0J60000D01*
G01*
G37*
G04 #@! TD.AperFunction*
G04 #@! TA.AperFunction,SMDPad,CuDef*
G36*
G01*
X136200000Y-103540000D02*
X136200000Y-103060000D01*
G75*
G02*
X136260000Y-103000000I60000J0D01*
G01*
X137040000Y-103000000D01*
G75*
G02*
X137100000Y-103060000I0J-60000D01*
G01*
X137100000Y-103540000D01*
G75*
G02*
X137040000Y-103600000I-60000J0D01*
G01*
X136260000Y-103600000D01*
G75*
G02*
X136200000Y-103540000I0J60000D01*
G01*
G37*
G04 #@! TD.AperFunction*
G04 #@! TA.AperFunction,SMDPad,CuDef*
G36*
G01*
X134600000Y-105240000D02*
X134600000Y-104760000D01*
G75*
G02*
X134660000Y-104700000I60000J0D01*
G01*
X135440000Y-104700000D01*
G75*
G02*
X135500000Y-104760000I0J-60000D01*
G01*
X135500000Y-105240000D01*
G75*
G02*
X135440000Y-105300000I-60000J0D01*
G01*
X134660000Y-105300000D01*
G75*
G02*
X134600000Y-105240000I0J60000D01*
G01*
G37*
G04 #@! TD.AperFunction*
G04 #@! TA.AperFunction,SMDPad,CuDef*
G36*
G01*
X132390705Y-100034663D02*
X132044295Y-99834663D01*
G75*
G02*
X132025994Y-99766362I25000J43301D01*
G01*
X132500994Y-98943638D01*
G75*
G02*
X132569295Y-98925337I43301J-25000D01*
G01*
X132915705Y-99125337D01*
G75*
G02*
X132934006Y-99193638I-25000J-43301D01*
G01*
X132459006Y-100016362D01*
G75*
G02*
X132390705Y-100034663I-43301J25000D01*
G01*
G37*
G04 #@! TD.AperFunction*
G04 #@! TA.AperFunction,SMDPad,CuDef*
G36*
G01*
X133294295Y-97669601D02*
X133640705Y-97869601D01*
G75*
G02*
X133659006Y-97937902I-25000J-43301D01*
G01*
X133259006Y-98630722D01*
G75*
G02*
X133190705Y-98649023I-43301J25000D01*
G01*
X132844295Y-98449023D01*
G75*
G02*
X132825994Y-98380722I25000J43301D01*
G01*
X133225994Y-97687902D01*
G75*
G02*
X133294295Y-97669601I43301J-25000D01*
G01*
G37*
G04 #@! TD.AperFunction*
G04 #@! TA.AperFunction,SMDPad,CuDef*
G36*
G01*
X133995776Y-98074600D02*
X134411468Y-98314600D01*
G75*
G02*
X134433430Y-98396562I-30000J-51962D01*
G01*
X134043430Y-99072062D01*
G75*
G02*
X133961468Y-99094024I-51962J30000D01*
G01*
X133545776Y-98854024D01*
G75*
G02*
X133523814Y-98772062I30000J51962D01*
G01*
X133913814Y-98096562D01*
G75*
G02*
X133995776Y-98074600I51962J-30000D01*
G01*
G37*
G04 #@! TD.AperFunction*
G04 #@! TA.AperFunction,SMDPad,CuDef*
G36*
G01*
X131689224Y-99629664D02*
X131273532Y-99389664D01*
G75*
G02*
X131251570Y-99307702I30000J51962D01*
G01*
X131641570Y-98632202D01*
G75*
G02*
X131723532Y-98610240I51962J-30000D01*
G01*
X132139224Y-98850240D01*
G75*
G02*
X132161186Y-98932202I-30000J-51962D01*
G01*
X131771186Y-99607702D01*
G75*
G02*
X131689224Y-99629664I-51962J30000D01*
G01*
G37*
G04 #@! TD.AperFunction*
G04 #@! TA.AperFunction,SMDPad,CuDef*
G36*
G01*
X132489224Y-98244024D02*
X132073532Y-98004024D01*
G75*
G02*
X132051570Y-97922062I30000J51962D01*
G01*
X132441570Y-97246562D01*
G75*
G02*
X132523532Y-97224600I51962J-30000D01*
G01*
X132939224Y-97464600D01*
G75*
G02*
X132961186Y-97546562I-30000J-51962D01*
G01*
X132571186Y-98222062D01*
G75*
G02*
X132489224Y-98244024I-51962J30000D01*
G01*
G37*
G04 #@! TD.AperFunction*
G04 #@! TA.AperFunction,SMDPad,CuDef*
G36*
G01*
X133161468Y-100479664D02*
X132745776Y-100239664D01*
G75*
G02*
X132723814Y-100157702I30000J51962D01*
G01*
X133113814Y-99482202D01*
G75*
G02*
X133195776Y-99460240I51962J-30000D01*
G01*
X133611468Y-99700240D01*
G75*
G02*
X133633430Y-99782202I-30000J-51962D01*
G01*
X133243430Y-100457702D01*
G75*
G02*
X133161468Y-100479664I-51962J30000D01*
G01*
G37*
G04 #@! TD.AperFunction*
G04 #@! TA.AperFunction,SMDPad,CuDef*
G36*
G01*
X127558205Y-99862531D02*
X127211795Y-100062531D01*
G75*
G02*
X127143494Y-100044230I-25000J43301D01*
G01*
X126668494Y-99221506D01*
G75*
G02*
X126686795Y-99153205I43301J25000D01*
G01*
X127033205Y-98953205D01*
G75*
G02*
X127101506Y-98971506I25000J-43301D01*
G01*
X127576506Y-99794230D01*
G75*
G02*
X127558205Y-99862531I-43301J-25000D01*
G01*
G37*
G04 #@! TD.AperFunction*
G04 #@! TA.AperFunction,SMDPad,CuDef*
G36*
G01*
X125961795Y-97897469D02*
X126308205Y-97697469D01*
G75*
G02*
X126376506Y-97715770I25000J-43301D01*
G01*
X126776506Y-98408590D01*
G75*
G02*
X126758205Y-98476891I-43301J-25000D01*
G01*
X126411795Y-98676891D01*
G75*
G02*
X126343494Y-98658590I-25000J43301D01*
G01*
X125943494Y-97965770D01*
G75*
G02*
X125961795Y-97897469I43301J25000D01*
G01*
G37*
G04 #@! TD.AperFunction*
G04 #@! TA.AperFunction,SMDPad,CuDef*
G36*
G01*
X126663276Y-97492468D02*
X127078968Y-97252468D01*
G75*
G02*
X127160930Y-97274430I30000J-51962D01*
G01*
X127550930Y-97949930D01*
G75*
G02*
X127528968Y-98031892I-51962J-30000D01*
G01*
X127113276Y-98271892D01*
G75*
G02*
X127031314Y-98249930I-30000J51962D01*
G01*
X126641314Y-97574430D01*
G75*
G02*
X126663276Y-97492468I51962J30000D01*
G01*
G37*
G04 #@! TD.AperFunction*
G04 #@! TA.AperFunction,SMDPad,CuDef*
G36*
G01*
X126856724Y-100267532D02*
X126441032Y-100507532D01*
G75*
G02*
X126359070Y-100485570I-30000J51962D01*
G01*
X125969070Y-99810070D01*
G75*
G02*
X125991032Y-99728108I51962J30000D01*
G01*
X126406724Y-99488108D01*
G75*
G02*
X126488686Y-99510070I30000J-51962D01*
G01*
X126878686Y-100185570D01*
G75*
G02*
X126856724Y-100267532I-51962J-30000D01*
G01*
G37*
G04 #@! TD.AperFunction*
G04 #@! TA.AperFunction,SMDPad,CuDef*
G36*
G01*
X126056724Y-98881892D02*
X125641032Y-99121892D01*
G75*
G02*
X125559070Y-99099930I-30000J51962D01*
G01*
X125169070Y-98424430D01*
G75*
G02*
X125191032Y-98342468I51962J30000D01*
G01*
X125606724Y-98102468D01*
G75*
G02*
X125688686Y-98124430I30000J-51962D01*
G01*
X126078686Y-98799930D01*
G75*
G02*
X126056724Y-98881892I-51962J-30000D01*
G01*
G37*
G04 #@! TD.AperFunction*
G04 #@! TA.AperFunction,SMDPad,CuDef*
G36*
G01*
X128328968Y-99417532D02*
X127913276Y-99657532D01*
G75*
G02*
X127831314Y-99635570I-30000J51962D01*
G01*
X127441314Y-98960070D01*
G75*
G02*
X127463276Y-98878108I51962J30000D01*
G01*
X127878968Y-98638108D01*
G75*
G02*
X127960930Y-98660070I30000J-51962D01*
G01*
X128350930Y-99335570D01*
G75*
G02*
X128328968Y-99417532I-51962J-30000D01*
G01*
G37*
G04 #@! TD.AperFunction*
G04 #@! TA.AperFunction,SMDPad,CuDef*
G36*
G01*
X124005000Y-105400000D02*
X123605000Y-105400000D01*
G75*
G02*
X123555000Y-105350000I0J50000D01*
G01*
X123555000Y-104400000D01*
G75*
G02*
X123605000Y-104350000I50000J0D01*
G01*
X124005000Y-104350000D01*
G75*
G02*
X124055000Y-104400000I0J-50000D01*
G01*
X124055000Y-105350000D01*
G75*
G02*
X124005000Y-105400000I-50000J0D01*
G01*
G37*
G04 #@! TD.AperFunction*
G04 #@! TA.AperFunction,SMDPad,CuDef*
G36*
G01*
X123605000Y-102900000D02*
X124005000Y-102900000D01*
G75*
G02*
X124055000Y-102950000I0J-50000D01*
G01*
X124055000Y-103750000D01*
G75*
G02*
X124005000Y-103800000I-50000J0D01*
G01*
X123605000Y-103800000D01*
G75*
G02*
X123555000Y-103750000I0J50000D01*
G01*
X123555000Y-102950000D01*
G75*
G02*
X123605000Y-102900000I50000J0D01*
G01*
G37*
G04 #@! TD.AperFunction*
G04 #@! TA.AperFunction,SMDPad,CuDef*
G36*
G01*
X124415000Y-102900000D02*
X124895000Y-102900000D01*
G75*
G02*
X124955000Y-102960000I0J-60000D01*
G01*
X124955000Y-103740000D01*
G75*
G02*
X124895000Y-103800000I-60000J0D01*
G01*
X124415000Y-103800000D01*
G75*
G02*
X124355000Y-103740000I0J60000D01*
G01*
X124355000Y-102960000D01*
G75*
G02*
X124415000Y-102900000I60000J0D01*
G01*
G37*
G04 #@! TD.AperFunction*
G04 #@! TA.AperFunction,SMDPad,CuDef*
G36*
G01*
X123195000Y-105400000D02*
X122715000Y-105400000D01*
G75*
G02*
X122655000Y-105340000I0J60000D01*
G01*
X122655000Y-104560000D01*
G75*
G02*
X122715000Y-104500000I60000J0D01*
G01*
X123195000Y-104500000D01*
G75*
G02*
X123255000Y-104560000I0J-60000D01*
G01*
X123255000Y-105340000D01*
G75*
G02*
X123195000Y-105400000I-60000J0D01*
G01*
G37*
G04 #@! TD.AperFunction*
G04 #@! TA.AperFunction,SMDPad,CuDef*
G36*
G01*
X123195000Y-103800000D02*
X122715000Y-103800000D01*
G75*
G02*
X122655000Y-103740000I0J60000D01*
G01*
X122655000Y-102960000D01*
G75*
G02*
X122715000Y-102900000I60000J0D01*
G01*
X123195000Y-102900000D01*
G75*
G02*
X123255000Y-102960000I0J-60000D01*
G01*
X123255000Y-103740000D01*
G75*
G02*
X123195000Y-103800000I-60000J0D01*
G01*
G37*
G04 #@! TD.AperFunction*
G04 #@! TA.AperFunction,SMDPad,CuDef*
G36*
G01*
X124895000Y-105400000D02*
X124415000Y-105400000D01*
G75*
G02*
X124355000Y-105340000I0J60000D01*
G01*
X124355000Y-104560000D01*
G75*
G02*
X124415000Y-104500000I60000J0D01*
G01*
X124895000Y-104500000D01*
G75*
G02*
X124955000Y-104560000I0J-60000D01*
G01*
X124955000Y-105340000D01*
G75*
G02*
X124895000Y-105400000I-60000J0D01*
G01*
G37*
G04 #@! TD.AperFunction*
G04 #@! TA.AperFunction,SMDPad,CuDef*
G36*
G01*
X119691629Y-103008787D02*
X119451213Y-102768371D01*
G75*
G02*
X119451213Y-102570381I98995J98995D01*
G01*
X119649203Y-102372391D01*
G75*
G02*
X119847193Y-102372391I98995J-98995D01*
G01*
X120087609Y-102612807D01*
G75*
G02*
X120087609Y-102810797I-98995J-98995D01*
G01*
X119889619Y-103008787D01*
G75*
G02*
X119691629Y-103008787I-98995J98995D01*
G01*
G37*
G04 #@! TD.AperFunction*
G04 #@! TA.AperFunction,SMDPad,CuDef*
G36*
G01*
X119012807Y-103687609D02*
X118772391Y-103447193D01*
G75*
G02*
X118772391Y-103249203I98995J98995D01*
G01*
X118970381Y-103051213D01*
G75*
G02*
X119168371Y-103051213I98995J-98995D01*
G01*
X119408787Y-103291629D01*
G75*
G02*
X119408787Y-103489619I-98995J-98995D01*
G01*
X119210797Y-103687609D01*
G75*
G02*
X119012807Y-103687609I-98995J98995D01*
G01*
G37*
G04 #@! TD.AperFunction*
G04 #@! TA.AperFunction,SMDPad,CuDef*
G36*
G01*
X179689389Y-98911750D02*
X179390611Y-98739250D01*
G75*
G02*
X179336622Y-98537761I73750J127739D01*
G01*
X179484122Y-98282283D01*
G75*
G02*
X179685611Y-98228294I127739J-73750D01*
G01*
X179984389Y-98400794D01*
G75*
G02*
X180038378Y-98602283I-73750J-127739D01*
G01*
X179890878Y-98857761D01*
G75*
G02*
X179689389Y-98911750I-127739J73750D01*
G01*
G37*
G04 #@! TD.AperFunction*
G04 #@! TA.AperFunction,SMDPad,CuDef*
G36*
G01*
X180174389Y-98071706D02*
X179875611Y-97899206D01*
G75*
G02*
X179821622Y-97697717I73750J127739D01*
G01*
X179969122Y-97442239D01*
G75*
G02*
X180170611Y-97388250I127739J-73750D01*
G01*
X180469389Y-97560750D01*
G75*
G02*
X180523378Y-97762239I-73750J-127739D01*
G01*
X180375878Y-98017717D01*
G75*
G02*
X180174389Y-98071706I-127739J73750D01*
G01*
G37*
G04 #@! TD.AperFunction*
G04 #@! TA.AperFunction,SMDPad,CuDef*
G36*
G01*
X108255000Y-104577500D02*
X108255000Y-104922500D01*
G75*
G02*
X108107500Y-105070000I-147500J0D01*
G01*
X107812500Y-105070000D01*
G75*
G02*
X107665000Y-104922500I0J147500D01*
G01*
X107665000Y-104577500D01*
G75*
G02*
X107812500Y-104430000I147500J0D01*
G01*
X108107500Y-104430000D01*
G75*
G02*
X108255000Y-104577500I0J-147500D01*
G01*
G37*
G04 #@! TD.AperFunction*
G04 #@! TA.AperFunction,SMDPad,CuDef*
G36*
G01*
X109225000Y-104577500D02*
X109225000Y-104922500D01*
G75*
G02*
X109077500Y-105070000I-147500J0D01*
G01*
X108782500Y-105070000D01*
G75*
G02*
X108635000Y-104922500I0J147500D01*
G01*
X108635000Y-104577500D01*
G75*
G02*
X108782500Y-104430000I147500J0D01*
G01*
X109077500Y-104430000D01*
G75*
G02*
X109225000Y-104577500I0J-147500D01*
G01*
G37*
G04 #@! TD.AperFunction*
G04 #@! TA.AperFunction,SMDPad,CuDef*
G36*
G01*
X114620000Y-103509999D02*
X114620000Y-106110001D01*
G75*
G02*
X114370001Y-106360000I-249999J0D01*
G01*
X111769999Y-106360000D01*
G75*
G02*
X111520000Y-106110001I0J249999D01*
G01*
X111520000Y-103509999D01*
G75*
G02*
X111769999Y-103260000I249999J0D01*
G01*
X114370001Y-103260000D01*
G75*
G02*
X114620000Y-103509999I0J-249999D01*
G01*
G37*
G04 #@! TD.AperFunction*
G04 #@! TA.AperFunction,SMDPad,CuDef*
G36*
G01*
X115945000Y-102997500D02*
X115945000Y-103122500D01*
G75*
G02*
X115882500Y-103185000I-62500J0D01*
G01*
X115132500Y-103185000D01*
G75*
G02*
X115070000Y-103122500I0J62500D01*
G01*
X115070000Y-102997500D01*
G75*
G02*
X115132500Y-102935000I62500J0D01*
G01*
X115882500Y-102935000D01*
G75*
G02*
X115945000Y-102997500I0J-62500D01*
G01*
G37*
G04 #@! TD.AperFunction*
G04 #@! TA.AperFunction,SMDPad,CuDef*
G36*
G01*
X115945000Y-103497500D02*
X115945000Y-103622500D01*
G75*
G02*
X115882500Y-103685000I-62500J0D01*
G01*
X115132500Y-103685000D01*
G75*
G02*
X115070000Y-103622500I0J62500D01*
G01*
X115070000Y-103497500D01*
G75*
G02*
X115132500Y-103435000I62500J0D01*
G01*
X115882500Y-103435000D01*
G75*
G02*
X115945000Y-103497500I0J-62500D01*
G01*
G37*
G04 #@! TD.AperFunction*
G04 #@! TA.AperFunction,SMDPad,CuDef*
G36*
G01*
X115945000Y-103997500D02*
X115945000Y-104122500D01*
G75*
G02*
X115882500Y-104185000I-62500J0D01*
G01*
X115132500Y-104185000D01*
G75*
G02*
X115070000Y-104122500I0J62500D01*
G01*
X115070000Y-103997500D01*
G75*
G02*
X115132500Y-103935000I62500J0D01*
G01*
X115882500Y-103935000D01*
G75*
G02*
X115945000Y-103997500I0J-62500D01*
G01*
G37*
G04 #@! TD.AperFunction*
G04 #@! TA.AperFunction,SMDPad,CuDef*
G36*
G01*
X115945000Y-104497500D02*
X115945000Y-104622500D01*
G75*
G02*
X115882500Y-104685000I-62500J0D01*
G01*
X115132500Y-104685000D01*
G75*
G02*
X115070000Y-104622500I0J62500D01*
G01*
X115070000Y-104497500D01*
G75*
G02*
X115132500Y-104435000I62500J0D01*
G01*
X115882500Y-104435000D01*
G75*
G02*
X115945000Y-104497500I0J-62500D01*
G01*
G37*
G04 #@! TD.AperFunction*
G04 #@! TA.AperFunction,SMDPad,CuDef*
G36*
G01*
X115945000Y-104997500D02*
X115945000Y-105122500D01*
G75*
G02*
X115882500Y-105185000I-62500J0D01*
G01*
X115132500Y-105185000D01*
G75*
G02*
X115070000Y-105122500I0J62500D01*
G01*
X115070000Y-104997500D01*
G75*
G02*
X115132500Y-104935000I62500J0D01*
G01*
X115882500Y-104935000D01*
G75*
G02*
X115945000Y-104997500I0J-62500D01*
G01*
G37*
G04 #@! TD.AperFunction*
G04 #@! TA.AperFunction,SMDPad,CuDef*
G36*
G01*
X115945000Y-105497500D02*
X115945000Y-105622500D01*
G75*
G02*
X115882500Y-105685000I-62500J0D01*
G01*
X115132500Y-105685000D01*
G75*
G02*
X115070000Y-105622500I0J62500D01*
G01*
X115070000Y-105497500D01*
G75*
G02*
X115132500Y-105435000I62500J0D01*
G01*
X115882500Y-105435000D01*
G75*
G02*
X115945000Y-105497500I0J-62500D01*
G01*
G37*
G04 #@! TD.AperFunction*
G04 #@! TA.AperFunction,SMDPad,CuDef*
G36*
G01*
X115945000Y-105997500D02*
X115945000Y-106122500D01*
G75*
G02*
X115882500Y-106185000I-62500J0D01*
G01*
X115132500Y-106185000D01*
G75*
G02*
X115070000Y-106122500I0J62500D01*
G01*
X115070000Y-105997500D01*
G75*
G02*
X115132500Y-105935000I62500J0D01*
G01*
X115882500Y-105935000D01*
G75*
G02*
X115945000Y-105997500I0J-62500D01*
G01*
G37*
G04 #@! TD.AperFunction*
G04 #@! TA.AperFunction,SMDPad,CuDef*
G36*
G01*
X115945000Y-106497500D02*
X115945000Y-106622500D01*
G75*
G02*
X115882500Y-106685000I-62500J0D01*
G01*
X115132500Y-106685000D01*
G75*
G02*
X115070000Y-106622500I0J62500D01*
G01*
X115070000Y-106497500D01*
G75*
G02*
X115132500Y-106435000I62500J0D01*
G01*
X115882500Y-106435000D01*
G75*
G02*
X115945000Y-106497500I0J-62500D01*
G01*
G37*
G04 #@! TD.AperFunction*
G04 #@! TA.AperFunction,SMDPad,CuDef*
G36*
G01*
X114945000Y-106872500D02*
X114945000Y-107622500D01*
G75*
G02*
X114882500Y-107685000I-62500J0D01*
G01*
X114757500Y-107685000D01*
G75*
G02*
X114695000Y-107622500I0J62500D01*
G01*
X114695000Y-106872500D01*
G75*
G02*
X114757500Y-106810000I62500J0D01*
G01*
X114882500Y-106810000D01*
G75*
G02*
X114945000Y-106872500I0J-62500D01*
G01*
G37*
G04 #@! TD.AperFunction*
G04 #@! TA.AperFunction,SMDPad,CuDef*
G36*
G01*
X114445000Y-106872500D02*
X114445000Y-107622500D01*
G75*
G02*
X114382500Y-107685000I-62500J0D01*
G01*
X114257500Y-107685000D01*
G75*
G02*
X114195000Y-107622500I0J62500D01*
G01*
X114195000Y-106872500D01*
G75*
G02*
X114257500Y-106810000I62500J0D01*
G01*
X114382500Y-106810000D01*
G75*
G02*
X114445000Y-106872500I0J-62500D01*
G01*
G37*
G04 #@! TD.AperFunction*
G04 #@! TA.AperFunction,SMDPad,CuDef*
G36*
G01*
X113945000Y-106872500D02*
X113945000Y-107622500D01*
G75*
G02*
X113882500Y-107685000I-62500J0D01*
G01*
X113757500Y-107685000D01*
G75*
G02*
X113695000Y-107622500I0J62500D01*
G01*
X113695000Y-106872500D01*
G75*
G02*
X113757500Y-106810000I62500J0D01*
G01*
X113882500Y-106810000D01*
G75*
G02*
X113945000Y-106872500I0J-62500D01*
G01*
G37*
G04 #@! TD.AperFunction*
G04 #@! TA.AperFunction,SMDPad,CuDef*
G36*
G01*
X113445000Y-106872500D02*
X113445000Y-107622500D01*
G75*
G02*
X113382500Y-107685000I-62500J0D01*
G01*
X113257500Y-107685000D01*
G75*
G02*
X113195000Y-107622500I0J62500D01*
G01*
X113195000Y-106872500D01*
G75*
G02*
X113257500Y-106810000I62500J0D01*
G01*
X113382500Y-106810000D01*
G75*
G02*
X113445000Y-106872500I0J-62500D01*
G01*
G37*
G04 #@! TD.AperFunction*
G04 #@! TA.AperFunction,SMDPad,CuDef*
G36*
G01*
X112945000Y-106872500D02*
X112945000Y-107622500D01*
G75*
G02*
X112882500Y-107685000I-62500J0D01*
G01*
X112757500Y-107685000D01*
G75*
G02*
X112695000Y-107622500I0J62500D01*
G01*
X112695000Y-106872500D01*
G75*
G02*
X112757500Y-106810000I62500J0D01*
G01*
X112882500Y-106810000D01*
G75*
G02*
X112945000Y-106872500I0J-62500D01*
G01*
G37*
G04 #@! TD.AperFunction*
G04 #@! TA.AperFunction,SMDPad,CuDef*
G36*
G01*
X112445000Y-106872500D02*
X112445000Y-107622500D01*
G75*
G02*
X112382500Y-107685000I-62500J0D01*
G01*
X112257500Y-107685000D01*
G75*
G02*
X112195000Y-107622500I0J62500D01*
G01*
X112195000Y-106872500D01*
G75*
G02*
X112257500Y-106810000I62500J0D01*
G01*
X112382500Y-106810000D01*
G75*
G02*
X112445000Y-106872500I0J-62500D01*
G01*
G37*
G04 #@! TD.AperFunction*
G04 #@! TA.AperFunction,SMDPad,CuDef*
G36*
G01*
X111945000Y-106872500D02*
X111945000Y-107622500D01*
G75*
G02*
X111882500Y-107685000I-62500J0D01*
G01*
X111757500Y-107685000D01*
G75*
G02*
X111695000Y-107622500I0J62500D01*
G01*
X111695000Y-106872500D01*
G75*
G02*
X111757500Y-106810000I62500J0D01*
G01*
X111882500Y-106810000D01*
G75*
G02*
X111945000Y-106872500I0J-62500D01*
G01*
G37*
G04 #@! TD.AperFunction*
G04 #@! TA.AperFunction,SMDPad,CuDef*
G36*
G01*
X111445000Y-106872500D02*
X111445000Y-107622500D01*
G75*
G02*
X111382500Y-107685000I-62500J0D01*
G01*
X111257500Y-107685000D01*
G75*
G02*
X111195000Y-107622500I0J62500D01*
G01*
X111195000Y-106872500D01*
G75*
G02*
X111257500Y-106810000I62500J0D01*
G01*
X111382500Y-106810000D01*
G75*
G02*
X111445000Y-106872500I0J-62500D01*
G01*
G37*
G04 #@! TD.AperFunction*
G04 #@! TA.AperFunction,SMDPad,CuDef*
G36*
G01*
X111070000Y-106497500D02*
X111070000Y-106622500D01*
G75*
G02*
X111007500Y-106685000I-62500J0D01*
G01*
X110257500Y-106685000D01*
G75*
G02*
X110195000Y-106622500I0J62500D01*
G01*
X110195000Y-106497500D01*
G75*
G02*
X110257500Y-106435000I62500J0D01*
G01*
X111007500Y-106435000D01*
G75*
G02*
X111070000Y-106497500I0J-62500D01*
G01*
G37*
G04 #@! TD.AperFunction*
G04 #@! TA.AperFunction,SMDPad,CuDef*
G36*
G01*
X111070000Y-105997500D02*
X111070000Y-106122500D01*
G75*
G02*
X111007500Y-106185000I-62500J0D01*
G01*
X110257500Y-106185000D01*
G75*
G02*
X110195000Y-106122500I0J62500D01*
G01*
X110195000Y-105997500D01*
G75*
G02*
X110257500Y-105935000I62500J0D01*
G01*
X111007500Y-105935000D01*
G75*
G02*
X111070000Y-105997500I0J-62500D01*
G01*
G37*
G04 #@! TD.AperFunction*
G04 #@! TA.AperFunction,SMDPad,CuDef*
G36*
G01*
X111070000Y-105497500D02*
X111070000Y-105622500D01*
G75*
G02*
X111007500Y-105685000I-62500J0D01*
G01*
X110257500Y-105685000D01*
G75*
G02*
X110195000Y-105622500I0J62500D01*
G01*
X110195000Y-105497500D01*
G75*
G02*
X110257500Y-105435000I62500J0D01*
G01*
X111007500Y-105435000D01*
G75*
G02*
X111070000Y-105497500I0J-62500D01*
G01*
G37*
G04 #@! TD.AperFunction*
G04 #@! TA.AperFunction,SMDPad,CuDef*
G36*
G01*
X111070000Y-104997500D02*
X111070000Y-105122500D01*
G75*
G02*
X111007500Y-105185000I-62500J0D01*
G01*
X110257500Y-105185000D01*
G75*
G02*
X110195000Y-105122500I0J62500D01*
G01*
X110195000Y-104997500D01*
G75*
G02*
X110257500Y-104935000I62500J0D01*
G01*
X111007500Y-104935000D01*
G75*
G02*
X111070000Y-104997500I0J-62500D01*
G01*
G37*
G04 #@! TD.AperFunction*
G04 #@! TA.AperFunction,SMDPad,CuDef*
G36*
G01*
X111070000Y-104497500D02*
X111070000Y-104622500D01*
G75*
G02*
X111007500Y-104685000I-62500J0D01*
G01*
X110257500Y-104685000D01*
G75*
G02*
X110195000Y-104622500I0J62500D01*
G01*
X110195000Y-104497500D01*
G75*
G02*
X110257500Y-104435000I62500J0D01*
G01*
X111007500Y-104435000D01*
G75*
G02*
X111070000Y-104497500I0J-62500D01*
G01*
G37*
G04 #@! TD.AperFunction*
G04 #@! TA.AperFunction,SMDPad,CuDef*
G36*
G01*
X111070000Y-103997500D02*
X111070000Y-104122500D01*
G75*
G02*
X111007500Y-104185000I-62500J0D01*
G01*
X110257500Y-104185000D01*
G75*
G02*
X110195000Y-104122500I0J62500D01*
G01*
X110195000Y-103997500D01*
G75*
G02*
X110257500Y-103935000I62500J0D01*
G01*
X111007500Y-103935000D01*
G75*
G02*
X111070000Y-103997500I0J-62500D01*
G01*
G37*
G04 #@! TD.AperFunction*
G04 #@! TA.AperFunction,SMDPad,CuDef*
G36*
G01*
X111070000Y-103497500D02*
X111070000Y-103622500D01*
G75*
G02*
X111007500Y-103685000I-62500J0D01*
G01*
X110257500Y-103685000D01*
G75*
G02*
X110195000Y-103622500I0J62500D01*
G01*
X110195000Y-103497500D01*
G75*
G02*
X110257500Y-103435000I62500J0D01*
G01*
X111007500Y-103435000D01*
G75*
G02*
X111070000Y-103497500I0J-62500D01*
G01*
G37*
G04 #@! TD.AperFunction*
G04 #@! TA.AperFunction,SMDPad,CuDef*
G36*
G01*
X111070000Y-102997500D02*
X111070000Y-103122500D01*
G75*
G02*
X111007500Y-103185000I-62500J0D01*
G01*
X110257500Y-103185000D01*
G75*
G02*
X110195000Y-103122500I0J62500D01*
G01*
X110195000Y-102997500D01*
G75*
G02*
X110257500Y-102935000I62500J0D01*
G01*
X111007500Y-102935000D01*
G75*
G02*
X111070000Y-102997500I0J-62500D01*
G01*
G37*
G04 #@! TD.AperFunction*
G04 #@! TA.AperFunction,SMDPad,CuDef*
G36*
G01*
X111445000Y-101997500D02*
X111445000Y-102747500D01*
G75*
G02*
X111382500Y-102810000I-62500J0D01*
G01*
X111257500Y-102810000D01*
G75*
G02*
X111195000Y-102747500I0J62500D01*
G01*
X111195000Y-101997500D01*
G75*
G02*
X111257500Y-101935000I62500J0D01*
G01*
X111382500Y-101935000D01*
G75*
G02*
X111445000Y-101997500I0J-62500D01*
G01*
G37*
G04 #@! TD.AperFunction*
G04 #@! TA.AperFunction,SMDPad,CuDef*
G36*
G01*
X111945000Y-101997500D02*
X111945000Y-102747500D01*
G75*
G02*
X111882500Y-102810000I-62500J0D01*
G01*
X111757500Y-102810000D01*
G75*
G02*
X111695000Y-102747500I0J62500D01*
G01*
X111695000Y-101997500D01*
G75*
G02*
X111757500Y-101935000I62500J0D01*
G01*
X111882500Y-101935000D01*
G75*
G02*
X111945000Y-101997500I0J-62500D01*
G01*
G37*
G04 #@! TD.AperFunction*
G04 #@! TA.AperFunction,SMDPad,CuDef*
G36*
G01*
X112445000Y-101997500D02*
X112445000Y-102747500D01*
G75*
G02*
X112382500Y-102810000I-62500J0D01*
G01*
X112257500Y-102810000D01*
G75*
G02*
X112195000Y-102747500I0J62500D01*
G01*
X112195000Y-101997500D01*
G75*
G02*
X112257500Y-101935000I62500J0D01*
G01*
X112382500Y-101935000D01*
G75*
G02*
X112445000Y-101997500I0J-62500D01*
G01*
G37*
G04 #@! TD.AperFunction*
G04 #@! TA.AperFunction,SMDPad,CuDef*
G36*
G01*
X112945000Y-101997500D02*
X112945000Y-102747500D01*
G75*
G02*
X112882500Y-102810000I-62500J0D01*
G01*
X112757500Y-102810000D01*
G75*
G02*
X112695000Y-102747500I0J62500D01*
G01*
X112695000Y-101997500D01*
G75*
G02*
X112757500Y-101935000I62500J0D01*
G01*
X112882500Y-101935000D01*
G75*
G02*
X112945000Y-101997500I0J-62500D01*
G01*
G37*
G04 #@! TD.AperFunction*
G04 #@! TA.AperFunction,SMDPad,CuDef*
G36*
G01*
X113445000Y-101997500D02*
X113445000Y-102747500D01*
G75*
G02*
X113382500Y-102810000I-62500J0D01*
G01*
X113257500Y-102810000D01*
G75*
G02*
X113195000Y-102747500I0J62500D01*
G01*
X113195000Y-101997500D01*
G75*
G02*
X113257500Y-101935000I62500J0D01*
G01*
X113382500Y-101935000D01*
G75*
G02*
X113445000Y-101997500I0J-62500D01*
G01*
G37*
G04 #@! TD.AperFunction*
G04 #@! TA.AperFunction,SMDPad,CuDef*
G36*
G01*
X113945000Y-101997500D02*
X113945000Y-102747500D01*
G75*
G02*
X113882500Y-102810000I-62500J0D01*
G01*
X113757500Y-102810000D01*
G75*
G02*
X113695000Y-102747500I0J62500D01*
G01*
X113695000Y-101997500D01*
G75*
G02*
X113757500Y-101935000I62500J0D01*
G01*
X113882500Y-101935000D01*
G75*
G02*
X113945000Y-101997500I0J-62500D01*
G01*
G37*
G04 #@! TD.AperFunction*
G04 #@! TA.AperFunction,SMDPad,CuDef*
G36*
G01*
X114445000Y-101997500D02*
X114445000Y-102747500D01*
G75*
G02*
X114382500Y-102810000I-62500J0D01*
G01*
X114257500Y-102810000D01*
G75*
G02*
X114195000Y-102747500I0J62500D01*
G01*
X114195000Y-101997500D01*
G75*
G02*
X114257500Y-101935000I62500J0D01*
G01*
X114382500Y-101935000D01*
G75*
G02*
X114445000Y-101997500I0J-62500D01*
G01*
G37*
G04 #@! TD.AperFunction*
G04 #@! TA.AperFunction,SMDPad,CuDef*
G36*
G01*
X114945000Y-101997500D02*
X114945000Y-102747500D01*
G75*
G02*
X114882500Y-102810000I-62500J0D01*
G01*
X114757500Y-102810000D01*
G75*
G02*
X114695000Y-102747500I0J62500D01*
G01*
X114695000Y-101997500D01*
G75*
G02*
X114757500Y-101935000I62500J0D01*
G01*
X114882500Y-101935000D01*
G75*
G02*
X114945000Y-101997500I0J-62500D01*
G01*
G37*
G04 #@! TD.AperFunction*
G04 #@! TA.AperFunction,SMDPad,CuDef*
G36*
G01*
X108752500Y-103080000D02*
X108407500Y-103080000D01*
G75*
G02*
X108260000Y-102932500I0J147500D01*
G01*
X108260000Y-102637500D01*
G75*
G02*
X108407500Y-102490000I147500J0D01*
G01*
X108752500Y-102490000D01*
G75*
G02*
X108900000Y-102637500I0J-147500D01*
G01*
X108900000Y-102932500D01*
G75*
G02*
X108752500Y-103080000I-147500J0D01*
G01*
G37*
G04 #@! TD.AperFunction*
G04 #@! TA.AperFunction,SMDPad,CuDef*
G36*
G01*
X108752500Y-102110000D02*
X108407500Y-102110000D01*
G75*
G02*
X108260000Y-101962500I0J147500D01*
G01*
X108260000Y-101667500D01*
G75*
G02*
X108407500Y-101520000I147500J0D01*
G01*
X108752500Y-101520000D01*
G75*
G02*
X108900000Y-101667500I0J-147500D01*
G01*
X108900000Y-101962500D01*
G75*
G02*
X108752500Y-102110000I-147500J0D01*
G01*
G37*
G04 #@! TD.AperFunction*
D12*
X185840000Y-101470000D03*
X176700000Y-96190000D03*
D13*
X120260000Y-101670000D03*
X135140000Y-115880000D03*
X133710000Y-104330000D03*
X114490000Y-105650000D03*
X115400000Y-102480000D03*
X114420000Y-103760000D03*
X111760000Y-103970000D03*
X182150000Y-108270000D03*
X111780000Y-105500000D03*
X110650000Y-107220000D03*
X131450000Y-109400000D03*
X107830000Y-101150000D03*
X107830000Y-102300000D03*
X107830000Y-103750000D03*
X107830000Y-105550000D03*
X109180000Y-106050000D03*
X109330000Y-101550000D03*
X109330000Y-103400000D03*
X120060000Y-103180000D03*
X125420000Y-104700000D03*
X123380000Y-101910000D03*
X154790000Y-105510000D03*
X151763895Y-110757745D03*
X132450000Y-100700000D03*
X127450000Y-100075115D03*
X100240000Y-117350000D03*
X131270000Y-100010000D03*
X163547901Y-99742099D03*
X162200000Y-100780000D03*
X160851884Y-105538903D03*
X160160000Y-106690000D03*
X110940000Y-101940000D03*
X115680000Y-107700000D03*
X115120000Y-101830000D03*
X122830000Y-107360000D03*
X124120000Y-99090000D03*
X122810000Y-101470000D03*
X164280000Y-100260000D03*
X162700000Y-104520000D03*
X158110000Y-102070000D03*
X155670000Y-102050000D03*
X153236842Y-102789173D03*
X134550047Y-109950000D03*
X179596069Y-109743240D03*
X121000000Y-102650000D03*
X188710000Y-109650000D03*
X185760000Y-107600000D03*
X150240628Y-108109372D03*
X124120000Y-102500000D03*
X119200000Y-102120000D03*
X137960000Y-113300000D03*
X179500000Y-94600000D03*
X176750000Y-92056475D03*
X158020000Y-102770000D03*
X114860000Y-108120000D03*
X113670000Y-109100000D03*
X112850000Y-109560000D03*
X133420000Y-103170000D03*
X123500000Y-107020000D03*
X126920000Y-104420000D03*
X114930000Y-99700000D03*
X112230000Y-99000000D03*
X109830000Y-104100000D03*
X128810000Y-98450000D03*
X131130000Y-98460000D03*
X185420000Y-97010000D03*
X165140000Y-96350000D03*
X164220000Y-101750000D03*
X128230000Y-97220000D03*
X130860000Y-97160000D03*
X102120000Y-116030000D03*
X104090000Y-114640000D03*
X103130000Y-115310000D03*
X101150000Y-116700000D03*
X99270000Y-118030000D03*
X98300000Y-118700000D03*
X112190000Y-101270000D03*
X111460000Y-101430000D03*
X134530000Y-108760000D03*
X136690000Y-105940000D03*
X140490000Y-112170000D03*
X141000000Y-117220000D03*
X136030000Y-117270000D03*
X154250000Y-101080000D03*
X141680000Y-109640000D03*
X146500000Y-106840000D03*
X118820000Y-105390000D03*
X126940000Y-103640000D03*
X123420000Y-105810000D03*
X133120000Y-114140000D03*
X112910000Y-101590000D03*
X135730000Y-102190000D03*
X134200000Y-99720000D03*
X189410000Y-110410000D03*
X185973334Y-106856666D03*
X155780000Y-101370000D03*
X176130000Y-95010000D03*
X158240000Y-101350000D03*
X163100000Y-103840000D03*
X179200000Y-95300000D03*
X113430000Y-101100000D03*
X137280000Y-112890000D03*
X135800000Y-109610000D03*
X138040000Y-104850000D03*
X96420391Y-121034876D03*
X101271952Y-111098048D03*
X135407584Y-97852416D03*
D14*
X115570000Y-100770000D02*
X116350000Y-101550000D01*
X114569999Y-100770000D02*
X115570000Y-100770000D01*
X113820000Y-101520000D02*
X114569999Y-100770000D01*
X113820000Y-101952512D02*
X113820000Y-101520000D01*
X116350000Y-101550000D02*
X120263701Y-101550000D01*
X182355640Y-108150000D02*
X186100000Y-108150000D01*
X186100000Y-108150000D02*
X186822950Y-108567395D01*
X186100000Y-108150000D02*
X186734957Y-107050221D01*
X186734957Y-107050221D02*
X187306433Y-106720280D01*
X187306433Y-106720280D02*
X188250000Y-105085974D01*
X188250000Y-105085974D02*
X188250000Y-104510000D01*
X188250000Y-104510000D02*
X188610000Y-104150000D01*
X186904350Y-100691793D02*
X187637607Y-101115138D01*
X187637607Y-101115138D02*
X188610000Y-102799373D01*
X186904350Y-100691793D02*
X186904350Y-100691793D01*
X172440000Y-94189615D02*
X172961046Y-95092093D01*
X151280000Y-109919615D02*
X151763894Y-110757745D01*
X186960000Y-99429615D02*
X186567817Y-100108897D01*
X181489615Y-108650000D02*
X182355640Y-108150000D01*
X135525136Y-115210000D02*
X135089279Y-115964929D01*
X132041423Y-100209495D02*
X132401679Y-99585513D01*
X113320000Y-102385358D02*
X113320000Y-103818539D01*
X181829089Y-101200000D02*
X182200000Y-101200000D01*
X183291103Y-100108897D02*
X186567817Y-100108897D01*
X182200000Y-101200000D02*
X183291103Y-100108897D01*
X142525000Y-115700000D02*
X142301097Y-115312187D01*
X142754467Y-116097451D02*
X142524999Y-115700001D01*
X151763894Y-110757745D02*
X150571482Y-111446184D01*
X188610000Y-104150000D02*
X188610000Y-102799373D01*
X132105000Y-109390000D02*
X131449924Y-109390000D01*
X153090000Y-109992118D02*
X153090000Y-108722679D01*
X154362500Y-104777868D02*
X154233146Y-104553821D01*
X189565000Y-104150000D02*
X188610000Y-104150000D01*
X163222500Y-99177868D02*
X163586143Y-99807717D01*
X178490000Y-97743153D02*
X178490000Y-99146602D01*
X177389996Y-95069999D02*
X177810000Y-95312488D01*
X177810000Y-95312488D02*
X177810000Y-96565359D01*
X177810000Y-96565359D02*
X178490000Y-97743153D01*
X177389996Y-95069999D02*
X177514441Y-94854453D01*
X177389996Y-95069999D02*
X177896218Y-94193196D01*
X181829089Y-101200000D02*
X180785634Y-100597561D01*
X178490000Y-98636210D02*
X178490000Y-99146602D01*
X132105000Y-109390000D02*
X131449924Y-109390000D01*
X131450000Y-109400000D02*
X131410000Y-109400000D01*
X151763895Y-110757745D02*
X153090000Y-109992118D01*
X186904350Y-100691793D02*
X186567815Y-100108898D01*
X110632500Y-105060000D02*
X111580052Y-105060000D01*
X174073179Y-94450000D02*
X176316124Y-94450000D01*
X164723871Y-99320000D02*
X166852078Y-99320000D01*
X166852078Y-99320000D02*
X167227355Y-99969999D01*
X167227355Y-99970000D02*
X167903811Y-99970000D01*
X167903811Y-99970000D02*
X168434972Y-100890000D01*
X170950000Y-97750000D02*
X170734526Y-97376789D01*
X168434972Y-100890000D02*
X168811729Y-100890000D01*
X176316124Y-94450000D02*
X177389995Y-95069999D01*
X170734526Y-97376789D02*
X171599873Y-95877963D01*
X171220000Y-99499584D02*
X171220000Y-99230000D01*
X171220000Y-99230000D02*
X170950000Y-98762345D01*
X170950000Y-98762345D02*
X170950000Y-97750000D01*
X171599873Y-95877963D02*
X174073179Y-94450000D01*
X163510000Y-99670000D02*
X163588682Y-99806282D01*
X118817497Y-102500000D02*
X119061861Y-102670000D01*
X119061861Y-102670000D02*
X119805072Y-102670000D01*
X115400000Y-102500000D02*
X118817497Y-102500000D01*
X119805072Y-102670000D02*
X120878943Y-102050000D01*
X120878943Y-102050000D02*
X122840023Y-102050000D01*
X123830000Y-105294640D02*
X123830000Y-104899445D01*
X122840023Y-102050000D02*
X123380000Y-101905313D01*
X124121769Y-105800000D02*
X124836267Y-105800000D01*
X123830000Y-105294640D02*
X124121769Y-105800000D01*
X127839999Y-100070000D02*
X127447047Y-100070000D01*
X128706025Y-99570000D02*
X127839999Y-100070000D01*
X130751437Y-99570000D02*
X128706025Y-99570000D01*
X127450000Y-100357843D02*
X125790000Y-103233048D01*
X127450000Y-100075115D02*
X127450000Y-100357843D01*
X125790000Y-103233048D02*
X125790000Y-104260000D01*
X125790000Y-104260000D02*
X125389948Y-104660052D01*
X141813920Y-116660000D02*
X142519996Y-116252347D01*
X133680000Y-113493488D02*
X133680000Y-115268867D01*
X132756100Y-111893246D02*
X133680000Y-113493488D01*
X133680000Y-115268867D02*
X135985590Y-116600000D01*
X131270000Y-111035247D02*
X132756100Y-111893246D01*
X132636632Y-106714482D02*
X131270000Y-107503507D01*
X133710000Y-104855355D02*
X132636632Y-106714482D01*
X133710000Y-104420000D02*
X133710000Y-104855355D01*
X164723871Y-99320000D02*
X163650001Y-99939999D01*
X163586143Y-99807717D02*
X163650668Y-99919479D01*
X153513056Y-106360500D02*
X154841563Y-105593487D01*
X131321087Y-99898888D02*
X130751437Y-99570000D01*
X119769411Y-102690589D02*
X120120000Y-103297827D01*
X124836267Y-105800000D02*
X125430000Y-105457207D01*
X125430000Y-105457207D02*
X125430000Y-104699935D01*
X127122500Y-99507868D02*
X127447047Y-100070000D01*
X100210000Y-114114730D02*
X100210000Y-115317545D01*
X103801407Y-111600000D02*
X100210000Y-114114730D01*
X105353091Y-111600000D02*
X103801407Y-111600000D01*
X109454461Y-108728190D02*
X105353091Y-111600000D01*
X100210000Y-115317545D02*
X100210000Y-117350255D01*
X110410006Y-107772646D02*
X109454462Y-108728190D01*
X110650000Y-107532652D02*
X110410006Y-107772646D01*
X132772679Y-100710000D02*
X132449925Y-100710000D01*
X169482500Y-99537868D02*
X169900297Y-100261514D01*
X169920088Y-100250088D02*
X171220000Y-99499584D01*
X168811729Y-100890000D02*
X169900297Y-100261514D01*
X163184333Y-99105924D02*
X163510000Y-99670000D01*
X163534439Y-99750177D02*
X163636938Y-99927711D01*
X163650001Y-99940000D02*
X162189636Y-100783142D01*
X161888849Y-104940211D02*
X161971064Y-104892744D01*
X154415293Y-105839594D02*
X154841563Y-105593487D01*
X110650000Y-107190000D02*
X110650000Y-107532652D01*
X134021764Y-104150000D02*
X135239806Y-104150000D01*
X133597419Y-104394995D02*
X134021764Y-104150000D01*
X134082609Y-103554622D02*
X133597420Y-104394995D01*
X134082609Y-102978865D02*
X134082609Y-103554622D01*
X132772679Y-100710000D02*
X134082609Y-102978865D01*
X132041423Y-100209495D02*
X132070000Y-100480000D01*
X132070000Y-100480000D02*
X132450000Y-100700000D01*
X132041423Y-100209495D02*
X131490000Y-100200000D01*
X131490000Y-100200000D02*
X131230000Y-100050000D01*
X131450000Y-109400000D02*
X131270000Y-109420000D01*
X131270000Y-109420000D02*
X131270000Y-111035247D01*
X131270000Y-107503507D02*
X131270000Y-109420000D01*
X136530000Y-116600000D02*
X136714751Y-116280000D01*
X135985590Y-116600000D02*
X136530000Y-116600000D01*
X136714751Y-116280000D02*
X141052997Y-116280000D01*
X141052997Y-116280000D02*
X141319076Y-116660000D01*
X141319076Y-116660000D02*
X141813920Y-116660000D01*
X145782895Y-110874579D02*
X145282500Y-110007868D01*
X143930000Y-113012679D02*
X144855200Y-111410184D01*
X144855200Y-111410184D02*
X145782895Y-110874580D01*
X143930000Y-115438281D02*
X143930000Y-113012679D01*
X142519996Y-116252347D02*
X143929999Y-115438281D01*
X149643816Y-111446184D02*
X149149498Y-110590000D01*
X149643816Y-111446184D02*
X150571482Y-111446184D01*
X146275801Y-110590000D02*
X149149498Y-110590000D01*
X145782896Y-110874579D02*
X146275801Y-110590000D01*
X152730314Y-108099684D02*
X152730314Y-107716249D01*
X152730314Y-107716249D02*
X153513056Y-106360501D01*
X153090000Y-108722679D02*
X152730314Y-108099684D01*
X154362500Y-104777868D02*
X154790000Y-105510000D01*
X155409296Y-105259992D02*
X154909695Y-105548436D01*
X158250157Y-105259992D02*
X155409296Y-105259992D01*
X159075773Y-106690000D02*
X158250157Y-105259992D01*
X160171819Y-106690000D02*
X159075773Y-106690000D01*
X160851884Y-106297365D02*
X160171819Y-106690000D01*
X160851884Y-105538903D02*
X160851884Y-106297365D01*
X160851883Y-105538903D02*
X160350000Y-104669615D01*
X161990000Y-104881810D02*
X160851883Y-105538902D01*
X161990000Y-104580000D02*
X161990000Y-104881810D01*
X161890000Y-103710000D02*
X161990000Y-103984747D01*
X161990000Y-103984747D02*
X161990000Y-104580000D01*
X161355777Y-102242237D02*
X161890000Y-103710000D01*
X162200000Y-100780000D02*
X161355777Y-102242237D01*
X178490000Y-99146602D02*
X178490000Y-99272175D01*
X180785634Y-100597560D02*
X178490000Y-99272175D01*
X181325011Y-99663333D02*
X180785634Y-100597560D01*
X114820000Y-101980000D02*
X114820000Y-102372500D01*
X114970000Y-101830000D02*
X114820000Y-101980000D01*
X115951354Y-107230000D02*
X121110000Y-107230000D01*
X115679998Y-107700003D02*
X115951354Y-107230000D01*
X121110000Y-107230000D02*
X122610133Y-107230000D01*
X122610133Y-107230000D02*
X122829029Y-107356379D01*
X124160000Y-99090999D02*
X124160000Y-99370717D01*
X124160000Y-99370717D02*
X123029193Y-101329332D01*
X123029193Y-101329332D02*
X122858731Y-101427748D01*
X114820000Y-107230000D02*
X115951489Y-107230000D01*
X111320000Y-102372500D02*
X111320000Y-102070000D01*
X111320000Y-102070000D02*
X111320000Y-102100000D01*
X111320000Y-102010000D02*
X111320000Y-102060000D01*
X110940000Y-101940000D02*
X111320000Y-102010000D01*
X158110000Y-102070000D02*
X158060000Y-102190000D01*
X158050021Y-102150000D02*
X155710000Y-102150000D01*
X162700000Y-104520000D02*
X162735021Y-104502652D01*
X161977148Y-102414691D02*
X162732116Y-104488949D01*
X162691743Y-101176979D02*
X161977148Y-102414691D01*
X164260000Y-100271547D02*
X162691743Y-101176979D01*
X133529986Y-97340742D02*
X132246984Y-96600000D01*
X133668822Y-97420899D02*
X132246984Y-96600000D01*
X171340121Y-92284569D02*
X172352624Y-91700000D01*
X170030000Y-95084641D02*
X169129363Y-96644591D01*
X170030000Y-95084641D02*
X170030000Y-93040967D01*
X170030000Y-93040967D02*
X171340121Y-92284569D01*
X135160000Y-108760000D02*
X136211846Y-106938147D01*
X135160000Y-109229996D02*
X135160000Y-108760000D01*
X126360000Y-98187180D02*
X125922954Y-97430194D01*
X125922954Y-97430194D02*
X127360893Y-96600000D01*
X132246982Y-96600000D02*
X127360893Y-96600000D01*
X133242500Y-98159312D02*
X133668822Y-97420899D01*
X136650000Y-104150000D02*
X137470000Y-104150000D01*
X136499994Y-106649999D02*
X137187322Y-106649999D01*
X136211846Y-106938147D02*
X136499994Y-106649999D01*
X137187322Y-106649999D02*
X137470000Y-106486795D01*
X137470000Y-106486795D02*
X137470000Y-104150000D01*
X134696400Y-109693596D02*
X135160000Y-109229996D01*
X134696400Y-109693596D02*
X134696400Y-109693595D01*
X134540000Y-110887954D02*
X134540000Y-109584791D01*
X136257320Y-113030000D02*
X135536406Y-112613781D01*
X135536406Y-112613781D02*
X134540000Y-110887954D01*
X187660000Y-98217180D02*
X188109338Y-97438904D01*
X191090000Y-104150000D02*
X192000000Y-104150000D01*
X153600000Y-103457180D02*
X153219832Y-102798709D01*
X154257317Y-102200000D02*
X154257317Y-102200000D01*
X178590000Y-92977180D02*
X178992436Y-92280141D01*
X182510897Y-97626920D02*
X180240000Y-93693609D01*
X180240000Y-92990000D02*
X180240000Y-93693609D01*
X178005653Y-91700000D02*
X180240000Y-92990000D01*
X134260000Y-109390000D02*
X134539999Y-109584791D01*
X133630000Y-109390000D02*
X134260000Y-109390000D01*
X136652148Y-113257954D02*
X136257320Y-113030000D01*
X141500000Y-113927180D02*
X141121100Y-113270906D01*
X171740000Y-92977180D02*
X171340121Y-92284570D01*
X172780384Y-91700000D02*
X172352624Y-91700000D01*
X173300000Y-92600000D02*
X172780384Y-91700000D01*
X177059252Y-92600000D02*
X173300000Y-92600000D01*
X177578867Y-91700000D02*
X177059252Y-92600000D01*
X178005653Y-91700000D02*
X177578867Y-91700000D01*
X123850000Y-102967654D02*
X123850000Y-103353455D01*
X124824429Y-99695709D02*
X125281743Y-100487803D01*
X124824429Y-98064428D02*
X124824429Y-99695709D01*
X125922954Y-97430195D02*
X124824429Y-98064428D01*
X121000000Y-102650000D02*
X121089442Y-102495081D01*
X121030000Y-102490000D02*
X124125775Y-102490000D01*
X124120000Y-102500000D02*
X123850000Y-102967654D01*
X125281743Y-100487803D02*
X124125775Y-102490000D01*
X169129363Y-96644591D02*
X168470714Y-97785405D01*
X179000000Y-108381547D02*
X179000000Y-108730000D01*
X179000000Y-108730000D02*
X179587782Y-109748069D01*
X150700000Y-108894308D02*
X150360629Y-108306501D01*
X134540000Y-109584791D02*
X134696400Y-109693595D01*
X180277179Y-109350000D02*
X179596069Y-109743239D01*
X182439897Y-97749897D02*
X182510897Y-97626920D01*
X182020004Y-98477181D02*
X182439897Y-97749897D01*
X183430000Y-98320000D02*
X182440561Y-97748748D01*
X186214050Y-96828203D02*
X185780000Y-97579999D01*
X187054692Y-96830000D02*
X186242679Y-96830000D01*
X185352760Y-98320000D02*
X183430000Y-98320000D01*
X189290000Y-98120555D02*
X187054692Y-96830000D01*
X185780000Y-97579999D02*
X185352760Y-98320000D01*
X189290000Y-99395656D02*
X189290000Y-98120555D01*
X189290000Y-100247756D02*
X189290000Y-99395656D01*
X190067365Y-101594193D02*
X189290000Y-100247756D01*
X192000000Y-102710000D02*
X190067365Y-101594193D01*
X192000000Y-104150000D02*
X192000000Y-102710000D01*
X168470714Y-97785405D02*
X168719999Y-98217179D01*
X158899949Y-102960000D02*
X159344271Y-102960000D01*
X157930000Y-103520000D02*
X158899949Y-102960000D01*
X155915029Y-103520000D02*
X157930000Y-103520000D01*
X154610000Y-102200000D02*
X155129615Y-103100000D01*
X154257317Y-102200000D02*
X154610000Y-102200000D01*
X155129615Y-103100000D02*
X155672542Y-103100000D01*
X155672542Y-103100000D02*
X155915029Y-103520000D01*
X136625736Y-101227538D02*
X137470000Y-101714973D01*
X135083546Y-98556385D02*
X136625736Y-101227538D01*
X134809739Y-98398302D02*
X135083546Y-98556385D01*
X134708718Y-98021282D02*
X134809739Y-98398302D01*
X133668823Y-97420899D02*
X134708718Y-98021282D01*
X137470000Y-101714973D02*
X137470000Y-103820333D01*
X137470000Y-104150000D02*
X137470000Y-101720000D01*
X136652150Y-113257955D02*
X136338109Y-113801890D01*
X137781524Y-113910000D02*
X136652150Y-113257955D01*
X139827227Y-113910000D02*
X137781524Y-113910000D01*
X142531627Y-112348615D02*
X139827227Y-113910000D01*
X143260000Y-111087037D02*
X142531627Y-112348615D01*
X144150000Y-108030000D02*
X142810000Y-108810967D01*
X142810000Y-109300577D02*
X143260000Y-110080000D01*
X142810000Y-108810967D02*
X142810000Y-109300577D01*
X143260000Y-110080000D02*
X143260000Y-111087037D01*
X144520000Y-108687180D02*
X144150000Y-108030000D01*
X145200000Y-107430000D02*
X144152682Y-108034669D01*
X149153181Y-108270000D02*
X146060000Y-108270000D01*
X145575026Y-107430000D02*
X145200000Y-107430000D01*
X150240628Y-108109372D02*
X149153181Y-108270000D01*
X150555886Y-107243726D02*
X150240796Y-108109432D01*
X151720000Y-105227422D02*
X150555886Y-107243726D01*
X151720000Y-103664921D02*
X151720000Y-105227422D01*
X146060000Y-108270000D02*
X145575026Y-107430000D01*
X154257317Y-102200001D02*
X151720000Y-103664921D01*
X159344252Y-102955747D02*
X159637860Y-103464290D01*
X159185049Y-102680000D02*
X159344252Y-102955747D01*
X160276848Y-99994740D02*
X159185049Y-101885792D01*
X160965898Y-98801267D02*
X160276848Y-99994740D01*
X160740000Y-98410000D02*
X160965898Y-98801267D01*
X159185049Y-101885792D02*
X159185049Y-102680000D01*
X160740000Y-97985193D02*
X160740000Y-98410000D01*
X162085430Y-97208409D02*
X160740000Y-97985193D01*
X164752294Y-97810000D02*
X168484915Y-97810000D01*
X164330601Y-97079606D02*
X164752294Y-97809998D01*
X163211988Y-96557988D02*
X164330601Y-97079606D01*
X162085431Y-97208407D02*
X163211988Y-96557988D01*
X162373948Y-97708134D02*
X162085431Y-97208407D01*
X192000000Y-105638118D02*
X190296069Y-106621883D01*
X192000000Y-104150000D02*
X192000000Y-105638118D01*
X181526363Y-106922950D02*
X181834826Y-107101041D01*
X181526363Y-106922950D02*
X179000000Y-108381547D01*
X181834827Y-107101041D02*
X182140221Y-107630000D01*
X185670000Y-107630000D02*
X182140221Y-107630000D01*
X188212820Y-109360000D02*
X188710000Y-109650000D01*
X189060000Y-109660000D02*
X188710000Y-109650000D01*
X189500000Y-108848318D02*
X189060000Y-109660000D01*
X189500000Y-108000717D02*
X189500000Y-108848318D01*
X190296070Y-106621884D02*
X189500000Y-108000717D01*
X114850000Y-101220000D02*
X115360002Y-101220000D01*
X114320000Y-102372500D02*
X114320000Y-101750000D01*
X115360002Y-101220000D02*
X116170002Y-102030000D01*
X114320000Y-101750000D02*
X114850000Y-101220000D01*
X116170002Y-102030000D02*
X119200000Y-102030000D01*
X179768496Y-95186588D02*
X180704708Y-96808156D01*
X179500000Y-94721538D02*
X179768496Y-95186588D01*
X180704708Y-96808156D02*
X180172499Y-97729971D01*
X142750000Y-110197268D02*
X142180000Y-109210000D01*
X142750000Y-110941962D02*
X142750000Y-110197268D01*
X139842783Y-113300000D02*
X142161488Y-111961294D01*
X137960000Y-113300000D02*
X139842783Y-113300000D01*
X142161488Y-111961294D02*
X142750000Y-110941962D01*
X157979585Y-102700000D02*
X158020000Y-102770000D01*
X155355346Y-102640000D02*
X157989598Y-102640000D01*
X154775259Y-101635259D02*
X155355346Y-102640000D01*
X153980928Y-101635259D02*
X154775259Y-101635259D01*
X151230000Y-105081020D02*
X151230000Y-103223508D01*
X151230000Y-103223508D02*
X153980928Y-101635260D01*
X149062889Y-107770000D02*
X149747178Y-107649342D01*
X146335774Y-107770000D02*
X149062889Y-107770000D01*
X145862347Y-106950000D02*
X146335774Y-107770000D01*
X145112155Y-106950000D02*
X145862347Y-106950000D01*
X142180000Y-108642880D02*
X145112155Y-106950000D01*
X142180000Y-109209998D02*
X142180000Y-108642880D01*
X150100000Y-107038239D02*
X151230000Y-105081020D01*
X149747178Y-107649342D02*
X150099999Y-107038239D01*
X176536602Y-92100000D02*
X176634309Y-92043589D01*
X173519615Y-92100000D02*
X176536602Y-92100000D01*
X173000000Y-91200000D02*
X173519615Y-92100000D01*
X172184678Y-91200000D02*
X173000000Y-91200000D01*
X169500000Y-92750000D02*
X172184678Y-91200000D01*
X169500000Y-94991011D02*
X169500000Y-92750000D01*
X168155358Y-97320000D02*
X169500000Y-94991011D01*
X165032597Y-97320000D02*
X168155358Y-97320000D01*
X164651052Y-96659142D02*
X165032597Y-97320000D01*
X158663333Y-102398571D02*
X157950718Y-102810000D01*
X158663333Y-101786033D02*
X158663333Y-102398571D01*
X160361455Y-98844797D02*
X158663333Y-101786033D01*
X160220000Y-98541445D02*
X160361455Y-98844797D01*
X160220000Y-97766073D02*
X160220000Y-98541445D01*
X163266549Y-96013539D02*
X160222765Y-97770869D01*
X164651052Y-96659142D02*
X163266549Y-96013539D01*
X152540000Y-104797808D02*
X152540000Y-104068453D01*
X152540000Y-104068453D02*
X152863566Y-103881643D01*
X151316122Y-108272180D02*
X151100000Y-107897845D01*
X151100000Y-107897845D02*
X151100000Y-107291961D01*
X151100000Y-107291961D02*
X152540000Y-104797808D01*
D15*
X108929840Y-100335118D02*
X108580000Y-100941058D01*
X108580000Y-100941058D02*
X108580000Y-101815000D01*
D14*
X110632500Y-105560000D02*
X109829938Y-105560000D01*
D15*
X109829938Y-105560000D02*
X108930000Y-104660062D01*
X108930000Y-104660062D02*
X108930000Y-104200000D01*
X108930000Y-104200000D02*
X108580000Y-103850000D01*
X108580000Y-103850000D02*
X108580000Y-102785000D01*
D14*
X114320000Y-107975663D02*
X114320000Y-107247500D01*
X114587320Y-108130000D02*
X114960000Y-108130000D01*
X114587320Y-108130000D02*
X114320000Y-107975663D01*
X113820000Y-107247500D02*
X113820000Y-109080331D01*
X112850000Y-108970001D02*
X112850000Y-109511547D01*
X113320000Y-107247500D02*
X113320000Y-108500001D01*
X113320000Y-108500001D02*
X112850000Y-108970001D01*
X126671712Y-104472220D02*
X126920000Y-104405692D01*
X126364897Y-103394898D02*
X126364897Y-103940800D01*
X126364897Y-103940800D02*
X126671712Y-104472220D01*
X132471648Y-101458353D02*
X131019577Y-100620000D01*
X133449900Y-103152737D02*
X132471648Y-101458353D01*
X131019577Y-100620000D02*
X129092679Y-100620000D01*
X129092679Y-100620000D02*
X127404137Y-101594879D01*
X127404137Y-101594879D02*
X126364897Y-103394898D01*
X117930000Y-106790000D02*
X123000000Y-106790000D01*
X123000000Y-106790000D02*
X123490438Y-107073153D01*
X117460000Y-106320000D02*
X117930000Y-106790000D01*
X116280001Y-106320000D02*
X117460000Y-106320000D01*
X116020000Y-106060000D02*
X116280001Y-106320000D01*
X115507500Y-106060000D02*
X116020000Y-106060000D01*
X113930000Y-99600000D02*
X114756794Y-99600000D01*
X110320000Y-101720000D02*
X112439999Y-99600000D01*
X112440000Y-99600000D02*
X113930000Y-99600000D01*
X110320000Y-103060000D02*
X110320000Y-101720000D01*
X115507500Y-103060000D02*
X118781178Y-103060000D01*
X119090589Y-103369411D02*
X118781178Y-103060000D01*
X110100000Y-103560000D02*
X109880000Y-103340000D01*
X110632500Y-103560000D02*
X110100000Y-103560000D01*
X109880000Y-103340000D02*
X109880000Y-101520000D01*
X109880000Y-101520000D02*
X111199999Y-100200001D01*
X111199999Y-100200001D02*
X112318233Y-99081767D01*
X110632500Y-104060000D02*
X109880000Y-104060000D01*
X130780000Y-98460000D02*
X128810000Y-98460000D01*
X131130000Y-98460000D02*
X130780000Y-98460000D01*
X169020000Y-94660000D02*
X167778696Y-96810000D01*
X169020000Y-92447408D02*
X169020000Y-94660000D01*
X172046602Y-90700000D02*
X169020000Y-92447408D01*
X185420000Y-97020000D02*
X185420000Y-97250000D01*
X180770000Y-92850000D02*
X180770000Y-92710000D01*
X185420000Y-97250000D02*
X185108231Y-97790000D01*
X167778696Y-96810000D02*
X165264226Y-96810000D01*
X176590000Y-91180000D02*
X176140001Y-91630000D01*
X185108231Y-97790000D02*
X183594255Y-97790000D01*
X183594255Y-97790000D02*
X183002595Y-97448405D01*
X183002595Y-97448405D02*
X180770000Y-93581436D01*
X180770000Y-93581436D02*
X180770000Y-92850000D01*
X180770000Y-92710000D02*
X178119962Y-91180000D01*
X178119962Y-91180000D02*
X176590000Y-91180000D01*
X176140001Y-91630000D02*
X173821547Y-91630000D01*
X173821547Y-91630000D02*
X173284611Y-90700000D01*
X173284611Y-90700000D02*
X172046602Y-90700000D01*
X165264226Y-96810000D02*
X165033983Y-96411208D01*
X165140000Y-96350000D02*
X165033983Y-96411208D01*
X175990000Y-95730000D02*
X176684468Y-96213129D01*
X174271718Y-95730000D02*
X175990000Y-95730000D01*
X172490000Y-99678036D02*
X172490000Y-98600000D01*
X172457383Y-99799763D02*
X172490000Y-99678036D01*
X169270000Y-101640000D02*
X172457383Y-99799763D01*
X172123908Y-97965910D02*
X172986357Y-96472103D01*
X168940910Y-101830000D02*
X169269999Y-101640000D01*
X172490000Y-98600000D02*
X172123908Y-97965910D01*
X167855388Y-101830000D02*
X168940910Y-101830000D01*
X172986357Y-96472103D02*
X174271718Y-95730000D01*
X167330000Y-100920000D02*
X167855388Y-101830000D01*
X165415114Y-100920000D02*
X167330000Y-100920000D01*
X164220000Y-101610000D02*
X165415114Y-100920000D01*
X130850000Y-97160000D02*
X128146713Y-97160000D01*
X111820000Y-107792670D02*
X111106104Y-108506566D01*
X111820000Y-107247500D02*
X111820000Y-107792670D01*
X111106104Y-108506566D02*
X110269599Y-109343070D01*
X110269599Y-109343070D02*
X105603939Y-112610000D01*
X105603939Y-112610000D02*
X104229970Y-112610000D01*
X104229970Y-112610000D02*
X102070000Y-114122427D01*
X102070000Y-114122427D02*
X102070000Y-116030637D01*
X104470177Y-114630000D02*
X104106649Y-114630000D01*
X105070000Y-114210000D02*
X104470177Y-114630000D01*
X105856455Y-113659320D02*
X105070000Y-114210000D01*
X110803438Y-110195416D02*
X105856455Y-113659320D01*
X112820000Y-108180000D02*
X110803911Y-110196088D01*
X112820000Y-107247500D02*
X112820000Y-108180000D01*
X112320000Y-107247500D02*
X112320000Y-107990001D01*
X112320000Y-107990001D02*
X111415001Y-108895000D01*
X111415001Y-108895000D02*
X111350004Y-108959997D01*
X111350004Y-108959997D02*
X110600697Y-109709303D01*
X110600697Y-109709303D02*
X105758279Y-113100000D01*
X105758279Y-113100000D02*
X104458562Y-113100000D01*
X104458562Y-113100000D02*
X103110000Y-114044273D01*
X103110000Y-114044273D02*
X103110000Y-115310143D01*
X101140000Y-114116575D02*
X101140000Y-115650000D01*
X101140000Y-115650000D02*
X101140000Y-116700047D01*
X104005687Y-112110000D02*
X101140001Y-114116575D01*
X105513820Y-112110000D02*
X104005687Y-112110000D01*
X109837404Y-109082595D02*
X105513820Y-112110000D01*
X110831457Y-108088543D02*
X109837404Y-109082595D01*
X111320000Y-107599999D02*
X110831458Y-108088543D01*
X111320000Y-107247500D02*
X111320000Y-107599999D01*
X110060000Y-107399966D02*
X110060000Y-106749999D01*
X110632500Y-106560000D02*
X110249998Y-106560000D01*
X110060000Y-106749999D02*
X110249998Y-106560000D01*
X99270000Y-115174409D02*
X99270000Y-118030000D01*
X99270000Y-114110891D02*
X99270000Y-115174409D01*
X105127153Y-111100000D02*
X103570000Y-111100000D01*
X103570000Y-111100000D02*
X99270000Y-114110891D01*
X109239369Y-108220596D02*
X105127153Y-111100000D01*
X110060000Y-107399966D02*
X109239369Y-108220596D01*
X109590000Y-107120828D02*
X109590000Y-106580000D01*
X110632500Y-106060000D02*
X110110000Y-106060000D01*
X110110000Y-106060000D02*
X109590000Y-106580000D01*
X109590000Y-107120828D02*
X108834264Y-107876563D01*
X108834264Y-107876563D02*
X104916229Y-110620000D01*
X104916229Y-110620000D02*
X103320000Y-110620000D01*
X98310000Y-115631606D02*
X98310000Y-118700016D01*
X98310000Y-114128039D02*
X98310000Y-115631606D01*
X103320000Y-110620000D02*
X98310000Y-114128039D01*
X112320000Y-102372500D02*
X112320000Y-101420000D01*
X112320000Y-101420000D02*
X112190000Y-101290000D01*
X111820000Y-102372500D02*
X111820000Y-101730000D01*
X111820000Y-101730000D02*
X111460000Y-101430000D01*
X122960717Y-105020717D02*
X122960717Y-105020717D01*
X118220000Y-104060000D02*
X115507477Y-104060000D01*
X118760000Y-104600000D02*
X118220000Y-104060000D01*
X122539998Y-104600000D02*
X118760000Y-104600000D01*
X122960717Y-105020717D02*
X122539998Y-104600000D01*
X115507500Y-103560000D02*
X118430000Y-103560000D01*
X122955000Y-103350000D02*
X122510441Y-104120000D01*
X122510441Y-104120000D02*
X118990001Y-104120000D01*
X118430000Y-103560000D02*
X118990001Y-104120000D01*
X135781254Y-106548742D02*
X136199996Y-106130000D01*
X134504584Y-108760000D02*
X135781254Y-106548742D01*
X136199996Y-106130000D02*
X136590000Y-106130000D01*
X141426555Y-111774001D02*
X142200000Y-110434355D01*
X140553592Y-112278006D02*
X141426555Y-111774001D01*
X124725358Y-106370000D02*
X127520000Y-104756513D01*
X115507500Y-105560000D02*
X117490000Y-105560000D01*
X118300000Y-106370000D02*
X124725358Y-106370000D01*
X117490000Y-105560000D02*
X118300000Y-106370000D01*
X127520000Y-103490665D02*
X128176120Y-102354231D01*
X127520000Y-104756513D02*
X127520000Y-103490665D01*
X129240000Y-101740000D02*
X130800000Y-101740000D01*
X129240000Y-101740000D02*
X128176120Y-102354231D01*
X132521070Y-115219173D02*
X135744114Y-117080000D01*
X131803526Y-112736107D02*
X132521070Y-113978930D01*
X132521070Y-113978930D02*
X132521070Y-115219173D01*
X131541339Y-102168011D02*
X132360000Y-103585974D01*
X130380000Y-111914235D02*
X131803526Y-112736107D01*
X131549620Y-106100937D02*
X130380000Y-106776218D01*
X142200000Y-110434355D02*
X142200000Y-110262679D01*
X130800000Y-101740000D02*
X131541339Y-102168011D01*
X130380000Y-106776218D02*
X130380000Y-111914235D01*
X132360000Y-103585974D02*
X132360000Y-104697319D01*
X132360000Y-104697319D02*
X131549620Y-106100937D01*
X135744114Y-117080000D02*
X136030000Y-117270000D01*
X140820000Y-116970000D02*
X140996317Y-117221807D01*
X136998978Y-116970000D02*
X140820000Y-116970000D01*
X136825773Y-117270000D02*
X136998978Y-116970000D01*
X136030000Y-117270000D02*
X136825773Y-117270000D01*
X141924500Y-109785500D02*
X141680000Y-109640000D01*
X142200000Y-110262679D02*
X141924500Y-109785500D01*
X153833051Y-101130000D02*
X154279978Y-101130000D01*
X150750000Y-102910000D02*
X153833051Y-101130000D01*
X150097575Y-106042424D02*
X150749999Y-104912393D01*
X149442343Y-107177317D02*
X150097575Y-106042424D01*
X148859999Y-107280000D02*
X149442343Y-107177317D01*
X146754034Y-107280000D02*
X148859999Y-107280000D01*
X150750000Y-104912393D02*
X150750000Y-102910000D01*
X146500000Y-106840000D02*
X146754034Y-107280000D01*
X117960000Y-104560000D02*
X118751600Y-105351600D01*
X115667500Y-104560000D02*
X117960000Y-104560000D01*
X118610000Y-105940000D02*
X123130000Y-105940000D01*
X123130000Y-105940000D02*
X123355165Y-105810000D01*
X133180000Y-113765640D02*
X133180000Y-114270899D01*
X132384237Y-112387339D02*
X133180000Y-113765640D01*
X130830000Y-107135803D02*
X130830000Y-111490000D01*
X132054021Y-106429113D02*
X130830000Y-107135802D01*
X132910000Y-103394642D02*
X132910000Y-104946513D01*
X132004218Y-101825781D02*
X132910000Y-103394642D01*
X129098561Y-101240000D02*
X130989614Y-101240000D01*
X130989614Y-101240000D02*
X132004218Y-101825781D01*
X127785000Y-101998384D02*
X129098561Y-101240000D01*
X130830000Y-111490000D02*
X132384237Y-112387339D01*
X126870605Y-103591723D02*
X127793278Y-101993606D01*
X132910000Y-104946513D02*
X132054021Y-106429113D01*
X126904615Y-103615383D02*
X126870605Y-103591723D01*
X115507500Y-105060000D02*
X117730000Y-105060000D01*
X117730000Y-105060000D02*
X118610000Y-105940000D01*
X112820000Y-102372500D02*
X112820000Y-101569938D01*
X134200000Y-99720000D02*
X135635705Y-102206714D01*
X146317186Y-110100000D02*
X146106124Y-109734428D01*
X149435440Y-110100000D02*
X146317186Y-110100000D01*
X149874226Y-110860000D02*
X149435440Y-110100000D01*
X150233884Y-110860000D02*
X149874226Y-110860000D01*
X150693878Y-110594423D02*
X150233884Y-110860000D01*
X125380000Y-98990000D02*
X125604846Y-98600556D01*
X125380000Y-99682923D02*
X125380000Y-98990000D01*
X125881436Y-100551436D02*
X124630000Y-102718987D01*
X125881436Y-100551436D02*
X125380000Y-99682923D01*
X124630000Y-102718987D02*
X124630000Y-103343782D01*
X125290000Y-103960000D02*
X124679252Y-104570748D01*
X125290000Y-103461999D02*
X125290000Y-103960000D01*
X126734377Y-100535621D02*
X125290000Y-103037357D01*
X126423878Y-99997820D02*
X126734377Y-100535621D01*
X125290000Y-103037357D02*
X125290000Y-103461999D01*
X127096122Y-97762180D02*
X132370005Y-97762180D01*
X131227320Y-99040000D02*
X131598072Y-99254054D01*
X128009423Y-99239423D02*
X128354833Y-99040000D01*
X128354833Y-99040000D02*
X131227320Y-99040000D01*
X135265422Y-99839391D02*
X136271882Y-101582633D01*
X136271882Y-101582633D02*
X136669999Y-101812486D01*
X134821891Y-99071173D02*
X135265422Y-99839391D01*
X136670000Y-101812486D02*
X136670000Y-103250138D01*
X133978622Y-98584312D02*
X134821891Y-99071173D01*
X133308907Y-100097348D02*
X135146770Y-103280624D01*
X136119625Y-105530375D02*
X135597097Y-105670386D01*
X136650000Y-105000000D02*
X136119625Y-105530375D01*
X135597097Y-105670386D02*
X134225396Y-108046241D01*
X134225396Y-108046241D02*
X133596082Y-108486893D01*
X132030000Y-108510000D02*
X131930000Y-108540000D01*
X132040000Y-108002130D02*
X132040000Y-108510104D01*
X133515932Y-107150000D02*
X132040000Y-108002130D01*
X134425615Y-105574384D02*
X133515932Y-107150000D01*
X134950000Y-105050000D02*
X134425615Y-105574384D01*
X133900000Y-111120000D02*
X134979161Y-112989161D01*
X134979161Y-112989161D02*
X135513135Y-113523135D01*
X133900000Y-111120000D02*
X133900000Y-110390000D01*
X134210000Y-114705773D02*
X134678634Y-114976339D01*
X134210000Y-113334012D02*
X134210000Y-114705773D01*
X133155480Y-111507530D02*
X134210000Y-113334012D01*
X131930000Y-110290000D02*
X131930000Y-110800000D01*
X131930000Y-110800000D02*
X133155480Y-111507530D01*
X137420000Y-114618452D02*
X136991041Y-114370792D01*
X137420000Y-114618452D02*
X140372681Y-114618452D01*
X140372681Y-114618452D02*
X140772957Y-114387353D01*
X136196122Y-115747820D02*
X136815885Y-115390000D01*
X136815885Y-115390000D02*
X140961437Y-115390000D01*
X141525884Y-115715884D02*
X141525884Y-115715884D01*
X141525884Y-115715884D02*
X140961437Y-115390000D01*
X142236122Y-113502180D02*
X142910000Y-113113116D01*
X142910000Y-113113116D02*
X142910000Y-112752679D01*
X142910000Y-112752679D02*
X143760000Y-111280434D01*
X143760000Y-111280434D02*
X143760000Y-109239379D01*
X144260000Y-110800281D02*
X144633877Y-110584423D01*
X144260000Y-111430435D02*
X144260000Y-110800281D01*
X143400000Y-112920000D02*
X144260000Y-111430435D01*
X143400000Y-114326380D02*
X143400000Y-112920000D01*
X143036122Y-114536465D02*
X143400000Y-114326380D01*
X143036122Y-114887820D02*
X143036122Y-114536465D01*
X145557320Y-108780000D02*
X145257797Y-108261211D01*
X146388008Y-108780000D02*
X145557320Y-108780000D01*
X149640414Y-108780000D02*
X146388008Y-108780000D01*
X149841867Y-109128927D02*
X149640414Y-108780000D01*
X152550000Y-109538452D02*
X152168554Y-109758680D01*
X152550000Y-109538452D02*
X152550000Y-109080000D01*
X152690903Y-105735666D02*
X153596044Y-105213083D01*
X151847128Y-107197128D02*
X151847128Y-107862589D01*
X152550000Y-109080000D02*
X151847128Y-107862589D01*
X151847128Y-107197128D02*
X152690903Y-105735667D01*
X158913878Y-103882180D02*
X158380718Y-104190000D01*
X158380718Y-104190000D02*
X155753812Y-104190000D01*
X155390796Y-103561238D02*
X154624941Y-103561238D01*
X155753812Y-104190000D02*
X155390797Y-103561238D01*
X154624941Y-103561238D02*
X154332301Y-103054370D01*
X155323964Y-104726867D02*
X155136425Y-104402038D01*
X159713878Y-105267820D02*
X158802775Y-105267820D01*
X158490455Y-104726867D02*
X155323964Y-104726867D01*
X158316421Y-104726867D02*
X158142814Y-104726867D01*
X158802775Y-105267820D02*
X158490455Y-104726867D01*
X160102028Y-102568871D02*
X160408675Y-103100000D01*
X161723878Y-98282180D02*
X161416487Y-98104707D01*
X159720425Y-101907916D02*
X160102027Y-102568871D01*
X159720425Y-101907916D02*
X161759789Y-98375634D01*
X162454343Y-99581163D02*
X162489826Y-99590671D01*
X161186122Y-103206820D02*
X160698811Y-101867943D01*
X161186122Y-104417820D02*
X161186122Y-103206820D01*
X161667093Y-100190829D02*
X162429867Y-99550787D01*
X160698811Y-101867943D02*
X161667093Y-100190829D01*
X167983878Y-98642180D02*
X167809415Y-98340001D01*
X164462708Y-98310000D02*
X163999408Y-97507541D01*
X167792094Y-98310000D02*
X164462708Y-98310000D01*
X167983878Y-98642180D02*
X167792094Y-98310000D01*
X163490000Y-97270000D02*
X163199314Y-97437828D01*
X163490000Y-97270000D02*
X163999408Y-97507541D01*
X163996122Y-98817820D02*
X167210288Y-98817820D01*
X168783878Y-100027820D02*
X168479140Y-99500000D01*
X168479140Y-99500000D02*
X167604144Y-99500000D01*
X167210288Y-98817820D02*
X167604144Y-99500000D01*
X169456122Y-97792180D02*
X169456122Y-97111972D01*
X169456122Y-97111972D02*
X170500000Y-95303921D01*
X170500000Y-95303921D02*
X170500000Y-93850000D01*
X170500000Y-93850000D02*
X170976673Y-93373327D01*
X170256122Y-99177820D02*
X170450000Y-98454256D01*
X170450000Y-98454256D02*
X170450000Y-97850000D01*
X170450000Y-97850000D02*
X170033493Y-97128590D01*
X170033493Y-97128590D02*
X171102147Y-95277627D01*
X171102147Y-95277627D02*
X171843451Y-94849636D01*
X177537594Y-93100000D02*
X177853877Y-92552181D01*
X172952066Y-93100000D02*
X177537594Y-93100000D01*
X172306061Y-92453995D02*
X172952066Y-93100000D01*
X176820000Y-94080000D02*
X177057034Y-93943149D01*
X173418302Y-94080000D02*
X173414213Y-94075912D01*
X173428302Y-93780000D02*
X176830000Y-93780000D01*
X181669492Y-97281594D02*
X181238575Y-98027967D01*
X179440000Y-93420000D02*
X181669492Y-97281594D01*
X180043897Y-99624241D02*
X180457047Y-99385709D01*
X178300000Y-96310717D02*
X178980000Y-97488512D01*
X178300000Y-96310717D02*
X178300000Y-95280000D01*
X178300000Y-95280000D02*
X178570818Y-94810929D01*
X178980000Y-99010000D02*
X180043897Y-99624241D01*
X178980000Y-97488512D02*
X178980000Y-99010000D01*
X186192071Y-97790000D02*
X186923881Y-97790000D01*
X185984226Y-98150000D02*
X186192071Y-97790001D01*
X185568535Y-98870000D02*
X185984226Y-98150000D01*
X185568535Y-98870000D02*
X182789982Y-98870000D01*
X186073878Y-99313766D02*
X186073878Y-99313766D01*
X185737644Y-99650000D02*
X186073878Y-99313766D01*
X183100000Y-99650000D02*
X185737644Y-99650000D01*
X182625577Y-100124423D02*
X183100000Y-99650000D01*
X182625577Y-100124423D02*
X182059786Y-100124423D01*
X188396122Y-98642180D02*
X188740000Y-98840717D01*
X188740000Y-98840717D02*
X188740000Y-99840000D01*
X190970000Y-102852820D02*
X190970000Y-103313415D01*
X188740000Y-99840000D02*
X188740000Y-100412679D01*
X188740000Y-100412679D02*
X189738223Y-102141653D01*
X189738223Y-102141653D02*
X190970000Y-102852820D01*
X189390000Y-103300000D02*
X189390000Y-102437320D01*
X189390000Y-102437320D02*
X188308211Y-100563607D01*
X188308211Y-100563607D02*
X187542111Y-100121300D01*
X191090000Y-105000000D02*
X191090000Y-105560000D01*
X191090000Y-105560000D02*
X189903632Y-106244949D01*
X189903632Y-106244949D02*
X188556305Y-108578589D01*
X187165577Y-107773878D02*
X187372153Y-107416075D01*
X187372153Y-107416075D02*
X187908755Y-107106269D01*
X187908755Y-107106269D02*
X188721621Y-105698342D01*
X188721621Y-105698342D02*
X189206794Y-105418228D01*
X189206794Y-105418228D02*
X189435050Y-105022878D01*
X180702180Y-110086122D02*
X179980000Y-110500000D01*
X179980000Y-110500000D02*
X179310000Y-110500000D01*
X179310000Y-110500000D02*
X178680000Y-109400000D01*
X187787820Y-110096122D02*
X188460000Y-110480000D01*
X188460000Y-110480000D02*
X189180000Y-110480000D01*
X189180000Y-110480000D02*
X189410000Y-110410000D01*
X178680000Y-109400000D02*
X178430000Y-108960000D01*
X178430000Y-108960000D02*
X178450000Y-108220000D01*
X178450000Y-108220000D02*
X181580000Y-106400000D01*
X181580000Y-106400000D02*
X182130000Y-106700000D01*
X182130000Y-106700000D02*
X182430000Y-107200000D01*
X182430000Y-107200000D02*
X185210000Y-107200000D01*
X185210000Y-107200000D02*
X185830000Y-106870000D01*
X185973334Y-106856666D02*
X185830000Y-106870000D01*
X182189423Y-109262102D02*
X182648356Y-108997137D01*
X185500000Y-108850000D02*
X186283309Y-109302244D01*
X182189423Y-109262102D02*
X182903204Y-108850000D01*
X182903204Y-108850000D02*
X185500000Y-108850000D01*
X179460000Y-98175980D02*
X179460000Y-97191911D01*
X178840000Y-95932679D02*
X179205277Y-95300000D01*
X179460000Y-97191911D02*
X178840000Y-96118039D01*
X179687500Y-98570022D02*
X179460000Y-98175980D01*
X178840000Y-96118039D02*
X178840000Y-95932679D01*
X156220000Y-101640000D02*
X155419222Y-101177670D01*
X158240000Y-101350000D02*
X157737703Y-101640000D01*
X157737703Y-101640000D02*
X156220000Y-101640000D01*
X162702690Y-102957391D02*
X163022538Y-103836166D01*
X168152708Y-101360000D02*
X167621547Y-100440000D01*
X168895321Y-101360000D02*
X168152708Y-101360000D01*
X163691480Y-101244756D02*
X162702690Y-102957391D01*
X171680000Y-99752265D02*
X168895321Y-101360000D01*
X171450000Y-98580000D02*
X171680000Y-98978371D01*
X167621546Y-100440000D02*
X165085358Y-100440000D01*
X171450000Y-97699999D02*
X171450000Y-98580000D01*
X172449203Y-95969326D02*
X171450000Y-97699999D01*
X174145448Y-94990000D02*
X172449203Y-95969326D01*
X165085358Y-100440000D02*
X163691481Y-101244756D01*
X171680000Y-98978371D02*
X171680000Y-99752265D01*
X176040553Y-94990000D02*
X174145448Y-94990000D01*
X135960524Y-112228230D02*
X135100000Y-110737759D01*
X135100000Y-110737759D02*
X135100000Y-110050000D01*
X135100000Y-110050000D02*
X135690000Y-109459999D01*
X135690000Y-109459999D02*
X135690000Y-109055891D01*
X135690000Y-109055891D02*
X136771684Y-107182359D01*
X138040000Y-101484226D02*
X138040000Y-101489738D01*
X136966936Y-100864693D02*
X138039999Y-101484226D01*
X136250000Y-99622923D02*
X136966936Y-100864693D01*
X136250000Y-98338784D02*
X136250000Y-99622923D01*
X127221947Y-96120000D02*
X132406952Y-96120000D01*
X136771684Y-107182359D02*
X137395914Y-107182359D01*
X137395914Y-107182359D02*
X138040000Y-106810495D01*
X127221947Y-96120000D02*
X124298113Y-97808077D01*
X114320000Y-100310000D02*
X114320000Y-100310000D01*
X114320000Y-100310000D02*
X113488973Y-101141026D01*
X116530001Y-101070000D02*
X115770001Y-100310000D01*
X115770001Y-100310000D02*
X114320000Y-100310000D01*
X123430000Y-98309282D02*
X123430000Y-99547320D01*
X124298113Y-97808077D02*
X123430000Y-98309282D01*
X123430000Y-99547320D02*
X122651319Y-100896033D01*
X122350000Y-101070000D02*
X122651319Y-100896033D01*
X122350000Y-101070000D02*
X116530001Y-101070000D01*
X135960524Y-112228230D02*
X137236685Y-112965022D01*
X135690000Y-109459998D02*
X135800000Y-109650523D01*
X138040000Y-104807602D02*
X138040000Y-106810495D01*
X138040000Y-101489738D02*
X138040000Y-104855512D01*
X96420391Y-121034876D02*
X97570000Y-120210000D01*
X97570000Y-120210000D02*
X97570000Y-113749979D01*
X97570000Y-113749979D02*
X101300257Y-111138025D01*
X135407584Y-97852416D02*
X136250000Y-98338784D01*
X132406951Y-96120004D02*
X135407584Y-97852416D01*
X108026024Y-100650575D02*
X108023383Y-100655149D01*
X108019159Y-100664472D01*
X107999781Y-100700725D01*
X107993802Y-100720435D01*
X107985306Y-100739186D01*
X107975975Y-100779203D01*
X107964043Y-100818538D01*
X107962025Y-100839032D01*
X107957349Y-100859084D01*
X107956004Y-100900156D01*
X107955000Y-100910355D01*
X107955000Y-100930841D01*
X107953321Y-100982131D01*
X107955000Y-100992301D01*
X107955000Y-101407168D01*
X107923097Y-101466854D01*
X107893261Y-101565211D01*
X107883186Y-101667500D01*
X107883186Y-101962500D01*
X107893261Y-102064789D01*
X107923097Y-102163146D01*
X107971549Y-102253793D01*
X108009470Y-102300000D01*
X107971549Y-102346207D01*
X107923097Y-102436854D01*
X107893261Y-102535211D01*
X107883186Y-102637500D01*
X107883186Y-102932500D01*
X107893261Y-103034789D01*
X107923097Y-103133146D01*
X107955001Y-103192833D01*
X107955000Y-103819306D01*
X107951977Y-103850000D01*
X107955000Y-103880694D01*
X107955000Y-103880703D01*
X107964043Y-103972520D01*
X107999781Y-104090333D01*
X108057817Y-104198910D01*
X108135920Y-104294080D01*
X108159776Y-104313658D01*
X108280612Y-104434494D01*
X108268261Y-104475211D01*
X108258186Y-104577500D01*
X108258186Y-104922500D01*
X108268261Y-105024789D01*
X108298097Y-105123146D01*
X108346549Y-105213793D01*
X108411754Y-105293246D01*
X108491207Y-105358451D01*
X108581854Y-105406903D01*
X108680211Y-105436739D01*
X108782500Y-105446814D01*
X108832869Y-105446814D01*
X109409707Y-106023653D01*
X109425929Y-106036966D01*
X109253819Y-106209076D01*
X109234737Y-106224736D01*
X109234520Y-106225000D01*
X108521079Y-106225000D01*
X107655000Y-105586836D01*
X107655000Y-101120579D01*
X107997894Y-100630877D01*
X108026024Y-100650575D01*
G04 #@! TA.AperFunction,Conductor*
D16*
G36*
X108026024Y-100650575D02*
G01*
X108023383Y-100655149D01*
X108019159Y-100664472D01*
X107999781Y-100700725D01*
X107993802Y-100720435D01*
X107985306Y-100739186D01*
X107975975Y-100779203D01*
X107964043Y-100818538D01*
X107962025Y-100839032D01*
X107957349Y-100859084D01*
X107956004Y-100900156D01*
X107955000Y-100910355D01*
X107955000Y-100930841D01*
X107953321Y-100982131D01*
X107955000Y-100992301D01*
X107955000Y-101407168D01*
X107923097Y-101466854D01*
X107893261Y-101565211D01*
X107883186Y-101667500D01*
X107883186Y-101962500D01*
X107893261Y-102064789D01*
X107923097Y-102163146D01*
X107971549Y-102253793D01*
X108009470Y-102300000D01*
X107971549Y-102346207D01*
X107923097Y-102436854D01*
X107893261Y-102535211D01*
X107883186Y-102637500D01*
X107883186Y-102932500D01*
X107893261Y-103034789D01*
X107923097Y-103133146D01*
X107955001Y-103192833D01*
X107955000Y-103819306D01*
X107951977Y-103850000D01*
X107955000Y-103880694D01*
X107955000Y-103880703D01*
X107964043Y-103972520D01*
X107999781Y-104090333D01*
X108057817Y-104198910D01*
X108135920Y-104294080D01*
X108159776Y-104313658D01*
X108280612Y-104434494D01*
X108268261Y-104475211D01*
X108258186Y-104577500D01*
X108258186Y-104922500D01*
X108268261Y-105024789D01*
X108298097Y-105123146D01*
X108346549Y-105213793D01*
X108411754Y-105293246D01*
X108491207Y-105358451D01*
X108581854Y-105406903D01*
X108680211Y-105436739D01*
X108782500Y-105446814D01*
X108832869Y-105446814D01*
X109409707Y-106023653D01*
X109425929Y-106036966D01*
X109253819Y-106209076D01*
X109234737Y-106224736D01*
X109234520Y-106225000D01*
X108521079Y-106225000D01*
X107655000Y-105586836D01*
X107655000Y-101120579D01*
X107997894Y-100630877D01*
X108026024Y-100650575D01*
G37*
G04 #@! TD.AperFunction*
D14*
X109237213Y-101456208D02*
X109326120Y-101466927D01*
X109383239Y-101462557D01*
X109377581Y-101520000D01*
X109380001Y-101544570D01*
X109380000Y-103315440D01*
X109377581Y-103340000D01*
X109386755Y-103433142D01*
X109387235Y-103438016D01*
X109415825Y-103532266D01*
X109452372Y-103600642D01*
X109431586Y-103614531D01*
X109344531Y-103701586D01*
X109332890Y-103719008D01*
X109205000Y-103591118D01*
X109205000Y-103192832D01*
X109236903Y-103133146D01*
X109266739Y-103034789D01*
X109276814Y-102932500D01*
X109276814Y-102637500D01*
X109266739Y-102535211D01*
X109236903Y-102436854D01*
X109188451Y-102346207D01*
X109150530Y-102300000D01*
X109188451Y-102253793D01*
X109236903Y-102163146D01*
X109266739Y-102064789D01*
X109276814Y-101962500D01*
X109276814Y-101667500D01*
X109266739Y-101565211D01*
X109236903Y-101466854D01*
X109229940Y-101453827D01*
X109237213Y-101456208D01*
G04 #@! TA.AperFunction,Conductor*
D16*
G36*
X109237213Y-101456208D02*
G01*
X109326120Y-101466927D01*
X109383239Y-101462557D01*
X109377581Y-101520000D01*
X109380001Y-101544570D01*
X109380000Y-103315440D01*
X109377581Y-103340000D01*
X109386755Y-103433142D01*
X109387235Y-103438016D01*
X109415825Y-103532266D01*
X109452372Y-103600642D01*
X109431586Y-103614531D01*
X109344531Y-103701586D01*
X109332890Y-103719008D01*
X109205000Y-103591118D01*
X109205000Y-103192832D01*
X109236903Y-103133146D01*
X109266739Y-103034789D01*
X109276814Y-102932500D01*
X109276814Y-102637500D01*
X109266739Y-102535211D01*
X109236903Y-102436854D01*
X109188451Y-102346207D01*
X109150530Y-102300000D01*
X109188451Y-102253793D01*
X109236903Y-102163146D01*
X109266739Y-102064789D01*
X109276814Y-101962500D01*
X109276814Y-101667500D01*
X109266739Y-101565211D01*
X109236903Y-101466854D01*
X109229940Y-101453827D01*
X109237213Y-101456208D01*
G37*
G04 #@! TD.AperFunction*
M02*
