0
SECTION
2
HEADER
9
$INSUNITS
70
4
9
$ACADVER
1
AC1014
9
$HANDSEED
5
FFFF
0
ENDSEC
0
SECTION
2
TABLES
0
TABLE
2
VPORT
5
8
100
AcDbSymbolTable
0
ENDTAB
0
TABLE
2
LTYPE
5
5
100
AcDbSymbolTable
0
LTYPE
5
14
100
AcDbSymbolTableRecord
100
AcDbLinetypeTableRecord
2
BYBLOCK
70
0
0
LTYPE
5
15
100
AcDbSymbolTableRecord
100
AcDbLinetypeTableRecord
2
BYLAYER
70
0
0
ENDTAB
0
TABLE
2
LAYER
5
2
100
AcDbSymbolTable
70
2
0
LAYER
5
50
100
AcDbSymbolTableRecord
100
AcDbLayerTableRecord
2
0
70
0
6
CONTINUOUS
0
ENDTAB
0
TABLE
2
STYLE
5
3
100
AcDbSymbolTable
70
1
0
STYLE
5
11
100
AcDbSymbolTableRecord
100
AcDbTextStyleTableRecord
2
STANDARD
70
0
0
ENDTAB
0
TABLE
2
VIEW
5
6
100
AcDbSymbolTable
70
0
0
ENDTAB
0
TABLE
2
UCS
5
7
100
AcDbSymbolTable
70
0
0
ENDTAB
0
TABLE
2
APPID
5
9
100
AcDbSymbolTable
70
2
0
APPID
5
12
100
AcDbSymbolTableRecord
100
AcDbRegAppTableRecord
2
ACAD
70
0
0
ENDTAB
0
TABLE
2
DIMSTYLE
5
A
100
AcDbSymbolTable
70
1
0
ENDTAB
0
TABLE
2
BLOCK_RECORD
5
1
100
AcDbSymbolTable
70
1
0
BLOCK_RECORD
5
1F
100
AcDbSymbolTableRecord
100
AcDbBlockTableRecord
2
*MODEL_SPACE
0
BLOCK_RECORD
5
1B
100
AcDbSymbolTableRecord
100
AcDbBlockTableRecord
2
*PAPER_SPACE
0
ENDTAB
0
ENDSEC
0
SECTION
2
BLOCKS
0
BLOCK
5
20
100
AcDbEntity
100
AcDbBlockBegin
2
*MODEL_SPACE
0
ENDBLK
5
21
100
AcDbEntity
100
AcDbBlockEnd
0
BLOCK
5
1C
100
AcDbEntity
100
AcDbBlockBegin
2
*PAPER_SPACE
0
ENDBLK
5
1D
100
AcDbEntity
100
AcDbBlockEnd
0
ENDSEC
0
SECTION
2
ENTITIES
0
LWPOLYLINE
5
100
100
AcDbEntity
8
0
100
AcDbPolyline
90
88
70
1
43
0.0
10
57.247478823857662
20
78.680718706911179
42
0.26780765785759253
10
57.497250111813543
20
78.247838114779938
10
57.4977073060263
20
78.24757383145149
42
-0.2678076483411857
10
57.74747859398218
20
77.814693257079398
10
57.74747859398218
20
66.391691400997516
42
0.2678076483411857
10
57.99724988193806
20
65.958810826625424
10
63.758383379264806
20
62.628559712813839
42
0.13178685606788718
10
63.883497735286987
20
62.594999999999878
10
80.202472761867824
20
62.594999999999885
42
0.13165249758732692
10
80.327472761867796
20
62.628493649053766
10
98.693039720814397
20
73.231858676621727
42
-0.4142135623731325
10
99.376052422706607
20
73.048845974729474
10
99.776052422706627
20
72.356025651701941
42
-0.41421356237309054
10
99.593039720814431
20
71.673012949809745
10
98.727014317029955
20
71.173012949809731
42
0.30984181489000939
10
98.482981398866301
20
70.662984173162187
10
99.707750375093099
20
62.806491962622239
42
0.36961032361384105
10
99.954766834174919
20
62.594999999999899
10
109.20247276186805
20
62.594999999999899
42
0.13165249758734335
10
109.32747276186818
20
62.628493649053823
10
127.69303972081445
20
73.231858676621727
42
-0.41421356237303436
10
128.37605242270661
20
73.048845974729502
10
134.3394144266353
20
62.719999999999928
42
0.26794919243109572
10
134.55592077758141
20
62.594999999999949
10
138.20247276186794
20
62.59499999999997
42
0.13165249758749203
10
138.32747276186794
20
62.62849364905388
10
156.69303972081445
20
73.231858676621727
42
-0.4142135623731299
10
157.37605242270661
20
73.048845974729502
10
157.77605242270658
20
72.356025651701941
42
-0.41421356237310669
10
157.5930397208144
20
71.673012949809745
10
156.72701431702995
20
71.173012949809731
42
0.30984181489007123
10
156.48298139886634
20
70.662984173162172
10
157.70775037509316
20
62.806491962622253
42
0.3696103236137871
10
157.9547668341749
20
62.594999999999921
10
167.20247276186774
20
62.594999999999999
42
0.13165249758738981
10
167.32747276186774
20
62.628493649053908
10
185.69303972081451
20
73.231858676621655
42
-0.41421356237309503
10
186.37605242270669
20
73.048845974729431
10
186.77605242270658
20
72.356025651702041
42
-0.41421356237312018
10
186.59303972081429
20
71.67301294980976
10
185.72701431702981
20
71.173012949810044
42
0.30984181489009349
10
185.48298139886614
20
70.662984173162528
10
186.70775037509298
20
62.806491962622175
42
0.36961032361383922
10
186.95476683417468
20
62.594999999999956
10
193.17132901025516
20
62.594999999999928
42
0.41421356237307422
10
193.42132901025514
20
62.844999999999949
10
193.42132901025531
20
113.1315911263647
42
0.41421356237308116
10
193.04702910254773
20
113.50589103407218
10
191.30239999999986
20
113.50589103407209
42
-0.41421356237309642
10
187.43339699999984
20
117.37489403407204
10
187.43339699999979
20
124.45973670974882
42
0.41421356237307422
10
187.18339699999979
20
124.70973670974887
10
178.05592077758106
20
124.70973670974888
42
0.26794919243122572
10
177.83941442663487
20
124.5847367097488
10
171.87605242270664
20
114.25589073501924
42
-0.41421356237305756
10
171.1930397208144
20
114.07287803312705
10
152.82747276186754
20
124.6762430606949
42
0.13165249758743411
10
152.70247276186751
20
124.70973670974887
10
143.4547668341749
20
124.70973670974882
42
0.36961032361387952
10
143.2077503750931
20
124.49824474712636
10
141.9829813988664
20
116.64175253658661
42
0.3098418148900135
10
142.22701431702998
20
116.13172375993906
10
143.09303972081443
20
115.63172375993902
42
-0.41421356237304857
10
143.27605242270664
20
114.94871105804683
10
142.87605242270666
20
114.25589073501924
42
-0.41421356237303436
10
142.1930397208144
20
114.07287803312701
10
130.41239999999985
20
120.87443354716532
10
118.51573487540124
20
114.00589073501926
10
113.44303972081445
20
114.00589073501926
42
-0.13165249758742065
10
113.19303972081443
20
114.07287803312705
10
94.827472761867739
20
124.6762430606948
42
0.13165249758726791
10
94.702472761867767
20
124.70973670974868
10
85.454766834174833
20
124.70973670974864
42
0.36961032361377666
10
85.207750375093028
20
124.49824474712628
10
83.982981398866343
20
116.64175253658661
42
0.3098418148900281
10
84.227014317030026
20
116.13172375993909
10
85.093039720814403
20
115.63172375993904
42
-0.41421356237306661
10
85.276052422706641
20
114.94871105804683
10
84.876052422706607
20
114.25589073501924
42
-0.41421356237302537
10
84.193039720814454
20
114.07287803312707
10
72.30740000030795
20
120.93505532525241
42
0.26794910467310429
10
71.80740023431683
20
120.93505491958419
10
61.297400216879645
20
114.8671036205734
42
0.26794891406583443
10
61.047401593317041
20
114.43409129436805
10
61.04740146996803
20
100.70973670947325
42
-0.41421514221234584
10
60.54740000033425
20
100.20972493612221
10
57.747399986156026
20
100.20972543170623
42
0.41419034710805375
10
57.247479570771404
20
99.709736717077419
0
CIRCLE
5
101
100
AcDbEntity
8
0
100
AcDbCircle
10
73.302399999999892
20
69.92984267567698
30
0
40
3.5000000000000053
210
0
220
-0
230
1
0
CIRCLE
5
102
100
AcDbEntity
8
0
100
AcDbCircle
10
116.80239999999998
20
81.094999999999999
30
0
40
1.9999999999999929
210
0
220
-0
230
1
0
CIRCLE
5
103
100
AcDbEntity
8
0
100
AcDbCircle
10
160.73737039459164
20
66.094999999999914
30
0
40
1.5000000000000213
210
0
220
-0
230
1
0
CIRCLE
5
104
100
AcDbEntity
8
0
100
AcDbCircle
10
102.30240000000002
20
106.20973670974874
30
0
40
1.9999999999999929
210
0
220
-0
230
1
0
CIRCLE
5
105
100
AcDbEntity
8
0
100
AcDbCircle
10
160.30240000000003
20
106.20973670974874
30
0
40
1.9999999999999929
210
0
220
-0
230
1
0
CIRCLE
5
106
100
AcDbEntity
8
0
100
AcDbCircle
10
87.802399999999992
20
81.094999999999999
30
0
40
1.9999999999999929
210
0
220
-0
230
1
0
CIRCLE
5
107
100
AcDbEntity
8
0
100
AcDbCircle
10
102.73737039459157
20
66.094999999999885
30
0
40
1.5000000000000036
210
0
220
-0
230
1
0
CIRCLE
5
108
100
AcDbEntity
8
0
100
AcDbCircle
10
146.23737039459161
20
121.2097367097488
30
0
40
1.5000000000000036
210
0
220
-0
230
1
0
CIRCLE
5
109
100
AcDbEntity
8
0
100
AcDbCircle
10
131.30240000000001
20
106.20973670974874
30
0
40
1.9999999999999929
210
0
220
-0
230
1
0
CIRCLE
5
110
100
AcDbEntity
8
0
100
AcDbCircle
10
174.80240000000006
20
81.094999999999999
30
0
40
1.9999999999999929
210
0
220
-0
230
1
0
LWPOLYLINE
5
111
100
AcDbEntity
8
0
100
AcDbPolyline
90
16
70
1
43
0.0
10
86.94740000000003
20
110.20973670974875
42
0.41421356237306384
10
86.447399999999988
20
109.70973670974873
10
86.447399999999988
20
102.70973670974874
42
0.41421356237307422
10
86.947399999999988
20
102.20973670974873
10
87.747400000000013
20
102.20973670974874
42
-0.41421356237311585
10
88.247399999999985
20
101.70973670974874
10
88.247399999999999
20
100.70973670974873
42
0.41421356237313667
10
88.747399999999999
20
100.20973670974874
10
89.54740000000001
20
100.20973670974874
42
0.4142135623730222
10
90.04740000000001
20
100.70973670974873
10
90.04740000000001
20
111.70973670974874
42
0.4142135623730222
10
89.54740000000001
20
112.20973670974873
10
88.747399999999999
20
112.20973670974874
42
0.41421356237309503
10
88.247399999999985
20
111.70973670974874
10
88.247399999999999
20
110.70973670974873
42
-0.4142135623730534
10
87.747400000000013
20
110.20973670974874
0
LWPOLYLINE
5
112
100
AcDbEntity
8
0
100
AcDbPolyline
90
16
70
1
43
0.0
10
84.876052422706621
20
98.163582684478229
42
0.41421356237304857
10
84.19303972081444
20
98.34659538637041
10
74.66676027918561
20
92.846595386370424
42
0.41421356237306922
10
74.483747577293371
20
92.1635826844782
10
74.883747577293406
20
91.470762361450696
42
0.41421356237306023
10
75.566760279185587
20
91.287749659558429
10
76.432785682970149
20
91.787749659558472
42
-0.41421356237311374
10
77.115798384862302
20
91.604736957666262
10
77.515798384862407
20
90.911916634638715
42
0.41421356237309953
10
78.198811086754631
20
90.728903932746533
10
84.260988913245498
20
94.228903932746405
42
0.41421356237302015
10
84.444001615137722
20
94.911916634638644
10
84.04400161513756
20
95.604736957666589
42
-0.4142135623731325
10
84.227014317029756
20
96.28774965955877
10
85.093039720814417
20
96.787749659558472
42
0.41421356237308982
10
85.276052422706641
20
97.470762361450639
0
LWPOLYLINE
5
113
100
AcDbEntity
8
0
100
AcDbPolyline
90
16
70
1
43
0.0
10
75.047399999999982
20
75.09499999999997
10
74.247399999999999
20
75.094999999999999
42
-0.41421356237308982
10
73.747400000000013
20
75.594999999999985
10
73.747400000000027
20
76.594999999999999
42
0.41421356237308982
10
73.247399999999985
20
77.095000000000027
10
72.447400000000002
20
77.094999999999999
42
-0.41421356237310025
10
71.947400000000002
20
77.594999999999985
10
71.947399999999988
20
84.594999999999942
42
-0.41421356237307944
10
72.447400000000002
20
85.09499999999997
10
73.247400000000027
20
85.095000000000013
42
0.4142135623730534
10
73.747400000000013
20
85.594999999999999
10
73.747400000000013
20
86.595000000000013
42
-0.41421356237304302
10
74.247399999999999
20
87.094999999999985
10
75.04740000000001
20
87.095000000000027
42
-0.41421356237304818
10
75.54740000000001
20
86.595000000000013
10
75.54740000000001
20
75.594999999999985
42
-0.41421356237307944
0
CIRCLE
5
114
100
AcDbEntity
8
0
100
AcDbCircle
10
145.80240000000001
20
81.094999999999999
30
0
40
1.9999999999999929
210
0
220
-0
230
1
0
CIRCLE
5
115
100
AcDbEntity
8
0
100
AcDbCircle
10
73.302400000000034
20
106.20973670974874
30
0
40
2.0000000000000018
210
0
220
-0
230
1
0
CIRCLE
5
116
100
AcDbEntity
8
0
100
AcDbCircle
10
88.237370394591494
20
121.20973670974865
30
0
40
1.5000000000000036
210
0
220
-0
230
1
0
LWPOLYLINE
5
117
100
AcDbEntity
8
0
100
AcDbPolyline
90
16
70
1
43
0.0
10
103.24740000000006
20
87.094999999999942
42
0.41421356237304302
10
102.7474
20
86.595000000000013
10
102.7474
20
85.594999999999999
42
-0.41421356237307422
10
102.24739999999997
20
85.095000000000013
10
101.44739999999999
20
85.094999999999999
42
0.41421356237313667
10
100.94740000000002
20
84.594999999999985
10
100.94740000000002
20
77.594999999999985
42
0.41421356237310542
10
101.44739999999999
20
77.094999999999999
10
102.24739999999997
20
77.095000000000027
42
-0.41421356237307944
10
102.74740000000001
20
76.594999999999999
10
102.7474
20
75.594999999999985
42
0.41421356237310542
10
103.24740000000006
20
75.094999999999999
10
104.04739999999998
20
75.094999999999942
42
0.41421356237307944
10
104.54740000000001
20
75.594999999999985
10
104.5474
20
86.594999999999999
42
0.41421356237306384
10
104.04739999999997
20
87.094999999999999
0
LWPOLYLINE
5
118
100
AcDbEntity
8
0
100
AcDbPolyline
90
16
70
1
43
0.0
10
115.44739999999999
20
102.70973670974874
10
115.44740000000004
20
109.70973670974873
42
-0.4142135623730846
10
115.94740000000002
20
110.20973670974871
10
116.7474
20
110.20973670974874
42
0.4142135623730846
10
117.2474
20
110.70973670974873
10
117.24740000000004
20
111.70973670974874
42
-0.41421356237301177
10
117.74740000000001
20
112.20973670974871
10
118.5474
20
112.20973670974873
42
-0.41421356237312623
10
119.04740000000001
20
111.70973670974874
10
119.04740000000004
20
100.70973670974873
42
-0.41421356237306384
10
118.5474
20
100.2097367097487
10
117.74740000000001
20
100.20973670974874
42
-0.41421356237312623
10
117.24740000000004
20
100.70973670974873
10
117.24739999999997
20
101.70973670974874
42
0.41421356237310542
10
116.7474
20
102.20973670974873
10
115.94740000000002
20
102.20973670974873
42
-0.41421356237306384
0
LWPOLYLINE
5
119
100
AcDbEntity
8
0
100
AcDbPolyline
90
16
70
1
43
0.0
10
131.74740000000003
20
85.594999999999999
10
131.74740000000003
20
86.595000000000013
42
-0.41421356237295975
10
132.24739999999997
20
87.095000000000056
10
133.04740000000004
20
87.095000000000027
42
-0.41421356237303258
10
133.54739999999998
20
86.594999999999999
10
133.54739999999998
20
75.594999999999985
42
-0.41421356237310542
10
133.04740000000004
20
75.094999999999999
10
132.24739999999997
20
75.094999999999999
42
-0.41421356237310542
10
131.74739999999997
20
75.594999999999985
10
131.7474
20
76.594999999999999
42
0.41421356237308982
10
131.24740000000003
20
77.09499999999997
10
130.44740000000002
20
77.094999999999999
42
-0.4142135623730846
10
129.94740000000002
20
77.594999999999999
10
129.94739999999999
20
84.594999999999985
42
-0.41421356237312623
10
130.44740000000002
20
85.095000000000027
10
131.24740000000003
20
85.095000000000013
42
0.41421356237301177
0
LWPOLYLINE
5
120
100
AcDbEntity
8
0
100
AcDbPolyline
90
16
70
1
43
0.0
10
148.04740000000004
20
111.70973670974874
42
0.41421356237309503
10
147.54739999999998
20
112.20973670974874
10
146.7474
20
112.20973670974871
42
0.41421356237301177
10
146.24740000000003
20
111.70973670974874
10
146.2474
20
110.70973670974873
42
-0.41421356237306384
10
145.74740000000003
20
110.20973670974874
10
144.94740000000004
20
110.20973670974874
42
0.41421356237307422
10
144.44740000000002
20
109.70973670974873
10
144.44739999999999
20
102.70973670974874
42
0.41421356237309503
10
144.94740000000004
20
102.20973670974873
10
145.74740000000003
20
102.20973670974874
42
-0.41421356237307422
10
146.2474
20
101.70973670974874
10
146.24740000000003
20
100.70973670974873
42
0.41421356237312623
10
146.7474
20
100.20973670974874
10
147.54739999999998
20
100.20973670974875
42
0.41421356237304302
10
148.04740000000004
20
100.70973670974873
0
LWPOLYLINE
5
121
100
AcDbEntity
8
0
100
AcDbPolyline
90
16
70
1
43
0.0
10
142.26098891324551
20
94.228903932746391
42
0.41421356237303436
10
142.44400161513772
20
94.911916634638644
10
142.04400161513752
20
95.604736957666589
42
-0.4142135623731325
10
142.22701431702978
20
96.28774965955877
10
143.09303972081443
20
96.787749659558472
42
0.41421356237306661
10
143.27605242270661
20
97.470762361450639
10
142.87605242270666
20
98.163582684478214
42
0.41421356237308082
10
142.1930397208144
20
98.346595386370424
10
132.66676027918561
20
92.846595386370382
42
0.41421356237307183
10
132.48374757729337
20
92.1635826844782
10
132.88374757729338
20
91.470762361450667
42
0.41421356237308604
10
133.56676027918559
20
91.287749659558429
10
134.43278568297012
20
91.787749659558472
42
-0.41421356237307183
10
135.11579838486227
20
91.604736957666276
10
135.51579838486245
20
90.911916634638743
42
0.41421356237308604
10
136.19881108675463
20
90.728903932746533
0
LWPOLYLINE
5
122
100
AcDbEntity
8
0
100
AcDbPolyline
90
16
70
1
43
0.0
10
159.44740000000002
20
85.095000000000027
42
0.4142135623730846
10
158.94740000000007
20
84.59499999999997
10
158.94740000000002
20
77.594999999999999
42
0.41421356237308982
10
159.44739999999996
20
77.094999999999999
10
160.24740000000006
20
77.094999999999999
42
-0.414213562373069
10
160.74740000000003
20
76.594999999999999
10
160.74740000000006
20
75.594999999999985
42
0.41421356237294937
10
161.24740000000003
20
75.094999999999999
10
162.04740000000004
20
75.094999999999999
42
0.41421356237310542
10
162.54740000000001
20
75.594999999999985
10
162.54740000000001
20
86.594999999999999
42
0.41421356237298057
10
162.04740000000001
20
87.094999999999999
10
161.24740000000003
20
87.094999999999985
42
0.41421356237299095
10
160.74740000000003
20
86.595000000000013
10
160.74740000000006
20
85.594999999999999
42
-0.41421356237309503
10
160.24740000000006
20
85.095000000000013
0
LWPOLYLINE
5
123
100
AcDbEntity
8
0
100
AcDbPolyline
90
16
70
1
43
0.0
10
105.43278568297012
20
91.787749659558472
10
104.56676027918562
20
91.287749659558443
42
-0.41421356237304341
10
103.88374757729338
20
91.470762361450682
10
103.48374757729339
20
92.1635826844782
42
-0.41421356237307183
10
103.66676027918558
20
92.846595386370453
10
113.19303972081443
20
98.346595386370424
42
-0.41421356237308604
10
113.87605242270664
20
98.163582684478214
10
114.27605242270666
20
97.470762361450639
42
-0.41421356237303436
10
114.09303972081445
20
96.787749659558457
10
113.22701431702978
20
96.28774965955877
42
0.41421356237311824
10
113.04400161513753
20
95.604736957666574
10
113.44400161513774
20
94.911916634638644
42
-0.41421356237308982
10
113.2609889132455
20
94.228903932746363
10
107.19881108675466
20
90.728903932746533
42
-0.41421356237307183
10
106.51579838486236
20
90.911916634638686
10
106.11579838486229
20
91.604736957666276
42
0.41421356237309503
0
LWPOLYLINE
5
124
100
AcDbEntity
8
0
100
AcDbPolyline
90
16
70
1
43
0.0
10
171.26098891324551
20
94.228903932746391
10
165.19881108675463
20
90.728903932746562
42
-0.41421356237319173
10
164.51579838486239
20
90.911916634638729
10
164.1157983848623
20
91.604736957666262
42
0.41421356237307183
10
163.43278568297012
20
91.787749659558514
10
162.56676027918559
20
91.287749659558429
42
-0.4142135623731325
10
161.88374757729346
20
91.470762361450682
10
161.48374757729343
20
92.1635826844782
42
-0.41421356237306661
10
161.66676027918561
20
92.846595386370439
10
171.19303972081443
20
98.346595386370424
42
-0.41421356237302015
10
171.87605242270664
20
98.163582684478229
10
172.27605242270667
20
97.470762361450639
42
-0.41421356237318796
10
172.09303972081443
20
96.787749659558514
10
171.22701431702978
20
96.28774965955877
42
0.41421356237313772
10
171.04400161513755
20
95.604736957666603
10
171.44400161513772
20
94.911916634638644
42
-0.41421356237304341
0
LWPOLYLINE
5
125
100
AcDbEntity
8
0
100
AcDbPolyline
90
16
70
1
43
0.0
10
98.693039720814383
20
88.958141323378342
42
0.41421356237299695
10
99.376052422706636
20
89.141154025270538
10
99.776052422706698
20
89.833974348298085
42
0.41421356237300594
10
99.593039720814431
20
90.516987050190281
10
98.727014317029997
20
91.016987050190309
42
-0.41421356237308604
10
98.544001615137731
20
91.699999752082533
10
98.944001615137779
20
92.392820075109995
42
0.41421356237315049
10
98.760988913245527
20
93.075832777002304
10
92.698811086754461
20
96.575832777002347
42
0.41421356237298274
10
92.015798384862222
20
96.392820075110066
10
91.615798384862217
20
95.699999752082533
42
-0.41421356237310408
10
90.932785682969978
20
95.516987050190323
10
90.066760279185601
20
96.016987050190338
42
0.41421356237311824
10
89.383747577293349
20
95.833974348298071
10
88.983747577293357
20
95.141154025270524
42
0.41421356237304857
10
89.166760279185553
20
94.458141323378314
0
LWPOLYLINE
5
126
100
AcDbEntity
8
0
100
AcDbPolyline
90
16
70
1
43
0.0
10
148.06676027918556
20
96.016987050190295
10
148.93278568297004
20
95.516987050190323
42
0.41421356237309503
10
149.61579838486225
20
95.699999752082533
10
150.01579838486222
20
96.392820075110066
42
-0.4142135623731093
10
150.69881108675446
20
96.575832777002333
10
156.76098891324551
20
93.07583277700229
42
-0.41421356237314144
10
156.94400161513778
20
92.392820075110009
10
156.54400161513777
20
91.699999752082533
42
0.41421356237305379
10
156.72701431702995
20
91.016987050190309
10
157.5930397208144
20
90.516987050190281
42
-0.41421356237302015
10
157.77605242270658
20
89.833974348298085
10
157.37605242270664
20
89.141154025270524
42
-0.41421356237300072
10
156.69303972081445
20
88.958141323378356
10
147.16676027918561
20
94.4581413233783
42
-0.41421356237311313
10
146.9837475772934
20
95.141154025270524
10
147.38374757729338
20
95.833974348298071
42
-0.4142135623731325
0
LWPOLYLINE
5
127
100
AcDbEntity
8
0
100
AcDbPolyline
90
16
70
1
43
0.0
10
175.98374757729343
20
95.141154025270524
42
0.41421356237303963
10
176.16676027918555
20
94.458141323378328
10
185.6930397208144
20
88.958141323378257
42
0.41421356237303963
10
186.37605242270664
20
89.141154025270538
10
186.77605242270664
20
89.833974348298057
42
0.41421356237315571
10
186.59303972081443
20
90.516987050190266
10
185.72701431703001
20
91.016987050190309
42
-0.41421356237308604
10
185.54400161513766
20
91.699999752082533
10
185.94400161513772
20
92.392820075110009
42
0.41421356237314155
10
185.7609889132456
20
93.07583277700229
10
179.69881108675449
20
96.575832777002276
42
0.41421356237313633
10
179.01579838486228
20
96.392820075110066
10
178.61579838486225
20
95.699999752082533
42
-0.41421356237308604
10
177.93278568297006
20
95.516987050190323
10
177.06676027918564
20
96.016987050190295
42
0.41421356237313633
10
176.38374757729338
20
95.833974348298071
0
LWPOLYLINE
5
128
100
AcDbEntity
8
0
100
AcDbPolyline
90
16
70
1
43
0.0
10
121.69881108675447
20
96.575832777002333
42
0.41421356237308082
10
121.01579838486224
20
96.392820075110066
10
120.61579838486225
20
95.699999752082533
42
-0.41421356237309503
10
119.93278568296999
20
95.516987050190281
10
119.06676027918557
20
96.016987050190323
42
0.41421356237310408
10
118.38374757729338
20
95.833974348298071
10
117.98374757729341
20
95.141154025270524
42
0.41421356237314672
10
118.16676027918561
20
94.4581413233783
10
127.69303972081445
20
88.958141323378356
42
0.41421356237301499
10
128.37605242270661
20
89.141154025270538
10
128.77605242270661
20
89.833974348298085
42
0.41421356237301632
10
128.59303972081443
20
90.516987050190281
10
127.72701431702998
20
91.016987050190295
42
-0.41421356237301116
10
127.54400161513773
20
91.699999752082533
10
127.94400161513778
20
92.392820075110009
42
0.41421356237311824
10
127.76098891324551
20
93.075832777002304
0
LWPOLYLINE
5
129
100
AcDbEntity
8
0
100
AcDbPolyline
90
27
70
1
43
0.0
10
120.93866149786672
20
116.04802877954742
10
121.00432845269061
20
115.93429027741409
10
121.43255044054571
20
116.16641108922308
10
131.30240000000001
20
121.86477138923509
10
141.51789692915355
20
115.96685148728248
10
141.54174762346852
20
116.11984588682927
10
145.00448011336326
20
114.12063635165686
10
145.00448011336326
20
109.80178725041205
10
144.91242957269995
20
109.80178725041206
10
144.91242957269995
20
102.6176861690854
10
145.00448011336329
20
102.61768616908542
10
145.00448011336326
20
98.298837067840608
10
141.26424707657367
20
96.13941251721819
10
141.21822180624201
20
96.219130623864714
10
134.99660776645806
20
92.627080083201534
10
135.04263303678971
20
92.547361976554981
10
131.30240000000003
20
90.387937425932492
10
127.56216696321042
20
92.547361976554896
10
127.60819223354206
20
92.627080083201449
10
121.38657819375791
20
96.219130623864757
10
121.34055292342626
20
96.139412517218233
10
117.60031988663673
20
98.298837067840594
10
117.60031988663673
20
102.61768616908542
10
117.69237042730005
20
102.6176861690854
10
117.69237042730009
20
109.80178725041206
10
117.60031988663675
20
109.80178725041206
10
117.60031988663675
20
114.12063635165686
0
LWPOLYLINE
5
130
100
AcDbEntity
8
0
100
AcDbPolyline
90
27
70
1
43
0.0
10
112.17224955945433
20
116.16641108922306
10
112.60047154730944
20
115.93429027741409
10
112.66613850213334
20
116.04802877954741
10
116.00448011336327
20
114.12063635165686
10
116.00448011336329
20
109.80178725041206
10
115.91242957269995
20
109.80178725041206
10
115.91242957269998
20
102.61768616908542
10
116.00448011336327
20
102.61768616908542
10
116.00448011336329
20
98.298837067840594
10
112.26424707657367
20
96.139412517218148
10
112.21822180624198
20
96.219130623864714
10
105.99660776645806
20
92.627080083201534
10
106.04263303678971
20
92.54736197655501
10
102.30239999999998
20
90.387937425932506
10
98.562166963210402
20
92.547361976554896
10
98.60819223354207
20
92.627080083201434
10
92.386578193757913
20
96.219130623864771
10
92.340552923426245
20
96.139412517218233
10
88.600319886636726
20
98.29883706784058
10
88.600319886636726
20
102.6176861690854
10
88.692370427300034
20
102.6176861690854
10
88.692370427300062
20
109.80178725041205
10
88.600319886636726
20
109.80178725041205
10
88.600319886636697
20
114.12063635165683
10
101.2108975028349
20
121.40135673300554
10
101.35531988663659
20
121.31797443084062
10
102.30240000000001
20
121.8647713892351
0
LWPOLYLINE
5
131
100
AcDbEntity
8
0
100
AcDbPolyline
90
10
70
1
43
0.0
10
58.830107460425225
20
63.211788359687276
10
55.094758534826894
20
65.368393067398671
10
55.094758534826873
20
101.2729461251698
10
55.094758534826852
20
121.9363436423501
10
64.001168119507014
20
127.07846161357821
10
225.66470598796053
20
127.07846161357833
10
234.57111557264068
20
121.93634364235001
10
234.57111557264062
20
65.368393067398628
10
225.66470598796045
20
60.226275096170497
10
64.001168119507028
20
60.226275096170525
0
LWPOLYLINE
5
132
100
AcDbEntity
8
0
100
AcDbPolyline
90
26
70
1
43
0.0
10
74.19237042730002
20
84.687050540663321
10
74.100319886636697
20
84.687050540663321
10
74.100319886636683
20
89.00589964190813
10
77.840552923426443
20
91.165324192530619
10
77.886578193758126
20
91.085606085884081
10
84.108192233542013
20
94.677656626547289
10
84.062166963210359
20
94.757374733193828
10
87.802399999999992
20
96.916799283816246
10
91.542633036789525
20
94.757374733193842
10
91.496607766457885
20
94.677656626547304
10
97.718221806242042
20
91.085606085883995
10
97.764247076573696
20
91.165324192530505
10
101.50448011336324
20
89.00589964190813
10
101.50448011336326
20
84.687050540663321
10
101.41242957269993
20
84.687050540663336
10
101.41242957269993
20
77.502949459336662
10
101.50448011336323
20
77.502949459336662
10
101.50448011336324
20
73.184100358091897
10
98.041747623468467
20
71.184890822919456
10
98.017896929153522
20
71.337885222466213
10
87.802399999999949
20
65.439965320513608
10
86.855319886636693
20
65.986762278908046
10
86.710897502834968
20
65.903379976743125
10
74.100319886636683
20
73.184100358091854
10
74.100319886636697
20
77.502949459336662
10
74.19237042730002
20
77.502949459336662
0
LWPOLYLINE
5
133
100
AcDbEntity
8
0
100
AcDbPolyline
90
22
70
1
43
0.0
10
163.99660776645811
20
92.62708008320152
10
164.04263303678974
20
92.547361976555024
10
160.30239999999998
20
90.387937425932492
10
156.56216696321042
20
92.547361976554896
10
156.6081922335421
20
92.627080083201406
10
150.38657819375794
20
96.219130623864757
10
150.34055292342626
20
96.139412517218233
10
146.60031988663673
20
98.29883706784058
10
146.60031988663673
20
102.61768616908542
10
146.69237042730006
20
102.6176861690854
10
146.69237042730006
20
109.80178725041205
10
146.60031988663673
20
109.80178725041205
10
146.60031988663673
20
114.12063635165686
10
159.21089750283485
20
121.40135673300551
10
159.35531988663658
20
121.31797443084059
10
160.30240000000003
20
121.8647713892351
10
171.96944203884249
20
115.12880152746274
10
172.04165323074338
20
115.25387498071014
10
174.00448011336329
20
114.12063635165686
10
174.00448011336329
20
98.298837067840594
10
170.2642470765737
20
96.13941251721819
10
170.21822180624201
20
96.219130623864743
0
LWPOLYLINE
5
134
100
AcDbEntity
8
0
100
AcDbPolyline
90
22
70
1
43
0.0
10
164.84055292342646
20
91.165324192530619
10
164.88657819375814
20
91.085606085884066
10
171.10819223354207
20
94.677656626547304
10
171.06216696321042
20
94.757374733193814
10
174.80240000000003
20
96.916799283816246
10
178.54263303678954
20
94.757374733193856
10
178.49660776645791
20
94.677656626547289
10
184.71822180624201
20
91.085606085883981
10
184.7642470765737
20
91.165324192530548
10
188.50448011336329
20
89.00589964190813
10
188.50448011336329
20
73.184100358091882
10
185.04174762346835
20
71.184890822919385
10
185.01789692915341
20
71.337885222466127
10
174.80239999999998
20
65.439965320513622
10
173.85531988663678
20
65.986762278907989
10
173.71089750283514
20
65.903379976743096
10
161.10031988663673
20
73.184100358091868
10
161.10031988663673
20
77.502949459336662
10
161.19237042730006
20
77.502949459336676
10
161.19237042730003
20
84.687050540663321
10
161.10031988663673
20
84.687050540663321
10
161.10031988663675
20
89.00589964190813
0
LWPOLYLINE
5
135
100
AcDbEntity
8
0
100
AcDbPolyline
90
26
70
1
43
0.0
10
155.71822180624201
20
91.085606085883967
10
155.7642470765737
20
91.165324192530491
10
159.50448011336326
20
89.00589964190813
10
159.50448011336329
20
84.687050540663321
10
159.41242957269992
20
84.687050540663321
10
159.41242957269995
20
77.502949459336662
10
159.50448011336326
20
77.502949459336662
10
159.50448011336329
20
73.184100358091897
10
156.0417476234685
20
71.184890822919471
10
156.01789692915355
20
71.337885222466213
10
145.80239999999998
20
65.439965320513608
10
144.85531988663669
20
65.986762278908046
10
144.71089750283502
20
65.903379976743139
10
132.1003198866367
20
73.18410035809184
10
132.10031988663673
20
77.502949459336662
10
132.19237042730003
20
77.502949459336676
10
132.19237042730001
20
84.687050540663321
10
132.1003198866367
20
84.687050540663321
10
132.1003198866367
20
89.005899641908115
10
135.84055292342643
20
91.165324192530591
10
135.88657819375808
20
91.085606085884052
10
142.10819223354204
20
94.677656626547275
10
142.06216696321039
20
94.757374733193814
10
145.80239999999998
20
96.91679928381626
10
149.54263303678954
20
94.757374733193828
10
149.49660776645788
20
94.677656626547332
0
LWPOLYLINE
5
136
100
AcDbEntity
8
0
100
AcDbPolyline
90
26
70
1
43
0.0
10
126.71822180624203
20
91.085606085883938
10
126.7642470765737
20
91.165324192530491
10
130.50448011336326
20
89.00589964190813
10
130.50448011336326
20
84.687050540663321
10
130.41242957269992
20
84.687050540663336
10
130.41242957269992
20
77.502949459336662
10
130.50448011336326
20
77.502949459336662
10
130.50448011336326
20
73.184100358091897
10
128.54165323074346
20
72.050861729038729
10
128.46944203884263
20
72.175935182286111
10
116.80239999999998
20
65.439965320513608
10
115.85531988663682
20
65.986762278907975
10
115.71089750283512
20
65.903379976743054
10
103.1003198866367
20
73.18410035809184
10
103.10031988663673
20
77.502949459336662
10
103.19237042730002
20
77.502949459336662
10
103.19237042730006
20
84.687050540663321
10
103.10031988663673
20
84.687050540663321
10
103.1003198866367
20
89.005899641908115
10
106.84055292342646
20
91.165324192530591
10
106.88657819375808
20
91.085606085884052
10
113.10819223354204
20
94.677656626547289
10
113.06216696321037
20
94.757374733193785
10
116.80239999999998
20
96.916799283816246
10
120.54263303678954
20
94.757374733193828
10
120.49660776645787
20
94.677656626547304
0
LWPOLYLINE
5
137
100
AcDbEntity
8
0
100
AcDbPolyline
90
18
70
1
43
0.0
10
83.264247076573639
20
96.139412517218204
10
83.218221806241971
20
96.219130623864743
10
76.996607766458069
20
92.627080083201534
10
77.042633036789738
20
92.54736197655501
10
73.302400000000006
20
90.387937425932478
10
59.600319886636711
20
98.298837067840594
10
59.600319886636697
20
100.56531432594703
10
59.744742270438415
20
100.56531432594704
10
59.744742270438408
20
114.03725404949192
10
73.30240000000002
20
121.8647713892351
10
83.517896929153537
20
115.9668514872825
10
83.541747623468467
20
116.11984588682928
10
87.004480113363257
20
114.12063635165686
10
87.004480113363257
20
109.80178725041205
10
86.912429572699935
20
109.80178725041202
10
86.912429572699935
20
102.6176861690854
10
87.004480113363257
20
102.6176861690854
10
87.004480113363257
20
98.298837067840608
0
LWPOLYLINE
5
138
100
AcDbEntity
8
0
100
AcDbPolyline
90
12
70
1
43
0.0
10
59.047399999999953
20
68.778858329069664
10
58.547399999999953
20
68.778858329069664
10
58.247399999999978
20
68.778858329069678
10
58.247399999999971
20
66.678858329069683
10
58.547399999999968
20
66.678858329069669
10
59.047399999999953
20
66.678858329069669
10
59.547399999999953
20
66.678858329069669
10
60.047399999999953
20
66.678858329069669
10
60.347399999999965
20
66.678858329069669
10
60.347399999999979
20
68.778858329069678
10
60.047399999999975
20
68.778858329069678
10
59.547399999999953
20
68.778858329069664
0
LWPOLYLINE
5
139
100
AcDbEntity
8
0
100
AcDbPolyline
90
12
70
1
43
0.0
10
59.047399999999932
20
72.778858329069635
10
58.547399999999932
20
72.778858329069635
10
58.247399999999978
20
72.778858329069649
10
58.247399999999971
20
70.678858329069655
10
58.547399999999968
20
70.678858329069641
10
59.047399999999932
20
70.678858329069641
10
59.547399999999939
20
70.678858329069641
10
60.047399999999939
20
70.678858329069641
10
60.347399999999965
20
70.678858329069641
10
60.347399999999979
20
72.778858329069635
10
60.047399999999975
20
72.778858329069649
10
59.547399999999939
20
72.778858329069635
0
LWPOLYLINE
5
140
100
AcDbEntity
8
0
100
AcDbPolyline
90
12
70
1
43
0.0
10
59.047399999999932
20
76.778858329069521
10
58.547399999999932
20
76.778858329069521
10
58.247399999999971
20
76.778858329069536
10
58.247399999999956
20
74.678858329069541
10
58.547399999999961
20
74.678858329069527
10
59.047399999999932
20
74.678858329069527
10
59.547399999999939
20
74.678858329069527
10
60.047399999999939
20
74.678858329069527
10
60.347399999999958
20
74.678858329069527
10
60.347399999999965
20
76.778858329069536
10
60.047399999999968
20
76.778858329069536
10
59.547399999999939
20
76.778858329069521
0
LINE
5
141
100
AcDbEntity
8
0
100
AcDbLine
10
62.754399999999961
20
83.998714643131592
30
0
11
62.754399999999961
21
83.786582608775646
31
0
0
ELLIPSE
5
142
100
AcDbEntity
8
0
100
AcDbEllipse
10
62.979399999999963
20
83.998714643131592
30
0
11
0.2249999999999997
21
-1.2084401894422526e-18
31
0.0
40
0.70710678118656489
41
0
42
3.1415926535897931
0
LINE
5
143
100
AcDbEntity
8
0
100
AcDbLine
10
63.204399999999964
20
83.786582608775632
30
0
11
63.204399999999964
21
83.998714643131592
31
0
0
LINE
5
144
100
AcDbEntity
8
0
100
AcDbLine
10
62.754399999999961
20
85.15330879773343
30
0
11
62.754399999999961
21
84.941176763377456
31
0
0
LINE
5
145
100
AcDbEntity
8
0
100
AcDbLine
10
63.204399999999964
20
84.941176763377456
30
0
11
63.204399999999964
21
85.15330879773343
31
0
0
ELLIPSE
5
146
100
AcDbEntity
8
0
100
AcDbEllipse
10
62.979399999999963
20
84.941176763377456
30
0
11
0.2249999999999997
21
-1.2084401894422526e-18
31
0.0
40
0.70710678118653836
41
3.1415926535897931
42
6.2831853071795862
0
LINE
5
147
100
AcDbEntity
8
0
100
AcDbLine
10
63.204399999999964
20
85.15330879773343
30
0
11
63.204399999999964
21
85.394209771966445
31
0
0
LINE
5
148
100
AcDbEntity
8
0
100
AcDbLine
10
63.204399999999964
20
86.709260278305266
30
0
11
63.204399999999964
21
85.394209771966445
31
0
0
ARC
5
149
100
AcDbEntity
8
0
100
AcDbCircle
10
63.354399999999956
20
81.7149457032545
30
0
40
0.19999999999999574
210
-0
220
0
230
1
100
AcDbArc
50
0
51
45.000000000012946
0
LINE
5
150
100
AcDbEntity
8
0
100
AcDbLine
10
62.754399999999961
20
85.46994570325451
30
0
11
62.754399999999961
21
85.394209771966445
31
0
0
ARC
5
151
100
AcDbEntity
8
0
100
AcDbCircle
10
62.604399999999956
20
85.46994570325451
30
0
40
0.15000000000000568
210
0
220
0
230
1
100
AcDbArc
50
0
51
180
0
LINE
5
152
100
AcDbEntity
8
0
100
AcDbLine
10
62.454399999999957
20
83.46994570325451
30
0
11
62.454399999999957
21
85.46994570325451
31
0
0
ARC
5
153
100
AcDbEntity
8
0
100
AcDbCircle
10
62.604399999999956
20
83.46994570325451
30
0
40
0.1499999999999968
210
0
220
0
230
1
100
AcDbArc
50
-180
51
0
0
LINE
5
154
100
AcDbEntity
8
0
100
AcDbLine
10
62.754399999999961
20
83.545681634542603
30
0
11
62.754399999999954
21
83.46994570325451
31
0
0
LINE
5
155
100
AcDbEntity
8
0
100
AcDbLine
10
63.204399999999964
20
83.545681634542603
30
0
11
63.204399999999964
21
82.230631128203754
31
0
0
ARC
5
156
100
AcDbEntity
8
0
100
AcDbCircle
10
63.404399999999953
20
82.230631128203754
30
0
40
0.19999999999999574
210
0
220
0
230
1
100
AcDbArc
50
180
51
225.0000000000029
0
LINE
5
157
100
AcDbEntity
8
0
100
AcDbLine
10
63.262978643762651
20
82.089209771966438
30
0
11
63.495821356237236
21
81.856367059491845
31
0
0
LINE
5
158
100
AcDbEntity
8
0
100
AcDbLine
10
63.554399999999951
20
81.294945703254498
30
0
11
63.554399999999951
21
81.7149457032545
31
0
0
LINE
5
159
100
AcDbEntity
8
0
100
AcDbLine
10
63.554399999999951
20
87.224945703254505
30
0
11
63.554399999999951
21
87.644945703254507
31
0
0
ARC
5
160
100
AcDbEntity
8
0
100
AcDbCircle
10
63.354399999999956
20
87.224945703254505
30
0
40
0.1999999999999946
210
-0
220
0
230
1
100
AcDbArc
50
-44.999999999998572
51
0
0
LINE
5
161
100
AcDbEntity
8
0
100
AcDbLine
10
63.495821356237265
20
87.083524347017203
30
0
11
63.262978643762644
21
86.850681634542582
31
0
0
ARC
5
162
100
AcDbEntity
8
0
100
AcDbCircle
10
63.404399999999953
20
86.709260278305266
30
0
40
0.20000000000000087
210
0
220
0
230
1
100
AcDbArc
50
134.99999999999858
51
180
0
LINE
5
163
100
AcDbEntity
8
0
100
AcDbLine
10
56.254399999999961
20
81.294945703254555
30
0
11
56.254399999999961
21
84.764945703254568
31
0
0
LINE
5
164
100
AcDbEntity
8
0
100
AcDbLine
10
56.254399999999961
20
79.994945703254544
30
0
11
58.111694901687954
21
79.994945703254544
31
0
0
LINE
5
165
100
AcDbEntity
8
0
100
AcDbLine
10
56.254399999999961
20
79.994945703254544
30
0
11
56.254399999999961
21
81.294945703254555
31
0
0
LINE
5
166
100
AcDbEntity
8
0
100
AcDbLine
10
60.097105098311957
20
79.994945703254544
30
0
11
62.070025890314959
21
79.994945703254544
31
0
0
LINE
5
167
100
AcDbEntity
8
0
100
AcDbLine
10
56.254399999999961
20
88.944945703254547
30
0
11
56.254399999999961
21
87.64494570325455
31
0
0
LINE
5
168
100
AcDbEntity
8
0
100
AcDbLine
10
56.254399999999961
20
84.774945703254559
30
0
11
56.254399999999961
21
87.64494570325455
31
0
0
LINE
5
169
100
AcDbEntity
8
0
100
AcDbLine
10
56.254399999999961
20
84.774945703254559
30
0
11
56.254399999999961
21
84.764945703254568
31
0
0
LINE
5
170
100
AcDbEntity
8
0
100
AcDbLine
10
58.454399999999957
20
79.994945703254544
30
0
11
58.111694901687954
21
79.994945703254544
31
0
0
LINE
5
171
100
AcDbEntity
8
0
100
AcDbLine
10
58.454399999999957
20
79.994945703254544
30
0
11
58.754399999999961
21
79.994945703254572
31
0
0
LINE
5
172
100
AcDbEntity
8
0
100
AcDbLine
10
58.754399999999961
20
79.994945703254572
30
0
11
58.95439999999995
21
79.994945703254587
31
0
0
LINE
5
173
100
AcDbEntity
8
0
100
AcDbLine
10
58.95439999999995
20
79.994945703254587
30
0
11
59.254399999999961
21
79.994945703254572
31
0
0
LINE
5
174
100
AcDbEntity
8
0
100
AcDbLine
10
59.454399999999964
20
79.994945703254558
30
0
11
59.254399999999961
21
79.994945703254572
31
0
0
LINE
5
175
100
AcDbEntity
8
0
100
AcDbLine
10
59.454399999999964
20
79.994945703254558
30
0
11
59.554399999999958
21
79.994945703254558
31
0
0
LINE
5
176
100
AcDbEntity
8
0
100
AcDbLine
10
59.554399999999958
20
79.994945703254558
30
0
11
59.754399999999954
21
79.994945703254558
31
0
0
LINE
5
177
100
AcDbEntity
8
0
100
AcDbLine
10
60.097105098311957
20
79.994945703254544
30
0
11
59.754399999999954
21
79.994945703254558
31
0
0
LINE
5
178
100
AcDbEntity
8
0
100
AcDbLine
10
62.514399999999959
20
79.994945703254544
30
0
11
62.070025890314959
21
79.994945703254544
31
0
0
LINE
5
179
100
AcDbEntity
8
0
100
AcDbLine
10
62.514399999999959
20
79.994945703254544
30
0
11
62.864399999999954
21
79.994945703254572
31
0
0
LINE
5
180
100
AcDbEntity
8
0
100
AcDbLine
10
63.204399999999964
20
79.994945703254587
30
0
11
62.864399999999954
21
79.994945703254572
31
0
0
LINE
5
181
100
AcDbEntity
8
0
100
AcDbLine
10
63.204399999999964
20
79.994945703254587
30
0
11
63.554399999999958
21
79.994945703254572
31
0
0
LINE
5
182
100
AcDbEntity
8
0
100
AcDbLine
10
58.111694901687954
20
88.944945703254547
30
0
11
56.254399999999961
21
88.944945703254547
31
0
0
LINE
5
183
100
AcDbEntity
8
0
100
AcDbLine
10
63.204399999999964
20
88.944945703254575
30
0
11
63.554399999999958
21
88.944945703254575
31
0
0
LINE
5
184
100
AcDbEntity
8
0
100
AcDbLine
10
63.204399999999964
20
88.944945703254575
30
0
11
62.864399999999961
21
88.944945703254575
31
0
0
LINE
5
185
100
AcDbEntity
8
0
100
AcDbLine
10
62.514399999999952
20
88.944945703254575
30
0
11
62.864399999999961
21
88.944945703254575
31
0
0
LINE
5
186
100
AcDbEntity
8
0
100
AcDbLine
10
62.514399999999952
20
88.944945703254575
30
0
11
62.070025890315151
21
88.944945703254547
31
0
0
LINE
5
187
100
AcDbEntity
8
0
100
AcDbLine
10
62.070025890315151
20
88.944945703254547
30
0
11
60.09710509831195
21
88.944945703254547
31
0
0
LINE
5
188
100
AcDbEntity
8
0
100
AcDbLine
10
60.09710509831195
20
88.944945703254547
30
0
11
59.754399999999954
21
88.944945703254547
31
0
0
LINE
5
189
100
AcDbEntity
8
0
100
AcDbLine
10
59.554399999999958
20
88.944945703254561
30
0
11
59.754399999999954
21
88.944945703254547
31
0
0
LINE
5
190
100
AcDbEntity
8
0
100
AcDbLine
10
59.454399999999964
20
88.944945703254561
30
0
11
59.554399999999958
21
88.944945703254561
31
0
0
LINE
5
191
100
AcDbEntity
8
0
100
AcDbLine
10
59.454399999999964
20
88.944945703254561
30
0
11
59.254399999999961
21
88.944945703254561
31
0
0
LINE
5
192
100
AcDbEntity
8
0
100
AcDbLine
10
58.954399999999964
20
88.944945703254575
30
0
11
59.254399999999961
21
88.944945703254561
31
0
0
LINE
5
193
100
AcDbEntity
8
0
100
AcDbLine
10
58.754399999999961
20
88.944945703254575
30
0
11
58.954399999999964
21
88.944945703254575
31
0
0
LINE
5
194
100
AcDbEntity
8
0
100
AcDbLine
10
58.454399999999957
20
88.944945703254575
30
0
11
58.754399999999961
21
88.944945703254575
31
0
0
LINE
5
195
100
AcDbEntity
8
0
100
AcDbLine
10
58.454399999999957
20
88.944945703254575
30
0
11
58.111694901687954
21
88.944945703254547
31
0
0
LINE
5
196
100
AcDbEntity
8
0
100
AcDbLine
10
63.554399999999958
20
79.994945703254572
30
0
11
63.554399999999958
21
80.294945703254569
31
0
0
LINE
5
197
100
AcDbEntity
8
0
100
AcDbLine
10
63.554399999999951
20
81.294945703254498
30
0
11
63.554399999999958
21
80.294945703254569
31
0
0
LINE
5
198
100
AcDbEntity
8
0
100
AcDbLine
10
63.554399999999951
20
87.644945703254507
30
0
11
63.554399999999951
21
88.644945703254507
31
0
0
LINE
5
199
100
AcDbEntity
8
0
100
AcDbLine
10
63.554399999999958
20
88.944945703254575
30
0
11
63.554399999999951
21
88.644945703254507
31
0
0
LINE
5
200
100
AcDbEntity
8
0
100
AcDbLine
10
63.204399999999964
20
83.545681634542603
30
0
11
63.204399999999964
21
83.786582608775632
31
0
0
LINE
5
201
100
AcDbEntity
8
0
100
AcDbLine
10
62.754399999999961
20
85.15330879773343
30
0
11
62.754399999999961
21
85.394209771966445
31
0
0
LINE
5
202
100
AcDbEntity
8
0
100
AcDbLine
10
62.754399999999961
20
83.545681634542603
30
0
11
62.754399999999961
21
83.786582608775646
31
0
0
LWPOLYLINE
5
203
100
AcDbEntity
8
0
100
AcDbPolyline
90
28
70
1
43
0.0
10
57.747399999999999
20
92.209736709748697
42
0.41421356237309503
10
57.847399999999993
20
92.109736709748674
10
58.421225960009252
20
92.109736709748688
10
58.421225960009252
20
92.309736709748691
10
57.947399999999988
20
92.309736709748691
10
57.947399999999988
20
92.459736709749166
10
60.347399999999993
20
92.459736709749166
10
60.347399999999993
20
93.584736709749947
10
60.947400000000002
20
93.584736709749947
10
60.947400000000002
20
94.134736709750854
10
60.447399999999988
20
94.134736709747088
10
60.447399999999988
20
97.784736709747065
10
60.947400000000002
20
97.78473670974725
10
60.947400000000002
20
98.334736709746409
10
60.347399999999993
20
98.334736709746409
10
60.347399999999986
20
99.459736709751496
10
57.947400000000002
20
99.459736709748483
10
57.947400000000002
20
99.609736709748688
10
58.421225959291831
20
99.609736709748688
10
58.421225959272441
20
99.809736709748691
10
57.847399999999993
20
99.809736709748705
42
0.41421356237309503
10
57.747399999999999
20
99.709736709748697
10
57.747399999999999
20
97.459736709747048
10
57.047399999999996
20
97.459736709747048
10
56.947399999999995
20
97.35973670974704
10
56.947399999999995
20
94.559736709747057
10
57.047399999999996
20
94.459736709747062
10
57.747399999999999
20
94.45973670974702
0
LWPOLYLINE
5
204
100
AcDbEntity
8
0
100
AcDbPolyline
90
6
70
1
43
0.0
10
62.864399999999954
20
87.249945703254554
10
63.054399999999958
20
87.249945703254554
10
63.654399999999953
20
87.249945703254568
10
63.65439999999996
20
86.689945703254551
10
63.054399999999958
20
86.689945703254551
10
62.864399999999954
20
86.689945703254551
0
LWPOLYLINE
5
205
100
AcDbEntity
8
0
100
AcDbPolyline
90
6
70
1
43
0.0
10
62.864399999999954
20
86.249945703254554
10
63.054399999999958
20
86.249945703254554
10
63.654399999999953
20
86.249945703254554
10
63.65439999999996
20
85.689945703254566
10
63.054399999999958
20
85.689945703254566
10
62.864399999999954
20
85.689945703254566
0
LWPOLYLINE
5
206
100
AcDbEntity
8
0
100
AcDbPolyline
90
6
70
1
43
0.0
10
62.864399999999954
20
85.249945703254554
10
63.054399999999958
20
85.249945703254554
10
63.654399999999953
20
85.249945703254554
10
63.65439999999996
20
84.689945703254566
10
63.054399999999958
20
84.689945703254566
10
62.864399999999954
20
84.689945703254566
0
LWPOLYLINE
5
207
100
AcDbEntity
8
0
100
AcDbPolyline
90
6
70
1
43
0.0
10
62.864399999999954
20
83.689945703254551
10
62.864399999999954
20
84.249945703254539
10
63.054399999999958
20
84.249945703254554
10
63.654399999999953
20
84.249945703254554
10
63.65439999999996
20
83.689945703254566
10
63.054399999999958
20
83.689945703254551
0
LWPOLYLINE
5
208
100
AcDbEntity
8
0
100
AcDbPolyline
90
6
70
1
43
0.0
10
62.864399999999954
20
83.249945703254568
10
63.054399999999958
20
83.249945703254568
10
63.654399999999953
20
83.249945703254568
10
63.65439999999996
20
82.689945703254551
10
63.054399999999958
20
82.689945703254551
10
62.864399999999954
20
82.689945703254551
0
LWPOLYLINE
5
209
100
AcDbEntity
8
0
100
AcDbPolyline
90
6
70
1
43
0.0
10
62.864399999999954
20
82.249945703254554
10
63.054399999999958
20
82.249945703254554
10
63.654399999999953
20
82.249945703254568
10
63.65439999999996
20
81.689945703254551
10
63.054399999999958
20
81.689945703254551
10
62.864399999999954
20
81.689945703254551
0
ENDSEC
0
SECTION
2
OBJECTS
0
DICTIONARY
5
C
100
AcDbDictionary
3
ACAD_GROUP
350
D
3
ACAD_MLINESTYLE
350
17
0
DICTIONARY
5
D
100
AcDbDictionary
0
DICTIONARY
5
1A
330
C
100
AcDbDictionary
0
DICTIONARY
5
17
100
AcDbDictionary
0
ENDSEC
0
EOF
