<?xml version="1.0" standalone="no"?>
 <!DOCTYPE svg PUBLIC "-//W3C//DTD SVG 1.1//EN" 
 "http://www.w3.org/Graphics/SVG/1.1/DTD/svg11.dtd"> 
<svg
  xmlns:svg="http://www.w3.org/2000/svg"
  xmlns="http://www.w3.org/2000/svg"
  xmlns:xlink="http://www.w3.org/1999/xlink"
  version="1.1"
  width="29.700220cm" height="21.000720cm" viewBox="0 0 116930 82680">
<title>SVG Picture created as Main-F_SilkS.svg date 2021/06/28 15:08:02 </title>
  <desc>Picture generated by PCBNEW </desc>
<g style="fill:#000000; fill-opacity:1;stroke:#000000; stroke-opacity:1;
stroke-linecap:round; stroke-linejoin:round;"
 transform="translate(0 0) scale(1 1)">
</g>
<g style="fill:#000000; fill-opacity:0.0; 
stroke:#000000; stroke-width:-0.000393701; stroke-opacity:1; 
stroke-linecap:round; stroke-linejoin:round;">
</g>
<g style="fill:#000000; fill-opacity:0.0; 
stroke:#000000; stroke-width:39.3701; stroke-opacity:1; 
stroke-linecap:round; stroke-linejoin:round;">
<g transform="rotate(30 70937 39555.1)">
<text x="70937" y="39752"
textLength="744.844" font-size="524.934" lengthAdjust="spacingAndGlyphs"
text-anchor="middle" opacity="0">L5</text>
</g>
<path d="M70791 39676
L70628 39582
L70825 39241
" />
<path d="M71263 39494
L71101 39401
L70991 39554
L71017 39547
L71059 39549
L71140 39596
L71163 39631
L71170 39657
L71167 39699
L71120 39780
L71085 39803
L71060 39810
L71018 39807
L70937 39760
L70914 39725
L70907 39700
" />
<path d="M43503 38287
L42519 39685
" />
<text x="40614.2" y="40189"
textLength="491.751" font-size="262.467" lengthAdjust="spacingAndGlyphs"
text-anchor="middle" opacity="0">P-</text>
<path d="M40440 40179
L40440 39982
L40515 39982
L40534 39992
L40543 40001
L40553 40020
L40553 40048
L40543 40067
L40534 40076
L40515 40085
L40440 40085
" />
<path d="M40637 40104
L40787 40104
" />
<text x="40606.3" y="41984.3"
textLength="491.751" font-size="262.467" lengthAdjust="spacingAndGlyphs"
text-anchor="middle" opacity="0">P+</text>
<path d="M40432 41974
L40432 41778
L40507 41778
L40526 41787
L40535 41796
L40545 41815
L40545 41843
L40535 41862
L40526 41871
L40507 41881
L40432 41881
" />
<path d="M40629 41899
L40779 41899
" />
<path d="M40704 41974
L40704 41824
" />
</g>
<g style="fill:#000000; fill-opacity:0.0; 
stroke:#000000; stroke-width:47.2441; stroke-opacity:1; 
stroke-linecap:round; stroke-linejoin:round;">
<path d="M44857 39828
L45376 39087
" />
<path d="M45376 39087
L44505 38477
" />
</g>
<g style="fill:#000000; fill-opacity:0.0; 
stroke:#000000; stroke-width:39.3701; stroke-opacity:1; 
stroke-linecap:round; stroke-linejoin:round;">
<circle cx="51896.5" cy="39356.8" r="39.3701" /> 
<path d="M52200 38987
L52610 39223
" />
<path d="M52004 39327
L52413 39564
" />
</g>
<g style="fill:#000000; fill-opacity:0.0; 
stroke:#000000; stroke-width:47.2441; stroke-opacity:1; 
stroke-linecap:round; stroke-linejoin:round;">
<path d="M53923 41002
L53549 40354
" />
<path d="M52856 40981
L53132 41459
" />
</g>
<g style="fill:#000000; fill-opacity:0.0; 
stroke:#000000; stroke-width:39.3701; stroke-opacity:1; 
stroke-linecap:round; stroke-linejoin:round;">
<path d="M52775 43539
L52775 42988
" />
<path d="M52775 42988
L51988 42988
" />
<path d="M51988 42988
L51988 43539
" />
<path d="M51988 43539
L52775 43539
" />
<circle cx="52854.3" cy="43618.1" r="55.6776" /> 
</g>
<g style="fill:#000000; fill-opacity:0.0; 
stroke:#000000; stroke-width:47.2441; stroke-opacity:1; 
stroke-linecap:round; stroke-linejoin:round;">
<path d="M63753 40761
L63399 40147
" />
<path d="M62301 40781
L62783 41617
" />
<path d="M59281 43069
L59323 43143
" />
<path d="M59526 42927
L59569 43001
" />
<path d="M61290 40885
L61391 41061
" />
<path d="M60805 41165
L60907 41341
" />
<path d="M47492 40494
L47492 40623
" />
<path d="M47090 40494
L47090 40623
" />
<path d="M46838 40389
L46838 40185
" />
<path d="M46279 40389
L46279 40185
" />
<path d="M44358 41988
L44358 41791
" />
<path d="M44358 41791
L44555 41791
" />
</g>
<g style="fill:#000000; fill-opacity:1.0; 
stroke:#000000; stroke-width:0; stroke-opacity:1; 
stroke-linecap:round; stroke-linejoin:round;">
<circle cx="44555.1" cy="41791.3" r="23.622" /> 
</g>
<g style="fill:#000000; fill-opacity:1.0; 
stroke:#000000; stroke-width:47.2441; stroke-opacity:1; 
stroke-linecap:round; stroke-linejoin:round;">
</g>
<g style="fill:#000000; fill-opacity:0.0; 
stroke:#000000; stroke-width:47.2441; stroke-opacity:1; 
stroke-linecap:round; stroke-linejoin:round;">
<path d="M45027 41791
L45224 41791
" />
<path d="M45224 41791
L45224 41988
" />
</g>
<g style="fill:#000000; fill-opacity:1.0; 
stroke:#000000; stroke-width:0; stroke-opacity:1; 
stroke-linecap:round; stroke-linejoin:round;">
<circle cx="45224.4" cy="41988.2" r="23.622" /> 
</g>
<g style="fill:#000000; fill-opacity:1.0; 
stroke:#000000; stroke-width:47.2441; stroke-opacity:1; 
stroke-linecap:round; stroke-linejoin:round;">
</g>
<g style="fill:#000000; fill-opacity:0.0; 
stroke:#000000; stroke-width:47.2441; stroke-opacity:1; 
stroke-linecap:round; stroke-linejoin:round;">
<path d="M45224 42460
L45224 42657
" />
<path d="M45224 42657
L45027 42657
" />
</g>
<g style="fill:#000000; fill-opacity:1.0; 
stroke:#000000; stroke-width:0; stroke-opacity:1; 
stroke-linecap:round; stroke-linejoin:round;">
<circle cx="45027.6" cy="42657.5" r="23.622" /> 
</g>
<g style="fill:#000000; fill-opacity:1.0; 
stroke:#000000; stroke-width:47.2441; stroke-opacity:1; 
stroke-linecap:round; stroke-linejoin:round;">
</g>
<g style="fill:#000000; fill-opacity:0.0; 
stroke:#000000; stroke-width:47.2441; stroke-opacity:1; 
stroke-linecap:round; stroke-linejoin:round;">
<path d="M44358 42460
L44358 42657
" />
</g>
<g style="fill:#000000; fill-opacity:1.0; 
stroke:#000000; stroke-width:0; stroke-opacity:1; 
stroke-linecap:round; stroke-linejoin:round;">
<circle cx="44358.3" cy="42657.5" r="23.622" /> 
</g>
<g style="fill:#000000; fill-opacity:1.0; 
stroke:#000000; stroke-width:47.2441; stroke-opacity:1; 
stroke-linecap:round; stroke-linejoin:round;">
</g>
<g style="fill:#000000; fill-opacity:0.0; 
stroke:#000000; stroke-width:47.2441; stroke-opacity:1; 
stroke-linecap:round; stroke-linejoin:round;">
<path d="M63793 38651
L64167 39298
" />
<path d="M64860 38671
L64584 38194
" />
<path d="M54555 45685
L54555 44976
" />
<path d="M53287 44976
L53287 45940
" />
</g>
<g style="fill:#000000; fill-opacity:0.0; 
stroke:#000000; stroke-width:59.0551; stroke-opacity:1; 
stroke-linecap:round; stroke-linejoin:round;">
<path d="M52888 38244
L52394 37958
" />
<path d="M52703 39136
L51961 38708
" />
</g>
<g style="fill:#000000; fill-opacity:0.0; 
stroke:#000000; stroke-width:47.2441; stroke-opacity:1; 
stroke-linecap:round; stroke-linejoin:round;">
<path d="M54225 40651
L54161 40540
" />
<path d="M53877 40852
L53813 40741
" />
<path d="M45685 40957
L45685 40829
" />
<path d="M45283 40957
L45283 40829
" />
<path d="M43732 41905
L43860 41905
" />
<path d="M43732 42307
L43860 42307
" />
<path d="M60227 41495
L60329 41672
" />
<path d="M60711 41216
L60813 41392
" />
<path d="M62774 41481
L62838 41592
" />
<path d="M62426 41681
L62490 41792
" />
<path d="M49911 38993
L50022 38929
" />
<path d="M49710 38645
L49821 38581
" />
<path d="M51937 43694
L51937 43565
" />
<path d="M51535 43694
L51535 43565
" />
<path d="M49854 38478
L49678 38580
" />
<path d="M49575 37994
L49398 38096
" />
<circle cx="73165.4" cy="39948.8" r="374.016" /> 
<circle cx="69566.9" cy="37870.1" r="374.016" /> 
</g>
<g style="fill:#000000; fill-opacity:0.0; 
stroke:#000000; stroke-width:59.0551; stroke-opacity:1; 
stroke-linecap:round; stroke-linejoin:round;">
<g transform="rotate(35 44229.9 39798.2)">
<text x="44229.9" y="39995"
textLength="763.592" font-size="524.934" lengthAdjust="spacingAndGlyphs"
text-anchor="middle" opacity="0">Y1</text>
</g>
<path d="M44081 39682
L43974 39836
" />
<path d="M44092 39438
L44081 39682
L44307 39589
" />
<path d="M44358 40105
L44173 39976
" />
<path d="M44265 40040
L44491 39718
L44428 39742
L44376 39752
L44335 39745
" />
</g>
<g style="fill:#000000; fill-opacity:0.0; 
stroke:#000000; stroke-width:39.3701; stroke-opacity:1; 
stroke-linecap:round; stroke-linejoin:round;">
<g transform="rotate(30 45712.6 42419.3)">
<text x="45712.6" y="42517.7"
textLength="629.828" font-size="262.467" lengthAdjust="spacingAndGlyphs"
text-anchor="middle" opacity="0">SDA</text>
</g>
<path d="M45465 42368
L45485 42390
L45526 42414
L45546 42415
L45559 42412
L45577 42400
L45586 42384
L45587 42363
L45584 42350
L45572 42333
L45545 42306
L45533 42288
L45530 42276
L45531 42255
L45540 42238
L45558 42227
L45571 42223
L45591 42225
L45632 42248
L45652 42270
" />
<path d="M45631 42475
L45729 42304
L45770 42328
L45790 42350
L45797 42376
L45795 42396
L45785 42434
L45771 42458
L45744 42486
L45726 42497
L45701 42504
L45672 42498
L45631 42475
" />
<path d="M45822 42520
L45903 42567
" />
<path d="M45777 42559
L45932 42422
L45891 42625
" />
<g transform="rotate(30 44921.3 42986.2)">
<text x="44921.3" y="43084.6"
textLength="1213.54" font-size="262.467" lengthAdjust="spacingAndGlyphs"
text-anchor="middle" opacity="0">ACC_INT</text>
</g>
<path d="M44434 42742
L44515 42789
" />
<path d="M44389 42782
L44544 42644
L44503 42847
" />
<path d="M44666 42920
L44654 42923
L44625 42918
L44608 42908
L44589 42886
L44582 42860
L44583 42839
L44594 42802
L44608 42778
L44635 42750
L44652 42739
L44678 42732
L44707 42738
L44723 42747
L44743 42769
L44746 42782
" />
<path d="M44837 43018
L44824 43022
L44795 43016
L44779 43007
L44759 42984
L44752 42959
L44754 42938
L44764 42901
L44778 42876
L44805 42849
L44823 42837
L44848 42830
L44877 42836
L44893 42845
L44913 42868
L44917 42880
" />
<path d="M44851 43070
L44981 43145
" />
<path d="M45030 43152
L45129 42981
" />
<path d="M45112 43199
L45210 43028
L45209 43255
L45307 43085
" />
<path d="M45364 43117
L45462 43174
" />
<path d="M45315 43316
L45413 43145
" />
<g transform="rotate(30 52513.8 38917.6)">
<text x="52513.8" y="39016"
textLength="444.882" font-size="262.467" lengthAdjust="spacingAndGlyphs"
text-anchor="middle" opacity="0">U8</text>
</g>
<path d="M52437 38749
L52358 38887
L52356 38908
L52360 38920
L52371 38938
L52404 38957
L52425 38958
L52438 38955
L52455 38943
L52535 38805
" />
<path d="M52598 38939
L52587 38921
L52583 38909
L52584 38888
L52589 38880
L52607 38868
L52619 38865
L52640 38866
L52673 38885
L52684 38902
L52688 38915
L52686 38936
L52682 38944
L52664 38956
L52651 38959
L52631 38958
L52598 38939
L52577 38938
L52564 38941
L52547 38953
L52528 38985
L52527 39006
L52530 39019
L52542 39036
L52574 39055
L52595 39056
L52608 39053
L52626 39041
L52644 39009
L52646 38988
L52642 38975
L52631 38958
" />
<g transform="rotate(-30 52774.4 41363.3)">
<text x="52774.4" y="41461.7"
textLength="444.882" font-size="262.467" lengthAdjust="spacingAndGlyphs"
text-anchor="middle" opacity="0">U7</text>
</g>
<path d="M52590 41344
L52670 41482
L52687 41494
L52700 41497
L52721 41496
L52753 41477
L52765 41460
L52768 41447
L52767 41426
L52688 41288
" />
<path d="M52752 41251
L52866 41185
L52891 41398
" />
<g transform="rotate(-90 53002 43261.8)">
<text x="53002" y="43360.2"
textLength="444.882" font-size="262.467" lengthAdjust="spacingAndGlyphs"
text-anchor="middle" opacity="0">U6</text>
</g>
<path d="M52894 43411
L53053 43411
L53072 43402
L53081 43393
L53091 43374
L53091 43336
L53081 43318
L53072 43308
L53053 43299
L52894 43299
" />
<path d="M52894 43121
L52894 43158
L52903 43177
L52912 43186
L52941 43205
L52978 43214
L53053 43214
L53072 43205
L53081 43196
L53091 43177
L53091 43139
L53081 43121
L53072 43111
L53053 43102
L53006 43102
L52987 43111
L52978 43121
L52969 43139
L52969 43177
L52978 43196
L52987 43205
L53006 43214
" />
</g>
<g style="fill:#000000; fill-opacity:0.0; 
stroke:#000000; stroke-width:59.0551; stroke-opacity:1; 
stroke-linecap:round; stroke-linejoin:round;">
<g transform="rotate(55 38074.2 46966.2)">
<text x="38074.2" y="47163"
textLength="726.097" font-size="524.934" lengthAdjust="spacingAndGlyphs"
text-anchor="middle" opacity="0">J1</text>
</g>
<path d="M38175 46734
L37945 46896
L37888 46913
L37836 46903
L37788 46868
L37766 46837
" />
<path d="M38078 47283
L37949 47099
" />
<path d="M38014 47191
L38336 46965
L38269 46966
L38217 46957
L38180 46937
" />
</g>
<g style="fill:#000000; fill-opacity:0.0; 
stroke:#000000; stroke-width:39.3701; stroke-opacity:1; 
stroke-linecap:round; stroke-linejoin:round;">
<g transform="rotate(-30 63787.4 40322.8)">
<text x="63787.4" y="40421.3"
textLength="470.472" font-size="262.467" lengthAdjust="spacingAndGlyphs"
text-anchor="middle" opacity="0">U3</text>
</g>
<path d="M63603 40304
L63683 40442
L63700 40454
L63713 40457
L63734 40456
L63766 40437
L63778 40419
L63781 40407
L63780 40386
L63701 40248
" />
<path d="M63765 40210
L63871 40149
L63852 40247
L63876 40233
L63897 40232
L63910 40235
L63927 40247
L63951 40287
L63952 40308
L63949 40321
L63937 40339
L63888 40367
L63867 40368
L63855 40364
" />
<text x="46484.5" y="41386.5"
textLength="435.508" font-size="262.467" lengthAdjust="spacingAndGlyphs"
text-anchor="middle" opacity="0">C6</text>
<path d="M46451 41358
L46442 41367
L46414 41377
L46395 41377
L46367 41367
L46348 41349
L46339 41330
L46329 41292
L46329 41264
L46339 41227
L46348 41208
L46367 41189
L46395 41180
L46414 41180
L46442 41189
L46451 41199
" />
<path d="M46620 41180
L46582 41180
L46564 41189
L46554 41199
L46536 41227
L46526 41264
L46526 41339
L46536 41358
L46545 41367
L46564 41377
L46601 41377
L46620 41367
L46629 41358
L46639 41339
L46639 41292
L46629 41274
L46620 41264
L46601 41255
L46564 41255
L46545 41264
L46536 41274
L46526 41292
" />
<text x="46433.1" y="42149.6"
textLength="622.985" font-size="262.467" lengthAdjust="spacingAndGlyphs"
text-anchor="middle" opacity="0">R13</text>
<path d="M46306 42140
L46240 42046
" />
<path d="M46194 42140
L46194 41943
L46269 41943
L46287 41952
L46297 41962
L46306 41980
L46306 42008
L46297 42027
L46287 42037
L46269 42046
L46194 42046
" />
<path d="M46494 42140
L46381 42140
" />
<path d="M46437 42140
L46437 41943
L46419 41971
L46400 41990
L46381 41999
" />
<path d="M46559 41943
L46681 41943
L46615 42018
L46643 42018
L46662 42027
L46672 42037
L46681 42055
L46681 42102
L46672 42121
L46662 42130
L46643 42140
L46587 42140
L46568 42130
L46559 42121
" />
<text x="46421.3" y="41791.3"
textLength="622.985" font-size="262.467" lengthAdjust="spacingAndGlyphs"
text-anchor="middle" opacity="0">R14</text>
<path d="M46294 41781
L46229 41688
" />
<path d="M46182 41781
L46182 41585
L46257 41585
L46275 41594
L46285 41603
L46294 41622
L46294 41650
L46285 41669
L46275 41678
L46257 41688
L46182 41688
" />
<path d="M46482 41781
L46369 41781
" />
<path d="M46425 41781
L46425 41585
L46407 41613
L46388 41631
L46369 41641
" />
<path d="M46650 41650
L46650 41781
" />
<path d="M46604 41575
L46557 41716
L46679 41716
" />
<g transform="rotate(60 59820.7 42807.1)">
<text x="59820.7" y="42905.5"
textLength="622.985" font-size="262.467" lengthAdjust="spacingAndGlyphs"
text-anchor="middle" opacity="0">C25</text>
</g>
<path d="M59696 42732
L59683 42729
L59661 42709
L59652 42693
L59646 42664
L59653 42638
L59664 42621
L59692 42594
L59716 42580
L59753 42569
L59774 42568
L59800 42575
L59822 42594
L59832 42611
L59837 42640
L59834 42652
" />
<path d="M59872 42717
L59884 42721
L59902 42732
L59925 42773
L59927 42794
L59923 42807
L59912 42824
L59895 42834
L59866 42840
L59713 42798
L59774 42904
" />
<path d="M60033 42960
L59986 42879
L59900 42917
L59913 42921
L59931 42932
L59954 42973
L59955 42994
L59952 43007
L59940 43024
L59900 43047
L59879 43049
L59866 43045
L59849 43034
L59825 42993
L59824 42972
L59827 42959
" />
<g transform="rotate(-30 60944.9 40255.9)">
<text x="60944.9" y="40354.3"
textLength="622.985" font-size="262.467" lengthAdjust="spacingAndGlyphs"
text-anchor="middle" opacity="0">R15</text>
</g>
<path d="M60879 40396
L60776 40347
" />
<path d="M60782 40452
L60683 40282
L60748 40244
L60769 40243
L60782 40246
L60800 40258
L60814 40282
L60815 40303
L60812 40316
L60800 40333
L60735 40371
" />
<path d="M61042 40302
L60944 40358
" />
<path d="M60993 40330
L60895 40160
L60892 40193
L60886 40219
L60874 40237
" />
<path d="M61097 40043
L61016 40089
L61055 40175
L61058 40162
L61070 40145
L61111 40122
L61132 40120
L61144 40124
L61162 40135
L61185 40176
L61187 40197
L61183 40210
L61172 40227
L61131 40251
L61110 40252
L61097 40248
" />
<g transform="rotate(60 61497 40852.8)">
<text x="61497" y="40951.3"
textLength="622.985" font-size="262.467" lengthAdjust="spacingAndGlyphs"
text-anchor="middle" opacity="0">C13</text>
</g>
<path d="M61372 40778
L61360 40774
L61337 40755
L61328 40739
L61322 40710
L61329 40684
L61341 40666
L61368 40640
L61393 40625
L61430 40615
L61451 40614
L61476 40620
L61499 40640
L61508 40656
L61514 40685
L61510 40698
" />
<path d="M61450 40950
L61394 40852
" />
<path d="M61422 40901
L61592 40802
L61559 40800
L61533 40793
L61515 40782
" />
<path d="M61653 40908
L61714 41014
L61616 40994
L61630 41019
L61632 41040
L61628 41052
L61617 41070
L61576 41093
L61555 41094
L61542 41091
L61525 41080
L61497 41031
L61496 41010
L61499 40997
" />
<g transform="rotate(-60 52732.3 45870.1)">
<text x="52732.3" y="45968.5"
textLength="622.985" font-size="262.467" lengthAdjust="spacingAndGlyphs"
text-anchor="middle" opacity="0">C21</text>
</g>
<path d="M52729 46014
L52733 46027
L52727 46056
L52718 46072
L52695 46092
L52670 46099
L52649 46098
L52612 46087
L52587 46073
L52560 46046
L52548 46029
L52541 46003
L52547 45974
L52556 45958
L52579 45938
L52591 45935
" />
<path d="M52629 45870
L52625 45857
L52627 45836
L52650 45795
L52668 45784
L52680 45780
L52701 45782
L52718 45791
L52737 45813
L52778 45967
L52839 45861
" />
<path d="M52933 45699
L52877 45796
" />
<path d="M52905 45748
L52735 45649
L52749 45680
L52756 45705
L52755 45726
" />
<text x="53102.4" y="45980.3"
textLength="435.508" font-size="262.467" lengthAdjust="spacingAndGlyphs"
text-anchor="middle" opacity="0">R6</text>
<path d="M53069 45970
L53003 45877
" />
<path d="M52957 45970
L52957 45774
L53032 45774
L53050 45783
L53060 45792
L53069 45811
L53069 45839
L53060 45858
L53050 45867
L53032 45877
L52957 45877
" />
<path d="M53238 45774
L53200 45774
L53182 45783
L53172 45792
L53153 45820
L53144 45858
L53144 45933
L53153 45952
L53163 45961
L53182 45970
L53219 45970
L53238 45961
L53247 45952
L53257 45933
L53257 45886
L53247 45867
L53238 45858
L53219 45849
L53182 45849
L53163 45858
L53153 45867
L53144 45886
" />
<g transform="rotate(-90 47669.3 40736.2)">
<text x="47669.3" y="40834.6"
textLength="435.508" font-size="262.467" lengthAdjust="spacingAndGlyphs"
text-anchor="middle" opacity="0">C1</text>
</g>
<path d="M47739 40769
L47748 40778
L47758 40806
L47758 40825
L47748 40853
L47730 40872
L47711 40881
L47673 40890
L47645 40890
L47608 40881
L47589 40872
L47570 40853
L47561 40825
L47561 40806
L47570 40778
L47580 40769
" />
<path d="M47758 40581
L47758 40694
" />
<path d="M47758 40637
L47561 40637
L47589 40656
L47608 40675
L47617 40694
" />
<g transform="rotate(-90 46043.3 40271.7)">
<text x="46043.3" y="40370.1"
textLength="398.013" font-size="262.467" lengthAdjust="spacingAndGlyphs"
text-anchor="middle" opacity="0">L1</text>
</g>
<path d="M46132 40304
L46132 40398
L45935 40398
" />
<path d="M46132 40135
L46132 40248
" />
<path d="M46132 40191
L45935 40191
L45963 40210
L45982 40229
L45991 40248
" />
<text x="47822.8" y="39964.6"
textLength="398.013" font-size="262.467" lengthAdjust="spacingAndGlyphs"
text-anchor="middle" opacity="0">L2</text>
<path d="M47790 39955
L47696 39955
L47696 39758
" />
<path d="M47846 39777
L47855 39767
L47874 39758
L47921 39758
L47940 39767
L47949 39777
L47958 39795
L47958 39814
L47949 39842
L47836 39955
L47958 39955
" />
<g transform="rotate(60 49500 40767.7)">
<text x="49500" y="40866.1"
textLength="622.985" font-size="262.467" lengthAdjust="spacingAndGlyphs"
text-anchor="middle" opacity="0">C23</text>
</g>
<path d="M49375 40693
L49363 40689
L49340 40670
L49331 40653
L49325 40624
L49332 40599
L49343 40581
L49371 40554
L49396 40540
L49433 40530
L49454 40528
L49479 40535
L49501 40555
L49511 40571
L49517 40600
L49513 40613
" />
<path d="M49551 40678
L49564 40681
L49581 40693
L49605 40734
L49606 40755
L49602 40767
L49591 40785
L49575 40794
L49546 40800
L49392 40759
L49453 40865
" />
<path d="M49656 40823
L49717 40928
L49619 40909
L49633 40933
L49635 40954
L49631 40967
L49620 40985
L49579 41008
L49558 41009
L49545 41006
L49528 40994
L49500 40946
L49498 40925
L49502 40912
" />
<g transform="rotate(-55 44978.1 39301.1)">
<text x="44978.1" y="39399.6"
textLength="435.508" font-size="262.467" lengthAdjust="spacingAndGlyphs"
text-anchor="middle" opacity="0">C2</text>
</g>
<path d="M45016 39368
L45019 39381
L45010 39409
L44999 39425
L44976 39442
L44950 39447
L44929 39444
L44893 39430
L44870 39414
L44844 39385
L44834 39366
L44830 39340
L44838 39312
L44849 39296
L44873 39279
L44886 39276
" />
<path d="M44929 39215
L44927 39202
L44930 39181
L44956 39143
L44975 39133
L44988 39131
L45009 39134
L45024 39144
L45042 39168
L45069 39325
L45139 39225
" />
<g transform="rotate(-55 43852.3 38485.4)">
<text x="43852.3" y="38583.8"
textLength="435.508" font-size="262.467" lengthAdjust="spacingAndGlyphs"
text-anchor="middle" opacity="0">C5</text>
</g>
<path d="M43891 38552
L43893 38565
L43884 38594
L43874 38609
L43850 38627
L43824 38631
L43803 38628
L43767 38614
L43744 38598
L43719 38569
L43709 38551
L43704 38524
L43712 38496
L43723 38481
L43747 38463
L43760 38461
" />
<path d="M43847 38304
L43793 38381
L43864 38442
L43862 38429
L43865 38409
L43892 38370
L43911 38360
L43924 38358
L43944 38361
L43983 38388
L43993 38406
L43995 38419
L43992 38440
L43965 38478
L43947 38488
L43934 38491
" />
<g transform="rotate(-90 43610.2 41145.7)">
<text x="43610.2" y="41244.1"
textLength="435.508" font-size="262.467" lengthAdjust="spacingAndGlyphs"
text-anchor="middle" opacity="0">C7</text>
</g>
<path d="M43680 41178
L43689 41187
L43699 41215
L43699 41234
L43689 41262
L43671 41281
L43652 41290
L43614 41300
L43586 41300
L43549 41290
L43530 41281
L43511 41262
L43502 41234
L43502 41215
L43511 41187
L43521 41178
" />
<path d="M43502 41112
L43502 40981
L43699 41065
" />
<text x="44992.1" y="41354.3"
textLength="622.985" font-size="262.467" lengthAdjust="spacingAndGlyphs"
text-anchor="middle" opacity="0">C11</text>
<path d="M44865 41326
L44856 41335
L44828 41344
L44809 41344
L44781 41335
L44762 41316
L44753 41298
L44743 41260
L44743 41232
L44753 41194
L44762 41176
L44781 41157
L44809 41148
L44828 41148
L44856 41157
L44865 41166
" />
<path d="M45053 41344
L44940 41344
" />
<path d="M44996 41344
L44996 41148
L44978 41176
L44959 41194
L44940 41204
" />
<path d="M45240 41344
L45128 41344
" />
<path d="M45184 41344
L45184 41148
L45165 41176
L45146 41194
L45128 41204
" />
<g transform="rotate(-90 45811 41937)">
<text x="45811" y="42035.4"
textLength="622.985" font-size="262.467" lengthAdjust="spacingAndGlyphs"
text-anchor="middle" opacity="0">C10</text>
</g>
<path d="M45881 42063
L45890 42072
L45900 42101
L45900 42119
L45890 42147
L45871 42166
L45853 42176
L45815 42185
L45787 42185
L45750 42176
L45731 42166
L45712 42147
L45703 42119
L45703 42101
L45712 42072
L45721 42063
" />
<path d="M45900 41876
L45900 41988
" />
<path d="M45900 41932
L45703 41932
L45731 41951
L45750 41969
L45759 41988
" />
<path d="M45703 41754
L45703 41735
L45712 41716
L45721 41707
L45740 41697
L45778 41688
L45825 41688
L45862 41697
L45881 41707
L45890 41716
L45900 41735
L45900 41754
L45890 41772
L45881 41782
L45862 41791
L45825 41801
L45778 41801
L45740 41791
L45721 41782
L45712 41772
L45703 41754
" />
<g transform="rotate(60 49874 40023.6)">
<text x="49874" y="40122"
textLength="622.985" font-size="262.467" lengthAdjust="spacingAndGlyphs"
text-anchor="middle" opacity="0">C17</text>
</g>
<path d="M49749 39949
L49737 39945
L49714 39926
L49705 39909
L49699 39880
L49706 39855
L49717 39837
L49745 39810
L49770 39796
L49807 39786
L49828 39784
L49853 39791
L49875 39811
L49885 39827
L49891 39856
L49887 39869
" />
<path d="M49827 40120
L49771 40023
" />
<path d="M49799 40072
L49969 39973
L49935 39971
L49910 39964
L49892 39953
" />
<path d="M50030 40079
L50096 40192
L49883 40218
" />
<g transform="rotate(-30 65318.9 39480.3)">
<text x="65318.9" y="39578.7"
textLength="622.985" font-size="262.467" lengthAdjust="spacingAndGlyphs"
text-anchor="middle" opacity="0">C19</text>
</g>
<path d="M65244 39604
L65241 39617
L65221 39639
L65205 39648
L65176 39654
L65150 39647
L65132 39636
L65106 39608
L65092 39584
L65081 39547
L65080 39526
L65087 39500
L65106 39478
L65122 39468
L65151 39463
L65164 39466
" />
<path d="M65416 39526
L65318 39583
" />
<path d="M65367 39555
L65269 39384
L65266 39418
L65260 39443
L65248 39461
" />
<path d="M65497 39480
L65529 39461
L65541 39443
L65544 39431
L65546 39397
L65536 39360
L65498 39295
L65481 39283
L65468 39280
L65447 39281
L65415 39300
L65403 39317
L65400 39330
L65401 39351
L65424 39392
L65442 39403
L65455 39407
L65476 39405
L65508 39387
L65520 39369
L65523 39356
L65522 39335
" />
<text x="44212.6" y="41358.3"
textLength="622.985" font-size="262.467" lengthAdjust="spacingAndGlyphs"
text-anchor="middle" opacity="0">C22</text>
<path d="M44086 41330
L44076 41339
L44048 41348
L44029 41348
L44001 41339
L43982 41320
L43973 41302
L43964 41264
L43964 41236
L43973 41198
L43982 41180
L44001 41161
L44029 41152
L44048 41152
L44076 41161
L44086 41170
" />
<path d="M44161 41170
L44170 41161
L44189 41152
L44236 41152
L44254 41161
L44264 41170
L44273 41189
L44273 41208
L44264 41236
L44151 41348
L44273 41348
" />
<path d="M44348 41170
L44357 41161
L44376 41152
L44423 41152
L44442 41161
L44451 41170
L44461 41189
L44461 41208
L44451 41236
L44339 41348
L44461 41348
" />
<g transform="rotate(-30 71023.6 42598.4)">
<text x="71023.6" y="42696.9"
textLength="622.985" font-size="262.467" lengthAdjust="spacingAndGlyphs"
text-anchor="middle" opacity="0">C24</text>
</g>
<path d="M70949 42722
L70945 42735
L70926 42757
L70909 42766
L70880 42772
L70855 42766
L70837 42754
L70810 42726
L70796 42702
L70786 42665
L70784 42644
L70791 42618
L70811 42596
L70827 42587
L70856 42581
L70869 42584
" />
<path d="M70934 42547
L70937 42534
L70949 42516
L70990 42493
L71010 42492
L71023 42495
L71041 42507
L71050 42523
L71056 42552
L71015 42706
L71120 42645
" />
<path d="M71201 42447
L71267 42560
" />
<path d="M71123 42405
L71153 42550
L71258 42489
" />
<text x="44405.5" y="42901.6"
textLength="444.882" font-size="262.467" lengthAdjust="spacingAndGlyphs"
text-anchor="middle" opacity="0">U2</text>
<path d="M44255 42695
L44255 42854
L44264 42873
L44274 42882
L44293 42892
L44330 42892
L44349 42882
L44358 42873
L44368 42854
L44368 42695
" />
<path d="M44452 42714
L44461 42704
L44480 42695
L44527 42695
L44546 42704
L44555 42714
L44564 42732
L44564 42751
L44555 42779
L44443 42892
L44564 42892
" />
<g transform="rotate(-30 63956.7 38035.4)">
<text x="63956.7" y="38133.9"
textLength="435.508" font-size="262.467" lengthAdjust="spacingAndGlyphs"
text-anchor="middle" opacity="0">D1</text>
</g>
<path d="M63875 38185
L63776 38014
L63817 37991
L63846 37985
L63872 37992
L63889 38003
L63916 38031
L63930 38055
L63941 38093
L63942 38113
L63935 38139
L63915 38161
L63875 38185
" />
<path d="M64135 38035
L64037 38091
" />
<path d="M64086 38063
L63988 37892
L63985 37926
L63978 37952
L63967 37969
" />
<text x="53905.5" y="44602.4"
textLength="444.882" font-size="262.467" lengthAdjust="spacingAndGlyphs"
text-anchor="middle" opacity="0">U5</text>
<path d="M53755 44396
L53755 44555
L53764 44574
L53774 44583
L53793 44592
L53830 44592
L53849 44583
L53858 44574
L53868 44555
L53868 44396
" />
<path d="M54055 44396
L53961 44396
L53952 44489
L53961 44480
L53980 44471
L54027 44471
L54046 44480
L54055 44489
L54064 44508
L54064 44555
L54055 44574
L54046 44583
L54027 44592
L53980 44592
L53961 44583
L53952 44574
" />
<g transform="rotate(30 53145.7 38921.3)">
<text x="53145.7" y="39019.7"
textLength="444.882" font-size="262.467" lengthAdjust="spacingAndGlyphs"
text-anchor="middle" opacity="0">U4</text>
</g>
<path d="M53069 38752
L52990 38890
L52988 38911
L52992 38924
L53003 38942
L53036 38960
L53057 38962
L53069 38958
L53087 38947
L53167 38809
" />
<path d="M53288 38955
L53222 39068
" />
<path d="M53285 38866
L53174 38964
L53280 39025
" />
<g transform="rotate(60 54283.5 40315)">
<text x="54283.5" y="40413.4"
textLength="622.985" font-size="262.467" lengthAdjust="spacingAndGlyphs"
text-anchor="middle" opacity="0">C16</text>
</g>
<path d="M54159 40240
L54146 40237
L54124 40217
L54114 40201
L54109 40172
L54115 40146
L54127 40129
L54155 40102
L54179 40088
L54216 40077
L54237 40076
L54263 40083
L54285 40102
L54294 40118
L54300 40148
L54297 40160
" />
<path d="M54236 40412
L54180 40314
" />
<path d="M54208 40363
L54379 40265
L54345 40262
L54319 40256
L54302 40244
" />
<path d="M54491 40459
L54472 40427
L54455 40415
L54442 40412
L54408 40410
L54371 40420
L54306 40458
L54295 40475
L54291 40488
L54293 40509
L54311 40542
L54329 40553
L54342 40557
L54363 40555
L54403 40532
L54415 40514
L54418 40502
L54417 40481
L54398 40448
L54381 40437
L54368 40433
L54347 40435
" />
<text x="45503.9" y="40275.6"
textLength="435.508" font-size="262.467" lengthAdjust="spacingAndGlyphs"
text-anchor="middle" opacity="0">C4</text>
<path d="M45471 40247
L45461 40256
L45433 40266
L45414 40266
L45386 40256
L45368 40238
L45358 40219
L45349 40181
L45349 40153
L45358 40116
L45368 40097
L45386 40078
L45414 40069
L45433 40069
L45461 40078
L45471 40088
" />
<path d="M45639 40134
L45639 40266
" />
<path d="M45592 40059
L45546 40200
L45667 40200
" />
<text x="43256.9" y="42551.2"
textLength="622.985" font-size="262.467" lengthAdjust="spacingAndGlyphs"
text-anchor="middle" opacity="0">C12</text>
<path d="M43130 42523
L43120 42532
L43092 42541
L43074 42541
L43045 42532
L43027 42513
L43017 42494
L43008 42457
L43008 42429
L43017 42391
L43027 42373
L43045 42354
L43074 42344
L43092 42344
L43120 42354
L43130 42363
" />
<path d="M43317 42541
L43205 42541
" />
<path d="M43261 42541
L43261 42344
L43242 42373
L43224 42391
L43205 42401
" />
<path d="M43392 42363
L43402 42354
L43420 42344
L43467 42344
L43486 42354
L43495 42363
L43505 42382
L43505 42401
L43495 42429
L43383 42541
L43505 42541
" />
<g transform="rotate(60 60138.8 41715)">
<text x="60138.8" y="41813.5"
textLength="622.985" font-size="262.467" lengthAdjust="spacingAndGlyphs"
text-anchor="middle" opacity="0">C14</text>
</g>
<path d="M60014 41640
L60001 41637
L59979 41617
L59970 41601
L59964 41572
L59971 41546
L59982 41529
L60010 41502
L60034 41488
L60072 41477
L60092 41476
L60118 41483
L60140 41502
L60150 41519
L60156 41548
L60152 41560
" />
<path d="M60092 41812
L60035 41714
" />
<path d="M60064 41763
L60234 41665
L60200 41663
L60175 41656
L60157 41644
" />
<path d="M60290 41892
L60176 41958
" />
<path d="M60331 41814
L60186 41844
L60247 41950
" />
<g transform="rotate(60 62185 40948.8)">
<text x="62185" y="41047.2"
textLength="622.985" font-size="262.467" lengthAdjust="spacingAndGlyphs"
text-anchor="middle" opacity="0">C15</text>
</g>
<path d="M62060 40874
L62048 40870
L62025 40851
L62016 40835
L62010 40806
L62017 40780
L62028 40762
L62056 40736
L62081 40721
L62118 40711
L62139 40710
L62164 40716
L62187 40736
L62196 40752
L62202 40781
L62198 40794
" />
<path d="M62138 41046
L62082 40948
" />
<path d="M62110 40997
L62280 40898
L62247 40896
L62221 40889
L62203 40878
" />
<path d="M62397 41101
L62351 41020
L62265 41059
L62277 41062
L62295 41074
L62318 41115
L62320 41135
L62316 41148
L62305 41166
L62264 41189
L62243 41190
L62230 41187
L62213 41175
L62189 41135
L62188 41114
L62192 41101
" />
<g transform="rotate(-30 49161.4 39267.7)">
<text x="49161.4" y="39366.1"
textLength="622.985" font-size="262.467" lengthAdjust="spacingAndGlyphs"
text-anchor="middle" opacity="0">C18</text>
</g>
<path d="M49086 39391
L49083 39404
L49063 39426
L49047 39436
L49018 39442
L48992 39435
L48975 39423
L48948 39395
L48934 39371
L48923 39334
L48922 39313
L48929 39287
L48949 39265
L48965 39256
L48994 39250
L49007 39253
" />
<path d="M49258 39314
L49161 39370
" />
<path d="M49210 39342
L49111 39172
L49109 39205
L49102 39231
L49090 39248
" />
<path d="M49299 39160
L49278 39161
L49266 39158
L49248 39146
L49243 39138
L49242 39117
L49246 39105
L49257 39087
L49290 39068
L49311 39067
L49323 39071
L49341 39082
L49346 39090
L49347 39111
L49343 39124
L49332 39141
L49299 39160
L49288 39178
L49284 39191
L49286 39211
L49304 39244
L49322 39255
L49335 39259
L49356 39258
L49388 39239
L49400 39221
L49403 39209
L49402 39188
L49383 39155
L49366 39144
L49353 39140
L49332 39141
" />
<g transform="rotate(-90 51350.4 43566.9)">
<text x="51350.4" y="43665.4"
textLength="622.985" font-size="262.467" lengthAdjust="spacingAndGlyphs"
text-anchor="middle" opacity="0">C20</text>
</g>
<path d="M51420 43693
L51430 43702
L51439 43730
L51439 43749
L51430 43777
L51411 43796
L51392 43805
L51355 43815
L51326 43815
L51289 43805
L51270 43796
L51251 43777
L51242 43749
L51242 43730
L51251 43702
L51261 43693
" />
<path d="M51261 43618
L51251 43609
L51242 43590
L51242 43543
L51251 43524
L51261 43515
L51280 43505
L51298 43505
L51326 43515
L51439 43627
L51439 43505
" />
<path d="M51242 43384
L51242 43365
L51251 43346
L51261 43337
L51280 43327
L51317 43318
L51364 43318
L51401 43327
L51420 43337
L51430 43346
L51439 43365
L51439 43384
L51430 43402
L51420 43412
L51401 43421
L51364 43431
L51317 43431
L51280 43421
L51261 43412
L51251 43402
L51242 43384
" />
<g transform="rotate(60 48938.9 38684.5)">
<text x="48938.9" y="38783"
textLength="398.013" font-size="262.467" lengthAdjust="spacingAndGlyphs"
text-anchor="middle" opacity="0">L4</text>
</g>
<path d="M48845 38700
L48798 38619
L48968 38521
" />
<path d="M49033 38764
L48920 38830
" />
<path d="M49075 38686
L48930 38716
L48991 38822
" />
<text x="49980.3" y="39279.5"
textLength="435.508" font-size="262.467" lengthAdjust="spacingAndGlyphs"
text-anchor="middle" opacity="0">R5</text>
<path d="M49947 39270
L49881 39176
" />
<path d="M49835 39270
L49835 39073
L49910 39073
L49928 39082
L49938 39092
L49947 39110
L49947 39138
L49938 39157
L49928 39167
L49910 39176
L49835 39176
" />
<path d="M50125 39073
L50031 39073
L50022 39167
L50031 39157
L50050 39148
L50097 39148
L50116 39157
L50125 39167
L50134 39185
L50134 39232
L50125 39251
L50116 39260
L50097 39270
L50050 39270
L50031 39260
L50022 39251
" />
<text x="50522.5" y="39491.6"
textLength="435.508" font-size="262.467" lengthAdjust="spacingAndGlyphs"
text-anchor="middle" opacity="0">R4</text>
<path d="M50489 39482
L50424 39388
" />
<path d="M50377 39482
L50377 39285
L50452 39285
L50470 39294
L50480 39304
L50489 39322
L50489 39351
L50480 39369
L50470 39379
L50452 39388
L50377 39388
" />
<path d="M50658 39351
L50658 39482
" />
<path d="M50611 39276
L50564 39416
L50686 39416
" />
<g transform="rotate(-90 44413.4 40149.6)">
<text x="44413.4" y="40248"
textLength="435.508" font-size="262.467" lengthAdjust="spacingAndGlyphs"
text-anchor="middle" opacity="0">R7</text>
</g>
<path d="M44502 40182
L44408 40248
" />
<path d="M44502 40294
L44305 40294
L44305 40219
L44314 40201
L44324 40191
L44343 40182
L44371 40182
L44389 40191
L44399 40201
L44408 40219
L44408 40294
" />
<path d="M44305 40116
L44305 39985
L44502 40069
" />
<text x="45098.4" y="40401.6"
textLength="435.508" font-size="262.467" lengthAdjust="spacingAndGlyphs"
text-anchor="middle" opacity="0">R8</text>
<path d="M45065 40392
L45000 40298
" />
<path d="M44953 40392
L44953 40195
L45028 40195
L45046 40204
L45056 40214
L45065 40232
L45065 40260
L45056 40279
L45046 40289
L45028 40298
L44953 40298
" />
<path d="M45178 40279
L45159 40270
L45149 40260
L45140 40242
L45140 40232
L45149 40214
L45159 40204
L45178 40195
L45215 40195
L45234 40204
L45243 40214
L45253 40232
L45253 40242
L45243 40260
L45234 40270
L45215 40279
L45178 40279
L45159 40289
L45149 40298
L45140 40317
L45140 40354
L45149 40373
L45159 40382
L45178 40392
L45215 40392
L45234 40382
L45243 40373
L45253 40354
L45253 40317
L45243 40298
L45234 40289
L45215 40279
" />
<g transform="rotate(-30 53047.2 44208.7)">
<text x="53047.2" y="44307.1"
textLength="435.508" font-size="262.467" lengthAdjust="spacingAndGlyphs"
text-anchor="middle" opacity="0">R1</text>
</g>
<path d="M53063 44302
L52959 44253
" />
<path d="M52965 44358
L52867 44187
L52932 44150
L52953 44149
L52966 44152
L52983 44164
L52997 44188
L52998 44209
L52995 44222
L52984 44239
L52919 44277
" />
<path d="M53225 44208
L53128 44264
" />
<path d="M53177 44236
L53078 44066
L53076 44099
L53069 44125
L53057 44142
" />
<g transform="rotate(-90 52409.5 45878)">
<text x="52409.5" y="45976.4"
textLength="435.508" font-size="262.467" lengthAdjust="spacingAndGlyphs"
text-anchor="middle" opacity="0">R2</text>
</g>
<path d="M52498 45910
L52404 45976
" />
<path d="M52498 46023
L52301 46023
L52301 45948
L52311 45929
L52320 45920
L52339 45910
L52367 45910
L52386 45920
L52395 45929
L52404 45948
L52404 46023
" />
<path d="M52320 45835
L52311 45826
L52301 45807
L52301 45760
L52311 45742
L52320 45732
L52339 45723
L52357 45723
L52386 45732
L52498 45845
L52498 45723
" />
<text x="43535.4" y="40866.1"
textLength="435.508" font-size="262.467" lengthAdjust="spacingAndGlyphs"
text-anchor="middle" opacity="0">R9</text>
<path d="M43502 40856
L43437 40763
" />
<path d="M43390 40856
L43390 40659
L43465 40659
L43483 40669
L43493 40678
L43502 40697
L43502 40725
L43493 40744
L43483 40753
L43465 40763
L43390 40763
" />
<path d="M43596 40856
L43633 40856
L43652 40847
L43661 40838
L43680 40809
L43690 40772
L43690 40697
L43680 40678
L43671 40669
L43652 40659
L43615 40659
L43596 40669
L43586 40678
L43577 40697
L43577 40744
L43586 40763
L43596 40772
L43615 40781
L43652 40781
L43671 40772
L43680 40763
L43690 40744
" />
<text x="43437" y="40492.1"
textLength="622.985" font-size="262.467" lengthAdjust="spacingAndGlyphs"
text-anchor="middle" opacity="0">R10</text>
<path d="M43310 40482
L43244 40389
" />
<path d="M43197 40482
L43197 40285
L43272 40285
L43291 40295
L43301 40304
L43310 40323
L43310 40351
L43301 40370
L43291 40379
L43272 40389
L43197 40389
" />
<path d="M43497 40482
L43385 40482
" />
<path d="M43441 40482
L43441 40285
L43422 40314
L43404 40332
L43385 40342
" />
<path d="M43619 40285
L43638 40285
L43657 40295
L43666 40304
L43676 40323
L43685 40360
L43685 40407
L43676 40445
L43666 40464
L43657 40473
L43638 40482
L43619 40482
L43601 40473
L43591 40464
L43582 40445
L43572 40407
L43572 40360
L43582 40323
L43591 40304
L43601 40295
L43619 40285
" />
<g transform="rotate(30 73409.4 39489.7)">
<text x="73409.4" y="39588.1"
textLength="435.508" font-size="262.467" lengthAdjust="spacingAndGlyphs"
text-anchor="middle" opacity="0">P5</text>
</g>
<path d="M73239 39494
L73337 39323
L73402 39361
L73413 39378
L73417 39391
L73416 39412
L73402 39436
L73384 39448
L73371 39451
L73350 39450
L73285 39412
" />
<path d="M73589 39468
L73507 39422
L73452 39498
L73465 39495
L73486 39496
L73527 39519
L73538 39537
L73542 39550
L73541 39571
L73517 39611
L73500 39623
L73487 39626
L73466 39625
L73425 39601
L73414 39584
L73410 39571
" />
<text x="69421.3" y="37456.7"
textLength="435.508" font-size="262.467" lengthAdjust="spacingAndGlyphs"
text-anchor="middle" opacity="0">P6</text>
<path d="M69275 37447
L69275 37250
L69350 37250
L69369 37259
L69379 37269
L69388 37287
L69388 37316
L69379 37334
L69369 37344
L69350 37353
L69275 37353
" />
<path d="M69557 37250
L69519 37250
L69500 37259
L69491 37269
L69472 37297
L69463 37334
L69463 37409
L69472 37428
L69482 37437
L69500 37447
L69538 37447
L69557 37437
L69566 37428
L69575 37409
L69575 37362
L69566 37344
L69557 37334
L69538 37325
L69500 37325
L69482 37334
L69472 37344
L69463 37362
" />
<g >
</g>
</g> 
</svg>
