<?xml version="1.0" standalone="no"?>
 <!DOCTYPE svg PUBLIC "-//W3C//DTD SVG 1.1//EN" 
 "http://www.w3.org/Graphics/SVG/1.1/DTD/svg11.dtd"> 
<svg
  xmlns:svg="http://www.w3.org/2000/svg"
  xmlns="http://www.w3.org/2000/svg"
  xmlns:xlink="http://www.w3.org/1999/xlink"
  version="1.1"
  width="29.700220cm" height="21.000720cm" viewBox="0 0 116930 82680">
<title>SVG Picture created as Main-Edge_Cuts.svg date 2021/06/28 15:08:02 </title>
  <desc>Picture generated by PCBNEW </desc>
<g style="fill:#000000; fill-opacity:1;stroke:#000000; stroke-opacity:1;
stroke-linecap:round; stroke-linejoin:round;"
 transform="translate(0 0) scale(1 1)">
</g>
<g style="fill:#000000; fill-opacity:0.0; 
stroke:#000000; stroke-width:-0.000393701; stroke-opacity:1; 
stroke-linecap:round; stroke-linejoin:round;">
</g>
<g style="fill:#000000; fill-opacity:0.0; 
stroke:#000000; stroke-width:98.4252; stroke-opacity:1; 
stroke-linecap:round; stroke-linejoin:round;">
<path d="M48389 38752
L48389 38541
" />
<path d="M48137 38897
L48389 38752
" />
<path d="M48137 39038
L48137 38897
" />
<path d="M48340 39155
L48137 39038
" />
<path d="M48080 39606
L48340 39155
" />
<path d="M51968 45343
L51968 46174
" />
<path d="M51657 45198
L51968 45343
" />
<path d="M51657 45069
L51657 45198
" />
<path d="M51921 44917
L51657 45069
" />
<path d="M51692 44520
L51921 44917
" />
<path d="M51450 44660
L51692 44520
" />
<path d="M51322 44587
L51450 44660
" />
<path d="M51322 44261
L51322 44587
" />
<path d="M51183 44181
L51322 44261
" />
<path d="M69826 43289
L69826 44096
" />
<path d="M69547 43128
L69826 43289
" />
<path d="M69547 42993
L69547 43128
" />
<path d="M69822 42834
L69547 42993
" />
<path d="M69822 42657
L69822 42834
" />
<path d="M62519 39589
L62736 39214
" />
<path d="M58814 41084
L59158 41283
" />
<path d="M64566 41239
L64566 41386
" />
<path d="M64866 41066
L64566 41239
" />
<path d="M64866 40913
L64866 41066
" />
<path d="M64306 40590
L64866 40913
" />
<path d="M65192 40479
L65073 40548
" />
<path d="M65192 39964
L65192 40479
" />
<path d="M65753 40529
L65633 40446
" />
<path d="M66074 40344
L65753 40529
" />
<path d="M66785 40754
L66074 40344
" />
<path d="M68106 39185
L68106 39353
" />
<path d="M68397 39017
L68106 39185
" />
<path d="M68397 38849
L68397 39017
" />
<path d="M68025 38634
L68397 38849
" />
<path d="M68740 38425
L68642 38481
" />
<path d="M69173 38407
L69173 37952
" />
<path d="M69313 38488
L69173 38407
" />
<path d="M69519 38991
L69519 38862
" />
<path d="M69826 39169
L69519 38991
" />
<path d="M69826 39358
L69826 39169
" />
<path d="M71906 40383
L71754 40471
" />
<path d="M72192 40548
L71906 40383
" />
<path d="M72326 40486
L72192 40548
" />
<path d="M72878 40558
L72751 40470
" />
<path d="M73094 41073
L73094 40946
" />
<path d="M73797 41479
L73094 41073
" />
<path d="M72872 41453
L73576 41860
" />
<path d="M72755 41521
L72872 41453
" />
<path d="M72755 41885
L72755 41521
" />
<path d="M72318 41524
L72318 41885
" />
<path d="M72186 41463
L72318 41524
" />
<path d="M71901 41627
L72186 41463
" />
<path d="M71753 41542
L71901 41627
" />
<path d="M73174 37504
L73327 37415
" />
<path d="M72873 37330
L73174 37504
" />
<path d="M72755 37398
L72873 37330
" />
<path d="M72198 37323
L72326 37397
" />
<path d="M71810 37547
L72198 37323
" />
<path d="M71976 36956
L71596 37176
" />
<path d="M71976 36817
L71976 36956
" />
<path d="M71669 36640
L71976 36817
" />
<path d="M71669 35819
L71669 36640
" />
<path d="M69593 35443
L69757 35349
" />
<path d="M69305 35276
L69593 35443
" />
<path d="M69173 35338
L69305 35276
" />
<path d="M69173 35866
L69173 35338
" />
<path d="M68748 35334
L68748 35866
" />
<path d="M68609 35269
L68748 35334
" />
<path d="M68311 35441
L68609 35269
" />
<path d="M68062 35297
L68311 35441
" />
<path d="M66263 36625
L66263 36336
" />
<path d="M65948 36807
L66263 36625
" />
<path d="M65948 36940
L65948 36807
" />
<path d="M66361 37178
L65948 36940
" />
<path d="M65739 37310
L66149 37547
" />
<path d="M65614 37383
L65739 37310
" />
<path d="M65614 37830
L65614 37383
" />
<path d="M65181 37397
L65181 37830
" />
<path d="M65059 37327
L65181 37397
" />
<path d="M64744 37509
L65059 37327
" />
<path d="M64045 37106
L64744 37509
" />
<path d="M62673 38722
L62673 38533
" />
<path d="M62393 38884
L62673 38722
" />
<path d="M62393 39016
L62393 38884
" />
<path d="M62736 39214
L62393 39016
" />
<path d="M62185 39396
L62519 39589
" />
<path d="M62055 39456
L62185 39396
" />
<path d="M62055 39807
L62055 39456
" />
<path d="M61618 39463
L61618 39807
" />
<path d="M61485 39402
L61618 39463
" />
<path d="M61196 39568
L61485 39402
" />
<path d="M60931 39415
L61196 39568
" />
<path d="M59114 40464
L59114 40768
" />
<path d="M58814 40940
L59114 40768
" />
<path d="M58814 41084
L58814 40940
" />
<path d="M58587 41462
L58937 41665
" />
<path d="M58476 41526
L58587 41462
" />
<path d="M58476 42059
L58476 41526
" />
<path d="M58047 41550
L58047 42059
" />
<path d="M57913 41473
L58047 41550
" />
<path d="M57622 41641
L57913 41473
" />
<path d="M56896 41222
L57622 41641
" />
<path d="M55250 46524
L56019 46968
" />
<path d="M54999 46669
L55250 46524
" />
<path d="M54881 46601
L54999 46669
" />
<path d="M54881 46248
L54881 46601
" />
<path d="M54460 46580
L54460 46248
" />
<path d="M54324 46658
L54460 46580
" />
<path d="M54106 46533
L54324 46658
" />
<path d="M53898 46653
L54106 46533
" />
<path d="M55539 42819
L55525 42656
" />
<path d="M55236 42994
L55539 42819
" />
<path d="M55236 43138
L55236 42994
" />
<path d="M55797 43462
L55236 43138
" />
<path d="M55579 43840
L55797 43462
" />
<path d="M55029 43523
L55579 43840
" />
<path d="M54901 43582
L55029 43523
" />
<path d="M54901 44374
L54901 43582
" />
<path d="M54464 44374
L54901 44374
" />
<path d="M54464 43586
L54464 44374
" />
<path d="M54335 43512
L54464 43586
" />
<path d="M53708 43874
L54335 43512
" />
<path d="M53493 43503
L53708 43874
" />
<path d="M54114 43145
L53493 43503
" />
<path d="M54114 42998
L54114 43145
" />
<path d="M53819 42828
L54114 42998
" />
<path d="M54041 42444
L53819 42828
" />
<path d="M54334 42614
L54041 42444
" />
<path d="M54460 42541
L54334 42614
" />
<path d="M54460 42206
L54460 42541
" />
<path d="M55157 41803
L54460 42206
" />
<path d="M51673 41062
L51882 41183
" />
<path d="M50547 40943
L50396 40856
" />
<path d="M51318 41690
L50625 42090
" />
<path d="M51318 41522
L51318 41690
" />
<path d="M51458 41441
L51318 41522
" />
<path d="M51664 41560
L51458 41441
" />
<path d="M51673 40891
L51673 41062
" />
<path d="M51683 40442
L51875 40774
" />
<path d="M51334 40500
L51458 40572
" />
<path d="M51334 40248
L51334 40500
" />
<path d="M50897 40496
L50897 40248
" />
<path d="M50778 40565
L50897 40496
" />
<path d="M50618 40472
L50778 40565
" />
<path d="M50396 40856
L50618 40472
" />
<path d="M50547 41080
L50547 40943
" />
<path d="M50389 41171
L50547 41080
" />
<path d="M50389 41342
L50389 41171
" />
<path d="M54393 39763
L54603 39885
" />
<path d="M54393 39501
L54393 39763
" />
<path d="M54266 39428
L54393 39501
" />
<path d="M54080 39535
L54266 39428
" />
<path d="M53861 39156
L54080 39535
" />
<path d="M54051 39047
L53861 39156
" />
<path d="M54051 38905
L54051 39047
" />
<path d="M53822 38773
L54051 38905
" />
<path d="M53822 38519
L53822 38773
" />
<path d="M51670 37538
L51897 37407
" />
<path d="M51462 37418
L51670 37538
" />
<path d="M51334 37478
L51462 37418
" />
<path d="M51334 37692
L51334 37478
" />
<path d="M50893 37692
L51334 37692
" />
<path d="M50893 37486
L50893 37692
" />
<path d="M50770 37415
L50893 37486
" />
<path d="M50540 37548
L50770 37415
" />
<path d="M49773 37104
L50540 37548
" />
<path d="M72318 41885
L72755 41885
" />
<path d="M65181 37830
L65614 37830
" />
<path d="M60428 42517
L60449 42529
" />
<path d="M60645 42141
L60428 42517
" />
<path d="M60673 42154
L60645 42141
" />
<path d="M57061 44217
L57103 44237
" />
<path d="M56835 44609
L57061 44217
" />
<path d="M56875 44632
L56835 44609
" />
<path d="M51882 41183
L51664 41560
" />
<path d="M51875 40774
L51673 40891
" />
<path d="M51458 40572
L51683 40442
" />
<path d="M50897 40248
L51334 40248
" />
<path d="M43698 44069
L43796 44069
" />
<path d="M43184 43935
L43399 44191
" />
<path d="M43437 43758
L43184 43935
" />
<path d="M43437 43758
L43698 44069
" />
<path d="M42156 42244
L42381 42511
" />
<path d="M39445 43366
L35218 46325
" />
<path d="M41160 43366
L39445 43366
" />
<path d="M42381 42511
L41160 43366
" />
<path d="M73464 43406
L73464 44653
" />
<path d="M72945 43106
L73464 43406
" />
<path d="M71241 44267
L70715 43963
" />
<path d="M71241 43605
L71241 44267
" />
<path d="M72106 43106
L71241 43605
" />
<path d="M72106 43106
L72945 43106
" />
<path d="M50625 42090
L50625 43641
" />
<path d="M50389 41342
L49219 42018
" />
<path d="M49876 41807
L49292 42145
" />
<path d="M49292 42145
L49219 42018
" />
<path d="M51024 43641
L51024 42964
" />
<path d="M51183 44181
L51183 42964
" />
<path d="M51024 42964
L51183 42964
" />
<path d="M53898 46653
L52853 46050
" />
<path d="M52773 46188
L52853 46050
" />
<path d="M53361 46527
L52773 46188
" />
<path d="M71217 44447
L70631 44109
" />
<path d="M70631 44109
L70715 43963
" />
<path d="M57235 45620
L56345 46134
" />
<path d="M56426 46274
L56345 46134
" />
<path d="M57010 45937
L56426 46274
" />
<path d="M60008 44188
L59925 44043
" />
<path d="M60593 43850
L60008 44188
" />
<path d="M60814 43530
L59925 44043
" />
<path d="M63571 42145
L63492 42007
" />
<path d="M64566 41386
L63492 42007
" />
<path d="M64157 41806
L63571 42145
" />
<path d="M67729 39755
L67142 40093
" />
<path d="M67142 40093
L67063 39955
" />
<path d="M68106 39353
L67063 39955
" />
<path d="M74916 43654
L74194 44070
" />
<path d="M74862 43873
L74276 44211
" />
<path d="M74276 44211
L74194 44070
" />
<path d="M54763 40413
L54763 41089
" />
<path d="M54603 39885
L54603 41089
" />
<path d="M54763 41089
L54603 41089
" />
<path d="M76015 40255
L76015 41085
" />
<path d="M76180 41085
L76015 41085
" />
<path d="M76180 40408
L76180 41085
" />
<path d="M73327 37415
L74360 38011
" />
<path d="M74439 37873
L74360 38011
" />
<path d="M73853 37535
L74439 37873
" />
<path d="M70868 35806
L70789 35944
" />
<path d="M70281 35467
L70868 35806
" />
<path d="M69757 35349
L70789 35944
" />
<path d="M63039 38137
L63625 37799
" />
<path d="M63625 37799
L63704 37937
" />
<path d="M62673 38533
L63704 37937
" />
<path d="M55893 42260
L56479 41921
" />
<path d="M56479 41921
L56559 42059
" />
<path d="M55525 42656
L56559 42059
" />
<path d="M48756 38145
L49341 37807
" />
<path d="M49341 37807
L49421 37945
" />
<path d="M42156 42244
L41870 42244
" />
<path d="M41870 42244
L41597 42401
" />
<path d="M41597 42401
L39035 42401
" />
<path d="M41593 39606
L39031 39606
" />
<path d="M41866 39763
L41593 39606
" />
<path d="M42176 39763
L41866 39763
" />
<path d="M76194 42042
L75729 41774
" />
<path d="M74803 42596
L74803 43458
" />
<path d="M74803 43458
L74916 43654
" />
<path d="M75729 41774
L75052 42164
" />
<path d="M75052 42164
L74803 42596
" />
<path d="M76580 41819
L76194 42042
" />
<path d="M75791 40255
L76015 40255
" />
<path d="M75044 39824
L75791 40255
" />
<path d="M74795 39393
L75044 39824
" />
<path d="M74795 38611
L74795 39393
" />
<path d="M75259 38343
L74795 38611
" />
<path d="M75259 37897
L75259 38343
" />
<path d="M73464 44653
L73884 44895
" />
<path d="M59292 44760
L59552 44910
" />
<path d="M58569 43728
L59292 44760
" />
<path d="M56875 44632
L57235 45620
" />
<path d="M62871 42670
L63164 42839
" />
<path d="M62145 41633
L62871 42670
" />
<path d="M60449 42529
L60814 43530
" />
<path d="M61574 41633
L62145 41633
" />
<path d="M60673 42154
L61574 41633
" />
<path d="M57985 43728
L58569 43728
" />
<path d="M57103 44237
L57985 43728
" />
<path d="M48389 38541
L49421 37945
" />
<path d="M36907 48737
L35218 46325
" />
<path d="M43399 44191
L36907 48737
" />
<path d="M43444 37952
L42176 39763
" />
<path d="M43823 37952
L43444 37952
" />
<path d="M45740 39285
L43823 37952
" />
<path d="M45964 39606
L45740 39285
" />
<path d="M39031 40622
L39031 39606
" />
<path d="M45723 42720
L43796 44069
" />
<path d="M45944 42401
L45723 42720
" />
<path d="M40893 41370
L40984 41279
" />
<path d="M51897 37407
L53822 38519
" />
<path d="M59114 40464
L60931 39415
" />
<path d="M66263 36336
L68062 35297
" />
<path d="M64356 42150
L64157 41806
" />
<path d="M63164 42839
L64356 42150
" />
<path d="M60792 44195
L60593 43850
" />
<path d="M59552 44910
L60792 44195
" />
<path d="M48090 42401
L48861 42846
" />
<path d="M49773 37104
L48560 37805
" />
<path d="M55694 41916
L55893 42260
" />
<path d="M56896 41222
L55694 41916
" />
<path d="M64045 37106
L62844 37799
" />
<path d="M62844 37799
L63039 38137
" />
<path d="M71669 35819
L70476 35129
" />
<path d="M70476 35129
L70281 35467
" />
<path d="M75259 37897
L74048 37198
" />
<path d="M74048 37198
L73853 37535
" />
<path d="M76580 41819
L76580 40408
" />
<path d="M76580 40408
L76180 40408
" />
<path d="M75060 44216
L74862 43873
" />
<path d="M73884 44895
L75060 44216
" />
<path d="M71021 44786
L71217 44447
" />
<path d="M69826 44096
L71021 44786
" />
<path d="M66785 40754
L67926 40095
" />
<path d="M67926 40095
L67729 39755
" />
<path d="M57209 46281
L57010 45937
" />
<path d="M56019 46968
L57209 46281
" />
<path d="M51968 46174
L53166 46866
" />
<path d="M53166 46866
L53361 46527
" />
<path d="M50073 42147
L49876 41807
" />
<path d="M48861 42846
L50073 42147
" />
<path d="M48560 37805
L48756 38145
" />
<path d="M50625 43641
L51024 43641
" />
<path d="M70767 39901
L69826 39358
" />
<path d="M54881 46248
L54460 46248
" />
<path d="M64516 40227
L64306 40590
" />
<path d="M65073 40548
L64516 40227
" />
<path d="M65633 39964
L65192 39964
" />
<path d="M65633 40446
L65633 39964
" />
<path d="M58047 42059
L58476 42059
" />
<path d="M58937 41665
L59158 41283
" />
<path d="M61618 39807
L62055 39807
" />
<path d="M68246 38252
L68025 38634
" />
<path d="M68642 38481
L68246 38252
" />
<path d="M66149 37547
L66361 37178
" />
<path d="M68748 35866
L69173 35866
" />
<path d="M69173 37952
L68740 37952
" />
<path d="M68740 37952
L68740 38425
" />
<path d="M69843 38182
L69313 38488
" />
<path d="M70057 38552
L69843 38182
" />
<path d="M69519 38862
L70057 38552
" />
<path d="M72751 39685
L72326 39685
" />
<path d="M72751 40470
L72751 39685
" />
<path d="M72326 39685
L72326 40486
" />
<path d="M73710 40077
L72878 40558
" />
<path d="M73932 40462
L73710 40077
" />
<path d="M73094 40946
L73932 40462
" />
<path d="M72755 38208
L72755 37398
" />
<path d="M72326 38208
L72755 38208
" />
<path d="M72326 37397
L72326 38208
" />
<path d="M71596 37176
L71810 37547
" />
<path d="M73576 41860
L73797 41479
" />
<path d="M45964 39606
L48080 39606
" />
<path d="M40897 40622
L39031 40622
" />
<path d="M40984 40708
L40897 40622
" />
<path d="M40984 41279
L40984 40708
" />
<path d="M39035 41370
L40893 41370
" />
<path d="M39035 42401
L39035 41370
" />
<path d="M48090 42401
L45944 42401
" />
<path d="M71754 40471
L70767 39901
" />
<path d="M69822 42657
L71753 41542
" />
<path d="M55157 41803
L55157 40413
" />
<path d="M55157 40413
L54763 40413
" />
<g >
</g>
<g >
</g>
<g >
</g>
<g >
</g>
<g >
</g>
<g >
</g>
<g >
</g>
<g >
</g>
<g >
</g>
<g >
</g>
<g >
</g>
<g >
</g>
<g >
</g>
<g >
</g>
<g >
</g>
<g >
</g>
<g >
</g>
<g >
</g>
<g >
</g>
<g >
</g>
<g >
</g>
<g >
</g>
<g >
</g>
<g >
</g>
<g >
</g>
<g >
</g>
<g >
</g>
<g >
</g>
<g >
</g>
<g >
</g>
<g >
</g>
<g >
</g>
<g >
</g>
<g >
</g>
<g >
</g>
<g >
</g>
<g >
</g>
<g >
</g>
<g >
</g>
<g >
</g>
<g >
</g>
<g >
</g>
<g >
</g>
<g >
</g>
<g >
</g>
<g >
</g>
<g >
</g>
<g >
</g>
<g >
</g>
<g >
</g>
<g >
</g>
<g >
</g>
<g >
</g>
<g >
</g>
<g >
</g>
<g >
</g>
<g >
</g>
<g >
</g>
<g >
</g>
<g >
</g>
<g >
</g>
<g >
</g>
<g >
</g>
<g >
</g>
<g >
</g>
<g >
</g>
<g >
</g>
<g >
</g>
<g >
</g>
<g >
</g>
<g >
</g>
<g >
</g>
<g >
</g>
<g >
</g>
<g >
</g>
<g >
</g>
<g >
</g>
<g >
</g>
<g >
</g>
<g >
</g>
<g >
</g>
<g >
</g>
</g> 
</svg>
