<?xml version="1.0" standalone="no"?>
 <!DOCTYPE svg PUBLIC "-//W3C//DTD SVG 1.1//EN" 
 "http://www.w3.org/Graphics/SVG/1.1/DTD/svg11.dtd"> 
<svg
  xmlns:svg="http://www.w3.org/2000/svg"
  xmlns="http://www.w3.org/2000/svg"
  xmlns:xlink="http://www.w3.org/1999/xlink"
  version="1.1"
  width="29.700220cm" height="21.000720cm" viewBox="0 0 116930 82680">
<title>SVG Picture created as Main-B_SilkS.svg date 2021/06/28 15:08:02 </title>
  <desc>Picture generated by PCBNEW </desc>
<g style="fill:#000000; fill-opacity:1;stroke:#000000; stroke-opacity:1;
stroke-linecap:round; stroke-linejoin:round;"
 transform="translate(0 0) scale(1 1)">
</g>
<g style="fill:#000000; fill-opacity:0.0; 
stroke:#000000; stroke-width:-0.000393701; stroke-opacity:1; 
stroke-linecap:round; stroke-linejoin:round;">
</g>
<g style="fill:#000000; fill-opacity:0.0; 
stroke:#000000; stroke-width:19.685; stroke-opacity:1; 
stroke-linecap:round; stroke-linejoin:round;">
<circle cx="71346.5" cy="38944.9" r="984.252" /> 
</g>
<g style="fill:#000000; fill-opacity:0.0; 
stroke:#000000; stroke-width:39.3701; stroke-opacity:1; 
stroke-linecap:round; stroke-linejoin:round;">
<text x="40606.3" y="41984.3"
transform="scale(-1 1) translate(-81212.598425 0)"
textLength="389.389" font-size="262.467" lengthAdjust="spacingAndGlyphs"
text-anchor="middle" opacity="0">P+</text>
<path d="M40779 41974
L40779 41778
L40704 41778
L40685 41787
L40676 41796
L40667 41815
L40667 41843
L40676 41862
L40685 41871
L40704 41881
L40779 41881
" />
<path d="M40582 41899
L40432 41899
" />
<path d="M40507 41974
L40507 41824
" />
<text x="40582.7" y="40208.7"
transform="scale(-1 1) translate(-81165.354331 0)"
textLength="389.389" font-size="262.467" lengthAdjust="spacingAndGlyphs"
text-anchor="middle" opacity="0">P-</text>
<path d="M40756 40199
L40756 40002
L40681 40002
L40662 40011
L40652 40021
L40643 40039
L40643 40068
L40652 40086
L40662 40096
L40681 40105
L40756 40105
" />
<path d="M40559 40124
L40409 40124
" />
<path d="M43503 38287
L42519 39685
" />
<text x="70145.7" y="43177.2"
transform="scale(-1 1) translate(-140291.338583 0)"
textLength="136.295" font-size="262.467" lengthAdjust="spacingAndGlyphs"
text-anchor="middle" opacity="0">7</text>
<path d="M70211 42970
L70080 42970
L70164 43167
" />
<text x="74015.7" y="43850.4"
transform="scale(-1 1) translate(-148031.496063 0)"
textLength="323.772" font-size="262.467" lengthAdjust="spacingAndGlyphs"
text-anchor="middle" opacity="0">17</text>
<path d="M74053 43841
L74165 43841
" />
<path d="M74109 43841
L74109 43644
L74128 43672
L74146 43691
L74165 43700
" />
<path d="M73987 43644
L73856 43644
L73940 43841
" />
<text x="73858.3" y="41122"
transform="scale(-1 1) translate(-147716.535433 0)"
textLength="136.295" font-size="262.467" lengthAdjust="spacingAndGlyphs"
text-anchor="middle" opacity="0">3</text>
<path d="M73923 40915
L73802 40915
L73867 40990
L73839 40990
L73820 41000
L73811 41009
L73802 41028
L73802 41075
L73811 41093
L73820 41103
L73839 41112
L73895 41112
L73914 41103
L73923 41093
" />
<text x="74661.4" y="38503.9"
transform="scale(-1 1) translate(-149322.834646 0)"
textLength="323.772" font-size="262.467" lengthAdjust="spacingAndGlyphs"
text-anchor="middle" opacity="0">19</text>
<path d="M74698 38494
L74811 38494
" />
<path d="M74755 38494
L74755 38297
L74773 38325
L74792 38344
L74811 38353
" />
<path d="M74605 38494
L74567 38494
L74548 38485
L74539 38475
L74520 38447
L74511 38410
L74511 38335
L74520 38316
L74530 38307
L74548 38297
L74586 38297
L74605 38307
L74614 38316
L74623 38335
L74623 38382
L74614 38400
L74605 38410
L74586 38419
L74548 38419
L74530 38410
L74520 38400
L74511 38382
" />
<text x="71956.7" y="37925.2"
transform="scale(-1 1) translate(-143913.385827 0)"
textLength="136.295" font-size="262.467" lengthAdjust="spacingAndGlyphs"
text-anchor="middle" opacity="0">1</text>
<path d="M71900 37915
L72012 37915
" />
<path d="M71956 37915
L71956 37718
L71975 37747
L71994 37765
L72012 37775
" />
<text x="71250" y="36978.3"
transform="scale(-1 1) translate(-142500.000000 0)"
textLength="323.772" font-size="262.467" lengthAdjust="spacingAndGlyphs"
text-anchor="middle" opacity="0">13</text>
<path d="M71287 36968
L71399 36968
" />
<path d="M71343 36968
L71343 36772
L71362 36800
L71381 36818
L71399 36828
" />
<path d="M71221 36772
L71100 36772
L71165 36847
L71137 36847
L71118 36856
L71109 36865
L71100 36884
L71100 36931
L71109 36950
L71118 36959
L71137 36968
L71193 36968
L71212 36959
L71221 36950
" />
<text x="68208.7" y="37854.3"
transform="scale(-1 1) translate(-136417.322835 0)"
textLength="136.295" font-size="262.467" lengthAdjust="spacingAndGlyphs"
text-anchor="middle" opacity="0">5</text>
<path d="M68161 37648
L68255 37648
L68264 37741
L68255 37732
L68236 37723
L68189 37723
L68171 37732
L68161 37741
L68152 37760
L68152 37807
L68161 37826
L68171 37835
L68189 37844
L68236 37844
L68255 37835
L68264 37826
" />
<text x="65988.2" y="38039.4"
transform="scale(-1 1) translate(-131976.377953 0)"
textLength="323.772" font-size="262.467" lengthAdjust="spacingAndGlyphs"
text-anchor="middle" opacity="0">15</text>
<path d="M66025 38029
L66138 38029
" />
<path d="M66081 38029
L66081 37833
L66100 37861
L66119 37880
L66138 37889
" />
<path d="M65847 37833
L65941 37833
L65950 37926
L65941 37917
L65922 37908
L65875 37908
L65856 37917
L65847 37926
L65838 37945
L65838 37992
L65847 38011
L65856 38020
L65875 38029
L65922 38029
L65941 38020
L65950 38011
" />
<text x="64527.6" y="39724.4"
transform="scale(-1 1) translate(-129055.118110 0)"
textLength="323.772" font-size="262.467" lengthAdjust="spacingAndGlyphs"
text-anchor="middle" opacity="0">12</text>
<path d="M64565 39715
L64677 39715
" />
<path d="M64621 39715
L64621 39518
L64640 39546
L64658 39565
L64677 39574
" />
<path d="M64490 39536
L64480 39527
L64461 39518
L64415 39518
L64396 39527
L64386 39536
L64377 39555
L64377 39574
L64386 39602
L64499 39715
L64377 39715
" />
<text x="62649.6" y="40070.9"
transform="scale(-1 1) translate(-125299.212598 0)"
textLength="323.772" font-size="262.467" lengthAdjust="spacingAndGlyphs"
text-anchor="middle" opacity="0">10</text>
<path d="M62687 40061
L62799 40061
" />
<path d="M62743 40061
L62743 39864
L62762 39892
L62780 39911
L62799 39920
" />
<path d="M62565 39864
L62546 39864
L62527 39874
L62518 39883
L62508 39902
L62499 39939
L62499 39986
L62508 40023
L62518 40042
L62527 40052
L62546 40061
L62565 40061
L62583 40052
L62593 40042
L62602 40023
L62612 39986
L62612 39939
L62602 39902
L62593 39883
L62583 39874
L62565 39864
" />
<text x="61043.3" y="40098.4"
transform="scale(-1 1) translate(-122086.614173 0)"
textLength="136.295" font-size="262.467" lengthAdjust="spacingAndGlyphs"
text-anchor="middle" opacity="0">8</text>
<path d="M61062 39976
L61080 39967
L61090 39957
L61099 39939
L61099 39929
L61090 39910
L61080 39901
L61062 39892
L61024 39892
L61005 39901
L60996 39910
L60987 39929
L60987 39939
L60996 39957
L61005 39967
L61024 39976
L61062 39976
L61080 39985
L61090 39995
L61099 40014
L61099 40051
L61090 40070
L61080 40079
L61062 40089
L61024 40089
L61005 40079
L60996 40070
L60987 40051
L60987 40014
L60996 39995
L61005 39985
L61024 39976
" />
<text x="58901.6" y="42145.7"
transform="scale(-1 1) translate(-117803.149606 0)"
textLength="323.772" font-size="262.467" lengthAdjust="spacingAndGlyphs"
text-anchor="middle" opacity="0">16</text>
<path d="M58939 42136
L59051 42136
" />
<path d="M58995 42136
L58995 41939
L59014 41967
L59032 41986
L59051 41995
" />
<path d="M58770 41939
L58807 41939
L58826 41948
L58835 41958
L58854 41986
L58864 42023
L58864 42098
L58854 42117
L58845 42126
L58826 42136
L58789 42136
L58770 42126
L58760 42117
L58751 42098
L58751 42051
L58760 42033
L58770 42023
L58789 42014
L58826 42014
L58845 42023
L58854 42033
L58864 42051
" />
<text x="55988.2" y="43059.1"
transform="scale(-1 1) translate(-111976.377953 0)"
textLength="230.034" font-size="262.467" lengthAdjust="spacingAndGlyphs"
text-anchor="middle" opacity="0">6.</text>
<path d="M55997 42852
L56035 42852
L56053 42862
L56063 42871
L56081 42899
L56091 42937
L56091 43012
L56081 43030
L56072 43040
L56053 43049
L56016 43049
L55997 43040
L55988 43030
L55978 43012
L55978 42965
L55988 42946
L55997 42937
L56016 42927
L56053 42927
L56072 42937
L56081 42946
L56091 42965
" />
<path d="M55894 43030
L55885 43040
L55894 43049
L55903 43040
L55894 43030
L55894 43049
" />
<text x="56899.6" y="45374"
transform="scale(-1 1) translate(-113799.212598 0)"
textLength="230.034" font-size="262.467" lengthAdjust="spacingAndGlyphs"
text-anchor="middle" opacity="0">9.</text>
<path d="M56983 45364
L56946 45364
L56927 45355
L56918 45345
L56899 45317
L56890 45280
L56890 45205
L56899 45186
L56908 45177
L56927 45167
L56965 45167
L56983 45177
L56993 45186
L57002 45205
L57002 45252
L56993 45270
L56983 45280
L56965 45289
L56927 45289
L56908 45280
L56899 45270
L56890 45252
" />
<path d="M56805 45345
L56796 45355
L56805 45364
L56815 45355
L56805 45345
L56805 45364
" />
<text x="52362.2" y="45393.7"
transform="scale(-1 1) translate(-104724.409449 0)"
textLength="323.772" font-size="262.467" lengthAdjust="spacingAndGlyphs"
text-anchor="middle" opacity="0">11</text>
<path d="M52399 45384
L52512 45384
" />
<path d="M52455 45384
L52455 45187
L52474 45215
L52493 45234
L52512 45243
" />
<path d="M52212 45384
L52324 45384
" />
<path d="M52268 45384
L52268 45187
L52287 45215
L52305 45234
L52324 45243
" />
<text x="51555.1" y="42283.5"
transform="scale(-1 1) translate(-103110.236220 0)"
textLength="136.295" font-size="262.467" lengthAdjust="spacingAndGlyphs"
text-anchor="middle" opacity="0">4</text>
<path d="M51517 42142
L51517 42274
" />
<path d="M51564 42067
L51611 42208
L51489 42208
" />
<text x="54074.8" y="41968.5"
transform="scale(-1 1) translate(-108149.606299 0)"
textLength="323.772" font-size="262.467" lengthAdjust="spacingAndGlyphs"
text-anchor="middle" opacity="0">14</text>
<path d="M54112 41959
L54224 41959
" />
<path d="M54168 41959
L54168 41762
L54187 41790
L54206 41809
L54224 41818
" />
<path d="M53943 41827
L53943 41959
" />
<path d="M53990 41752
L54037 41893
L53915 41893
" />
<g transform="rotate(30 52200.8 37960.6)">
<text x="52200.8" y="38059.1"
transform="scale(-1 1) translate(-104401.574803 0)"
textLength="323.772" font-size="262.467" lengthAdjust="spacingAndGlyphs"
text-anchor="middle" opacity="0">20</text>
</g>
<path d="M52375 37958
L52371 37945
L52360 37928
L52319 37904
L52298 37903
L52285 37906
L52268 37918
L52259 37934
L52253 37963
L52294 38117
L52188 38056
" />
<path d="M52181 37825
L52165 37815
L52144 37814
L52131 37817
L52114 37829
L52087 37857
L52063 37897
L52053 37934
L52051 37955
L52055 37968
L52066 37986
L52083 37995
L52104 37996
L52116 37993
L52134 37981
L52161 37954
L52184 37913
L52195 37876
L52196 37855
L52193 37842
L52181 37825
" />
<text x="50409.4" y="38145.7"
transform="scale(-1 1) translate(-100818.897638 0)"
textLength="136.295" font-size="262.467" lengthAdjust="spacingAndGlyphs"
text-anchor="middle" opacity="0">2</text>
<path d="M50465 37958
L50456 37948
L50437 37939
L50390 37939
L50371 37948
L50362 37958
L50353 37976
L50353 37995
L50362 38023
L50475 38136
L50353 38136
" />
<g transform="rotate(-270 49921.3 41092.5)">
<text x="49921.3" y="41190.9"
transform="scale(-1 1) translate(-99842.519685 0)"
textLength="323.772" font-size="262.467" lengthAdjust="spacingAndGlyphs"
text-anchor="middle" opacity="0">18</text>
</g>
<path d="M49832 41130
L49832 41242
" />
<path d="M49832 41186
L50029 41186
L50000 41205
L49982 41223
L49972 41242
" />
<path d="M49944 41017
L49954 41036
L49963 41045
L49982 41055
L49991 41055
L50010 41045
L50019 41036
L50029 41017
L50029 40980
L50019 40961
L50010 40951
L49991 40942
L49982 40942
L49963 40951
L49954 40961
L49944 40980
L49944 41017
L49935 41036
L49925 41045
L49907 41055
L49869 41055
L49850 41045
L49841 41036
L49832 41017
L49832 40980
L49841 40961
L49850 40951
L49869 40942
L49907 40942
L49925 40951
L49935 40961
L49944 40980
" />
<path d="M43282 38386
L42740 39160
" />
<path d="M43798 38747
L43256 39521
" />
<path d="M71326 43030
L71366 43098
" />
<path d="M71380 43044
L71312 43083
" />
<circle cx="71242.6" cy="42214.9" r="78.7402" /> 
<path d="M71399 42329
L71812 43045
" />
<path d="M71812 43045
L71096 43458
" />
<path d="M71096 43458
L70683 42742
" />
<path d="M70683 42742
L71399 42329
" />
<path d="M73905 42761
L73944 42693
" />
<path d="M73891 42707
L73959 42746
" />
<circle cx="73241.7" cy="43241.7" r="78.7402" /> 
<path d="M73262 43048
L73675 42332
" />
<path d="M73675 42332
L74391 42746
" />
<path d="M74391 42746
L73978 43462
" />
<path d="M73978 43462
L73262 43048
" />
<path d="M74917 40846
L74917 40767
" />
<path d="M74877 40807
L74956 40807
" />
<circle cx="74582.7" cy="41594.5" r="78.7402" /> 
<path d="M74503 41417
L74503 40590
" />
<path d="M74503 40590
L75330 40590
" />
<path d="M75330 40590
L75330 41417
" />
<path d="M75330 41417
L74503 41417
" />
<path d="M73588 38862
L73519 38822
" />
<path d="M73534 38876
L73573 38808
" />
<circle cx="74068.5" cy="39526" r="78.7402" /> 
<path d="M73875 39505
L73159 39092
" />
<path d="M73159 39092
L73573 38376
" />
<path d="M73573 38376
L74289 38789
" />
<path d="M74289 38789
L73875 39505
" />
<path d="M71367 38964
L71299 38925
" />
<path d="M71313 38978
L71353 38910
" />
<circle cx="71848" cy="39628.4" r="78.7402" /> 
<path d="M71655 39608
L70939 39194
" />
<path d="M70939 39194
L71352 38478
" />
<path d="M71352 38478
L72068 38891
" />
<path d="M72068 38891
L71655 39608
" />
<path d="M70017 36799
L69948 36759
" />
<path d="M69963 36813
L70002 36745
" />
<circle cx="70497.7" cy="37463" r="78.7402" /> 
<path d="M70304 37442
L69588 37029
" />
<path d="M69588 37029
L70002 36313
" />
<path d="M70002 36313
L70718 36726
" />
<path d="M70718 36726
L70304 37442
" />
<path d="M67635 36956
L67567 36996
" />
<path d="M67620 37010
L67581 36942
" />
<circle cx="68450.4" cy="36872.5" r="78.7402" /> 
<path d="M68336 37029
L67620 37442
" />
<path d="M67620 37442
L67206 36726
" />
<path d="M67206 36726
L67922 36313
" />
<path d="M67922 36313
L68336 37029
" />
<path d="M66446 39019
L66378 39059
" />
<path d="M66431 39073
L66392 39005
" />
<circle cx="67261.4" cy="38935.5" r="78.7402" /> 
<path d="M67147 39092
L66431 39505
" />
<path d="M66431 39505
L66017 38789
" />
<path d="M66017 38789
L66733 38376
" />
<path d="M66733 38376
L67147 39092
" />
<path d="M63981 38877
L63913 38917
" />
<path d="M63967 38931
L63927 38863
" />
<circle cx="64796.9" cy="38793.7" r="78.7402" /> 
<path d="M64682 38950
L63966 39363
" />
<path d="M63966 39363
L63553 38647
" />
<path d="M63553 38647
L64269 38234
" />
<path d="M64269 38234
L64682 38950
" />
<path d="M62875 41082
L62807 41122
" />
<path d="M62861 41136
L62821 41068
" />
<circle cx="63690.6" cy="40998.5" r="78.7402" /> 
<path d="M63576 41155
L62860 41568
" />
<path d="M62860 41568
L62447 40852
" />
<path d="M62447 40852
L63163 40439
" />
<path d="M63163 40439
L63576 41155
" />
<path d="M60493 41082
L60425 41122
" />
<path d="M60479 41136
L60439 41068
" />
<circle cx="61308.7" cy="40998.5" r="78.7402" /> 
<path d="M61194 41155
L60478 41568
" />
<path d="M60478 41568
L60065 40852
" />
<path d="M60065 40852
L60781 40439
" />
<path d="M60781 40439
L61194 41155
" />
<path d="M59304 43145
L59236 43185
" />
<path d="M59290 43199
L59250 43131
" />
<circle cx="60119.7" cy="43061.5" r="78.7402" /> 
<path d="M60005 43218
L59289 43631
" />
<path d="M59289 43631
L58876 42915
" />
<path d="M58876 42915
L59592 42502
" />
<path d="M59592 42502
L60005 43218
" />
<path d="M56918 43141
L56850 43181
" />
<path d="M56904 43195
L56864 43127
" />
<circle cx="57733.9" cy="43057.5" r="78.7402" /> 
<path d="M57619 43214
L56903 43627
" />
<path d="M56903 43627
L56490 42911
" />
<path d="M56490 42911
L57206 42498
" />
<path d="M57206 42498
L57619 43214
" />
<path d="M55729 45204
L55661 45244
" />
<path d="M55715 45258
L55675 45190
" />
<circle cx="56544.9" cy="45120.5" r="78.7402" /> 
<path d="M56430 45277
L55714 45690
" />
<path d="M55714 45690
L55301 44974
" />
<path d="M55301 44974
L56017 44561
" />
<path d="M56017 44561
L56430 45277
" />
<path d="M53351 45051
L53283 45011
" />
<path d="M53298 45065
L53337 44997
" />
<circle cx="53832.3" cy="45715" r="78.7402" /> 
<path d="M53639 45694
L52923 45281
" />
<path d="M52923 45281
L53336 44565
" />
<path d="M53336 44565
L54052 44978
" />
<path d="M54052 44978
L53639 45694
" />
<path d="M52295 42909
L52295 42830
" />
<path d="M52255 42870
L52334 42870
" />
<circle cx="51960.6" cy="43657.5" r="78.7402" /> 
<path d="M51881 43480
L51881 42653
" />
<path d="M51881 42653
L52708 42653
" />
<path d="M52708 42653
L52708 43480
" />
<path d="M52708 43480
L51881 43480
" />
<path d="M53484 40846
L53484 40767
" />
<path d="M53444 40807
L53523 40807
" />
<circle cx="53149.6" cy="41594.5" r="78.7402" /> 
<path d="M53070 41417
L53070 40590
" />
<path d="M53070 40590
L53897 40590
" />
<path d="M53897 40590
L53897 41417
" />
<path d="M53897 41417
L53070 41417
" />
<path d="M52163 38839
L52095 38800
" />
<path d="M52110 38853
L52149 38785
" />
<circle cx="52644.3" cy="39503.2" r="78.7402" /> 
<path d="M52451 39482
L51735 39069
" />
<path d="M51735 39069
L52148 38353
" />
<path d="M52148 38353
L52864 38766
" />
<path d="M52864 38766
L52451 39482
" />
<path d="M49769 39007
L49700 39047
" />
<path d="M49754 39061
L49715 38993
" />
<circle cx="50584.3" cy="38923.7" r="78.7402" /> 
<path d="M50470 39080
L49754 39493
" />
<path d="M49754 39493
L49340 38777
" />
<path d="M49340 38777
L50056 38364
" />
<path d="M50056 38364
L50470 39080
" />
<path d="M48584 41003
L48505 41003
" />
<path d="M48545 41043
L48545 40964
" />
<circle cx="49332.7" cy="41338.6" r="78.7402" /> 
<path d="M49155 41417
L48328 41417
" />
<path d="M48328 41417
L48328 40590
" />
<path d="M48328 40590
L49155 40590
" />
<path d="M49155 40590
L49155 41417
" />
</g>
<g style="fill:#000000; fill-opacity:0.0; 
stroke:#000000; stroke-width:47.2441; stroke-opacity:1; 
stroke-linecap:round; stroke-linejoin:round;">
<path d="M47089 40693
L47149 40633
" />
<path d="M46889 40492
L46949 40432
" />
</g>
<g style="fill:#000000; fill-opacity:0.0; 
stroke:#000000; stroke-width:39.3701; stroke-opacity:1; 
stroke-linecap:round; stroke-linejoin:round;">
<circle cx="70624" cy="39013.4" r="19.6854" /> 
</g>
<g style="fill:#000000; fill-opacity:0.0; 
stroke:#000000; stroke-width:47.2441; stroke-opacity:1; 
stroke-linecap:round; stroke-linejoin:round;">
<path d="M45356 40236
L45543 40236
" />
<path d="M43488 42291
L43488 42104
" />
<path d="M43675 42291
L43488 42291
" />
<path d="M45543 42291
L45543 42104
" />
<path d="M45356 42291
L45543 42291
" />
<path d="M43488 40236
L43488 40423
" />
<path d="M43675 40236
L43488 40236
" />
</g>
<g style="fill:#000000; fill-opacity:0.0; 
stroke:#000000; stroke-width:39.3701; stroke-opacity:1; 
stroke-linecap:round; stroke-linejoin:round;">
<g transform="rotate(-55 43893.6 38939)">
<text x="43893.6" y="39037.4"
transform="scale(-1 1) translate(-87787.275591 0)"
textLength="483.127" font-size="262.467" lengthAdjust="spacingAndGlyphs"
text-anchor="middle" opacity="0">AE1</text>
</g>
<path d="M44052 38769
L43998 38846
" />
<path d="M44109 38786
L43910 38727
L44033 38894
" />
<path d="M43911 38888
L43874 38942
" />
<path d="M43942 39024
L43996 38947
L43834 38834
L43781 38911
" />
<path d="M43834 39178
L43899 39086
" />
<path d="M43867 39132
L43705 39019
L43739 39020
L43765 39015
L43784 39005
" />
<g transform="rotate(-30 53456.7 42966.5)">
<text x="53456.7" y="43065"
transform="scale(-1 1) translate(-106913.385827 0)"
textLength="670.604" font-size="262.467" lengthAdjust="spacingAndGlyphs"
text-anchor="middle" opacity="0">LED2</text>
</g>
<path d="M53691 42933
L53773 42886
L53674 42716
" />
<path d="M53583 42877
L53526 42909
" />
<path d="M53553 43013
L53635 42966
L53536 42795
L53455 42842
" />
<path d="M53480 43055
L53382 42884
L53341 42908
L53322 42930
L53315 42956
L53316 42977
L53327 43014
L53341 43038
L53368 43066
L53385 43077
L53411 43084
L53440 43078
L53480 43055
" />
<path d="M53229 42994
L53216 42991
L53195 42992
L53155 43016
L53143 43033
L53140 43046
L53141 43067
L53150 43083
L53173 43103
L53326 43144
L53221 43205
" />
<g transform="rotate(-60 73826.8 38011.7)">
<text x="73826.8" y="38110.1"
transform="scale(-1 1) translate(-147653.568504 0)"
textLength="651.856" font-size="262.467" lengthAdjust="spacingAndGlyphs"
text-anchor="middle" opacity="0">VLED</text>
</g>
<path d="M73899 37669
L74037 37824
L73834 37783
" />
<path d="M73924 38019
L73971 37938
L73801 37840
" />
<path d="M73802 38024
L73770 38081
" />
<path d="M73845 38157
L73892 38076
L73721 37978
L73674 38059
" />
<path d="M73803 38230
L73632 38132
L73609 38172
L73603 38201
L73610 38227
L73621 38245
L73649 38271
L73673 38286
L73710 38296
L73731 38297
L73757 38291
L73779 38271
L73803 38230
" />
<text x="40799.2" y="40196.9"
transform="scale(-1 1) translate(-81598.425197 0)"
textLength="333.146" font-size="262.467" lengthAdjust="spacingAndGlyphs"
text-anchor="middle" opacity="0">P4</text>
<path d="M40944 40187
L40944 39990
L40869 39990
L40850 40000
L40841 40009
L40832 40028
L40832 40056
L40841 40074
L40850 40084
L40869 40093
L40944 40093
" />
<path d="M40663 40056
L40663 40187
" />
<path d="M40710 39981
L40757 40121
L40635 40121
" />
<text x="40818.9" y="41968.5"
transform="scale(-1 1) translate(-81637.795276 0)"
textLength="333.146" font-size="262.467" lengthAdjust="spacingAndGlyphs"
text-anchor="middle" opacity="0">P3</text>
<path d="M40964 41959
L40964 41762
L40889 41762
L40870 41771
L40861 41781
L40851 41799
L40851 41827
L40861 41846
L40870 41856
L40889 41865
L40964 41865
" />
<path d="M40786 41762
L40664 41762
L40729 41837
L40701 41837
L40682 41846
L40673 41856
L40664 41874
L40664 41921
L40673 41940
L40682 41949
L40701 41959
L40757 41959
L40776 41949
L40786 41940
" />
<g transform="rotate(60 70576 43304.4)">
<text x="70576" y="43402.9"
transform="scale(-1 1) translate(-141151.928346 0)"
textLength="520.622" font-size="262.467" lengthAdjust="spacingAndGlyphs"
text-anchor="middle" opacity="0">D21</text>
</g>
<path d="M70618 43555
L70788 43457
L70765 43416
L70743 43397
L70717 43390
L70696 43391
L70659 43402
L70635 43416
L70607 43443
L70595 43460
L70588 43486
L70594 43515
L70618 43555
" />
<path d="M70678 43304
L70682 43291
L70681 43270
L70657 43230
L70640 43218
L70627 43215
L70606 43216
L70590 43225
L70570 43248
L70529 43401
L70468 43296
" />
<path d="M70374 43133
L70430 43231
" />
<path d="M70402 43182
L70573 43084
L70558 43114
L70551 43140
L70552 43160
" />
<g transform="rotate(-60 74518.5 43274.3)">
<text x="74518.5" y="43372.7"
transform="scale(-1 1) translate(-149037.048031 0)"
textLength="520.622" font-size="262.467" lengthAdjust="spacingAndGlyphs"
text-anchor="middle" opacity="0">D20</text>
</g>
<path d="M74715 43111
L74544 43013
L74521 43053
L74515 43083
L74522 43108
L74533 43126
L74561 43152
L74585 43167
L74623 43177
L74643 43178
L74669 43172
L74691 43152
L74715 43111
" />
<path d="M74467 43185
L74454 43188
L74436 43200
L74413 43240
L74412 43261
L74415 43274
L74427 43291
L74443 43301
L74472 43307
L74626 43266
L74565 43371
" />
<path d="M74333 43378
L74324 43394
L74323 43415
L74326 43428
L74338 43446
L74365 43473
L74406 43496
L74443 43507
L74464 43508
L74477 43504
L74494 43493
L74504 43477
L74505 43456
L74502 43443
L74490 43425
L74462 43399
L74422 43375
L74384 43364
L74364 43363
L74351 43367
L74333 43378
" />
<g transform="rotate(90 75704.7 40984.3)">
<text x="75704.7" y="41082.7"
transform="scale(-1 1) translate(-151409.448819 0)"
textLength="520.622" font-size="262.467" lengthAdjust="spacingAndGlyphs"
text-anchor="middle" opacity="0">D19</text>
</g>
<path d="M75615 41223
L75812 41223
L75812 41176
L75803 41148
L75784 41129
L75765 41120
L75728 41110
L75700 41110
L75662 41120
L75643 41129
L75625 41148
L75615 41176
L75615 41223
" />
<path d="M75615 40923
L75615 41035
" />
<path d="M75615 40979
L75812 40979
L75784 40998
L75765 41017
L75756 41035
" />
<path d="M75615 40829
L75615 40792
L75625 40773
L75634 40763
L75662 40745
L75700 40735
L75775 40735
L75793 40745
L75803 40754
L75812 40773
L75812 40810
L75803 40829
L75793 40838
L75775 40848
L75728 40848
L75709 40838
L75700 40829
L75690 40810
L75690 40773
L75700 40754
L75709 40745
L75728 40735
" />
<g transform="rotate(30 74101.1 38249.2)">
<text x="74101.1" y="38347.6"
transform="scale(-1 1) translate(-148202.125197 0)"
textLength="520.622" font-size="262.467" lengthAdjust="spacingAndGlyphs"
text-anchor="middle" opacity="0">D18</text>
</g>
<path d="M74263 38445
L74361 38275
L74321 38251
L74292 38245
L74266 38252
L74249 38264
L74222 38292
L74208 38316
L74197 38353
L74196 38374
L74203 38400
L74222 38422
L74263 38445
" />
<path d="M74003 38295
L74101 38352
" />
<path d="M74052 38323
L74150 38153
L74153 38187
L74159 38212
L74171 38230
" />
<path d="M73962 38142
L73983 38143
L73996 38140
L74013 38128
L74018 38120
L74019 38099
L74016 38086
L74004 38069
L73972 38050
L73951 38049
L73938 38052
L73921 38064
L73916 38072
L73915 38093
L73918 38105
L73930 38123
L73962 38142
L73974 38159
L73977 38172
L73976 38193
L73957 38225
L73940 38237
L73927 38240
L73906 38239
L73873 38220
L73862 38203
L73858 38190
L73860 38169
L73878 38137
L73896 38125
L73909 38122
L73930 38123
" />
<g transform="rotate(30 71880.6 38351.6)">
<text x="71880.6" y="38450"
transform="scale(-1 1) translate(-143761.180315 0)"
textLength="520.622" font-size="262.467" lengthAdjust="spacingAndGlyphs"
text-anchor="middle" opacity="0">D17</text>
</g>
<path d="M72043 38548
L72141 38377
L72100 38354
L72071 38348
L72046 38355
L72028 38366
L72001 38394
L71987 38418
L71977 38456
L71975 38476
L71982 38502
L72002 38524
L72043 38548
" />
<path d="M71783 38398
L71880 38454
" />
<path d="M71832 38426
L71930 38255
L71932 38289
L71939 38315
L71951 38332
" />
<path d="M71824 38194
L71711 38129
L71685 38341
" />
<g transform="rotate(30 70530.2 36186.2)">
<text x="70530.2" y="36284.6"
transform="scale(-1 1) translate(-141060.392913 0)"
textLength="520.622" font-size="262.467" lengthAdjust="spacingAndGlyphs"
text-anchor="middle" opacity="0">D16</text>
</g>
<path d="M70692 36382
L70791 36212
L70750 36188
L70721 36182
L70695 36189
L70678 36201
L70651 36229
L70637 36253
L70626 36290
L70625 36311
L70632 36337
L70652 36359
L70692 36382
" />
<path d="M70432 36232
L70530 36289
" />
<path d="M70481 36260
L70580 36090
L70582 36124
L70589 36149
L70600 36167
" />
<path d="M70385 35978
L70417 35996
L70429 36014
L70432 36027
L70434 36060
L70424 36097
L70386 36162
L70369 36174
L70356 36177
L70335 36176
L70303 36157
L70291 36140
L70288 36127
L70289 36106
L70312 36066
L70330 36054
L70343 36051
L70363 36052
L70396 36071
L70407 36088
L70411 36101
L70410 36122
" />
<g transform="rotate(-30 67360.9 36205.9)">
<text x="67360.9" y="36304.3"
transform="scale(-1 1) translate(-134721.810236 0)"
textLength="520.622" font-size="262.467" lengthAdjust="spacingAndGlyphs"
text-anchor="middle" opacity="0">D15</text>
</g>
<path d="M67612 36163
L67514 35993
L67473 36016
L67453 36038
L67446 36064
L67448 36085
L67458 36122
L67472 36146
L67499 36174
L67517 36186
L67542 36192
L67571 36186
L67612 36163
" />
<path d="M67352 36313
L67450 36257
" />
<path d="M67401 36285
L67302 36114
L67333 36129
L67358 36136
L67379 36135
" />
<path d="M67099 36232
L67181 36185
L67236 36261
L67223 36258
L67202 36259
L67161 36282
L67150 36300
L67146 36313
L67148 36334
L67171 36374
L67189 36386
L67201 36389
L67222 36388
L67263 36365
L67274 36347
L67278 36334
" />
<g transform="rotate(-30 66171.9 38268.9)">
<text x="66171.9" y="38367.3"
transform="scale(-1 1) translate(-132343.857480 0)"
textLength="520.622" font-size="262.467" lengthAdjust="spacingAndGlyphs"
text-anchor="middle" opacity="0">D14</text>
</g>
<path d="M66423 38226
L66325 38056
L66284 38079
L66264 38101
L66257 38127
L66259 38148
L66269 38185
L66283 38209
L66310 38237
L66328 38248
L66353 38255
L66382 38249
L66423 38226
" />
<path d="M66163 38376
L66261 38320
" />
<path d="M66212 38348
L66113 38177
L66144 38192
L66169 38199
L66190 38198
" />
<path d="M65951 38347
L66017 38460
" />
<path d="M65955 38258
L66065 38357
L65960 38418
" />
<g transform="rotate(-30 63707.4 38127.1)">
<text x="63707.4" y="38225.6"
transform="scale(-1 1) translate(-127414.723622 0)"
textLength="520.622" font-size="262.467" lengthAdjust="spacingAndGlyphs"
text-anchor="middle" opacity="0">D13</text>
</g>
<path d="M63958 38084
L63860 37914
L63819 37937
L63800 37959
L63793 37985
L63794 38006
L63805 38043
L63819 38067
L63846 38095
L63863 38107
L63889 38114
L63918 38108
L63958 38084
" />
<path d="M63699 38234
L63796 38178
" />
<path d="M63747 38206
L63649 38036
L63679 38051
L63705 38057
L63726 38056
" />
<path d="M63543 38097
L63438 38157
L63532 38190
L63508 38204
L63496 38221
L63493 38234
L63494 38255
L63518 38295
L63535 38307
L63548 38310
L63569 38309
L63617 38281
L63629 38264
L63632 38251
" />
<g transform="rotate(-30 62601.1 40331.9)">
<text x="62601.1" y="40430.3"
transform="scale(-1 1) translate(-125202.125197 0)"
textLength="520.622" font-size="262.467" lengthAdjust="spacingAndGlyphs"
text-anchor="middle" opacity="0">D12</text>
</g>
<path d="M62852 40289
L62754 40118
L62713 40142
L62693 40164
L62687 40190
L62688 40211
L62698 40248
L62712 40272
L62739 40300
L62757 40311
L62782 40318
L62812 40312
L62852 40289
" />
<path d="M62592 40439
L62690 40383
" />
<path d="M62641 40411
L62543 40240
L62573 40255
L62599 40262
L62619 40261
" />
<path d="M62438 40322
L62426 40319
L62405 40320
L62364 40343
L62352 40361
L62349 40374
L62350 40395
L62360 40411
L62382 40431
L62535 40472
L62430 40533
" />
<g transform="rotate(-30 60219.2 40331.9)">
<text x="60219.2" y="40430.3"
transform="scale(-1 1) translate(-120438.345669 0)"
textLength="520.622" font-size="262.467" lengthAdjust="spacingAndGlyphs"
text-anchor="middle" opacity="0">D11</text>
</g>
<path d="M60470 40289
L60372 40118
L60331 40142
L60312 40164
L60305 40190
L60306 40211
L60317 40248
L60331 40272
L60357 40300
L60375 40311
L60401 40318
L60430 40312
L60470 40289
" />
<path d="M60210 40439
L60308 40383
" />
<path d="M60259 40411
L60161 40240
L60191 40255
L60217 40262
L60238 40261
" />
<path d="M60048 40533
L60145 40476
" />
<path d="M60097 40505
L59998 40334
L60029 40349
L60054 40356
L60075 40355
" />
<g transform="rotate(-30 59030.2 42394.9)">
<text x="59030.2" y="42493.3"
transform="scale(-1 1) translate(-118060.392913 0)"
textLength="520.622" font-size="262.467" lengthAdjust="spacingAndGlyphs"
text-anchor="middle" opacity="0">D10</text>
</g>
<path d="M59281 42352
L59183 42181
L59142 42205
L59123 42227
L59116 42253
L59117 42274
L59128 42311
L59142 42335
L59168 42363
L59186 42374
L59212 42381
L59241 42375
L59281 42352
" />
<path d="M59021 42502
L59119 42446
" />
<path d="M59070 42474
L58972 42303
L59002 42318
L59028 42325
L59049 42324
" />
<path d="M58817 42392
L58801 42402
L58790 42419
L58786 42432
L58788 42453
L58798 42490
L58822 42531
L58848 42559
L58866 42570
L58879 42574
L58900 42572
L58916 42563
L58927 42545
L58931 42533
L58930 42512
L58919 42474
L58896 42434
L58869 42406
L58851 42395
L58838 42391
L58817 42392
" />
<g transform="rotate(-30 56644.4 42390.9)">
<text x="56644.4" y="42489.3"
transform="scale(-1 1) translate(-113288.739370 0)"
textLength="333.146" font-size="262.467" lengthAdjust="spacingAndGlyphs"
text-anchor="middle" opacity="0">D9</text>
</g>
<path d="M56814 42395
L56716 42224
L56675 42248
L56656 42270
L56649 42296
L56650 42317
L56661 42354
L56675 42378
L56701 42406
L56719 42417
L56745 42424
L56774 42418
L56814 42395
" />
<path d="M56636 42498
L56603 42517
L56582 42518
L56569 42515
L56539 42500
L56512 42472
L56475 42407
L56474 42386
L56477 42373
L56488 42356
L56521 42337
L56542 42336
L56555 42339
L56572 42351
L56596 42391
L56597 42412
L56593 42425
L56582 42442
L56549 42461
L56529 42462
L56516 42459
L56498 42447
" />
<g transform="rotate(-30 55455.4 44453.9)">
<text x="55455.4" y="44552.3"
transform="scale(-1 1) translate(-110910.786614 0)"
textLength="333.146" font-size="262.467" lengthAdjust="spacingAndGlyphs"
text-anchor="middle" opacity="0">D8</text>
</g>
<path d="M55625 44458
L55527 44287
L55486 44311
L55467 44333
L55460 44359
L55461 44380
L55472 44417
L55486 44441
L55513 44469
L55530 44480
L55556 44487
L55585 44481
L55625 44458
" />
<path d="M55374 44473
L55386 44455
L55389 44443
L55388 44422
L55383 44414
L55366 44402
L55353 44399
L55332 44400
L55300 44419
L55288 44436
L55285 44449
L55286 44470
L55290 44478
L55308 44490
L55321 44493
L55342 44492
L55374 44473
L55395 44472
L55408 44475
L55425 44487
L55444 44519
L55445 44540
L55442 44553
L55430 44570
L55398 44589
L55377 44590
L55364 44587
L55347 44575
L55328 44543
L55327 44522
L55330 44509
L55342 44492
" />
<g transform="rotate(30 53864.8 44438.2)">
<text x="53864.8" y="44536.6"
transform="scale(-1 1) translate(-107729.684252 0)"
textLength="333.146" font-size="262.467" lengthAdjust="spacingAndGlyphs"
text-anchor="middle" opacity="0">D7</text>
</g>
<path d="M53946 44587
L54044 44417
L54003 44394
L53974 44388
L53949 44394
L53931 44406
L53904 44434
L53890 44458
L53880 44495
L53879 44516
L53885 44542
L53905 44564
L53946 44587
" />
<path d="M53890 44328
L53776 44262
L53751 44475
" />
<g transform="rotate(90 53082.7 43047.2)">
<text x="53082.7" y="43145.7"
transform="scale(-1 1) translate(-106165.354331 0)"
textLength="333.146" font-size="262.467" lengthAdjust="spacingAndGlyphs"
text-anchor="middle" opacity="0">D6</text>
</g>
<path d="M52993 43192
L53190 43192
L53190 43145
L53181 43117
L53162 43098
L53143 43089
L53106 43080
L53077 43080
L53040 43089
L53021 43098
L53002 43117
L52993 43145
L52993 43192
" />
<path d="M53190 42911
L53190 42948
L53181 42967
L53171 42976
L53143 42995
L53106 43005
L53031 43005
L53012 42995
L53002 42986
L52993 42967
L52993 42930
L53002 42911
L53012 42901
L53031 42892
L53077 42892
L53096 42901
L53106 42911
L53115 42930
L53115 42967
L53106 42986
L53096 42995
L53077 43005
" />
<g transform="rotate(90 54271.7 40984.3)">
<text x="54271.7" y="41082.7"
transform="scale(-1 1) translate(-108543.307087 0)"
textLength="333.146" font-size="262.467" lengthAdjust="spacingAndGlyphs"
text-anchor="middle" opacity="0">D5</text>
</g>
<path d="M54182 41129
L54379 41129
L54379 41082
L54370 41054
L54351 41035
L54332 41026
L54295 41017
L54266 41017
L54229 41026
L54210 41035
L54191 41054
L54182 41082
L54182 41129
" />
<path d="M54379 40838
L54379 40932
L54285 40942
L54295 40932
L54304 40913
L54304 40867
L54295 40848
L54285 40838
L54266 40829
L54220 40829
L54201 40838
L54191 40848
L54182 40867
L54182 40913
L54191 40932
L54201 40942
" />
<g transform="rotate(30 52676.8 38226.4)">
<text x="52676.8" y="38324.8"
transform="scale(-1 1) translate(-105353.700000 0)"
textLength="333.146" font-size="262.467" lengthAdjust="spacingAndGlyphs"
text-anchor="middle" opacity="0">D4</text>
</g>
<path d="M52758 38376
L52856 38205
L52815 38182
L52786 38176
L52761 38183
L52743 38194
L52716 38222
L52702 38246
L52692 38284
L52691 38304
L52697 38330
L52717 38352
L52758 38376
" />
<path d="M52580 38121
L52514 38235
" />
<path d="M52658 38080
L52628 38225
L52523 38164
" />
<g transform="rotate(-30 49494.8 38257.1)">
<text x="49494.8" y="38355.5"
transform="scale(-1 1) translate(-98989.526772 0)"
textLength="333.146" font-size="262.467" lengthAdjust="spacingAndGlyphs"
text-anchor="middle" opacity="0">D3</text>
</g>
<path d="M49665 38261
L49566 38091
L49526 38114
L49506 38136
L49499 38162
L49500 38183
L49511 38220
L49525 38244
L49552 38272
L49569 38284
L49595 38290
L49624 38284
L49665 38261
" />
<path d="M49412 38180
L49306 38241
L49401 38273
L49376 38287
L49365 38304
L49361 38317
L49363 38338
L49386 38379
L49404 38390
L49416 38394
L49437 38392
L49486 38364
L49498 38347
L49501 38334
" />
<text x="48722.4" y="40315"
transform="scale(-1 1) translate(-97444.881890 0)"
textLength="333.146" font-size="262.467" lengthAdjust="spacingAndGlyphs"
text-anchor="middle" opacity="0">D2</text>
<path d="M48867 40305
L48867 40108
L48820 40108
L48792 40118
L48773 40136
L48764 40155
L48755 40193
L48755 40221
L48764 40258
L48773 40277
L48792 40296
L48820 40305
L48867 40305
" />
<path d="M48680 40127
L48670 40118
L48652 40108
L48605 40108
L48586 40118
L48577 40127
L48567 40146
L48567 40164
L48577 40193
L48689 40305
L48567 40305
" />
<g transform="rotate(-45 47342.6 40885.9)">
<text x="47342.6" y="40984.3"
transform="scale(-1 1) translate(-94685.231496 0)"
textLength="333.146" font-size="262.467" lengthAdjust="spacingAndGlyphs"
text-anchor="middle" opacity="0">C3</text>
</g>
<path d="M47415 40912
L47428 40912
L47455 40899
L47468 40885
L47481 40859
L47481 40832
L47475 40813
L47455 40779
L47435 40759
L47402 40740
L47382 40733
L47355 40733
L47329 40746
L47316 40759
L47302 40786
L47302 40799
" />
<path d="M47243 40832
L47157 40919
L47256 40925
L47236 40945
L47229 40965
L47229 40978
L47236 40998
L47269 41031
L47289 41038
L47302 41038
L47322 41031
L47362 40991
L47369 40972
L47369 40958
" />
<g transform="rotate(-60 70385.8 38374)">
<text x="70385.8" y="38472.4"
transform="scale(-1 1) translate(-140771.653543 0)"
textLength="520.622" font-size="262.467" lengthAdjust="spacingAndGlyphs"
text-anchor="middle" opacity="0">D22</text>
</g>
<path d="M70582 38211
L70411 38113
L70388 38153
L70382 38182
L70389 38208
L70401 38225
L70428 38252
L70453 38266
L70490 38277
L70511 38278
L70536 38271
L70559 38252
L70582 38211
" />
<path d="M70334 38284
L70321 38288
L70304 38299
L70280 38340
L70279 38361
L70282 38374
L70294 38391
L70310 38401
L70339 38406
L70493 38365
L70432 38471
" />
<path d="M70240 38447
L70227 38450
L70210 38462
L70187 38502
L70185 38523
L70189 38536
L70200 38553
L70216 38563
L70246 38569
L70399 38528
L70338 38633
" />
<text x="42690.9" y="41685"
transform="scale(-1 1) translate(-85381.889764 0)"
textLength="333.146" font-size="262.467" lengthAdjust="spacingAndGlyphs"
text-anchor="middle" opacity="0">C8</text>
<path d="M42723 41656
L42733 41666
L42761 41675
L42779 41675
L42808 41666
L42826 41647
L42836 41628
L42845 41591
L42845 41563
L42836 41525
L42826 41506
L42808 41488
L42779 41478
L42761 41478
L42733 41488
L42723 41497
" />
<path d="M42611 41563
L42630 41553
L42639 41544
L42648 41525
L42648 41516
L42639 41497
L42630 41488
L42611 41478
L42573 41478
L42555 41488
L42545 41497
L42536 41516
L42536 41525
L42545 41544
L42555 41553
L42573 41563
L42611 41563
L42630 41572
L42639 41581
L42648 41600
L42648 41638
L42639 41656
L42630 41666
L42611 41675
L42573 41675
L42555 41666
L42545 41656
L42536 41638
L42536 41600
L42545 41581
L42555 41572
L42573 41563
" />
<text x="44519.7" y="42755.9"
transform="scale(-1 1) translate(-89039.370079 0)"
textLength="342.52" font-size="262.467" lengthAdjust="spacingAndGlyphs"
text-anchor="middle" opacity="0">U1</text>
<path d="M44669 42549
L44669 42709
L44660 42727
L44650 42737
L44632 42746
L44594 42746
L44575 42737
L44566 42727
L44557 42709
L44557 42549
" />
<path d="M44360 42746
L44472 42746
" />
<path d="M44416 42746
L44416 42549
L44435 42577
L44454 42596
L44472 42605
" />
<g transform="rotate(-90 42744.1 40830.7)">
<text x="42744.1" y="40929.1"
transform="scale(-1 1) translate(-85488.188976 0)"
textLength="295.65" font-size="262.467" lengthAdjust="spacingAndGlyphs"
text-anchor="middle" opacity="0">L3</text>
</g>
<path d="M42833 40797
L42833 40704
L42636 40704
" />
<path d="M42636 40844
L42636 40966
L42711 40901
L42711 40929
L42720 40947
L42730 40957
L42748 40966
L42795 40966
L42814 40957
L42823 40947
L42833 40929
L42833 40872
L42823 40854
L42814 40844
" />
<g >
</g>
</g> 
</svg>
