<?xml version="1.0" standalone="no"?>
 <!DOCTYPE svg PUBLIC "-//W3C//DTD SVG 1.1//EN" 
 "http://www.w3.org/Graphics/SVG/1.1/DTD/svg11.dtd"> 
<svg
  xmlns:svg="http://www.w3.org/2000/svg"
  xmlns="http://www.w3.org/2000/svg"
  xmlns:xlink="http://www.w3.org/1999/xlink"
  version="1.1"
  width="29.700220cm" height="21.000720cm" viewBox="0 0 116930 82680">
<title>SVG Picture created as Main-Dwgs_User.svg date 2021/06/28 15:08:02 </title>
  <desc>Picture generated by PCBNEW </desc>
<g style="fill:#000000; fill-opacity:1;stroke:#000000; stroke-opacity:1;
stroke-linecap:round; stroke-linejoin:round;"
 transform="translate(0 0) scale(1 1)">
</g>
<g style="fill:#000000; fill-opacity:0.0; 
stroke:#000000; stroke-width:-0.000393701; stroke-opacity:1; 
stroke-linecap:round; stroke-linejoin:round;">
</g>
<g style="fill:#000000; fill-opacity:0.0; 
stroke:#000000; stroke-width:59.0551; stroke-opacity:1; 
stroke-linecap:round; stroke-linejoin:round;">
<path d="M72755 42972
L72755 41850
" />
<path d="M74370 43937
L72755 42972
" />
<path d="M74803 43700
L74370 43937
" />
<path d="M74803 42598
L74803 43700
" />
<path d="M73149 41633
L74803 42598
" />
<path d="M72755 41850
L73149 41633
" />
<path d="M69822 43444
L69822 42657
" />
<path d="M70669 43937
L69822 43444
" />
<path d="M72303 42992
L70669 43937
" />
<path d="M72303 41850
L72303 42992
" />
<path d="M71751 41535
L72303 41850
" />
<path d="M69822 42657
L71751 41535
" />
<path d="M65767 37342
L65629 37401
" />
<path d="M68346 38838
L65767 37342
" />
<path d="M68346 39035
L68346 38838
" />
<path d="M65767 40511
L68346 39035
" />
<path d="M65629 40413
L65767 40511
" />
<path d="M65629 37401
L65629 40413
" />
<path d="M55295 43169
L55295 42952
" />
<path d="M57106 44232
L55295 43169
" />
<path d="M58051 43700
L57106 44232
" />
<path d="M58051 41633
L58051 43700
" />
<path d="M57834 41515
L58051 41633
" />
<path d="M55295 42952
L57834 41515
" />
<g >
</g>
<g >
</g>
<g >
</g>
<g >
</g>
<g >
</g>
<g >
</g>
<g >
</g>
<g >
</g>
<g >
</g>
<g >
</g>
<g >
</g>
<g >
</g>
<g >
</g>
<g >
</g>
<g >
</g>
<g >
</g>
<g >
</g>
<g >
</g>
<g >
</g>
<g >
</g>
<g >
</g>
<g >
</g>
<g >
</g>
<g >
</g>
<g >
</g>
<g >
</g>
<g >
</g>
<g >
</g>
<g >
</g>
<g >
</g>
<g >
</g>
<g >
</g>
<g >
</g>
<g >
</g>
<g >
</g>
<g >
</g>
<g >
</g>
<g >
</g>
<g >
</g>
<g >
</g>
<g >
</g>
<g >
</g>
<g >
</g>
<g >
</g>
<g >
</g>
<g >
</g>
<g >
</g>
<g >
</g>
<g >
</g>
<g >
</g>
<g >
</g>
<g >
</g>
<g >
</g>
<g >
</g>
<g >
</g>
<g >
</g>
<g >
</g>
<g >
</g>
<g >
</g>
<g >
</g>
<g >
</g>
<g >
</g>
<g >
</g>
<g >
</g>
<g >
</g>
<g >
</g>
<g >
</g>
<g >
</g>
<g >
</g>
<g >
</g>
<g >
</g>
<g >
</g>
<g >
</g>
<g >
</g>
<g >
</g>
<g >
</g>
<g >
</g>
<g >
</g>
<g >
</g>
<g >
</g>
<g >
</g>
<g >
</g>
</g> 
</svg>
