%TF.GenerationSoftware,KiCad,Pcbnew,9.0.3*%
%TF.CreationDate,2025-08-06T14:02:13+08:00*%
%TF.ProjectId,Main,4d61696e-2e6b-4696-9361-645f70636258,3*%
%TF.SameCoordinates,Original*%
%TF.FileFunction,Component,L1,Top*%
%TF.FilePolarity,Positive*%
%FSLAX46Y46*%
G04 Gerber Fmt 4.6, Leading zero omitted, Abs format (unit mm)*
G04 Created by KiCad (PCBNEW 9.0.3) date 2025-08-06 14:02:13*
%MOMM*%
%LPD*%
G01*
G04 APERTURE LIST*
%TA.AperFunction,ComponentMain*%
%ADD10C,0.300000*%
%TD*%
%TA.AperFunction,ComponentOutline,Footprint*%
%ADD11C,0.100000*%
%TD*%
%TA.AperFunction,ComponentPin*%
%ADD12P,0.360000X4X0.000000*%
%TD*%
%TA.AperFunction,ComponentPin*%
%ADD13C,0.100000*%
%TD*%
G04 APERTURE END LIST*
D10*
%TO.C,U6*%
%TO.CFtp,AW35122*%
%TO.CVal,AW35122*%
%TO.CLbN,Pixels-dice*%
%TO.CMnt,SMD*%
%TO.CRot,-90*%
X146740000Y-75178402D03*
D11*
X147105000Y-74813402D02*
X146375000Y-74813402D01*
X146375000Y-75543402D01*
X147105000Y-75543402D01*
X147105000Y-74813402D01*
D12*
%TO.P,U6,A1,VOUT*%
X146990000Y-74928402D03*
D13*
%TO.P,U6,A2,VIN*%
X146990000Y-75428402D03*
%TO.P,U6,B1,GND*%
X146490000Y-74928402D03*
%TO.P,U6,B2,EN*%
X146490000Y-75428402D03*
%TD*%
D10*
%TO.C,C7*%
%TO.CFtp,C_0201_0603Metric*%
%TO.CVal,100pF NP0 10V 2\u0025*%
%TO.CLbN,Capacitor_SMD*%
%TO.CMnt,SMD*%
%TO.CRot,-90*%
X146260000Y-91040000D03*
D11*
X146460000Y-90490000D02*
X146060000Y-90490000D01*
X146060000Y-91590000D01*
X146460000Y-91590000D01*
X146460000Y-90490000D01*
D12*
%TO.P,C7,1*%
X146260000Y-90720000D03*
D13*
%TO.P,C7,2*%
X146260000Y-91360000D03*
%TD*%
D10*
%TO.C,C5*%
%TO.CFtp,C_0201_0603Metric*%
%TO.CVal,8pF 10V 10\u0025*%
%TO.CLbN,Capacitor_SMD*%
%TO.CMnt,SMD*%
%TO.CRot,90*%
X146850000Y-91040000D03*
D11*
X146650000Y-91590000D02*
X147050000Y-91590000D01*
X147050000Y-90490000D01*
X146650000Y-90490000D01*
X146650000Y-91590000D01*
D12*
%TO.P,C5,1*%
X146850000Y-91360000D03*
D13*
%TO.P,C5,2*%
X146850000Y-90720000D03*
%TD*%
D10*
%TO.C,C2*%
%TO.CFtp,C_0201_0603Metric*%
%TO.CVal,8pF 10V 10\u0025*%
%TO.CLbN,Capacitor_SMD*%
%TO.CMnt,SMD*%
%TO.CRot,0*%
X147870000Y-92300000D03*
D11*
X147320000Y-92100000D02*
X147320000Y-92500000D01*
X148420000Y-92500000D01*
X148420000Y-92100000D01*
X147320000Y-92100000D01*
D12*
%TO.P,C2,1*%
X147550000Y-92300000D03*
D13*
%TO.P,C2,2*%
X148190000Y-92300000D03*
%TD*%
D10*
%TO.C,U1*%
%TO.CFtp,QFN-32-1EP_5x5mm_P0.5mm_EP3.1x3.1mm*%
%TO.CVal,N52810_QFN32*%
%TO.CLbN,Pixels-dice*%
%TO.CMnt,SMD*%
%TO.CRot,-90*%
X145838085Y-86391742D03*
D11*
X148713085Y-83516742D02*
X142963085Y-83516742D01*
X142963085Y-89266742D01*
X148713085Y-89266742D01*
X148713085Y-83516742D01*
D12*
%TO.P,U1,1,DEC1*%
X147588085Y-83954242D03*
D13*
%TO.P,U1,2,P0.00/XL1*%
X147088085Y-83954242D03*
%TO.P,U1,3,P0.01/XL2*%
X146588085Y-83954242D03*
%TO.P,U1,4,P0.04/AIN2*%
X146088085Y-83954242D03*
%TO.P,U1,5,P0.05/AIN3*%
X145588085Y-83954242D03*
%TO.P,U1,6,P0.06*%
X145088085Y-83954242D03*
%TO.P,U1,7,P0.09*%
X144588085Y-83954242D03*
%TO.P,U1,8,P0.10*%
X144088085Y-83954242D03*
%TO.P,U1,9,VDD*%
X143400585Y-84641742D03*
%TO.P,U1,10,P0.12*%
X143400585Y-85141742D03*
%TO.P,U1,11,P0.14*%
X143400585Y-85641742D03*
%TO.P,U1,12,P0.15*%
X143400585Y-86141742D03*
%TO.P,U1,13,P0.16/TDATA1*%
X143400585Y-86641742D03*
%TO.P,U1,14,P0.18/TDATA0*%
X143400585Y-87141742D03*
%TO.P,U1,15,P0.20/TCLK*%
X143400585Y-87641742D03*
%TO.P,U1,16,P0.16*%
X143400585Y-88141742D03*
%TO.P,U1,17,SWDCLK*%
X144088085Y-88829242D03*
%TO.P,U1,18,SWDIO*%
X144588085Y-88829242D03*
%TO.P,U1,19,ANT*%
X145088085Y-88829242D03*
%TO.P,U1,20,VSS*%
X145588085Y-88829242D03*
%TO.P,U1,21,DEC2*%
X146088085Y-88829242D03*
%TO.P,U1,22,DEC3*%
X146588085Y-88829242D03*
%TO.P,U1,23,XC1*%
X147088085Y-88829242D03*
%TO.P,U1,24,XC2*%
X147588085Y-88829242D03*
%TO.P,U1,25,VDD*%
X148275585Y-88141742D03*
%TO.P,U1,26,P0.25*%
X148275585Y-87641742D03*
%TO.P,U1,27,P0.28/AIN4*%
X148275585Y-87141742D03*
%TO.P,U1,28,P0.30/AIN6*%
X148275585Y-86641742D03*
%TO.P,U1,29,VSS*%
X148275585Y-86141742D03*
%TO.P,U1,30,DEC4*%
X148275585Y-85641742D03*
%TO.P,U1,31,DCC*%
X148275585Y-85141742D03*
%TO.P,U1,32,VDD*%
X148275585Y-84641742D03*
%TO.P,U1,33,VSS*%
X145838085Y-86391742D03*
%TD*%
D10*
%TO.C,C8*%
%TO.CFtp,0402_RF*%
%TO.CVal,0.8pF 10V 5\u0025 C0G*%
%TO.CLbN,Pixels-dice*%
%TO.CMnt,SMD*%
%TO.CRot,0*%
X145490000Y-89770000D03*
D11*
X144800000Y-89520000D02*
X144800000Y-90020000D01*
X146180000Y-90020000D01*
X146180000Y-89520000D01*
X144800000Y-89520000D01*
D12*
%TO.P,C8,1*%
X145050000Y-89770000D03*
D13*
%TO.P,C8,2*%
X145930000Y-89770000D03*
%TD*%
D10*
%TO.C,C9*%
%TO.CFtp,C_0402_1005Metric*%
%TO.CVal,10uF 6.3V 20\u0025*%
%TO.CLbN,Pixels-dice*%
%TO.CMnt,SMD*%
%TO.CRot,-135*%
X149010589Y-82629411D03*
D11*
X149767193Y-82311213D02*
X149328787Y-81872807D01*
X148253985Y-82947609D01*
X148692391Y-83386015D01*
X149767193Y-82311213D01*
D12*
%TO.P,C9,1*%
X149350000Y-82290000D03*
D13*
%TO.P,C9,2*%
X148671178Y-82968822D03*
%TD*%
D10*
%TO.C,R4*%
%TO.CFtp,R_0201_0603Metric*%
%TO.CVal,10k 1\u0025*%
%TO.CLbN,Resistor_SMD*%
%TO.CMnt,SMD*%
%TO.CRot,179.5*%
X149250012Y-74237208D03*
D11*
X149798246Y-74442000D02*
X149801736Y-74042015D01*
X148701778Y-74032416D01*
X148698288Y-74432401D01*
X149798246Y-74442000D01*
D12*
%TO.P,R4,1*%
X149570000Y-74240000D03*
D13*
%TO.P,R4,2*%
X148930024Y-74234416D03*
%TD*%
D10*
%TO.C,R6*%
%TO.CFtp,R_0201_0603Metric*%
%TO.CVal,3.9k 1\u0025*%
%TO.CLbN,Resistor_SMD*%
%TO.CMnt,SMD*%
%TO.CRot,0.5*%
X142310012Y-77122792D03*
D11*
X141758288Y-76927599D02*
X141761778Y-77327584D01*
X142861736Y-77317985D01*
X142858246Y-76918000D01*
X141758288Y-76927599D01*
D12*
%TO.P,R6,1*%
X141990024Y-77125584D03*
D13*
%TO.P,R6,2*%
X142630000Y-77120000D03*
%TD*%
D10*
%TO.C,C13*%
%TO.CFtp,C_0402_1005Metric*%
%TO.CVal,4.7uF 25V 20\u0025*%
%TO.CLbN,Capacitor_SMD*%
%TO.CMnt,SMD*%
%TO.CRot,-90.5*%
X142794189Y-71720018D03*
D11*
X143110809Y-70962752D02*
X142490833Y-70957342D01*
X142477569Y-72477284D01*
X143097545Y-72482694D01*
X143110809Y-70962752D01*
D12*
%TO.P,C13,1*%
X142798378Y-71240036D03*
D13*
%TO.P,C13,2*%
X142790000Y-72200000D03*
%TD*%
D10*
%TO.C,C15*%
%TO.CFtp,C_0603_1608Metric*%
%TO.CVal,22uF 10V 20\u0025*%
%TO.CLbN,Capacitor_SMD*%
%TO.CMnt,SMD*%
%TO.CRot,179.5*%
X149335030Y-75283237D03*
D11*
X150555838Y-75768909D02*
X150564128Y-74818945D01*
X148114222Y-74797565D01*
X148105932Y-75747529D01*
X150555838Y-75768909D01*
D12*
%TO.P,C15,1*%
X150110000Y-75290000D03*
D13*
%TO.P,C15,2*%
X148560060Y-75276474D03*
%TD*%
D10*
%TO.C,C21*%
%TO.CFtp,C_0201_0603Metric*%
%TO.CVal,10nF 25V 10\u0025*%
%TO.CLbN,Capacitor_SMD*%
%TO.CMnt,SMD*%
%TO.CRot,-90.5*%
X145603011Y-79352945D03*
D11*
X145807803Y-78804711D02*
X145407818Y-78801221D01*
X145398219Y-79901179D01*
X145798204Y-79904669D01*
X145807803Y-78804711D01*
D12*
%TO.P,C21,1*%
X145605803Y-79032957D03*
D13*
%TO.P,C21,2*%
X145600219Y-79672933D03*
%TD*%
D10*
%TO.C,R7*%
%TO.CFtp,R_0201_0603Metric*%
%TO.CVal,3.9M 1\u0025*%
%TO.CLbN,Resistor_SMD*%
%TO.CMnt,SMD*%
%TO.CRot,-90.5*%
X144373230Y-78020014D03*
D11*
X144578022Y-77471780D02*
X144178037Y-77468290D01*
X144168438Y-78568248D01*
X144568423Y-78571738D01*
X144578022Y-77471780D01*
D12*
%TO.P,R7,1*%
X144376022Y-77700026D03*
D13*
%TO.P,R7,2*%
X144370438Y-78340002D03*
%TD*%
D10*
%TO.C,R2*%
%TO.CFtp,R_0201_0603Metric*%
%TO.CVal,3.9M 1\u0025*%
%TO.CLbN,Resistor_SMD*%
%TO.CMnt,SMD*%
%TO.CRot,89.5*%
X144974764Y-79345091D03*
D11*
X144769972Y-79893325D02*
X145169957Y-79896815D01*
X145179556Y-78796857D01*
X144779571Y-78793367D01*
X144769972Y-79893325D01*
D12*
%TO.P,R2,1*%
X144971972Y-79665079D03*
D13*
%TO.P,R2,2*%
X144977556Y-79025103D03*
%TD*%
D10*
%TO.C,R8*%
%TO.CFtp,R_0201_0603Metric*%
%TO.CVal,10M 1\u0025*%
%TO.CLbN,Resistor_SMD*%
%TO.CMnt,SMD*%
%TO.CRot,89.5*%
X145633011Y-78035013D03*
D11*
X145428219Y-78583247D02*
X145828204Y-78586737D01*
X145837803Y-77486779D01*
X145437818Y-77483289D01*
X145428219Y-78583247D01*
D12*
%TO.P,R8,1*%
X145630219Y-78355001D03*
D13*
%TO.P,R8,2*%
X145635803Y-77715025D03*
%TD*%
D10*
%TO.C,R1*%
%TO.CFtp,R_0201_0603Metric*%
%TO.CVal,3.9M 1\u0025*%
%TO.CLbN,Resistor_SMD*%
%TO.CMnt,SMD*%
%TO.CRot,89.5*%
X144357427Y-79334989D03*
D11*
X144152635Y-79883223D02*
X144552620Y-79886713D01*
X144562219Y-78786755D01*
X144162234Y-78783265D01*
X144152635Y-79883223D01*
D12*
%TO.P,R1,1*%
X144354635Y-79654977D03*
D13*
%TO.P,R1,2*%
X144360219Y-79015001D03*
%TD*%
D10*
%TO.C,C22*%
%TO.CFtp,C_0201_0603Metric*%
%TO.CVal,10nF 25V 10\u0025*%
%TO.CLbN,Capacitor_SMD*%
%TO.CMnt,SMD*%
%TO.CRot,89.5*%
X145005692Y-78030825D03*
D11*
X144800900Y-78579059D02*
X145200885Y-78582549D01*
X145210484Y-77482591D01*
X144810499Y-77479101D01*
X144800900Y-78579059D01*
D12*
%TO.P,C22,1*%
X145002900Y-78350813D03*
D13*
%TO.P,C22,2*%
X145008484Y-77710837D03*
%TD*%
D10*
%TO.C,Y1*%
%TO.CFtp,SX16Y032000B81T001*%
%TO.CVal,32MHz 40ppm*%
%TO.CLbN,Pixels-dice*%
%TO.CMnt,SMD*%
%TO.CRot,90*%
X147855000Y-91077500D03*
D11*
X147235000Y-91912500D02*
X148475000Y-91912500D01*
X148475000Y-90242500D01*
X147235000Y-90242500D01*
X147235000Y-91912500D01*
D12*
%TO.P,Y1,1,1*%
X148215000Y-91577500D03*
D13*
%TO.P,Y1,2,2*%
X148215000Y-90577500D03*
%TO.P,Y1,3,3*%
X147495000Y-90577500D03*
%TO.P,Y1,4,4*%
X147495000Y-91577500D03*
%TD*%
D10*
%TO.C,C11*%
%TO.CFtp,0402_RF*%
%TO.CVal,DNP*%
%TO.CLbN,Pixels-dice*%
%TO.CMnt,SMD*%
%TO.CRot,90*%
X142548085Y-90991742D03*
D11*
X142298085Y-91681742D02*
X142798085Y-91681742D01*
X142798085Y-90301742D01*
X142298085Y-90301742D01*
X142298085Y-91681742D01*
D12*
%TO.P,C11,1*%
X142548085Y-91431742D03*
D13*
%TO.P,C11,2*%
X142548085Y-90551742D03*
%TD*%
D10*
%TO.C,L5*%
%TO.CFtp,0402_RF*%
%TO.CVal,3.9nH 5\u0025*%
%TO.CLbN,Pixels-dice*%
%TO.CMnt,SMD*%
%TO.CRot,-90*%
X145448085Y-90991742D03*
D11*
X145698085Y-90301742D02*
X145198085Y-90301742D01*
X145198085Y-91681742D01*
X145698085Y-91681742D01*
X145698085Y-90301742D01*
D12*
%TO.P,L5,1,1*%
X145448085Y-90551742D03*
D13*
%TO.P,L5,2,2*%
X145448085Y-91431742D03*
%TD*%
D10*
%TO.C,U3*%
%TO.CFtp,SOT-23*%
%TO.CVal,PJ75BL50SA*%
%TO.CLbN,Pixels-dice*%
%TO.CMnt,SMD*%
%TO.CRot,-90*%
X148110000Y-71260000D03*
D11*
X149460000Y-69810000D02*
X146760000Y-69810000D01*
X146760000Y-72710000D01*
X149460000Y-72710000D01*
X149460000Y-69810000D01*
D12*
%TO.P,U3,1,VSS*%
X147160000Y-72260000D03*
D13*
%TO.P,U3,2,VOUT*%
X149060000Y-72260000D03*
%TO.P,U3,3,VIN*%
X148110000Y-70260000D03*
%TD*%
D10*
%TO.C,C24*%
%TO.CFtp,C_0201_0603Metric*%
%TO.CVal,0.1uF 10V 20\u0025*%
%TO.CLbN,Capacitor_SMD*%
%TO.CMnt,SMD*%
%TO.CRot,90*%
X145180000Y-74640000D03*
D11*
X144980000Y-75190000D02*
X145380000Y-75190000D01*
X145380000Y-74090000D01*
X144980000Y-74090000D01*
X144980000Y-75190000D01*
D12*
%TO.P,C24,1*%
X145180000Y-74960000D03*
D13*
%TO.P,C24,2*%
X145180000Y-74320000D03*
%TD*%
D10*
%TO.C,L3*%
%TO.CFtp,0402_RF*%
%TO.CVal,0 Ohm*%
%TO.CLbN,Pixels-dice*%
%TO.CMnt,SMD*%
%TO.CRot,180*%
X143638085Y-91431742D03*
D11*
X144328085Y-91681742D02*
X144328085Y-91181742D01*
X142948085Y-91181742D01*
X142948085Y-91681742D01*
X144328085Y-91681742D01*
D12*
%TO.P,L3,1,1*%
X144078085Y-91431742D03*
D13*
%TO.P,L3,2,2*%
X143198085Y-91431742D03*
%TD*%
D10*
%TO.C,D1*%
%TO.CFtp,SOT-363_SC-70-6*%
%TO.CVal,BAV99S*%
%TO.CLbN,Pixels-dice*%
%TO.CMnt,SMD*%
%TO.CRot,0*%
X140720000Y-71230000D03*
D11*
X139545000Y-70380000D02*
X139545000Y-72080000D01*
X141895000Y-72080000D01*
X141895000Y-70380000D01*
X139545000Y-70380000D01*
D12*
%TO.P,D1,1,A1*%
X139820000Y-70580000D03*
D13*
%TO.P,D1,2,K2*%
X139820000Y-71230000D03*
%TO.P,D1,3,K1A2*%
X139820000Y-71880000D03*
%TO.P,D1,4,A3*%
X141620000Y-71880000D03*
%TO.P,D1,5,K4*%
X141620000Y-71230000D03*
%TO.P,D1,6,K3A4*%
X141620000Y-70580000D03*
%TD*%
D10*
%TO.C,C12*%
%TO.CFtp,0402_RF*%
%TO.CVal,DNP*%
%TO.CLbN,Pixels-dice*%
%TO.CMnt,SMD*%
%TO.CRot,90*%
X144728085Y-90991742D03*
D11*
X144478085Y-91681742D02*
X144978085Y-91681742D01*
X144978085Y-90301742D01*
X144478085Y-90301742D01*
X144478085Y-91681742D01*
D12*
%TO.P,C12,1*%
X144728085Y-91431742D03*
D13*
%TO.P,C12,2*%
X144728085Y-90551742D03*
%TD*%
D10*
%TO.C,AE1*%
%TO.CFtp,CHIP_ANT*%
%TO.CVal,Antenna_Chip*%
%TO.CLbN,Pixels-dice*%
%TO.CMnt,SMD*%
%TO.CRot,-90*%
X143170000Y-93480001D03*
D11*
X146970001Y-92680001D02*
X142770000Y-92680001D01*
X142770000Y-94280002D01*
X146970001Y-94280002D01*
X146970001Y-92680001D01*
D12*
%TO.P,AE1,1,FEED*%
X143170000Y-93480001D03*
D13*
%TO.P,AE1,2,PCB_Trace*%
X146570001Y-93480002D03*
%TD*%
D10*
%TO.C,U9*%
%TO.CFtp,SOT-553*%
%TO.CVal,XT4051*%
%TO.CLbN,Package_TO_SOT_SMD*%
%TO.CMnt,SMD*%
%TO.CRot,-90*%
X143030000Y-78697500D03*
D11*
X143705000Y-77647500D02*
X142355000Y-77647500D01*
X142355000Y-79747500D01*
X143705000Y-79747500D01*
X143705000Y-77647500D01*
D12*
%TO.P,U9,1,BAT*%
X143530000Y-77985000D03*
D13*
%TO.P,U9,2,GND*%
X143030000Y-77985000D03*
%TO.P,U9,3,CHRG*%
X142530000Y-77985000D03*
%TO.P,U9,4,PROG*%
X142530000Y-79410000D03*
%TO.P,U9,5,VCC*%
X143530000Y-79410000D03*
%TD*%
D10*
%TO.C,C19*%
%TO.CFtp,C_0805_2012Metric*%
%TO.CVal,12nF 50V 5\u0025 NP0*%
%TO.CLbN,Capacitor_SMD*%
%TO.CMnt,SMD*%
%TO.CRot,180*%
X145590000Y-69530000D03*
D11*
X147040000Y-70255000D02*
X147040000Y-68805000D01*
X144140000Y-68805000D01*
X144140000Y-70255000D01*
X147040000Y-70255000D01*
D12*
%TO.P,C19,1*%
X146540000Y-69530000D03*
D13*
%TO.P,C19,2*%
X144640000Y-69530000D03*
%TD*%
M02*
