%TF.GenerationSoftware,KiCad,Pcbnew,9.0.3*%
%TF.CreationDate,2025-08-06T14:02:13+08:00*%
%TF.ProjectId,Main,4d61696e-2e6b-4696-9361-645f70636258,3*%
%TF.SameCoordinates,Original*%
%TF.FileFunction,Component,L2,Bot*%
%TF.FilePolarity,Positive*%
%FSLAX46Y46*%
G04 Gerber Fmt 4.6, Leading zero omitted, Abs format (unit mm)*
G04 Created by KiCad (PCBNEW 9.0.3) date 2025-08-06 14:02:13*
%MOMM*%
%LPD*%
G01*
G04 APERTURE LIST*
%TA.AperFunction,ComponentMain*%
%ADD10C,0.300000*%
%TD*%
%TA.AperFunction,ComponentOutline,Footprint*%
%ADD11C,0.100000*%
%TD*%
%TA.AperFunction,ComponentPin*%
%ADD12P,0.360000X4X0.000000*%
%TD*%
%TA.AperFunction,ComponentPin*%
%ADD13C,0.100000*%
%TD*%
G04 APERTURE END LIST*
D10*
%TO.C,D6*%
%TO.CFtp,TX1812MWCA5-F01*%
%TO.CVal,TX1812MJA5*%
%TO.CLbN,Pixels-dice*%
%TO.CMnt,SMD*%
%TO.CRot,45*%
X149000000Y-82680000D03*
D11*
X148876256Y-81354175D02*
X150325825Y-82803744D01*
X149123744Y-84005825D01*
X147674175Y-82556256D01*
X148876256Y-81354175D01*
D12*
%TO.P,D6,1,DOUT*%
X149866206Y-82839099D03*
D13*
%TO.P,D6,2,GND*%
X149159099Y-83546206D03*
%TO.P,D6,3,DIN*%
X148133794Y-82520901D03*
%TO.P,D6,4,VCC*%
X148840901Y-81813794D03*
%TD*%
D10*
%TO.C,C16*%
%TO.CFtp,C_0402_1005Metric*%
%TO.CVal,10uF 6.3V 20\u0025*%
%TO.CLbN,Pixels-dice*%
%TO.CMnt,SMD*%
%TO.CRot,-90*%
X158890000Y-82690000D03*
D11*
X159200000Y-83450000D02*
X158580000Y-83450000D01*
X158580000Y-81930000D01*
X159200000Y-81930000D01*
X159200000Y-83450000D01*
D12*
%TO.P,C16,1*%
X158890000Y-83170000D03*
D13*
%TO.P,C16,2*%
X158890000Y-82210000D03*
%TD*%
D10*
%TO.C,D2*%
%TO.CFtp,TX1812MWCA5-F01*%
%TO.CVal,TX1812MJA5*%
%TO.CLbN,Pixels-dice*%
%TO.CMnt,SMD*%
%TO.CRot,-90*%
X145120000Y-74620000D03*
D11*
X146145000Y-75470000D02*
X144095000Y-75470000D01*
X144095000Y-73770000D01*
X146145000Y-73770000D01*
X146145000Y-75470000D01*
D12*
%TO.P,D2,1,DOUT*%
X144395000Y-75120000D03*
D13*
%TO.P,D2,2,GND*%
X144395000Y-74120000D03*
%TO.P,D2,3,DIN*%
X145845000Y-74120000D03*
%TO.P,D2,4,VCC*%
X145845000Y-75120000D03*
%TD*%
D10*
%TO.C,U7*%
%TO.CFtp,UDFN-4-1EP_1x1mm_P0.65mm_EP0.48x0.48mm*%
%TO.CVal,DS6101*%
%TO.CLbN,Package_DFN_QFN*%
%TO.CMnt,SMD*%
%TO.CRot,-90*%
X181137500Y-111117500D03*
D11*
X181587500Y-111767500D02*
X180687500Y-111767500D01*
X180687500Y-110467500D01*
X181587500Y-110467500D01*
X181587500Y-111767500D01*
D12*
%TO.P,U7,1,BAT*%
X181462500Y-111657500D03*
D13*
%TO.P,U7,2,VSS*%
X180812500Y-111657500D03*
%TO.P,U7,3,SM*%
X180812500Y-110577500D03*
%TO.P,U7,4,EB-*%
X181462500Y-110577500D03*
%TO.P,U7,5,PAD*%
X181137500Y-111117500D03*
%TD*%
D10*
%TO.C,U5*%
%TO.CFtp,TDFN-8-1EP_3x2mm_P0.5mm_EP1.3x1.4mm*%
%TO.CVal,BL24C02F-NTRC*%
%TO.CLbN,Pixels-dice*%
%TO.CMnt,SMD*%
%TO.CRot,0.5*%
X160018067Y-90662823D03*
D11*
X161860361Y-89771712D02*
X161875632Y-91521646D01*
X158175773Y-91553934D01*
X158160502Y-89804000D01*
X161860361Y-89771712D01*
D12*
%TO.P,U5,1,A0*%
X161473966Y-89900089D03*
D13*
%TO.P,U5,2,A1*%
X161478330Y-90400070D03*
%TO.P,U5,3,A2*%
X161482693Y-90900051D03*
%TO.P,U5,4,GND*%
X161487056Y-91400032D03*
%TO.P,U5,5,SDA*%
X158562168Y-91425557D03*
%TO.P,U5,6,SCL*%
X158557804Y-90925576D03*
%TO.P,U5,7,WP*%
X158553441Y-90425595D03*
%TO.P,U5,8,VCC*%
X158549078Y-89925614D03*
%TO.P,U5,9*%
X160018067Y-90662823D03*
%TD*%
D10*
%TO.C,U8*%
%TO.CFtp,SOT-553*%
%TO.CVal,SL1605*%
%TO.CLbN,Package_TO_SOT_SMD*%
%TO.CMnt,SMD*%
%TO.CRot,-90*%
X184180000Y-98792500D03*
D11*
X184855000Y-99842500D02*
X183505000Y-99842500D01*
X183505000Y-97742500D01*
X184855000Y-97742500D01*
X184855000Y-99842500D01*
D12*
%TO.P,U8,1*%
X184680000Y-99505000D03*
D13*
%TO.P,U8,2,GND*%
X184180000Y-99505000D03*
%TO.P,U8,3*%
X183680000Y-99505000D03*
%TO.P,U8,4,VDD*%
X183680000Y-98080000D03*
%TO.P,U8,5,OUT*%
X184680000Y-98080000D03*
%TD*%
D10*
%TO.C,L1*%
%TO.CFtp,C_1.2x1.8*%
%TO.CVal,10uH 100mA 20\u0025*%
%TO.CLbN,Pixels-dice*%
%TO.CMnt,SMD*%
%TO.CRot,90*%
X149370000Y-85670000D03*
D11*
X148860000Y-84710000D02*
X149880000Y-84710000D01*
X149880000Y-86630000D01*
X148860000Y-86630000D01*
X148860000Y-84710000D01*
D12*
%TO.P,L1,1,1*%
X149370000Y-85030000D03*
D13*
%TO.P,L1,2,2*%
X149370000Y-86310000D03*
%TD*%
D10*
%TO.C,C3*%
%TO.CFtp,C_0201_0603Metric*%
%TO.CVal,0.1uF 10V 20\u0025*%
%TO.CLbN,Capacitor_SMD*%
%TO.CMnt,SMD*%
%TO.CRot,90*%
X147130000Y-83600000D03*
D11*
X146930000Y-83050000D02*
X147330000Y-83050000D01*
X147330000Y-84150000D01*
X146930000Y-84150000D01*
X146930000Y-83050000D01*
D12*
%TO.P,C3,1*%
X147130000Y-83280000D03*
D13*
%TO.P,C3,2*%
X147130000Y-83920000D03*
%TD*%
D10*
%TO.C,R10*%
%TO.CFtp,R_0201_0603Metric*%
%TO.CVal,3.9k 1\u0025*%
%TO.CLbN,Resistor_SMD*%
%TO.CMnt,SMD*%
%TO.CRot,0*%
X154810000Y-89250000D03*
D11*
X155360000Y-89050000D02*
X155360000Y-89450000D01*
X154260000Y-89450000D01*
X154260000Y-89050000D01*
X155360000Y-89050000D01*
D12*
%TO.P,R10,1*%
X155130000Y-89250000D03*
D13*
%TO.P,R10,2*%
X154490000Y-89250000D03*
%TD*%
D10*
%TO.C,C10*%
%TO.CFtp,C_0201_0603Metric*%
%TO.CVal,0.1uF 10V 20\u0025*%
%TO.CLbN,Capacitor_SMD*%
%TO.CMnt,SMD*%
%TO.CRot,-90*%
X147810000Y-87390000D03*
D11*
X148010000Y-87940000D02*
X147610000Y-87940000D01*
X147610000Y-86840000D01*
X148010000Y-86840000D01*
X148010000Y-87940000D01*
D12*
%TO.P,C10,1*%
X147810000Y-87710000D03*
D13*
%TO.P,C10,2*%
X147810000Y-87070000D03*
%TD*%
D10*
%TO.C,C23*%
%TO.CFtp,C_0201_0603Metric*%
%TO.CVal,0.1uF 10V 20\u0025*%
%TO.CLbN,Capacitor_SMD*%
%TO.CMnt,SMD*%
%TO.CRot,0*%
X180470000Y-112680000D03*
D11*
X181020000Y-112480000D02*
X181020000Y-112880000D01*
X179920000Y-112880000D01*
X179920000Y-112480000D01*
X181020000Y-112480000D01*
D12*
%TO.P,C23,1*%
X180790000Y-112680000D03*
D13*
%TO.P,C23,2*%
X180150000Y-112680000D03*
%TD*%
D10*
%TO.C,J2*%
%TO.CFtp,FPC-POGO-4*%
%TO.CVal,Conn_01x04*%
%TO.CLbN,Pixels-dice*%
%TO.CMnt,SMD*%
%TO.CRot,0*%
X128780000Y-85690000D03*
D11*
X133140000Y-84640000D02*
X133140000Y-86740000D01*
X124420000Y-86740000D01*
X124420000Y-84640000D01*
X133140000Y-84640000D01*
D12*
%TO.P,J2,1,Pin_1*%
X132590000Y-85690000D03*
D13*
%TO.P,J2,2,Pin_2*%
X130050000Y-85690000D03*
%TO.P,J2,3,Pin_3*%
X127510000Y-85690000D03*
%TO.P,J2,4,Pin_4*%
X124970000Y-85690000D03*
%TD*%
D10*
%TO.C,C18*%
%TO.CFtp,C_0402_1005Metric*%
%TO.CVal,4.7uF 10V 20\u0025*%
%TO.CLbN,Pixels-dice*%
%TO.CMnt,SMD*%
%TO.CRot,-90*%
X156680000Y-82690000D03*
D11*
X156990000Y-83450000D02*
X156370000Y-83450000D01*
X156370000Y-81930000D01*
X156990000Y-81930000D01*
X156990000Y-83450000D01*
D12*
%TO.P,C18,1*%
X156680000Y-83170000D03*
D13*
%TO.P,C18,2*%
X156680000Y-82210000D03*
%TD*%
D10*
%TO.C,U4*%
%TO.CFtp,FPB1_1-4*%
%TO.CVal,ME6230*%
%TO.CLbN,Pixels-dice*%
%TO.CMnt,SMD*%
%TO.CRot,-90*%
X157785000Y-82685000D03*
D11*
X158237500Y-83137500D02*
X157332500Y-83137500D01*
X157332500Y-82232500D01*
X158237500Y-82232500D01*
X158237500Y-83137500D01*
D12*
%TO.P,U4,1,VOUT*%
X157460000Y-83010000D03*
D13*
%TO.P,U4,*%
X157785000Y-82685000D03*
%TO.P,U4,2,VSS*%
X157460000Y-82360000D03*
%TO.P,U4,3,CE*%
X158110000Y-82360000D03*
%TO.P,U4,4,VIN*%
X158110000Y-83010000D03*
%TD*%
D10*
%TO.C,R9*%
%TO.CFtp,R_0201_0603Metric*%
%TO.CVal,100k 1\u0025*%
%TO.CLbN,Resistor_SMD*%
%TO.CMnt,SMD*%
%TO.CRot,90*%
X181820000Y-90320000D03*
D11*
X181620000Y-89770000D02*
X182020000Y-89770000D01*
X182020000Y-90870000D01*
X181620000Y-90870000D01*
X181620000Y-89770000D01*
D12*
%TO.P,R9,1*%
X181820000Y-90000000D03*
D13*
%TO.P,R9,2*%
X181820000Y-90640000D03*
%TD*%
D10*
%TO.C,C4*%
%TO.CFtp,C_0402_1005Metric*%
%TO.CVal,4.7uF 10V 20\u0025*%
%TO.CLbN,Pixels-dice*%
%TO.CMnt,SMD*%
%TO.CRot,180*%
X145140000Y-83950000D03*
D11*
X144380000Y-84260000D02*
X144380000Y-83640000D01*
X145900000Y-83640000D01*
X145900000Y-84260000D01*
X144380000Y-84260000D01*
D12*
%TO.P,C4,1*%
X144660000Y-83950000D03*
D13*
%TO.P,C4,2*%
X145620000Y-83950000D03*
%TD*%
D10*
%TO.C,J3*%
%TO.CFtp,Hongjie 10100 Solder Tabs*%
%TO.CVal,Conn_01x02*%
%TO.CLbN,Pixels-dice*%
%TO.CMnt,TH*%
%TO.CRot,0*%
X181130000Y-111076066D03*
D11*
X184880000Y-109970000D02*
X184880000Y-112176066D01*
X177380000Y-112176066D01*
X177380000Y-109970000D01*
X184880000Y-109970000D01*
D12*
%TO.P,J3,1,Pin_1*%
X183580000Y-111076066D03*
D13*
%TO.P,J3,2,Pin_2*%
X178680000Y-111070000D03*
%TD*%
D10*
%TO.C,J1*%
%TO.CFtp,FPC_14*%
%TO.CVal,Conn_01x14*%
%TO.CLbN,Pixels-dice*%
%TO.CMnt,SMD*%
%TO.CRot,90*%
X121680000Y-82280000D03*
D11*
X120680000Y-82130000D02*
X122680000Y-82130000D01*
X122680000Y-88930000D01*
X120680000Y-88930000D01*
X120680000Y-82130000D01*
D12*
%TO.P,J1,1,Pin_1*%
X121680000Y-82280000D03*
D13*
%TO.P,J1,2,Pin_2*%
X121680000Y-82779999D03*
%TO.P,J1,3,Pin_3*%
X121680000Y-83280000D03*
%TO.P,J1,4,Pin_4*%
X121680000Y-83780000D03*
%TO.P,J1,5,Pin_5*%
X121680000Y-84280001D03*
%TO.P,J1,6,Pin_6*%
X121680000Y-84780000D03*
%TO.P,J1,7,Pin_7*%
X121680000Y-85280000D03*
%TO.P,J1,8,Pin_8*%
X121680000Y-85780000D03*
%TO.P,J1,9,Pin_9*%
X121680000Y-86280000D03*
%TO.P,J1,10,Pin_10*%
X121680000Y-86780001D03*
%TO.P,J1,11,Pin_11*%
X121680000Y-87280000D03*
%TO.P,J1,12,Pin_12*%
X121680000Y-87780000D03*
%TO.P,J1,13,Pin_13*%
X121680000Y-88280000D03*
%TO.P,J1,14,Pin_14*%
X121680000Y-88780000D03*
%TD*%
D10*
%TO.C,L2*%
%TO.CFtp,L_0402_1005Metric*%
%TO.CVal,15nH 100mA 5\u0025*%
%TO.CLbN,Inductor_SMD*%
%TO.CMnt,SMD*%
%TO.CRot,-90*%
X148280000Y-85815000D03*
D11*
X148600000Y-86595000D02*
X147960000Y-86595000D01*
X147960000Y-85035000D01*
X148600000Y-85035000D01*
X148600000Y-86595000D01*
D12*
%TO.P,L2,1,1*%
X148280000Y-86300000D03*
D13*
%TO.P,L2,2,2*%
X148280000Y-85330000D03*
%TD*%
D10*
%TO.C,C1*%
%TO.CFtp,C_0402_1005Metric*%
%TO.CVal,4.7uF 10V 20\u0025*%
%TO.CLbN,Pixels-dice*%
%TO.CMnt,SMD*%
%TO.CRot,90*%
X147460000Y-85810000D03*
D11*
X147150000Y-85050000D02*
X147770000Y-85050000D01*
X147770000Y-86570000D01*
X147150000Y-86570000D01*
X147150000Y-85050000D01*
D12*
%TO.P,C1,1*%
X147460000Y-85330000D03*
D13*
%TO.P,C1,2*%
X147460000Y-86290000D03*
%TD*%
D10*
%TO.C,R12*%
%TO.CFtp,R_0201_0603Metric*%
%TO.CVal,510R 1\u0025*%
%TO.CLbN,Resistor_SMD*%
%TO.CMnt,SMD*%
%TO.CRot,0*%
X182030000Y-112670000D03*
D11*
X182580000Y-112470000D02*
X182580000Y-112870000D01*
X181480000Y-112870000D01*
X181480000Y-112470000D01*
X182580000Y-112470000D01*
D12*
%TO.P,R12,1*%
X182350000Y-112670000D03*
D13*
%TO.P,R12,2*%
X181710000Y-112670000D03*
%TD*%
D10*
%TO.C,U2*%
%TO.CFtp,LGA-12_2x2mm_P0.5mm*%
%TO.CVal,SC7A20HTR*%
%TO.CLbN,Package_LGA*%
%TO.CMnt,SMD*%
%TO.CRot,90*%
X156107500Y-90712500D03*
D11*
X155157500Y-89762500D02*
X157057500Y-89762500D01*
X157057500Y-91662500D01*
X155157500Y-91662500D01*
X155157500Y-89762500D01*
D12*
%TO.P,U2,1,ADDR*%
X155357500Y-89950000D03*
D13*
%TO.P,U2,2,SDA*%
X155857500Y-89950000D03*
%TO.P,U2,3,IO_VDD*%
X156357500Y-89950000D03*
%TO.P,U2,4,NC*%
X156857500Y-89950000D03*
%TO.P,U2,5,INT1*%
X156870000Y-90462500D03*
%TO.P,U2,6,INT2*%
X156870000Y-90962500D03*
%TO.P,U2,7,VDD*%
X156857500Y-91475000D03*
%TO.P,U2,8,GND*%
X156357500Y-91475000D03*
%TO.P,U2,9,GND*%
X155857500Y-91475000D03*
%TO.P,U2,10,CS*%
X155357500Y-91475000D03*
%TO.P,U2,11,NC*%
X155345000Y-90962500D03*
%TO.P,U2,12,SCL*%
X155345000Y-90462500D03*
%TD*%
D10*
%TO.C,R5*%
%TO.CFtp,R_0201_0603Metric*%
%TO.CVal,10k 1\u0025*%
%TO.CLbN,Resistor_SMD*%
%TO.CMnt,SMD*%
%TO.CRot,-90*%
X176950000Y-98780000D03*
D11*
X177150000Y-99330000D02*
X176750000Y-99330000D01*
X176750000Y-98230000D01*
X177150000Y-98230000D01*
X177150000Y-99330000D01*
D12*
%TO.P,R5,1*%
X176950000Y-99100000D03*
D13*
%TO.P,R5,2*%
X176950000Y-98460000D03*
%TD*%
D10*
%TO.C,D5*%
%TO.CFtp,TX1812MWCA5-F01*%
%TO.CVal,TX1812MJA5*%
%TO.CLbN,Pixels-dice*%
%TO.CMnt,SMD*%
%TO.CRot,90*%
X145020000Y-86767500D03*
D11*
X143995000Y-85917500D02*
X146045000Y-85917500D01*
X146045000Y-87617500D01*
X143995000Y-87617500D01*
X143995000Y-85917500D01*
D12*
%TO.P,D5,1,DOUT*%
X145745000Y-86267500D03*
D13*
%TO.P,D5,2,GND*%
X145745000Y-87267500D03*
%TO.P,D5,3,DIN*%
X144295000Y-87267500D03*
%TO.P,D5,4,VCC*%
X144295000Y-86267500D03*
%TD*%
D10*
%TO.C,D3*%
%TO.CFtp,TX1812MWCA5-F01*%
%TO.CVal,TX1812MJA5*%
%TO.CLbN,Pixels-dice*%
%TO.CMnt,SMD*%
%TO.CRot,-90*%
X141022500Y-82730000D03*
D11*
X142047500Y-83580000D02*
X139997500Y-83580000D01*
X139997500Y-81880000D01*
X142047500Y-81880000D01*
X142047500Y-83580000D01*
D12*
%TO.P,D3,1,DOUT*%
X140297500Y-83230000D03*
D13*
%TO.P,D3,2,GND*%
X140297500Y-82230000D03*
%TO.P,D3,3,DIN*%
X141747500Y-82230000D03*
%TO.P,D3,4,VCC*%
X141747500Y-83230000D03*
%TD*%
D10*
%TO.C,D27*%
%TO.CFtp,TX1812MWCA5-F01*%
%TO.CVal,TX1812MJA5*%
%TO.CLbN,Pixels-dice*%
%TO.CMnt,SMD*%
%TO.CRot,180*%
X185360000Y-102917500D03*
D11*
X184510000Y-103942500D02*
X184510000Y-101892500D01*
X186210000Y-101892500D01*
X186210000Y-103942500D01*
X184510000Y-103942500D01*
D12*
%TO.P,D27,1,DOUT*%
X184860000Y-102192500D03*
D13*
%TO.P,D27,2,GND*%
X185860000Y-102192500D03*
%TO.P,D27,3,DIN*%
X185860000Y-103642500D03*
%TO.P,D27,4,VCC*%
X184860000Y-103642500D03*
%TD*%
D10*
%TO.C,R19*%
%TO.CFtp,R_0201_0603Metric*%
%TO.CVal,0R*%
%TO.CLbN,Resistor_SMD*%
%TO.CMnt,SMD*%
%TO.CRot,0*%
X180950000Y-96150000D03*
D11*
X181500000Y-95950000D02*
X181500000Y-96350000D01*
X180400000Y-96350000D01*
X180400000Y-95950000D01*
X181500000Y-95950000D01*
D12*
%TO.P,R19,1*%
X181270000Y-96150000D03*
D13*
%TO.P,R19,2*%
X180630000Y-96150000D03*
%TD*%
D10*
%TO.C,TH1*%
%TO.CFtp,R_0402_1005Metric*%
%TO.CVal,NTC 100k @ 25C*%
%TO.CLbN,Pixels-dice*%
%TO.CMnt,SMD*%
%TO.CRot,0*%
X181310000Y-91430000D03*
D11*
X182090000Y-91110000D02*
X182090000Y-91750000D01*
X180530000Y-91750000D01*
X180530000Y-91110000D01*
X182090000Y-91110000D01*
D12*
%TO.P,TH1,1*%
X181820000Y-91430000D03*
D13*
%TO.P,TH1,2*%
X180800000Y-91430000D03*
%TD*%
D10*
%TO.C,D4*%
%TO.CFtp,TX1812MWCA5-F01*%
%TO.CVal,TX1812MJA5*%
%TO.CLbN,Pixels-dice*%
%TO.CMnt,SMD*%
%TO.CRot,90*%
X141012500Y-90740000D03*
D11*
X139987500Y-89890000D02*
X142037500Y-89890000D01*
X142037500Y-91590000D01*
X139987500Y-91590000D01*
X139987500Y-89890000D01*
D12*
%TO.P,D4,1,DOUT*%
X141737500Y-90240000D03*
D13*
%TO.P,D4,2,GND*%
X141737500Y-91240000D03*
%TO.P,D4,3,DIN*%
X140287500Y-91240000D03*
%TO.P,D4,4,VCC*%
X140287500Y-90240000D03*
%TD*%
D10*
%TO.C,D25*%
%TO.CFtp,TX1812MWCA5-F01*%
%TO.CVal,TX1812MJA5*%
%TO.CLbN,Pixels-dice*%
%TO.CMnt,SMD*%
%TO.CRot,90*%
X177150000Y-102887500D03*
D11*
X176125000Y-102037500D02*
X178175000Y-102037500D01*
X178175000Y-103737500D01*
X176125000Y-103737500D01*
X176125000Y-102037500D01*
D12*
%TO.P,D25,1,DOUT*%
X177875000Y-102387500D03*
D13*
%TO.P,D25,2,GND*%
X177875000Y-103387500D03*
%TO.P,D25,3,DIN*%
X176425000Y-103387500D03*
%TO.P,D25,4,VCC*%
X176425000Y-102387500D03*
%TD*%
D10*
%TO.C,R13*%
%TO.CFtp,R_0201_0603Metric*%
%TO.CVal,0R*%
%TO.CLbN,Resistor_SMD*%
%TO.CMnt,SMD*%
%TO.CRot,180*%
X157490000Y-85440000D03*
D11*
X156940000Y-85640000D02*
X156940000Y-85240000D01*
X158040000Y-85240000D01*
X158040000Y-85640000D01*
X156940000Y-85640000D01*
D12*
%TO.P,R13,1*%
X157170000Y-85440000D03*
D13*
%TO.P,R13,2*%
X157810000Y-85440000D03*
%TD*%
D10*
%TO.C,D21*%
%TO.CFtp,TX1812MWCA5-F01*%
%TO.CVal,TX1812MJA5*%
%TO.CLbN,Pixels-dice*%
%TO.CMnt,SMD*%
%TO.CRot,0*%
X185380000Y-94987500D03*
D11*
X186230000Y-93962500D02*
X186230000Y-96012500D01*
X184530000Y-96012500D01*
X184530000Y-93962500D01*
X186230000Y-93962500D01*
D12*
%TO.P,D21,1,DOUT*%
X185880000Y-95712500D03*
D13*
%TO.P,D21,2,GND*%
X184880000Y-95712500D03*
%TO.P,D21,3,DIN*%
X184880000Y-94262500D03*
%TO.P,D21,4,VCC*%
X185880000Y-94262500D03*
%TD*%
D10*
%TO.C,R16*%
%TO.CFtp,R_0201_0603Metric*%
%TO.CVal,0R*%
%TO.CLbN,Resistor_SMD*%
%TO.CMnt,SMD*%
%TO.CRot,-90*%
X179380000Y-81625000D03*
D11*
X179580000Y-82175000D02*
X179180000Y-82175000D01*
X179180000Y-81075000D01*
X179580000Y-81075000D01*
X179580000Y-82175000D01*
D12*
%TO.P,R16,1*%
X179380000Y-81945000D03*
D13*
%TO.P,R16,2*%
X179380000Y-81305000D03*
%TD*%
D10*
%TO.C,Q1*%
%TO.CFtp,D_0603_1608Metric*%
%TO.CVal,ZSPT-Z1608C-06F-Z4*%
%TO.CLbN,Diode_SMD*%
%TO.CMnt,SMD*%
%TO.CRot,180*%
X178720000Y-98730000D03*
D11*
X177495000Y-99205000D02*
X177495000Y-98255000D01*
X179945000Y-98255000D01*
X179945000Y-99205000D01*
X177495000Y-99205000D01*
D12*
%TO.P,Q1,1,C*%
X177932500Y-98730000D03*
D13*
%TO.P,Q1,2,E*%
X179507500Y-98730000D03*
%TD*%
D10*
%TO.C,R18*%
%TO.CFtp,R_0201_0603Metric*%
%TO.CVal,0R*%
%TO.CLbN,Resistor_SMD*%
%TO.CMnt,SMD*%
%TO.CRot,90*%
X176060000Y-96630000D03*
D11*
X175860000Y-96080000D02*
X176260000Y-96080000D01*
X176260000Y-97180000D01*
X175860000Y-97180000D01*
X175860000Y-96080000D01*
D12*
%TO.P,R18,1*%
X176060000Y-96310000D03*
D13*
%TO.P,R18,2*%
X176060000Y-96950000D03*
%TD*%
D10*
%TO.C,D15*%
%TO.CFtp,TX1812MWCA5-F01*%
%TO.CVal,TX1812MJA5*%
%TO.CLbN,Pixels-dice*%
%TO.CMnt,SMD*%
%TO.CRot,90*%
X173120000Y-90690000D03*
D11*
X172095000Y-89840000D02*
X174145000Y-89840000D01*
X174145000Y-91540000D01*
X172095000Y-91540000D01*
X172095000Y-89840000D01*
D12*
%TO.P,D15,1,DOUT*%
X173845000Y-90190000D03*
D13*
%TO.P,D15,2,GND*%
X173845000Y-91190000D03*
%TO.P,D15,3,DIN*%
X172395000Y-91190000D03*
%TO.P,D15,4,VCC*%
X172395000Y-90190000D03*
%TD*%
D10*
%TO.C,D23*%
%TO.CFtp,TX1812MWCA5-F01*%
%TO.CVal,TX1812MJA5*%
%TO.CLbN,Pixels-dice*%
%TO.CMnt,SMD*%
%TO.CRot,-90*%
X177180000Y-94950000D03*
D11*
X178205000Y-95800000D02*
X176155000Y-95800000D01*
X176155000Y-94100000D01*
X178205000Y-94100000D01*
X178205000Y-95800000D01*
D12*
%TO.P,D23,1,DOUT*%
X176455000Y-95450000D03*
D13*
%TO.P,D23,2,GND*%
X176455000Y-94450000D03*
%TO.P,D23,3,DIN*%
X177905000Y-94450000D03*
%TO.P,D23,4,VCC*%
X177905000Y-95450000D03*
%TD*%
D10*
%TO.C,D12*%
%TO.CFtp,TX1812MWCA5-F01*%
%TO.CVal,TX1812MJA5*%
%TO.CLbN,Pixels-dice*%
%TO.CMnt,SMD*%
%TO.CRot,90*%
X165140000Y-82710000D03*
D11*
X164115000Y-81860000D02*
X166165000Y-81860000D01*
X166165000Y-83560000D01*
X164115000Y-83560000D01*
X164115000Y-81860000D01*
D12*
%TO.P,D12,1,DOUT*%
X165865000Y-82210000D03*
D13*
%TO.P,D12,2,GND*%
X165865000Y-83210000D03*
%TO.P,D12,3,DIN*%
X164415000Y-83210000D03*
%TO.P,D12,4,VCC*%
X164415000Y-82210000D03*
%TD*%
D10*
%TO.C,R14*%
%TO.CFtp,R_0201_0603Metric*%
%TO.CVal,0R*%
%TO.CLbN,Resistor_SMD*%
%TO.CMnt,SMD*%
%TO.CRot,-90*%
X139610000Y-90870000D03*
D11*
X139810000Y-91420000D02*
X139410000Y-91420000D01*
X139410000Y-90320000D01*
X139810000Y-90320000D01*
X139810000Y-91420000D01*
D12*
%TO.P,R14,1*%
X139610000Y-91190000D03*
D13*
%TO.P,R14,2*%
X139610000Y-90550000D03*
%TD*%
D10*
%TO.C,R21*%
%TO.CFtp,R_0201_0603Metric*%
%TO.CVal,0R*%
%TO.CLbN,Resistor_SMD*%
%TO.CMnt,SMD*%
%TO.CRot,-90*%
X179740000Y-102730000D03*
D11*
X179940000Y-103280000D02*
X179540000Y-103280000D01*
X179540000Y-102180000D01*
X179940000Y-102180000D01*
X179940000Y-103280000D01*
D12*
%TO.P,R21,1*%
X179740000Y-103050000D03*
D13*
%TO.P,R21,2*%
X179740000Y-102410000D03*
%TD*%
D10*
%TO.C,C6*%
%TO.CFtp,C_0201_0603Metric*%
%TO.CVal,0.1uF 10V 20\u0025*%
%TO.CLbN,Capacitor_SMD*%
%TO.CMnt,SMD*%
%TO.CRot,-90*%
X177260000Y-101260000D03*
D11*
X177460000Y-101810000D02*
X177060000Y-101810000D01*
X177060000Y-100710000D01*
X177460000Y-100710000D01*
X177460000Y-101810000D01*
D12*
%TO.P,C6,1*%
X177260000Y-101580000D03*
D13*
%TO.P,C6,2*%
X177260000Y-100940000D03*
%TD*%
D10*
%TO.C,D7*%
%TO.CFtp,TX1812MWCA5-F01*%
%TO.CVal,TX1812MJA5*%
%TO.CLbN,Pixels-dice*%
%TO.CMnt,SMD*%
%TO.CRot,-90*%
X149027500Y-90740000D03*
D11*
X150052500Y-91590000D02*
X148002500Y-91590000D01*
X148002500Y-89890000D01*
X150052500Y-89890000D01*
X150052500Y-91590000D01*
D12*
%TO.P,D7,1,DOUT*%
X148302500Y-91240000D03*
D13*
%TO.P,D7,2,GND*%
X148302500Y-90240000D03*
%TO.P,D7,3,DIN*%
X149752500Y-90240000D03*
%TO.P,D7,4,VCC*%
X149752500Y-91240000D03*
%TD*%
D10*
%TO.C,D24*%
%TO.CFtp,TX1812MWCA5-F01*%
%TO.CVal,TX1812MJA5*%
%TO.CLbN,Pixels-dice*%
%TO.CMnt,SMD*%
%TO.CRot,0*%
X181257500Y-98787500D03*
D11*
X182107500Y-97762500D02*
X182107500Y-99812500D01*
X180407500Y-99812500D01*
X180407500Y-97762500D01*
X182107500Y-97762500D01*
D12*
%TO.P,D24,1,DOUT*%
X181757500Y-99512500D03*
D13*
%TO.P,D24,2,GND*%
X180757500Y-99512500D03*
%TO.P,D24,3,DIN*%
X180757500Y-98062500D03*
%TO.P,D24,4,VCC*%
X181757500Y-98062500D03*
%TD*%
D10*
%TO.C,R3*%
%TO.CFtp,R_0201_0603Metric*%
%TO.CVal,0R*%
%TO.CLbN,Resistor_SMD*%
%TO.CMnt,SMD*%
%TO.CRot,180*%
X142510000Y-84050000D03*
D11*
X141960000Y-84250000D02*
X141960000Y-83850000D01*
X143060000Y-83850000D01*
X143060000Y-84250000D01*
X141960000Y-84250000D01*
D12*
%TO.P,R3,1*%
X142190000Y-84050000D03*
D13*
%TO.P,R3,2*%
X142830000Y-84050000D03*
%TD*%
D10*
%TO.C,D9*%
%TO.CFtp,TX1812MWCA5-F01*%
%TO.CVal,TX1812MJA5*%
%TO.CLbN,Pixels-dice*%
%TO.CMnt,SMD*%
%TO.CRot,90*%
X157082500Y-86750000D03*
D11*
X156057500Y-85900000D02*
X158107500Y-85900000D01*
X158107500Y-87600000D01*
X156057500Y-87600000D01*
X156057500Y-85900000D01*
D12*
%TO.P,D9,1,DOUT*%
X157807500Y-86250000D03*
D13*
%TO.P,D9,2,GND*%
X157807500Y-87250000D03*
%TO.P,D9,3,DIN*%
X156357500Y-87250000D03*
%TO.P,D9,4,VCC*%
X156357500Y-86250000D03*
%TD*%
D10*
%TO.C,D16*%
%TO.CFtp,TX1812MWCA5-F01*%
%TO.CVal,TX1812MJA5*%
%TO.CLbN,Pixels-dice*%
%TO.CMnt,SMD*%
%TO.CRot,0*%
X177230000Y-90850000D03*
D11*
X178080000Y-89825000D02*
X178080000Y-91875000D01*
X176380000Y-91875000D01*
X176380000Y-89825000D01*
X178080000Y-89825000D01*
D12*
%TO.P,D16,1,DOUT*%
X177730000Y-91575000D03*
D13*
%TO.P,D16,2,GND*%
X176730000Y-91575000D03*
%TO.P,D16,3,DIN*%
X176730000Y-90125000D03*
%TO.P,D16,4,VCC*%
X177730000Y-90125000D03*
%TD*%
D10*
%TO.C,R15*%
%TO.CFtp,R_0201_0603Metric*%
%TO.CVal,0R*%
%TO.CLbN,Resistor_SMD*%
%TO.CMnt,SMD*%
%TO.CRot,180*%
X146890000Y-82530000D03*
D11*
X146340000Y-82730000D02*
X146340000Y-82330000D01*
X147440000Y-82330000D01*
X147440000Y-82730000D01*
X146340000Y-82730000D01*
D12*
%TO.P,R15,1*%
X146570000Y-82530000D03*
D13*
%TO.P,R15,2*%
X147210000Y-82530000D03*
%TD*%
D10*
%TO.C,D20*%
%TO.CFtp,TX1812MWCA5-F01*%
%TO.CVal,TX1812MJA5*%
%TO.CLbN,Pixels-dice*%
%TO.CMnt,SMD*%
%TO.CRot,0*%
X184880000Y-90812500D03*
D11*
X185730000Y-89787500D02*
X185730000Y-91837500D01*
X184030000Y-91837500D01*
X184030000Y-89787500D01*
X185730000Y-89787500D01*
D12*
%TO.P,D20,1,DOUT*%
X185380000Y-91537500D03*
D13*
%TO.P,D20,2,GND*%
X184380000Y-91537500D03*
%TO.P,D20,3,DIN*%
X184380000Y-90087500D03*
%TO.P,D20,4,VCC*%
X185380000Y-90087500D03*
%TD*%
D10*
%TO.C,R20*%
%TO.CFtp,R_0201_0603Metric*%
%TO.CVal,0R*%
%TO.CLbN,Resistor_SMD*%
%TO.CMnt,SMD*%
%TO.CRot,0*%
X177073752Y-96586190D03*
D11*
X177623752Y-96386190D02*
X177623752Y-96786190D01*
X176523752Y-96786190D01*
X176523752Y-96386190D01*
X177623752Y-96386190D01*
D12*
%TO.P,R20,1*%
X177393752Y-96586190D03*
D13*
%TO.P,R20,2*%
X176753752Y-96586190D03*
%TD*%
D10*
%TO.C,D13*%
%TO.CFtp,TX1812MWCA5-F01*%
%TO.CVal,TX1812MJA5*%
%TO.CLbN,Pixels-dice*%
%TO.CMnt,SMD*%
%TO.CRot,90*%
X169130000Y-86747500D03*
D11*
X168105000Y-85897500D02*
X170155000Y-85897500D01*
X170155000Y-87597500D01*
X168105000Y-87597500D01*
X168105000Y-85897500D01*
D12*
%TO.P,D13,1,DOUT*%
X169855000Y-86247500D03*
D13*
%TO.P,D13,2,GND*%
X169855000Y-87247500D03*
%TO.P,D13,3,DIN*%
X168405000Y-87247500D03*
%TO.P,D13,4,VCC*%
X168405000Y-86247500D03*
%TD*%
D10*
%TO.C,D8*%
%TO.CFtp,TX1812MWCA5-F01*%
%TO.CVal,TX1812MJA5*%
%TO.CLbN,Pixels-dice*%
%TO.CMnt,SMD*%
%TO.CRot,90*%
X153022500Y-90700000D03*
D11*
X151997500Y-89850000D02*
X154047500Y-89850000D01*
X154047500Y-91550000D01*
X151997500Y-91550000D01*
X151997500Y-89850000D01*
D12*
%TO.P,D8,1,DOUT*%
X153747500Y-90200000D03*
D13*
%TO.P,D8,2,GND*%
X153747500Y-91200000D03*
%TO.P,D8,3,DIN*%
X152297500Y-91200000D03*
%TO.P,D8,4,VCC*%
X152297500Y-90200000D03*
%TD*%
D10*
%TO.C,D19*%
%TO.CFtp,TX1812MWCA5-F01*%
%TO.CVal,TX1812MJA5*%
%TO.CLbN,Pixels-dice*%
%TO.CMnt,SMD*%
%TO.CRot,0*%
X185202500Y-82820000D03*
D11*
X186052500Y-81795000D02*
X186052500Y-83845000D01*
X184352500Y-83845000D01*
X184352500Y-81795000D01*
X186052500Y-81795000D01*
D12*
%TO.P,D19,1,DOUT*%
X185702500Y-83545000D03*
D13*
%TO.P,D19,2,GND*%
X184702500Y-83545000D03*
%TO.P,D19,3,DIN*%
X184702500Y-82095000D03*
%TO.P,D19,4,VCC*%
X185702500Y-82095000D03*
%TD*%
D10*
%TO.C,D17*%
%TO.CFtp,TX1812MWCA5-F01*%
%TO.CVal,TX1812MJA5*%
%TO.CLbN,Pixels-dice*%
%TO.CMnt,SMD*%
%TO.CRot,180*%
X181230000Y-86752500D03*
D11*
X180380000Y-87777500D02*
X180380000Y-85727500D01*
X182080000Y-85727500D01*
X182080000Y-87777500D01*
X180380000Y-87777500D01*
D12*
%TO.P,D17,1,DOUT*%
X180730000Y-86027500D03*
D13*
%TO.P,D17,2,GND*%
X181730000Y-86027500D03*
%TO.P,D17,3,DIN*%
X181730000Y-87477500D03*
%TO.P,D17,4,VCC*%
X180730000Y-87477500D03*
%TD*%
D10*
%TO.C,D22*%
%TO.CFtp,TX1812MWCA5-F01*%
%TO.CVal,TX1812MJA5*%
%TO.CLbN,Pixels-dice*%
%TO.CMnt,SMD*%
%TO.CRot,-90*%
X181267500Y-94950000D03*
D11*
X182292500Y-95800000D02*
X180242500Y-95800000D01*
X180242500Y-94100000D01*
X182292500Y-94100000D01*
X182292500Y-95800000D01*
D12*
%TO.P,D22,1,DOUT*%
X180542500Y-95450000D03*
D13*
%TO.P,D22,2,GND*%
X180542500Y-94450000D03*
%TO.P,D22,3,DIN*%
X181992500Y-94450000D03*
%TO.P,D22,4,VCC*%
X181992500Y-95450000D03*
%TD*%
D10*
%TO.C,D26*%
%TO.CFtp,TX1812MWCA5-F01*%
%TO.CVal,TX1812MJA5*%
%TO.CLbN,Pixels-dice*%
%TO.CMnt,SMD*%
%TO.CRot,90*%
X181282500Y-102930000D03*
D11*
X180257500Y-102080000D02*
X182307500Y-102080000D01*
X182307500Y-103780000D01*
X180257500Y-103780000D01*
X180257500Y-102080000D01*
D12*
%TO.P,D26,1,DOUT*%
X182007500Y-102430000D03*
D13*
%TO.P,D26,2,GND*%
X182007500Y-103430000D03*
%TO.P,D26,3,DIN*%
X180557500Y-103430000D03*
%TO.P,D26,4,VCC*%
X180557500Y-102430000D03*
%TD*%
D10*
%TO.C,R11*%
%TO.CFtp,R_0201_0603Metric*%
%TO.CVal,3.9k 1\u0025*%
%TO.CLbN,Resistor_SMD*%
%TO.CMnt,SMD*%
%TO.CRot,0*%
X156090000Y-89260000D03*
D11*
X156640000Y-89060000D02*
X156640000Y-89460000D01*
X155540000Y-89460000D01*
X155540000Y-89060000D01*
X156640000Y-89060000D01*
D12*
%TO.P,R11,1*%
X156410000Y-89260000D03*
D13*
%TO.P,R11,2*%
X155770000Y-89260000D03*
%TD*%
D10*
%TO.C,R22*%
%TO.CFtp,R_0201_0603Metric*%
%TO.CVal,0R*%
%TO.CLbN,Resistor_SMD*%
%TO.CMnt,SMD*%
%TO.CRot,-90*%
X184010000Y-102420000D03*
D11*
X184210000Y-102970000D02*
X183810000Y-102970000D01*
X183810000Y-101870000D01*
X184210000Y-101870000D01*
X184210000Y-102970000D01*
D12*
%TO.P,R22,1*%
X184010000Y-102740000D03*
D13*
%TO.P,R22,2*%
X184010000Y-102100000D03*
%TD*%
D10*
%TO.C,D11*%
%TO.CFtp,TX1812MWCA5-F01*%
%TO.CVal,TX1812MJA5*%
%TO.CLbN,Pixels-dice*%
%TO.CMnt,SMD*%
%TO.CRot,90*%
X161020000Y-82710000D03*
D11*
X159995000Y-81860000D02*
X162045000Y-81860000D01*
X162045000Y-83560000D01*
X159995000Y-83560000D01*
X159995000Y-81860000D01*
D12*
%TO.P,D11,1,DOUT*%
X161745000Y-82210000D03*
D13*
%TO.P,D11,2,GND*%
X161745000Y-83210000D03*
%TO.P,D11,3,DIN*%
X160295000Y-83210000D03*
%TO.P,D11,4,VCC*%
X160295000Y-82210000D03*
%TD*%
D10*
%TO.C,C25*%
%TO.CFtp,C_0201_0603Metric*%
%TO.CVal,0.1uF 10V 20\u0025*%
%TO.CLbN,Capacitor_SMD*%
%TO.CMnt,SMD*%
%TO.CRot,180*%
X172820000Y-89350000D03*
D11*
X172270000Y-89550000D02*
X172270000Y-89150000D01*
X173370000Y-89150000D01*
X173370000Y-89550000D01*
X172270000Y-89550000D01*
D12*
%TO.P,C25,1*%
X172500000Y-89350000D03*
D13*
%TO.P,C25,2*%
X173140000Y-89350000D03*
%TD*%
D10*
%TO.C,R17*%
%TO.CFtp,R_0201_0603Metric*%
%TO.CVal,0R*%
%TO.CLbN,Resistor_SMD*%
%TO.CMnt,SMD*%
%TO.CRot,180*%
X184710000Y-89070000D03*
D11*
X184160000Y-89270000D02*
X184160000Y-88870000D01*
X185260000Y-88870000D01*
X185260000Y-89270000D01*
X184160000Y-89270000D01*
D12*
%TO.P,R17,1*%
X184390000Y-89070000D03*
D13*
%TO.P,R17,2*%
X185030000Y-89070000D03*
%TD*%
D10*
%TO.C,U10*%
%TO.CFtp,DFN1109-6*%
%TO.CVal,WAS3157D-6/TR*%
%TO.CLbN,Pixels-dice*%
%TO.CMnt,SMD*%
%TO.CRot,0*%
X180750000Y-90340000D03*
D11*
X181250000Y-89940000D02*
X181250000Y-90740000D01*
X180250000Y-90740000D01*
X180250000Y-89940000D01*
X181250000Y-89940000D01*
D12*
%TO.P,U10,1,B0*%
X181150000Y-90590000D03*
D13*
%TO.P,U10,2,GND*%
X180750000Y-90590000D03*
%TO.P,U10,3,B1*%
X180350000Y-90590000D03*
%TO.P,U10,4,S*%
X180350000Y-90090000D03*
%TO.P,U10,5,VCC*%
X180750000Y-90090000D03*
%TO.P,U10,6,A*%
X181150000Y-90090000D03*
%TD*%
D10*
%TO.C,D18*%
%TO.CFtp,TX1812MWCA5-F01*%
%TO.CVal,TX1812MJA5*%
%TO.CLbN,Pixels-dice*%
%TO.CMnt,SMD*%
%TO.CRot,180*%
X177450000Y-82822500D03*
D11*
X176600000Y-83847500D02*
X176600000Y-81797500D01*
X178300000Y-81797500D01*
X178300000Y-83847500D01*
X176600000Y-83847500D01*
D12*
%TO.P,D18,1,DOUT*%
X176950000Y-82097500D03*
D13*
%TO.P,D18,2,GND*%
X177950000Y-82097500D03*
%TO.P,D18,3,DIN*%
X177950000Y-83547500D03*
%TO.P,D18,4,VCC*%
X176950000Y-83547500D03*
%TD*%
M02*
