  0
SECTION
  2
HEADER
  9
$ANGBASE
  50
0.0
  9
$ANGDIR
  70
1
  9
$MEASUREMENT
  70
0
  0
ENDSEC
  0
SECTION
  2
TABLES
  0
TABLE
  2
LTYPE
  70
4
  0
LTYPE
  5
40F
  2
CONTINUOUS
  70
0
  3
Solid line
  72
65
  73
0
  40
0.0
  0
LTYPE
  5
410
  2
DASHDOT
 70
0
  3
Dash Dot ____ _ ____ _
 72
65
 73
4
 40
2.0
 49
1.25
 49
-0.25
 49
0.25
 49
-0.25
  0
LTYPE
  5
411
  2
DASHED
 70
0
  3
Dashed __ __ __ __ __
 72
65
 73
2
 40
0.75
 49
0.5
 49
-0.25
  0
LTYPE
  5
43B
  2
DOTTED
 70
0
  3
Dotted .  .  .  .
 72
65
 73
2
 40
0.2
 49
0.0
 49
-0.2
  0
ENDTAB
  0
TABLE
  2
STYLE
  70
4
  0
STYLE
  2
KICAD
  70
0
  40
0
  41
1
  42
1
  50
0
  71
0
  3
isocp.shx
  0
STYLE
  2
KICADB
  70
0
  40
0
  41
1
  42
1
  50
0
  71
0
  3
isocp.shx
  0
STYLE
  2
KICADI
  70
0
  40
0
  41
1
  42
1
  50
15
  71
0
  3
isocp.shx
  0
STYLE
  2
KICADBI
  70
0
  40
0
  41
1
  42
1
  50
15
  71
0
  3
isocp.shx
  0
ENDTAB
  0
TABLE
  2
LAYER
  70
1
  0
LAYER
  2
BLACK
  70
0
  62
7
  6
CONTINUOUS
  0
ENDTAB
  0
ENDSEC
  0
SECTION
  2
ENTITIES
0
LINE
8
BLACK
6
CONTINUOUS
10
3.61732
20
-4.56159
11
3.61761
21
-4.56161
0
LINE
8
BLACK
6
CONTINUOUS
10
3.61761
20
-4.56161
11
3.61762
21
-4.56161
0
LINE
8
BLACK
6
CONTINUOUS
10
3.61762
20
-4.56161
11
3.61762
21
-4.56161
0
LINE
8
BLACK
6
CONTINUOUS
10
3.61762
20
-4.56161
11
3.61788
21
-4.56169
0
LINE
8
BLACK
6
CONTINUOUS
10
3.61788
20
-4.56169
11
3.61817
21
-4.56177
0
LINE
8
BLACK
6
CONTINUOUS
10
3.61817
20
-4.56177
11
3.61817
21
-4.56177
0
LINE
8
BLACK
6
CONTINUOUS
10
3.61817
20
-4.56177
11
3.61817
21
-4.56177
0
LINE
8
BLACK
6
CONTINUOUS
10
3.61817
20
-4.56177
11
3.61842
21
-4.5619
0
LINE
8
BLACK
6
CONTINUOUS
10
3.61842
20
-4.5619
11
3.61868
21
-4.56203
0
LINE
8
BLACK
6
CONTINUOUS
10
3.61868
20
-4.56203
11
3.61868
21
-4.56203
0
LINE
8
BLACK
6
CONTINUOUS
10
3.61868
20
-4.56203
11
3.61869
21
-4.56203
0
LINE
8
BLACK
6
CONTINUOUS
10
3.61869
20
-4.56203
11
3.61891
21
-4.56221
0
LINE
8
BLACK
6
CONTINUOUS
10
3.61891
20
-4.56221
11
3.61913
21
-4.56238
0
LINE
8
BLACK
6
CONTINUOUS
10
3.61913
20
-4.56238
11
3.61914
21
-4.56239
0
LINE
8
BLACK
6
CONTINUOUS
10
3.61914
20
-4.56239
11
3.61914
21
-4.56239
0
LINE
8
BLACK
6
CONTINUOUS
10
3.61914
20
-4.56239
11
3.61932
21
-4.5626
0
LINE
8
BLACK
6
CONTINUOUS
10
3.61932
20
-4.5626
11
3.61951
21
-4.56282
0
LINE
8
BLACK
6
CONTINUOUS
10
3.61951
20
-4.56282
11
3.78911
21
-4.80534
0
LINE
8
BLACK
6
CONTINUOUS
10
3.78911
20
-4.80534
11
3.78912
21
-4.80535
0
LINE
8
BLACK
6
CONTINUOUS
10
3.78912
20
-4.80535
11
3.78912
21
-4.80535
0
LINE
8
BLACK
6
CONTINUOUS
10
3.78912
20
-4.80535
11
3.78912
21
-4.80535
0
LINE
8
BLACK
6
CONTINUOUS
10
3.78912
20
-4.80535
11
3.78914
21
-4.80537
0
LINE
8
BLACK
6
CONTINUOUS
10
3.78914
20
-4.80537
11
3.78927
21
-4.80561
0
LINE
8
BLACK
6
CONTINUOUS
10
3.78927
20
-4.80561
11
3.7894
21
-4.80585
0
LINE
8
BLACK
6
CONTINUOUS
10
3.7894
20
-4.80585
11
3.7894
21
-4.80587
0
LINE
8
BLACK
6
CONTINUOUS
10
3.7894
20
-4.80587
11
3.78941
21
-4.80588
0
LINE
8
BLACK
6
CONTINUOUS
10
3.78941
20
-4.80588
11
3.78949
21
-4.80614
0
LINE
8
BLACK
6
CONTINUOUS
10
3.78949
20
-4.80614
11
3.78958
21
-4.8064
0
LINE
8
BLACK
6
CONTINUOUS
10
3.78958
20
-4.8064
11
3.78958
21
-4.80641
0
LINE
8
BLACK
6
CONTINUOUS
10
3.78958
20
-4.80641
11
3.78958
21
-4.80643
0
LINE
8
BLACK
6
CONTINUOUS
10
3.78958
20
-4.80643
11
3.78961
21
-4.8067
0
LINE
8
BLACK
6
CONTINUOUS
10
3.78961
20
-4.8067
11
3.78965
21
-4.80697
0
LINE
8
BLACK
6
CONTINUOUS
10
3.78965
20
-4.80697
11
3.78964
21
-4.80699
0
LINE
8
BLACK
6
CONTINUOUS
10
3.78964
20
-4.80699
11
3.78965
21
-4.807
0
LINE
8
BLACK
6
CONTINUOUS
10
3.78965
20
-4.807
11
3.78962
21
-4.80727
0
LINE
8
BLACK
6
CONTINUOUS
10
3.78962
20
-4.80727
11
3.7896
21
-4.80755
0
LINE
8
BLACK
6
CONTINUOUS
10
3.7896
20
-4.80755
11
3.7896
21
-4.80756
0
LINE
8
BLACK
6
CONTINUOUS
10
3.7896
20
-4.80756
11
3.7896
21
-4.80758
0
LINE
8
BLACK
6
CONTINUOUS
10
3.7896
20
-4.80758
11
3.78952
21
-4.80784
0
LINE
8
BLACK
6
CONTINUOUS
10
3.78952
20
-4.80784
11
3.78944
21
-4.8081
0
LINE
8
BLACK
6
CONTINUOUS
10
3.78944
20
-4.8081
11
3.78944
21
-4.80811
0
LINE
8
BLACK
6
CONTINUOUS
10
3.78944
20
-4.80811
11
3.78943
21
-4.80813
0
LINE
8
BLACK
6
CONTINUOUS
10
3.78943
20
-4.80813
11
3.78931
21
-4.80837
0
LINE
8
BLACK
6
CONTINUOUS
10
3.78931
20
-4.80837
11
3.78918
21
-4.80862
0
LINE
8
BLACK
6
CONTINUOUS
10
3.78918
20
-4.80862
11
3.78918
21
-4.80863
0
LINE
8
BLACK
6
CONTINUOUS
10
3.78918
20
-4.80863
11
3.78917
21
-4.80864
0
LINE
8
BLACK
6
CONTINUOUS
10
3.78917
20
-4.80864
11
3.789
21
-4.80885
0
LINE
8
BLACK
6
CONTINUOUS
10
3.789
20
-4.80885
11
3.78883
21
-4.80907
0
LINE
8
BLACK
6
CONTINUOUS
10
3.78883
20
-4.80907
11
3.78882
21
-4.80908
0
LINE
8
BLACK
6
CONTINUOUS
10
3.78882
20
-4.80908
11
3.78881
21
-4.80909
0
LINE
8
BLACK
6
CONTINUOUS
10
3.78881
20
-4.80909
11
3.7886
21
-4.80927
0
LINE
8
BLACK
6
CONTINUOUS
10
3.7886
20
-4.80927
11
3.78839
21
-4.80945
0
LINE
8
BLACK
6
CONTINUOUS
10
3.78839
20
-4.80945
11
3.69264
21
-4.87682
0
LINE
8
BLACK
6
CONTINUOUS
10
3.69264
20
-4.87682
11
3.69262
21
-4.87684
0
LINE
8
BLACK
6
CONTINUOUS
10
3.69262
20
-4.87684
11
3.69262
21
-4.87684
0
LINE
8
BLACK
6
CONTINUOUS
10
3.69262
20
-4.87684
11
3.69262
21
-4.87684
0
LINE
8
BLACK
6
CONTINUOUS
10
3.69262
20
-4.87684
11
3.69261
21
-4.87685
0
LINE
8
BLACK
6
CONTINUOUS
10
3.69261
20
-4.87685
11
3.69236
21
-4.87698
0
LINE
8
BLACK
6
CONTINUOUS
10
3.69236
20
-4.87698
11
3.69211
21
-4.87712
0
LINE
8
BLACK
6
CONTINUOUS
10
3.69211
20
-4.87712
11
3.69211
21
-4.87712
0
LINE
8
BLACK
6
CONTINUOUS
10
3.69211
20
-4.87712
11
3.6921
21
-4.87712
0
LINE
8
BLACK
6
CONTINUOUS
10
3.6921
20
-4.87712
11
3.69184
21
-4.87721
0
LINE
8
BLACK
6
CONTINUOUS
10
3.69184
20
-4.87721
11
3.69156
21
-4.8773
0
LINE
8
BLACK
6
CONTINUOUS
10
3.69156
20
-4.8773
11
3.69156
21
-4.8773
0
LINE
8
BLACK
6
CONTINUOUS
10
3.69156
20
-4.8773
11
3.69156
21
-4.8773
0
LINE
8
BLACK
6
CONTINUOUS
10
3.69156
20
-4.8773
11
3.69127
21
-4.87733
0
LINE
8
BLACK
6
CONTINUOUS
10
3.69127
20
-4.87733
11
3.69099
21
-4.87736
0
LINE
8
BLACK
6
CONTINUOUS
10
3.69099
20
-4.87736
11
3.69099
21
-4.87736
0
LINE
8
BLACK
6
CONTINUOUS
10
3.69099
20
-4.87736
11
3.69098
21
-4.87736
0
LINE
8
BLACK
6
CONTINUOUS
10
3.69098
20
-4.87736
11
3.6907
21
-4.87734
0
LINE
8
BLACK
6
CONTINUOUS
10
3.6907
20
-4.87734
11
3.69041
21
-4.87731
0
LINE
8
BLACK
6
CONTINUOUS
10
3.69041
20
-4.87731
11
3.69041
21
-4.87731
0
LINE
8
BLACK
6
CONTINUOUS
10
3.69041
20
-4.87731
11
3.69041
21
-4.87731
0
LINE
8
BLACK
6
CONTINUOUS
10
3.69041
20
-4.87731
11
3.69015
21
-4.87724
0
LINE
8
BLACK
6
CONTINUOUS
10
3.69015
20
-4.87724
11
3.68986
21
-4.87716
0
LINE
8
BLACK
6
CONTINUOUS
10
3.68986
20
-4.87716
11
3.68986
21
-4.87715
0
LINE
8
BLACK
6
CONTINUOUS
10
3.68986
20
-4.87715
11
3.68985
21
-4.87715
0
LINE
8
BLACK
6
CONTINUOUS
10
3.68985
20
-4.87715
11
3.68961
21
-4.87703
0
LINE
8
BLACK
6
CONTINUOUS
10
3.68961
20
-4.87703
11
3.68935
21
-4.87689
0
LINE
8
BLACK
6
CONTINUOUS
10
3.68935
20
-4.87689
11
3.68935
21
-4.87689
0
LINE
8
BLACK
6
CONTINUOUS
10
3.68935
20
-4.87689
11
3.68934
21
-4.87689
0
LINE
8
BLACK
6
CONTINUOUS
10
3.68934
20
-4.87689
11
3.68912
21
-4.87672
0
LINE
8
BLACK
6
CONTINUOUS
10
3.68912
20
-4.87672
11
3.6889
21
-4.87654
0
LINE
8
BLACK
6
CONTINUOUS
10
3.6889
20
-4.87654
11
3.68889
21
-4.87653
0
LINE
8
BLACK
6
CONTINUOUS
10
3.68889
20
-4.87653
11
3.68889
21
-4.87653
0
LINE
8
BLACK
6
CONTINUOUS
10
3.68889
20
-4.87653
11
3.68872
21
-4.87632
0
LINE
8
BLACK
6
CONTINUOUS
10
3.68872
20
-4.87632
11
3.68852
21
-4.8761
0
LINE
8
BLACK
6
CONTINUOUS
10
3.68852
20
-4.8761
11
3.51942
21
-4.63335
0
LINE
8
BLACK
6
CONTINUOUS
10
3.51942
20
-4.63335
11
3.51942
21
-4.63334
0
LINE
8
BLACK
6
CONTINUOUS
10
3.51942
20
-4.63334
11
3.51942
21
-4.63334
0
LINE
8
BLACK
6
CONTINUOUS
10
3.51942
20
-4.63334
11
3.51942
21
-4.63334
0
LINE
8
BLACK
6
CONTINUOUS
10
3.51942
20
-4.63334
11
3.5194
21
-4.63331
0
LINE
8
BLACK
6
CONTINUOUS
10
3.5194
20
-4.63331
11
3.51927
21
-4.63307
0
LINE
8
BLACK
6
CONTINUOUS
10
3.51927
20
-4.63307
11
3.51914
21
-4.63284
0
LINE
8
BLACK
6
CONTINUOUS
10
3.51914
20
-4.63284
11
3.51913
21
-4.63282
0
LINE
8
BLACK
6
CONTINUOUS
10
3.51913
20
-4.63282
11
3.51912
21
-4.63281
0
LINE
8
BLACK
6
CONTINUOUS
10
3.51912
20
-4.63281
11
3.51904
21
-4.63255
0
LINE
8
BLACK
6
CONTINUOUS
10
3.51904
20
-4.63255
11
3.51896
21
-4.63229
0
LINE
8
BLACK
6
CONTINUOUS
10
3.51896
20
-4.63229
11
3.51896
21
-4.63227
0
LINE
8
BLACK
6
CONTINUOUS
10
3.51896
20
-4.63227
11
3.51895
21
-4.63225
0
LINE
8
BLACK
6
CONTINUOUS
10
3.51895
20
-4.63225
11
3.51892
21
-4.63199
0
LINE
8
BLACK
6
CONTINUOUS
10
3.51892
20
-4.63199
11
3.51889
21
-4.63172
0
LINE
8
BLACK
6
CONTINUOUS
10
3.51889
20
-4.63172
11
3.51889
21
-4.6317
0
LINE
8
BLACK
6
CONTINUOUS
10
3.51889
20
-4.6317
11
3.51889
21
-4.63168
0
LINE
8
BLACK
6
CONTINUOUS
10
3.51889
20
-4.63168
11
3.51891
21
-4.63141
0
LINE
8
BLACK
6
CONTINUOUS
10
3.51891
20
-4.63141
11
3.51894
21
-4.63114
0
LINE
8
BLACK
6
CONTINUOUS
10
3.51894
20
-4.63114
11
3.51894
21
-4.63113
0
LINE
8
BLACK
6
CONTINUOUS
10
3.51894
20
-4.63113
11
3.51894
21
-4.63111
0
LINE
8
BLACK
6
CONTINUOUS
10
3.51894
20
-4.63111
11
3.51902
21
-4.63085
0
LINE
8
BLACK
6
CONTINUOUS
10
3.51902
20
-4.63085
11
3.51909
21
-4.63059
0
LINE
8
BLACK
6
CONTINUOUS
10
3.51909
20
-4.63059
11
3.5191
21
-4.63057
0
LINE
8
BLACK
6
CONTINUOUS
10
3.5191
20
-4.63057
11
3.5191
21
-4.63055
0
LINE
8
BLACK
6
CONTINUOUS
10
3.5191
20
-4.63055
11
3.51923
21
-4.63032
0
LINE
8
BLACK
6
CONTINUOUS
10
3.51923
20
-4.63032
11
3.51935
21
-4.63008
0
LINE
8
BLACK
6
CONTINUOUS
10
3.51935
20
-4.63008
11
3.51936
21
-4.63006
0
LINE
8
BLACK
6
CONTINUOUS
10
3.51936
20
-4.63006
11
3.51937
21
-4.63004
0
LINE
8
BLACK
6
CONTINUOUS
10
3.51937
20
-4.63004
11
3.51954
21
-4.62983
0
LINE
8
BLACK
6
CONTINUOUS
10
3.51954
20
-4.62983
11
3.51971
21
-4.62962
0
LINE
8
BLACK
6
CONTINUOUS
10
3.51971
20
-4.62962
11
3.51972
21
-4.62961
0
LINE
8
BLACK
6
CONTINUOUS
10
3.51972
20
-4.62961
11
3.51973
21
-4.62959
0
LINE
8
BLACK
6
CONTINUOUS
10
3.51973
20
-4.62959
11
3.51994
21
-4.62942
0
LINE
8
BLACK
6
CONTINUOUS
10
3.51994
20
-4.62942
11
3.52014
21
-4.62924
0
LINE
8
BLACK
6
CONTINUOUS
10
3.52014
20
-4.62924
11
3.61539
21
-4.5621
0
LINE
8
BLACK
6
CONTINUOUS
10
3.61539
20
-4.5621
11
3.61541
21
-4.56208
0
LINE
8
BLACK
6
CONTINUOUS
10
3.61541
20
-4.56208
11
3.61541
21
-4.56208
0
LINE
8
BLACK
6
CONTINUOUS
10
3.61541
20
-4.56208
11
3.61541
21
-4.56208
0
LINE
8
BLACK
6
CONTINUOUS
10
3.61541
20
-4.56208
11
3.61542
21
-4.56208
0
LINE
8
BLACK
6
CONTINUOUS
10
3.61542
20
-4.56208
11
3.61567
21
-4.56194
0
LINE
8
BLACK
6
CONTINUOUS
10
3.61567
20
-4.56194
11
3.61592
21
-4.5618
0
LINE
8
BLACK
6
CONTINUOUS
10
3.61592
20
-4.5618
11
3.61592
21
-4.5618
0
LINE
8
BLACK
6
CONTINUOUS
10
3.61592
20
-4.5618
11
3.61592
21
-4.5618
0
LINE
8
BLACK
6
CONTINUOUS
10
3.61592
20
-4.5618
11
3.61619
21
-4.56172
0
LINE
8
BLACK
6
CONTINUOUS
10
3.61619
20
-4.56172
11
3.61646
21
-4.56163
0
LINE
8
BLACK
6
CONTINUOUS
10
3.61646
20
-4.56163
11
3.61647
21
-4.56163
0
LINE
8
BLACK
6
CONTINUOUS
10
3.61647
20
-4.56163
11
3.61647
21
-4.56163
0
LINE
8
BLACK
6
CONTINUOUS
10
3.61647
20
-4.56163
11
3.61675
21
-4.5616
0
LINE
8
BLACK
6
CONTINUOUS
10
3.61675
20
-4.5616
11
3.61704
21
-4.56156
0
LINE
8
BLACK
6
CONTINUOUS
10
3.61704
20
-4.56156
11
3.61704
21
-4.56156
0
LINE
8
BLACK
6
CONTINUOUS
10
3.61704
20
-4.56156
11
3.61705
21
-4.56156
0
LINE
8
BLACK
6
CONTINUOUS
10
3.61705
20
-4.56156
11
3.61732
21
-4.56159
  0
ENDSEC
  0
EOF
