  0
SECTION
  2
HEADER
  9
$ANGBASE
  50
0.0
  9
$ANGDIR
  70
1
  9
$MEASUREMENT
  70
0
  0
ENDSEC
  0
SECTION
  2
TABLES
  0
TABLE
  2
LTYPE
  70
4
  0
LTYPE
  5
40F
  2
CONTINUOUS
  70
0
  3
Solid line
  72
65
  73
0
  40
0.0
  0
LTYPE
  5
410
  2
DASHDOT
 70
0
  3
Dash Dot ____ _ ____ _
 72
65
 73
4
 40
2.0
 49
1.25
 49
-0.25
 49
0.25
 49
-0.25
  0
LTYPE
  5
411
  2
DASHED
 70
0
  3
Dashed __ __ __ __ __
 72
65
 73
2
 40
0.75
 49
0.5
 49
-0.25
  0
LTYPE
  5
43B
  2
DOTTED
 70
0
  3
Dotted .  .  .  .
 72
65
 73
2
 40
0.2
 49
0.0
 49
-0.2
  0
ENDTAB
  0
TABLE
  2
STYLE
  70
4
  0
STYLE
  2
KICAD
  70
0
  40
0
  41
1
  42
1
  50
0
  71
0
  3
isocp.shx
  0
STYLE
  2
KICADB
  70
0
  40
0
  41
1
  42
1
  50
0
  71
0
  3
isocp.shx
  0
STYLE
  2
KICADI
  70
0
  40
0
  41
1
  42
1
  50
15
  71
0
  3
isocp.shx
  0
STYLE
  2
KICADBI
  70
0
  40
0
  41
1
  42
1
  50
15
  71
0
  3
isocp.shx
  0
ENDTAB
  0
TABLE
  2
LAYER
  70
1
  0
LAYER
  2
BLACK
  70
0
  62
7
  6
CONTINUOUS
  0
ENDTAB
  0
ENDSEC
  0
SECTION
  2
ENTITIES
0
LINE
8
BLACK
6
CONTINUOUS
10
5.78373
20
-4.14862
11
5.78378
21
-4.14862
0
LINE
8
BLACK
6
CONTINUOUS
10
5.78378
20
-4.14862
11
5.78402
21
-4.14867
0
LINE
8
BLACK
6
CONTINUOUS
10
5.78402
20
-4.14867
11
5.78426
21
-4.14872
0
LINE
8
BLACK
6
CONTINUOUS
10
5.78426
20
-4.14872
11
5.7843
21
-4.14873
0
LINE
8
BLACK
6
CONTINUOUS
10
5.7843
20
-4.14873
11
5.78435
21
-4.14874
0
LINE
8
BLACK
6
CONTINUOUS
10
5.78435
20
-4.14874
11
5.78457
21
-4.14884
0
LINE
8
BLACK
6
CONTINUOUS
10
5.78457
20
-4.14884
11
5.7848
21
-4.14893
0
LINE
8
BLACK
6
CONTINUOUS
10
5.7848
20
-4.14893
11
5.78496
21
-4.14903
0
LINE
8
BLACK
6
CONTINUOUS
10
5.78496
20
-4.14903
11
5.80653
21
-4.16079
0
LINE
8
BLACK
6
CONTINUOUS
10
5.80653
20
-4.16079
11
5.80677
21
-4.16092
0
LINE
8
BLACK
6
CONTINUOUS
10
5.80677
20
-4.16092
11
5.80689
21
-4.16102
0
LINE
8
BLACK
6
CONTINUOUS
10
5.80689
20
-4.16102
11
5.80702
21
-4.16111
0
LINE
8
BLACK
6
CONTINUOUS
10
5.80702
20
-4.16111
11
5.80711
21
-4.1612
0
LINE
8
BLACK
6
CONTINUOUS
10
5.80711
20
-4.1612
11
5.80722
21
-4.16129
0
LINE
8
BLACK
6
CONTINUOUS
10
5.80722
20
-4.16129
11
5.80732
21
-4.16141
0
LINE
8
BLACK
6
CONTINUOUS
10
5.80732
20
-4.16141
11
5.80743
21
-4.16152
0
LINE
8
BLACK
6
CONTINUOUS
10
5.80743
20
-4.16152
11
5.8075
21
-4.16163
0
LINE
8
BLACK
6
CONTINUOUS
10
5.8075
20
-4.16163
11
5.80759
21
-4.16174
0
LINE
8
BLACK
6
CONTINUOUS
10
5.80759
20
-4.16174
11
5.80766
21
-4.16188
0
LINE
8
BLACK
6
CONTINUOUS
10
5.80766
20
-4.16188
11
5.80775
21
-4.16201
0
LINE
8
BLACK
6
CONTINUOUS
10
5.80775
20
-4.16201
11
5.8078
21
-4.16213
0
LINE
8
BLACK
6
CONTINUOUS
10
5.8078
20
-4.16213
11
5.80786
21
-4.16225
0
LINE
8
BLACK
6
CONTINUOUS
10
5.80786
20
-4.16225
11
5.80791
21
-4.1624
0
LINE
8
BLACK
6
CONTINUOUS
10
5.80791
20
-4.1624
11
5.80796
21
-4.16255
0
LINE
8
BLACK
6
CONTINUOUS
10
5.80796
20
-4.16255
11
5.80799
21
-4.16268
0
LINE
8
BLACK
6
CONTINUOUS
10
5.80799
20
-4.16268
11
5.80803
21
-4.16281
0
LINE
8
BLACK
6
CONTINUOUS
10
5.80803
20
-4.16281
11
5.80804
21
-4.16296
0
LINE
8
BLACK
6
CONTINUOUS
10
5.80804
20
-4.16296
11
5.80807
21
-4.16312
0
LINE
8
BLACK
6
CONTINUOUS
10
5.80807
20
-4.16312
11
5.80807
21
-4.16339
0
LINE
8
BLACK
6
CONTINUOUS
10
5.80807
20
-4.16339
11
5.80807
21
-4.37005
0
LINE
8
BLACK
6
CONTINUOUS
10
5.80807
20
-4.37005
11
5.80808
21
-4.37031
0
LINE
8
BLACK
6
CONTINUOUS
10
5.80808
20
-4.37031
11
5.80805
21
-4.37048
0
LINE
8
BLACK
6
CONTINUOUS
10
5.80805
20
-4.37048
11
5.80803
21
-4.37066
0
LINE
8
BLACK
6
CONTINUOUS
10
5.80803
20
-4.37066
11
5.80799
21
-4.37077
0
LINE
8
BLACK
6
CONTINUOUS
10
5.80799
20
-4.37077
11
5.80798
21
-4.37088
0
LINE
8
BLACK
6
CONTINUOUS
10
5.80798
20
-4.37088
11
5.80791
21
-4.37104
0
LINE
8
BLACK
6
CONTINUOUS
10
5.80791
20
-4.37104
11
5.80786
21
-4.37121
0
LINE
8
BLACK
6
CONTINUOUS
10
5.80786
20
-4.37121
11
5.80781
21
-4.37131
0
LINE
8
BLACK
6
CONTINUOUS
10
5.80781
20
-4.37131
11
5.80776
21
-4.37142
0
LINE
8
BLACK
6
CONTINUOUS
10
5.80776
20
-4.37142
11
5.80767
21
-4.37157
0
LINE
8
BLACK
6
CONTINUOUS
10
5.80767
20
-4.37157
11
5.80759
21
-4.37173
0
LINE
8
BLACK
6
CONTINUOUS
10
5.80759
20
-4.37173
11
5.80751
21
-4.37182
0
LINE
8
BLACK
6
CONTINUOUS
10
5.80751
20
-4.37182
11
5.80745
21
-4.37191
0
LINE
8
BLACK
6
CONTINUOUS
10
5.80745
20
-4.37191
11
5.80733
21
-4.37204
0
LINE
8
BLACK
6
CONTINUOUS
10
5.80733
20
-4.37204
11
5.80722
21
-4.37218
0
LINE
8
BLACK
6
CONTINUOUS
10
5.80722
20
-4.37218
11
5.80713
21
-4.37225
0
LINE
8
BLACK
6
CONTINUOUS
10
5.80713
20
-4.37225
11
5.80705
21
-4.37233
0
LINE
8
BLACK
6
CONTINUOUS
10
5.80705
20
-4.37233
11
5.8069
21
-4.37243
0
LINE
8
BLACK
6
CONTINUOUS
10
5.8069
20
-4.37243
11
5.80677
21
-4.37255
0
LINE
8
BLACK
6
CONTINUOUS
10
5.80677
20
-4.37255
11
5.80654
21
-4.37267
0
LINE
8
BLACK
6
CONTINUOUS
10
5.80654
20
-4.37267
11
5.71212
21
-4.42578
0
LINE
8
BLACK
6
CONTINUOUS
10
5.71212
20
-4.42578
11
5.71192
21
-4.4259
0
LINE
8
BLACK
6
CONTINUOUS
10
5.71192
20
-4.4259
11
5.71174
21
-4.42597
0
LINE
8
BLACK
6
CONTINUOUS
10
5.71174
20
-4.42597
11
5.71155
21
-4.42605
0
LINE
8
BLACK
6
CONTINUOUS
10
5.71155
20
-4.42605
11
5.71146
21
-4.42607
0
LINE
8
BLACK
6
CONTINUOUS
10
5.71146
20
-4.42607
11
5.71138
21
-4.4261
0
LINE
8
BLACK
6
CONTINUOUS
10
5.71138
20
-4.4261
11
5.71118
21
-4.42613
0
LINE
8
BLACK
6
CONTINUOUS
10
5.71118
20
-4.42613
11
5.71098
21
-4.42617
0
LINE
8
BLACK
6
CONTINUOUS
10
5.71098
20
-4.42617
11
5.71089
21
-4.42618
0
LINE
8
BLACK
6
CONTINUOUS
10
5.71089
20
-4.42618
11
5.7108
21
-4.42619
0
LINE
8
BLACK
6
CONTINUOUS
10
5.7108
20
-4.42619
11
5.7106
21
-4.42618
0
LINE
8
BLACK
6
CONTINUOUS
10
5.7106
20
-4.42618
11
5.7104
21
-4.42619
0
LINE
8
BLACK
6
CONTINUOUS
10
5.7104
20
-4.42619
11
5.71031
21
-4.42617
0
LINE
8
BLACK
6
CONTINUOUS
10
5.71031
20
-4.42617
11
5.71022
21
-4.42617
0
LINE
8
BLACK
6
CONTINUOUS
10
5.71022
20
-4.42617
11
5.71003
21
-4.42612
0
LINE
8
BLACK
6
CONTINUOUS
10
5.71003
20
-4.42612
11
5.70983
21
-4.42609
0
LINE
8
BLACK
6
CONTINUOUS
10
5.70983
20
-4.42609
11
5.70974
21
-4.42605
0
LINE
8
BLACK
6
CONTINUOUS
10
5.70974
20
-4.42605
11
5.70966
21
-4.42603
0
LINE
8
BLACK
6
CONTINUOUS
10
5.70966
20
-4.42603
11
5.70947
21
-4.42595
0
LINE
8
BLACK
6
CONTINUOUS
10
5.70947
20
-4.42595
11
5.70929
21
-4.42587
0
LINE
8
BLACK
6
CONTINUOUS
10
5.70929
20
-4.42587
11
5.70909
21
-4.42575
0
LINE
8
BLACK
6
CONTINUOUS
10
5.70909
20
-4.42575
11
5.52808
21
-4.31951
0
LINE
8
BLACK
6
CONTINUOUS
10
5.52808
20
-4.31951
11
5.52788
21
-4.3194
0
LINE
8
BLACK
6
CONTINUOUS
10
5.52788
20
-4.3194
11
5.52772
21
-4.31927
0
LINE
8
BLACK
6
CONTINUOUS
10
5.52772
20
-4.31927
11
5.52756
21
-4.31915
0
LINE
8
BLACK
6
CONTINUOUS
10
5.52756
20
-4.31915
11
5.5275
21
-4.31908
0
LINE
8
BLACK
6
CONTINUOUS
10
5.5275
20
-4.31908
11
5.52743
21
-4.31903
0
LINE
8
BLACK
6
CONTINUOUS
10
5.52743
20
-4.31903
11
5.5273
21
-4.31887
0
LINE
8
BLACK
6
CONTINUOUS
10
5.5273
20
-4.31887
11
5.52716
21
-4.31872
0
LINE
8
BLACK
6
CONTINUOUS
10
5.52716
20
-4.31872
11
5.52712
21
-4.31864
0
LINE
8
BLACK
6
CONTINUOUS
10
5.52712
20
-4.31864
11
5.52706
21
-4.31858
0
LINE
8
BLACK
6
CONTINUOUS
10
5.52706
20
-4.31858
11
5.52696
21
-4.3184
0
LINE
8
BLACK
6
CONTINUOUS
10
5.52696
20
-4.3184
11
5.52686
21
-4.31822
0
LINE
8
BLACK
6
CONTINUOUS
10
5.52686
20
-4.31822
11
5.52683
21
-4.31814
0
LINE
8
BLACK
6
CONTINUOUS
10
5.52683
20
-4.31814
11
5.52679
21
-4.31806
0
LINE
8
BLACK
6
CONTINUOUS
10
5.52679
20
-4.31806
11
5.52673
21
-4.31787
0
LINE
8
BLACK
6
CONTINUOUS
10
5.52673
20
-4.31787
11
5.52666
21
-4.31768
0
LINE
8
BLACK
6
CONTINUOUS
10
5.52666
20
-4.31768
11
5.52664
21
-4.31759
0
LINE
8
BLACK
6
CONTINUOUS
10
5.52664
20
-4.31759
11
5.52662
21
-4.31751
0
LINE
8
BLACK
6
CONTINUOUS
10
5.52662
20
-4.31751
11
5.5266
21
-4.3173
0
LINE
8
BLACK
6
CONTINUOUS
10
5.5266
20
-4.3173
11
5.52657
21
-4.3171
0
LINE
8
BLACK
6
CONTINUOUS
10
5.52657
20
-4.3171
11
5.52657
21
-4.31687
0
LINE
8
BLACK
6
CONTINUOUS
10
5.52657
20
-4.31687
11
5.52657
21
-4.29531
0
LINE
8
BLACK
6
CONTINUOUS
10
5.52657
20
-4.29531
11
5.52657
21
-4.29506
0
LINE
8
BLACK
6
CONTINUOUS
10
5.52657
20
-4.29506
11
5.5266
21
-4.29488
0
LINE
8
BLACK
6
CONTINUOUS
10
5.5266
20
-4.29488
11
5.52662
21
-4.2947
0
LINE
8
BLACK
6
CONTINUOUS
10
5.52662
20
-4.2947
11
5.52665
21
-4.29459
0
LINE
8
BLACK
6
CONTINUOUS
10
5.52665
20
-4.29459
11
5.52667
21
-4.29448
0
LINE
8
BLACK
6
CONTINUOUS
10
5.52667
20
-4.29448
11
5.52673
21
-4.29431
0
LINE
8
BLACK
6
CONTINUOUS
10
5.52673
20
-4.29431
11
5.52679
21
-4.29414
0
LINE
8
BLACK
6
CONTINUOUS
10
5.52679
20
-4.29414
11
5.52684
21
-4.29404
0
LINE
8
BLACK
6
CONTINUOUS
10
5.52684
20
-4.29404
11
5.52688
21
-4.29394
0
LINE
8
BLACK
6
CONTINUOUS
10
5.52688
20
-4.29394
11
5.52698
21
-4.29379
0
LINE
8
BLACK
6
CONTINUOUS
10
5.52698
20
-4.29379
11
5.52706
21
-4.29363
0
LINE
8
BLACK
6
CONTINUOUS
10
5.52706
20
-4.29363
11
5.52713
21
-4.29354
0
LINE
8
BLACK
6
CONTINUOUS
10
5.52713
20
-4.29354
11
5.52719
21
-4.29345
0
LINE
8
BLACK
6
CONTINUOUS
10
5.52719
20
-4.29345
11
5.52731
21
-4.29332
0
LINE
8
BLACK
6
CONTINUOUS
10
5.52731
20
-4.29332
11
5.52743
21
-4.29318
0
LINE
8
BLACK
6
CONTINUOUS
10
5.52743
20
-4.29318
11
5.52751
21
-4.29311
0
LINE
8
BLACK
6
CONTINUOUS
10
5.52751
20
-4.29311
11
5.52759
21
-4.29303
0
LINE
8
BLACK
6
CONTINUOUS
10
5.52759
20
-4.29303
11
5.52774
21
-4.29292
0
LINE
8
BLACK
6
CONTINUOUS
10
5.52774
20
-4.29292
11
5.52788
21
-4.29281
0
LINE
8
BLACK
6
CONTINUOUS
10
5.52788
20
-4.29281
11
5.5281
21
-4.29269
0
LINE
8
BLACK
6
CONTINUOUS
10
5.5281
20
-4.29269
11
5.78193
21
-4.14905
0
LINE
8
BLACK
6
CONTINUOUS
10
5.78193
20
-4.14905
11
5.78209
21
-4.14895
0
LINE
8
BLACK
6
CONTINUOUS
10
5.78209
20
-4.14895
11
5.78231
21
-4.14886
0
LINE
8
BLACK
6
CONTINUOUS
10
5.78231
20
-4.14886
11
5.78254
21
-4.14876
0
LINE
8
BLACK
6
CONTINUOUS
10
5.78254
20
-4.14876
11
5.78258
21
-4.14875
0
LINE
8
BLACK
6
CONTINUOUS
10
5.78258
20
-4.14875
11
5.78263
21
-4.14873
0
LINE
8
BLACK
6
CONTINUOUS
10
5.78263
20
-4.14873
11
5.78287
21
-4.14868
0
LINE
8
BLACK
6
CONTINUOUS
10
5.78287
20
-4.14868
11
5.7831
21
-4.14863
0
LINE
8
BLACK
6
CONTINUOUS
10
5.7831
20
-4.14863
11
5.78315
21
-4.14863
0
LINE
8
BLACK
6
CONTINUOUS
10
5.78315
20
-4.14863
11
5.7832
21
-4.14862
0
LINE
8
BLACK
6
CONTINUOUS
10
5.7832
20
-4.14862
11
5.78344
21
-4.14862
0
LINE
8
BLACK
6
CONTINUOUS
10
5.78344
20
-4.14862
11
5.78368
21
-4.14862
0
LINE
8
BLACK
6
CONTINUOUS
10
5.78368
20
-4.14862
11
5.78373
21
-4.14862
0
LINE
8
BLACK
6
CONTINUOUS
10
5.53248
20
-4.297
11
5.53248
21
-4.31524
0
LINE
8
BLACK
6
CONTINUOUS
10
5.53248
20
-4.31524
11
5.71066
21
-4.41982
0
LINE
8
BLACK
6
CONTINUOUS
10
5.71066
20
-4.41982
11
5.80217
21
-4.36835
0
LINE
8
BLACK
6
CONTINUOUS
10
5.80217
20
-4.36835
11
5.80217
21
-4.16514
0
LINE
8
BLACK
6
CONTINUOUS
10
5.80217
20
-4.16514
11
5.78349
21
-4.15495
0
LINE
8
BLACK
6
CONTINUOUS
10
5.78349
20
-4.15495
11
5.53248
21
-4.297
0
LINE
8
BLACK
6
CONTINUOUS
10
7.315
20
-4.16043
11
7.31522
21
-4.16043
0
LINE
8
BLACK
6
CONTINUOUS
10
7.31522
20
-4.16043
11
7.31529
21
-4.16044
0
LINE
8
BLACK
6
CONTINUOUS
10
7.31529
20
-4.16044
11
7.31536
21
-4.16045
0
LINE
8
BLACK
6
CONTINUOUS
10
7.31536
20
-4.16045
11
7.31557
21
-4.1605
0
LINE
8
BLACK
6
CONTINUOUS
10
7.31557
20
-4.1605
11
7.31579
21
-4.16054
0
LINE
8
BLACK
6
CONTINUOUS
10
7.31579
20
-4.16054
11
7.31586
21
-4.16056
0
LINE
8
BLACK
6
CONTINUOUS
10
7.31586
20
-4.16056
11
7.31593
21
-4.16058
0
LINE
8
BLACK
6
CONTINUOUS
10
7.31593
20
-4.16058
11
7.31613
21
-4.16067
0
LINE
8
BLACK
6
CONTINUOUS
10
7.31613
20
-4.16067
11
7.31633
21
-4.16075
0
LINE
8
BLACK
6
CONTINUOUS
10
7.31633
20
-4.16075
11
7.31651
21
-4.16087
0
LINE
8
BLACK
6
CONTINUOUS
10
7.31651
20
-4.16087
11
7.48176
21
-4.25727
0
LINE
8
BLACK
6
CONTINUOUS
10
7.48176
20
-4.25727
11
7.48196
21
-4.25738
0
LINE
8
BLACK
6
CONTINUOUS
10
7.48196
20
-4.25738
11
7.48212
21
-4.2575
0
LINE
8
BLACK
6
CONTINUOUS
10
7.48212
20
-4.2575
11
7.48228
21
-4.25762
0
LINE
8
BLACK
6
CONTINUOUS
10
7.48228
20
-4.25762
11
7.48234
21
-4.25769
0
LINE
8
BLACK
6
CONTINUOUS
10
7.48234
20
-4.25769
11
7.48241
21
-4.25774
0
LINE
8
BLACK
6
CONTINUOUS
10
7.48241
20
-4.25774
11
7.48254
21
-4.2579
0
LINE
8
BLACK
6
CONTINUOUS
10
7.48254
20
-4.2579
11
7.48268
21
-4.25805
0
LINE
8
BLACK
6
CONTINUOUS
10
7.48268
20
-4.25805
11
7.48272
21
-4.25812
0
LINE
8
BLACK
6
CONTINUOUS
10
7.48272
20
-4.25812
11
7.48278
21
-4.25819
0
LINE
8
BLACK
6
CONTINUOUS
10
7.48278
20
-4.25819
11
7.48288
21
-4.25837
0
LINE
8
BLACK
6
CONTINUOUS
10
7.48288
20
-4.25837
11
7.48298
21
-4.25854
0
LINE
8
BLACK
6
CONTINUOUS
10
7.48298
20
-4.25854
11
7.48301
21
-4.25863
0
LINE
8
BLACK
6
CONTINUOUS
10
7.48301
20
-4.25863
11
7.48306
21
-4.25871
0
LINE
8
BLACK
6
CONTINUOUS
10
7.48306
20
-4.25871
11
7.48311
21
-4.2589
0
LINE
8
BLACK
6
CONTINUOUS
10
7.48311
20
-4.2589
11
7.48318
21
-4.25909
0
LINE
8
BLACK
6
CONTINUOUS
10
7.48318
20
-4.25909
11
7.4832
21
-4.25918
0
LINE
8
BLACK
6
CONTINUOUS
10
7.4832
20
-4.25918
11
7.48322
21
-4.25926
0
LINE
8
BLACK
6
CONTINUOUS
10
7.48322
20
-4.25926
11
7.48324
21
-4.25946
0
LINE
8
BLACK
6
CONTINUOUS
10
7.48324
20
-4.25946
11
7.48328
21
-4.25966
0
LINE
8
BLACK
6
CONTINUOUS
10
7.48328
20
-4.25966
11
7.48327
21
-4.2599
0
LINE
8
BLACK
6
CONTINUOUS
10
7.48327
20
-4.2599
11
7.48327
21
-4.37007
0
LINE
8
BLACK
6
CONTINUOUS
10
7.48327
20
-4.37007
11
7.48327
21
-4.37034
0
LINE
8
BLACK
6
CONTINUOUS
10
7.48327
20
-4.37034
11
7.48324
21
-4.3705
0
LINE
8
BLACK
6
CONTINUOUS
10
7.48324
20
-4.3705
11
7.48322
21
-4.37066
0
LINE
8
BLACK
6
CONTINUOUS
10
7.48322
20
-4.37066
11
7.48319
21
-4.37079
0
LINE
8
BLACK
6
CONTINUOUS
10
7.48319
20
-4.37079
11
7.48316
21
-4.37092
0
LINE
8
BLACK
6
CONTINUOUS
10
7.48316
20
-4.37092
11
7.4831
21
-4.37106
0
LINE
8
BLACK
6
CONTINUOUS
10
7.4831
20
-4.37106
11
7.48306
21
-4.37121
0
LINE
8
BLACK
6
CONTINUOUS
10
7.48306
20
-4.37121
11
7.48299
21
-4.37133
0
LINE
8
BLACK
6
CONTINUOUS
10
7.48299
20
-4.37133
11
7.48294
21
-4.37146
0
LINE
8
BLACK
6
CONTINUOUS
10
7.48294
20
-4.37146
11
7.48286
21
-4.37159
0
LINE
8
BLACK
6
CONTINUOUS
10
7.48286
20
-4.37159
11
7.48278
21
-4.37173
0
LINE
8
BLACK
6
CONTINUOUS
10
7.48278
20
-4.37173
11
7.4827
21
-4.37183
0
LINE
8
BLACK
6
CONTINUOUS
10
7.4827
20
-4.37183
11
7.48262
21
-4.37194
0
LINE
8
BLACK
6
CONTINUOUS
10
7.48262
20
-4.37194
11
7.48251
21
-4.37205
0
LINE
8
BLACK
6
CONTINUOUS
10
7.48251
20
-4.37205
11
7.48241
21
-4.37218
0
LINE
8
BLACK
6
CONTINUOUS
10
7.48241
20
-4.37218
11
7.48231
21
-4.37226
0
LINE
8
BLACK
6
CONTINUOUS
10
7.48231
20
-4.37226
11
7.48222
21
-4.37236
0
LINE
8
BLACK
6
CONTINUOUS
10
7.48222
20
-4.37236
11
7.48209
21
-4.37245
0
LINE
8
BLACK
6
CONTINUOUS
10
7.48209
20
-4.37245
11
7.48196
21
-4.37255
0
LINE
8
BLACK
6
CONTINUOUS
10
7.48196
20
-4.37255
11
7.48172
21
-4.37267
0
LINE
8
BLACK
6
CONTINUOUS
10
7.48172
20
-4.37267
11
7.43848
21
-4.39626
0
LINE
8
BLACK
6
CONTINUOUS
10
7.43848
20
-4.39626
11
7.43828
21
-4.39638
0
LINE
8
BLACK
6
CONTINUOUS
10
7.43828
20
-4.39638
11
7.43808
21
-4.39645
0
LINE
8
BLACK
6
CONTINUOUS
10
7.43808
20
-4.39645
11
7.43789
21
-4.39653
0
LINE
8
BLACK
6
CONTINUOUS
10
7.43789
20
-4.39653
11
7.43781
21
-4.39655
0
LINE
8
BLACK
6
CONTINUOUS
10
7.43781
20
-4.39655
11
7.43773
21
-4.39658
0
LINE
8
BLACK
6
CONTINUOUS
10
7.43773
20
-4.39658
11
7.43753
21
-4.39661
0
LINE
8
BLACK
6
CONTINUOUS
10
7.43753
20
-4.39661
11
7.43732
21
-4.39665
0
LINE
8
BLACK
6
CONTINUOUS
10
7.43732
20
-4.39665
11
7.43724
21
-4.39665
0
LINE
8
BLACK
6
CONTINUOUS
10
7.43724
20
-4.39665
11
7.43716
21
-4.39666
0
LINE
8
BLACK
6
CONTINUOUS
10
7.43716
20
-4.39666
11
7.43695
21
-4.39665
0
LINE
8
BLACK
6
CONTINUOUS
10
7.43695
20
-4.39665
11
7.43674
21
-4.39666
0
LINE
8
BLACK
6
CONTINUOUS
10
7.43674
20
-4.39666
11
7.43666
21
-4.39664
0
LINE
8
BLACK
6
CONTINUOUS
10
7.43666
20
-4.39664
11
7.43658
21
-4.39664
0
LINE
8
BLACK
6
CONTINUOUS
10
7.43658
20
-4.39664
11
7.43637
21
-4.39659
0
LINE
8
BLACK
6
CONTINUOUS
10
7.43637
20
-4.39659
11
7.43617
21
-4.39655
0
LINE
8
BLACK
6
CONTINUOUS
10
7.43617
20
-4.39655
11
7.43609
21
-4.39652
0
LINE
8
BLACK
6
CONTINUOUS
10
7.43609
20
-4.39652
11
7.43601
21
-4.3965
0
LINE
8
BLACK
6
CONTINUOUS
10
7.43601
20
-4.3965
11
7.43582
21
-4.39641
0
LINE
8
BLACK
6
CONTINUOUS
10
7.43582
20
-4.39641
11
7.43563
21
-4.39633
0
LINE
8
BLACK
6
CONTINUOUS
10
7.43563
20
-4.39633
11
7.43544
21
-4.3962
0
LINE
8
BLACK
6
CONTINUOUS
10
7.43544
20
-4.3962
11
7.27414
21
-4.29981
0
LINE
8
BLACK
6
CONTINUOUS
10
7.27414
20
-4.29981
11
7.27394
21
-4.29971
0
LINE
8
BLACK
6
CONTINUOUS
10
7.27394
20
-4.29971
11
7.27377
21
-4.29957
0
LINE
8
BLACK
6
CONTINUOUS
10
7.27377
20
-4.29957
11
7.2736
21
-4.29945
0
LINE
8
BLACK
6
CONTINUOUS
10
7.2736
20
-4.29945
11
7.27355
21
-4.29939
0
LINE
8
BLACK
6
CONTINUOUS
10
7.27355
20
-4.29939
11
7.27349
21
-4.29934
0
LINE
8
BLACK
6
CONTINUOUS
10
7.27349
20
-4.29934
11
7.27336
21
-4.29917
0
LINE
8
BLACK
6
CONTINUOUS
10
7.27336
20
-4.29917
11
7.27321
21
-4.29901
0
LINE
8
BLACK
6
CONTINUOUS
10
7.27321
20
-4.29901
11
7.27317
21
-4.29895
0
LINE
8
BLACK
6
CONTINUOUS
10
7.27317
20
-4.29895
11
7.27312
21
-4.29889
0
LINE
8
BLACK
6
CONTINUOUS
10
7.27312
20
-4.29889
11
7.27302
21
-4.2987
0
LINE
8
BLACK
6
CONTINUOUS
10
7.27302
20
-4.2987
11
7.27291
21
-4.29852
0
LINE
8
BLACK
6
CONTINUOUS
10
7.27291
20
-4.29852
11
7.27288
21
-4.29845
0
LINE
8
BLACK
6
CONTINUOUS
10
7.27288
20
-4.29845
11
7.27285
21
-4.29838
0
LINE
8
BLACK
6
CONTINUOUS
10
7.27285
20
-4.29838
11
7.27279
21
-4.29817
0
LINE
8
BLACK
6
CONTINUOUS
10
7.27279
20
-4.29817
11
7.27271
21
-4.29797
0
LINE
8
BLACK
6
CONTINUOUS
10
7.27271
20
-4.29797
11
7.2727
21
-4.29789
0
LINE
8
BLACK
6
CONTINUOUS
10
7.2727
20
-4.29789
11
7.27268
21
-4.29782
0
LINE
8
BLACK
6
CONTINUOUS
10
7.27268
20
-4.29782
11
7.27266
21
-4.29761
0
LINE
8
BLACK
6
CONTINUOUS
10
7.27266
20
-4.29761
11
7.27263
21
-4.29739
0
LINE
8
BLACK
6
CONTINUOUS
10
7.27263
20
-4.29739
11
7.27264
21
-4.29717
0
LINE
8
BLACK
6
CONTINUOUS
10
7.27264
20
-4.29717
11
7.27264
21
-4.18506
0
LINE
8
BLACK
6
CONTINUOUS
10
7.27264
20
-4.18506
11
7.27263
21
-4.18478
0
LINE
8
BLACK
6
CONTINUOUS
10
7.27263
20
-4.18478
11
7.27266
21
-4.18462
0
LINE
8
BLACK
6
CONTINUOUS
10
7.27266
20
-4.18462
11
7.27268
21
-4.18446
0
LINE
8
BLACK
6
CONTINUOUS
10
7.27268
20
-4.18446
11
7.27272
21
-4.18434
0
LINE
8
BLACK
6
CONTINUOUS
10
7.27272
20
-4.18434
11
7.27274
21
-4.18421
0
LINE
8
BLACK
6
CONTINUOUS
10
7.27274
20
-4.18421
11
7.2728
21
-4.18406
0
LINE
8
BLACK
6
CONTINUOUS
10
7.2728
20
-4.18406
11
7.27285
21
-4.1839
0
LINE
8
BLACK
6
CONTINUOUS
10
7.27285
20
-4.1839
11
7.27291
21
-4.18379
0
LINE
8
BLACK
6
CONTINUOUS
10
7.27291
20
-4.18379
11
7.27296
21
-4.18367
0
LINE
8
BLACK
6
CONTINUOUS
10
7.27296
20
-4.18367
11
7.27305
21
-4.18354
0
LINE
8
BLACK
6
CONTINUOUS
10
7.27305
20
-4.18354
11
7.27312
21
-4.18339
0
LINE
8
BLACK
6
CONTINUOUS
10
7.27312
20
-4.18339
11
7.2732
21
-4.18329
0
LINE
8
BLACK
6
CONTINUOUS
10
7.2732
20
-4.18329
11
7.27327
21
-4.18318
0
LINE
8
BLACK
6
CONTINUOUS
10
7.27327
20
-4.18318
11
7.27339
21
-4.18307
0
LINE
8
BLACK
6
CONTINUOUS
10
7.27339
20
-4.18307
11
7.27349
21
-4.18294
0
LINE
8
BLACK
6
CONTINUOUS
10
7.27349
20
-4.18294
11
7.27359
21
-4.18286
0
LINE
8
BLACK
6
CONTINUOUS
10
7.27359
20
-4.18286
11
7.27368
21
-4.18277
0
LINE
8
BLACK
6
CONTINUOUS
10
7.27368
20
-4.18277
11
7.27382
21
-4.18268
0
LINE
8
BLACK
6
CONTINUOUS
10
7.27382
20
-4.18268
11
7.27394
21
-4.18257
0
LINE
8
BLACK
6
CONTINUOUS
10
7.27394
20
-4.18257
11
7.27418
21
-4.18245
0
LINE
8
BLACK
6
CONTINUOUS
10
7.27418
20
-4.18245
11
7.31348
21
-4.16083
0
LINE
8
BLACK
6
CONTINUOUS
10
7.31348
20
-4.16083
11
7.31366
21
-4.16072
0
LINE
8
BLACK
6
CONTINUOUS
10
7.31366
20
-4.16072
11
7.31386
21
-4.16064
0
LINE
8
BLACK
6
CONTINUOUS
10
7.31386
20
-4.16064
11
7.31407
21
-4.16056
0
LINE
8
BLACK
6
CONTINUOUS
10
7.31407
20
-4.16056
11
7.31414
21
-4.16054
0
LINE
8
BLACK
6
CONTINUOUS
10
7.31414
20
-4.16054
11
7.31421
21
-4.16052
0
LINE
8
BLACK
6
CONTINUOUS
10
7.31421
20
-4.16052
11
7.31442
21
-4.16048
0
LINE
8
BLACK
6
CONTINUOUS
10
7.31442
20
-4.16048
11
7.31463
21
-4.16044
0
LINE
8
BLACK
6
CONTINUOUS
10
7.31463
20
-4.16044
11
7.31471
21
-4.16044
0
LINE
8
BLACK
6
CONTINUOUS
10
7.31471
20
-4.16044
11
7.31478
21
-4.16042
0
LINE
8
BLACK
6
CONTINUOUS
10
7.31478
20
-4.16042
11
7.315
21
-4.16043
0
LINE
8
BLACK
6
CONTINUOUS
10
7.27854
20
-4.18679
11
7.27854
21
-4.29557
0
LINE
8
BLACK
6
CONTINUOUS
10
7.27854
20
-4.29557
11
7.43707
21
-4.3903
0
LINE
8
BLACK
6
CONTINUOUS
10
7.43707
20
-4.3903
11
7.47736
21
-4.36833
0
LINE
8
BLACK
6
CONTINUOUS
10
7.47736
20
-4.36833
11
7.47736
21
-4.26154
0
LINE
8
BLACK
6
CONTINUOUS
10
7.47736
20
-4.26154
11
7.31492
21
-4.16678
0
LINE
8
BLACK
6
CONTINUOUS
10
7.31492
20
-4.16678
11
7.27854
21
-4.18679
0
LINE
8
BLACK
6
CONTINUOUS
10
7.17548
20
-4.1506
11
7.17557
21
-4.1506
0
LINE
8
BLACK
6
CONTINUOUS
10
7.17557
20
-4.1506
11
7.17576
21
-4.15064
0
LINE
8
BLACK
6
CONTINUOUS
10
7.17576
20
-4.15064
11
7.17596
21
-4.15067
0
LINE
8
BLACK
6
CONTINUOUS
10
7.17596
20
-4.15067
11
7.17605
21
-4.15071
0
LINE
8
BLACK
6
CONTINUOUS
10
7.17605
20
-4.15071
11
7.17614
21
-4.15073
0
LINE
8
BLACK
6
CONTINUOUS
10
7.17614
20
-4.15073
11
7.17632
21
-4.15081
0
LINE
8
BLACK
6
CONTINUOUS
10
7.17632
20
-4.15081
11
7.1765
21
-4.15088
0
LINE
8
BLACK
6
CONTINUOUS
10
7.1765
20
-4.15088
11
7.1767
21
-4.151
0
LINE
8
BLACK
6
CONTINUOUS
10
7.1767
20
-4.151
11
7.23175
21
-4.18246
0
LINE
8
BLACK
6
CONTINUOUS
10
7.23175
20
-4.18246
11
7.23196
21
-4.18257
0
LINE
8
BLACK
6
CONTINUOUS
10
7.23196
20
-4.18257
11
7.23211
21
-4.18269
0
LINE
8
BLACK
6
CONTINUOUS
10
7.23211
20
-4.18269
11
7.23226
21
-4.1828
0
LINE
8
BLACK
6
CONTINUOUS
10
7.23226
20
-4.1828
11
7.23233
21
-4.18288
0
LINE
8
BLACK
6
CONTINUOUS
10
7.23233
20
-4.18288
11
7.23241
21
-4.18294
0
LINE
8
BLACK
6
CONTINUOUS
10
7.23241
20
-4.18294
11
7.23253
21
-4.18309
0
LINE
8
BLACK
6
CONTINUOUS
10
7.23253
20
-4.18309
11
7.23266
21
-4.18322
0
LINE
8
BLACK
6
CONTINUOUS
10
7.23266
20
-4.18322
11
7.23272
21
-4.18331
0
LINE
8
BLACK
6
CONTINUOUS
10
7.23272
20
-4.18331
11
7.23278
21
-4.18339
0
LINE
8
BLACK
6
CONTINUOUS
10
7.23278
20
-4.18339
11
7.23287
21
-4.18356
0
LINE
8
BLACK
6
CONTINUOUS
10
7.23287
20
-4.18356
11
7.23297
21
-4.18372
0
LINE
8
BLACK
6
CONTINUOUS
10
7.23297
20
-4.18372
11
7.23301
21
-4.18381
0
LINE
8
BLACK
6
CONTINUOUS
10
7.23301
20
-4.18381
11
7.23306
21
-4.1839
0
LINE
8
BLACK
6
CONTINUOUS
10
7.23306
20
-4.1839
11
7.23311
21
-4.18408
0
LINE
8
BLACK
6
CONTINUOUS
10
7.23311
20
-4.18408
11
7.23318
21
-4.18426
0
LINE
8
BLACK
6
CONTINUOUS
10
7.23318
20
-4.18426
11
7.23319
21
-4.18436
0
LINE
8
BLACK
6
CONTINUOUS
10
7.23319
20
-4.18436
11
7.23322
21
-4.18446
0
LINE
8
BLACK
6
CONTINUOUS
10
7.23322
20
-4.18446
11
7.23324
21
-4.18465
0
LINE
8
BLACK
6
CONTINUOUS
10
7.23324
20
-4.18465
11
7.23327
21
-4.18483
0
LINE
8
BLACK
6
CONTINUOUS
10
7.23327
20
-4.18483
11
7.23327
21
-4.18508
0
LINE
8
BLACK
6
CONTINUOUS
10
7.23327
20
-4.18508
11
7.23327
21
-4.29916
0
LINE
8
BLACK
6
CONTINUOUS
10
7.23327
20
-4.29916
11
7.23328
21
-4.2994
0
LINE
8
BLACK
6
CONTINUOUS
10
7.23328
20
-4.2994
11
7.23324
21
-4.2996
0
LINE
8
BLACK
6
CONTINUOUS
10
7.23324
20
-4.2996
11
7.23322
21
-4.29979
0
LINE
8
BLACK
6
CONTINUOUS
10
7.23322
20
-4.29979
11
7.2332
21
-4.29988
0
LINE
8
BLACK
6
CONTINUOUS
10
7.2332
20
-4.29988
11
7.23318
21
-4.29998
0
LINE
8
BLACK
6
CONTINUOUS
10
7.23318
20
-4.29998
11
7.23311
21
-4.30016
0
LINE
8
BLACK
6
CONTINUOUS
10
7.23311
20
-4.30016
11
7.23306
21
-4.30035
0
LINE
8
BLACK
6
CONTINUOUS
10
7.23306
20
-4.30035
11
7.23301
21
-4.30043
0
LINE
8
BLACK
6
CONTINUOUS
10
7.23301
20
-4.30043
11
7.23298
21
-4.30052
0
LINE
8
BLACK
6
CONTINUOUS
10
7.23298
20
-4.30052
11
7.23287
21
-4.30069
0
LINE
8
BLACK
6
CONTINUOUS
10
7.23287
20
-4.30069
11
7.23278
21
-4.30086
0
LINE
8
BLACK
6
CONTINUOUS
10
7.23278
20
-4.30086
11
7.23272
21
-4.30094
0
LINE
8
BLACK
6
CONTINUOUS
10
7.23272
20
-4.30094
11
7.23267
21
-4.30102
0
LINE
8
BLACK
6
CONTINUOUS
10
7.23267
20
-4.30102
11
7.23254
21
-4.30116
0
LINE
8
BLACK
6
CONTINUOUS
10
7.23254
20
-4.30116
11
7.23241
21
-4.30131
0
LINE
8
BLACK
6
CONTINUOUS
10
7.23241
20
-4.30131
11
7.23234
21
-4.30137
0
LINE
8
BLACK
6
CONTINUOUS
10
7.23234
20
-4.30137
11
7.23227
21
-4.30144
0
LINE
8
BLACK
6
CONTINUOUS
10
7.23227
20
-4.30144
11
7.23211
21
-4.30156
0
LINE
8
BLACK
6
CONTINUOUS
10
7.23211
20
-4.30156
11
7.23196
21
-4.30168
0
LINE
8
BLACK
6
CONTINUOUS
10
7.23196
20
-4.30168
11
7.23175
21
-4.30179
0
LINE
8
BLACK
6
CONTINUOUS
10
7.23175
20
-4.30179
11
7.06844
21
-4.39624
0
LINE
8
BLACK
6
CONTINUOUS
10
7.06844
20
-4.39624
11
7.06823
21
-4.39637
0
LINE
8
BLACK
6
CONTINUOUS
10
7.06823
20
-4.39637
11
7.06806
21
-4.39643
0
LINE
8
BLACK
6
CONTINUOUS
10
7.06806
20
-4.39643
11
7.06788
21
-4.39651
0
LINE
8
BLACK
6
CONTINUOUS
10
7.06788
20
-4.39651
11
7.06778
21
-4.39653
0
LINE
8
BLACK
6
CONTINUOUS
10
7.06778
20
-4.39653
11
7.06769
21
-4.39657
0
LINE
8
BLACK
6
CONTINUOUS
10
7.06769
20
-4.39657
11
7.0675
21
-4.3966
0
LINE
8
BLACK
6
CONTINUOUS
10
7.0675
20
-4.3966
11
7.06732
21
-4.39664
0
LINE
8
BLACK
6
CONTINUOUS
10
7.06732
20
-4.39664
11
7.06722
21
-4.39665
0
LINE
8
BLACK
6
CONTINUOUS
10
7.06722
20
-4.39665
11
7.06711
21
-4.39666
0
LINE
8
BLACK
6
CONTINUOUS
10
7.06711
20
-4.39666
11
7.06693
21
-4.39666
0
LINE
8
BLACK
6
CONTINUOUS
10
7.06693
20
-4.39666
11
7.06674
21
-4.39666
0
LINE
8
BLACK
6
CONTINUOUS
10
7.06674
20
-4.39666
11
7.06664
21
-4.39664
0
LINE
8
BLACK
6
CONTINUOUS
10
7.06664
20
-4.39664
11
7.06653
21
-4.39664
0
LINE
8
BLACK
6
CONTINUOUS
10
7.06653
20
-4.39664
11
7.06635
21
-4.3966
0
LINE
8
BLACK
6
CONTINUOUS
10
7.06635
20
-4.3966
11
7.06616
21
-4.39657
0
LINE
8
BLACK
6
CONTINUOUS
10
7.06616
20
-4.39657
11
7.06607
21
-4.39653
0
LINE
8
BLACK
6
CONTINUOUS
10
7.06607
20
-4.39653
11
7.06597
21
-4.39651
0
LINE
8
BLACK
6
CONTINUOUS
10
7.06597
20
-4.39651
11
7.0658
21
-4.39643
0
LINE
8
BLACK
6
CONTINUOUS
10
7.0658
20
-4.39643
11
7.06562
21
-4.39636
0
LINE
8
BLACK
6
CONTINUOUS
10
7.06562
20
-4.39636
11
7.06541
21
-4.39623
0
LINE
8
BLACK
6
CONTINUOUS
10
7.06541
20
-4.39623
11
6.98084
21
-4.34707
0
LINE
8
BLACK
6
CONTINUOUS
10
6.98084
20
-4.34707
11
6.98064
21
-4.34696
0
LINE
8
BLACK
6
CONTINUOUS
10
6.98064
20
-4.34696
11
6.98048
21
-4.34683
0
LINE
8
BLACK
6
CONTINUOUS
10
6.98048
20
-4.34683
11
6.98032
21
-4.34671
0
LINE
8
BLACK
6
CONTINUOUS
10
6.98032
20
-4.34671
11
6.98026
21
-4.34665
0
LINE
8
BLACK
6
CONTINUOUS
10
6.98026
20
-4.34665
11
6.98019
21
-4.34659
0
LINE
8
BLACK
6
CONTINUOUS
10
6.98019
20
-4.34659
11
6.98006
21
-4.34643
0
LINE
8
BLACK
6
CONTINUOUS
10
6.98006
20
-4.34643
11
6.97992
21
-4.34629
0
LINE
8
BLACK
6
CONTINUOUS
10
6.97992
20
-4.34629
11
6.97988
21
-4.34621
0
LINE
8
BLACK
6
CONTINUOUS
10
6.97988
20
-4.34621
11
6.97982
21
-4.34614
0
LINE
8
BLACK
6
CONTINUOUS
10
6.97982
20
-4.34614
11
6.97972
21
-4.34596
0
LINE
8
BLACK
6
CONTINUOUS
10
6.97972
20
-4.34596
11
6.97962
21
-4.34579
0
LINE
8
BLACK
6
CONTINUOUS
10
6.97962
20
-4.34579
11
6.97959
21
-4.34571
0
LINE
8
BLACK
6
CONTINUOUS
10
6.97959
20
-4.34571
11
6.97954
21
-4.34562
0
LINE
8
BLACK
6
CONTINUOUS
10
6.97954
20
-4.34562
11
6.97948
21
-4.34543
0
LINE
8
BLACK
6
CONTINUOUS
10
6.97948
20
-4.34543
11
6.97942
21
-4.34525
0
LINE
8
BLACK
6
CONTINUOUS
10
6.97942
20
-4.34525
11
6.9794
21
-4.34516
0
LINE
8
BLACK
6
CONTINUOUS
10
6.9794
20
-4.34516
11
6.97937
21
-4.34507
0
LINE
8
BLACK
6
CONTINUOUS
10
6.97937
20
-4.34507
11
6.97935
21
-4.34487
0
LINE
8
BLACK
6
CONTINUOUS
10
6.97935
20
-4.34487
11
6.97932
21
-4.34467
0
LINE
8
BLACK
6
CONTINUOUS
10
6.97932
20
-4.34467
11
6.97933
21
-4.34444
0
LINE
8
BLACK
6
CONTINUOUS
10
6.97933
20
-4.34444
11
6.97933
21
-4.2658
0
LINE
8
BLACK
6
CONTINUOUS
10
6.97933
20
-4.2658
11
6.97932
21
-4.26556
0
LINE
8
BLACK
6
CONTINUOUS
10
6.97932
20
-4.26556
11
6.97935
21
-4.26537
0
LINE
8
BLACK
6
CONTINUOUS
10
6.97935
20
-4.26537
11
6.97937
21
-4.26517
0
LINE
8
BLACK
6
CONTINUOUS
10
6.97937
20
-4.26517
11
6.9794
21
-4.26508
0
LINE
8
BLACK
6
CONTINUOUS
10
6.9794
20
-4.26508
11
6.97942
21
-4.26499
0
LINE
8
BLACK
6
CONTINUOUS
10
6.97942
20
-4.26499
11
6.97948
21
-4.2648
0
LINE
8
BLACK
6
CONTINUOUS
10
6.97948
20
-4.2648
11
6.97954
21
-4.26461
0
LINE
8
BLACK
6
CONTINUOUS
10
6.97954
20
-4.26461
11
6.97959
21
-4.26453
0
LINE
8
BLACK
6
CONTINUOUS
10
6.97959
20
-4.26453
11
6.97962
21
-4.26444
0
LINE
8
BLACK
6
CONTINUOUS
10
6.97962
20
-4.26444
11
6.97972
21
-4.26427
0
LINE
8
BLACK
6
CONTINUOUS
10
6.97972
20
-4.26427
11
6.97982
21
-4.2641
0
LINE
8
BLACK
6
CONTINUOUS
10
6.97982
20
-4.2641
11
6.97988
21
-4.26403
0
LINE
8
BLACK
6
CONTINUOUS
10
6.97988
20
-4.26403
11
6.97992
21
-4.26395
0
LINE
8
BLACK
6
CONTINUOUS
10
6.97992
20
-4.26395
11
6.98006
21
-4.2638
0
LINE
8
BLACK
6
CONTINUOUS
10
6.98006
20
-4.2638
11
6.98019
21
-4.26365
0
LINE
8
BLACK
6
CONTINUOUS
10
6.98019
20
-4.26365
11
6.98026
21
-4.26359
0
LINE
8
BLACK
6
CONTINUOUS
10
6.98026
20
-4.26359
11
6.98032
21
-4.26352
0
LINE
8
BLACK
6
CONTINUOUS
10
6.98032
20
-4.26352
11
6.98048
21
-4.26341
0
LINE
8
BLACK
6
CONTINUOUS
10
6.98048
20
-4.26341
11
6.98064
21
-4.26328
0
LINE
8
BLACK
6
CONTINUOUS
10
6.98064
20
-4.26328
11
6.98084
21
-4.26317
0
LINE
8
BLACK
6
CONTINUOUS
10
6.98084
20
-4.26317
11
7.17367
21
-4.15102
0
LINE
8
BLACK
6
CONTINUOUS
10
7.17367
20
-4.15102
11
7.17387
21
-4.15089
0
LINE
8
BLACK
6
CONTINUOUS
10
7.17387
20
-4.15089
11
7.17406
21
-4.15082
0
LINE
8
BLACK
6
CONTINUOUS
10
7.17406
20
-4.15082
11
7.17423
21
-4.15074
0
LINE
8
BLACK
6
CONTINUOUS
10
7.17423
20
-4.15074
11
7.17433
21
-4.15071
0
LINE
8
BLACK
6
CONTINUOUS
10
7.17433
20
-4.15071
11
7.17442
21
-4.15068
0
LINE
8
BLACK
6
CONTINUOUS
10
7.17442
20
-4.15068
11
7.17461
21
-4.15065
0
LINE
8
BLACK
6
CONTINUOUS
10
7.17461
20
-4.15065
11
7.1748
21
-4.1506
0
LINE
8
BLACK
6
CONTINUOUS
10
7.1748
20
-4.1506
11
7.1749
21
-4.1506
0
LINE
8
BLACK
6
CONTINUOUS
10
7.1749
20
-4.1506
11
7.17499
21
-4.15058
0
LINE
8
BLACK
6
CONTINUOUS
10
7.17499
20
-4.15058
11
7.17519
21
-4.15059
0
LINE
8
BLACK
6
CONTINUOUS
10
7.17519
20
-4.15059
11
7.17538
21
-4.15058
0
LINE
8
BLACK
6
CONTINUOUS
10
7.17538
20
-4.15058
11
7.17548
21
-4.1506
0
LINE
8
BLACK
6
CONTINUOUS
10
6.98524
20
-4.26745
11
6.98524
21
-4.34279
0
LINE
8
BLACK
6
CONTINUOUS
10
6.98524
20
-4.34279
11
7.06693
21
-4.39029
0
LINE
8
BLACK
6
CONTINUOUS
10
7.06693
20
-4.39029
11
7.22736
21
-4.29751
0
LINE
8
BLACK
6
CONTINUOUS
10
7.22736
20
-4.29751
11
7.22736
21
-4.18675
0
LINE
8
BLACK
6
CONTINUOUS
10
7.22736
20
-4.18675
11
7.17521
21
-4.15695
0
LINE
8
BLACK
6
CONTINUOUS
10
7.17521
20
-4.15695
11
6.98524
21
-4.26745
0
LINE
8
BLACK
6
CONTINUOUS
10
6.57695
20
-3.7313
11
6.57717
21
-3.73131
0
LINE
8
BLACK
6
CONTINUOUS
10
6.57717
20
-3.73131
11
6.57724
21
-3.73133
0
LINE
8
BLACK
6
CONTINUOUS
10
6.57724
20
-3.73133
11
6.57731
21
-3.73134
0
LINE
8
BLACK
6
CONTINUOUS
10
6.57731
20
-3.73134
11
6.57752
21
-3.7314
0
LINE
8
BLACK
6
CONTINUOUS
10
6.57752
20
-3.7314
11
6.57773
21
-3.73144
0
LINE
8
BLACK
6
CONTINUOUS
10
6.57773
20
-3.73144
11
6.5778
21
-3.73148
0
LINE
8
BLACK
6
CONTINUOUS
10
6.5778
20
-3.73148
11
6.57787
21
-3.7315
0
LINE
8
BLACK
6
CONTINUOUS
10
6.57787
20
-3.7315
11
6.57806
21
-3.7316
0
LINE
8
BLACK
6
CONTINUOUS
10
6.57806
20
-3.7316
11
6.57813
21
-3.73163
0
LINE
8
BLACK
6
CONTINUOUS
10
6.57813
20
-3.73163
11
6.57819
21
-3.73166
0
LINE
8
BLACK
6
CONTINUOUS
10
6.57819
20
-3.73166
11
6.57839
21
-3.73177
0
LINE
8
BLACK
6
CONTINUOUS
10
6.57839
20
-3.73177
11
6.57844
21
-3.73181
0
LINE
8
BLACK
6
CONTINUOUS
10
6.57844
20
-3.73181
11
6.83608
21
-3.88128
0
LINE
8
BLACK
6
CONTINUOUS
10
6.83608
20
-3.88128
11
6.83629
21
-3.88139
0
LINE
8
BLACK
6
CONTINUOUS
10
6.83629
20
-3.88139
11
6.83645
21
-3.88152
0
LINE
8
BLACK
6
CONTINUOUS
10
6.83645
20
-3.88152
11
6.83661
21
-3.88163
0
LINE
8
BLACK
6
CONTINUOUS
10
6.83661
20
-3.88163
11
6.83667
21
-3.8817
0
LINE
8
BLACK
6
CONTINUOUS
10
6.83667
20
-3.8817
11
6.83674
21
-3.88176
0
LINE
8
BLACK
6
CONTINUOUS
10
6.83674
20
-3.88176
11
6.83687
21
-3.88191
0
LINE
8
BLACK
6
CONTINUOUS
10
6.83687
20
-3.88191
11
6.837
21
-3.88206
0
LINE
8
BLACK
6
CONTINUOUS
10
6.837
20
-3.88206
11
6.83705
21
-3.88214
0
LINE
8
BLACK
6
CONTINUOUS
10
6.83705
20
-3.88214
11
6.83711
21
-3.88221
0
LINE
8
BLACK
6
CONTINUOUS
10
6.83711
20
-3.88221
11
6.83721
21
-3.88238
0
LINE
8
BLACK
6
CONTINUOUS
10
6.83721
20
-3.88238
11
6.83731
21
-3.88255
0
LINE
8
BLACK
6
CONTINUOUS
10
6.83731
20
-3.88255
11
6.83734
21
-3.88264
0
LINE
8
BLACK
6
CONTINUOUS
10
6.83734
20
-3.88264
11
6.83739
21
-3.88272
0
LINE
8
BLACK
6
CONTINUOUS
10
6.83739
20
-3.88272
11
6.83744
21
-3.88291
0
LINE
8
BLACK
6
CONTINUOUS
10
6.83744
20
-3.88291
11
6.83751
21
-3.8831
0
LINE
8
BLACK
6
CONTINUOUS
10
6.83751
20
-3.8831
11
6.83753
21
-3.88319
0
LINE
8
BLACK
6
CONTINUOUS
10
6.83753
20
-3.88319
11
6.83756
21
-3.88328
0
LINE
8
BLACK
6
CONTINUOUS
10
6.83756
20
-3.88328
11
6.83758
21
-3.88348
0
LINE
8
BLACK
6
CONTINUOUS
10
6.83758
20
-3.88348
11
6.83761
21
-3.88367
0
LINE
8
BLACK
6
CONTINUOUS
10
6.83761
20
-3.88367
11
6.8376
21
-3.88391
0
LINE
8
BLACK
6
CONTINUOUS
10
6.8376
20
-3.88391
11
6.8376
21
-3.9035
0
LINE
8
BLACK
6
CONTINUOUS
10
6.8376
20
-3.9035
11
6.83761
21
-3.90375
0
LINE
8
BLACK
6
CONTINUOUS
10
6.83761
20
-3.90375
11
6.83757
21
-3.90393
0
LINE
8
BLACK
6
CONTINUOUS
10
6.83757
20
-3.90393
11
6.83756
21
-3.90412
0
LINE
8
BLACK
6
CONTINUOUS
10
6.83756
20
-3.90412
11
6.83753
21
-3.90422
0
LINE
8
BLACK
6
CONTINUOUS
10
6.83753
20
-3.90422
11
6.83751
21
-3.90432
0
LINE
8
BLACK
6
CONTINUOUS
10
6.83751
20
-3.90432
11
6.83744
21
-3.9045
0
LINE
8
BLACK
6
CONTINUOUS
10
6.83744
20
-3.9045
11
6.83739
21
-3.90468
0
LINE
8
BLACK
6
CONTINUOUS
10
6.83739
20
-3.90468
11
6.83734
21
-3.90477
0
LINE
8
BLACK
6
CONTINUOUS
10
6.83734
20
-3.90477
11
6.8373
21
-3.90487
0
LINE
8
BLACK
6
CONTINUOUS
10
6.8373
20
-3.90487
11
6.8372
21
-3.90502
0
LINE
8
BLACK
6
CONTINUOUS
10
6.8372
20
-3.90502
11
6.83711
21
-3.90519
0
LINE
8
BLACK
6
CONTINUOUS
10
6.83711
20
-3.90519
11
6.83705
21
-3.90527
0
LINE
8
BLACK
6
CONTINUOUS
10
6.83705
20
-3.90527
11
6.83699
21
-3.90536
0
LINE
8
BLACK
6
CONTINUOUS
10
6.83699
20
-3.90536
11
6.83686
21
-3.9055
0
LINE
8
BLACK
6
CONTINUOUS
10
6.83686
20
-3.9055
11
6.83674
21
-3.90564
0
LINE
8
BLACK
6
CONTINUOUS
10
6.83674
20
-3.90564
11
6.83666
21
-3.90571
0
LINE
8
BLACK
6
CONTINUOUS
10
6.83666
20
-3.90571
11
6.83659
21
-3.90578
0
LINE
8
BLACK
6
CONTINUOUS
10
6.83659
20
-3.90578
11
6.83644
21
-3.90589
0
LINE
8
BLACK
6
CONTINUOUS
10
6.83644
20
-3.90589
11
6.83629
21
-3.90601
0
LINE
8
BLACK
6
CONTINUOUS
10
6.83629
20
-3.90601
11
6.83608
21
-3.90613
0
LINE
8
BLACK
6
CONTINUOUS
10
6.83608
20
-3.90613
11
6.57841
21
-4.05364
0
LINE
8
BLACK
6
CONTINUOUS
10
6.57841
20
-4.05364
11
6.57834
21
-4.0537
0
LINE
8
BLACK
6
CONTINUOUS
10
6.57834
20
-4.0537
11
6.57816
21
-4.05379
0
LINE
8
BLACK
6
CONTINUOUS
10
6.57816
20
-4.05379
11
6.57811
21
-4.05382
0
LINE
8
BLACK
6
CONTINUOUS
10
6.57811
20
-4.05382
11
6.57803
21
-4.05385
0
LINE
8
BLACK
6
CONTINUOUS
10
6.57803
20
-4.05385
11
6.57782
21
-4.05396
0
LINE
8
BLACK
6
CONTINUOUS
10
6.57782
20
-4.05396
11
6.57777
21
-4.05397
0
LINE
8
BLACK
6
CONTINUOUS
10
6.57777
20
-4.05397
11
6.57772
21
-4.05399
0
LINE
8
BLACK
6
CONTINUOUS
10
6.57772
20
-4.05399
11
6.57749
21
-4.05405
0
LINE
8
BLACK
6
CONTINUOUS
10
6.57749
20
-4.05405
11
6.57726
21
-4.05411
0
LINE
8
BLACK
6
CONTINUOUS
10
6.57726
20
-4.05411
11
6.5772
21
-4.05411
0
LINE
8
BLACK
6
CONTINUOUS
10
6.5772
20
-4.05411
11
6.57715
21
-4.05412
0
LINE
8
BLACK
6
CONTINUOUS
10
6.57715
20
-4.05412
11
6.57691
21
-4.05413
0
LINE
8
BLACK
6
CONTINUOUS
10
6.57691
20
-4.05413
11
6.57668
21
-4.05415
0
LINE
8
BLACK
6
CONTINUOUS
10
6.57668
20
-4.05415
11
6.57662
21
-4.05414
0
LINE
8
BLACK
6
CONTINUOUS
10
6.57662
20
-4.05414
11
6.57657
21
-4.05414
0
LINE
8
BLACK
6
CONTINUOUS
10
6.57657
20
-4.05414
11
6.57633
21
-4.0541
0
LINE
8
BLACK
6
CONTINUOUS
10
6.57633
20
-4.0541
11
6.5761
21
-4.05407
0
LINE
8
BLACK
6
CONTINUOUS
10
6.5761
20
-4.05407
11
6.57605
21
-4.05405
0
LINE
8
BLACK
6
CONTINUOUS
10
6.57605
20
-4.05405
11
6.57599
21
-4.05404
0
LINE
8
BLACK
6
CONTINUOUS
10
6.57599
20
-4.05404
11
6.57577
21
-4.05396
0
LINE
8
BLACK
6
CONTINUOUS
10
6.57577
20
-4.05396
11
6.57555
21
-4.05389
0
LINE
8
BLACK
6
CONTINUOUS
10
6.57555
20
-4.05389
11
6.5755
21
-4.05386
0
LINE
8
BLACK
6
CONTINUOUS
10
6.5755
20
-4.05386
11
6.57545
21
-4.05384
0
LINE
8
BLACK
6
CONTINUOUS
10
6.57545
20
-4.05384
11
6.57525
21
-4.05371
0
LINE
8
BLACK
6
CONTINUOUS
10
6.57525
20
-4.05371
11
6.57517
21
-4.05367
0
LINE
8
BLACK
6
CONTINUOUS
10
6.57517
20
-4.05367
11
6.57513
21
-4.05363
0
LINE
8
BLACK
6
CONTINUOUS
10
6.57513
20
-4.05363
11
6.57496
21
-4.05353
0
LINE
8
BLACK
6
CONTINUOUS
10
6.57496
20
-4.05353
11
6.57489
21
-4.05347
0
LINE
8
BLACK
6
CONTINUOUS
10
6.57489
20
-4.05347
11
6.56143
21
-4.04385
0
LINE
8
BLACK
6
CONTINUOUS
10
6.56143
20
-4.04385
11
6.56134
21
-4.04381
0
LINE
8
BLACK
6
CONTINUOUS
10
6.56134
20
-4.04381
11
6.5612
21
-4.04368
0
LINE
8
BLACK
6
CONTINUOUS
10
6.5612
20
-4.04368
11
6.56116
21
-4.04366
0
LINE
8
BLACK
6
CONTINUOUS
10
6.56116
20
-4.04366
11
6.56108
21
-4.04359
0
LINE
8
BLACK
6
CONTINUOUS
10
6.56108
20
-4.04359
11
6.56089
21
-4.04344
0
LINE
8
BLACK
6
CONTINUOUS
10
6.56089
20
-4.04344
11
6.56086
21
-4.0434
0
LINE
8
BLACK
6
CONTINUOUS
10
6.56086
20
-4.0434
11
6.56083
21
-4.04337
0
LINE
8
BLACK
6
CONTINUOUS
10
6.56083
20
-4.04337
11
6.56068
21
-4.04318
0
LINE
8
BLACK
6
CONTINUOUS
10
6.56068
20
-4.04318
11
6.56053
21
-4.04299
0
LINE
8
BLACK
6
CONTINUOUS
10
6.56053
20
-4.04299
11
6.5605
21
-4.04295
0
LINE
8
BLACK
6
CONTINUOUS
10
6.5605
20
-4.04295
11
6.56047
21
-4.04291
0
LINE
8
BLACK
6
CONTINUOUS
10
6.56047
20
-4.04291
11
6.56037
21
-4.04269
0
LINE
8
BLACK
6
CONTINUOUS
10
6.56037
20
-4.04269
11
6.56025
21
-4.04247
0
LINE
8
BLACK
6
CONTINUOUS
10
6.56025
20
-4.04247
11
6.56024
21
-4.04243
0
LINE
8
BLACK
6
CONTINUOUS
10
6.56024
20
-4.04243
11
6.56022
21
-4.04239
0
LINE
8
BLACK
6
CONTINUOUS
10
6.56022
20
-4.04239
11
6.56015
21
-4.04215
0
LINE
8
BLACK
6
CONTINUOUS
10
6.56015
20
-4.04215
11
6.56008
21
-4.04192
0
LINE
8
BLACK
6
CONTINUOUS
10
6.56008
20
-4.04192
11
6.56008
21
-4.04187
0
LINE
8
BLACK
6
CONTINUOUS
10
6.56008
20
-4.04187
11
6.56007
21
-4.04183
0
LINE
8
BLACK
6
CONTINUOUS
10
6.56007
20
-4.04183
11
6.56005
21
-4.04158
0
LINE
8
BLACK
6
CONTINUOUS
10
6.56005
20
-4.04158
11
6.56004
21
-4.04148
0
LINE
8
BLACK
6
CONTINUOUS
10
6.56004
20
-4.04148
11
6.56004
21
-4.04144
0
LINE
8
BLACK
6
CONTINUOUS
10
6.56004
20
-4.04144
11
6.56003
21
-4.04125
0
LINE
8
BLACK
6
CONTINUOUS
10
6.56003
20
-4.04125
11
6.56004
21
-4.04115
0
LINE
8
BLACK
6
CONTINUOUS
10
6.56004
20
-4.04115
11
6.56004
21
-3.74032
0
LINE
8
BLACK
6
CONTINUOUS
10
6.56004
20
-3.74032
11
6.56003
21
-3.74019
0
LINE
8
BLACK
6
CONTINUOUS
10
6.56003
20
-3.74019
11
6.56004
21
-3.74003
0
LINE
8
BLACK
6
CONTINUOUS
10
6.56004
20
-3.74003
11
6.56004
21
-3.74001
0
LINE
8
BLACK
6
CONTINUOUS
10
6.56004
20
-3.74001
11
6.56005
21
-3.73988
0
LINE
8
BLACK
6
CONTINUOUS
10
6.56005
20
-3.73988
11
6.56008
21
-3.73961
0
LINE
8
BLACK
6
CONTINUOUS
10
6.56008
20
-3.73961
11
6.56008
21
-3.7396
0
LINE
8
BLACK
6
CONTINUOUS
10
6.56008
20
-3.7396
11
6.56008
21
-3.73958
0
LINE
8
BLACK
6
CONTINUOUS
10
6.56008
20
-3.73958
11
6.56016
21
-3.73932
0
LINE
8
BLACK
6
CONTINUOUS
10
6.56016
20
-3.73932
11
6.56024
21
-3.73906
0
LINE
8
BLACK
6
CONTINUOUS
10
6.56024
20
-3.73906
11
6.56025
21
-3.73904
0
LINE
8
BLACK
6
CONTINUOUS
10
6.56025
20
-3.73904
11
6.56025
21
-3.73902
0
LINE
8
BLACK
6
CONTINUOUS
10
6.56025
20
-3.73902
11
6.56038
21
-3.73878
0
LINE
8
BLACK
6
CONTINUOUS
10
6.56038
20
-3.73878
11
6.56051
21
-3.73854
0
LINE
8
BLACK
6
CONTINUOUS
10
6.56051
20
-3.73854
11
6.56052
21
-3.73853
0
LINE
8
BLACK
6
CONTINUOUS
10
6.56052
20
-3.73853
11
6.56053
21
-3.73851
0
LINE
8
BLACK
6
CONTINUOUS
10
6.56053
20
-3.73851
11
6.5607
21
-3.7383
0
LINE
8
BLACK
6
CONTINUOUS
10
6.5607
20
-3.7383
11
6.56087
21
-3.73809
0
LINE
8
BLACK
6
CONTINUOUS
10
6.56087
20
-3.73809
11
6.56088
21
-3.73807
0
LINE
8
BLACK
6
CONTINUOUS
10
6.56088
20
-3.73807
11
6.56089
21
-3.73806
0
LINE
8
BLACK
6
CONTINUOUS
10
6.56089
20
-3.73806
11
6.56111
21
-3.73788
0
LINE
8
BLACK
6
CONTINUOUS
10
6.56111
20
-3.73788
11
6.56131
21
-3.73771
0
LINE
8
BLACK
6
CONTINUOUS
10
6.56131
20
-3.73771
11
6.56133
21
-3.7377
0
LINE
8
BLACK
6
CONTINUOUS
10
6.56133
20
-3.7377
11
6.56134
21
-3.73769
0
LINE
8
BLACK
6
CONTINUOUS
10
6.56134
20
-3.73769
11
6.56159
21
-3.73756
0
LINE
8
BLACK
6
CONTINUOUS
10
6.56159
20
-3.73756
11
6.5617
21
-3.7375
0
LINE
8
BLACK
6
CONTINUOUS
10
6.5617
20
-3.7375
11
6.56171
21
-3.73749
0
LINE
8
BLACK
6
CONTINUOUS
10
6.56171
20
-3.73749
11
6.56186
21
-3.73742
0
LINE
8
BLACK
6
CONTINUOUS
10
6.56186
20
-3.73742
11
6.56198
21
-3.73738
0
LINE
8
BLACK
6
CONTINUOUS
10
6.56198
20
-3.73738
11
6.57541
21
-3.73162
0
LINE
8
BLACK
6
CONTINUOUS
10
6.57541
20
-3.73162
11
6.57546
21
-3.73159
0
LINE
8
BLACK
6
CONTINUOUS
10
6.57546
20
-3.73159
11
6.57567
21
-3.73151
0
LINE
8
BLACK
6
CONTINUOUS
10
6.57567
20
-3.73151
11
6.57574
21
-3.73148
0
LINE
8
BLACK
6
CONTINUOUS
10
6.57574
20
-3.73148
11
6.57581
21
-3.73146
0
LINE
8
BLACK
6
CONTINUOUS
10
6.57581
20
-3.73146
11
6.57601
21
-3.73138
0
LINE
8
BLACK
6
CONTINUOUS
10
6.57601
20
-3.73138
11
6.57608
21
-3.73137
0
LINE
8
BLACK
6
CONTINUOUS
10
6.57608
20
-3.73137
11
6.57616
21
-3.73135
0
LINE
8
BLACK
6
CONTINUOUS
10
6.57616
20
-3.73135
11
6.57637
21
-3.73133
0
LINE
8
BLACK
6
CONTINUOUS
10
6.57637
20
-3.73133
11
6.57658
21
-3.73129
0
LINE
8
BLACK
6
CONTINUOUS
10
6.57658
20
-3.73129
11
6.57666
21
-3.73129
0
LINE
8
BLACK
6
CONTINUOUS
10
6.57666
20
-3.73129
11
6.57674
21
-3.73129
0
LINE
8
BLACK
6
CONTINUOUS
10
6.57674
20
-3.73129
11
6.57695
21
-3.7313
0
LINE
8
BLACK
6
CONTINUOUS
10
6.56594
20
-3.7421
11
6.56594
21
-4.03982
0
LINE
8
BLACK
6
CONTINUOUS
10
6.56594
20
-4.03982
11
6.57695
21
-4.04768
0
LINE
8
BLACK
6
CONTINUOUS
10
6.57695
20
-4.04768
11
6.83169
21
-3.90183
0
LINE
8
BLACK
6
CONTINUOUS
10
6.83169
20
-3.90183
11
6.83169
21
-3.88556
0
LINE
8
BLACK
6
CONTINUOUS
10
6.83169
20
-3.88556
11
6.57657
21
-3.73755
0
LINE
8
BLACK
6
CONTINUOUS
10
6.57657
20
-3.73755
11
6.56594
21
-3.7421
  0
ENDSEC
  0
EOF
