0
SECTION
2
HEADER
9
$INSUNITS
70
4
9
$ACADVER
1
AC1014
9
$HANDSEED
5
FFFF
0
ENDSEC
0
SECTION
2
TABLES
0
TABLE
2
VPORT
5
8
100
AcDbSymbolTable
0
ENDTAB
0
TABLE
2
LTYPE
5
5
100
AcDbSymbolTable
0
LTYPE
5
14
100
AcDbSymbolTableRecord
100
AcDbLinetypeTableRecord
2
BYBLOCK
70
0
0
LTYPE
5
15
100
AcDbSymbolTableRecord
100
AcDbLinetypeTableRecord
2
BYLAYER
70
0
0
ENDTAB
0
TABLE
2
LAYER
5
2
100
AcDbSymbolTable
70
2
0
LAYER
5
50
100
AcDbSymbolTableRecord
100
AcDbLayerTableRecord
2
0
70
0
6
CONTINUOUS
0
ENDTAB
0
TABLE
2
STYLE
5
3
100
AcDbSymbolTable
70
1
0
STYLE
5
11
100
AcDbSymbolTableRecord
100
AcDbTextStyleTableRecord
2
STANDARD
70
0
0
ENDTAB
0
TABLE
2
VIEW
5
6
100
AcDbSymbolTable
70
0
0
ENDTAB
0
TABLE
2
UCS
5
7
100
AcDbSymbolTable
70
0
0
ENDTAB
0
TABLE
2
APPID
5
9
100
AcDbSymbolTable
70
2
0
APPID
5
12
100
AcDbSymbolTableRecord
100
AcDbRegAppTableRecord
2
ACAD
70
0
0
ENDTAB
0
TABLE
2
DIMSTYLE
5
A
100
AcDbSymbolTable
70
1
0
ENDTAB
0
TABLE
2
BLOCK_RECORD
5
1
100
AcDbSymbolTable
70
1
0
BLOCK_RECORD
5
1F
100
AcDbSymbolTableRecord
100
AcDbBlockTableRecord
2
*MODEL_SPACE
0
BLOCK_RECORD
5
1B
100
AcDbSymbolTableRecord
100
AcDbBlockTableRecord
2
*PAPER_SPACE
0
ENDTAB
0
ENDSEC
0
SECTION
2
BLOCKS
0
BLOCK
5
20
100
AcDbEntity
100
AcDbBlockBegin
2
*MODEL_SPACE
0
ENDBLK
5
21
100
AcDbEntity
100
AcDbBlockEnd
0
BLOCK
5
1C
100
AcDbEntity
100
AcDbBlockBegin
2
*PAPER_SPACE
0
ENDBLK
5
1D
100
AcDbEntity
100
AcDbBlockEnd
0
ENDSEC
0
SECTION
2
ENTITIES
0
LWPOLYLINE
5
100
100
AcDbEntity
8
0
100
AcDbPolyline
90
352
70
1
43
0.0
10
-139.09852000000001
20
102.65000000000001
10
-140.09999999999999
20
102.65000000000001
10
-140.09999999999999
20
106.18187300000001
10
-138.33000000000001
20
107.203782
10
-138.33000000000001
20
108.05577300000002
10
-138.01045500000001
20
108.240262
10
-137.265624
20
107.81023400000001
10
-136.70246800000001
20
108.78564799999999
10
-137.44999999999999
20
109.217236
10
-137.44999999999999
20
109.59000000000002
10
-135.87412800000004
20
110.49982900000002
10
-136.41836599999999
20
111.442476
10
-138.01307399999999
20
110.52177100000002
10
-138.34
20
110.710522
10
-138.34
20
112.71000000000001
10
-139.44999999999999
20
112.71000000000001
10
-139.44999999999999
20
110.70067299999999
10
-139.775443
20
110.54891600000002
10
-141.17140000000001
20
111.354872
10
-141.725683
20
110.394825
10
-140.30000000000001
20
109.57170600000001
10
-140.30000000000001
20
109.20577299999999
10
-141.0701
20
108.761155
10
-141.033928
20
108.34771500000001
10
-143.66066599999999
20
106.83116800000001
10
-143.458315
20
106.48068600000002
10
-141.96913499999999
20
107.340464
10
-141.46473399999999
20
106.466815
10
-144.51755200000002
20
104.70427100000002
10
-146.36171400000001
20
105.768998
10
-147.101043
20
105.342146
10
-147.44
20
105.53784300000001
10
-147.44
20
106.83
10
-148.53000000000003
20
106.83
10
-148.53000000000003
20
105.478452
10
-148.81222399999999
20
105.31551
10
-149.70238599999999
20
105.82944500000002
10
-150.26240899999999
20
104.85945800000002
10
-149.38999999999999
20
104.355773
10
-149.38999999999999
20
103.99000000000001
10
-150.15000000000001
20
103.55121400000002
10
-150.15000000000001
20
102.78
10
-154.76489699999999
20
100.11558700000002
10
-155.439009
20
100.504786
10
-156.17263700000001
20
100.081225
10
-156.50999999999999
20
100.23854
10
-156.50999999999999
20
101.11000000000001
10
-157.62
20
101.11000000000001
10
-157.62
20
100.22
10
-157.95033000000001
20
100.06596399999999
10
-158.80059900000001
20
100.55686700000001
10
-159.35045600000001
20
99.604485999999994
10
-158.47999999999999
20
99.101928999999998
10
-158.47999999999999
20
98.76577300000001
10
-159.19
20
98.355855000000005
10
-159.19
20
97.874224999999996
10
-161.81067200000001
20
96.361179000000021
10
-161.608315
20
96.010686000000021
10
-160.12130100000002
20
96.869213000000016
10
-159.62556000000001
20
96.010565
10
-162.67613499999999
20
94.249314999999996
10
-164.45065600000004
20
95.273835000000005
10
-165.25202300000001
20
94.811165000000003
10
-165.56
20
94.988975999999994
10
-165.56
20
96.090000000000018
10
-166.66
20
96.090000000000018
10
-166.66
20
94.954226000000006
10
-166.979544
20
94.769737000000006
10
-168.018902
20
95.369810000000001
10
-168.55929700000002
20
94.433817000000019
10
-167.51000000000002
20
93.828005000000005
10
-167.51000000000002
20
93.490000000000009
10
-168.31
20
93.028120000000015
10
-168.31
20
92.294225999999995
10
-172.87996700000002
20
89.655754000000002
10
-173.51175900000001
20
90.020518999999993
10
-174.26752300000001
20
89.584177999999994
10
-174.62
20
89.748541000000003
10
-174.62
20
91.099999999999994
10
-175.69999999999999
20
91.099999999999994
10
-175.69999999999999
20
89.759326000000001
10
-176.03521599999999
20
89.603011000000009
10
-176.76872
20
90.026500000000013
10
-177.18421000000004
20
89.786616000000009
10
-179.804824
20
91.29962900000001
10
-180.00717000000003
20
90.949153999999993
10
-178.51439199999999
20
90.087298000000004
10
-179.00932600000002
20
89.230046999999999
10
-182.04102500000002
20
90.980400000000003
10
-182.04102500000002
20
93.066365000000019
10
-182.81999999999999
20
93.516105999999994
10
-182.81999999999999
20
93.870000000000005
10
-181.854342
20
94.427521999999996
10
-182.39885699999999
20
95.370649999999998
10
-183.38496799999999
20
94.801318000000009
10
-183.71000000000004
20
94.988974999999996
10
-183.71000000000004
20
97.049999999999997
10
-184.80000000000001
20
97.049999999999997
10
-184.80000000000001
20
94.991546
10
-185.09856300000001
20
94.819170000000014
10
-185.862381
20
95.260159999999999
10
-186.251891
20
95.035276999999994
10
-188.87482399999999
20
96.549627999999998
10
-189.07717000000002
20
96.199153999999993
10
-187.588142
20
95.339464000000021
10
-188.08233000000001
20
94.483505000000008
10
-191.16
20
96.260399000000021
10
-191.16
20
97.392679000000015
10
-189.98000000000002
20
98.07395200000002
10
-189.98000000000002
20
100.05875600000002
10
-190.61272400000001
20
101.15466600000002
10
-192.50989799999999
20
102.25000000000001
10
-193.08000000000004
20
102.25000000000001
10
-193.08000000000004
20
104.35775200000002
10
-193.49852000000001
20
104.35775200000002
10
-193.49852000000001
20
102.63743599999999
10
-194.51320800000002
20
102.63743599999999
10
-194.51320800000002
20
106.22180299999999
10
-193.53323599999999
20
106.787589
10
-192.353208
20
106.1063
10
-190.63430500000004
20
107.09870800000002
10
-190.001621
20
108.194551
10
-190.001621
20
110.38529600000001
10
-190.287913
20
110.88116800000002
10
-188.45516799999999
20
111.939303
10
-188.66252400000002
20
112.29845600000002
10
-190.15137200000001
20
111.43886999999999
10
-190.65445299999999
20
112.31023100000002
10
-187.66613899999999
20
114.035534
10
-186.59999999999999
20
113.41999900000002
10
-186.59999999999999
20
110.25185100000002
10
-185.28043500000001
20
109.48999999999999
10
-183.149282
20
109.48999999999999
10
-180.953193
20
110.757912
10
-180.953193
20
112.43916300000001
10
-179.61845400000001
20
111.66855099999999
10
-179.40472400000002
20
112.03874300000001
10
-180.89219800000001
20
112.897537
10
-180.39529300000001
20
113.758201
10
-177.36000000000001
20
112.005773
10
-177.36000000000001
20
109.955692
10
-176.65000000000003
20
109.545773
10
-176.65000000000003
20
109.204144
10
-177.34999999999999
20
108.80000000000001
10
-177.34999999999999
20
108.35000000000001
10
-182.25451100000001
20
105.51837800000001
10
-182.62917600000003
20
105.73469000000001
10
-183.353702
20
105.316385
10
-183.69
20
105.47320300000001
10
-183.69
20
106.39000000000001
10
-184.80000000000001
20
106.39000000000001
10
-184.80000000000001
20
105.464226
10
-185.09722300000004
20
105.29262300000001
10
-186.88550599999999
20
106.32508799999999
10
-187.444526
20
105.356837
10
-185.66
20
104.32654100000001
10
-185.66
20
104.003094
10
-187.789063
20
102.773878
10
-187.22497900000002
20
101.79685600000001
10
-185.11077299999999
20
103.017493
10
-184.78999999999999
20
102.794338
10
-184.78999999999999
20
100.8
10
-183.71000000000004
20
100.8
10
-183.71000000000004
20
102.835336
10
-183.36966899999999
20
102.99403400000001
10
-182.64126000000002
20
102.573486
10
-182.25520299999999
20
102.79637600000001
10
-179.75
20
101.34999999999999
10
-177.36000000000001
20
99.970132000000007
10
-177.36000000000001
20
99.489999999999995
10
-176.58000000000001
20
99.039666999999994
10
-176.58000000000001
20
98.711546999999996
10
-177.94594200000003
20
97.922919000000007
10
-177.40365700000001
20
96.983655000000013
10
-176.05681700000002
20
97.761253000000011
10
-175.69999999999999
20
97.555244999999999
10
-175.69999999999999
20
96.400000000000006
10
-174.60000000000002
20
96.400000000000006
10
-174.60000000000002
20
97.599998000000014
10
-174.35241500000001
20
97.742941000000002
10
-173.344979
20
97.161297000000019
10
-172.78427400000001
20
98.132464999999996
10
-173.73000000000002
20
98.678480000000008
10
-173.73000000000002
20
99.104226000000011
10
-172.99000000000004
20
99.531465000000011
10
-172.99000000000004
20
99.958149000000006
10
-170.34019599999999
20
101.48801300000001
10
-170.54252500000001
20
101.83845700000001
10
-172.03298100000001
20
100.97794100000002
10
-172.53289599999999
20
101.843819
10
-169.63483300000001
20
103.517017
10
-167.82932299999999
20
102.47460500000001
10
-167.01361399999999
20
102.94555500000001
10
-166.71000000000004
20
102.73433500000002
10
-166.71000000000004
20
101.51000000000002
10
-165.59
20
101.51000000000002
10
-165.59
20
102.81885800000001
10
-165.285877
20
102.99444300000002
10
-163.87129200000001
20
102.17773200000002
10
-163.33911599999999
20
103.09948800000001
10
-164.75999999999999
20
103.91983500000002
10
-164.75999999999999
20
104.31
10
-164.00000000000003
20
104.748786
10
-164.00000000000003
20
105.121961
10
-161.270196
20
106.69801300000002
10
-161.47252500000002
20
107.048457
10
-162.96047900000002
20
106.189386
10
-163.46509600000002
20
107.06340900000001
10
-160.437094
20
108.81162600000002
10
-159.692938
20
108.381987
10
-157.84999999999999
20
105.75000000000001
10
-156.400182
20
105.75000000000001
10
-154.11085299999999
20
107.07174500000001
10
-154.04057499999999
20
107.03897300000001
10
-153.489296
20
107.99381500000001
10
-153.54253399999999
20
108.02455100000002
10
-154.46789200000001
20
110.56695300000001
10
-152.21008399999999
20
111.870499
10
-152.42252500000001
20
112.238457
10
-153.907689
20
111.38099699999999
10
-154.412598
20
112.25552500000001
10
-151.26375400000001
20
114.07351
10
-150.60293799999999
20
113.691987
10
-148.76700199999999
20
111.06999999999999
10
-147.282836
20
111.06999999999999
10
-145.04346300000003
20
112.36290200000001
10
-144.935779
20
112.31268900000002
10
-144.36150499999999
20
113.30736000000002
10
-144.46422799999999
20
113.36666700000002
10
-145.37789599999999
20
115.87694900000001
10
-143.11691400000001
20
117.18232800000001
10
-143.32252500000004
20
117.53845699999999
10
-144.80768900000001
20
116.680997
10
-145.31259900000003
20
117.55552600000001
10
-142.290491
20
119.300341
10
-140.33676
20
118.172353
10
-139.698554
20
118.54082200000001
10
-139.40000000000001
20
118.368452
10
-139.40000000000001
20
117.47
10
-138.33000000000001
20
117.47
10
-138.33000000000001
20
118.31368900000001
10
-137.98345699999999
20
118.51376399999999
10
-137.43114600000001
20
118.19488800000002
10
-136.901376
20
118.50075200000001
10
-134.247063
20
116.96828400000001
10
-134.044724
20
117.31874300000001
10
-135.53832399999999
20
118.18107300000001
10
-135.042269
20
119.04026600000002
10
-132
20
117.283811
10
-132
20
115.17304600000001
10
-131.21000000000004
20
114.80466300000002
10
-131.21000000000004
20
114.47682399999999
10
-131.881182
20
114.08931699999999
10
-131.299724
20
113.08220200000001
10
-130.68320499999999
20
113.438149
10
-130.36000000000001
20
113.25154600000002
10
-130.36000000000001
20
112.423619
10
-130.00688300000002
20
112.21974700000001
10
-130.00688300000002
20
109.13028799999999
10
-129.60219799999999
20
109.13028799999999
10
-129.60219799999999
20
110.85000000000001
10
-128.59000000000003
20
110.85000000000001
10
-128.59000000000003
20
106.91036200000001
10
-130.34999999999999
20
105.894226
10
-130.34999999999999
20
105.466286
10
-130.703844
20
105.26199400000002
10
-131.227463
20
105.56430500000002
10
-131.78055699999999
20
104.606317
10
-131.25
20
104.3
10
-131.25
20
103.86442600000001
10
-131.76371900000001
20
103.56783
10
-131.27605700000001
20
102.723175
10
-130.70453600000002
20
103.05314300000001
10
-130.38999999999999
20
102.87154600000001
10
-130.38999999999999
20
102.23
10
-129.28
20
102.23
10
-129.28
20
102.86100900000001
10
-128.97783900000002
20
103.035461
10
-128.57001399999999
20
102.800004
10
-128.007227
20
103.77477900000001
10
-128.38999999999999
20
103.99577300000001
10
-128.38999999999999
20
104.34483299999999
10
-127.98999999999999
20
104.575773
10
-127.98999999999999
20
105.01000000000002
10
-125.01671600000002
20
106.72662500000001
10
-125.20252600000001
20
107.048457
10
-126.68690900000001
20
106.19144800000001
10
-127.185614
20
107.05522999999999
10
-124.10942
20
108.83127200000001
10
-122.15000000000002
20
107.70000000000002
10
-116.70000000000002
20
107.70000000000002
10
-116.13732
20
108.508815
10
-111.24263500000001
20
111.936111
10
-110.994452
20
111.936111
10
-110.331456
20
111.14598200000002
10
-109.68945500000001
20
111.59551500000001
10
-110.23572900000002
20
112.246539
10
-93.744068999999996
20
123.794124
10
-89.454537000000002
20
117.66803600000001
10
-100.19140700000001
20
110.15000000000001
10
-104.546589
20
110.15000000000001
10
-107.64775400000002
20
107.97854100000002
10
-107.07839
20
107.30000000000001
10
-106.34999999999999
20
107.30000000000001
10
-105.65717800000002
20
107.70000000000002
10
-99.150000000000006
20
107.70000000000002
10
-99.150000000000006
20
105.08000000000001
10
-103.87
20
105.08000000000001
10
-104.09999999999999
20
104.84999999999999
10
-104.09999999999999
20
103.40000000000002
10
-103.87999800000001
20
103.18000000000001
10
-99.140000000000015
20
103.18000000000001
10
-99.140000000000015
20
100.60000000000001
10
-105.647178
20
100.60000000000001
10
-106.34
20
101.00000000000001
10
-107.129045
20
101.00000000000001
10
-110.34999999999999
20
96.400000000000006
10
-111.31269000000002
20
96.400000000000006
10
-116.18020200000001
20
99.786244000000011
10
-116.75
20
100.60000000000001
10
-122.12422599999999
20
100.60000000000001
10
-122.78497400000001
20
99.455551
10
-122.27000000000001
20
99.158231000000001
10
-122.27000000000001
20
98.800000000000011
10
-122.91
20
98.430494999999993
10
-122.91
20
97.894226000000018
10
-125.53067200000001
20
96.381180999999998
10
-125.328315
20
96.030686000000003
10
-123.84133
20
96.889196999999996
10
-123.34249
20
96.02518000000002
10
-126.423596
20
94.246303000000012
10
-128.37359700000002
20
95.372137000000009
10
-128.958101
20
95.034673999999995
10
-129.27000000000001
20
95.214748
10
-129.27000000000001
20
95.739999999999995
10
-130.38999999999999
20
95.739999999999995
10
-130.38999999999999
20
95.195336000000012
10
-130.71586199999999
20
95.043384000000003
10
-131.243458
20
95.347990999999993
10
-131.819323
20
95.015514999999994
10
-136.71000000000001
20
97.839149000000006
10
-136.71000000000001
20
98.485773000000009
10
-137.28999999999999
20
98.820636000000007
10
-137.28999999999999
20
99.180000000000007
10
-136.80875600000002
20
99.457846000000018
10
-137.365016
20
100.42131600000002
10
-137.83747700000001
20
100.14854
10
-138.16
20
100.33474900000002
10
-138.16
20
101.00000000000001
10
-138.69383400000001
20
101.30820900000002
10
-138.69383400000001
20
104.367752
10
-139.09852000000001
20
104.367752
0
CIRCLE
5
101
100
AcDbEntity
8
0
100
AcDbCircle
10
-176.69999999999999
20
96.189999999999998
30
0
40
0.34999999999999998
210
0
220
0
230
1
0
CIRCLE
5
102
100
AcDbEntity
8
0
100
AcDbCircle
10
-100.43000000000001
20
101.90000000000001
30
0
40
0.65000000000000002
210
0
220
0
230
1
0
CIRCLE
5
103
100
AcDbEntity
8
0
100
AcDbCircle
10
-100.48000000000002
20
106.40000000000001
30
0
40
0.65000000000000002
210
0
220
0
230
1
0
CIRCLE
5
104
100
AcDbEntity
8
0
100
AcDbCircle
10
-185.84
20
101.47
30
0
40
0.34999999999999998
210
0
220
0
230
1
0
ENDSEC
0
SECTION
2
OBJECTS
0
DICTIONARY
5
C
100
AcDbDictionary
3
ACAD_GROUP
350
D
3
ACAD_MLINESTYLE
350
17
0
DICTIONARY
5
D
100
AcDbDictionary
0
DICTIONARY
5
1A
330
C
100
AcDbDictionary
0
DICTIONARY
5
17
100
AcDbDictionary
0
ENDSEC
0
EOF
