%TF.GenerationSoftware,KiCad,Pcbnew,9.0.3*%
%TF.CreationDate,2025-08-06T14:07:15+08:00*%
%TF.ProjectId,Main,4d61696e-2e6b-4696-9361-645f70636258,10*%
%TF.SameCoordinates,Original*%
%TF.FileFunction,Component,L2,Bot*%
%TF.FilePolarity,Positive*%
%FSLAX46Y46*%
G04 Gerber Fmt 4.6, Leading zero omitted, Abs format (unit mm)*
G04 Created by KiCad (PCBNEW 9.0.3) date 2025-08-06 14:07:15*
%MOMM*%
%LPD*%
G01*
G04 APERTURE LIST*
%TA.AperFunction,ComponentMain*%
%ADD10C,0.300000*%
%TD*%
%TA.AperFunction,ComponentOutline,Footprint*%
%ADD11C,0.100000*%
%TD*%
%TA.AperFunction,ComponentPin*%
%ADD12P,0.360000X4X0.000000*%
%TD*%
%TA.AperFunction,ComponentPin*%
%ADD13C,0.100000*%
%TD*%
G04 APERTURE END LIST*
D10*
%TO.C,D5*%
%TO.CFtp,TX1812MWCA5-F01*%
%TO.CVal,TX1812MWCA5-F01*%
%TO.CLbN,Pixels-dice*%
%TO.CMnt,SMD*%
%TO.CRot,-74*%
X144140000Y-124440000D03*
D11*
X145359586Y-124974545D02*
X143388998Y-125539602D01*
X142920414Y-123905455D01*
X144891002Y-123340398D01*
X145359586Y-124974545D01*
D12*
%TO.P,D5,1,DOUT*%
X143580904Y-125120469D03*
D13*
%TO.P,D5,2,GND*%
X143305266Y-124159207D03*
%TO.P,D5,3,DIN*%
X144699096Y-123759531D03*
%TO.P,D5,4,VCC*%
X144974734Y-124720793D03*
%TD*%
D10*
%TO.C,D4*%
%TO.CFtp,TX1812MWCA5-F01*%
%TO.CVal,TX1812MWCA5-F01*%
%TO.CLbN,Pixels-dice*%
%TO.CMnt,SMD*%
%TO.CRot,-74*%
X145740000Y-128930000D03*
D11*
X146959586Y-129464545D02*
X144988998Y-130029602D01*
X144520414Y-128395455D01*
X146491002Y-127830398D01*
X146959586Y-129464545D01*
D12*
%TO.P,D4,1,DOUT*%
X145180904Y-129610468D03*
D13*
%TO.P,D4,2,GND*%
X144905265Y-128649206D03*
%TO.P,D4,3,DIN*%
X146299096Y-128249532D03*
%TO.P,D4,4,VCC*%
X146574735Y-129210794D03*
%TD*%
D10*
%TO.C,D6*%
%TO.CFtp,TX1812MWCA5-F01*%
%TO.CVal,TX1812MWCA5-F01*%
%TO.CLbN,Pixels-dice*%
%TO.CMnt,SMD*%
%TO.CRot,-127*%
X137350000Y-123840000D03*
D11*
X137657058Y-125135703D02*
X136019854Y-123901981D01*
X137042942Y-122544297D01*
X138680146Y-123778019D01*
X137657058Y-125135703D01*
D12*
%TO.P,D6,1,DOUT*%
X136470081Y-123803004D03*
D13*
%TO.P,D6,2,GND*%
X137071895Y-123004367D03*
%TO.P,D6,3,DIN*%
X138229919Y-123876996D03*
%TO.P,D6,4,VCC*%
X137628105Y-124675633D03*
%TD*%
D10*
%TO.C,D2*%
%TO.CFtp,TX1812MWCA5-F01*%
%TO.CVal,TX1812MWCA5-F01*%
%TO.CLbN,Pixels-dice*%
%TO.CMnt,SMD*%
%TO.CRot,-25*%
X149000000Y-120100000D03*
D11*
X150203545Y-119530260D02*
X149337178Y-121388191D01*
X147796455Y-120669740D01*
X148662822Y-118811809D01*
X150203545Y-119530260D01*
D12*
%TO.P,D2,1,DOUT*%
X149146756Y-120968382D03*
D13*
%TO.P,D2,2,GND*%
X148240448Y-120545764D03*
%TO.P,D2,3,DIN*%
X148853244Y-119231618D03*
%TO.P,D2,4,VCC*%
X149759552Y-119654236D03*
%TD*%
D10*
%TO.C,D7*%
%TO.CFtp,TX1812MWCA5-F01*%
%TO.CVal,TX1812MWCA5-F01*%
%TO.CLbN,Pixels-dice*%
%TO.CMnt,SMD*%
%TO.CRot,-172*%
X129540000Y-118400000D03*
D11*
X128840921Y-119533322D02*
X128555616Y-117503273D01*
X130239079Y-117266678D01*
X130524384Y-119296727D01*
X128840921Y-119533322D01*
D12*
%TO.P,D7,1,DOUT*%
X128943962Y-117751645D03*
D13*
%TO.P,D7,2,GND*%
X129934233Y-117612469D03*
%TO.P,D7,3,DIN*%
X130136038Y-119048355D03*
%TO.P,D7,4,VCC*%
X129145767Y-119187531D03*
%TD*%
D10*
%TO.C,D9*%
%TO.CFtp,TX1812MWCA5-F01*%
%TO.CVal,TX1812MWCA5-F01*%
%TO.CLbN,Pixels-dice*%
%TO.CMnt,SMD*%
%TO.CRot,138*%
X136020000Y-111290000D03*
D11*
X134702466Y-111482963D02*
X136074186Y-109959513D01*
X137337534Y-111097037D01*
X135965814Y-112620487D01*
X134702466Y-111482963D01*
D12*
%TO.P,D9,1,DOUT*%
X136133548Y-110416653D03*
D13*
%TO.P,D9,2,GND*%
X136876694Y-111085785D03*
%TO.P,D9,3,DIN*%
X135906452Y-112163347D03*
%TO.P,D9,4,VCC*%
X135163306Y-111494215D03*
%TD*%
D10*
%TO.C,D8*%
%TO.CFtp,TX1812MWCA5-F01*%
%TO.CVal,TX1812MWCA5-F01*%
%TO.CLbN,Pixels-dice*%
%TO.CMnt,SMD*%
%TO.CRot,168*%
X133420000Y-117910000D03*
D11*
X132375464Y-118735876D02*
X132801683Y-116730674D01*
X134464536Y-117084124D01*
X134038317Y-119089326D01*
X132375464Y-118735876D01*
D12*
%TO.P,D8,1,DOUT*%
X133081663Y-117096887D03*
D13*
%TO.P,D8,2,GND*%
X134059811Y-117304800D03*
%TO.P,D8,3,DIN*%
X133758337Y-118723113D03*
%TO.P,D8,4,VCC*%
X132780189Y-118515200D03*
%TD*%
D10*
%TO.C,C6*%
%TO.CFtp,C_0201_0603Metric*%
%TO.CVal,0.1uF 10V 20\u0025*%
%TO.CLbN,Capacitor_SMD*%
%TO.CMnt,SMD*%
%TO.CRot,155*%
X150310000Y-121180000D03*
D11*
X149727006Y-121128823D02*
X149896055Y-120766297D01*
X150892994Y-121231177D01*
X150723945Y-121593703D01*
X149727006Y-121128823D01*
D12*
%TO.P,C6,1*%
X150019982Y-121044760D03*
D13*
%TO.P,C6,2*%
X150600018Y-121315240D03*
%TD*%
D10*
%TO.C,D11*%
%TO.CFtp,TX1812MWCA5-F01*%
%TO.CVal,TX1812MWCA5-F01*%
%TO.CLbN,Pixels-dice*%
%TO.CMnt,SMD*%
%TO.CRot,-42*%
X126520000Y-110940000D03*
D11*
X127837535Y-110747037D02*
X126465814Y-112270487D01*
X125202465Y-111132963D01*
X126574186Y-109609513D01*
X127837535Y-110747037D01*
D12*
%TO.P,D11,1,DOUT*%
X126406452Y-111813347D03*
D13*
%TO.P,D11,2,GND*%
X125663307Y-111144213D03*
%TO.P,D11,3,DIN*%
X126633548Y-110066653D03*
%TO.P,D11,4,VCC*%
X127376693Y-110735787D03*
%TD*%
D10*
%TO.C,C7*%
%TO.CFtp,C_0201_0603Metric*%
%TO.CVal,100pF NP0 10V 2\u0025*%
%TO.CLbN,Capacitor_SMD*%
%TO.CMnt,SMD*%
%TO.CRot,-105*%
X153920000Y-111670000D03*
D11*
X153970834Y-112253026D02*
X153584464Y-112149498D01*
X153869166Y-111086974D01*
X154255536Y-111190502D01*
X153970834Y-112253026D01*
D12*
%TO.P,C7,1*%
X153837177Y-111979099D03*
D13*
%TO.P,C7,2*%
X154002823Y-111360901D03*
%TD*%
D10*
%TO.C,L1*%
%TO.CFtp,C_1.2x1.8*%
%TO.CVal,10uH 100mA 20\u0025*%
%TO.CLbN,Pixels-dice*%
%TO.CMnt,SMD*%
%TO.CRot,75*%
X146830000Y-113750000D03*
D11*
X146585844Y-112690711D02*
X147571090Y-112954707D01*
X147074156Y-114809289D01*
X146088910Y-114545293D01*
X146585844Y-112690711D01*
D12*
%TO.P,L1,1,1*%
X146995644Y-113131805D03*
D13*
%TO.P,L1,2,2*%
X146664356Y-114368195D03*
%TD*%
D10*
%TO.C,C5*%
%TO.CFtp,C_0201_0603Metric*%
%TO.CVal,8pF 10V 10\u0025*%
%TO.CLbN,Capacitor_SMD*%
%TO.CMnt,SMD*%
%TO.CRot,165*%
X153220000Y-112800000D03*
D11*
X152636975Y-112850835D02*
X152740503Y-112464463D01*
X153803025Y-112749165D01*
X153699497Y-113135537D01*
X152636975Y-112850835D01*
D12*
%TO.P,C5,1*%
X152910902Y-112717178D03*
D13*
%TO.P,C5,2*%
X153529098Y-112882822D03*
%TD*%
D10*
%TO.C,C3*%
%TO.CFtp,C_0201_0603Metric*%
%TO.CVal,0.1uF 10V 20\u0025*%
%TO.CLbN,Capacitor_SMD*%
%TO.CMnt,SMD*%
%TO.CRot,-106*%
X146060000Y-110830000D03*
D11*
X146100658Y-111413822D02*
X145716142Y-111303564D01*
X146019342Y-110246178D01*
X146403858Y-110356436D01*
X146100658Y-111413822D01*
D12*
%TO.P,C3,1*%
X145971791Y-111137601D03*
D13*
%TO.P,C3,2*%
X146148209Y-110522399D03*
%TD*%
D10*
%TO.C,C2*%
%TO.CFtp,C_0201_0603Metric*%
%TO.CVal,8pF 10V 10\u0025*%
%TO.CLbN,Capacitor_SMD*%
%TO.CMnt,SMD*%
%TO.CRot,-90*%
X151530000Y-114340000D03*
D11*
X151730000Y-114890002D02*
X151330000Y-114890002D01*
X151330000Y-113789998D01*
X151730000Y-113789998D01*
X151730000Y-114890002D01*
D12*
%TO.P,C2,1*%
X151530000Y-114660002D03*
D13*
%TO.P,C2,2*%
X151530000Y-114019998D03*
%TD*%
D10*
%TO.C,R10*%
%TO.CFtp,R_0201_0603Metric*%
%TO.CVal,3.9k 1\u0025*%
%TO.CLbN,Resistor_SMD*%
%TO.CMnt,SMD*%
%TO.CRot,90*%
X151040000Y-118430000D03*
D11*
X150839999Y-117879999D02*
X151240001Y-117879999D01*
X151240001Y-118980001D01*
X150839999Y-118980001D01*
X150839999Y-117879999D01*
D12*
%TO.P,R10,1*%
X151040001Y-118109999D03*
D13*
%TO.P,R10,2*%
X151039999Y-118750001D03*
%TD*%
D10*
%TO.C,U1*%
%TO.CFtp,QFN-32-1EP_5x5mm_P0.5mm_EP3.1x3.1mm*%
%TO.CVal,N52810_QFN32*%
%TO.CLbN,Pixels-dice*%
%TO.CMnt,SMD*%
%TO.CRot,165*%
X149971680Y-110358512D03*
D11*
X146450536Y-112391445D02*
X147938747Y-106837368D01*
X153492824Y-108325579D01*
X152004613Y-113879656D01*
X146450536Y-112391445D01*
D12*
%TO.P,U1,1,DEC1*%
X147164303Y-111418012D03*
D13*
%TO.P,U1,2,P0.00/XL1*%
X147293712Y-110935048D03*
%TO.P,U1,3,P0.01/XL2*%
X147423121Y-110452087D03*
%TO.P,U1,4,P0.04/AIN2*%
X147552531Y-109969123D03*
%TO.P,U1,5,P0.05/AIN3*%
X147681939Y-109486158D03*
%TO.P,U1,6,P0.06*%
X147811350Y-109003196D03*
%TO.P,U1,7,P0.09*%
X147940759Y-108520233D03*
%TO.P,U1,8,P0.10*%
X148070169Y-108037270D03*
%TO.P,U1,9,VDD*%
X148912180Y-107551135D03*
%TO.P,U1,10,P0.12*%
X149395144Y-107680544D03*
%TO.P,U1,11,P0.14*%
X149878105Y-107809953D03*
%TO.P,U1,12,P0.15*%
X150361069Y-107939363D03*
%TO.P,U1,13,P0.16/TDATA1*%
X150844034Y-108068771D03*
%TO.P,U1,14,P0.18/TDATA0*%
X151326996Y-108198182D03*
%TO.P,U1,15,P0.20/TCLK*%
X151809959Y-108327591D03*
%TO.P,U1,16,P0.16*%
X152292922Y-108457001D03*
%TO.P,U1,17,SWDCLK*%
X152779057Y-109299012D03*
%TO.P,U1,18,SWDIO*%
X152649648Y-109781976D03*
%TO.P,U1,19,ANT*%
X152520239Y-110264937D03*
%TO.P,U1,20,VSS*%
X152390829Y-110747901D03*
%TO.P,U1,21,DEC2*%
X152261421Y-111230866D03*
%TO.P,U1,22,DEC3*%
X152132010Y-111713828D03*
%TO.P,U1,23,XC1*%
X152002601Y-112196791D03*
%TO.P,U1,24,XC2*%
X151873191Y-112679754D03*
%TO.P,U1,25,VDD*%
X151031180Y-113165889D03*
%TO.P,U1,26,P0.25*%
X150548216Y-113036480D03*
%TO.P,U1,27,P0.28/AIN4*%
X150065255Y-112907071D03*
%TO.P,U1,28,P0.30/AIN6*%
X149582291Y-112777661D03*
%TO.P,U1,29,VSS*%
X149099326Y-112648253D03*
%TO.P,U1,30,DEC4*%
X148616364Y-112518842D03*
%TO.P,U1,31,DCC*%
X148133401Y-112389433D03*
%TO.P,U1,32,VDD*%
X147650438Y-112260023D03*
%TO.P,U1,33,VSS*%
X149971680Y-110358512D03*
%TD*%
D10*
%TO.C,C10*%
%TO.CFtp,C_0201_0603Metric*%
%TO.CVal,0.1uF 10V 20\u0025*%
%TO.CLbN,Capacitor_SMD*%
%TO.CMnt,SMD*%
%TO.CRot,-14*%
X148700000Y-106600000D03*
D11*
X149282046Y-106538998D02*
X149185277Y-106927116D01*
X148117954Y-106661002D01*
X148214723Y-106272884D01*
X149282046Y-106538998D01*
D12*
%TO.P,C10,1*%
X149010494Y-106677415D03*
D13*
%TO.P,C10,2*%
X148389506Y-106522585D03*
%TD*%
D10*
%TO.C,C8*%
%TO.CFtp,0402_RF*%
%TO.CVal,0.8pF 10V 5\u0025 C0G*%
%TO.CLbN,Pixels-dice*%
%TO.CMnt,SMD*%
%TO.CRot,76*%
X153400000Y-110950000D03*
D11*
X153324349Y-110220016D02*
X153809503Y-110340978D01*
X153475651Y-111679984D01*
X152990497Y-111559022D01*
X153324349Y-110220016D01*
D12*
%TO.P,C8,1*%
X153506442Y-110523070D03*
D13*
%TO.P,C8,2*%
X153293558Y-111376930D03*
%TD*%
D10*
%TO.C,C23*%
%TO.CFtp,C_0201_0603Metric*%
%TO.CVal,0.1uF 10V 20\u0025*%
%TO.CLbN,Capacitor_SMD*%
%TO.CMnt,SMD*%
%TO.CRot,165*%
X153210000Y-98840000D03*
D11*
X152626976Y-98890838D02*
X152730505Y-98504461D01*
X153793024Y-98789162D01*
X153689495Y-99175539D01*
X152626976Y-98890838D01*
D12*
%TO.P,C23,1*%
X152900903Y-98757181D03*
D13*
%TO.P,C23,2*%
X153519097Y-98922819D03*
%TD*%
D10*
%TO.C,D3*%
%TO.CFtp,TX1812MWCA5-F01*%
%TO.CVal,TX1812MWCA5-F01*%
%TO.CLbN,Pixels-dice*%
%TO.CMnt,SMD*%
%TO.CRot,-25*%
X153100000Y-122070120D03*
D11*
X154303547Y-121500381D02*
X153437180Y-123358312D01*
X151896453Y-122639859D01*
X152762820Y-120781928D01*
X154303547Y-121500381D01*
D12*
%TO.P,D3,1,DOUT*%
X153246757Y-122938503D03*
D13*
%TO.P,D3,2,GND*%
X152340448Y-122515883D03*
%TO.P,D3,3,DIN*%
X152953243Y-121201737D03*
%TO.P,D3,4,VCC*%
X153859552Y-121624357D03*
%TD*%
D10*
%TO.C,C9*%
%TO.CFtp,C_0402_1005Metric*%
%TO.CVal,10uF 6.3V 20\u0025*%
%TO.CLbN,Pixels-dice*%
%TO.CMnt,SMD*%
%TO.CRot,-99*%
X111900000Y-101950000D03*
D11*
X112087295Y-102749138D02*
X111474924Y-102652148D01*
X111712705Y-101150862D01*
X112325076Y-101247852D01*
X112087295Y-102749138D01*
D12*
%TO.P,C9,1*%
X111824909Y-102424090D03*
D13*
%TO.P,C9,2*%
X111975091Y-101475910D03*
%TD*%
D10*
%TO.C,R9*%
%TO.CFtp,R_0201_0603Metric*%
%TO.CVal,100k 1\u0025*%
%TO.CLbN,Resistor_SMD*%
%TO.CMnt,SMD*%
%TO.CRot,-17*%
X132460000Y-112450000D03*
D11*
X133044442Y-112419537D02*
X132927490Y-112802071D01*
X131875558Y-112480463D01*
X131992510Y-112097929D01*
X133044442Y-112419537D01*
D12*
%TO.P,R9,1*%
X132766017Y-112543553D03*
D13*
%TO.P,R9,2*%
X132153983Y-112356447D03*
%TD*%
D10*
%TO.C,C4*%
%TO.CFtp,C_0402_1005Metric*%
%TO.CVal,4.7uF 10V 20\u0025*%
%TO.CLbN,Pixels-dice*%
%TO.CMnt,SMD*%
%TO.CRot,-14*%
X151700000Y-106430000D03*
D11*
X152512420Y-106313068D02*
X152362428Y-106914653D01*
X150887580Y-106546932D01*
X151037572Y-105945347D01*
X152512420Y-106313068D01*
D12*
%TO.P,C4,1*%
X152165741Y-106546123D03*
D13*
%TO.P,C4,2*%
X151234259Y-106313877D03*
%TD*%
D10*
%TO.C,J3*%
%TO.CFtp,Hongjie 10100 Solder Tabs*%
%TO.CVal,Conn_01x02*%
%TO.CLbN,Pixels-dice*%
%TO.CMnt,TH*%
%TO.CRot,165*%
X151990000Y-100070000D03*
D11*
X148081505Y-100167809D02*
X148652478Y-98036910D01*
X155896921Y-99978052D01*
X155325948Y-102108952D01*
X148081505Y-100167809D01*
D12*
%TO.P,J3,1,Pin_1*%
X149623481Y-99435893D03*
D13*
%TO.P,J3,2,Pin_2*%
X154354946Y-100709968D03*
%TD*%
D10*
%TO.C,D10*%
%TO.CFtp,TX1812MWCA5-F01*%
%TO.CVal,TX1812MWCA5-F01*%
%TO.CLbN,Pixels-dice*%
%TO.CMnt,SMD*%
%TO.CRot,-132*%
X133080000Y-108480000D03*
D11*
X133272963Y-109797533D02*
X131749515Y-108425814D01*
X132887037Y-107162467D01*
X134410485Y-108534186D01*
X133272963Y-109797533D01*
D12*
%TO.P,D10,1,DOUT*%
X132206656Y-108366454D03*
D13*
%TO.P,D10,2,GND*%
X132875784Y-107623308D03*
%TO.P,D10,3,DIN*%
X133953344Y-108593546D03*
%TO.P,D10,4,VCC*%
X133284216Y-109336692D03*
%TD*%
D10*
%TO.C,C15*%
%TO.CFtp,C_0603_1608Metric*%
%TO.CVal,22uF 10V 20\u0025*%
%TO.CLbN,Capacitor_SMD*%
%TO.CMnt,SMD*%
%TO.CRot,-15*%
X152620000Y-97680000D03*
D11*
X153926199Y-97538237D02*
X153680320Y-98455870D01*
X151313801Y-97821763D01*
X151559680Y-96904130D01*
X153926199Y-97538237D01*
D12*
%TO.P,C15,1*%
X153368593Y-97880583D03*
D13*
%TO.P,C15,2*%
X151871407Y-97479417D03*
%TD*%
D10*
%TO.C,L2*%
%TO.CFtp,L_0402_1005Metric*%
%TO.CVal,15nH 100mA 5\u0025*%
%TO.CLbN,Inductor_SMD*%
%TO.CMnt,SMD*%
%TO.CRot,-105*%
X147780000Y-114060000D03*
D11*
X147887218Y-114896249D02*
X147269022Y-114730603D01*
X147672782Y-113223751D01*
X148290978Y-113389397D01*
X147887218Y-114896249D01*
D12*
%TO.P,L2,1,1*%
X147654474Y-114528478D03*
D13*
%TO.P,L2,2,2*%
X147905526Y-113591522D03*
%TD*%
D10*
%TO.C,C1*%
%TO.CFtp,C_0402_1005Metric*%
%TO.CVal,4.7uF 10V 20\u0025*%
%TO.CLbN,Pixels-dice*%
%TO.CMnt,SMD*%
%TO.CRot,-105*%
X148660000Y-113950000D03*
D11*
X148762736Y-114764335D02*
X148163860Y-114603867D01*
X148557264Y-113135665D01*
X149156140Y-113296133D01*
X148762736Y-114764335D01*
D12*
%TO.P,C1,1*%
X148535767Y-114413641D03*
D13*
%TO.P,C1,2*%
X148784233Y-113486359D03*
%TD*%
D10*
%TO.C,C21*%
%TO.CFtp,C_0201_0603Metric*%
%TO.CVal,10nF 25V 10\u0025*%
%TO.CLbN,Capacitor_SMD*%
%TO.CMnt,SMD*%
%TO.CRot,-15*%
X146156984Y-108348357D03*
D11*
X146740010Y-108297520D02*
X146636481Y-108683896D01*
X145573958Y-108399194D01*
X145677487Y-108012818D01*
X146740010Y-108297520D01*
D12*
%TO.P,C21,1*%
X146466083Y-108431177D03*
D13*
%TO.P,C21,2*%
X145847885Y-108265537D03*
%TD*%
D10*
%TO.C,R2*%
%TO.CFtp,R_0201_0603Metric*%
%TO.CVal,3.9M 1\u0025*%
%TO.CLbN,Resistor_SMD*%
%TO.CMnt,SMD*%
%TO.CRot,165*%
X146316757Y-107790713D03*
D11*
X145733731Y-107841550D02*
X145837260Y-107455174D01*
X146899783Y-107739876D01*
X146796254Y-108126252D01*
X145733731Y-107841550D01*
D12*
%TO.P,R2,1*%
X146007658Y-107707893D03*
D13*
%TO.P,R2,2*%
X146625856Y-107873533D03*
%TD*%
D10*
%TO.C,R1*%
%TO.CFtp,R_0201_0603Metric*%
%TO.CVal,3.9M 1\u0025*%
%TO.CLbN,Resistor_SMD*%
%TO.CMnt,SMD*%
%TO.CRot,75*%
X146850000Y-106980000D03*
D11*
X146799161Y-106396977D02*
X147185539Y-106500507D01*
X146900839Y-107563023D01*
X146514461Y-107459493D01*
X146799161Y-106396977D01*
D12*
%TO.P,R1,1*%
X146932818Y-106670904D03*
D13*
%TO.P,R1,2*%
X146767182Y-107289096D03*
%TD*%
D10*
%TO.C,Y1*%
%TO.CFtp,SX16Y032000B81T001*%
%TO.CVal,32MHz 40ppm*%
%TO.CLbN,Pixels-dice*%
%TO.CMnt,SMD*%
%TO.CRot,-105*%
X152732048Y-114019136D03*
D11*
X153114810Y-114986153D02*
X151917058Y-114665217D01*
X152349286Y-113052119D01*
X153547038Y-113373055D01*
X153114810Y-114986153D01*
D12*
%TO.P,Y1,1,1*%
X152254903Y-114408925D03*
D13*
%TO.P,Y1,2,2*%
X152513725Y-113442998D03*
%TO.P,Y1,3,3*%
X153209193Y-113629347D03*
%TO.P,Y1,4,4*%
X152950371Y-114595274D03*
%TD*%
D10*
%TO.C,R12*%
%TO.CFtp,R_0201_0603Metric*%
%TO.CVal,510R 1\u0025*%
%TO.CLbN,Resistor_SMD*%
%TO.CMnt,SMD*%
%TO.CRot,165*%
X151570000Y-98360000D03*
D11*
X150986976Y-98410837D02*
X151090505Y-98024462D01*
X152153024Y-98309163D01*
X152049495Y-98695538D01*
X150986976Y-98410837D01*
D12*
%TO.P,R12,1*%
X151260904Y-98277176D03*
D13*
%TO.P,R12,2*%
X151879096Y-98442824D03*
%TD*%
D10*
%TO.C,U2*%
%TO.CFtp,LGA-12_2x2mm_P0.5mm*%
%TO.CVal,SC7A20HTR*%
%TO.CLbN,Package_LGA*%
%TO.CMnt,SMD*%
%TO.CRot,40*%
X151310000Y-124590000D03*
D11*
X151427095Y-123251609D02*
X152648391Y-124707093D01*
X151192905Y-125928391D01*
X149971609Y-124472907D01*
X151427095Y-123251609D01*
D12*
%TO.P,U2,1,ADDR*%
X151412018Y-123525343D03*
D13*
%TO.P,U2,2,SDA*%
X151733413Y-123908364D03*
%TO.P,U2,3,IO_VDD*%
X152054805Y-124291385D03*
%TO.P,U2,4,NC*%
X152376199Y-124674406D03*
%TO.P,U2,5,INT1*%
X151991636Y-125013413D03*
%TO.P,U2,6,INT2*%
X151608615Y-125334805D03*
%TO.P,U2,7,VDD*%
X151207982Y-125654657D03*
%TO.P,U2,8,GND*%
X150886587Y-125271636D03*
%TO.P,U2,9,GND*%
X150565195Y-124888615D03*
%TO.P,U2,10,CS*%
X150243801Y-124505594D03*
%TO.P,U2,11,NC*%
X150628364Y-124166587D03*
%TO.P,U2,12,SCL*%
X151011385Y-123845195D03*
%TD*%
D10*
%TO.C,L5*%
%TO.CFtp,0402_RF*%
%TO.CVal,3.9nH 5\u0025*%
%TO.CLbN,Pixels-dice*%
%TO.CMnt,SMD*%
%TO.CRot,165*%
X154610000Y-110830000D03*
D11*
X153878805Y-110892897D02*
X154008215Y-110409932D01*
X155341195Y-110767103D01*
X155211785Y-111250068D01*
X153878805Y-110892897D01*
D12*
%TO.P,L5,1,1*%
X154184991Y-110716120D03*
D13*
%TO.P,L5,2,2*%
X155035009Y-110943880D03*
%TD*%
D10*
%TO.C,R5*%
%TO.CFtp,R_0201_0603Metric*%
%TO.CVal,10k 1\u0025*%
%TO.CLbN,Resistor_SMD*%
%TO.CMnt,SMD*%
%TO.CRot,126*%
X112789346Y-97937989D03*
D11*
X112304261Y-97610588D02*
X112627868Y-97375473D01*
X113274431Y-98265390D01*
X112950824Y-98500505D01*
X112304261Y-97610588D01*
D12*
%TO.P,R5,1*%
X112601255Y-97679104D03*
D13*
%TO.P,R5,2*%
X112977437Y-98196874D03*
%TD*%
D10*
%TO.C,L3*%
%TO.CFtp,0402_RF*%
%TO.CVal,0 Ohm*%
%TO.CLbN,Pixels-dice*%
%TO.CMnt,SMD*%
%TO.CRot,75*%
X154110000Y-113500000D03*
D11*
X154047103Y-112768806D02*
X154530068Y-112898216D01*
X154172897Y-114231194D01*
X153689932Y-114101784D01*
X154047103Y-112768806D01*
D12*
%TO.P,L3,1,1*%
X154223881Y-113074993D03*
D13*
%TO.P,L3,2,2*%
X153996119Y-113925007D03*
%TD*%
D10*
%TO.C,U3*%
%TO.CFtp,SOT-23*%
%TO.CVal,PJ75BL50SA*%
%TO.CLbN,Pixels-dice*%
%TO.CMnt,SMD*%
%TO.CRot,75*%
X151834909Y-102316378D03*
D11*
X150906201Y-100566381D02*
X153514193Y-101265190D01*
X152763615Y-104066384D01*
X150155623Y-103367574D01*
X150906201Y-100566381D01*
D12*
%TO.P,U3,1,VSS*%
X152493713Y-103528190D03*
D13*
%TO.P,U3,2,VOUT*%
X150658463Y-103036431D03*
%TO.P,U3,3,VIN*%
X152093728Y-101350452D03*
%TD*%
D10*
%TO.C,R8*%
%TO.CFtp,R_0201_0603Metric*%
%TO.CVal,10M 1\u0025*%
%TO.CLbN,Resistor_SMD*%
%TO.CMnt,SMD*%
%TO.CRot,-15*%
X145859098Y-109472823D03*
D11*
X146442123Y-109421989D02*
X146338595Y-109808359D01*
X145276073Y-109523657D01*
X145379601Y-109137287D01*
X146442123Y-109421989D01*
D12*
%TO.P,R8,1*%
X146168196Y-109555646D03*
D13*
%TO.P,R8,2*%
X145550000Y-109390000D03*
%TD*%
D10*
%TO.C,D12*%
%TO.CFtp,TX1812MWCA5-F01*%
%TO.CVal,TX1812MWCA5-F01*%
%TO.CLbN,Pixels-dice*%
%TO.CMnt,SMD*%
%TO.CRot,-42*%
X122928453Y-107636908D03*
D11*
X124245986Y-107443945D02*
X122874267Y-108967394D01*
X121610920Y-107829871D01*
X122982639Y-106306422D01*
X124245986Y-107443945D01*
D12*
%TO.P,D12,1,DOUT*%
X122814906Y-108510254D03*
D13*
%TO.P,D12,2,GND*%
X122071760Y-107841123D03*
%TO.P,D12,3,DIN*%
X123042000Y-106763562D03*
%TO.P,D12,4,VCC*%
X123785146Y-107432693D03*
%TD*%
D10*
%TO.C,D15*%
%TO.CFtp,TX1812MWCA5-F01*%
%TO.CVal,TX1812MWCA5-F01*%
%TO.CLbN,Pixels-dice*%
%TO.CMnt,SMD*%
%TO.CRot,-140*%
X107720000Y-110400000D03*
D11*
X107727720Y-111731565D02*
X106410005Y-110161174D01*
X107712280Y-109068435D01*
X109029995Y-110638826D01*
X107727720Y-111731565D01*
D12*
%TO.P,D15,1,DOUT*%
X106870957Y-110166012D03*
D13*
%TO.P,D15,2,GND*%
X107637002Y-109523226D03*
%TO.P,D15,3,DIN*%
X108569043Y-110633988D03*
%TO.P,D15,4,VCC*%
X107802998Y-111276774D03*
%TD*%
D10*
%TO.C,C22*%
%TO.CFtp,C_0201_0603Metric*%
%TO.CVal,10nF 25V 10\u0025*%
%TO.CLbN,Capacitor_SMD*%
%TO.CMnt,SMD*%
%TO.CRot,-15*%
X146010000Y-108910000D03*
D11*
X146593025Y-108859166D02*
X146489497Y-109245536D01*
X145426975Y-108960834D01*
X145530503Y-108574464D01*
X146593025Y-108859166D01*
D12*
%TO.P,C22,1*%
X146319098Y-108992823D03*
D13*
%TO.P,C22,2*%
X145700902Y-108827177D03*
%TD*%
D10*
%TO.C,J2*%
%TO.CFtp,FPC-POGO-4*%
%TO.CVal,Conn_01x04*%
%TO.CLbN,Pixels-dice*%
%TO.CMnt,SMD*%
%TO.CRot,40*%
X159585770Y-104967722D03*
D11*
X162250797Y-101360821D02*
X163600651Y-102969515D01*
X156920743Y-108574623D01*
X155570889Y-106965929D01*
X162250797Y-101360821D01*
D12*
%TO.P,J2,1,Pin_1*%
X162504399Y-102518701D03*
D13*
%TO.P,J2,2,Pin_2*%
X160558646Y-104151382D03*
%TO.P,J2,3,Pin_3*%
X158612894Y-105784062D03*
%TO.P,J2,4,Pin_4*%
X156667141Y-107416743D03*
%TD*%
D10*
%TO.C,C14*%
%TO.CFtp,C_0201_0603Metric*%
%TO.CVal,0.1uF 10V 20\u0025*%
%TO.CLbN,Capacitor_SMD*%
%TO.CMnt,SMD*%
%TO.CRot,50*%
X127650000Y-111650000D03*
D11*
X127850326Y-111100117D02*
X128156743Y-111357232D01*
X127449674Y-112199883D01*
X127143257Y-111942768D01*
X127850326Y-111100117D01*
D12*
%TO.P,C14,1*%
X127855693Y-111404864D03*
D13*
%TO.P,C14,2*%
X127444307Y-111895136D03*
%TD*%
D10*
%TO.C,C12*%
%TO.CFtp,0402_RF*%
%TO.CVal,DNP*%
%TO.CLbN,Pixels-dice*%
%TO.CMnt,SMD*%
%TO.CRot,165*%
X154860000Y-112560000D03*
D11*
X154128802Y-112622897D02*
X154258213Y-112139930D01*
X155591198Y-112497103D01*
X155461787Y-112980070D01*
X154128802Y-112622897D01*
D12*
%TO.P,C12,1*%
X154434989Y-112446117D03*
D13*
%TO.P,C12,2*%
X155285011Y-112673883D03*
%TD*%
D10*
%TO.C,AE1*%
%TO.CFtp,CHIP_ANT*%
%TO.CVal,Antenna_Chip*%
%TO.CLbN,Pixels-dice*%
%TO.CMnt,SMD*%
%TO.CRot,-90*%
X153320000Y-115950000D03*
D11*
X157120001Y-116750000D02*
X152920000Y-116750000D01*
X152920000Y-115149999D01*
X157120001Y-115149999D01*
X157120001Y-116750000D01*
D12*
%TO.P,AE1,1,FEED*%
X153320000Y-115950000D03*
D13*
%TO.P,AE1,2,PCB_Trace*%
X156720001Y-115949999D03*
%TD*%
D10*
%TO.C,R4*%
%TO.CFtp,R_0201_0603Metric*%
%TO.CVal,10k 1\u0025*%
%TO.CLbN,Resistor_SMD*%
%TO.CMnt,SMD*%
%TO.CRot,-15*%
X152759592Y-96663082D03*
D11*
X153342614Y-96612245D02*
X153239085Y-96998619D01*
X152176570Y-96713919D01*
X152280099Y-96327545D01*
X153342614Y-96612245D01*
D12*
%TO.P,R4,1*%
X153068686Y-96745906D03*
D13*
%TO.P,R4,2*%
X152450498Y-96580258D03*
%TD*%
D10*
%TO.C,D20*%
%TO.CFtp,TX1812MWCA5-F01*%
%TO.CVal,TX1812MWCA5-F01*%
%TO.CLbN,Pixels-dice*%
%TO.CMnt,SMD*%
%TO.CRot,124*%
X113070000Y-95390000D03*
D11*
X111744921Y-95258488D02*
X113444448Y-94112143D01*
X114395079Y-95521512D01*
X112695552Y-96667857D01*
X111744921Y-95258488D01*
D12*
%TO.P,D20,1,DOUT*%
X113391455Y-94570065D03*
D13*
%TO.P,D20,2,GND*%
X113950650Y-95399107D03*
%TO.P,D20,3,DIN*%
X112748545Y-96209935D03*
%TO.P,D20,4,VCC*%
X112189350Y-95380893D03*
%TD*%
D10*
%TO.C,J1*%
%TO.CFtp,FPC_14*%
%TO.CVal,Conn_01x14*%
%TO.CLbN,Pixels-dice*%
%TO.CMnt,SMD*%
%TO.CRot,-50*%
X166941151Y-103104177D03*
D11*
X167803614Y-102576295D02*
X166271524Y-103861872D01*
X161900568Y-98652770D01*
X163432659Y-97367193D01*
X167803614Y-102576295D01*
D12*
%TO.P,J1,1,Pin_1*%
X166941151Y-103104177D03*
D13*
%TO.P,J1,2,Pin_2*%
X166619758Y-102721156D03*
%TO.P,J1,3,Pin_3*%
X166298364Y-102338132D03*
%TO.P,J1,4,Pin_4*%
X165976969Y-101955111D03*
%TO.P,J1,5,Pin_5*%
X165655575Y-101572087D03*
%TO.P,J1,6,Pin_6*%
X165334182Y-101189066D03*
%TO.P,J1,7,Pin_7*%
X165012789Y-100806044D03*
%TO.P,J1,8,Pin_8*%
X164691394Y-100423021D03*
%TO.P,J1,9,Pin_9*%
X164370000Y-100040000D03*
%TO.P,J1,10,Pin_10*%
X164048606Y-99656976D03*
%TO.P,J1,11,Pin_11*%
X163727213Y-99273955D03*
%TO.P,J1,12,Pin_12*%
X163405820Y-98890932D03*
%TO.P,J1,13,Pin_13*%
X163084425Y-98507910D03*
%TO.P,J1,14,Pin_14*%
X162763031Y-98124889D03*
%TD*%
D10*
%TO.C,U9*%
%TO.CFtp,SOT-553*%
%TO.CVal,XT4051*%
%TO.CLbN,Package_TO_SOT_SMD*%
%TO.CMnt,SMD*%
%TO.CRot,75*%
X148976224Y-101703107D03*
D11*
X148595984Y-100514182D02*
X149899984Y-100863588D01*
X149356464Y-102892032D01*
X148052464Y-102542626D01*
X148595984Y-100514182D01*
D12*
%TO.P,U9,1,BAT*%
X148677670Y-100885475D03*
D13*
%TO.P,U9,2,GND*%
X149160630Y-101014885D03*
%TO.P,U9,3,CHRG*%
X149643594Y-101144295D03*
%TO.P,U9,4,PROG*%
X149274778Y-102520739D03*
%TO.P,U9,5,VCC*%
X148308854Y-102261919D03*
%TD*%
D10*
%TO.C,D13*%
%TO.CFtp,TX1812MWCA5-F01*%
%TO.CVal,TX1812MWCA5-F01*%
%TO.CLbN,Pixels-dice*%
%TO.CMnt,SMD*%
%TO.CRot,-90*%
X117170000Y-110200000D03*
D11*
X118195003Y-111050000D02*
X116144997Y-111050000D01*
X116144997Y-109350000D01*
X118195003Y-109350000D01*
X118195003Y-111050000D01*
D12*
%TO.P,D13,1,DOUT*%
X116445001Y-110699999D03*
D13*
%TO.P,D13,2,GND*%
X116444997Y-109700000D03*
%TO.P,D13,3,DIN*%
X117894999Y-109700001D03*
%TO.P,D13,4,VCC*%
X117895003Y-110700000D03*
%TD*%
D10*
%TO.C,U4*%
%TO.CFtp,FPB1_1-4*%
%TO.CVal,ME6230*%
%TO.CLbN,Pixels-dice*%
%TO.CMnt,SMD*%
%TO.CRot,134*%
X148334296Y-127926843D03*
D11*
X147694460Y-127915675D02*
X148345464Y-127287007D01*
X148974132Y-127938011D01*
X148323128Y-128566679D01*
X147694460Y-127915675D01*
D12*
%TO.P,U4,1,VOUT*%
X148342318Y-127467293D03*
D13*
%TO.P,U4,*%
X148334296Y-127926843D03*
%TO.P,U4,2,VSS*%
X148793846Y-127934865D03*
%TO.P,U4,3,CE*%
X148326274Y-128386393D03*
%TO.P,U4,4,VIN*%
X147874746Y-127918821D03*
%TD*%
D10*
%TO.C,D1*%
%TO.CFtp,SOT-363_SC-70-6*%
%TO.CVal,BAV99S*%
%TO.CLbN,Pixels-dice*%
%TO.CMnt,SMD*%
%TO.CRot,-11*%
X142890000Y-128690000D03*
D11*
X144205603Y-128079814D02*
X143881226Y-129748588D01*
X141574397Y-129300186D01*
X141898774Y-127631412D01*
X144205603Y-128079814D01*
D12*
%TO.P,D1,1,A1*%
X143897494Y-128223667D03*
D13*
%TO.P,D1,2,K2*%
X143773458Y-128861739D03*
%TO.P,D1,3,K1A2*%
X143649437Y-129499779D03*
%TO.P,D1,4,A3*%
X141882506Y-129156333D03*
%TO.P,D1,5,K4*%
X142006542Y-128518261D03*
%TO.P,D1,6,K3A4*%
X142130563Y-127880221D03*
%TD*%
D10*
%TO.C,C16*%
%TO.CFtp,C_0402_1005Metric*%
%TO.CVal,10uF 6.3V 20\u0025*%
%TO.CLbN,Pixels-dice*%
%TO.CMnt,SMD*%
%TO.CRot,119*%
X147270000Y-128340000D03*
D11*
X146630412Y-127825580D02*
X147172678Y-127524998D01*
X147909588Y-128854420D01*
X147367322Y-129155002D01*
X146630412Y-127825580D01*
D12*
%TO.P,C16,1*%
X147037291Y-127920183D03*
D13*
%TO.P,C16,2*%
X147502709Y-128759817D03*
%TD*%
D10*
%TO.C,D18*%
%TO.CFtp,TX1812MWCA5-F01*%
%TO.CVal,TX1812MWCA5-F01*%
%TO.CLbN,Pixels-dice*%
%TO.CMnt,SMD*%
%TO.CRot,170*%
X104780000Y-100570000D03*
D11*
X103764924Y-101431828D02*
X104120903Y-99412970D01*
X105795076Y-99708172D01*
X105439097Y-101727030D01*
X103764924Y-101431828D01*
D12*
%TO.P,D18,1,DOUT*%
X104413491Y-99769189D03*
D13*
%TO.P,D18,2,GND*%
X105398299Y-99942838D03*
%TO.P,D18,3,DIN*%
X105146509Y-101370811D03*
%TO.P,D18,4,VCC*%
X104161701Y-101197162D03*
%TD*%
D10*
%TO.C,R11*%
%TO.CFtp,R_0201_0603Metric*%
%TO.CVal,3.9k 1\u0025*%
%TO.CLbN,Resistor_SMD*%
%TO.CMnt,SMD*%
%TO.CRot,-90*%
X151060000Y-119700000D03*
D11*
X151260003Y-120250000D02*
X150859997Y-120250000D01*
X150859997Y-119150000D01*
X151260003Y-119150000D01*
X151260003Y-120250000D01*
D12*
%TO.P,R11,1*%
X151060003Y-120020000D03*
D13*
%TO.P,R11,2*%
X151059997Y-119380000D03*
%TD*%
D10*
%TO.C,C19*%
%TO.CFtp,C_0805_2012Metric*%
%TO.CVal,12nF 50V 5\u0025 NP0*%
%TO.CLbN,Capacitor_SMD*%
%TO.CMnt,SMD*%
%TO.CRot,125*%
X130050000Y-121520000D03*
D11*
X128624429Y-120748077D02*
X129812204Y-119916388D01*
X131475571Y-122291923D01*
X130287796Y-123123612D01*
X128624429Y-120748077D01*
D12*
%TO.P,C19,1*%
X129505107Y-120741807D03*
D13*
%TO.P,C19,2*%
X130594893Y-122298193D03*
%TD*%
D10*
%TO.C,U8*%
%TO.CFtp,SOT-553*%
%TO.CVal,SL1605*%
%TO.CLbN,Package_TO_SOT_SMD*%
%TO.CMnt,SMD*%
%TO.CRot,34*%
X111843142Y-93648249D03*
D11*
X112336180Y-92501490D02*
X113091093Y-93620696D01*
X111350104Y-94795008D01*
X110595191Y-93675802D01*
X112336180Y-92501490D01*
D12*
%TO.P,U8,1*%
X112154238Y-92835299D03*
D13*
%TO.P,U8,2,GND*%
X112433826Y-93249818D03*
%TO.P,U8,3*%
X112713422Y-93664342D03*
%TO.P,U8,4,VDD*%
X111532046Y-94461199D03*
%TO.P,U8,5,OUT*%
X110972862Y-93632156D03*
%TD*%
D10*
%TO.C,C11*%
%TO.CFtp,0402_RF*%
%TO.CVal,DNP*%
%TO.CLbN,Pixels-dice*%
%TO.CMnt,SMD*%
%TO.CRot,180*%
X154120000Y-114700000D03*
D11*
X153430000Y-114950000D02*
X153430000Y-114450000D01*
X154810000Y-114450000D01*
X154810000Y-114950000D01*
X153430000Y-114950000D01*
D12*
%TO.P,C11,1*%
X153680000Y-114700000D03*
D13*
%TO.P,C11,2*%
X154560000Y-114700000D03*
%TD*%
D10*
%TO.C,Q1*%
%TO.CFtp,D_0603_1608Metric*%
%TO.CVal,ZSPT-Z1608C-06F-Z4*%
%TO.CLbN,Diode_SMD*%
%TO.CMnt,SMD*%
%TO.CRot,-145*%
X114340000Y-96840000D03*
D11*
X113608988Y-97931728D02*
X113064091Y-97153533D01*
X115071012Y-95748272D01*
X115615909Y-96526467D01*
X113608988Y-97931728D01*
D12*
%TO.P,Q1,1,C*%
X113694919Y-97291691D03*
D13*
%TO.P,Q1,2,E*%
X114985081Y-96388309D03*
%TD*%
D10*
%TO.C,TH1*%
%TO.CFtp,R_0402_1005Metric*%
%TO.CVal,NTC 100k @ 25C*%
%TO.CLbN,Pixels-dice*%
%TO.CMnt,SMD*%
%TO.CRot,-107*%
X131610000Y-111650000D03*
D11*
X131687969Y-112489475D02*
X131075932Y-112302357D01*
X131532031Y-110810525D01*
X132144068Y-110997643D01*
X131687969Y-112489475D01*
D12*
%TO.P,TH1,1*%
X131460892Y-112137714D03*
D13*
%TO.P,TH1,2*%
X131759108Y-111162286D03*
%TD*%
D10*
%TO.C,U6*%
%TO.CFtp,AW35122*%
%TO.CVal,AW35122*%
%TO.CLbN,Pixels-dice*%
%TO.CMnt,SMD*%
%TO.CRot,65*%
X147100000Y-120090000D03*
D11*
X146923453Y-119604942D02*
X147585058Y-119913453D01*
X147276547Y-120575058D01*
X146614942Y-120266547D01*
X146923453Y-119604942D01*
D12*
%TO.P,U6,A1,VOUT*%
X146979079Y-119757769D03*
D13*
%TO.P,U6,A2,VIN*%
X146767769Y-120210921D03*
%TO.P,U6,B1,GND*%
X147432231Y-119969079D03*
%TO.P,U6,B2,EN*%
X147220921Y-120422231D03*
%TD*%
D10*
%TO.C,R7*%
%TO.CFtp,R_0201_0603Metric*%
%TO.CVal,3.9M 1\u0025*%
%TO.CLbN,Resistor_SMD*%
%TO.CMnt,SMD*%
%TO.CRot,-105*%
X145270000Y-110300000D03*
D11*
X145320835Y-110883024D02*
X144934463Y-110779496D01*
X145219165Y-109716976D01*
X145605537Y-109820504D01*
X145320835Y-110883024D01*
D12*
%TO.P,R7,1*%
X145187177Y-110609097D03*
D13*
%TO.P,R7,2*%
X145352823Y-109990903D03*
%TD*%
D10*
%TO.C,U5*%
%TO.CFtp,TDFN-8-1EP_3x2mm_P0.5mm_EP1.3x1.4mm*%
%TO.CVal,BL24C02F-NTRC*%
%TO.CLbN,Pixels-dice*%
%TO.CMnt,SMD*%
%TO.CRot,0*%
X153240000Y-118740000D03*
D11*
X155090004Y-117864997D02*
X155090004Y-119615003D01*
X151389996Y-119615003D01*
X151389996Y-117864997D01*
X155090004Y-117864997D01*
D12*
%TO.P,U5,1,A0*%
X154702504Y-117989997D03*
D13*
%TO.P,U5,2,A1*%
X154702502Y-118490002D03*
%TO.P,U5,3,A2*%
X154702501Y-118990002D03*
%TO.P,U5,4,GND*%
X154702499Y-119489997D03*
%TO.P,U5,5,SDA*%
X151777496Y-119490003D03*
%TO.P,U5,6,SCL*%
X151777498Y-118989998D03*
%TO.P,U5,7,WP*%
X151777499Y-118489998D03*
%TO.P,U5,8,VCC*%
X151777501Y-117990003D03*
%TO.P,U5,9*%
X153240000Y-118740000D03*
%TD*%
D10*
%TO.C,D19*%
%TO.CFtp,TX1812MWCA5-F01*%
%TO.CVal,TX1812MWCA5-F01*%
%TO.CLbN,Pixels-dice*%
%TO.CMnt,SMD*%
%TO.CRot,124*%
X110640000Y-91800000D03*
D11*
X109314921Y-91668490D02*
X111014449Y-90522143D01*
X111965079Y-91931510D01*
X110265551Y-93077857D01*
X109314921Y-91668490D01*
D12*
%TO.P,D19,1,DOUT*%
X110961455Y-90980064D03*
D13*
%TO.P,D19,2,GND*%
X111520647Y-91809105D03*
%TO.P,D19,3,DIN*%
X110318545Y-92619936D03*
%TO.P,D19,4,VCC*%
X109759353Y-91790895D03*
%TD*%
D10*
%TO.C,D17*%
%TO.CFtp,TX1812MWCA5-F01*%
%TO.CVal,TX1812MWCA5-F01*%
%TO.CLbN,Pixels-dice*%
%TO.CMnt,SMD*%
%TO.CRot,170*%
X109490000Y-101220000D03*
D11*
X108474924Y-102081828D02*
X108830903Y-100062970D01*
X110505076Y-100358172D01*
X110149097Y-102377030D01*
X108474924Y-102081828D01*
D12*
%TO.P,D17,1,DOUT*%
X109123492Y-100419189D03*
D13*
%TO.P,D17,2,GND*%
X110108299Y-100592838D03*
%TO.P,D17,3,DIN*%
X109856508Y-102020811D03*
%TO.P,D17,4,VCC*%
X108871701Y-101847162D03*
%TD*%
D10*
%TO.C,R6*%
%TO.CFtp,R_0201_0603Metric*%
%TO.CVal,3.9k 1\u0025*%
%TO.CLbN,Resistor_SMD*%
%TO.CMnt,SMD*%
%TO.CRot,165*%
X149390453Y-103286780D03*
D11*
X148807431Y-103337616D02*
X148910959Y-102951244D01*
X149973475Y-103235944D01*
X149869947Y-103622316D01*
X148807431Y-103337616D01*
D12*
%TO.P,R6,1*%
X149081357Y-103203959D03*
D13*
%TO.P,R6,2*%
X149699549Y-103369601D03*
%TD*%
D10*
%TO.C,D16*%
%TO.CFtp,TX1812MWCA5-F01*%
%TO.CVal,TX1812MWCA5-F01*%
%TO.CLbN,Pixels-dice*%
%TO.CMnt,SMD*%
%TO.CRot,-140*%
X111215115Y-107490000D03*
D11*
X111222834Y-108821567D02*
X109905118Y-107251174D01*
X111207396Y-106158433D01*
X112525112Y-107728826D01*
X111222834Y-108821567D01*
D12*
%TO.P,D16,1,DOUT*%
X110366072Y-107256010D03*
D13*
%TO.P,D16,2,GND*%
X111132117Y-106613222D03*
%TO.P,D16,3,DIN*%
X112064158Y-107723990D03*
%TO.P,D16,4,VCC*%
X111298113Y-108366778D03*
%TD*%
D10*
%TO.C,C18*%
%TO.CFtp,C_0402_1005Metric*%
%TO.CVal,4.7uF 10V 20\u0025*%
%TO.CLbN,Pixels-dice*%
%TO.CMnt,SMD*%
%TO.CRot,134*%
X149060000Y-127210000D03*
D11*
X148309065Y-126878648D02*
X148755057Y-126447958D01*
X149810935Y-127541352D01*
X149364943Y-127972042D01*
X148309065Y-126878648D01*
D12*
%TO.P,C18,1*%
X148726566Y-126864718D03*
D13*
%TO.P,C18,2*%
X149393434Y-127555282D03*
%TD*%
D10*
%TO.C,U7*%
%TO.CFtp,UDFN-4-1EP_1x1mm_P0.65mm_EP0.48x0.48mm*%
%TO.CVal,DS6101*%
%TO.CLbN,Package_DFN_QFN*%
%TO.CMnt,SMD*%
%TO.CRot,-15*%
X151992516Y-99796308D03*
D11*
X152736838Y-99529870D02*
X152503899Y-100399211D01*
X151248194Y-100062746D01*
X151481133Y-99193405D01*
X152736838Y-99529870D01*
D12*
%TO.P,U7,1,BAT*%
X152598229Y-99622143D03*
D13*
%TO.P,U7,2,VSS*%
X152430000Y-100250000D03*
%TO.P,U7,3,SM*%
X151386803Y-99970473D03*
%TO.P,U7,4,EB-*%
X151555032Y-99342616D03*
%TO.P,U7,5,PAD*%
X151992516Y-99796308D03*
%TD*%
D10*
%TO.C,D14*%
%TO.CFtp,TX1812MWCA5-F01*%
%TO.CVal,TX1812MWCA5-F01*%
%TO.CLbN,Pixels-dice*%
%TO.CMnt,SMD*%
%TO.CRot,-90*%
X117140000Y-114910000D03*
D11*
X118165001Y-115760001D02*
X116114999Y-115760001D01*
X116114999Y-114059999D01*
X118165001Y-114059999D01*
X118165001Y-115760001D01*
D12*
%TO.P,D14,1,DOUT*%
X116415000Y-115410001D03*
D13*
%TO.P,D14,2,GND*%
X116414999Y-114410000D03*
%TO.P,D14,3,DIN*%
X117865000Y-114409999D03*
%TO.P,D14,4,VCC*%
X117865001Y-115410000D03*
%TD*%
D10*
%TO.C,C13*%
%TO.CFtp,C_0402_1005Metric*%
%TO.CVal,4.7uF 25V 20\u0025*%
%TO.CLbN,Capacitor_SMD*%
%TO.CMnt,SMD*%
%TO.CRot,75*%
X153837465Y-102956498D03*
D11*
X153734731Y-102142160D02*
X154333605Y-102302627D01*
X153940199Y-103770836D01*
X153341325Y-103610369D01*
X153734731Y-102142160D01*
D12*
%TO.P,C13,1*%
X153961698Y-102492853D03*
D13*
%TO.P,C13,2*%
X153713232Y-103420143D03*
%TD*%
D10*
%TO.C,U10*%
%TO.CFtp,DFN1109-6*%
%TO.CVal,WAS3157D-6/TR*%
%TO.CLbN,Pixels-dice*%
%TO.CMnt,SMD*%
%TO.CRot,-107*%
X132750000Y-111490000D03*
D11*
X132986346Y-112085107D02*
X132221281Y-111851203D01*
X132513654Y-110894893D01*
X133278719Y-111128797D01*
X132986346Y-112085107D01*
D12*
%TO.P,U10,1,B0*%
X132393985Y-111799425D03*
D13*
%TO.P,U10,2,GND*%
X132510912Y-111416915D03*
%TO.P,U10,3,B1*%
X132627863Y-111034379D03*
%TO.P,U10,4,S*%
X133106015Y-111180575D03*
%TO.P,U10,5,VCC*%
X132989088Y-111563085D03*
%TO.P,U10,6,A*%
X132872137Y-111945621D03*
%TD*%
M02*
