  0
SECTION
  2
HEADER
  9
$ANGBASE
  50
0.0
  9
$ANGDIR
  70
1
  9
$MEASUREMENT
  70
1
  0
ENDSEC
  0
SECTION
  2
TABLES
  0
TABLE
  2
LTYPE
  70
4
  0
LTYPE
  5
40F
  2
CONTINUOUS
  70
0
  3
Solid line
  72
65
  73
0
  40
0.0
  0
LTYPE
  5
410
  2
DASHDOT
 70
0
  3
Dash Dot ____ _ ____ _
 72
65
 73
4
 40
2.0
 49
1.25
 49
-0.25
 49
0.25
 49
-0.25
  0
LTYPE
  5
411
  2
DASHED
 70
0
  3
Dashed __ __ __ __ __
 72
65
 73
2
 40
0.75
 49
0.5
 49
-0.25
  0
LTYPE
  5
43B
  2
DOTTED
 70
0
  3
Dotted .  .  .  .
 72
65
 73
2
 40
0.2
 49
0.0
 49
-0.2
  0
ENDTAB
  0
TABLE
  2
STYLE
  70
4
  0
STYLE
  2
KICAD
  70
0
  40
0
  41
1
  42
1
  50
0
  71
0
  3
isocp.shx
  0
STYLE
  2
KICADB
  70
0
  40
0
  41
1
  42
1
  50
0
  71
0
  3
isocp.shx
  0
STYLE
  2
KICADI
  70
0
  40
0
  41
1
  42
1
  50
15
  71
0
  3
isocp.shx
  0
STYLE
  2
KICADBI
  70
0
  40
0
  41
1
  42
1
  50
15
  71
0
  3
isocp.shx
  0
ENDTAB
  0
TABLE
  2
LAYER
  70
1
  0
LAYER
  2
BLACK
  70
0
  62
7
  6
CONTINUOUS
  0
ENDTAB
  0
ENDSEC
  0
SECTION
  2
ENTITIES
0
LINE
8
BLACK
6
CONTINUOUS
10
147.4699999999999989
20
-108.0799999999999983
11
146.6699999999999875
21
-108.0799999999999983
0
LINE
8
BLACK
6
CONTINUOUS
10
146.6699999999999875
20
-108.0799999999999983
11
146.6699999999999875
21
-107.1799999999999926
0
LINE
8
BLACK
6
CONTINUOUS
10
146.6699999999999875
20
-107.1799999999999926
11
147.4699999999999989
21
-107.1799999999999926
0
LINE
8
BLACK
6
CONTINUOUS
10
147.4699999999999989
20
-107.1799999999999926
11
147.4699999999999989
21
-108.0799999999999983
0
LINE
8
BLACK
6
CONTINUOUS
10
149.5161039999999844
20
-107.0521269999999987
11
149.5890990000000045
21
-107.1009009999999932
0
LINE
8
BLACK
6
CONTINUOUS
10
149.5890990000000045
20
-107.1009009999999932
11
149.6378729999999848
21
-107.1738959999999992
0
LINE
8
BLACK
6
CONTINUOUS
10
149.6378729999999848
20
-107.1738959999999992
11
149.6550000000000011
21
-107.2599999999999909
0
LINE
8
BLACK
6
CONTINUOUS
10
149.6550000000000011
20
-107.2599999999999909
11
149.6550000000000011
21
-107.7099999999999937
0
LINE
8
BLACK
6
CONTINUOUS
10
149.6550000000000011
20
-107.7099999999999937
11
149.6378729999999848
21
-107.7961039999999997
0
LINE
8
BLACK
6
CONTINUOUS
10
149.6378729999999848
20
-107.7961039999999997
11
149.5890990000000045
21
-107.8690989999999914
0
LINE
8
BLACK
6
CONTINUOUS
10
149.5890990000000045
20
-107.8690989999999914
11
149.5161039999999844
21
-107.9178730000000002
0
LINE
8
BLACK
6
CONTINUOUS
10
149.5161039999999844
20
-107.9178730000000002
11
149.4300000000000068
21
-107.9349999999999881
0
LINE
8
BLACK
6
CONTINUOUS
10
149.4300000000000068
20
-107.9349999999999881
11
148.9300000000000068
21
-107.9349999999999881
0
LINE
8
BLACK
6
CONTINUOUS
10
148.9300000000000068
20
-107.9349999999999881
11
148.8438960000000009
21
-107.9178730000000002
0
LINE
8
BLACK
6
CONTINUOUS
10
148.8438960000000009
20
-107.9178730000000002
11
148.7709009999999807
21
-107.8690989999999914
0
LINE
8
BLACK
6
CONTINUOUS
10
148.7709009999999807
20
-107.8690989999999914
11
148.7221270000000004
21
-107.7961039999999997
0
LINE
8
BLACK
6
CONTINUOUS
10
148.7221270000000004
20
-107.7961039999999997
11
148.7049999999999841
21
-107.7099999999999937
0
LINE
8
BLACK
6
CONTINUOUS
10
148.7049999999999841
20
-107.7099999999999937
11
148.7049999999999841
21
-107.2599999999999909
0
LINE
8
BLACK
6
CONTINUOUS
10
148.7049999999999841
20
-107.2599999999999909
11
148.7221270000000004
21
-107.1738959999999992
0
LINE
8
BLACK
6
CONTINUOUS
10
148.7221270000000004
20
-107.1738959999999992
11
148.7709009999999807
21
-107.1009009999999932
0
LINE
8
BLACK
6
CONTINUOUS
10
148.7709009999999807
20
-107.1009009999999932
11
148.8438960000000009
21
-107.0521269999999987
0
LINE
8
BLACK
6
CONTINUOUS
10
148.8438960000000009
20
-107.0521269999999987
11
148.9300000000000068
21
-107.0349999999999966
0
LINE
8
BLACK
6
CONTINUOUS
10
148.9300000000000068
20
-107.0349999999999966
11
149.4300000000000068
21
-107.0349999999999966
0
LINE
8
BLACK
6
CONTINUOUS
10
149.4300000000000068
20
-107.0349999999999966
11
149.5161039999999844
21
-107.0521269999999987
0
LINE
8
BLACK
6
CONTINUOUS
10
149.5161039999999844
20
-105.5021270000000015
11
149.5890990000000045
21
-105.5509009999999961
0
LINE
8
BLACK
6
CONTINUOUS
10
149.5890990000000045
20
-105.5509009999999961
11
149.6378729999999848
21
-105.623896000000002
0
LINE
8
BLACK
6
CONTINUOUS
10
149.6378729999999848
20
-105.623896000000002
11
149.6550000000000011
21
-105.7099999999999937
0
LINE
8
BLACK
6
CONTINUOUS
10
149.6550000000000011
20
-105.7099999999999937
11
149.6550000000000011
21
-106.1599999999999966
0
LINE
8
BLACK
6
CONTINUOUS
10
149.6550000000000011
20
-106.1599999999999966
11
149.6378729999999848
21
-106.2461039999999883
0
LINE
8
BLACK
6
CONTINUOUS
10
149.6378729999999848
20
-106.2461039999999883
11
149.5890990000000045
21
-106.3190989999999942
0
LINE
8
BLACK
6
CONTINUOUS
10
149.5890990000000045
20
-106.3190989999999942
11
149.5161039999999844
21
-106.3678729999999888
0
LINE
8
BLACK
6
CONTINUOUS
10
149.5161039999999844
20
-106.3678729999999888
11
149.4300000000000068
21
-106.3849999999999909
0
LINE
8
BLACK
6
CONTINUOUS
10
149.4300000000000068
20
-106.3849999999999909
11
148.9300000000000068
21
-106.3849999999999909
0
LINE
8
BLACK
6
CONTINUOUS
10
148.9300000000000068
20
-106.3849999999999909
11
148.8438960000000009
21
-106.3678729999999888
0
LINE
8
BLACK
6
CONTINUOUS
10
148.8438960000000009
20
-106.3678729999999888
11
148.7709009999999807
21
-106.3190989999999942
0
LINE
8
BLACK
6
CONTINUOUS
10
148.7709009999999807
20
-106.3190989999999942
11
148.7221270000000004
21
-106.2461039999999883
0
LINE
8
BLACK
6
CONTINUOUS
10
148.7221270000000004
20
-106.2461039999999883
11
148.7049999999999841
21
-106.1599999999999966
0
LINE
8
BLACK
6
CONTINUOUS
10
148.7049999999999841
20
-106.1599999999999966
11
148.7049999999999841
21
-105.7099999999999937
0
LINE
8
BLACK
6
CONTINUOUS
10
148.7049999999999841
20
-105.7099999999999937
11
148.7221270000000004
21
-105.623896000000002
0
LINE
8
BLACK
6
CONTINUOUS
10
148.7221270000000004
20
-105.623896000000002
11
148.7709009999999807
21
-105.5509009999999961
0
LINE
8
BLACK
6
CONTINUOUS
10
148.7709009999999807
20
-105.5509009999999961
11
148.8438960000000009
21
-105.5021270000000015
0
LINE
8
BLACK
6
CONTINUOUS
10
148.8438960000000009
20
-105.5021270000000015
11
148.9300000000000068
21
-105.4849999999999994
0
LINE
8
BLACK
6
CONTINUOUS
10
148.9300000000000068
20
-105.4849999999999994
11
149.4300000000000068
21
-105.4849999999999994
0
LINE
8
BLACK
6
CONTINUOUS
10
149.4300000000000068
20
-105.4849999999999994
11
149.5161039999999844
21
-105.5021270000000015
0
LINE
8
BLACK
6
CONTINUOUS
10
146.5199999999999818
20
-106.0799999999999983
11
145.7199999999999989
21
-106.0799999999999983
0
LINE
8
BLACK
6
CONTINUOUS
10
145.7199999999999989
20
-106.0799999999999983
11
145.7199999999999989
21
-105.1799999999999926
0
LINE
8
BLACK
6
CONTINUOUS
10
145.7199999999999989
20
-105.1799999999999926
11
146.5199999999999818
21
-105.1799999999999926
0
LINE
8
BLACK
6
CONTINUOUS
10
146.5199999999999818
20
-105.1799999999999926
11
146.5199999999999818
21
-106.0799999999999983
0
LINE
8
BLACK
6
CONTINUOUS
10
148.4199999999999875
20
-106.0799999999999983
11
147.6200000000000045
21
-106.0799999999999983
0
LINE
8
BLACK
6
CONTINUOUS
10
147.6200000000000045
20
-106.0799999999999983
11
147.6200000000000045
21
-105.1799999999999926
0
LINE
8
BLACK
6
CONTINUOUS
10
147.6200000000000045
20
-105.1799999999999926
11
148.4199999999999875
21
-105.1799999999999926
0
LINE
8
BLACK
6
CONTINUOUS
10
148.4199999999999875
20
-105.1799999999999926
11
148.4199999999999875
21
-106.0799999999999983
0
LINE
8
BLACK
6
CONTINUOUS
10
138.141444000000007
20
-103.1612819999999999
11
138.1983099999999922
21
-103.1893249999999966
0
LINE
8
BLACK
6
CONTINUOUS
10
138.1983099999999922
20
-103.1893249999999966
11
138.240115000000003
21
-103.2369949999999932
0
LINE
8
BLACK
6
CONTINUOUS
10
138.240115000000003
20
-103.2369949999999932
11
138.4026149999999973
21
-103.5184529999999938
0
LINE
8
BLACK
6
CONTINUOUS
10
138.4026149999999973
20
-103.5184529999999938
11
138.4229959999999835
21
-103.5784929999999946
0
LINE
8
BLACK
6
CONTINUOUS
10
138.4229959999999835
20
-103.5784929999999946
11
138.4188489999999945
21
-103.6417609999999883
0
LINE
8
BLACK
6
CONTINUOUS
10
138.4188489999999945
20
-103.6417609999999883
11
138.3908059999999978
21
-103.6986270000000019
0
LINE
8
BLACK
6
CONTINUOUS
10
138.3908059999999978
20
-103.6986270000000019
11
138.343135999999987
21
-103.7404319999999984
0
LINE
8
BLACK
6
CONTINUOUS
10
138.343135999999987
20
-103.7404319999999984
11
137.7066079999999886
21
-104.107931999999991
0
LINE
8
BLACK
6
CONTINUOUS
10
137.7066079999999886
20
-104.107931999999991
11
137.646568000000002
21
-104.1283129999999915
0
LINE
8
BLACK
6
CONTINUOUS
10
137.646568000000002
20
-104.1283129999999915
11
137.5832999999999799
21
-104.1241659999999882
0
LINE
8
BLACK
6
CONTINUOUS
10
137.5832999999999799
20
-104.1241659999999882
11
137.5264339999999947
21
-104.0961229999999915
0
LINE
8
BLACK
6
CONTINUOUS
10
137.5264339999999947
20
-104.0961229999999915
11
137.484628999999984
21
-104.048452999999995
0
LINE
8
BLACK
6
CONTINUOUS
10
137.484628999999984
20
-104.048452999999995
11
137.3221289999999897
21
-103.7669949999999943
0
LINE
8
BLACK
6
CONTINUOUS
10
137.3221289999999897
20
-103.7669949999999943
11
137.3017480000000035
21
-103.7069549999999936
0
LINE
8
BLACK
6
CONTINUOUS
10
137.3017480000000035
20
-103.7069549999999936
11
137.3058949999999925
21
-103.6436869999999999
0
LINE
8
BLACK
6
CONTINUOUS
10
137.3058949999999925
20
-103.6436869999999999
11
137.3339379999999892
21
-103.5868210000000005
0
LINE
8
BLACK
6
CONTINUOUS
10
137.3339379999999892
20
-103.5868210000000005
11
137.3816079999999999
21
-103.5450159999999897
0
LINE
8
BLACK
6
CONTINUOUS
10
137.3816079999999999
20
-103.5450159999999897
11
138.0181359999999984
21
-103.1775159999999971
0
LINE
8
BLACK
6
CONTINUOUS
10
138.0181359999999984
20
-103.1775159999999971
11
138.0781759999999849
21
-103.1571349999999967
0
LINE
8
BLACK
6
CONTINUOUS
10
138.0781759999999849
20
-103.1571349999999967
11
138.141444000000007
21
-103.1612819999999999
0
LINE
8
BLACK
6
CONTINUOUS
10
137.6664439999999843
20
-102.3385579999999919
11
137.7233099999999979
21
-102.3666009999999886
0
LINE
8
BLACK
6
CONTINUOUS
10
137.7233099999999979
20
-102.3666009999999886
11
137.7651149999999802
21
-102.4142709999999994
0
LINE
8
BLACK
6
CONTINUOUS
10
137.7651149999999802
20
-102.4142709999999994
11
137.927615000000003
21
-102.695729
0
LINE
8
BLACK
6
CONTINUOUS
10
137.927615000000003
20
-102.695729
11
137.9479959999999892
21
-102.7557690000000008
0
LINE
8
BLACK
6
CONTINUOUS
10
137.9479959999999892
20
-102.7557690000000008
11
137.9438490000000002
21
-102.8190369999999945
0
LINE
8
BLACK
6
CONTINUOUS
10
137.9438490000000002
20
-102.8190369999999945
11
137.9158060000000035
21
-102.8759029999999939
0
LINE
8
BLACK
6
CONTINUOUS
10
137.9158060000000035
20
-102.8759029999999939
11
137.8681359999999927
21
-102.9177079999999904
0
LINE
8
BLACK
6
CONTINUOUS
10
137.8681359999999927
20
-102.9177079999999904
11
137.2316079999999943
21
-103.2852079999999972
0
LINE
8
BLACK
6
CONTINUOUS
10
137.2316079999999943
20
-103.2852079999999972
11
137.1715680000000077
21
-103.3055889999999977
0
LINE
8
BLACK
6
CONTINUOUS
10
137.1715680000000077
20
-103.3055889999999977
11
137.1082999999999856
21
-103.3014419999999944
0
LINE
8
BLACK
6
CONTINUOUS
10
137.1082999999999856
20
-103.3014419999999944
11
137.0514340000000004
21
-103.2733989999999977
0
LINE
8
BLACK
6
CONTINUOUS
10
137.0514340000000004
20
-103.2733989999999977
11
137.0096289999999897
21
-103.2257290000000012
0
LINE
8
BLACK
6
CONTINUOUS
10
137.0096289999999897
20
-103.2257290000000012
11
136.8471289999999954
21
-102.9442710000000005
0
LINE
8
BLACK
6
CONTINUOUS
10
136.8471289999999954
20
-102.9442710000000005
11
136.8267479999999807
21
-102.8842309999999998
0
LINE
8
BLACK
6
CONTINUOUS
10
136.8267479999999807
20
-102.8842309999999998
11
136.8308949999999982
21
-102.8209629999999919
0
LINE
8
BLACK
6
CONTINUOUS
10
136.8308949999999982
20
-102.8209629999999919
11
136.8589379999999949
21
-102.7640969999999925
0
LINE
8
BLACK
6
CONTINUOUS
10
136.8589379999999949
20
-102.7640969999999925
11
136.9066080000000056
21
-102.7222919999999959
0
LINE
8
BLACK
6
CONTINUOUS
10
136.9066080000000056
20
-102.7222919999999959
11
137.5431360000000041
21
-102.3547919999999891
0
LINE
8
BLACK
6
CONTINUOUS
10
137.5431360000000041
20
-102.3547919999999891
11
137.6031759999999906
21
-102.3344109999999887
0
LINE
8
BLACK
6
CONTINUOUS
10
137.6031759999999906
20
-102.3344109999999887
11
137.6664439999999843
21
-102.3385579999999919
0
LINE
8
BLACK
6
CONTINUOUS
10
140.0466999999999871
20
-102.0612819999999914
11
140.1035660000000007
21
-102.0893250000000023
0
LINE
8
BLACK
6
CONTINUOUS
10
140.1035660000000007
20
-102.0893250000000023
11
140.145370999999983
21
-102.1369949999999989
0
LINE
8
BLACK
6
CONTINUOUS
10
140.145370999999983
20
-102.1369949999999989
11
140.3078710000000058
21
-102.4184529999999995
0
LINE
8
BLACK
6
CONTINUOUS
10
140.3078710000000058
20
-102.4184529999999995
11
140.328251999999992
21
-102.4784930000000003
0
LINE
8
BLACK
6
CONTINUOUS
10
140.328251999999992
20
-102.4784930000000003
11
140.324105000000003
21
-102.5417609999999939
0
LINE
8
BLACK
6
CONTINUOUS
10
140.324105000000003
20
-102.5417609999999939
11
140.2960620000000063
21
-102.5986269999999934
0
LINE
8
BLACK
6
CONTINUOUS
10
140.2960620000000063
20
-102.5986269999999934
11
140.2483919999999955
21
-102.6404319999999899
0
LINE
8
BLACK
6
CONTINUOUS
10
140.2483919999999955
20
-102.6404319999999899
11
139.6118639999999971
21
-103.0079319999999967
0
LINE
8
BLACK
6
CONTINUOUS
10
139.6118639999999971
20
-103.0079319999999967
11
139.5518239999999821
21
-103.0283129999999971
0
LINE
8
BLACK
6
CONTINUOUS
10
139.5518239999999821
20
-103.0283129999999971
11
139.4885559999999884
21
-103.0241659999999939
0
LINE
8
BLACK
6
CONTINUOUS
10
139.4885559999999884
20
-103.0241659999999939
11
139.4316900000000032
21
-102.9961229999999972
0
LINE
8
BLACK
6
CONTINUOUS
10
139.4316900000000032
20
-102.9961229999999972
11
139.3898849999999925
21
-102.9484530000000007
0
LINE
8
BLACK
6
CONTINUOUS
10
139.3898849999999925
20
-102.9484530000000007
11
139.2273849999999982
21
-102.666995
0
LINE
8
BLACK
6
CONTINUOUS
10
139.2273849999999982
20
-102.666995
11
139.2070039999999835
21
-102.6069549999999992
0
LINE
8
BLACK
6
CONTINUOUS
10
139.2070039999999835
20
-102.6069549999999992
11
139.211151000000001
21
-102.5436869999999914
0
LINE
8
BLACK
6
CONTINUOUS
10
139.211151000000001
20
-102.5436869999999914
11
139.2391939999999977
21
-102.486820999999992
0
LINE
8
BLACK
6
CONTINUOUS
10
139.2391939999999977
20
-102.486820999999992
11
139.28686399999998
21
-102.4450159999999954
0
LINE
8
BLACK
6
CONTINUOUS
10
139.28686399999998
20
-102.4450159999999954
11
139.9233920000000069
21
-102.0775159999999886
0
LINE
8
BLACK
6
CONTINUOUS
10
139.9233920000000069
20
-102.0775159999999886
11
139.9834319999999934
21
-102.0571350000000024
0
LINE
8
BLACK
6
CONTINUOUS
10
139.9834319999999934
20
-102.0571350000000024
11
140.0466999999999871
21
-102.0612819999999914
0
LINE
8
BLACK
6
CONTINUOUS
10
137.19144399999999
20
-101.5158339999999981
11
137.2483100000000036
21
-101.5438769999999948
0
LINE
8
BLACK
6
CONTINUOUS
10
137.2483100000000036
20
-101.5438769999999948
11
137.2901149999999859
21
-101.5915469999999914
0
LINE
8
BLACK
6
CONTINUOUS
10
137.2901149999999859
20
-101.5915469999999914
11
137.4526149999999802
21
-101.873004999999992
0
LINE
8
BLACK
6
CONTINUOUS
10
137.4526149999999802
20
-101.873004999999992
11
137.4729959999999949
21
-101.9330449999999928
0
LINE
8
BLACK
6
CONTINUOUS
10
137.4729959999999949
20
-101.9330449999999928
11
137.4688490000000058
21
-101.9963130000000007
0
LINE
8
BLACK
6
CONTINUOUS
10
137.4688490000000058
20
-101.9963130000000007
11
137.4408059999999807
21
-102.0531790000000001
0
LINE
8
BLACK
6
CONTINUOUS
10
137.4408059999999807
20
-102.0531790000000001
11
137.3931359999999984
21
-102.0949839999999966
0
LINE
8
BLACK
6
CONTINUOUS
10
137.3931359999999984
20
-102.0949839999999966
11
136.7566079999999999
21
-102.4624839999999892
0
LINE
8
BLACK
6
CONTINUOUS
10
136.7566079999999999
20
-102.4624839999999892
11
136.696567999999985
21
-102.4828649999999897
0
LINE
8
BLACK
6
CONTINUOUS
10
136.696567999999985
20
-102.4828649999999897
11
136.6332999999999913
21
-102.4787180000000006
0
LINE
8
BLACK
6
CONTINUOUS
10
136.6332999999999913
20
-102.4787180000000006
11
136.5764340000000061
21
-102.4506749999999897
0
LINE
8
BLACK
6
CONTINUOUS
10
136.5764340000000061
20
-102.4506749999999897
11
136.5346289999999954
21
-102.4030049999999932
0
LINE
8
BLACK
6
CONTINUOUS
10
136.5346289999999954
20
-102.4030049999999932
11
136.372129000000001
21
-102.1215469999999925
0
LINE
8
BLACK
6
CONTINUOUS
10
136.372129000000001
20
-102.1215469999999925
11
136.3517479999999864
21
-102.0615069999999918
0
LINE
8
BLACK
6
CONTINUOUS
10
136.3517479999999864
20
-102.0615069999999918
11
136.3558950000000038
21
-101.9982389999999981
0
LINE
8
BLACK
6
CONTINUOUS
10
136.3558950000000038
20
-101.9982389999999981
11
136.3839380000000006
21
-101.9413729999999987
0
LINE
8
BLACK
6
CONTINUOUS
10
136.3839380000000006
20
-101.9413729999999987
11
136.4316079999999829
21
-101.8995680000000021
0
LINE
8
BLACK
6
CONTINUOUS
10
136.4316079999999829
20
-101.8995680000000021
11
137.0681359999999813
21
-101.5320679999999953
0
LINE
8
BLACK
6
CONTINUOUS
10
137.0681359999999813
20
-101.5320679999999953
11
137.1281759999999963
21
-101.5116869999999949
0
LINE
8
BLACK
6
CONTINUOUS
10
137.1281759999999963
20
-101.5116869999999949
11
137.19144399999999
21
-101.5158339999999981
0
LINE
8
BLACK
6
CONTINUOUS
10
142.2535759999999811
20
-101.3706569999999942
11
142.2989949999999908
21
-101.4010049999999978
0
LINE
8
BLACK
6
CONTINUOUS
10
142.2989949999999908
20
-101.4010049999999978
11
142.3293429999999944
21
-101.4464239999999933
0
LINE
8
BLACK
6
CONTINUOUS
10
142.3293429999999944
20
-101.4464239999999933
11
142.3400000000000034
21
-101.5
0
LINE
8
BLACK
6
CONTINUOUS
10
142.3400000000000034
20
-101.5
11
142.3400000000000034
21
-101.8399999999999892
0
LINE
8
BLACK
6
CONTINUOUS
10
142.3400000000000034
20
-101.8399999999999892
11
142.3293429999999944
21
-101.8935759999999959
0
LINE
8
BLACK
6
CONTINUOUS
10
142.3293429999999944
20
-101.8935759999999959
11
142.2989949999999908
21
-101.9389949999999914
0
LINE
8
BLACK
6
CONTINUOUS
10
142.2989949999999908
20
-101.9389949999999914
11
142.2535759999999811
21
-101.969342999999995
0
LINE
8
BLACK
6
CONTINUOUS
10
142.2535759999999811
20
-101.969342999999995
11
142.1999999999999886
21
-101.9799999999999898
0
LINE
8
BLACK
6
CONTINUOUS
10
142.1999999999999886
20
-101.9799999999999898
11
141.9199999999999875
21
-101.9799999999999898
0
LINE
8
BLACK
6
CONTINUOUS
10
141.9199999999999875
20
-101.9799999999999898
11
141.866423999999995
21
-101.969342999999995
0
LINE
8
BLACK
6
CONTINUOUS
10
141.866423999999995
20
-101.969342999999995
11
141.8210049999999853
21
-101.9389949999999914
0
LINE
8
BLACK
6
CONTINUOUS
10
141.8210049999999853
20
-101.9389949999999914
11
141.7906569999999817
21
-101.8935759999999959
0
LINE
8
BLACK
6
CONTINUOUS
10
141.7906569999999817
20
-101.8935759999999959
11
141.7800000000000011
21
-101.8399999999999892
0
LINE
8
BLACK
6
CONTINUOUS
10
141.7800000000000011
20
-101.8399999999999892
11
141.7800000000000011
21
-101.5
0
LINE
8
BLACK
6
CONTINUOUS
10
141.7800000000000011
20
-101.5
11
141.7906569999999817
21
-101.4464239999999933
0
LINE
8
BLACK
6
CONTINUOUS
10
141.7906569999999817
20
-101.4464239999999933
11
141.8210049999999853
21
-101.4010049999999978
0
LINE
8
BLACK
6
CONTINUOUS
10
141.8210049999999853
20
-101.4010049999999978
11
141.866423999999995
21
-101.3706569999999942
0
LINE
8
BLACK
6
CONTINUOUS
10
141.866423999999995
20
-101.3706569999999942
11
141.9199999999999875
21
-101.3599999999999994
0
LINE
8
BLACK
6
CONTINUOUS
10
141.9199999999999875
20
-101.3599999999999994
11
142.1999999999999886
21
-101.3599999999999994
0
LINE
8
BLACK
6
CONTINUOUS
10
142.1999999999999886
20
-101.3599999999999994
11
142.2535759999999811
21
-101.3706569999999942
0
LINE
8
BLACK
6
CONTINUOUS
10
143.2135759999999891
20
-101.3706569999999942
11
143.2589949999999988
21
-101.4010049999999978
0
LINE
8
BLACK
6
CONTINUOUS
10
143.2589949999999988
20
-101.4010049999999978
11
143.2893430000000023
21
-101.4464239999999933
0
LINE
8
BLACK
6
CONTINUOUS
10
143.2893430000000023
20
-101.4464239999999933
11
143.2999999999999829
21
-101.5
0
LINE
8
BLACK
6
CONTINUOUS
10
143.2999999999999829
20
-101.5
11
143.2999999999999829
21
-101.8399999999999892
0
LINE
8
BLACK
6
CONTINUOUS
10
143.2999999999999829
20
-101.8399999999999892
11
143.2893430000000023
21
-101.8935759999999959
0
LINE
8
BLACK
6
CONTINUOUS
10
143.2893430000000023
20
-101.8935759999999959
11
143.2589949999999988
21
-101.9389949999999914
0
LINE
8
BLACK
6
CONTINUOUS
10
143.2589949999999988
20
-101.9389949999999914
11
143.2135759999999891
21
-101.969342999999995
0
LINE
8
BLACK
6
CONTINUOUS
10
143.2135759999999891
20
-101.969342999999995
11
143.1599999999999966
21
-101.9799999999999898
0
LINE
8
BLACK
6
CONTINUOUS
10
143.1599999999999966
20
-101.9799999999999898
11
142.8799999999999955
21
-101.9799999999999898
0
LINE
8
BLACK
6
CONTINUOUS
10
142.8799999999999955
20
-101.9799999999999898
11
142.8264240000000029
21
-101.969342999999995
0
LINE
8
BLACK
6
CONTINUOUS
10
142.8264240000000029
20
-101.969342999999995
11
142.7810049999999933
21
-101.9389949999999914
0
LINE
8
BLACK
6
CONTINUOUS
10
142.7810049999999933
20
-101.9389949999999914
11
142.7506569999999897
21
-101.8935759999999959
0
LINE
8
BLACK
6
CONTINUOUS
10
142.7506569999999897
20
-101.8935759999999959
11
142.7399999999999807
21
-101.8399999999999892
0
LINE
8
BLACK
6
CONTINUOUS
10
142.7399999999999807
20
-101.8399999999999892
11
142.7399999999999807
21
-101.5
0
LINE
8
BLACK
6
CONTINUOUS
10
142.7399999999999807
20
-101.5
11
142.7506569999999897
21
-101.4464239999999933
0
LINE
8
BLACK
6
CONTINUOUS
10
142.7506569999999897
20
-101.4464239999999933
11
142.7810049999999933
21
-101.4010049999999978
0
LINE
8
BLACK
6
CONTINUOUS
10
142.7810049999999933
20
-101.4010049999999978
11
142.8264240000000029
21
-101.3706569999999942
0
LINE
8
BLACK
6
CONTINUOUS
10
142.8264240000000029
20
-101.3706569999999942
11
142.8799999999999955
21
-101.3599999999999994
0
LINE
8
BLACK
6
CONTINUOUS
10
142.8799999999999955
20
-101.3599999999999994
11
143.1599999999999966
21
-101.3599999999999994
0
LINE
8
BLACK
6
CONTINUOUS
10
143.1599999999999966
20
-101.3599999999999994
11
143.2135759999999891
21
-101.3706569999999942
0
LINE
8
BLACK
6
CONTINUOUS
10
139.0966999999999985
20
-100.4158339999999896
11
139.1535659999999837
21
-100.4438770000000005
0
LINE
8
BLACK
6
CONTINUOUS
10
139.1535659999999837
20
-100.4438770000000005
11
139.1953709999999944
21
-100.4915469999999971
0
LINE
8
BLACK
6
CONTINUOUS
10
139.1953709999999944
20
-100.4915469999999971
11
139.3578709999999887
21
-100.7730049999999977
0
LINE
8
BLACK
6
CONTINUOUS
10
139.3578709999999887
20
-100.7730049999999977
11
139.3782520000000034
21
-100.8330449999999985
0
LINE
8
BLACK
6
CONTINUOUS
10
139.3782520000000034
20
-100.8330449999999985
11
139.3741049999999859
21
-100.8963129999999921
0
LINE
8
BLACK
6
CONTINUOUS
10
139.3741049999999859
20
-100.8963129999999921
11
139.3460619999999892
21
-100.9531789999999916
0
LINE
8
BLACK
6
CONTINUOUS
10
139.3460619999999892
20
-100.9531789999999916
11
139.2983920000000069
21
-100.9949840000000023
0
LINE
8
BLACK
6
CONTINUOUS
10
139.2983920000000069
20
-100.9949840000000023
11
138.66186399999998
21
-101.3624839999999949
0
LINE
8
BLACK
6
CONTINUOUS
10
138.66186399999998
20
-101.3624839999999949
11
138.6018239999999935
21
-101.3828649999999953
0
LINE
8
BLACK
6
CONTINUOUS
10
138.6018239999999935
20
-101.3828649999999953
11
138.5385559999999998
21
-101.3787179999999921
0
LINE
8
BLACK
6
CONTINUOUS
10
138.5385559999999998
20
-101.3787179999999921
11
138.4816899999999862
21
-101.3506749999999954
0
LINE
8
BLACK
6
CONTINUOUS
10
138.4816899999999862
20
-101.3506749999999954
11
138.4398850000000039
21
-101.3030049999999989
0
LINE
8
BLACK
6
CONTINUOUS
10
138.4398850000000039
20
-101.3030049999999989
11
138.2773849999999811
21
-101.0215469999999982
0
LINE
8
BLACK
6
CONTINUOUS
10
138.2773849999999811
20
-101.0215469999999982
11
138.2570039999999949
21
-100.9615069999999974
0
LINE
8
BLACK
6
CONTINUOUS
10
138.2570039999999949
20
-100.9615069999999974
11
138.2611509999999839
21
-100.8982389999999896
0
LINE
8
BLACK
6
CONTINUOUS
10
138.2611509999999839
20
-100.8982389999999896
11
138.2891939999999806
21
-100.8413729999999902
0
LINE
8
BLACK
6
CONTINUOUS
10
138.2891939999999806
20
-100.8413729999999902
11
138.3368639999999914
21
-100.7995679999999936
0
LINE
8
BLACK
6
CONTINUOUS
10
138.3368639999999914
20
-100.7995679999999936
11
138.9733919999999898
21
-100.432068000000001
0
LINE
8
BLACK
6
CONTINUOUS
10
138.9733919999999898
20
-100.432068000000001
11
139.0334320000000048
21
-100.4116870000000006
0
LINE
8
BLACK
6
CONTINUOUS
10
139.0334320000000048
20
-100.4116870000000006
11
139.0966999999999985
21
-100.4158339999999896
0
LINE
8
BLACK
6
CONTINUOUS
10
136.6769199999999955
20
-100.1111599999999981
11
136.7556569999999851
21
-100.1499889999999908
0
LINE
8
BLACK
6
CONTINUOUS
10
136.7556569999999851
20
-100.1499889999999908
11
136.8135409999999865
21
-100.2159939999999949
0
LINE
8
BLACK
6
CONTINUOUS
10
136.8135409999999865
20
-100.2159939999999949
11
137.0635409999999865
21
-100.649006
0
LINE
8
BLACK
6
CONTINUOUS
10
137.0635409999999865
20
-100.649006
11
137.0917609999999911
21
-100.732137999999992
0
LINE
8
BLACK
6
CONTINUOUS
10
137.0917609999999911
20
-100.732137999999992
11
137.0860189999999932
21
-100.8197409999999934
0
LINE
8
BLACK
6
CONTINUOUS
10
137.0860189999999932
20
-100.8197409999999934
11
137.0471900000000005
21
-100.8984779999999972
0
LINE
8
BLACK
6
CONTINUOUS
10
137.0471900000000005
20
-100.8984779999999972
11
136.9811859999999797
21
-100.9563619999999986
0
LINE
8
BLACK
6
CONTINUOUS
10
136.9811859999999797
20
-100.9563619999999986
11
136.5914740000000052
21
-101.1813619999999929
0
LINE
8
BLACK
6
CONTINUOUS
10
136.5914740000000052
20
-101.1813619999999929
11
136.5083429999999964
21
-101.2095819999999975
0
LINE
8
BLACK
6
CONTINUOUS
10
136.5083429999999964
20
-101.2095819999999975
11
136.420739999999995
21
-101.2038399999999996
0
LINE
8
BLACK
6
CONTINUOUS
10
136.420739999999995
20
-101.2038399999999996
11
136.3420030000000054
21
-101.1650109999999927
0
LINE
8
BLACK
6
CONTINUOUS
10
136.3420030000000054
20
-101.1650109999999927
11
136.284119000000004
21
-101.0990059999999886
0
LINE
8
BLACK
6
CONTINUOUS
10
136.284119000000004
20
-101.0990059999999886
11
136.034119000000004
21
-100.6659939999999978
0
LINE
8
BLACK
6
CONTINUOUS
10
136.034119000000004
20
-100.6659939999999978
11
136.0058989999999994
21
-100.5828619999999916
0
LINE
8
BLACK
6
CONTINUOUS
10
136.0058989999999994
20
-100.5828619999999916
11
136.0116409999999973
21
-100.4952589999999901
0
LINE
8
BLACK
6
CONTINUOUS
10
136.0116409999999973
20
-100.4952589999999901
11
136.05046999999999
21
-100.4165220000000005
0
LINE
8
BLACK
6
CONTINUOUS
10
136.05046999999999
20
-100.4165220000000005
11
136.1164739999999824
21
-100.3586379999999991
0
LINE
8
BLACK
6
CONTINUOUS
10
136.1164739999999824
20
-100.3586379999999991
11
136.5061859999999854
21
-100.1336379999999906
0
LINE
8
BLACK
6
CONTINUOUS
10
136.5061859999999854
20
-100.1336379999999906
11
136.5893169999999941
21
-100.1054180000000002
0
LINE
8
BLACK
6
CONTINUOUS
10
136.5893169999999941
20
-100.1054180000000002
11
136.6769199999999955
21
-100.1111599999999981
0
LINE
8
BLACK
6
CONTINUOUS
10
141.8166619999999796
20
-100.5502759999999967
11
141.8604589999999916
21
-100.5795409999999919
0
LINE
8
BLACK
6
CONTINUOUS
10
141.8604589999999916
20
-100.5795409999999919
11
141.8897240000000011
21
-100.6233379999999897
0
LINE
8
BLACK
6
CONTINUOUS
10
141.8897240000000011
20
-100.6233379999999897
11
141.9000000000000057
21
-100.6749999999999972
0
LINE
8
BLACK
6
CONTINUOUS
10
141.9000000000000057
20
-100.6749999999999972
11
141.9000000000000057
21
-101.0450000000000017
0
LINE
8
BLACK
6
CONTINUOUS
10
141.9000000000000057
20
-101.0450000000000017
11
141.8897240000000011
21
-101.0966619999999949
0
LINE
8
BLACK
6
CONTINUOUS
10
141.8897240000000011
20
-101.0966619999999949
11
141.8604589999999916
21
-101.1404589999999928
0
LINE
8
BLACK
6
CONTINUOUS
10
141.8604589999999916
20
-101.1404589999999928
11
141.8166619999999796
21
-101.1697240000000022
0
LINE
8
BLACK
6
CONTINUOUS
10
141.8166619999999796
20
-101.1697240000000022
11
141.7649999999999864
21
-101.1799999999999926
0
LINE
8
BLACK
6
CONTINUOUS
10
141.7649999999999864
20
-101.1799999999999926
11
141.4950000000000045
21
-101.1799999999999926
0
LINE
8
BLACK
6
CONTINUOUS
10
141.4950000000000045
20
-101.1799999999999926
11
141.4433379999999829
21
-101.1697240000000022
0
LINE
8
BLACK
6
CONTINUOUS
10
141.4433379999999829
20
-101.1697240000000022
11
141.3995409999999993
21
-101.1404589999999928
0
LINE
8
BLACK
6
CONTINUOUS
10
141.3995409999999993
20
-101.1404589999999928
11
141.3702759999999898
21
-101.0966619999999949
0
LINE
8
BLACK
6
CONTINUOUS
10
141.3702759999999898
20
-101.0966619999999949
11
141.3599999999999852
21
-101.0450000000000017
0
LINE
8
BLACK
6
CONTINUOUS
10
141.3599999999999852
20
-101.0450000000000017
11
141.3599999999999852
21
-100.6749999999999972
0
LINE
8
BLACK
6
CONTINUOUS
10
141.3599999999999852
20
-100.6749999999999972
11
141.3702759999999898
21
-100.6233379999999897
0
LINE
8
BLACK
6
CONTINUOUS
10
141.3702759999999898
20
-100.6233379999999897
11
141.3995409999999993
21
-100.5795409999999919
0
LINE
8
BLACK
6
CONTINUOUS
10
141.3995409999999993
20
-100.5795409999999919
11
141.4433379999999829
21
-100.5502759999999967
0
LINE
8
BLACK
6
CONTINUOUS
10
141.4433379999999829
20
-100.5502759999999967
11
141.4950000000000045
21
-100.539999999999992
0
LINE
8
BLACK
6
CONTINUOUS
10
141.4950000000000045
20
-100.539999999999992
11
141.7649999999999864
21
-100.539999999999992
0
LINE
8
BLACK
6
CONTINUOUS
10
141.7649999999999864
20
-100.539999999999992
11
141.8166619999999796
21
-100.5502759999999967
0
LINE
8
BLACK
6
CONTINUOUS
10
142.8366619999999898
20
-100.5502759999999967
11
142.8804590000000019
21
-100.5795409999999919
0
LINE
8
BLACK
6
CONTINUOUS
10
142.8804590000000019
20
-100.5795409999999919
11
142.9097239999999829
21
-100.6233379999999897
0
LINE
8
BLACK
6
CONTINUOUS
10
142.9097239999999829
20
-100.6233379999999897
11
142.9199999999999875
21
-100.6749999999999972
0
LINE
8
BLACK
6
CONTINUOUS
10
142.9199999999999875
20
-100.6749999999999972
11
142.9199999999999875
21
-101.0450000000000017
0
LINE
8
BLACK
6
CONTINUOUS
10
142.9199999999999875
20
-101.0450000000000017
11
142.9097239999999829
21
-101.0966619999999949
0
LINE
8
BLACK
6
CONTINUOUS
10
142.9097239999999829
20
-101.0966619999999949
11
142.8804590000000019
21
-101.1404589999999928
0
LINE
8
BLACK
6
CONTINUOUS
10
142.8804590000000019
20
-101.1404589999999928
11
142.8366619999999898
21
-101.1697240000000022
0
LINE
8
BLACK
6
CONTINUOUS
10
142.8366619999999898
20
-101.1697240000000022
11
142.7849999999999966
21
-101.1799999999999926
0
LINE
8
BLACK
6
CONTINUOUS
10
142.7849999999999966
20
-101.1799999999999926
11
142.5149999999999864
21
-101.1799999999999926
0
LINE
8
BLACK
6
CONTINUOUS
10
142.5149999999999864
20
-101.1799999999999926
11
142.4633379999999931
21
-101.1697240000000022
0
LINE
8
BLACK
6
CONTINUOUS
10
142.4633379999999931
20
-101.1697240000000022
11
142.4195409999999811
21
-101.1404589999999928
0
LINE
8
BLACK
6
CONTINUOUS
10
142.4195409999999811
20
-101.1404589999999928
11
142.3902760000000001
21
-101.0966619999999949
0
LINE
8
BLACK
6
CONTINUOUS
10
142.3902760000000001
20
-101.0966619999999949
11
142.3799999999999955
21
-101.0450000000000017
0
LINE
8
BLACK
6
CONTINUOUS
10
142.3799999999999955
20
-101.0450000000000017
11
142.3799999999999955
21
-100.6749999999999972
0
LINE
8
BLACK
6
CONTINUOUS
10
142.3799999999999955
20
-100.6749999999999972
11
142.3902760000000001
21
-100.6233379999999897
0
LINE
8
BLACK
6
CONTINUOUS
10
142.3902760000000001
20
-100.6233379999999897
11
142.4195409999999811
21
-100.5795409999999919
0
LINE
8
BLACK
6
CONTINUOUS
10
142.4195409999999811
20
-100.5795409999999919
11
142.4633379999999931
21
-100.5502759999999967
0
LINE
8
BLACK
6
CONTINUOUS
10
142.4633379999999931
20
-100.5502759999999967
11
142.5149999999999864
21
-100.539999999999992
0
LINE
8
BLACK
6
CONTINUOUS
10
142.5149999999999864
20
-100.539999999999992
11
142.7849999999999966
21
-100.539999999999992
0
LINE
8
BLACK
6
CONTINUOUS
10
142.7849999999999966
20
-100.539999999999992
11
142.8366619999999898
21
-100.5502759999999967
0
LINE
8
BLACK
6
CONTINUOUS
10
141.3875569999999868
20
-99.5804309999999901
11
141.4400479999999902
21
-99.60631699999999
0
LINE
8
BLACK
6
CONTINUOUS
10
141.4400479999999902
20
-99.60631699999999
11
141.4786379999999895
21
-99.6503199999999936
0
LINE
8
BLACK
6
CONTINUOUS
10
141.4786379999999895
20
-99.6503199999999936
11
141.6286379999999951
21
-99.9101280000000003
0
LINE
8
BLACK
6
CONTINUOUS
10
141.6286379999999951
20
-99.9101280000000003
11
141.6474509999999896
21
-99.9655489999999958
0
LINE
8
BLACK
6
CONTINUOUS
10
141.6474509999999896
20
-99.9655489999999958
11
141.643622999999991
21
-100.0239509999999967
0
LINE
8
BLACK
6
CONTINUOUS
10
141.643622999999991
20
-100.0239509999999967
11
141.6177370000000053
21
-100.0764420000000001
0
LINE
8
BLACK
6
CONTINUOUS
10
141.6177370000000053
20
-100.0764420000000001
11
141.5737340000000017
21
-100.1150319999999994
0
LINE
8
BLACK
6
CONTINUOUS
10
141.5737340000000017
20
-100.1150319999999994
11
140.6860580000000027
21
-100.6275320000000022
0
LINE
8
BLACK
6
CONTINUOUS
10
140.6860580000000027
20
-100.6275320000000022
11
140.6306370000000072
21
-100.6463449999999966
0
LINE
8
BLACK
6
CONTINUOUS
10
140.6306370000000072
20
-100.6463449999999966
11
140.5722350000000063
21
-100.642516999999998
0
LINE
8
BLACK
6
CONTINUOUS
10
140.5722350000000063
20
-100.642516999999998
11
140.5197440000000029
21
-100.6166309999999982
0
LINE
8
BLACK
6
CONTINUOUS
10
140.5197440000000029
20
-100.6166309999999982
11
140.4811540000000036
21
-100.5726279999999946
0
LINE
8
BLACK
6
CONTINUOUS
10
140.4811540000000036
20
-100.5726279999999946
11
140.3311539999999979
21
-100.3128200000000021
0
LINE
8
BLACK
6
CONTINUOUS
10
140.3311539999999979
20
-100.3128200000000021
11
140.3123410000000035
21
-100.2573989999999924
0
LINE
8
BLACK
6
CONTINUOUS
10
140.3123410000000035
20
-100.2573989999999924
11
140.3161690000000021
21
-100.1989969999999914
0
LINE
8
BLACK
6
CONTINUOUS
10
140.3161690000000021
20
-100.1989969999999914
11
140.3420549999999878
21
-100.1465060000000022
0
LINE
8
BLACK
6
CONTINUOUS
10
140.3420549999999878
20
-100.1465060000000022
11
140.3860579999999914
21
-100.1079159999999888
0
LINE
8
BLACK
6
CONTINUOUS
10
140.3860579999999914
20
-100.1079159999999888
11
141.2737339999999904
21
-99.5954160000000002
0
LINE
8
BLACK
6
CONTINUOUS
10
141.2737339999999904
20
-99.5954160000000002
11
141.3291549999999859
21
-99.5766029999999915
0
LINE
8
BLACK
6
CONTINUOUS
10
141.3291549999999859
20
-99.5766029999999915
11
141.3875569999999868
21
-99.5804309999999901
0
LINE
8
BLACK
6
CONTINUOUS
10
138.0192600000000027
20
-99.3361599999999925
11
138.0979969999999923
21
-99.3749889999999994
0
LINE
8
BLACK
6
CONTINUOUS
10
138.0979969999999923
20
-99.3749889999999994
11
138.1558809999999937
21
-99.4409939999999892
0
LINE
8
BLACK
6
CONTINUOUS
10
138.1558809999999937
20
-99.4409939999999892
11
138.4058809999999937
21
-99.8740059999999943
0
LINE
8
BLACK
6
CONTINUOUS
10
138.4058809999999937
20
-99.8740059999999943
11
138.4341009999999983
21
-99.9571380000000005
0
LINE
8
BLACK
6
CONTINUOUS
10
138.4341009999999983
20
-99.9571380000000005
11
138.4283590000000004
21
-100.0447410000000019
0
LINE
8
BLACK
6
CONTINUOUS
10
138.4283590000000004
20
-100.0447410000000019
11
138.3895300000000077
21
-100.1234779999999915
0
LINE
8
BLACK
6
CONTINUOUS
10
138.3895300000000077
20
-100.1234779999999915
11
138.3235259999999869
21
-100.1813619999999929
0
LINE
8
BLACK
6
CONTINUOUS
10
138.3235259999999869
20
-100.1813619999999929
11
137.9338139999999839
21
-100.4063620000000014
0
LINE
8
BLACK
6
CONTINUOUS
10
137.9338139999999839
20
-100.4063620000000014
11
137.8506830000000036
21
-100.4345819999999918
0
LINE
8
BLACK
6
CONTINUOUS
10
137.8506830000000036
20
-100.4345819999999918
11
137.7630800000000022
21
-100.4288399999999939
0
LINE
8
BLACK
6
CONTINUOUS
10
137.7630800000000022
20
-100.4288399999999939
11
137.6843429999999842
21
-100.3900110000000012
0
LINE
8
BLACK
6
CONTINUOUS
10
137.6843429999999842
20
-100.3900110000000012
11
137.6264589999999828
21
-100.3240059999999971
0
LINE
8
BLACK
6
CONTINUOUS
10
137.6264589999999828
20
-100.3240059999999971
11
137.3764589999999828
21
-99.8909939999999921
0
LINE
8
BLACK
6
CONTINUOUS
10
137.3764589999999828
20
-99.8909939999999921
11
137.3482390000000066
21
-99.8078620000000001
0
LINE
8
BLACK
6
CONTINUOUS
10
137.3482390000000066
20
-99.8078620000000001
11
137.3539810000000045
21
-99.7202589999999987
0
LINE
8
BLACK
6
CONTINUOUS
10
137.3539810000000045
20
-99.7202589999999987
11
137.3928099999999972
21
-99.6415219999999948
0
LINE
8
BLACK
6
CONTINUOUS
10
137.3928099999999972
20
-99.6415219999999948
11
137.4588139999999896
21
-99.5836379999999934
0
LINE
8
BLACK
6
CONTINUOUS
10
137.4588139999999896
20
-99.5836379999999934
11
137.8485259999999926
21
-99.3586379999999991
0
LINE
8
BLACK
6
CONTINUOUS
10
137.8485259999999926
20
-99.3586379999999991
11
137.9316570000000013
21
-99.3304179999999945
0
LINE
8
BLACK
6
CONTINUOUS
10
137.9316570000000013
20
-99.3304179999999945
11
138.0192600000000027
21
-99.3361599999999925
0
LINE
8
BLACK
6
CONTINUOUS
10
136.0976809999999944
20
-99.416885999999991
11
136.1449240000000032
21
-99.4401829999999904
0
LINE
8
BLACK
6
CONTINUOUS
10
136.1449240000000032
20
-99.4401829999999904
11
136.1796539999999993
21
-99.4797849999999926
0
LINE
8
BLACK
6
CONTINUOUS
10
136.1796539999999993
20
-99.4797849999999926
11
136.3646540000000016
21
-99.8002149999999943
0
LINE
8
BLACK
6
CONTINUOUS
10
136.3646540000000016
20
-99.8002149999999943
11
136.3815859999999986
21
-99.8500930000000011
0
LINE
8
BLACK
6
CONTINUOUS
10
136.3815859999999986
20
-99.8500930000000011
11
136.3781400000000019
21
-99.9026549999999958
0
LINE
8
BLACK
6
CONTINUOUS
10
136.3781400000000019
20
-99.9026549999999958
11
136.3548429999999883
21
-99.9498979999999904
0
LINE
8
BLACK
6
CONTINUOUS
10
136.3548429999999883
20
-99.9498979999999904
11
136.3152399999999886
21
-99.9846280000000007
0
LINE
8
BLACK
6
CONTINUOUS
10
136.3152399999999886
20
-99.9846280000000007
11
136.0814139999999952
21
-100.1196279999999916
0
LINE
8
BLACK
6
CONTINUOUS
10
136.0814139999999952
20
-100.1196279999999916
11
136.031534999999991
21
-100.1365599999999887
0
LINE
8
BLACK
6
CONTINUOUS
10
136.031534999999991
20
-100.1365599999999887
11
135.9789729999999963
21
-100.133113999999992
0
LINE
8
BLACK
6
CONTINUOUS
10
135.9789729999999963
20
-100.133113999999992
11
135.9317299999999875
21
-100.1098169999999925
0
LINE
8
BLACK
6
CONTINUOUS
10
135.9317299999999875
20
-100.1098169999999925
11
135.8969999999999914
21
-100.0702149999999904
0
LINE
8
BLACK
6
CONTINUOUS
10
135.8969999999999914
20
-100.0702149999999904
11
135.7119999999999891
21
-99.7497849999999886
0
LINE
8
BLACK
6
CONTINUOUS
10
135.7119999999999891
20
-99.7497849999999886
11
135.695067999999992
21
-99.6999069999999961
0
LINE
8
BLACK
6
CONTINUOUS
10
135.695067999999992
20
-99.6999069999999961
11
135.6985139999999888
21
-99.6473450000000014
0
LINE
8
BLACK
6
CONTINUOUS
10
135.6985139999999888
20
-99.6473450000000014
11
135.7218110000000024
21
-99.6001019999999926
0
LINE
8
BLACK
6
CONTINUOUS
10
135.7218110000000024
20
-99.6001019999999926
11
135.761414000000002
21
-99.5653719999999964
0
LINE
8
BLACK
6
CONTINUOUS
10
135.761414000000002
20
-99.5653719999999964
11
135.9952399999999955
21
-99.4303719999999913
0
LINE
8
BLACK
6
CONTINUOUS
10
135.9952399999999955
20
-99.4303719999999913
11
136.0451189999999997
21
-99.4134399999999943
0
LINE
8
BLACK
6
CONTINUOUS
10
136.0451189999999997
20
-99.4134399999999943
11
136.0976809999999944
21
-99.416885999999991
0
LINE
8
BLACK
6
CONTINUOUS
10
136.9810269999999832
20
-98.9068860000000001
11
137.028269999999992
21
-98.9301829999999995
0
LINE
8
BLACK
6
CONTINUOUS
10
137.028269999999992
20
-98.9301829999999995
11
137.0629999999999882
21
-98.9697850000000017
0
LINE
8
BLACK
6
CONTINUOUS
10
137.0629999999999882
20
-98.9697850000000017
11
137.2479999999999905
21
-99.2902149999999892
0
LINE
8
BLACK
6
CONTINUOUS
10
137.2479999999999905
20
-99.2902149999999892
11
137.2649319999999875
21
-99.340092999999996
0
LINE
8
BLACK
6
CONTINUOUS
10
137.2649319999999875
20
-99.340092999999996
11
137.2614859999999908
21
-99.3926549999999907
0
LINE
8
BLACK
6
CONTINUOUS
10
137.2614859999999908
20
-99.3926549999999907
11
137.2381890000000055
21
-99.4398979999999995
0
LINE
8
BLACK
6
CONTINUOUS
10
137.2381890000000055
20
-99.4398979999999995
11
137.1985860000000059
21
-99.4746279999999956
0
LINE
8
BLACK
6
CONTINUOUS
10
137.1985860000000059
20
-99.4746279999999956
11
136.9647599999999841
21
-99.6096280000000007
0
LINE
8
BLACK
6
CONTINUOUS
10
136.9647599999999841
20
-99.6096280000000007
11
136.9148809999999798
21
-99.6265599999999978
0
LINE
8
BLACK
6
CONTINUOUS
10
136.9148809999999798
20
-99.6265599999999978
11
136.8623189999999852
21
-99.6231140000000011
0
LINE
8
BLACK
6
CONTINUOUS
10
136.8623189999999852
20
-99.6231140000000011
11
136.8150760000000048
21
-99.5998170000000016
0
LINE
8
BLACK
6
CONTINUOUS
10
136.8150760000000048
20
-99.5998170000000016
11
136.7803459999999802
21
-99.5602149999999995
0
LINE
8
BLACK
6
CONTINUOUS
10
136.7803459999999802
20
-99.5602149999999995
11
136.5953460000000064
21
-99.2397849999999977
0
LINE
8
BLACK
6
CONTINUOUS
10
136.5953460000000064
20
-99.2397849999999977
11
136.5784139999999809
21
-99.1899069999999909
0
LINE
8
BLACK
6
CONTINUOUS
10
136.5784139999999809
20
-99.1899069999999909
11
136.581860000000006
21
-99.1373449999999963
0
LINE
8
BLACK
6
CONTINUOUS
10
136.581860000000006
20
-99.1373449999999963
11
136.6051569999999913
21
-99.0901020000000017
0
LINE
8
BLACK
6
CONTINUOUS
10
136.6051569999999913
20
-99.0901020000000017
11
136.6447599999999909
21
-99.0553719999999913
0
LINE
8
BLACK
6
CONTINUOUS
10
136.6447599999999909
20
-99.0553719999999913
11
136.8785859999999843
21
-98.9203720000000004
0
LINE
8
BLACK
6
CONTINUOUS
10
136.8785859999999843
20
-98.9203720000000004
11
136.9284649999999885
21
-98.9034399999999891
0
LINE
8
BLACK
6
CONTINUOUS
10
136.9284649999999885
20
-98.9034399999999891
11
136.9810269999999832
21
-98.9068860000000001
0
LINE
8
BLACK
6
CONTINUOUS
10
143.3577650000000006
20
-98.4429310000000015
11
143.410256000000004
21
-98.4688170000000014
0
LINE
8
BLACK
6
CONTINUOUS
10
143.410256000000004
20
-98.4688170000000014
11
143.4488460000000032
21
-98.5128199999999907
0
LINE
8
BLACK
6
CONTINUOUS
10
143.4488460000000032
20
-98.5128199999999907
11
143.5988459999999804
21
-98.7726279999999974
0
LINE
8
BLACK
6
CONTINUOUS
10
143.5988459999999804
20
-98.7726279999999974
11
143.6176590000000033
21
-98.8280489999999929
0
LINE
8
BLACK
6
CONTINUOUS
10
143.6176590000000033
20
-98.8280489999999929
11
143.6138310000000047
21
-98.8864509999999939
0
LINE
8
BLACK
6
CONTINUOUS
10
143.6138310000000047
20
-98.8864509999999939
11
143.5879449999999906
21
-98.9389419999999973
0
LINE
8
BLACK
6
CONTINUOUS
10
143.5879449999999906
20
-98.9389419999999973
11
143.543941999999987
21
-98.9775319999999965
0
LINE
8
BLACK
6
CONTINUOUS
10
143.543941999999987
20
-98.9775319999999965
11
142.656265999999988
21
-99.4900319999999994
0
LINE
8
BLACK
6
CONTINUOUS
10
142.656265999999988
20
-99.4900319999999994
11
142.6008449999999925
21
-99.5088449999999938
0
LINE
8
BLACK
6
CONTINUOUS
10
142.6008449999999925
20
-99.5088449999999938
11
142.5424429999999916
21
-99.5050169999999952
0
LINE
8
BLACK
6
CONTINUOUS
10
142.5424429999999916
20
-99.5050169999999952
11
142.4899519999999882
21
-99.4791309999999953
0
LINE
8
BLACK
6
CONTINUOUS
10
142.4899519999999882
20
-99.4791309999999953
11
142.4513619999999889
21
-99.4351279999999917
0
LINE
8
BLACK
6
CONTINUOUS
10
142.4513619999999889
20
-99.4351279999999917
11
142.3013619999999833
21
-99.1753199999999993
0
LINE
8
BLACK
6
CONTINUOUS
10
142.3013619999999833
20
-99.1753199999999993
11
142.2825489999999888
21
-99.1198989999999895
0
LINE
8
BLACK
6
CONTINUOUS
10
142.2825489999999888
20
-99.1198989999999895
11
142.2863769999999874
21
-99.0614969999999886
0
LINE
8
BLACK
6
CONTINUOUS
10
142.2863769999999874
20
-99.0614969999999886
11
142.3122630000000015
21
-99.0090059999999994
0
LINE
8
BLACK
6
CONTINUOUS
10
142.3122630000000015
20
-99.0090059999999994
11
142.3562660000000051
21
-98.9704160000000002
0
LINE
8
BLACK
6
CONTINUOUS
10
142.3562660000000051
20
-98.9704160000000002
11
143.2439420000000041
21
-98.4579159999999973
0
LINE
8
BLACK
6
CONTINUOUS
10
143.2439420000000041
20
-98.4579159999999973
11
143.2993629999999996
21
-98.4391029999999887
0
LINE
8
BLACK
6
CONTINUOUS
10
143.2993629999999996
20
-98.4391029999999887
11
143.3577650000000006
21
-98.4429310000000015
0
LINE
8
BLACK
6
CONTINUOUS
10
140.4375569999999982
20
-97.9349830000000026
11
140.4900480000000016
21
-97.9608690000000024
0
LINE
8
BLACK
6
CONTINUOUS
10
140.4900480000000016
20
-97.9608690000000024
11
140.5286380000000008
21
-98.0048719999999918
0
LINE
8
BLACK
6
CONTINUOUS
10
140.5286380000000008
20
-98.0048719999999918
11
140.6786380000000065
21
-98.2646799999999985
0
LINE
8
BLACK
6
CONTINUOUS
10
140.6786380000000065
20
-98.2646799999999985
11
140.6974510000000009
21
-98.320100999999994
0
LINE
8
BLACK
6
CONTINUOUS
10
140.6974510000000009
20
-98.320100999999994
11
140.6936230000000023
21
-98.3785029999999949
0
LINE
8
BLACK
6
CONTINUOUS
10
140.6936230000000023
20
-98.3785029999999949
11
140.6677369999999883
21
-98.4309939999999983
0
LINE
8
BLACK
6
CONTINUOUS
10
140.6677369999999883
20
-98.4309939999999983
11
140.6237339999999847
21
-98.4695839999999976
0
LINE
8
BLACK
6
CONTINUOUS
10
140.6237339999999847
20
-98.4695839999999976
11
139.7360579999999857
21
-98.9820840000000004
0
LINE
8
BLACK
6
CONTINUOUS
10
139.7360579999999857
20
-98.9820840000000004
11
139.6806369999999902
21
-99.0008969999999948
0
LINE
8
BLACK
6
CONTINUOUS
10
139.6806369999999902
20
-99.0008969999999948
11
139.6222349999999892
21
-98.9970689999999962
0
LINE
8
BLACK
6
CONTINUOUS
10
139.6222349999999892
20
-98.9970689999999962
11
139.5697439999999858
21
-98.9711829999999964
0
LINE
8
BLACK
6
CONTINUOUS
10
139.5697439999999858
20
-98.9711829999999964
11
139.5311539999999866
21
-98.9271799999999928
0
LINE
8
BLACK
6
CONTINUOUS
10
139.5311539999999866
20
-98.9271799999999928
11
139.3811539999999809
21
-98.6673720000000003
0
LINE
8
BLACK
6
CONTINUOUS
10
139.3811539999999809
20
-98.6673720000000003
11
139.3623409999999865
21
-98.6119509999999906
0
LINE
8
BLACK
6
CONTINUOUS
10
139.3623409999999865
20
-98.6119509999999906
11
139.3661689999999851
21
-98.5535489999999896
0
LINE
8
BLACK
6
CONTINUOUS
10
139.3661689999999851
20
-98.5535489999999896
11
139.3920549999999992
21
-98.5010580000000004
0
LINE
8
BLACK
6
CONTINUOUS
10
139.3920549999999992
20
-98.5010580000000004
11
139.4360580000000027
21
-98.4624680000000012
0
LINE
8
BLACK
6
CONTINUOUS
10
139.4360580000000027
20
-98.4624680000000012
11
140.3237340000000017
21
-97.9499679999999984
0
LINE
8
BLACK
6
CONTINUOUS
10
140.3237340000000017
20
-97.9499679999999984
11
140.3791549999999972
21
-97.9311549999999897
0
LINE
8
BLACK
6
CONTINUOUS
10
140.3791549999999972
20
-97.9311549999999897
11
140.4375569999999982
21
-97.9349830000000026
0
LINE
8
BLACK
6
CONTINUOUS
10
142.8827650000000062
20
-97.6202069999999935
11
142.9352559999999812
21
-97.6460929999999934
0
LINE
8
BLACK
6
CONTINUOUS
10
142.9352559999999812
20
-97.6460929999999934
11
142.9738459999999804
21
-97.6900959999999969
0
LINE
8
BLACK
6
CONTINUOUS
10
142.9738459999999804
20
-97.6900959999999969
11
143.1238459999999861
21
-97.9499039999999894
0
LINE
8
BLACK
6
CONTINUOUS
10
143.1238459999999861
20
-97.9499039999999894
11
143.1426589999999806
21
-98.0053249999999991
0
LINE
8
BLACK
6
CONTINUOUS
10
143.1426589999999806
20
-98.0053249999999991
11
143.1388309999999819
21
-98.0637270000000001
0
LINE
8
BLACK
6
CONTINUOUS
10
143.1388309999999819
20
-98.0637270000000001
11
143.1129449999999963
21
-98.1162179999999893
0
LINE
8
BLACK
6
CONTINUOUS
10
143.1129449999999963
20
-98.1162179999999893
11
143.0689419999999927
21
-98.1548079999999885
0
LINE
8
BLACK
6
CONTINUOUS
10
143.0689419999999927
20
-98.1548079999999885
11
142.1812659999999937
21
-98.6673079999999914
0
LINE
8
BLACK
6
CONTINUOUS
10
142.1812659999999937
20
-98.6673079999999914
11
142.1258449999999982
21
-98.686121
0
LINE
8
BLACK
6
CONTINUOUS
10
142.1258449999999982
20
-98.686121
11
142.0674429999999973
21
-98.6822930000000014
0
LINE
8
BLACK
6
CONTINUOUS
10
142.0674429999999973
20
-98.6822930000000014
11
142.0149519999999939
21
-98.6564070000000015
0
LINE
8
BLACK
6
CONTINUOUS
10
142.0149519999999939
20
-98.6564070000000015
11
141.9763619999999946
21
-98.6124039999999979
0
LINE
8
BLACK
6
CONTINUOUS
10
141.9763619999999946
20
-98.6124039999999979
11
141.8263619999999889
21
-98.3525959999999912
0
LINE
8
BLACK
6
CONTINUOUS
10
141.8263619999999889
20
-98.3525959999999912
11
141.8075489999999945
21
-98.2971749999999957
0
LINE
8
BLACK
6
CONTINUOUS
10
141.8075489999999945
20
-98.2971749999999957
11
141.8113769999999931
21
-98.2387729999999948
0
LINE
8
BLACK
6
CONTINUOUS
10
141.8113769999999931
20
-98.2387729999999948
11
141.8372630000000072
21
-98.1862819999999914
0
LINE
8
BLACK
6
CONTINUOUS
10
141.8372630000000072
20
-98.1862819999999914
11
141.8812659999999823
21
-98.1476919999999922
0
LINE
8
BLACK
6
CONTINUOUS
10
141.8812659999999823
20
-98.1476919999999922
11
142.7689419999999814
21
-97.6351919999999893
0
LINE
8
BLACK
6
CONTINUOUS
10
142.7689419999999814
20
-97.6351919999999893
11
142.8243630000000053
21
-97.6163789999999949
0
LINE
8
BLACK
6
CONTINUOUS
10
142.8243630000000053
20
-97.6163789999999949
11
142.8827650000000062
21
-97.6202069999999935
0
LINE
8
BLACK
6
CONTINUOUS
10
142.4077649999999835
20
-96.7974829999999997
11
142.4602559999999869
21
-96.8233689999999996
0
LINE
8
BLACK
6
CONTINUOUS
10
142.4602559999999869
20
-96.8233689999999996
11
142.4988459999999861
21
-96.8673719999999889
0
LINE
8
BLACK
6
CONTINUOUS
10
142.4988459999999861
20
-96.8673719999999889
11
142.6488459999999918
21
-97.1271799999999956
0
LINE
8
BLACK
6
CONTINUOUS
10
142.6488459999999918
20
-97.1271799999999956
11
142.6676589999999862
21
-97.1826009999999911
0
LINE
8
BLACK
6
CONTINUOUS
10
142.6676589999999862
20
-97.1826009999999911
11
142.6638309999999876
21
-97.2410029999999921
0
LINE
8
BLACK
6
CONTINUOUS
10
142.6638309999999876
20
-97.2410029999999921
11
142.637945000000002
21
-97.2934939999999955
0
LINE
8
BLACK
6
CONTINUOUS
10
142.637945000000002
20
-97.2934939999999955
11
142.5939419999999984
21
-97.3320839999999947
0
LINE
8
BLACK
6
CONTINUOUS
10
142.5939419999999984
20
-97.3320839999999947
11
141.7062659999999994
21
-97.8445839999999976
0
LINE
8
BLACK
6
CONTINUOUS
10
141.7062659999999994
20
-97.8445839999999976
11
141.6508450000000039
21
-97.863396999999992
0
LINE
8
BLACK
6
CONTINUOUS
10
141.6508450000000039
20
-97.863396999999992
11
141.5924430000000029
21
-97.8595689999999934
0
LINE
8
BLACK
6
CONTINUOUS
10
141.5924430000000029
20
-97.8595689999999934
11
141.5399519999999995
21
-97.8336829999999935
0
LINE
8
BLACK
6
CONTINUOUS
10
141.5399519999999995
20
-97.8336829999999935
11
141.5013620000000003
21
-97.7896799999999899
0
LINE
8
BLACK
6
CONTINUOUS
10
141.5013620000000003
20
-97.7896799999999899
11
141.3513619999999946
21
-97.5298719999999975
0
LINE
8
BLACK
6
CONTINUOUS
10
141.3513619999999946
20
-97.5298719999999975
11
141.3325490000000002
21
-97.474451000000002
0
LINE
8
BLACK
6
CONTINUOUS
10
141.3325490000000002
20
-97.474451000000002
11
141.3363769999999988
21
-97.416049000000001
0
LINE
8
BLACK
6
CONTINUOUS
10
141.3363769999999988
20
-97.416049000000001
11
141.3622629999999845
21
-97.3635579999999976
0
LINE
8
BLACK
6
CONTINUOUS
10
141.3622629999999845
20
-97.3635579999999976
11
141.406265999999988
21
-97.3249679999999984
0
LINE
8
BLACK
6
CONTINUOUS
10
141.406265999999988
20
-97.3249679999999984
11
142.293941999999987
21
-96.8124679999999955
0
LINE
8
BLACK
6
CONTINUOUS
10
142.293941999999987
20
-96.8124679999999955
11
142.3493629999999825
21
-96.7936550000000011
0
LINE
8
BLACK
6
CONTINUOUS
10
142.3493629999999825
20
-96.7936550000000011
11
142.4077649999999835
21
-96.7974829999999997
0
LINE
8
BLACK
6
CONTINUOUS
10
143.8049619999999891
20
-95.1316509999999909
11
143.8759299999999826
21
-95.1790699999999958
0
LINE
8
BLACK
6
CONTINUOUS
10
143.8759299999999826
20
-95.1790699999999958
11
143.9233490000000018
21
-95.2500379999999893
0
LINE
8
BLACK
6
CONTINUOUS
10
143.9233490000000018
20
-95.2500379999999893
11
143.9399999999999977
21
-95.3337499999999949
0
LINE
8
BLACK
6
CONTINUOUS
10
143.9399999999999977
20
-95.3337499999999949
11
143.9399999999999977
21
-95.7712499999999949
0
LINE
8
BLACK
6
CONTINUOUS
10
143.9399999999999977
20
-95.7712499999999949
11
143.9233490000000018
21
-95.8549620000000004
0
LINE
8
BLACK
6
CONTINUOUS
10
143.9233490000000018
20
-95.8549620000000004
11
143.8759299999999826
21
-95.9259299999999939
0
LINE
8
BLACK
6
CONTINUOUS
10
143.8759299999999826
20
-95.9259299999999939
11
143.8049619999999891
21
-95.9733489999999989
0
LINE
8
BLACK
6
CONTINUOUS
10
143.8049619999999891
20
-95.9733489999999989
11
143.7212499999999977
21
-95.9899999999999949
0
LINE
8
BLACK
6
CONTINUOUS
10
143.7212499999999977
20
-95.9899999999999949
11
142.9587499999999807
21
-95.9899999999999949
0
LINE
8
BLACK
6
CONTINUOUS
10
142.9587499999999807
20
-95.9899999999999949
11
142.8750379999999893
21
-95.9733489999999989
0
LINE
8
BLACK
6
CONTINUOUS
10
142.8750379999999893
20
-95.9733489999999989
11
142.8040699999999958
21
-95.9259299999999939
0
LINE
8
BLACK
6
CONTINUOUS
10
142.8040699999999958
20
-95.9259299999999939
11
142.7566510000000051
21
-95.8549620000000004
0
LINE
8
BLACK
6
CONTINUOUS
10
142.7566510000000051
20
-95.8549620000000004
11
142.7399999999999807
21
-95.7712499999999949
0
LINE
8
BLACK
6
CONTINUOUS
10
142.7399999999999807
20
-95.7712499999999949
11
142.7399999999999807
21
-95.3337499999999949
0
LINE
8
BLACK
6
CONTINUOUS
10
142.7399999999999807
20
-95.3337499999999949
11
142.7566510000000051
21
-95.2500379999999893
0
LINE
8
BLACK
6
CONTINUOUS
10
142.7566510000000051
20
-95.2500379999999893
11
142.8040699999999958
21
-95.1790699999999958
0
LINE
8
BLACK
6
CONTINUOUS
10
142.8040699999999958
20
-95.1790699999999958
11
142.8750379999999893
21
-95.1316509999999909
0
LINE
8
BLACK
6
CONTINUOUS
10
142.8750379999999893
20
-95.1316509999999909
11
142.9587499999999807
21
-95.1149999999999949
0
LINE
8
BLACK
6
CONTINUOUS
10
142.9587499999999807
20
-95.1149999999999949
11
143.7212499999999977
21
-95.1149999999999949
0
LINE
8
BLACK
6
CONTINUOUS
10
143.7212499999999977
20
-95.1149999999999949
11
143.8049619999999891
21
-95.1316509999999909
0
LINE
8
BLACK
6
CONTINUOUS
10
144.7589459999999804
20
-95.3312279999999959
11
144.8067979999999864
21
-95.3632020000000011
0
LINE
8
BLACK
6
CONTINUOUS
10
144.8067979999999864
20
-95.3632020000000011
11
144.8387720000000058
21
-95.4110539999999929
0
LINE
8
BLACK
6
CONTINUOUS
10
144.8387720000000058
20
-95.4110539999999929
11
144.8499999999999943
21
-95.4675000000000011
0
LINE
8
BLACK
6
CONTINUOUS
10
144.8499999999999943
20
-95.4675000000000011
11
144.8499999999999943
21
-95.7624999999999886
0
LINE
8
BLACK
6
CONTINUOUS
10
144.8499999999999943
20
-95.7624999999999886
11
144.8387720000000058
21
-95.8189459999999968
0
LINE
8
BLACK
6
CONTINUOUS
10
144.8387720000000058
20
-95.8189459999999968
11
144.8067979999999864
21
-95.8667979999999886
0
LINE
8
BLACK
6
CONTINUOUS
10
144.8067979999999864
20
-95.8667979999999886
11
144.7589459999999804
21
-95.8987719999999939
0
LINE
8
BLACK
6
CONTINUOUS
10
144.7589459999999804
20
-95.8987719999999939
11
144.7024999999999864
21
-95.9099999999999966
0
LINE
8
BLACK
6
CONTINUOUS
10
144.7024999999999864
20
-95.9099999999999966
11
144.3574999999999875
21
-95.9099999999999966
0
LINE
8
BLACK
6
CONTINUOUS
10
144.3574999999999875
20
-95.9099999999999966
11
144.3010539999999935
21
-95.8987719999999939
0
LINE
8
BLACK
6
CONTINUOUS
10
144.3010539999999935
20
-95.8987719999999939
11
144.2532019999999875
21
-95.8667979999999886
0
LINE
8
BLACK
6
CONTINUOUS
10
144.2532019999999875
20
-95.8667979999999886
11
144.2212279999999964
21
-95.8189459999999968
0
LINE
8
BLACK
6
CONTINUOUS
10
144.2212279999999964
20
-95.8189459999999968
11
144.2099999999999795
21
-95.7624999999999886
0
LINE
8
BLACK
6
CONTINUOUS
10
144.2099999999999795
20
-95.7624999999999886
11
144.2099999999999795
21
-95.4675000000000011
0
LINE
8
BLACK
6
CONTINUOUS
10
144.2099999999999795
20
-95.4675000000000011
11
144.2212279999999964
21
-95.4110539999999929
0
LINE
8
BLACK
6
CONTINUOUS
10
144.2212279999999964
20
-95.4110539999999929
11
144.2532019999999875
21
-95.3632020000000011
0
LINE
8
BLACK
6
CONTINUOUS
10
144.2532019999999875
20
-95.3632020000000011
11
144.3010539999999935
21
-95.3312279999999959
0
LINE
8
BLACK
6
CONTINUOUS
10
144.3010539999999935
20
-95.3312279999999959
11
144.3574999999999875
21
-95.3199999999999932
0
LINE
8
BLACK
6
CONTINUOUS
10
144.3574999999999875
20
-95.3199999999999932
11
144.7024999999999864
21
-95.3199999999999932
0
LINE
8
BLACK
6
CONTINUOUS
10
144.7024999999999864
20
-95.3199999999999932
11
144.7589459999999804
21
-95.3312279999999959
0
LINE
8
BLACK
6
CONTINUOUS
10
145.5435760000000016
20
-94.9306569999999965
11
145.5889949999999828
21
-94.9610050000000001
0
LINE
8
BLACK
6
CONTINUOUS
10
145.5889949999999828
20
-94.9610050000000001
11
145.6193429999999864
21
-95.0064239999999955
0
LINE
8
BLACK
6
CONTINUOUS
10
145.6193429999999864
20
-95.0064239999999955
11
145.6299999999999955
21
-95.0600000000000023
0
LINE
8
BLACK
6
CONTINUOUS
10
145.6299999999999955
20
-95.0600000000000023
11
145.6299999999999955
21
-95.3399999999999892
0
LINE
8
BLACK
6
CONTINUOUS
10
145.6299999999999955
20
-95.3399999999999892
11
145.6193429999999864
21
-95.3935759999999959
0
LINE
8
BLACK
6
CONTINUOUS
10
145.6193429999999864
20
-95.3935759999999959
11
145.5889949999999828
21
-95.4389949999999914
0
LINE
8
BLACK
6
CONTINUOUS
10
145.5889949999999828
20
-95.4389949999999914
11
145.5435760000000016
21
-95.469342999999995
0
LINE
8
BLACK
6
CONTINUOUS
10
145.5435760000000016
20
-95.469342999999995
11
145.4899999999999807
21
-95.4799999999999898
0
LINE
8
BLACK
6
CONTINUOUS
10
145.4899999999999807
20
-95.4799999999999898
11
145.1500000000000057
21
-95.4799999999999898
0
LINE
8
BLACK
6
CONTINUOUS
10
145.1500000000000057
20
-95.4799999999999898
11
145.0964239999999847
21
-95.469342999999995
0
LINE
8
BLACK
6
CONTINUOUS
10
145.0964239999999847
20
-95.469342999999995
11
145.0510050000000035
21
-95.4389949999999914
0
LINE
8
BLACK
6
CONTINUOUS
10
145.0510050000000035
20
-95.4389949999999914
11
145.0206569999999999
21
-95.3935759999999959
0
LINE
8
BLACK
6
CONTINUOUS
10
145.0206569999999999
20
-95.3935759999999959
11
145.0099999999999909
21
-95.3399999999999892
0
LINE
8
BLACK
6
CONTINUOUS
10
145.0099999999999909
20
-95.3399999999999892
11
145.0099999999999909
21
-95.0600000000000023
0
LINE
8
BLACK
6
CONTINUOUS
10
145.0099999999999909
20
-95.0600000000000023
11
145.0206569999999999
21
-95.0064239999999955
0
LINE
8
BLACK
6
CONTINUOUS
10
145.0206569999999999
20
-95.0064239999999955
11
145.0510050000000035
21
-94.9610050000000001
0
LINE
8
BLACK
6
CONTINUOUS
10
145.0510050000000035
20
-94.9610050000000001
11
145.0964239999999847
21
-94.9306569999999965
0
LINE
8
BLACK
6
CONTINUOUS
10
145.0964239999999847
20
-94.9306569999999965
11
145.1500000000000057
21
-94.9200000000000017
0
LINE
8
BLACK
6
CONTINUOUS
10
145.1500000000000057
20
-94.9200000000000017
11
145.4899999999999807
21
-94.9200000000000017
0
LINE
8
BLACK
6
CONTINUOUS
10
145.4899999999999807
20
-94.9200000000000017
11
145.5435760000000016
21
-94.9306569999999965
0
LINE
8
BLACK
6
CONTINUOUS
10
139.5266619999999875
20
-94.7602759999999904
11
139.5704589999999996
21
-94.7895409999999998
0
LINE
8
BLACK
6
CONTINUOUS
10
139.5704589999999996
20
-94.7895409999999998
11
139.5997239999999806
21
-94.8333379999999977
0
LINE
8
BLACK
6
CONTINUOUS
10
139.5997239999999806
20
-94.8333379999999977
11
139.6099999999999852
21
-94.8849999999999909
0
LINE
8
BLACK
6
CONTINUOUS
10
139.6099999999999852
20
-94.8849999999999909
11
139.6099999999999852
21
-95.2549999999999955
0
LINE
8
BLACK
6
CONTINUOUS
10
139.6099999999999852
20
-95.2549999999999955
11
139.5997239999999806
21
-95.3066619999999887
0
LINE
8
BLACK
6
CONTINUOUS
10
139.5997239999999806
20
-95.3066619999999887
11
139.5704589999999996
21
-95.3504590000000007
0
LINE
8
BLACK
6
CONTINUOUS
10
139.5704589999999996
20
-95.3504590000000007
11
139.5266619999999875
21
-95.379723999999996
0
LINE
8
BLACK
6
CONTINUOUS
10
139.5266619999999875
20
-95.379723999999996
11
139.4749999999999943
21
-95.3900000000000006
0
LINE
8
BLACK
6
CONTINUOUS
10
139.4749999999999943
20
-95.3900000000000006
11
139.2049999999999841
21
-95.3900000000000006
0
LINE
8
BLACK
6
CONTINUOUS
10
139.2049999999999841
20
-95.3900000000000006
11
139.1533379999999909
21
-95.379723999999996
0
LINE
8
BLACK
6
CONTINUOUS
10
139.1533379999999909
20
-95.379723999999996
11
139.1095410000000072
21
-95.3504590000000007
0
LINE
8
BLACK
6
CONTINUOUS
10
139.1095410000000072
20
-95.3504590000000007
11
139.0802759999999978
21
-95.3066619999999887
0
LINE
8
BLACK
6
CONTINUOUS
10
139.0802759999999978
20
-95.3066619999999887
11
139.0699999999999932
21
-95.2549999999999955
0
LINE
8
BLACK
6
CONTINUOUS
10
139.0699999999999932
20
-95.2549999999999955
11
139.0699999999999932
21
-94.8849999999999909
0
LINE
8
BLACK
6
CONTINUOUS
10
139.0699999999999932
20
-94.8849999999999909
11
139.0802759999999978
21
-94.8333379999999977
0
LINE
8
BLACK
6
CONTINUOUS
10
139.0802759999999978
20
-94.8333379999999977
11
139.1095410000000072
21
-94.7895409999999998
0
LINE
8
BLACK
6
CONTINUOUS
10
139.1095410000000072
20
-94.7895409999999998
11
139.1533379999999909
21
-94.7602759999999904
0
LINE
8
BLACK
6
CONTINUOUS
10
139.1533379999999909
20
-94.7602759999999904
11
139.2049999999999841
21
-94.75
0
LINE
8
BLACK
6
CONTINUOUS
10
139.2049999999999841
20
-94.75
11
139.4749999999999943
21
-94.75
0
LINE
8
BLACK
6
CONTINUOUS
10
139.4749999999999943
20
-94.75
11
139.5266619999999875
21
-94.7602759999999904
0
LINE
8
BLACK
6
CONTINUOUS
10
140.5466619999999978
20
-94.7602759999999904
11
140.5904589999999814
21
-94.7895409999999998
0
LINE
8
BLACK
6
CONTINUOUS
10
140.5904589999999814
20
-94.7895409999999998
11
140.6197239999999908
21
-94.8333379999999977
0
LINE
8
BLACK
6
CONTINUOUS
10
140.6197239999999908
20
-94.8333379999999977
11
140.6299999999999955
21
-94.8849999999999909
0
LINE
8
BLACK
6
CONTINUOUS
10
140.6299999999999955
20
-94.8849999999999909
11
140.6299999999999955
21
-95.2549999999999955
0
LINE
8
BLACK
6
CONTINUOUS
10
140.6299999999999955
20
-95.2549999999999955
11
140.6197239999999908
21
-95.3066619999999887
0
LINE
8
BLACK
6
CONTINUOUS
10
140.6197239999999908
20
-95.3066619999999887
11
140.5904589999999814
21
-95.3504590000000007
0
LINE
8
BLACK
6
CONTINUOUS
10
140.5904589999999814
20
-95.3504590000000007
11
140.5466619999999978
21
-95.379723999999996
0
LINE
8
BLACK
6
CONTINUOUS
10
140.5466619999999978
20
-95.379723999999996
11
140.4950000000000045
21
-95.3900000000000006
0
LINE
8
BLACK
6
CONTINUOUS
10
140.4950000000000045
20
-95.3900000000000006
11
140.2249999999999943
21
-95.3900000000000006
0
LINE
8
BLACK
6
CONTINUOUS
10
140.2249999999999943
20
-95.3900000000000006
11
140.1733380000000011
21
-95.379723999999996
0
LINE
8
BLACK
6
CONTINUOUS
10
140.1733380000000011
20
-95.379723999999996
11
140.129540999999989
21
-95.3504590000000007
0
LINE
8
BLACK
6
CONTINUOUS
10
140.129540999999989
20
-95.3504590000000007
11
140.1002759999999796
21
-95.3066619999999887
0
LINE
8
BLACK
6
CONTINUOUS
10
140.1002759999999796
20
-95.3066619999999887
11
140.0900000000000034
21
-95.2549999999999955
0
LINE
8
BLACK
6
CONTINUOUS
10
140.0900000000000034
20
-95.2549999999999955
11
140.0900000000000034
21
-94.8849999999999909
0
LINE
8
BLACK
6
CONTINUOUS
10
140.0900000000000034
20
-94.8849999999999909
11
140.1002759999999796
21
-94.8333379999999977
0
LINE
8
BLACK
6
CONTINUOUS
10
140.1002759999999796
20
-94.8333379999999977
11
140.129540999999989
21
-94.7895409999999998
0
LINE
8
BLACK
6
CONTINUOUS
10
140.129540999999989
20
-94.7895409999999998
11
140.1733380000000011
21
-94.7602759999999904
0
LINE
8
BLACK
6
CONTINUOUS
10
140.1733380000000011
20
-94.7602759999999904
11
140.2249999999999943
21
-94.75
0
LINE
8
BLACK
6
CONTINUOUS
10
140.2249999999999943
20
-94.75
11
140.4950000000000045
21
-94.75
0
LINE
8
BLACK
6
CONTINUOUS
10
140.4950000000000045
20
-94.75
11
140.5466619999999978
21
-94.7602759999999904
0
LINE
8
BLACK
6
CONTINUOUS
10
141.2866620000000069
20
-94.5602760000000018
11
141.3304589999999905
21
-94.589540999999997
0
LINE
8
BLACK
6
CONTINUOUS
10
141.3304589999999905
20
-94.589540999999997
11
141.3597239999999999
21
-94.6333379999999948
0
LINE
8
BLACK
6
CONTINUOUS
10
141.3597239999999999
20
-94.6333379999999948
11
141.3700000000000045
21
-94.6850000000000023
0
LINE
8
BLACK
6
CONTINUOUS
10
141.3700000000000045
20
-94.6850000000000023
11
141.3700000000000045
21
-95.0549999999999926
0
LINE
8
BLACK
6
CONTINUOUS
10
141.3700000000000045
20
-95.0549999999999926
11
141.3597239999999999
21
-95.106662
0
LINE
8
BLACK
6
CONTINUOUS
10
141.3597239999999999
20
-95.106662
11
141.3304589999999905
21
-95.1504589999999979
0
LINE
8
BLACK
6
CONTINUOUS
10
141.3304589999999905
20
-95.1504589999999979
11
141.2866620000000069
21
-95.1797239999999931
0
LINE
8
BLACK
6
CONTINUOUS
10
141.2866620000000069
20
-95.1797239999999931
11
141.2349999999999852
21
-95.1899999999999977
0
LINE
8
BLACK
6
CONTINUOUS
10
141.2349999999999852
20
-95.1899999999999977
11
140.9650000000000034
21
-95.1899999999999977
0
LINE
8
BLACK
6
CONTINUOUS
10
140.9650000000000034
20
-95.1899999999999977
11
140.9133379999999818
21
-95.1797239999999931
0
LINE
8
BLACK
6
CONTINUOUS
10
140.9133379999999818
20
-95.1797239999999931
11
140.8695409999999981
21
-95.1504589999999979
0
LINE
8
BLACK
6
CONTINUOUS
10
140.8695409999999981
20
-95.1504589999999979
11
140.8402759999999887
21
-95.106662
0
LINE
8
BLACK
6
CONTINUOUS
10
140.8402759999999887
20
-95.106662
11
140.8299999999999841
21
-95.0549999999999926
0
LINE
8
BLACK
6
CONTINUOUS
10
140.8299999999999841
20
-95.0549999999999926
11
140.8299999999999841
21
-94.6850000000000023
0
LINE
8
BLACK
6
CONTINUOUS
10
140.8299999999999841
20
-94.6850000000000023
11
140.8402759999999887
21
-94.6333379999999948
0
LINE
8
BLACK
6
CONTINUOUS
10
140.8402759999999887
20
-94.6333379999999948
11
140.8695409999999981
21
-94.589540999999997
0
LINE
8
BLACK
6
CONTINUOUS
10
140.8695409999999981
20
-94.589540999999997
11
140.9133379999999818
21
-94.5602760000000018
0
LINE
8
BLACK
6
CONTINUOUS
10
140.9133379999999818
20
-94.5602760000000018
11
140.9650000000000034
21
-94.5499999999999972
0
LINE
8
BLACK
6
CONTINUOUS
10
140.9650000000000034
20
-94.5499999999999972
11
141.2349999999999852
21
-94.5499999999999972
0
LINE
8
BLACK
6
CONTINUOUS
10
141.2349999999999852
20
-94.5499999999999972
11
141.2866620000000069
21
-94.5602760000000018
0
LINE
8
BLACK
6
CONTINUOUS
10
142.3066619999999887
20
-94.5602760000000018
11
142.3504590000000007
21
-94.589540999999997
0
LINE
8
BLACK
6
CONTINUOUS
10
142.3504590000000007
20
-94.589540999999997
11
142.3797239999999817
21
-94.6333379999999948
0
LINE
8
BLACK
6
CONTINUOUS
10
142.3797239999999817
20
-94.6333379999999948
11
142.3899999999999864
21
-94.6850000000000023
0
LINE
8
BLACK
6
CONTINUOUS
10
142.3899999999999864
20
-94.6850000000000023
11
142.3899999999999864
21
-95.0549999999999926
0
LINE
8
BLACK
6
CONTINUOUS
10
142.3899999999999864
20
-95.0549999999999926
11
142.3797239999999817
21
-95.106662
0
LINE
8
BLACK
6
CONTINUOUS
10
142.3797239999999817
20
-95.106662
11
142.3504590000000007
21
-95.1504589999999979
0
LINE
8
BLACK
6
CONTINUOUS
10
142.3504590000000007
20
-95.1504589999999979
11
142.3066619999999887
21
-95.1797239999999931
0
LINE
8
BLACK
6
CONTINUOUS
10
142.3066619999999887
20
-95.1797239999999931
11
142.2549999999999955
21
-95.1899999999999977
0
LINE
8
BLACK
6
CONTINUOUS
10
142.2549999999999955
20
-95.1899999999999977
11
141.9849999999999852
21
-95.1899999999999977
0
LINE
8
BLACK
6
CONTINUOUS
10
141.9849999999999852
20
-95.1899999999999977
11
141.933337999999992
21
-95.1797239999999931
0
LINE
8
BLACK
6
CONTINUOUS
10
141.933337999999992
20
-95.1797239999999931
11
141.8895409999999799
21
-95.1504589999999979
0
LINE
8
BLACK
6
CONTINUOUS
10
141.8895409999999799
20
-95.1504589999999979
11
141.8602759999999989
21
-95.106662
0
LINE
8
BLACK
6
CONTINUOUS
10
141.8602759999999989
20
-95.106662
11
141.8499999999999943
21
-95.0549999999999926
0
LINE
8
BLACK
6
CONTINUOUS
10
141.8499999999999943
20
-95.0549999999999926
11
141.8499999999999943
21
-94.6850000000000023
0
LINE
8
BLACK
6
CONTINUOUS
10
141.8499999999999943
20
-94.6850000000000023
11
141.8602759999999989
21
-94.6333379999999948
0
LINE
8
BLACK
6
CONTINUOUS
10
141.8602759999999989
20
-94.6333379999999948
11
141.8895409999999799
21
-94.589540999999997
0
LINE
8
BLACK
6
CONTINUOUS
10
141.8895409999999799
20
-94.589540999999997
11
141.933337999999992
21
-94.5602760000000018
0
LINE
8
BLACK
6
CONTINUOUS
10
141.933337999999992
20
-94.5602760000000018
11
141.9849999999999852
21
-94.5499999999999972
0
LINE
8
BLACK
6
CONTINUOUS
10
141.9849999999999852
20
-94.5499999999999972
11
142.2549999999999955
21
-94.5499999999999972
0
LINE
8
BLACK
6
CONTINUOUS
10
142.2549999999999955
20
-94.5499999999999972
11
142.3066619999999887
21
-94.5602760000000018
0
LINE
8
BLACK
6
CONTINUOUS
10
165.2891819999999825
20
-94.6972119999999933
11
165.0891819999999939
21
-95.0436219999999992
0
LINE
8
BLACK
6
CONTINUOUS
10
165.0891819999999939
20
-95.0436219999999992
11
164.5262659999999926
21
-94.7186219999999963
0
LINE
8
BLACK
6
CONTINUOUS
10
164.5262659999999926
20
-94.7186219999999963
11
164.7262659999999812
21
-94.3722119999999904
0
LINE
8
BLACK
6
CONTINUOUS
10
164.7262659999999812
20
-94.3722119999999904
11
165.2891819999999825
21
-94.6972119999999933
0
LINE
8
BLACK
6
CONTINUOUS
10
144.7589459999999804
20
-94.361227999999997
11
144.8067979999999864
21
-94.3932020000000023
0
LINE
8
BLACK
6
CONTINUOUS
10
144.8067979999999864
20
-94.3932020000000023
11
144.8387720000000058
21
-94.4410539999999941
0
LINE
8
BLACK
6
CONTINUOUS
10
144.8387720000000058
20
-94.4410539999999941
11
144.8499999999999943
21
-94.4975000000000023
0
LINE
8
BLACK
6
CONTINUOUS
10
144.8499999999999943
20
-94.4975000000000023
11
144.8499999999999943
21
-94.7924999999999898
0
LINE
8
BLACK
6
CONTINUOUS
10
144.8499999999999943
20
-94.7924999999999898
11
144.8387720000000058
21
-94.848945999999998
0
LINE
8
BLACK
6
CONTINUOUS
10
144.8387720000000058
20
-94.848945999999998
11
144.8067979999999864
21
-94.8967979999999898
0
LINE
8
BLACK
6
CONTINUOUS
10
144.8067979999999864
20
-94.8967979999999898
11
144.7589459999999804
21
-94.928771999999995
0
LINE
8
BLACK
6
CONTINUOUS
10
144.7589459999999804
20
-94.928771999999995
11
144.7024999999999864
21
-94.9399999999999977
0
LINE
8
BLACK
6
CONTINUOUS
10
144.7024999999999864
20
-94.9399999999999977
11
144.3574999999999875
21
-94.9399999999999977
0
LINE
8
BLACK
6
CONTINUOUS
10
144.3574999999999875
20
-94.9399999999999977
11
144.3010539999999935
21
-94.928771999999995
0
LINE
8
BLACK
6
CONTINUOUS
10
144.3010539999999935
20
-94.928771999999995
11
144.2532019999999875
21
-94.8967979999999898
0
LINE
8
BLACK
6
CONTINUOUS
10
144.2532019999999875
20
-94.8967979999999898
11
144.2212279999999964
21
-94.848945999999998
0
LINE
8
BLACK
6
CONTINUOUS
10
144.2212279999999964
20
-94.848945999999998
11
144.2099999999999795
21
-94.7924999999999898
0
LINE
8
BLACK
6
CONTINUOUS
10
144.2099999999999795
20
-94.7924999999999898
11
144.2099999999999795
21
-94.4975000000000023
0
LINE
8
BLACK
6
CONTINUOUS
10
144.2099999999999795
20
-94.4975000000000023
11
144.2212279999999964
21
-94.4410539999999941
0
LINE
8
BLACK
6
CONTINUOUS
10
144.2212279999999964
20
-94.4410539999999941
11
144.2532019999999875
21
-94.3932020000000023
0
LINE
8
BLACK
6
CONTINUOUS
10
144.2532019999999875
20
-94.3932020000000023
11
144.3010539999999935
21
-94.361227999999997
0
LINE
8
BLACK
6
CONTINUOUS
10
144.3010539999999935
20
-94.361227999999997
11
144.3574999999999875
21
-94.3499999999999943
0
LINE
8
BLACK
6
CONTINUOUS
10
144.3574999999999875
20
-94.3499999999999943
11
144.7024999999999864
21
-94.3499999999999943
0
LINE
8
BLACK
6
CONTINUOUS
10
144.7024999999999864
20
-94.3499999999999943
11
144.7589459999999804
21
-94.361227999999997
0
LINE
8
BLACK
6
CONTINUOUS
10
145.5435760000000016
20
-93.9706570000000028
11
145.5889949999999828
21
-94.0010049999999922
0
LINE
8
BLACK
6
CONTINUOUS
10
145.5889949999999828
20
-94.0010049999999922
11
145.6193429999999864
21
-94.0464240000000018
0
LINE
8
BLACK
6
CONTINUOUS
10
145.6193429999999864
20
-94.0464240000000018
11
145.6299999999999955
21
-94.0999999999999943
0
LINE
8
BLACK
6
CONTINUOUS
10
145.6299999999999955
20
-94.0999999999999943
11
145.6299999999999955
21
-94.3799999999999955
0
LINE
8
BLACK
6
CONTINUOUS
10
145.6299999999999955
20
-94.3799999999999955
11
145.6193429999999864
21
-94.4335760000000022
0
LINE
8
BLACK
6
CONTINUOUS
10
145.6193429999999864
20
-94.4335760000000022
11
145.5889949999999828
21
-94.4789949999999976
0
LINE
8
BLACK
6
CONTINUOUS
10
145.5889949999999828
20
-94.4789949999999976
11
145.5435760000000016
21
-94.5093430000000012
0
LINE
8
BLACK
6
CONTINUOUS
10
145.5435760000000016
20
-94.5093430000000012
11
145.4899999999999807
21
-94.519999999999996
0
LINE
8
BLACK
6
CONTINUOUS
10
145.4899999999999807
20
-94.519999999999996
11
145.1500000000000057
21
-94.519999999999996
0
LINE
8
BLACK
6
CONTINUOUS
10
145.1500000000000057
20
-94.519999999999996
11
145.0964239999999847
21
-94.5093430000000012
0
LINE
8
BLACK
6
CONTINUOUS
10
145.0964239999999847
20
-94.5093430000000012
11
145.0510050000000035
21
-94.4789949999999976
0
LINE
8
BLACK
6
CONTINUOUS
10
145.0510050000000035
20
-94.4789949999999976
11
145.0206569999999999
21
-94.4335760000000022
0
LINE
8
BLACK
6
CONTINUOUS
10
145.0206569999999999
20
-94.4335760000000022
11
145.0099999999999909
21
-94.3799999999999955
0
LINE
8
BLACK
6
CONTINUOUS
10
145.0099999999999909
20
-94.3799999999999955
11
145.0099999999999909
21
-94.0999999999999943
0
LINE
8
BLACK
6
CONTINUOUS
10
145.0099999999999909
20
-94.0999999999999943
11
145.0206569999999999
21
-94.0464240000000018
0
LINE
8
BLACK
6
CONTINUOUS
10
145.0206569999999999
20
-94.0464240000000018
11
145.0510050000000035
21
-94.0010049999999922
0
LINE
8
BLACK
6
CONTINUOUS
10
145.0510050000000035
20
-94.0010049999999922
11
145.0964239999999847
21
-93.9706570000000028
0
LINE
8
BLACK
6
CONTINUOUS
10
145.0964239999999847
20
-93.9706570000000028
11
145.1500000000000057
21
-93.9599999999999937
0
LINE
8
BLACK
6
CONTINUOUS
10
145.1500000000000057
20
-93.9599999999999937
11
145.4899999999999807
21
-93.9599999999999937
0
LINE
8
BLACK
6
CONTINUOUS
10
145.4899999999999807
20
-93.9599999999999937
11
145.5435760000000016
21
-93.9706570000000028
0
LINE
8
BLACK
6
CONTINUOUS
10
165.6141819999999996
20
-94.1342949999999945
11
165.4141819999999825
21
-94.4807050000000004
0
LINE
8
BLACK
6
CONTINUOUS
10
165.4141819999999825
20
-94.4807050000000004
11
164.8512659999999812
21
-94.1557049999999975
0
LINE
8
BLACK
6
CONTINUOUS
10
164.8512659999999812
20
-94.1557049999999975
11
165.0512659999999983
21
-93.8092949999999917
0
LINE
8
BLACK
6
CONTINUOUS
10
165.0512659999999983
20
-93.8092949999999917
11
165.6141819999999996
21
-94.1342949999999945
0
LINE
8
BLACK
6
CONTINUOUS
10
141.286660999999981
20
-93.740279000000001
11
141.330457999999993
21
-93.7695439999999962
0
LINE
8
BLACK
6
CONTINUOUS
10
141.330457999999993
20
-93.7695439999999962
11
141.3597230000000025
21
-93.8133409999999941
0
LINE
8
BLACK
6
CONTINUOUS
10
141.3597230000000025
20
-93.8133409999999941
11
141.3699990000000071
21
-93.8650030000000015
0
LINE
8
BLACK
6
CONTINUOUS
10
141.3699990000000071
20
-93.8650030000000015
11
141.3699990000000071
21
-94.2350029999999919
0
LINE
8
BLACK
6
CONTINUOUS
10
141.3699990000000071
20
-94.2350029999999919
11
141.3597230000000025
21
-94.2866649999999993
0
LINE
8
BLACK
6
CONTINUOUS
10
141.3597230000000025
20
-94.2866649999999993
11
141.330457999999993
21
-94.3304619999999971
0
LINE
8
BLACK
6
CONTINUOUS
10
141.330457999999993
20
-94.3304619999999971
11
141.286660999999981
21
-94.3597269999999924
0
LINE
8
BLACK
6
CONTINUOUS
10
141.286660999999981
20
-94.3597269999999924
11
141.2349989999999877
21
-94.370002999999997
0
LINE
8
BLACK
6
CONTINUOUS
10
141.2349989999999877
20
-94.370002999999997
11
140.9649990000000059
21
-94.370002999999997
0
LINE
8
BLACK
6
CONTINUOUS
10
140.9649990000000059
20
-94.370002999999997
11
140.9133369999999843
21
-94.3597269999999924
0
LINE
8
BLACK
6
CONTINUOUS
10
140.9133369999999843
20
-94.3597269999999924
11
140.8695400000000006
21
-94.3304619999999971
0
LINE
8
BLACK
6
CONTINUOUS
10
140.8695400000000006
20
-94.3304619999999971
11
140.8402749999999912
21
-94.2866649999999993
0
LINE
8
BLACK
6
CONTINUOUS
10
140.8402749999999912
20
-94.2866649999999993
11
140.8299989999999866
21
-94.2350029999999919
0
LINE
8
BLACK
6
CONTINUOUS
10
140.8299989999999866
20
-94.2350029999999919
11
140.8299989999999866
21
-93.8650030000000015
0
LINE
8
BLACK
6
CONTINUOUS
10
140.8299989999999866
20
-93.8650030000000015
11
140.8402749999999912
21
-93.8133409999999941
0
LINE
8
BLACK
6
CONTINUOUS
10
140.8402749999999912
20
-93.8133409999999941
11
140.8695400000000006
21
-93.7695439999999962
0
LINE
8
BLACK
6
CONTINUOUS
10
140.8695400000000006
20
-93.7695439999999962
11
140.9133369999999843
21
-93.740279000000001
0
LINE
8
BLACK
6
CONTINUOUS
10
140.9133369999999843
20
-93.740279000000001
11
140.9649990000000059
21
-93.7300029999999964
0
LINE
8
BLACK
6
CONTINUOUS
10
140.9649990000000059
20
-93.7300029999999964
11
141.2349989999999877
21
-93.7300029999999964
0
LINE
8
BLACK
6
CONTINUOUS
10
141.2349989999999877
20
-93.7300029999999964
11
141.286660999999981
21
-93.740279000000001
0
LINE
8
BLACK
6
CONTINUOUS
10
142.3066609999999912
20
-93.740279000000001
11
142.3504580000000033
21
-93.7695439999999962
0
LINE
8
BLACK
6
CONTINUOUS
10
142.3504580000000033
20
-93.7695439999999962
11
142.3797229999999843
21
-93.8133409999999941
0
LINE
8
BLACK
6
CONTINUOUS
10
142.3797229999999843
20
-93.8133409999999941
11
142.3899989999999889
21
-93.8650030000000015
0
LINE
8
BLACK
6
CONTINUOUS
10
142.3899989999999889
20
-93.8650030000000015
11
142.3899989999999889
21
-94.2350029999999919
0
LINE
8
BLACK
6
CONTINUOUS
10
142.3899989999999889
20
-94.2350029999999919
11
142.3797229999999843
21
-94.2866649999999993
0
LINE
8
BLACK
6
CONTINUOUS
10
142.3797229999999843
20
-94.2866649999999993
11
142.3504580000000033
21
-94.3304619999999971
0
LINE
8
BLACK
6
CONTINUOUS
10
142.3504580000000033
20
-94.3304619999999971
11
142.3066609999999912
21
-94.3597269999999924
0
LINE
8
BLACK
6
CONTINUOUS
10
142.3066609999999912
20
-94.3597269999999924
11
142.254998999999998
21
-94.370002999999997
0
LINE
8
BLACK
6
CONTINUOUS
10
142.254998999999998
20
-94.370002999999997
11
141.9849989999999877
21
-94.370002999999997
0
LINE
8
BLACK
6
CONTINUOUS
10
141.9849989999999877
20
-94.370002999999997
11
141.9333369999999945
21
-94.3597269999999924
0
LINE
8
BLACK
6
CONTINUOUS
10
141.9333369999999945
20
-94.3597269999999924
11
141.8895399999999825
21
-94.3304619999999971
0
LINE
8
BLACK
6
CONTINUOUS
10
141.8895399999999825
20
-94.3304619999999971
11
141.8602750000000015
21
-94.2866649999999993
0
LINE
8
BLACK
6
CONTINUOUS
10
141.8602750000000015
20
-94.2866649999999993
11
141.8499989999999968
21
-94.2350029999999919
0
LINE
8
BLACK
6
CONTINUOUS
10
141.8499989999999968
20
-94.2350029999999919
11
141.8499989999999968
21
-93.8650030000000015
0
LINE
8
BLACK
6
CONTINUOUS
10
141.8499989999999968
20
-93.8650030000000015
11
141.8602750000000015
21
-93.8133409999999941
0
LINE
8
BLACK
6
CONTINUOUS
10
141.8602750000000015
20
-93.8133409999999941
11
141.8895399999999825
21
-93.7695439999999962
0
LINE
8
BLACK
6
CONTINUOUS
10
141.8895399999999825
20
-93.7695439999999962
11
141.9333369999999945
21
-93.740279000000001
0
LINE
8
BLACK
6
CONTINUOUS
10
141.9333369999999945
20
-93.740279000000001
11
141.9849989999999877
21
-93.7300029999999964
0
LINE
8
BLACK
6
CONTINUOUS
10
141.9849989999999877
20
-93.7300029999999964
11
142.254998999999998
21
-93.7300029999999964
0
LINE
8
BLACK
6
CONTINUOUS
10
142.254998999999998
20
-93.7300029999999964
11
142.3066609999999912
21
-93.740279000000001
0
LINE
8
BLACK
6
CONTINUOUS
10
139.5735760000000028
20
-93.7506569999999897
11
139.618994999999984
21
-93.7810049999999933
0
LINE
8
BLACK
6
CONTINUOUS
10
139.618994999999984
20
-93.7810049999999933
11
139.6493429999999876
21
-93.8264239999999887
0
LINE
8
BLACK
6
CONTINUOUS
10
139.6493429999999876
20
-93.8264239999999887
11
139.6599999999999966
21
-93.8799999999999955
0
LINE
8
BLACK
6
CONTINUOUS
10
139.6599999999999966
20
-93.8799999999999955
11
139.6599999999999966
21
-94.2199999999999989
0
LINE
8
BLACK
6
CONTINUOUS
10
139.6599999999999966
20
-94.2199999999999989
11
139.6493429999999876
21
-94.2735759999999914
0
LINE
8
BLACK
6
CONTINUOUS
10
139.6493429999999876
20
-94.2735759999999914
11
139.618994999999984
21
-94.318995000000001
0
LINE
8
BLACK
6
CONTINUOUS
10
139.618994999999984
20
-94.318995000000001
11
139.5735760000000028
21
-94.3493429999999904
0
LINE
8
BLACK
6
CONTINUOUS
10
139.5735760000000028
20
-94.3493429999999904
11
139.5199999999999818
21
-94.3599999999999994
0
LINE
8
BLACK
6
CONTINUOUS
10
139.5199999999999818
20
-94.3599999999999994
11
139.2399999999999807
21
-94.3599999999999994
0
LINE
8
BLACK
6
CONTINUOUS
10
139.2399999999999807
20
-94.3599999999999994
11
139.1864239999999882
21
-94.3493429999999904
0
LINE
8
BLACK
6
CONTINUOUS
10
139.1864239999999882
20
-94.3493429999999904
11
139.1410050000000069
21
-94.318995000000001
0
LINE
8
BLACK
6
CONTINUOUS
10
139.1410050000000069
20
-94.318995000000001
11
139.1106570000000033
21
-94.2735759999999914
0
LINE
8
BLACK
6
CONTINUOUS
10
139.1106570000000033
20
-94.2735759999999914
11
139.0999999999999943
21
-94.2199999999999989
0
LINE
8
BLACK
6
CONTINUOUS
10
139.0999999999999943
20
-94.2199999999999989
11
139.0999999999999943
21
-93.8799999999999955
0
LINE
8
BLACK
6
CONTINUOUS
10
139.0999999999999943
20
-93.8799999999999955
11
139.1106570000000033
21
-93.8264239999999887
0
LINE
8
BLACK
6
CONTINUOUS
10
139.1106570000000033
20
-93.8264239999999887
11
139.1410050000000069
21
-93.7810049999999933
0
LINE
8
BLACK
6
CONTINUOUS
10
139.1410050000000069
20
-93.7810049999999933
11
139.1864239999999882
21
-93.7506569999999897
0
LINE
8
BLACK
6
CONTINUOUS
10
139.1864239999999882
20
-93.7506569999999897
11
139.2399999999999807
21
-93.7399999999999949
0
LINE
8
BLACK
6
CONTINUOUS
10
139.2399999999999807
20
-93.7399999999999949
11
139.5199999999999818
21
-93.7399999999999949
0
LINE
8
BLACK
6
CONTINUOUS
10
139.5199999999999818
20
-93.7399999999999949
11
139.5735760000000028
21
-93.7506569999999897
0
LINE
8
BLACK
6
CONTINUOUS
10
140.5335759999999823
20
-93.7506569999999897
11
140.5789949999999919
21
-93.7810049999999933
0
LINE
8
BLACK
6
CONTINUOUS
10
140.5789949999999919
20
-93.7810049999999933
11
140.6093429999999955
21
-93.8264239999999887
0
LINE
8
BLACK
6
CONTINUOUS
10
140.6093429999999955
20
-93.8264239999999887
11
140.6200000000000045
21
-93.8799999999999955
0
LINE
8
BLACK
6
CONTINUOUS
10
140.6200000000000045
20
-93.8799999999999955
11
140.6200000000000045
21
-94.2199999999999989
0
LINE
8
BLACK
6
CONTINUOUS
10
140.6200000000000045
20
-94.2199999999999989
11
140.6093429999999955
21
-94.2735759999999914
0
LINE
8
BLACK
6
CONTINUOUS
10
140.6093429999999955
20
-94.2735759999999914
11
140.5789949999999919
21
-94.318995000000001
0
LINE
8
BLACK
6
CONTINUOUS
10
140.5789949999999919
20
-94.318995000000001
11
140.5335759999999823
21
-94.3493429999999904
0
LINE
8
BLACK
6
CONTINUOUS
10
140.5335759999999823
20
-94.3493429999999904
11
140.4799999999999898
21
-94.3599999999999994
0
LINE
8
BLACK
6
CONTINUOUS
10
140.4799999999999898
20
-94.3599999999999994
11
140.1999999999999886
21
-94.3599999999999994
0
LINE
8
BLACK
6
CONTINUOUS
10
140.1999999999999886
20
-94.3599999999999994
11
140.1464239999999961
21
-94.3493429999999904
0
LINE
8
BLACK
6
CONTINUOUS
10
140.1464239999999961
20
-94.3493429999999904
11
140.1010049999999865
21
-94.318995000000001
0
LINE
8
BLACK
6
CONTINUOUS
10
140.1010049999999865
20
-94.318995000000001
11
140.0706569999999829
21
-94.2735759999999914
0
LINE
8
BLACK
6
CONTINUOUS
10
140.0706569999999829
20
-94.2735759999999914
11
140.0600000000000023
21
-94.2199999999999989
0
LINE
8
BLACK
6
CONTINUOUS
10
140.0600000000000023
20
-94.2199999999999989
11
140.0600000000000023
21
-93.8799999999999955
0
LINE
8
BLACK
6
CONTINUOUS
10
140.0600000000000023
20
-93.8799999999999955
11
140.0706569999999829
21
-93.8264239999999887
0
LINE
8
BLACK
6
CONTINUOUS
10
140.0706569999999829
20
-93.8264239999999887
11
140.1010049999999865
21
-93.7810049999999933
0
LINE
8
BLACK
6
CONTINUOUS
10
140.1010049999999865
20
-93.7810049999999933
11
140.1464239999999961
21
-93.7506569999999897
0
LINE
8
BLACK
6
CONTINUOUS
10
140.1464239999999961
20
-93.7506569999999897
11
140.1999999999999886
21
-93.7399999999999949
0
LINE
8
BLACK
6
CONTINUOUS
10
140.1999999999999886
20
-93.7399999999999949
11
140.4799999999999898
21
-93.7399999999999949
0
LINE
8
BLACK
6
CONTINUOUS
10
140.4799999999999898
20
-93.7399999999999949
11
140.5335759999999823
21
-93.7506569999999897
0
LINE
8
BLACK
6
CONTINUOUS
10
163.6437339999999949
20
-93.7472119999999904
11
163.4437340000000063
21
-94.0936219999999963
0
LINE
8
BLACK
6
CONTINUOUS
10
163.4437340000000063
20
-94.0936219999999963
11
162.880818000000005
21
-93.7686219999999935
0
LINE
8
BLACK
6
CONTINUOUS
10
162.880818000000005
20
-93.7686219999999935
11
163.0808179999999936
21
-93.4222120000000018
0
LINE
8
BLACK
6
CONTINUOUS
10
163.0808179999999936
20
-93.4222120000000018
11
163.6437339999999949
21
-93.7472119999999904
0
LINE
8
BLACK
6
CONTINUOUS
10
165.9391819999999882
20
-93.5713779999999957
11
165.7391819999999996
21
-93.9177880000000016
0
LINE
8
BLACK
6
CONTINUOUS
10
165.7391819999999996
20
-93.9177880000000016
11
165.1762659999999983
21
-93.5927879999999988
0
LINE
8
BLACK
6
CONTINUOUS
10
165.1762659999999983
20
-93.5927879999999988
11
165.3762659999999869
21
-93.2463779999999929
0
LINE
8
BLACK
6
CONTINUOUS
10
165.3762659999999869
20
-93.2463779999999929
11
165.9391819999999882
21
-93.5713779999999957
0
LINE
8
BLACK
6
CONTINUOUS
10
143.8049619999999891
20
-93.0066509999999909
11
143.8759299999999826
21
-93.0540699999999958
0
LINE
8
BLACK
6
CONTINUOUS
10
143.8759299999999826
20
-93.0540699999999958
11
143.9233490000000018
21
-93.1250379999999893
0
LINE
8
BLACK
6
CONTINUOUS
10
143.9233490000000018
20
-93.1250379999999893
11
143.9399999999999977
21
-93.2087499999999949
0
LINE
8
BLACK
6
CONTINUOUS
10
143.9399999999999977
20
-93.2087499999999949
11
143.9399999999999977
21
-93.6462499999999949
0
LINE
8
BLACK
6
CONTINUOUS
10
143.9399999999999977
20
-93.6462499999999949
11
143.9233490000000018
21
-93.7299620000000004
0
LINE
8
BLACK
6
CONTINUOUS
10
143.9233490000000018
20
-93.7299620000000004
11
143.8759299999999826
21
-93.8009299999999939
0
LINE
8
BLACK
6
CONTINUOUS
10
143.8759299999999826
20
-93.8009299999999939
11
143.8049619999999891
21
-93.8483489999999989
0
LINE
8
BLACK
6
CONTINUOUS
10
143.8049619999999891
20
-93.8483489999999989
11
143.7212499999999977
21
-93.8649999999999949
0
LINE
8
BLACK
6
CONTINUOUS
10
143.7212499999999977
20
-93.8649999999999949
11
142.9587499999999807
21
-93.8649999999999949
0
LINE
8
BLACK
6
CONTINUOUS
10
142.9587499999999807
20
-93.8649999999999949
11
142.8750379999999893
21
-93.8483489999999989
0
LINE
8
BLACK
6
CONTINUOUS
10
142.8750379999999893
20
-93.8483489999999989
11
142.8040699999999958
21
-93.8009299999999939
0
LINE
8
BLACK
6
CONTINUOUS
10
142.8040699999999958
20
-93.8009299999999939
11
142.7566510000000051
21
-93.7299620000000004
0
LINE
8
BLACK
6
CONTINUOUS
10
142.7566510000000051
20
-93.7299620000000004
11
142.7399999999999807
21
-93.6462499999999949
0
LINE
8
BLACK
6
CONTINUOUS
10
142.7399999999999807
20
-93.6462499999999949
11
142.7399999999999807
21
-93.2087499999999949
0
LINE
8
BLACK
6
CONTINUOUS
10
142.7399999999999807
20
-93.2087499999999949
11
142.7566510000000051
21
-93.1250379999999893
0
LINE
8
BLACK
6
CONTINUOUS
10
142.7566510000000051
20
-93.1250379999999893
11
142.8040699999999958
21
-93.0540699999999958
0
LINE
8
BLACK
6
CONTINUOUS
10
142.8040699999999958
20
-93.0540699999999958
11
142.8750379999999893
21
-93.0066509999999909
0
LINE
8
BLACK
6
CONTINUOUS
10
142.8750379999999893
20
-93.0066509999999909
11
142.9587499999999807
21
-92.9899999999999949
0
LINE
8
BLACK
6
CONTINUOUS
10
142.9587499999999807
20
-92.9899999999999949
11
143.7212499999999977
21
-92.9899999999999949
0
LINE
8
BLACK
6
CONTINUOUS
10
143.7212499999999977
20
-92.9899999999999949
11
143.8049619999999891
21
-93.0066509999999909
0
LINE
8
BLACK
6
CONTINUOUS
10
139.5566619999999887
20
-92.9102759999999961
11
139.6004590000000007
21
-92.9395409999999913
0
LINE
8
BLACK
6
CONTINUOUS
10
139.6004590000000007
20
-92.9395409999999913
11
139.6297239999999817
21
-92.9833379999999892
0
LINE
8
BLACK
6
CONTINUOUS
10
139.6297239999999817
20
-92.9833379999999892
11
139.6399999999999864
21
-93.0349999999999966
0
LINE
8
BLACK
6
CONTINUOUS
10
139.6399999999999864
20
-93.0349999999999966
11
139.6399999999999864
21
-93.4050000000000011
0
LINE
8
BLACK
6
CONTINUOUS
10
139.6399999999999864
20
-93.4050000000000011
11
139.6297239999999817
21
-93.4566619999999944
0
LINE
8
BLACK
6
CONTINUOUS
10
139.6297239999999817
20
-93.4566619999999944
11
139.6004590000000007
21
-93.5004589999999922
0
LINE
8
BLACK
6
CONTINUOUS
10
139.6004590000000007
20
-93.5004589999999922
11
139.5566619999999887
21
-93.5297240000000016
0
LINE
8
BLACK
6
CONTINUOUS
10
139.5566619999999887
20
-93.5297240000000016
11
139.5049999999999955
21
-93.539999999999992
0
LINE
8
BLACK
6
CONTINUOUS
10
139.5049999999999955
20
-93.539999999999992
11
139.2349999999999852
21
-93.539999999999992
0
LINE
8
BLACK
6
CONTINUOUS
10
139.2349999999999852
20
-93.539999999999992
11
139.183337999999992
21
-93.5297240000000016
0
LINE
8
BLACK
6
CONTINUOUS
10
139.183337999999992
20
-93.5297240000000016
11
139.1395409999999799
21
-93.5004589999999922
0
LINE
8
BLACK
6
CONTINUOUS
10
139.1395409999999799
20
-93.5004589999999922
11
139.1102759999999989
21
-93.4566619999999944
0
LINE
8
BLACK
6
CONTINUOUS
10
139.1102759999999989
20
-93.4566619999999944
11
139.0999999999999943
21
-93.4050000000000011
0
LINE
8
BLACK
6
CONTINUOUS
10
139.0999999999999943
20
-93.4050000000000011
11
139.0999999999999943
21
-93.0349999999999966
0
LINE
8
BLACK
6
CONTINUOUS
10
139.0999999999999943
20
-93.0349999999999966
11
139.1102759999999989
21
-92.9833379999999892
0
LINE
8
BLACK
6
CONTINUOUS
10
139.1102759999999989
20
-92.9833379999999892
11
139.1395409999999799
21
-92.9395409999999913
0
LINE
8
BLACK
6
CONTINUOUS
10
139.1395409999999799
20
-92.9395409999999913
11
139.183337999999992
21
-92.9102759999999961
0
LINE
8
BLACK
6
CONTINUOUS
10
139.183337999999992
20
-92.9102759999999961
11
139.2349999999999852
21
-92.8999999999999915
0
LINE
8
BLACK
6
CONTINUOUS
10
139.2349999999999852
20
-92.8999999999999915
11
139.5049999999999955
21
-92.8999999999999915
0
LINE
8
BLACK
6
CONTINUOUS
10
139.5049999999999955
20
-92.8999999999999915
11
139.5566619999999887
21
-92.9102759999999961
0
LINE
8
BLACK
6
CONTINUOUS
10
140.5766619999999989
20
-92.9102759999999961
11
140.6204589999999826
21
-92.9395409999999913
0
LINE
8
BLACK
6
CONTINUOUS
10
140.6204589999999826
20
-92.9395409999999913
11
140.649723999999992
21
-92.9833379999999892
0
LINE
8
BLACK
6
CONTINUOUS
10
140.649723999999992
20
-92.9833379999999892
11
140.6599999999999966
21
-93.0349999999999966
0
LINE
8
BLACK
6
CONTINUOUS
10
140.6599999999999966
20
-93.0349999999999966
11
140.6599999999999966
21
-93.4050000000000011
0
LINE
8
BLACK
6
CONTINUOUS
10
140.6599999999999966
20
-93.4050000000000011
11
140.649723999999992
21
-93.4566619999999944
0
LINE
8
BLACK
6
CONTINUOUS
10
140.649723999999992
20
-93.4566619999999944
11
140.6204589999999826
21
-93.5004589999999922
0
LINE
8
BLACK
6
CONTINUOUS
10
140.6204589999999826
20
-93.5004589999999922
11
140.5766619999999989
21
-93.5297240000000016
0
LINE
8
BLACK
6
CONTINUOUS
10
140.5766619999999989
20
-93.5297240000000016
11
140.5250000000000057
21
-93.539999999999992
0
LINE
8
BLACK
6
CONTINUOUS
10
140.5250000000000057
20
-93.539999999999992
11
140.2549999999999955
21
-93.539999999999992
0
LINE
8
BLACK
6
CONTINUOUS
10
140.2549999999999955
20
-93.539999999999992
11
140.2033380000000022
21
-93.5297240000000016
0
LINE
8
BLACK
6
CONTINUOUS
10
140.2033380000000022
20
-93.5297240000000016
11
140.1595409999999902
21
-93.5004589999999922
0
LINE
8
BLACK
6
CONTINUOUS
10
140.1595409999999902
20
-93.5004589999999922
11
140.1302759999999807
21
-93.4566619999999944
0
LINE
8
BLACK
6
CONTINUOUS
10
140.1302759999999807
20
-93.4566619999999944
11
140.1200000000000045
21
-93.4050000000000011
0
LINE
8
BLACK
6
CONTINUOUS
10
140.1200000000000045
20
-93.4050000000000011
11
140.1200000000000045
21
-93.0349999999999966
0
LINE
8
BLACK
6
CONTINUOUS
10
140.1200000000000045
20
-93.0349999999999966
11
140.1302759999999807
21
-92.9833379999999892
0
LINE
8
BLACK
6
CONTINUOUS
10
140.1302759999999807
20
-92.9833379999999892
11
140.1595409999999902
21
-92.9395409999999913
0
LINE
8
BLACK
6
CONTINUOUS
10
140.1595409999999902
20
-92.9395409999999913
11
140.2033380000000022
21
-92.9102759999999961
0
LINE
8
BLACK
6
CONTINUOUS
10
140.2033380000000022
20
-92.9102759999999961
11
140.2549999999999955
21
-92.8999999999999915
0
LINE
8
BLACK
6
CONTINUOUS
10
140.2549999999999955
20
-92.8999999999999915
11
140.5250000000000057
21
-92.8999999999999915
0
LINE
8
BLACK
6
CONTINUOUS
10
140.5250000000000057
20
-92.8999999999999915
11
140.5766619999999989
21
-92.9102759999999961
0
LINE
8
BLACK
6
CONTINUOUS
10
163.9687339999999836
20
-93.1842949999999917
11
163.7687339999999949
21
-93.5307049999999975
0
LINE
8
BLACK
6
CONTINUOUS
10
163.7687339999999949
20
-93.5307049999999975
11
163.2058179999999936
21
-93.2057049999999947
0
LINE
8
BLACK
6
CONTINUOUS
10
163.2058179999999936
20
-93.2057049999999947
11
163.4058179999999822
21
-92.8592949999999888
0
LINE
8
BLACK
6
CONTINUOUS
10
163.4058179999999822
20
-92.8592949999999888
11
163.9687339999999836
21
-93.1842949999999917
0
LINE
8
BLACK
6
CONTINUOUS
10
141.3335759999999937
20
-92.9206569999999914
11
141.3789950000000033
21
-92.951004999999995
0
LINE
8
BLACK
6
CONTINUOUS
10
141.3789950000000033
20
-92.951004999999995
11
141.4093430000000069
21
-92.9964239999999904
0
LINE
8
BLACK
6
CONTINUOUS
10
141.4093430000000069
20
-92.9964239999999904
11
141.4199999999999875
21
-93.0499999999999972
0
LINE
8
BLACK
6
CONTINUOUS
10
141.4199999999999875
20
-93.0499999999999972
11
141.4199999999999875
21
-93.3900000000000006
0
LINE
8
BLACK
6
CONTINUOUS
10
141.4199999999999875
20
-93.3900000000000006
11
141.4093430000000069
21
-93.4435759999999931
0
LINE
8
BLACK
6
CONTINUOUS
10
141.4093430000000069
20
-93.4435759999999931
11
141.3789950000000033
21
-93.4889950000000027
0
LINE
8
BLACK
6
CONTINUOUS
10
141.3789950000000033
20
-93.4889950000000027
11
141.3335759999999937
21
-93.5193429999999921
0
LINE
8
BLACK
6
CONTINUOUS
10
141.3335759999999937
20
-93.5193429999999921
11
141.2800000000000011
21
-93.5300000000000011
0
LINE
8
BLACK
6
CONTINUOUS
10
141.2800000000000011
20
-93.5300000000000011
11
141.
21
-93.5300000000000011
0
LINE
8
BLACK
6
CONTINUOUS
10
141.
20
-93.5300000000000011
11
140.9464240000000075
21
-93.5193429999999921
0
LINE
8
BLACK
6
CONTINUOUS
10
140.9464240000000075
20
-93.5193429999999921
11
140.9010049999999978
21
-93.4889950000000027
0
LINE
8
BLACK
6
CONTINUOUS
10
140.9010049999999978
20
-93.4889950000000027
11
140.8706569999999942
21
-93.4435759999999931
0
LINE
8
BLACK
6
CONTINUOUS
10
140.8706569999999942
20
-93.4435759999999931
11
140.8599999999999852
21
-93.3900000000000006
0
LINE
8
BLACK
6
CONTINUOUS
10
140.8599999999999852
20
-93.3900000000000006
11
140.8599999999999852
21
-93.0499999999999972
0
LINE
8
BLACK
6
CONTINUOUS
10
140.8599999999999852
20
-93.0499999999999972
11
140.8706569999999942
21
-92.9964239999999904
0
LINE
8
BLACK
6
CONTINUOUS
10
140.8706569999999942
20
-92.9964239999999904
11
140.9010049999999978
21
-92.951004999999995
0
LINE
8
BLACK
6
CONTINUOUS
10
140.9010049999999978
20
-92.951004999999995
11
140.9464240000000075
21
-92.9206569999999914
0
LINE
8
BLACK
6
CONTINUOUS
10
140.9464240000000075
20
-92.9206569999999914
11
141.
21
-92.9099999999999966
0
LINE
8
BLACK
6
CONTINUOUS
10
141.
20
-92.9099999999999966
11
141.2800000000000011
21
-92.9099999999999966
0
LINE
8
BLACK
6
CONTINUOUS
10
141.2800000000000011
20
-92.9099999999999966
11
141.3335759999999937
21
-92.9206569999999914
0
LINE
8
BLACK
6
CONTINUOUS
10
142.2935760000000016
20
-92.9206569999999914
11
142.3389949999999828
21
-92.951004999999995
0
LINE
8
BLACK
6
CONTINUOUS
10
142.3389949999999828
20
-92.951004999999995
11
142.3693429999999864
21
-92.9964239999999904
0
LINE
8
BLACK
6
CONTINUOUS
10
142.3693429999999864
20
-92.9964239999999904
11
142.3799999999999955
21
-93.0499999999999972
0
LINE
8
BLACK
6
CONTINUOUS
10
142.3799999999999955
20
-93.0499999999999972
11
142.3799999999999955
21
-93.3900000000000006
0
LINE
8
BLACK
6
CONTINUOUS
10
142.3799999999999955
20
-93.3900000000000006
11
142.3693429999999864
21
-93.4435759999999931
0
LINE
8
BLACK
6
CONTINUOUS
10
142.3693429999999864
20
-93.4435759999999931
11
142.3389949999999828
21
-93.4889950000000027
0
LINE
8
BLACK
6
CONTINUOUS
10
142.3389949999999828
20
-93.4889950000000027
11
142.2935760000000016
21
-93.5193429999999921
0
LINE
8
BLACK
6
CONTINUOUS
10
142.2935760000000016
20
-93.5193429999999921
11
142.2399999999999807
21
-93.5300000000000011
0
LINE
8
BLACK
6
CONTINUOUS
10
142.2399999999999807
20
-93.5300000000000011
11
141.9599999999999795
21
-93.5300000000000011
0
LINE
8
BLACK
6
CONTINUOUS
10
141.9599999999999795
20
-93.5300000000000011
11
141.906423999999987
21
-93.5193429999999921
0
LINE
8
BLACK
6
CONTINUOUS
10
141.906423999999987
20
-93.5193429999999921
11
141.8610050000000058
21
-93.4889950000000027
0
LINE
8
BLACK
6
CONTINUOUS
10
141.8610050000000058
20
-93.4889950000000027
11
141.8306570000000022
21
-93.4435759999999931
0
LINE
8
BLACK
6
CONTINUOUS
10
141.8306570000000022
20
-93.4435759999999931
11
141.8199999999999932
21
-93.3900000000000006
0
LINE
8
BLACK
6
CONTINUOUS
10
141.8199999999999932
20
-93.3900000000000006
11
141.8199999999999932
21
-93.0499999999999972
0
LINE
8
BLACK
6
CONTINUOUS
10
141.8199999999999932
20
-93.0499999999999972
11
141.8306570000000022
21
-92.9964239999999904
0
LINE
8
BLACK
6
CONTINUOUS
10
141.8306570000000022
20
-92.9964239999999904
11
141.8610050000000058
21
-92.951004999999995
0
LINE
8
BLACK
6
CONTINUOUS
10
141.8610050000000058
20
-92.951004999999995
11
141.906423999999987
21
-92.9206569999999914
0
LINE
8
BLACK
6
CONTINUOUS
10
141.906423999999987
20
-92.9206569999999914
11
141.9599999999999795
21
-92.9099999999999966
0
LINE
8
BLACK
6
CONTINUOUS
10
141.9599999999999795
20
-92.9099999999999966
11
142.2399999999999807
21
-92.9099999999999966
0
LINE
8
BLACK
6
CONTINUOUS
10
142.2399999999999807
20
-92.9099999999999966
11
142.2935760000000016
21
-92.9206569999999914
0
LINE
8
BLACK
6
CONTINUOUS
10
161.8836379999999906
20
-91.9222109999999901
11
162.7063619999999844
21
-92.3972109999999986
0
LINE
8
BLACK
6
CONTINUOUS
10
162.7063619999999844
20
-92.3972109999999986
11
162.7797009999999887
21
-92.4615269999999896
0
LINE
8
BLACK
6
CONTINUOUS
10
162.7797009999999887
20
-92.4615269999999896
11
162.8228440000000035
21
-92.5490130000000022
0
LINE
8
BLACK
6
CONTINUOUS
10
162.8228440000000035
20
-92.5490130000000022
11
162.8292229999999847
21
-92.6463490000000007
0
LINE
8
BLACK
6
CONTINUOUS
10
162.8292229999999847
20
-92.6463490000000007
11
162.797867999999994
21
-92.7387179999999915
0
LINE
8
BLACK
6
CONTINUOUS
10
162.797867999999994
20
-92.7387179999999915
11
162.547867999999994
21
-93.1717299999999966
0
LINE
8
BLACK
6
CONTINUOUS
10
162.547867999999994
20
-93.1717299999999966
11
162.4835520000000031
21
-93.2450690000000009
0
LINE
8
BLACK
6
CONTINUOUS
10
162.4835520000000031
20
-93.2450690000000009
11
162.396066999999988
21
-93.2882120000000015
0
LINE
8
BLACK
6
CONTINUOUS
10
162.396066999999988
20
-93.2882120000000015
11
162.2987310000000036
21
-93.2945919999999944
0
LINE
8
BLACK
6
CONTINUOUS
10
162.2987310000000036
20
-93.2945919999999944
11
162.2063619999999844
21
-93.2632369999999895
0
LINE
8
BLACK
6
CONTINUOUS
10
162.2063619999999844
20
-93.2632369999999895
11
161.3836379999999906
21
-92.7882369999999952
0
LINE
8
BLACK
6
CONTINUOUS
10
161.3836379999999906
20
-92.7882369999999952
11
161.3102989999999863
21
-92.72392099999999
0
LINE
8
BLACK
6
CONTINUOUS
10
161.3102989999999863
20
-92.72392099999999
11
161.2671559999999999
21
-92.6364349999999916
0
LINE
8
BLACK
6
CONTINUOUS
10
161.2671559999999999
20
-92.6364349999999916
11
161.2607769999999903
21
-92.5390989999999931
0
LINE
8
BLACK
6
CONTINUOUS
10
161.2607769999999903
20
-92.5390989999999931
11
161.292131999999981
21
-92.4467300000000023
0
LINE
8
BLACK
6
CONTINUOUS
10
161.292131999999981
20
-92.4467300000000023
11
161.542131999999981
21
-92.0137179999999972
0
LINE
8
BLACK
6
CONTINUOUS
10
161.542131999999981
20
-92.0137179999999972
11
161.6064480000000003
21
-91.940378999999993
0
LINE
8
BLACK
6
CONTINUOUS
10
161.6064480000000003
20
-91.940378999999993
11
161.693932999999987
21
-91.8972359999999924
0
LINE
8
BLACK
6
CONTINUOUS
10
161.693932999999987
20
-91.8972359999999924
11
161.7912689999999998
21
-91.8908559999999994
0
LINE
8
BLACK
6
CONTINUOUS
10
161.7912689999999998
20
-91.8908559999999994
11
161.8836379999999906
21
-91.9222109999999901
0
LINE
8
BLACK
6
CONTINUOUS
10
164.2937340000000006
20
-92.6213779999999929
11
164.0937339999999836
21
-92.9677879999999988
0
LINE
8
BLACK
6
CONTINUOUS
10
164.0937339999999836
20
-92.9677879999999988
11
163.5308179999999822
21
-92.6427879999999959
0
LINE
8
BLACK
6
CONTINUOUS
10
163.5308179999999822
20
-92.6427879999999959
11
163.7308179999999993
21
-92.29637799999999
0
LINE
8
BLACK
6
CONTINUOUS
10
163.7308179999999993
20
-92.29637799999999
11
164.2937340000000006
21
-92.6213779999999929
0
LINE
8
BLACK
6
CONTINUOUS
10
162.8336379999999792
20
-90.2767630000000025
11
163.6563620000000014
21
-90.7517629999999969
0
LINE
8
BLACK
6
CONTINUOUS
10
163.6563620000000014
20
-90.7517629999999969
11
163.7297010000000057
21
-90.816079000000002
0
LINE
8
BLACK
6
CONTINUOUS
10
163.7297010000000057
20
-90.816079000000002
11
163.7728439999999921
21
-90.9035650000000004
0
LINE
8
BLACK
6
CONTINUOUS
10
163.7728439999999921
20
-90.9035650000000004
11
163.7792230000000018
21
-91.0009009999999989
0
LINE
8
BLACK
6
CONTINUOUS
10
163.7792230000000018
20
-91.0009009999999989
11
163.7478679999999827
21
-91.0932699999999897
0
LINE
8
BLACK
6
CONTINUOUS
10
163.7478679999999827
20
-91.0932699999999897
11
163.4978679999999827
21
-91.5262819999999948
0
LINE
8
BLACK
6
CONTINUOUS
10
163.4978679999999827
20
-91.5262819999999948
11
163.4335519999999917
21
-91.5996209999999991
0
LINE
8
BLACK
6
CONTINUOUS
10
163.4335519999999917
20
-91.5996209999999991
11
163.346067000000005
21
-91.6427639999999997
0
LINE
8
BLACK
6
CONTINUOUS
10
163.346067000000005
20
-91.6427639999999997
11
163.2487309999999923
21
-91.6491439999999926
0
LINE
8
BLACK
6
CONTINUOUS
10
163.2487309999999923
20
-91.6491439999999926
11
163.1563620000000014
21
-91.6177890000000019
0
LINE
8
BLACK
6
CONTINUOUS
10
163.1563620000000014
20
-91.6177890000000019
11
162.3336379999999792
21
-91.1427889999999934
0
LINE
8
BLACK
6
CONTINUOUS
10
162.3336379999999792
20
-91.1427889999999934
11
162.2602990000000034
21
-91.0784730000000025
0
LINE
8
BLACK
6
CONTINUOUS
10
162.2602990000000034
20
-91.0784730000000025
11
162.2171559999999886
21
-90.9909869999999898
0
LINE
8
BLACK
6
CONTINUOUS
10
162.2171559999999886
20
-90.9909869999999898
11
162.2107769999999789
21
-90.8936509999999913
0
LINE
8
BLACK
6
CONTINUOUS
10
162.2107769999999789
20
-90.8936509999999913
11
162.242131999999998
21
-90.8012820000000005
0
LINE
8
BLACK
6
CONTINUOUS
10
162.242131999999998
20
-90.8012820000000005
11
162.492131999999998
21
-90.3682699999999954
0
LINE
8
BLACK
6
CONTINUOUS
10
162.492131999999998
20
-90.3682699999999954
11
162.556447999999989
21
-90.2949309999999912
0
LINE
8
BLACK
6
CONTINUOUS
10
162.556447999999989
20
-90.2949309999999912
11
162.6439330000000041
21
-90.2517879999999906
0
LINE
8
BLACK
6
CONTINUOUS
10
162.6439330000000041
20
-90.2517879999999906
11
162.7412689999999884
21
-90.2454079999999976
0
LINE
8
BLACK
6
CONTINUOUS
10
162.7412689999999884
20
-90.2454079999999976
11
162.8336379999999792
21
-90.2767630000000025
0
LINE
8
BLACK
6
CONTINUOUS
10
144.6935760000000073
20
-90.810656999999992
11
144.7389949999999885
21
-90.8410049999999956
0
LINE
8
BLACK
6
CONTINUOUS
10
144.7389949999999885
20
-90.8410049999999956
11
144.7693429999999921
21
-90.886423999999991
0
LINE
8
BLACK
6
CONTINUOUS
10
144.7693429999999921
20
-90.886423999999991
11
144.7800000000000011
21
-90.9399999999999977
0
LINE
8
BLACK
6
CONTINUOUS
10
144.7800000000000011
20
-90.9399999999999977
11
144.7800000000000011
21
-91.2199999999999989
0
LINE
8
BLACK
6
CONTINUOUS
10
144.7800000000000011
20
-91.2199999999999989
11
144.7693429999999921
21
-91.2735759999999914
0
LINE
8
BLACK
6
CONTINUOUS
10
144.7693429999999921
20
-91.2735759999999914
11
144.7389949999999885
21
-91.318995000000001
0
LINE
8
BLACK
6
CONTINUOUS
10
144.7389949999999885
20
-91.318995000000001
11
144.6935760000000073
21
-91.3493429999999904
0
LINE
8
BLACK
6
CONTINUOUS
10
144.6935760000000073
20
-91.3493429999999904
11
144.6399999999999864
21
-91.3599999999999994
0
LINE
8
BLACK
6
CONTINUOUS
10
144.6399999999999864
20
-91.3599999999999994
11
144.2999999999999829
21
-91.3599999999999994
0
LINE
8
BLACK
6
CONTINUOUS
10
144.2999999999999829
20
-91.3599999999999994
11
144.2464239999999904
21
-91.3493429999999904
0
LINE
8
BLACK
6
CONTINUOUS
10
144.2464239999999904
20
-91.3493429999999904
11
144.2010049999999808
21
-91.318995000000001
0
LINE
8
BLACK
6
CONTINUOUS
10
144.2010049999999808
20
-91.318995000000001
11
144.1706570000000056
21
-91.2735759999999914
0
LINE
8
BLACK
6
CONTINUOUS
10
144.1706570000000056
20
-91.2735759999999914
11
144.1599999999999966
21
-91.2199999999999989
0
LINE
8
BLACK
6
CONTINUOUS
10
144.1599999999999966
20
-91.2199999999999989
11
144.1599999999999966
21
-90.9399999999999977
0
LINE
8
BLACK
6
CONTINUOUS
10
144.1599999999999966
20
-90.9399999999999977
11
144.1706570000000056
21
-90.886423999999991
0
LINE
8
BLACK
6
CONTINUOUS
10
144.1706570000000056
20
-90.886423999999991
11
144.2010049999999808
21
-90.8410049999999956
0
LINE
8
BLACK
6
CONTINUOUS
10
144.2010049999999808
20
-90.8410049999999956
11
144.2464239999999904
21
-90.810656999999992
0
LINE
8
BLACK
6
CONTINUOUS
10
144.2464239999999904
20
-90.810656999999992
11
144.2999999999999829
21
-90.7999999999999972
0
LINE
8
BLACK
6
CONTINUOUS
10
144.2999999999999829
20
-90.7999999999999972
11
144.6399999999999864
21
-90.7999999999999972
0
LINE
8
BLACK
6
CONTINUOUS
10
144.6399999999999864
20
-90.7999999999999972
11
144.6935760000000073
21
-90.810656999999992
0
LINE
8
BLACK
6
CONTINUOUS
10
142.6135759999999948
20
-90.5706569999999971
11
142.6589950000000044
21
-90.6010050000000007
0
LINE
8
BLACK
6
CONTINUOUS
10
142.6589950000000044
20
-90.6010050000000007
11
142.6893429999999796
21
-90.6464239999999961
0
LINE
8
BLACK
6
CONTINUOUS
10
142.6893429999999796
20
-90.6464239999999961
11
142.6999999999999886
21
-90.7000000000000028
0
LINE
8
BLACK
6
CONTINUOUS
10
142.6999999999999886
20
-90.7000000000000028
11
142.6999999999999886
21
-91.039999999999992
0
LINE
8
BLACK
6
CONTINUOUS
10
142.6999999999999886
20
-91.039999999999992
11
142.6893429999999796
21
-91.0935759999999988
0
LINE
8
BLACK
6
CONTINUOUS
10
142.6893429999999796
20
-91.0935759999999988
11
142.6589950000000044
21
-91.1389949999999942
0
LINE
8
BLACK
6
CONTINUOUS
10
142.6589950000000044
20
-91.1389949999999942
11
142.6135759999999948
21
-91.1693429999999978
0
LINE
8
BLACK
6
CONTINUOUS
10
142.6135759999999948
20
-91.1693429999999978
11
142.5600000000000023
21
-91.1799999999999926
0
LINE
8
BLACK
6
CONTINUOUS
10
142.5600000000000023
20
-91.1799999999999926
11
142.2800000000000011
21
-91.1799999999999926
0
LINE
8
BLACK
6
CONTINUOUS
10
142.2800000000000011
20
-91.1799999999999926
11
142.2264239999999802
21
-91.1693429999999978
0
LINE
8
BLACK
6
CONTINUOUS
10
142.2264239999999802
20
-91.1693429999999978
11
142.181004999999999
21
-91.1389949999999942
0
LINE
8
BLACK
6
CONTINUOUS
10
142.181004999999999
20
-91.1389949999999942
11
142.1506569999999954
21
-91.0935759999999988
0
LINE
8
BLACK
6
CONTINUOUS
10
142.1506569999999954
20
-91.0935759999999988
11
142.1399999999999864
21
-91.039999999999992
0
LINE
8
BLACK
6
CONTINUOUS
10
142.1399999999999864
20
-91.039999999999992
11
142.1399999999999864
21
-90.7000000000000028
0
LINE
8
BLACK
6
CONTINUOUS
10
142.1399999999999864
20
-90.7000000000000028
11
142.1506569999999954
21
-90.6464239999999961
0
LINE
8
BLACK
6
CONTINUOUS
10
142.1506569999999954
20
-90.6464239999999961
11
142.181004999999999
21
-90.6010050000000007
0
LINE
8
BLACK
6
CONTINUOUS
10
142.181004999999999
20
-90.6010050000000007
11
142.2264239999999802
21
-90.5706569999999971
0
LINE
8
BLACK
6
CONTINUOUS
10
142.2264239999999802
20
-90.5706569999999971
11
142.2800000000000011
21
-90.5600000000000023
0
LINE
8
BLACK
6
CONTINUOUS
10
142.2800000000000011
20
-90.5600000000000023
11
142.5600000000000023
21
-90.5600000000000023
0
LINE
8
BLACK
6
CONTINUOUS
10
142.5600000000000023
20
-90.5600000000000023
11
142.6135759999999948
21
-90.5706569999999971
0
LINE
8
BLACK
6
CONTINUOUS
10
143.5735760000000028
20
-90.5706569999999971
11
143.618994999999984
21
-90.6010050000000007
0
LINE
8
BLACK
6
CONTINUOUS
10
143.618994999999984
20
-90.6010050000000007
11
143.6493429999999876
21
-90.6464239999999961
0
LINE
8
BLACK
6
CONTINUOUS
10
143.6493429999999876
20
-90.6464239999999961
11
143.6599999999999966
21
-90.7000000000000028
0
LINE
8
BLACK
6
CONTINUOUS
10
143.6599999999999966
20
-90.7000000000000028
11
143.6599999999999966
21
-91.039999999999992
0
LINE
8
BLACK
6
CONTINUOUS
10
143.6599999999999966
20
-91.039999999999992
11
143.6493429999999876
21
-91.0935759999999988
0
LINE
8
BLACK
6
CONTINUOUS
10
143.6493429999999876
20
-91.0935759999999988
11
143.618994999999984
21
-91.1389949999999942
0
LINE
8
BLACK
6
CONTINUOUS
10
143.618994999999984
20
-91.1389949999999942
11
143.5735760000000028
21
-91.1693429999999978
0
LINE
8
BLACK
6
CONTINUOUS
10
143.5735760000000028
20
-91.1693429999999978
11
143.5199999999999818
21
-91.1799999999999926
0
LINE
8
BLACK
6
CONTINUOUS
10
143.5199999999999818
20
-91.1799999999999926
11
143.2399999999999807
21
-91.1799999999999926
0
LINE
8
BLACK
6
CONTINUOUS
10
143.2399999999999807
20
-91.1799999999999926
11
143.1864239999999882
21
-91.1693429999999978
0
LINE
8
BLACK
6
CONTINUOUS
10
143.1864239999999882
20
-91.1693429999999978
11
143.1410050000000069
21
-91.1389949999999942
0
LINE
8
BLACK
6
CONTINUOUS
10
143.1410050000000069
20
-91.1389949999999942
11
143.1106570000000033
21
-91.0935759999999988
0
LINE
8
BLACK
6
CONTINUOUS
10
143.1106570000000033
20
-91.0935759999999988
11
143.0999999999999943
21
-91.039999999999992
0
LINE
8
BLACK
6
CONTINUOUS
10
143.0999999999999943
20
-91.039999999999992
11
143.0999999999999943
21
-90.7000000000000028
0
LINE
8
BLACK
6
CONTINUOUS
10
143.0999999999999943
20
-90.7000000000000028
11
143.1106570000000033
21
-90.6464239999999961
0
LINE
8
BLACK
6
CONTINUOUS
10
143.1106570000000033
20
-90.6464239999999961
11
143.1410050000000069
21
-90.6010050000000007
0
LINE
8
BLACK
6
CONTINUOUS
10
143.1410050000000069
20
-90.6010050000000007
11
143.1864239999999882
21
-90.5706569999999971
0
LINE
8
BLACK
6
CONTINUOUS
10
143.1864239999999882
20
-90.5706569999999971
11
143.2399999999999807
21
-90.5600000000000023
0
LINE
8
BLACK
6
CONTINUOUS
10
143.2399999999999807
20
-90.5600000000000023
11
143.5199999999999818
21
-90.5600000000000023
0
LINE
8
BLACK
6
CONTINUOUS
10
143.5199999999999818
20
-90.5600000000000023
11
143.5735760000000028
21
-90.5706569999999971
0
LINE
8
BLACK
6
CONTINUOUS
10
140.9035759999999868
20
-90.560656999999992
11
140.9489949999999965
21
-90.5910049999999956
0
LINE
8
BLACK
6
CONTINUOUS
10
140.9489949999999965
20
-90.5910049999999956
11
140.9793430000000001
21
-90.636423999999991
0
LINE
8
BLACK
6
CONTINUOUS
10
140.9793430000000001
20
-90.636423999999991
11
140.9899999999999807
21
-90.6899999999999977
0
LINE
8
BLACK
6
CONTINUOUS
10
140.9899999999999807
20
-90.6899999999999977
11
140.9899999999999807
21
-91.0300000000000011
0
LINE
8
BLACK
6
CONTINUOUS
10
140.9899999999999807
20
-91.0300000000000011
11
140.9793430000000001
21
-91.0835759999999937
0
LINE
8
BLACK
6
CONTINUOUS
10
140.9793430000000001
20
-91.0835759999999937
11
140.9489949999999965
21
-91.1289949999999891
0
LINE
8
BLACK
6
CONTINUOUS
10
140.9489949999999965
20
-91.1289949999999891
11
140.9035759999999868
21
-91.1593429999999927
0
LINE
8
BLACK
6
CONTINUOUS
10
140.9035759999999868
20
-91.1593429999999927
11
140.8499999999999943
21
-91.1700000000000017
0
LINE
8
BLACK
6
CONTINUOUS
10
140.8499999999999943
20
-91.1700000000000017
11
140.5699999999999932
21
-91.1700000000000017
0
LINE
8
BLACK
6
CONTINUOUS
10
140.5699999999999932
20
-91.1700000000000017
11
140.5164240000000007
21
-91.1593429999999927
0
LINE
8
BLACK
6
CONTINUOUS
10
140.5164240000000007
20
-91.1593429999999927
11
140.471004999999991
21
-91.1289949999999891
0
LINE
8
BLACK
6
CONTINUOUS
10
140.471004999999991
20
-91.1289949999999891
11
140.4406569999999874
21
-91.0835759999999937
0
LINE
8
BLACK
6
CONTINUOUS
10
140.4406569999999874
20
-91.0835759999999937
11
140.4300000000000068
21
-91.0300000000000011
0
LINE
8
BLACK
6
CONTINUOUS
10
140.4300000000000068
20
-91.0300000000000011
11
140.4300000000000068
21
-90.6899999999999977
0
LINE
8
BLACK
6
CONTINUOUS
10
140.4300000000000068
20
-90.6899999999999977
11
140.4406569999999874
21
-90.636423999999991
0
LINE
8
BLACK
6
CONTINUOUS
10
140.4406569999999874
20
-90.636423999999991
11
140.471004999999991
21
-90.5910049999999956
0
LINE
8
BLACK
6
CONTINUOUS
10
140.471004999999991
20
-90.5910049999999956
11
140.5164240000000007
21
-90.560656999999992
0
LINE
8
BLACK
6
CONTINUOUS
10
140.5164240000000007
20
-90.560656999999992
11
140.5699999999999932
21
-90.5499999999999972
0
LINE
8
BLACK
6
CONTINUOUS
10
140.5699999999999932
20
-90.5499999999999972
11
140.8499999999999943
21
-90.5499999999999972
0
LINE
8
BLACK
6
CONTINUOUS
10
140.8499999999999943
20
-90.5499999999999972
11
140.9035759999999868
21
-90.560656999999992
0
LINE
8
BLACK
6
CONTINUOUS
10
141.8635759999999948
20
-90.560656999999992
11
141.9089950000000044
21
-90.5910049999999956
0
LINE
8
BLACK
6
CONTINUOUS
10
141.9089950000000044
20
-90.5910049999999956
11
141.9393429999999796
21
-90.636423999999991
0
LINE
8
BLACK
6
CONTINUOUS
10
141.9393429999999796
20
-90.636423999999991
11
141.9499999999999886
21
-90.6899999999999977
0
LINE
8
BLACK
6
CONTINUOUS
10
141.9499999999999886
20
-90.6899999999999977
11
141.9499999999999886
21
-91.0300000000000011
0
LINE
8
BLACK
6
CONTINUOUS
10
141.9499999999999886
20
-91.0300000000000011
11
141.9393429999999796
21
-91.0835759999999937
0
LINE
8
BLACK
6
CONTINUOUS
10
141.9393429999999796
20
-91.0835759999999937
11
141.9089950000000044
21
-91.1289949999999891
0
LINE
8
BLACK
6
CONTINUOUS
10
141.9089950000000044
20
-91.1289949999999891
11
141.8635759999999948
21
-91.1593429999999927
0
LINE
8
BLACK
6
CONTINUOUS
10
141.8635759999999948
20
-91.1593429999999927
11
141.8100000000000023
21
-91.1700000000000017
0
LINE
8
BLACK
6
CONTINUOUS
10
141.8100000000000023
20
-91.1700000000000017
11
141.5300000000000011
21
-91.1700000000000017
0
LINE
8
BLACK
6
CONTINUOUS
10
141.5300000000000011
20
-91.1700000000000017
11
141.4764239999999802
21
-91.1593429999999927
0
LINE
8
BLACK
6
CONTINUOUS
10
141.4764239999999802
20
-91.1593429999999927
11
141.431004999999999
21
-91.1289949999999891
0
LINE
8
BLACK
6
CONTINUOUS
10
141.431004999999999
20
-91.1289949999999891
11
141.4006569999999954
21
-91.0835759999999937
0
LINE
8
BLACK
6
CONTINUOUS
10
141.4006569999999954
20
-91.0835759999999937
11
141.3899999999999864
21
-91.0300000000000011
0
LINE
8
BLACK
6
CONTINUOUS
10
141.3899999999999864
20
-91.0300000000000011
11
141.3899999999999864
21
-90.6899999999999977
0
LINE
8
BLACK
6
CONTINUOUS
10
141.3899999999999864
20
-90.6899999999999977
11
141.4006569999999954
21
-90.636423999999991
0
LINE
8
BLACK
6
CONTINUOUS
10
141.4006569999999954
20
-90.636423999999991
11
141.431004999999999
21
-90.5910049999999956
0
LINE
8
BLACK
6
CONTINUOUS
10
141.431004999999999
20
-90.5910049999999956
11
141.4764239999999802
21
-90.560656999999992
0
LINE
8
BLACK
6
CONTINUOUS
10
141.4764239999999802
20
-90.560656999999992
11
141.5300000000000011
21
-90.5499999999999972
0
LINE
8
BLACK
6
CONTINUOUS
10
141.5300000000000011
20
-90.5499999999999972
11
141.8100000000000023
21
-90.5499999999999972
0
LINE
8
BLACK
6
CONTINUOUS
10
141.8100000000000023
20
-90.5499999999999972
11
141.8635759999999948
21
-90.560656999999992
0
LINE
8
BLACK
6
CONTINUOUS
10
144.6935760000000073
20
-89.8506569999999982
11
144.7389949999999885
21
-89.8810050000000018
0
LINE
8
BLACK
6
CONTINUOUS
10
144.7389949999999885
20
-89.8810050000000018
11
144.7693429999999921
21
-89.9264239999999972
0
LINE
8
BLACK
6
CONTINUOUS
10
144.7693429999999921
20
-89.9264239999999972
11
144.7800000000000011
21
-89.9799999999999898
0
LINE
8
BLACK
6
CONTINUOUS
10
144.7800000000000011
20
-89.9799999999999898
11
144.7800000000000011
21
-90.2599999999999909
0
LINE
8
BLACK
6
CONTINUOUS
10
144.7800000000000011
20
-90.2599999999999909
11
144.7693429999999921
21
-90.3135759999999976
0
LINE
8
BLACK
6
CONTINUOUS
10
144.7693429999999921
20
-90.3135759999999976
11
144.7389949999999885
21
-90.3589949999999931
0
LINE
8
BLACK
6
CONTINUOUS
10
144.7389949999999885
20
-90.3589949999999931
11
144.6935760000000073
21
-90.3893429999999967
0
LINE
8
BLACK
6
CONTINUOUS
10
144.6935760000000073
20
-90.3893429999999967
11
144.6399999999999864
21
-90.3999999999999915
0
LINE
8
BLACK
6
CONTINUOUS
10
144.6399999999999864
20
-90.3999999999999915
11
144.2999999999999829
21
-90.3999999999999915
0
LINE
8
BLACK
6
CONTINUOUS
10
144.2999999999999829
20
-90.3999999999999915
11
144.2464239999999904
21
-90.3893429999999967
0
LINE
8
BLACK
6
CONTINUOUS
10
144.2464239999999904
20
-90.3893429999999967
11
144.2010049999999808
21
-90.3589949999999931
0
LINE
8
BLACK
6
CONTINUOUS
10
144.2010049999999808
20
-90.3589949999999931
11
144.1706570000000056
21
-90.3135759999999976
0
LINE
8
BLACK
6
CONTINUOUS
10
144.1706570000000056
20
-90.3135759999999976
11
144.1599999999999966
21
-90.2599999999999909
0
LINE
8
BLACK
6
CONTINUOUS
10
144.1599999999999966
20
-90.2599999999999909
11
144.1599999999999966
21
-89.9799999999999898
0
LINE
8
BLACK
6
CONTINUOUS
10
144.1599999999999966
20
-89.9799999999999898
11
144.1706570000000056
21
-89.9264239999999972
0
LINE
8
BLACK
6
CONTINUOUS
10
144.1706570000000056
20
-89.9264239999999972
11
144.2010049999999808
21
-89.8810050000000018
0
LINE
8
BLACK
6
CONTINUOUS
10
144.2010049999999808
20
-89.8810050000000018
11
144.2464239999999904
21
-89.8506569999999982
0
LINE
8
BLACK
6
CONTINUOUS
10
144.2464239999999904
20
-89.8506569999999982
11
144.2999999999999829
21
-89.8399999999999892
0
LINE
8
BLACK
6
CONTINUOUS
10
144.2999999999999829
20
-89.8399999999999892
11
144.6399999999999864
21
-89.8399999999999892
0
LINE
8
BLACK
6
CONTINUOUS
10
144.6399999999999864
20
-89.8399999999999892
11
144.6935760000000073
21
-89.8506569999999982
0
LINE
8
BLACK
6
CONTINUOUS
10
139.8549999999999898
20
-89.7000000000000028
11
139.5049999999999955
21
-89.7000000000000028
0
LINE
8
BLACK
6
CONTINUOUS
10
139.5049999999999955
20
-89.7000000000000028
11
139.5049999999999955
21
-89.3250000000000028
0
LINE
8
BLACK
6
CONTINUOUS
10
139.5049999999999955
20
-89.3250000000000028
11
139.8549999999999898
21
-89.3250000000000028
0
LINE
8
BLACK
6
CONTINUOUS
10
139.8549999999999898
20
-89.3250000000000028
11
139.8549999999999898
21
-89.7000000000000028
0
LINE
8
BLACK
6
CONTINUOUS
10
140.3549999999999898
20
-89.7000000000000028
11
140.0049999999999955
21
-89.7000000000000028
0
LINE
8
BLACK
6
CONTINUOUS
10
140.0049999999999955
20
-89.7000000000000028
11
140.0049999999999955
21
-89.3250000000000028
0
LINE
8
BLACK
6
CONTINUOUS
10
140.0049999999999955
20
-89.3250000000000028
11
140.3549999999999898
21
-89.3250000000000028
0
LINE
8
BLACK
6
CONTINUOUS
10
140.3549999999999898
20
-89.3250000000000028
11
140.3549999999999898
21
-89.7000000000000028
0
LINE
8
BLACK
6
CONTINUOUS
10
139.3549999999999898
20
-89.6749999999999972
11
138.9799999999999898
21
-89.6749999999999972
0
LINE
8
BLACK
6
CONTINUOUS
10
138.9799999999999898
20
-89.6749999999999972
11
138.9799999999999898
21
-89.3250000000000028
0
LINE
8
BLACK
6
CONTINUOUS
10
138.9799999999999898
20
-89.3250000000000028
11
139.3549999999999898
21
-89.3250000000000028
0
LINE
8
BLACK
6
CONTINUOUS
10
139.3549999999999898
20
-89.3250000000000028
11
139.3549999999999898
21
-89.6749999999999972
0
LINE
8
BLACK
6
CONTINUOUS
10
140.8799999999999955
20
-89.6749999999999972
11
140.5049999999999955
21
-89.6749999999999972
0
LINE
8
BLACK
6
CONTINUOUS
10
140.5049999999999955
20
-89.6749999999999972
11
140.5049999999999955
21
-89.3250000000000028
0
LINE
8
BLACK
6
CONTINUOUS
10
140.5049999999999955
20
-89.3250000000000028
11
140.8799999999999955
21
-89.3250000000000028
0
LINE
8
BLACK
6
CONTINUOUS
10
140.8799999999999955
20
-89.3250000000000028
11
140.8799999999999955
21
-89.6749999999999972
0
LINE
8
BLACK
6
CONTINUOUS
10
139.3549999999999898
20
-89.1749999999999972
11
138.9799999999999898
21
-89.1749999999999972
0
LINE
8
BLACK
6
CONTINUOUS
10
138.9799999999999898
20
-89.1749999999999972
11
138.9799999999999898
21
-88.8250000000000028
0
LINE
8
BLACK
6
CONTINUOUS
10
138.9799999999999898
20
-88.8250000000000028
11
139.3549999999999898
21
-88.8250000000000028
0
LINE
8
BLACK
6
CONTINUOUS
10
139.3549999999999898
20
-88.8250000000000028
11
139.3549999999999898
21
-89.1749999999999972
0
LINE
8
BLACK
6
CONTINUOUS
10
140.8799999999999955
20
-89.1749999999999972
11
140.5049999999999955
21
-89.1749999999999972
0
LINE
8
BLACK
6
CONTINUOUS
10
140.5049999999999955
20
-89.1749999999999972
11
140.5049999999999955
21
-88.8250000000000028
0
LINE
8
BLACK
6
CONTINUOUS
10
140.5049999999999955
20
-88.8250000000000028
11
140.8799999999999955
21
-88.8250000000000028
0
LINE
8
BLACK
6
CONTINUOUS
10
140.8799999999999955
20
-88.8250000000000028
11
140.8799999999999955
21
-89.1749999999999972
0
LINE
8
BLACK
6
CONTINUOUS
10
142.6129609999999843
20
-88.2645669999999996
11
142.6324259999999811
21
-88.2775740000000013
0
LINE
8
BLACK
6
CONTINUOUS
10
142.6324259999999811
20
-88.2775740000000013
11
142.645432999999997
21
-88.2970389999999981
0
LINE
8
BLACK
6
CONTINUOUS
10
142.645432999999997
20
-88.2970389999999981
11
142.6500000000000057
21
-88.3199999999999932
0
LINE
8
BLACK
6
CONTINUOUS
10
142.6500000000000057
20
-88.3199999999999932
11
142.6500000000000057
21
-89.0999999999999943
0
LINE
8
BLACK
6
CONTINUOUS
10
142.6500000000000057
20
-89.0999999999999943
11
142.645432999999997
21
-89.1229609999999894
0
LINE
8
BLACK
6
CONTINUOUS
10
142.645432999999997
20
-89.1229609999999894
11
142.6324259999999811
21
-89.1424260000000004
0
LINE
8
BLACK
6
CONTINUOUS
10
142.6324259999999811
20
-89.1424260000000004
11
142.6129609999999843
21
-89.1554330000000022
0
LINE
8
BLACK
6
CONTINUOUS
10
142.6129609999999843
20
-89.1554330000000022
11
142.5900000000000034
21
-89.1599999999999966
0
LINE
8
BLACK
6
CONTINUOUS
10
142.5900000000000034
20
-89.1599999999999966
11
141.9099999999999966
21
-89.1599999999999966
0
LINE
8
BLACK
6
CONTINUOUS
10
141.9099999999999966
20
-89.1599999999999966
11
141.8870389999999873
21
-89.1554330000000022
0
LINE
8
BLACK
6
CONTINUOUS
10
141.8870389999999873
20
-89.1554330000000022
11
141.8675739999999905
21
-89.1424260000000004
0
LINE
8
BLACK
6
CONTINUOUS
10
141.8675739999999905
20
-89.1424260000000004
11
141.854567000000003
21
-89.1229609999999894
0
LINE
8
BLACK
6
CONTINUOUS
10
141.854567000000003
20
-89.1229609999999894
11
141.8499999999999943
21
-89.0999999999999943
0
LINE
8
BLACK
6
CONTINUOUS
10
141.8499999999999943
20
-89.0999999999999943
11
141.8499999999999943
21
-88.3199999999999932
0
LINE
8
BLACK
6
CONTINUOUS
10
141.8499999999999943
20
-88.3199999999999932
11
141.854567000000003
21
-88.2970389999999981
0
LINE
8
BLACK
6
CONTINUOUS
10
141.854567000000003
20
-88.2970389999999981
11
141.8675739999999905
21
-88.2775740000000013
0
LINE
8
BLACK
6
CONTINUOUS
10
141.8675739999999905
20
-88.2775740000000013
11
141.8870389999999873
21
-88.2645669999999996
0
LINE
8
BLACK
6
CONTINUOUS
10
141.8870389999999873
20
-88.2645669999999996
11
141.9099999999999966
21
-88.2599999999999909
0
LINE
8
BLACK
6
CONTINUOUS
10
141.9099999999999966
20
-88.2599999999999909
11
142.5900000000000034
21
-88.2599999999999909
0
LINE
8
BLACK
6
CONTINUOUS
10
142.5900000000000034
20
-88.2599999999999909
11
142.6129609999999843
21
-88.2645669999999996
0
LINE
8
BLACK
6
CONTINUOUS
10
143.7353549999999984
20
-88.2746449999999925
11
143.75
21
-88.3100000000000023
0
LINE
8
BLACK
6
CONTINUOUS
10
143.75
20
-88.3100000000000023
11
143.75
21
-89.1099999999999994
0
LINE
8
BLACK
6
CONTINUOUS
10
143.75
20
-89.1099999999999994
11
143.7353549999999984
21
-89.145354999999995
0
LINE
8
BLACK
6
CONTINUOUS
10
143.7353549999999984
20
-89.145354999999995
11
143.6999999999999886
21
-89.1599999999999966
0
LINE
8
BLACK
6
CONTINUOUS
10
143.6999999999999886
20
-89.1599999999999966
11
143.
21
-89.1599999999999966
0
LINE
8
BLACK
6
CONTINUOUS
10
143.
20
-89.1599999999999966
11
142.9646449999999902
21
-89.145354999999995
0
LINE
8
BLACK
6
CONTINUOUS
10
142.9646449999999902
20
-89.145354999999995
11
142.9499999999999886
21
-89.1099999999999994
0
LINE
8
BLACK
6
CONTINUOUS
10
142.9499999999999886
20
-89.1099999999999994
11
142.9499999999999886
21
-88.4599999999999937
0
LINE
8
BLACK
6
CONTINUOUS
10
142.9499999999999886
20
-88.4599999999999937
11
142.9646449999999902
21
-88.4246449999999982
0
LINE
8
BLACK
6
CONTINUOUS
10
142.9646449999999902
20
-88.4246449999999982
11
143.1146449999999959
21
-88.2746449999999925
0
LINE
8
BLACK
6
CONTINUOUS
10
143.1146449999999959
20
-88.2746449999999925
11
143.1500000000000057
21
-88.2599999999999909
0
LINE
8
BLACK
6
CONTINUOUS
10
143.1500000000000057
20
-88.2599999999999909
11
143.6999999999999886
21
-88.2599999999999909
0
LINE
8
BLACK
6
CONTINUOUS
10
143.6999999999999886
20
-88.2599999999999909
11
143.7353549999999984
21
-88.2746449999999925
0
LINE
8
BLACK
6
CONTINUOUS
10
139.3549999999999898
20
-88.6749999999999972
11
138.9799999999999898
21
-88.6749999999999972
0
LINE
8
BLACK
6
CONTINUOUS
10
138.9799999999999898
20
-88.6749999999999972
11
138.9799999999999898
21
-88.3250000000000028
0
LINE
8
BLACK
6
CONTINUOUS
10
138.9799999999999898
20
-88.3250000000000028
11
139.3549999999999898
21
-88.3250000000000028
0
LINE
8
BLACK
6
CONTINUOUS
10
139.3549999999999898
20
-88.3250000000000028
11
139.3549999999999898
21
-88.6749999999999972
0
LINE
8
BLACK
6
CONTINUOUS
10
140.8799999999999955
20
-88.6749999999999972
11
140.5049999999999955
21
-88.6749999999999972
0
LINE
8
BLACK
6
CONTINUOUS
10
140.5049999999999955
20
-88.6749999999999972
11
140.5049999999999955
21
-88.3250000000000028
0
LINE
8
BLACK
6
CONTINUOUS
10
140.5049999999999955
20
-88.3250000000000028
11
140.8799999999999955
21
-88.3250000000000028
0
LINE
8
BLACK
6
CONTINUOUS
10
140.8799999999999955
20
-88.3250000000000028
11
140.8799999999999955
21
-88.6749999999999972
0
LINE
8
BLACK
6
CONTINUOUS
10
144.4435760000000073
20
-87.810656999999992
11
144.4889949999999885
21
-87.8410049999999956
0
LINE
8
BLACK
6
CONTINUOUS
10
144.4889949999999885
20
-87.8410049999999956
11
144.5193429999999921
21
-87.886423999999991
0
LINE
8
BLACK
6
CONTINUOUS
10
144.5193429999999921
20
-87.886423999999991
11
144.5300000000000011
21
-87.9399999999999977
0
LINE
8
BLACK
6
CONTINUOUS
10
144.5300000000000011
20
-87.9399999999999977
11
144.5300000000000011
21
-88.2199999999999989
0
LINE
8
BLACK
6
CONTINUOUS
10
144.5300000000000011
20
-88.2199999999999989
11
144.5193429999999921
21
-88.2735759999999914
0
LINE
8
BLACK
6
CONTINUOUS
10
144.5193429999999921
20
-88.2735759999999914
11
144.4889949999999885
21
-88.318995000000001
0
LINE
8
BLACK
6
CONTINUOUS
10
144.4889949999999885
20
-88.318995000000001
11
144.4435760000000073
21
-88.3493429999999904
0
LINE
8
BLACK
6
CONTINUOUS
10
144.4435760000000073
20
-88.3493429999999904
11
144.3899999999999864
21
-88.3599999999999994
0
LINE
8
BLACK
6
CONTINUOUS
10
144.3899999999999864
20
-88.3599999999999994
11
144.0499999999999829
21
-88.3599999999999994
0
LINE
8
BLACK
6
CONTINUOUS
10
144.0499999999999829
20
-88.3599999999999994
11
143.9964239999999904
21
-88.3493429999999904
0
LINE
8
BLACK
6
CONTINUOUS
10
143.9964239999999904
20
-88.3493429999999904
11
143.9510049999999808
21
-88.318995000000001
0
LINE
8
BLACK
6
CONTINUOUS
10
143.9510049999999808
20
-88.318995000000001
11
143.9206570000000056
21
-88.2735759999999914
0
LINE
8
BLACK
6
CONTINUOUS
10
143.9206570000000056
20
-88.2735759999999914
11
143.9099999999999966
21
-88.2199999999999989
0
LINE
8
BLACK
6
CONTINUOUS
10
143.9099999999999966
20
-88.2199999999999989
11
143.9099999999999966
21
-87.9399999999999977
0
LINE
8
BLACK
6
CONTINUOUS
10
143.9099999999999966
20
-87.9399999999999977
11
143.9206570000000056
21
-87.886423999999991
0
LINE
8
BLACK
6
CONTINUOUS
10
143.9206570000000056
20
-87.886423999999991
11
143.9510049999999808
21
-87.8410049999999956
0
LINE
8
BLACK
6
CONTINUOUS
10
143.9510049999999808
20
-87.8410049999999956
11
143.9964239999999904
21
-87.810656999999992
0
LINE
8
BLACK
6
CONTINUOUS
10
143.9964239999999904
20
-87.810656999999992
11
144.0499999999999829
21
-87.7999999999999972
0
LINE
8
BLACK
6
CONTINUOUS
10
144.0499999999999829
20
-87.7999999999999972
11
144.3899999999999864
21
-87.7999999999999972
0
LINE
8
BLACK
6
CONTINUOUS
10
144.3899999999999864
20
-87.7999999999999972
11
144.4435760000000073
21
-87.810656999999992
0
LINE
8
BLACK
6
CONTINUOUS
10
139.3549999999999898
20
-88.1749999999999972
11
138.9799999999999898
21
-88.1749999999999972
0
LINE
8
BLACK
6
CONTINUOUS
10
138.9799999999999898
20
-88.1749999999999972
11
138.9799999999999898
21
-87.8250000000000028
0
LINE
8
BLACK
6
CONTINUOUS
10
138.9799999999999898
20
-87.8250000000000028
11
139.3549999999999898
21
-87.8250000000000028
0
LINE
8
BLACK
6
CONTINUOUS
10
139.3549999999999898
20
-87.8250000000000028
11
139.3549999999999898
21
-88.1749999999999972
0
LINE
8
BLACK
6
CONTINUOUS
10
139.8549999999999898
20
-88.1749999999999972
11
139.5049999999999955
21
-88.1749999999999972
0
LINE
8
BLACK
6
CONTINUOUS
10
139.5049999999999955
20
-88.1749999999999972
11
139.5049999999999955
21
-87.7999999999999972
0
LINE
8
BLACK
6
CONTINUOUS
10
139.5049999999999955
20
-87.7999999999999972
11
139.8549999999999898
21
-87.7999999999999972
0
LINE
8
BLACK
6
CONTINUOUS
10
139.8549999999999898
20
-87.7999999999999972
11
139.8549999999999898
21
-88.1749999999999972
0
LINE
8
BLACK
6
CONTINUOUS
10
140.3549999999999898
20
-88.1749999999999972
11
140.0049999999999955
21
-88.1749999999999972
0
LINE
8
BLACK
6
CONTINUOUS
10
140.0049999999999955
20
-88.1749999999999972
11
140.0049999999999955
21
-87.7999999999999972
0
LINE
8
BLACK
6
CONTINUOUS
10
140.0049999999999955
20
-87.7999999999999972
11
140.3549999999999898
21
-87.7999999999999972
0
LINE
8
BLACK
6
CONTINUOUS
10
140.3549999999999898
20
-87.7999999999999972
11
140.3549999999999898
21
-88.1749999999999972
0
LINE
8
BLACK
6
CONTINUOUS
10
140.8799999999999955
20
-88.1749999999999972
11
140.5049999999999955
21
-88.1749999999999972
0
LINE
8
BLACK
6
CONTINUOUS
10
140.5049999999999955
20
-88.1749999999999972
11
140.5049999999999955
21
-87.8250000000000028
0
LINE
8
BLACK
6
CONTINUOUS
10
140.5049999999999955
20
-87.8250000000000028
11
140.8799999999999955
21
-87.8250000000000028
0
LINE
8
BLACK
6
CONTINUOUS
10
140.8799999999999955
20
-87.8250000000000028
11
140.8799999999999955
21
-88.1749999999999972
0
LINE
8
BLACK
6
CONTINUOUS
10
142.6353550000000041
20
-86.874645000000001
11
142.6500000000000057
21
-86.9099999999999966
0
LINE
8
BLACK
6
CONTINUOUS
10
142.6500000000000057
20
-86.9099999999999966
11
142.6500000000000057
21
-87.5600000000000023
0
LINE
8
BLACK
6
CONTINUOUS
10
142.6500000000000057
20
-87.5600000000000023
11
142.6353550000000041
21
-87.5953549999999979
0
LINE
8
BLACK
6
CONTINUOUS
10
142.6353550000000041
20
-87.5953549999999979
11
142.4853549999999984
21
-87.7453549999999893
0
LINE
8
BLACK
6
CONTINUOUS
10
142.4853549999999984
20
-87.7453549999999893
11
142.4499999999999886
21
-87.7599999999999909
0
LINE
8
BLACK
6
CONTINUOUS
10
142.4499999999999886
20
-87.7599999999999909
11
141.9000000000000057
21
-87.7599999999999909
0
LINE
8
BLACK
6
CONTINUOUS
10
141.9000000000000057
20
-87.7599999999999909
11
141.8646449999999959
21
-87.7453549999999893
0
LINE
8
BLACK
6
CONTINUOUS
10
141.8646449999999959
20
-87.7453549999999893
11
141.8499999999999943
21
-87.7099999999999937
0
LINE
8
BLACK
6
CONTINUOUS
10
141.8499999999999943
20
-87.7099999999999937
11
141.8499999999999943
21
-86.9099999999999966
0
LINE
8
BLACK
6
CONTINUOUS
10
141.8499999999999943
20
-86.9099999999999966
11
141.8646449999999959
21
-86.874645000000001
0
LINE
8
BLACK
6
CONTINUOUS
10
141.8646449999999959
20
-86.874645000000001
11
141.9000000000000057
21
-86.8599999999999994
0
LINE
8
BLACK
6
CONTINUOUS
10
141.9000000000000057
20
-86.8599999999999994
11
142.5999999999999943
21
-86.8599999999999994
0
LINE
8
BLACK
6
CONTINUOUS
10
142.5999999999999943
20
-86.8599999999999994
11
142.6353550000000041
21
-86.874645000000001
0
LINE
8
BLACK
6
CONTINUOUS
10
143.7129610000000071
20
-86.8645669999999939
11
143.7324260000000038
21
-86.8775739999999956
0
LINE
8
BLACK
6
CONTINUOUS
10
143.7324260000000038
20
-86.8775739999999956
11
143.7454329999999914
21
-86.8970389999999924
0
LINE
8
BLACK
6
CONTINUOUS
10
143.7454329999999914
20
-86.8970389999999924
11
143.75
21
-86.9200000000000017
0
LINE
8
BLACK
6
CONTINUOUS
10
143.75
20
-86.9200000000000017
11
143.75
21
-87.7000000000000028
0
LINE
8
BLACK
6
CONTINUOUS
10
143.75
20
-87.7000000000000028
11
143.7454329999999914
21
-87.722960999999998
0
LINE
8
BLACK
6
CONTINUOUS
10
143.7454329999999914
20
-87.722960999999998
11
143.7324260000000038
21
-87.7424259999999947
0
LINE
8
BLACK
6
CONTINUOUS
10
143.7324260000000038
20
-87.7424259999999947
11
143.7129610000000071
21
-87.7554329999999965
0
LINE
8
BLACK
6
CONTINUOUS
10
143.7129610000000071
20
-87.7554329999999965
11
143.6899999999999977
21
-87.7599999999999909
0
LINE
8
BLACK
6
CONTINUOUS
10
143.6899999999999977
20
-87.7599999999999909
11
143.0099999999999909
21
-87.7599999999999909
0
LINE
8
BLACK
6
CONTINUOUS
10
143.0099999999999909
20
-87.7599999999999909
11
142.9870389999999816
21
-87.7554329999999965
0
LINE
8
BLACK
6
CONTINUOUS
10
142.9870389999999816
20
-87.7554329999999965
11
142.9675739999999848
21
-87.7424259999999947
0
LINE
8
BLACK
6
CONTINUOUS
10
142.9675739999999848
20
-87.7424259999999947
11
142.9545669999999973
21
-87.722960999999998
0
LINE
8
BLACK
6
CONTINUOUS
10
142.9545669999999973
20
-87.722960999999998
11
142.9499999999999886
21
-87.7000000000000028
0
LINE
8
BLACK
6
CONTINUOUS
10
142.9499999999999886
20
-87.7000000000000028
11
142.9499999999999886
21
-86.9200000000000017
0
LINE
8
BLACK
6
CONTINUOUS
10
142.9499999999999886
20
-86.9200000000000017
11
142.9545669999999973
21
-86.8970389999999924
0
LINE
8
BLACK
6
CONTINUOUS
10
142.9545669999999973
20
-86.8970389999999924
11
142.9675739999999848
21
-86.8775739999999956
0
LINE
8
BLACK
6
CONTINUOUS
10
142.9675739999999848
20
-86.8775739999999956
11
142.9870389999999816
21
-86.8645669999999939
0
LINE
8
BLACK
6
CONTINUOUS
10
142.9870389999999816
20
-86.8645669999999939
11
143.0099999999999909
21
-86.8599999999999994
0
LINE
8
BLACK
6
CONTINUOUS
10
143.0099999999999909
20
-86.8599999999999994
11
143.6899999999999977
21
-86.8599999999999994
0
LINE
8
BLACK
6
CONTINUOUS
10
143.6899999999999977
20
-86.8599999999999994
11
143.7129610000000071
21
-86.8645669999999939
0
LINE
8
BLACK
6
CONTINUOUS
10
144.4435760000000073
20
-86.8506569999999982
11
144.4889949999999885
21
-86.8810050000000018
0
LINE
8
BLACK
6
CONTINUOUS
10
144.4889949999999885
20
-86.8810050000000018
11
144.5193429999999921
21
-86.9264239999999972
0
LINE
8
BLACK
6
CONTINUOUS
10
144.5193429999999921
20
-86.9264239999999972
11
144.5300000000000011
21
-86.9799999999999898
0
LINE
8
BLACK
6
CONTINUOUS
10
144.5300000000000011
20
-86.9799999999999898
11
144.5300000000000011
21
-87.2599999999999909
0
LINE
8
BLACK
6
CONTINUOUS
10
144.5300000000000011
20
-87.2599999999999909
11
144.5193429999999921
21
-87.3135759999999976
0
LINE
8
BLACK
6
CONTINUOUS
10
144.5193429999999921
20
-87.3135759999999976
11
144.4889949999999885
21
-87.3589949999999931
0
LINE
8
BLACK
6
CONTINUOUS
10
144.4889949999999885
20
-87.3589949999999931
11
144.4435760000000073
21
-87.3893429999999967
0
LINE
8
BLACK
6
CONTINUOUS
10
144.4435760000000073
20
-87.3893429999999967
11
144.3899999999999864
21
-87.3999999999999915
0
LINE
8
BLACK
6
CONTINUOUS
10
144.3899999999999864
20
-87.3999999999999915
11
144.0499999999999829
21
-87.3999999999999915
0
LINE
8
BLACK
6
CONTINUOUS
10
144.0499999999999829
20
-87.3999999999999915
11
143.9964239999999904
21
-87.3893429999999967
0
LINE
8
BLACK
6
CONTINUOUS
10
143.9964239999999904
20
-87.3893429999999967
11
143.9510049999999808
21
-87.3589949999999931
0
LINE
8
BLACK
6
CONTINUOUS
10
143.9510049999999808
20
-87.3589949999999931
11
143.9206570000000056
21
-87.3135759999999976
0
LINE
8
BLACK
6
CONTINUOUS
10
143.9206570000000056
20
-87.3135759999999976
11
143.9099999999999966
21
-87.2599999999999909
0
LINE
8
BLACK
6
CONTINUOUS
10
143.9099999999999966
20
-87.2599999999999909
11
143.9099999999999966
21
-86.9799999999999898
0
LINE
8
BLACK
6
CONTINUOUS
10
143.9099999999999966
20
-86.9799999999999898
11
143.9206570000000056
21
-86.9264239999999972
0
LINE
8
BLACK
6
CONTINUOUS
10
143.9206570000000056
20
-86.9264239999999972
11
143.9510049999999808
21
-86.8810050000000018
0
LINE
8
BLACK
6
CONTINUOUS
10
143.9510049999999808
20
-86.8810050000000018
11
143.9964239999999904
21
-86.8506569999999982
0
LINE
8
BLACK
6
CONTINUOUS
10
143.9964239999999904
20
-86.8506569999999982
11
144.0499999999999829
21
-86.8399999999999892
0
LINE
8
BLACK
6
CONTINUOUS
10
144.0499999999999829
20
-86.8399999999999892
11
144.3899999999999864
21
-86.8399999999999892
0
LINE
8
BLACK
6
CONTINUOUS
10
144.3899999999999864
20
-86.8399999999999892
11
144.4435760000000073
21
-86.8506569999999982
0
LINE
8
BLACK
6
CONTINUOUS
10
143.0535759999999925
20
-86.0706569999999971
11
143.0989950000000022
21
-86.1010050000000007
0
LINE
8
BLACK
6
CONTINUOUS
10
143.0989950000000022
20
-86.1010050000000007
11
143.1293430000000058
21
-86.1464239999999961
0
LINE
8
BLACK
6
CONTINUOUS
10
143.1293430000000058
20
-86.1464239999999961
11
143.1399999999999864
21
-86.2000000000000028
0
LINE
8
BLACK
6
CONTINUOUS
10
143.1399999999999864
20
-86.2000000000000028
11
143.1399999999999864
21
-86.539999999999992
0
LINE
8
BLACK
6
CONTINUOUS
10
143.1399999999999864
20
-86.539999999999992
11
143.1293430000000058
21
-86.5935759999999988
0
LINE
8
BLACK
6
CONTINUOUS
10
143.1293430000000058
20
-86.5935759999999988
11
143.0989950000000022
21
-86.6389949999999942
0
LINE
8
BLACK
6
CONTINUOUS
10
143.0989950000000022
20
-86.6389949999999942
11
143.0535759999999925
21
-86.6693429999999978
0
LINE
8
BLACK
6
CONTINUOUS
10
143.0535759999999925
20
-86.6693429999999978
11
143.
21
-86.6799999999999926
0
LINE
8
BLACK
6
CONTINUOUS
10
143.
20
-86.6799999999999926
11
142.7199999999999989
21
-86.6799999999999926
0
LINE
8
BLACK
6
CONTINUOUS
10
142.7199999999999989
20
-86.6799999999999926
11
142.6664240000000063
21
-86.6693429999999978
0
LINE
8
BLACK
6
CONTINUOUS
10
142.6664240000000063
20
-86.6693429999999978
11
142.6210049999999967
21
-86.6389949999999942
0
LINE
8
BLACK
6
CONTINUOUS
10
142.6210049999999967
20
-86.6389949999999942
11
142.5906569999999931
21
-86.5935759999999988
0
LINE
8
BLACK
6
CONTINUOUS
10
142.5906569999999931
20
-86.5935759999999988
11
142.5799999999999841
21
-86.539999999999992
0
LINE
8
BLACK
6
CONTINUOUS
10
142.5799999999999841
20
-86.539999999999992
11
142.5799999999999841
21
-86.2000000000000028
0
LINE
8
BLACK
6
CONTINUOUS
10
142.5799999999999841
20
-86.2000000000000028
11
142.5906569999999931
21
-86.1464239999999961
0
LINE
8
BLACK
6
CONTINUOUS
10
142.5906569999999931
20
-86.1464239999999961
11
142.6210049999999967
21
-86.1010050000000007
0
LINE
8
BLACK
6
CONTINUOUS
10
142.6210049999999967
20
-86.1010050000000007
11
142.6664240000000063
21
-86.0706569999999971
0
LINE
8
BLACK
6
CONTINUOUS
10
142.6664240000000063
20
-86.0706569999999971
11
142.7199999999999989
21
-86.0600000000000023
0
LINE
8
BLACK
6
CONTINUOUS
10
142.7199999999999989
20
-86.0600000000000023
11
143.
21
-86.0600000000000023
0
LINE
8
BLACK
6
CONTINUOUS
10
143.
20
-86.0600000000000023
11
143.0535759999999925
21
-86.0706569999999971
0
LINE
8
BLACK
6
CONTINUOUS
10
144.0135760000000005
20
-86.0706569999999971
11
144.0589949999999817
21
-86.1010050000000007
0
LINE
8
BLACK
6
CONTINUOUS
10
144.0589949999999817
20
-86.1010050000000007
11
144.0893429999999853
21
-86.1464239999999961
0
LINE
8
BLACK
6
CONTINUOUS
10
144.0893429999999853
20
-86.1464239999999961
11
144.0999999999999943
21
-86.2000000000000028
0
LINE
8
BLACK
6
CONTINUOUS
10
144.0999999999999943
20
-86.2000000000000028
11
144.0999999999999943
21
-86.539999999999992
0
LINE
8
BLACK
6
CONTINUOUS
10
144.0999999999999943
20
-86.539999999999992
11
144.0893429999999853
21
-86.5935759999999988
0
LINE
8
BLACK
6
CONTINUOUS
10
144.0893429999999853
20
-86.5935759999999988
11
144.0589949999999817
21
-86.6389949999999942
0
LINE
8
BLACK
6
CONTINUOUS
10
144.0589949999999817
20
-86.6389949999999942
11
144.0135760000000005
21
-86.6693429999999978
0
LINE
8
BLACK
6
CONTINUOUS
10
144.0135760000000005
20
-86.6693429999999978
11
143.9599999999999795
21
-86.6799999999999926
0
LINE
8
BLACK
6
CONTINUOUS
10
143.9599999999999795
20
-86.6799999999999926
11
143.6800000000000068
21
-86.6799999999999926
0
LINE
8
BLACK
6
CONTINUOUS
10
143.6800000000000068
20
-86.6799999999999926
11
143.6264239999999859
21
-86.6693429999999978
0
LINE
8
BLACK
6
CONTINUOUS
10
143.6264239999999859
20
-86.6693429999999978
11
143.5810050000000047
21
-86.6389949999999942
0
LINE
8
BLACK
6
CONTINUOUS
10
143.5810050000000047
20
-86.6389949999999942
11
143.5506570000000011
21
-86.5935759999999988
0
LINE
8
BLACK
6
CONTINUOUS
10
143.5506570000000011
20
-86.5935759999999988
11
143.539999999999992
21
-86.539999999999992
0
LINE
8
BLACK
6
CONTINUOUS
10
143.539999999999992
20
-86.539999999999992
11
143.539999999999992
21
-86.2000000000000028
0
LINE
8
BLACK
6
CONTINUOUS
10
143.539999999999992
20
-86.2000000000000028
11
143.5506570000000011
21
-86.1464239999999961
0
LINE
8
BLACK
6
CONTINUOUS
10
143.5506570000000011
20
-86.1464239999999961
11
143.5810050000000047
21
-86.1010050000000007
0
LINE
8
BLACK
6
CONTINUOUS
10
143.5810050000000047
20
-86.1010050000000007
11
143.6264239999999859
21
-86.0706569999999971
0
LINE
8
BLACK
6
CONTINUOUS
10
143.6264239999999859
20
-86.0706569999999971
11
143.6800000000000068
21
-86.0600000000000023
0
LINE
8
BLACK
6
CONTINUOUS
10
143.6800000000000068
20
-86.0600000000000023
11
143.9599999999999795
21
-86.0600000000000023
0
LINE
8
BLACK
6
CONTINUOUS
10
143.9599999999999795
20
-86.0600000000000023
11
144.0135760000000005
21
-86.0706569999999971
0
LINE
8
BLACK
6
CONTINUOUS
10
143.8315759999999841
20
-85.1466569999999905
11
143.8769949999999938
21
-85.1770049999999941
0
LINE
8
BLACK
6
CONTINUOUS
10
143.8769949999999938
20
-85.1770049999999941
11
143.9073429999999973
21
-85.2224239999999895
0
LINE
8
BLACK
6
CONTINUOUS
10
143.9073429999999973
20
-85.2224239999999895
11
143.9180000000000064
21
-85.2759999999999962
0
LINE
8
BLACK
6
CONTINUOUS
10
143.9180000000000064
20
-85.2759999999999962
11
143.9180000000000064
21
-85.6159999999999997
0
LINE
8
BLACK
6
CONTINUOUS
10
143.9180000000000064
20
-85.6159999999999997
11
143.9073429999999973
21
-85.6695759999999922
0
LINE
8
BLACK
6
CONTINUOUS
10
143.9073429999999973
20
-85.6695759999999922
11
143.8769949999999938
21
-85.7149950000000018
0
LINE
8
BLACK
6
CONTINUOUS
10
143.8769949999999938
20
-85.7149950000000018
11
143.8315759999999841
21
-85.7453429999999912
0
LINE
8
BLACK
6
CONTINUOUS
10
143.8315759999999841
20
-85.7453429999999912
11
143.7779999999999916
21
-85.7560000000000002
0
LINE
8
BLACK
6
CONTINUOUS
10
143.7779999999999916
20
-85.7560000000000002
11
143.4979999999999905
21
-85.7560000000000002
0
LINE
8
BLACK
6
CONTINUOUS
10
143.4979999999999905
20
-85.7560000000000002
11
143.4444239999999979
21
-85.7453429999999912
0
LINE
8
BLACK
6
CONTINUOUS
10
143.4444239999999979
20
-85.7453429999999912
11
143.3990049999999883
21
-85.7149950000000018
0
LINE
8
BLACK
6
CONTINUOUS
10
143.3990049999999883
20
-85.7149950000000018
11
143.3686569999999847
21
-85.6695759999999922
0
LINE
8
BLACK
6
CONTINUOUS
10
143.3686569999999847
20
-85.6695759999999922
11
143.3580000000000041
21
-85.6159999999999997
0
LINE
8
BLACK
6
CONTINUOUS
10
143.3580000000000041
20
-85.6159999999999997
11
143.3580000000000041
21
-85.2759999999999962
0
LINE
8
BLACK
6
CONTINUOUS
10
143.3580000000000041
20
-85.2759999999999962
11
143.3686569999999847
21
-85.2224239999999895
0
LINE
8
BLACK
6
CONTINUOUS
10
143.3686569999999847
20
-85.2224239999999895
11
143.3990049999999883
21
-85.1770049999999941
0
LINE
8
BLACK
6
CONTINUOUS
10
143.3990049999999883
20
-85.1770049999999941
11
143.4444239999999979
21
-85.1466569999999905
0
LINE
8
BLACK
6
CONTINUOUS
10
143.4444239999999979
20
-85.1466569999999905
11
143.4979999999999905
21
-85.1359999999999957
0
LINE
8
BLACK
6
CONTINUOUS
10
143.4979999999999905
20
-85.1359999999999957
11
143.7779999999999916
21
-85.1359999999999957
0
LINE
8
BLACK
6
CONTINUOUS
10
143.7779999999999916
20
-85.1359999999999957
11
143.8315759999999841
21
-85.1466569999999905
0
LINE
8
BLACK
6
CONTINUOUS
10
144.7915759999999921
20
-85.1466569999999905
11
144.8369950000000017
21
-85.1770049999999941
0
LINE
8
BLACK
6
CONTINUOUS
10
144.8369950000000017
20
-85.1770049999999941
11
144.8673430000000053
21
-85.2224239999999895
0
LINE
8
BLACK
6
CONTINUOUS
10
144.8673430000000053
20
-85.2224239999999895
11
144.8779999999999859
21
-85.2759999999999962
0
LINE
8
BLACK
6
CONTINUOUS
10
144.8779999999999859
20
-85.2759999999999962
11
144.8779999999999859
21
-85.6159999999999997
0
LINE
8
BLACK
6
CONTINUOUS
10
144.8779999999999859
20
-85.6159999999999997
11
144.8673430000000053
21
-85.6695759999999922
0
LINE
8
BLACK
6
CONTINUOUS
10
144.8673430000000053
20
-85.6695759999999922
11
144.8369950000000017
21
-85.7149950000000018
0
LINE
8
BLACK
6
CONTINUOUS
10
144.8369950000000017
20
-85.7149950000000018
11
144.7915759999999921
21
-85.7453429999999912
0
LINE
8
BLACK
6
CONTINUOUS
10
144.7915759999999921
20
-85.7453429999999912
11
144.7379999999999995
21
-85.7560000000000002
0
LINE
8
BLACK
6
CONTINUOUS
10
144.7379999999999995
20
-85.7560000000000002
11
144.4579999999999984
21
-85.7560000000000002
0
LINE
8
BLACK
6
CONTINUOUS
10
144.4579999999999984
20
-85.7560000000000002
11
144.4044240000000059
21
-85.7453429999999912
0
LINE
8
BLACK
6
CONTINUOUS
10
144.4044240000000059
20
-85.7453429999999912
11
144.3590049999999962
21
-85.7149950000000018
0
LINE
8
BLACK
6
CONTINUOUS
10
144.3590049999999962
20
-85.7149950000000018
11
144.3286569999999926
21
-85.6695759999999922
0
LINE
8
BLACK
6
CONTINUOUS
10
144.3286569999999926
20
-85.6695759999999922
11
144.3179999999999836
21
-85.6159999999999997
0
LINE
8
BLACK
6
CONTINUOUS
10
144.3179999999999836
20
-85.6159999999999997
11
144.3179999999999836
21
-85.2759999999999962
0
LINE
8
BLACK
6
CONTINUOUS
10
144.3179999999999836
20
-85.2759999999999962
11
144.3286569999999926
21
-85.2224239999999895
0
LINE
8
BLACK
6
CONTINUOUS
10
144.3286569999999926
20
-85.2224239999999895
11
144.3590049999999962
21
-85.1770049999999941
0
LINE
8
BLACK
6
CONTINUOUS
10
144.3590049999999962
20
-85.1770049999999941
11
144.4044240000000059
21
-85.1466569999999905
0
LINE
8
BLACK
6
CONTINUOUS
10
144.4044240000000059
20
-85.1466569999999905
11
144.4579999999999984
21
-85.1359999999999957
0
LINE
8
BLACK
6
CONTINUOUS
10
144.4579999999999984
20
-85.1359999999999957
11
144.7379999999999995
21
-85.1359999999999957
0
LINE
8
BLACK
6
CONTINUOUS
10
144.7379999999999995
20
-85.1359999999999957
11
144.7915759999999921
21
-85.1466569999999905
0
LINE
8
BLACK
6
CONTINUOUS
10
175.7264579999999796
20
-76.722211999999999
11
175.526457999999991
21
-77.0686219999999906
0
LINE
8
BLACK
6
CONTINUOUS
10
175.526457999999991
20
-77.0686219999999906
11
174.9635419999999897
21
-76.743622000000002
0
LINE
8
BLACK
6
CONTINUOUS
10
174.9635419999999897
20
-76.743622000000002
11
175.1635419999999783
21
-76.3972119999999961
0
LINE
8
BLACK
6
CONTINUOUS
10
175.1635419999999783
20
-76.3972119999999961
11
175.7264579999999796
21
-76.722211999999999
0
LINE
8
BLACK
6
CONTINUOUS
10
176.0514579999999967
20
-76.1592950000000002
11
175.8514579999999796
21
-76.5057049999999919
0
LINE
8
BLACK
6
CONTINUOUS
10
175.8514579999999796
20
-76.5057049999999919
11
175.2885419999999783
21
-76.1807050000000032
0
LINE
8
BLACK
6
CONTINUOUS
10
175.2885419999999783
20
-76.1807050000000032
11
175.4885419999999954
21
-75.8342949999999973
0
LINE
8
BLACK
6
CONTINUOUS
10
175.4885419999999954
20
-75.8342949999999973
11
176.0514579999999967
21
-76.1592950000000002
0
LINE
8
BLACK
6
CONTINUOUS
10
172.3947599999999909
20
-75.7603719999999896
11
172.6285859999999843
21
-75.8953719999999947
0
LINE
8
BLACK
6
CONTINUOUS
10
172.6285859999999843
20
-75.8953719999999947
11
172.6681889999999839
21
-75.9301019999999909
0
LINE
8
BLACK
6
CONTINUOUS
10
172.6681889999999839
20
-75.9301019999999909
11
172.6914859999999976
21
-75.9773449999999997
0
LINE
8
BLACK
6
CONTINUOUS
10
172.6914859999999976
20
-75.9773449999999997
11
172.6949319999999943
21
-76.0299069999999944
0
LINE
8
BLACK
6
CONTINUOUS
10
172.6949319999999943
20
-76.0299069999999944
11
172.6779999999999973
21
-76.0797850000000011
0
LINE
8
BLACK
6
CONTINUOUS
10
172.6779999999999973
20
-76.0797850000000011
11
172.492999999999995
21
-76.4002150000000029
0
LINE
8
BLACK
6
CONTINUOUS
10
172.492999999999995
20
-76.4002150000000029
11
172.4582699999999988
21
-76.4398169999999908
0
LINE
8
BLACK
6
CONTINUOUS
10
172.4582699999999988
20
-76.4398169999999908
11
172.41102699999999
21
-76.4631139999999903
0
LINE
8
BLACK
6
CONTINUOUS
10
172.41102699999999
20
-76.4631139999999903
11
172.3584649999999954
21
-76.4665600000000012
0
LINE
8
BLACK
6
CONTINUOUS
10
172.3584649999999954
20
-76.4665600000000012
11
172.3085859999999911
21
-76.4496279999999899
0
LINE
8
BLACK
6
CONTINUOUS
10
172.3085859999999911
20
-76.4496279999999899
11
172.0747599999999977
21
-76.314627999999999
0
LINE
8
BLACK
6
CONTINUOUS
10
172.0747599999999977
20
-76.314627999999999
11
172.0351569999999981
21
-76.2798980000000029
0
LINE
8
BLACK
6
CONTINUOUS
10
172.0351569999999981
20
-76.2798980000000029
11
172.0118599999999844
21
-76.2326549999999941
0
LINE
8
BLACK
6
CONTINUOUS
10
172.0118599999999844
20
-76.2326549999999941
11
172.0084139999999877
21
-76.1800929999999994
0
LINE
8
BLACK
6
CONTINUOUS
10
172.0084139999999877
20
-76.1800929999999994
11
172.0253459999999848
21
-76.1302149999999926
0
LINE
8
BLACK
6
CONTINUOUS
10
172.0253459999999848
20
-76.1302149999999926
11
172.210345999999987
21
-75.8097849999999909
0
LINE
8
BLACK
6
CONTINUOUS
10
172.210345999999987
20
-75.8097849999999909
11
172.2450759999999832
21
-75.7701830000000029
0
LINE
8
BLACK
6
CONTINUOUS
10
172.2450759999999832
20
-75.7701830000000029
11
172.292318999999992
21
-75.7468860000000035
0
LINE
8
BLACK
6
CONTINUOUS
10
172.292318999999992
20
-75.7468860000000035
11
172.3448809999999867
21
-75.7434399999999926
0
LINE
8
BLACK
6
CONTINUOUS
10
172.3448809999999867
20
-75.7434399999999926
11
172.3947599999999909
21
-75.7603719999999896
0
LINE
8
BLACK
6
CONTINUOUS
10
174.081009999999992
20
-75.7722119999999961
11
173.8810100000000034
21
-76.118622000000002
0
LINE
8
BLACK
6
CONTINUOUS
10
173.8810100000000034
20
-76.118622000000002
11
173.3180940000000021
21
-75.7936219999999992
0
LINE
8
BLACK
6
CONTINUOUS
10
173.3180940000000021
20
-75.7936219999999992
11
173.5180939999999907
21
-75.4472119999999933
0
LINE
8
BLACK
6
CONTINUOUS
10
173.5180939999999907
20
-75.4472119999999933
11
174.081009999999992
21
-75.7722119999999961
0
LINE
8
BLACK
6
CONTINUOUS
10
171.511414000000002
20
-75.2503719999999987
11
171.7452399999999955
21
-75.3853719999999896
0
LINE
8
BLACK
6
CONTINUOUS
10
171.7452399999999955
20
-75.3853719999999896
11
171.7848429999999951
21
-75.420102
0
LINE
8
BLACK
6
CONTINUOUS
10
171.7848429999999951
20
-75.420102
11
171.8081399999999803
21
-75.4673449999999946
0
LINE
8
BLACK
6
CONTINUOUS
10
171.8081399999999803
20
-75.4673449999999946
11
171.8115860000000055
21
-75.5199070000000034
0
LINE
8
BLACK
6
CONTINUOUS
10
171.8115860000000055
20
-75.5199070000000034
11
171.79465399999998
21
-75.569784999999996
0
LINE
8
BLACK
6
CONTINUOUS
10
171.79465399999998
20
-75.569784999999996
11
171.6096540000000061
21
-75.8902149999999978
0
LINE
8
BLACK
6
CONTINUOUS
10
171.6096540000000061
20
-75.8902149999999978
11
171.5749239999999816
21
-75.9298169999999999
0
LINE
8
BLACK
6
CONTINUOUS
10
171.5749239999999816
20
-75.9298169999999999
11
171.5276810000000012
21
-75.9531139999999994
0
LINE
8
BLACK
6
CONTINUOUS
10
171.5276810000000012
20
-75.9531139999999994
11
171.4751189999999781
21
-75.9565599999999961
0
LINE
8
BLACK
6
CONTINUOUS
10
171.4751189999999781
20
-75.9565599999999961
11
171.4252400000000023
21
-75.939627999999999
0
LINE
8
BLACK
6
CONTINUOUS
10
171.4252400000000023
20
-75.939627999999999
11
171.1914139999999804
21
-75.8046279999999939
0
LINE
8
BLACK
6
CONTINUOUS
10
171.1914139999999804
20
-75.8046279999999939
11
171.1518109999999808
21
-75.7698979999999978
0
LINE
8
BLACK
6
CONTINUOUS
10
171.1518109999999808
20
-75.7698979999999978
11
171.1285139999999956
21
-75.7226550000000032
0
LINE
8
BLACK
6
CONTINUOUS
10
171.1285139999999956
20
-75.7226550000000032
11
171.1250679999999988
21
-75.6700929999999943
0
LINE
8
BLACK
6
CONTINUOUS
10
171.1250679999999988
20
-75.6700929999999943
11
171.1419999999999959
21
-75.6202150000000017
0
LINE
8
BLACK
6
CONTINUOUS
10
171.1419999999999959
20
-75.6202150000000017
11
171.3269999999999982
21
-75.299785
0
LINE
8
BLACK
6
CONTINUOUS
10
171.3269999999999982
20
-75.299785
11
171.3617299999999943
21
-75.2601829999999978
0
LINE
8
BLACK
6
CONTINUOUS
10
171.3617299999999943
20
-75.2601829999999978
11
171.4089730000000031
21
-75.2368859999999984
0
LINE
8
BLACK
6
CONTINUOUS
10
171.4089730000000031
20
-75.2368859999999984
11
171.4615349999999978
21
-75.2334400000000016
0
LINE
8
BLACK
6
CONTINUOUS
10
171.4615349999999978
20
-75.2334400000000016
11
171.511414000000002
21
-75.2503719999999987
0
LINE
8
BLACK
6
CONTINUOUS
10
176.3764579999999853
20
-75.5963780000000014
11
176.1764579999999967
21
-75.9427879999999931
0
LINE
8
BLACK
6
CONTINUOUS
10
176.1764579999999967
20
-75.9427879999999931
11
175.6135419999999954
21
-75.6177879999999902
0
LINE
8
BLACK
6
CONTINUOUS
10
175.6135419999999954
20
-75.6177879999999902
11
175.813541999999984
21
-75.2713779999999986
0
LINE
8
BLACK
6
CONTINUOUS
10
175.813541999999984
20
-75.2713779999999986
11
176.3764579999999853
21
-75.5963780000000014
0
LINE
8
BLACK
6
CONTINUOUS
10
172.9797189999999887
20
-74.6850129999999979
11
173.2611770000000035
21
-74.8475129999999922
0
LINE
8
BLACK
6
CONTINUOUS
10
173.2611770000000035
20
-74.8475129999999922
11
173.3088469999999859
21
-74.8893180000000029
0
LINE
8
BLACK
6
CONTINUOUS
10
173.3088469999999859
20
-74.8893180000000029
11
173.3368899999999826
21
-74.9461840000000024
0
LINE
8
BLACK
6
CONTINUOUS
10
173.3368899999999826
20
-74.9461840000000024
11
173.341037
21
-75.009451999999996
0
LINE
8
BLACK
6
CONTINUOUS
10
173.341037
20
-75.009451999999996
11
173.3206559999999854
21
-75.0694919999999968
0
LINE
8
BLACK
6
CONTINUOUS
10
173.3206559999999854
20
-75.0694919999999968
11
172.9531559999999786
21
-75.7060199999999952
0
LINE
8
BLACK
6
CONTINUOUS
10
172.9531559999999786
20
-75.7060199999999952
11
172.9113509999999962
21
-75.7536899999999918
0
LINE
8
BLACK
6
CONTINUOUS
10
172.9113509999999962
20
-75.7536899999999918
11
172.8544849999999826
21
-75.7817330000000027
0
LINE
8
BLACK
6
CONTINUOUS
10
172.8544849999999826
20
-75.7817330000000027
11
172.791216999999989
21
-75.7858799999999917
0
LINE
8
BLACK
6
CONTINUOUS
10
172.791216999999989
20
-75.7858799999999917
11
172.7311770000000024
21
-75.7654989999999913
0
LINE
8
BLACK
6
CONTINUOUS
10
172.7311770000000024
20
-75.7654989999999913
11
172.4497189999999875
21
-75.602998999999997
0
LINE
8
BLACK
6
CONTINUOUS
10
172.4497189999999875
20
-75.602998999999997
11
172.4020490000000052
21
-75.5611940000000004
0
LINE
8
BLACK
6
CONTINUOUS
10
172.4020490000000052
20
-75.5611940000000004
11
172.3740059999999801
21
-75.504328000000001
0
LINE
8
BLACK
6
CONTINUOUS
10
172.3740059999999801
20
-75.504328000000001
11
172.3698589999999911
21
-75.4410599999999931
0
LINE
8
BLACK
6
CONTINUOUS
10
172.3698589999999911
20
-75.4410599999999931
11
172.3902400000000057
21
-75.3810199999999924
0
LINE
8
BLACK
6
CONTINUOUS
10
172.3902400000000057
20
-75.3810199999999924
11
172.7577399999999841
21
-74.7444919999999939
0
LINE
8
BLACK
6
CONTINUOUS
10
172.7577399999999841
20
-74.7444919999999939
11
172.7995449999999948
21
-74.6968219999999974
0
LINE
8
BLACK
6
CONTINUOUS
10
172.7995449999999948
20
-74.6968219999999974
11
172.85641099999998
21
-74.6687790000000007
0
LINE
8
BLACK
6
CONTINUOUS
10
172.85641099999998
20
-74.6687790000000007
11
172.9196790000000021
21
-74.6646319999999974
0
LINE
8
BLACK
6
CONTINUOUS
10
172.9196790000000021
20
-74.6646319999999974
11
172.9797189999999887
21
-74.6850129999999979
0
LINE
8
BLACK
6
CONTINUOUS
10
172.1569949999999949
20
-74.2100130000000036
11
172.4384529999999813
21
-74.3725129999999979
0
LINE
8
BLACK
6
CONTINUOUS
10
172.4384529999999813
20
-74.3725129999999979
11
172.4861229999999921
21
-74.4143179999999944
0
LINE
8
BLACK
6
CONTINUOUS
10
172.4861229999999921
20
-74.4143179999999944
11
172.5141659999999888
21
-74.4711839999999938
0
LINE
8
BLACK
6
CONTINUOUS
10
172.5141659999999888
20
-74.4711839999999938
11
172.5183130000000062
21
-74.5344520000000017
0
LINE
8
BLACK
6
CONTINUOUS
10
172.5183130000000062
20
-74.5344520000000017
11
172.4979319999999916
21
-74.5944920000000025
0
LINE
8
BLACK
6
CONTINUOUS
10
172.4979319999999916
20
-74.5944920000000025
11
172.1304319999999848
21
-75.2310200000000009
0
LINE
8
BLACK
6
CONTINUOUS
10
172.1304319999999848
20
-75.2310200000000009
11
172.0886270000000025
21
-75.2786899999999974
0
LINE
8
BLACK
6
CONTINUOUS
10
172.0886270000000025
20
-75.2786899999999974
11
172.0317609999999888
21
-75.3067329999999941
0
LINE
8
BLACK
6
CONTINUOUS
10
172.0317609999999888
20
-75.3067329999999941
11
171.9684929999999952
21
-75.3108799999999974
0
LINE
8
BLACK
6
CONTINUOUS
10
171.9684929999999952
20
-75.3108799999999974
11
171.9084529999999802
21
-75.290498999999997
0
LINE
8
BLACK
6
CONTINUOUS
10
171.9084529999999802
20
-75.290498999999997
11
171.6269949999999938
21
-75.1279990000000026
0
LINE
8
BLACK
6
CONTINUOUS
10
171.6269949999999938
20
-75.1279990000000026
11
171.579324999999983
21
-75.0861939999999919
0
LINE
8
BLACK
6
CONTINUOUS
10
171.579324999999983
20
-75.0861939999999919
11
171.5512819999999863
21
-75.0293279999999925
0
LINE
8
BLACK
6
CONTINUOUS
10
171.5512819999999863
20
-75.0293279999999925
11
171.5471349999999973
21
-74.9660599999999988
0
LINE
8
BLACK
6
CONTINUOUS
10
171.5471349999999973
20
-74.9660599999999988
11
171.5675159999999835
21
-74.906019999999998
0
LINE
8
BLACK
6
CONTINUOUS
10
171.5675159999999835
20
-74.906019999999998
11
171.9350159999999903
21
-74.2694919999999996
0
LINE
8
BLACK
6
CONTINUOUS
10
171.9350159999999903
20
-74.2694919999999996
11
171.976821000000001
21
-74.2218220000000031
0
LINE
8
BLACK
6
CONTINUOUS
10
171.976821000000001
20
-74.2218220000000031
11
172.0336869999999863
21
-74.1937789999999922
0
LINE
8
BLACK
6
CONTINUOUS
10
172.0336869999999863
20
-74.1937789999999922
11
172.0969549999999799
21
-74.1896320000000031
0
LINE
8
BLACK
6
CONTINUOUS
10
172.0969549999999799
20
-74.1896320000000031
11
172.1569949999999949
21
-74.2100130000000036
0
LINE
8
BLACK
6
CONTINUOUS
10
174.7310099999999977
20
-74.6463779999999986
11
174.5310099999999807
21
-74.9927879999999902
0
LINE
8
BLACK
6
CONTINUOUS
10
174.5310099999999807
20
-74.9927879999999902
11
173.9680939999999794
21
-74.6677880000000016
0
LINE
8
BLACK
6
CONTINUOUS
10
173.9680939999999794
20
-74.6677880000000016
11
174.1680939999999964
21
-74.3213779999999957
0
LINE
8
BLACK
6
CONTINUOUS
10
174.1680939999999964
20
-74.3213779999999957
11
174.7310099999999977
21
-74.6463779999999986
0
LINE
8
BLACK
6
CONTINUOUS
10
171.3342710000000011
20
-73.735012999999995
11
171.6157289999999875
21
-73.8975130000000036
0
LINE
8
BLACK
6
CONTINUOUS
10
171.6157289999999875
20
-73.8975130000000036
11
171.6633989999999983
21
-73.9393180000000001
0
LINE
8
BLACK
6
CONTINUOUS
10
171.6633989999999983
20
-73.9393180000000001
11
171.691441999999995
21
-73.9961839999999995
0
LINE
8
BLACK
6
CONTINUOUS
10
171.691441999999995
20
-73.9961839999999995
11
171.695588999999984
21
-74.0594519999999932
0
LINE
8
BLACK
6
CONTINUOUS
10
171.695588999999984
20
-74.0594519999999932
11
171.6752079999999978
21
-74.1194919999999939
0
LINE
8
BLACK
6
CONTINUOUS
10
171.6752079999999978
20
-74.1194919999999939
11
171.307707999999991
21
-74.7560199999999924
0
LINE
8
BLACK
6
CONTINUOUS
10
171.307707999999991
20
-74.7560199999999924
11
171.2659029999999802
21
-74.8036900000000031
0
LINE
8
BLACK
6
CONTINUOUS
10
171.2659029999999802
20
-74.8036900000000031
11
171.209036999999995
21
-74.8317329999999998
0
LINE
8
BLACK
6
CONTINUOUS
10
171.209036999999995
20
-74.8317329999999998
11
171.1457690000000014
21
-74.8358800000000031
0
LINE
8
BLACK
6
CONTINUOUS
10
171.1457690000000014
20
-74.8358800000000031
11
171.0857289999999864
21
-74.8154990000000026
0
LINE
8
BLACK
6
CONTINUOUS
10
171.0857289999999864
20
-74.8154990000000026
11
170.804271
21
-74.6529989999999941
0
LINE
8
BLACK
6
CONTINUOUS
10
170.804271
20
-74.6529989999999941
11
170.7566009999999892
21
-74.6111939999999976
0
LINE
8
BLACK
6
CONTINUOUS
10
170.7566009999999892
20
-74.6111939999999976
11
170.7285579999999925
21
-74.5543279999999982
0
LINE
8
BLACK
6
CONTINUOUS
10
170.7285579999999925
20
-74.5543279999999982
11
170.7244110000000035
21
-74.4910599999999903
0
LINE
8
BLACK
6
CONTINUOUS
10
170.7244110000000035
20
-74.4910599999999903
11
170.7447919999999897
21
-74.4310200000000037
0
LINE
8
BLACK
6
CONTINUOUS
10
170.7447919999999897
20
-74.4310200000000037
11
171.1122919999999965
21
-73.7944919999999911
0
LINE
8
BLACK
6
CONTINUOUS
10
171.1122919999999965
20
-73.7944919999999911
11
171.1540969999999788
21
-73.7468219999999945
0
LINE
8
BLACK
6
CONTINUOUS
10
171.1540969999999788
20
-73.7468219999999945
11
171.2109629999999925
21
-73.7187789999999978
0
LINE
8
BLACK
6
CONTINUOUS
10
171.2109629999999925
20
-73.7187789999999978
11
171.2742309999999861
21
-73.7146319999999946
0
LINE
8
BLACK
6
CONTINUOUS
10
171.2742309999999861
20
-73.7146319999999946
11
171.3342710000000011
21
-73.735012999999995
0
LINE
8
BLACK
6
CONTINUOUS
10
178.6174029999999959
20
-73.4414179999999988
11
178.6660660000000007
21
-73.4739339999999999
0
LINE
8
BLACK
6
CONTINUOUS
10
178.6660660000000007
20
-73.4739339999999999
11
178.6985819999999876
21
-73.5225969999999904
0
LINE
8
BLACK
6
CONTINUOUS
10
178.6985819999999876
20
-73.5225969999999904
11
178.7099999999999795
21
-73.5799999999999983
0
LINE
8
BLACK
6
CONTINUOUS
10
178.7099999999999795
20
-73.5799999999999983
11
178.7099999999999795
21
-73.8799999999999955
0
LINE
8
BLACK
6
CONTINUOUS
10
178.7099999999999795
20
-73.8799999999999955
11
178.6985819999999876
21
-73.9374030000000033
0
LINE
8
BLACK
6
CONTINUOUS
10
178.6985819999999876
20
-73.9374030000000033
11
178.6660660000000007
21
-73.9860659999999939
0
LINE
8
BLACK
6
CONTINUOUS
10
178.6660660000000007
20
-73.9860659999999939
11
178.6174029999999959
21
-74.018581999999995
0
LINE
8
BLACK
6
CONTINUOUS
10
178.6174029999999959
20
-74.018581999999995
11
178.5600000000000023
21
-74.0300000000000011
0
LINE
8
BLACK
6
CONTINUOUS
10
178.5600000000000023
20
-74.0300000000000011
11
177.3849999999999909
21
-74.0300000000000011
0
LINE
8
BLACK
6
CONTINUOUS
10
177.3849999999999909
20
-74.0300000000000011
11
177.3275969999999973
21
-74.018581999999995
0
LINE
8
BLACK
6
CONTINUOUS
10
177.3275969999999973
20
-74.018581999999995
11
177.2789339999999925
21
-73.9860659999999939
0
LINE
8
BLACK
6
CONTINUOUS
10
177.2789339999999925
20
-73.9860659999999939
11
177.2464180000000056
21
-73.9374030000000033
0
LINE
8
BLACK
6
CONTINUOUS
10
177.2464180000000056
20
-73.9374030000000033
11
177.2349999999999852
21
-73.8799999999999955
0
LINE
8
BLACK
6
CONTINUOUS
10
177.2349999999999852
20
-73.8799999999999955
11
177.2349999999999852
21
-73.5799999999999983
0
LINE
8
BLACK
6
CONTINUOUS
10
177.2349999999999852
20
-73.5799999999999983
11
177.2464180000000056
21
-73.5225969999999904
0
LINE
8
BLACK
6
CONTINUOUS
10
177.2464180000000056
20
-73.5225969999999904
11
177.2789339999999925
21
-73.4739339999999999
0
LINE
8
BLACK
6
CONTINUOUS
10
177.2789339999999925
20
-73.4739339999999999
11
177.3275969999999973
21
-73.4414179999999988
0
LINE
8
BLACK
6
CONTINUOUS
10
177.3275969999999973
20
-73.4414179999999988
11
177.3849999999999909
21
-73.4299999999999926
0
LINE
8
BLACK
6
CONTINUOUS
10
177.3849999999999909
20
-73.4299999999999926
11
178.5600000000000023
21
-73.4299999999999926
0
LINE
8
BLACK
6
CONTINUOUS
10
178.5600000000000023
20
-73.4299999999999926
11
178.6174029999999959
21
-73.4414179999999988
0
LINE
8
BLACK
6
CONTINUOUS
10
174.079718999999983
20
-72.7797570000000036
11
174.3611769999999979
21
-72.9422569999999979
0
LINE
8
BLACK
6
CONTINUOUS
10
174.3611769999999979
20
-72.9422569999999979
11
174.4088469999999802
21
-72.9840619999999944
0
LINE
8
BLACK
6
CONTINUOUS
10
174.4088469999999802
20
-72.9840619999999944
11
174.4368900000000053
21
-73.0409279999999939
0
LINE
8
BLACK
6
CONTINUOUS
10
174.4368900000000053
20
-73.0409279999999939
11
174.4410369999999944
21
-73.1041960000000017
0
LINE
8
BLACK
6
CONTINUOUS
10
174.4410369999999944
20
-73.1041960000000017
11
174.4206559999999797
21
-73.1642360000000025
0
LINE
8
BLACK
6
CONTINUOUS
10
174.4206559999999797
20
-73.1642360000000025
11
174.0531560000000013
21
-73.8007640000000009
0
LINE
8
BLACK
6
CONTINUOUS
10
174.0531560000000013
20
-73.8007640000000009
11
174.0113509999999906
21
-73.8484339999999975
0
LINE
8
BLACK
6
CONTINUOUS
10
174.0113509999999906
20
-73.8484339999999975
11
173.9544850000000054
21
-73.8764769999999942
0
LINE
8
BLACK
6
CONTINUOUS
10
173.9544850000000054
20
-73.8764769999999942
11
173.8912169999999833
21
-73.8806239999999974
0
LINE
8
BLACK
6
CONTINUOUS
10
173.8912169999999833
20
-73.8806239999999974
11
173.8311769999999967
21
-73.860242999999997
0
LINE
8
BLACK
6
CONTINUOUS
10
173.8311769999999967
20
-73.860242999999997
11
173.5497189999999819
21
-73.6977430000000027
0
LINE
8
BLACK
6
CONTINUOUS
10
173.5497189999999819
20
-73.6977430000000027
11
173.5020489999999995
21
-73.6559379999999919
0
LINE
8
BLACK
6
CONTINUOUS
10
173.5020489999999995
20
-73.6559379999999919
11
173.4740060000000028
21
-73.5990719999999925
0
LINE
8
BLACK
6
CONTINUOUS
10
173.4740060000000028
20
-73.5990719999999925
11
173.4698589999999854
21
-73.5358039999999988
0
LINE
8
BLACK
6
CONTINUOUS
10
173.4698589999999854
20
-73.5358039999999988
11
173.49024
21
-73.4757639999999981
0
LINE
8
BLACK
6
CONTINUOUS
10
173.49024
20
-73.4757639999999981
11
173.8577399999999784
21
-72.8392359999999996
0
LINE
8
BLACK
6
CONTINUOUS
10
173.8577399999999784
20
-72.8392359999999996
11
173.8995449999999892
21
-72.7915660000000031
0
LINE
8
BLACK
6
CONTINUOUS
10
173.8995449999999892
20
-72.7915660000000031
11
173.9564110000000028
21
-72.7635229999999922
0
LINE
8
BLACK
6
CONTINUOUS
10
173.9564110000000028
20
-72.7635229999999922
11
174.0196789999999964
21
-72.7593760000000032
0
LINE
8
BLACK
6
CONTINUOUS
10
174.0196789999999964
20
-72.7593760000000032
11
174.079718999999983
21
-72.7797570000000036
0
LINE
8
BLACK
6
CONTINUOUS
10
180.4924029999999959
20
-72.4914179999999959
11
180.5410660000000007
21
-72.523933999999997
0
LINE
8
BLACK
6
CONTINUOUS
10
180.5410660000000007
20
-72.523933999999997
11
180.5735819999999876
21
-72.5725970000000018
0
LINE
8
BLACK
6
CONTINUOUS
10
180.5735819999999876
20
-72.5725970000000018
11
180.5849999999999795
21
-72.6299999999999955
0
LINE
8
BLACK
6
CONTINUOUS
10
180.5849999999999795
20
-72.6299999999999955
11
180.5849999999999795
21
-72.9299999999999926
0
LINE
8
BLACK
6
CONTINUOUS
10
180.5849999999999795
20
-72.9299999999999926
11
180.5735819999999876
21
-72.9874030000000005
0
LINE
8
BLACK
6
CONTINUOUS
10
180.5735819999999876
20
-72.9874030000000005
11
180.5410660000000007
21
-73.036065999999991
0
LINE
8
BLACK
6
CONTINUOUS
10
180.5410660000000007
20
-73.036065999999991
11
180.4924029999999959
21
-73.0685819999999921
0
LINE
8
BLACK
6
CONTINUOUS
10
180.4924029999999959
20
-73.0685819999999921
11
180.4350000000000023
21
-73.0799999999999983
0
LINE
8
BLACK
6
CONTINUOUS
10
180.4350000000000023
20
-73.0799999999999983
11
179.2599999999999909
21
-73.0799999999999983
0
LINE
8
BLACK
6
CONTINUOUS
10
179.2599999999999909
20
-73.0799999999999983
11
179.2025969999999973
21
-73.0685819999999921
0
LINE
8
BLACK
6
CONTINUOUS
10
179.2025969999999973
20
-73.0685819999999921
11
179.1539339999999925
21
-73.036065999999991
0
LINE
8
BLACK
6
CONTINUOUS
10
179.1539339999999925
20
-73.036065999999991
11
179.1214180000000056
21
-72.9874030000000005
0
LINE
8
BLACK
6
CONTINUOUS
10
179.1214180000000056
20
-72.9874030000000005
11
179.1099999999999852
21
-72.9299999999999926
0
LINE
8
BLACK
6
CONTINUOUS
10
179.1099999999999852
20
-72.9299999999999926
11
179.1099999999999852
21
-72.6299999999999955
0
LINE
8
BLACK
6
CONTINUOUS
10
179.1099999999999852
20
-72.6299999999999955
11
179.1214180000000056
21
-72.5725970000000018
0
LINE
8
BLACK
6
CONTINUOUS
10
179.1214180000000056
20
-72.5725970000000018
11
179.1539339999999925
21
-72.523933999999997
0
LINE
8
BLACK
6
CONTINUOUS
10
179.1539339999999925
20
-72.523933999999997
11
179.2025969999999973
21
-72.4914179999999959
0
LINE
8
BLACK
6
CONTINUOUS
10
179.2025969999999973
20
-72.4914179999999959
11
179.2599999999999909
21
-72.4799999999999898
0
LINE
8
BLACK
6
CONTINUOUS
10
179.2599999999999909
20
-72.4799999999999898
11
180.4350000000000023
21
-72.4799999999999898
0
LINE
8
BLACK
6
CONTINUOUS
10
180.4350000000000023
20
-72.4799999999999898
11
180.4924029999999959
21
-72.4914179999999959
0
LINE
8
BLACK
6
CONTINUOUS
10
172.4342709999999954
20
-71.8297570000000007
11
172.7157289999999819
21
-71.9922569999999951
0
LINE
8
BLACK
6
CONTINUOUS
10
172.7157289999999819
20
-71.9922569999999951
11
172.7633989999999926
21
-72.0340619999999916
0
LINE
8
BLACK
6
CONTINUOUS
10
172.7633989999999926
20
-72.0340619999999916
11
172.7914419999999893
21
-72.090927999999991
0
LINE
8
BLACK
6
CONTINUOUS
10
172.7914419999999893
20
-72.090927999999991
11
172.7955889999999783
21
-72.1541959999999989
0
LINE
8
BLACK
6
CONTINUOUS
10
172.7955889999999783
20
-72.1541959999999989
11
172.7752079999999921
21
-72.2142359999999996
0
LINE
8
BLACK
6
CONTINUOUS
10
172.7752079999999921
20
-72.2142359999999996
11
172.4077079999999853
21
-72.8507639999999981
0
LINE
8
BLACK
6
CONTINUOUS
10
172.4077079999999853
20
-72.8507639999999981
11
172.365903000000003
21
-72.8984339999999946
0
LINE
8
BLACK
6
CONTINUOUS
10
172.365903000000003
20
-72.8984339999999946
11
172.3090369999999893
21
-72.9264769999999913
0
LINE
8
BLACK
6
CONTINUOUS
10
172.3090369999999893
20
-72.9264769999999913
11
172.2457689999999957
21
-72.9306239999999946
0
LINE
8
BLACK
6
CONTINUOUS
10
172.2457689999999957
20
-72.9306239999999946
11
172.1857289999999807
21
-72.9102429999999941
0
LINE
8
BLACK
6
CONTINUOUS
10
172.1857289999999807
20
-72.9102429999999941
11
171.9042709999999943
21
-72.7477429999999998
0
LINE
8
BLACK
6
CONTINUOUS
10
171.9042709999999943
20
-72.7477429999999998
11
171.8566009999999835
21
-72.7059380000000033
0
LINE
8
BLACK
6
CONTINUOUS
10
171.8566009999999835
20
-72.7059380000000033
11
171.8285579999999868
21
-72.6490719999999897
0
LINE
8
BLACK
6
CONTINUOUS
10
171.8285579999999868
20
-72.6490719999999897
11
171.8244109999999978
21
-72.585803999999996
0
LINE
8
BLACK
6
CONTINUOUS
10
171.8244109999999978
20
-72.585803999999996
11
171.844791999999984
21
-72.5257639999999952
0
LINE
8
BLACK
6
CONTINUOUS
10
171.844791999999984
20
-72.5257639999999952
11
172.2122919999999908
21
-71.8892359999999968
0
LINE
8
BLACK
6
CONTINUOUS
10
172.2122919999999908
20
-71.8892359999999968
11
172.2540970000000016
21
-71.8415660000000003
0
LINE
8
BLACK
6
CONTINUOUS
10
172.2540970000000016
20
-71.8415660000000003
11
172.3109629999999868
21
-71.8135230000000035
0
LINE
8
BLACK
6
CONTINUOUS
10
172.3109629999999868
20
-71.8135230000000035
11
172.3742309999999804
21
-71.8093760000000003
0
LINE
8
BLACK
6
CONTINUOUS
10
172.3742309999999804
20
-71.8093760000000003
11
172.4342709999999954
21
-71.8297570000000007
0
LINE
8
BLACK
6
CONTINUOUS
10
178.6174029999999959
20
-71.5414179999999931
11
178.6660660000000007
21
-71.5739339999999942
0
LINE
8
BLACK
6
CONTINUOUS
10
178.6660660000000007
20
-71.5739339999999942
11
178.6985819999999876
21
-71.622596999999999
0
LINE
8
BLACK
6
CONTINUOUS
10
178.6985819999999876
20
-71.622596999999999
11
178.7099999999999795
21
-71.6799999999999926
0
LINE
8
BLACK
6
CONTINUOUS
10
178.7099999999999795
20
-71.6799999999999926
11
178.7099999999999795
21
-71.9799999999999898
0
LINE
8
BLACK
6
CONTINUOUS
10
178.7099999999999795
20
-71.9799999999999898
11
178.6985819999999876
21
-72.0374029999999976
0
LINE
8
BLACK
6
CONTINUOUS
10
178.6985819999999876
20
-72.0374029999999976
11
178.6660660000000007
21
-72.0860660000000024
0
LINE
8
BLACK
6
CONTINUOUS
10
178.6660660000000007
20
-72.0860660000000024
11
178.6174029999999959
21
-72.1185820000000035
0
LINE
8
BLACK
6
CONTINUOUS
10
178.6174029999999959
20
-72.1185820000000035
11
178.5600000000000023
21
-72.1299999999999955
0
LINE
8
BLACK
6
CONTINUOUS
10
178.5600000000000023
20
-72.1299999999999955
11
177.3849999999999909
21
-72.1299999999999955
0
LINE
8
BLACK
6
CONTINUOUS
10
177.3849999999999909
20
-72.1299999999999955
11
177.3275969999999973
21
-72.1185820000000035
0
LINE
8
BLACK
6
CONTINUOUS
10
177.3275969999999973
20
-72.1185820000000035
11
177.2789339999999925
21
-72.0860660000000024
0
LINE
8
BLACK
6
CONTINUOUS
10
177.2789339999999925
20
-72.0860660000000024
11
177.2464180000000056
21
-72.0374029999999976
0
LINE
8
BLACK
6
CONTINUOUS
10
177.2464180000000056
20
-72.0374029999999976
11
177.2349999999999852
21
-71.9799999999999898
0
LINE
8
BLACK
6
CONTINUOUS
10
177.2349999999999852
20
-71.9799999999999898
11
177.2349999999999852
21
-71.6799999999999926
0
LINE
8
BLACK
6
CONTINUOUS
10
177.2349999999999852
20
-71.6799999999999926
11
177.2464180000000056
21
-71.622596999999999
0
LINE
8
BLACK
6
CONTINUOUS
10
177.2464180000000056
20
-71.622596999999999
11
177.2789339999999925
21
-71.5739339999999942
0
LINE
8
BLACK
6
CONTINUOUS
10
177.2789339999999925
20
-71.5739339999999942
11
177.3275969999999973
21
-71.5414179999999931
0
LINE
8
BLACK
6
CONTINUOUS
10
177.3275969999999973
20
-71.5414179999999931
11
177.3849999999999909
21
-71.5300000000000011
0
LINE
8
BLACK
6
CONTINUOUS
10
177.3849999999999909
20
-71.5300000000000011
11
178.5600000000000023
21
-71.5300000000000011
0
LINE
8
BLACK
6
CONTINUOUS
10
178.5600000000000023
20
-71.5300000000000011
11
178.6174029999999959
21
-71.5414179999999931
  0
ENDSEC
  0
EOF
