  0
SECTION
  2
HEADER
  9
$ANGBASE
  50
0.0
  9
$ANGDIR
  70
1
  9
$MEASUREMENT
  70
1
  0
ENDSEC
  0
SECTION
  2
TABLES
  0
TABLE
  2
LTYPE
  70
4
  0
LTYPE
  5
40F
  2
CONTINUOUS
  70
0
  3
Solid line
  72
65
  73
0
  40
0.0
  0
LTYPE
  5
410
  2
DASHDOT
 70
0
  3
Dash Dot ____ _ ____ _
 72
65
 73
4
 40
2.0
 49
1.25
 49
-0.25
 49
0.25
 49
-0.25
  0
LTYPE
  5
411
  2
DASHED
 70
0
  3
Dashed __ __ __ __ __
 72
65
 73
2
 40
0.75
 49
0.5
 49
-0.25
  0
LTYPE
  5
43B
  2
DOTTED
 70
0
  3
Dotted .  .  .  .
 72
65
 73
2
 40
0.2
 49
0.0
 49
-0.2
  0
ENDTAB
  0
TABLE
  2
STYLE
  70
4
  0
STYLE
  2
KICAD
  70
0
  40
0
  41
1
  42
1
  50
0
  71
0
  3
isocp.shx
  0
STYLE
  2
KICADB
  70
0
  40
0
  41
1
  42
1
  50
0
  71
0
  3
isocp.shx
  0
STYLE
  2
KICADI
  70
0
  40
0
  41
1
  42
1
  50
15
  71
0
  3
isocp.shx
  0
STYLE
  2
KICADBI
  70
0
  40
0
  41
1
  42
1
  50
15
  71
0
  3
isocp.shx
  0
ENDTAB
  0
TABLE
  2
LAYER
  70
1
  0
LAYER
  2
BLACK
  70
0
  62
7
  6
CONTINUOUS
  0
ENDTAB
  0
ENDSEC
  0
SECTION
  2
ENTITIES
0
LINE
8
BLACK
6
CONTINUOUS
10
182.3154250000000047
20
-72.7924579999999963
11
182.7611440000000016
21
-73.0497999999999905
0
LINE
8
BLACK
6
CONTINUOUS
10
182.7611440000000016
20
-73.0497999999999905
11
185.0491710000000012
21
-73.0497999999999905
0
LINE
8
BLACK
6
CONTINUOUS
10
185.0491710000000012
20
-73.0497999999999905
11
185.0491710000000012
21
-73.049798999999993
0
LINE
8
BLACK
6
CONTINUOUS
10
185.0491710000000012
20
-73.049798999999993
11
185.2597470000000044
21
-72.9275619999999947
0
LINE
8
BLACK
6
CONTINUOUS
10
185.2597470000000044
20
-72.9275619999999947
11
185.3287029999999902
21
-72.9106620000000021
0
LINE
8
BLACK
6
CONTINUOUS
10
185.3287029999999902
20
-72.9106620000000021
11
185.3958489999999983
21
-72.9337249999999955
0
LINE
8
BLACK
6
CONTINUOUS
10
185.3958489999999983
20
-72.9337249999999955
11
185.4313559999999939
21
-72.9722229999999996
0
LINE
8
BLACK
6
CONTINUOUS
10
185.4313559999999939
20
-72.9722229999999996
11
187.1695059999999842
21
-75.9007440000000031
0
LINE
8
BLACK
6
CONTINUOUS
10
187.1695059999999842
20
-75.9007440000000031
11
187.1870739999999955
21
-75.9695329999999984
0
LINE
8
BLACK
6
CONTINUOUS
10
187.1870739999999955
20
-75.9695329999999984
11
187.1646639999999877
21
-76.0369000000000028
0
LINE
8
BLACK
6
CONTINUOUS
10
187.1646639999999877
20
-76.0369000000000028
11
187.1241540000000043
21
-76.0741730000000018
0
LINE
8
BLACK
6
CONTINUOUS
10
187.1241540000000043
20
-76.0741730000000018
11
186.242416999999989
21
-76.5832449999999909
0
LINE
8
BLACK
6
CONTINUOUS
10
186.242416999999989
20
-76.5832449999999909
11
186.242416999999989
21
-77.5849659999999943
0
LINE
8
BLACK
6
CONTINUOUS
10
186.242416999999989
20
-77.5849659999999943
11
186.2224149999999838
21
-77.6530869999999993
0
LINE
8
BLACK
6
CONTINUOUS
10
186.2224149999999838
20
-77.6530869999999993
11
186.1687589999999943
21
-77.6995799999999974
0
LINE
8
BLACK
6
CONTINUOUS
10
186.1687589999999943
20
-77.6995799999999974
11
186.1164169999999842
21
-77.7109659999999991
0
LINE
8
BLACK
6
CONTINUOUS
10
186.1164169999999842
20
-77.7109659999999991
11
181.3770429999999863
21
-77.7109659999999991
0
LINE
8
BLACK
6
CONTINUOUS
10
181.3770429999999863
20
-77.7109659999999991
11
181.3089219999999955
21
-77.6909639999999939
0
LINE
8
BLACK
6
CONTINUOUS
10
181.3089219999999955
20
-77.6909639999999939
11
181.2679239999999936
21
-77.6479659999999967
0
LINE
8
BLACK
6
CONTINUOUS
10
181.2679239999999936
20
-77.6479659999999967
11
181.0733559999999898
21
-77.3109659999999934
0
LINE
8
BLACK
6
CONTINUOUS
10
181.0733559999999898
20
-77.3109659999999934
11
180.1461029999999823
21
-77.3109659999999934
0
LINE
8
BLACK
6
CONTINUOUS
10
180.1461029999999823
20
-77.3109659999999934
11
180.0779819999999916
21
-77.2909640000000024
0
LINE
8
BLACK
6
CONTINUOUS
10
180.0779819999999916
20
-77.2909640000000024
11
180.0369839999999897
21
-77.247965999999991
0
LINE
8
BLACK
6
CONTINUOUS
10
180.0369839999999897
20
-77.247965999999991
11
179.8597299999999848
21
-76.9409529999999933
0
LINE
8
BLACK
6
CONTINUOUS
10
179.8597299999999848
20
-76.9409529999999933
11
179.8429919999999811
21
-76.8719579999999922
0
LINE
8
BLACK
6
CONTINUOUS
10
179.8429919999999811
20
-76.8719579999999922
11
179.8597299999999848
21
-76.8149530000000027
0
LINE
8
BLACK
6
CONTINUOUS
10
179.8597299999999848
20
-76.8149530000000027
11
180.3233569999999872
21
-76.0119279999999975
0
LINE
8
BLACK
6
CONTINUOUS
10
180.3233569999999872
20
-76.0119279999999975
11
180.321091999999993
21
-76.0034739999999971
0
LINE
8
BLACK
6
CONTINUOUS
10
180.321091999999993
20
-76.0034739999999971
11
180.3227819999999895
21
-75.9324979999999954
0
LINE
8
BLACK
6
CONTINUOUS
10
180.3227819999999895
20
-75.9324979999999954
11
180.335489999999993
21
-75.9048259999999999
0
LINE
8
BLACK
6
CONTINUOUS
10
180.335489999999993
20
-75.9048259999999999
11
180.400006999999988
21
-75.7999859999999899
0
LINE
8
BLACK
6
CONTINUOUS
10
180.400006999999988
20
-75.7999859999999899
11
182.1438409999999806
21
-72.837656999999993
0
LINE
8
BLACK
6
CONTINUOUS
10
182.1438409999999806
20
-72.837656999999993
11
182.195635999999979
21
-72.7890999999999906
0
LINE
8
BLACK
6
CONTINUOUS
10
182.195635999999979
20
-72.7890999999999906
11
182.2654599999999903
21
-72.776252999999997
0
LINE
8
BLACK
6
CONTINUOUS
10
182.2654599999999903
20
-72.776252999999997
11
182.3154250000000047
21
-72.7924579999999963
0
LINE
8
BLACK
6
CONTINUOUS
10
160.3741959999999835
20
-105.2596479999999985
11
160.4422859999999957
21
-105.2797559999999919
0
LINE
8
BLACK
6
CONTINUOUS
10
160.4422859999999957
20
-105.2797559999999919
11
160.4886949999999786
21
-105.3334839999999986
0
LINE
8
BLACK
6
CONTINUOUS
10
160.4886949999999786
20
-105.3334839999999986
11
160.5
21
-105.3856479999999891
0
LINE
8
BLACK
6
CONTINUOUS
10
160.5
20
-105.3856479999999891
11
160.5
21
-106.4041259999999909
0
LINE
8
BLACK
6
CONTINUOUS
10
160.5
20
-106.4041259999999909
11
161.4694559999999797
21
-106.9638419999999996
0
LINE
8
BLACK
6
CONTINUOUS
10
161.4694559999999797
20
-106.9638419999999996
11
161.5184490000000039
21
-107.0152239999999892
0
LINE
8
BLACK
6
CONTINUOUS
10
161.5184490000000039
20
-107.0152239999999892
11
161.5318849999999884
21
-107.084937999999994
0
LINE
8
BLACK
6
CONTINUOUS
10
161.5318849999999884
20
-107.084937999999994
11
161.5155749999999841
21
-107.1359609999999947
0
LINE
8
BLACK
6
CONTINUOUS
10
161.5155749999999841
20
-107.1359609999999947
11
159.1458879999999851
21
-111.2403800000000018
0
LINE
8
BLACK
6
CONTINUOUS
10
159.1458879999999851
20
-111.2403800000000018
11
159.0945059999999955
21
-111.2893729999999977
0
LINE
8
BLACK
6
CONTINUOUS
10
159.0945059999999955
20
-111.2893729999999977
11
159.0367689999999925
21
-111.30337999999999
0
LINE
8
BLACK
6
CONTINUOUS
10
159.0367689999999925
20
-111.30337999999999
11
158.6476329999999848
21
-111.3033789999999925
0
LINE
8
BLACK
6
CONTINUOUS
10
158.6476329999999848
20
-111.3033789999999925
11
158.1840069999999798
21
-112.1064049999999952
0
LINE
8
BLACK
6
CONTINUOUS
10
158.1840069999999798
20
-112.1064049999999952
11
158.1326249999999902
21
-112.155397999999991
0
LINE
8
BLACK
6
CONTINUOUS
10
158.1326249999999902
20
-112.155397999999991
11
158.0748879999999872
21
-112.1694049999999976
0
LINE
8
BLACK
6
CONTINUOUS
10
158.0748879999999872
20
-112.1694049999999976
11
157.7548749999999984
21
-112.1694049999999976
0
LINE
8
BLACK
6
CONTINUOUS
10
157.7548749999999984
20
-112.1694049999999976
11
157.6867539999999792
21
-112.1494029999999924
0
LINE
8
BLACK
6
CONTINUOUS
10
157.6867539999999792
20
-112.1494029999999924
11
157.6462379999999825
21
-112.1072329999999937
0
LINE
8
BLACK
6
CONTINUOUS
10
157.6462379999999825
20
-112.1072329999999937
11
154.4676759999999831
21
-106.6972579999999908
0
LINE
8
BLACK
6
CONTINUOUS
10
154.4676759999999831
20
-106.6972579999999908
11
154.4518599999999822
21
-106.6341609999999918
0
LINE
8
BLACK
6
CONTINUOUS
10
154.4518599999999822
20
-106.6341609999999918
11
153.9840069999999912
21
-105.8238149999999962
0
LINE
8
BLACK
6
CONTINUOUS
10
153.9840069999999912
20
-105.8238149999999962
11
153.9672689999999875
21
-105.7548199999999952
0
LINE
8
BLACK
6
CONTINUOUS
10
153.9672689999999875
20
-105.7548199999999952
11
153.9840069999999912
21
-105.6978149999999914
0
LINE
8
BLACK
6
CONTINUOUS
10
153.9840069999999912
20
-105.6978149999999914
11
154.1612590000000012
21
-105.3908039999999886
0
LINE
8
BLACK
6
CONTINUOUS
10
154.1612590000000012
20
-105.3908039999999886
11
154.2126409999999908
21
-105.3418109999999928
0
LINE
8
BLACK
6
CONTINUOUS
10
154.2126409999999908
20
-105.3418109999999928
11
154.2703779999999938
21
-105.3278040000000004
0
LINE
8
BLACK
6
CONTINUOUS
10
154.2703779999999938
20
-105.3278040000000004
11
155.1976349999999911
21
-105.3278040000000004
0
LINE
8
BLACK
6
CONTINUOUS
10
155.1976349999999911
20
-105.3278040000000004
11
155.2345389999999838
21
-105.290900999999991
0
LINE
8
BLACK
6
CONTINUOUS
10
155.2345389999999838
20
-105.290900999999991
11
155.2367490000000032
21
-105.2931109999999961
0
LINE
8
BLACK
6
CONTINUOUS
10
155.2367490000000032
20
-105.2931109999999961
11
155.2712919999999883
21
-105.2631799999999913
0
LINE
8
BLACK
6
CONTINUOUS
10
155.2712919999999883
20
-105.2631799999999913
11
155.3238299999999867
21
-105.2517939999999896
0
LINE
8
BLACK
6
CONTINUOUS
10
155.3238299999999867
20
-105.2517939999999896
11
160.3741959999999835
21
-105.2596479999999985
0
LINE
8
BLACK
6
CONTINUOUS
10
158.1430090000000064
20
-97.3802049999999895
11
158.1840069999999798
21
-97.4232030000000009
0
LINE
8
BLACK
6
CONTINUOUS
10
158.1840069999999798
20
-97.4232030000000009
11
158.6476329999999848
21
-98.2262279999999919
0
LINE
8
BLACK
6
CONTINUOUS
10
158.6476329999999848
20
-98.2262279999999919
11
158.6936919999999986
21
-98.2385699999999957
0
LINE
8
BLACK
6
CONTINUOUS
10
158.6936919999999986
20
-98.2385699999999957
11
158.7543149999999912
21
-98.2755209999999977
0
LINE
8
BLACK
6
CONTINUOUS
10
158.7543149999999912
20
-98.2755209999999977
11
158.770717999999988
21
-98.2981829999999945
0
LINE
8
BLACK
6
CONTINUOUS
10
158.770717999999988
20
-98.2981829999999945
11
161.151015000000001
21
-102.5009799999999984
0
LINE
8
BLACK
6
CONTINUOUS
10
161.151015000000001
20
-102.5009799999999984
11
161.1671809999999994
21
-102.5701109999999971
0
LINE
8
BLACK
6
CONTINUOUS
10
161.1671809999999994
20
-102.5701109999999971
11
161.1434059999999988
21
-102.6370089999999919
0
LINE
8
BLACK
6
CONTINUOUS
10
161.1434059999999988
20
-102.6370089999999919
11
161.104377999999997
21
-102.6721929999999929
0
LINE
8
BLACK
6
CONTINUOUS
10
161.104377999999997
20
-102.6721929999999929
11
160.5
21
-103.0211319999999944
0
LINE
8
BLACK
6
CONTINUOUS
10
160.5
20
-103.0211319999999944
11
160.5
21
-104.0705069999999921
0
LINE
8
BLACK
6
CONTINUOUS
10
160.5
20
-104.0705069999999921
11
160.4799979999999948
21
-104.1386279999999971
0
LINE
8
BLACK
6
CONTINUOUS
10
160.4799979999999948
20
-104.1386279999999971
11
160.4263420000000053
21
-104.1851209999999952
0
LINE
8
BLACK
6
CONTINUOUS
10
160.4263420000000053
20
-104.1851209999999952
11
160.3737119999999834
21
-104.1965069999999969
0
LINE
8
BLACK
6
CONTINUOUS
10
160.3737119999999834
20
-104.1965069999999969
11
154.2589539999999886
21
-104.1825139999999976
0
LINE
8
BLACK
6
CONTINUOUS
10
154.2589539999999886
20
-104.1825139999999976
11
154.1908789999999954
21
-104.1623559999999884
0
LINE
8
BLACK
6
CONTINUOUS
10
154.1908789999999954
20
-104.1623559999999884
11
154.1501229999999794
21
-104.1195139999999952
0
LINE
8
BLACK
6
CONTINUOUS
10
154.1501229999999794
20
-104.1195139999999952
11
153.9840069999999912
21
-103.8317909999999955
0
LINE
8
BLACK
6
CONTINUOUS
10
153.9840069999999912
20
-103.8317909999999955
11
153.9672689999999875
21
-103.762794999999997
0
LINE
8
BLACK
6
CONTINUOUS
10
153.9672689999999875
20
-103.762794999999997
11
153.9840069999999912
21
-103.7057909999999907
0
LINE
8
BLACK
6
CONTINUOUS
10
153.9840069999999912
20
-103.7057909999999907
11
154.4476349999999911
21
-102.9027659999999997
0
LINE
8
BLACK
6
CONTINUOUS
10
154.4476349999999911
20
-102.9027659999999997
11
154.4476349999999911
21
-102.9027650000000023
0
LINE
8
BLACK
6
CONTINUOUS
10
154.4476349999999911
20
-102.9027650000000023
11
154.2530669999999873
21
-102.5657659999999964
0
LINE
8
BLACK
6
CONTINUOUS
10
154.2530669999999873
20
-102.5657659999999964
11
154.2363289999999836
21
-102.4967709999999954
0
LINE
8
BLACK
6
CONTINUOUS
10
154.2363289999999836
20
-102.4967709999999954
11
154.2530669999999873
21
-102.4397659999999917
0
LINE
8
BLACK
6
CONTINUOUS
10
154.2530669999999873
20
-102.4397659999999917
11
156.6493810000000053
21
-98.2892289999999917
0
LINE
8
BLACK
6
CONTINUOUS
10
156.6493810000000053
20
-98.2892289999999917
11
156.7007629999999949
21
-98.2402359999999959
0
LINE
8
BLACK
6
CONTINUOUS
10
156.7007629999999949
20
-98.2402359999999959
11
156.758499999999998
21
-98.2262289999999894
0
LINE
8
BLACK
6
CONTINUOUS
10
156.758499999999998
20
-98.2262289999999894
11
157.1476329999999848
21
-98.2262289999999894
0
LINE
8
BLACK
6
CONTINUOUS
10
157.1476329999999848
20
-98.2262289999999894
11
157.1476329999999848
21
-98.2262279999999919
0
LINE
8
BLACK
6
CONTINUOUS
10
157.1476329999999848
20
-98.2262279999999919
11
157.6112609999999847
21
-97.4232030000000009
0
LINE
8
BLACK
6
CONTINUOUS
10
157.6112609999999847
20
-97.4232030000000009
11
157.6626430000000028
21
-97.3742099999999908
0
LINE
8
BLACK
6
CONTINUOUS
10
157.6626430000000028
20
-97.3742099999999908
11
157.7203800000000058
21
-97.3602029999999985
0
LINE
8
BLACK
6
CONTINUOUS
10
157.7203800000000058
20
-97.3602029999999985
11
158.0748879999999872
21
-97.3602029999999985
0
LINE
8
BLACK
6
CONTINUOUS
10
158.0748879999999872
20
-97.3602029999999985
11
158.1430090000000064
21
-97.3802049999999895
0
LINE
8
BLACK
6
CONTINUOUS
10
163.9785249999999905
20
-96.2800019999999961
11
164.0250179999999887
21
-96.3336579999999998
0
LINE
8
BLACK
6
CONTINUOUS
10
164.0250179999999887
20
-96.3336579999999998
11
164.0294179999999926
21
-96.3446280000000002
0
LINE
8
BLACK
6
CONTINUOUS
10
164.0294179999999926
20
-96.3446280000000002
11
164.7299999999999898
21
-98.359999000000002
0
LINE
8
BLACK
6
CONTINUOUS
10
164.7299999999999898
20
-98.359999000000002
11
164.7299999999999898
21
-98.3599999999999994
0
LINE
8
BLACK
6
CONTINUOUS
10
164.7299999999999898
20
-98.3599999999999994
11
166.0178259999999852
21
-99.0523400000000009
0
LINE
8
BLACK
6
CONTINUOUS
10
166.0178259999999852
20
-99.0523400000000009
11
166.0683539999999994
21
-99.1022139999999894
0
LINE
8
BLACK
6
CONTINUOUS
10
166.0683539999999994
20
-99.1022139999999894
11
166.0838980000000049
21
-99.1714879999999965
0
LINE
8
BLACK
6
CONTINUOUS
10
166.0838980000000049
20
-99.1714879999999965
11
166.0673060000000021
21
-99.2262769999999961
0
LINE
8
BLACK
6
CONTINUOUS
10
166.0673060000000021
20
-99.2262769999999961
11
164.4965269999999862
21
-101.9493399999999923
0
LINE
8
BLACK
6
CONTINUOUS
10
164.4965269999999862
20
-101.9493399999999923
11
164.4451629999999795
21
-101.9983529999999945
0
LINE
8
BLACK
6
CONTINUOUS
10
164.4451629999999795
20
-101.9983529999999945
11
164.3754549999999881
21
-102.0118159999999961
0
LINE
8
BLACK
6
CONTINUOUS
10
164.3754549999999881
20
-102.0118159999999961
11
164.3592369999999789
21
-102.0091979999999978
0
LINE
8
BLACK
6
CONTINUOUS
10
164.3592369999999789
20
-102.0091979999999978
11
163.1846439999999916
21
-101.7399999999999949
0
LINE
8
BLACK
6
CONTINUOUS
10
163.1846439999999916
20
-101.7399999999999949
11
162.718986000000001
21
-101.7399999999999949
0
LINE
8
BLACK
6
CONTINUOUS
10
162.718986000000001
20
-101.7399999999999949
11
162.2826179999999852
21
-101.991934999999998
0
LINE
8
BLACK
6
CONTINUOUS
10
162.2826179999999852
20
-101.991934999999998
11
162.2136219999999867
21
-102.0086730000000017
0
LINE
8
BLACK
6
CONTINUOUS
10
162.2136219999999867
20
-102.0086730000000017
11
162.1465299999999843
21
-101.9854519999999951
0
LINE
8
BLACK
6
CONTINUOUS
10
162.1465299999999843
20
-101.9854519999999951
11
162.1106470000000002
21
-101.9460720000000009
0
LINE
8
BLACK
6
CONTINUOUS
10
162.1106470000000002
20
-101.9460720000000009
11
159.2966499999999996
21
-97.0983599999999996
0
LINE
8
BLACK
6
CONTINUOUS
10
159.2966499999999996
20
-97.0983599999999996
11
159.2965020000000038
21
-97.0981039999999922
0
LINE
8
BLACK
6
CONTINUOUS
10
159.2965020000000038
20
-97.0981039999999922
11
159.1591509999999801
21
-96.8602029999999985
0
LINE
8
BLACK
6
CONTINUOUS
10
159.1591509999999801
20
-96.8602029999999985
11
159.1424130000000048
21
-96.791207
0
LINE
8
BLACK
6
CONTINUOUS
10
159.1424130000000048
20
-96.791207
11
159.1591509999999801
21
-96.7342029999999937
0
LINE
8
BLACK
6
CONTINUOUS
10
159.1591509999999801
20
-96.7342029999999937
11
159.3364059999999824
21
-96.4271909999999934
0
LINE
8
BLACK
6
CONTINUOUS
10
159.3364059999999824
20
-96.4271909999999934
11
159.3877889999999979
21
-96.3781979999999976
0
LINE
8
BLACK
6
CONTINUOUS
10
159.3877889999999979
20
-96.3781979999999976
11
159.4455250000000035
21
-96.364190999999991
0
LINE
8
BLACK
6
CONTINUOUS
10
159.4455250000000035
20
-96.364190999999991
11
160.37277899999998
21
-96.364190999999991
0
LINE
8
BLACK
6
CONTINUOUS
10
160.37277899999998
20
-96.364190999999991
11
160.3818430000000035
21
-96.3551259999999985
0
LINE
8
BLACK
6
CONTINUOUS
10
160.3818430000000035
20
-96.3551259999999985
11
160.3927799999999877
21
-96.3178789999999907
0
LINE
8
BLACK
6
CONTINUOUS
10
160.3927799999999877
20
-96.3178789999999907
11
160.4464360000000056
21
-96.2713859999999926
0
LINE
8
BLACK
6
CONTINUOUS
10
160.4464360000000056
20
-96.2713859999999926
11
160.4987779999999873
21
-96.2599999999999909
0
LINE
8
BLACK
6
CONTINUOUS
10
160.4987779999999873
20
-96.2599999999999909
11
163.9104039999999998
21
-96.2599999999999909
0
LINE
8
BLACK
6
CONTINUOUS
10
163.9104039999999998
20
-96.2599999999999909
11
163.9785249999999905
21
-96.2800019999999961
0
LINE
8
BLACK
6
CONTINUOUS
10
143.7421209999999974
20
-73.6400019999999955
11
143.7886139999999955
21
-73.6936579999999992
0
LINE
8
BLACK
6
CONTINUOUS
10
143.7886139999999955
20
-73.6936579999999992
11
143.7999999999999829
21
-73.7459999999999951
0
LINE
8
BLACK
6
CONTINUOUS
10
143.7999999999999829
20
-73.7459999999999951
11
143.7999999999999829
21
-81.2740000000000009
0
LINE
8
BLACK
6
CONTINUOUS
10
143.7999999999999829
20
-81.2740000000000009
11
143.7799980000000062
21
-81.3421209999999917
0
LINE
8
BLACK
6
CONTINUOUS
10
143.7799980000000062
20
-81.3421209999999917
11
143.7263419999999883
21
-81.3886139999999898
0
LINE
8
BLACK
6
CONTINUOUS
10
143.7263419999999883
20
-81.3886139999999898
11
143.6740000000000066
21
-81.3999999999999915
0
LINE
8
BLACK
6
CONTINUOUS
10
143.6740000000000066
20
-81.3999999999999915
11
141.1260000000000048
21
-81.3999999999999915
0
LINE
8
BLACK
6
CONTINUOUS
10
141.1260000000000048
20
-81.3999999999999915
11
141.0578789999999856
21
-81.3799980000000005
0
LINE
8
BLACK
6
CONTINUOUS
10
141.0578789999999856
20
-81.3799980000000005
11
141.0113859999999875
21
-81.3263419999999968
0
LINE
8
BLACK
6
CONTINUOUS
10
141.0113859999999875
20
-81.3263419999999968
11
141.
21
-81.2740000000000009
0
LINE
8
BLACK
6
CONTINUOUS
10
141.
20
-81.2740000000000009
11
141.
21
-73.7459999999999951
0
LINE
8
BLACK
6
CONTINUOUS
10
141.
20
-73.7459999999999951
11
141.0200020000000052
21
-73.6778789999999901
0
LINE
8
BLACK
6
CONTINUOUS
10
141.0200020000000052
20
-73.6778789999999901
11
141.0736579999999947
21
-73.631385999999992
0
LINE
8
BLACK
6
CONTINUOUS
10
141.0736579999999947
20
-73.631385999999992
11
141.1260000000000048
21
-73.6199999999999903
0
LINE
8
BLACK
6
CONTINUOUS
10
141.1260000000000048
20
-73.6199999999999903
11
143.6740000000000066
21
-73.6199999999999903
0
LINE
8
BLACK
6
CONTINUOUS
10
143.6740000000000066
20
-73.6199999999999903
11
143.7421209999999974
21
-73.6400019999999955
0
LINE
8
BLACK
6
CONTINUOUS
10
187.8854969999999867
20
-80.2931430000000006
11
188.9243859999999984
21
-80.8929469999999924
0
LINE
8
BLACK
6
CONTINUOUS
10
188.9243859999999984
20
-80.8929469999999924
11
188.9243879999999933
21
-80.8929469999999924
0
LINE
8
BLACK
6
CONTINUOUS
10
188.9243879999999933
20
-80.8929469999999924
11
189.6707229999999811
21
-80.4620489999999933
0
LINE
8
BLACK
6
CONTINUOUS
10
189.6707229999999811
20
-80.4620489999999933
11
189.7397179999999821
21
-80.4453109999999896
0
LINE
8
BLACK
6
CONTINUOUS
10
189.7397179999999821
20
-80.4453109999999896
11
189.8068099999999845
21
-80.4685309999999987
0
LINE
8
BLACK
6
CONTINUOUS
10
189.8068099999999845
20
-80.4685309999999987
11
189.8428930000000037
21
-80.5082560000000029
0
LINE
8
BLACK
6
CONTINUOUS
10
189.8428930000000037
20
-80.5082560000000029
11
192.2066360000000032
21
-84.6100449999999995
0
LINE
8
BLACK
6
CONTINUOUS
10
192.2066360000000032
20
-84.6100449999999995
11
192.2233179999999777
21
-84.6790539999999936
0
LINE
8
BLACK
6
CONTINUOUS
10
192.2233179999999777
20
-84.6790539999999936
11
192.2000429999999938
21
-84.7461270000000013
0
LINE
8
BLACK
6
CONTINUOUS
10
192.2000429999999938
20
-84.7461270000000013
11
192.1604659999999853
21
-84.7820759999999893
0
LINE
8
BLACK
6
CONTINUOUS
10
192.1604659999999853
20
-84.7820759999999893
11
191.3175609999999836
21
-85.2687279999999959
0
LINE
8
BLACK
6
CONTINUOUS
10
191.3175609999999836
20
-85.2687279999999959
11
191.3175609999999836
21
-86.5485789999999895
0
LINE
8
BLACK
6
CONTINUOUS
10
191.3175609999999836
20
-86.5485789999999895
11
191.2975589999999784
21
-86.6166999999999945
0
LINE
8
BLACK
6
CONTINUOUS
10
191.2975589999999784
20
-86.6166999999999945
11
191.2439029999999889
21
-86.6631929999999926
0
LINE
8
BLACK
6
CONTINUOUS
10
191.2439029999999889
20
-86.6631929999999926
11
191.1915609999999788
21
-86.6745789999999943
0
LINE
8
BLACK
6
CONTINUOUS
10
191.1915609999999788
20
-86.6745789999999943
11
186.5521889999999985
21
-86.6745789999999943
0
LINE
8
BLACK
6
CONTINUOUS
10
186.5521889999999985
20
-86.6745789999999943
11
186.4840679999999793
21
-86.6545769999999891
0
LINE
8
BLACK
6
CONTINUOUS
10
186.4840679999999793
20
-86.6545769999999891
11
186.4430699999999774
21
-86.6115789999999919
0
LINE
8
BLACK
6
CONTINUOUS
10
186.4430699999999774
20
-86.6115789999999919
11
186.248502000000002
21
-86.2745790000000028
0
LINE
8
BLACK
6
CONTINUOUS
10
186.248502000000002
20
-86.2745790000000028
11
185.3212479999999971
21
-86.2745790000000028
0
LINE
8
BLACK
6
CONTINUOUS
10
185.3212479999999971
20
-86.2745790000000028
11
185.2531269999999779
21
-86.2545769999999976
0
LINE
8
BLACK
6
CONTINUOUS
10
185.2531269999999779
20
-86.2545769999999976
11
185.2121290000000045
21
-86.2115790000000004
0
LINE
8
BLACK
6
CONTINUOUS
10
185.2121290000000045
20
-86.2115790000000004
11
185.0348749999999995
21
-85.9045660000000026
0
LINE
8
BLACK
6
CONTINUOUS
10
185.0348749999999995
20
-85.9045660000000026
11
185.0181369999999959
21
-85.8355710000000016
0
LINE
8
BLACK
6
CONTINUOUS
10
185.0181369999999959
20
-85.8355710000000016
11
185.0348749999999995
21
-85.7785659999999979
0
LINE
8
BLACK
6
CONTINUOUS
10
185.0348749999999995
20
-85.7785659999999979
11
185.4985029999999995
21
-84.9755409999999927
0
LINE
8
BLACK
6
CONTINUOUS
10
185.4985029999999995
20
-84.9755409999999927
11
185.4985029999999995
21
-84.9755399999999952
0
LINE
8
BLACK
6
CONTINUOUS
10
185.4985029999999995
20
-84.9755399999999952
11
185.3039339999999982
21
-84.6385399999999919
0
LINE
8
BLACK
6
CONTINUOUS
10
185.3039339999999982
20
-84.6385399999999919
11
185.2871959999999945
21
-84.5695449999999909
0
LINE
8
BLACK
6
CONTINUOUS
10
185.2871959999999945
20
-84.5695449999999909
11
185.3039339999999982
21
-84.5125400000000013
0
LINE
8
BLACK
6
CONTINUOUS
10
185.3039339999999982
20
-84.5125400000000013
11
187.7133779999999774
21
-80.3392619999999908
0
LINE
8
BLACK
6
CONTINUOUS
10
187.7133779999999774
20
-80.3392619999999908
11
187.7647599999999954
21
-80.290268999999995
0
LINE
8
BLACK
6
CONTINUOUS
10
187.7647599999999954
20
-80.290268999999995
11
187.8344740000000002
21
-80.2768329999999963
0
LINE
8
BLACK
6
CONTINUOUS
10
187.8344740000000002
20
-80.2768329999999963
11
187.8854969999999867
21
-80.2931430000000006
0
LINE
8
BLACK
6
CONTINUOUS
10
197.8265459999999791
20
-78.4700019999999938
11
197.867543999999981
21
-78.512999999999991
0
LINE
8
BLACK
6
CONTINUOUS
10
197.867543999999981
20
-78.512999999999991
11
198.0372720000000015
21
-78.8069780000000009
0
LINE
8
BLACK
6
CONTINUOUS
10
198.0372720000000015
20
-78.8069780000000009
11
198.0540100000000052
21
-78.8759730000000019
0
LINE
8
BLACK
6
CONTINUOUS
10
198.0540100000000052
20
-78.8759730000000019
11
198.0372720000000015
21
-78.9329779999999914
0
LINE
8
BLACK
6
CONTINUOUS
10
198.0372720000000015
20
-78.9329779999999914
11
197.5736459999999965
21
-79.7360029999999966
0
LINE
8
BLACK
6
CONTINUOUS
10
197.5736459999999965
20
-79.7360029999999966
11
197.5736459999999965
21
-79.7360039999999941
0
LINE
8
BLACK
6
CONTINUOUS
10
197.5736459999999965
20
-79.7360039999999941
11
197.768211999999977
21
-80.0730029999999999
0
LINE
8
BLACK
6
CONTINUOUS
10
197.768211999999977
20
-80.0730029999999999
11
197.7849499999999807
21
-80.141998000000001
0
LINE
8
BLACK
6
CONTINUOUS
10
197.7849499999999807
20
-80.141998000000001
11
197.768211999999977
21
-80.1990029999999905
0
LINE
8
BLACK
6
CONTINUOUS
10
197.768211999999977
20
-80.1990029999999905
11
195.4664829999999824
21
-84.1857119999999952
0
LINE
8
BLACK
6
CONTINUOUS
10
195.4664829999999824
20
-84.1857119999999952
11
195.4151009999999928
21
-84.2347049999999911
0
LINE
8
BLACK
6
CONTINUOUS
10
195.4151009999999928
20
-84.2347049999999911
11
195.3453869999999881
21
-84.2481409999999897
0
LINE
8
BLACK
6
CONTINUOUS
10
195.3453869999999881
20
-84.2481409999999897
11
195.2943640000000016
21
-84.2318309999999997
0
LINE
8
BLACK
6
CONTINUOUS
10
195.2943640000000016
20
-84.2318309999999997
11
194.2039419999999836
21
-83.6022749999999917
0
LINE
8
BLACK
6
CONTINUOUS
10
194.2039419999999836
20
-83.6022749999999917
11
194.2039399999999887
21
-83.6022749999999917
0
LINE
8
BLACK
6
CONTINUOUS
10
194.2039399999999887
20
-83.6022749999999917
11
193.3470899999999801
21
-84.096975999999998
0
LINE
8
BLACK
6
CONTINUOUS
10
193.3470899999999801
20
-84.096975999999998
11
193.2780939999999816
21
-84.1137140000000016
0
LINE
8
BLACK
6
CONTINUOUS
10
193.2780939999999816
20
-84.1137140000000016
11
193.2110030000000052
21
-84.090492999999995
0
LINE
8
BLACK
6
CONTINUOUS
10
193.2110030000000052
20
-84.090492999999995
11
193.1750089999999886
21
-84.0509219999999999
0
LINE
8
BLACK
6
CONTINUOUS
10
193.1750089999999886
20
-84.0509219999999999
11
190.8054939999999817
21
-79.9524679999999961
0
LINE
8
BLACK
6
CONTINUOUS
10
190.8054939999999817
20
-79.9524679999999961
11
190.7887139999999988
21
-79.8834829999999982
0
LINE
8
BLACK
6
CONTINUOUS
10
190.7887139999999988
20
-79.8834829999999982
11
190.8118949999999927
21
-79.8163770000000028
0
LINE
8
BLACK
6
CONTINUOUS
10
190.8118949999999927
20
-79.8163770000000028
11
190.8515749999999969
21
-79.7802839999999946
0
LINE
8
BLACK
6
CONTINUOUS
10
190.8515749999999969
20
-79.7802839999999946
11
191.4236469999999883
21
-79.4500000000000028
0
LINE
8
BLACK
6
CONTINUOUS
10
191.4236469999999883
20
-79.4500000000000028
11
191.4236469999999883
21
-79.0224499999999921
0
LINE
8
BLACK
6
CONTINUOUS
10
191.4236469999999883
20
-79.0224499999999921
11
191.4236549999999966
21
-79.0210500000000025
0
LINE
8
BLACK
6
CONTINUOUS
10
191.4236549999999966
20
-79.0210500000000025
11
191.4286160000000052
21
-78.5745999999999896
0
LINE
8
BLACK
6
CONTINUOUS
10
191.4286160000000052
20
-78.5745999999999896
11
191.4493739999999775
21
-78.5067059999999941
0
LINE
8
BLACK
6
CONTINUOUS
10
191.4493739999999775
20
-78.5067059999999941
11
191.5035419999999817
21
-78.46081199999999
0
LINE
8
BLACK
6
CONTINUOUS
10
191.5035419999999817
20
-78.46081199999999
11
191.5546080000000018
21
-78.4500000000000028
0
LINE
8
BLACK
6
CONTINUOUS
10
191.5546080000000018
20
-78.4500000000000028
11
197.7584249999999884
21
-78.4500000000000028
0
LINE
8
BLACK
6
CONTINUOUS
10
197.7584249999999884
20
-78.4500000000000028
11
197.8265459999999791
21
-78.4700019999999938
0
LINE
8
BLACK
6
CONTINUOUS
10
195.4498899999999821
20
-71.5562460000000016
11
195.485921999999988
21
-71.5958830000000006
0
LINE
8
BLACK
6
CONTINUOUS
10
195.485921999999988
20
-71.5958830000000006
11
197.768211999999977
21
-75.5489280000000036
0
LINE
8
BLACK
6
CONTINUOUS
10
197.768211999999977
20
-75.5489280000000036
11
197.7849499999999807
21
-75.6179229999999905
0
LINE
8
BLACK
6
CONTINUOUS
10
197.7849499999999807
20
-75.6179229999999905
11
197.768211999999977
21
-75.6749279999999942
0
LINE
8
BLACK
6
CONTINUOUS
10
197.768211999999977
20
-75.6749279999999942
11
197.573646999999994
21
-76.0119260000000025
0
LINE
8
BLACK
6
CONTINUOUS
10
197.573646999999994
20
-76.0119260000000025
11
198.0372720000000015
21
-76.8149530000000027
0
LINE
8
BLACK
6
CONTINUOUS
10
198.0372720000000015
20
-76.8149530000000027
11
198.0540100000000052
21
-76.8839490000000012
0
LINE
8
BLACK
6
CONTINUOUS
10
198.0540100000000052
20
-76.8839490000000012
11
198.0372720000000015
21
-76.9409529999999933
0
LINE
8
BLACK
6
CONTINUOUS
10
198.0372720000000015
20
-76.9409529999999933
11
197.8600189999999941
21
-77.247965999999991
0
LINE
8
BLACK
6
CONTINUOUS
10
197.8600189999999941
20
-77.247965999999991
11
197.8086370000000045
21
-77.2969590000000011
0
LINE
8
BLACK
6
CONTINUOUS
10
197.8086370000000045
20
-77.2969590000000011
11
197.7509000000000015
21
-77.3109659999999934
0
LINE
8
BLACK
6
CONTINUOUS
10
197.7509000000000015
20
-77.3109659999999934
11
196.8048649999999782
21
-77.3109659999999934
0
LINE
8
BLACK
6
CONTINUOUS
10
196.8048649999999782
20
-77.3109659999999934
11
196.7839189999999974
21
-77.3224019999999967
0
LINE
8
BLACK
6
CONTINUOUS
10
196.7839189999999974
20
-77.3224019999999967
11
196.7574349999999868
21
-77.3252809999999897
0
LINE
8
BLACK
6
CONTINUOUS
10
196.7574349999999868
20
-77.3252809999999897
11
191.5027669999999773
21
-77.3376009999999923
0
LINE
8
BLACK
6
CONTINUOUS
10
191.5027669999999773
20
-77.3376009999999923
11
191.434599999999989
21
-77.3177579999999978
0
LINE
8
BLACK
6
CONTINUOUS
10
191.434599999999989
20
-77.3177579999999978
11
191.4261520000000019
21
-77.3109659999999934
0
LINE
8
BLACK
6
CONTINUOUS
10
191.4261520000000019
20
-77.3109659999999934
11
190.5268769999999847
21
-77.3109659999999934
0
LINE
8
BLACK
6
CONTINUOUS
10
190.5268769999999847
20
-77.3109659999999934
11
190.4587559999999939
21
-77.2909640000000024
0
LINE
8
BLACK
6
CONTINUOUS
10
190.4587559999999939
20
-77.2909640000000024
11
190.4227259999999831
21
-77.2558779999999956
0
LINE
8
BLACK
6
CONTINUOUS
10
190.4227259999999831
20
-77.2558779999999956
11
190.2221859999999936
21
-76.9613349999999912
0
LINE
8
BLACK
6
CONTINUOUS
10
190.2221859999999936
20
-76.9613349999999912
11
190.2172129999999868
21
-76.95341599999999
0
LINE
8
BLACK
6
CONTINUOUS
10
190.2172129999999868
20
-76.95341599999999
11
190.210014000000001
21
-76.9409449999999993
0
LINE
8
BLACK
6
CONTINUOUS
10
190.210014000000001
20
-76.9409449999999993
11
190.1932809999999847
21
-76.8719480000000033
0
LINE
8
BLACK
6
CONTINUOUS
10
190.1932809999999847
20
-76.8719480000000033
11
190.2100189999999884
21
-76.814951999999991
0
LINE
8
BLACK
6
CONTINUOUS
10
190.2100189999999884
20
-76.814951999999991
11
190.6822429999999997
21
-75.9970369999999917
0
LINE
8
BLACK
6
CONTINUOUS
10
190.6822429999999997
20
-75.9970369999999917
11
190.6829050000000052
21
-75.9692139999999938
0
LINE
8
BLACK
6
CONTINUOUS
10
190.6829050000000052
20
-75.9692139999999938
11
190.6937789999999779
21
-75.944619000000003
0
LINE
8
BLACK
6
CONTINUOUS
10
190.6937789999999779
20
-75.944619000000003
11
193.1612360000000024
21
-71.6669509999999974
0
LINE
8
BLACK
6
CONTINUOUS
10
193.1612360000000024
20
-71.6669509999999974
11
193.2125989999999831
21
-71.6179379999999952
0
LINE
8
BLACK
6
CONTINUOUS
10
193.2125989999999831
20
-71.6179379999999952
11
193.282307000000003
21
-71.6044739999999962
0
LINE
8
BLACK
6
CONTINUOUS
10
193.282307000000003
20
-71.6044739999999962
11
193.3333800000000053
21
-71.620789000000002
0
LINE
8
BLACK
6
CONTINUOUS
10
193.3333800000000053
20
-71.620789000000002
11
194.2620819999999924
21
-72.1569760000000002
0
LINE
8
BLACK
6
CONTINUOUS
10
194.2620819999999924
20
-72.1569760000000002
11
194.2620839999999873
21
-72.1569760000000002
0
LINE
8
BLACK
6
CONTINUOUS
10
194.2620839999999873
20
-72.1569760000000002
11
195.3138029999999787
21
-71.5497639999999961
0
LINE
8
BLACK
6
CONTINUOUS
10
195.3138029999999787
20
-71.5497639999999961
11
195.3827979999999798
21
-71.5330259999999925
0
LINE
8
BLACK
6
CONTINUOUS
10
195.3827979999999798
20
-71.5330259999999925
11
195.4498899999999821
21
-71.5562460000000016
0
LINE
8
BLACK
6
CONTINUOUS
10
191.2906249999999773
20
-69.0898019999999917
11
191.3371180000000038
21
-69.1434579999999954
0
LINE
8
BLACK
6
CONTINUOUS
10
191.3371180000000038
20
-69.1434579999999954
11
191.3485039999999913
21
-69.1957999999999913
0
LINE
8
BLACK
6
CONTINUOUS
10
191.3485039999999913
20
-69.1957999999999913
11
191.3485029999999938
21
-70.4748189999999965
0
LINE
8
BLACK
6
CONTINUOUS
10
191.3485029999999938
20
-70.4748189999999965
11
192.1580739999999992
21
-70.9422249999999934
0
LINE
8
BLACK
6
CONTINUOUS
10
192.1580739999999992
20
-70.9422249999999934
11
192.207066999999995
21
-70.9936069999999972
0
LINE
8
BLACK
6
CONTINUOUS
10
192.207066999999995
20
-70.9936069999999972
11
192.2205029999999795
21
-71.063321000000002
0
LINE
8
BLACK
6
CONTINUOUS
10
192.2205029999999795
20
-71.063321000000002
11
192.2041140000000041
21
-71.1144809999999978
0
LINE
8
BLACK
6
CONTINUOUS
10
192.2041140000000041
20
-71.1144809999999978
11
189.2293209999999988
21
-76.2520899999999955
0
LINE
8
BLACK
6
CONTINUOUS
10
189.2293209999999988
20
-76.2520899999999955
11
189.1778769999999952
21
-76.3010189999999966
0
LINE
8
BLACK
6
CONTINUOUS
10
189.1778769999999952
20
-76.3010189999999966
11
189.1202810000000056
21
-76.3149530000000027
0
LINE
8
BLACK
6
CONTINUOUS
10
189.1202810000000056
20
-76.3149530000000027
11
188.7712479999999857
21
-76.3149530000000027
0
LINE
8
BLACK
6
CONTINUOUS
10
188.7712479999999857
20
-76.3149530000000027
11
188.703126999999995
21
-76.2949509999999975
0
LINE
8
BLACK
6
CONTINUOUS
10
188.703126999999995
20
-76.2949509999999975
11
188.6621289999999931
21
-76.2519530000000003
0
LINE
8
BLACK
6
CONTINUOUS
10
188.6621289999999931
20
-76.2519530000000003
11
188.1929590000000019
21
-75.4393290000000007
0
LINE
8
BLACK
6
CONTINUOUS
10
188.1929590000000019
20
-75.4393290000000007
11
188.1653129999999976
21
-75.4224770000000007
0
LINE
8
BLACK
6
CONTINUOUS
10
188.1653129999999976
20
-75.4224770000000007
11
188.1494219999999871
21
-75.400708999999992
0
LINE
8
BLACK
6
CONTINUOUS
10
188.1494219999999871
20
-75.400708999999992
11
186.8100489999999922
21
-73.0800849999999969
0
LINE
8
BLACK
6
CONTINUOUS
10
186.8100489999999922
20
-73.0800849999999969
11
186.4169269999999869
21
-72.4013920000000013
0
LINE
8
BLACK
6
CONTINUOUS
10
186.4169269999999869
20
-72.4013920000000013
11
186.4000910000000033
21
-72.332419999999999
0
LINE
8
BLACK
6
CONTINUOUS
10
186.4000910000000033
20
-72.332419999999999
11
186.423216999999994
21
-72.2652959999999922
0
LINE
8
BLACK
6
CONTINUOUS
10
186.423216999999994
20
-72.2652959999999922
11
186.4627009999999814
21
-72.229266999999993
0
LINE
8
BLACK
6
CONTINUOUS
10
186.4627009999999814
20
-72.229266999999993
11
186.9782500000000027
21
-71.9299989999999951
0
LINE
8
BLACK
6
CONTINUOUS
10
186.9782500000000027
20
-71.9299989999999951
11
186.9782500000000027
21
-70.1271959999999979
0
LINE
8
BLACK
6
CONTINUOUS
10
186.9782500000000027
20
-70.1271959999999979
11
186.9861029999999857
21
-70.0834100000000007
0
LINE
8
BLACK
6
CONTINUOUS
10
186.9861029999999857
20
-70.0834100000000007
11
187.3312809999999899
21
-69.1520139999999941
0
LINE
8
BLACK
6
CONTINUOUS
10
187.3312809999999899
20
-69.1520139999999941
11
187.3737079999999935
21
-69.095089999999999
0
LINE
8
BLACK
6
CONTINUOUS
10
187.3737079999999935
20
-69.095089999999999
11
187.4401770000000056
21
-69.070139999999995
0
LINE
8
BLACK
6
CONTINUOUS
10
187.4401770000000056
20
-69.070139999999995
11
187.4494279999999833
21
-69.0698000000000008
0
LINE
8
BLACK
6
CONTINUOUS
10
187.4494279999999833
20
-69.0698000000000008
11
191.2225039999999865
21
-69.0698000000000008
0
LINE
8
BLACK
6
CONTINUOUS
10
191.2225039999999865
20
-69.0698000000000008
11
191.2906249999999773
21
-69.0898019999999917
0
LINE
8
BLACK
6
CONTINUOUS
10
170.9332749999999805
20
-87.3900019999999955
11
170.9463979999999879
21
-87.4005779999999959
0
LINE
8
BLACK
6
CONTINUOUS
10
170.9463979999999879
20
-87.4005779999999959
11
171.8751769999999794
21
-87.4005779999999959
0
LINE
8
BLACK
6
CONTINUOUS
10
171.8751769999999794
20
-87.4005779999999959
11
171.9432979999999986
21
-87.4205800000000011
0
LINE
8
BLACK
6
CONTINUOUS
10
171.9432979999999986
20
-87.4205800000000011
11
171.9842960000000005
21
-87.4635779999999983
0
LINE
8
BLACK
6
CONTINUOUS
10
171.9842960000000005
20
-87.4635779999999983
11
172.1615489999999795
21
-87.7705899999999986
0
LINE
8
BLACK
6
CONTINUOUS
10
172.1615489999999795
20
-87.7705899999999986
11
172.1782869999999832
21
-87.8395849999999996
0
LINE
8
BLACK
6
CONTINUOUS
10
172.1782869999999832
20
-87.8395849999999996
11
172.1615489999999795
21
-87.8965899999999891
0
LINE
8
BLACK
6
CONTINUOUS
10
172.1615489999999795
20
-87.8965899999999891
11
171.6979240000000004
21
-88.6996149999999943
0
LINE
8
BLACK
6
CONTINUOUS
10
171.6979240000000004
20
-88.6996149999999943
11
171.878120999999993
21
-89.0117290000000025
0
LINE
8
BLACK
6
CONTINUOUS
10
171.878120999999993
20
-89.0117290000000025
11
171.8948589999999967
21
-89.080725000000001
0
LINE
8
BLACK
6
CONTINUOUS
10
171.8948589999999967
20
-89.080725000000001
11
171.878120999999993
21
-89.1377289999999931
0
LINE
8
BLACK
6
CONTINUOUS
10
171.878120999999993
20
-89.1377289999999931
11
170.1080519999999865
21
-92.2035779999999932
0
LINE
8
BLACK
6
CONTINUOUS
10
170.1080519999999865
20
-92.2035779999999932
11
170.0566699999999969
21
-92.252570999999989
0
LINE
8
BLACK
6
CONTINUOUS
10
170.0566699999999969
20
-92.252570999999989
11
169.9869559999999922
21
-92.2660070000000019
0
LINE
8
BLACK
6
CONTINUOUS
10
169.9869559999999922
20
-92.2660070000000019
11
169.9257589999999993
21
-92.2431529999999924
0
LINE
8
BLACK
6
CONTINUOUS
10
169.9257589999999993
20
-92.2431529999999924
11
168.8699989999999787
21
-91.4899999999999949
0
LINE
8
BLACK
6
CONTINUOUS
10
168.8699989999999787
20
-91.4899999999999949
11
166.5207879999999818
21
-91.4802919999999915
0
LINE
8
BLACK
6
CONTINUOUS
10
166.5207879999999818
20
-91.4802919999999915
11
166.4527510000000063
21
-91.4600089999999994
0
LINE
8
BLACK
6
CONTINUOUS
10
166.4527510000000063
20
-91.4600089999999994
11
166.4134269999999844
21
-91.4193889999999953
0
LINE
8
BLACK
6
CONTINUOUS
10
166.4134269999999844
20
-91.4193889999999953
11
164.7135959999999955
21
-88.6023299999999949
0
LINE
8
BLACK
6
CONTINUOUS
10
164.7135959999999955
20
-88.6023299999999949
11
164.6955279999999959
21
-88.5336709999999982
0
LINE
8
BLACK
6
CONTINUOUS
10
164.6955279999999959
20
-88.5336709999999982
11
164.7174489999999878
21
-88.4661430000000024
0
LINE
8
BLACK
6
CONTINUOUS
10
164.7174489999999878
20
-88.4661430000000024
11
164.7584779999999967
21
-88.4281149999999911
0
LINE
8
BLACK
6
CONTINUOUS
10
164.7584779999999967
20
-88.4281149999999911
11
165.4599979999999846
21
-88.0230930000000029
0
LINE
8
BLACK
6
CONTINUOUS
10
165.4599979999999846
20
-88.0230930000000029
11
165.4599989999999821
21
-88.0230930000000029
0
LINE
8
BLACK
6
CONTINUOUS
10
165.4599989999999821
20
-88.0230930000000029
11
165.4599989999999821
21
-87.4959999999999951
0
LINE
8
BLACK
6
CONTINUOUS
10
165.4599989999999821
20
-87.4959999999999951
11
165.4800009999999872
21
-87.4278789999999901
0
LINE
8
BLACK
6
CONTINUOUS
10
165.4800009999999872
20
-87.4278789999999901
11
165.5336570000000052
21
-87.381385999999992
0
LINE
8
BLACK
6
CONTINUOUS
10
165.5336570000000052
20
-87.381385999999992
11
165.5859989999999868
21
-87.3699999999999903
0
LINE
8
BLACK
6
CONTINUOUS
10
165.5859989999999868
20
-87.3699999999999903
11
170.8651539999999898
21
-87.3699999999999903
0
LINE
8
BLACK
6
CONTINUOUS
10
170.8651539999999898
20
-87.3699999999999903
11
170.9332749999999805
21
-87.3900019999999955
0
LINE
8
BLACK
6
CONTINUOUS
10
176.0409239999999897
20
-78.4068719999999928
11
176.1090219999999817
21
-78.4269489999999934
0
LINE
8
BLACK
6
CONTINUOUS
10
176.1090219999999817
20
-78.4269489999999934
11
176.1214379999999835
21
-78.4369650000000007
0
LINE
8
BLACK
6
CONTINUOUS
10
176.1214379999999835
20
-78.4369650000000007
11
177.0503209999999967
21
-78.4369650000000007
0
LINE
8
BLACK
6
CONTINUOUS
10
177.0503209999999967
20
-78.4369650000000007
11
177.1184419999999875
21
-78.4569669999999917
0
LINE
8
BLACK
6
CONTINUOUS
10
177.1184419999999875
20
-78.4569669999999917
11
177.1594399999999894
21
-78.4999650000000031
0
LINE
8
BLACK
6
CONTINUOUS
10
177.1594399999999894
20
-78.4999650000000031
11
177.3366939999999943
21
-78.8069780000000009
0
LINE
8
BLACK
6
CONTINUOUS
10
177.3366939999999943
20
-78.8069780000000009
11
177.353431999999998
21
-78.8759730000000019
0
LINE
8
BLACK
6
CONTINUOUS
10
177.353431999999998
20
-78.8759730000000019
11
177.3366939999999943
21
-78.9329779999999914
0
LINE
8
BLACK
6
CONTINUOUS
10
177.3366939999999943
20
-78.9329779999999914
11
176.8730679999999893
21
-79.7360019999999992
0
LINE
8
BLACK
6
CONTINUOUS
10
176.8730679999999893
20
-79.7360019999999992
11
176.8730679999999893
21
-79.7360029999999966
0
LINE
8
BLACK
6
CONTINUOUS
10
176.8730679999999893
20
-79.7360029999999966
11
177.0676339999999982
21
-80.0730029999999999
0
LINE
8
BLACK
6
CONTINUOUS
10
177.0676339999999982
20
-80.0730029999999999
11
177.0843720000000019
21
-80.141998000000001
0
LINE
8
BLACK
6
CONTINUOUS
10
177.0843720000000019
20
-80.141998000000001
11
177.0676339999999982
21
-80.1990029999999905
0
LINE
8
BLACK
6
CONTINUOUS
10
177.0676339999999982
20
-80.1990029999999905
11
174.6977489999999875
21
-84.303764000000001
0
LINE
8
BLACK
6
CONTINUOUS
10
174.6977489999999875
20
-84.303764000000001
11
174.6463669999999979
21
-84.3527569999999969
0
LINE
8
BLACK
6
CONTINUOUS
10
174.6463669999999979
20
-84.3527569999999969
11
174.5766529999999932
21
-84.3661929999999955
0
LINE
8
BLACK
6
CONTINUOUS
10
174.5766529999999932
20
-84.3661929999999955
11
174.5256299999999783
21
-84.3498829999999913
0
LINE
8
BLACK
6
CONTINUOUS
10
174.5256299999999783
20
-84.3498829999999913
11
173.4093269999999904
21
-83.7053839999999951
0
LINE
8
BLACK
6
CONTINUOUS
10
173.4093269999999904
20
-83.7053839999999951
11
173.4093249999999955
21
-83.7053839999999951
0
LINE
8
BLACK
6
CONTINUOUS
10
173.4093249999999955
20
-83.7053839999999951
11
172.6998719999999992
21
-84.1149860000000018
0
LINE
8
BLACK
6
CONTINUOUS
10
172.6998719999999992
20
-84.1149860000000018
11
172.6308769999999981
21
-84.1317239999999913
0
LINE
8
BLACK
6
CONTINUOUS
10
172.6308769999999981
20
-84.1317239999999913
11
172.5637849999999958
21
-84.1085029999999989
0
LINE
8
BLACK
6
CONTINUOUS
10
172.5637849999999958
20
-84.1085029999999989
11
172.5279149999999788
21
-84.069147000000001
0
LINE
8
BLACK
6
CONTINUOUS
10
172.5279149999999788
20
-84.069147000000001
11
169.5564549999999997
21
-78.952770000000001
0
LINE
8
BLACK
6
CONTINUOUS
10
169.5564549999999997
20
-78.952770000000001
11
169.5395399999999881
21
-78.8838169999999934
0
LINE
8
BLACK
6
CONTINUOUS
10
169.5395399999999881
20
-78.8838169999999934
11
169.5560129999999788
21
-78.8269760000000019
0
LINE
8
BLACK
6
CONTINUOUS
10
169.5560129999999788
20
-78.8269760000000019
11
169.7425989999999842
21
-78.5004519999999957
0
LINE
8
BLACK
6
CONTINUOUS
10
169.7425989999999842
20
-78.5004519999999957
11
169.7937639999999817
21
-78.4512309999999928
0
LINE
8
BLACK
6
CONTINUOUS
10
169.7937639999999817
20
-78.4512309999999928
11
169.8519979999999805
21
-78.4369659999999982
0
LINE
8
BLACK
6
CONTINUOUS
10
169.8519979999999805
20
-78.4369659999999982
11
170.7239429999999913
21
-78.4369659999999982
0
LINE
8
BLACK
6
CONTINUOUS
10
170.7239429999999913
20
-78.4369659999999982
11
170.7843269999999904
21
-78.4039929999999998
0
LINE
8
BLACK
6
CONTINUOUS
10
170.7843269999999904
20
-78.4039929999999998
11
170.8112509999999986
21
-78.4011129999999952
0
LINE
8
BLACK
6
CONTINUOUS
10
170.8112509999999986
20
-78.4011129999999952
11
176.0409239999999897
21
-78.4068719999999928
0
LINE
8
BLACK
6
CONTINUOUS
10
167.1366309999999942
20
-80.3226659999999981
11
168.0473700000000008
21
-80.84848199999999
0
LINE
8
BLACK
6
CONTINUOUS
10
168.0473700000000008
20
-80.84848199999999
11
168.0473719999999958
21
-80.84848199999999
0
LINE
8
BLACK
6
CONTINUOUS
10
168.0473719999999958
20
-80.84848199999999
11
168.9160550000000001
21
-80.346944999999991
0
LINE
8
BLACK
6
CONTINUOUS
10
168.9160550000000001
20
-80.346944999999991
11
168.9850500000000011
21
-80.3302070000000015
0
LINE
8
BLACK
6
CONTINUOUS
10
168.9850500000000011
20
-80.3302070000000015
11
169.0521420000000035
21
-80.3534269999999964
0
LINE
8
BLACK
6
CONTINUOUS
10
169.0521420000000035
20
-80.3534269999999964
11
169.088011999999992
21
-80.3927839999999918
0
LINE
8
BLACK
6
CONTINUOUS
10
169.088011999999992
20
-80.3927839999999918
11
171.5655459999999835
21
-84.6586989999999986
0
LINE
8
BLACK
6
CONTINUOUS
10
171.5655459999999835
20
-84.6586989999999986
11
171.582460999999995
21
-84.727651999999992
0
LINE
8
BLACK
6
CONTINUOUS
10
171.582460999999995
20
-84.727651999999992
11
171.5782959999999946
21
-84.7545889999999957
0
LINE
8
BLACK
6
CONTINUOUS
10
171.5782959999999946
20
-84.7545889999999957
11
171.5757789999999829
21
-84.7639819999999986
0
LINE
8
BLACK
6
CONTINUOUS
10
171.5757789999999829
20
-84.7639819999999986
11
172.161547999999982
21
-85.7785650000000004
0
LINE
8
BLACK
6
CONTINUOUS
10
172.161547999999982
20
-85.7785650000000004
11
172.1782859999999857
21
-85.8475600000000014
0
LINE
8
BLACK
6
CONTINUOUS
10
172.1782859999999857
20
-85.8475600000000014
11
172.161547999999982
21
-85.904564999999991
0
LINE
8
BLACK
6
CONTINUOUS
10
172.161547999999982
20
-85.904564999999991
11
171.984295000000003
21
-86.2115790000000004
0
LINE
8
BLACK
6
CONTINUOUS
10
171.984295000000003
20
-86.2115790000000004
11
171.932912999999985
21
-86.2605719999999963
0
LINE
8
BLACK
6
CONTINUOUS
10
171.932912999999985
20
-86.2605719999999963
11
171.875175999999982
21
-86.2745790000000028
0
LINE
8
BLACK
6
CONTINUOUS
10
171.875175999999982
20
-86.2745790000000028
11
170.9466889999999921
21
-86.2745790000000028
0
LINE
8
BLACK
6
CONTINUOUS
10
170.9466889999999921
20
-86.2745790000000028
11
170.887094999999988
21
-86.3071209999999951
0
LINE
8
BLACK
6
CONTINUOUS
10
170.887094999999988
20
-86.3071209999999951
11
170.8603119999999933
21
-86.3100000000000023
0
LINE
8
BLACK
6
CONTINUOUS
10
170.8603119999999933
20
-86.3100000000000023
11
165.5600149999999928
21
-86.3100000000000023
0
LINE
8
BLACK
6
CONTINUOUS
10
165.5600149999999928
20
-86.3100000000000023
11
165.4918940000000021
21
-86.2899979999999971
0
LINE
8
BLACK
6
CONTINUOUS
10
165.4918940000000021
20
-86.2899979999999971
11
165.4508960000000002
21
-86.2469999999999999
0
LINE
8
BLACK
6
CONTINUOUS
10
165.4508960000000002
20
-86.2469999999999999
11
164.5471819999999923
21
-84.6817219999999935
0
LINE
8
BLACK
6
CONTINUOUS
10
164.5471819999999923
20
-84.6817219999999935
11
164.5304439999999886
21
-84.6127269999999925
0
LINE
8
BLACK
6
CONTINUOUS
10
164.5304439999999886
20
-84.6127269999999925
11
164.5471819999999923
21
-84.5557220000000029
0
LINE
8
BLACK
6
CONTINUOUS
10
164.5471819999999923
20
-84.5557220000000029
11
166.9645119999999849
21
-80.3687850000000026
0
LINE
8
BLACK
6
CONTINUOUS
10
166.9645119999999849
20
-80.3687850000000026
11
167.015894000000003
21
-80.3197919999999925
0
LINE
8
BLACK
6
CONTINUOUS
10
167.015894000000003
20
-80.3197919999999925
11
167.0856079999999793
21
-80.3063559999999939
0
LINE
8
BLACK
6
CONTINUOUS
10
167.0856079999999793
20
-80.3063559999999939
11
167.1366309999999942
21
-80.3226659999999981
0
LINE
8
BLACK
6
CONTINUOUS
10
152.9714339999999879
20
-106.3500019999999893
11
153.0124319999999898
21
-106.3930000000000007
0
LINE
8
BLACK
6
CONTINUOUS
10
153.0124319999999898
20
-106.3930000000000007
11
153.482213999999999
21
-107.2066859999999906
0
LINE
8
BLACK
6
CONTINUOUS
10
153.482213999999999
20
-107.2066859999999906
11
153.501150999999993
21
-107.2182279999999963
0
LINE
8
BLACK
6
CONTINUOUS
10
153.501150999999993
20
-107.2182279999999963
11
153.5169520000000034
21
-107.2398359999999968
0
LINE
8
BLACK
6
CONTINUOUS
10
153.5169520000000034
20
-107.2398359999999968
11
156.1538819999999816
21
-111.7927639999999911
0
LINE
8
BLACK
6
CONTINUOUS
10
156.1538819999999816
20
-111.7927639999999911
11
156.1707140000000038
21
-111.8617359999999934
0
LINE
8
BLACK
6
CONTINUOUS
10
156.1707140000000038
20
-111.8617359999999934
11
156.1705220000000054
21
-111.86296999999999
0
LINE
8
BLACK
6
CONTINUOUS
10
156.1705220000000054
20
-111.86296999999999
11
156.636115999999987
21
-112.6694049999999976
0
LINE
8
BLACK
6
CONTINUOUS
10
156.636115999999987
20
-112.6694049999999976
11
156.6528539999999907
21
-112.7383999999999986
0
LINE
8
BLACK
6
CONTINUOUS
10
156.6528539999999907
20
-112.7383999999999986
11
156.636115999999987
21
-112.7954049999999881
0
LINE
8
BLACK
6
CONTINUOUS
10
156.636115999999987
20
-112.7954049999999881
11
156.4588619999999821
21
-113.1024180000000001
0
LINE
8
BLACK
6
CONTINUOUS
10
156.4588619999999821
20
-113.1024180000000001
11
156.4074799999999925
21
-113.151410999999996
0
LINE
8
BLACK
6
CONTINUOUS
10
156.4074799999999925
20
-113.151410999999996
11
156.3497429999999895
21
-113.1654179999999883
0
LINE
8
BLACK
6
CONTINUOUS
10
156.3497429999999895
20
-113.1654179999999883
11
155.422489999999982
21
-113.1654179999999883
0
LINE
8
BLACK
6
CONTINUOUS
10
155.422489999999982
20
-113.1654179999999883
11
155.2279230000000041
21
-113.5024179999999916
0
LINE
8
BLACK
6
CONTINUOUS
10
155.2279230000000041
20
-113.5024179999999916
11
155.1765399999999886
21
-113.5514110000000016
0
LINE
8
BLACK
6
CONTINUOUS
10
155.1765399999999886
20
-113.5514110000000016
11
155.118803999999983
21
-113.565417999999994
0
LINE
8
BLACK
6
CONTINUOUS
10
155.118803999999983
20
-113.565417999999994
11
150.3760000000000048
21
-113.565417999999994
0
LINE
8
BLACK
6
CONTINUOUS
10
150.3760000000000048
20
-113.565417999999994
11
150.3078789999999856
21
-113.5454159999999888
0
LINE
8
BLACK
6
CONTINUOUS
10
150.3078789999999856
20
-113.5454159999999888
11
150.2613859999999875
21
-113.4917599999999993
0
LINE
8
BLACK
6
CONTINUOUS
10
150.2613859999999875
20
-113.4917599999999993
11
150.25
21
-113.4394179999999892
0
LINE
8
BLACK
6
CONTINUOUS
10
150.25
20
-113.4394179999999892
11
150.25
21
-112.43074399999999
0
LINE
8
BLACK
6
CONTINUOUS
10
150.25
20
-112.43074399999999
11
150.2499990000000025
21
-112.4307429999999925
0
LINE
8
BLACK
6
CONTINUOUS
10
150.2499990000000025
20
-112.4307429999999925
11
149.3880450000000053
21
-111.9330929999999995
0
LINE
8
BLACK
6
CONTINUOUS
10
149.3880450000000053
20
-111.9330929999999995
11
149.339051999999981
21
-111.8817099999999982
0
LINE
8
BLACK
6
CONTINUOUS
10
149.339051999999981
20
-111.8817099999999982
11
149.3256159999999966
21
-111.811996999999991
0
LINE
8
BLACK
6
CONTINUOUS
10
149.3256159999999966
20
-111.811996999999991
11
149.3417739999999867
21
-111.7612379999999916
0
LINE
8
BLACK
6
CONTINUOUS
10
149.3417739999999867
20
-111.7612379999999916
11
151.9717080000000067
21
-107.1804889999999943
0
LINE
8
BLACK
6
CONTINUOUS
10
151.9717080000000067
20
-107.1804889999999943
11
151.9855389999999886
21
-107.1672370000000001
0
LINE
8
BLACK
6
CONTINUOUS
10
151.9855389999999886
20
-107.1672370000000001
11
152.4325460000000021
21
-106.3930000000000007
0
LINE
8
BLACK
6
CONTINUOUS
10
152.4325460000000021
20
-106.3930000000000007
11
152.4839289999999892
21
-106.3440069999999906
0
LINE
8
BLACK
6
CONTINUOUS
10
152.4839289999999892
20
-106.3440069999999906
11
152.5416649999999947
21
-106.3299999999999983
0
LINE
8
BLACK
6
CONTINUOUS
10
152.5416649999999947
20
-106.3299999999999983
11
152.9033129999999971
21
-106.3299999999999983
0
LINE
8
BLACK
6
CONTINUOUS
10
152.9033129999999971
20
-106.3299999999999983
11
152.9714339999999879
21
-106.3500019999999893
0
LINE
8
BLACK
6
CONTINUOUS
10
142.6175759999999855
20
-106.3438189999999963
11
142.6585739999999873
21
-106.3868169999999935
0
LINE
8
BLACK
6
CONTINUOUS
10
142.6585739999999873
20
-106.3868169999999935
11
143.1337979999999845
21
-107.2099289999999883
0
LINE
8
BLACK
6
CONTINUOUS
10
143.1337979999999845
20
-107.2099289999999883
11
143.1447119999999984
21
-107.2165819999999883
0
LINE
8
BLACK
6
CONTINUOUS
10
143.1447119999999984
20
-107.2165819999999883
11
143.1604969999999923
21
-107.2381619999999884
0
LINE
8
BLACK
6
CONTINUOUS
10
143.1604969999999923
20
-107.2381619999999884
11
145.7689169999999876
21
-111.7392029999999892
0
LINE
8
BLACK
6
CONTINUOUS
10
145.7689169999999876
20
-111.7392029999999892
11
145.7857669999999928
21
-111.8081710000000015
0
LINE
8
BLACK
6
CONTINUOUS
10
145.7857669999999928
20
-111.8081710000000015
11
145.7626549999999952
21
-111.8753009999999932
0
LINE
8
BLACK
6
CONTINUOUS
10
145.7626549999999952
20
-111.8753009999999932
11
145.7228999999999814
21
-111.9114989999999921
0
LINE
8
BLACK
6
CONTINUOUS
10
145.7228999999999814
20
-111.9114989999999921
11
145.0999999999999943
21
-112.2711319999999944
0
LINE
8
BLACK
6
CONTINUOUS
10
145.0999999999999943
20
-112.2711319999999944
11
145.0999999999999943
21
-113.0835059999999999
0
LINE
8
BLACK
6
CONTINUOUS
10
145.0999999999999943
20
-113.0835059999999999
11
145.0831189999999822
21
-113.146505999999988
0
LINE
8
BLACK
6
CONTINUOUS
10
145.0831189999999822
20
-113.146505999999988
11
144.877633000000003
21
-113.5024179999999916
0
LINE
8
BLACK
6
CONTINUOUS
10
144.877633000000003
20
-113.5024179999999916
11
144.826250999999985
21
-113.5514110000000016
0
LINE
8
BLACK
6
CONTINUOUS
10
144.826250999999985
20
-113.5514110000000016
11
144.7685139999999819
21
-113.565417999999994
0
LINE
8
BLACK
6
CONTINUOUS
10
144.7685139999999819
20
-113.565417999999994
11
140.275999999999982
21
-113.565417999999994
0
LINE
8
BLACK
6
CONTINUOUS
10
140.275999999999982
20
-113.565417999999994
11
140.2078789999999913
21
-113.5454159999999888
0
LINE
8
BLACK
6
CONTINUOUS
10
140.2078789999999913
20
-113.5454159999999888
11
140.1613859999999931
21
-113.4917599999999993
0
LINE
8
BLACK
6
CONTINUOUS
10
140.1613859999999931
20
-113.4917599999999993
11
140.1500000000000057
21
-113.4394179999999892
0
LINE
8
BLACK
6
CONTINUOUS
10
140.1500000000000057
20
-113.4394179999999892
11
140.1500000000000057
21
-112.5743159999999961
0
LINE
8
BLACK
6
CONTINUOUS
10
140.1500000000000057
20
-112.5743159999999961
11
140.1499989999999798
21
-112.5743149999999986
0
LINE
8
BLACK
6
CONTINUOUS
10
140.1499989999999798
20
-112.5743149999999986
11
139.0298439999999971
21
-111.92759199999999
0
LINE
8
BLACK
6
CONTINUOUS
10
139.0298439999999971
20
-111.92759199999999
11
138.9808510000000012
21
-111.8762089999999887
0
LINE
8
BLACK
6
CONTINUOUS
10
138.9808510000000012
20
-111.8762089999999887
11
138.9674149999999884
21
-111.8064959999999957
0
LINE
8
BLACK
6
CONTINUOUS
10
138.9674149999999884
20
-111.8064959999999957
11
138.9838309999999808
21
-111.755289999999988
0
LINE
8
BLACK
6
CONTINUOUS
10
138.9838309999999808
20
-111.755289999999988
11
142.0954610000000002
21
-106.3866340000000008
0
LINE
8
BLACK
6
CONTINUOUS
10
142.0954610000000002
20
-106.3866340000000008
11
142.1469260000000077
21
-106.337727000000001
0
LINE
8
BLACK
6
CONTINUOUS
10
142.1469260000000077
20
-106.337727000000001
11
142.2044740000000047
21
-106.3238169999999911
0
LINE
8
BLACK
6
CONTINUOUS
10
142.2044740000000047
20
-106.3238169999999911
11
142.5494549999999947
21
-106.3238169999999911
0
LINE
8
BLACK
6
CONTINUOUS
10
142.5494549999999947
20
-106.3238169999999911
11
142.6175759999999855
21
-106.3438189999999963
0
LINE
8
BLACK
6
CONTINUOUS
10
139.8563809999999989
20
-105.2912449999999893
11
139.8774799999999914
21
-105.3082279999999997
0
LINE
8
BLACK
6
CONTINUOUS
10
139.8774799999999914
20
-105.3082279999999997
11
139.8970559999999921
21
-105.3278040000000004
0
LINE
8
BLACK
6
CONTINUOUS
10
139.8970559999999921
20
-105.3278040000000004
11
140.8243109999999945
21
-105.3278040000000004
0
LINE
8
BLACK
6
CONTINUOUS
10
140.8243109999999945
20
-105.3278040000000004
11
140.8924319999999852
21
-105.3478059999999914
0
LINE
8
BLACK
6
CONTINUOUS
10
140.8924319999999852
20
-105.3478059999999914
11
140.9334299999999871
21
-105.3908039999999886
0
LINE
8
BLACK
6
CONTINUOUS
10
140.9334299999999871
20
-105.3908039999999886
11
141.1106829999999945
21
-105.6978159999999889
0
LINE
8
BLACK
6
CONTINUOUS
10
141.1106829999999945
20
-105.6978159999999889
11
141.1274209999999982
21
-105.7668109999999899
0
LINE
8
BLACK
6
CONTINUOUS
10
141.1274209999999982
20
-105.7668109999999899
11
141.1106829999999945
21
-105.8238159999999937
0
LINE
8
BLACK
6
CONTINUOUS
10
141.1106829999999945
20
-105.8238159999999937
11
140.6470549999999946
21
-106.6268409999999989
0
LINE
8
BLACK
6
CONTINUOUS
10
140.6470549999999946
20
-106.6268409999999989
11
140.6550799999999981
21
-106.6567919999999958
0
LINE
8
BLACK
6
CONTINUOUS
10
140.6550799999999981
20
-106.6567919999999958
11
140.6533900000000017
21
-106.727768999999995
0
LINE
8
BLACK
6
CONTINUOUS
10
140.6533900000000017
20
-106.727768999999995
11
140.6420469999999909
21
-106.7531669999999906
0
LINE
8
BLACK
6
CONTINUOUS
10
140.6420469999999909
20
-106.7531669999999906
11
138.0295559999999853
21
-111.2056059999999889
0
LINE
8
BLACK
6
CONTINUOUS
10
138.0295559999999853
20
-111.2056059999999889
11
137.9778299999999831
21
-111.2542369999999892
0
LINE
8
BLACK
6
CONTINUOUS
10
137.9778299999999831
20
-111.2542369999999892
11
137.9080239999999833
21
-111.2671829999999886
0
LINE
8
BLACK
6
CONTINUOUS
10
137.9080239999999833
20
-111.2671829999999886
11
137.8578819999999894
21
-111.2509599999999921
0
LINE
8
BLACK
6
CONTINUOUS
10
137.8578819999999894
20
-111.2509599999999921
11
137.1486329999999896
21
-110.8414749999999884
0
LINE
8
BLACK
6
CONTINUOUS
10
137.1486329999999896
20
-110.8414749999999884
11
137.1486309999999946
21
-110.8414749999999884
0
LINE
8
BLACK
6
CONTINUOUS
10
137.1486309999999946
20
-110.8414749999999884
11
136.166909000000004
21
-111.4082729999999941
0
LINE
8
BLACK
6
CONTINUOUS
10
136.166909000000004
20
-111.4082729999999941
11
136.0979140000000029
21
-111.4250109999999978
0
LINE
8
BLACK
6
CONTINUOUS
10
136.0979140000000029
20
-111.4250109999999978
11
136.0308220000000006
21
-111.4017909999999887
0
LINE
8
BLACK
6
CONTINUOUS
10
136.0308220000000006
20
-111.4017909999999887
11
135.9947899999999947
21
-111.3621539999999897
0
LINE
8
BLACK
6
CONTINUOUS
10
135.9947899999999947
20
-111.3621539999999897
11
133.3124349999999936
21
-106.7161789999999968
0
LINE
8
BLACK
6
CONTINUOUS
10
133.3124349999999936
20
-106.7161789999999968
11
133.2956969999999899
21
-106.6471839999999958
0
LINE
8
BLACK
6
CONTINUOUS
10
133.2956969999999899
20
-106.6471839999999958
11
133.3124349999999936
21
-106.590178999999992
0
LINE
8
BLACK
6
CONTINUOUS
10
133.3124349999999936
20
-106.590178999999992
11
134.0036269999999945
21
-105.3930000000000007
0
LINE
8
BLACK
6
CONTINUOUS
10
134.0036269999999945
20
-105.3930000000000007
11
134.0550089999999841
21
-105.3440069999999906
0
LINE
8
BLACK
6
CONTINUOUS
10
134.0550089999999841
20
-105.3440069999999906
11
134.1127459999999871
21
-105.3299999999999983
0
LINE
8
BLACK
6
CONTINUOUS
10
134.1127459999999871
20
-105.3299999999999983
11
134.5699989999999957
21
-105.3299999999999983
0
LINE
8
BLACK
6
CONTINUOUS
10
134.5699989999999957
20
-105.3299999999999983
11
134.5857330000000047
21
-105.3142659999999893
0
LINE
8
BLACK
6
CONTINUOUS
10
134.5857330000000047
20
-105.3142659999999893
11
134.6480449999999962
21
-105.2802409999999895
0
LINE
8
BLACK
6
CONTINUOUS
10
134.6480449999999962
20
-105.2802409999999895
11
134.6746799999999951
21
-105.2773609999999991
0
LINE
8
BLACK
6
CONTINUOUS
10
134.6746799999999951
20
-105.2773609999999991
11
139.7882359999999835
21
-105.2713229999999953
0
LINE
8
BLACK
6
CONTINUOUS
10
139.7882359999999835
20
-105.2713229999999953
11
139.8563809999999989
21
-105.2912449999999893
0
LINE
8
BLACK
6
CONTINUOUS
10
180.6815129999999954
20
-69.076627000000002
11
180.6833759999999813
21
-69.0790559999999942
0
LINE
8
BLACK
6
CONTINUOUS
10
180.6833759999999813
20
-69.0790559999999942
11
181.218435999999997
21
-70.0071020000000033
0
LINE
8
BLACK
6
CONTINUOUS
10
181.218435999999997
20
-70.0071020000000033
11
181.2199999999999989
21
-70.0129459999999995
0
LINE
8
BLACK
6
CONTINUOUS
10
181.2199999999999989
20
-70.0129459999999995
11
181.2199999999999989
21
-72.0883000000000038
0
LINE
8
BLACK
6
CONTINUOUS
10
181.2199999999999989
20
-72.0883000000000038
11
181.2165729999999826
21
-72.0965729999999922
0
LINE
8
BLACK
6
CONTINUOUS
10
181.2165729999999826
20
-72.0965729999999922
11
181.2082999999999799
21
-72.0999999999999943
0
LINE
8
BLACK
6
CONTINUOUS
10
181.2082999999999799
20
-72.0999999999999943
11
180.1116999999999848
21
-72.0999999999999943
0
LINE
8
BLACK
6
CONTINUOUS
10
180.1116999999999848
20
-72.0999999999999943
11
180.1034269999999822
21
-72.0965729999999922
0
LINE
8
BLACK
6
CONTINUOUS
10
180.1034269999999822
20
-72.0965729999999922
11
180.0999999999999943
21
-72.0883000000000038
0
LINE
8
BLACK
6
CONTINUOUS
10
180.0999999999999943
20
-72.0883000000000038
11
180.0999999999999943
21
-70.9999990000000025
0
LINE
8
BLACK
6
CONTINUOUS
10
180.0999999999999943
20
-70.9999990000000025
11
179.9000010000000032
21
-70.7999999999999972
0
LINE
8
BLACK
6
CONTINUOUS
10
179.9000010000000032
20
-70.7999999999999972
11
177.2116999999999791
21
-70.7999999999999972
0
LINE
8
BLACK
6
CONTINUOUS
10
177.2116999999999791
20
-70.7999999999999972
11
177.2034270000000049
21
-70.7965729999999951
0
LINE
8
BLACK
6
CONTINUOUS
10
177.2034270000000049
20
-70.7965729999999951
11
177.1999999999999886
21
-70.7882999999999925
0
LINE
8
BLACK
6
CONTINUOUS
10
177.1999999999999886
20
-70.7882999999999925
11
177.1999999999999886
21
-70.
0
LINE
8
BLACK
6
CONTINUOUS
10
177.1999999999999886
20
-70.
11
177.1862999999999886
21
-70.
0
LINE
8
BLACK
6
CONTINUOUS
10
177.1862999999999886
20
-70.
11
177.1780269999999859
21
-69.9965729999999979
0
LINE
8
BLACK
6
CONTINUOUS
10
177.1780269999999859
20
-69.9965729999999979
11
177.1745999999999981
21
-69.9882999999999953
0
LINE
8
BLACK
6
CONTINUOUS
10
177.1745999999999981
20
-69.9882999999999953
11
177.1745999999999981
21
-69.085015999999996
0
LINE
8
BLACK
6
CONTINUOUS
10
177.1745999999999981
20
-69.085015999999996
11
177.1780269999999859
21
-69.0767429999999933
0
LINE
8
BLACK
6
CONTINUOUS
10
177.1780269999999859
20
-69.0767429999999933
11
177.1862999999999886
21
-69.0733159999999913
0
LINE
8
BLACK
6
CONTINUOUS
10
177.1862999999999886
20
-69.0733159999999913
11
180.6732399999999927
21
-69.0731999999999999
0
LINE
8
BLACK
6
CONTINUOUS
10
180.6732399999999927
20
-69.0731999999999999
11
180.6815129999999954
21
-69.076627000000002
0
LINE
8
BLACK
6
CONTINUOUS
10
177.3219729999999856
20
-69.0767390000000034
11
177.3254000000000019
21
-69.0850119999999919
0
LINE
8
BLACK
6
CONTINUOUS
10
177.3254000000000019
20
-69.0850119999999919
11
177.3254000000000019
21
-69.9976709999999969
0
LINE
8
BLACK
6
CONTINUOUS
10
177.3254000000000019
20
-69.9976709999999969
11
177.3245090000000062
21
-70.0021490000000028
0
LINE
8
BLACK
6
CONTINUOUS
10
177.3245090000000062
20
-70.0021490000000028
11
177.3198139999999796
21
-70.0134829999999937
0
LINE
8
BLACK
6
CONTINUOUS
10
177.3198139999999796
20
-70.0134829999999937
11
177.3134829999999909
21
-70.0198139999999967
0
LINE
8
BLACK
6
CONTINUOUS
10
177.3134829999999909
20
-70.0198139999999967
11
177.3021499999999833
21
-70.0245089999999948
0
LINE
8
BLACK
6
CONTINUOUS
10
177.3021499999999833
20
-70.0245089999999948
11
177.2976720000000057
21
-70.0253999999999905
0
LINE
8
BLACK
6
CONTINUOUS
10
177.2976720000000057
20
-70.0253999999999905
11
177.2116999999999791
21
-70.0253999999999905
0
LINE
8
BLACK
6
CONTINUOUS
10
177.2116999999999791
20
-70.0253999999999905
11
177.2034270000000049
21
-70.0219730000000027
0
LINE
8
BLACK
6
CONTINUOUS
10
177.2034270000000049
20
-70.0219730000000027
11
177.1999999999999886
21
-70.0137
0
LINE
8
BLACK
6
CONTINUOUS
10
177.1999999999999886
20
-70.0137
11
177.1999999999999886
21
-70.
0
LINE
8
BLACK
6
CONTINUOUS
10
177.1999999999999886
20
-70.
11
174.7090279999999893
21
-70.
0
LINE
8
BLACK
6
CONTINUOUS
10
174.7090279999999893
20
-70.
11
174.7007549999999867
21
-69.9965729999999979
0
LINE
8
BLACK
6
CONTINUOUS
10
174.7007549999999867
20
-69.9965729999999979
11
174.6988959999999906
21
-69.9941499999999905
0
LINE
8
BLACK
6
CONTINUOUS
10
174.6988959999999906
20
-69.9941499999999905
11
174.6515890000000013
21
-69.9122139999999916
0
LINE
8
BLACK
6
CONTINUOUS
10
174.6515890000000013
20
-69.9122139999999916
11
174.6504199999999969
21
-69.9033359999999959
0
LINE
8
BLACK
6
CONTINUOUS
10
174.6504199999999969
20
-69.9033359999999959
11
174.6515890000000013
21
-69.9005140000000011
0
LINE
8
BLACK
6
CONTINUOUS
10
174.6515890000000013
20
-69.9005140000000011
11
174.8948350000000005
21
-69.4792010000000033
0
LINE
8
BLACK
6
CONTINUOUS
10
174.8948350000000005
20
-69.4792010000000033
11
174.9019389999999987
21
-69.4737499999999955
0
LINE
8
BLACK
6
CONTINUOUS
10
174.9019389999999987
20
-69.4737499999999955
11
174.9049669999999992
21
-69.4733509999999939
0
LINE
8
BLACK
6
CONTINUOUS
10
174.9049669999999992
20
-69.4733509999999939
11
175.8982110000000034
21
-69.4733509999999939
0
LINE
8
BLACK
6
CONTINUOUS
10
175.8982110000000034
20
-69.4733509999999939
11
176.1257739999999785
21
-69.0792009999999976
0
LINE
8
BLACK
6
CONTINUOUS
10
176.1257739999999785
20
-69.0792009999999976
11
176.1328790000000026
21
-69.073750000000004
0
LINE
8
BLACK
6
CONTINUOUS
10
176.1328790000000026
20
-69.073750000000004
11
176.1359070000000031
21
-69.0733510000000024
0
LINE
8
BLACK
6
CONTINUOUS
10
176.1359070000000031
20
-69.0733510000000024
11
177.313699999999983
21
-69.0733120000000014
0
LINE
8
BLACK
6
CONTINUOUS
10
177.313699999999983
20
-69.0733120000000014
11
177.3219729999999856
21
-69.0767390000000034
0
LINE
8
BLACK
6
CONTINUOUS
10
157.0783289999999965
20
-76.9120989999999978
11
157.5131820000000005
21
-76.9356659999999977
0
LINE
8
BLACK
6
CONTINUOUS
10
157.5131820000000005
20
-76.9356659999999977
11
157.5243789999999819
21
-76.9367759999999947
0
LINE
8
BLACK
6
CONTINUOUS
10
157.5243789999999819
20
-76.9367759999999947
11
157.9553899999999942
21
-76.9990449999999953
0
LINE
8
BLACK
6
CONTINUOUS
10
157.9553899999999942
20
-76.9990449999999953
11
157.9664439999999956
21
-77.0011489999999981
0
LINE
8
BLACK
6
CONTINUOUS
10
157.9664439999999956
20
-77.0011489999999981
11
158.3902039999999829
21
-77.1016290000000026
0
LINE
8
BLACK
6
CONTINUOUS
10
158.3902039999999829
20
-77.1016290000000026
11
158.4010269999999991
21
-77.1047119999999921
0
LINE
8
BLACK
6
CONTINUOUS
10
158.4010269999999991
20
-77.1047119999999921
11
158.8141159999999843
21
-77.2425929999999994
0
LINE
8
BLACK
6
CONTINUOUS
10
158.8141159999999843
20
-77.2425929999999994
11
158.8246199999999817
21
-77.2466289999999987
0
LINE
8
BLACK
6
CONTINUOUS
10
158.8246199999999817
20
-77.2466289999999987
11
159.2237529999999879
21
-77.420811999999998
0
LINE
8
BLACK
6
CONTINUOUS
10
159.2237529999999879
20
-77.420811999999998
11
159.2338550000000055
21
-77.4257679999999908
0
LINE
8
BLACK
6
CONTINUOUS
10
159.2338550000000055
20
-77.4257679999999908
11
159.6158749999999884
21
-77.6348759999999913
0
LINE
8
BLACK
6
CONTINUOUS
10
159.6158749999999884
20
-77.6348759999999913
11
159.6254940000000033
21
-77.6407150000000001
0
LINE
8
BLACK
6
CONTINUOUS
10
159.6254940000000033
20
-77.6407150000000001
11
159.987322000000006
21
-77.8830639999999903
0
LINE
8
BLACK
6
CONTINUOUS
10
159.987322000000006
20
-77.8830639999999903
11
159.9963829999999803
21
-77.8897369999999967
0
LINE
8
BLACK
6
CONTINUOUS
10
159.9963829999999803
20
-77.8897369999999967
11
160.3351549999999861
21
-78.1634069999999923
0
LINE
8
BLACK
6
CONTINUOUS
10
160.3351549999999861
20
-78.1634069999999923
11
160.3435829999999953
21
-78.1708619999999996
0
LINE
8
BLACK
6
CONTINUOUS
10
160.3435829999999953
20
-78.1708619999999996
11
160.6565719999999828
21
-78.4736499999999921
0
LINE
8
BLACK
6
CONTINUOUS
10
160.6565719999999828
20
-78.4736499999999921
11
160.6643029999999897
21
-78.481827999999993
0
LINE
8
BLACK
6
CONTINUOUS
10
160.6643029999999897
20
-78.481827999999993
11
160.9490519999999947
21
-78.8113599999999934
0
LINE
8
BLACK
6
CONTINUOUS
10
160.9490519999999947
20
-78.8113599999999934
11
160.9560209999999927
21
-78.8201930000000033
0
LINE
8
BLACK
6
CONTINUOUS
10
160.9560209999999927
20
-78.8201930000000033
11
161.2102129999999818
21
-79.1737830000000002
0
LINE
8
BLACK
6
CONTINUOUS
10
161.2102129999999818
20
-79.1737830000000002
11
161.2163669999999911
21
-79.183205000000001
0
LINE
8
BLACK
6
CONTINUOUS
10
161.2163669999999911
20
-79.183205000000001
11
161.4380119999999863
21
-79.5580879999999979
0
LINE
8
BLACK
6
CONTINUOUS
10
161.4380119999999863
20
-79.5580879999999979
11
161.4433009999999911
21
-79.56801999999999
0
LINE
8
BLACK
6
CONTINUOUS
10
161.4433009999999911
20
-79.56801999999999
11
161.6306160000000034
21
-79.9611790000000013
0
LINE
8
BLACK
6
CONTINUOUS
10
161.6306160000000034
20
-79.9611790000000013
11
161.6349969999999985
21
-79.9715439999999944
0
LINE
8
BLACK
6
CONTINUOUS
10
161.6349969999999985
20
-79.9715439999999944
11
161.7864820000000066
21
-80.3798349999999999
0
LINE
8
BLACK
6
CONTINUOUS
10
161.7864820000000066
20
-80.3798349999999999
11
161.7899209999999925
21
-80.3905479999999955
0
LINE
8
BLACK
6
CONTINUOUS
10
161.7899209999999925
20
-80.3905479999999955
11
161.9043790000000058
21
-80.810732999999999
0
LINE
8
BLACK
6
CONTINUOUS
10
161.9043790000000058
20
-80.810732999999999
11
161.906848999999994
21
-80.8217119999999909
0
LINE
8
BLACK
6
CONTINUOUS
10
161.906848999999994
20
-80.8217119999999909
11
161.9833629999999971
21
-81.2504380000000026
0
LINE
8
BLACK
6
CONTINUOUS
10
161.9833629999999971
20
-81.2504380000000026
11
161.9848429999999837
21
-81.2615929999999906
0
LINE
8
BLACK
6
CONTINUOUS
10
161.9848429999999837
20
-81.2615929999999906
11
162.0227999999999895
21
-81.6954190000000011
0
LINE
8
BLACK
6
CONTINUOUS
10
162.0227999999999895
20
-81.6954190000000011
11
162.0232799999999997
21
-81.7066609999999969
0
LINE
8
BLACK
6
CONTINUOUS
10
162.0232799999999997
20
-81.7066609999999969
11
162.0223799999999983
21
-82.1421679999999981
0
LINE
8
BLACK
6
CONTINUOUS
10
162.0223799999999983
20
-82.1421679999999981
11
162.0218539999999905
21
-82.1534079999999989
0
LINE
8
BLACK
6
CONTINUOUS
10
162.0218539999999905
20
-82.1534079999999989
11
161.9821059999999875
21
-82.5870759999999962
0
LINE
8
BLACK
6
CONTINUOUS
10
161.9821059999999875
20
-82.5870759999999962
11
161.9805800000000033
21
-82.5982249999999993
0
LINE
8
BLACK
6
CONTINUOUS
10
161.9805800000000033
20
-82.5982249999999993
11
161.9022970000000043
21
-83.0266309999999947
0
LINE
8
BLACK
6
CONTINUOUS
10
161.9022970000000043
20
-83.0266309999999947
11
161.8997819999999876
21
-83.0375990000000002
0
LINE
8
BLACK
6
CONTINUOUS
10
161.8997819999999876
20
-83.0375990000000002
11
161.7835900000000038
21
-83.4573120000000017
0
LINE
8
BLACK
6
CONTINUOUS
10
161.7835900000000038
20
-83.4573120000000017
11
161.7801059999999893
21
-83.4680120000000016
0
LINE
8
BLACK
6
CONTINUOUS
10
161.7801059999999893
20
-83.4680120000000016
11
161.6269340000000057
21
-83.8756759999999986
0
LINE
8
BLACK
6
CONTINUOUS
10
161.6269340000000057
20
-83.8756759999999986
11
161.6225100000000054
21
-83.886021999999997
0
LINE
8
BLACK
6
CONTINUOUS
10
161.6225100000000054
20
-83.886021999999997
11
161.4335769999999854
21
-84.2784010000000023
0
LINE
8
BLACK
6
CONTINUOUS
10
161.4335769999999854
20
-84.2784010000000023
11
161.4282469999999989
21
-84.2883119999999906
0
LINE
8
BLACK
6
CONTINUOUS
10
161.4282469999999989
20
-84.2883119999999906
11
161.2050619999999981
21
-84.6622649999999908
0
LINE
8
BLACK
6
CONTINUOUS
10
161.2050619999999981
20
-84.6622649999999908
11
161.1988699999999994
21
-84.6716600000000028
0
LINE
8
BLACK
6
CONTINUOUS
10
161.1988699999999994
20
-84.6716600000000028
11
160.9432109999999909
21
-85.0242119999999915
0
LINE
8
BLACK
6
CONTINUOUS
10
160.9432109999999909
20
-85.0242119999999915
11
160.9362050000000011
21
-85.0330179999999984
0
LINE
8
BLACK
6
CONTINUOUS
10
160.9362050000000011
20
-85.0330179999999984
11
160.6501039999999989
21
-85.3613619999999997
0
LINE
8
BLACK
6
CONTINUOUS
10
160.6501039999999989
20
-85.3613619999999997
11
160.6423399999999901
21
-85.3695069999999987
0
LINE
8
BLACK
6
CONTINUOUS
10
160.6423399999999901
20
-85.3695069999999987
11
160.3280919999999981
21
-85.6710130000000021
0
LINE
8
BLACK
6
CONTINUOUS
10
160.3280919999999981
20
-85.6710130000000021
11
160.3196319999999844
21
-85.6784329999999983
0
LINE
8
BLACK
6
CONTINUOUS
10
160.3196319999999844
20
-85.6784329999999983
11
159.9797439999999824
21
-85.9506939999999986
0
LINE
8
BLACK
6
CONTINUOUS
10
159.9797439999999824
20
-85.9506939999999986
11
159.9706559999999911
21
-85.9573299999999989
0
LINE
8
BLACK
6
CONTINUOUS
10
159.9706559999999911
20
-85.9573299999999989
11
159.6078239999999937
21
-86.1981859999999926
0
LINE
8
BLACK
6
CONTINUOUS
10
159.6078239999999937
20
-86.1981859999999926
11
159.5981809999999825
21
-86.2039839999999913
0
LINE
8
BLACK
6
CONTINUOUS
10
159.5981809999999825
20
-86.2039839999999913
11
159.2153089999999906
21
-86.4115089999999952
0
LINE
8
BLACK
6
CONTINUOUS
10
159.2153089999999906
20
-86.4115089999999952
11
159.2051869999999951
21
-86.4164239999999921
0
LINE
8
BLACK
6
CONTINUOUS
10
159.2051869999999951
20
-86.4164239999999921
11
158.8053400000000011
21
-86.5889569999999935
0
LINE
8
BLACK
6
CONTINUOUS
10
158.8053400000000011
20
-86.5889569999999935
11
158.7948189999999897
21
-86.5929500000000019
0
LINE
8
BLACK
6
CONTINUOUS
10
158.7948189999999897
20
-86.5929500000000019
11
158.3811550000000068
21
-86.7291269999999912
0
LINE
8
BLACK
6
CONTINUOUS
10
158.3811550000000068
20
-86.7291269999999912
11
158.3703199999999924
21
-86.7321649999999948
0
LINE
8
BLACK
6
CONTINUOUS
10
158.3703199999999924
20
-86.7321649999999948
11
157.9461609999999894
21
-86.8308919999999915
0
LINE
8
BLACK
6
CONTINUOUS
10
157.9461609999999894
20
-86.8308919999999915
11
157.9350989999999797
21
-86.8329509999999942
0
LINE
8
BLACK
6
CONTINUOUS
10
157.9350989999999797
20
-86.8329509999999942
11
157.503816999999998
21
-86.8934429999999907
0
LINE
8
BLACK
6
CONTINUOUS
10
157.503816999999998
20
-86.8934429999999907
11
157.4926140000000032
21
-86.8945059999999927
0
LINE
8
BLACK
6
CONTINUOUS
10
157.4926140000000032
20
-86.8945059999999927
11
157.0576810000000023
21
-86.9162759999999963
0
LINE
8
BLACK
6
CONTINUOUS
10
157.0576810000000023
20
-86.9162759999999963
11
157.0464289999999892
21
-86.9163369999999986
0
LINE
8
BLACK
6
CONTINUOUS
10
157.0464289999999892
20
-86.9163369999999986
11
156.6112619999999822
21
-86.8992179999999905
0
LINE
8
BLACK
6
CONTINUOUS
10
156.6112619999999822
20
-86.8992179999999905
11
156.6000489999999843
21
-86.8982740000000007
0
LINE
8
BLACK
6
CONTINUOUS
10
156.6000489999999843
20
-86.8982740000000007
11
156.1681489999999997
21
-86.8423980000000029
0
LINE
8
BLACK
6
CONTINUOUS
10
156.1681489999999997
20
-86.8423980000000029
11
156.1570649999999887
21
-86.8404570000000007
0
LINE
8
BLACK
6
CONTINUOUS
10
156.1570649999999887
20
-86.8404570000000007
11
155.7318789999999922
21
-86.7462719999999905
0
LINE
8
BLACK
6
CONTINUOUS
10
155.7318789999999922
20
-86.7462719999999905
11
155.7210120000000018
21
-86.7433499999999924
0
LINE
8
BLACK
6
CONTINUOUS
10
155.7210120000000018
20
-86.7433499999999924
11
155.3059279999999944
21
-86.6116079999999897
0
LINE
8
BLACK
6
CONTINUOUS
10
155.3059279999999944
20
-86.6116079999999897
11
155.2953660000000013
21
-86.607728999999992
0
LINE
8
BLACK
6
CONTINUOUS
10
155.2953660000000013
20
-86.607728999999992
11
154.8936789999999917
21
-86.4394759999999991
0
LINE
8
BLACK
6
CONTINUOUS
10
154.8936789999999917
20
-86.4394759999999991
11
154.8835039999999879
21
-86.4346689999999995
0
LINE
8
BLACK
6
CONTINUOUS
10
154.8835039999999879
20
-86.4346689999999995
11
154.4984389999999905
21
-86.2312519999999978
0
LINE
8
BLACK
6
CONTINUOUS
10
154.4984389999999905
20
-86.2312519999999978
11
154.4887339999999938
21
-86.2255569999999949
0
LINE
8
BLACK
6
CONTINUOUS
10
154.4887339999999938
20
-86.2255569999999949
11
154.1233499999999879
21
-85.9885960000000011
0
LINE
8
BLACK
6
CONTINUOUS
10
154.1233499999999879
20
-85.9885960000000011
11
154.1141920000000027
21
-85.982057999999995
0
LINE
8
BLACK
6
CONTINUOUS
10
154.1141920000000027
20
-85.982057999999995
11
153.7714039999999898
21
-85.7134410000000031
0
LINE
8
BLACK
6
CONTINUOUS
10
153.7714039999999898
20
-85.7134410000000031
11
153.762865000000005
21
-85.7061119999999903
0
LINE
8
BLACK
6
CONTINUOUS
10
153.762865000000005
20
-85.7061119999999903
11
153.4449070000000006
21
-85.407511999999997
0
LINE
8
BLACK
6
CONTINUOUS
10
153.4449070000000006
20
-85.407511999999997
11
153.4379879999999901
21
-85.4004839999999916
0
LINE
8
BLACK
6
CONTINUOUS
10
153.4379879999999901
20
-85.4004839999999916
11
153.2909279999999796
21
-85.2389369999999928
0
LINE
8
BLACK
6
CONTINUOUS
10
153.2909279999999796
20
-85.2389369999999928
11
153.2391039999999975
21
-85.184519999999992
0
LINE
8
BLACK
6
CONTINUOUS
10
153.2391039999999975
20
-85.184519999999992
11
153.2391030000000001
21
-85.1845189999999945
0
LINE
8
BLACK
6
CONTINUOUS
10
153.2391030000000001
20
-85.1845189999999945
11
153.1554529999999943
21
-85.1339559999999977
0
LINE
8
BLACK
6
CONTINUOUS
10
153.1554529999999943
20
-85.1339559999999977
11
153.1075019999999824
21
-85.0815999999999946
0
LINE
8
BLACK
6
CONTINUOUS
10
153.1075019999999824
20
-85.0815999999999946
11
153.1016109999999912
21
-85.0674750000000017
0
LINE
8
BLACK
6
CONTINUOUS
10
153.1016109999999912
20
-85.0674750000000017
11
152.9989929999999845
21
-84.7721039999999988
0
LINE
8
BLACK
6
CONTINUOUS
10
152.9989929999999845
20
-84.7721039999999988
11
151.9803110000000004
21
-82.1235279999999932
0
LINE
8
BLACK
6
CONTINUOUS
10
151.9803110000000004
20
-82.1235279999999932
11
151.9745259999999973
21
-82.0527680000000004
0
LINE
8
BLACK
6
CONTINUOUS
10
151.9745259999999973
20
-82.0527680000000004
11
151.9781729999999982
21
-82.0390739999999994
0
LINE
8
BLACK
6
CONTINUOUS
10
151.9781729999999982
20
-82.0390739999999994
11
152.0221870000000024
21
-81.9047079999999994
0
LINE
8
BLACK
6
CONTINUOUS
10
152.0221870000000024
20
-81.9047079999999994
11
152.0221879999999999
21
-81.9047029999999978
0
LINE
8
BLACK
6
CONTINUOUS
10
152.0221879999999999
20
-81.9047029999999978
11
152.0260009999999795
21
-81.8296959999999984
0
LINE
8
BLACK
6
CONTINUOUS
10
152.0260009999999795
20
-81.8296959999999984
11
152.0278099999999881
21
-81.7649749999999926
0
LINE
8
BLACK
6
CONTINUOUS
10
152.0278099999999881
20
-81.7649749999999926
11
154.5267460000000028
21
-81.7649749999999926
0
LINE
8
BLACK
6
CONTINUOUS
10
154.5267460000000028
20
-81.7649749999999926
11
154.5267460000000028
21
-82.0792280000000005
0
LINE
8
BLACK
6
CONTINUOUS
10
154.5267460000000028
20
-82.0792280000000005
11
154.5267470000000003
21
-82.0792469999999952
0
LINE
8
BLACK
6
CONTINUOUS
10
154.5267470000000003
20
-82.0792469999999952
11
154.5661309999999844
21
-82.3910039999999952
0
LINE
8
BLACK
6
CONTINUOUS
10
154.5661309999999844
20
-82.3910039999999952
11
154.5661329999999793
21
-82.3910169999999908
0
LINE
8
BLACK
6
CONTINUOUS
10
154.5661329999999793
20
-82.3910169999999908
11
154.6442869999999914
21
-82.6954099999999954
0
LINE
8
BLACK
6
CONTINUOUS
10
154.6442869999999914
20
-82.6954099999999954
11
154.6442879999999889
21
-82.6954130000000021
0
LINE
8
BLACK
6
CONTINUOUS
10
154.6442879999999889
20
-82.6954130000000021
11
154.7599749999999972
21
-82.9876019999999954
0
LINE
8
BLACK
6
CONTINUOUS
10
154.7599749999999972
20
-82.9876019999999954
11
154.9113729999999975
21
-83.262993999999992
0
LINE
8
BLACK
6
CONTINUOUS
10
154.9113729999999975
20
-83.262993999999992
11
154.9113720000000001
21
-83.262993999999992
0
LINE
8
BLACK
6
CONTINUOUS
10
154.9113720000000001
20
-83.262993999999992
11
155.0960879999999804
21
-83.5172319999999928
0
LINE
8
BLACK
6
CONTINUOUS
10
155.0960879999999804
20
-83.5172319999999928
11
155.3112169999999992
21
-83.7463229999999896
0
LINE
8
BLACK
6
CONTINUOUS
10
155.3112169999999992
20
-83.7463229999999896
11
155.3112189999999941
21
-83.7463249999999988
0
LINE
8
BLACK
6
CONTINUOUS
10
155.3112189999999941
20
-83.7463249999999988
11
155.5533639999999878
21
-83.9466449999999895
0
LINE
8
BLACK
6
CONTINUOUS
10
155.5533639999999878
20
-83.9466449999999895
11
155.5533669999999802
21
-83.9466469999999987
0
LINE
8
BLACK
6
CONTINUOUS
10
155.5533669999999802
20
-83.9466469999999987
11
155.8186939999999936
21
-84.1150279999999952
0
LINE
8
BLACK
6
CONTINUOUS
10
155.8186939999999936
20
-84.1150279999999952
11
155.8187079999999867
21
-84.1150359999999893
0
LINE
8
BLACK
6
CONTINUOUS
10
155.8187079999999867
20
-84.1150359999999893
11
156.1030509999999936
21
-84.2488369999999946
0
LINE
8
BLACK
6
CONTINUOUS
10
156.1030509999999936
20
-84.2488369999999946
11
156.1030549999999835
21
-84.2488389999999896
0
LINE
8
BLACK
6
CONTINUOUS
10
156.1030549999999835
20
-84.2488389999999896
11
156.4019360000000063
21
-84.3459519999999969
0
LINE
8
BLACK
6
CONTINUOUS
10
156.4019360000000063
20
-84.3459519999999969
11
156.4019439999999861
21
-84.3459539999999919
0
LINE
8
BLACK
6
CONTINUOUS
10
156.4019439999999861
20
-84.3459539999999919
11
156.7106279999999856
21
-84.4048389999999955
0
LINE
8
BLACK
6
CONTINUOUS
10
156.7106279999999856
20
-84.4048389999999955
11
156.7106509999999844
21
-84.4048420000000021
0
LINE
8
BLACK
6
CONTINUOUS
10
156.7106509999999844
20
-84.4048420000000021
11
157.0242729999999938
21
-84.4245739999999927
0
LINE
8
BLACK
6
CONTINUOUS
10
157.0242729999999938
20
-84.4245739999999927
11
157.0242849999999919
21
-84.4245739999999927
0
LINE
8
BLACK
6
CONTINUOUS
10
157.0242849999999919
20
-84.4245739999999927
11
157.3379060000000038
21
-84.4048420000000021
0
LINE
8
BLACK
6
CONTINUOUS
10
157.3379060000000038
20
-84.4048420000000021
11
157.3379290000000026
21
-84.4048389999999955
0
LINE
8
BLACK
6
CONTINUOUS
10
157.3379290000000026
20
-84.4048389999999955
11
157.6466130000000021
21
-84.3459539999999919
0
LINE
8
BLACK
6
CONTINUOUS
10
157.6466130000000021
20
-84.3459539999999919
11
157.6466209999999819
21
-84.3459519999999969
0
LINE
8
BLACK
6
CONTINUOUS
10
157.6466209999999819
20
-84.3459519999999969
11
157.9455020000000047
21
-84.2488389999999896
0
LINE
8
BLACK
6
CONTINUOUS
10
157.9455020000000047
20
-84.2488389999999896
11
157.9455059999999946
21
-84.2488369999999946
0
LINE
8
BLACK
6
CONTINUOUS
10
157.9455059999999946
20
-84.2488369999999946
11
158.2298490000000015
21
-84.1150359999999893
0
LINE
8
BLACK
6
CONTINUOUS
10
158.2298490000000015
20
-84.1150359999999893
11
158.2298629999999946
21
-84.1150279999999952
0
LINE
8
BLACK
6
CONTINUOUS
10
158.2298629999999946
20
-84.1150279999999952
11
158.4951899999999796
21
-83.9466469999999987
0
LINE
8
BLACK
6
CONTINUOUS
10
158.4951899999999796
20
-83.9466469999999987
11
158.4951930000000004
21
-83.9466449999999895
0
LINE
8
BLACK
6
CONTINUOUS
10
158.4951930000000004
20
-83.9466449999999895
11
158.7373379999999941
21
-83.7463249999999988
0
LINE
8
BLACK
6
CONTINUOUS
10
158.7373379999999941
20
-83.7463249999999988
11
158.737339999999989
21
-83.7463229999999896
0
LINE
8
BLACK
6
CONTINUOUS
10
158.737339999999989
20
-83.7463229999999896
11
158.9524689999999794
21
-83.5172319999999928
0
LINE
8
BLACK
6
CONTINUOUS
10
158.9524689999999794
20
-83.5172319999999928
11
159.1371839999999906
21
-83.262993999999992
0
LINE
8
BLACK
6
CONTINUOUS
10
159.1371839999999906
20
-83.262993999999992
11
159.288581999999991
21
-82.9876019999999954
0
LINE
8
BLACK
6
CONTINUOUS
10
159.288581999999991
20
-82.9876019999999954
11
159.4042689999999993
21
-82.6954130000000021
0
LINE
8
BLACK
6
CONTINUOUS
10
159.4042689999999993
20
-82.6954130000000021
11
159.4042699999999968
21
-82.6954099999999954
0
LINE
8
BLACK
6
CONTINUOUS
10
159.4042699999999968
20
-82.6954099999999954
11
159.4824239999999804
21
-82.3910169999999908
0
LINE
8
BLACK
6
CONTINUOUS
10
159.4824239999999804
20
-82.3910169999999908
11
159.4824260000000038
21
-82.3910039999999952
0
LINE
8
BLACK
6
CONTINUOUS
10
159.4824260000000038
20
-82.3910039999999952
11
159.5218099999999879
21
-82.0792459999999977
0
LINE
8
BLACK
6
CONTINUOUS
10
159.5218099999999879
20
-82.0792459999999977
11
159.5218119999999828
21
-82.0792239999999964
0
LINE
8
BLACK
6
CONTINUOUS
10
159.5218119999999828
20
-82.0792239999999964
11
159.5242789999999786
21
-81.9221019999999953
0
LINE
8
BLACK
6
CONTINUOUS
10
159.5242789999999786
20
-81.9221019999999953
11
159.5218119999999828
21
-81.7649789999999967
0
LINE
8
BLACK
6
CONTINUOUS
10
159.5218119999999828
20
-81.7649789999999967
11
159.5218099999999879
21
-81.7649569999999954
0
LINE
8
BLACK
6
CONTINUOUS
10
159.5218099999999879
20
-81.7649569999999954
11
159.4824260000000038
21
-81.4531989999999979
0
LINE
8
BLACK
6
CONTINUOUS
10
159.4824260000000038
20
-81.4531989999999979
11
159.4824239999999804
21
-81.4531860000000023
0
LINE
8
BLACK
6
CONTINUOUS
10
159.4824239999999804
20
-81.4531860000000023
11
159.4042699999999968
21
-81.1487929999999977
0
LINE
8
BLACK
6
CONTINUOUS
10
159.4042699999999968
20
-81.1487929999999977
11
159.4042689999999993
21
-81.1487899999999911
0
LINE
8
BLACK
6
CONTINUOUS
10
159.4042689999999993
20
-81.1487899999999911
11
159.288581999999991
21
-80.8566009999999977
0
LINE
8
BLACK
6
CONTINUOUS
10
159.288581999999991
20
-80.8566009999999977
11
159.1371839999999906
21
-80.5812090000000012
0
LINE
8
BLACK
6
CONTINUOUS
10
159.1371839999999906
20
-80.5812090000000012
11
159.1371849999999881
21
-80.5812090000000012
0
LINE
8
BLACK
6
CONTINUOUS
10
159.1371849999999881
20
-80.5812090000000012
11
158.9524689999999794
21
-80.3269710000000003
0
LINE
8
BLACK
6
CONTINUOUS
10
158.9524689999999794
20
-80.3269710000000003
11
158.737339999999989
21
-80.0978799999999893
0
LINE
8
BLACK
6
CONTINUOUS
10
158.737339999999989
20
-80.0978799999999893
11
158.7373379999999941
21
-80.0978779999999944
0
LINE
8
BLACK
6
CONTINUOUS
10
158.7373379999999941
20
-80.0978779999999944
11
158.4951930000000004
21
-79.8975579999999894
0
LINE
8
BLACK
6
CONTINUOUS
10
158.4951930000000004
20
-79.8975579999999894
11
158.4951899999999796
21
-79.8975559999999945
0
LINE
8
BLACK
6
CONTINUOUS
10
158.4951899999999796
20
-79.8975559999999945
11
158.2298629999999946
21
-79.7291749999999979
0
LINE
8
BLACK
6
CONTINUOUS
10
158.2298629999999946
20
-79.7291749999999979
11
158.2298490000000015
21
-79.7291669999999897
0
LINE
8
BLACK
6
CONTINUOUS
10
158.2298490000000015
20
-79.7291669999999897
11
157.9455059999999946
21
-79.5953659999999985
0
LINE
8
BLACK
6
CONTINUOUS
10
157.9455059999999946
20
-79.5953659999999985
11
157.9455020000000047
21
-79.5953639999999893
0
LINE
8
BLACK
6
CONTINUOUS
10
157.9455020000000047
20
-79.5953639999999893
11
157.6466209999999819
21
-79.4982509999999962
0
LINE
8
BLACK
6
CONTINUOUS
10
157.6466209999999819
20
-79.4982509999999962
11
157.6466130000000021
21
-79.4982490000000013
0
LINE
8
BLACK
6
CONTINUOUS
10
157.6466130000000021
20
-79.4982490000000013
11
157.3379280000000051
21
-79.4393639999999976
0
LINE
8
BLACK
6
CONTINUOUS
10
157.3379280000000051
20
-79.4393639999999976
11
157.3379050000000063
21
-79.439360999999991
0
LINE
8
BLACK
6
CONTINUOUS
10
157.3379050000000063
20
-79.439360999999991
11
157.0242859999999894
21
-79.4196309999999954
0
LINE
8
BLACK
6
CONTINUOUS
10
157.0242859999999894
20
-79.4196309999999954
11
157.0242719999999963
21
-79.4196309999999954
0
LINE
8
BLACK
6
CONTINUOUS
10
157.0242719999999963
20
-79.4196309999999954
11
156.7106519999999819
21
-79.439360999999991
0
LINE
8
BLACK
6
CONTINUOUS
10
156.7106519999999819
20
-79.439360999999991
11
156.7106289999999831
21
-79.4393639999999976
0
LINE
8
BLACK
6
CONTINUOUS
10
156.7106289999999831
20
-79.4393639999999976
11
156.4019439999999861
21
-79.4982490000000013
0
LINE
8
BLACK
6
CONTINUOUS
10
156.4019439999999861
20
-79.4982490000000013
11
156.4019360000000063
21
-79.4982509999999962
0
LINE
8
BLACK
6
CONTINUOUS
10
156.4019360000000063
20
-79.4982509999999962
11
156.1030549999999835
21
-79.5953639999999893
0
LINE
8
BLACK
6
CONTINUOUS
10
156.1030549999999835
20
-79.5953639999999893
11
156.1030509999999936
21
-79.5953659999999985
0
LINE
8
BLACK
6
CONTINUOUS
10
156.1030509999999936
20
-79.5953659999999985
11
155.8187079999999867
21
-79.7291669999999897
0
LINE
8
BLACK
6
CONTINUOUS
10
155.8187079999999867
20
-79.7291669999999897
11
155.8186939999999936
21
-79.7291749999999979
0
LINE
8
BLACK
6
CONTINUOUS
10
155.8186939999999936
20
-79.7291749999999979
11
155.5533669999999802
21
-79.8975559999999945
0
LINE
8
BLACK
6
CONTINUOUS
10
155.5533669999999802
20
-79.8975559999999945
11
155.5533639999999878
21
-79.8975579999999894
0
LINE
8
BLACK
6
CONTINUOUS
10
155.5533639999999878
20
-79.8975579999999894
11
155.3112189999999941
21
-80.0978779999999944
0
LINE
8
BLACK
6
CONTINUOUS
10
155.3112189999999941
20
-80.0978779999999944
11
155.3112169999999992
21
-80.0978799999999893
0
LINE
8
BLACK
6
CONTINUOUS
10
155.3112169999999992
20
-80.0978799999999893
11
155.0960879999999804
21
-80.3269710000000003
0
LINE
8
BLACK
6
CONTINUOUS
10
155.0960879999999804
20
-80.3269710000000003
11
154.9113729999999975
21
-80.5812090000000012
0
LINE
8
BLACK
6
CONTINUOUS
10
154.9113729999999975
20
-80.5812090000000012
11
154.7599749999999972
21
-80.8566009999999977
0
LINE
8
BLACK
6
CONTINUOUS
10
154.7599749999999972
20
-80.8566009999999977
11
154.6442879999999889
21
-81.1487899999999911
0
LINE
8
BLACK
6
CONTINUOUS
10
154.6442879999999889
20
-81.1487899999999911
11
154.6442869999999914
21
-81.1487929999999977
0
LINE
8
BLACK
6
CONTINUOUS
10
154.6442869999999914
20
-81.1487929999999977
11
154.5661329999999793
21
-81.4531860000000023
0
LINE
8
BLACK
6
CONTINUOUS
10
154.5661329999999793
20
-81.4531860000000023
11
154.5661309999999844
21
-81.4531989999999979
0
LINE
8
BLACK
6
CONTINUOUS
10
154.5661309999999844
20
-81.4531989999999979
11
154.5267470000000003
21
-81.764955999999998
0
LINE
8
BLACK
6
CONTINUOUS
10
154.5267470000000003
20
-81.764955999999998
11
154.5267460000000028
21
-81.7649749999999926
0
LINE
8
BLACK
6
CONTINUOUS
10
154.5267460000000028
20
-81.7649749999999926
11
152.0278099999999881
21
-81.7649749999999926
0
LINE
8
BLACK
6
CONTINUOUS
10
152.0278099999999881
20
-81.7649749999999926
11
152.0321050000000014
21
-81.6112949999999984
0
LINE
8
BLACK
6
CONTINUOUS
10
152.0321050000000014
20
-81.6112949999999984
11
152.032765999999981
21
-81.6014559999999989
0
LINE
8
BLACK
6
CONTINUOUS
10
152.032765999999981
20
-81.6014559999999989
11
152.0790130000000033
21
-81.1677169999999961
0
LINE
8
BLACK
6
CONTINUOUS
10
152.0790130000000033
20
-81.1677169999999961
11
152.0807049999999947
21
-81.1565920000000034
0
LINE
8
BLACK
6
CONTINUOUS
10
152.0807049999999947
20
-81.1565920000000034
11
152.1653279999999882
21
-80.7294040000000024
0
LINE
8
BLACK
6
CONTINUOUS
10
152.1653279999999882
20
-80.7294040000000024
11
152.1680049999999937
21
-80.718474999999998
0
LINE
8
BLACK
6
CONTINUOUS
10
152.1680049999999937
20
-80.718474999999998
11
152.2904059999999902
21
-80.3005289999999974
0
LINE
8
BLACK
6
CONTINUOUS
10
152.2904059999999902
20
-80.3005289999999974
11
152.2940480000000036
21
-80.2898819999999915
0
LINE
8
BLACK
6
CONTINUOUS
10
152.2940480000000036
20
-80.2898819999999915
11
152.4532439999999838
21
-79.8845340000000022
0
LINE
8
BLACK
6
CONTINUOUS
10
152.4532439999999838
20
-79.8845340000000022
11
152.4578209999999956
21
-79.8742539999999934
0
LINE
8
BLACK
6
CONTINUOUS
10
152.4578209999999956
20
-79.8742539999999934
11
152.6525509999999883
21
-79.4847159999999917
0
LINE
8
BLACK
6
CONTINUOUS
10
152.6525509999999883
20
-79.4847159999999917
11
152.6580270000000041
21
-79.4748859999999979
0
LINE
8
BLACK
6
CONTINUOUS
10
152.6580270000000041
20
-79.4748859999999979
11
152.8867290000000025
21
-79.1042839999999927
0
LINE
8
BLACK
6
CONTINUOUS
10
152.8867290000000025
20
-79.1042839999999927
11
152.8930599999999913
21
-79.09498099999999
0
LINE
8
BLACK
6
CONTINUOUS
10
152.8930599999999913
20
-79.09498099999999
11
153.1539190000000019
21
-78.7462539999999933
0
LINE
8
BLACK
6
CONTINUOUS
10
153.1539190000000019
20
-78.7462539999999933
11
153.1610550000000046
21
-78.7375540000000029
0
LINE
8
BLACK
6
CONTINUOUS
10
153.1610550000000046
20
-78.7375540000000029
11
153.4519839999999817
21
-78.4134930000000026
0
LINE
8
BLACK
6
CONTINUOUS
10
153.4519839999999817
20
-78.4134930000000026
11
153.4598670000000027
21
-78.4054629999999975
0
LINE
8
BLACK
6
CONTINUOUS
10
153.4598670000000027
20
-78.4054629999999975
11
153.7785529999999881
21
-78.1086469999999906
0
LINE
8
BLACK
6
CONTINUOUS
10
153.7785529999999881
20
-78.1086469999999906
11
153.7871219999999823
21
-78.1013530000000031
0
LINE
8
BLACK
6
CONTINUOUS
10
153.7871219999999823
20
-78.1013530000000031
11
154.1310129999999958
21
-77.8341549999999955
0
LINE
8
BLACK
6
CONTINUOUS
10
154.1310129999999958
20
-77.8341549999999955
11
154.140197999999998
21
-77.8276549999999929
0
LINE
8
BLACK
6
CONTINUOUS
10
154.140197999999998
20
-77.8276549999999929
11
154.5065579999999841
21
-77.5922049999999928
0
LINE
8
BLACK
6
CONTINUOUS
10
154.5065579999999841
20
-77.5922049999999928
11
154.5162859999999796
21
-77.5865500000000026
0
LINE
8
BLACK
6
CONTINUOUS
10
154.5162859999999796
20
-77.5865500000000026
11
154.9021819999999821
21
-77.3847279999999955
0
LINE
8
BLACK
6
CONTINUOUS
10
154.9021819999999821
20
-77.3847279999999955
11
154.9123769999999922
21
-77.3799630000000036
0
LINE
8
BLACK
6
CONTINUOUS
10
154.9123769999999922
20
-77.3799630000000036
11
155.3147529999999961
21
-77.2133699999999976
0
LINE
8
BLACK
6
CONTINUOUS
10
155.3147529999999961
20
-77.2133699999999976
11
155.3253310000000056
21
-77.2095339999999908
0
LINE
8
BLACK
6
CONTINUOUS
10
155.3253310000000056
20
-77.2095339999999908
11
155.7409729999999968
21
-77.0795009999999934
0
LINE
8
BLACK
6
CONTINUOUS
10
155.7409729999999968
20
-77.0795009999999934
11
155.7518519999999853
21
-77.0766249999999928
0
LINE
8
BLACK
6
CONTINUOUS
10
155.7518519999999853
20
-77.0766249999999928
11
156.1774139999999989
21
-76.9841989999999896
0
LINE
8
BLACK
6
CONTINUOUS
10
156.1774139999999989
20
-76.9841989999999896
11
156.1885059999999896
21
-76.9823039999999992
0
LINE
8
BLACK
6
CONTINUOUS
10
156.1885059999999896
20
-76.9823039999999992
11
156.6206269999999847
21
-76.928212000000002
0
LINE
8
BLACK
6
CONTINUOUS
10
156.6206269999999847
20
-76.928212000000002
11
156.631844000000001
21
-76.9273139999999955
0
LINE
8
BLACK
6
CONTINUOUS
10
156.631844000000001
20
-76.9273139999999955
11
157.0670769999999834
21
-76.9119919999999979
0
LINE
8
BLACK
6
CONTINUOUS
10
157.0670769999999834
20
-76.9119919999999979
11
157.0783289999999965
21
-76.9120989999999978
  0
ENDSEC
  0
EOF
