  0
SECTION
  2
HEADER
  9
$ANGBASE
  50
0.0
  9
$ANGDIR
  70
1
  9
$MEASUREMENT
  70
1
  0
ENDSEC
  0
SECTION
  2
TABLES
  0
TABLE
  2
LTYPE
  70
4
  0
LTYPE
  5
40F
  2
CONTINUOUS
  70
0
  3
Solid line
  72
65
  73
0
  40
0.0
  0
LTYPE
  5
410
  2
DASHDOT
 70
0
  3
Dash Dot ____ _ ____ _
 72
65
 73
4
 40
2.0
 49
1.25
 49
-0.25
 49
0.25
 49
-0.25
  0
LTYPE
  5
411
  2
DASHED
 70
0
  3
Dashed __ __ __ __ __
 72
65
 73
2
 40
0.75
 49
0.5
 49
-0.25
  0
LTYPE
  5
43B
  2
DOTTED
 70
0
  3
Dotted .  .  .  .
 72
65
 73
2
 40
0.2
 49
0.0
 49
-0.2
  0
ENDTAB
  0
TABLE
  2
STYLE
  70
4
  0
STYLE
  2
KICAD
  70
0
  40
0
  41
1
  42
1
  50
0
  71
0
  3
isocp.shx
  0
STYLE
  2
KICADB
  70
0
  40
0
  41
1
  42
1
  50
0
  71
0
  3
isocp.shx
  0
STYLE
  2
KICADI
  70
0
  40
0
  41
1
  42
1
  50
15
  71
0
  3
isocp.shx
  0
STYLE
  2
KICADBI
  70
0
  40
0
  41
1
  42
1
  50
15
  71
0
  3
isocp.shx
  0
ENDTAB
  0
TABLE
  2
LAYER
  70
1
  0
LAYER
  2
BLACK
  70
0
  62
7
  6
CONTINUOUS
  0
ENDTAB
  0
ENDSEC
  0
SECTION
  2
ENTITIES
0
LINE
8
BLACK
6
CONTINUOUS
10
170.0122700000000009
20
-78.2554289999999924
11
170.0291579999999954
21
-78.2593820000000022
0
LINE
8
BLACK
6
CONTINUOUS
10
170.0291579999999954
20
-78.2593820000000022
11
170.0302489999999977
21
-78.2611399999999975
0
LINE
8
BLACK
6
CONTINUOUS
10
170.0302489999999977
20
-78.2611399999999975
11
170.0322209999999927
21
-78.2617669999999919
0
LINE
8
BLACK
6
CONTINUOUS
10
170.0322209999999927
20
-78.2617669999999919
11
170.044399999999996
21
-78.2770069999999976
0
LINE
8
BLACK
6
CONTINUOUS
10
170.044399999999996
20
-78.2770069999999976
11
172.9444000000000017
21
-83.8770069999999919
0
LINE
8
BLACK
6
CONTINUOUS
10
172.9444000000000017
20
-83.8770069999999919
11
172.9483929999999816
21
-83.8908179999999959
0
LINE
8
BLACK
6
CONTINUOUS
10
172.9483929999999816
20
-83.8908179999999959
11
172.9494439999999997
21
-83.8925629999999956
0
LINE
8
BLACK
6
CONTINUOUS
10
172.9494439999999997
20
-83.8925629999999956
11
172.9491909999999848
21
-83.8935779999999909
0
LINE
8
BLACK
6
CONTINUOUS
10
172.9491909999999848
20
-83.8935779999999909
11
172.9498189999999909
21
-83.8957479999999975
0
LINE
8
BLACK
6
CONTINUOUS
10
172.9498189999999909
20
-83.8957479999999975
11
172.9444759999999803
21
-83.9125650000000007
0
LINE
8
BLACK
6
CONTINUOUS
10
172.9444759999999803
20
-83.9125650000000007
11
172.9402209999999798
21
-83.9297029999999893
0
LINE
8
BLACK
6
CONTINUOUS
10
172.9402209999999798
20
-83.9297029999999893
11
172.9385489999999947
21
-83.9312240000000003
0
LINE
8
BLACK
6
CONTINUOUS
10
172.9385489999999947
20
-83.9312240000000003
11
172.9382329999999968
21
-83.9322209999999984
0
LINE
8
BLACK
6
CONTINUOUS
10
172.9382329999999968
20
-83.9322209999999984
11
172.9364259999999831
21
-83.9331559999999968
0
LINE
8
BLACK
6
CONTINUOUS
10
172.9364259999999831
20
-83.9331559999999968
11
172.9257929999999988
21
-83.9428339999999906
0
LINE
8
BLACK
6
CONTINUOUS
10
172.9257929999999988
20
-83.9428339999999906
11
163.6257919999999899
21
-89.5428339999999992
0
LINE
8
BLACK
6
CONTINUOUS
10
163.6257919999999899
20
-89.5428339999999992
11
163.6180349999999919
21
-89.5456269999999961
0
LINE
8
BLACK
6
CONTINUOUS
10
163.6180349999999919
20
-89.5456269999999961
11
163.6104760000000056
21
-89.5488900000000001
0
LINE
8
BLACK
6
CONTINUOUS
10
163.6104760000000056
20
-89.5488900000000001
11
162.2322299999999871
21
-89.8442280000000011
0
LINE
8
BLACK
6
CONTINUOUS
10
162.2322299999999871
20
-89.8442280000000011
11
160.352468999999985
21
-93.1090760000000017
0
LINE
8
BLACK
6
CONTINUOUS
10
160.352468999999985
20
-93.1090760000000017
11
160.5451199999999972
21
-94.1686569999999961
0
LINE
8
BLACK
6
CONTINUOUS
10
160.5451199999999972
20
-94.1686569999999961
11
164.2255539999999883
21
-96.3570229999999981
0
LINE
8
BLACK
6
CONTINUOUS
10
164.2255539999999883
20
-96.3570229999999981
11
164.2393449999999859
21
-96.3694349999999957
0
LINE
8
BLACK
6
CONTINUOUS
10
164.2393449999999859
20
-96.3694349999999957
11
164.2397509999999841
21
-96.3696709999999968
0
LINE
8
BLACK
6
CONTINUOUS
10
164.2397509999999841
20
-96.3696709999999968
11
164.239863999999983
21
-96.3699019999999962
0
LINE
8
BLACK
6
CONTINUOUS
10
164.239863999999983
20
-96.3699019999999962
11
164.2400549999999839
21
-96.3700740000000025
0
LINE
8
BLACK
6
CONTINUOUS
10
164.2400549999999839
20
-96.3700740000000025
11
164.2401700000000062
21
-96.3705259999999981
0
LINE
8
BLACK
6
CONTINUOUS
10
164.2401700000000062
20
-96.3705259999999981
11
164.2483320000000049
21
-96.3871910000000014
0
LINE
8
BLACK
6
CONTINUOUS
10
164.2483320000000049
20
-96.3871910000000014
11
164.7729209999999966
21
-98.3666300000000007
0
LINE
8
BLACK
6
CONTINUOUS
10
164.7729209999999966
20
-98.3666300000000007
11
166.1175920000000019
21
-99.1140219999999914
0
LINE
8
BLACK
6
CONTINUOUS
10
166.1175920000000019
20
-99.1140219999999914
11
166.1324669999999912
21
-99.1266439999999989
0
LINE
8
BLACK
6
CONTINUOUS
10
166.1324669999999912
20
-99.1266439999999989
11
166.132567999999992
21
-99.1269999999999953
0
LINE
8
BLACK
6
CONTINUOUS
10
166.132567999999992
20
-99.1269999999999953
11
166.1328890000000058
21
-99.1271839999999997
0
LINE
8
BLACK
6
CONTINUOUS
10
166.1328890000000058
20
-99.1271839999999997
11
166.1378039999999885
21
-99.1453379999999953
0
LINE
8
BLACK
6
CONTINUOUS
10
166.1378039999999885
20
-99.1453379999999953
11
166.1429729999999836
21
-99.1634430000000009
0
LINE
8
BLACK
6
CONTINUOUS
10
166.1429729999999836
20
-99.1634430000000009
11
166.1427929999999833
21
-99.1637659999999954
0
LINE
8
BLACK
6
CONTINUOUS
10
166.1427929999999833
20
-99.1637659999999954
11
166.1428899999999942
21
-99.1641229999999894
0
LINE
8
BLACK
6
CONTINUOUS
10
166.1428899999999942
20
-99.1641229999999894
11
166.1366669999999885
21
-99.1826119999999918
0
LINE
8
BLACK
6
CONTINUOUS
10
166.1366669999999885
20
-99.1826119999999918
11
158.6633659999999963
21
-112.2048869999999994
0
LINE
8
BLACK
6
CONTINUOUS
10
158.6633659999999963
20
-112.2048869999999994
11
158.6602279999999894
21
-112.2084830000000011
0
LINE
8
BLACK
6
CONTINUOUS
10
158.6602279999999894
20
-112.2084830000000011
11
158.6597309999999936
21
-112.2103549999999927
0
LINE
8
BLACK
6
CONTINUOUS
10
158.6597309999999936
20
-112.2103549999999927
11
158.654830000000004
21
-112.2146709999999956
0
LINE
8
BLACK
6
CONTINUOUS
10
158.654830000000004
20
-112.2146709999999956
11
158.650541000000004
21
-112.2195880000000017
0
LINE
8
BLACK
6
CONTINUOUS
10
158.650541000000004
20
-112.2195880000000017
11
158.6486730000000023
21
-112.2200929999999914
0
LINE
8
BLACK
6
CONTINUOUS
10
158.6486730000000023
20
-112.2200929999999914
11
158.6450909999999794
21
-112.2232489999999956
0
LINE
8
BLACK
6
CONTINUOUS
10
158.6450909999999794
20
-112.2232489999999956
11
156.0250910000000033
21
-113.7432489999999916
0
LINE
8
BLACK
6
CONTINUOUS
10
156.0250910000000033
20
-113.7432489999999916
11
156.020514999999989
21
-113.744811999999996
0
LINE
8
BLACK
6
CONTINUOUS
10
156.020514999999989
20
-113.744811999999996
11
156.0191339999999798
21
-113.7461939999999885
0
LINE
8
BLACK
6
CONTINUOUS
10
156.0191339999999798
20
-113.7461939999999885
11
156.0127699999999891
21
-113.7474589999999921
0
LINE
8
BLACK
6
CONTINUOUS
10
156.0127699999999891
20
-113.7474589999999921
11
156.0066309999999987
21
-113.7495579999999933
0
LINE
8
BLACK
6
CONTINUOUS
10
156.0066309999999987
20
-113.7495579999999933
11
156.0047429999999906
21
-113.7490559999999959
0
LINE
8
BLACK
6
CONTINUOUS
10
156.0047429999999906
20
-113.7490559999999959
11
156.
21
-113.75
0
LINE
8
BLACK
6
CONTINUOUS
10
156.
20
-113.75
11
137.4000000000000057
21
-113.75
0
LINE
8
BLACK
6
CONTINUOUS
10
137.4000000000000057
20
-113.75
11
137.3808659999999975
21
-113.7461939999999885
0
LINE
8
BLACK
6
CONTINUOUS
10
137.3808659999999975
20
-113.7461939999999885
11
137.3762729999999976
21
-113.7416009999999886
0
LINE
8
BLACK
6
CONTINUOUS
10
137.3762729999999976
20
-113.7416009999999886
11
137.3699829999999906
21
-113.7399869999999993
0
LINE
8
BLACK
6
CONTINUOUS
10
137.3699829999999906
20
-113.7399869999999993
11
137.3569659999999999
21
-113.7254569999999916
0
LINE
8
BLACK
6
CONTINUOUS
10
137.3569659999999999
20
-113.7254569999999916
11
133.1569659999999828
21
-106.6254569999999973
0
LINE
8
BLACK
6
CONTINUOUS
10
133.1569659999999828
20
-106.6254569999999973
11
133.1504999999999939
21
-106.6070509999999985
0
LINE
8
BLACK
6
CONTINUOUS
10
133.1504999999999939
20
-106.6070509999999985
11
133.1524149999999906
21
-106.5995849999999905
0
LINE
8
BLACK
6
CONTINUOUS
10
133.1524149999999906
20
-106.5995849999999905
11
133.1506300000000067
21
-106.5920849999999973
0
LINE
8
BLACK
6
CONTINUOUS
10
133.1506300000000067
20
-106.5920849999999973
11
133.157416999999981
21
-106.5737949999999898
0
LINE
8
BLACK
6
CONTINUOUS
10
133.157416999999981
20
-106.5737949999999898
11
133.9574169999999924
21
-105.2737949999999927
0
LINE
8
BLACK
6
CONTINUOUS
10
133.9574169999999924
20
-105.2737949999999927
11
133.9706869999999981
21
-105.2594939999999895
0
LINE
8
BLACK
6
CONTINUOUS
10
133.9706869999999981
20
-105.2594939999999895
11
133.9765809999999817
21
-105.2580899999999957
0
LINE
8
BLACK
6
CONTINUOUS
10
133.9765809999999817
20
-105.2580899999999957
11
133.9808659999999918
21
-105.2538059999999973
0
LINE
8
BLACK
6
CONTINUOUS
10
133.9808659999999918
20
-105.2538059999999973
11
134.
21
-105.25
0
LINE
8
BLACK
6
CONTINUOUS
10
134.
20
-105.25
11
134.3499999999999943
21
-105.25
0
LINE
8
BLACK
6
CONTINUOUS
10
134.3499999999999943
20
-105.25
11
134.3499999999999943
21
-101.7999999999999972
0
LINE
8
BLACK
6
CONTINUOUS
10
134.3499999999999943
20
-101.7999999999999972
11
134.3538059999999916
21
-101.780865999999989
0
LINE
8
BLACK
6
CONTINUOUS
10
134.3538059999999916
20
-101.780865999999989
11
134.3808659999999975
21
-101.7538059999999973
0
LINE
8
BLACK
6
CONTINUOUS
10
134.3808659999999975
20
-101.7538059999999973
11
134.4000000000000057
21
-101.75
0
LINE
8
BLACK
6
CONTINUOUS
10
134.4000000000000057
20
-101.75
11
140.4000000000000057
21
-101.75
0
LINE
8
BLACK
6
CONTINUOUS
10
140.4000000000000057
20
-101.75
11
140.4191339999999855
21
-101.7538059999999973
0
LINE
8
BLACK
6
CONTINUOUS
10
140.4191339999999855
20
-101.7538059999999973
11
140.4461939999999913
21
-101.780865999999989
0
LINE
8
BLACK
6
CONTINUOUS
10
140.4461939999999913
20
-101.780865999999989
11
140.4499999999999886
21
-101.7999999999999972
0
LINE
8
BLACK
6
CONTINUOUS
10
140.4499999999999886
20
-101.7999999999999972
11
140.4499999999999886
21
-105.1499999999999915
0
LINE
8
BLACK
6
CONTINUOUS
10
140.4499999999999886
20
-105.1499999999999915
11
140.7999999999999829
21
-105.1499999999999915
0
LINE
8
BLACK
6
CONTINUOUS
10
140.7999999999999829
20
-105.1499999999999915
11
140.8007409999999879
21
-105.1501469999999898
0
LINE
8
BLACK
6
CONTINUOUS
10
140.8007409999999879
20
-105.1501469999999898
11
140.8010899999999879
21
-105.1500119999999896
0
LINE
8
BLACK
6
CONTINUOUS
10
140.8010899999999879
20
-105.1500119999999896
11
140.8100929999999948
21
-105.1520069999999976
0
LINE
8
BLACK
6
CONTINUOUS
10
140.8100929999999948
20
-105.1520069999999976
11
140.8191339999999911
21
-105.1538059999999888
0
LINE
8
BLACK
6
CONTINUOUS
10
140.8191339999999911
20
-105.1538059999999888
11
140.8193980000000067
21
-105.1540699999999902
0
LINE
8
BLACK
6
CONTINUOUS
10
140.8193980000000067
20
-105.1540699999999902
11
140.8201369999999883
21
-105.1542339999999882
0
LINE
8
BLACK
6
CONTINUOUS
10
140.8201369999999883
20
-105.1542339999999882
11
143.3201369999999883
21
-106.2542339999999967
0
LINE
8
BLACK
6
CONTINUOUS
10
143.3201369999999883
20
-106.2542339999999967
11
143.3276009999999872
21
-106.25945999999999
0
LINE
8
BLACK
6
CONTINUOUS
10
143.3276009999999872
20
-106.25945999999999
11
143.330174999999997
21
-106.2601319999999987
0
LINE
8
BLACK
6
CONTINUOUS
10
143.330174999999997
20
-106.2601319999999987
11
143.3328349999999887
21
-106.2631250000000023
0
LINE
8
BLACK
6
CONTINUOUS
10
143.3328349999999887
20
-106.2631250000000023
11
143.336117999999999
21
-106.2654239999999959
0
LINE
8
BLACK
6
CONTINUOUS
10
143.336117999999999
20
-106.2654239999999959
11
143.337081999999981
21
-106.2679029999999898
0
LINE
8
BLACK
6
CONTINUOUS
10
143.337081999999981
20
-106.2679029999999898
11
143.3431349999999895
21
-106.2747139999999888
0
LINE
8
BLACK
6
CONTINUOUS
10
143.3431349999999895
20
-106.2747139999999888
11
145.0286470000000065
21
-109.1499999999999915
0
LINE
8
BLACK
6
CONTINUOUS
10
145.0286470000000065
20
-109.1499999999999915
11
150.0715089999999918
21
-109.1499999999999915
0
LINE
8
BLACK
6
CONTINUOUS
10
150.0715089999999918
20
-109.1499999999999915
11
156.4482830000000035
21
-98.3891929999999917
0
LINE
8
BLACK
6
CONTINUOUS
10
156.4482830000000035
20
-98.3891929999999917
11
155.6703779999999995
21
-92.0961339999999922
0
LINE
8
BLACK
6
CONTINUOUS
10
155.6703779999999995
20
-92.0961339999999922
11
155.6711019999999905
21
-92.0862739999999889
0
LINE
8
BLACK
6
CONTINUOUS
10
155.6711019999999905
20
-92.0862739999999889
11
155.6703990000000033
21
-92.0836939999999942
0
LINE
8
BLACK
6
CONTINUOUS
10
155.6703990000000033
20
-92.0836939999999942
11
155.6715429999999856
21
-92.0802709999999962
0
LINE
8
BLACK
6
CONTINUOUS
10
155.6715429999999856
20
-92.0802709999999962
11
155.6718079999999986
21
-92.0766780000000011
0
LINE
8
BLACK
6
CONTINUOUS
10
155.6718079999999986
20
-92.0766780000000011
11
155.6734500000000025
21
-92.0745719999999892
0
LINE
8
BLACK
6
CONTINUOUS
10
155.6734500000000025
20
-92.0745719999999892
11
155.6765879999999811
21
-92.0651929999999936
0
LINE
8
BLACK
6
CONTINUOUS
10
155.6765879999999811
20
-92.0651929999999936
11
158.3565879999999879
21
-87.3751929999999959
0
LINE
8
BLACK
6
CONTINUOUS
10
158.3565879999999879
20
-87.3751929999999959
11
158.3620319999999992
21
-87.3689289999999943
0
LINE
8
BLACK
6
CONTINUOUS
10
158.3620319999999992
20
-87.3689289999999943
11
158.3629080000000044
21
-87.36647099999999
0
LINE
8
BLACK
6
CONTINUOUS
10
158.3629080000000044
20
-87.36647099999999
11
158.3664719999999875
21
-87.3638199999999898
0
LINE
8
BLACK
6
CONTINUOUS
10
158.3664719999999875
20
-87.3638199999999898
11
158.3693859999999916
21
-87.3604679999999973
0
LINE
8
BLACK
6
CONTINUOUS
10
158.3693859999999916
20
-87.3604679999999973
11
158.3719030000000032
21
-87.3597809999999981
0
LINE
8
BLACK
6
CONTINUOUS
10
158.3719030000000032
20
-87.3597809999999981
11
158.3785629999999855
21
-87.3548289999999952
0
LINE
8
BLACK
6
CONTINUOUS
10
158.3785629999999855
20
-87.3548289999999952
11
164.2653009999999938
21
-84.5611219999999975
0
LINE
8
BLACK
6
CONTINUOUS
10
164.2653009999999938
20
-84.5611219999999975
11
167.0575469999999996
21
-80.0735849999999942
0
LINE
8
BLACK
6
CONTINUOUS
10
167.0575469999999996
20
-80.0735849999999942
11
167.0591369999999927
21
-80.0718880000000013
0
LINE
8
BLACK
6
CONTINUOUS
10
167.0591369999999927
20
-80.0718880000000013
11
167.0593819999999994
21
-80.070841999999999
0
LINE
8
BLACK
6
CONTINUOUS
10
167.0593819999999994
20
-80.070841999999999
11
167.0653240000000039
21
-80.0652850000000029
0
LINE
8
BLACK
6
CONTINUOUS
10
167.0653240000000039
20
-80.0652850000000029
11
167.070886999999999
21
-80.0593499999999949
0
LINE
8
BLACK
6
CONTINUOUS
10
167.070886999999999
20
-80.0593499999999949
11
167.0719330000000014
21
-80.0591059999999999
0
LINE
8
BLACK
6
CONTINUOUS
10
167.0719330000000014
20
-80.0591059999999999
11
167.0736320000000035
21
-80.0575180000000017
0
LINE
8
BLACK
6
CONTINUOUS
10
167.0736320000000035
20
-80.0575180000000017
11
169.9736319999999807
21
-78.2575179999999904
0
LINE
8
BLACK
6
CONTINUOUS
10
169.9736319999999807
20
-78.2575179999999904
11
169.991895999999997
21
-78.2506609999999938
0
LINE
8
BLACK
6
CONTINUOUS
10
169.991895999999997
20
-78.2506609999999938
11
169.9939099999999996
21
-78.2511319999999984
0
LINE
8
BLACK
6
CONTINUOUS
10
169.9939099999999996
20
-78.2511319999999984
11
169.9957479999999919
21
-78.2501809999999978
0
LINE
8
BLACK
6
CONTINUOUS
10
169.9957479999999919
20
-78.2501809999999978
11
170.0122700000000009
21
-78.2554289999999924
0
LINE
8
BLACK
6
CONTINUOUS
10
157.3186939999999936
20
-76.877997999999991
11
157.323537999999985
21
-76.8777919999999995
0
LINE
8
BLACK
6
CONTINUOUS
10
157.323537999999985
20
-76.8777919999999995
11
158.0335389999999904
21
-76.9877929999999964
0
LINE
8
BLACK
6
CONTINUOUS
10
158.0335389999999904
20
-76.9877929999999964
11
158.035870999999986
21
-76.9886439999999936
0
LINE
8
BLACK
6
CONTINUOUS
10
158.035870999999986
20
-76.9886439999999936
11
158.0383549999999957
21
-76.988782999999998
0
LINE
8
BLACK
6
CONTINUOUS
10
158.0383549999999957
20
-76.988782999999998
11
158.6983539999999948
21
-77.1587829999999997
0
LINE
8
BLACK
6
CONTINUOUS
10
158.6983539999999948
20
-77.1587829999999997
11
158.7019479999999874
21
-77.1605119999999971
0
LINE
8
BLACK
6
CONTINUOUS
10
158.7019479999999874
20
-77.1605119999999971
11
158.7058459999999798
21
-77.1613609999999994
0
LINE
8
BLACK
6
CONTINUOUS
10
158.7058459999999798
20
-77.1613609999999994
11
159.3258469999999818
21
-77.4313609999999954
0
LINE
8
BLACK
6
CONTINUOUS
10
159.3258469999999818
20
-77.4313609999999954
11
159.3279990000000055
21
-77.432856000000001
0
LINE
8
BLACK
6
CONTINUOUS
10
159.3279990000000055
20
-77.432856000000001
11
159.3304859999999792
21
-77.4336749999999938
0
LINE
8
BLACK
6
CONTINUOUS
10
159.3304859999999792
20
-77.4336749999999938
11
160.0204860000000053
21
-77.8236749999999944
0
LINE
8
BLACK
6
CONTINUOUS
10
160.0204860000000053
20
-77.8236749999999944
11
160.0246899999999926
21
-77.8272939999999949
0
LINE
8
BLACK
6
CONTINUOUS
10
160.0246899999999926
20
-77.8272939999999949
11
160.0294470000000047
21
-77.8301429999999925
0
LINE
8
BLACK
6
CONTINUOUS
10
160.0294470000000047
20
-77.8301429999999925
11
160.5594470000000058
21
-78.310141999999999
0
LINE
8
BLACK
6
CONTINUOUS
10
160.5594470000000058
20
-78.310141999999999
11
160.560892999999993
21
-78.3120899999999978
0
LINE
8
BLACK
6
CONTINUOUS
10
160.560892999999993
20
-78.3120899999999978
11
160.5628429999999867
21
-78.3135290000000026
0
LINE
8
BLACK
6
CONTINUOUS
10
160.5628429999999867
20
-78.3135290000000026
11
160.9728429999999832
21
-78.7635279999999938
0
LINE
8
BLACK
6
CONTINUOUS
10
160.9728429999999832
20
-78.7635279999999938
11
160.9745900000000063
21
-78.7664249999999981
0
LINE
8
BLACK
6
CONTINUOUS
10
160.9745900000000063
20
-78.7664249999999981
11
160.9770199999999818
21
-78.7687809999999899
0
LINE
8
BLACK
6
CONTINUOUS
10
160.9770199999999818
20
-78.7687809999999899
11
161.3570200000000057
21
-79.3187819999999988
0
LINE
8
BLACK
6
CONTINUOUS
10
161.3570200000000057
20
-79.3187819999999988
11
161.3584979999999973
21
-79.3221999999999952
0
LINE
8
BLACK
6
CONTINUOUS
10
161.3584979999999973
20
-79.3221999999999952
11
161.3607609999999966
21
-79.3251580000000018
0
LINE
8
BLACK
6
CONTINUOUS
10
161.3607609999999966
20
-79.3251580000000018
11
161.6407609999999977
21
-79.895157999999995
0
LINE
8
BLACK
6
CONTINUOUS
10
161.6407609999999977
20
-79.895157999999995
11
161.6412179999999807
21
-79.8968770000000035
0
LINE
8
BLACK
6
CONTINUOUS
10
161.6412179999999807
20
-79.8968770000000035
11
161.6421979999999792
21
-79.8983630000000034
0
LINE
8
BLACK
6
CONTINUOUS
10
161.6421979999999792
20
-79.8983630000000034
11
161.8821979999999883
21
-80.4883629999999926
0
LINE
8
BLACK
6
CONTINUOUS
10
161.8821979999999883
20
-80.4883629999999926
11
161.8830679999999802
21
-80.4928900000000027
0
LINE
8
BLACK
6
CONTINUOUS
10
161.8830679999999802
20
-80.4928900000000027
11
161.8848600000000033
21
-80.49713899999999
0
LINE
8
BLACK
6
CONTINUOUS
10
161.8848600000000033
20
-80.49713899999999
11
162.0348599999999806
21
-81.2271399999999915
0
LINE
8
BLACK
6
CONTINUOUS
10
162.0348599999999806
20
-81.2271399999999915
11
162.0348799999999869
21
-81.230448999999993
0
LINE
8
BLACK
6
CONTINUOUS
10
162.0348799999999869
20
-81.230448999999993
11
162.0357559999999921
21
-81.2336409999999915
0
LINE
8
BLACK
6
CONTINUOUS
10
162.0357559999999921
20
-81.2336409999999915
11
162.0857560000000035
21
-81.9336399999999969
0
LINE
8
BLACK
6
CONTINUOUS
10
162.0857560000000035
20
-81.9336399999999969
11
162.0852979999999945
21
-81.9372819999999962
0
LINE
8
BLACK
6
CONTINUOUS
10
162.0852979999999945
20
-81.9372819999999962
11
162.0857440000000054
21
-81.9409239999999954
0
LINE
8
BLACK
6
CONTINUOUS
10
162.0857440000000054
20
-81.9409239999999954
11
162.035743999999994
21
-82.6109239999999971
0
LINE
8
BLACK
6
CONTINUOUS
10
162.035743999999994
20
-82.6109239999999971
11
162.0348970000000008
21
-82.6139719999999897
0
LINE
8
BLACK
6
CONTINUOUS
10
162.0348970000000008
20
-82.6139719999999897
11
162.0348860000000002
21
-82.6171360000000021
0
LINE
8
BLACK
6
CONTINUOUS
10
162.0348860000000002
20
-82.6171360000000021
11
161.8848859999999945
21
-83.357135999999997
0
LINE
8
BLACK
6
CONTINUOUS
10
161.8848859999999945
20
-83.357135999999997
11
161.8836569999999995
21
-83.3600720000000024
0
LINE
8
BLACK
6
CONTINUOUS
10
161.8836569999999995
20
-83.3600720000000024
11
161.8832439999999906
21
-83.3632319999999964
0
LINE
8
BLACK
6
CONTINUOUS
10
161.8832439999999906
20
-83.3632319999999964
11
161.6632439999999917
21
-84.0132329999999996
0
LINE
8
BLACK
6
CONTINUOUS
10
161.6632439999999917
20
-84.0132329999999996
11
161.6608290000000068
21
-84.0174239999999912
0
LINE
8
BLACK
6
CONTINUOUS
10
161.6608290000000068
20
-84.0174239999999912
11
161.659294999999986
21
-84.0220099999999945
0
LINE
8
BLACK
6
CONTINUOUS
10
161.659294999999986
20
-84.0220099999999945
11
161.2992950000000008
21
-84.65200999999999
0
LINE
8
BLACK
6
CONTINUOUS
10
161.2992950000000008
20
-84.65200999999999
11
161.29736699999998
21
-84.6542279999999892
0
LINE
8
BLACK
6
CONTINUOUS
10
161.29736699999998
20
-84.6542279999999892
11
161.2961190000000045
21
-84.6568850000000026
0
LINE
8
BLACK
6
CONTINUOUS
10
161.2961190000000045
20
-84.6568850000000026
11
160.8461189999999874
21
-85.266885000000002
0
LINE
8
BLACK
6
CONTINUOUS
10
160.8461189999999874
20
-85.266885000000002
11
160.8428360000000055
21
-85.269874999999999
0
LINE
8
BLACK
6
CONTINUOUS
10
160.8428360000000055
20
-85.269874999999999
11
160.8402700000000038
21
-85.273500999999996
0
LINE
8
BLACK
6
CONTINUOUS
10
160.8402700000000038
20
-85.273500999999996
11
160.2702699999999822
21
-85.8135010000000023
0
LINE
8
BLACK
6
CONTINUOUS
10
160.2702699999999822
20
-85.8135010000000023
11
160.2675069999999948
21
-85.8152400000000029
0
LINE
8
BLACK
6
CONTINUOUS
10
160.2675069999999948
20
-85.8152400000000029
11
160.2652919999999881
21
-85.8176399999999973
0
LINE
8
BLACK
6
CONTINUOUS
10
160.2652919999999881
20
-85.8176399999999973
11
159.7152920000000051
21
-86.2176400000000029
0
LINE
8
BLACK
6
CONTINUOUS
10
159.7152920000000051
20
-86.2176400000000029
11
159.7119610000000023
21
-86.219177000000002
0
LINE
8
BLACK
6
CONTINUOUS
10
159.7119610000000023
20
-86.219177000000002
11
159.7091109999999787
21
-86.2214799999999997
0
LINE
8
BLACK
6
CONTINUOUS
10
159.7091109999999787
20
-86.2214799999999997
11
159.099109999999996
21
-86.5414799999999929
0
LINE
8
BLACK
6
CONTINUOUS
10
159.099109999999996
20
-86.5414799999999929
11
159.0959489999999903
21
-86.5424119999999988
0
LINE
8
BLACK
6
CONTINUOUS
10
159.0959489999999903
20
-86.5424119999999988
11
159.093135999999987
21
-86.5441319999999905
0
LINE
8
BLACK
6
CONTINUOUS
10
159.093135999999987
20
-86.5441319999999905
11
158.4131359999999802
21
-86.7941319999999905
0
LINE
8
BLACK
6
CONTINUOUS
10
158.4131359999999802
20
-86.7941319999999905
11
158.4089139999999816
21
-86.7947949999999935
0
LINE
8
BLACK
6
CONTINUOUS
10
158.4089139999999816
20
-86.7947949999999935
11
158.4049409999999796
21
-86.7963759999999951
0
LINE
8
BLACK
6
CONTINUOUS
10
158.4049409999999796
20
-86.7963759999999951
11
157.6449409999999887
21
-86.9363759999999957
0
LINE
8
BLACK
6
CONTINUOUS
10
157.6449409999999887
20
-86.9363759999999957
11
157.6424099999999839
21
-86.9363400000000013
0
LINE
8
BLACK
6
CONTINUOUS
10
157.6424099999999839
20
-86.9363400000000013
11
157.6399789999999825
21
-86.9370349999999945
0
LINE
8
BLACK
6
CONTINUOUS
10
157.6399789999999825
20
-86.9370349999999945
11
156.9099789999999928
21
-86.9970349999999968
0
LINE
8
BLACK
6
CONTINUOUS
10
156.9099789999999928
20
-86.9970349999999968
11
156.9053739999999948
21
-86.9965059999999966
0
LINE
8
BLACK
6
CONTINUOUS
10
156.9053739999999948
20
-86.9965059999999966
11
156.9007629999999835
21
-86.9969399999999951
0
LINE
8
BLACK
6
CONTINUOUS
10
156.9007629999999835
20
-86.9969399999999951
11
156.2207630000000051
21
-86.9269400000000019
0
LINE
8
BLACK
6
CONTINUOUS
10
156.2207630000000051
20
-86.9269400000000019
11
156.2166110000000003
21
-86.9256599999999935
0
LINE
8
BLACK
6
CONTINUOUS
10
156.2166110000000003
20
-86.9256599999999935
11
156.2122849999999801
21
-86.9253179999999901
0
LINE
8
BLACK
6
CONTINUOUS
10
156.2122849999999801
20
-86.9253179999999901
11
155.2922849999999926
21
-86.6653179999999992
0
LINE
8
BLACK
6
CONTINUOUS
10
155.2922849999999926
20
-86.6653179999999992
11
155.2876699999999914
21
-86.6629629999999906
0
LINE
8
BLACK
6
CONTINUOUS
10
155.2876699999999914
20
-86.6629629999999906
11
155.2826919999999973
21
-86.6614999999999895
0
LINE
8
BLACK
6
CONTINUOUS
10
155.2826919999999973
20
-86.6614999999999895
11
154.6768089999999916
21
-86.3442969999999974
0
LINE
8
BLACK
6
CONTINUOUS
10
154.6768089999999916
20
-86.3442969999999974
11
154.6753039999999828
21
-86.3430829999999929
0
LINE
8
BLACK
6
CONTINUOUS
10
154.6753039999999828
20
-86.3430829999999929
11
154.67349999999999
21
-86.3423999999999978
0
LINE
8
BLACK
6
CONTINUOUS
10
154.67349999999999
20
-86.3423999999999978
11
153.873500000000007
21
-85.8423999999999978
0
LINE
8
BLACK
6
CONTINUOUS
10
153.873500000000007
20
-85.8423999999999978
11
153.8693639999999903
21
-85.8385079999999903
0
LINE
8
BLACK
6
CONTINUOUS
10
153.8693639999999903
20
-85.8385079999999903
11
153.8646449999999959
21
-85.8353549999999927
0
LINE
8
BLACK
6
CONTINUOUS
10
153.8646449999999959
20
-85.8353549999999927
11
153.3681459999999959
21
-85.3388559999999927
0
LINE
8
BLACK
6
CONTINUOUS
10
153.3681459999999959
20
-85.3388559999999927
11
153.0722649999999874
21
-85.1416029999999893
0
LINE
8
BLACK
6
CONTINUOUS
10
153.0722649999999874
20
-85.1416029999999893
11
153.0660680000000013
21
-85.1354180000000014
0
LINE
8
BLACK
6
CONTINUOUS
10
153.0660680000000013
20
-85.1354180000000014
11
153.0636570000000063
21
-85.1343389999999971
0
LINE
8
BLACK
6
CONTINUOUS
10
153.0636570000000063
20
-85.1343389999999971
11
153.0614249999999856
21
-85.130785000000003
0
LINE
8
BLACK
6
CONTINUOUS
10
153.0614249999999856
20
-85.130785000000003
11
153.0584560000000067
21
-85.1278219999999948
0
LINE
8
BLACK
6
CONTINUOUS
10
153.0584560000000067
20
-85.1278219999999948
11
153.0579369999999813
21
-85.1252309999999994
0
LINE
8
BLACK
6
CONTINUOUS
10
153.0579369999999813
20
-85.1252309999999994
11
153.0532819999999958
21
-85.1178170000000023
0
LINE
8
BLACK
6
CONTINUOUS
10
153.0532819999999958
20
-85.1178170000000023
11
151.9091650000000016
21
-82.1178170000000023
0
LINE
8
BLACK
6
CONTINUOUS
10
151.9091650000000016
20
-82.1178170000000023
11
151.9082909999999913
21
-82.1126689999999968
0
LINE
8
BLACK
6
CONTINUOUS
10
151.9082909999999913
20
-82.1126689999999968
11
151.9071050000000014
21
-82.1109859999999969
0
LINE
8
BLACK
6
CONTINUOUS
10
151.9071050000000014
20
-82.1109859999999969
11
151.9069470000000024
21
-82.1047429999999991
0
LINE
8
BLACK
6
CONTINUOUS
10
151.9069470000000024
20
-82.1047429999999991
11
151.905902999999995
21
-82.0985829999999908
0
LINE
8
BLACK
6
CONTINUOUS
10
151.905902999999995
20
-82.0985829999999908
11
151.9067450000000008
21
-82.0967009999999959
0
LINE
8
BLACK
6
CONTINUOUS
10
151.9067450000000008
20
-82.0967009999999959
11
151.9066139999999905
21
-82.0914829999999967
0
LINE
8
BLACK
6
CONTINUOUS
10
151.9066139999999905
20
-82.0914829999999967
11
151.9862880000000018
21
-81.6305699999999916
0
LINE
8
BLACK
6
CONTINUOUS
10
151.9862880000000018
20
-81.6305699999999916
11
152.0461080000000038
21
-81.0024619999999942
0
LINE
8
BLACK
6
CONTINUOUS
10
152.0461080000000038
20
-81.0024619999999942
11
152.0472179999999867
21
-80.9987579999999951
0
LINE
8
BLACK
6
CONTINUOUS
10
152.0472179999999867
20
-80.9987579999999951
11
152.0474209999999857
21
-80.9948949999999996
0
LINE
8
BLACK
6
CONTINUOUS
10
152.0474209999999857
20
-80.9948949999999996
11
152.2074209999999823
21
-80.36489499999999
0
LINE
8
BLACK
6
CONTINUOUS
10
152.2074209999999823
20
-80.36489499999999
11
152.2088509999999815
21
-80.3618960000000015
0
LINE
8
BLACK
6
CONTINUOUS
10
152.2088509999999815
20
-80.3618960000000015
11
152.2094589999999812
21
-80.3586329999999975
0
LINE
8
BLACK
6
CONTINUOUS
10
152.2094589999999812
20
-80.3586329999999975
11
152.4494589999999903
21
-79.7586330000000032
0
LINE
8
BLACK
6
CONTINUOUS
10
152.4494589999999903
20
-79.7586330000000032
11
152.4515329999999835
21
-79.7554439999999971
0
LINE
8
BLACK
6
CONTINUOUS
10
152.4515329999999835
20
-79.7554439999999971
11
152.4527860000000032
21
-79.7518519999999995
0
LINE
8
BLACK
6
CONTINUOUS
10
152.4527860000000032
20
-79.7518519999999995
11
152.7527859999999862
21
-79.2418519999999944
0
LINE
8
BLACK
6
CONTINUOUS
10
152.7527859999999862
20
-79.2418519999999944
11
152.7543619999999862
21
-79.2400829999999985
0
LINE
8
BLACK
6
CONTINUOUS
10
152.7543619999999862
20
-79.2400829999999985
11
152.7553489999999954
21
-79.2379279999999966
0
LINE
8
BLACK
6
CONTINUOUS
10
152.7553489999999954
20
-79.2379279999999966
11
153.1453489999999817
21
-78.697929000000002
0
LINE
8
BLACK
6
CONTINUOUS
10
153.1453489999999817
20
-78.697929000000002
11
153.1480980000000045
21
-78.6953719999999919
0
LINE
8
BLACK
6
CONTINUOUS
10
153.1480980000000045
20
-78.6953719999999919
11
153.1501499999999965
21
-78.692229999999995
0
LINE
8
BLACK
6
CONTINUOUS
10
153.1501499999999965
20
-78.692229999999995
11
153.6101490000000069
21
-78.2222299999999962
0
LINE
8
BLACK
6
CONTINUOUS
10
153.6101490000000069
20
-78.2222299999999962
11
153.6126260000000059
21
-78.2205349999999981
0
LINE
8
BLACK
6
CONTINUOUS
10
153.6126260000000059
20
-78.2205349999999981
11
153.6145549999999957
21
-78.2182339999999954
0
LINE
8
BLACK
6
CONTINUOUS
10
153.6145549999999957
20
-78.2182339999999954
11
154.1245549999999866
21
-77.8082339999999988
0
LINE
8
BLACK
6
CONTINUOUS
10
154.1245549999999866
20
-77.8082339999999988
11
154.12785599999998
21
-77.8065110000000004
0
LINE
8
BLACK
6
CONTINUOUS
10
154.12785599999998
20
-77.8065110000000004
11
154.1306390000000022
21
-77.8040439999999904
0
LINE
8
BLACK
6
CONTINUOUS
10
154.1306390000000022
20
-77.8040439999999904
11
154.6606390000000033
21
-77.4940440000000024
0
LINE
8
BLACK
6
CONTINUOUS
10
154.6606390000000033
20
-77.4940440000000024
11
154.6625509999999792
21
-77.4933819999999969
0
LINE
8
BLACK
6
CONTINUOUS
10
154.6625509999999792
20
-77.4933819999999969
11
154.6641679999999894
21
-77.492165
0
LINE
8
BLACK
6
CONTINUOUS
10
154.6641679999999894
20
-77.492165
11
155.2241679999999917
21
-77.2221649999999897
0
LINE
8
BLACK
6
CONTINUOUS
10
155.2241679999999917
20
-77.2221649999999897
11
155.2283259999999814
21
-77.2210899999999896
0
LINE
8
BLACK
6
CONTINUOUS
10
155.2283259999999814
20
-77.2210899999999896
11
155.2321469999999977
21
-77.2191270000000003
0
LINE
8
BLACK
6
CONTINUOUS
10
155.2321469999999977
20
-77.2191270000000003
11
155.8621469999999931
21
-77.0391269999999935
0
LINE
8
BLACK
6
CONTINUOUS
10
155.8621469999999931
20
-77.0391269999999935
11
155.8643969999999968
21
-77.0389419999999916
0
LINE
8
BLACK
6
CONTINUOUS
10
155.8643969999999968
20
-77.0389419999999916
11
155.8664939999999888
21
-77.0380919999999918
0
LINE
8
BLACK
6
CONTINUOUS
10
155.8664939999999888
20
-77.0380919999999918
11
156.5464939999999956
21
-76.9080919999999963
0
LINE
8
BLACK
6
CONTINUOUS
10
156.5464939999999956
20
-76.9080919999999963
11
156.5502559999999903
21
-76.9081199999999967
0
LINE
8
BLACK
6
CONTINUOUS
10
156.5502559999999903
20
-76.9081199999999967
11
156.5539109999999994
21
-76.9072419999999966
0
LINE
8
BLACK
6
CONTINUOUS
10
156.5539109999999994
20
-76.9072419999999966
11
157.3139109999999903
21
-76.8772419999999954
0
LINE
8
BLACK
6
CONTINUOUS
10
157.3139109999999903
20
-76.8772419999999954
11
157.3186939999999936
21
-76.877997999999991
0
LINE
8
BLACK
6
CONTINUOUS
10
191.1054570000000012
20
-68.8510849999999976
11
191.1075439999999901
21
-68.8505719999999997
0
LINE
8
BLACK
6
CONTINUOUS
10
191.1075439999999901
20
-68.8505719999999997
11
191.1132169999999917
21
-68.8526289999999932
0
LINE
8
BLACK
6
CONTINUOUS
10
191.1132169999999917
20
-68.8526289999999932
11
191.1191340000000025
21
-68.8538059999999916
0
LINE
8
BLACK
6
CONTINUOUS
10
191.1191340000000025
20
-68.8538059999999916
11
191.1206530000000043
21
-68.8553249999999935
0
LINE
8
BLACK
6
CONTINUOUS
10
191.1206530000000043
20
-68.8553249999999935
11
191.125883999999985
21
-68.857221999999993
0
LINE
8
BLACK
6
CONTINUOUS
10
191.125883999999985
20
-68.857221999999993
11
195.4558839999999975
21
-71.4772210000000001
0
LINE
8
BLACK
6
CONTINUOUS
10
195.4558839999999975
20
-71.4772210000000001
11
195.4587889999999959
21
-71.4798770000000019
0
LINE
8
BLACK
6
CONTINUOUS
10
195.4587889999999959
20
-71.4798770000000019
11
195.4604070000000036
21
-71.4803089999999912
0
LINE
8
BLACK
6
CONTINUOUS
10
195.4604070000000036
20
-71.4803089999999912
11
195.4650689999999997
21
-71.4856159999999932
0
LINE
8
BLACK
6
CONTINUOUS
10
195.4650689999999997
20
-71.4856159999999932
11
195.4702839999999924
21
-71.4903829999999942
0
LINE
8
BLACK
6
CONTINUOUS
10
195.4702839999999924
20
-71.4903829999999942
11
195.4706829999999798
21
-71.4920079999999984
0
LINE
8
BLACK
6
CONTINUOUS
10
195.4706829999999798
20
-71.4920079999999984
11
195.4732819999999833
21
-71.4949659999999909
0
LINE
8
BLACK
6
CONTINUOUS
10
195.4732819999999833
20
-71.4949659999999909
11
199.1576719999999909
21
-77.8649659999999955
0
LINE
8
BLACK
6
CONTINUOUS
10
199.1576719999999909
20
-77.8649659999999955
11
199.1639569999999821
21
-77.8834349999999915
0
LINE
8
BLACK
6
CONTINUOUS
10
199.1639569999999821
20
-77.8834349999999915
11
199.1622879999999896
21
-77.8896809999999959
0
LINE
8
BLACK
6
CONTINUOUS
10
199.1622879999999896
20
-77.8896809999999959
11
199.16404
21
-77.8959040000000016
0
LINE
8
BLACK
6
CONTINUOUS
10
199.16404
20
-77.8959040000000016
11
199.158001999999982
21
-77.9144539999999921
0
LINE
8
BLACK
6
CONTINUOUS
10
199.158001999999982
20
-77.9144539999999921
11
194.2236120000000028
21
-86.7144539999999893
0
LINE
8
BLACK
6
CONTINUOUS
10
194.2236120000000028
20
-86.7144539999999893
11
194.2109339999999804
21
-86.7292819999999978
0
LINE
8
BLACK
6
CONTINUOUS
10
194.2109339999999804
20
-86.7292819999999978
11
194.2042119999999841
21
-86.7311729999999983
0
LINE
8
BLACK
6
CONTINUOUS
10
194.2042119999999841
20
-86.7311729999999983
11
194.1992909999999881
21
-86.7361289999999912
0
LINE
8
BLACK
6
CONTINUOUS
10
194.1992909999999881
20
-86.7361289999999912
11
194.1801700000000039
21
-86.7399999999999949
0
LINE
8
BLACK
6
CONTINUOUS
10
194.1801700000000039
20
-86.7399999999999949
11
185.3701700000000017
21
-86.769999999999996
0
LINE
8
BLACK
6
CONTINUOUS
10
185.3701700000000017
20
-86.769999999999996
11
185.3510229999999979
21
-86.7662589999999909
0
LINE
8
BLACK
6
CONTINUOUS
10
185.3510229999999979
20
-86.7662589999999909
11
185.3471179999999947
21
-86.7623809999999906
0
LINE
8
BLACK
6
CONTINUOUS
10
185.3471179999999947
20
-86.7623809999999906
11
185.3417369999999949
21
-86.7612450000000024
0
LINE
8
BLACK
6
CONTINUOUS
10
185.3417369999999949
20
-86.7612450000000024
11
185.3281039999999962
21
-86.7472899999999925
0
LINE
8
BLACK
6
CONTINUOUS
10
185.3281039999999962
20
-86.7472899999999925
11
184.6181039999999882
21
-85.657289999999989
0
LINE
8
BLACK
6
CONTINUOUS
10
184.6181039999999882
20
-85.657289999999989
11
184.6108499999999992
21
-85.6391799999999961
0
LINE
8
BLACK
6
CONTINUOUS
10
184.6108499999999992
20
-85.6391799999999961
11
184.6124619999999936
21
-85.631543999999991
0
LINE
8
BLACK
6
CONTINUOUS
10
184.6124619999999936
20
-85.631543999999991
11
184.6103579999999909
21
-85.6240299999999905
0
LINE
8
BLACK
6
CONTINUOUS
10
184.6103579999999909
20
-85.6240299999999905
11
184.6164210000000026
21
-85.6054869999999966
0
LINE
8
BLACK
6
CONTINUOUS
10
184.6164210000000026
20
-85.6054869999999966
11
187.6764210000000048
21
-80.1654869999999988
0
LINE
8
BLACK
6
CONTINUOUS
10
187.6764210000000048
20
-80.1654869999999988
11
187.67778899999999
21
-80.1638909999999925
0
LINE
8
BLACK
6
CONTINUOUS
10
187.67778899999999
20
-80.1638909999999925
11
187.6779640000000029
21
-80.1629269999999963
0
LINE
8
BLACK
6
CONTINUOUS
10
187.6779640000000029
20
-80.1629269999999963
11
187.6837209999999914
21
-80.1569709999999986
0
LINE
8
BLACK
6
CONTINUOUS
10
187.6837209999999914
20
-80.1569709999999986
11
187.6891190000000051
21
-80.15067599999999
0
LINE
8
BLACK
6
CONTINUOUS
10
187.6891190000000051
20
-80.15067599999999
11
187.6900629999999808
21
-80.1504109999999912
0
LINE
8
BLACK
6
CONTINUOUS
10
187.6900629999999808
20
-80.1504109999999912
11
187.6915239999999869
21
-80.1489009999999951
0
LINE
8
BLACK
6
CONTINUOUS
10
187.6915239999999869
20
-80.1489009999999951
11
190.4567399999999964
21
-78.2329999999999899
0
LINE
8
BLACK
6
CONTINUOUS
10
190.4567399999999964
20
-78.2329999999999899
11
189.7682700000000011
21
-76.769999999999996
0
LINE
8
BLACK
6
CONTINUOUS
10
189.7682700000000011
20
-76.769999999999996
11
188.132491999999985
21
-76.769999999999996
0
LINE
8
BLACK
6
CONTINUOUS
10
188.132491999999985
20
-76.769999999999996
11
186.3234319999999968
21
-77.7341249999999917
0
LINE
8
BLACK
6
CONTINUOUS
10
186.3234319999999968
20
-77.7341249999999917
11
186.320147999999989
21
-77.7351159999999908
0
LINE
8
BLACK
6
CONTINUOUS
10
186.320147999999989
20
-77.7351159999999908
11
186.3190889999999911
21
-77.7361779999999953
0
LINE
8
BLACK
6
CONTINUOUS
10
186.3190889999999911
20
-77.7361779999999953
11
186.3118340000000046
21
-77.7376270000000034
0
LINE
8
BLACK
6
CONTINUOUS
10
186.3118340000000046
20
-77.7376270000000034
11
186.3047559999999976
21
-77.7397649999999913
0
LINE
8
BLACK
6
CONTINUOUS
10
186.3047559999999976
20
-77.7397649999999913
11
186.3033209999999826
21
-77.7393280000000004
0
LINE
8
BLACK
6
CONTINUOUS
10
186.3033209999999826
20
-77.7393280000000004
11
186.2999580000000037
21
-77.7399999999999949
0
LINE
8
BLACK
6
CONTINUOUS
10
186.2999580000000037
20
-77.7399999999999949
11
174.5999589999999841
21
-77.75
0
LINE
8
BLACK
6
CONTINUOUS
10
174.5999589999999841
20
-77.75
11
174.580820999999986
21
-77.7462099999999907
0
LINE
8
BLACK
6
CONTINUOUS
10
174.580820999999986
20
-77.7462099999999907
11
174.580804999999998
21
-77.7461940000000027
0
LINE
8
BLACK
6
CONTINUOUS
10
174.580804999999998
20
-77.7461940000000027
11
174.5807819999999992
21
-77.7461940000000027
0
LINE
8
BLACK
6
CONTINUOUS
10
174.5807819999999992
20
-77.7461940000000027
11
174.567278999999985
21
-77.7326910000000026
0
LINE
8
BLACK
6
CONTINUOUS
10
174.567278999999985
20
-77.7326910000000026
11
174.5537379999999814
21
-77.7191729999999978
0
LINE
8
BLACK
6
CONTINUOUS
10
174.5537379999999814
20
-77.7191729999999978
11
174.5537369999999839
21
-77.7191490000000016
0
LINE
8
BLACK
6
CONTINUOUS
10
174.5537369999999839
20
-77.7191490000000016
11
174.5537219999999934
21
-77.7191339999999968
0
LINE
8
BLACK
6
CONTINUOUS
10
174.5537219999999934
20
-77.7191339999999968
11
174.5499159999999961
21
-77.7000000000000028
0
LINE
8
BLACK
6
CONTINUOUS
10
174.5499159999999961
20
-77.7000000000000028
11
174.5499999999999829
21
-68.8999999999999915
0
LINE
8
BLACK
6
CONTINUOUS
10
174.5499999999999829
20
-68.8999999999999915
11
174.5538059999999803
21
-68.8808659999999975
0
LINE
8
BLACK
6
CONTINUOUS
10
174.5538059999999803
20
-68.8808659999999975
11
174.5808659999999861
21
-68.8538059999999916
0
LINE
8
BLACK
6
CONTINUOUS
10
174.5808659999999861
20
-68.8538059999999916
11
174.5999999999999943
21
-68.8499999999999943
0
LINE
8
BLACK
6
CONTINUOUS
10
174.5999999999999943
20
-68.8499999999999943
11
191.0999999999999943
21
-68.8499999999999943
0
LINE
8
BLACK
6
CONTINUOUS
10
191.0999999999999943
20
-68.8499999999999943
11
191.1054570000000012
21
-68.8510849999999976
0
LINE
8
BLACK
6
CONTINUOUS
10
177.2191339999999968
20
-78.2538059999999973
11
177.2353549999999984
21
-78.2646450000000016
0
LINE
8
BLACK
6
CONTINUOUS
10
177.2353549999999984
20
-78.2646450000000016
11
177.8353549999999927
21
-78.8646449999999959
0
LINE
8
BLACK
6
CONTINUOUS
10
177.8353549999999927
20
-78.8646449999999959
11
177.838058999999987
21
-78.8686919999999958
0
LINE
8
BLACK
6
CONTINUOUS
10
177.838058999999987
20
-78.8686919999999958
11
177.8397569999999916
21
-78.8696789999999908
0
LINE
8
BLACK
6
CONTINUOUS
10
177.8397569999999916
20
-78.8696789999999908
11
177.840438000000006
21
-78.8722520000000031
0
LINE
8
BLACK
6
CONTINUOUS
10
177.840438000000006
20
-78.8722520000000031
11
177.846193999999997
21
-78.8808659999999975
0
LINE
8
BLACK
6
CONTINUOUS
10
177.846193999999997
20
-78.8808659999999975
11
177.846193999999997
21
-78.8939869999999956
0
LINE
8
BLACK
6
CONTINUOUS
10
177.846193999999997
20
-78.8939869999999956
11
177.849552999999986
21
-78.9066720000000004
0
LINE
8
BLACK
6
CONTINUOUS
10
177.849552999999986
20
-78.9066720000000004
11
177.846193999999997
21
-78.9164719999999988
0
LINE
8
BLACK
6
CONTINUOUS
10
177.846193999999997
20
-78.9164719999999988
11
177.846193999999997
21
-78.9191339999999997
0
LINE
8
BLACK
6
CONTINUOUS
10
177.846193999999997
20
-78.9191339999999997
11
177.8448060000000055
21
-78.9205209999999937
0
LINE
8
BLACK
6
CONTINUOUS
10
177.8448060000000055
20
-78.9205209999999937
11
177.8432279999999821
21
-78.9251270000000034
0
LINE
8
BLACK
6
CONTINUOUS
10
177.8432279999999821
20
-78.9251270000000034
11
173.5882649999999785
21
-86.2450609999999926
0
LINE
8
BLACK
6
CONTINUOUS
10
173.5882649999999785
20
-86.2450609999999926
11
173.588263999999981
21
-86.2450649999999968
0
LINE
8
BLACK
6
CONTINUOUS
10
173.588263999999981
20
-86.2450649999999968
11
170.0909069999999872
21
-92.2816339999999968
0
LINE
8
BLACK
6
CONTINUOUS
10
170.0909069999999872
20
-92.2816339999999968
11
170.0780209999999784
21
-92.2962819999999908
0
LINE
8
BLACK
6
CONTINUOUS
10
170.0780209999999784
20
-92.2962819999999908
11
170.0775490000000048
21
-92.2964070000000021
0
LINE
8
BLACK
6
CONTINUOUS
10
170.0775490000000048
20
-92.2964070000000021
11
170.0772959999999898
21
-92.2968269999999933
0
LINE
8
BLACK
6
CONTINUOUS
10
170.0772959999999898
20
-92.2968269999999933
11
170.0591199999999787
21
-92.3013150000000024
0
LINE
8
BLACK
6
CONTINUOUS
10
170.0591199999999787
20
-92.3013150000000024
11
170.0410420000000045
21
-92.3061309999999935
0
LINE
8
BLACK
6
CONTINUOUS
10
170.0410420000000045
20
-92.3061309999999935
11
170.0406179999999949
21
-92.3058849999999893
0
LINE
8
BLACK
6
CONTINUOUS
10
170.0406179999999949
20
-92.3058849999999893
11
170.0401430000000005
21
-92.3060029999999898
0
LINE
8
BLACK
6
CONTINUOUS
10
170.0401430000000005
20
-92.3060029999999898
11
170.0217969999999923
21
-92.2993709999999936
0
LINE
8
BLACK
6
CONTINUOUS
10
170.0217969999999923
20
-92.2993709999999936
11
168.7850009999999941
21
-91.5525069999999914
0
LINE
8
BLACK
6
CONTINUOUS
10
168.7850009999999941
20
-91.5525069999999914
11
167.1087149999999895
21
-91.8492349999999931
0
LINE
8
BLACK
6
CONTINUOUS
10
167.1087149999999895
20
-91.8492349999999931
11
167.0958210000000008
21
-91.8489610000000027
0
LINE
8
BLACK
6
CONTINUOUS
10
167.0958210000000008
20
-91.8489610000000027
11
167.0935289999999895
21
-91.8495789999999914
0
LINE
8
BLACK
6
CONTINUOUS
10
167.0935289999999895
20
-91.8495789999999914
11
167.0914290000000051
21
-91.848867999999996
0
LINE
8
BLACK
6
CONTINUOUS
10
167.0914290000000051
20
-91.848867999999996
11
167.0892110000000059
21
-91.8488219999999984
0
LINE
8
BLACK
6
CONTINUOUS
10
167.0892110000000059
20
-91.8488219999999984
11
167.0872619999999813
21
-91.8474590000000006
0
LINE
8
BLACK
6
CONTINUOUS
10
167.0872619999999813
20
-91.8474590000000006
11
167.0750489999999786
21
-91.8433289999999971
0
LINE
8
BLACK
6
CONTINUOUS
10
167.0750489999999786
20
-91.8433289999999971
11
162.0947439999999915
21
-88.9754369999999994
0
LINE
8
BLACK
6
CONTINUOUS
10
162.0947439999999915
20
-88.9754369999999994
11
162.0810069999999996
21
-88.9634179999999901
0
LINE
8
BLACK
6
CONTINUOUS
10
162.0810069999999996
20
-88.9634179999999901
11
162.0804749999999785
21
-88.963121000000001
0
LINE
8
BLACK
6
CONTINUOUS
10
162.0804749999999785
20
-88.963121000000001
11
162.080410999999998
21
-88.9628960000000006
0
LINE
8
BLACK
6
CONTINUOUS
10
162.080410999999998
20
-88.9628960000000006
11
162.0800619999999981
21
-88.9625909999999891
0
LINE
8
BLACK
6
CONTINUOUS
10
162.0800619999999981
20
-88.9625909999999891
11
162.0751699999999857
21
-88.9444170000000014
0
LINE
8
BLACK
6
CONTINUOUS
10
162.0751699999999857
20
-88.9444170000000014
11
162.0700329999999951
21
-88.9263049999999993
0
LINE
8
BLACK
6
CONTINUOUS
10
162.0700329999999951
20
-88.9263049999999993
11
162.0701750000000061
21
-88.9258629999999926
0
LINE
8
BLACK
6
CONTINUOUS
10
162.0701750000000061
20
-88.9258629999999926
11
162.070114999999987
21
-88.9256369999999947
0
LINE
8
BLACK
6
CONTINUOUS
10
162.070114999999987
20
-88.9256369999999947
11
162.0704199999999844
21
-88.9251059999999995
0
LINE
8
BLACK
6
CONTINUOUS
10
162.0704199999999844
20
-88.9251059999999995
11
162.0760339999999928
21
-88.9077419999999989
0
LINE
8
BLACK
6
CONTINUOUS
10
162.0760339999999928
20
-88.9077419999999989
11
166.0563389999999799
21
-81.7756339999999966
0
LINE
8
BLACK
6
CONTINUOUS
10
166.0563389999999799
20
-81.7756339999999966
11
166.0563939999999832
21
-81.7755689999999902
0
LINE
8
BLACK
6
CONTINUOUS
10
166.0563939999999832
20
-81.7755689999999902
11
166.0564210000000003
21
-81.7754869999999983
0
LINE
8
BLACK
6
CONTINUOUS
10
166.0564210000000003
20
-81.7754869999999983
11
166.956421000000006
21
-80.1754869999999897
0
LINE
8
BLACK
6
CONTINUOUS
10
166.956421000000006
20
-80.1754869999999897
11
166.9587750000000028
21
-80.1727399999999903
0
LINE
8
BLACK
6
CONTINUOUS
10
166.9587750000000028
20
-80.1727399999999903
11
166.959118999999987
21
-80.171211999999997
0
LINE
8
BLACK
6
CONTINUOUS
10
166.959118999999987
20
-80.171211999999997
11
166.9643849999999929
21
-80.1661959999999993
0
LINE
8
BLACK
6
CONTINUOUS
10
166.9643849999999929
20
-80.1661959999999993
11
166.9691190000000063
21
-80.1606759999999952
0
LINE
8
BLACK
6
CONTINUOUS
10
166.9691190000000063
20
-80.1606759999999952
11
166.970626999999979
21
-80.1602529999999973
0
LINE
8
BLACK
6
CONTINUOUS
10
166.970626999999979
20
-80.1602529999999973
11
166.9732469999999864
21
-80.1577589999999987
0
LINE
8
BLACK
6
CONTINUOUS
10
166.9732469999999864
20
-80.1577589999999987
11
169.9732469999999864
21
-78.257758999999993
0
LINE
8
BLACK
6
CONTINUOUS
10
169.9732469999999864
20
-78.257758999999993
11
169.9792149999999822
21
-78.2554559999999952
0
LINE
8
BLACK
6
CONTINUOUS
10
169.9792149999999822
20
-78.2554559999999952
11
169.9808659999999918
21
-78.2538059999999973
0
LINE
8
BLACK
6
CONTINUOUS
10
169.9808659999999918
20
-78.2538059999999973
11
169.9862889999999993
21
-78.252726999999993
0
LINE
8
BLACK
6
CONTINUOUS
10
169.9862889999999993
20
-78.252726999999993
11
169.9914479999999912
21
-78.2507370000000009
0
LINE
8
BLACK
6
CONTINUOUS
10
169.9914479999999912
20
-78.2507370000000009
11
169.9937249999999835
21
-78.2512479999999897
0
LINE
8
BLACK
6
CONTINUOUS
10
169.9937249999999835
20
-78.2512479999999897
11
170.
21
-78.25
0
LINE
8
BLACK
6
CONTINUOUS
10
170.
20
-78.25
11
177.1999999999999886
21
-78.25
0
LINE
8
BLACK
6
CONTINUOUS
10
177.1999999999999886
20
-78.25
11
177.2191339999999968
21
-78.2538059999999973
0
LINE
8
BLACK
6
CONTINUOUS
10
143.9191339999999855
20
-73.5038059999999973
11
143.9461939999999913
21
-73.5308660000000032
0
LINE
8
BLACK
6
CONTINUOUS
10
143.9461939999999913
20
-73.5308660000000032
11
143.9499999999999886
21
-73.5499999999999972
0
LINE
8
BLACK
6
CONTINUOUS
10
143.9499999999999886
20
-73.5499999999999972
11
143.9499999999999886
21
-84.1899999999999977
0
LINE
8
BLACK
6
CONTINUOUS
10
143.9499999999999886
20
-84.1899999999999977
11
143.9461939999999913
21
-84.2091339999999917
0
LINE
8
BLACK
6
CONTINUOUS
10
143.9461939999999913
20
-84.2091339999999917
11
143.9191339999999855
21
-84.2361939999999976
0
LINE
8
BLACK
6
CONTINUOUS
10
143.9191339999999855
20
-84.2361939999999976
11
143.9000000000000057
21
-84.2399999999999949
0
LINE
8
BLACK
6
CONTINUOUS
10
143.9000000000000057
20
-84.2399999999999949
11
140.9099999999999966
21
-84.2399999999999949
0
LINE
8
BLACK
6
CONTINUOUS
10
140.9099999999999966
20
-84.2399999999999949
11
140.8908659999999884
21
-84.2361939999999976
0
LINE
8
BLACK
6
CONTINUOUS
10
140.8908659999999884
20
-84.2361939999999976
11
140.8638059999999825
21
-84.2091339999999917
0
LINE
8
BLACK
6
CONTINUOUS
10
140.8638059999999825
20
-84.2091339999999917
11
140.8599999999999852
21
-84.1899999999999977
0
LINE
8
BLACK
6
CONTINUOUS
10
140.8599999999999852
20
-84.1899999999999977
11
140.8599999999999852
21
-73.5499999999999972
0
LINE
8
BLACK
6
CONTINUOUS
10
140.8599999999999852
20
-73.5499999999999972
11
140.8638059999999825
21
-73.5308660000000032
0
LINE
8
BLACK
6
CONTINUOUS
10
140.8638059999999825
20
-73.5308660000000032
11
140.8908659999999884
21
-73.5038059999999973
0
LINE
8
BLACK
6
CONTINUOUS
10
140.8908659999999884
20
-73.5038059999999973
11
140.9099999999999966
21
-73.5
0
LINE
8
BLACK
6
CONTINUOUS
10
140.9099999999999966
20
-73.5
11
143.9000000000000057
21
-73.5
0
LINE
8
BLACK
6
CONTINUOUS
10
143.9000000000000057
20
-73.5
11
143.9191339999999855
21
-73.5038059999999973
0
LINE
8
BLACK
6
CONTINUOUS
10
152.2021509999999864
20
-81.7502530000000007
11
152.202668999999986
21
-81.7500709999999913
0
LINE
8
BLACK
6
CONTINUOUS
10
152.202668999999986
20
-81.7500709999999913
11
152.2194899999999791
21
-81.7581160000000011
0
LINE
8
BLACK
6
CONTINUOUS
10
152.2194899999999791
20
-81.7581160000000011
11
152.2365039999999965
21
-81.7658320000000032
0
LINE
8
BLACK
6
CONTINUOUS
10
152.2365039999999965
20
-81.7658320000000032
11
152.2366969999999924
21
-81.7663459999999986
0
LINE
8
BLACK
6
CONTINUOUS
10
152.2366969999999924
20
-81.7663459999999986
11
152.2371919999999932
21
-81.7665829999999971
0
LINE
8
BLACK
6
CONTINUOUS
10
152.2371919999999932
20
-81.7665829999999971
11
152.2471500000000049
21
-81.7833589999999901
0
LINE
8
BLACK
6
CONTINUOUS
10
152.2471500000000049
20
-81.7833589999999901
11
153.447148999999996
21
-85.1833589999999958
0
LINE
8
BLACK
6
CONTINUOUS
10
153.447148999999996
20
-85.1833589999999958
11
153.4495220000000018
21
-85.1998439999999988
0
LINE
8
BLACK
6
CONTINUOUS
10
153.4495220000000018
20
-85.1998439999999988
11
153.449988999999988
21
-85.2010409999999894
0
LINE
8
BLACK
6
CONTINUOUS
10
153.449988999999988
20
-85.2010409999999894
11
153.44976699999998
21
-85.2015459999999933
0
LINE
8
BLACK
6
CONTINUOUS
10
153.44976699999998
20
-85.2015459999999933
11
153.4499289999999974
21
-85.2026690000000002
0
LINE
8
BLACK
6
CONTINUOUS
10
153.4499289999999974
20
-85.2026690000000002
11
153.441995999999989
21
-85.2192539999999923
0
LINE
8
BLACK
6
CONTINUOUS
10
153.441995999999989
20
-85.2192539999999923
11
153.4346109999999896
21
-85.2360839999999911
0
LINE
8
BLACK
6
CONTINUOUS
10
153.4346109999999896
20
-85.2360839999999911
11
153.4336549999999875
21
-85.236694
0
LINE
8
BLACK
6
CONTINUOUS
10
153.4336549999999875
20
-85.236694
11
153.4334169999999915
21
-85.2371919999999932
0
LINE
8
BLACK
6
CONTINUOUS
10
153.4334169999999915
20
-85.2371919999999932
11
153.4322059999999794
21
-85.2376189999999951
0
LINE
8
BLACK
6
CONTINUOUS
10
153.4322059999999794
20
-85.2376189999999951
11
153.4181679999999801
21
-85.2465819999999894
0
LINE
8
BLACK
6
CONTINUOUS
10
153.4181679999999801
20
-85.2465819999999894
11
150.7358279999999979
21
-86.2927719999999994
0
LINE
8
BLACK
6
CONTINUOUS
10
150.7358279999999979
20
-86.2927719999999994
11
150.7166189999999801
21
-86.2961789999999951
0
LINE
8
BLACK
6
CONTINUOUS
10
150.7166189999999801
20
-86.2961789999999951
11
150.7164530000000013
21
-86.2961059999999947
0
LINE
8
BLACK
6
CONTINUOUS
10
150.7164530000000013
20
-86.2961059999999947
11
150.7162849999999992
21
-86.2961710000000011
0
LINE
8
BLACK
6
CONTINUOUS
10
150.7162849999999992
20
-86.2961710000000011
11
150.6989719999999977
21
-86.2884349999999927
0
LINE
8
BLACK
6
CONTINUOUS
10
150.6989719999999977
20
-86.2884349999999927
11
150.6815760000000068
21
-86.2808019999999942
0
LINE
8
BLACK
6
CONTINUOUS
10
150.6815760000000068
20
-86.2808019999999942
11
150.6815100000000029
21
-86.2806329999999946
0
LINE
8
BLACK
6
CONTINUOUS
10
150.6815100000000029
20
-86.2806329999999946
11
150.6813459999999907
21
-86.2805599999999941
0
LINE
8
BLACK
6
CONTINUOUS
10
150.6813459999999907
20
-86.2805599999999941
11
150.6709569999999871
21
-86.2640469999999908
0
LINE
8
BLACK
6
CONTINUOUS
10
150.6709569999999871
20
-86.2640469999999908
11
149.3709570000000042
21
-82.8640469999999993
0
LINE
8
BLACK
6
CONTINUOUS
10
149.3709570000000042
20
-82.8640469999999993
11
149.3676789999999812
21
-82.844814999999997
0
LINE
8
BLACK
6
CONTINUOUS
10
149.3676789999999812
20
-82.844814999999997
11
149.3677390000000003
21
-82.8446780000000018
0
LINE
8
BLACK
6
CONTINUOUS
10
149.3677390000000003
20
-82.8446780000000018
11
149.3676869999999894
21
-82.844538
0
LINE
8
BLACK
6
CONTINUOUS
10
149.3676869999999894
20
-82.844538
11
149.3755429999999933
21
-82.8272120000000029
0
LINE
8
BLACK
6
CONTINUOUS
10
149.3755429999999933
20
-82.8272120000000029
11
149.3832899999999881
21
-82.8098760000000027
0
LINE
8
BLACK
6
CONTINUOUS
10
149.3832899999999881
20
-82.8098760000000027
11
149.3834300000000042
21
-82.8098219999999969
0
LINE
8
BLACK
6
CONTINUOUS
10
149.3834300000000042
20
-82.8098219999999969
11
149.3834919999999897
21
-82.8096859999999992
0
LINE
8
BLACK
6
CONTINUOUS
10
149.3834919999999897
20
-82.8096859999999992
11
149.4000619999999913
21
-82.7993889999999908
0
LINE
8
BLACK
6
CONTINUOUS
10
149.4000619999999913
20
-82.7993889999999908
11
152.1824019999999962
21
-81.7531989999999951
0
LINE
8
BLACK
6
CONTINUOUS
10
152.1824019999999962
20
-81.7531989999999951
11
152.2016519999999957
21
-81.7500270000000029
0
LINE
8
BLACK
6
CONTINUOUS
10
152.2016519999999957
20
-81.7500270000000029
11
152.2021509999999864
21
-81.7502530000000007
  0
ENDSEC
  0
EOF
