  0
SECTION
  2
HEADER
  9
$ANGBASE
  50
0.0
  9
$ANGDIR
  70
1
  9
$MEASUREMENT
  70
1
  0
ENDSEC
  0
SECTION
  2
TABLES
  0
TABLE
  2
LTYPE
  70
4
  0
LTYPE
  5
40F
  2
CONTINUOUS
  70
0
  3
Solid line
  72
65
  73
0
  40
0.0
  0
LTYPE
  5
410
  2
DASHDOT
 70
0
  3
Dash Dot ____ _ ____ _
 72
65
 73
4
 40
2.0
 49
1.25
 49
-0.25
 49
0.25
 49
-0.25
  0
LTYPE
  5
411
  2
DASHED
 70
0
  3
Dashed __ __ __ __ __
 72
65
 73
2
 40
0.75
 49
0.5
 49
-0.25
  0
LTYPE
  5
43B
  2
DOTTED
 70
0
  3
Dotted .  .  .  .
 72
65
 73
2
 40
0.2
 49
0.0
 49
-0.2
  0
ENDTAB
  0
TABLE
  2
STYLE
  70
4
  0
STYLE
  2
KICAD
  70
0
  40
0
  41
1
  42
1
  50
0
  71
0
  3
isocp.shx
  0
STYLE
  2
KICADB
  70
0
  40
0
  41
1
  42
1
  50
0
  71
0
  3
isocp.shx
  0
STYLE
  2
KICADI
  70
0
  40
0
  41
1
  42
1
  50
15
  71
0
  3
isocp.shx
  0
STYLE
  2
KICADBI
  70
0
  40
0
  41
1
  42
1
  50
15
  71
0
  3
isocp.shx
  0
ENDTAB
  0
TABLE
  2
LAYER
  70
1
  0
LAYER
  2
BLACK
  70
0
  62
7
  6
CONTINUOUS
  0
ENDTAB
  0
ENDSEC
  0
SECTION
  2
ENTITIES
0
LINE
8
BLACK
6
CONTINUOUS
10
137.9000000000000057
20
-79.3946090000000027
11
138.6999999999999886
21
-80.5799999999999983
0
LINE
8
BLACK
6
CONTINUOUS
10
145.5970559999999807
20
-96.6641910000000024
11
145.5970559999999807
21
-96.1018049999999988
0
LINE
8
BLACK
6
CONTINUOUS
10
138.6999999999999886
20
-80.5799999999999983
11
138.6999999999999886
21
-82.5499999999999972
0
LINE
8
BLACK
6
CONTINUOUS
10
138.8100000000000023
20
-91.8333019999999891
11
138.8100000000000023
21
-96.1018040000000013
0
LINE
8
BLACK
6
CONTINUOUS
10
145.5970559999999807
20
-96.1018049999999988
11
145.9069020000000023
21
-96.1018049999999988
0
LINE
8
BLACK
6
CONTINUOUS
10
135.7399999999999807
20
-88.3799999999999955
11
137.7155989999999974
21
-91.2014489999999967
0
LINE
8
BLACK
6
CONTINUOUS
10
139.0970570000000066
20
-96.1018040000000013
11
139.0970570000000066
21
-96.6641910000000024
0
LINE
8
BLACK
6
CONTINUOUS
10
138.8100000000000023
20
-96.1018040000000013
11
139.0970570000000066
21
-96.1018040000000013
0
LINE
8
BLACK
6
CONTINUOUS
10
145.9069020000000023
20
-92.0099999999999909
11
146.984265999999991
21
-91.2556209999999908
0
LINE
8
BLACK
6
CONTINUOUS
10
145.9069010000000048
20
-96.6641910000000024
11
145.5970559999999807
21
-96.6641910000000024
0
LINE
8
BLACK
6
CONTINUOUS
10
145.9069020000000023
20
-96.1018049999999988
11
145.9069020000000023
21
-92.0099999999999909
0
LINE
8
BLACK
6
CONTINUOUS
10
138.6999999999999886
20
-82.5499999999999972
11
137.6399999999999864
21
-83.2999999999999972
0
LINE
8
BLACK
6
CONTINUOUS
10
139.0970570000000066
20
-96.6641910000000024
11
138.8100000000000023
21
-96.6641910000000024
0
LINE
8
BLACK
6
CONTINUOUS
10
136.0577899999999829
20
-111.4712729999999965
11
137.1486319999999921
21
-110.8414749999999884
0
LINE
8
BLACK
6
CONTINUOUS
10
137.7155989999999974
20
-91.2014489999999967
11
138.8099990000000048
21
-91.8333009999999916
0
ARC
8
BLACK
10
144.0999999999999943
20
-75.2249999999999943
40
0.2
50
0.00000000
51
180.00000000
0
ARC
8
BLACK
10
140.6999999999999886
20
-78.7749999999999915
40
0.2
50
-180.00000000
51
-0.00000000
0
ARC
8
BLACK
10
144.0999999999999943
20
-78.7749999999999915
40
0.2
50
-180.00000000
51
-0.00000000
0
LINE
8
BLACK
6
CONTINUOUS
10
140.1500000000000057
20
-112.5743149999999986
11
140.1500000000000057
21
-113.565417999999994
0
LINE
8
BLACK
6
CONTINUOUS
10
172.6730689999999981
20
-71.3353900000000039
11
173.7377060000000029
21
-72.0808569999999946
0
LINE
8
BLACK
6
CONTINUOUS
10
145.572275999999988
20
-81.3437669999999997
11
146.8499999999999943
21
-79.3946100000000001
0
CIRCLE
8
BLACK
10
157.024279000000007
20
-81.9221019999999953
40
2.5
0
LINE
8
BLACK
6
CONTINUOUS
10
153.8652689999999836
20
-106.9630709999999993
11
153.4724889999999959
21
-107.1898410000000013
0
LINE
8
BLACK
6
CONTINUOUS
10
141.6222009999999898
20
-102.3397659999999973
11
142.1221999999999923
21
-103.2057899999999933
0
LINE
8
BLACK
6
CONTINUOUS
10
186.9782500000000027
20
-70.1045999999999907
11
186.9782500000000027
21
-71.9299999999999926
0
LINE
8
BLACK
6
CONTINUOUS
10
177.2658469999999795
20
-75.7851569999999981
11
177.3606399999999894
21
-75.7304290000000009
0
LINE
8
BLACK
6
CONTINUOUS
10
164.5108089999999947
20
-84.6187230000000028
11
165.4599989999999821
21
-86.2627669999999966
0
LINE
8
BLACK
6
CONTINUOUS
10
188.6985019999999906
20
-76.3149530000000027
11
189.1985019999999906
21
-76.3149530000000027
0
LINE
8
BLACK
6
CONTINUOUS
10
141.1470569999999896
20
-105.7608169999999888
11
140.8970569999999896
21
-105.3278040000000004
0
LINE
8
BLACK
6
CONTINUOUS
10
142.6222009999999898
20
-106.3238169999999911
11
142.1222009999999898
21
-106.3238169999999911
0
LINE
8
BLACK
6
CONTINUOUS
10
157.1476329999999848
20
-111.303377999999995
11
157.6476339999999823
21
-112.1694049999999976
0
LINE
8
BLACK
6
CONTINUOUS
10
138.8100000000000023
20
-96.6641910000000024
11
138.8100000000000023
21
-97.4799999999999898
0
LINE
8
BLACK
6
CONTINUOUS
10
137.1486319999999921
20
-110.8414749999999884
11
140.1499989999999798
21
-112.5743149999999986
0
LINE
8
BLACK
6
CONTINUOUS
10
140.5
20
-78.7749999999999915
11
140.5
21
-75.2249999999999943
0
LINE
8
BLACK
6
CONTINUOUS
10
179.7409920000000056
20
-75.675697999999997
11
179.8357849999999871
21
-75.7304280000000034
0
LINE
8
BLACK
6
CONTINUOUS
10
165.7727799999999831
20
-95.8011909999999887
11
165.7727799999999831
21
-95.6917329999999993
0
LINE
8
BLACK
6
CONTINUOUS
10
146.984265999999991
20
-91.2556209999999908
11
149.1534809999999993
21
-88.1342049999999944
0
LINE
8
BLACK
6
CONTINUOUS
10
181.2199999999999989
20
-70.0098150000000032
11
180.6799999999999784
21
-69.0731999999999999
0
LINE
8
BLACK
6
CONTINUOUS
10
175.3621679999999969
20
-71.1429739999999953
11
173.7377070000000003
21
-72.0808579999999921
0
LINE
8
BLACK
6
CONTINUOUS
10
159.1227779999999825
20
-96.7972029999999961
11
159.6227779999999825
21
-97.6632299999999987
0
LINE
8
BLACK
6
CONTINUOUS
10
140.8970569999999896
20
-104.2018039999999957
11
141.1470569999999896
21
-103.7687909999999931
0
LINE
8
BLACK
6
CONTINUOUS
10
134.039999999999992
20
-105.3299999999999983
11
133.276061999999996
21
-106.6531789999999944
0
LINE
8
BLACK
6
CONTINUOUS
10
180.6799999999999784
20
-69.0731999999999999
11
176.1291530000000023
21
-69.0733519999999999
0
LINE
8
BLACK
6
CONTINUOUS
10
172.2111879999999928
20
-71.3353900000000039
11
169.7421279999999797
21
-75.6119290000000035
0
LINE
8
BLACK
6
CONTINUOUS
10
189.6985019999999906
20
-75.4489289999999926
11
190.0912809999999808
21
-75.675699999999992
0
LINE
8
BLACK
6
CONTINUOUS
10
194.2039409999999862
20
-83.6022749999999917
11
195.4034839999999917
21
-84.2948319999999995
0
LINE
8
BLACK
6
CONTINUOUS
10
164.4499999999999886
20
-102.0300000000000011
11
167.2457369999999912
21
-97.1833839999999896
0
LINE
8
BLACK
6
CONTINUOUS
10
144.2999999999999829
20
-75.2249999999999943
11
144.2999999999999829
21
-78.7749999999999915
0
LINE
8
BLACK
6
CONTINUOUS
10
150.25
20
-112.4307429999999925
11
150.25
21
-113.565417999999994
0
ARC
8
BLACK
10
152.9174999999999898
20
-85.571399999999997
40
0.4999849818954565
50
41.67883879
51
110.35785082
0
LINE
8
BLACK
6
CONTINUOUS
10
177.4554339999999968
20
-75.675697999999997
11
177.8482109999999921
21
-75.4489279999999951
0
LINE
8
BLACK
6
CONTINUOUS
10
166.7727789999999857
20
-96.364190999999991
11
165.7727789999999857
21
-96.364190999999991
0
LINE
8
BLACK
6
CONTINUOUS
10
172.6730689999999981
20
-71.3353900000000039
11
172.2111879999999928
21
-71.3353900000000039
0
LINE
8
BLACK
6
CONTINUOUS
10
165.4599989999999821
20
-88.0230940000000004
11
163.6953359999999975
21
-89.0419219999999996
0
LINE
8
BLACK
6
CONTINUOUS
10
187.776377999999994
20
-80.2301439999999957
11
185.2675629999999956
21
-84.5755410000000012
0
LINE
8
BLACK
6
CONTINUOUS
10
146.0531389999999874
20
-98.0632310000000018
11
145.822197999999986
21
-97.6632299999999987
0
LINE
8
BLACK
6
CONTINUOUS
10
195.4229229999999973
20
-71.4867649999999912
11
194.2620829999999899
21
-72.1569760000000002
0
LINE
8
BLACK
6
CONTINUOUS
10
140.6470559999999921
20
-102.9027639999999906
11
141.0398319999999899
21
-102.6759950000000003
0
LINE
8
BLACK
6
CONTINUOUS
10
166.9155569999999784
20
-93.712381999999991
11
167.0103509999999858
21
-93.6576529999999963
0
LINE
8
BLACK
6
CONTINUOUS
10
168.9310669999999845
20
-94.2421779999999956
11
171.9144939999999906
21
-89.0747300000000024
0
LINE
8
BLACK
6
CONTINUOUS
10
141.6222009999999898
20
-107.1898419999999987
11
141.229422999999997
21
-106.9630719999999968
0
LINE
8
BLACK
6
CONTINUOUS
10
155.1976339999999936
20
-104.2018049999999931
11
155.1976339999999936
21
-104.764803999999998
0
LINE
8
BLACK
6
CONTINUOUS
10
169.4730669999999861
20
-78.8699780000000032
11
169.9733599999999853
21
-79.7365119999999905
0
LINE
8
BLACK
6
CONTINUOUS
10
135.7399999999999807
20
-87.8299999999999983
11
134.9399999999999977
21
-87.8299999999999983
0
LINE
8
BLACK
6
CONTINUOUS
10
188.9243869999999959
20
-80.8929469999999924
11
187.776377999999994
21
-80.2301439999999957
0
LINE
8
BLACK
6
CONTINUOUS
10
134.9199999999999875
20
-82.7999999999999972
11
134.9199999999999875
21
-83.2999999999999972
0
LINE
8
BLACK
6
CONTINUOUS
10
191.3485029999999938
20
-70.474819999999994
11
191.3485039999999913
21
-69.0698000000000008
0
ARC
8
BLACK
10
157.0252999999999872
20
-81.9140999999999906
40
5.0000109086445992
50
-138.32026856
51
179.03244813
0
LINE
8
BLACK
6
CONTINUOUS
10
147.5367719999999849
20
-110.8642609999999991
11
150.25
21
-112.4307429999999925
0
LINE
8
BLACK
6
CONTINUOUS
10
163.1846400000000017
20
-101.7399999999999949
11
164.4499999999999886
21
-102.0300000000000011
0
LINE
8
BLACK
6
CONTINUOUS
10
171.5757799999999804
20
-84.7639819999999986
11
173.409325999999993
21
-83.7053839999999951
0
LINE
8
BLACK
6
CONTINUOUS
10
160.37277899999998
20
-95.6917329999999993
11
160.37277899999998
21
-95.8011899999999912
0
LINE
8
BLACK
6
CONTINUOUS
10
184.998502000000002
20
-85.8415660000000003
11
185.248502000000002
21
-86.2745790000000028
0
LINE
8
BLACK
6
CONTINUOUS
10
197.5736459999999965
20
-79.7360039999999941
11
198.073646999999994
21
-78.8699790000000007
0
LINE
8
BLACK
6
CONTINUOUS
10
162.3619679999999903
20
-88.3965910000000008
11
159.2161529999999914
21
-93.8452999999999946
0
LINE
8
BLACK
6
CONTINUOUS
10
156.4224889999999846
20
-113.1654179999999883
11
156.672489999999982
21
-112.7324059999999974
0
LINE
8
BLACK
6
CONTINUOUS
10
170.7230689999999811
20
-78.4369659999999982
11
169.7230669999999861
21
-78.4369659999999982
0
LINE
8
BLACK
6
CONTINUOUS
10
167.4979229999999859
20
-93.376150999999993
11
167.9979229999999859
21
-94.2421779999999956
0
LINE
8
BLACK
6
CONTINUOUS
10
179.3482119999999895
20
-75.4489269999999976
11
179.7409920000000056
21
-75.675697999999997
0
LINE
8
BLACK
6
CONTINUOUS
10
158.1476339999999823
20
-97.3602029999999985
11
157.6476339999999823
21
-97.3602029999999985
0
LINE
8
BLACK
6
CONTINUOUS
10
141.2294239999999945
20
-102.5665369999999967
11
141.6222009999999898
21
-102.3397659999999973
0
LINE
8
BLACK
6
CONTINUOUS
10
196.823646999999994
20
-77.8739669999999933
11
196.823646999999994
21
-77.3109659999999934
0
LINE
8
BLACK
6
CONTINUOUS
10
191.3175609999999836
20
-86.6745789999999943
11
191.3175609999999836
21
-85.2687279999999959
0
LINE
8
BLACK
6
CONTINUOUS
10
159.0404130000000009
20
-97.9994590000000017
11
158.6476339999999823
21
-98.2262289999999894
0
LINE
8
BLACK
6
CONTINUOUS
10
156.7548559999999895
20
-111.5301489999999944
11
157.1476329999999848
21
-111.303377999999995
0
LINE
8
BLACK
6
CONTINUOUS
10
170.7230689999999811
20
-77.8739669999999933
11
170.7230689999999811
21
-78.4369659999999982
0
LINE
8
BLACK
6
CONTINUOUS
10
178.348212999999987
20
-76.3149530000000027
11
178.848212999999987
21
-76.3149530000000027
0
LINE
8
BLACK
6
CONTINUOUS
10
157.6476339999999823
20
-112.1694059999999951
11
158.1476339999999823
21
-112.1694049999999976
0
LINE
8
BLACK
6
CONTINUOUS
10
176.1230689999999868
20
-78.4369650000000007
11
176.1230689999999868
21
-77.8739659999999958
0
LINE
8
BLACK
6
CONTINUOUS
10
177.3730679999999893
20
-78.8699780000000032
11
177.1230669999999918
21
-78.4369650000000007
0
LINE
8
BLACK
6
CONTINUOUS
10
170.9479240000000004
20
-86.2745790000000028
11
171.9479220000000055
21
-86.2745790000000028
0
LINE
8
BLACK
6
CONTINUOUS
10
145.572275999999988
20
-82.3424409999999938
11
145.572275999999988
21
-81.3437669999999997
0
LINE
8
BLACK
6
CONTINUOUS
10
154.2166939999999897
20
-102.5027669999999915
11
154.4476349999999911
21
-102.9027659999999997
0
LINE
8
BLACK
6
CONTINUOUS
10
191.3175609999999836
20
-85.2687279999999959
11
194.2039409999999862
21
-83.6022749999999917
0
LINE
8
BLACK
6
CONTINUOUS
10
156.5652690000000007
20
-111.639608999999993
11
156.6600619999999822
21
-111.5848790000000008
0
LINE
8
BLACK
6
CONTINUOUS
10
174.6347499999999968
20
-84.4128829999999937
11
177.1040079999999932
21
-80.1360039999999998
0
LINE
8
BLACK
6
CONTINUOUS
10
161.5785750000000007
20
-107.026842000000002
11
160.5
21
-106.4041269999999884
0
LINE
8
BLACK
6
CONTINUOUS
10
137.9000000000000057
20
-79.3946090000000027
11
137.9000000000000057
21
-75.4500000000000028
0
LINE
8
BLACK
6
CONTINUOUS
10
170.9479240000000004
20
-86.8375779999999935
11
170.9479240000000004
21
-86.2745790000000028
0
ARC
8
BLACK
10
146.0721999999999809
20
-82.3425000000000011
40
0.4999083435851016
50
-180.00676193
51
-125.27797640
0
LINE
8
BLACK
6
CONTINUOUS
10
191.4236469999999883
20
-77.8739659999999958
11
191.4236469999999883
21
-79.4500000000000028
0
LINE
8
BLACK
6
CONTINUOUS
10
172.1979220000000055
20
-85.8415650000000028
11
171.5757799999999804
21
-84.7639819999999986
0
LINE
8
BLACK
6
CONTINUOUS
10
138.434629000000001
20
-97.9447289999999953
11
137.9470579999999984
21
-98.2262289999999894
0
LINE
8
BLACK
6
CONTINUOUS
10
167.0103509999999858
20
-93.6576529999999963
11
167.1051449999999932
21
-93.6029229999999899
0
LINE
8
BLACK
6
CONTINUOUS
10
196.823646999999994
20
-78.4369659999999982
11
196.823646999999994
21
-77.8739669999999933
0
LINE
8
BLACK
6
CONTINUOUS
10
159.1095149999999876
20
-111.3033810000000017
11
161.5785750000000007
21
-107.026842000000002
0
LINE
8
BLACK
6
CONTINUOUS
10
160.5
20
-103.0211319999999944
11
162.718986000000001
21
-101.7399999999999949
0
ARC
8
BLACK
10
151.525999999999982
20
-81.8211999999999904
40
0.5000737185305782
50
-69.63706781
51
-0.97037924
0
LINE
8
BLACK
6
CONTINUOUS
10
156.6857540000000029
20
-98.2262289999999894
11
154.2166939999999897
21
-102.5027669999999915
0
LINE
8
BLACK
6
CONTINUOUS
10
194.2620829999999899
20
-72.1569760000000002
11
191.3485029999999938
21
-70.474819999999994
0
LINE
8
BLACK
6
CONTINUOUS
10
158.6476339999999823
20
-98.2262289999999894
11
158.1476339999999823
21
-97.3602029999999985
0
LINE
8
BLACK
6
CONTINUOUS
10
190.1736459999999909
20
-76.8779529999999909
11
190.4236459999999909
21
-77.3109659999999934
0
LINE
8
BLACK
6
CONTINUOUS
10
146.8499999999999943
20
-75.4357579999999928
11
146.8499999999999943
21
-79.3946100000000001
0
LINE
8
BLACK
6
CONTINUOUS
10
176.1230679999999893
20
-77.3109680000000026
11
177.1230669999999918
21
-77.3109680000000026
0
LINE
8
BLACK
6
CONTINUOUS
10
190.4236459999999909
20
-77.3109659999999934
11
191.4236469999999883
21
-77.3109669999999909
0
LINE
8
BLACK
6
CONTINUOUS
10
171.6979240000000004
20
-88.6996159999999918
11
172.197923000000003
21
-87.8335909999999984
0
LINE
8
BLACK
6
CONTINUOUS
10
180.0733569999999872
20
-77.3109659999999934
11
181.0733569999999872
21
-77.3109659999999934
0
LINE
8
BLACK
6
CONTINUOUS
10
189.1985019999999906
20
-76.3149530000000027
11
189.6985019999999906
21
-75.4489289999999926
0
LINE
8
BLACK
6
CONTINUOUS
10
137.4470570000000009
20
-97.3602029999999985
11
136.9470570000000009
21
-97.3602029999999985
0
LINE
8
BLACK
6
CONTINUOUS
10
154.1976339999999936
20
-104.2018039999999957
11
155.1976339999999936
21
-104.2018049999999931
0
LINE
8
BLACK
6
CONTINUOUS
10
142.6222009999999898
20
-103.2057909999999907
11
143.1221999999999923
21
-102.3397659999999973
0
LINE
8
BLACK
6
CONTINUOUS
10
171.9144939999999906
20
-89.0747300000000024
11
171.6979240000000004
21
-88.6996159999999918
0
LINE
8
BLACK
6
CONTINUOUS
10
155.1976339999999936
20
-105.3278049999999979
11
154.1976329999999962
21
-105.3278040000000004
0
LINE
8
BLACK
6
CONTINUOUS
10
143.5840809999999976
20
-102.3397659999999973
11
146.0531389999999874
21
-98.0632310000000018
0
LINE
8
BLACK
6
CONTINUOUS
10
155.1976339999999936
20
-104.764803999999998
11
155.1976339999999936
21
-105.3278049999999979
0
LINE
8
BLACK
6
CONTINUOUS
10
139.8970569999999896
20
-105.3278040000000004
11
139.8970569999999896
21
-104.8742629999999991
0
LINE
8
BLACK
6
CONTINUOUS
10
140.6470559999999921
20
-106.6268419999999963
11
141.1470559999999921
21
-105.7608169999999888
0
LINE
8
BLACK
6
CONTINUOUS
10
175.8982120000000009
20
-69.4733519999999913
11
174.8982129999999984
21
-69.4733519999999913
0
LINE
8
BLACK
6
CONTINUOUS
10
160.5
20
-106.4041269999999884
11
160.5
21
-103.0211319999999944
0
LINE
8
BLACK
6
CONTINUOUS
10
121.3999999999999915
20
-90.3299999999999983
11
134.9399999999999977
21
-90.3299999999999983
0
LINE
8
BLACK
6
CONTINUOUS
10
186.9782500000000027
20
-71.9299999999999926
11
185.0491710000000012
21
-73.0497999999999905
0
LINE
8
BLACK
6
CONTINUOUS
10
169.7421269999999822
20
-75.6119290000000035
11
170.7230679999999836
21
-76.1782749999999993
0
LINE
8
BLACK
6
CONTINUOUS
10
134.9199999999999875
20
-83.2999999999999972
11
137.6399999999999864
21
-83.2999999999999972
0
LINE
8
BLACK
6
CONTINUOUS
10
154.4476349999999911
20
-102.9027659999999997
11
153.9476339999999936
21
-103.7687909999999931
0
LINE
8
BLACK
6
CONTINUOUS
10
150.25
20
-113.565417999999994
11
155.1915500000000065
21
-113.565417999999994
0
LINE
8
BLACK
6
CONTINUOUS
10
191.4236469999999883
20
-79.4500000000000028
11
188.9243869999999959
21
-80.8929469999999924
0
LINE
8
BLACK
6
CONTINUOUS
10
138.9173899999999833
20
-97.6660040000000009
11
138.434629000000001
21
-97.9447289999999953
0
LINE
8
BLACK
6
CONTINUOUS
10
177.3606399999999894
20
-75.7304280000000034
11
177.4554339999999968
21
-75.6756989999999945
0
LINE
8
BLACK
6
CONTINUOUS
10
167.1051449999999932
20
-93.6029229999999899
11
167.4979229999999859
21
-93.376150999999993
0
LINE
8
BLACK
6
CONTINUOUS
10
134.9399999999999977
20
-87.8299999999999983
11
134.9399999999999977
21
-90.3299999999999983
0
LINE
8
BLACK
6
CONTINUOUS
10
135.9851759999999956
20
-98.2262289999999894
11
133.5319450000000074
21
-102.4753489999999942
0
LINE
8
BLACK
6
CONTINUOUS
10
190.0912809999999808
20
-75.675699999999992
11
190.1860739999999907
21
-75.7304290000000009
0
LINE
8
BLACK
6
CONTINUOUS
10
165.4599989999999821
20
-86.2627669999999966
11
165.4599989999999821
21
-88.0230940000000004
0
LINE
8
BLACK
6
CONTINUOUS
10
156.6600619999999822
20
-111.5848790000000008
11
156.7548559999999895
21
-111.5301489999999944
0
LINE
8
BLACK
6
CONTINUOUS
10
166.5227789999999857
20
-93.9391519999999929
11
166.9155569999999784
21
-93.712381999999991
0
LINE
8
BLACK
6
CONTINUOUS
10
177.1230669999999918
20
-78.4369650000000007
11
176.1230689999999868
21
-78.4369650000000007
0
LINE
8
BLACK
6
CONTINUOUS
10
166.7727789999999857
20
-95.238191999999998
11
167.0227799999999831
21
-94.805177999999998
0
LINE
8
BLACK
6
CONTINUOUS
10
196.823646999999994
20
-77.3109659999999934
11
197.8236459999999965
21
-77.3109659999999934
0
LINE
8
BLACK
6
CONTINUOUS
10
136.9470570000000009
20
-97.3602029999999985
11
136.4470570000000009
21
-98.2262289999999894
0
LINE
8
BLACK
6
CONTINUOUS
10
185.2675610000000006
20
-84.5755410000000012
11
185.4985029999999995
21
-84.9755409999999927
0
LINE
8
BLACK
6
CONTINUOUS
10
176.8730679999999893
20
-79.7360029999999966
11
177.3730679999999893
21
-78.8699780000000032
0
LINE
8
BLACK
6
CONTINUOUS
10
173.409325999999993
20
-83.7053839999999951
11
174.6347499999999968
21
-84.4128829999999937
0
LINE
8
BLACK
6
CONTINUOUS
10
186.242416999999989
20
-77.7109659999999991
11
186.242416999999989
21
-76.5832449999999909
0
LINE
8
BLACK
6
CONTINUOUS
10
181.2199999999999989
20
-72.1599999999999966
11
182.7611430000000041
21
-73.0497999999999905
0
LINE
8
BLACK
6
CONTINUOUS
10
170.947923000000003
20
-87.4005779999999959
11
170.947923000000003
21
-86.8375779999999935
0
LINE
8
BLACK
6
CONTINUOUS
10
153.9476339999999936
20
-105.7608159999999913
11
154.4476339999999936
21
-106.6268419999999963
0
LINE
8
BLACK
6
CONTINUOUS
10
187.3617500000000007
20
-69.0698000000000008
11
186.9782500000000027
21
-70.1045999999999907
0
LINE
8
BLACK
6
CONTINUOUS
10
139.897057999999987
20
-104.8742629999999991
11
139.897057999999987
21
-104.764803999999998
0
LINE
8
BLACK
6
CONTINUOUS
10
143.51497999999998
20
-106.9630719999999968
11
143.1222009999999898
21
-107.1898429999999962
0
LINE
8
BLACK
6
CONTINUOUS
10
139.897057999999987
20
-104.764803999999998
11
139.897057999999987
21
-104.6553459999999944
0
LINE
8
BLACK
6
CONTINUOUS
10
176.1291530000000023
20
-69.0733519999999999
11
175.8982120000000009
21
-69.4733519999999913
0
LINE
8
BLACK
6
CONTINUOUS
10
168.0473709999999983
20
-80.84848199999999
11
167.0275120000000015
21
-80.2596669999999932
0
LINE
8
BLACK
6
CONTINUOUS
10
185.0491710000000012
20
-73.0497999999999905
11
182.7611430000000041
21
-73.0497999999999905
0
LINE
8
BLACK
6
CONTINUOUS
10
139.75
20
-73.5999999999999943
11
145.
21
-73.5999999999999943
0
LINE
8
BLACK
6
CONTINUOUS
10
165.7727799999999831
20
-95.9106499999999897
11
165.7727799999999831
21
-95.8011909999999887
0
LINE
8
BLACK
6
CONTINUOUS
10
141.229422999999997
20
-106.9630719999999968
11
141.1346289999999897
21
-106.9083419999999904
0
LINE
8
BLACK
6
CONTINUOUS
10
144.84734499999999
20
-105.3278040000000004
11
143.8473459999999875
21
-105.3278040000000004
0
LINE
8
BLACK
6
CONTINUOUS
10
135.7399999999999807
20
-88.3799999999999955
11
135.7399999999999807
21
-87.8299999999999983
0
LINE
8
BLACK
6
CONTINUOUS
10
133.276061999999996
20
-106.6531789999999944
11
136.0577899999999829
21
-111.4712729999999965
0
LINE
8
BLACK
6
CONTINUOUS
10
163.3227530000000058
20
-88.3965910000000008
11
162.3619679999999903
21
-88.3965910000000008
0
LINE
8
BLACK
6
CONTINUOUS
10
154.4476339999999936
20
-106.6268419999999963
11
154.0548550000000034
21
-106.8536129999999957
0
LINE
8
BLACK
6
CONTINUOUS
10
158.1476339999999823
20
-112.1694049999999976
11
158.6476339999999823
21
-111.3033789999999925
0
LINE
8
BLACK
6
CONTINUOUS
10
190.1860739999999907
20
-75.7304290000000009
11
190.2808670000000006
21
-75.7851579999999956
0
LINE
8
BLACK
6
CONTINUOUS
10
145.0782849999999939
20
-104.9278049999999922
11
144.84734499999999
21
-105.3278040000000004
0
LINE
8
BLACK
6
CONTINUOUS
10
155.422489999999982
20
-113.1654179999999883
11
156.4224889999999846
21
-113.1654179999999883
0
LINE
8
BLACK
6
CONTINUOUS
10
165.7727799999999831
20
-95.6917329999999993
11
165.7727779999999882
21
-95.2381910000000005
0
LINE
8
BLACK
6
CONTINUOUS
10
134.5699999999999932
20
-105.3299999999999983
11
134.039999999999992
21
-105.3299999999999983
0
LINE
8
BLACK
6
CONTINUOUS
10
171.9479220000000055
20
-86.2745790000000028
11
172.1979220000000055
21
-85.8415650000000028
0
LINE
8
BLACK
6
CONTINUOUS
10
149.1534809999999993
20
-88.1342049999999944
11
149.1531819999999868
21
-86.4369269999999972
0
LINE
8
BLACK
6
CONTINUOUS
10
174.8982129999999984
20
-69.4733509999999939
11
174.6482120000000009
21
-69.9063649999999939
0
LINE
8
BLACK
6
CONTINUOUS
10
165.7727789999999857
20
-96.364190999999991
11
165.7727799999999831
21
-95.9106499999999897
0
LINE
8
BLACK
6
CONTINUOUS
10
145.0999999999999943
20
-113.1172679999999957
11
145.0999999999999943
21
-112.2711319999999944
0
LINE
8
BLACK
6
CONTINUOUS
10
154.1976329999999962
20
-105.3278040000000004
11
153.9476339999999936
21
-105.7608159999999913
0
LINE
8
BLACK
6
CONTINUOUS
10
197.8236459999999965
20
-77.3109659999999934
11
198.0736459999999965
21
-76.8779540000000026
0
LINE
8
BLACK
6
CONTINUOUS
10
133.5319450000000074
20
-102.4753489999999942
11
134.5699999999999932
21
-103.0746699999999976
0
LINE
8
BLACK
6
CONTINUOUS
10
160.37277899999998
20
-95.9106489999999923
11
160.3727779999999825
21
-96.364190999999991
0
LINE
8
BLACK
6
CONTINUOUS
10
138.8100000000000023
20
-97.4799999999999898
11
138.9173899999999833
21
-97.6660040000000009
0
LINE
8
BLACK
6
CONTINUOUS
10
155.1915500000000065
20
-113.565417999999994
11
155.422489999999982
21
-113.1654179999999883
0
LINE
8
BLACK
6
CONTINUOUS
10
197.8045860000000005
20
-80.1360030000000023
11
197.5736459999999965
21
-79.7360039999999941
0
LINE
8
BLACK
6
CONTINUOUS
10
152.9724889999999959
20
-106.3238169999999911
11
152.4724889999999959
21
-106.3238169999999911
0
LINE
8
BLACK
6
CONTINUOUS
10
163.1846400000000017
20
-101.7399999999999949
11
162.718986000000001
21
-101.7399999999999949
0
ARC
8
BLACK
10
139.8305000000000007
20
-75.5305000000000035
40
1.9321776574632055
50
92.38779577
51
177.61220423
0
LINE
8
BLACK
6
CONTINUOUS
10
167.2457369999999912
20
-97.1833829999999921
11
166.7727779999999882
21
-96.3641930000000002
0
LINE
8
BLACK
6
CONTINUOUS
10
197.573646999999994
20
-76.011927
11
197.8045860000000005
21
-75.6119279999999918
0
LINE
8
BLACK
6
CONTINUOUS
10
143.59734499999999
20
-105.7608169999999888
11
144.0973439999999925
21
-106.6268409999999989
0
ARC
8
BLACK
10
144.9350000000000023
20
-75.5155999999999921
40
1.9167024703902271
50
2.38744737
51
88.05658941
0
LINE
8
BLACK
6
CONTINUOUS
10
150.0418769999999995
20
-104.9278039999999947
11
145.0782849999999939
21
-104.9278039999999947
0
LINE
8
BLACK
6
CONTINUOUS
10
156.672489999999982
20
-112.7324059999999974
11
156.172489999999982
21
-111.8663789999999949
0
LINE
8
BLACK
6
CONTINUOUS
10
171.947923000000003
20
-87.4005779999999959
11
170.947923000000003
21
-87.4005779999999959
0
LINE
8
BLACK
6
CONTINUOUS
10
153.9600619999999935
20
-106.9083419999999904
11
153.8652689999999836
21
-106.9630709999999993
0
LINE
8
BLACK
6
CONTINUOUS
10
157.6476339999999823
20
-97.3602029999999985
11
157.1476339999999823
21
-98.2262289999999894
0
LINE
8
BLACK
6
CONTINUOUS
10
152.4724889999999959
20
-106.3238169999999911
11
152.005266000000006
21
-107.1330699999999894
0
LINE
8
BLACK
6
CONTINUOUS
10
165.7727779999999882
20
-95.2381910000000005
11
166.7727789999999857
21
-95.238191999999998
0
ARC
8
BLACK
10
147.4660999999999831
20
-83.3297999999999917
40
0.4999415198640737
50
-125.29001290
51
-69.64470158
0
LINE
8
BLACK
6
CONTINUOUS
10
154.0548550000000034
20
-106.8536129999999957
11
153.9600619999999935
21
-106.9083419999999904
0
LINE
8
BLACK
6
CONTINUOUS
10
141.1346289999999897
20
-102.6212659999999914
11
141.2294210000000021
21
-102.5665379999999942
0
LINE
8
BLACK
6
CONTINUOUS
10
169.7230669999999861
20
-78.4369659999999982
11
169.4730669999999861
21
-78.8699780000000032
0
LINE
8
BLACK
6
CONTINUOUS
10
134.9199999999999875
20
-82.7999999999999972
11
121.3999999999999915
21
-82.7999999999999972
0
LINE
8
BLACK
6
CONTINUOUS
10
143.1221999999999923
20
-102.3397659999999973
11
143.5840809999999976
21
-102.3397659999999973
0
LINE
8
BLACK
6
CONTINUOUS
10
188.2006539999999859
20
-75.4526570000000021
11
188.6985009999999932
21
-76.3149530000000027
0
LINE
8
BLACK
6
CONTINUOUS
10
181.0733569999999872
20
-77.3109659999999934
11
181.3042969999999912
21
-77.7109659999999991
0
ARC
8
BLACK
10
140.6999999999999886
20
-75.2249999999999943
40
0.2
50
0.00000000
51
180.00000000
0
LINE
8
BLACK
6
CONTINUOUS
10
190.6736459999999909
20
-76.011928999999995
11
190.1736459999999909
21
-76.8779529999999909
0
LINE
8
BLACK
6
CONTINUOUS
10
159.2299999999999898
20
-97.8900000000000006
11
159.1352049999999849
21
-97.9447289999999953
0
LINE
8
BLACK
6
CONTINUOUS
10
177.8482119999999895
20
-75.4489289999999926
11
178.348212999999987
21
-76.3149530000000027
0
LINE
8
BLACK
6
CONTINUOUS
10
139.897057999999987
20
-104.6553459999999944
11
139.897057999999987
21
-104.2018039999999957
0
LINE
8
BLACK
6
CONTINUOUS
10
160.37277899999998
20
-95.2399999999999949
11
160.37277899999998
21
-95.6917329999999993
0
LINE
8
BLACK
6
CONTINUOUS
10
159.37277899999998
20
-96.364190999999991
11
159.1227779999999825
21
-96.7972029999999961
0
LINE
8
BLACK
6
CONTINUOUS
10
143.6097729999999899
20
-106.9083419999999904
11
143.51497999999998
21
-106.9630700000000019
0
LINE
8
BLACK
6
CONTINUOUS
10
177.1040079999999932
20
-80.1360030000000023
11
176.8730679999999893
21
-79.7360029999999966
0
LINE
8
BLACK
6
CONTINUOUS
10
181.3042969999999912
20
-77.7109659999999991
11
186.242416999999989
21
-77.7109659999999991
0
LINE
8
BLACK
6
CONTINUOUS
10
197.8236459999999965
20
-78.4369659999999982
11
196.823646999999994
21
-78.4369659999999982
0
LINE
8
BLACK
6
CONTINUOUS
10
163.6953359999999975
20
-89.0419219999999996
11
163.3227530000000058
21
-88.3965910000000008
0
LINE
8
BLACK
6
CONTINUOUS
10
181.2199999999999989
20
-70.0098150000000032
11
181.2199999999999989
21
-72.1599999999999966
0
LINE
8
BLACK
6
CONTINUOUS
10
172.197923000000003
20
-87.8335909999999984
11
171.947923000000003
21
-87.4005779999999959
0
LINE
8
BLACK
6
CONTINUOUS
10
141.0398359999999798
20
-102.6759959999999978
11
141.1346269999999947
21
-102.6212680000000006
0
LINE
8
BLACK
6
CONTINUOUS
10
142.1222009999999898
20
-106.3238169999999911
11
141.6222019999999873
21
-107.1898419999999987
0
LINE
8
BLACK
6
CONTINUOUS
10
143.8473459999999875
20
-105.3278040000000004
11
143.59734499999999
21
-105.7608169999999888
0
LINE
8
BLACK
6
CONTINUOUS
10
143.9000000000000057
20
-78.7749999999999915
11
143.9000000000000057
21
-75.2249999999999943
0
LINE
8
BLACK
6
CONTINUOUS
10
186.2485029999999995
20
-86.2745790000000028
11
186.4794430000000034
21
-86.6745779999999968
0
LINE
8
BLACK
6
CONTINUOUS
10
198.0736459999999965
20
-78.8699780000000032
11
197.8236459999999965
21
-78.4369659999999982
0
LINE
8
BLACK
6
CONTINUOUS
10
176.8730679999999893
20
-76.011927
11
177.265845999999982
21
-75.7851569999999981
0
LINE
8
BLACK
6
CONTINUOUS
10
179.8233569999999872
20
-76.8779529999999909
11
180.0733569999999872
21
-77.3109659999999934
0
LINE
8
BLACK
6
CONTINUOUS
10
190.2808670000000006
20
-75.7851579999999956
11
190.6736459999999909
21
-76.011928999999995
0
LINE
8
BLACK
6
CONTINUOUS
10
141.1346289999999897
20
-106.9083419999999904
11
141.0398349999999823
21
-106.8536129999999957
0
LINE
8
BLACK
6
CONTINUOUS
10
150.9699980000000039
20
-106.5353580000000022
11
152.0052649999999801
21
-107.1330699999999894
0
LINE
8
BLACK
6
CONTINUOUS
10
156.172489999999982
20
-111.8663789999999949
11
156.5652690000000007
21
-111.639608999999993
0
LINE
8
BLACK
6
CONTINUOUS
10
191.3485039999999913
20
-69.0698000000000008
11
187.3617500000000007
21
-69.0698000000000008
0
LINE
8
BLACK
6
CONTINUOUS
10
170.7230679999999836
20
-76.1782749999999993
11
170.7230679999999836
21
-77.8739669999999933
0
LINE
8
BLACK
6
CONTINUOUS
10
153.4724889999999959
20
-107.1898410000000013
11
152.9724889999999959
21
-106.3238169999999911
0
LINE
8
BLACK
6
CONTINUOUS
10
142.1221999999999923
20
-103.2057909999999907
11
142.6222009999999898
21
-103.2057909999999907
0
LINE
8
BLACK
6
CONTINUOUS
10
143.7045669999999973
20
-106.8536129999999957
11
143.6097739999999874
21
-106.908340999999993
0
LINE
8
BLACK
6
CONTINUOUS
10
139.897057999999987
20
-104.2018039999999957
11
140.8970569999999896
21
-104.2018039999999957
0
LINE
8
BLACK
6
CONTINUOUS
10
159.6227779999999825
20
-97.6632299999999987
11
159.2299999999999898
21
-97.8900000000000006
0
LINE
8
BLACK
6
CONTINUOUS
10
145.0999999999999943
20
-112.2711319999999944
11
147.5367719999999849
21
-110.8642609999999991
0
LINE
8
BLACK
6
CONTINUOUS
10
167.0275120000000015
20
-80.2596669999999932
11
164.5108109999999897
21
-84.6187230000000028
0
LINE
8
BLACK
6
CONTINUOUS
10
153.9476339999999936
20
-103.7687909999999931
11
154.1976339999999936
21
-104.2018039999999957
0
LINE
8
BLACK
6
CONTINUOUS
10
177.1230669999999918
20
-77.3109680000000026
11
177.3730679999999893
21
-76.8779519999999934
0
LINE
8
BLACK
6
CONTINUOUS
10
145.9069010000000048
20
-97.5165209999999973
11
145.9069010000000048
21
-96.6641910000000024
0
LINE
8
BLACK
6
CONTINUOUS
10
149.1531819999999868
20
-86.4369269999999972
11
152.7435639999999921
21
-85.1026449999999954
0
LINE
8
BLACK
6
CONTINUOUS
10
167.0227799999999831
20
-94.805177999999998
11
166.5227789999999857
21
-93.9391519999999929
0
LINE
8
BLACK
6
CONTINUOUS
10
134.5699999999999932
20
-103.0746699999999976
11
134.5699999999999932
21
-105.3299999999999983
0
LINE
8
BLACK
6
CONTINUOUS
10
185.248502000000002
20
-86.2745790000000028
11
186.2485029999999995
21
-86.2745790000000028
0
LINE
8
BLACK
6
CONTINUOUS
10
144.0973439999999925
20
-106.6268409999999989
11
143.7045669999999973
21
-106.8536110000000008
0
LINE
8
BLACK
6
CONTINUOUS
10
158.6476339999999823
20
-111.3033789999999925
11
159.1095149999999876
21
-111.3033810000000017
0
LINE
8
BLACK
6
CONTINUOUS
10
143.1222009999999898
20
-107.1898429999999962
11
142.6222009999999898
21
-106.3238169999999911
0
LINE
8
BLACK
6
CONTINUOUS
10
159.1352049999999849
20
-97.9447289999999953
11
159.0404130000000009
21
-97.9994590000000017
0
LINE
8
BLACK
6
CONTINUOUS
10
186.4794430000000034
20
-86.6745789999999943
11
191.3175609999999836
21
-86.6745789999999943
0
LINE
8
BLACK
6
CONTINUOUS
10
159.2161529999999914
20
-93.8452999999999946
11
160.0213839999999834
21
-95.2399999999999949
0
LINE
8
BLACK
6
CONTINUOUS
10
198.0736459999999965
20
-76.8779540000000026
11
197.573646999999994
21
-76.011927
0
LINE
8
BLACK
6
CONTINUOUS
10
174.6482120000000009
20
-69.9063649999999939
11
175.3621679999999969
21
-71.1429739999999953
0
LINE
8
BLACK
6
CONTINUOUS
10
197.8045860000000005
20
-75.6119279999999918
11
195.4229229999999973
21
-71.4867649999999912
0
LINE
8
BLACK
6
CONTINUOUS
10
169.9733599999999853
20
-79.7365119999999905
11
168.0473709999999983
21
-80.84848199999999
0
LINE
8
BLACK
6
CONTINUOUS
10
178.848212999999987
20
-76.3149530000000027
11
179.3482119999999895
21
-75.4489269999999976
0
LINE
8
BLACK
6
CONTINUOUS
10
167.9979229999999859
20
-94.2421779999999956
11
168.4979249999999809
21
-94.2421779999999956
0
LINE
8
BLACK
6
CONTINUOUS
10
151.6999999999999886
20
-82.289999999999992
11
147.6399999999999864
21
-83.7985219999999913
0
LINE
8
BLACK
6
CONTINUOUS
10
176.1230679999999893
20
-77.8739659999999958
11
176.1230679999999893
21
-77.3109680000000026
0
LINE
8
BLACK
6
CONTINUOUS
10
168.4979249999999809
20
-94.2421779999999956
11
168.9310669999999845
21
-94.2421779999999956
0
LINE
8
BLACK
6
CONTINUOUS
10
136.4470570000000009
20
-98.2262289999999894
11
135.9851759999999956
21
-98.2262289999999894
0
LINE
8
BLACK
6
CONTINUOUS
10
177.3730679999999893
20
-76.8779519999999934
11
176.8730679999999893
21
-76.011927
0
LINE
8
BLACK
6
CONTINUOUS
10
145.822197999999986
20
-97.6632299999999987
11
145.9069010000000048
21
-97.5165209999999973
0
LINE
8
BLACK
6
CONTINUOUS
10
137.9470579999999984
20
-98.2262289999999894
11
137.4470570000000009
21
-97.3602029999999985
0
LINE
8
BLACK
6
CONTINUOUS
10
121.3999999999999915
20
-82.7999999999999972
11
121.3999999999999915
21
-90.3299999999999983
0
LINE
8
BLACK
6
CONTINUOUS
10
186.242416999999989
20
-76.5832449999999909
11
188.2006539999999859
21
-75.4526570000000021
0
LINE
8
BLACK
6
CONTINUOUS
10
157.1476339999999823
20
-98.2262289999999894
11
156.6857540000000029
21
-98.2262289999999894
0
LINE
8
BLACK
6
CONTINUOUS
10
140.9000000000000057
20
-75.2249999999999943
11
140.9000000000000057
21
-78.7749999999999915
0
LINE
8
BLACK
6
CONTINUOUS
10
179.8357849999999871
20
-75.7304280000000034
11
180.3233569999999872
21
-76.0119279999999975
0
LINE
8
BLACK
6
CONTINUOUS
10
185.4985029999999995
20
-84.9755409999999927
11
184.998502000000002
21
-85.8415660000000003
0
LINE
8
BLACK
6
CONTINUOUS
10
140.1500000000000057
20
-113.565417999999994
11
144.8412600000000054
21
-113.565417999999994
0
LINE
8
BLACK
6
CONTINUOUS
10
191.4236469999999883
20
-77.3109669999999909
11
191.4236469999999883
21
-77.8739659999999958
0
LINE
8
BLACK
6
CONTINUOUS
10
140.8970569999999896
20
-105.3278040000000004
11
139.8970569999999896
21
-105.3278040000000004
0
LINE
8
BLACK
6
CONTINUOUS
10
160.37277899999998
20
-95.8011899999999912
11
160.37277899999998
21
-95.9106489999999923
0
LINE
8
BLACK
6
CONTINUOUS
10
141.1470569999999896
20
-103.7687909999999931
11
140.6470559999999921
21
-102.9027639999999906
0
LINE
8
BLACK
6
CONTINUOUS
10
160.3727779999999825
20
-96.364190999999991
11
159.37277899999998
21
-96.364190999999991
0
LINE
8
BLACK
6
CONTINUOUS
10
141.0398349999999823
20
-106.8536129999999957
11
140.6470559999999921
21
-106.6268419999999963
0
LINE
8
BLACK
6
CONTINUOUS
10
180.3233569999999872
20
-76.0119279999999975
11
179.8233569999999872
21
-76.8779529999999909
0
LINE
8
BLACK
6
CONTINUOUS
10
160.0213839999999834
20
-95.2399999999999949
11
160.37277899999998
21
-95.2399999999999949
0
LINE
8
BLACK
6
CONTINUOUS
10
150.0418769999999995
20
-104.9278039999999947
11
150.9699980000000039
21
-106.5353580000000022
0
LINE
8
BLACK
6
CONTINUOUS
10
195.4034839999999917
20
-84.2948319999999995
11
197.804585000000003
21
-80.1360039999999998
0
LINE
8
BLACK
6
CONTINUOUS
10
144.8412600000000054
20
-113.565417999999994
11
145.0999999999999943
21
-113.1172679999999957
0
LINE
8
BLACK
6
CONTINUOUS
10
147.1772579999999948
20
-83.7378969999999896
11
145.7834809999999948
21
-82.7506049999999931
  0
ENDSEC
  0
EOF
