  0
SECTION
  2
HEADER
  9
$ANGBASE
  50
0.0
  9
$ANGDIR
  70
1
  9
$MEASUREMENT
  70
1
  0
ENDSEC
  0
SECTION
  2
TABLES
  0
TABLE
  2
LTYPE
  70
4
  0
LTYPE
  5
40F
  2
CONTINUOUS
  70
0
  3
Solid line
  72
65
  73
0
  40
0.0
  0
LTYPE
  5
410
  2
DASHDOT
 70
0
  3
Dash Dot ____ _ ____ _
 72
65
 73
4
 40
2.0
 49
1.25
 49
-0.25
 49
0.25
 49
-0.25
  0
LTYPE
  5
411
  2
DASHED
 70
0
  3
Dashed __ __ __ __ __
 72
65
 73
2
 40
0.75
 49
0.5
 49
-0.25
  0
LTYPE
  5
43B
  2
DOTTED
 70
0
  3
Dotted .  .  .  .
 72
65
 73
2
 40
0.2
 49
0.0
 49
-0.2
  0
ENDTAB
  0
TABLE
  2
STYLE
  70
4
  0
STYLE
  2
KICAD
  70
0
  40
0
  41
1
  42
1
  50
0
  71
0
  3
isocp.shx
  0
STYLE
  2
KICADB
  70
0
  40
0
  41
1
  42
1
  50
0
  71
0
  3
isocp.shx
  0
STYLE
  2
KICADI
  70
0
  40
0
  41
1
  42
1
  50
15
  71
0
  3
isocp.shx
  0
STYLE
  2
KICADBI
  70
0
  40
0
  41
1
  42
1
  50
15
  71
0
  3
isocp.shx
  0
ENDTAB
  0
TABLE
  2
LAYER
  70
1
  0
LAYER
  2
BLACK
  70
0
  62
7
  6
CONTINUOUS
  0
ENDTAB
  0
ENDSEC
  0
SECTION
  2
ENTITIES
0
LINE
8
BLACK
6
CONTINUOUS
10
144.2478619999999978
20
-80.0398229999999984
11
144.3143570000000011
21
-80.0487529999999907
0
LINE
8
BLACK
6
CONTINUOUS
10
144.3143570000000011
20
-80.0487529999999907
11
144.3736810000000048
21
-80.0643799999999999
0
LINE
8
BLACK
6
CONTINUOUS
10
144.3736810000000048
20
-80.0643799999999999
11
144.4338269999999795
21
-80.091077999999996
0
LINE
8
BLACK
6
CONTINUOUS
10
144.4338269999999795
20
-80.091077999999996
11
144.4842129999999827
21
-80.1268910000000005
0
LINE
8
BLACK
6
CONTINUOUS
10
144.4842129999999827
20
-80.1268910000000005
11
144.4906139999999937
21
-80.1327519999999964
0
LINE
8
BLACK
6
CONTINUOUS
10
144.4906139999999937
20
-80.1327519999999964
11
144.5300139999999942
21
-80.1782690000000002
0
LINE
8
BLACK
6
CONTINUOUS
10
144.5300139999999942
20
-80.1782690000000002
11
144.5597359999999867
21
-80.2314709999999991
0
LINE
8
BLACK
6
CONTINUOUS
10
144.5597359999999867
20
-80.2314709999999991
11
144.5797819999999945
21
-80.2923589999999905
0
LINE
8
BLACK
6
CONTINUOUS
10
144.5797819999999945
20
-80.2923589999999905
11
144.5892619999999908
21
-80.3506659999999897
0
LINE
8
BLACK
6
CONTINUOUS
10
144.5892619999999908
20
-80.3506659999999897
11
144.5917299999999841
21
-80.4035679999999928
0
LINE
8
BLACK
6
CONTINUOUS
10
144.5917299999999841
20
-80.4035679999999928
11
144.5878559999999879
21
-80.468599999999995
0
LINE
8
BLACK
6
CONTINUOUS
10
144.5878559999999879
20
-80.468599999999995
11
144.576233000000002
21
-80.5280679999999904
0
LINE
8
BLACK
6
CONTINUOUS
10
144.576233000000002
20
-80.5280679999999904
11
144.5528799999999876
21
-80.590414999999993
0
LINE
8
BLACK
6
CONTINUOUS
10
144.5528799999999876
20
-80.590414999999993
11
144.5189799999999991
21
-80.6451879999999903
0
LINE
8
BLACK
6
CONTINUOUS
10
144.5189799999999991
20
-80.6451879999999903
11
144.4815279999999973
21
-80.6861079999999902
0
LINE
8
BLACK
6
CONTINUOUS
10
144.4815279999999973
20
-80.6861079999999902
11
144.4278889999999933
21
-80.7257369999999952
0
LINE
8
BLACK
6
CONTINUOUS
10
144.4278889999999933
20
-80.7257369999999952
11
144.3730720000000076
21
-80.7519569999999902
0
LINE
8
BLACK
6
CONTINUOUS
10
144.3730720000000076
20
-80.7519569999999902
11
144.3100939999999923
21
-80.771025999999992
0
LINE
8
BLACK
6
CONTINUOUS
10
144.3100939999999923
20
-80.771025999999992
11
144.2513779999999883
21
-80.781454999999994
0
LINE
8
BLACK
6
CONTINUOUS
10
144.2513779999999883
20
-80.781454999999994
11
144.186994999999996
21
-80.7869170000000025
0
LINE
8
BLACK
6
CONTINUOUS
10
144.186994999999996
20
-80.7869170000000025
11
144.1456450000000018
21
-80.7878109999999907
0
LINE
8
BLACK
6
CONTINUOUS
10
144.1456450000000018
20
-80.7878109999999907
11
143.9413610000000006
21
-80.7878109999999907
0
LINE
8
BLACK
6
CONTINUOUS
10
143.9413610000000006
20
-80.7878109999999907
11
143.9413610000000006
21
-81.2379999999999995
0
LINE
8
BLACK
6
CONTINUOUS
10
143.9413610000000006
20
-81.2379999999999995
11
143.566203999999999
21
-81.2379999999999995
0
LINE
8
BLACK
6
CONTINUOUS
10
143.566203999999999
20
-81.2379999999999995
11
143.566203999999999
21
-80.543959000000001
0
LINE
8
BLACK
6
CONTINUOUS
10
143.566203999999999
20
-80.543959000000001
11
143.9413610000000006
21
-80.543959000000001
0
LINE
8
BLACK
6
CONTINUOUS
10
143.9413610000000006
20
-80.543959000000001
11
144.0328049999999962
21
-80.543959000000001
0
LINE
8
BLACK
6
CONTINUOUS
10
144.0328049999999962
20
-80.543959000000001
11
144.0941019999999924
21
-80.5404099999999943
0
LINE
8
BLACK
6
CONTINUOUS
10
144.0941019999999924
20
-80.5404099999999943
11
144.1549609999999859
21
-80.5251839999999959
0
LINE
8
BLACK
6
CONTINUOUS
10
144.1549609999999859
20
-80.5251839999999959
11
144.1846259999999802
21
-80.5076159999999987
0
LINE
8
BLACK
6
CONTINUOUS
10
144.1846259999999802
20
-80.5076159999999987
11
144.2199379999999849
21
-80.4599079999999987
0
LINE
8
BLACK
6
CONTINUOUS
10
144.2199379999999849
20
-80.4599079999999987
11
144.2282969999999978
21
-80.4138260000000002
0
LINE
8
BLACK
6
CONTINUOUS
10
144.2282969999999978
20
-80.4138260000000002
11
144.2148650000000032
21
-80.3540390000000002
0
LINE
8
BLACK
6
CONTINUOUS
10
144.2148650000000032
20
-80.3540390000000002
11
144.1901949999999886
21
-80.3200369999999992
0
LINE
8
BLACK
6
CONTINUOUS
10
144.1901949999999886
20
-80.3200369999999992
11
144.1356799999999794
21
-80.2910210000000006
0
LINE
8
BLACK
6
CONTINUOUS
10
144.1356799999999794
20
-80.2910210000000006
11
144.0728670000000022
21
-80.2819539999999989
0
LINE
8
BLACK
6
CONTINUOUS
10
144.0728670000000022
20
-80.2819539999999989
11
144.0477530000000002
21
-80.2813489999999916
0
LINE
8
BLACK
6
CONTINUOUS
10
144.0477530000000002
20
-80.2813489999999916
11
143.9413610000000006
21
-80.2813489999999916
0
LINE
8
BLACK
6
CONTINUOUS
10
143.9413610000000006
20
-80.2813489999999916
11
143.9413610000000006
21
-80.543959000000001
0
LINE
8
BLACK
6
CONTINUOUS
10
143.9413610000000006
20
-80.543959000000001
11
143.566203999999999
21
-80.543959000000001
0
LINE
8
BLACK
6
CONTINUOUS
10
143.566203999999999
20
-80.543959000000001
11
143.566203999999999
21
-80.0374970000000019
0
LINE
8
BLACK
6
CONTINUOUS
10
143.566203999999999
20
-80.0374970000000019
11
144.1869709999999998
21
-80.0374970000000019
0
LINE
8
BLACK
6
CONTINUOUS
10
144.1869709999999998
20
-80.0374970000000019
11
144.2478619999999978
21
-80.0398229999999984
0
LINE
8
BLACK
6
CONTINUOUS
10
144.6937259999999981
20
-80.6565059999999932
11
145.1817230000000052
21
-80.6565059999999932
0
LINE
8
BLACK
6
CONTINUOUS
10
145.1817230000000052
20
-80.6565059999999932
11
145.1817230000000052
21
-80.9191160000000025
0
LINE
8
BLACK
6
CONTINUOUS
10
145.1817230000000052
20
-80.9191160000000025
11
144.6937259999999981
21
-80.9191160000000025
0
LINE
8
BLACK
6
CONTINUOUS
10
144.6937259999999981
20
-80.9191160000000025
11
144.6937259999999981
21
-80.6565059999999932
0
LINE
8
BLACK
6
CONTINUOUS
10
135.3643659999999898
20
-83.6685700000000026
11
135.3643659999999898
21
-84.0495229999999935
0
LINE
8
BLACK
6
CONTINUOUS
10
135.3643659999999898
20
-84.2876179999999948
11
135.3643659999999898
21
-84.668571
0
LINE
8
BLACK
6
CONTINUOUS
10
135.2215089999999975
20
-85.19238
11
135.1976999999999975
21
-85.168571
0
LINE
8
BLACK
6
CONTINUOUS
10
135.1976999999999975
20
-85.168571
11
135.1738900000000001
21
-85.097141999999991
0
LINE
8
BLACK
6
CONTINUOUS
10
135.1738900000000001
20
-85.097141999999991
11
135.1738900000000001
21
-85.0495229999999935
0
LINE
8
BLACK
6
CONTINUOUS
10
135.1738900000000001
20
-85.0495229999999935
11
135.1976999999999975
21
-84.9780949999999962
0
LINE
8
BLACK
6
CONTINUOUS
10
135.1976999999999975
20
-84.9780949999999962
11
135.245318999999995
21
-84.9304759999999987
0
LINE
8
BLACK
6
CONTINUOUS
10
135.245318999999995
20
-84.9304759999999987
11
135.2929379999999924
21
-84.9066660000000013
0
LINE
8
BLACK
6
CONTINUOUS
10
135.2929379999999924
20
-84.9066660000000013
11
135.3881759999999872
21
-84.8828570000000013
0
LINE
8
BLACK
6
CONTINUOUS
10
135.3881759999999872
20
-84.8828570000000013
11
135.4596039999999846
21
-84.8828570000000013
0
LINE
8
BLACK
6
CONTINUOUS
10
135.4596039999999846
20
-84.8828570000000013
11
135.5548420000000078
21
-84.9066660000000013
0
LINE
8
BLACK
6
CONTINUOUS
10
135.5548420000000078
20
-84.9066660000000013
11
135.6024610000000052
21
-84.9304759999999987
0
LINE
8
BLACK
6
CONTINUOUS
10
135.6024610000000052
20
-84.9304759999999987
11
135.6500800000000027
21
-84.9780949999999962
0
LINE
8
BLACK
6
CONTINUOUS
10
135.6500800000000027
20
-84.9780949999999962
11
135.6738900000000001
21
-85.0495229999999935
0
LINE
8
BLACK
6
CONTINUOUS
10
135.6738900000000001
20
-85.0495229999999935
11
135.6738900000000001
21
-85.097141999999991
0
LINE
8
BLACK
6
CONTINUOUS
10
135.6738900000000001
20
-85.097141999999991
11
135.6500800000000027
21
-85.168571
0
LINE
8
BLACK
6
CONTINUOUS
10
135.6500800000000027
20
-85.168571
11
135.6262710000000027
21
-85.19238
0
LINE
8
BLACK
6
CONTINUOUS
10
135.6738900000000001
20
-85.4066660000000013
11
135.2691279999999949
21
-85.4066660000000013
0
LINE
8
BLACK
6
CONTINUOUS
10
135.2691279999999949
20
-85.4066660000000013
11
135.2215089999999975
21
-85.4304759999999987
0
LINE
8
BLACK
6
CONTINUOUS
10
135.2215089999999975
20
-85.4304759999999987
11
135.1976999999999975
21
-85.4542849999999987
0
LINE
8
BLACK
6
CONTINUOUS
10
135.1976999999999975
20
-85.4542849999999987
11
135.1738900000000001
21
-85.5019039999999961
0
LINE
8
BLACK
6
CONTINUOUS
10
135.1738900000000001
20
-85.5019039999999961
11
135.1738900000000001
21
-85.597141999999991
0
LINE
8
BLACK
6
CONTINUOUS
10
135.1738900000000001
20
-85.597141999999991
11
135.1976999999999975
21
-85.6447610000000026
0
LINE
8
BLACK
6
CONTINUOUS
10
135.1976999999999975
20
-85.6447610000000026
11
135.2215089999999975
21
-85.668571
0
LINE
8
BLACK
6
CONTINUOUS
10
135.2215089999999975
20
-85.668571
11
135.2691279999999949
21
-85.69238
0
LINE
8
BLACK
6
CONTINUOUS
10
135.2691279999999949
20
-85.69238
11
135.6738900000000001
21
-85.69238
0
LINE
8
BLACK
6
CONTINUOUS
10
135.6738900000000001
20
-85.8590480000000014
11
135.6738900000000001
21
-86.1447620000000001
0
LINE
8
BLACK
6
CONTINUOUS
10
135.1738900000000001
20
-86.0019049999999936
11
135.6738900000000001
21
-86.0019049999999936
0
LINE
8
BLACK
6
CONTINUOUS
10
135.3643659999999898
20
-86.3114279999999923
11
135.3643659999999898
21
-86.6923809999999975
0
LINE
8
BLACK
6
CONTINUOUS
10
135.3643659999999898
20
-86.9304759999999987
11
135.3643659999999898
21
-87.3114289999999897
0
LINE
8
BLACK
6
CONTINUOUS
10
140.0129419999999811
20
-80.0698229999999995
11
140.0794369999999844
21
-80.0787529999999919
0
LINE
8
BLACK
6
CONTINUOUS
10
140.0794369999999844
20
-80.0787529999999919
11
140.1387609999999881
21
-80.094380000000001
0
LINE
8
BLACK
6
CONTINUOUS
10
140.1387609999999881
20
-80.094380000000001
11
140.1989069999999913
21
-80.1210779999999971
0
LINE
8
BLACK
6
CONTINUOUS
10
140.1989069999999913
20
-80.1210779999999971
11
140.2492929999999944
21
-80.1568910000000017
0
LINE
8
BLACK
6
CONTINUOUS
10
140.2492929999999944
20
-80.1568910000000017
11
140.2556940000000054
21
-80.1627519999999976
0
LINE
8
BLACK
6
CONTINUOUS
10
140.2556940000000054
20
-80.1627519999999976
11
140.295094000000006
21
-80.2082690000000014
0
LINE
8
BLACK
6
CONTINUOUS
10
140.295094000000006
20
-80.2082690000000014
11
140.3248159999999984
21
-80.2614710000000002
0
LINE
8
BLACK
6
CONTINUOUS
10
140.3248159999999984
20
-80.2614710000000002
11
140.3448620000000062
21
-80.3223589999999916
0
LINE
8
BLACK
6
CONTINUOUS
10
140.3448620000000062
20
-80.3223589999999916
11
140.3543420000000026
21
-80.3806659999999908
0
LINE
8
BLACK
6
CONTINUOUS
10
140.3543420000000026
20
-80.3806659999999908
11
140.3568099999999959
21
-80.433567999999994
0
LINE
8
BLACK
6
CONTINUOUS
10
140.3568099999999959
20
-80.433567999999994
11
140.3529359999999997
21
-80.4985999999999962
0
LINE
8
BLACK
6
CONTINUOUS
10
140.3529359999999997
20
-80.4985999999999962
11
140.3413129999999853
21
-80.5580679999999916
0
LINE
8
BLACK
6
CONTINUOUS
10
140.3413129999999853
20
-80.5580679999999916
11
140.3179599999999994
21
-80.6204149999999942
0
LINE
8
BLACK
6
CONTINUOUS
10
140.3179599999999994
20
-80.6204149999999942
11
140.2840599999999824
21
-80.6751879999999915
0
LINE
8
BLACK
6
CONTINUOUS
10
140.2840599999999824
20
-80.6751879999999915
11
140.2466079999999806
21
-80.7161079999999913
0
LINE
8
BLACK
6
CONTINUOUS
10
140.2466079999999806
20
-80.7161079999999913
11
140.1929690000000051
21
-80.7557369999999963
0
LINE
8
BLACK
6
CONTINUOUS
10
140.1929690000000051
20
-80.7557369999999963
11
140.1381519999999909
21
-80.7819569999999914
0
LINE
8
BLACK
6
CONTINUOUS
10
140.1381519999999909
20
-80.7819569999999914
11
140.0751740000000041
21
-80.8010259999999931
0
LINE
8
BLACK
6
CONTINUOUS
10
140.0751740000000041
20
-80.8010259999999931
11
140.0164580000000001
21
-80.8114549999999952
0
LINE
8
BLACK
6
CONTINUOUS
10
140.0164580000000001
20
-80.8114549999999952
11
139.9520750000000078
21
-80.8169169999999895
0
LINE
8
BLACK
6
CONTINUOUS
10
139.9520750000000078
20
-80.8169169999999895
11
139.9107249999999851
21
-80.8178109999999919
0
LINE
8
BLACK
6
CONTINUOUS
10
139.9107249999999851
20
-80.8178109999999919
11
139.7064409999999839
21
-80.8178109999999919
0
LINE
8
BLACK
6
CONTINUOUS
10
139.7064409999999839
20
-80.8178109999999919
11
139.7064409999999839
21
-81.2680000000000007
0
LINE
8
BLACK
6
CONTINUOUS
10
139.7064409999999839
20
-81.2680000000000007
11
139.3312839999999824
21
-81.2680000000000007
0
LINE
8
BLACK
6
CONTINUOUS
10
139.3312839999999824
20
-81.2680000000000007
11
139.3312839999999824
21
-80.5739590000000021
0
LINE
8
BLACK
6
CONTINUOUS
10
139.3312839999999824
20
-80.5739590000000021
11
139.7064409999999839
21
-80.5739590000000021
0
LINE
8
BLACK
6
CONTINUOUS
10
139.7064409999999839
20
-80.5739590000000021
11
139.7978849999999795
21
-80.5739590000000021
0
LINE
8
BLACK
6
CONTINUOUS
10
139.7978849999999795
20
-80.5739590000000021
11
139.8591820000000041
21
-80.5704099999999954
0
LINE
8
BLACK
6
CONTINUOUS
10
139.8591820000000041
20
-80.5704099999999954
11
139.9200409999999977
21
-80.555183999999997
0
LINE
8
BLACK
6
CONTINUOUS
10
139.9200409999999977
20
-80.555183999999997
11
139.9497059999999919
21
-80.5376159999999999
0
LINE
8
BLACK
6
CONTINUOUS
10
139.9497059999999919
20
-80.5376159999999999
11
139.9850179999999966
21
-80.4899079999999998
0
LINE
8
BLACK
6
CONTINUOUS
10
139.9850179999999966
20
-80.4899079999999998
11
139.9933769999999811
21
-80.4438260000000014
0
LINE
8
BLACK
6
CONTINUOUS
10
139.9933769999999811
20
-80.4438260000000014
11
139.9799449999999865
21
-80.3840390000000014
0
LINE
8
BLACK
6
CONTINUOUS
10
139.9799449999999865
20
-80.3840390000000014
11
139.9552750000000003
21
-80.3500370000000004
0
LINE
8
BLACK
6
CONTINUOUS
10
139.9552750000000003
20
-80.3500370000000004
11
139.9007599999999911
21
-80.3210210000000018
0
LINE
8
BLACK
6
CONTINUOUS
10
139.9007599999999911
20
-80.3210210000000018
11
139.8379469999999856
21
-80.3119540000000001
0
LINE
8
BLACK
6
CONTINUOUS
10
139.8379469999999856
20
-80.3119540000000001
11
139.8128329999999835
21
-80.3113489999999928
0
LINE
8
BLACK
6
CONTINUOUS
10
139.8128329999999835
20
-80.3113489999999928
11
139.7064409999999839
21
-80.3113489999999928
0
LINE
8
BLACK
6
CONTINUOUS
10
139.7064409999999839
20
-80.3113489999999928
11
139.7064409999999839
21
-80.5739590000000021
0
LINE
8
BLACK
6
CONTINUOUS
10
139.7064409999999839
20
-80.5739590000000021
11
139.3312839999999824
21
-80.5739590000000021
0
LINE
8
BLACK
6
CONTINUOUS
10
139.3312839999999824
20
-80.5739590000000021
11
139.3312839999999824
21
-80.067497000000003
0
LINE
8
BLACK
6
CONTINUOUS
10
139.3312839999999824
20
-80.067497000000003
11
139.9520509999999831
21
-80.067497000000003
0
LINE
8
BLACK
6
CONTINUOUS
10
139.9520509999999831
20
-80.067497000000003
11
140.0129419999999811
21
-80.0698229999999995
0
LINE
8
BLACK
6
CONTINUOUS
10
140.5262170000000026
20
-80.5364429999999913
11
140.8418769999999824
21
-80.5364429999999913
0
LINE
8
BLACK
6
CONTINUOUS
10
140.8418769999999824
20
-80.5364429999999913
11
140.8418769999999824
21
-80.2175599999999918
0
LINE
8
BLACK
6
CONTINUOUS
10
140.8418769999999824
20
-80.2175599999999918
11
141.1082969999999932
21
-80.2175599999999918
0
LINE
8
BLACK
6
CONTINUOUS
10
141.1082969999999932
20
-80.2175599999999918
11
141.1082969999999932
21
-80.5364429999999913
0
LINE
8
BLACK
6
CONTINUOUS
10
141.1082969999999932
20
-80.5364429999999913
11
141.4257149999999967
21
-80.5364429999999913
0
LINE
8
BLACK
6
CONTINUOUS
10
141.4257149999999967
20
-80.5364429999999913
11
141.4257149999999967
21
-80.7990530000000007
0
LINE
8
BLACK
6
CONTINUOUS
10
141.4257149999999967
20
-80.7990530000000007
11
141.1082969999999932
21
-80.7990530000000007
0
LINE
8
BLACK
6
CONTINUOUS
10
141.1082969999999932
20
-80.7990530000000007
11
141.1082969999999932
21
-81.1179369999999977
0
LINE
8
BLACK
6
CONTINUOUS
10
141.1082969999999932
20
-81.1179369999999977
11
140.8418769999999824
21
-81.1179369999999977
0
LINE
8
BLACK
6
CONTINUOUS
10
140.8418769999999824
20
-81.1179369999999977
11
140.8418769999999824
21
-80.7990530000000007
0
LINE
8
BLACK
6
CONTINUOUS
10
140.8418769999999824
20
-80.7990530000000007
11
140.5262170000000026
21
-80.7990530000000007
0
LINE
8
BLACK
6
CONTINUOUS
10
140.5262170000000026
20
-80.7990530000000007
11
140.5262170000000026
21
-80.5364429999999913
0
LINE
8
BLACK
6
CONTINUOUS
10
156.3391220000000033
20
-100.0653599999999983
11
156.3391220000000033
21
-100.4701219999999893
0
LINE
8
BLACK
6
CONTINUOUS
10
156.3391220000000033
20
-100.4701219999999893
11
156.3153120000000058
21
-100.5177410000000009
0
LINE
8
BLACK
6
CONTINUOUS
10
156.3153120000000058
20
-100.5177410000000009
11
156.2915030000000058
21
-100.5415500000000009
0
LINE
8
BLACK
6
CONTINUOUS
10
156.2915030000000058
20
-100.5415500000000009
11
156.24388399999998
21
-100.5653599999999983
0
LINE
8
BLACK
6
CONTINUOUS
10
156.24388399999998
20
-100.5653599999999983
11
156.1724549999999851
21
-100.5653599999999983
0
LINE
8
BLACK
6
CONTINUOUS
10
156.1724549999999851
20
-100.5653599999999983
11
156.1248359999999877
21
-100.5415500000000009
0
LINE
8
BLACK
6
CONTINUOUS
10
156.3391220000000033
20
-100.3748839999999944
11
156.2915030000000058
21
-100.3986929999999944
0
LINE
8
BLACK
6
CONTINUOUS
10
156.2915030000000058
20
-100.3986929999999944
11
156.1962649999999826
21
-100.3986929999999944
0
LINE
8
BLACK
6
CONTINUOUS
10
156.1962649999999826
20
-100.3986929999999944
11
156.1486459999999852
21
-100.3748839999999944
0
LINE
8
BLACK
6
CONTINUOUS
10
156.1486459999999852
20
-100.3748839999999944
11
156.1248359999999877
21
-100.351073999999997
0
LINE
8
BLACK
6
CONTINUOUS
10
156.1248359999999877
20
-100.351073999999997
11
156.1010269999999878
21
-100.3034549999999996
0
LINE
8
BLACK
6
CONTINUOUS
10
156.1010269999999878
20
-100.3034549999999996
11
156.1010269999999878
21
-100.1605979999999931
0
LINE
8
BLACK
6
CONTINUOUS
10
156.1010269999999878
20
-100.1605979999999931
11
156.1248359999999877
21
-100.1129789999999957
0
LINE
8
BLACK
6
CONTINUOUS
10
156.1248359999999877
20
-100.1129789999999957
11
156.1486459999999852
21
-100.0891689999999983
0
LINE
8
BLACK
6
CONTINUOUS
10
156.1486459999999852
20
-100.0891689999999983
11
156.1962649999999826
21
-100.0653599999999983
0
LINE
8
BLACK
6
CONTINUOUS
10
156.1962649999999826
20
-100.0653599999999983
11
156.2915030000000058
21
-100.0653599999999983
0
LINE
8
BLACK
6
CONTINUOUS
10
156.2915030000000058
20
-100.0653599999999983
11
156.3391220000000033
21
-100.0891689999999983
0
LINE
8
BLACK
6
CONTINUOUS
10
156.7915030000000058
20
-100.3986929999999944
11
156.7915030000000058
21
-100.1367879999999957
0
LINE
8
BLACK
6
CONTINUOUS
10
156.7915030000000058
20
-100.1367879999999957
11
156.76769299999998
21
-100.0891689999999983
0
LINE
8
BLACK
6
CONTINUOUS
10
156.76769299999998
20
-100.0891689999999983
11
156.7200739999999826
21
-100.0653599999999983
0
LINE
8
BLACK
6
CONTINUOUS
10
156.7200739999999826
20
-100.0653599999999983
11
156.6248359999999877
21
-100.0653599999999983
0
LINE
8
BLACK
6
CONTINUOUS
10
156.6248359999999877
20
-100.0653599999999983
11
156.5772169999999903
21
-100.0891689999999983
0
LINE
8
BLACK
6
CONTINUOUS
10
156.7915030000000058
20
-100.3748839999999944
11
156.74388399999998
21
-100.3986929999999944
0
LINE
8
BLACK
6
CONTINUOUS
10
156.74388399999998
20
-100.3986929999999944
11
156.6248359999999877
21
-100.3986929999999944
0
LINE
8
BLACK
6
CONTINUOUS
10
156.6248359999999877
20
-100.3986929999999944
11
156.5772169999999903
21
-100.3748839999999944
0
LINE
8
BLACK
6
CONTINUOUS
10
156.5772169999999903
20
-100.3748839999999944
11
156.5534079999999904
21
-100.3272639999999996
0
LINE
8
BLACK
6
CONTINUOUS
10
156.5534079999999904
20
-100.3272639999999996
11
156.5534079999999904
21
-100.2796450000000021
0
LINE
8
BLACK
6
CONTINUOUS
10
156.5534079999999904
20
-100.2796450000000021
11
156.5772169999999903
21
-100.2320259999999905
0
LINE
8
BLACK
6
CONTINUOUS
10
156.5772169999999903
20
-100.2320259999999905
11
156.6248359999999877
21
-100.2082169999999905
0
LINE
8
BLACK
6
CONTINUOUS
10
156.6248359999999877
20
-100.2082169999999905
11
156.74388399999998
21
-100.2082169999999905
0
LINE
8
BLACK
6
CONTINUOUS
10
156.74388399999998
20
-100.2082169999999905
11
156.7915030000000058
21
-100.1844069999999931
0
LINE
8
BLACK
6
CONTINUOUS
10
157.0295979999999929
20
-100.3986929999999944
11
157.0295979999999929
21
-100.0653599999999983
0
LINE
8
BLACK
6
CONTINUOUS
10
157.0295979999999929
20
-100.1129789999999957
11
157.0534079999999904
21
-100.0891689999999983
0
LINE
8
BLACK
6
CONTINUOUS
10
157.0534079999999904
20
-100.0891689999999983
11
157.1010269999999878
21
-100.0653599999999983
0
LINE
8
BLACK
6
CONTINUOUS
10
157.1010269999999878
20
-100.0653599999999983
11
157.1724549999999851
21
-100.0653599999999983
0
LINE
8
BLACK
6
CONTINUOUS
10
157.1724549999999851
20
-100.0653599999999983
11
157.2200739999999826
21
-100.0891689999999983
0
LINE
8
BLACK
6
CONTINUOUS
10
157.2200739999999826
20
-100.0891689999999983
11
157.24388399999998
21
-100.1367879999999957
0
LINE
8
BLACK
6
CONTINUOUS
10
157.24388399999998
20
-100.1367879999999957
11
157.24388399999998
21
-100.3986929999999944
0
LINE
8
BLACK
6
CONTINUOUS
10
157.24388399999998
20
-100.1367879999999957
11
157.26769299999998
21
-100.0891689999999983
0
LINE
8
BLACK
6
CONTINUOUS
10
157.26769299999998
20
-100.0891689999999983
11
157.3153120000000058
21
-100.0653599999999983
0
LINE
8
BLACK
6
CONTINUOUS
10
157.3153120000000058
20
-100.0653599999999983
11
157.3867410000000007
21
-100.0653599999999983
0
LINE
8
BLACK
6
CONTINUOUS
10
157.3867410000000007
20
-100.0653599999999983
11
157.4343599999999981
21
-100.0891689999999983
0
LINE
8
BLACK
6
CONTINUOUS
10
157.4343599999999981
20
-100.0891689999999983
11
157.4581699999999955
21
-100.1367879999999957
0
LINE
8
BLACK
6
CONTINUOUS
10
157.4581699999999955
20
-100.1367879999999957
11
157.4581699999999955
21
-100.3986929999999944
0
LINE
8
BLACK
6
CONTINUOUS
10
157.8867410000000007
20
-100.3748839999999944
11
157.8391220000000033
21
-100.3986929999999944
0
LINE
8
BLACK
6
CONTINUOUS
10
157.8391220000000033
20
-100.3986929999999944
11
157.74388399999998
21
-100.3986929999999944
0
LINE
8
BLACK
6
CONTINUOUS
10
157.74388399999998
20
-100.3986929999999944
11
157.6962649999999826
21
-100.3748839999999944
0
LINE
8
BLACK
6
CONTINUOUS
10
157.6962649999999826
20
-100.3748839999999944
11
157.6724559999999826
21
-100.3272639999999996
0
LINE
8
BLACK
6
CONTINUOUS
10
157.6724559999999826
20
-100.3272639999999996
11
157.6724559999999826
21
-100.1367879999999957
0
LINE
8
BLACK
6
CONTINUOUS
10
157.6724559999999826
20
-100.1367879999999957
11
157.6962649999999826
21
-100.0891689999999983
0
LINE
8
BLACK
6
CONTINUOUS
10
157.6962649999999826
20
-100.0891689999999983
11
157.74388399999998
21
-100.0653599999999983
0
LINE
8
BLACK
6
CONTINUOUS
10
157.74388399999998
20
-100.0653599999999983
11
157.8391220000000033
21
-100.0653599999999983
0
LINE
8
BLACK
6
CONTINUOUS
10
157.8391220000000033
20
-100.0653599999999983
11
157.8867410000000007
21
-100.0891689999999983
0
LINE
8
BLACK
6
CONTINUOUS
10
157.8867410000000007
20
-100.0891689999999983
11
157.9105509999999981
21
-100.1367879999999957
0
LINE
8
BLACK
6
CONTINUOUS
10
157.9105509999999981
20
-100.1367879999999957
11
157.9105509999999981
21
-100.1844069999999931
0
LINE
8
BLACK
6
CONTINUOUS
10
157.9105509999999981
20
-100.1844069999999931
11
157.6724559999999826
21
-100.2320259999999905
0
LINE
8
BLACK
6
CONTINUOUS
10
156.4581689999999981
20
-100.8703319999999906
11
156.5534069999999929
21
-101.2036650000000009
0
LINE
8
BLACK
6
CONTINUOUS
10
156.5534069999999929
20
-101.2036650000000009
11
156.6486449999999877
21
-100.9655699999999996
0
LINE
8
BLACK
6
CONTINUOUS
10
156.6486449999999877
20
-100.9655699999999996
11
156.7438829999999825
21
-101.2036650000000009
0
LINE
8
BLACK
6
CONTINUOUS
10
156.7438829999999825
20
-101.2036650000000009
11
156.8391210000000058
21
-100.8703319999999906
0
LINE
8
BLACK
6
CONTINUOUS
10
157.0295979999999929
20
-101.2036650000000009
11
157.0295979999999929
21
-100.8703319999999906
0
LINE
8
BLACK
6
CONTINUOUS
10
157.0295979999999929
20
-100.7036650000000009
11
157.0057889999999929
21
-100.7274749999999983
0
LINE
8
BLACK
6
CONTINUOUS
10
157.0057889999999929
20
-100.7274749999999983
11
157.0295979999999929
21
-100.7512839999999983
0
LINE
8
BLACK
6
CONTINUOUS
10
157.0295979999999929
20
-100.7512839999999983
11
157.0534079999999904
21
-100.7274749999999983
0
LINE
8
BLACK
6
CONTINUOUS
10
157.0534079999999904
20
-100.7274749999999983
11
157.0295979999999929
21
-100.7036650000000009
0
LINE
8
BLACK
6
CONTINUOUS
10
157.0295979999999929
20
-100.7036650000000009
11
157.0295979999999929
21
-100.7512839999999983
0
LINE
8
BLACK
6
CONTINUOUS
10
157.1962649999999826
20
-100.8703319999999906
11
157.3867410000000007
21
-100.8703319999999906
0
LINE
8
BLACK
6
CONTINUOUS
10
157.26769299999998
20
-100.7036650000000009
11
157.26769299999998
21
-101.1322359999999918
0
LINE
8
BLACK
6
CONTINUOUS
10
157.26769299999998
20
-101.1322359999999918
11
157.2915030000000058
21
-101.1798560000000009
0
LINE
8
BLACK
6
CONTINUOUS
10
157.2915030000000058
20
-101.1798560000000009
11
157.3391220000000033
21
-101.2036650000000009
0
LINE
8
BLACK
6
CONTINUOUS
10
157.3391220000000033
20
-101.2036650000000009
11
157.3867410000000007
21
-101.2036650000000009
0
LINE
8
BLACK
6
CONTINUOUS
10
157.5534069999999929
20
-101.2036650000000009
11
157.5534069999999929
21
-100.7036650000000009
0
LINE
8
BLACK
6
CONTINUOUS
10
157.76769299999998
20
-101.2036650000000009
11
157.76769299999998
21
-100.9417600000000022
0
LINE
8
BLACK
6
CONTINUOUS
10
157.76769299999998
20
-100.9417600000000022
11
157.7438829999999825
21
-100.8941409999999905
0
LINE
8
BLACK
6
CONTINUOUS
10
157.7438829999999825
20
-100.8941409999999905
11
157.6962639999999851
21
-100.8703319999999906
0
LINE
8
BLACK
6
CONTINUOUS
10
157.6962639999999851
20
-100.8703319999999906
11
157.6248359999999877
21
-100.8703319999999906
0
LINE
8
BLACK
6
CONTINUOUS
10
157.6248359999999877
20
-100.8703319999999906
11
157.5772169999999903
21
-100.8941409999999905
0
LINE
8
BLACK
6
CONTINUOUS
10
157.5772169999999903
20
-100.8941409999999905
11
157.5534069999999929
21
-100.9179510000000022
0
LINE
8
BLACK
6
CONTINUOUS
10
156.8867400000000032
20
-101.675303999999997
11
156.8867400000000032
21
-102.175303999999997
0
LINE
8
BLACK
6
CONTINUOUS
10
156.8867400000000032
20
-101.699112999999997
11
156.9343590000000006
21
-101.675303999999997
0
LINE
8
BLACK
6
CONTINUOUS
10
156.9343590000000006
20
-101.675303999999997
11
157.0295969999999954
21
-101.675303999999997
0
LINE
8
BLACK
6
CONTINUOUS
10
157.0295969999999954
20
-101.675303999999997
11
157.0772159999999928
21
-101.699112999999997
0
LINE
8
BLACK
6
CONTINUOUS
10
157.0772159999999928
20
-101.699112999999997
11
157.1010259999999903
21
-101.7229229999999944
0
LINE
8
BLACK
6
CONTINUOUS
10
157.1010259999999903
20
-101.7229229999999944
11
157.1248349999999903
21
-101.7705419999999918
0
LINE
8
BLACK
6
CONTINUOUS
10
157.1248349999999903
20
-101.7705419999999918
11
157.1248349999999903
21
-101.9133989999999983
0
LINE
8
BLACK
6
CONTINUOUS
10
157.1248349999999903
20
-101.9133989999999983
11
157.1010259999999903
21
-101.9610179999999957
0
LINE
8
BLACK
6
CONTINUOUS
10
157.1010259999999903
20
-101.9610179999999957
11
157.0772159999999928
21
-101.9848279999999932
0
LINE
8
BLACK
6
CONTINUOUS
10
157.0772159999999928
20
-101.9848279999999932
11
157.0295969999999954
21
-102.0086369999999931
0
LINE
8
BLACK
6
CONTINUOUS
10
157.0295969999999954
20
-102.0086369999999931
11
156.9343590000000006
21
-102.0086369999999931
0
LINE
8
BLACK
6
CONTINUOUS
10
156.9343590000000006
20
-102.0086369999999931
11
156.8867400000000032
21
-101.9848279999999932
0
LINE
8
BLACK
6
CONTINUOUS
10
157.3391210000000058
20
-102.0086369999999931
11
157.3391210000000058
21
-101.675303999999997
0
LINE
8
BLACK
6
CONTINUOUS
10
157.3391210000000058
20
-101.5086369999999931
11
157.3153120000000058
21
-101.5324469999999906
0
LINE
8
BLACK
6
CONTINUOUS
10
157.3153120000000058
20
-101.5324469999999906
11
157.3391210000000058
21
-101.5562559999999905
0
LINE
8
BLACK
6
CONTINUOUS
10
157.3391210000000058
20
-101.5562559999999905
11
157.3629310000000032
21
-101.5324469999999906
0
LINE
8
BLACK
6
CONTINUOUS
10
157.3629310000000032
20
-101.5324469999999906
11
157.3391210000000058
21
-101.5086369999999931
0
LINE
8
BLACK
6
CONTINUOUS
10
157.3391210000000058
20
-101.5086369999999931
11
157.3391210000000058
21
-101.5562559999999905
0
LINE
8
BLACK
6
CONTINUOUS
10
157.5295969999999954
20
-102.0086369999999931
11
157.7915019999999799
21
-101.675303999999997
0
LINE
8
BLACK
6
CONTINUOUS
10
157.5295969999999954
20
-101.675303999999997
11
157.7915019999999799
21
-102.0086369999999931
0
LINE
8
BLACK
6
CONTINUOUS
10
158.1724539999999877
20
-101.9848279999999932
11
158.1248349999999903
21
-102.0086369999999931
0
LINE
8
BLACK
6
CONTINUOUS
10
158.1248349999999903
20
-102.0086369999999931
11
158.0295969999999954
21
-102.0086369999999931
0
LINE
8
BLACK
6
CONTINUOUS
10
158.0295969999999954
20
-102.0086369999999931
11
157.981977999999998
21
-101.9848279999999932
0
LINE
8
BLACK
6
CONTINUOUS
10
157.981977999999998
20
-101.9848279999999932
11
157.9581689999999981
21
-101.9372079999999983
0
LINE
8
BLACK
6
CONTINUOUS
10
157.9581689999999981
20
-101.9372079999999983
11
157.9581689999999981
21
-101.7467319999999944
0
LINE
8
BLACK
6
CONTINUOUS
10
157.9581689999999981
20
-101.7467319999999944
11
157.981977999999998
21
-101.699112999999997
0
LINE
8
BLACK
6
CONTINUOUS
10
157.981977999999998
20
-101.699112999999997
11
158.0295969999999954
21
-101.675303999999997
0
LINE
8
BLACK
6
CONTINUOUS
10
158.0295969999999954
20
-101.675303999999997
11
158.1248349999999903
21
-101.675303999999997
0
LINE
8
BLACK
6
CONTINUOUS
10
158.1248349999999903
20
-101.675303999999997
11
158.1724539999999877
21
-101.699112999999997
0
LINE
8
BLACK
6
CONTINUOUS
10
158.1724539999999877
20
-101.699112999999997
11
158.1962639999999851
21
-101.7467319999999944
0
LINE
8
BLACK
6
CONTINUOUS
10
158.1962639999999851
20
-101.7467319999999944
11
158.1962639999999851
21
-101.7943509999999918
0
LINE
8
BLACK
6
CONTINUOUS
10
158.1962639999999851
20
-101.7943509999999918
11
157.9581689999999981
21
-101.8419699999999892
0
LINE
8
BLACK
6
CONTINUOUS
10
158.481977999999998
20
-102.0086369999999931
11
158.4343590000000006
21
-101.9848279999999932
0
LINE
8
BLACK
6
CONTINUOUS
10
158.4343590000000006
20
-101.9848279999999932
11
158.4105490000000032
21
-101.9372079999999983
0
LINE
8
BLACK
6
CONTINUOUS
10
158.4105490000000032
20
-101.9372079999999983
11
158.4105490000000032
21
-101.5086369999999931
0
LINE
8
BLACK
6
CONTINUOUS
10
158.6486449999999877
20
-101.9848279999999932
11
158.6962639999999851
21
-102.0086369999999931
0
LINE
8
BLACK
6
CONTINUOUS
10
158.6962639999999851
20
-102.0086369999999931
11
158.7915019999999799
21
-102.0086369999999931
0
LINE
8
BLACK
6
CONTINUOUS
10
158.7915019999999799
20
-102.0086369999999931
11
158.8391210000000058
21
-101.9848279999999932
0
LINE
8
BLACK
6
CONTINUOUS
10
158.8391210000000058
20
-101.9848279999999932
11
158.8629300000000057
21
-101.9372079999999983
0
LINE
8
BLACK
6
CONTINUOUS
10
158.8629300000000057
20
-101.9372079999999983
11
158.8629300000000057
21
-101.9133989999999983
0
LINE
8
BLACK
6
CONTINUOUS
10
158.8629300000000057
20
-101.9133989999999983
11
158.8391210000000058
21
-101.8657800000000009
0
LINE
8
BLACK
6
CONTINUOUS
10
158.8391210000000058
20
-101.8657800000000009
11
158.7915019999999799
21
-101.8419699999999892
0
LINE
8
BLACK
6
CONTINUOUS
10
158.7915019999999799
20
-101.8419699999999892
11
158.7200729999999851
21
-101.8419699999999892
0
LINE
8
BLACK
6
CONTINUOUS
10
158.7200729999999851
20
-101.8419699999999892
11
158.6724539999999877
21
-101.8181609999999893
0
LINE
8
BLACK
6
CONTINUOUS
10
158.6724539999999877
20
-101.8181609999999893
11
158.6486449999999877
21
-101.7705419999999918
0
LINE
8
BLACK
6
CONTINUOUS
10
158.6486449999999877
20
-101.7705419999999918
11
158.6486449999999877
21
-101.7467319999999944
0
LINE
8
BLACK
6
CONTINUOUS
10
158.6486449999999877
20
-101.7467319999999944
11
158.6724539999999877
21
-101.699112999999997
0
LINE
8
BLACK
6
CONTINUOUS
10
158.6724539999999877
20
-101.699112999999997
11
158.7200729999999851
21
-101.675303999999997
0
LINE
8
BLACK
6
CONTINUOUS
10
158.7200729999999851
20
-101.675303999999997
11
158.7915019999999799
21
-101.675303999999997
0
LINE
8
BLACK
6
CONTINUOUS
10
158.7915019999999799
20
-101.675303999999997
11
158.8391210000000058
21
-101.699112999999997
0
LINE
8
BLACK
6
CONTINUOUS
10
157.2676919999999825
20
-102.7659900000000022
11
157.2915019999999799
21
-102.7897999999999996
0
LINE
8
BLACK
6
CONTINUOUS
10
157.2915019999999799
20
-102.7897999999999996
11
157.2676919999999825
21
-102.8136089999999996
0
LINE
8
BLACK
6
CONTINUOUS
10
157.2676919999999825
20
-102.8136089999999996
11
157.2438829999999825
21
-102.7897999999999996
0
LINE
8
BLACK
6
CONTINUOUS
10
157.2438829999999825
20
-102.7897999999999996
11
157.2676919999999825
21
-102.7659900000000022
0
LINE
8
BLACK
6
CONTINUOUS
10
157.2676919999999825
20
-102.7659900000000022
11
157.2676919999999825
21
-102.8136089999999996
0
LINE
8
BLACK
6
CONTINUOUS
10
157.7200729999999851
20
-102.7897999999999996
11
157.6724539999999877
21
-102.8136089999999996
0
LINE
8
BLACK
6
CONTINUOUS
10
157.6724539999999877
20
-102.8136089999999996
11
157.5772159999999928
21
-102.8136089999999996
0
LINE
8
BLACK
6
CONTINUOUS
10
157.5772159999999928
20
-102.8136089999999996
11
157.5295969999999954
21
-102.7897999999999996
0
LINE
8
BLACK
6
CONTINUOUS
10
157.5295969999999954
20
-102.7897999999999996
11
157.505786999999998
21
-102.7659900000000022
0
LINE
8
BLACK
6
CONTINUOUS
10
157.505786999999998
20
-102.7659900000000022
11
157.481977999999998
21
-102.7183709999999905
0
LINE
8
BLACK
6
CONTINUOUS
10
157.481977999999998
20
-102.7183709999999905
11
157.481977999999998
21
-102.5755139999999983
0
LINE
8
BLACK
6
CONTINUOUS
10
157.481977999999998
20
-102.5755139999999983
11
157.505786999999998
21
-102.5278950000000009
0
LINE
8
BLACK
6
CONTINUOUS
10
157.505786999999998
20
-102.5278950000000009
11
157.5295969999999954
21
-102.5040849999999892
0
LINE
8
BLACK
6
CONTINUOUS
10
157.5295969999999954
20
-102.5040849999999892
11
157.5772159999999928
21
-102.4802759999999893
0
LINE
8
BLACK
6
CONTINUOUS
10
157.5772159999999928
20
-102.4802759999999893
11
157.6724539999999877
21
-102.4802759999999893
0
LINE
8
BLACK
6
CONTINUOUS
10
157.6724539999999877
20
-102.4802759999999893
11
157.7200729999999851
21
-102.5040849999999892
0
LINE
8
BLACK
6
CONTINUOUS
10
158.005786999999998
20
-102.8136089999999996
11
157.9581680000000006
21
-102.7897999999999996
0
LINE
8
BLACK
6
CONTINUOUS
10
157.9581680000000006
20
-102.7897999999999996
11
157.9343580000000031
21
-102.7659900000000022
0
LINE
8
BLACK
6
CONTINUOUS
10
157.9343580000000031
20
-102.7659900000000022
11
157.9105490000000032
21
-102.7183709999999905
0
LINE
8
BLACK
6
CONTINUOUS
10
157.9105490000000032
20
-102.7183709999999905
11
157.9105490000000032
21
-102.5755139999999983
0
LINE
8
BLACK
6
CONTINUOUS
10
157.9105490000000032
20
-102.5755139999999983
11
157.9343580000000031
21
-102.5278950000000009
0
LINE
8
BLACK
6
CONTINUOUS
10
157.9343580000000031
20
-102.5278950000000009
11
157.9581680000000006
21
-102.5040849999999892
0
LINE
8
BLACK
6
CONTINUOUS
10
157.9581680000000006
20
-102.5040849999999892
11
158.005786999999998
21
-102.4802759999999893
0
LINE
8
BLACK
6
CONTINUOUS
10
158.005786999999998
20
-102.4802759999999893
11
158.0772149999999954
21
-102.4802759999999893
0
LINE
8
BLACK
6
CONTINUOUS
10
158.0772149999999954
20
-102.4802759999999893
11
158.1248339999999928
21
-102.5040849999999892
0
LINE
8
BLACK
6
CONTINUOUS
10
158.1248339999999928
20
-102.5040849999999892
11
158.1486439999999902
21
-102.5278950000000009
0
LINE
8
BLACK
6
CONTINUOUS
10
158.1486439999999902
20
-102.5278950000000009
11
158.1724529999999902
21
-102.5755139999999983
0
LINE
8
BLACK
6
CONTINUOUS
10
158.1724529999999902
20
-102.5755139999999983
11
158.1724529999999902
21
-102.7183709999999905
0
LINE
8
BLACK
6
CONTINUOUS
10
158.1724529999999902
20
-102.7183709999999905
11
158.1486439999999902
21
-102.7659900000000022
0
LINE
8
BLACK
6
CONTINUOUS
10
158.1486439999999902
20
-102.7659900000000022
11
158.1248339999999928
21
-102.7897999999999996
0
LINE
8
BLACK
6
CONTINUOUS
10
158.1248339999999928
20
-102.7897999999999996
11
158.0772149999999954
21
-102.8136089999999996
0
LINE
8
BLACK
6
CONTINUOUS
10
158.0772149999999954
20
-102.8136089999999996
11
158.005786999999998
21
-102.8136089999999996
0
LINE
8
BLACK
6
CONTINUOUS
10
158.3867390000000057
20
-102.8136089999999996
11
158.3867390000000057
21
-102.4802759999999893
0
LINE
8
BLACK
6
CONTINUOUS
10
158.3867390000000057
20
-102.5278950000000009
11
158.4105490000000032
21
-102.5040849999999892
0
LINE
8
BLACK
6
CONTINUOUS
10
158.4105490000000032
20
-102.5040849999999892
11
158.4581680000000006
21
-102.4802759999999893
0
LINE
8
BLACK
6
CONTINUOUS
10
158.4581680000000006
20
-102.4802759999999893
11
158.529595999999998
21
-102.4802759999999893
0
LINE
8
BLACK
6
CONTINUOUS
10
158.529595999999998
20
-102.4802759999999893
11
158.5772149999999954
21
-102.5040849999999892
0
LINE
8
BLACK
6
CONTINUOUS
10
158.5772149999999954
20
-102.5040849999999892
11
158.6010249999999928
21
-102.5517040000000009
0
LINE
8
BLACK
6
CONTINUOUS
10
158.6010249999999928
20
-102.5517040000000009
11
158.6010249999999928
21
-102.8136089999999996
0
LINE
8
BLACK
6
CONTINUOUS
10
158.6010249999999928
20
-102.5517040000000009
11
158.6248339999999928
21
-102.5040849999999892
0
LINE
8
BLACK
6
CONTINUOUS
10
158.6248339999999928
20
-102.5040849999999892
11
158.6724529999999902
21
-102.4802759999999893
0
LINE
8
BLACK
6
CONTINUOUS
10
158.6724529999999902
20
-102.4802759999999893
11
158.7438819999999851
21
-102.4802759999999893
0
LINE
8
BLACK
6
CONTINUOUS
10
158.7438819999999851
20
-102.4802759999999893
11
158.7915009999999825
21
-102.5040849999999892
0
LINE
8
BLACK
6
CONTINUOUS
10
158.7915009999999825
20
-102.5040849999999892
11
158.8153109999999799
21
-102.5517040000000009
0
LINE
8
BLACK
6
CONTINUOUS
10
158.8153109999999799
20
-102.5517040000000009
11
158.8153109999999799
21
-102.8136089999999996
0
LINE
8
BLACK
6
CONTINUOUS
10
160.1123809999999992
20
-94.5750689999999992
11
160.2790469999999914
21
-95.0750689999999992
0
LINE
8
BLACK
6
CONTINUOUS
10
160.2790469999999914
20
-95.0750689999999992
11
160.4457139999999811
21
-94.5750689999999992
0
LINE
8
BLACK
6
CONTINUOUS
10
160.6123800000000017
20
-95.0750689999999992
11
160.6123800000000017
21
-94.5750689999999992
0
LINE
8
BLACK
6
CONTINUOUS
10
160.8504749999999888
20
-95.0750689999999992
11
160.8504749999999888
21
-94.5750689999999992
0
LINE
8
BLACK
6
CONTINUOUS
10
160.8504749999999888
20
-94.5750689999999992
11
161.1361890000000017
21
-95.0750689999999992
0
LINE
8
BLACK
6
CONTINUOUS
10
161.1361890000000017
20
-95.0750689999999992
11
161.1361890000000017
21
-94.5750689999999992
0
LINE
8
BLACK
6
CONTINUOUS
10
135.5038409999999942
20
-99.3679159999999939
11
135.8158990000000017
21
-99.1494110000000006
0
LINE
8
BLACK
6
CONTINUOUS
10
135.7691219999999817
20
-99.4146920000000023
11
135.5506169999999884
21
-99.1026339999999948
0
LINE
8
BLACK
6
CONTINUOUS
10
136.0284359999999992
20
-98.6227319999999992
11
135.8333999999999833
21
-98.7592969999999895
0
LINE
8
BLACK
6
CONTINUOUS
10
135.8333999999999833
20
-98.7592969999999895
11
135.9504619999999875
21
-98.9679900000000004
0
LINE
8
BLACK
6
CONTINUOUS
10
135.9504619999999875
20
-98.9679900000000004
11
135.9563090000000045
21
-98.9348299999999909
0
LINE
8
BLACK
6
CONTINUOUS
10
135.9563090000000045
20
-98.9348299999999909
11
135.9816600000000051
21
-98.8880130000000008
0
LINE
8
BLACK
6
CONTINUOUS
10
135.9816600000000051
20
-98.8880130000000008
11
136.0791779999999846
21
-98.8197299999999927
0
LINE
8
BLACK
6
CONTINUOUS
10
136.0791779999999846
20
-98.8197299999999927
11
136.131842000000006
21
-98.8119209999999981
0
LINE
8
BLACK
6
CONTINUOUS
10
136.131842000000006
20
-98.8119209999999981
11
136.165001999999987
21
-98.8177680000000009
0
LINE
8
BLACK
6
CONTINUOUS
10
136.165001999999987
20
-98.8177680000000009
11
136.2118179999999938
21
-98.8431190000000015
0
LINE
8
BLACK
6
CONTINUOUS
10
136.2118179999999938
20
-98.8431190000000015
11
136.2801010000000019
21
-98.9406369999999953
0
LINE
8
BLACK
6
CONTINUOUS
10
136.2801010000000019
20
-98.9406369999999953
11
136.2879109999999798
21
-98.9932999999999907
0
LINE
8
BLACK
6
CONTINUOUS
10
136.2879109999999798
20
-98.9932999999999907
11
136.2820639999999912
21
-99.0264609999999976
0
LINE
8
BLACK
6
CONTINUOUS
10
136.2820639999999912
20
-99.0264609999999976
11
136.2567129999999906
21
-99.0732769999999903
0
LINE
8
BLACK
6
CONTINUOUS
10
136.2567129999999906
20
-99.0732769999999903
11
136.1591949999999827
21
-99.1415599999999984
0
LINE
8
BLACK
6
CONTINUOUS
10
136.1591949999999827
20
-99.1415599999999984
11
136.1065309999999897
21
-99.1493699999999905
0
LINE
8
BLACK
6
CONTINUOUS
10
136.1065309999999897
20
-99.1493699999999905
11
136.0733709999999803
21
-99.1435230000000018
0
LINE
8
BLACK
6
CONTINUOUS
10
136.1649610000000052
20
-98.5271359999999987
11
136.5882739999999842
21
-98.8411159999999995
0
LINE
8
BLACK
6
CONTINUOUS
10
136.5882739999999842
20
-98.8411159999999995
11
136.4380119999999863
21
-98.3359439999999978
0
LINE
8
BLACK
6
CONTINUOUS
10
146.1033339999999896
20
-87.8050689999999889
11
146.2699999999999818
21
-88.3050689999999889
0
LINE
8
BLACK
6
CONTINUOUS
10
146.2699999999999818
20
-88.3050689999999889
11
146.4366669999999999
21
-87.8050689999999889
0
LINE
8
BLACK
6
CONTINUOUS
10
146.6033329999999921
20
-88.3050689999999889
11
146.6033329999999921
21
-87.8050689999999889
0
LINE
8
BLACK
6
CONTINUOUS
10
146.6033329999999921
20
-87.8050689999999889
11
146.7223809999999844
21
-87.8050689999999889
0
LINE
8
BLACK
6
CONTINUOUS
10
146.7223809999999844
20
-87.8050689999999889
11
146.7938089999999818
21
-87.8288790000000006
0
LINE
8
BLACK
6
CONTINUOUS
10
146.7938089999999818
20
-87.8288790000000006
11
146.8414279999999792
21
-87.876497999999998
0
LINE
8
BLACK
6
CONTINUOUS
10
146.8414279999999792
20
-87.876497999999998
11
146.8652380000000051
21
-87.9241169999999954
0
LINE
8
BLACK
6
CONTINUOUS
10
146.8652380000000051
20
-87.9241169999999954
11
146.889047000000005
21
-88.0193549999999902
0
LINE
8
BLACK
6
CONTINUOUS
10
146.889047000000005
20
-88.0193549999999902
11
146.889047000000005
21
-88.0907830000000018
0
LINE
8
BLACK
6
CONTINUOUS
10
146.889047000000005
20
-88.0907830000000018
11
146.8652380000000051
21
-88.1860209999999967
0
LINE
8
BLACK
6
CONTINUOUS
10
146.8652380000000051
20
-88.1860209999999967
11
146.8414279999999792
21
-88.2336399999999941
0
LINE
8
BLACK
6
CONTINUOUS
10
146.8414279999999792
20
-88.2336399999999941
11
146.7938089999999818
21
-88.281259999999989
0
LINE
8
BLACK
6
CONTINUOUS
10
146.7938089999999818
20
-88.281259999999989
11
146.7223809999999844
21
-88.3050689999999889
0
LINE
8
BLACK
6
CONTINUOUS
10
146.7223809999999844
20
-88.3050689999999889
11
146.6033329999999921
21
-88.3050689999999889
0
LINE
8
BLACK
6
CONTINUOUS
10
147.1033329999999921
20
-88.3050689999999889
11
147.1033329999999921
21
-87.8050689999999889
0
LINE
8
BLACK
6
CONTINUOUS
10
147.1033329999999921
20
-87.8050689999999889
11
147.2223809999999844
21
-87.8050689999999889
0
LINE
8
BLACK
6
CONTINUOUS
10
147.2223809999999844
20
-87.8050689999999889
11
147.2938089999999818
21
-87.8288790000000006
0
LINE
8
BLACK
6
CONTINUOUS
10
147.2938089999999818
20
-87.8288790000000006
11
147.3414279999999792
21
-87.876497999999998
0
LINE
8
BLACK
6
CONTINUOUS
10
147.3414279999999792
20
-87.876497999999998
11
147.3652380000000051
21
-87.9241169999999954
0
LINE
8
BLACK
6
CONTINUOUS
10
147.3652380000000051
20
-87.9241169999999954
11
147.389047000000005
21
-88.0193549999999902
0
LINE
8
BLACK
6
CONTINUOUS
10
147.389047000000005
20
-88.0193549999999902
11
147.389047000000005
21
-88.0907830000000018
0
LINE
8
BLACK
6
CONTINUOUS
10
147.389047000000005
20
-88.0907830000000018
11
147.3652380000000051
21
-88.1860209999999967
0
LINE
8
BLACK
6
CONTINUOUS
10
147.3652380000000051
20
-88.1860209999999967
11
147.3414279999999792
21
-88.2336399999999941
0
LINE
8
BLACK
6
CONTINUOUS
10
147.3414279999999792
20
-88.2336399999999941
11
147.2938089999999818
21
-88.281259999999989
0
LINE
8
BLACK
6
CONTINUOUS
10
147.2938089999999818
20
-88.281259999999989
11
147.2223809999999844
21
-88.3050689999999889
0
LINE
8
BLACK
6
CONTINUOUS
10
147.2223809999999844
20
-88.3050689999999889
11
147.1033329999999921
21
-88.3050689999999889
0
LINE
8
BLACK
6
CONTINUOUS
10
144.2719060000000013
20
-97.2922999999999973
11
144.3433339999999987
21
-97.3161089999999973
0
LINE
8
BLACK
6
CONTINUOUS
10
144.3433339999999987
20
-97.3161089999999973
11
144.462381999999991
21
-97.3161089999999973
0
LINE
8
BLACK
6
CONTINUOUS
10
144.462381999999991
20
-97.3161089999999973
11
144.5100009999999884
21
-97.2922999999999973
0
LINE
8
BLACK
6
CONTINUOUS
10
144.5100009999999884
20
-97.2922999999999973
11
144.5338099999999883
21
-97.2684899999999999
0
LINE
8
BLACK
6
CONTINUOUS
10
144.5338099999999883
20
-97.2684899999999999
11
144.5576199999999858
21
-97.2208710000000025
0
LINE
8
BLACK
6
CONTINUOUS
10
144.5576199999999858
20
-97.2208710000000025
11
144.5576199999999858
21
-97.1732519999999909
0
LINE
8
BLACK
6
CONTINUOUS
10
144.5576199999999858
20
-97.1732519999999909
11
144.5338099999999883
21
-97.1256329999999934
0
LINE
8
BLACK
6
CONTINUOUS
10
144.5338099999999883
20
-97.1256329999999934
11
144.5100009999999884
21
-97.101822999999996
0
LINE
8
BLACK
6
CONTINUOUS
10
144.5100009999999884
20
-97.101822999999996
11
144.462381999999991
21
-97.078013999999996
0
LINE
8
BLACK
6
CONTINUOUS
10
144.462381999999991
20
-97.078013999999996
11
144.3671439999999961
21
-97.0542039999999986
0
LINE
8
BLACK
6
CONTINUOUS
10
144.3671439999999961
20
-97.0542039999999986
11
144.3195249999999987
21
-97.0303949999999986
0
LINE
8
BLACK
6
CONTINUOUS
10
144.3195249999999987
20
-97.0303949999999986
11
144.2957150000000013
21
-97.0065850000000012
0
LINE
8
BLACK
6
CONTINUOUS
10
144.2957150000000013
20
-97.0065850000000012
11
144.2719060000000013
21
-96.9589659999999895
0
LINE
8
BLACK
6
CONTINUOUS
10
144.2719060000000013
20
-96.9589659999999895
11
144.2719060000000013
21
-96.9113469999999921
0
LINE
8
BLACK
6
CONTINUOUS
10
144.2719060000000013
20
-96.9113469999999921
11
144.2957150000000013
21
-96.8637279999999947
0
LINE
8
BLACK
6
CONTINUOUS
10
144.2957150000000013
20
-96.8637279999999947
11
144.3195249999999987
21
-96.8399189999999948
0
LINE
8
BLACK
6
CONTINUOUS
10
144.3195249999999987
20
-96.8399189999999948
11
144.3671439999999961
21
-96.8161089999999973
0
LINE
8
BLACK
6
CONTINUOUS
10
144.3671439999999961
20
-96.8161089999999973
11
144.4861909999999909
21
-96.8161089999999973
0
LINE
8
BLACK
6
CONTINUOUS
10
144.4861909999999909
20
-96.8161089999999973
11
144.5576199999999858
21
-96.8399189999999948
0
LINE
8
BLACK
6
CONTINUOUS
10
144.7004770000000065
20
-96.8161089999999973
11
144.9861909999999909
21
-96.8161089999999973
0
LINE
8
BLACK
6
CONTINUOUS
10
144.8433339999999987
20
-97.3161089999999973
11
144.8433339999999987
21
-96.8161089999999973
0
LINE
8
BLACK
6
CONTINUOUS
10
145.1290479999999832
20
-97.1732519999999909
11
145.3671429999999987
21
-97.1732519999999909
0
LINE
8
BLACK
6
CONTINUOUS
10
145.0814289999999858
20
-97.3161089999999973
11
145.2480950000000064
21
-96.8161089999999973
0
LINE
8
BLACK
6
CONTINUOUS
10
145.2480950000000064
20
-96.8161089999999973
11
145.4147619999999961
21
-97.3161089999999973
0
LINE
8
BLACK
6
CONTINUOUS
10
145.5099999999999909
20
-96.8161089999999973
11
145.7957140000000038
21
-96.8161089999999973
0
LINE
8
BLACK
6
CONTINUOUS
10
145.6528569999999831
20
-97.3161089999999973
11
145.6528569999999831
21
-96.8161089999999973
0
LINE
8
BLACK
6
CONTINUOUS
10
137.0867460000000051
20
-99.7580370000000016
11
136.8432540000000017
21
-99.8986170000000016
0
LINE
8
BLACK
6
CONTINUOUS
10
137.596745999999996
20
-100.6413829999999905
11
137.3532539999999926
21
-100.7819629999999904
0
LINE
8
BLACK
6
CONTINUOUS
10
145.4899999999999807
20
-107.3900000000000006
11
145.4899999999999807
21
-105.9299999999999926
0
LINE
8
BLACK
6
CONTINUOUS
10
145.4899999999999807
20
-107.3900000000000006
11
146.4199999999999875
21
-107.3900000000000006
0
LINE
8
BLACK
6
CONTINUOUS
10
148.6500000000000057
20
-107.3900000000000006
11
147.7199999999999989
21
-107.3900000000000006
0
LINE
8
BLACK
6
CONTINUOUS
10
148.6500000000000057
20
-107.3900000000000006
11
148.6500000000000057
21
-105.2299999999999898
0
LINE
8
BLACK
6
CONTINUOUS
10
161.7528449999999793
20
-91.6287509999999941
11
162.0140969999999925
21
-91.1762489999999985
0
LINE
8
BLACK
6
CONTINUOUS
10
163.0259029999999996
20
-92.3637509999999935
11
163.2871549999999843
21
-91.911248999999998
  0
ENDSEC
  0
EOF
