  0
SECTION
  2
HEADER
  9
$ANGBASE
  50
0.0
  9
$ANGDIR
  70
1
  9
$MEASUREMENT
  70
1
  0
ENDSEC
  0
SECTION
  2
TABLES
  0
TABLE
  2
LTYPE
  70
4
  0
LTYPE
  5
40F
  2
CONTINUOUS
  70
0
  3
Solid line
  72
65
  73
0
  40
0.0
  0
LTYPE
  5
410
  2
DASHDOT
 70
0
  3
Dash Dot ____ _ ____ _
 72
65
 73
4
 40
2.0
 49
1.25
 49
-0.25
 49
0.25
 49
-0.25
  0
LTYPE
  5
411
  2
DASHED
 70
0
  3
Dashed __ __ __ __ __
 72
65
 73
2
 40
0.75
 49
0.5
 49
-0.25
  0
LTYPE
  5
43B
  2
DOTTED
 70
0
  3
Dotted .  .  .  .
 72
65
 73
2
 40
0.2
 49
0.0
 49
-0.2
  0
ENDTAB
  0
TABLE
  2
STYLE
  70
4
  0
STYLE
  2
KICAD
  70
0
  40
0
  41
1
  42
1
  50
0
  71
0
  3
isocp.shx
  0
STYLE
  2
KICADB
  70
0
  40
0
  41
1
  42
1
  50
0
  71
0
  3
isocp.shx
  0
STYLE
  2
KICADI
  70
0
  40
0
  41
1
  42
1
  50
15
  71
0
  3
isocp.shx
  0
STYLE
  2
KICADBI
  70
0
  40
0
  41
1
  42
1
  50
15
  71
0
  3
isocp.shx
  0
ENDTAB
  0
TABLE
  2
LAYER
  70
1
  0
LAYER
  2
BLACK
  70
0
  62
7
  6
CONTINUOUS
  0
ENDTAB
  0
ENDSEC
  0
SECTION
  2
ENTITIES
0
CIRCLE
8
BLACK
10
163.0799999999999841
20
-92.8100000000000023
40
2.5
0
CIRCLE
8
BLACK
10
178.5999999999999943
20
-71.8999999999999915
40
2.5
0
CIRCLE
8
BLACK
10
178.5999999999999943
20
-71.8999999999999915
40
2.5
0
LINE
8
BLACK
6
CONTINUOUS
10
133.3628539999999987
20
-88.5350689999999929
11
133.3628539999999987
21
-88.0350689999999929
0
LINE
8
BLACK
6
CONTINUOUS
10
133.3628539999999987
20
-88.0350689999999929
11
133.1723779999999806
21
-88.0350689999999929
0
LINE
8
BLACK
6
CONTINUOUS
10
133.1723779999999806
20
-88.0350689999999929
11
133.1247589999999832
21
-88.0588789999999904
0
LINE
8
BLACK
6
CONTINUOUS
10
133.1247589999999832
20
-88.0588789999999904
11
133.1009489999999857
21
-88.0826879999999903
0
LINE
8
BLACK
6
CONTINUOUS
10
133.1009489999999857
20
-88.0826879999999903
11
133.0771399999999858
21
-88.1303070000000019
0
LINE
8
BLACK
6
CONTINUOUS
10
133.0771399999999858
20
-88.1303070000000019
11
133.0771399999999858
21
-88.2017359999999968
0
LINE
8
BLACK
6
CONTINUOUS
10
133.0771399999999858
20
-88.2017359999999968
11
133.1009489999999857
21
-88.2493549999999942
0
LINE
8
BLACK
6
CONTINUOUS
10
133.1009489999999857
20
-88.2493549999999942
11
133.1247589999999832
21
-88.2731639999999942
0
LINE
8
BLACK
6
CONTINUOUS
10
133.1247589999999832
20
-88.2731639999999942
11
133.1723779999999806
21
-88.2969739999999916
0
LINE
8
BLACK
6
CONTINUOUS
10
133.1723779999999806
20
-88.2969739999999916
11
133.3628539999999987
21
-88.2969739999999916
0
LINE
8
BLACK
6
CONTINUOUS
10
132.8628539999999987
20
-88.5350689999999929
11
132.8628539999999987
21
-88.0350689999999929
0
LINE
8
BLACK
6
CONTINUOUS
10
132.6723779999999806
20
-88.0350689999999929
11
132.3390449999999987
21
-88.5350689999999929
0
LINE
8
BLACK
6
CONTINUOUS
10
132.3390449999999987
20
-88.0350689999999929
11
132.6723779999999806
21
-88.5350689999999929
0
LINE
8
BLACK
6
CONTINUOUS
10
132.1485689999999806
20
-88.2731639999999942
11
131.9819019999999909
21
-88.2731639999999942
0
LINE
8
BLACK
6
CONTINUOUS
10
131.9104739999999936
20
-88.5350689999999929
11
132.1485689999999806
21
-88.5350689999999929
0
LINE
8
BLACK
6
CONTINUOUS
10
132.1485689999999806
20
-88.5350689999999929
11
132.1485689999999806
21
-88.0350689999999929
0
LINE
8
BLACK
6
CONTINUOUS
10
132.1485689999999806
20
-88.0350689999999929
11
131.9104739999999936
21
-88.0350689999999929
0
LINE
8
BLACK
6
CONTINUOUS
10
131.458092999999991
20
-88.5350689999999929
11
131.6961880000000065
21
-88.5350689999999929
0
LINE
8
BLACK
6
CONTINUOUS
10
131.6961880000000065
20
-88.5350689999999929
11
131.6961880000000065
21
-88.0350689999999929
0
LINE
8
BLACK
6
CONTINUOUS
10
131.3152350000000013
20
-88.5112599999999929
11
131.2438070000000039
21
-88.5350689999999929
0
LINE
8
BLACK
6
CONTINUOUS
10
131.2438070000000039
20
-88.5350689999999929
11
131.1247589999999832
21
-88.5350689999999929
0
LINE
8
BLACK
6
CONTINUOUS
10
131.1247589999999832
20
-88.5350689999999929
11
131.0771399999999858
21
-88.5112599999999929
0
LINE
8
BLACK
6
CONTINUOUS
10
131.0771399999999858
20
-88.5112599999999929
11
131.0533309999999858
21
-88.4874499999999955
0
LINE
8
BLACK
6
CONTINUOUS
10
131.0533309999999858
20
-88.4874499999999955
11
131.0295209999999884
21
-88.4398309999999981
0
LINE
8
BLACK
6
CONTINUOUS
10
131.0295209999999884
20
-88.4398309999999981
11
131.0295209999999884
21
-88.3922120000000007
0
LINE
8
BLACK
6
CONTINUOUS
10
131.0295209999999884
20
-88.3922120000000007
11
131.0533309999999858
21
-88.344592999999989
0
LINE
8
BLACK
6
CONTINUOUS
10
131.0533309999999858
20
-88.344592999999989
11
131.0771399999999858
21
-88.3207829999999916
0
LINE
8
BLACK
6
CONTINUOUS
10
131.0771399999999858
20
-88.3207829999999916
11
131.1247589999999832
21
-88.2969739999999916
0
LINE
8
BLACK
6
CONTINUOUS
10
131.1247589999999832
20
-88.2969739999999916
11
131.2199970000000064
21
-88.2731639999999942
0
LINE
8
BLACK
6
CONTINUOUS
10
131.2199970000000064
20
-88.2731639999999942
11
131.2676160000000039
21
-88.2493549999999942
0
LINE
8
BLACK
6
CONTINUOUS
10
131.2676160000000039
20
-88.2493549999999942
11
131.2914260000000013
21
-88.2255449999999968
0
LINE
8
BLACK
6
CONTINUOUS
10
131.2914260000000013
20
-88.2255449999999968
11
131.3152350000000013
21
-88.1779259999999994
0
LINE
8
BLACK
6
CONTINUOUS
10
131.3152350000000013
20
-88.1779259999999994
11
131.3152350000000013
21
-88.1303070000000019
0
LINE
8
BLACK
6
CONTINUOUS
10
131.3152350000000013
20
-88.1303070000000019
11
131.2914260000000013
21
-88.0826879999999903
0
LINE
8
BLACK
6
CONTINUOUS
10
131.2914260000000013
20
-88.0826879999999903
11
131.2676160000000039
21
-88.0588789999999904
0
LINE
8
BLACK
6
CONTINUOUS
10
131.2676160000000039
20
-88.0588789999999904
11
131.2199970000000064
21
-88.0350689999999929
0
LINE
8
BLACK
6
CONTINUOUS
10
131.2199970000000064
20
-88.0350689999999929
11
131.1009499999999832
21
-88.0350689999999929
0
LINE
8
BLACK
6
CONTINUOUS
10
131.1009499999999832
20
-88.0350689999999929
11
131.0295209999999884
21
-88.0588789999999904
0
LINE
8
BLACK
6
CONTINUOUS
10
130.434283999999991
20
-88.5350689999999929
11
130.434283999999991
21
-88.0350689999999929
0
LINE
8
BLACK
6
CONTINUOUS
10
130.434283999999991
20
-88.0350689999999929
11
130.3152359999999987
21
-88.0350689999999929
0
LINE
8
BLACK
6
CONTINUOUS
10
130.3152359999999987
20
-88.0350689999999929
11
130.2438080000000014
21
-88.0588789999999904
0
LINE
8
BLACK
6
CONTINUOUS
10
130.2438080000000014
20
-88.0588789999999904
11
130.1961890000000039
21
-88.106498000000002
0
LINE
8
BLACK
6
CONTINUOUS
10
130.1961890000000039
20
-88.106498000000002
11
130.1723790000000065
21
-88.1541169999999994
0
LINE
8
BLACK
6
CONTINUOUS
10
130.1723790000000065
20
-88.1541169999999994
11
130.1485700000000065
21
-88.2493549999999942
0
LINE
8
BLACK
6
CONTINUOUS
10
130.1485700000000065
20
-88.2493549999999942
11
130.1485700000000065
21
-88.3207829999999916
0
LINE
8
BLACK
6
CONTINUOUS
10
130.1485700000000065
20
-88.3207829999999916
11
130.1723790000000065
21
-88.4160210000000006
0
LINE
8
BLACK
6
CONTINUOUS
10
130.1723790000000065
20
-88.4160210000000006
11
130.1961890000000039
21
-88.4636399999999981
0
LINE
8
BLACK
6
CONTINUOUS
10
130.1961890000000039
20
-88.4636399999999981
11
130.2438080000000014
21
-88.5112599999999929
0
LINE
8
BLACK
6
CONTINUOUS
10
130.2438080000000014
20
-88.5112599999999929
11
130.3152359999999987
21
-88.5350689999999929
0
LINE
8
BLACK
6
CONTINUOUS
10
130.3152359999999987
20
-88.5350689999999929
11
130.434283999999991
21
-88.5350689999999929
0
LINE
8
BLACK
6
CONTINUOUS
10
129.958092999999991
20
-88.0826879999999903
11
129.934283999999991
21
-88.0588789999999904
0
LINE
8
BLACK
6
CONTINUOUS
10
129.934283999999991
20
-88.0588789999999904
11
129.8866649999999936
21
-88.0350689999999929
0
LINE
8
BLACK
6
CONTINUOUS
10
129.8866649999999936
20
-88.0350689999999929
11
129.7676170000000013
21
-88.0350689999999929
0
LINE
8
BLACK
6
CONTINUOUS
10
129.7676170000000013
20
-88.0350689999999929
11
129.7199980000000039
21
-88.0588789999999904
0
LINE
8
BLACK
6
CONTINUOUS
10
129.7199980000000039
20
-88.0588789999999904
11
129.6961890000000039
21
-88.0826879999999903
0
LINE
8
BLACK
6
CONTINUOUS
10
129.6961890000000039
20
-88.0826879999999903
11
129.6723790000000065
21
-88.1303070000000019
0
LINE
8
BLACK
6
CONTINUOUS
10
129.6723790000000065
20
-88.1303070000000019
11
129.6723790000000065
21
-88.1779259999999994
0
LINE
8
BLACK
6
CONTINUOUS
10
129.6723790000000065
20
-88.1779259999999994
11
129.6961890000000039
21
-88.2493549999999942
0
LINE
8
BLACK
6
CONTINUOUS
10
129.6961890000000039
20
-88.2493549999999942
11
129.9819029999999884
21
-88.5350689999999929
0
LINE
8
BLACK
6
CONTINUOUS
10
129.9819029999999884
20
-88.5350689999999929
11
129.6723790000000065
21
-88.5350689999999929
0
LINE
8
BLACK
6
CONTINUOUS
10
129.3628559999999936
20
-88.0350689999999929
11
129.3152369999999962
21
-88.0350689999999929
0
LINE
8
BLACK
6
CONTINUOUS
10
129.3152369999999962
20
-88.0350689999999929
11
129.2676179999999988
21
-88.0588789999999904
0
LINE
8
BLACK
6
CONTINUOUS
10
129.2676179999999988
20
-88.0588789999999904
11
129.2438080000000014
21
-88.0826879999999903
0
LINE
8
BLACK
6
CONTINUOUS
10
129.2438080000000014
20
-88.0826879999999903
11
129.2199990000000014
21
-88.1303070000000019
0
LINE
8
BLACK
6
CONTINUOUS
10
129.2199990000000014
20
-88.1303070000000019
11
129.1961890000000039
21
-88.2255449999999968
0
LINE
8
BLACK
6
CONTINUOUS
10
129.1961890000000039
20
-88.2255449999999968
11
129.1961890000000039
21
-88.344592999999989
0
LINE
8
BLACK
6
CONTINUOUS
10
129.1961890000000039
20
-88.344592999999989
11
129.2199990000000014
21
-88.4398309999999981
0
LINE
8
BLACK
6
CONTINUOUS
10
129.2199990000000014
20
-88.4398309999999981
11
129.2438080000000014
21
-88.4874499999999955
0
LINE
8
BLACK
6
CONTINUOUS
10
129.2438080000000014
20
-88.4874499999999955
11
129.2676179999999988
21
-88.5112599999999929
0
LINE
8
BLACK
6
CONTINUOUS
10
129.2676179999999988
20
-88.5112599999999929
11
129.3152369999999962
21
-88.5350689999999929
0
LINE
8
BLACK
6
CONTINUOUS
10
129.3152369999999962
20
-88.5350689999999929
11
129.3628559999999936
21
-88.5350689999999929
0
LINE
8
BLACK
6
CONTINUOUS
10
129.3628559999999936
20
-88.5350689999999929
11
129.410474999999991
21
-88.5112599999999929
0
LINE
8
BLACK
6
CONTINUOUS
10
129.410474999999991
20
-88.5112599999999929
11
129.434283999999991
21
-88.4874499999999955
0
LINE
8
BLACK
6
CONTINUOUS
10
129.434283999999991
20
-88.4874499999999955
11
129.4580939999999885
21
-88.4398309999999981
0
LINE
8
BLACK
6
CONTINUOUS
10
129.4580939999999885
20
-88.4398309999999981
11
129.4819029999999884
21
-88.344592999999989
0
LINE
8
BLACK
6
CONTINUOUS
10
129.4819029999999884
20
-88.344592999999989
11
129.4819029999999884
21
-88.2255449999999968
0
LINE
8
BLACK
6
CONTINUOUS
10
129.4819029999999884
20
-88.2255449999999968
11
129.4580939999999885
21
-88.1303070000000019
0
LINE
8
BLACK
6
CONTINUOUS
10
129.4580939999999885
20
-88.1303070000000019
11
129.434283999999991
21
-88.0826879999999903
0
LINE
8
BLACK
6
CONTINUOUS
10
129.434283999999991
20
-88.0826879999999903
11
129.410474999999991
21
-88.0588789999999904
0
LINE
8
BLACK
6
CONTINUOUS
10
129.410474999999991
20
-88.0588789999999904
11
129.3628559999999936
21
-88.0350689999999929
0
LINE
8
BLACK
6
CONTINUOUS
10
128.672380000000004
20
-88.0350689999999929
11
128.5057139999999833
21
-88.5350689999999929
0
LINE
8
BLACK
6
CONTINUOUS
10
128.5057139999999833
20
-88.5350689999999929
11
128.3390469999999937
21
-88.0350689999999929
0
LINE
8
BLACK
6
CONTINUOUS
10
127.9104759999999885
20
-88.5350689999999929
11
128.1961900000000014
21
-88.5350689999999929
0
LINE
8
BLACK
6
CONTINUOUS
10
128.0533329999999808
20
-88.5350689999999929
11
128.0533329999999808
21
-88.0350689999999929
0
LINE
8
BLACK
6
CONTINUOUS
10
128.0533329999999808
20
-88.0350689999999929
11
128.1009520000000066
21
-88.106498000000002
0
LINE
8
BLACK
6
CONTINUOUS
10
128.1009520000000066
20
-88.106498000000002
11
128.148571000000004
21
-88.1541169999999994
0
LINE
8
BLACK
6
CONTINUOUS
10
128.148571000000004
20
-88.1541169999999994
11
128.1961900000000014
21
-88.1779259999999994
0
LINE
8
BLACK
6
CONTINUOUS
10
127.4819049999999976
20
-88.0350689999999929
11
127.5771429999999924
21
-88.0350689999999929
0
LINE
8
BLACK
6
CONTINUOUS
10
127.5771429999999924
20
-88.0350689999999929
11
127.6247619999999898
21
-88.0588789999999904
0
LINE
8
BLACK
6
CONTINUOUS
10
127.6247619999999898
20
-88.0588789999999904
11
127.6485719999999873
21
-88.0826879999999903
0
LINE
8
BLACK
6
CONTINUOUS
10
127.6485719999999873
20
-88.0826879999999903
11
127.6961909999999989
21
-88.1541169999999994
0
LINE
8
BLACK
6
CONTINUOUS
10
127.6961909999999989
20
-88.1541169999999994
11
127.7199999999999989
21
-88.2493549999999942
0
LINE
8
BLACK
6
CONTINUOUS
10
127.7199999999999989
20
-88.2493549999999942
11
127.7199999999999989
21
-88.4398309999999981
0
LINE
8
BLACK
6
CONTINUOUS
10
127.7199999999999989
20
-88.4398309999999981
11
127.6961909999999989
21
-88.4874499999999955
0
LINE
8
BLACK
6
CONTINUOUS
10
127.6961909999999989
20
-88.4874499999999955
11
127.6723809999999872
21
-88.5112599999999929
0
LINE
8
BLACK
6
CONTINUOUS
10
127.6723809999999872
20
-88.5112599999999929
11
127.6247619999999898
21
-88.5350689999999929
0
LINE
8
BLACK
6
CONTINUOUS
10
127.6247619999999898
20
-88.5350689999999929
11
127.529523999999995
21
-88.5350689999999929
0
LINE
8
BLACK
6
CONTINUOUS
10
127.529523999999995
20
-88.5350689999999929
11
127.4819049999999976
21
-88.5112599999999929
0
LINE
8
BLACK
6
CONTINUOUS
10
127.4819049999999976
20
-88.5112599999999929
11
127.4580959999999976
21
-88.4874499999999955
0
LINE
8
BLACK
6
CONTINUOUS
10
127.4580959999999976
20
-88.4874499999999955
11
127.4342860000000002
21
-88.4398309999999981
0
LINE
8
BLACK
6
CONTINUOUS
10
127.4342860000000002
20
-88.4398309999999981
11
127.4342860000000002
21
-88.3207829999999916
0
LINE
8
BLACK
6
CONTINUOUS
10
127.4342860000000002
20
-88.3207829999999916
11
127.4580959999999976
21
-88.2731639999999942
0
LINE
8
BLACK
6
CONTINUOUS
10
127.4580959999999976
20
-88.2731639999999942
11
127.4819049999999976
21
-88.2493549999999942
0
LINE
8
BLACK
6
CONTINUOUS
10
127.4819049999999976
20
-88.2493549999999942
11
127.529523999999995
21
-88.2255449999999968
0
LINE
8
BLACK
6
CONTINUOUS
10
127.529523999999995
20
-88.2255449999999968
11
127.6247619999999898
21
-88.2255449999999968
0
LINE
8
BLACK
6
CONTINUOUS
10
127.6247619999999898
20
-88.2255449999999968
11
127.6723809999999872
21
-88.2493549999999942
0
LINE
8
BLACK
6
CONTINUOUS
10
127.6723809999999872
20
-88.2493549999999942
11
127.6961909999999989
21
-88.2731639999999942
0
LINE
8
BLACK
6
CONTINUOUS
10
127.6961909999999989
20
-88.2731639999999942
11
127.7199999999999989
21
-88.3207829999999916
0
LINE
8
BLACK
6
CONTINUOUS
10
126.8390489999999886
20
-88.5350689999999929
11
126.8390489999999886
21
-88.0350689999999929
0
LINE
8
BLACK
6
CONTINUOUS
10
126.8390489999999886
20
-88.0350689999999929
11
126.648572999999999
21
-88.0350689999999929
0
LINE
8
BLACK
6
CONTINUOUS
10
126.648572999999999
20
-88.0350689999999929
11
126.6009539999999873
21
-88.0588789999999904
0
LINE
8
BLACK
6
CONTINUOUS
10
126.6009539999999873
20
-88.0588789999999904
11
126.5771439999999899
21
-88.0826879999999903
0
LINE
8
BLACK
6
CONTINUOUS
10
126.5771439999999899
20
-88.0826879999999903
11
126.5533349999999899
21
-88.1303070000000019
0
LINE
8
BLACK
6
CONTINUOUS
10
126.5533349999999899
20
-88.1303070000000019
11
126.5533349999999899
21
-88.2017359999999968
0
LINE
8
BLACK
6
CONTINUOUS
10
126.5533349999999899
20
-88.2017359999999968
11
126.5771439999999899
21
-88.2493549999999942
0
LINE
8
BLACK
6
CONTINUOUS
10
126.5771439999999899
20
-88.2493549999999942
11
126.6009539999999873
21
-88.2731639999999942
0
LINE
8
BLACK
6
CONTINUOUS
10
126.6009539999999873
20
-88.2731639999999942
11
126.648572999999999
21
-88.2969739999999916
0
LINE
8
BLACK
6
CONTINUOUS
10
126.648572999999999
20
-88.2969739999999916
11
126.8390489999999886
21
-88.2969739999999916
0
LINE
8
BLACK
6
CONTINUOUS
10
126.0533349999999899
20
-88.4874499999999955
11
126.0771439999999899
21
-88.5112599999999929
0
LINE
8
BLACK
6
CONTINUOUS
10
126.0771439999999899
20
-88.5112599999999929
11
126.148572999999999
21
-88.5350689999999929
0
LINE
8
BLACK
6
CONTINUOUS
10
126.148572999999999
20
-88.5350689999999929
11
126.1961919999999964
21
-88.5350689999999929
0
LINE
8
BLACK
6
CONTINUOUS
10
126.1961919999999964
20
-88.5350689999999929
11
126.2676199999999938
21
-88.5112599999999929
0
LINE
8
BLACK
6
CONTINUOUS
10
126.2676199999999938
20
-88.5112599999999929
11
126.3152389999999912
21
-88.4636399999999981
0
LINE
8
BLACK
6
CONTINUOUS
10
126.3152389999999912
20
-88.4636399999999981
11
126.3390489999999886
21
-88.4160210000000006
0
LINE
8
BLACK
6
CONTINUOUS
10
126.3390489999999886
20
-88.4160210000000006
11
126.3628579999999886
21
-88.3207829999999916
0
LINE
8
BLACK
6
CONTINUOUS
10
126.3628579999999886
20
-88.3207829999999916
11
126.3628579999999886
21
-88.2493549999999942
0
LINE
8
BLACK
6
CONTINUOUS
10
126.3628579999999886
20
-88.2493549999999942
11
126.3390489999999886
21
-88.1541169999999994
0
LINE
8
BLACK
6
CONTINUOUS
10
126.3390489999999886
20
-88.1541169999999994
11
126.3152389999999912
21
-88.106498000000002
0
LINE
8
BLACK
6
CONTINUOUS
10
126.3152389999999912
20
-88.106498000000002
11
126.2676199999999938
21
-88.0588789999999904
0
LINE
8
BLACK
6
CONTINUOUS
10
126.2676199999999938
20
-88.0588789999999904
11
126.1961919999999964
21
-88.0350689999999929
0
LINE
8
BLACK
6
CONTINUOUS
10
126.1961919999999964
20
-88.0350689999999929
11
126.148572999999999
21
-88.0350689999999929
0
LINE
8
BLACK
6
CONTINUOUS
10
126.148572999999999
20
-88.0350689999999929
11
126.0771439999999899
21
-88.0588789999999904
0
LINE
8
BLACK
6
CONTINUOUS
10
126.0771439999999899
20
-88.0588789999999904
11
126.0533349999999899
21
-88.0826879999999903
0
LINE
8
BLACK
6
CONTINUOUS
10
125.6723819999999989
20
-88.2731639999999942
11
125.6009539999999873
21
-88.2969739999999916
0
LINE
8
BLACK
6
CONTINUOUS
10
125.6009539999999873
20
-88.2969739999999916
11
125.5771439999999899
21
-88.3207829999999916
0
LINE
8
BLACK
6
CONTINUOUS
10
125.5771439999999899
20
-88.3207829999999916
11
125.5533349999999899
21
-88.368401999999989
0
LINE
8
BLACK
6
CONTINUOUS
10
125.5533349999999899
20
-88.368401999999989
11
125.5533349999999899
21
-88.4398309999999981
0
LINE
8
BLACK
6
CONTINUOUS
10
125.5533349999999899
20
-88.4398309999999981
11
125.5771439999999899
21
-88.4874499999999955
0
LINE
8
BLACK
6
CONTINUOUS
10
125.5771439999999899
20
-88.4874499999999955
11
125.6009539999999873
21
-88.5112599999999929
0
LINE
8
BLACK
6
CONTINUOUS
10
125.6009539999999873
20
-88.5112599999999929
11
125.648572999999999
21
-88.5350689999999929
0
LINE
8
BLACK
6
CONTINUOUS
10
125.648572999999999
20
-88.5350689999999929
11
125.8390489999999886
21
-88.5350689999999929
0
LINE
8
BLACK
6
CONTINUOUS
10
125.8390489999999886
20
-88.5350689999999929
11
125.8390489999999886
21
-88.0350689999999929
0
LINE
8
BLACK
6
CONTINUOUS
10
125.8390489999999886
20
-88.0350689999999929
11
125.6723819999999989
21
-88.0350689999999929
0
LINE
8
BLACK
6
CONTINUOUS
10
125.6723819999999989
20
-88.0350689999999929
11
125.6247629999999873
21
-88.0588789999999904
0
LINE
8
BLACK
6
CONTINUOUS
10
125.6247629999999873
20
-88.0588789999999904
11
125.6009539999999873
21
-88.0826879999999903
0
LINE
8
BLACK
6
CONTINUOUS
10
125.6009539999999873
20
-88.0826879999999903
11
125.5771439999999899
21
-88.1303070000000019
0
LINE
8
BLACK
6
CONTINUOUS
10
125.5771439999999899
20
-88.1303070000000019
11
125.5771439999999899
21
-88.1779259999999994
0
LINE
8
BLACK
6
CONTINUOUS
10
125.5771439999999899
20
-88.1779259999999994
11
125.6009539999999873
21
-88.2255449999999968
0
LINE
8
BLACK
6
CONTINUOUS
10
125.6009539999999873
20
-88.2255449999999968
11
125.6247629999999873
21
-88.2493549999999942
0
LINE
8
BLACK
6
CONTINUOUS
10
125.6247629999999873
20
-88.2493549999999942
11
125.6723819999999989
21
-88.2731639999999942
0
LINE
8
BLACK
6
CONTINUOUS
10
125.6723819999999989
20
-88.2731639999999942
11
125.8390489999999886
21
-88.2731639999999942
0
LINE
8
BLACK
6
CONTINUOUS
10
135.3556329999999832
20
-83.6885699999999986
11
135.3556329999999832
21
-84.0695229999999896
0
LINE
8
BLACK
6
CONTINUOUS
10
135.3556329999999832
20
-84.3076179999999908
11
135.3556329999999832
21
-84.688570999999996
0
LINE
8
BLACK
6
CONTINUOUS
10
135.4984900000000039
20
-85.212379999999996
11
135.5223000000000013
21
-85.188570999999996
0
LINE
8
BLACK
6
CONTINUOUS
10
135.5223000000000013
20
-85.188570999999996
11
135.5461090000000013
21
-85.1171420000000012
0
LINE
8
BLACK
6
CONTINUOUS
10
135.5461090000000013
20
-85.1171420000000012
11
135.5461090000000013
21
-85.0695229999999896
0
LINE
8
BLACK
6
CONTINUOUS
10
135.5461090000000013
20
-85.0695229999999896
11
135.5223000000000013
21
-84.9980949999999922
0
LINE
8
BLACK
6
CONTINUOUS
10
135.5223000000000013
20
-84.9980949999999922
11
135.4746800000000064
21
-84.9504759999999948
0
LINE
8
BLACK
6
CONTINUOUS
10
135.4746800000000064
20
-84.9504759999999948
11
135.4270609999999806
21
-84.9266659999999973
0
LINE
8
BLACK
6
CONTINUOUS
10
135.4270609999999806
20
-84.9266659999999973
11
135.3318229999999858
21
-84.9028569999999974
0
LINE
8
BLACK
6
CONTINUOUS
10
135.3318229999999858
20
-84.9028569999999974
11
135.2603949999999884
21
-84.9028569999999974
0
LINE
8
BLACK
6
CONTINUOUS
10
135.2603949999999884
20
-84.9028569999999974
11
135.1651569999999936
21
-84.9266659999999973
0
LINE
8
BLACK
6
CONTINUOUS
10
135.1651569999999936
20
-84.9266659999999973
11
135.1175379999999961
21
-84.9504759999999948
0
LINE
8
BLACK
6
CONTINUOUS
10
135.1175379999999961
20
-84.9504759999999948
11
135.0699189999999987
21
-84.9980949999999922
0
LINE
8
BLACK
6
CONTINUOUS
10
135.0699189999999987
20
-84.9980949999999922
11
135.0461090000000013
21
-85.0695229999999896
0
LINE
8
BLACK
6
CONTINUOUS
10
135.0461090000000013
20
-85.0695229999999896
11
135.0461090000000013
21
-85.1171420000000012
0
LINE
8
BLACK
6
CONTINUOUS
10
135.0461090000000013
20
-85.1171420000000012
11
135.0699189999999987
21
-85.188570999999996
0
LINE
8
BLACK
6
CONTINUOUS
10
135.0699189999999987
20
-85.188570999999996
11
135.0937279999999987
21
-85.212379999999996
0
LINE
8
BLACK
6
CONTINUOUS
10
135.0461090000000013
20
-85.4266659999999973
11
135.4508710000000065
21
-85.4266659999999973
0
LINE
8
BLACK
6
CONTINUOUS
10
135.4508710000000065
20
-85.4266659999999973
11
135.4984900000000039
21
-85.4504759999999948
0
LINE
8
BLACK
6
CONTINUOUS
10
135.4984900000000039
20
-85.4504759999999948
11
135.5223000000000013
21
-85.4742849999999947
0
LINE
8
BLACK
6
CONTINUOUS
10
135.5223000000000013
20
-85.4742849999999947
11
135.5461090000000013
21
-85.5219039999999922
0
LINE
8
BLACK
6
CONTINUOUS
10
135.5461090000000013
20
-85.5219039999999922
11
135.5461090000000013
21
-85.6171420000000012
0
LINE
8
BLACK
6
CONTINUOUS
10
135.5461090000000013
20
-85.6171420000000012
11
135.5223000000000013
21
-85.6647609999999986
0
LINE
8
BLACK
6
CONTINUOUS
10
135.5223000000000013
20
-85.6647609999999986
11
135.4984900000000039
21
-85.688570999999996
0
LINE
8
BLACK
6
CONTINUOUS
10
135.4984900000000039
20
-85.688570999999996
11
135.4508710000000065
21
-85.712379999999996
0
LINE
8
BLACK
6
CONTINUOUS
10
135.4508710000000065
20
-85.712379999999996
11
135.0461090000000013
21
-85.712379999999996
0
LINE
8
BLACK
6
CONTINUOUS
10
135.0461090000000013
20
-85.8790479999999974
11
135.0461090000000013
21
-86.1647619999999961
0
LINE
8
BLACK
6
CONTINUOUS
10
135.5461090000000013
20
-86.0219049999999896
11
135.0461090000000013
21
-86.0219049999999896
0
LINE
8
BLACK
6
CONTINUOUS
10
135.3556329999999832
20
-86.3314280000000025
11
135.3556329999999832
21
-86.7123809999999935
0
LINE
8
BLACK
6
CONTINUOUS
10
135.3556329999999832
20
-86.9504759999999948
11
135.3556329999999832
21
-87.331429
0
LINE
8
BLACK
6
CONTINUOUS
10
128.053420999999986
20
-89.5322120000000012
11
127.9818169999999924
21
-89.5322120000000012
0
LINE
8
BLACK
6
CONTINUOUS
10
127.9818169999999924
20
-89.5322120000000012
11
128.0176179999999988
21
-89.4248059999999896
0
LINE
8
BLACK
6
CONTINUOUS
10
128.0176179999999988
20
-89.4248059999999896
11
128.053420999999986
21
-89.5322120000000012
0
LINE
8
BLACK
6
CONTINUOUS
10
132.6614260000000058
20
-89.8550690000000003
11
126.2785709999999995
21
-89.8550690000000003
0
LINE
8
BLACK
6
CONTINUOUS
10
126.2785709999999995
20
-89.8550690000000003
11
126.2785709999999995
21
-89.5922119999999893
0
LINE
8
BLACK
6
CONTINUOUS
10
126.2785709999999995
20
-89.5922119999999893
11
126.3385709999999875
21
-89.5922119999999893
0
LINE
8
BLACK
6
CONTINUOUS
10
126.3385709999999875
20
-89.5922119999999893
11
126.3385709999999875
21
-89.6398310000000009
0
LINE
8
BLACK
6
CONTINUOUS
10
126.3385709999999875
20
-89.6398310000000009
11
126.3391570000000002
21
-89.6427779999999927
0
LINE
8
BLACK
6
CONTINUOUS
10
126.3391570000000002
20
-89.6427779999999927
11
126.33872199999999
21
-89.6440849999999898
0
LINE
8
BLACK
6
CONTINUOUS
10
126.33872199999999
20
-89.6440849999999898
11
126.3412609999999887
21
-89.6533549999999906
0
LINE
8
BLACK
6
CONTINUOUS
10
126.3412609999999887
20
-89.6533549999999906
11
126.3431379999999962
21
-89.6627919999999961
0
LINE
8
BLACK
6
CONTINUOUS
10
126.3431379999999962
20
-89.6627919999999961
11
126.3441119999999955
21
-89.6637659999999954
0
LINE
8
BLACK
6
CONTINUOUS
10
126.3441119999999955
20
-89.6637659999999954
11
126.3449059999999946
21
-89.6666639999999973
0
LINE
8
BLACK
6
CONTINUOUS
10
126.3449059999999946
20
-89.6666639999999973
11
126.3687159999999921
21
-89.7142829999999947
0
LINE
8
BLACK
6
CONTINUOUS
10
126.3687159999999921
20
-89.7142829999999947
11
126.3746109999999874
21
-89.7218790000000013
0
LINE
8
BLACK
6
CONTINUOUS
10
126.3746109999999874
20
-89.7218790000000013
11
126.3799539999999979
21
-89.7298759999999902
0
LINE
8
BLACK
6
CONTINUOUS
10
126.3799539999999979
20
-89.7298759999999902
11
126.4037629999999979
21
-89.7536860000000019
0
LINE
8
BLACK
6
CONTINUOUS
10
126.4037629999999979
20
-89.7536860000000019
11
126.4117609999999985
21
-89.7590309999999931
0
LINE
8
BLACK
6
CONTINUOUS
10
126.4117609999999985
20
-89.7590309999999931
11
126.4193579999999884
21
-89.7649260000000027
0
LINE
8
BLACK
6
CONTINUOUS
10
126.4193579999999884
20
-89.7649260000000027
11
126.4669759999999883
21
-89.7887350000000026
0
LINE
8
BLACK
6
CONTINUOUS
10
126.4669759999999883
20
-89.7887350000000026
11
126.4698739999999901
21
-89.78952799999999
0
LINE
8
BLACK
6
CONTINUOUS
10
126.4698739999999901
20
-89.78952799999999
11
126.4708479999999895
21
-89.7905019999999894
0
LINE
8
BLACK
6
CONTINUOUS
10
126.4708479999999895
20
-89.7905019999999894
11
126.4802799999999934
21
-89.7923779999999994
0
LINE
8
BLACK
6
CONTINUOUS
10
126.4802799999999934
20
-89.7923779999999994
11
126.4895559999999932
21
-89.7949179999999956
0
LINE
8
BLACK
6
CONTINUOUS
10
126.4895559999999932
20
-89.7949179999999956
11
126.4908609999999953
21
-89.7944820000000021
0
LINE
8
BLACK
6
CONTINUOUS
10
126.4908609999999953
20
-89.7944820000000021
11
126.4938089999999988
21
-89.795068999999998
0
LINE
8
BLACK
6
CONTINUOUS
10
126.4938089999999988
20
-89.795068999999998
11
126.6128569999999911
21
-89.795068999999998
0
LINE
8
BLACK
6
CONTINUOUS
10
126.6128569999999911
20
-89.795068999999998
11
126.6222909999999899
21
-89.7931919999999906
0
LINE
8
BLACK
6
CONTINUOUS
10
126.6222909999999899
20
-89.7931919999999906
11
126.6318299999999937
21
-89.7919899999999984
0
LINE
8
BLACK
6
CONTINUOUS
10
126.6318299999999937
20
-89.7919899999999984
11
126.7032589999999885
21
-89.7681809999999984
0
LINE
8
BLACK
6
CONTINUOUS
10
126.7032589999999885
20
-89.7681809999999984
11
126.723596999999998
21
-89.7565869999999961
0
LINE
8
BLACK
6
CONTINUOUS
10
126.723596999999998
20
-89.7565869999999961
11
126.744135
21
-89.7155130000000014
0
LINE
8
BLACK
6
CONTINUOUS
10
126.744135
20
-89.7155130000000014
11
126.7296130000000005
21
-89.6719480000000004
0
LINE
8
BLACK
6
CONTINUOUS
10
126.7296130000000005
20
-89.6719480000000004
11
126.6885389999999916
21
-89.651410999999996
0
LINE
8
BLACK
6
CONTINUOUS
10
126.6885389999999916
20
-89.651410999999996
11
126.6653120000000001
21
-89.6543389999999931
0
LINE
8
BLACK
6
CONTINUOUS
10
126.6653120000000001
20
-89.6543389999999931
11
126.6031209999999874
21
-89.6750689999999935
0
LINE
8
BLACK
6
CONTINUOUS
10
126.6031209999999874
20
-89.6750689999999935
11
126.5079729999999927
21
-89.6750689999999935
0
LINE
8
BLACK
6
CONTINUOUS
10
126.5079729999999927
20
-89.6750689999999935
11
126.4817299999999989
21
-89.6619479999999953
0
LINE
8
BLACK
6
CONTINUOUS
10
126.4817299999999989
20
-89.6619479999999953
11
126.4716909999999928
21
-89.6519069999999942
0
LINE
8
BLACK
6
CONTINUOUS
10
126.4716909999999928
20
-89.6519069999999942
11
126.4585709999999921
21
-89.6256669999999929
0
LINE
8
BLACK
6
CONTINUOUS
10
126.4585709999999921
20
-89.6256669999999929
11
126.4585709999999921
21
-89.6063749999999999
0
LINE
8
BLACK
6
CONTINUOUS
10
126.4585709999999921
20
-89.6063749999999999
11
126.4716909999999928
21
-89.5801349999999985
0
LINE
8
BLACK
6
CONTINUOUS
10
126.4716909999999928
20
-89.5801349999999985
11
126.4817299999999989
21
-89.5700939999999974
0
LINE
8
BLACK
6
CONTINUOUS
10
126.4817299999999989
20
-89.5700939999999974
11
126.5147519999999872
21
-89.5535840000000007
0
LINE
8
BLACK
6
CONTINUOUS
10
126.5147519999999872
20
-89.5535840000000007
11
126.6035989999999885
21
-89.5313730000000021
0
LINE
8
BLACK
6
CONTINUOUS
10
126.6035989999999885
20
-89.5313730000000021
11
126.6095419999999905
21
-89.5285650000000004
0
LINE
8
BLACK
6
CONTINUOUS
10
126.6095419999999905
20
-89.5285650000000004
11
126.6158789999999925
21
-89.5268299999999897
0
LINE
8
BLACK
6
CONTINUOUS
10
126.6158789999999925
20
-89.5268299999999897
11
126.6634979999999899
21
-89.5030209999999897
0
LINE
8
BLACK
6
CONTINUOUS
10
126.6634979999999899
20
-89.5030209999999897
11
126.6710999999999956
21
-89.4971209999999928
0
LINE
8
BLACK
6
CONTINUOUS
10
126.6710999999999956
20
-89.4971209999999928
11
126.6790919999999971
21
-89.4917809999999889
0
LINE
8
BLACK
6
CONTINUOUS
10
126.6790919999999971
20
-89.4917809999999889
11
126.7029019999999946
21
-89.467971999999989
0
LINE
8
BLACK
6
CONTINUOUS
10
126.7029019999999946
20
-89.467971999999989
11
126.7082449999999909
21
-89.459975
0
LINE
8
BLACK
6
CONTINUOUS
10
126.7082449999999909
20
-89.459975
11
126.7141419999999954
21
-89.4523769999999985
0
LINE
8
BLACK
6
CONTINUOUS
10
126.7141419999999954
20
-89.4523769999999985
11
126.7379509999999954
21
-89.4047589999999985
0
LINE
8
BLACK
6
CONTINUOUS
10
126.7379509999999954
20
-89.4047589999999985
11
126.738743999999997
21
-89.4018599999999992
0
LINE
8
BLACK
6
CONTINUOUS
10
126.738743999999997
20
-89.4018599999999992
11
126.7397179999999963
21
-89.4008869999999973
0
LINE
8
BLACK
6
CONTINUOUS
10
126.7397179999999963
20
-89.4008869999999973
11
126.7415939999999921
21
-89.391453999999996
0
LINE
8
BLACK
6
CONTINUOUS
10
126.7415939999999921
20
-89.391453999999996
11
126.7441339999999883
21
-89.3821789999999936
0
LINE
8
BLACK
6
CONTINUOUS
10
126.7441339999999883
20
-89.3821789999999936
11
126.7436979999999949
21
-89.380872999999994
0
LINE
8
BLACK
6
CONTINUOUS
10
126.7436979999999949
20
-89.380872999999994
11
126.7442849999999908
21
-89.3779260000000022
0
LINE
8
BLACK
6
CONTINUOUS
10
126.7442849999999908
20
-89.3779260000000022
11
126.7442849999999908
21
-89.3303069999999906
0
LINE
8
BLACK
6
CONTINUOUS
10
126.7442849999999908
20
-89.3303069999999906
11
126.7436979999999949
21
-89.3273590000000013
0
LINE
8
BLACK
6
CONTINUOUS
10
126.7436979999999949
20
-89.3273590000000013
11
126.7441339999999883
21
-89.3260539999999992
0
LINE
8
BLACK
6
CONTINUOUS
10
126.7441339999999883
20
-89.3260539999999992
11
126.7415939999999921
21
-89.3167779999999993
0
LINE
8
BLACK
6
CONTINUOUS
10
126.7415939999999921
20
-89.3167779999999993
11
126.7397179999999963
21
-89.3073459999999955
0
LINE
8
BLACK
6
CONTINUOUS
10
126.7397179999999963
20
-89.3073459999999955
11
126.738743999999997
21
-89.3063719999999961
0
LINE
8
BLACK
6
CONTINUOUS
10
126.738743999999997
20
-89.3063719999999961
11
126.7379509999999954
21
-89.3034739999999942
0
LINE
8
BLACK
6
CONTINUOUS
10
126.7379509999999954
20
-89.3034739999999942
11
126.7141419999999954
21
-89.2558559999999943
0
LINE
8
BLACK
6
CONTINUOUS
10
126.7141419999999954
20
-89.2558559999999943
11
126.7082470000000001
21
-89.2482589999999902
0
LINE
8
BLACK
6
CONTINUOUS
10
126.7082470000000001
20
-89.2482589999999902
11
126.7029019999999946
21
-89.2402609999999896
0
LINE
8
BLACK
6
CONTINUOUS
10
126.7029019999999946
20
-89.2402609999999896
11
126.6790919999999971
21
-89.2164519999999897
0
LINE
8
BLACK
6
CONTINUOUS
10
126.6790919999999971
20
-89.2164519999999897
11
126.6725899999999996
21
-89.2121080000000006
0
LINE
8
BLACK
6
CONTINUOUS
10
126.6725899999999996
20
-89.2121080000000006
11
126.8193289999999962
21
-89.2121080000000006
0
LINE
8
BLACK
6
CONTINUOUS
10
126.8193289999999962
20
-89.2121080000000006
11
126.8193289999999962
21
-89.2580299999999909
0
LINE
8
BLACK
6
CONTINUOUS
10
126.8193289999999962
20
-89.2580299999999909
11
126.8518009999999947
21
-89.2905019999999894
0
LINE
8
BLACK
6
CONTINUOUS
10
126.8518009999999947
20
-89.2905019999999894
11
126.8747619999999898
21
-89.295068999999998
0
LINE
8
BLACK
6
CONTINUOUS
10
126.8747619999999898
20
-89.295068999999998
11
127.0528569999999888
21
-89.295068999999998
0
LINE
8
BLACK
6
CONTINUOUS
10
127.0528569999999888
20
-89.295068999999998
11
127.0528569999999888
21
-89.4131639999999948
0
LINE
8
BLACK
6
CONTINUOUS
10
127.0528569999999888
20
-89.4131639999999948
11
126.9461899999999872
21
-89.4131639999999948
0
LINE
8
BLACK
6
CONTINUOUS
10
126.9461899999999872
20
-89.4131639999999948
11
126.9232289999999921
21
-89.4177309999999892
0
LINE
8
BLACK
6
CONTINUOUS
10
126.9232289999999921
20
-89.4177309999999892
11
126.8907569999999936
21
-89.4502030000000019
0
LINE
8
BLACK
6
CONTINUOUS
10
126.8907569999999936
20
-89.4502030000000019
11
126.8907569999999936
21
-89.4961249999999922
0
LINE
8
BLACK
6
CONTINUOUS
10
126.8907569999999936
20
-89.4961249999999922
11
126.9232289999999921
21
-89.5285969999999907
0
LINE
8
BLACK
6
CONTINUOUS
10
126.9232289999999921
20
-89.5285969999999907
11
126.9461899999999872
21
-89.5331639999999993
0
LINE
8
BLACK
6
CONTINUOUS
10
126.9461899999999872
20
-89.5331639999999993
11
127.0528569999999888
21
-89.5331639999999993
0
LINE
8
BLACK
6
CONTINUOUS
10
127.0528569999999888
20
-89.5331639999999993
11
127.0528569999999888
21
-89.6750689999999935
0
LINE
8
BLACK
6
CONTINUOUS
10
127.0528569999999888
20
-89.6750689999999935
11
126.8747619999999898
21
-89.6750689999999935
0
LINE
8
BLACK
6
CONTINUOUS
10
126.8747619999999898
20
-89.6750689999999935
11
126.8518009999999947
21
-89.6796360000000021
0
LINE
8
BLACK
6
CONTINUOUS
10
126.8518009999999947
20
-89.6796360000000021
11
126.8193289999999962
21
-89.7121080000000006
0
LINE
8
BLACK
6
CONTINUOUS
10
126.8193289999999962
20
-89.7121080000000006
11
126.8193289999999962
21
-89.7580299999999909
0
LINE
8
BLACK
6
CONTINUOUS
10
126.8193289999999962
20
-89.7580299999999909
11
126.8518009999999947
21
-89.7905019999999894
0
LINE
8
BLACK
6
CONTINUOUS
10
126.8518009999999947
20
-89.7905019999999894
11
126.8747619999999898
21
-89.795068999999998
0
LINE
8
BLACK
6
CONTINUOUS
10
126.8747619999999898
20
-89.795068999999998
11
127.1128569999999911
21
-89.795068999999998
0
LINE
8
BLACK
6
CONTINUOUS
10
127.1128569999999911
20
-89.795068999999998
11
127.1358180000000004
21
-89.7905019999999894
0
LINE
8
BLACK
6
CONTINUOUS
10
127.1358180000000004
20
-89.7905019999999894
11
127.1682899999999989
21
-89.7580299999999909
0
LINE
8
BLACK
6
CONTINUOUS
10
127.1682899999999989
20
-89.7580299999999909
11
127.1728569999999934
21
-89.7350689999999958
0
LINE
8
BLACK
6
CONTINUOUS
10
127.1728569999999934
20
-89.7350689999999958
11
127.1728569999999934
21
-89.2350689999999958
0
LINE
8
BLACK
6
CONTINUOUS
10
127.1728569999999934
20
-89.2350689999999958
11
127.2909529999999876
21
-89.2350689999999958
0
LINE
8
BLACK
6
CONTINUOUS
10
127.2909529999999876
20
-89.2350689999999958
11
127.2909529999999876
21
-89.7350689999999958
0
LINE
8
BLACK
6
CONTINUOUS
10
127.2909529999999876
20
-89.7350689999999958
11
127.2955199999999962
21
-89.7580299999999909
0
LINE
8
BLACK
6
CONTINUOUS
10
127.2955199999999962
20
-89.7580299999999909
11
127.3279919999999947
21
-89.7905019999999894
0
LINE
8
BLACK
6
CONTINUOUS
10
127.3279919999999947
20
-89.7905019999999894
11
127.3739139999999992
21
-89.7905019999999894
0
LINE
8
BLACK
6
CONTINUOUS
10
127.3739139999999992
20
-89.7905019999999894
11
127.4063859999999977
21
-89.7580299999999909
0
LINE
8
BLACK
6
CONTINUOUS
10
127.4063859999999977
20
-89.7580299999999909
11
127.4109529999999921
21
-89.7350689999999958
0
LINE
8
BLACK
6
CONTINUOUS
10
127.4109529999999921
20
-89.7350689999999958
11
127.4109529999999921
21
-89.5055229999999966
0
LINE
8
BLACK
6
CONTINUOUS
10
127.4109529999999921
20
-89.5055229999999966
11
127.463247999999993
21
-89.6175849999999912
0
LINE
8
BLACK
6
CONTINUOUS
10
127.463247999999993
20
-89.6175849999999912
11
127.4723939999999942
21
-89.6300499999999971
0
LINE
8
BLACK
6
CONTINUOUS
10
127.4723939999999942
20
-89.6300499999999971
11
127.4733699999999885
21
-89.6327349999999967
0
LINE
8
BLACK
6
CONTINUOUS
10
127.4733699999999885
20
-89.6327349999999967
11
127.4748799999999989
21
-89.6334389999999956
0
LINE
8
BLACK
6
CONTINUOUS
10
127.4748799999999989
20
-89.6334389999999956
11
127.4770970000000005
21
-89.6364609999999971
0
LINE
8
BLACK
6
CONTINUOUS
10
127.4770970000000005
20
-89.6364609999999971
11
127.4963869999999986
21
-89.6434749999999951
0
LINE
8
BLACK
6
CONTINUOUS
10
127.4963869999999986
20
-89.6434749999999951
11
127.5149839999999983
21
-89.6521539999999959
0
LINE
8
BLACK
6
CONTINUOUS
10
127.5149839999999983
20
-89.6521539999999959
11
127.5176170000000013
21
-89.6511959999999988
0
LINE
8
BLACK
6
CONTINUOUS
10
127.5176170000000013
20
-89.6511959999999988
11
127.5202539999999942
21
-89.6521549999999934
0
LINE
8
BLACK
6
CONTINUOUS
10
127.5202539999999942
20
-89.6521549999999934
11
127.5388579999999905
21
-89.6434720000000027
0
LINE
8
BLACK
6
CONTINUOUS
10
127.5388579999999905
20
-89.6434720000000027
11
127.5581419999999895
21
-89.6364609999999971
0
LINE
8
BLACK
6
CONTINUOUS
10
127.5581419999999895
20
-89.6364609999999971
11
127.5603579999999937
21
-89.6334389999999956
0
LINE
8
BLACK
6
CONTINUOUS
10
127.5603579999999937
20
-89.6334389999999956
11
127.5618679999999898
21
-89.6327349999999967
0
LINE
8
BLACK
6
CONTINUOUS
10
127.5618679999999898
20
-89.6327349999999967
11
127.5628430000000009
21
-89.6300519999999921
0
LINE
8
BLACK
6
CONTINUOUS
10
127.5628430000000009
20
-89.6300519999999921
11
127.5719899999999996
21
-89.6175849999999912
0
LINE
8
BLACK
6
CONTINUOUS
10
127.5719899999999996
20
-89.6175849999999912
11
127.6242859999999979
21
-89.5055219999999991
0
LINE
8
BLACK
6
CONTINUOUS
10
127.6242859999999979
20
-89.5055219999999991
11
127.6242859999999979
21
-89.7350689999999958
0
LINE
8
BLACK
6
CONTINUOUS
10
127.6242859999999979
20
-89.7350689999999958
11
127.6288529999999923
21
-89.7580299999999909
0
LINE
8
BLACK
6
CONTINUOUS
10
127.6288529999999923
20
-89.7580299999999909
11
127.6613249999999908
21
-89.7905019999999894
0
LINE
8
BLACK
6
CONTINUOUS
10
127.6613249999999908
20
-89.7905019999999894
11
127.7072469999999953
21
-89.7905019999999894
0
LINE
8
BLACK
6
CONTINUOUS
10
127.7072469999999953
20
-89.7905019999999894
11
127.7397189999999938
21
-89.7580299999999909
0
LINE
8
BLACK
6
CONTINUOUS
10
127.7397189999999938
20
-89.7580299999999909
11
127.7434399999999926
21
-89.7393220000000014
0
LINE
8
BLACK
6
CONTINUOUS
10
127.7434399999999926
20
-89.7393220000000014
11
127.7911029999999926
21
-89.7393220000000014
0
LINE
8
BLACK
6
CONTINUOUS
10
127.7911029999999926
20
-89.7393220000000014
11
127.811639999999997
21
-89.7803959999999961
0
LINE
8
BLACK
6
CONTINUOUS
10
127.811639999999997
20
-89.7803959999999961
11
127.855204999999998
21
-89.7949179999999956
0
LINE
8
BLACK
6
CONTINUOUS
10
127.855204999999998
20
-89.7949179999999956
11
127.8962789999999927
21
-89.7743809999999911
0
LINE
8
BLACK
6
CONTINUOUS
10
127.8962789999999927
20
-89.7743809999999911
11
127.907872999999995
21
-89.7540429999999958
0
LINE
8
BLACK
6
CONTINUOUS
10
127.907872999999995
20
-89.7540429999999958
11
127.9418170000000003
21
-89.6522119999999916
0
LINE
8
BLACK
6
CONTINUOUS
10
127.9418170000000003
20
-89.6522119999999916
11
128.0934199999999805
21
-89.6522119999999916
0
LINE
8
BLACK
6
CONTINUOUS
10
128.0934199999999805
20
-89.6522119999999916
11
128.127364
21
-89.7540429999999958
0
LINE
8
BLACK
6
CONTINUOUS
10
128.127364
20
-89.7540429999999958
11
128.1389570000000049
21
-89.7743809999999911
0
LINE
8
BLACK
6
CONTINUOUS
10
128.1389570000000049
20
-89.7743809999999911
11
128.1800319999999829
21
-89.7949179999999956
0
LINE
8
BLACK
6
CONTINUOUS
10
128.1800319999999829
20
-89.7949179999999956
11
128.2235969999999838
21
-89.7803959999999961
0
LINE
8
BLACK
6
CONTINUOUS
10
128.2235969999999838
20
-89.7803959999999961
11
128.2441340000000025
21
-89.7393220000000014
0
LINE
8
BLACK
6
CONTINUOUS
10
128.2441340000000025
20
-89.7393220000000014
11
128.2412060000000054
21
-89.7160949999999957
0
LINE
8
BLACK
6
CONTINUOUS
10
128.2412060000000054
20
-89.7160949999999957
11
128.176101999999986
21
-89.5207829999999944
0
LINE
8
BLACK
6
CONTINUOUS
10
128.176101999999986
20
-89.5207829999999944
11
128.2671430000000043
21
-89.5207829999999944
0
LINE
8
BLACK
6
CONTINUOUS
10
128.2671430000000043
20
-89.5207829999999944
11
128.2671430000000043
21
-89.6874499999999983
0
LINE
8
BLACK
6
CONTINUOUS
10
128.2671430000000043
20
-89.6874499999999983
11
128.2717099999999846
21
-89.7104109999999935
0
LINE
8
BLACK
6
CONTINUOUS
10
128.2717099999999846
20
-89.7104109999999935
11
128.2717120000000079
21
-89.7104130000000026
0
LINE
8
BLACK
6
CONTINUOUS
10
128.2717120000000079
20
-89.7104130000000026
11
128.2847160000000031
21
-89.7298759999999902
0
LINE
8
BLACK
6
CONTINUOUS
10
128.2847160000000031
20
-89.7298759999999902
11
128.308525000000003
21
-89.7536860000000019
0
LINE
8
BLACK
6
CONTINUOUS
10
128.308525000000003
20
-89.7536860000000019
11
128.3110230000000058
21
-89.7553549999999944
0
LINE
8
BLACK
6
CONTINUOUS
10
128.3110230000000058
20
-89.7553549999999944
11
128.3116399999999828
21
-89.7565879999999936
0
LINE
8
BLACK
6
CONTINUOUS
10
128.3116399999999828
20
-89.7565879999999936
11
128.319991999999985
21
-89.7613479999999981
0
LINE
8
BLACK
6
CONTINUOUS
10
128.319991999999985
20
-89.7613479999999981
11
128.3279899999999998
21
-89.7666929999999894
0
LINE
8
BLACK
6
CONTINUOUS
10
128.3279899999999998
20
-89.7666929999999894
11
128.3293679999999881
21
-89.7666929999999894
0
LINE
8
BLACK
6
CONTINUOUS
10
128.3293679999999881
20
-89.7666929999999894
11
128.3319789999999898
21
-89.7681809999999984
0
LINE
8
BLACK
6
CONTINUOUS
10
128.3319789999999898
20
-89.7681809999999984
11
128.4034079999999847
21
-89.7919899999999984
0
LINE
8
BLACK
6
CONTINUOUS
10
128.4034079999999847
20
-89.7919899999999984
11
128.4129460000000051
21
-89.7931919999999906
0
LINE
8
BLACK
6
CONTINUOUS
10
128.4129460000000051
20
-89.7931919999999906
11
128.4223810000000014
21
-89.795068999999998
0
LINE
8
BLACK
6
CONTINUOUS
10
128.4223810000000014
20
-89.795068999999998
11
128.4699999999999989
21
-89.795068999999998
0
LINE
8
BLACK
6
CONTINUOUS
10
128.4699999999999989
20
-89.795068999999998
11
128.4794339999999977
21
-89.7931919999999906
0
LINE
8
BLACK
6
CONTINUOUS
10
128.4794339999999977
20
-89.7931919999999906
11
128.4889729999999872
21
-89.7919899999999984
0
LINE
8
BLACK
6
CONTINUOUS
10
128.4889729999999872
20
-89.7919899999999984
11
128.5604019999999821
21
-89.7681809999999984
0
LINE
8
BLACK
6
CONTINUOUS
10
128.5604019999999821
20
-89.7681809999999984
11
128.5630119999999863
21
-89.7666929999999894
0
LINE
8
BLACK
6
CONTINUOUS
10
128.5630119999999863
20
-89.7666929999999894
11
128.5643900000000031
21
-89.7666929999999894
0
LINE
8
BLACK
6
CONTINUOUS
10
128.5643900000000031
20
-89.7666929999999894
11
128.5723909999999819
21
-89.761345999999989
0
LINE
8
BLACK
6
CONTINUOUS
10
128.5723909999999819
20
-89.761345999999989
11
128.5807399999999916
21
-89.7565869999999961
0
LINE
8
BLACK
6
CONTINUOUS
10
128.5807399999999916
20
-89.7565869999999961
11
128.5813550000000021
21
-89.7553559999999919
0
LINE
8
BLACK
6
CONTINUOUS
10
128.5813550000000021
20
-89.7553559999999919
11
128.5838549999999998
21
-89.7536860000000019
0
LINE
8
BLACK
6
CONTINUOUS
10
128.5838549999999998
20
-89.7536860000000019
11
128.6314739999999972
21
-89.7060659999999928
0
LINE
8
BLACK
6
CONTINUOUS
10
128.6314739999999972
20
-89.7060659999999928
11
128.6368180000000052
21
-89.6980659999999972
0
LINE
8
BLACK
6
CONTINUOUS
10
128.6368180000000052
20
-89.6980659999999972
11
128.6427119999999888
21
-89.6904729999999972
0
LINE
8
BLACK
6
CONTINUOUS
10
128.6427119999999888
20
-89.6904729999999972
11
128.6665219999999863
21
-89.6428539999999998
0
LINE
8
BLACK
6
CONTINUOUS
10
128.6665219999999863
20
-89.6428539999999998
11
128.6682569999999828
21
-89.6365179999999953
0
LINE
8
BLACK
6
CONTINUOUS
10
128.6682569999999828
20
-89.6365179999999953
11
128.6710659999999962
21
-89.6305729999999983
0
LINE
8
BLACK
6
CONTINUOUS
10
128.6710659999999962
20
-89.6305729999999983
11
128.6948749999999961
21
-89.5353349999999892
0
LINE
8
BLACK
6
CONTINUOUS
10
128.6948749999999961
20
-89.5353349999999892
11
128.6952320000000043
21
-89.5279900000000026
0
LINE
8
BLACK
6
CONTINUOUS
10
128.6952320000000043
20
-89.5279900000000026
11
128.6966659999999933
21
-89.5207829999999944
0
LINE
8
BLACK
6
CONTINUOUS
10
128.6966659999999933
20
-89.5207829999999944
11
128.6966659999999933
21
-89.4493549999999971
0
LINE
8
BLACK
6
CONTINUOUS
10
128.6966659999999933
20
-89.4493549999999971
11
128.6952320000000043
21
-89.4421469999999914
0
LINE
8
BLACK
6
CONTINUOUS
10
128.6952320000000043
20
-89.4421469999999914
11
128.6948749999999961
21
-89.4348030000000023
0
LINE
8
BLACK
6
CONTINUOUS
10
128.6948749999999961
20
-89.4348030000000023
11
128.6710659999999962
21
-89.3395649999999932
0
LINE
8
BLACK
6
CONTINUOUS
10
128.6710659999999962
20
-89.3395649999999932
11
128.6682569999999828
21
-89.3336189999999988
0
LINE
8
BLACK
6
CONTINUOUS
10
128.6682569999999828
20
-89.3336189999999988
11
128.6665219999999863
21
-89.3272839999999917
0
LINE
8
BLACK
6
CONTINUOUS
10
128.6665219999999863
20
-89.3272839999999917
11
128.6427119999999888
21
-89.2796649999999943
0
LINE
8
BLACK
6
CONTINUOUS
10
128.6427119999999888
20
-89.2796649999999943
11
128.6368170000000077
21
-89.2720690000000019
0
LINE
8
BLACK
6
CONTINUOUS
10
128.6368170000000077
20
-89.2720690000000019
11
128.6314729999999997
21
-89.2640710000000013
0
LINE
8
BLACK
6
CONTINUOUS
10
128.6314729999999997
20
-89.2640710000000013
11
128.6271289999999965
21
-89.259726999999998
0
LINE
8
BLACK
6
CONTINUOUS
10
128.6271289999999965
20
-89.259726999999998
11
129.1526619999999923
21
-89.259726999999998
0
LINE
8
BLACK
6
CONTINUOUS
10
129.1526619999999923
20
-89.259726999999998
11
129.1526619999999923
21
-89.3056490000000025
0
LINE
8
BLACK
6
CONTINUOUS
10
129.1526619999999923
20
-89.3056490000000025
11
129.185134000000005
21
-89.338121000000001
0
LINE
8
BLACK
6
CONTINUOUS
10
129.185134000000005
20
-89.338121000000001
11
129.2310559999999953
21
-89.338121000000001
0
LINE
8
BLACK
6
CONTINUOUS
10
129.2310559999999953
20
-89.338121000000001
11
129.250520999999992
21
-89.3251139999999992
0
LINE
8
BLACK
6
CONTINUOUS
10
129.250520999999992
20
-89.3251139999999992
11
129.2643129999999871
21
-89.3113209999999924
0
LINE
8
BLACK
6
CONTINUOUS
10
129.2643129999999871
20
-89.3113209999999924
11
129.313069999999982
21
-89.295068999999998
0
LINE
8
BLACK
6
CONTINUOUS
10
129.313069999999982
20
-89.295068999999998
11
129.3412150000000054
21
-89.295068999999998
0
LINE
8
BLACK
6
CONTINUOUS
10
129.3412150000000054
20
-89.295068999999998
11
129.3899690000000078
21
-89.3113209999999924
0
LINE
8
BLACK
6
CONTINUOUS
10
129.3899690000000078
20
-89.3113209999999924
11
129.4206889999999817
21
-89.3420399999999972
0
LINE
8
BLACK
6
CONTINUOUS
10
129.4206889999999817
20
-89.3420399999999972
11
129.4371960000000001
21
-89.375054999999989
0
LINE
8
BLACK
6
CONTINUOUS
10
129.4371960000000001
20
-89.375054999999989
11
129.4576179999999965
21
-89.4567419999999913
0
LINE
8
BLACK
6
CONTINUOUS
10
129.4576179999999965
20
-89.4567419999999913
11
129.4576179999999965
21
-89.5133950000000027
0
LINE
8
BLACK
6
CONTINUOUS
10
129.4576179999999965
20
-89.5133950000000027
11
129.4371960000000001
21
-89.5950819999999908
0
LINE
8
BLACK
6
CONTINUOUS
10
129.4371960000000001
20
-89.5950819999999908
11
129.4206889999999817
21
-89.6280969999999968
0
LINE
8
BLACK
6
CONTINUOUS
10
129.4206889999999817
20
-89.6280969999999968
11
129.3899679999999819
21
-89.6588179999999966
0
LINE
8
BLACK
6
CONTINUOUS
10
129.3899679999999819
20
-89.6588179999999966
11
129.3412160000000029
21
-89.6750689999999935
0
LINE
8
BLACK
6
CONTINUOUS
10
129.3412160000000029
20
-89.6750689999999935
11
129.313069999999982
21
-89.6750689999999935
0
LINE
8
BLACK
6
CONTINUOUS
10
129.313069999999982
20
-89.6750689999999935
11
129.2643139999999846
21
-89.6588179999999966
0
LINE
8
BLACK
6
CONTINUOUS
10
129.2643139999999846
20
-89.6588179999999966
11
129.2505219999999895
21
-89.6450239999999923
0
LINE
8
BLACK
6
CONTINUOUS
10
129.2505219999999895
20
-89.6450239999999923
11
129.2310569999999927
21
-89.6320180000000022
0
LINE
8
BLACK
6
CONTINUOUS
10
129.2310569999999927
20
-89.6320180000000022
11
129.1851350000000025
21
-89.6320169999999905
0
LINE
8
BLACK
6
CONTINUOUS
10
129.1851350000000025
20
-89.6320169999999905
11
129.1526629999999898
21
-89.6644879999999915
0
LINE
8
BLACK
6
CONTINUOUS
10
129.1526629999999898
20
-89.6644879999999915
11
129.1526619999999923
21
-89.710409999999996
0
LINE
8
BLACK
6
CONTINUOUS
10
129.1526619999999923
20
-89.710409999999996
11
129.1656679999999824
21
-89.7298759999999902
0
LINE
8
BLACK
6
CONTINUOUS
10
129.1656679999999824
20
-89.7298759999999902
11
129.1894769999999824
21
-89.7536860000000019
0
LINE
8
BLACK
6
CONTINUOUS
10
129.1894769999999824
20
-89.7536860000000019
11
129.1919749999999851
21
-89.7553549999999944
0
LINE
8
BLACK
6
CONTINUOUS
10
129.1919749999999851
20
-89.7553549999999944
11
129.1925919999999905
21
-89.7565879999999936
0
LINE
8
BLACK
6
CONTINUOUS
10
129.1925919999999905
20
-89.7565879999999936
11
129.2009439999999927
21
-89.7613479999999981
0
LINE
8
BLACK
6
CONTINUOUS
10
129.2009439999999927
20
-89.7613479999999981
11
129.2089420000000075
21
-89.7666929999999894
0
LINE
8
BLACK
6
CONTINUOUS
10
129.2089420000000075
20
-89.7666929999999894
11
129.2103199999999958
21
-89.7666929999999894
0
LINE
8
BLACK
6
CONTINUOUS
10
129.2103199999999958
20
-89.7666929999999894
11
129.2129309999999975
21
-89.7681809999999984
0
LINE
8
BLACK
6
CONTINUOUS
10
129.2129309999999975
20
-89.7681809999999984
11
129.2843599999999924
21
-89.7919899999999984
0
LINE
8
BLACK
6
CONTINUOUS
10
129.2843599999999924
20
-89.7919899999999984
11
129.2938979999999844
21
-89.7931919999999906
0
LINE
8
BLACK
6
CONTINUOUS
10
129.2938979999999844
20
-89.7931919999999906
11
129.3033329999999808
21
-89.795068999999998
0
LINE
8
BLACK
6
CONTINUOUS
10
129.3033329999999808
20
-89.795068999999998
11
129.3509520000000066
21
-89.795068999999998
0
LINE
8
BLACK
6
CONTINUOUS
10
129.3509520000000066
20
-89.795068999999998
11
129.3603860000000054
21
-89.7931919999999906
0
LINE
8
BLACK
6
CONTINUOUS
10
129.3603860000000054
20
-89.7931919999999906
11
129.369924999999995
21
-89.7919899999999984
0
LINE
8
BLACK
6
CONTINUOUS
10
129.369924999999995
20
-89.7919899999999984
11
129.4413539999999898
21
-89.7681809999999984
0
LINE
8
BLACK
6
CONTINUOUS
10
129.4413539999999898
20
-89.7681809999999984
11
129.443963999999994
21
-89.7666929999999894
0
LINE
8
BLACK
6
CONTINUOUS
10
129.443963999999994
20
-89.7666929999999894
11
129.4453419999999824
21
-89.7666929999999894
0
LINE
8
BLACK
6
CONTINUOUS
10
129.4453419999999824
20
-89.7666929999999894
11
129.4533429999999896
21
-89.761345999999989
0
LINE
8
BLACK
6
CONTINUOUS
10
129.4533429999999896
20
-89.761345999999989
11
129.4616919999999993
21
-89.7565869999999961
0
LINE
8
BLACK
6
CONTINUOUS
10
129.4616919999999993
20
-89.7565869999999961
11
129.4623069999999814
21
-89.7553559999999919
0
LINE
8
BLACK
6
CONTINUOUS
10
129.4623069999999814
20
-89.7553559999999919
11
129.4648070000000075
21
-89.7536860000000019
0
LINE
8
BLACK
6
CONTINUOUS
10
129.4648070000000075
20
-89.7536860000000019
11
129.5124260000000049
21
-89.7060659999999928
0
LINE
8
BLACK
6
CONTINUOUS
10
129.5124260000000049
20
-89.7060659999999928
11
129.5177699999999845
21
-89.6980659999999972
0
LINE
8
BLACK
6
CONTINUOUS
10
129.5177699999999845
20
-89.6980659999999972
11
129.5236639999999966
21
-89.6904729999999972
0
LINE
8
BLACK
6
CONTINUOUS
10
129.5236639999999966
20
-89.6904729999999972
11
129.547473999999994
21
-89.6428539999999998
0
LINE
8
BLACK
6
CONTINUOUS
10
129.547473999999994
20
-89.6428539999999998
11
129.5492089999999905
21
-89.6365179999999953
0
LINE
8
BLACK
6
CONTINUOUS
10
129.5492089999999905
20
-89.6365179999999953
11
129.5520180000000039
21
-89.6305729999999983
0
LINE
8
BLACK
6
CONTINUOUS
10
129.5520180000000039
20
-89.6305729999999983
11
129.5758270000000039
21
-89.5353349999999892
0
LINE
8
BLACK
6
CONTINUOUS
10
129.5758270000000039
20
-89.5353349999999892
11
129.5761839999999836
21
-89.5279900000000026
0
LINE
8
BLACK
6
CONTINUOUS
10
129.5761839999999836
20
-89.5279900000000026
11
129.5776180000000011
21
-89.5207829999999944
0
LINE
8
BLACK
6
CONTINUOUS
10
129.5776180000000011
20
-89.5207829999999944
11
129.5776180000000011
21
-89.4493549999999971
0
LINE
8
BLACK
6
CONTINUOUS
10
129.5776180000000011
20
-89.4493549999999971
11
129.5761839999999836
21
-89.4421469999999914
0
LINE
8
BLACK
6
CONTINUOUS
10
129.5761839999999836
20
-89.4421469999999914
11
129.5758270000000039
21
-89.4348030000000023
0
LINE
8
BLACK
6
CONTINUOUS
10
129.5758270000000039
20
-89.4348030000000023
11
129.5520180000000039
21
-89.3395649999999932
0
LINE
8
BLACK
6
CONTINUOUS
10
129.5520180000000039
20
-89.3395649999999932
11
129.5492089999999905
21
-89.3336189999999988
0
LINE
8
BLACK
6
CONTINUOUS
10
129.5492089999999905
20
-89.3336189999999988
11
129.547473999999994
21
-89.3272839999999917
0
LINE
8
BLACK
6
CONTINUOUS
10
129.547473999999994
20
-89.3272839999999917
11
129.5236639999999966
21
-89.2796649999999943
0
LINE
8
BLACK
6
CONTINUOUS
10
129.5236639999999966
20
-89.2796649999999943
11
129.517768999999987
21
-89.2720690000000019
0
LINE
8
BLACK
6
CONTINUOUS
10
129.517768999999987
20
-89.2720690000000019
11
129.5124250000000075
21
-89.2640710000000013
0
LINE
8
BLACK
6
CONTINUOUS
10
129.5124250000000075
20
-89.2640710000000013
11
129.4834219999999902
21
-89.2350689999999958
0
LINE
8
BLACK
6
CONTINUOUS
10
129.4834219999999902
20
-89.2350689999999958
11
129.6719039999999836
21
-89.2350689999999958
0
LINE
8
BLACK
6
CONTINUOUS
10
129.6719039999999836
20
-89.2350689999999958
11
129.6719039999999836
21
-89.7350689999999958
0
LINE
8
BLACK
6
CONTINUOUS
10
129.6719039999999836
20
-89.7350689999999958
11
129.6764709999999923
21
-89.7580299999999909
0
LINE
8
BLACK
6
CONTINUOUS
10
129.6764709999999923
20
-89.7580299999999909
11
129.708943000000005
21
-89.7905019999999894
0
LINE
8
BLACK
6
CONTINUOUS
10
129.708943000000005
20
-89.7905019999999894
11
129.7548649999999952
21
-89.7905019999999894
0
LINE
8
BLACK
6
CONTINUOUS
10
129.7548649999999952
20
-89.7905019999999894
11
129.7873370000000079
21
-89.7580299999999909
0
LINE
8
BLACK
6
CONTINUOUS
10
129.7873370000000079
20
-89.7580299999999909
11
129.7919039999999882
21
-89.7350689999999958
0
LINE
8
BLACK
6
CONTINUOUS
10
129.7919039999999882
20
-89.7350689999999958
11
129.7919039999999882
21
-89.2350689999999958
0
LINE
8
BLACK
6
CONTINUOUS
10
129.7919039999999882
20
-89.2350689999999958
11
129.9099999999999966
21
-89.2350689999999958
0
LINE
8
BLACK
6
CONTINUOUS
10
129.9099999999999966
20
-89.2350689999999958
11
129.9099999999999966
21
-89.7350689999999958
0
LINE
8
BLACK
6
CONTINUOUS
10
129.9099999999999966
20
-89.7350689999999958
11
129.9145670000000052
21
-89.7580299999999909
0
LINE
8
BLACK
6
CONTINUOUS
10
129.9145670000000052
20
-89.7580299999999909
11
129.9470389999999895
21
-89.7905019999999894
0
LINE
8
BLACK
6
CONTINUOUS
10
129.9470389999999895
20
-89.7905019999999894
11
129.9929610000000082
21
-89.7905019999999894
0
LINE
8
BLACK
6
CONTINUOUS
10
129.9929610000000082
20
-89.7905019999999894
11
130.0254329999999925
21
-89.7580299999999909
0
LINE
8
BLACK
6
CONTINUOUS
10
130.0254329999999925
20
-89.7580299999999909
11
130.0300000000000011
21
-89.7350689999999958
0
LINE
8
BLACK
6
CONTINUOUS
10
130.0300000000000011
20
-89.7350689999999958
11
130.0300000000000011
21
-89.5055229999999966
0
LINE
8
BLACK
6
CONTINUOUS
10
130.0300000000000011
20
-89.5055229999999966
11
130.0822949999999878
21
-89.6175849999999912
0
LINE
8
BLACK
6
CONTINUOUS
10
130.0822949999999878
20
-89.6175849999999912
11
130.0914410000000032
21
-89.6300499999999971
0
LINE
8
BLACK
6
CONTINUOUS
10
130.0914410000000032
20
-89.6300499999999971
11
130.0924169999999833
21
-89.6327349999999967
0
LINE
8
BLACK
6
CONTINUOUS
10
130.0924169999999833
20
-89.6327349999999967
11
130.0939270000000079
21
-89.6334389999999956
0
LINE
8
BLACK
6
CONTINUOUS
10
130.0939270000000079
20
-89.6334389999999956
11
130.0961439999999811
21
-89.6364609999999971
0
LINE
8
BLACK
6
CONTINUOUS
10
130.0961439999999811
20
-89.6364609999999971
11
130.1154339999999934
21
-89.6434749999999951
0
LINE
8
BLACK
6
CONTINUOUS
10
130.1154339999999934
20
-89.6434749999999951
11
130.1340309999999931
21
-89.6521539999999959
0
LINE
8
BLACK
6
CONTINUOUS
10
130.1340309999999931
20
-89.6521539999999959
11
130.1366639999999961
21
-89.6511959999999988
0
LINE
8
BLACK
6
CONTINUOUS
10
130.1366639999999961
20
-89.6511959999999988
11
130.139300999999989
21
-89.6521549999999934
0
LINE
8
BLACK
6
CONTINUOUS
10
130.139300999999989
20
-89.6521549999999934
11
130.1579049999999995
21
-89.6434720000000027
0
LINE
8
BLACK
6
CONTINUOUS
10
130.1579049999999995
20
-89.6434720000000027
11
130.1771889999999985
21
-89.6364609999999971
0
LINE
8
BLACK
6
CONTINUOUS
10
130.1771889999999985
20
-89.6364609999999971
11
130.1794050000000027
21
-89.6334389999999956
0
LINE
8
BLACK
6
CONTINUOUS
10
130.1794050000000027
20
-89.6334389999999956
11
130.1809149999999988
21
-89.6327349999999967
0
LINE
8
BLACK
6
CONTINUOUS
10
130.1809149999999988
20
-89.6327349999999967
11
130.1818899999999815
21
-89.6300519999999921
0
LINE
8
BLACK
6
CONTINUOUS
10
130.1818899999999815
20
-89.6300519999999921
11
130.1910369999999944
21
-89.6175849999999912
0
LINE
8
BLACK
6
CONTINUOUS
10
130.1910369999999944
20
-89.6175849999999912
11
130.2433330000000069
21
-89.5055219999999991
0
LINE
8
BLACK
6
CONTINUOUS
10
130.2433330000000069
20
-89.5055219999999991
11
130.2433330000000069
21
-89.7350689999999958
0
LINE
8
BLACK
6
CONTINUOUS
10
130.2433330000000069
20
-89.7350689999999958
11
130.2478999999999871
21
-89.7580299999999909
0
LINE
8
BLACK
6
CONTINUOUS
10
130.2478999999999871
20
-89.7580299999999909
11
130.2803719999999998
21
-89.7905019999999894
0
LINE
8
BLACK
6
CONTINUOUS
10
130.2803719999999998
20
-89.7905019999999894
11
130.3262939999999901
21
-89.7905019999999894
0
LINE
8
BLACK
6
CONTINUOUS
10
130.3262939999999901
20
-89.7905019999999894
11
130.3587660000000028
21
-89.7580299999999909
0
LINE
8
BLACK
6
CONTINUOUS
10
130.3587660000000028
20
-89.7580299999999909
11
130.363332999999983
21
-89.7350689999999958
0
LINE
8
BLACK
6
CONTINUOUS
10
130.363332999999983
20
-89.7350689999999958
11
130.363332999999983
21
-89.2350689999999958
0
LINE
8
BLACK
6
CONTINUOUS
10
130.363332999999983
20
-89.2350689999999958
11
130.3587660000000028
21
-89.2121080000000006
0
LINE
8
BLACK
6
CONTINUOUS
10
130.3587660000000028
20
-89.2121080000000006
11
130.4621860000000027
21
-89.2121080000000006
0
LINE
8
BLACK
6
CONTINUOUS
10
130.4621860000000027
20
-89.2121080000000006
11
130.4621860000000027
21
-89.2580299999999909
0
LINE
8
BLACK
6
CONTINUOUS
10
130.4621860000000027
20
-89.2580299999999909
11
130.4946579999999869
21
-89.2905019999999894
0
LINE
8
BLACK
6
CONTINUOUS
10
130.4946579999999869
20
-89.2905019999999894
11
130.5176189999999963
21
-89.295068999999998
0
LINE
8
BLACK
6
CONTINUOUS
10
130.5176189999999963
20
-89.295068999999998
11
130.6957139999999811
21
-89.295068999999998
0
LINE
8
BLACK
6
CONTINUOUS
10
130.6957139999999811
20
-89.295068999999998
11
130.6957139999999811
21
-89.4131639999999948
0
LINE
8
BLACK
6
CONTINUOUS
10
130.6957139999999811
20
-89.4131639999999948
11
130.5890469999999937
21
-89.4131639999999948
0
LINE
8
BLACK
6
CONTINUOUS
10
130.5890469999999937
20
-89.4131639999999948
11
130.5660859999999843
21
-89.4177309999999892
0
LINE
8
BLACK
6
CONTINUOUS
10
130.5660859999999843
20
-89.4177309999999892
11
130.533614
21
-89.4502030000000019
0
LINE
8
BLACK
6
CONTINUOUS
10
130.533614
20
-89.4502030000000019
11
130.533614
21
-89.4961249999999922
0
LINE
8
BLACK
6
CONTINUOUS
10
130.533614
20
-89.4961249999999922
11
130.5660859999999843
21
-89.5285969999999907
0
LINE
8
BLACK
6
CONTINUOUS
10
130.5660859999999843
20
-89.5285969999999907
11
130.5890469999999937
21
-89.5331639999999993
0
LINE
8
BLACK
6
CONTINUOUS
10
130.5890469999999937
20
-89.5331639999999993
11
130.6957139999999811
21
-89.5331639999999993
0
LINE
8
BLACK
6
CONTINUOUS
10
130.6957139999999811
20
-89.5331639999999993
11
130.6957139999999811
21
-89.6750689999999935
0
LINE
8
BLACK
6
CONTINUOUS
10
130.6957139999999811
20
-89.6750689999999935
11
130.5176189999999963
21
-89.6750689999999935
0
LINE
8
BLACK
6
CONTINUOUS
10
130.5176189999999963
20
-89.6750689999999935
11
130.4946579999999869
21
-89.6796360000000021
0
LINE
8
BLACK
6
CONTINUOUS
10
130.4946579999999869
20
-89.6796360000000021
11
130.4621860000000027
21
-89.7121080000000006
0
LINE
8
BLACK
6
CONTINUOUS
10
130.4621860000000027
20
-89.7121080000000006
11
130.4621860000000027
21
-89.7580299999999909
0
LINE
8
BLACK
6
CONTINUOUS
10
130.4621860000000027
20
-89.7580299999999909
11
130.4946579999999869
21
-89.7905019999999894
0
LINE
8
BLACK
6
CONTINUOUS
10
130.4946579999999869
20
-89.7905019999999894
11
130.5176189999999963
21
-89.795068999999998
0
LINE
8
BLACK
6
CONTINUOUS
10
130.5176189999999963
20
-89.795068999999998
11
130.7557139999999833
21
-89.795068999999998
0
LINE
8
BLACK
6
CONTINUOUS
10
130.7557139999999833
20
-89.795068999999998
11
130.7786749999999927
21
-89.7905019999999894
0
LINE
8
BLACK
6
CONTINUOUS
10
130.7786749999999927
20
-89.7905019999999894
11
130.8111470000000054
21
-89.7580299999999909
0
LINE
8
BLACK
6
CONTINUOUS
10
130.8111470000000054
20
-89.7580299999999909
11
130.8157139999999856
21
-89.7350689999999958
0
LINE
8
BLACK
6
CONTINUOUS
10
130.8157139999999856
20
-89.7350689999999958
11
130.8157139999999856
21
-89.2350689999999958
0
LINE
8
BLACK
6
CONTINUOUS
10
130.8157139999999856
20
-89.2350689999999958
11
130.8111470000000054
21
-89.2121080000000006
0
LINE
8
BLACK
6
CONTINUOUS
10
130.8111470000000054
20
-89.2121080000000006
11
130.8669469999999819
21
-89.2121080000000006
0
LINE
8
BLACK
6
CONTINUOUS
10
130.8669469999999819
20
-89.2121080000000006
11
130.8669469999999819
21
-89.2580299999999909
0
LINE
8
BLACK
6
CONTINUOUS
10
130.8669469999999819
20
-89.2580299999999909
11
130.8994189999999946
21
-89.2905019999999894
0
LINE
8
BLACK
6
CONTINUOUS
10
130.8994189999999946
20
-89.2905019999999894
11
130.922380000000004
21
-89.295068999999998
0
LINE
8
BLACK
6
CONTINUOUS
10
130.922380000000004
20
-89.295068999999998
11
131.0052369999999939
21
-89.295068999999998
0
LINE
8
BLACK
6
CONTINUOUS
10
131.0052369999999939
20
-89.295068999999998
11
131.0052369999999939
21
-89.7350689999999958
0
LINE
8
BLACK
6
CONTINUOUS
10
131.0052369999999939
20
-89.7350689999999958
11
131.0098040000000026
21
-89.7580299999999909
0
LINE
8
BLACK
6
CONTINUOUS
10
131.0098040000000026
20
-89.7580299999999909
11
131.0422759999999869
21
-89.7905019999999894
0
LINE
8
BLACK
6
CONTINUOUS
10
131.0422759999999869
20
-89.7905019999999894
11
131.0881980000000055
21
-89.7905019999999894
0
LINE
8
BLACK
6
CONTINUOUS
10
131.0881980000000055
20
-89.7905019999999894
11
131.1206699999999898
21
-89.7580299999999909
0
LINE
8
BLACK
6
CONTINUOUS
10
131.1206699999999898
20
-89.7580299999999909
11
131.1252369999999985
21
-89.7350689999999958
0
LINE
8
BLACK
6
CONTINUOUS
10
131.1252369999999985
20
-89.7350689999999958
11
131.1252369999999985
21
-89.5922119999999893
0
LINE
8
BLACK
6
CONTINUOUS
10
131.1252369999999985
20
-89.5922119999999893
11
131.2909510000000068
21
-89.5922119999999893
0
LINE
8
BLACK
6
CONTINUOUS
10
131.2909510000000068
20
-89.5922119999999893
11
131.2909510000000068
21
-89.6398310000000009
0
LINE
8
BLACK
6
CONTINUOUS
10
131.2909510000000068
20
-89.6398310000000009
11
131.2915370000000053
21
-89.6427779999999927
0
LINE
8
BLACK
6
CONTINUOUS
10
131.2915370000000053
20
-89.6427779999999927
11
131.2911019999999951
21
-89.6440849999999898
0
LINE
8
BLACK
6
CONTINUOUS
10
131.2911019999999951
20
-89.6440849999999898
11
131.293641000000008
21
-89.6533549999999906
0
LINE
8
BLACK
6
CONTINUOUS
10
131.293641000000008
20
-89.6533549999999906
11
131.2955179999999871
21
-89.6627919999999961
0
LINE
8
BLACK
6
CONTINUOUS
10
131.2955179999999871
20
-89.6627919999999961
11
131.2964920000000006
21
-89.6637659999999954
0
LINE
8
BLACK
6
CONTINUOUS
10
131.2964920000000006
20
-89.6637659999999954
11
131.2972859999999855
21
-89.6666639999999973
0
LINE
8
BLACK
6
CONTINUOUS
10
131.2972859999999855
20
-89.6666639999999973
11
131.321095999999983
21
-89.7142829999999947
0
LINE
8
BLACK
6
CONTINUOUS
10
131.321095999999983
20
-89.7142829999999947
11
131.3269909999999925
21
-89.7218790000000013
0
LINE
8
BLACK
6
CONTINUOUS
10
131.3269909999999925
20
-89.7218790000000013
11
131.332334000000003
21
-89.7298759999999902
0
LINE
8
BLACK
6
CONTINUOUS
10
131.332334000000003
20
-89.7298759999999902
11
131.356143000000003
21
-89.7536860000000019
0
LINE
8
BLACK
6
CONTINUOUS
10
131.356143000000003
20
-89.7536860000000019
11
131.3641409999999894
21
-89.7590309999999931
0
LINE
8
BLACK
6
CONTINUOUS
10
131.3641409999999894
20
-89.7590309999999931
11
131.3717379999999935
21
-89.7649260000000027
0
LINE
8
BLACK
6
CONTINUOUS
10
131.3717379999999935
20
-89.7649260000000027
11
131.4193559999999934
21
-89.7887350000000026
0
LINE
8
BLACK
6
CONTINUOUS
10
131.4193559999999934
20
-89.7887350000000026
11
131.422253999999981
21
-89.78952799999999
0
LINE
8
BLACK
6
CONTINUOUS
10
131.422253999999981
20
-89.78952799999999
11
131.4232279999999946
21
-89.7905019999999894
0
LINE
8
BLACK
6
CONTINUOUS
10
131.4232279999999946
20
-89.7905019999999894
11
131.4326599999999985
21
-89.7923779999999994
0
LINE
8
BLACK
6
CONTINUOUS
10
131.4326599999999985
20
-89.7923779999999994
11
131.4419359999999983
21
-89.7949179999999956
0
LINE
8
BLACK
6
CONTINUOUS
10
131.4419359999999983
20
-89.7949179999999956
11
131.4432410000000004
21
-89.7944820000000021
0
LINE
8
BLACK
6
CONTINUOUS
10
131.4432410000000004
20
-89.7944820000000021
11
131.4461890000000039
21
-89.795068999999998
0
LINE
8
BLACK
6
CONTINUOUS
10
131.4461890000000039
20
-89.795068999999998
11
131.5652369999999962
21
-89.795068999999998
0
LINE
8
BLACK
6
CONTINUOUS
10
131.5652369999999962
20
-89.795068999999998
11
131.574670999999995
21
-89.7931919999999906
0
LINE
8
BLACK
6
CONTINUOUS
10
131.574670999999995
20
-89.7931919999999906
11
131.5842099999999846
21
-89.7919899999999984
0
LINE
8
BLACK
6
CONTINUOUS
10
131.5842099999999846
20
-89.7919899999999984
11
131.6556390000000079
21
-89.7681809999999984
0
LINE
8
BLACK
6
CONTINUOUS
10
131.6556390000000079
20
-89.7681809999999984
11
131.6759769999999889
21
-89.7565869999999961
0
LINE
8
BLACK
6
CONTINUOUS
10
131.6759769999999889
20
-89.7565869999999961
11
131.6965150000000051
21
-89.7155130000000014
0
LINE
8
BLACK
6
CONTINUOUS
10
131.6965150000000051
20
-89.7155130000000014
11
131.6819930000000056
21
-89.6719480000000004
0
LINE
8
BLACK
6
CONTINUOUS
10
131.6819930000000056
20
-89.6719480000000004
11
131.6409189999999967
21
-89.651410999999996
0
LINE
8
BLACK
6
CONTINUOUS
10
131.6409189999999967
20
-89.651410999999996
11
131.6176920000000052
21
-89.6543389999999931
0
LINE
8
BLACK
6
CONTINUOUS
10
131.6176920000000052
20
-89.6543389999999931
11
131.5555009999999925
21
-89.6750689999999935
0
LINE
8
BLACK
6
CONTINUOUS
10
131.5555009999999925
20
-89.6750689999999935
11
131.4603529999999978
21
-89.6750689999999935
0
LINE
8
BLACK
6
CONTINUOUS
10
131.4603529999999978
20
-89.6750689999999935
11
131.434110000000004
21
-89.6619479999999953
0
LINE
8
BLACK
6
CONTINUOUS
10
131.434110000000004
20
-89.6619479999999953
11
131.4240709999999979
21
-89.6519069999999942
0
LINE
8
BLACK
6
CONTINUOUS
10
131.4240709999999979
20
-89.6519069999999942
11
131.410950999999983
21
-89.6256669999999929
0
LINE
8
BLACK
6
CONTINUOUS
10
131.410950999999983
20
-89.6256669999999929
11
131.410950999999983
21
-89.6063749999999999
0
LINE
8
BLACK
6
CONTINUOUS
10
131.410950999999983
20
-89.6063749999999999
11
131.4240709999999979
21
-89.5801349999999985
0
LINE
8
BLACK
6
CONTINUOUS
10
131.4240709999999979
20
-89.5801349999999985
11
131.434110000000004
21
-89.5700939999999974
0
LINE
8
BLACK
6
CONTINUOUS
10
131.434110000000004
20
-89.5700939999999974
11
131.4671319999999923
21
-89.5535840000000007
0
LINE
8
BLACK
6
CONTINUOUS
10
131.4671319999999923
20
-89.5535840000000007
11
131.5559790000000078
21
-89.5313730000000021
0
LINE
8
BLACK
6
CONTINUOUS
10
131.5559790000000078
20
-89.5313730000000021
11
131.5619219999999814
21
-89.5285650000000004
0
LINE
8
BLACK
6
CONTINUOUS
10
131.5619219999999814
20
-89.5285650000000004
11
131.5682589999999834
21
-89.5268299999999897
0
LINE
8
BLACK
6
CONTINUOUS
10
131.5682589999999834
20
-89.5268299999999897
11
131.6158779999999808
21
-89.5030209999999897
0
LINE
8
BLACK
6
CONTINUOUS
10
131.6158779999999808
20
-89.5030209999999897
11
131.6234800000000007
21
-89.4971209999999928
0
LINE
8
BLACK
6
CONTINUOUS
10
131.6234800000000007
20
-89.4971209999999928
11
131.6314720000000023
21
-89.4917809999999889
0
LINE
8
BLACK
6
CONTINUOUS
10
131.6314720000000023
20
-89.4917809999999889
11
131.6552819999999997
21
-89.467971999999989
0
LINE
8
BLACK
6
CONTINUOUS
10
131.6552819999999997
20
-89.467971999999989
11
131.6606249999999818
21
-89.459975
0
LINE
8
BLACK
6
CONTINUOUS
10
131.6606249999999818
20
-89.459975
11
131.6665219999999863
21
-89.4523769999999985
0
LINE
8
BLACK
6
CONTINUOUS
10
131.6665219999999863
20
-89.4523769999999985
11
131.6903309999999863
21
-89.4047589999999985
0
LINE
8
BLACK
6
CONTINUOUS
10
131.6903309999999863
20
-89.4047589999999985
11
131.6911240000000021
21
-89.4018599999999992
0
LINE
8
BLACK
6
CONTINUOUS
10
131.6911240000000021
20
-89.4018599999999992
11
131.6920979999999872
21
-89.4008869999999973
0
LINE
8
BLACK
6
CONTINUOUS
10
131.6920979999999872
20
-89.4008869999999973
11
131.6939739999999972
21
-89.391453999999996
0
LINE
8
BLACK
6
CONTINUOUS
10
131.6939739999999972
20
-89.391453999999996
11
131.6965140000000076
21
-89.3821789999999936
0
LINE
8
BLACK
6
CONTINUOUS
10
131.6965140000000076
20
-89.3821789999999936
11
131.696078
21
-89.380872999999994
0
LINE
8
BLACK
6
CONTINUOUS
10
131.696078
20
-89.380872999999994
11
131.6966649999999959
21
-89.3779260000000022
0
LINE
8
BLACK
6
CONTINUOUS
10
131.6966649999999959
20
-89.3779260000000022
11
131.6966649999999959
21
-89.3303069999999906
0
LINE
8
BLACK
6
CONTINUOUS
10
131.6966649999999959
20
-89.3303069999999906
11
131.696078
21
-89.3273590000000013
0
LINE
8
BLACK
6
CONTINUOUS
10
131.696078
20
-89.3273590000000013
11
131.6965140000000076
21
-89.3260539999999992
0
LINE
8
BLACK
6
CONTINUOUS
10
131.6965140000000076
20
-89.3260539999999992
11
131.6939739999999972
21
-89.3167779999999993
0
LINE
8
BLACK
6
CONTINUOUS
10
131.6939739999999972
20
-89.3167779999999993
11
131.6920979999999872
21
-89.3073459999999955
0
LINE
8
BLACK
6
CONTINUOUS
10
131.6920979999999872
20
-89.3073459999999955
11
131.6911240000000021
21
-89.3063719999999961
0
LINE
8
BLACK
6
CONTINUOUS
10
131.6911240000000021
20
-89.3063719999999961
11
131.6903309999999863
21
-89.3034739999999942
0
LINE
8
BLACK
6
CONTINUOUS
10
131.6903309999999863
20
-89.3034739999999942
11
131.6665219999999863
21
-89.2558559999999943
0
LINE
8
BLACK
6
CONTINUOUS
10
131.6665219999999863
20
-89.2558559999999943
11
131.6606270000000052
21
-89.2482589999999902
0
LINE
8
BLACK
6
CONTINUOUS
10
131.6606270000000052
20
-89.2482589999999902
11
131.6587549999999851
21
-89.2454579999999993
0
LINE
8
BLACK
6
CONTINUOUS
10
131.6587549999999851
20
-89.2454579999999993
11
131.7204279999999983
21
-89.2454579999999993
0
LINE
8
BLACK
6
CONTINUOUS
10
131.7204279999999983
20
-89.2454579999999993
11
131.728902000000005
21
-89.2672819999999945
0
LINE
8
BLACK
6
CONTINUOUS
10
131.728902000000005
20
-89.2672819999999945
11
131.8861890000000017
21
-89.5144449999999949
0
LINE
8
BLACK
6
CONTINUOUS
10
131.8861890000000017
20
-89.5144449999999949
11
131.8861890000000017
21
-89.7350689999999958
0
LINE
8
BLACK
6
CONTINUOUS
10
131.8861890000000017
20
-89.7350689999999958
11
131.8907559999999819
21
-89.7580299999999909
0
LINE
8
BLACK
6
CONTINUOUS
10
131.8907559999999819
20
-89.7580299999999909
11
131.9232279999999946
21
-89.7905019999999894
0
LINE
8
BLACK
6
CONTINUOUS
10
131.9232279999999946
20
-89.7905019999999894
11
131.9691499999999849
21
-89.7905019999999894
0
LINE
8
BLACK
6
CONTINUOUS
10
131.9691499999999849
20
-89.7905019999999894
11
132.0016219999999976
21
-89.7580299999999909
0
LINE
8
BLACK
6
CONTINUOUS
10
132.0016219999999976
20
-89.7580299999999909
11
132.0061890000000062
21
-89.7350689999999958
0
LINE
8
BLACK
6
CONTINUOUS
10
132.0061890000000062
20
-89.7350689999999958
11
132.0061890000000062
21
-89.5922119999999893
0
LINE
8
BLACK
6
CONTINUOUS
10
132.0061890000000062
20
-89.5922119999999893
11
132.1957119999999861
21
-89.5922119999999893
0
LINE
8
BLACK
6
CONTINUOUS
10
132.1957119999999861
20
-89.5922119999999893
11
132.1957119999999861
21
-89.6398310000000009
0
LINE
8
BLACK
6
CONTINUOUS
10
132.1957119999999861
20
-89.6398310000000009
11
132.1962979999999845
21
-89.6427779999999927
0
LINE
8
BLACK
6
CONTINUOUS
10
132.1962979999999845
20
-89.6427779999999927
11
132.1958630000000028
21
-89.6440849999999898
0
LINE
8
BLACK
6
CONTINUOUS
10
132.1958630000000028
20
-89.6440849999999898
11
132.1984019999999873
21
-89.6533549999999906
0
LINE
8
BLACK
6
CONTINUOUS
10
132.1984019999999873
20
-89.6533549999999906
11
132.2002789999999948
21
-89.6627919999999961
0
LINE
8
BLACK
6
CONTINUOUS
10
132.2002789999999948
20
-89.6627919999999961
11
132.2012529999999799
21
-89.6637659999999954
0
LINE
8
BLACK
6
CONTINUOUS
10
132.2012529999999799
20
-89.6637659999999954
11
132.2020469999999932
21
-89.6666639999999973
0
LINE
8
BLACK
6
CONTINUOUS
10
132.2020469999999932
20
-89.6666639999999973
11
132.2258569999999906
21
-89.7142829999999947
0
LINE
8
BLACK
6
CONTINUOUS
10
132.2258569999999906
20
-89.7142829999999947
11
132.2317520000000002
21
-89.7218790000000013
0
LINE
8
BLACK
6
CONTINUOUS
10
132.2317520000000002
20
-89.7218790000000013
11
132.2370949999999823
21
-89.7298759999999902
0
LINE
8
BLACK
6
CONTINUOUS
10
132.2370949999999823
20
-89.7298759999999902
11
132.2609039999999823
21
-89.7536860000000019
0
LINE
8
BLACK
6
CONTINUOUS
10
132.2609039999999823
20
-89.7536860000000019
11
132.2689019999999971
21
-89.7590309999999931
0
LINE
8
BLACK
6
CONTINUOUS
10
132.2689019999999971
20
-89.7590309999999931
11
132.2764990000000012
21
-89.7649260000000027
0
LINE
8
BLACK
6
CONTINUOUS
10
132.2764990000000012
20
-89.7649260000000027
11
132.3241170000000011
21
-89.7887350000000026
0
LINE
8
BLACK
6
CONTINUOUS
10
132.3241170000000011
20
-89.7887350000000026
11
132.3270149999999887
21
-89.78952799999999
0
LINE
8
BLACK
6
CONTINUOUS
10
132.3270149999999887
20
-89.78952799999999
11
132.3279890000000023
21
-89.7905019999999894
0
LINE
8
BLACK
6
CONTINUOUS
10
132.3279890000000023
20
-89.7905019999999894
11
132.3374210000000062
21
-89.7923779999999994
0
LINE
8
BLACK
6
CONTINUOUS
10
132.3374210000000062
20
-89.7923779999999994
11
132.346697000000006
21
-89.7949179999999956
0
LINE
8
BLACK
6
CONTINUOUS
10
132.346697000000006
20
-89.7949179999999956
11
132.3480020000000081
21
-89.7944820000000021
0
LINE
8
BLACK
6
CONTINUOUS
10
132.3480020000000081
20
-89.7944820000000021
11
132.3509499999999832
21
-89.795068999999998
0
LINE
8
BLACK
6
CONTINUOUS
10
132.3509499999999832
20
-89.795068999999998
11
132.4699980000000039
21
-89.795068999999998
0
LINE
8
BLACK
6
CONTINUOUS
10
132.4699980000000039
20
-89.795068999999998
11
132.4794320000000027
21
-89.7931919999999906
0
LINE
8
BLACK
6
CONTINUOUS
10
132.4794320000000027
20
-89.7931919999999906
11
132.4889709999999923
21
-89.7919899999999984
0
LINE
8
BLACK
6
CONTINUOUS
10
132.4889709999999923
20
-89.7919899999999984
11
132.5603999999999871
21
-89.7681809999999984
0
LINE
8
BLACK
6
CONTINUOUS
10
132.5603999999999871
20
-89.7681809999999984
11
132.5807379999999966
21
-89.7565869999999961
0
LINE
8
BLACK
6
CONTINUOUS
10
132.5807379999999966
20
-89.7565869999999961
11
132.6012759999999844
21
-89.7155130000000014
0
LINE
8
BLACK
6
CONTINUOUS
10
132.6012759999999844
20
-89.7155130000000014
11
132.5867539999999849
21
-89.6719480000000004
0
LINE
8
BLACK
6
CONTINUOUS
10
132.5867539999999849
20
-89.6719480000000004
11
132.5456800000000044
21
-89.651410999999996
0
LINE
8
BLACK
6
CONTINUOUS
10
132.5456800000000044
20
-89.651410999999996
11
132.5224529999999845
21
-89.6543389999999931
0
LINE
8
BLACK
6
CONTINUOUS
10
132.5224529999999845
20
-89.6543389999999931
11
132.4602620000000002
21
-89.6750689999999935
0
LINE
8
BLACK
6
CONTINUOUS
10
132.4602620000000002
20
-89.6750689999999935
11
132.3651140000000055
21
-89.6750689999999935
0
LINE
8
BLACK
6
CONTINUOUS
10
132.3651140000000055
20
-89.6750689999999935
11
132.3388709999999833
21
-89.6619479999999953
0
LINE
8
BLACK
6
CONTINUOUS
10
132.3388709999999833
20
-89.6619479999999953
11
132.3288320000000056
21
-89.6519069999999942
0
LINE
8
BLACK
6
CONTINUOUS
10
132.3288320000000056
20
-89.6519069999999942
11
132.3157119999999907
21
-89.6256669999999929
0
LINE
8
BLACK
6
CONTINUOUS
10
132.3157119999999907
20
-89.6256669999999929
11
132.3157119999999907
21
-89.6063749999999999
0
LINE
8
BLACK
6
CONTINUOUS
10
132.3157119999999907
20
-89.6063749999999999
11
132.3288320000000056
21
-89.5801349999999985
0
LINE
8
BLACK
6
CONTINUOUS
10
132.3288320000000056
20
-89.5801349999999985
11
132.3388709999999833
21
-89.5700939999999974
0
LINE
8
BLACK
6
CONTINUOUS
10
132.3388709999999833
20
-89.5700939999999974
11
132.371893
21
-89.5535840000000007
0
LINE
8
BLACK
6
CONTINUOUS
10
132.371893
20
-89.5535840000000007
11
132.460739999999987
21
-89.5313730000000021
0
LINE
8
BLACK
6
CONTINUOUS
10
132.460739999999987
20
-89.5313730000000021
11
132.4666829999999891
21
-89.5285650000000004
0
LINE
8
BLACK
6
CONTINUOUS
10
132.4666829999999891
20
-89.5285650000000004
11
132.4730199999999911
21
-89.5268299999999897
0
LINE
8
BLACK
6
CONTINUOUS
10
132.4730199999999911
20
-89.5268299999999897
11
132.5206389999999885
21
-89.5030209999999897
0
LINE
8
BLACK
6
CONTINUOUS
10
132.5206389999999885
20
-89.5030209999999897
11
132.52824099999998
21
-89.4971209999999928
0
LINE
8
BLACK
6
CONTINUOUS
10
132.52824099999998
20
-89.4971209999999928
11
132.5362329999999815
21
-89.4917809999999889
0
LINE
8
BLACK
6
CONTINUOUS
10
132.5362329999999815
20
-89.4917809999999889
11
132.5600430000000074
21
-89.467971999999989
0
LINE
8
BLACK
6
CONTINUOUS
10
132.5600430000000074
20
-89.467971999999989
11
132.5653859999999895
21
-89.459975
0
LINE
8
BLACK
6
CONTINUOUS
10
132.5653859999999895
20
-89.459975
11
132.571282999999994
21
-89.4523769999999985
0
LINE
8
BLACK
6
CONTINUOUS
10
132.571282999999994
20
-89.4523769999999985
11
132.595091999999994
21
-89.4047589999999985
0
LINE
8
BLACK
6
CONTINUOUS
10
132.595091999999994
20
-89.4047589999999985
11
132.5958849999999813
21
-89.4018599999999992
0
LINE
8
BLACK
6
CONTINUOUS
10
132.5958849999999813
20
-89.4018599999999992
11
132.5968589999999949
21
-89.4008869999999973
0
LINE
8
BLACK
6
CONTINUOUS
10
132.5968589999999949
20
-89.4008869999999973
11
132.5987350000000049
21
-89.391453999999996
0
LINE
8
BLACK
6
CONTINUOUS
10
132.5987350000000049
20
-89.391453999999996
11
132.6012749999999869
21
-89.3821789999999936
0
LINE
8
BLACK
6
CONTINUOUS
10
132.6012749999999869
20
-89.3821789999999936
11
132.6008390000000077
21
-89.380872999999994
0
LINE
8
BLACK
6
CONTINUOUS
10
132.6008390000000077
20
-89.380872999999994
11
132.6014260000000036
21
-89.3779260000000022
0
LINE
8
BLACK
6
CONTINUOUS
10
132.6014260000000036
20
-89.3779260000000022
11
132.6014260000000036
21
-89.3303069999999906
0
LINE
8
BLACK
6
CONTINUOUS
10
132.6014260000000036
20
-89.3303069999999906
11
132.6008390000000077
21
-89.3273590000000013
0
LINE
8
BLACK
6
CONTINUOUS
10
132.6008390000000077
20
-89.3273590000000013
11
132.6012749999999869
21
-89.3260539999999992
0
LINE
8
BLACK
6
CONTINUOUS
10
132.6012749999999869
20
-89.3260539999999992
11
132.5987350000000049
21
-89.3167779999999993
0
LINE
8
BLACK
6
CONTINUOUS
10
132.5987350000000049
20
-89.3167779999999993
11
132.5968589999999949
21
-89.3073459999999955
0
LINE
8
BLACK
6
CONTINUOUS
10
132.5968589999999949
20
-89.3073459999999955
11
132.5958849999999813
21
-89.3063719999999961
0
LINE
8
BLACK
6
CONTINUOUS
10
132.5958849999999813
20
-89.3063719999999961
11
132.595091999999994
21
-89.3034739999999942
0
LINE
8
BLACK
6
CONTINUOUS
10
132.595091999999994
20
-89.3034739999999942
11
132.571282999999994
21
-89.2558559999999943
0
LINE
8
BLACK
6
CONTINUOUS
10
132.571282999999994
20
-89.2558559999999943
11
132.5653879999999845
21
-89.2482589999999902
0
LINE
8
BLACK
6
CONTINUOUS
10
132.5653879999999845
20
-89.2482589999999902
11
132.5600430000000074
21
-89.2402609999999896
0
LINE
8
BLACK
6
CONTINUOUS
10
132.5600430000000074
20
-89.2402609999999896
11
132.5362329999999815
21
-89.2164519999999897
0
LINE
8
BLACK
6
CONTINUOUS
10
132.5362329999999815
20
-89.2164519999999897
11
132.5282359999999926
21
-89.2111089999999933
0
LINE
8
BLACK
6
CONTINUOUS
10
132.5282359999999926
20
-89.2111089999999933
11
132.520639999999986
21
-89.205213999999998
0
LINE
8
BLACK
6
CONTINUOUS
10
132.520639999999986
20
-89.205213999999998
11
132.4730209999999886
21
-89.1814040000000006
0
LINE
8
BLACK
6
CONTINUOUS
10
132.4730209999999886
20
-89.1814040000000006
11
132.470123000000001
21
-89.1806100000000015
0
LINE
8
BLACK
6
CONTINUOUS
10
132.470123000000001
20
-89.1806100000000015
11
132.4691489999999874
21
-89.1796360000000021
0
LINE
8
BLACK
6
CONTINUOUS
10
132.4691489999999874
20
-89.1796360000000021
11
132.4597119999999961
21
-89.1777589999999947
0
LINE
8
BLACK
6
CONTINUOUS
10
132.4597119999999961
20
-89.1777589999999947
11
132.4504419999999811
21
-89.1752199999999959
0
LINE
8
BLACK
6
CONTINUOUS
10
132.4504419999999811
20
-89.1752199999999959
11
132.4491349999999841
21
-89.1756549999999919
0
LINE
8
BLACK
6
CONTINUOUS
10
132.4491349999999841
20
-89.1756549999999919
11
132.4461880000000065
21
-89.1750689999999935
0
LINE
8
BLACK
6
CONTINUOUS
10
132.4461880000000065
20
-89.1750689999999935
11
132.3271409999999833
21
-89.1750689999999935
0
LINE
8
BLACK
6
CONTINUOUS
10
132.3271409999999833
20
-89.1750689999999935
11
132.3177069999999844
21
-89.1769449999999892
0
LINE
8
BLACK
6
CONTINUOUS
10
132.3177069999999844
20
-89.1769449999999892
11
132.3081669999999974
21
-89.1781479999999931
0
LINE
8
BLACK
6
CONTINUOUS
10
132.3081669999999974
20
-89.1781479999999931
11
132.2367380000000026
21
-89.2019579999999905
0
LINE
8
BLACK
6
CONTINUOUS
10
132.2367380000000026
20
-89.2019579999999905
11
132.216399999999993
21
-89.2135519999999929
0
LINE
8
BLACK
6
CONTINUOUS
10
132.216399999999993
20
-89.2135519999999929
11
132.1958630000000028
21
-89.2546260000000018
0
LINE
8
BLACK
6
CONTINUOUS
10
132.1958630000000028
20
-89.2546260000000018
11
132.2103850000000023
21
-89.2981910000000028
0
LINE
8
BLACK
6
CONTINUOUS
10
132.2103850000000023
20
-89.2981910000000028
11
132.2514589999999828
21
-89.318727999999993
0
LINE
8
BLACK
6
CONTINUOUS
10
132.2514589999999828
20
-89.318727999999993
11
132.2746860000000027
21
-89.3157999999999959
0
LINE
8
BLACK
6
CONTINUOUS
10
132.2746860000000027
20
-89.3157999999999959
11
132.3368779999999845
21
-89.295068999999998
0
LINE
8
BLACK
6
CONTINUOUS
10
132.3368779999999845
20
-89.295068999999998
11
132.4320249999999817
21
-89.295068999999998
0
LINE
8
BLACK
6
CONTINUOUS
10
132.4320249999999817
20
-89.295068999999998
11
132.4582639999999856
21
-89.3081889999999987
0
LINE
8
BLACK
6
CONTINUOUS
10
132.4582639999999856
20
-89.3081889999999987
11
132.4683049999999866
21
-89.3182279999999906
0
LINE
8
BLACK
6
CONTINUOUS
10
132.4683049999999866
20
-89.3182279999999906
11
132.481425999999999
21
-89.3444700000000012
0
LINE
8
BLACK
6
CONTINUOUS
10
132.481425999999999
20
-89.3444700000000012
11
132.481425999999999
21
-89.3637619999999941
0
LINE
8
BLACK
6
CONTINUOUS
10
132.481425999999999
20
-89.3637619999999941
11
132.4683049999999866
21
-89.390002999999993
0
LINE
8
BLACK
6
CONTINUOUS
10
132.4683049999999866
20
-89.390002999999993
11
132.4582670000000064
21
-89.4000419999999991
0
LINE
8
BLACK
6
CONTINUOUS
10
132.4582670000000064
20
-89.4000419999999991
11
132.4252439999999922
21
-89.4165529999999933
0
LINE
8
BLACK
6
CONTINUOUS
10
132.4252439999999922
20
-89.4165529999999933
11
132.3363980000000026
21
-89.4387660000000011
0
LINE
8
BLACK
6
CONTINUOUS
10
132.3363980000000026
20
-89.4387660000000011
11
132.330457999999993
21
-89.4415709999999962
0
LINE
8
BLACK
6
CONTINUOUS
10
132.330457999999993
20
-89.4415709999999962
11
132.3241170000000011
21
-89.4433080000000018
0
LINE
8
BLACK
6
CONTINUOUS
10
132.3241170000000011
20
-89.4433080000000018
11
132.2764990000000012
21
-89.4671170000000018
0
LINE
8
BLACK
6
CONTINUOUS
10
132.2764990000000012
20
-89.4671170000000018
11
132.2689019999999971
21
-89.4730109999999996
0
LINE
8
BLACK
6
CONTINUOUS
10
132.2689019999999971
20
-89.4730109999999996
11
132.2609039999999823
21
-89.4783570000000026
0
LINE
8
BLACK
6
CONTINUOUS
10
132.2609039999999823
20
-89.4783570000000026
11
132.2370949999999823
21
-89.502167
0
LINE
8
BLACK
6
CONTINUOUS
10
132.2370949999999823
20
-89.502167
11
132.2317520000000002
21
-89.5101629999999915
0
LINE
8
BLACK
6
CONTINUOUS
10
132.2317520000000002
20
-89.5101629999999915
11
132.2258569999999906
21
-89.5177599999999956
0
LINE
8
BLACK
6
CONTINUOUS
10
132.2258569999999906
20
-89.5177599999999956
11
132.2020469999999932
21
-89.565378999999993
0
LINE
8
BLACK
6
CONTINUOUS
10
132.2020469999999932
20
-89.565378999999993
11
132.2012529999999799
21
-89.5682759999999973
0
LINE
8
BLACK
6
CONTINUOUS
10
132.2012529999999799
20
-89.5682759999999973
11
132.2002789999999948
21
-89.5692509999999942
0
LINE
8
BLACK
6
CONTINUOUS
10
132.2002789999999948
20
-89.5692509999999942
11
132.1984019999999873
21
-89.5786870000000022
0
LINE
8
BLACK
6
CONTINUOUS
10
132.1984019999999873
20
-89.5786870000000022
11
132.1958630000000028
21
-89.5879580000000004
0
LINE
8
BLACK
6
CONTINUOUS
10
132.1958630000000028
20
-89.5879580000000004
11
132.1962979999999845
21
-89.589264
0
LINE
8
BLACK
6
CONTINUOUS
10
132.1962979999999845
20
-89.589264
11
132.1957119999999861
21
-89.5922119999999893
0
LINE
8
BLACK
6
CONTINUOUS
10
132.1957119999999861
20
-89.5922119999999893
11
132.0061890000000062
21
-89.5922119999999893
0
LINE
8
BLACK
6
CONTINUOUS
10
132.0061890000000062
20
-89.5922119999999893
11
132.0061890000000062
21
-89.5144449999999949
0
LINE
8
BLACK
6
CONTINUOUS
10
132.0061890000000062
20
-89.5144449999999949
11
132.1634750000000054
21
-89.267280999999997
0
LINE
8
BLACK
6
CONTINUOUS
10
132.1634750000000054
20
-89.267280999999997
11
132.1719489999999837
21
-89.2454579999999993
0
LINE
8
BLACK
6
CONTINUOUS
10
132.1719489999999837
20
-89.2454579999999993
11
132.1619869999999821
21
-89.2006289999999922
0
LINE
8
BLACK
6
CONTINUOUS
10
132.1619869999999821
20
-89.2006289999999922
11
132.1232439999999997
21
-89.175974999999994
0
LINE
8
BLACK
6
CONTINUOUS
10
132.1232439999999997
20
-89.175974999999994
11
132.0784150000000068
21
-89.1859369999999956
0
LINE
8
BLACK
6
CONTINUOUS
10
132.0784150000000068
20
-89.1859369999999956
11
132.0622349999999869
21
-89.2028569999999945
0
LINE
8
BLACK
6
CONTINUOUS
10
132.0622349999999869
20
-89.2028569999999945
11
131.9461880000000065
21
-89.3852150000000023
0
LINE
8
BLACK
6
CONTINUOUS
10
131.9461880000000065
20
-89.3852150000000023
11
131.8301419999999951
21
-89.202855999999997
0
LINE
8
BLACK
6
CONTINUOUS
10
131.8301419999999951
20
-89.202855999999997
11
131.8139610000000062
21
-89.1859369999999956
0
LINE
8
BLACK
6
CONTINUOUS
10
131.8139610000000062
20
-89.1859369999999956
11
131.7691329999999823
21
-89.175974999999994
0
LINE
8
BLACK
6
CONTINUOUS
10
131.7691329999999823
20
-89.175974999999994
11
131.7303899999999999
21
-89.2006299999999896
0
LINE
8
BLACK
6
CONTINUOUS
10
131.7303899999999999
20
-89.2006299999999896
11
131.7204279999999983
21
-89.2454579999999993
0
LINE
8
BLACK
6
CONTINUOUS
10
131.7204279999999983
20
-89.2454579999999993
11
131.6587549999999851
21
-89.2454579999999993
0
LINE
8
BLACK
6
CONTINUOUS
10
131.6587549999999851
20
-89.2454579999999993
11
131.6552819999999997
21
-89.2402609999999896
0
LINE
8
BLACK
6
CONTINUOUS
10
131.6552819999999997
20
-89.2402609999999896
11
131.6314720000000023
21
-89.2164519999999897
0
LINE
8
BLACK
6
CONTINUOUS
10
131.6314720000000023
20
-89.2164519999999897
11
131.6234749999999849
21
-89.2111089999999933
0
LINE
8
BLACK
6
CONTINUOUS
10
131.6234749999999849
20
-89.2111089999999933
11
131.6158790000000067
21
-89.205213999999998
0
LINE
8
BLACK
6
CONTINUOUS
10
131.6158790000000067
20
-89.205213999999998
11
131.5682599999999809
21
-89.1814040000000006
0
LINE
8
BLACK
6
CONTINUOUS
10
131.5682599999999809
20
-89.1814040000000006
11
131.5653619999999933
21
-89.1806100000000015
0
LINE
8
BLACK
6
CONTINUOUS
10
131.5653619999999933
20
-89.1806100000000015
11
131.5643880000000081
21
-89.1796360000000021
0
LINE
8
BLACK
6
CONTINUOUS
10
131.5643880000000081
20
-89.1796360000000021
11
131.5549509999999884
21
-89.1777589999999947
0
LINE
8
BLACK
6
CONTINUOUS
10
131.5549509999999884
20
-89.1777589999999947
11
131.5456810000000019
21
-89.1752199999999959
0
LINE
8
BLACK
6
CONTINUOUS
10
131.5456810000000019
20
-89.1752199999999959
11
131.5443740000000048
21
-89.1756549999999919
0
LINE
8
BLACK
6
CONTINUOUS
10
131.5443740000000048
20
-89.1756549999999919
11
131.5414269999999988
21
-89.1750689999999935
0
LINE
8
BLACK
6
CONTINUOUS
10
131.5414269999999988
20
-89.1750689999999935
11
131.422380000000004
21
-89.1750689999999935
0
LINE
8
BLACK
6
CONTINUOUS
10
131.422380000000004
20
-89.1750689999999935
11
131.4129460000000051
21
-89.1769449999999892
0
LINE
8
BLACK
6
CONTINUOUS
10
131.4129460000000051
20
-89.1769449999999892
11
131.4034059999999897
21
-89.1781479999999931
0
LINE
8
BLACK
6
CONTINUOUS
10
131.4034059999999897
20
-89.1781479999999931
11
131.3319769999999949
21
-89.2019579999999905
0
LINE
8
BLACK
6
CONTINUOUS
10
131.3319769999999949
20
-89.2019579999999905
11
131.3116389999999853
21
-89.2135519999999929
0
LINE
8
BLACK
6
CONTINUOUS
10
131.3116389999999853
20
-89.2135519999999929
11
131.2911019999999951
21
-89.2546260000000018
0
LINE
8
BLACK
6
CONTINUOUS
10
131.2911019999999951
20
-89.2546260000000018
11
131.3056239999999946
21
-89.2981910000000028
0
LINE
8
BLACK
6
CONTINUOUS
10
131.3056239999999946
20
-89.2981910000000028
11
131.3466980000000035
21
-89.318727999999993
0
LINE
8
BLACK
6
CONTINUOUS
10
131.3466980000000035
20
-89.318727999999993
11
131.369924999999995
21
-89.3157999999999959
0
LINE
8
BLACK
6
CONTINUOUS
10
131.369924999999995
20
-89.3157999999999959
11
131.4321170000000052
21
-89.295068999999998
0
LINE
8
BLACK
6
CONTINUOUS
10
131.4321170000000052
20
-89.295068999999998
11
131.5272640000000024
21
-89.295068999999998
0
LINE
8
BLACK
6
CONTINUOUS
10
131.5272640000000024
20
-89.295068999999998
11
131.5535030000000063
21
-89.3081889999999987
0
LINE
8
BLACK
6
CONTINUOUS
10
131.5535030000000063
20
-89.3081889999999987
11
131.5635440000000074
21
-89.3182279999999906
0
LINE
8
BLACK
6
CONTINUOUS
10
131.5635440000000074
20
-89.3182279999999906
11
131.5766649999999913
21
-89.3444700000000012
0
LINE
8
BLACK
6
CONTINUOUS
10
131.5766649999999913
20
-89.3444700000000012
11
131.5766649999999913
21
-89.3637619999999941
0
LINE
8
BLACK
6
CONTINUOUS
10
131.5766649999999913
20
-89.3637619999999941
11
131.5635440000000074
21
-89.390002999999993
0
LINE
8
BLACK
6
CONTINUOUS
10
131.5635440000000074
20
-89.390002999999993
11
131.5535059999999987
21
-89.4000419999999991
0
LINE
8
BLACK
6
CONTINUOUS
10
131.5535059999999987
20
-89.4000419999999991
11
131.5204829999999845
21
-89.4165529999999933
0
LINE
8
BLACK
6
CONTINUOUS
10
131.5204829999999845
20
-89.4165529999999933
11
131.4316369999999949
21
-89.4387660000000011
0
LINE
8
BLACK
6
CONTINUOUS
10
131.4316369999999949
20
-89.4387660000000011
11
131.4256969999999853
21
-89.4415709999999962
0
LINE
8
BLACK
6
CONTINUOUS
10
131.4256969999999853
20
-89.4415709999999962
11
131.4193559999999934
21
-89.4433080000000018
0
LINE
8
BLACK
6
CONTINUOUS
10
131.4193559999999934
20
-89.4433080000000018
11
131.3717379999999935
21
-89.4671170000000018
0
LINE
8
BLACK
6
CONTINUOUS
10
131.3717379999999935
20
-89.4671170000000018
11
131.3641409999999894
21
-89.4730109999999996
0
LINE
8
BLACK
6
CONTINUOUS
10
131.3641409999999894
20
-89.4730109999999996
11
131.356143000000003
21
-89.4783570000000026
0
LINE
8
BLACK
6
CONTINUOUS
10
131.356143000000003
20
-89.4783570000000026
11
131.332334000000003
21
-89.502167
0
LINE
8
BLACK
6
CONTINUOUS
10
131.332334000000003
20
-89.502167
11
131.3269909999999925
21
-89.5101629999999915
0
LINE
8
BLACK
6
CONTINUOUS
10
131.3269909999999925
20
-89.5101629999999915
11
131.321095999999983
21
-89.5177599999999956
0
LINE
8
BLACK
6
CONTINUOUS
10
131.321095999999983
20
-89.5177599999999956
11
131.2972859999999855
21
-89.565378999999993
0
LINE
8
BLACK
6
CONTINUOUS
10
131.2972859999999855
20
-89.565378999999993
11
131.2964920000000006
21
-89.5682759999999973
0
LINE
8
BLACK
6
CONTINUOUS
10
131.2964920000000006
20
-89.5682759999999973
11
131.2955179999999871
21
-89.5692509999999942
0
LINE
8
BLACK
6
CONTINUOUS
10
131.2955179999999871
20
-89.5692509999999942
11
131.293641000000008
21
-89.5786870000000022
0
LINE
8
BLACK
6
CONTINUOUS
10
131.293641000000008
20
-89.5786870000000022
11
131.2911019999999951
21
-89.5879580000000004
0
LINE
8
BLACK
6
CONTINUOUS
10
131.2911019999999951
20
-89.5879580000000004
11
131.2915370000000053
21
-89.589264
0
LINE
8
BLACK
6
CONTINUOUS
10
131.2915370000000053
20
-89.589264
11
131.2909510000000068
21
-89.5922119999999893
0
LINE
8
BLACK
6
CONTINUOUS
10
131.2909510000000068
20
-89.5922119999999893
11
131.1252369999999985
21
-89.5922119999999893
0
LINE
8
BLACK
6
CONTINUOUS
10
131.1252369999999985
20
-89.5922119999999893
11
131.1252369999999985
21
-89.295068999999998
0
LINE
8
BLACK
6
CONTINUOUS
10
131.1252369999999985
20
-89.295068999999998
11
131.2080939999999885
21
-89.295068999999998
0
LINE
8
BLACK
6
CONTINUOUS
10
131.2080939999999885
20
-89.295068999999998
11
131.2310549999999978
21
-89.2905019999999894
0
LINE
8
BLACK
6
CONTINUOUS
10
131.2310549999999978
20
-89.2905019999999894
11
131.2635269999999821
21
-89.2580299999999909
0
LINE
8
BLACK
6
CONTINUOUS
10
131.2635269999999821
20
-89.2580299999999909
11
131.2635269999999821
21
-89.2121080000000006
0
LINE
8
BLACK
6
CONTINUOUS
10
131.2635269999999821
20
-89.2121080000000006
11
131.2310549999999978
21
-89.1796360000000021
0
LINE
8
BLACK
6
CONTINUOUS
10
131.2310549999999978
20
-89.1796360000000021
11
131.2080939999999885
21
-89.1750689999999935
0
LINE
8
BLACK
6
CONTINUOUS
10
131.2080939999999885
20
-89.1750689999999935
11
130.922380000000004
21
-89.1750689999999935
0
LINE
8
BLACK
6
CONTINUOUS
10
130.922380000000004
20
-89.1750689999999935
11
130.8994189999999946
21
-89.1796360000000021
0
LINE
8
BLACK
6
CONTINUOUS
10
130.8994189999999946
20
-89.1796360000000021
11
130.8669469999999819
21
-89.2121080000000006
0
LINE
8
BLACK
6
CONTINUOUS
10
130.8669469999999819
20
-89.2121080000000006
11
130.8111470000000054
21
-89.2121080000000006
0
LINE
8
BLACK
6
CONTINUOUS
10
130.8111470000000054
20
-89.2121080000000006
11
130.7786749999999927
21
-89.1796360000000021
0
LINE
8
BLACK
6
CONTINUOUS
10
130.7786749999999927
20
-89.1796360000000021
11
130.7557139999999833
21
-89.1750689999999935
0
LINE
8
BLACK
6
CONTINUOUS
10
130.7557139999999833
20
-89.1750689999999935
11
130.5176189999999963
21
-89.1750689999999935
0
LINE
8
BLACK
6
CONTINUOUS
10
130.5176189999999963
20
-89.1750689999999935
11
130.4946579999999869
21
-89.1796360000000021
0
LINE
8
BLACK
6
CONTINUOUS
10
130.4946579999999869
20
-89.1796360000000021
11
130.4621860000000027
21
-89.2121080000000006
0
LINE
8
BLACK
6
CONTINUOUS
10
130.4621860000000027
20
-89.2121080000000006
11
130.3587660000000028
21
-89.2121080000000006
0
LINE
8
BLACK
6
CONTINUOUS
10
130.3587660000000028
20
-89.2121080000000006
11
130.3512259999999969
21
-89.2045679999999948
0
LINE
8
BLACK
6
CONTINUOUS
10
130.3512259999999969
20
-89.2045679999999948
11
130.3475819999999885
21
-89.1945460000000026
0
LINE
8
BLACK
6
CONTINUOUS
10
130.3475819999999885
20
-89.1945460000000026
11
130.3356229999999982
21
-89.1889649999999961
0
LINE
8
BLACK
6
CONTINUOUS
10
130.3356229999999982
20
-89.1889649999999961
11
130.3262939999999901
21
-89.1796360000000021
0
LINE
8
BLACK
6
CONTINUOUS
10
130.3262939999999901
20
-89.1796360000000021
11
130.3156309999999962
21
-89.1796360000000021
0
LINE
8
BLACK
6
CONTINUOUS
10
130.3156309999999962
20
-89.1796360000000021
11
130.3059680000000071
21
-89.1751269999999892
0
LINE
8
BLACK
6
CONTINUOUS
10
130.3059680000000071
20
-89.1751269999999892
11
130.2935679999999934
21
-89.1796360000000021
0
LINE
8
BLACK
6
CONTINUOUS
10
130.2935679999999934
20
-89.1796360000000021
11
130.2803719999999998
21
-89.1796360000000021
0
LINE
8
BLACK
6
CONTINUOUS
10
130.2803719999999998
20
-89.1796360000000021
11
130.272831999999994
21
-89.1871749999999963
0
LINE
8
BLACK
6
CONTINUOUS
10
130.272831999999994
20
-89.1871749999999963
11
130.2628100000000018
21
-89.1908200000000022
0
LINE
8
BLACK
6
CONTINUOUS
10
130.2628100000000018
20
-89.1908200000000022
11
130.2489620000000059
21
-89.2096959999999939
0
LINE
8
BLACK
6
CONTINUOUS
10
130.2489620000000059
20
-89.2096959999999939
11
130.1366659999999911
21
-89.4503289999999964
0
LINE
8
BLACK
6
CONTINUOUS
10
130.1366659999999911
20
-89.4503289999999964
11
130.0243710000000021
21
-89.2096959999999939
0
LINE
8
BLACK
6
CONTINUOUS
10
130.0243710000000021
20
-89.2096959999999939
11
130.0105230000000063
21
-89.1908200000000022
0
LINE
8
BLACK
6
CONTINUOUS
10
130.0105230000000063
20
-89.1908200000000022
11
130.0004999999999882
21
-89.1871749999999963
0
LINE
8
BLACK
6
CONTINUOUS
10
130.0004999999999882
20
-89.1871749999999963
11
129.9929610000000082
21
-89.1796360000000021
0
LINE
8
BLACK
6
CONTINUOUS
10
129.9929610000000082
20
-89.1796360000000021
11
129.9797649999999862
21
-89.1796360000000021
0
LINE
8
BLACK
6
CONTINUOUS
10
129.9797649999999862
20
-89.1796360000000021
11
129.9673650000000009
21
-89.1751269999999892
0
LINE
8
BLACK
6
CONTINUOUS
10
129.9673650000000009
20
-89.1751269999999892
11
129.9577019999999834
21
-89.1796360000000021
0
LINE
8
BLACK
6
CONTINUOUS
10
129.9577019999999834
20
-89.1796360000000021
11
129.9470389999999895
21
-89.1796360000000021
0
LINE
8
BLACK
6
CONTINUOUS
10
129.9470389999999895
20
-89.1796360000000021
11
129.9377089999999839
21
-89.1889649999999961
0
LINE
8
BLACK
6
CONTINUOUS
10
129.9377089999999839
20
-89.1889649999999961
11
129.9257509999999911
21
-89.1945460000000026
0
LINE
8
BLACK
6
CONTINUOUS
10
129.9257509999999911
20
-89.1945460000000026
11
129.9221059999999852
21
-89.2045679999999948
0
LINE
8
BLACK
6
CONTINUOUS
10
129.9221059999999852
20
-89.2045679999999948
11
129.9145670000000052
21
-89.2121080000000006
0
LINE
8
BLACK
6
CONTINUOUS
10
129.9145670000000052
20
-89.2121080000000006
11
129.9099999999999966
21
-89.2350689999999958
0
LINE
8
BLACK
6
CONTINUOUS
10
129.9099999999999966
20
-89.2350689999999958
11
129.7919039999999882
21
-89.2350689999999958
0
LINE
8
BLACK
6
CONTINUOUS
10
129.7919039999999882
20
-89.2350689999999958
11
129.7873370000000079
21
-89.2121080000000006
0
LINE
8
BLACK
6
CONTINUOUS
10
129.7873370000000079
20
-89.2121080000000006
11
129.7548649999999952
21
-89.1796360000000021
0
LINE
8
BLACK
6
CONTINUOUS
10
129.7548649999999952
20
-89.1796360000000021
11
129.708943000000005
21
-89.1796360000000021
0
LINE
8
BLACK
6
CONTINUOUS
10
129.708943000000005
20
-89.1796360000000021
11
129.6764709999999923
21
-89.2121080000000006
0
LINE
8
BLACK
6
CONTINUOUS
10
129.6764709999999923
20
-89.2121080000000006
11
129.6719039999999836
21
-89.2350689999999958
0
LINE
8
BLACK
6
CONTINUOUS
10
129.6719039999999836
20
-89.2350689999999958
11
129.4834219999999902
21
-89.2350689999999958
0
LINE
8
BLACK
6
CONTINUOUS
10
129.4834219999999902
20
-89.2350689999999958
11
129.4648059999999816
21
-89.2164530000000013
0
LINE
8
BLACK
6
CONTINUOUS
10
129.4648059999999816
20
-89.2164530000000013
11
129.4623090000000047
21
-89.2147839999999945
0
LINE
8
BLACK
6
CONTINUOUS
10
129.4623090000000047
20
-89.2147839999999945
11
129.4616929999999968
21
-89.2135519999999929
0
LINE
8
BLACK
6
CONTINUOUS
10
129.4616929999999968
20
-89.2135519999999929
11
129.4533329999999864
21
-89.2087859999999893
0
LINE
8
BLACK
6
CONTINUOUS
10
129.4533329999999864
20
-89.2087859999999893
11
129.4453409999999849
21
-89.2034459999999996
0
LINE
8
BLACK
6
CONTINUOUS
10
129.4453409999999849
20
-89.2034459999999996
11
129.443963999999994
21
-89.2034459999999996
0
LINE
8
BLACK
6
CONTINUOUS
10
129.443963999999994
20
-89.2034459999999996
11
129.4413539999999898
21
-89.2019579999999905
0
LINE
8
BLACK
6
CONTINUOUS
10
129.4413539999999898
20
-89.2019579999999905
11
129.3699259999999924
21
-89.1781479999999931
0
LINE
8
BLACK
6
CONTINUOUS
10
129.3699259999999924
20
-89.1781479999999931
11
129.3603850000000079
21
-89.1769449999999892
0
LINE
8
BLACK
6
CONTINUOUS
10
129.3603850000000079
20
-89.1769449999999892
11
129.3509520000000066
21
-89.1750689999999935
0
LINE
8
BLACK
6
CONTINUOUS
10
129.3509520000000066
20
-89.1750689999999935
11
129.3033329999999808
21
-89.1750689999999935
0
LINE
8
BLACK
6
CONTINUOUS
10
129.3033329999999808
20
-89.1750689999999935
11
129.2938989999999819
21
-89.1769449999999892
0
LINE
8
BLACK
6
CONTINUOUS
10
129.2938989999999819
20
-89.1769449999999892
11
129.2843589999999949
21
-89.1781479999999931
0
LINE
8
BLACK
6
CONTINUOUS
10
129.2843589999999949
20
-89.1781479999999931
11
129.2129300000000001
21
-89.2019579999999905
0
LINE
8
BLACK
6
CONTINUOUS
10
129.2129300000000001
20
-89.2019579999999905
11
129.2103199999999958
21
-89.2034459999999996
0
LINE
8
BLACK
6
CONTINUOUS
10
129.2103199999999958
20
-89.2034459999999996
11
129.208943000000005
21
-89.2034459999999996
0
LINE
8
BLACK
6
CONTINUOUS
10
129.208943000000005
20
-89.2034459999999996
11
129.2009469999999851
21
-89.2087879999999984
0
LINE
8
BLACK
6
CONTINUOUS
10
129.2009469999999851
20
-89.2087879999999984
11
129.1925919999999905
21
-89.2135519999999929
0
LINE
8
BLACK
6
CONTINUOUS
10
129.1925919999999905
20
-89.2135519999999929
11
129.1919759999999826
21
-89.2147829999999971
0
LINE
8
BLACK
6
CONTINUOUS
10
129.1919759999999826
20
-89.2147829999999971
11
129.1894780000000083
21
-89.2164530000000013
0
LINE
8
BLACK
6
CONTINUOUS
10
129.1894780000000083
20
-89.2164530000000013
11
129.1656690000000083
21
-89.2402620000000013
0
LINE
8
BLACK
6
CONTINUOUS
10
129.1656690000000083
20
-89.2402620000000013
11
129.1526619999999923
21
-89.259726999999998
0
LINE
8
BLACK
6
CONTINUOUS
10
129.1526619999999923
20
-89.259726999999998
11
128.6271289999999965
21
-89.259726999999998
0
LINE
8
BLACK
6
CONTINUOUS
10
128.6271289999999965
20
-89.259726999999998
11
128.5838540000000023
21
-89.2164530000000013
0
LINE
8
BLACK
6
CONTINUOUS
10
128.5838540000000023
20
-89.2164530000000013
11
128.581356999999997
21
-89.2147839999999945
0
LINE
8
BLACK
6
CONTINUOUS
10
128.581356999999997
20
-89.2147839999999945
11
128.5807409999999891
21
-89.2135519999999929
0
LINE
8
BLACK
6
CONTINUOUS
10
128.5807409999999891
20
-89.2135519999999929
11
128.5723810000000071
21
-89.2087859999999893
0
LINE
8
BLACK
6
CONTINUOUS
10
128.5723810000000071
20
-89.2087859999999893
11
128.5643890000000056
21
-89.2034459999999996
0
LINE
8
BLACK
6
CONTINUOUS
10
128.5643890000000056
20
-89.2034459999999996
11
128.5630119999999863
21
-89.2034459999999996
0
LINE
8
BLACK
6
CONTINUOUS
10
128.5630119999999863
20
-89.2034459999999996
11
128.5604019999999821
21
-89.2019579999999905
0
LINE
8
BLACK
6
CONTINUOUS
10
128.5604019999999821
20
-89.2019579999999905
11
128.4889739999999847
21
-89.1781479999999931
0
LINE
8
BLACK
6
CONTINUOUS
10
128.4889739999999847
20
-89.1781479999999931
11
128.4794330000000002
21
-89.1769449999999892
0
LINE
8
BLACK
6
CONTINUOUS
10
128.4794330000000002
20
-89.1769449999999892
11
128.4699999999999989
21
-89.1750689999999935
0
LINE
8
BLACK
6
CONTINUOUS
10
128.4699999999999989
20
-89.1750689999999935
11
128.398571000000004
21
-89.1750689999999935
0
LINE
8
BLACK
6
CONTINUOUS
10
128.398571000000004
20
-89.1750689999999935
11
128.3956230000000005
21
-89.1756549999999919
0
LINE
8
BLACK
6
CONTINUOUS
10
128.3956230000000005
20
-89.1756549999999919
11
128.3943170000000009
21
-89.1752199999999959
0
LINE
8
BLACK
6
CONTINUOUS
10
128.3943170000000009
20
-89.1752199999999959
11
128.3850459999999885
21
-89.1777589999999947
0
LINE
8
BLACK
6
CONTINUOUS
10
128.3850459999999885
20
-89.1777589999999947
11
128.3756099999999947
21
-89.1796360000000021
0
LINE
8
BLACK
6
CONTINUOUS
10
128.3756099999999947
20
-89.1796360000000021
11
128.3746349999999836
21
-89.1806100000000015
0
LINE
8
BLACK
6
CONTINUOUS
10
128.3746349999999836
20
-89.1806100000000015
11
128.3717379999999935
21
-89.1814040000000006
0
LINE
8
BLACK
6
CONTINUOUS
10
128.3717379999999935
20
-89.1814040000000006
11
128.324118999999996
21
-89.205213999999998
0
LINE
8
BLACK
6
CONTINUOUS
10
128.324118999999996
20
-89.205213999999998
11
128.3056239999999946
21
-89.2195669999999978
0
LINE
8
BLACK
6
CONTINUOUS
10
128.3056239999999946
20
-89.2195669999999978
11
128.2911029999999926
21
-89.2631329999999963
0
LINE
8
BLACK
6
CONTINUOUS
10
128.2911029999999926
20
-89.2631329999999963
11
128.3116399999999828
21
-89.304206999999991
0
LINE
8
BLACK
6
CONTINUOUS
10
128.3116399999999828
20
-89.304206999999991
11
128.3552059999999813
21
-89.318727999999993
0
LINE
8
BLACK
6
CONTINUOUS
10
128.3552059999999813
20
-89.318727999999993
11
128.3777849999999887
21
-89.3125440000000026
0
LINE
8
BLACK
6
CONTINUOUS
10
128.3777849999999887
20
-89.3125440000000026
11
128.4127340000000004
21
-89.295068999999998
0
LINE
8
BLACK
6
CONTINUOUS
10
128.4127340000000004
20
-89.295068999999998
11
128.4602629999999976
21
-89.295068999999998
0
LINE
8
BLACK
6
CONTINUOUS
10
128.4602629999999976
20
-89.295068999999998
11
128.5090170000000001
21
-89.3113209999999924
0
LINE
8
BLACK
6
CONTINUOUS
10
128.5090170000000001
20
-89.3113209999999924
11
128.5397370000000024
21
-89.3420399999999972
0
LINE
8
BLACK
6
CONTINUOUS
10
128.5397370000000024
20
-89.3420399999999972
11
128.5562439999999924
21
-89.375054999999989
0
LINE
8
BLACK
6
CONTINUOUS
10
128.5562439999999924
20
-89.375054999999989
11
128.5766659999999888
21
-89.4567419999999913
0
LINE
8
BLACK
6
CONTINUOUS
10
128.5766659999999888
20
-89.4567419999999913
11
128.5766659999999888
21
-89.5133950000000027
0
LINE
8
BLACK
6
CONTINUOUS
10
128.5766659999999888
20
-89.5133950000000027
11
128.5562439999999924
21
-89.5950819999999908
0
LINE
8
BLACK
6
CONTINUOUS
10
128.5562439999999924
20
-89.5950819999999908
11
128.5397370000000024
21
-89.6280969999999968
0
LINE
8
BLACK
6
CONTINUOUS
10
128.5397370000000024
20
-89.6280969999999968
11
128.5090160000000026
21
-89.6588179999999966
0
LINE
8
BLACK
6
CONTINUOUS
10
128.5090160000000026
20
-89.6588179999999966
11
128.4602639999999951
21
-89.6750689999999935
0
LINE
8
BLACK
6
CONTINUOUS
10
128.4602639999999951
20
-89.6750689999999935
11
128.4321180000000027
21
-89.6750689999999935
0
LINE
8
BLACK
6
CONTINUOUS
10
128.4321180000000027
20
-89.6750689999999935
11
128.3871429999999805
21
-89.6600779999999986
0
LINE
8
BLACK
6
CONTINUOUS
10
128.3871429999999805
20
-89.6600779999999986
11
128.3871429999999805
21
-89.5807829999999967
0
LINE
8
BLACK
6
CONTINUOUS
10
128.3871429999999805
20
-89.5807829999999967
11
128.4223810000000014
21
-89.5807829999999967
0
LINE
8
BLACK
6
CONTINUOUS
10
128.4223810000000014
20
-89.5807829999999967
11
128.4453419999999824
21
-89.5762160000000023
0
LINE
8
BLACK
6
CONTINUOUS
10
128.4453419999999824
20
-89.5762160000000023
11
128.4778139999999951
21
-89.5437439999999896
0
LINE
8
BLACK
6
CONTINUOUS
10
128.4778139999999951
20
-89.5437439999999896
11
128.4778139999999951
21
-89.4978219999999993
0
LINE
8
BLACK
6
CONTINUOUS
10
128.4778139999999951
20
-89.4978219999999993
11
128.4453419999999824
21
-89.4653500000000008
0
LINE
8
BLACK
6
CONTINUOUS
10
128.4453419999999824
20
-89.4653500000000008
11
128.4223810000000014
21
-89.4607829999999922
0
LINE
8
BLACK
6
CONTINUOUS
10
128.4223810000000014
20
-89.4607829999999922
11
128.3271430000000066
21
-89.4607829999999922
0
LINE
8
BLACK
6
CONTINUOUS
10
128.3271430000000066
20
-89.4607829999999922
11
128.3041819999999973
21
-89.4653500000000008
0
LINE
8
BLACK
6
CONTINUOUS
10
128.3041819999999973
20
-89.4653500000000008
11
128.2717099999999846
21
-89.4978219999999993
0
LINE
8
BLACK
6
CONTINUOUS
10
128.2717099999999846
20
-89.4978219999999993
11
128.2671430000000043
21
-89.5207829999999944
0
LINE
8
BLACK
6
CONTINUOUS
10
128.2671430000000043
20
-89.5207829999999944
11
128.176101999999986
21
-89.5207829999999944
0
LINE
8
BLACK
6
CONTINUOUS
10
128.176101999999986
20
-89.5207829999999944
11
128.0745399999999847
21
-89.2160949999999957
0
LINE
8
BLACK
6
CONTINUOUS
10
128.0745399999999847
20
-89.2160949999999957
11
128.0629470000000083
21
-89.1957570000000004
0
LINE
8
BLACK
6
CONTINUOUS
10
128.0629470000000083
20
-89.1957570000000004
11
128.0589349999999911
21
-89.1937509999999918
0
LINE
8
BLACK
6
CONTINUOUS
10
128.0589349999999911
20
-89.1937509999999918
11
128.0569309999999916
21
-89.1897419999999954
0
LINE
8
BLACK
6
CONTINUOUS
10
128.0569309999999916
20
-89.1897419999999954
11
128.0388859999999909
21
-89.1837269999999904
0
LINE
8
BLACK
6
CONTINUOUS
10
128.0388859999999909
20
-89.1837269999999904
11
128.0218720000000019
21
-89.1752199999999959
0
LINE
8
BLACK
6
CONTINUOUS
10
128.0218720000000019
20
-89.1752199999999959
11
128.0176179999999988
21
-89.1766369999999995
0
LINE
8
BLACK
6
CONTINUOUS
10
128.0176179999999988
20
-89.1766369999999995
11
128.0133659999999907
21
-89.1752199999999959
0
LINE
8
BLACK
6
CONTINUOUS
10
128.0133659999999907
20
-89.1752199999999959
11
127.9963549999999941
21
-89.1837249999999955
0
LINE
8
BLACK
6
CONTINUOUS
10
127.9963549999999941
20
-89.1837249999999955
11
127.9783070000000009
21
-89.1897409999999979
0
LINE
8
BLACK
6
CONTINUOUS
10
127.9783070000000009
20
-89.1897409999999979
11
127.9763009999999923
21
-89.1937509999999918
0
LINE
8
BLACK
6
CONTINUOUS
10
127.9763009999999923
20
-89.1937509999999918
11
127.9722909999999985
21
-89.1957570000000004
0
LINE
8
BLACK
6
CONTINUOUS
10
127.9722909999999985
20
-89.1957570000000004
11
127.9606979999999936
21
-89.2160959999999932
0
LINE
8
BLACK
6
CONTINUOUS
10
127.9606979999999936
20
-89.2160959999999932
11
127.7940309999999897
21
-89.7160949999999957
0
LINE
8
BLACK
6
CONTINUOUS
10
127.7940309999999897
20
-89.7160949999999957
11
127.7911029999999926
21
-89.7393220000000014
0
LINE
8
BLACK
6
CONTINUOUS
10
127.7911029999999926
20
-89.7393220000000014
11
127.7434399999999926
21
-89.7393220000000014
0
LINE
8
BLACK
6
CONTINUOUS
10
127.7434399999999926
20
-89.7393220000000014
11
127.7442859999999882
21
-89.7350689999999958
0
LINE
8
BLACK
6
CONTINUOUS
10
127.7442859999999882
20
-89.7350689999999958
11
127.7442859999999882
21
-89.2350689999999958
0
LINE
8
BLACK
6
CONTINUOUS
10
127.7442859999999882
20
-89.2350689999999958
11
127.7397189999999938
21
-89.2121080000000006
0
LINE
8
BLACK
6
CONTINUOUS
10
127.7397189999999938
20
-89.2121080000000006
11
127.7321789999999879
21
-89.2045679999999948
0
LINE
8
BLACK
6
CONTINUOUS
10
127.7321789999999879
20
-89.2045679999999948
11
127.7285349999999937
21
-89.1945460000000026
0
LINE
8
BLACK
6
CONTINUOUS
10
127.7285349999999937
20
-89.1945460000000026
11
127.7165759999999892
21
-89.1889649999999961
0
LINE
8
BLACK
6
CONTINUOUS
10
127.7165759999999892
20
-89.1889649999999961
11
127.7072469999999953
21
-89.1796360000000021
0
LINE
8
BLACK
6
CONTINUOUS
10
127.7072469999999953
20
-89.1796360000000021
11
127.6965839999999872
21
-89.1796360000000021
0
LINE
8
BLACK
6
CONTINUOUS
10
127.6965839999999872
20
-89.1796360000000021
11
127.6869209999999981
21
-89.1751269999999892
0
LINE
8
BLACK
6
CONTINUOUS
10
127.6869209999999981
20
-89.1751269999999892
11
127.6745209999999986
21
-89.1796360000000021
0
LINE
8
BLACK
6
CONTINUOUS
10
127.6745209999999986
20
-89.1796360000000021
11
127.6613249999999908
21
-89.1796360000000021
0
LINE
8
BLACK
6
CONTINUOUS
10
127.6613249999999908
20
-89.1796360000000021
11
127.6537849999999992
21
-89.1871749999999963
0
LINE
8
BLACK
6
CONTINUOUS
10
127.6537849999999992
20
-89.1871749999999963
11
127.6437629999999928
21
-89.1908200000000022
0
LINE
8
BLACK
6
CONTINUOUS
10
127.6437629999999928
20
-89.1908200000000022
11
127.6299149999999969
21
-89.2096959999999939
0
LINE
8
BLACK
6
CONTINUOUS
10
127.6299149999999969
20
-89.2096959999999939
11
127.5176189999999963
21
-89.4503289999999964
0
LINE
8
BLACK
6
CONTINUOUS
10
127.5176189999999963
20
-89.4503289999999964
11
127.4053239999999931
21
-89.2096959999999939
0
LINE
8
BLACK
6
CONTINUOUS
10
127.4053239999999931
20
-89.2096959999999939
11
127.3914759999999973
21
-89.1908200000000022
0
LINE
8
BLACK
6
CONTINUOUS
10
127.3914759999999973
20
-89.1908200000000022
11
127.3814529999999934
21
-89.1871749999999963
0
LINE
8
BLACK
6
CONTINUOUS
10
127.3814529999999934
20
-89.1871749999999963
11
127.3739139999999992
21
-89.1796360000000021
0
LINE
8
BLACK
6
CONTINUOUS
10
127.3739139999999992
20
-89.1796360000000021
11
127.3607179999999914
21
-89.1796360000000021
0
LINE
8
BLACK
6
CONTINUOUS
10
127.3607179999999914
20
-89.1796360000000021
11
127.3483179999999919
21
-89.1751269999999892
0
LINE
8
BLACK
6
CONTINUOUS
10
127.3483179999999919
20
-89.1751269999999892
11
127.3386549999999886
21
-89.1796360000000021
0
LINE
8
BLACK
6
CONTINUOUS
10
127.3386549999999886
20
-89.1796360000000021
11
127.3279919999999947
21
-89.1796360000000021
0
LINE
8
BLACK
6
CONTINUOUS
10
127.3279919999999947
20
-89.1796360000000021
11
127.3186619999999891
21
-89.1889649999999961
0
LINE
8
BLACK
6
CONTINUOUS
10
127.3186619999999891
20
-89.1889649999999961
11
127.3067039999999963
21
-89.1945460000000026
0
LINE
8
BLACK
6
CONTINUOUS
10
127.3067039999999963
20
-89.1945460000000026
11
127.3030589999999904
21
-89.2045679999999948
0
LINE
8
BLACK
6
CONTINUOUS
10
127.3030589999999904
20
-89.2045679999999948
11
127.2955199999999962
21
-89.2121080000000006
0
LINE
8
BLACK
6
CONTINUOUS
10
127.2955199999999962
20
-89.2121080000000006
11
127.2909529999999876
21
-89.2350689999999958
0
LINE
8
BLACK
6
CONTINUOUS
10
127.2909529999999876
20
-89.2350689999999958
11
127.1728569999999934
21
-89.2350689999999958
0
LINE
8
BLACK
6
CONTINUOUS
10
127.1728569999999934
20
-89.2350689999999958
11
127.1682899999999989
21
-89.2121080000000006
0
LINE
8
BLACK
6
CONTINUOUS
10
127.1682899999999989
20
-89.2121080000000006
11
127.1358180000000004
21
-89.1796360000000021
0
LINE
8
BLACK
6
CONTINUOUS
10
127.1358180000000004
20
-89.1796360000000021
11
127.1128569999999911
21
-89.1750689999999935
0
LINE
8
BLACK
6
CONTINUOUS
10
127.1128569999999911
20
-89.1750689999999935
11
126.8747619999999898
21
-89.1750689999999935
0
LINE
8
BLACK
6
CONTINUOUS
10
126.8747619999999898
20
-89.1750689999999935
11
126.8518009999999947
21
-89.1796360000000021
0
LINE
8
BLACK
6
CONTINUOUS
10
126.8518009999999947
20
-89.1796360000000021
11
126.8193289999999962
21
-89.2121080000000006
0
LINE
8
BLACK
6
CONTINUOUS
10
126.8193289999999962
20
-89.2121080000000006
11
126.6725899999999996
21
-89.2121080000000006
0
LINE
8
BLACK
6
CONTINUOUS
10
126.6725899999999996
20
-89.2121080000000006
11
126.671094999999994
21
-89.2111089999999933
0
LINE
8
BLACK
6
CONTINUOUS
10
126.671094999999994
20
-89.2111089999999933
11
126.6634989999999874
21
-89.205213999999998
0
LINE
8
BLACK
6
CONTINUOUS
10
126.6634989999999874
20
-89.205213999999998
11
126.61587999999999
21
-89.1814040000000006
0
LINE
8
BLACK
6
CONTINUOUS
10
126.61587999999999
20
-89.1814040000000006
11
126.6129819999999881
21
-89.1806100000000015
0
LINE
8
BLACK
6
CONTINUOUS
10
126.6129819999999881
20
-89.1806100000000015
11
126.6120079999999888
21
-89.1796360000000021
0
LINE
8
BLACK
6
CONTINUOUS
10
126.6120079999999888
20
-89.1796360000000021
11
126.6025709999999975
21
-89.1777589999999947
0
LINE
8
BLACK
6
CONTINUOUS
10
126.6025709999999975
20
-89.1777589999999947
11
126.5933009999999967
21
-89.1752199999999959
0
LINE
8
BLACK
6
CONTINUOUS
10
126.5933009999999967
20
-89.1752199999999959
11
126.5919939999999997
21
-89.1756549999999919
0
LINE
8
BLACK
6
CONTINUOUS
10
126.5919939999999997
20
-89.1756549999999919
11
126.5890469999999937
21
-89.1750689999999935
0
LINE
8
BLACK
6
CONTINUOUS
10
126.5890469999999937
20
-89.1750689999999935
11
126.4699999999999989
21
-89.1750689999999935
0
LINE
8
BLACK
6
CONTINUOUS
10
126.4699999999999989
20
-89.1750689999999935
11
126.460566
21
-89.1769449999999892
0
LINE
8
BLACK
6
CONTINUOUS
10
126.460566
20
-89.1769449999999892
11
126.4510259999999988
21
-89.1781479999999931
0
LINE
8
BLACK
6
CONTINUOUS
10
126.4510259999999988
20
-89.1781479999999931
11
126.3795969999999897
21
-89.2019579999999905
0
LINE
8
BLACK
6
CONTINUOUS
10
126.3795969999999897
20
-89.2019579999999905
11
126.3592589999999944
21
-89.2135519999999929
0
LINE
8
BLACK
6
CONTINUOUS
10
126.3592589999999944
20
-89.2135519999999929
11
126.33872199999999
21
-89.2546260000000018
0
LINE
8
BLACK
6
CONTINUOUS
10
126.33872199999999
20
-89.2546260000000018
11
126.3532439999999895
21
-89.2981910000000028
0
LINE
8
BLACK
6
CONTINUOUS
10
126.3532439999999895
20
-89.2981910000000028
11
126.3943179999999984
21
-89.318727999999993
0
LINE
8
BLACK
6
CONTINUOUS
10
126.3943179999999984
20
-89.318727999999993
11
126.4175449999999898
21
-89.3157999999999959
0
LINE
8
BLACK
6
CONTINUOUS
10
126.4175449999999898
20
-89.3157999999999959
11
126.4797370000000001
21
-89.295068999999998
0
LINE
8
BLACK
6
CONTINUOUS
10
126.4797370000000001
20
-89.295068999999998
11
126.5748839999999973
21
-89.295068999999998
0
LINE
8
BLACK
6
CONTINUOUS
10
126.5748839999999973
20
-89.295068999999998
11
126.6011230000000012
21
-89.3081889999999987
0
LINE
8
BLACK
6
CONTINUOUS
10
126.6011230000000012
20
-89.3081889999999987
11
126.6111639999999881
21
-89.3182279999999906
0
LINE
8
BLACK
6
CONTINUOUS
10
126.6111639999999881
20
-89.3182279999999906
11
126.6242850000000004
21
-89.3444700000000012
0
LINE
8
BLACK
6
CONTINUOUS
10
126.6242850000000004
20
-89.3444700000000012
11
126.6242850000000004
21
-89.3637619999999941
0
LINE
8
BLACK
6
CONTINUOUS
10
126.6242850000000004
20
-89.3637619999999941
11
126.6111639999999881
21
-89.390002999999993
0
LINE
8
BLACK
6
CONTINUOUS
10
126.6111639999999881
20
-89.390002999999993
11
126.6011259999999936
21
-89.4000419999999991
0
LINE
8
BLACK
6
CONTINUOUS
10
126.6011259999999936
20
-89.4000419999999991
11
126.5681029999999936
21
-89.4165529999999933
0
LINE
8
BLACK
6
CONTINUOUS
10
126.5681029999999936
20
-89.4165529999999933
11
126.4792569999999898
21
-89.4387660000000011
0
LINE
8
BLACK
6
CONTINUOUS
10
126.4792569999999898
20
-89.4387660000000011
11
126.4733169999999944
21
-89.4415709999999962
0
LINE
8
BLACK
6
CONTINUOUS
10
126.4733169999999944
20
-89.4415709999999962
11
126.4669759999999883
21
-89.4433080000000018
0
LINE
8
BLACK
6
CONTINUOUS
10
126.4669759999999883
20
-89.4433080000000018
11
126.4193579999999884
21
-89.4671170000000018
0
LINE
8
BLACK
6
CONTINUOUS
10
126.4193579999999884
20
-89.4671170000000018
11
126.4117609999999985
21
-89.4730109999999996
0
LINE
8
BLACK
6
CONTINUOUS
10
126.4117609999999985
20
-89.4730109999999996
11
126.4037629999999979
21
-89.4783570000000026
0
LINE
8
BLACK
6
CONTINUOUS
10
126.4037629999999979
20
-89.4783570000000026
11
126.3799539999999979
21
-89.502167
0
LINE
8
BLACK
6
CONTINUOUS
10
126.3799539999999979
20
-89.502167
11
126.3746109999999874
21
-89.5101629999999915
0
LINE
8
BLACK
6
CONTINUOUS
10
126.3746109999999874
20
-89.5101629999999915
11
126.3687159999999921
21
-89.5177599999999956
0
LINE
8
BLACK
6
CONTINUOUS
10
126.3687159999999921
20
-89.5177599999999956
11
126.3449059999999946
21
-89.565378999999993
0
LINE
8
BLACK
6
CONTINUOUS
10
126.3449059999999946
20
-89.565378999999993
11
126.3441119999999955
21
-89.5682759999999973
0
LINE
8
BLACK
6
CONTINUOUS
10
126.3441119999999955
20
-89.5682759999999973
11
126.3431379999999962
21
-89.5692509999999942
0
LINE
8
BLACK
6
CONTINUOUS
10
126.3431379999999962
20
-89.5692509999999942
11
126.3412609999999887
21
-89.5786870000000022
0
LINE
8
BLACK
6
CONTINUOUS
10
126.3412609999999887
20
-89.5786870000000022
11
126.33872199999999
21
-89.5879580000000004
0
LINE
8
BLACK
6
CONTINUOUS
10
126.33872199999999
20
-89.5879580000000004
11
126.3391570000000002
21
-89.589264
0
LINE
8
BLACK
6
CONTINUOUS
10
126.3391570000000002
20
-89.589264
11
126.3385709999999875
21
-89.5922119999999893
0
LINE
8
BLACK
6
CONTINUOUS
10
126.3385709999999875
20
-89.5922119999999893
11
126.2785709999999995
21
-89.5922119999999893
0
LINE
8
BLACK
6
CONTINUOUS
10
126.2785709999999995
20
-89.5922119999999893
11
126.2785709999999995
21
-89.1150689999999912
0
LINE
8
BLACK
6
CONTINUOUS
10
126.2785709999999995
20
-89.1150689999999912
11
132.6614260000000058
21
-89.1150689999999912
0
LINE
8
BLACK
6
CONTINUOUS
10
132.6614260000000058
20
-89.1150689999999912
11
132.6614260000000058
21
-89.8550690000000003
0
LINE
8
BLACK
6
CONTINUOUS
10
145.1737949999999842
20
-81.2479999999999905
11
144.7986379999999826
21
-81.2479999999999905
0
LINE
8
BLACK
6
CONTINUOUS
10
144.7986379999999826
20
-81.2479999999999905
11
144.7986379999999826
21
-80.7978109999999958
0
LINE
8
BLACK
6
CONTINUOUS
10
144.7986379999999826
20
-80.7978109999999958
11
144.5943539999999814
21
-80.7978109999999958
0
LINE
8
BLACK
6
CONTINUOUS
10
144.5943539999999814
20
-80.7978109999999958
11
144.5530039999999872
21
-80.7969169999999934
0
LINE
8
BLACK
6
CONTINUOUS
10
144.5530039999999872
20
-80.7969169999999934
11
144.4886209999999949
21
-80.7914549999999991
0
LINE
8
BLACK
6
CONTINUOUS
10
144.4886209999999949
20
-80.7914549999999991
11
144.4299049999999909
21
-80.7810259999999971
0
LINE
8
BLACK
6
CONTINUOUS
10
144.4299049999999909
20
-80.7810259999999971
11
144.366927000000004
21
-80.7619569999999953
0
LINE
8
BLACK
6
CONTINUOUS
10
144.366927000000004
20
-80.7619569999999953
11
144.3121099999999899
21
-80.7357370000000003
0
LINE
8
BLACK
6
CONTINUOUS
10
144.3121099999999899
20
-80.7357370000000003
11
144.2584709999999859
21
-80.6961079999999953
0
LINE
8
BLACK
6
CONTINUOUS
10
144.2584709999999859
20
-80.6961079999999953
11
144.2210189999999841
21
-80.6551879999999954
0
LINE
8
BLACK
6
CONTINUOUS
10
144.2210189999999841
20
-80.6551879999999954
11
144.1871189999999956
21
-80.6004149999999981
0
LINE
8
BLACK
6
CONTINUOUS
10
144.1871189999999956
20
-80.6004149999999981
11
144.1637659999999812
21
-80.5380679999999955
0
LINE
8
BLACK
6
CONTINUOUS
10
144.1637659999999812
20
-80.5380679999999955
11
144.1521429999999953
21
-80.4786000000000001
0
LINE
8
BLACK
6
CONTINUOUS
10
144.1521429999999953
20
-80.4786000000000001
11
144.1488799999999912
21
-80.4238259999999912
0
LINE
8
BLACK
6
CONTINUOUS
10
144.1488799999999912
20
-80.4238259999999912
11
144.5117019999999854
21
-80.4238259999999912
0
LINE
8
BLACK
6
CONTINUOUS
10
144.5117019999999854
20
-80.4238259999999912
11
144.5200609999999983
21
-80.4699079999999896
0
LINE
8
BLACK
6
CONTINUOUS
10
144.5200609999999983
20
-80.4699079999999896
11
144.555373000000003
21
-80.5176159999999896
0
LINE
8
BLACK
6
CONTINUOUS
10
144.555373000000003
20
-80.5176159999999896
11
144.5850379999999973
21
-80.535184000000001
0
LINE
8
BLACK
6
CONTINUOUS
10
144.5850379999999973
20
-80.535184000000001
11
144.6458969999999908
21
-80.5504099999999994
0
LINE
8
BLACK
6
CONTINUOUS
10
144.6458969999999908
20
-80.5504099999999994
11
144.707193999999987
21
-80.5539589999999919
0
LINE
8
BLACK
6
CONTINUOUS
10
144.707193999999987
20
-80.5539589999999919
11
144.7986379999999826
21
-80.5539589999999919
0
LINE
8
BLACK
6
CONTINUOUS
10
144.7986379999999826
20
-80.5539589999999919
11
144.7986379999999826
21
-80.2913489999999967
0
LINE
8
BLACK
6
CONTINUOUS
10
144.7986379999999826
20
-80.2913489999999967
11
144.692245999999983
21
-80.2913489999999967
0
LINE
8
BLACK
6
CONTINUOUS
10
144.692245999999983
20
-80.2913489999999967
11
144.667131999999981
21
-80.2919539999999898
0
LINE
8
BLACK
6
CONTINUOUS
10
144.667131999999981
20
-80.2919539999999898
11
144.6043190000000038
21
-80.3010209999999915
0
LINE
8
BLACK
6
CONTINUOUS
10
144.6043190000000038
20
-80.3010209999999915
11
144.5498039999999946
21
-80.3300369999999901
0
LINE
8
BLACK
6
CONTINUOUS
10
144.5498039999999946
20
-80.3300369999999901
11
144.52513399999998
21
-80.3640389999999911
0
LINE
8
BLACK
6
CONTINUOUS
10
144.52513399999998
20
-80.3640389999999911
11
144.5117019999999854
21
-80.4238259999999912
0
LINE
8
BLACK
6
CONTINUOUS
10
144.5117019999999854
20
-80.4238259999999912
11
144.1488799999999912
21
-80.4238259999999912
0
LINE
8
BLACK
6
CONTINUOUS
10
144.1488799999999912
20
-80.4238259999999912
11
144.1482689999999991
21
-80.4135679999999979
0
LINE
8
BLACK
6
CONTINUOUS
10
144.1482689999999991
20
-80.4135679999999979
11
144.1507369999999923
21
-80.3606659999999948
0
LINE
8
BLACK
6
CONTINUOUS
10
144.1507369999999923
20
-80.3606659999999948
11
144.1602169999999887
21
-80.3023589999999956
0
LINE
8
BLACK
6
CONTINUOUS
10
144.1602169999999887
20
-80.3023589999999956
11
144.1802629999999965
21
-80.24147099999999
0
LINE
8
BLACK
6
CONTINUOUS
10
144.1802629999999965
20
-80.24147099999999
11
144.209984999999989
21
-80.1882689999999911
0
LINE
8
BLACK
6
CONTINUOUS
10
144.209984999999989
20
-80.1882689999999911
11
144.2493849999999895
21
-80.1427520000000015
0
LINE
8
BLACK
6
CONTINUOUS
10
144.2493849999999895
20
-80.1427520000000015
11
144.2557860000000005
21
-80.1368909999999914
0
LINE
8
BLACK
6
CONTINUOUS
10
144.2557860000000005
20
-80.1368909999999914
11
144.3061720000000037
21
-80.1010780000000011
0
LINE
8
BLACK
6
CONTINUOUS
10
144.3061720000000037
20
-80.1010780000000011
11
144.3663180000000068
21
-80.0743799999999908
0
LINE
8
BLACK
6
CONTINUOUS
10
144.3663180000000068
20
-80.0743799999999908
11
144.4256419999999821
21
-80.0587529999999958
0
LINE
8
BLACK
6
CONTINUOUS
10
144.4256419999999821
20
-80.0587529999999958
11
144.4921369999999854
21
-80.0498229999999893
0
LINE
8
BLACK
6
CONTINUOUS
10
144.4921369999999854
20
-80.0498229999999893
11
144.5530279999999834
21
-80.0474969999999928
0
LINE
8
BLACK
6
CONTINUOUS
10
144.5530279999999834
20
-80.0474969999999928
11
145.1737949999999842
21
-80.0474969999999928
0
LINE
8
BLACK
6
CONTINUOUS
10
145.1737949999999842
20
-80.0474969999999928
11
145.1737949999999842
21
-81.2479999999999905
0
LINE
8
BLACK
6
CONTINUOUS
10
144.0462729999999851
20
-80.6665059999999983
11
143.5582760000000064
21
-80.6665059999999983
0
LINE
8
BLACK
6
CONTINUOUS
10
143.5582760000000064
20
-80.6665059999999983
11
143.5582760000000064
21
-80.9291159999999934
0
LINE
8
BLACK
6
CONTINUOUS
10
143.5582760000000064
20
-80.9291159999999934
11
144.0462729999999851
21
-80.9291159999999934
0
LINE
8
BLACK
6
CONTINUOUS
10
144.0462729999999851
20
-80.9291159999999934
11
144.0462729999999851
21
-80.6665059999999983
0
LINE
8
BLACK
6
CONTINUOUS
10
140.9987150000000042
20
-81.2680000000000007
11
140.6235580000000027
21
-81.2680000000000007
0
LINE
8
BLACK
6
CONTINUOUS
10
140.6235580000000027
20
-81.2680000000000007
11
140.6235580000000027
21
-80.8178109999999919
0
LINE
8
BLACK
6
CONTINUOUS
10
140.6235580000000027
20
-80.8178109999999919
11
140.4192740000000015
21
-80.8178109999999919
0
LINE
8
BLACK
6
CONTINUOUS
10
140.4192740000000015
20
-80.8178109999999919
11
140.3779240000000073
21
-80.8169169999999895
0
LINE
8
BLACK
6
CONTINUOUS
10
140.3779240000000073
20
-80.8169169999999895
11
140.3135409999999865
21
-80.8114549999999952
0
LINE
8
BLACK
6
CONTINUOUS
10
140.3135409999999865
20
-80.8114549999999952
11
140.2548249999999825
21
-80.8010259999999931
0
LINE
8
BLACK
6
CONTINUOUS
10
140.2548249999999825
20
-80.8010259999999931
11
140.1918469999999957
21
-80.7819569999999914
0
LINE
8
BLACK
6
CONTINUOUS
10
140.1918469999999957
20
-80.7819569999999914
11
140.1370299999999816
21
-80.7557369999999963
0
LINE
8
BLACK
6
CONTINUOUS
10
140.1370299999999816
20
-80.7557369999999963
11
140.083391000000006
21
-80.7161079999999913
0
LINE
8
BLACK
6
CONTINUOUS
10
140.083391000000006
20
-80.7161079999999913
11
140.0459390000000042
21
-80.6751879999999915
0
LINE
8
BLACK
6
CONTINUOUS
10
140.0459390000000042
20
-80.6751879999999915
11
140.0120389999999873
21
-80.6204149999999942
0
LINE
8
BLACK
6
CONTINUOUS
10
140.0120389999999873
20
-80.6204149999999942
11
139.9886860000000013
21
-80.5580679999999916
0
LINE
8
BLACK
6
CONTINUOUS
10
139.9886860000000013
20
-80.5580679999999916
11
139.9770629999999869
21
-80.4985999999999962
0
LINE
8
BLACK
6
CONTINUOUS
10
139.9770629999999869
20
-80.4985999999999962
11
139.9737999999999829
21
-80.4438260000000014
0
LINE
8
BLACK
6
CONTINUOUS
10
139.9737999999999829
20
-80.4438260000000014
11
140.3366220000000055
21
-80.4438260000000014
0
LINE
8
BLACK
6
CONTINUOUS
10
140.3366220000000055
20
-80.4438260000000014
11
140.34498099999999
21
-80.4899079999999998
0
LINE
8
BLACK
6
CONTINUOUS
10
140.34498099999999
20
-80.4899079999999998
11
140.3802929999999947
21
-80.5376159999999999
0
LINE
8
BLACK
6
CONTINUOUS
10
140.3802929999999947
20
-80.5376159999999999
11
140.4099579999999889
21
-80.555183999999997
0
LINE
8
BLACK
6
CONTINUOUS
10
140.4099579999999889
20
-80.555183999999997
11
140.4708169999999825
21
-80.5704099999999954
0
LINE
8
BLACK
6
CONTINUOUS
10
140.4708169999999825
20
-80.5704099999999954
11
140.5321140000000071
21
-80.5739590000000021
0
LINE
8
BLACK
6
CONTINUOUS
10
140.5321140000000071
20
-80.5739590000000021
11
140.6235580000000027
21
-80.5739590000000021
0
LINE
8
BLACK
6
CONTINUOUS
10
140.6235580000000027
20
-80.5739590000000021
11
140.6235580000000027
21
-80.3113489999999928
0
LINE
8
BLACK
6
CONTINUOUS
10
140.6235580000000027
20
-80.3113489999999928
11
140.5171660000000031
21
-80.3113489999999928
0
LINE
8
BLACK
6
CONTINUOUS
10
140.5171660000000031
20
-80.3113489999999928
11
140.492052000000001
21
-80.3119540000000001
0
LINE
8
BLACK
6
CONTINUOUS
10
140.492052000000001
20
-80.3119540000000001
11
140.4292389999999955
21
-80.3210210000000018
0
LINE
8
BLACK
6
CONTINUOUS
10
140.4292389999999955
20
-80.3210210000000018
11
140.3747239999999863
21
-80.3500370000000004
0
LINE
8
BLACK
6
CONTINUOUS
10
140.3747239999999863
20
-80.3500370000000004
11
140.3500540000000001
21
-80.3840390000000014
0
LINE
8
BLACK
6
CONTINUOUS
10
140.3500540000000001
20
-80.3840390000000014
11
140.3366220000000055
21
-80.4438260000000014
0
LINE
8
BLACK
6
CONTINUOUS
10
140.3366220000000055
20
-80.4438260000000014
11
139.9737999999999829
21
-80.4438260000000014
0
LINE
8
BLACK
6
CONTINUOUS
10
139.9737999999999829
20
-80.4438260000000014
11
139.9731889999999908
21
-80.433567999999994
0
LINE
8
BLACK
6
CONTINUOUS
10
139.9731889999999908
20
-80.433567999999994
11
139.975656999999984
21
-80.3806659999999908
0
LINE
8
BLACK
6
CONTINUOUS
10
139.975656999999984
20
-80.3806659999999908
11
139.9851369999999804
21
-80.3223589999999916
0
LINE
8
BLACK
6
CONTINUOUS
10
139.9851369999999804
20
-80.3223589999999916
11
140.0051829999999882
21
-80.2614710000000002
0
LINE
8
BLACK
6
CONTINUOUS
10
140.0051829999999882
20
-80.2614710000000002
11
140.0349049999999806
21
-80.2082690000000014
0
LINE
8
BLACK
6
CONTINUOUS
10
140.0349049999999806
20
-80.2082690000000014
11
140.0743049999999812
21
-80.1627519999999976
0
LINE
8
BLACK
6
CONTINUOUS
10
140.0743049999999812
20
-80.1627519999999976
11
140.0807059999999922
21
-80.1568910000000017
0
LINE
8
BLACK
6
CONTINUOUS
10
140.0807059999999922
20
-80.1568910000000017
11
140.1310919999999953
21
-80.1210779999999971
0
LINE
8
BLACK
6
CONTINUOUS
10
140.1310919999999953
20
-80.1210779999999971
11
140.1912379999999985
21
-80.094380000000001
0
LINE
8
BLACK
6
CONTINUOUS
10
140.1912379999999985
20
-80.094380000000001
11
140.2505620000000022
21
-80.0787529999999919
0
LINE
8
BLACK
6
CONTINUOUS
10
140.2505620000000022
20
-80.0787529999999919
11
140.3170570000000055
21
-80.0698229999999995
0
LINE
8
BLACK
6
CONTINUOUS
10
140.3170570000000055
20
-80.0698229999999995
11
140.3779480000000035
21
-80.067497000000003
0
LINE
8
BLACK
6
CONTINUOUS
10
140.3779480000000035
20
-80.067497000000003
11
140.9987150000000042
21
-80.067497000000003
0
LINE
8
BLACK
6
CONTINUOUS
10
140.9987150000000042
20
-80.067497000000003
11
140.9987150000000042
21
-81.2680000000000007
0
LINE
8
BLACK
6
CONTINUOUS
10
139.803781999999984
20
-80.5364429999999913
11
139.4881220000000042
21
-80.5364429999999913
0
LINE
8
BLACK
6
CONTINUOUS
10
139.4881220000000042
20
-80.5364429999999913
11
139.4881220000000042
21
-80.2175599999999918
0
LINE
8
BLACK
6
CONTINUOUS
10
139.4881220000000042
20
-80.2175599999999918
11
139.2217019999999934
21
-80.2175599999999918
0
LINE
8
BLACK
6
CONTINUOUS
10
139.2217019999999934
20
-80.2175599999999918
11
139.2217019999999934
21
-80.5364429999999913
0
LINE
8
BLACK
6
CONTINUOUS
10
139.2217019999999934
20
-80.5364429999999913
11
138.9042839999999899
21
-80.5364429999999913
0
LINE
8
BLACK
6
CONTINUOUS
10
138.9042839999999899
20
-80.5364429999999913
11
138.9042839999999899
21
-80.7990530000000007
0
LINE
8
BLACK
6
CONTINUOUS
10
138.9042839999999899
20
-80.7990530000000007
11
139.2217019999999934
21
-80.7990530000000007
0
LINE
8
BLACK
6
CONTINUOUS
10
139.2217019999999934
20
-80.7990530000000007
11
139.2217019999999934
21
-81.1179369999999977
0
LINE
8
BLACK
6
CONTINUOUS
10
139.2217019999999934
20
-81.1179369999999977
11
139.4881220000000042
21
-81.1179369999999977
0
LINE
8
BLACK
6
CONTINUOUS
10
139.4881220000000042
20
-81.1179369999999977
11
139.4881220000000042
21
-80.7990530000000007
0
LINE
8
BLACK
6
CONTINUOUS
10
139.4881220000000042
20
-80.7990530000000007
11
139.803781999999984
21
-80.7990530000000007
0
LINE
8
BLACK
6
CONTINUOUS
10
139.803781999999984
20
-80.7990530000000007
11
139.803781999999984
21
-80.5364429999999913
0
LINE
8
BLACK
6
CONTINUOUS
10
133.6113509999999849
20
-84.7988659999999896
11
132.8494469999999978
21
-84.7988659999999896
0
LINE
8
BLACK
6
CONTINUOUS
10
133.2303990000000056
20
-85.1798189999999948
11
133.2303990000000056
21
-84.4179139999999961
0
LINE
8
BLACK
6
CONTINUOUS
10
125.9913509999999945
20
-84.7988659999999896
11
125.2294469999999933
21
-84.7988659999999896
  0
ENDSEC
  0
EOF
