0
SECTION
2
HEADER
9
$INSUNITS
70
4
9
$ACADVER
1
AC1014
9
$HANDSEED
5
FFFF
0
ENDSEC
0
SECTION
2
TABLES
0
TABLE
2
VPORT
5
8
100
AcDbSymbolTable
0
ENDTAB
0
TABLE
2
LTYPE
5
5
100
AcDbSymbolTable
0
LTYPE
5
14
100
AcDbSymbolTableRecord
100
AcDbLinetypeTableRecord
2
BYBLOCK
70
0
0
LTYPE
5
15
100
AcDbSymbolTableRecord
100
AcDbLinetypeTableRecord
2
BYLAYER
70
0
0
LTYPE
5
16
100
AcDbSymbolTableRecord
100
AcDbLinetypeTableRecord
2
DASHED
70
0
3
Dashed __ __ __ __ __ __ __ __ __ __ __ __ __ _
72
65
73
2
40
0.75
49
0.5
74
0
49
-0.25
74
0
0
ENDTAB
0
TABLE
2
LAYER
5
2
100
AcDbSymbolTable
70
3
0
LAYER
5
50
100
AcDbSymbolTableRecord
100
AcDbLayerTableRecord
2
1
70
0
62
7
6
DASHED
0
LAYER
5
51
100
AcDbSymbolTableRecord
100
AcDbLayerTableRecord
2
0
70
0
62
7
6
CONTINUOUS
0
ENDTAB
0
TABLE
2
STYLE
5
3
100
AcDbSymbolTable
70
1
0
STYLE
5
11
100
AcDbSymbolTableRecord
100
AcDbTextStyleTableRecord
2
STANDARD
70
0
0
ENDTAB
0
TABLE
2
VIEW
5
6
100
AcDbSymbolTable
70
0
0
ENDTAB
0
TABLE
2
UCS
5
7
100
AcDbSymbolTable
70
0
0
ENDTAB
0
TABLE
2
APPID
5
9
100
AcDbSymbolTable
70
2
0
APPID
5
12
100
AcDbSymbolTableRecord
100
AcDbRegAppTableRecord
2
ACAD
70
0
0
ENDTAB
0
TABLE
2
DIMSTYLE
5
A
100
AcDbSymbolTable
70
1
0
ENDTAB
0
TABLE
2
BLOCK_RECORD
5
1
100
AcDbSymbolTable
70
1
0
BLOCK_RECORD
5
1F
100
AcDbSymbolTableRecord
100
AcDbBlockTableRecord
2
*MODEL_SPACE
0
BLOCK_RECORD
5
1B
100
AcDbSymbolTableRecord
100
AcDbBlockTableRecord
2
*PAPER_SPACE
0
ENDTAB
0
ENDSEC
0
SECTION
2
BLOCKS
0
BLOCK
5
20
100
AcDbEntity
100
AcDbBlockBegin
2
*MODEL_SPACE
0
ENDBLK
5
21
100
AcDbEntity
100
AcDbBlockEnd
0
BLOCK
5
1C
100
AcDbEntity
100
AcDbBlockBegin
2
*PAPER_SPACE
0
ENDBLK
5
1D
100
AcDbEntity
100
AcDbBlockEnd
0
ENDSEC
0
SECTION
2
ENTITIES
0
LINE
5
100
100
AcDbEntity
8
0
100
AcDbLine
10
137.90000000000001
20
-79.394609000000003
30
0
11
138.69999999999999
21
-80.579999999999998
31
0
0
LINE
5
101
100
AcDbEntity
8
0
100
AcDbLine
10
138.69999999999999
20
-80.579999999999998
30
0
11
138.69999999999999
21
-82.291273993577633
31
0
0
LINE
5
102
100
AcDbEntity
8
0
100
AcDbLine
10
138.81
20
-91.94877202751772
30
0
11
138.81
21
-96.101804000000016
31
0
0
LINE
5
103
100
AcDbEntity
8
0
100
AcDbLine
10
135.73999999999998
20
-88.379999999999995
30
0
11
137.715599
21
-91.201448999999997
31
0
0
LINE
5
104
100
AcDbEntity
8
0
100
AcDbLine
10
145.99218665091487
20
-91.950282996580071
30
0
11
146.98426599999999
21
-91.255621000000019
31
0
0
LINE
5
105
100
AcDbEntity
8
0
100
AcDbLine
10
145.906902
20
-96.101804999999999
30
0
11
145.906902
21
-92.114113362154598
31
0
0
LINE
5
106
100
AcDbEntity
8
0
100
AcDbLine
10
138.48879495587792
20
-82.699437531218436
30
0
11
137.63999999999999
21
-83.299999999999983
31
0
0
LINE
5
107
100
AcDbEntity
8
0
100
AcDbLine
10
136.05778999999998
20
-111.47127300000001
30
0
11
136.89863203721518
21
-110.9858125636086
31
0
0
LINE
5
108
100
AcDbEntity
8
0
100
AcDbLine
10
137.715599
20
-91.201448999999997
30
0
11
138.71000003419095
21
-91.775566966501017
31
0
0
LWPOLYLINE
5
109
100
AcDbEntity
8
0
100
AcDbPolyline
90
4
70
1
43
0.0
10
144.30000000000001
20
-75.22499999999998
42
0.99999999999999989
10
143.90000000000001
20
-75.22499999999998
10
143.90000000000001
20
-78.774999999999991
42
0.99999999999999989
10
144.30000000000001
20
-78.774999999999991
0
LWPOLYLINE
5
110
100
AcDbEntity
8
0
100
AcDbPolyline
90
4
70
1
43
0.0
10
140.5
20
-78.774999999999991
42
0.99999999999999989
10
140.90000000000001
20
-78.774999999999991
10
140.90000000000001
20
-75.22499999999998
42
0.99999999999999989
10
140.5
20
-75.22499999999998
0
LINE
5
111
100
AcDbEntity
8
0
100
AcDbLine
10
140.15000000000001
20
-112.86299018646594
30
0
11
140.15000000000001
21
-113.56541800000001
31
0
0
LINE
5
112
100
AcDbEntity
8
0
100
AcDbLine
10
172.673069
20
-71.335390000000004
30
0
11
173.47677736315873
21
-71.898152765486103
31
0
0
LINE
5
113
100
AcDbEntity
8
0
100
AcDbLine
10
145.57227599999999
20
-81.343767000000014
30
0
11
146.84999999999999
21
-79.39461
31
0
0
CIRCLE
5
114
100
AcDbEntity
8
0
100
AcDbCircle
10
157.02427900000001
20
-81.922101999999981
30
0
40
2.5
210
0
220
0
230
1
0
LINE
5
115
100
AcDbEntity
8
0
100
AcDbLine
10
186.97825
20
-70.104599999999991
30
0
11
186.97825
21
-71.64210677093638
31
0
0
LINE
5
116
100
AcDbEntity
8
0
100
AcDbLine
10
164.51080899999999
20
-84.618723000000017
30
0
11
165.39301161589535
21
-86.146741539435808
31
0
0
LINE
5
117
100
AcDbEntity
8
0
100
AcDbLine
10
188.69850199999999
20
-76.314953000000003
30
0
11
189.06452733184011
21
-76.314953000000003
31
0
0
LINE
5
118
100
AcDbEntity
8
0
100
AcDbLine
10
141.08006973251358
20
-105.64479156937564
30
0
11
140.96404422358088
21
-105.44382935457773
31
0
0
LINE
5
119
100
AcDbEntity
8
0
100
AcDbLine
10
142.48822633184014
20
-106.32381700000002
30
0
11
142.25617566815987
21
-106.32381700000002
31
0
0
LINE
5
120
100
AcDbEntity
8
0
100
AcDbLine
10
138.81
20
-96.664191000000002
30
0
11
138.81
21
-97.364530021884349
31
0
0
LINE
5
121
100
AcDbEntity
8
0
100
AcDbLine
10
137.39863199295212
20
-110.98581251135724
30
0
11
139.89999993261745
21
-112.4299774456704
31
0
0
LINE
5
122
100
AcDbEntity
8
0
100
AcDbLine
10
146.98426599999999
20
-91.255621000000019
30
0
11
149.153481
21
-88.13420499999998
31
0
0
LINE
5
123
100
AcDbEntity
8
0
100
AcDbLine
10
181.22
20
-70.009815000000003
30
0
11
180.68000000000001
21
-69.0732
31
0
0
LINE
5
124
100
AcDbEntity
8
0
100
AcDbLine
10
175.18896290359294
20
-71.242973947941877
30
0
11
174.01356550476746
21
-71.921589537966469
31
0
0
LINE
5
125
100
AcDbEntity
8
0
100
AcDbLine
10
140.96404422358088
20
-104.08577864542225
30
0
11
141.0800698950471
21
-103.88481614910786
31
0
0
LINE
5
126
100
AcDbEntity
8
0
100
AcDbLine
10
134.03999999999999
20
-105.33000000000001
30
0
11
133.276062
21
-106.65317899999999
31
0
0
LINE
5
127
100
AcDbEntity
8
0
100
AcDbLine
10
180.68000000000001
20
-69.0732
30
0
11
176.129153
21
-69.073352
31
0
0
LINE
5
128
100
AcDbEntity
8
0
100
AcDbLine
10
172.21118799999999
20
-71.335390000000004
30
0
11
169.74212800000001
21
-75.611929000000003
31
0
0
LINE
5
129
100
AcDbEntity
8
0
100
AcDbLine
10
194.45394110223137
20
-83.746612735955324
30
0
11
195.40348399999999
21
-84.294832
31
0
0
LINE
5
130
100
AcDbEntity
8
0
100
AcDbLine
10
164.44999999999996
20
-102.03000000000002
30
0
11
167.24573700000002
21
-97.183384000000004
31
0
0
LINE
5
131
100
AcDbEntity
8
0
100
AcDbLine
10
150.25
20
-112.71941821901208
30
0
11
150.25
21
-113.56541800000001
31
0
0
ARC
5
132
100
AcDbEntity
8
0
100
AcDbCircle
10
152.91749999999996
20
-85.571399999999983
30
0
40
0.49998498189546736
210
0
220
-0
230
1
100
AcDbArc
50
41.67883878999951
51
110.35785082000007
0
LINE
5
133
100
AcDbEntity
8
0
100
AcDbLine
10
172.673069
20
-71.335390000000004
30
0
11
172.21118799999999
21
-71.335390000000004
31
0
0
LINE
5
134
100
AcDbEntity
8
0
100
AcDbLine
10
165.20999887889047
20
-88.167431543989849
30
0
11
163.8685408643322
21
-88.941922189544499
31
0
0
LINE
5
135
100
AcDbEntity
8
0
100
AcDbLine
10
187.77637800000002
20
-80.230143999999996
30
0
11
185.267563
21
-84.575541000000015
31
0
0
LINE
5
136
100
AcDbEntity
8
0
100
AcDbLine
10
195.422923
20
-71.486764999999991
30
0
11
194.5120829586223
21
-72.012638518290004
31
0
0
LINE
5
137
100
AcDbEntity
8
0
100
AcDbLine
10
168.93106700000001
20
-94.242177999999996
30
0
11
171.91449399999999
21
-89.074730000000017
31
0
0
LINE
5
138
100
AcDbEntity
8
0
100
AcDbLine
10
169.47306699999999
20
-78.869978000000003
30
0
11
169.87336014048125
21
-79.563306941627772
31
0
0
LINE
5
139
100
AcDbEntity
8
0
100
AcDbLine
10
135.73999999999998
20
-87.829999999999998
30
0
11
134.94
21
-87.829999999999998
31
0
0
LINE
5
140
100
AcDbEntity
8
0
100
AcDbLine
10
188.67438715298292
20
-80.748609587486285
30
0
11
187.77637800000002
21
-80.230143999999996
31
0
0
LINE
5
141
100
AcDbEntity
8
0
100
AcDbLine
10
134.91999999999999
20
-82.799999999999997
30
0
11
134.91999999999999
21
-83.299999999999983
31
0
0
LINE
5
142
100
AcDbEntity
8
0
100
AcDbLine
10
191.34850320546002
20
-70.186144611230844
30
0
11
191.34850400000002
21
-69.069800000000015
31
0
0
ARC
5
143
100
AcDbEntity
8
0
100
AcDbCircle
10
157.02529999999999
20
-81.914099999999991
30
0
40
5.00000266632766
210
0
220
0
230
1
100
AcDbArc
50
-138.32026855420273
51
179.03244812999998
0
LINE
5
144
100
AcDbEntity
8
0
100
AcDbLine
10
147.78677196609806
20
-111.00859846330692
30
0
11
149.99999989033876
21
-112.28640545380694
31
0
0
LINE
5
145
100
AcDbEntity
8
0
100
AcDbLine
10
163.23977329637583
20
-101.75263565779618
30
0
11
164.44999999999996
21
-102.03000000000002
31
0
0
LINE
5
146
100
AcDbEntity
8
0
100
AcDbLine
10
171.74898501100051
20
-84.663982066409488
30
0
11
173.15932599447456
21
-83.849721532763937
31
0
0
LINE
5
147
100
AcDbEntity
8
0
100
AcDbLine
10
184.998502
20
-85.841566
30
0
11
185.248502
21
-86.274579000000017
31
0
0
LINE
5
148
100
AcDbEntity
8
0
100
AcDbLine
10
197.57364600000002
20
-79.736003999999994
30
0
11
198.07364699999999
21
-78.869979000000001
31
0
0
LINE
5
149
100
AcDbEntity
8
0
100
AcDbLine
10
162.36196799999999
20
-88.396591000000001
30
0
11
159.21615299999999
21
-93.845299999999995
31
0
0
LINE
5
150
100
AcDbEntity
8
0
100
AcDbLine
10
156.42248899999998
20
-113.16541800000002
30
0
11
156.60550288459569
21
-112.84843043516403
31
0
0
LINE
5
151
100
AcDbEntity
8
0
100
AcDbLine
10
170.52306899999996
20
-78.436965999999998
30
0
11
169.72306700000001
21
-78.436965999999998
31
0
0
LINE
5
152
100
AcDbEntity
8
0
100
AcDbLine
10
158.0136593318401
20
-97.360202999999998
30
0
11
157.64763399999998
21
-97.360202999999998
31
0
0
LINE
5
153
100
AcDbEntity
8
0
100
AcDbLine
10
191.31756100000001
20
-86.674579000000008
30
0
11
191.31756100000001
21
-85.557403071365385
31
0
0
LINE
5
154
100
AcDbEntity
8
0
100
AcDbLine
10
170.72306899999998
20
-77.873966999999993
30
0
11
170.72306899999995
21
-78.23696600000001
31
0
0
LINE
5
155
100
AcDbEntity
8
0
100
AcDbLine
10
178.48218734309285
20
-76.314953000000003
30
0
11
178.71423833184011
21
-76.314953000000003
31
0
0
LINE
5
156
100
AcDbEntity
8
0
100
AcDbLine
10
157.78160887424409
20
-112.169405
30
0
11
158.14763399999998
21
-112.169405
31
0
0
LINE
5
157
100
AcDbEntity
8
0
100
AcDbLine
10
177.37306799999996
20
-78.869978000000003
30
0
11
177.19005465659342
21
-78.552990640475414
31
0
0
LINE
5
158
100
AcDbEntity
8
0
100
AcDbLine
10
145.57227599999999
20
-82.342440999999994
30
0
11
145.57227599999999
21
-81.343767000000014
31
0
0
LINE
5
159
100
AcDbEntity
8
0
100
AcDbLine
10
154.21669399999996
20
-102.50276700000001
30
0
11
154.44763499999999
21
-102.90276600000001
31
0
0
LINE
5
160
100
AcDbEntity
8
0
100
AcDbLine
10
191.56756091786261
20
-85.12439041689521
30
0
11
193.95394087767454
21
-83.746612701151463
31
0
0
LINE
5
161
100
AcDbEntity
8
0
100
AcDbLine
10
174.63475
20
-84.412882999999994
30
0
11
177.10400799999999
21
-80.136004
31
0
0
LINE
5
162
100
AcDbEntity
8
0
100
AcDbLine
10
161.57857500000003
20
-107.026842
30
0
11
160.75000017060097
21
-106.54846453446518
31
0
0
LINE
5
163
100
AcDbEntity
8
0
100
AcDbLine
10
137.90000000000001
20
-79.394609000000003
30
0
11
137.90000000000001
21
-75.450000000000003
31
0
0
ARC
5
164
100
AcDbEntity
8
0
100
AcDbCircle
10
146.07219999999998
20
-82.342500000000015
30
0
40
0.49990834358509673
210
0
220
0
230
1
100
AcDbArc
50
179.99323807002924
51
234.72202359999855
0
LINE
5
165
100
AcDbEntity
8
0
100
AcDbLine
10
191.42364699999999
20
-77.873965999999982
30
0
11
191.42364699999999
21
-79.161324721985196
31
0
0
LINE
5
166
100
AcDbEntity
8
0
100
AcDbLine
10
172.19792200000001
20
-85.841565000000003
30
0
11
171.67577985251708
21
-84.937187057808231
31
0
0
LINE
5
167
100
AcDbEntity
8
0
100
AcDbLine
10
159.10951499999999
20
-111.30338100000002
30
0
11
161.57857500000003
21
-107.026842
31
0
0
LINE
5
168
100
AcDbEntity
8
0
100
AcDbLine
10
160.75000002406486
20
-102.87679443733388
30
0
11
162.60296060538903
21
-101.80698728421393
31
0
0
ARC
5
169
100
AcDbEntity
8
0
100
AcDbCircle
10
151.52599999999995
20
-81.82119999999999
30
0
40
0.50007371853057703
210
0
220
0
230
1
100
AcDbArc
50
290.36293219000072
51
359.02962079403045
0
LINE
5
170
100
AcDbEntity
8
0
100
AcDbLine
10
156.68575400000003
20
-98.226229000000004
30
0
11
154.21669399999996
21
-102.50276700000001
31
0
0
LINE
5
171
100
AcDbEntity
8
0
100
AcDbLine
10
194.01208306076285
20
-72.012638484713889
30
0
11
191.59850322745234
21
-70.619157681687227
31
0
0
LINE
5
172
100
AcDbEntity
8
0
100
AcDbLine
10
190.24063326748646
20
-76.993978430624438
30
0
11
190.42364599999999
21
-77.310965999999993
31
0
0
LINE
5
173
100
AcDbEntity
8
0
100
AcDbLine
10
146.84999999999999
20
-75.435757999999993
30
0
11
146.84999999999999
21
-79.39461
31
0
0
LINE
5
174
100
AcDbEntity
8
0
100
AcDbLine
10
190.42364599999999
20
-77.310965999999993
30
0
11
191.22364719999979
21
-77.310966800000386
31
0
0
LINE
5
175
100
AcDbEntity
8
0
100
AcDbLine
10
171.69792400000003
20
-88.699615999999992
30
0
11
172.197923
21
-87.833590999999998
31
0
0
LINE
5
176
100
AcDbEntity
8
0
100
AcDbLine
10
180.07335699999999
20
-77.310965999999993
30
0
11
181.07335699999999
21
-77.310965999999993
31
0
0
LINE
5
177
100
AcDbEntity
8
0
100
AcDbLine
10
137.447057
20
-97.360202999999998
30
0
11
136.947057
21
-97.360202999999998
31
0
0
LINE
5
178
100
AcDbEntity
8
0
100
AcDbLine
10
142.62220100000002
20
-103.20579100000002
30
0
11
143.12219999999999
21
-102.339766
31
0
0
LINE
5
179
100
AcDbEntity
8
0
100
AcDbLine
10
171.91449399999999
20
-89.074730000000017
30
0
11
171.69792400000003
21
-88.699615999999992
31
0
0
LINE
5
180
100
AcDbEntity
8
0
100
AcDbLine
10
143.584081
20
-102.339766
30
0
11
145.906901
21
-98.316522710980422
31
0
0
LINE
5
181
100
AcDbEntity
8
0
100
AcDbLine
10
175.898212
20
-69.473351999999991
30
0
11
174.898213
21
-69.473351999999991
31
0
0
LINE
5
182
100
AcDbEntity
8
0
100
AcDbLine
10
160.5
20
-106.11545173407649
30
0
11
160.5
21
-103.30980715311995
31
0
0
LINE
5
183
100
AcDbEntity
8
0
100
AcDbLine
10
121.40000000000001
20
-90.329999999999998
30
0
11
134.94
21
-90.329999999999998
31
0
0
LINE
5
184
100
AcDbEntity
8
0
100
AcDbLine
10
186.72926572321458
20
-72.074531454203949
30
0
11
185.16558297037585
21
-72.982224683267575
31
0
0
LINE
5
185
100
AcDbEntity
8
0
100
AcDbLine
10
169.74212800000001
20
-75.611929000000003
30
0
11
170.47306817915967
21
-76.03393752927434
31
0
0
LINE
5
186
100
AcDbEntity
8
0
100
AcDbLine
10
134.91999999999999
20
-83.299999999999983
30
0
11
137.63999999999999
21
-83.299999999999983
31
0
0
LINE
5
187
100
AcDbEntity
8
0
100
AcDbLine
10
154.44763499999999
20
-102.90276600000001
30
0
11
153.94763399999999
21
-103.76879099999999
31
0
0
LINE
5
188
100
AcDbEntity
8
0
100
AcDbLine
10
150.25
20
-113.56541800000001
30
0
11
155.19155000000001
21
-113.56541800000001
31
0
0
LINE
5
189
100
AcDbEntity
8
0
100
AcDbLine
10
191.17364681369196
20
-79.594337531442349
30
0
11
189.1743868803421
21
-80.748609645206955
31
0
0
LINE
5
190
100
AcDbEntity
8
0
100
AcDbLine
10
134.94
20
-87.829999999999998
30
0
11
134.94
21
-90.329999999999998
31
0
0
LINE
5
191
100
AcDbEntity
8
0
100
AcDbLine
10
135.98517600000002
20
-98.226229000000004
30
0
11
133.53194500000001
21
-102.47534899999999
31
0
0
LINE
5
192
100
AcDbEntity
8
0
100
AcDbLine
10
165.45999899999998
20
-86.396741688386641
30
0
11
165.45999900000001
21
-87.734418772175061
31
0
0
LINE
5
193
100
AcDbEntity
8
0
100
AcDbLine
10
166.83976640659324
20
-95.122166524587641
30
0
11
166.95579280514488
21
-94.921203108671577
31
0
0
LINE
5
194
100
AcDbEntity
8
0
100
AcDbLine
10
136.947057
20
-97.360202999999998
30
0
11
136.447057
21
-98.226229000000004
31
0
0
LINE
5
195
100
AcDbEntity
8
0
100
AcDbLine
10
185.267563
20
-84.575541000000015
30
0
11
185.498503
21
-84.975541000000007
31
0
0
LINE
5
196
100
AcDbEntity
8
0
100
AcDbLine
10
176.87306799999999
20
-79.736002999999982
30
0
11
177.37306799999996
21
-78.869978000000003
31
0
0
LINE
5
197
100
AcDbEntity
8
0
100
AcDbLine
10
173.65932597826054
20
-83.849721579988085
30
0
11
174.63475
21
-84.412882999999994
31
0
0
LINE
5
198
100
AcDbEntity
8
0
100
AcDbLine
10
186.24241699999999
20
-77.710965999999999
30
0
11
186.24241699999999
21
-76.871920218737742
31
0
0
LINE
5
199
100
AcDbEntity
8
0
100
AcDbLine
10
181.4699956434612
20
-72.304338405684462
30
0
11
182.64511593552382
21
-72.982810186614145
31
0
0
LINE
5
200
100
AcDbEntity
8
0
100
AcDbLine
10
187.36175
20
-69.069800000000015
30
0
11
186.97825
21
-70.104599999999991
31
0
0
LINE
5
201
100
AcDbEntity
8
0
100
AcDbLine
10
176.129153
20
-69.073352
30
0
11
175.898212
21
-69.473351999999991
31
0
0
LINE
5
202
100
AcDbEntity
8
0
100
AcDbLine
10
167.79737112223631
20
-80.704144716095612
30
0
11
167.027512
21
-80.259666999999993
31
0
0
LINE
5
203
100
AcDbEntity
8
0
100
AcDbLine
10
184.91456724716127
20
-73.049799999999991
30
0
11
182.89512029206261
21
-73.049799999999991
31
0
0
LINE
5
204
100
AcDbEntity
8
0
100
AcDbLine
10
139.75
20
-73.59999999999998
30
0
11
145
21
-73.59999999999998
31
0
0
LINE
5
205
100
AcDbEntity
8
0
100
AcDbLine
10
144.84734499999999
20
-105.327804
30
0
11
143.84734599999999
21
-105.327804
31
0
0
LINE
5
206
100
AcDbEntity
8
0
100
AcDbLine
10
135.73999999999998
20
-88.379999999999995
30
0
11
135.73999999999998
21
-87.829999999999998
31
0
0
LINE
5
207
100
AcDbEntity
8
0
100
AcDbLine
10
133.276062
20
-106.65317899999999
30
0
11
136.05778999999998
21
-111.47127300000001
31
0
0
LINE
5
208
100
AcDbEntity
8
0
100
AcDbLine
10
163.32275300000003
20
-88.396591000000001
30
0
11
162.36196799999999
21
-88.396591000000001
31
0
0
LINE
5
209
100
AcDbEntity
8
0
100
AcDbLine
10
158.14763399999998
20
-112.169405
30
0
11
158.64763399999998
21
-111.30337900000001
31
0
0
LINE
5
210
100
AcDbEntity
8
0
100
AcDbLine
10
145.07828499999999
20
-104.92780500000002
30
0
11
144.84734499999999
21
-105.327804
31
0
0
LINE
5
211
100
AcDbEntity
8
0
100
AcDbLine
10
155.42248999999995
20
-113.16541800000002
30
0
11
156.42248899999998
21
-113.16541800000002
31
0
0
LINE
5
212
100
AcDbEntity
8
0
100
AcDbLine
10
134.37
20
-105.33000000000001
30
0
11
134.03999999999999
21
-105.33000000000001
31
0
0
LINE
5
213
100
AcDbEntity
8
0
100
AcDbLine
10
172.01490909256449
20
-86.158553604401149
30
0
11
172.19792200000001
21
-85.841565000000003
31
0
0
LINE
5
214
100
AcDbEntity
8
0
100
AcDbLine
10
149.153481
20
-88.13420499999998
30
0
11
149.15324324572987
21
-86.78458930727794
31
0
0
LINE
5
215
100
AcDbEntity
8
0
100
AcDbLine
10
174.898213
20
-69.473351999999991
30
0
11
174.648212
21
-69.906364999999994
31
0
0
LINE
5
216
100
AcDbEntity
8
0
100
AcDbLine
10
145.09999999999999
20
-113.11726800000001
30
0
11
145.09999999999999
21
-112.55980713153275
31
0
0
LINE
5
217
100
AcDbEntity
8
0
100
AcDbLine
10
154.13064607841474
20
-105.44382902765804
30
0
11
154.0146212370754
21
-105.64479042589574
31
0
0
LINE
5
218
100
AcDbEntity
8
0
100
AcDbLine
10
197.823646
20
-77.310965999999993
30
0
11
198.073646
21
-76.877954000000003
31
0
0
LINE
5
219
100
AcDbEntity
8
0
100
AcDbLine
10
133.53194500000001
20
-102.47534899999999
30
0
11
134.31999989560578
21
-102.93033245279329
31
0
0
LINE
5
220
100
AcDbEntity
8
0
100
AcDbLine
10
155.19155000000001
20
-113.56541800000001
30
0
11
155.42248999999995
21
-113.16541800000002
31
0
0
LINE
5
221
100
AcDbEntity
8
0
100
AcDbLine
10
197.80458600000003
20
-80.136003000000002
30
0
11
197.57364600000002
21
-79.736003999999994
31
0
0
LINE
5
222
100
AcDbEntity
8
0
100
AcDbLine
10
152.83851424473883
20
-106.32381700000002
30
0
11
152.472489
21
-106.32381700000002
31
0
0
LINE
5
223
100
AcDbEntity
8
0
100
AcDbLine
10
163.12807728951682
20
-101.73999999999998
30
0
11
162.85296058132417
21
-101.73999999999999
31
0
0
ARC
5
224
100
AcDbEntity
8
0
100
AcDbCircle
10
139.8305
20
-75.530500000000004
30
0
40
1.9321776574632266
210
0
220
0
230
1
100
AcDbArc
50
92.387795765788539
51
177.61220423421153
0
LINE
5
225
100
AcDbEntity
8
0
100
AcDbLine
10
167.24573700000002
20
-97.183384000000004
30
0
11
166.83976554300514
21
-96.480215905222167
31
0
0
LINE
5
226
100
AcDbEntity
8
0
100
AcDbLine
10
197.57364699999999
20
-76.011927
30
0
11
197.80458600000003
21
-75.611927999999992
31
0
0
ARC
5
227
100
AcDbEntity
8
0
100
AcDbCircle
10
144.935
20
-75.515599999999992
30
0
40
1.9167024703902305
210
0
220
-0
230
1
100
AcDbArc
50
2.3874473699999612
51
88.056589409418109
0
LINE
5
228
100
AcDbEntity
8
0
100
AcDbLine
10
150.041877
20
-104.92780400000001
30
0
11
145.07828499999999
21
-104.92780500000002
31
0
0
LINE
5
229
100
AcDbEntity
8
0
100
AcDbLine
10
157.64763399999998
20
-97.360202999999998
30
0
11
157.14763399999998
21
-98.226229000000004
31
0
0
LINE
5
230
100
AcDbEntity
8
0
100
AcDbLine
10
152.472489
20
-106.32381700000002
30
0
11
152.10526601944426
21
-106.95986509412998
31
0
0
ARC
5
231
100
AcDbEntity
8
0
100
AcDbCircle
10
147.46609999999998
20
-83.329799999999992
30
0
40
0.49994151986407287
210
0
220
0
230
1
100
AcDbArc
50
234.709987100001
51
290.35529842000005
0
LINE
5
232
100
AcDbEntity
8
0
100
AcDbLine
10
169.72306700000001
20
-78.436965999999998
30
0
11
169.47306699999999
21
-78.869978000000003
31
0
0
LINE
5
233
100
AcDbEntity
8
0
100
AcDbLine
10
134.91999999999999
20
-82.799999999999997
30
0
11
121.40000000000001
21
-82.799999999999997
31
0
0
LINE
5
234
100
AcDbEntity
8
0
100
AcDbLine
10
143.12219999999999
20
-102.339766
30
0
11
143.584081
21
-102.339766
31
0
0
LINE
5
235
100
AcDbEntity
8
0
100
AcDbLine
10
188.30065404939779
20
-75.625861758471544
30
0
11
188.69850199999999
21
-76.314953000000003
31
0
0
LINE
5
236
100
AcDbEntity
8
0
100
AcDbLine
10
181.07335699999999
20
-77.310965999999993
30
0
11
181.30429700000002
21
-77.710965999999999
31
0
0
LINE
5
237
100
AcDbEntity
8
0
100
AcDbLine
10
159.37277899999995
20
-96.364191000000005
30
0
11
159.18976521844669
21
-96.681178386362276
31
0
0
LINE
5
238
100
AcDbEntity
8
0
100
AcDbLine
10
177.10400799999999
20
-80.136004
30
0
11
176.87306799999999
21
-79.736002999999982
31
0
0
LINE
5
239
100
AcDbEntity
8
0
100
AcDbLine
10
181.30429700000002
20
-77.710965999999999
30
0
11
186.24241699999999
21
-77.710965999999999
31
0
0
LINE
5
240
100
AcDbEntity
8
0
100
AcDbLine
10
163.59533594515102
20
-88.86871727676855
30
0
11
163.32275300000003
21
-88.396591000000001
31
0
0
LINE
5
241
100
AcDbEntity
8
0
100
AcDbLine
10
181.22
20
-70.009815000000003
30
0
11
181.22
21
-71.871328219070293
31
0
0
LINE
5
242
100
AcDbEntity
8
0
100
AcDbLine
10
172.197923
20
-87.833590999999998
30
0
11
172.01491010459813
21
-87.516603148493346
31
0
0
LINE
5
243
100
AcDbEntity
8
0
100
AcDbLine
10
143.84734599999999
20
-105.327804
30
0
11
143.664332236397
21
-105.64479208732382
31
0
0
LINE
5
244
100
AcDbEntity
8
0
100
AcDbLine
10
186.24850300000003
20
-86.274579000000017
30
0
11
186.47944300000003
21
-86.674577999999997
31
0
0
LINE
5
245
100
AcDbEntity
8
0
100
AcDbLine
10
198.07364699999999
20
-78.869979000000001
30
0
11
197.823646
21
-78.436965999999998
31
0
0
LINE
5
246
100
AcDbEntity
8
0
100
AcDbLine
10
179.89034426748643
20
-76.993978430624409
30
0
11
180.07335699999999
21
-77.310965999999993
31
0
0
LINE
5
247
100
AcDbEntity
8
0
100
AcDbLine
10
150.969998
20
-106.535358
30
0
11
151.83206102326284
21
-107.03307010330127
31
0
0
LINE
5
248
100
AcDbEntity
8
0
100
AcDbLine
10
191.34850400000002
20
-69.069800000000015
30
0
11
187.36175
21
-69.069800000000015
31
0
0
LINE
5
249
100
AcDbEntity
8
0
100
AcDbLine
10
170.72306817024017
20
-76.466949931152072
30
0
11
170.72306899999998
21
-77.873966999999993
31
0
0
LINE
5
250
100
AcDbEntity
8
0
100
AcDbLine
10
142.25617552912459
20
-103.20579026795053
30
0
11
142.62220100000002
21
-103.20579100000002
31
0
0
LINE
5
251
100
AcDbEntity
8
0
100
AcDbLine
10
145.34999999602226
20
-112.12679443193707
30
0
11
147.28677207178154
21
-111.00859852891639
31
0
0
LINE
5
252
100
AcDbEntity
8
0
100
AcDbLine
10
167.027512
20
-80.259666999999993
30
0
11
164.51080899999999
21
-84.618723000000017
31
0
0
LINE
5
253
100
AcDbEntity
8
0
100
AcDbLine
10
153.94763399999999
20
-103.76879099999999
30
0
11
154.13064665743639
21
-104.08577843933801
31
0
0
LINE
5
254
100
AcDbEntity
8
0
100
AcDbLine
10
177.19005390659669
20
-77.194942854713105
30
0
11
177.30608054722242
21
-76.993978091303319
31
0
0
LINE
5
255
100
AcDbEntity
8
0
100
AcDbLine
10
145.906901
20
-97.516521000000012
30
0
11
145.906901
21
-96.664191000000002
31
0
0
LINE
5
256
100
AcDbEntity
8
0
100
AcDbLine
10
149.47906835285991
20
-86.315818913265318
30
0
11
152.74356399998572
21
-85.102645000005282
31
0
0
LINE
5
257
100
AcDbEntity
8
0
100
AcDbLine
10
134.57000000000002
20
-103.36334521495755
30
0
11
134.56999999999999
21
-105.13000000000002
31
0
0
LINE
5
258
100
AcDbEntity
8
0
100
AcDbLine
10
185.248502
20
-86.274579000000017
30
0
11
186.24850300000003
21
-86.274579000000017
31
0
0
LINE
5
259
100
AcDbEntity
8
0
100
AcDbLine
10
158.64763399999998
20
-111.30337900000001
30
0
11
159.10951499999999
21
-111.30338100000002
31
0
0
LINE
5
260
100
AcDbEntity
8
0
100
AcDbLine
10
186.47944300000003
20
-86.674577999999997
30
0
11
191.31756100000001
21
-86.674579000000008
31
0
0
LINE
5
261
100
AcDbEntity
8
0
100
AcDbLine
10
159.21615299999999
20
-93.845299999999995
30
0
11
160.02138400000001
21
-95.239999999999995
31
0
0
LINE
5
262
100
AcDbEntity
8
0
100
AcDbLine
10
198.073646
20
-76.877954000000003
30
0
11
197.57364699999999
21
-76.011927
31
0
0
LINE
5
263
100
AcDbEntity
8
0
100
AcDbLine
10
174.648212
20
-69.906364999999994
30
0
11
175.26216806286229
21
-70.969768897355124
31
0
0
LINE
5
264
100
AcDbEntity
8
0
100
AcDbLine
10
197.80458600000003
20
-75.611927999999992
30
0
11
195.422923
21
-71.486764999999991
31
0
0
LINE
5
265
100
AcDbEntity
8
0
100
AcDbLine
10
169.8001549864409
20
-79.836511937137388
30
0
11
168.29737080065127
21
-80.704144582532834
31
0
0
LINE
5
266
100
AcDbEntity
8
0
100
AcDbLine
10
168.1318977871428
20
-94.242177999999996
30
0
11
168.49792500000001
21
-94.242177999999996
31
0
0
LINE
5
267
100
AcDbEntity
8
0
100
AcDbLine
10
151.69999999999996
20
-82.289999999999978
30
0
11
147.63999999998254
21
-83.798522000006471
31
0
0
LINE
5
268
100
AcDbEntity
8
0
100
AcDbLine
10
168.49792500000001
20
-94.242177999999996
30
0
11
168.93106700000001
21
-94.242177999999996
31
0
0
LINE
5
269
100
AcDbEntity
8
0
100
AcDbLine
10
136.447057
20
-98.226229000000004
30
0
11
135.98517600000002
21
-98.226229000000004
31
0
0
LINE
5
270
100
AcDbEntity
8
0
100
AcDbLine
10
137.73966697863713
20
-97.867017685088982
30
0
11
137.447057
21
-97.360202999999998
31
0
0
LINE
5
271
100
AcDbEntity
8
0
100
AcDbLine
10
121.40000000000001
20
-82.799999999999997
30
0
11
121.40000000000001
21
-90.329999999999998
31
0
0
LINE
5
272
100
AcDbEntity
8
0
100
AcDbLine
10
186.49241710930485
20
-76.438907453738352
30
0
11
188.0274491143243
21
-75.552656829073968
31
0
0
LINE
5
273
100
AcDbEntity
8
0
100
AcDbLine
10
157.14763399999998
20
-98.226229000000004
30
0
11
156.68575400000003
21
-98.226229000000004
31
0
0
LINE
5
274
100
AcDbEntity
8
0
100
AcDbLine
10
185.498503
20
-84.975541000000007
30
0
11
184.998502
21
-85.841566
31
0
0
LINE
5
275
100
AcDbEntity
8
0
100
AcDbLine
10
140.15000000000001
20
-113.56541800000001
30
0
11
144.84126000000001
21
-113.56541800000001
31
0
0
LINE
5
276
100
AcDbEntity
8
0
100
AcDbLine
10
191.42364699999999
20
-77.51096680000029
30
0
11
191.42364699999999
21
-77.873965999999982
31
0
0
LINE
5
277
100
AcDbEntity
8
0
100
AcDbLine
10
159.82138399999999
20
-96.364191000000005
30
0
11
159.37277899999995
21
-96.364191000000005
31
0
0
LINE
5
278
100
AcDbEntity
8
0
100
AcDbLine
10
150.041877
20
-104.92780400000001
30
0
11
150.969998
21
-106.535358
31
0
0
LINE
5
279
100
AcDbEntity
8
0
100
AcDbLine
10
195.40348399999999
20
-84.294832
30
0
11
197.80458600000003
21
-80.136003000000002
31
0
0
LINE
5
280
100
AcDbEntity
8
0
100
AcDbLine
10
144.84126000000001
20
-113.56541800000001
30
0
11
145.09999999999999
21
-113.11726800000001
31
0
0
LINE
5
281
100
AcDbEntity
8
0
100
AcDbLine
10
147.17725799999999
20
-83.737897000000018
30
0
11
145.7834810000015
21
-82.750605000001087
31
0
0
LINE
5
282
100
AcDbEntity
8
0
100
AcDbLine
10
138.81
20
-96.664191000000002
30
0
11
138.81
21
-96.101804000000016
31
0
0
LINE
5
283
100
AcDbEntity
8
0
100
AcDbLine
10
145.906901
20
-96.664191000000002
30
0
11
145.906902
21
-96.101804999999999
31
0
0
LINE
5
284
100
AcDbEntity
8
0
100
AcDbLine
10
138.71000009836609
20
-97.537735045849502
30
0
11
138.01287210096837
21
-97.940222610688039
31
0
0
LINE
5
285
100
AcDbEntity
8
0
100
AcDbLine
10
141.26308202988574
20
-103.70180368854855
30
0
11
142.00617388754611
21
-103.27277793647461
31
0
0
LINE
5
286
100
AcDbEntity
8
0
100
AcDbLine
10
140.89705700000002
20
-104.33577851633785
30
0
11
140.89705699999999
21
-105.19382948366213
31
0
0
LINE
5
287
100
AcDbEntity
8
0
100
AcDbLine
10
141.26308239266888
20
-105.82780433322728
30
0
11
142.00617555189606
21
-106.25682963476727
31
0
0
LINE
5
288
100
AcDbEntity
8
0
100
AcDbLine
10
142.73822644810397
20
-106.25682963476726
30
0
11
143.48132000925423
21
-105.82780410117672
31
0
0
LINE
5
289
100
AcDbEntity
8
0
100
AcDbLine
10
153.08851450176047
20
-106.25682955350061
30
0
11
153.83160853466484
21
-105.82780342546923
31
0
0
LINE
5
290
100
AcDbEntity
8
0
100
AcDbLine
10
154.19763311898231
20
-105.19382991778066
30
0
11
154.19763388101711
21
-104.33577875430336
31
0
0
LINE
5
291
100
AcDbEntity
8
0
100
AcDbLine
10
156.78851452869981
20
-112.66541904660387
30
0
11
157.53160842494313
21
-112.2363925575121
31
0
0
LINE
5
292
100
AcDbEntity
8
0
100
AcDbLine
10
158.26365944810394
20
-97.29321563476725
30
0
11
159.00675324130543
21
-96.864189967201796
31
0
0
LINE
5
293
100
AcDbEntity
8
0
100
AcDbLine
10
160.02138400000001
20
-95.239999999999995
30
0
11
160.02138400000001
21
-96.164191000000017
31
0
0
LINE
5
294
100
AcDbEntity
8
0
100
AcDbLine
10
166.77277900000001
20
-96.230217213102776
30
0
11
166.77277900000001
21
-95.372166712489857
31
0
0
LINE
5
295
100
AcDbEntity
8
0
100
AcDbLine
10
167.13880509000836
20
-94.738190772819252
30
0
11
167.88189747859957
21
-94.309165476245482
31
0
0
LINE
5
296
100
AcDbEntity
8
0
100
AcDbLine
10
171.9479228810174
20
-87.26660372162786
30
0
11
171.94792211898277
21
-86.408553486355146
31
0
0
LINE
5
297
100
AcDbEntity
8
0
100
AcDbLine
10
177.12306699999999
20
-78.302990019561094
30
0
11
177.12306699999999
21
-77.444942176594765
31
0
0
LINE
5
298
100
AcDbEntity
8
0
100
AcDbLine
10
177.48909404967864
20
-76.810964475126212
30
0
11
178.23218775214573
21
-76.381940061941251
31
0
0
LINE
5
299
100
AcDbEntity
8
0
100
AcDbLine
10
178.96423844810388
20
-76.381940365232751
30
0
11
179.70733160733116
21
-76.810965666772731
31
0
0
LINE
5
300
100
AcDbEntity
8
0
100
AcDbLine
10
189.31452744810395
20
-76.381940365232751
30
0
11
190.05762060733116
21
-76.810965666772745
31
0
0
LINE
5
301
100
AcDbEntity
8
0
100
AcDbLine
10
197.823646
20
-77.310965999999993
30
0
11
197.823646
21
-78.436965999999998
31
0
0
LINE
5
302
100
AcDbEntity
8
0
100
AcDbLine
10
145.906901
20
-97.516521000000012
30
0
11
145.906901
21
-97.809939699460102
31
0
0
LINE
5
303
100
AcDbEntity
8
0
100
AcDbLine
10
145.906901
20
-97.809939699460102
30
0
11
145.906901
21
-98.316522710980422
31
0
0
ARC
5
304
100
AcDbEntity
8
0
100
AcDbCircle
10
134.06999999999996
20
-103.36334521495758
30
0
40
0.5000000000000604
210
0
220
-0
230
1
100
AcDbArc
50
0
51
60.000013813330746
0
ARC
5
305
100
AcDbEntity
8
0
100
AcDbCircle
10
134.37
20
-105.13
30
0
40
0.2000000000000135
210
0
220
0
230
1
100
AcDbArc
50
270
51
360
0
ARC
5
306
100
AcDbEntity
8
0
100
AcDbCircle
10
137.14863206033468
20
-111.41882525215291
30
0
40
0.50000000000010802
210
0
220
-0
230
1
100
AcDbArc
50
60.000008915995082
51
120.00000305913939
0
ARC
5
307
100
AcDbEntity
8
0
100
AcDbCircle
10
139.65000000000003
20
-112.86299018646594
30
0
40
0.49999999999997158
210
0
220
0
230
1
100
AcDbArc
50
0
51
60.000008915989767
0
ARC
5
308
100
AcDbEntity
8
0
100
AcDbCircle
10
145.60000000000011
20
-112.55980713153281
30
0
40
0.50000000000011935
210
0
220
-0
230
1
100
AcDbArc
50
120.00000052633703
51
180
0
ARC
5
309
100
AcDbEntity
8
0
100
AcDbCircle
10
147.5367720757593
20
-111.44161122851214
30
0
40
0.50000000000006151
210
0
220
-0
230
1
100
AcDbArc
50
60.000014510261934
51
120.00000052632777
0
ARC
5
310
100
AcDbEntity
8
0
100
AcDbCircle
10
149.74999999999997
20
-112.7194182190121
30
0
40
0.50000000000002487
210
0
220
-0
230
1
100
AcDbArc
50
0
51
60.000014510255866
0
ARC
5
311
100
AcDbEntity
8
0
100
AcDbCircle
10
160.99999999999997
20
-106.1154517340765
30
0
40
0.49999999999997158
210
0
220
0
230
1
100
AcDbArc
50
180
51
240.00002257373833
0
ARC
5
312
100
AcDbEntity
8
0
100
AcDbCircle
10
160.99999999999994
20
-103.30980715311992
30
0
40
0.49999999999992945
210
0
220
0
230
1
100
AcDbArc
50
119.99999681575987
51
180
0
ARC
5
313
100
AcDbEntity
8
0
100
AcDbCircle
10
162.8529605813242
20
-102.24000000000009
30
0
40
0.50000000000009592
210
0
220
-0
230
1
100
AcDbArc
50
90.000000000003254
51
119.99999681576101
0
ARC
5
314
100
AcDbEntity
8
0
100
AcDbCircle
10
163.12807728951671
20
-102.24000000000088
30
0
40
0.50000000000088196
210
0
220
-0
230
1
100
AcDbArc
50
77.091659213210349
51
89.999999999986969
0
ARC
5
315
100
AcDbEntity
8
0
100
AcDbCircle
10
164.95999900000001
20
-87.734418772175047
30
0
40
0.49999999999999034
210
0
220
0
230
1
100
AcDbArc
50
299.99998397491743
51
360
0
ARC
5
316
100
AcDbEntity
8
0
100
AcDbCircle
10
164.95999900000032
20
-86.396741688386584
30
0
40
0.49999999999965183
210
-0
220
0
230
1
100
AcDbArc
50
0
51
30.000019709032312
0
ARC
5
317
100
AcDbEntity
8
0
100
AcDbCircle
10
173.40932594547024
20
-84.282734262948907
30
0
40
0.50000000000007194
210
0
220
-0
230
1
100
AcDbArc
50
59.999995661227963
51
119.99999351579588
0
ARC
5
318
100
AcDbEntity
8
0
100
AcDbCircle
10
170.22306817024034
20
-76.466950226016891
30
0
40
0.4999999999999164
210
0
220
-0
230
1
100
AcDbArc
50
3.378614363207013e-05
51
59.999998819798655
0
ARC
5
319
100
AcDbEntity
8
0
100
AcDbCircle
10
173.76356561931829
20
-71.488576769938419
30
0
40
0.49999999999991246
210
0
220
0
230
1
100
AcDbArc
50
234.99999468638927
51
299.99998484276324
0
ARC
5
320
100
AcDbEntity
8
0
100
AcDbCircle
10
181.72000000000008
20
-71.871328219070264
30
0
40
0.50000000000007816
210
0
220
0
230
1
100
AcDbArc
50
180
51
239.99942354574662
0
ARC
5
321
100
AcDbEntity
8
0
100
AcDbCircle
10
182.89512029206253
20
-72.549800000000232
30
0
40
0.49999999999974831
210
0
220
0
230
1
100
AcDbArc
50
239.99942354574722
51
270.00000000000978
0
ARC
5
322
100
AcDbEntity
8
0
100
AcDbCircle
10
184.9145672471613
20
-72.549800000000062
30
0
40
0.49999999999992717
210
0
220
0
230
1
100
AcDbArc
50
269.99999999999676
51
300.13449066940223
0
ARC
5
323
100
AcDbEntity
8
0
100
AcDbCircle
10
186.47825000000009
20
-71.642106770936408
30
0
40
0.49999999999993527
210
-0
220
0
230
1
100
AcDbArc
50
-59.865509330604986
51
0
0
ARC
5
324
100
AcDbEntity
8
0
100
AcDbCircle
10
191.84850320545985
20
-70.186144967097675
30
0
40
0.49999999999995609
210
0
220
0
230
1
100
AcDbArc
50
179.99995923286716
51
240.00000291002078
0
ARC
5
325
100
AcDbEntity
8
0
100
AcDbCircle
10
194.26208303877036
20
-71.579625770124395
30
0
40
0.49999999999992628
210
0
220
0
230
1
100
AcDbArc
50
240.00000291001754
51
299.99998939490109
0
ARC
5
326
100
AcDbEntity
8
0
100
AcDbCircle
10
186.74241700000007
20
-76.871920218737785
30
0
40
0.50000000000007838
210
0
220
-0
230
1
100
AcDbArc
50
119.99998553690412
51
180
0
ARC
5
327
100
AcDbEntity
8
0
100
AcDbCircle
10
190.92364699999985
20
-79.16132472198511
30
0
40
0.50000000000014344
210
-0
220
0
230
1
100
AcDbArc
50
299.99997534793255
51
360
0
ARC
5
328
100
AcDbEntity
8
0
100
AcDbCircle
10
188.92438706665013
20
-80.315596835749744
30
0
40
0.50000000000005695
210
0
220
0
230
1
100
AcDbArc
50
240.00001142346636
51
299.99997534792004
0
ARC
5
329
100
AcDbEntity
8
0
100
AcDbCircle
10
191.81756100000007
20
-85.557403071365428
30
0
40
0.50000000000008027
210
0
220
-0
230
1
100
AcDbArc
50
120.00001086833657
51
180
0
ARC
5
330
100
AcDbEntity
8
0
100
AcDbCircle
10
194.20394095981194
20
-84.179625355621738
30
0
40
0.50000000000010925
210
0
220
-0
230
1
100
AcDbArc
50
59.999981155218535
51
120.00001086832766
0
ARC
5
331
100
AcDbEntity
8
0
100
AcDbCircle
10
138.61000000000013
20
-97.36453002188442
30
0
40
0.19999999999987994
210
-0
220
0
230
1
100
AcDbArc
50
-59.999967460772936
51
0
0
ARC
5
332
100
AcDbEntity
8
0
100
AcDbCircle
10
137.91287200260226
20
-97.767017586722943
30
0
40
0.19999999999995274
210
0
220
0
230
1
100
AcDbArc
50
210.00003253923859
51
300.00003253926025
0
ARC
5
333
100
AcDbEntity
8
0
100
AcDbCircle
10
171.84898499139871
20
-84.837187158483417
30
0
40
0.19999999999992613
210
0
220
0
230
1
100
AcDbArc
50
119.99999351578469
51
209.99996669693178
0
ARC
5
334
100
AcDbEntity
8
0
100
AcDbCircle
10
188.12744907060235
20
-75.725861935073738
30
0
40
0.20000000000000615
210
0
220
-0
230
1
100
AcDbArc
50
30.000058419553238
51
119.99998553689609
0
ARC
5
335
100
AcDbEntity
8
0
100
AcDbCircle
10
191.22364699999997
20
-77.510966800000276
30
0
40
0.19999999999999574
210
-0
220
0
230
1
100
AcDbArc
50
0
51
89.99994270427274
0
ARC
5
336
100
AcDbEntity
8
0
100
AcDbCircle
10
175.08896294941323
20
-71.069768840730632
30
0
40
0.20000000000000845
210
0
220
0
230
1
100
AcDbArc
50
-60.000015157230557
51
29.999981268768202
0
ARC
5
337
100
AcDbEntity
8
0
100
AcDbCircle
10
170.52306899999996
20
-78.236966000000024
30
0
40
0.19999999999997797
210
0
220
0
230
1
100
AcDbArc
50
-90
51
0
0
ARC
5
338
100
AcDbEntity
8
0
100
AcDbCircle
10
169.70015500449028
20
-79.66330684595961
30
0
40
0.20000000000005594
210
-0
220
0
230
1
100
AcDbArc
50
-60.000005970698339
51
29.999968353220773
0
ARC
5
339
100
AcDbEntity
8
0
100
AcDbCircle
10
163.76854091277602
20
-88.768717080818575
30
0
40
0.20000000000000534
210
0
220
0
230
1
100
AcDbArc
50
210.00006481974688
51
299.99998397491703
0
ARC
5
340
100
AcDbEntity
8
0
100
AcDbCircle
10
159.82138399999999
20
-96.164191000000002
30
0
40
0.2000000000000135
210
-0
220
0
230
1
100
AcDbArc
50
270
51
360
0
ARC
5
341
100
AcDbEntity
8
0
100
AcDbCircle
10
151.93206099082875
20
-106.85986500381858
30
0
40
0.1999999999999712
210
0
220
0
230
1
100
AcDbArc
50
240.00001072910683
51
329.99997012522095
0
ARC
5
342
100
AcDbEntity
8
0
100
AcDbCircle
10
146.10690199999999
20
-92.114113362154598
30
0
40
0.20000000000000298
210
0
220
0
230
1
100
AcDbArc
50
125.00002161829146
51
180
0
ARC
5
343
100
AcDbEntity
8
0
100
AcDbCircle
10
138.61000000000007
20
-91.948772027517705
30
0
40
0.19999999999994245
210
0
220
0
230
1
100
AcDbArc
50
0
51
59.999988689734529
0
ARC
5
344
100
AcDbEntity
8
0
100
AcDbCircle
10
149.6532432379714
20
-86.784501225067686
30
0
40
0.50000000000001621
210
0
220
0
230
1
100
AcDbArc
50
110.3864128636318
51
180.01009347780038
0
ARC
5
345
100
AcDbEntity
8
0
100
AcDbCircle
10
168.04737084577494
20
-80.271131854588475
30
0
40
0.49999999999997646
210
0
220
0
230
1
100
AcDbArc
50
240.00003658106746
51
299.99999402928535
0
ARC
5
346
100
AcDbEntity
8
0
100
AcDbCircle
10
168.1318977871428
20
-94.742177999999853
30
0
40
0.499999999999865
210
0
220
-0
230
1
100
AcDbArc
50
90
51
120.00004082613108
0
ARC
5
347
100
AcDbEntity
8
0
100
AcDbCircle
10
167.38880539855117
20
-95.171203296573324
30
0
40
0.49999999999936401
210
0
220
0
230
1
100
AcDbArc
50
120.00004082610587
51
149.99997513699475
0
ARC
5
348
100
AcDbEntity
8
0
100
AcDbCircle
10
167.27277899999967
20
-95.372166712489815
30
0
40
0.49999999999969075
210
0
220
0
230
1
100
AcDbArc
50
149.99997513696056
51
180
0
ARC
5
349
100
AcDbEntity
8
0
100
AcDbCircle
10
167.2727790000005
20
-96.230217213102677
30
0
40
0.50000000000050449
210
0
220
0
230
1
100
AcDbArc
50
180
51
209.99982694276022
0
ARC
5
350
100
AcDbEntity
8
0
100
AcDbCircle
10
142.25617452912658
20
-103.70579026794958
30
0
40
0.50000000000004785
210
0
220
-0
230
1
100
AcDbArc
50
89.999885408669243
51
120.00008489327844
0
ARC
5
351
100
AcDbEntity
8
0
100
AcDbCircle
10
141.51308267146632
20
-104.13481602002362
30
0
40
0.50000000000017464
210
0
220
0
230
1
100
AcDbArc
50
120.00008489328401
51
150.00001708029956
0
ARC
5
352
100
AcDbEntity
8
0
100
AcDbCircle
10
141.39705700000002
20
-104.33577851633785
30
0
40
0.50000000000000033
210
0
220
0
230
1
100
AcDbArc
50
150.00001708031019
51
180
0
ARC
5
353
100
AcDbEntity
8
0
100
AcDbCircle
10
141.39705700000053
20
-105.193829483662
30
0
40
0.50000000000052225
210
0
220
0
230
1
100
AcDbArc
50
180
51
209.99998291967316
0
ARC
5
354
100
AcDbEntity
8
0
100
AcDbCircle
10
141.51308250893277
20
-105.39479169845995
30
0
40
0.50000000000010636
210
0
220
0
230
1
100
AcDbArc
50
209.99998291969501
51
239.99998461609107
0
ARC
5
355
100
AcDbEntity
8
0
100
AcDbCircle
10
142.25617566815998
20
-105.82381699999959
30
0
40
0.50000000000041722
210
0
220
0
230
1
100
AcDbArc
50
239.99998461610858
51
269.99999999998698
0
ARC
5
356
100
AcDbEntity
8
0
100
AcDbCircle
10
142.48822633184005
20
-105.82381699999971
30
0
40
0.50000000000030909
210
0
220
0
230
1
100
AcDbArc
50
270.00000000000978
51
300.0000153838987
0
ARC
5
357
100
AcDbEntity
8
0
100
AcDbCircle
10
143.2313198929902
20
-105.39479146640926
30
0
40
0.50000000000030131
210
0
220
0
230
1
100
AcDbArc
50
300.0000153839149
51
329.99991784123341
0
ARC
5
358
100
AcDbEntity
8
0
100
AcDbCircle
10
158.01365933184002
20
-96.860202999999615
30
0
40
0.50000000000038014
210
0
220
0
230
1
100
AcDbArc
50
270.00000000000978
51
300.00001538389381
0
ARC
5
359
100
AcDbEntity
8
0
100
AcDbCircle
10
158.75675312504174
20
-96.431177332434658
30
0
40
0.49999999999984029
210
0
220
0
230
1
100
AcDbArc
50
300.00001538389978
51
329.99986054531286
0
ARC
5
360
100
AcDbEntity
8
0
100
AcDbCircle
10
189.80762049106704
20
-77.243978301540267
30
0
40
0.50000000000038192
210
0
220
-0
230
1
100
AcDbArc
50
29.999982919696077
51
59.999984616079907
0
ARC
5
361
100
AcDbEntity
8
0
100
AcDbCircle
10
189.06452733184005
20
-76.814953000000401
30
0
40
0.50000000000038414
210
0
220
-0
230
1
100
AcDbArc
50
59.999984616109792
51
89.999999999993491
0
ARC
5
362
100
AcDbEntity
8
0
100
AcDbCircle
10
179.45733149106744
20
-77.243978301539784
30
0
40
0.49999999999977729
210
0
220
-0
230
1
100
AcDbArc
50
29.999982919675379
51
59.999984616092526
0
ARC
5
363
100
AcDbEntity
8
0
100
AcDbCircle
10
178.71423833184011
20
-76.814952999999861
30
0
40
0.49999999999985389
210
0
220
-0
230
1
100
AcDbArc
50
59.999984616090146
51
90
0
ARC
5
364
100
AcDbEntity
8
0
100
AcDbCircle
10
178.48218734309279
20
-76.814952999999775
30
0
40
0.49999999999975842
210
0
220
-0
230
1
100
AcDbArc
50
89.999999999993491
51
119.99994587457999
0
ARC
5
365
100
AcDbEntity
8
0
100
AcDbCircle
10
177.73909364062598
20
-77.24397741318522
30
0
40
0.50000000000031475
210
0
220
0
230
1
100
AcDbArc
50
119.9999458745805
51
150.00008972784585
0
ARC
5
366
100
AcDbEntity
8
0
100
AcDbCircle
10
177.62306700000053
20
-77.444942176594907
30
0
40
0.50000000000053901
210
0
220
0
230
1
100
AcDbArc
50
150.00008972787199
51
180
0
ARC
5
367
100
AcDbEntity
8
0
100
AcDbCircle
10
177.62306699999988
20
-78.302990019561094
30
0
40
0.49999999999990052
210
0
220
0
230
1
100
AcDbArc
50
180
51
210.00008215876218
0
ARC
5
368
100
AcDbEntity
8
0
100
AcDbCircle
10
172.44792211898226
20
-86.408553042304931
30
0
40
0.49999999999967726
210
0
220
0
230
1
100
AcDbArc
50
150.00007437592402
51
180.00005088376329
0
ARC
5
369
100
AcDbEntity
8
0
100
AcDbCircle
10
172.44792288101709
20
-87.266603277577772
30
0
40
0.49999999999988454
210
0
220
0
230
1
100
AcDbArc
50
180.00005088376329
51
209.99998291969675
0
ARC
5
370
100
AcDbEntity
8
0
100
AcDbCircle
10
157.78160887424414
20
-112.66940500000031
30
0
40
0.50000000000030909
210
0
220
0
230
1
100
AcDbArc
50
90.000000000006523
51
120.00005945102873
0
ARC
5
371
100
AcDbEntity
8
0
100
AcDbCircle
10
157.03851497800065
20
-113.09843148909169
30
0
40
0.49999999999990774
210
0
220
0
230
1
100
AcDbArc
50
120.00005945103381
51
149.99986054530862
0
ARC
5
372
100
AcDbEntity
8
0
100
AcDbCircle
10
152.83851424473872
20
-105.82381699999955
30
0
40
0.50000000000046896
210
0
220
0
230
1
100
AcDbArc
50
270.00000000001302
51
300.00003400882071
0
ARC
5
373
100
AcDbEntity
8
0
100
AcDbCircle
10
153.58160827764303
20
-105.39479087196847
30
0
40
0.50000000000021538
210
0
220
0
230
1
100
AcDbArc
50
300.0000340088435
51
330.00005902386567
0
ARC
5
374
100
AcDbEntity
8
0
100
AcDbCircle
10
153.69763311898276
20
-105.19382947373101
30
0
40
0.49999999999975892
210
0
220
0
230
1
100
AcDbArc
50
330.00005902386681
51
359.99994911623668
0
ARC
5
375
100
AcDbEntity
8
0
100
AcDbCircle
10
153.69763388101742
20
-104.3357783102536
30
0
40
0.49999999999986677
210
0
220
0
230
1
100
AcDbArc
50
-5.0883763319487717e-05
51
29.999982919698152
0
ARC
5
376
100
AcDbEntity
8
0
100
AcDbCircle
10
138.19999999999996
20
-82.29127399357759
30
0
40
0.50000000000004263
210
0
220
0
230
1
100
AcDbArc
50
305.28120779717472
51
360
0
ENDSEC
0
SECTION
2
OBJECTS
0
DICTIONARY
5
C
100
AcDbDictionary
3
ACAD_GROUP
350
D
3
ACAD_MLINESTYLE
350
17
0
DICTIONARY
5
D
100
AcDbDictionary
0
DICTIONARY
5
1A
330
C
100
AcDbDictionary
0
DICTIONARY
5
17
100
AcDbDictionary
0
ENDSEC
0
EOF
