%TF.GenerationSoftware,KiCad,Pcbnew,9.0.3*%
%TF.CreationDate,2025-08-06T14:06:10+08:00*%
%TF.ProjectId,Main,4d61696e-2e6b-4696-9361-645f70636258,10*%
%TF.SameCoordinates,Original*%
%TF.FileFunction,Component,L2,Bot*%
%TF.FilePolarity,Positive*%
%FSLAX46Y46*%
G04 Gerber Fmt 4.6, Leading zero omitted, Abs format (unit mm)*
G04 Created by KiCad (PCBNEW 9.0.3) date 2025-08-06 14:06:10*
%MOMM*%
%LPD*%
G01*
G04 APERTURE LIST*
%TA.AperFunction,ComponentMain*%
%ADD10C,0.300000*%
%TD*%
%TA.AperFunction,ComponentOutline,Footprint*%
%ADD11C,0.100000*%
%TD*%
%TA.AperFunction,ComponentPin*%
%ADD12P,0.360000X4X0.000000*%
%TD*%
%TA.AperFunction,ComponentPin*%
%ADD13C,0.100000*%
%TD*%
G04 APERTURE END LIST*
D10*
%TO.C,D5*%
%TO.CFtp,TX1812MWCA5-F01*%
%TO.CVal,TX1812MWCA5-F01*%
%TO.CLbN,Pixels-dice*%
%TO.CMnt,SMD*%
%TO.CRot,180*%
X133520000Y-69540000D03*
D11*
X132669999Y-70565001D02*
X132669999Y-68514999D01*
X134370001Y-68514999D01*
X134370001Y-70565001D01*
X132669999Y-70565001D01*
D12*
%TO.P,D5,1,DOUT*%
X133020000Y-68814999D03*
D13*
%TO.P,D5,2,GND*%
X134020001Y-68815000D03*
%TO.P,D5,3,DIN*%
X134020000Y-70265001D03*
%TO.P,D5,4,VCC*%
X133019999Y-70265000D03*
%TD*%
D10*
%TO.C,D4*%
%TO.CFtp,TX1812MWCA5-F01*%
%TO.CVal,TX1812MWCA5-F01*%
%TO.CLbN,Pixels-dice*%
%TO.CMnt,SMD*%
%TO.CRot,-150*%
X133520000Y-78220000D03*
D11*
X133296378Y-79532676D02*
X132271378Y-77757324D01*
X133743622Y-76907324D01*
X134768622Y-78682676D01*
X133296378Y-79532676D01*
D12*
%TO.P,D4,1,DOUT*%
X132724487Y-77842132D03*
D13*
%TO.P,D4,2,GND*%
X133590513Y-77342132D03*
%TO.P,D4,3,DIN*%
X134315513Y-78597868D03*
%TO.P,D4,4,VCC*%
X133449487Y-79097868D03*
%TD*%
D10*
%TO.C,D6*%
%TO.CFtp,TX1812MWCA5-F01*%
%TO.CVal,TX1812MWCA5-F01*%
%TO.CLbN,Pixels-dice*%
%TO.CMnt,SMD*%
%TO.CRot,-90*%
X126000000Y-65190000D03*
D11*
X127025000Y-66040000D02*
X124975000Y-66040000D01*
X124975000Y-64340000D01*
X127025000Y-64340000D01*
X127025000Y-66040000D01*
D12*
%TO.P,D6,1,DOUT*%
X125275000Y-65690000D03*
D13*
%TO.P,D6,2,GND*%
X125275000Y-64690000D03*
%TO.P,D6,3,DIN*%
X126725000Y-64690000D03*
%TO.P,D6,4,VCC*%
X126725000Y-65690000D03*
%TD*%
D10*
%TO.C,C16*%
%TO.CFtp,C_0402_1005Metric*%
%TO.CVal,10uF 6.3V 20\u0025*%
%TO.CLbN,Pixels-dice*%
%TO.CMnt,SMD*%
%TO.CRot,31*%
X128390000Y-75150000D03*
D11*
X128881785Y-74492849D02*
X129201109Y-75024293D01*
X127898215Y-75807151D01*
X127578891Y-75275707D01*
X128881785Y-74492849D01*
D12*
%TO.P,C16,1*%
X128801440Y-74902782D03*
D13*
%TO.P,C16,2*%
X127978560Y-75397218D03*
%TD*%
D10*
%TO.C,D2*%
%TO.CFtp,TX1812MWCA5-F01*%
%TO.CVal,TX1812MWCA5-F01*%
%TO.CLbN,Pixels-dice*%
%TO.CMnt,SMD*%
%TO.CRot,-15*%
X149220000Y-78690000D03*
D11*
X150306329Y-77919923D02*
X149775750Y-79900071D01*
X148133671Y-79460077D01*
X148664250Y-77479929D01*
X150306329Y-77919923D01*
D12*
%TO.P,D2,1,DOUT*%
X149515322Y-79519706D03*
D13*
%TO.P,D2,2,GND*%
X148549393Y-79260887D03*
%TO.P,D2,3,DIN*%
X148924678Y-77860294D03*
%TO.P,D2,4,VCC*%
X149890607Y-78119113D03*
%TD*%
D10*
%TO.C,D7*%
%TO.CFtp,TX1812MWCA5-F01*%
%TO.CVal,TX1812MWCA5-F01*%
%TO.CLbN,Pixels-dice*%
%TO.CMnt,SMD*%
%TO.CRot,-90*%
X118410000Y-69550000D03*
D11*
X119435000Y-70400000D02*
X117385000Y-70400000D01*
X117385000Y-68700000D01*
X119435000Y-68700000D01*
X119435000Y-70400000D01*
D12*
%TO.P,D7,1,DOUT*%
X117685000Y-70050000D03*
D13*
%TO.P,D7,2,GND*%
X117685000Y-69050000D03*
%TO.P,D7,3,DIN*%
X119135000Y-69050000D03*
%TO.P,D7,4,VCC*%
X119135000Y-70050000D03*
%TD*%
D10*
%TO.C,D9*%
%TO.CFtp,TX1812MWCA5-F01*%
%TO.CVal,TX1812MWCA5-F01*%
%TO.CLbN,Pixels-dice*%
%TO.CMnt,SMD*%
%TO.CRot,180*%
X110960000Y-56500000D03*
D11*
X110110000Y-57525000D02*
X110110000Y-55475000D01*
X111810000Y-55475000D01*
X111810000Y-57525000D01*
X110110000Y-57525000D01*
D12*
%TO.P,D9,1,DOUT*%
X110460000Y-55775000D03*
D13*
%TO.P,D9,2,GND*%
X111460000Y-55775000D03*
%TO.P,D9,3,DIN*%
X111460000Y-57225000D03*
%TO.P,D9,4,VCC*%
X110460000Y-57225000D03*
%TD*%
D10*
%TO.C,D8*%
%TO.CFtp,TX1812MWCA5-F01*%
%TO.CVal,TX1812MWCA5-F01*%
%TO.CLbN,Pixels-dice*%
%TO.CMnt,SMD*%
%TO.CRot,-150*%
X110940000Y-65180000D03*
D11*
X110716378Y-66492676D02*
X109691378Y-64717324D01*
X111163622Y-63867324D01*
X112188622Y-65642676D01*
X110716378Y-66492676D01*
D12*
%TO.P,D8,1,DOUT*%
X110144487Y-64802132D03*
D13*
%TO.P,D8,2,GND*%
X111010513Y-64302132D03*
%TO.P,D8,3,DIN*%
X111735513Y-65557868D03*
%TO.P,D8,4,VCC*%
X110869487Y-66057868D03*
%TD*%
D10*
%TO.C,U5*%
%TO.CFtp,TDFN-8-1EP_3x2mm_P0.5mm_EP1.3x1.4mm*%
%TO.CVal,BL24C02F-NTRC*%
%TO.CLbN,Pixels-dice*%
%TO.CMnt,SMD*%
%TO.CRot,120*%
X134762244Y-67118437D03*
D11*
X133079471Y-65953789D02*
X134595016Y-65078789D01*
X136445017Y-68283085D01*
X134929472Y-69158085D01*
X133079471Y-65953789D01*
D12*
%TO.P,U5,1,A0*%
X133381475Y-66226875D03*
D13*
%TO.P,U5,2,A1*%
X133814488Y-65976873D03*
%TO.P,U5,3,A2*%
X134247500Y-65726876D03*
%TO.P,U5,4,GND*%
X134680513Y-65476875D03*
%TO.P,U5,5,SDA*%
X136143013Y-68009999D03*
%TO.P,U5,6,SCL*%
X135710000Y-68260001D03*
%TO.P,U5,7,WP*%
X135276988Y-68509998D03*
%TO.P,U5,8,VCC*%
X134843975Y-68759999D03*
%TO.P,U5,9*%
X134762244Y-67118437D03*
%TD*%
D10*
%TO.C,U8*%
%TO.CFtp,SOT-553*%
%TO.CVal,SL1605*%
%TO.CLbN,Package_TO_SOT_SMD*%
%TO.CMnt,SMD*%
%TO.CRot,180*%
X125990000Y-63260000D03*
D11*
X124939998Y-63935000D02*
X124939998Y-62585000D01*
X127039999Y-62585000D01*
X127039999Y-63935000D01*
X124939998Y-63935000D01*
D12*
%TO.P,U8,1*%
X125277501Y-63760000D03*
D13*
%TO.P,U8,2,GND*%
X125277498Y-63259999D03*
%TO.P,U8,3*%
X125277501Y-62760000D03*
%TO.P,U8,4,VDD*%
X126702499Y-62760000D03*
%TO.P,U8,5,OUT*%
X126702499Y-63760000D03*
%TD*%
D10*
%TO.C,U6*%
%TO.CFtp,AW35122*%
%TO.CVal,AW35122*%
%TO.CLbN,Pixels-dice*%
%TO.CMnt,SMD*%
%TO.CRot,55*%
X135320000Y-79500000D03*
D11*
X135230365Y-78991654D02*
X135828346Y-79410365D01*
X135409635Y-80008346D01*
X134811654Y-79589635D01*
X135230365Y-78991654D01*
D12*
%TO.P,U6,A1,VOUT*%
X135258606Y-79151818D03*
D13*
%TO.P,U6,A2,VIN*%
X134971818Y-79561394D03*
%TO.P,U6,B1,GND*%
X135668182Y-79438606D03*
%TO.P,U6,B2,EN*%
X135381394Y-79848182D03*
%TD*%
D10*
%TO.C,C7*%
%TO.CFtp,C_0201_0603Metric*%
%TO.CVal,100pF NP0 10V 2\u0025*%
%TO.CLbN,Capacitor_SMD*%
%TO.CMnt,SMD*%
%TO.CRot,-90*%
X147170000Y-75220000D03*
D11*
X147370002Y-75770003D02*
X146969998Y-75770003D01*
X146969998Y-74669997D01*
X147370002Y-74669997D01*
X147370002Y-75770003D01*
D12*
%TO.P,C7,1*%
X147170002Y-75540003D03*
D13*
%TO.P,C7,2*%
X147169998Y-74899997D03*
%TD*%
D10*
%TO.C,L1*%
%TO.CFtp,C_1.2x1.8*%
%TO.CVal,10uH 100mA 20\u0025*%
%TO.CLbN,Pixels-dice*%
%TO.CMnt,SMD*%
%TO.CRot,180*%
X143710000Y-75170000D03*
D11*
X142750001Y-75680002D02*
X142750001Y-74659998D01*
X144669999Y-74659998D01*
X144669999Y-75680002D01*
X142750001Y-75680002D01*
D12*
%TO.P,L1,1,1*%
X143070001Y-75169998D03*
D13*
%TO.P,L1,2,2*%
X144349999Y-75170002D03*
%TD*%
D10*
%TO.C,C5*%
%TO.CFtp,C_0201_0603Metric*%
%TO.CVal,8pF 10V 10\u0025*%
%TO.CLbN,Capacitor_SMD*%
%TO.CMnt,SMD*%
%TO.CRot,90*%
X151150000Y-75310000D03*
D11*
X150949999Y-74760000D02*
X151350001Y-74760000D01*
X151350001Y-75860000D01*
X150949999Y-75860000D01*
X150949999Y-74760000D01*
D12*
%TO.P,C5,1*%
X151149999Y-74990000D03*
D13*
%TO.P,C5,2*%
X151150001Y-75630000D03*
%TD*%
D10*
%TO.C,C3*%
%TO.CFtp,C_0201_0603Metric*%
%TO.CVal,0.1uF 10V 20\u0025*%
%TO.CLbN,Capacitor_SMD*%
%TO.CMnt,SMD*%
%TO.CRot,-60*%
X144410000Y-78110000D03*
D11*
X144858208Y-78486315D02*
X144511794Y-78686317D01*
X143961792Y-77733685D01*
X144308206Y-77533683D01*
X144858208Y-78486315D01*
D12*
%TO.P,C3,1*%
X144570003Y-78387129D03*
D13*
%TO.P,C3,2*%
X144249997Y-77832871D03*
%TD*%
D10*
%TO.C,C2*%
%TO.CFtp,C_0201_0603Metric*%
%TO.CVal,8pF 10V 10\u0025*%
%TO.CLbN,Capacitor_SMD*%
%TO.CMnt,SMD*%
%TO.CRot,-91*%
X148620000Y-75200000D03*
D11*
X148810372Y-75753407D02*
X148410431Y-75746426D01*
X148429628Y-74646593D01*
X148829569Y-74653574D01*
X148810372Y-75753407D01*
D12*
%TO.P,C2,1*%
X148614414Y-75519951D03*
D13*
%TO.P,C2,2*%
X148625586Y-74880049D03*
%TD*%
D10*
%TO.C,R10*%
%TO.CFtp,R_0201_0603Metric*%
%TO.CVal,3.9k 1\u0025*%
%TO.CLbN,Resistor_SMD*%
%TO.CMnt,SMD*%
%TO.CRot,-150*%
X137590000Y-72050000D03*
D11*
X137213686Y-72498205D02*
X137013686Y-72151795D01*
X137966314Y-71601795D01*
X138166314Y-71948205D01*
X137213686Y-72498205D01*
D12*
%TO.P,R10,1*%
X137312872Y-72210000D03*
D13*
%TO.P,R10,2*%
X137867128Y-71890000D03*
%TD*%
D10*
%TO.C,U1*%
%TO.CFtp,WLCSP*%
%TO.CVal,NRF52810-CAAA-R*%
%TO.CLbN,Pixels-dice*%
%TO.CMnt,SMD*%
%TO.CRot,30*%
X146443205Y-77859615D03*
D11*
X146856265Y-76318054D02*
X147984766Y-78272675D01*
X146030145Y-79401176D01*
X144901644Y-77446555D01*
X146856265Y-76318054D01*
D12*
%TO.P,U1,A1,XC1*%
X146809230Y-76493589D03*
D13*
%TO.P,U1,A2,XC2*%
X146462819Y-76693589D03*
%TO.P,U1,A3,DEC2*%
X146116410Y-76893590D03*
%TO.P,U1,A4,DEC4*%
X145770000Y-77093590D03*
%TO.P,U1,A5,DCC*%
X145423591Y-77293589D03*
%TO.P,U1,A6,VDD*%
X145077179Y-77493590D03*
%TO.P,U1,B3,VSS*%
X146316410Y-77240000D03*
%TO.P,U1,B4,VSS*%
X145970000Y-77440000D03*
%TO.P,U1,B5,P0.00/XL1*%
X145623590Y-77640000D03*
%TO.P,U1,B6,DEC1*%
X145277179Y-77840001D03*
%TO.P,U1,C1,VSS_PA*%
X147109230Y-77013205D03*
%TO.P,U1,D3,VSS*%
X146516409Y-77586410D03*
%TO.P,U1,D4,VSS*%
X146170000Y-77786411D03*
%TO.P,U1,D5,P0.01/XL2*%
X145823590Y-77986410D03*
%TO.P,U1,D6,P0.03/AIN1*%
X145477180Y-78186410D03*
%TO.P,U1,E1,ANT*%
X147409230Y-77532820D03*
%TO.P,U1,E2,P0.18/TDATA0*%
X147062820Y-77732820D03*
%TO.P,U1,E3,VSS*%
X146716410Y-77932819D03*
%TO.P,U1,E4,VSS*%
X146370001Y-78132820D03*
%TO.P,U1,E5,P0.04/AIN2*%
X146023590Y-78332820D03*
%TO.P,U1,E6,P0.05/AIN3*%
X145677180Y-78532820D03*
%TO.P,U1,F1,SWDIO*%
X147609231Y-77879229D03*
%TO.P,U1,F2,P0.21*%
X147262820Y-78079230D03*
%TO.P,U1,F3,P0.17*%
X146916410Y-78279230D03*
%TO.P,U1,F4,P0.14*%
X146570000Y-78479230D03*
%TO.P,U1,F5,P0.11*%
X146223590Y-78679230D03*
%TO.P,U1,F6,P0.8*%
X145877179Y-78879229D03*
%TO.P,U1,G1,SWDCLK*%
X147809231Y-78225640D03*
%TO.P,U1,G2,P0.20/TCLK*%
X147462819Y-78425641D03*
%TO.P,U1,G3,P0.16/TDATA1*%
X147116410Y-78625640D03*
%TO.P,U1,G4,P0.15*%
X146770000Y-78825640D03*
%TO.P,U1,G5,P0.12*%
X146423591Y-79025641D03*
%TO.P,U1,G6,VDD*%
X146077180Y-79225641D03*
%TD*%
D10*
%TO.C,C10*%
%TO.CFtp,C_0201_0603Metric*%
%TO.CVal,0.1uF 10V 20\u0025*%
%TO.CLbN,Capacitor_SMD*%
%TO.CMnt,SMD*%
%TO.CRot,-58*%
X145470000Y-79820000D03*
D11*
X145931065Y-80180439D02*
X145591843Y-80392409D01*
X145008935Y-79459561D01*
X145348157Y-79247591D01*
X145931065Y-80180439D01*
D12*
%TO.P,C10,1*%
X145639574Y-80091372D03*
D13*
%TO.P,C10,2*%
X145300426Y-79548628D03*
%TD*%
D10*
%TO.C,C8*%
%TO.CFtp,0402_RF*%
%TO.CVal,0.8pF 10V 5\u0025 C0G*%
%TO.CLbN,Pixels-dice*%
%TO.CMnt,SMD*%
%TO.CRot,-105*%
X148180000Y-76960000D03*
D11*
X148242901Y-77691195D02*
X147759929Y-77561783D01*
X148117099Y-76228805D01*
X148600071Y-76358217D01*
X148242901Y-77691195D01*
D12*
%TO.P,C8,1*%
X148066115Y-77385006D03*
D13*
%TO.P,C8,2*%
X148293885Y-76534994D03*
%TD*%
D10*
%TO.C,D3*%
%TO.CFtp,TX1812MWCA5-F01*%
%TO.CVal,TX1812MWCA5-F01*%
%TO.CLbN,Pixels-dice*%
%TO.CMnt,SMD*%
%TO.CRot,-90*%
X141070000Y-82560000D03*
D11*
X142095000Y-83410000D02*
X140045000Y-83410000D01*
X140045000Y-81710000D01*
X142095000Y-81710000D01*
X142095000Y-83410000D01*
D12*
%TO.P,D3,1,DOUT*%
X140345000Y-83060000D03*
D13*
%TO.P,D3,2,GND*%
X140345000Y-82060000D03*
%TO.P,D3,3,DIN*%
X141795000Y-82060000D03*
%TO.P,D3,4,VCC*%
X141795000Y-83060000D03*
%TD*%
D10*
%TO.C,C9*%
%TO.CFtp,C_0402_1005Metric*%
%TO.CVal,10uF 6.3V 20\u0025*%
%TO.CLbN,Pixels-dice*%
%TO.CMnt,SMD*%
%TO.CRot,-60*%
X134520000Y-77090000D03*
D11*
X135168468Y-77593176D02*
X134631529Y-77903178D01*
X133871532Y-76586824D01*
X134408471Y-76276822D01*
X135168468Y-77593176D01*
D12*
%TO.P,C9,1*%
X134760000Y-77505689D03*
D13*
%TO.P,C9,2*%
X134280000Y-76674311D03*
%TD*%
D10*
%TO.C,C18*%
%TO.CFtp,C_0402_1005Metric*%
%TO.CVal,4.7uF 10V 20\u0025*%
%TO.CLbN,Pixels-dice*%
%TO.CMnt,SMD*%
%TO.CRot,31*%
X129740000Y-77410000D03*
D11*
X130231785Y-76752848D02*
X130551109Y-77284294D01*
X129248215Y-78067152D01*
X128928891Y-77535706D01*
X130231785Y-76752848D01*
D12*
%TO.P,C18,1*%
X130151441Y-77162783D03*
D13*
%TO.P,C18,2*%
X129328559Y-77657217D03*
%TD*%
D10*
%TO.C,U4*%
%TO.CFtp,FPB1_1-4*%
%TO.CVal,ME6230*%
%TO.CLbN,Pixels-dice*%
%TO.CMnt,SMD*%
%TO.CRot,31*%
X129144131Y-76319989D03*
D11*
X129298944Y-75699066D02*
X129765054Y-76474802D01*
X128989318Y-76940912D01*
X128523208Y-76165176D01*
X129298944Y-75699066D01*
D12*
%TO.P,U4,1,VOUT*%
X129590097Y-76431179D03*
D13*
%TO.P,U4,*%
X129144131Y-76319989D03*
%TO.P,U4,2,VSS*%
X129032941Y-76765955D03*
%TO.P,U4,3,CE*%
X128698165Y-76208799D03*
%TO.P,U4,4,VIN*%
X129255321Y-75874023D03*
%TD*%
D10*
%TO.C,R9*%
%TO.CFtp,R_0201_0603Metric*%
%TO.CVal,100k 1\u0025*%
%TO.CLbN,Resistor_SMD*%
%TO.CMnt,SMD*%
%TO.CRot,-55*%
X130150000Y-71450000D03*
D11*
X130629299Y-71785819D02*
X130301636Y-72015250D01*
X129670701Y-71114181D01*
X129998364Y-70884750D01*
X130629299Y-71785819D01*
D12*
%TO.P,R9,1*%
X130333544Y-71712130D03*
D13*
%TO.P,R9,2*%
X129966456Y-71187870D03*
%TD*%
D10*
%TO.C,C4*%
%TO.CFtp,C_0402_1005Metric*%
%TO.CVal,4.7uF 10V 20\u0025*%
%TO.CLbN,Pixels-dice*%
%TO.CMnt,SMD*%
%TO.CRot,-148*%
X148450000Y-82650000D03*
D11*
X147969761Y-83315636D02*
X147641208Y-82789841D01*
X148930239Y-81984364D01*
X149258792Y-82510159D01*
X147969761Y-83315636D01*
D12*
%TO.P,C4,1*%
X148042936Y-82904358D03*
D13*
%TO.P,C4,2*%
X148857064Y-82395642D03*
%TD*%
D10*
%TO.C,J3*%
%TO.CFtp,Hongjie 10100 Solder Tabs*%
%TO.CVal,Conn_01x02*%
%TO.CLbN,Pixels-dice*%
%TO.CMnt,TH*%
%TO.CRot,180*%
X148577825Y-56028319D03*
D11*
X144827825Y-57134385D02*
X144827825Y-54928319D01*
X152327825Y-54928319D01*
X152327825Y-57134385D01*
X144827825Y-57134385D01*
D12*
%TO.P,J3,1,Pin_1*%
X146127825Y-56028319D03*
D13*
%TO.P,J3,2,Pin_2*%
X151027825Y-56034385D03*
%TD*%
D10*
%TO.C,D1*%
%TO.CFtp,SOT-363_SC-70-6*%
%TO.CVal,BAV99S*%
%TO.CLbN,Pixels-dice*%
%TO.CMnt,SMD*%
%TO.CRot,121*%
X130760000Y-79280000D03*
D11*
X129426234Y-78710610D02*
X130883423Y-77835042D01*
X132093766Y-79849390D01*
X130636577Y-80724958D01*
X129426234Y-78710610D01*
D12*
%TO.P,D1,1,A1*%
X129739305Y-78843327D03*
D13*
%TO.P,D1,2,K2*%
X130296462Y-78508548D03*
%TO.P,D1,3,K1A2*%
X130853628Y-78173774D03*
%TO.P,D1,4,A3*%
X131780695Y-79716673D03*
%TO.P,D1,5,K4*%
X131223538Y-80051452D03*
%TO.P,D1,6,K3A4*%
X130666372Y-80386226D03*
%TD*%
D10*
%TO.C,L2*%
%TO.CFtp,L_0402_1005Metric*%
%TO.CVal,15nH 100mA 5\u0025*%
%TO.CLbN,Inductor_SMD*%
%TO.CMnt,SMD*%
%TO.CRot,180*%
X144910000Y-76160000D03*
D11*
X144130001Y-76480001D02*
X144130001Y-75839999D01*
X145689999Y-75839999D01*
X145689999Y-76480001D01*
X144130001Y-76480001D01*
D12*
%TO.P,L2,1,1*%
X144425001Y-76159999D03*
D13*
%TO.P,L2,2,2*%
X145394999Y-76160001D03*
%TD*%
D10*
%TO.C,C1*%
%TO.CFtp,C_0402_1005Metric*%
%TO.CVal,4.7uF 10V 20\u0025*%
%TO.CLbN,Pixels-dice*%
%TO.CMnt,SMD*%
%TO.CRot,180*%
X146040000Y-74980000D03*
D11*
X145280000Y-75290001D02*
X145280000Y-74669999D01*
X146800000Y-74669999D01*
X146800000Y-75290001D01*
X145280000Y-75290001D01*
D12*
%TO.P,C1,1*%
X145560000Y-74980001D03*
D13*
%TO.P,C1,2*%
X146520000Y-74979999D03*
%TD*%
D10*
%TO.C,C21*%
%TO.CFtp,C_0201_0603Metric*%
%TO.CVal,10nF 25V 10\u0025*%
%TO.CLbN,Capacitor_SMD*%
%TO.CMnt,SMD*%
%TO.CRot,-90*%
X149530000Y-64840000D03*
D11*
X149730002Y-65390001D02*
X149329998Y-65390001D01*
X149329998Y-64289999D01*
X149730002Y-64289999D01*
X149730002Y-65390001D01*
D12*
%TO.P,C21,1*%
X149529998Y-65160001D03*
D13*
%TO.P,C21,2*%
X149530002Y-64519999D03*
%TD*%
D10*
%TO.C,R7*%
%TO.CFtp,R_0201_0603Metric*%
%TO.CVal,3.9M 1\u0025*%
%TO.CLbN,Resistor_SMD*%
%TO.CMnt,SMD*%
%TO.CRot,90*%
X147069998Y-64849997D03*
D11*
X146869996Y-64299998D02*
X147270000Y-64299998D01*
X147270000Y-65399996D01*
X146869996Y-65399996D01*
X146869996Y-64299998D01*
D12*
%TO.P,R7,1*%
X147069996Y-64529998D03*
D13*
%TO.P,R7,2*%
X147070000Y-65169996D03*
%TD*%
D10*
%TO.C,R2*%
%TO.CFtp,R_0201_0603Metric*%
%TO.CVal,3.9M 1\u0025*%
%TO.CLbN,Resistor_SMD*%
%TO.CMnt,SMD*%
%TO.CRot,90*%
X150180000Y-64840000D03*
D11*
X149979998Y-64289997D02*
X150380002Y-64289997D01*
X150380002Y-65390003D01*
X149979998Y-65390003D01*
X149979998Y-64289997D01*
D12*
%TO.P,R2,1*%
X150179998Y-64519997D03*
D13*
%TO.P,R2,2*%
X150180002Y-65160003D03*
%TD*%
D10*
%TO.C,R8*%
%TO.CFtp,R_0201_0603Metric*%
%TO.CVal,10M 1\u0025*%
%TO.CLbN,Resistor_SMD*%
%TO.CMnt,SMD*%
%TO.CRot,-90*%
X147639998Y-64849999D03*
D11*
X147839999Y-65400000D02*
X147439997Y-65400000D01*
X147439997Y-64299998D01*
X147839999Y-64299998D01*
X147839999Y-65400000D01*
D12*
%TO.P,R8,1*%
X147639999Y-65170000D03*
D13*
%TO.P,R8,2*%
X147639997Y-64529998D03*
%TD*%
D10*
%TO.C,R1*%
%TO.CFtp,R_0201_0603Metric*%
%TO.CVal,3.9M 1\u0025*%
%TO.CLbN,Resistor_SMD*%
%TO.CMnt,SMD*%
%TO.CRot,90*%
X148910000Y-64840003D03*
D11*
X148709999Y-64290001D02*
X149110001Y-64290001D01*
X149110001Y-65390005D01*
X148709999Y-65390005D01*
X148709999Y-64290001D01*
D12*
%TO.P,R1,1*%
X148909999Y-64520001D03*
D13*
%TO.P,R1,2*%
X148910001Y-65160005D03*
%TD*%
D10*
%TO.C,C22*%
%TO.CFtp,C_0201_0603Metric*%
%TO.CVal,10nF 25V 10\u0025*%
%TO.CLbN,Capacitor_SMD*%
%TO.CMnt,SMD*%
%TO.CRot,-90*%
X148220119Y-64840759D03*
D11*
X148420120Y-65390760D02*
X148020118Y-65390760D01*
X148020118Y-64290758D01*
X148420120Y-64290758D01*
X148420120Y-65390760D01*
D12*
%TO.P,C22,1*%
X148220120Y-65160760D03*
D13*
%TO.P,C22,2*%
X148220118Y-64520758D03*
%TD*%
D10*
%TO.C,Y1*%
%TO.CFtp,SX16Y032000B81T001*%
%TO.CVal,32MHz 40ppm*%
%TO.CLbN,Pixels-dice*%
%TO.CMnt,SMD*%
%TO.CRot,180*%
X149900000Y-75290001D03*
D11*
X149064999Y-75910002D02*
X149064999Y-74670000D01*
X150735001Y-74670000D01*
X150735001Y-75910002D01*
X149064999Y-75910002D01*
D12*
%TO.P,Y1,1,1*%
X149399999Y-74930002D03*
D13*
%TO.P,Y1,2,2*%
X150400000Y-74930000D03*
%TO.P,Y1,3,3*%
X150400001Y-75650000D03*
%TO.P,Y1,4,4*%
X149400000Y-75650002D03*
%TD*%
D10*
%TO.C,U2*%
%TO.CFtp,LGA-12_2x2mm_P0.5mm*%
%TO.CVal,SC7A20HTR*%
%TO.CLbN,Package_LGA*%
%TO.CMnt,SMD*%
%TO.CRot,-60*%
X136580000Y-70170000D03*
D11*
X137877727Y-70517725D02*
X136232275Y-71467727D01*
X135282273Y-69822275D01*
X136927725Y-68872273D01*
X137877727Y-70517725D01*
D12*
%TO.P,U2,1,ADDR*%
X137610768Y-70455345D03*
D13*
%TO.P,U2,2,SDA*%
X137177757Y-70705346D03*
%TO.P,U2,3,IO_VDD*%
X136744743Y-70955344D03*
%TO.P,U2,4,NC*%
X136311731Y-71205346D03*
%TO.P,U2,5,INT1*%
X136044654Y-70767757D03*
%TO.P,U2,6,INT2*%
X135794656Y-70334743D03*
%TO.P,U2,7,VDD*%
X135549232Y-69884655D03*
%TO.P,U2,8,GND*%
X135982243Y-69634654D03*
%TO.P,U2,9,GND*%
X136415257Y-69384656D03*
%TO.P,U2,10,CS*%
X136848269Y-69134654D03*
%TO.P,U2,11,NC*%
X137115346Y-69572243D03*
%TO.P,U2,12,SCL*%
X137365344Y-70005257D03*
%TD*%
D10*
%TO.C,L5*%
%TO.CFtp,0402_RF*%
%TO.CVal,3.9nH 5\u0025*%
%TO.CLbN,Pixels-dice*%
%TO.CMnt,SMD*%
%TO.CRot,165*%
X149600000Y-77140000D03*
D11*
X148868805Y-77202896D02*
X148998215Y-76719933D01*
X150331195Y-77077104D01*
X150201785Y-77560067D01*
X148868805Y-77202896D01*
D12*
%TO.P,L5,1,1*%
X149174992Y-77026119D03*
D13*
%TO.P,L5,2,2*%
X150025008Y-77253881D03*
%TD*%
D10*
%TO.C,R5*%
%TO.CFtp,R_0201_0603Metric*%
%TO.CVal,10k 1\u0025*%
%TO.CLbN,Resistor_SMD*%
%TO.CMnt,SMD*%
%TO.CRot,90*%
X127770000Y-66230000D03*
D11*
X127570000Y-65680000D02*
X127970000Y-65680000D01*
X127970000Y-66780000D01*
X127570000Y-66780000D01*
X127570000Y-65680000D01*
D12*
%TO.P,R5,1*%
X127770000Y-65910000D03*
D13*
%TO.P,R5,2*%
X127770000Y-66550000D03*
%TD*%
D10*
%TO.C,C19*%
%TO.CFtp,C_0805_2012Metric*%
%TO.CVal,12nF 50V 5\u0025 NP0*%
%TO.CLbN,Capacitor_SMD*%
%TO.CMnt,SMD*%
%TO.CRot,121*%
X132920000Y-81980000D03*
D11*
X131551748Y-81110511D02*
X132794642Y-80363705D01*
X134288252Y-82849489D01*
X133045358Y-83596295D01*
X131551748Y-81110511D01*
D12*
%TO.P,C19,1*%
X132430715Y-81165691D03*
D13*
%TO.P,C19,2*%
X133409285Y-82794309D03*
%TD*%
D10*
%TO.C,U10*%
%TO.CFtp,DFN1109-6*%
%TO.CVal,WAS3157D-6/TR*%
%TO.CLbN,Pixels-dice*%
%TO.CMnt,SMD*%
%TO.CRot,-145*%
X130980000Y-70820000D03*
D11*
X130799854Y-71434450D02*
X130340992Y-70779127D01*
X131160146Y-70205550D01*
X131619008Y-70860873D01*
X130799854Y-71434450D01*
D12*
%TO.P,U10,1,B0*%
X130508945Y-70844643D03*
D13*
%TO.P,U10,2,GND*%
X130836605Y-70615211D03*
%TO.P,U10,3,B1*%
X131164268Y-70385782D03*
%TO.P,U10,4,S*%
X131451055Y-70795357D03*
%TO.P,U10,5,VCC*%
X131123395Y-71024789D03*
%TO.P,U10,6,A*%
X130795732Y-71254218D03*
%TD*%
D10*
%TO.C,C15*%
%TO.CFtp,C_0603_1608Metric*%
%TO.CVal,22uF 10V 20\u0025*%
%TO.CLbN,Capacitor_SMD*%
%TO.CMnt,SMD*%
%TO.CRot,0*%
X148500000Y-53630000D03*
D11*
X149724999Y-53154997D02*
X149724999Y-54105003D01*
X147275001Y-54105003D01*
X147275001Y-53154997D01*
X149724999Y-53154997D01*
D12*
%TO.P,C15,1*%
X149274999Y-53630003D03*
D13*
%TO.P,C15,2*%
X147725001Y-53629997D03*
%TD*%
D10*
%TO.C,C6*%
%TO.CFtp,C_0201_0603Metric*%
%TO.CVal,0.1uF 10V 20\u0025*%
%TO.CLbN,Capacitor_SMD*%
%TO.CMnt,SMD*%
%TO.CRot,110*%
X150780000Y-78770000D03*
D11*
X150403949Y-78321572D02*
X150779828Y-78184764D01*
X151156051Y-79218428D01*
X150780172Y-79355236D01*
X150403949Y-78321572D01*
D12*
%TO.P,C6,1*%
X150670552Y-78469298D03*
D13*
%TO.P,C6,2*%
X150889448Y-79070702D03*
%TD*%
D10*
%TO.C,L3*%
%TO.CFtp,0402_RF*%
%TO.CVal,0 Ohm*%
%TO.CLbN,Pixels-dice*%
%TO.CMnt,SMD*%
%TO.CRot,-135*%
X152170000Y-76750000D03*
D11*
X151858875Y-77414681D02*
X151505319Y-77061125D01*
X152481125Y-76085319D01*
X152834681Y-76438875D01*
X151858875Y-77414681D01*
D12*
%TO.P,L3,1,1*%
X151858872Y-77061125D03*
D13*
%TO.P,L3,2,2*%
X152481128Y-76438875D03*
%TD*%
D10*
%TO.C,C23*%
%TO.CFtp,C_0201_0603Metric*%
%TO.CVal,0.1uF 10V 20\u0025*%
%TO.CLbN,Capacitor_SMD*%
%TO.CMnt,SMD*%
%TO.CRot,180*%
X149590000Y-54610000D03*
D11*
X149040000Y-54810000D02*
X149040000Y-54410000D01*
X150140000Y-54410000D01*
X150140000Y-54810000D01*
X149040000Y-54810000D01*
D12*
%TO.P,C23,1*%
X149270000Y-54610000D03*
D13*
%TO.P,C23,2*%
X149910000Y-54610000D03*
%TD*%
D10*
%TO.C,AE1*%
%TO.CFtp,CHIP_ANT*%
%TO.CVal,Antenna_Chip*%
%TO.CLbN,Pixels-dice*%
%TO.CMnt,SMD*%
%TO.CRot,-155*%
X154251549Y-74999277D03*
D11*
X155132453Y-78781342D02*
X153357455Y-74974848D01*
X154807549Y-74298659D01*
X156582546Y-78105152D01*
X155132453Y-78781342D01*
D12*
%TO.P,AE1,1,FEED*%
X154251549Y-74999277D03*
D13*
%TO.P,AE1,2,PCB_Trace*%
X155688452Y-78080724D03*
%TD*%
D10*
%TO.C,C12*%
%TO.CFtp,0402_RF*%
%TO.CVal,DNP*%
%TO.CLbN,Pixels-dice*%
%TO.CMnt,SMD*%
%TO.CRot,-90*%
X151090000Y-76890000D03*
D11*
X151340001Y-77579998D02*
X150839999Y-77579998D01*
X150839999Y-76200002D01*
X151340001Y-76200002D01*
X151340001Y-77579998D01*
D12*
%TO.P,C12,1*%
X151090001Y-77329998D03*
D13*
%TO.P,C12,2*%
X151089999Y-76450002D03*
%TD*%
D10*
%TO.C,TH1*%
%TO.CFtp,R_0402_1005Metric*%
%TO.CVal,NTC 100k @ 25C*%
%TO.CLbN,Pixels-dice*%
%TO.CMnt,SMD*%
%TO.CRot,-145*%
X129950000Y-70290000D03*
D11*
X129494606Y-70999518D02*
X129127517Y-70475261D01*
X130405394Y-69580482D01*
X130772483Y-70104739D01*
X129494606Y-70999518D01*
D12*
%TO.P,TH1,1*%
X129532232Y-70582524D03*
D13*
%TO.P,TH1,2*%
X130367768Y-69997476D03*
%TD*%
D10*
%TO.C,U3*%
%TO.CFtp,SOT-23*%
%TO.CVal,PJ75BL50SA*%
%TO.CLbN,Pixels-dice*%
%TO.CMnt,SMD*%
%TO.CRot,90*%
X149110004Y-58289991D03*
D11*
X147760007Y-56839991D02*
X150460000Y-56839991D01*
X150460000Y-59740000D01*
X147760007Y-59740000D01*
X147760007Y-56839991D01*
D12*
%TO.P,U3,1,VSS*%
X150060000Y-59290000D03*
D13*
%TO.P,U3,2,VOUT*%
X148160007Y-59289996D03*
%TO.P,U3,3,VIN*%
X149110004Y-57289991D03*
%TD*%
D10*
%TO.C,U7*%
%TO.CFtp,UDFN-4-1EP_1x1mm_P0.65mm_EP0.48x0.48mm*%
%TO.CVal,DS6101*%
%TO.CLbN,Package_DFN_QFN*%
%TO.CMnt,SMD*%
%TO.CRot,0*%
X148609999Y-55814999D03*
D11*
X149260000Y-55364995D02*
X149260000Y-56265003D01*
X147959998Y-56265003D01*
X147959998Y-55364995D01*
X149260000Y-55364995D01*
D12*
%TO.P,U7,1,BAT*%
X149149996Y-55489998D03*
D13*
%TO.P,U7,2,VSS*%
X149150000Y-56140003D03*
%TO.P,U7,3,SM*%
X148070002Y-56140000D03*
%TO.P,U7,4,EB-*%
X148069998Y-55489995D03*
%TO.P,U7,5,PAD*%
X148609999Y-55814999D03*
%TD*%
D10*
%TO.C,R11*%
%TO.CFtp,R_0201_0603Metric*%
%TO.CVal,3.9k 1\u0025*%
%TO.CLbN,Resistor_SMD*%
%TO.CMnt,SMD*%
%TO.CRot,-150*%
X137280000Y-71510000D03*
D11*
X136903686Y-71958205D02*
X136703686Y-71611795D01*
X137656314Y-71061795D01*
X137856314Y-71408205D01*
X136903686Y-71958205D01*
D12*
%TO.P,R11,1*%
X137002872Y-71670000D03*
D13*
%TO.P,R11,2*%
X137557128Y-71350000D03*
%TD*%
D10*
%TO.C,R6*%
%TO.CFtp,R_0201_0603Metric*%
%TO.CVal,3.9k 1\u0025*%
%TO.CLbN,Resistor_SMD*%
%TO.CMnt,SMD*%
%TO.CRot,180*%
X147870000Y-60130000D03*
D11*
X147320000Y-60330002D02*
X147320000Y-59929998D01*
X148420000Y-59929998D01*
X148420000Y-60330002D01*
X147320000Y-60330002D01*
D12*
%TO.P,R6,1*%
X147550000Y-60130002D03*
D13*
%TO.P,R6,2*%
X148190000Y-60129998D03*
%TD*%
D10*
%TO.C,J1*%
%TO.CFtp,FPC_14*%
%TO.CVal,Conn_01x14*%
%TO.CLbN,Pixels-dice*%
%TO.CMnt,SMD*%
%TO.CRot,-120*%
X162020000Y-95890000D03*
D11*
X162811025Y-96519904D02*
X161078974Y-95519903D01*
X164478974Y-89630931D01*
X166211025Y-90630931D01*
X162811025Y-96519904D01*
D12*
%TO.P,J1,1,Pin_1*%
X162020000Y-95890000D03*
D13*
%TO.P,J1,2,Pin_2*%
X162269999Y-95456988D03*
%TO.P,J1,3,Pin_3*%
X162520000Y-95023975D03*
%TO.P,J1,4,Pin_4*%
X162770000Y-94590962D03*
%TO.P,J1,5,Pin_5*%
X163020001Y-94157947D03*
%TO.P,J1,6,Pin_6*%
X163270000Y-93724936D03*
%TO.P,J1,7,Pin_7*%
X163520000Y-93291924D03*
%TO.P,J1,8,Pin_8*%
X163770000Y-92858911D03*
%TO.P,J1,9,Pin_9*%
X164020000Y-92425898D03*
%TO.P,J1,10,Pin_10*%
X164270000Y-91992884D03*
%TO.P,J1,11,Pin_11*%
X164520000Y-91559873D03*
%TO.P,J1,12,Pin_12*%
X164770000Y-91126860D03*
%TO.P,J1,13,Pin_13*%
X165020000Y-90693848D03*
%TO.P,J1,14,Pin_14*%
X165270000Y-90260835D03*
%TD*%
D10*
%TO.C,Q1*%
%TO.CFtp,D_0603_1608Metric*%
%TO.CVal,ZSPT-Z1608C-06F-Z4*%
%TO.CLbN,Diode_SMD*%
%TO.CMnt,SMD*%
%TO.CRot,0*%
X126010000Y-67230002D03*
D11*
X127235000Y-66755002D02*
X127235000Y-67705002D01*
X124785000Y-67705002D01*
X124785000Y-66755002D01*
X127235000Y-66755002D01*
D12*
%TO.P,Q1,1,C*%
X126797500Y-67230002D03*
D13*
%TO.P,Q1,2,E*%
X125222500Y-67230002D03*
%TD*%
D10*
%TO.C,R12*%
%TO.CFtp,R_0201_0603Metric*%
%TO.CVal,510R 1\u0025*%
%TO.CLbN,Resistor_SMD*%
%TO.CMnt,SMD*%
%TO.CRot,180*%
X147920000Y-54610000D03*
D11*
X147370000Y-54810000D02*
X147370000Y-54410000D01*
X148470000Y-54410000D01*
X148470000Y-54810000D01*
X147370000Y-54810000D01*
D12*
%TO.P,R12,1*%
X147600000Y-54610000D03*
D13*
%TO.P,R12,2*%
X148240000Y-54610000D03*
%TD*%
D10*
%TO.C,U9*%
%TO.CFtp,SOT-553*%
%TO.CVal,XT4051*%
%TO.CLbN,Package_TO_SOT_SMD*%
%TO.CMnt,SMD*%
%TO.CRot,90*%
X146870000Y-58357500D03*
D11*
X146195001Y-57307500D02*
X147544999Y-57307500D01*
X147544999Y-59407500D01*
X146195001Y-59407500D01*
X146195001Y-57307500D01*
D12*
%TO.P,U9,1,BAT*%
X146370001Y-57645000D03*
D13*
%TO.P,U9,2,GND*%
X146869998Y-57645001D03*
%TO.P,U9,3,CHRG*%
X147369999Y-57645001D03*
%TO.P,U9,4,PROG*%
X147369999Y-59070000D03*
%TO.P,U9,5,VCC*%
X146370001Y-59069999D03*
%TD*%
D10*
%TO.C,C11*%
%TO.CFtp,0402_RF*%
%TO.CVal,DNP*%
%TO.CLbN,Pixels-dice*%
%TO.CMnt,SMD*%
%TO.CRot,-40*%
X152750000Y-75570000D03*
D11*
X153439271Y-75822011D02*
X153117873Y-76205038D01*
X152060729Y-75317989D01*
X152382127Y-74934962D01*
X153439271Y-75822011D01*
D12*
%TO.P,C11,1*%
X153087063Y-75852826D03*
D13*
%TO.P,C11,2*%
X152412937Y-75287174D03*
%TD*%
D10*
%TO.C,C14*%
%TO.CFtp,C_0201_0603Metric*%
%TO.CVal,0.1uF 10V 20\u0025*%
%TO.CLbN,Capacitor_SMD*%
%TO.CMnt,SMD*%
%TO.CRot,-90*%
X109400000Y-56490000D03*
D11*
X109600001Y-57040001D02*
X109199999Y-57040001D01*
X109199999Y-55939999D01*
X109600001Y-55939999D01*
X109600001Y-57040001D01*
D12*
%TO.P,C14,1*%
X109399999Y-56810001D03*
D13*
%TO.P,C14,2*%
X109400001Y-56169999D03*
%TD*%
D10*
%TO.C,J2*%
%TO.CFtp,FPC-POGO-4*%
%TO.CVal,Conn_01x04*%
%TO.CLbN,Pixels-dice*%
%TO.CMnt,SMD*%
%TO.CRot,150*%
X157782328Y-89604460D03*
D11*
X153481457Y-88333787D02*
X154531457Y-86515133D01*
X162083199Y-90875133D01*
X161033199Y-92693787D01*
X153481457Y-88333787D01*
D12*
%TO.P,J2,1,Pin_1*%
X154482771Y-87699460D03*
D13*
%TO.P,J2,2,Pin_2*%
X156682476Y-88969460D03*
%TO.P,J2,3,Pin_3*%
X158882180Y-90239460D03*
%TO.P,J2,4,Pin_4*%
X161081885Y-91509460D03*
%TD*%
D10*
%TO.C,C13*%
%TO.CFtp,C_0402_1005Metric*%
%TO.CVal,4.7uF 25V 20\u0025*%
%TO.CLbN,Capacitor_SMD*%
%TO.CMnt,SMD*%
%TO.CRot,90*%
X151200000Y-58300000D03*
D11*
X150890000Y-57539999D02*
X151510000Y-57539999D01*
X151510000Y-59060001D01*
X150890000Y-59060001D01*
X150890000Y-57539999D01*
D12*
%TO.P,C13,1*%
X151200000Y-57819999D03*
D13*
%TO.P,C13,2*%
X151200000Y-58780001D03*
%TD*%
D10*
%TO.C,R4*%
%TO.CFtp,R_0201_0603Metric*%
%TO.CVal,10k 1\u0025*%
%TO.CLbN,Resistor_SMD*%
%TO.CMnt,SMD*%
%TO.CRot,0*%
X148539999Y-52590001D03*
D11*
X149089997Y-52389998D02*
X149089997Y-52790004D01*
X147990001Y-52790004D01*
X147990001Y-52389998D01*
X149089997Y-52389998D01*
D12*
%TO.P,R4,1*%
X148859997Y-52590004D03*
D13*
%TO.P,R4,2*%
X148220001Y-52589998D03*
%TD*%
M02*
