  0
SECTION
  2
HEADER
  9
$ANGBASE
  50
0.0
  9
$ANGDIR
  70
1
  9
$MEASUREMENT
  70
1
  0
ENDSEC
  0
SECTION
  2
TABLES
  0
TABLE
  2
LTYPE
  70
4
  0
LTYPE
  5
40F
  2
CONTINUOUS
  70
0
  3
Solid line
  72
65
  73
0
  40
0.0
  0
LTYPE
  5
410
  2
DASHDOT
 70
0
  3
Dash Dot ____ _ ____ _
 72
65
 73
4
 40
2.0
 49
1.25
 49
-0.25
 49
0.25
 49
-0.25
  0
LTYPE
  5
411
  2
DASHED
 70
0
  3
Dashed __ __ __ __ __
 72
65
 73
2
 40
0.75
 49
0.5
 49
-0.25
  0
LTYPE
  5
43B
  2
DOTTED
 70
0
  3
Dotted .  .  .  .
 72
65
 73
2
 40
0.2
 49
0.0
 49
-0.2
  0
ENDTAB
  0
TABLE
  2
STYLE
  70
4
  0
STYLE
  2
KICAD
  70
0
  40
0
  41
1
  42
1
  50
0
  71
0
  3
isocp.shx
  0
STYLE
  2
KICADB
  70
0
  40
0
  41
1
  42
1
  50
0
  71
0
  3
isocp.shx
  0
STYLE
  2
KICADI
  70
0
  40
0
  41
1
  42
1
  50
15
  71
0
  3
isocp.shx
  0
STYLE
  2
KICADBI
  70
0
  40
0
  41
1
  42
1
  50
15
  71
0
  3
isocp.shx
  0
ENDTAB
  0
TABLE
  2
LAYER
  70
1
  0
LAYER
  2
BLACK
  70
0
  62
7
  6
CONTINUOUS
  0
ENDTAB
  0
ENDSEC
  0
SECTION
  2
ENTITIES
0
LINE
8
BLACK
6
CONTINUOUS
10
167.0548909999999978
20
-26.1408539999999974
11
166.3048909999999978
21
-27.4398920000000004
0
ARC
8
BLACK
10
155.5952999999999804
20
-69.33659999999999
40
0.5000120014439653
50
0.00137520
51
90.00435437
0
LINE
8
BLACK
6
CONTINUOUS
10
20.5952619999999982
20
-38.836587999999999
11
19.5952619999999982
21
-38.836587999999999
0
ARC
8
BLACK
10
186.6272999999999911
20
-70.33659999999999
40
0.4999880014440346
50
-180.00137499
51
-90.00435458
0
LINE
8
BLACK
6
CONTINUOUS
10
136.8268139999999846
20
-104.5174119999999931
11
135.960788000000008
21
-105.0174119999999931
0
LINE
8
BLACK
6
CONTINUOUS
10
255.6218779999999811
20
-27.6229049999999994
11
246.3768019999999979
21
-22.2852579999999989
0
LINE
8
BLACK
6
CONTINUOUS
10
121.2598259999999897
20
-72.5353609999999946
11
122.0098259999999897
21
-73.8343989999999906
0
ARC
8
BLACK
10
23.0950999999999986
20
-100.3365000000000009
40
0.5001620077414917
50
-89.98143943
51
-0.01008079
0
LINE
8
BLACK
6
CONTINUOUS
10
53.0952619999999982
20
-100.8365879999999919
11
51.5952619999999982
21
-100.8365879999999919
0
ARC
8
BLACK
10
95.5951999999999913
20
-60.6611999999999938
40
0.5000620086479276
50
-89.99289664
51
-0.01065569
0
LINE
8
BLACK
6
CONTINUOUS
10
226.8588139999999953
20
-104.5174119999999931
11
225.9927879999999902
21
-105.0174119999999931
0
ARC
8
BLACK
10
225.871799999999979
20
-27.1896999999999984
40
0.5001638243065966
50
-119.98124626
51
-30.01456300
0
ARC
8
BLACK
10
256.2427999999999884
20
-45.4503999999999948
40
0.5000222847043919
50
-239.99739374
51
-149.99816644
0
ARC
8
BLACK
10
218.7297999999999831
20
-109.7881
40
0.5000430072003808
50
30.00488173
51
120.00205031
0
LINE
8
BLACK
6
CONTINUOUS
10
174.1438399999999831
20
-50.4371809999999954
11
174.6438440000000014
21
-49.5711489999999984
0
LINE
8
BLACK
6
CONTINUOUS
10
106.2598259999999897
20
-42.5353609999999946
11
107.0098259999999897
21
-43.8343989999999977
0
LINE
8
BLACK
6
CONTINUOUS
10
98.4477629999999948
20
-109.3550589999999971
11
97.5817369999999897
21
-109.8550589999999971
0
LINE
8
BLACK
6
CONTINUOUS
10
181.8268139999999846
20
-74.5174119999999931
11
180.9607879999999795
21
-75.0174119999999931
0
LINE
8
BLACK
6
CONTINUOUS
10
226.2918259999999862
20
-42.5353609999999946
11
227.0418259999999862
21
-43.8343989999999977
0
LINE
8
BLACK
6
CONTINUOUS
10
126.1617889999999989
20
-81.6022449999999964
11
126.9117889999999989
21
-80.3032070000000004
0
LINE
8
BLACK
6
CONTINUOUS
10
173.6272620000000018
20
-89.6612930000000006
11
173.6272620000000018
21
-100.3365879999999919
0
LINE
8
BLACK
6
CONTINUOUS
10
159.6627679999999998
20
-50.404083
11
159.1627759999999796
21
-49.5380719999999997
0
LINE
8
BLACK
6
CONTINUOUS
10
113.0952619999999911
20
-40.836587999999999
11
111.5952619999999911
21
-40.836587999999999
0
LINE
8
BLACK
6
CONTINUOUS
10
19.0952619999999982
20
-98.3365879999999919
11
19.0952619999999982
21
-91.6612930000000006
0
LINE
8
BLACK
6
CONTINUOUS
10
19.5952619999999982
20
-31.161292999999997
11
20.5952619999999982
21
-31.161292999999997
0
ARC
8
BLACK
10
23.0952999999999982
20
-89.6612999999999971
40
0.5000070014439798
50
0.00080220
51
90.00435442
0
LINE
8
BLACK
6
CONTINUOUS
10
219.1758399999999938
20
-20.4371809999999989
11
219.6758439999999837
21
-19.5711489999999984
0
ARC
8
BLACK
10
135.8445999999999856
20
-46.8163999999999945
40
0.5001163684103931
50
-59.98697356
51
29.98383779
0
LINE
8
BLACK
6
CONTINUOUS
10
231.6272620000000018
20
-29.161292999999997
11
233.1272620000000018
21
-29.161292999999997
0
LINE
8
BLACK
6
CONTINUOUS
10
109.5952619999999911
20
-31.161292999999997
11
110.5952619999999911
21
-31.161292999999997
0
ARC
8
BLACK
10
241.6218999999999824
20
-55.8907999999999987
40
0.4999424928579286
50
-30.00660224
51
59.99910627
0
ARC
8
BLACK
10
218.1272999999999911
20
-59.6612999999999971
40
0.5000070014439798
50
0.00080220
51
90.00435442
0
ARC
8
BLACK
10
61.5899000000000001
20
-55.8907999999999987
40
0.4999424928579286
50
-30.00660224
51
59.99910627
0
LINE
8
BLACK
6
CONTINUOUS
10
214.6272620000000018
20
-61.1612930000000006
11
215.6272620000000018
21
-61.1612930000000006
0
ARC
8
BLACK
10
235.095799999999997
20
-80.154200000000003
40
0.4998888007277218
50
-150.01271775
51
-59.99555304
0
ARC
8
BLACK
10
66.5947999999999922
20
-81.8521999999999963
40
0.5000382299064742
50
-209.99563154
51
-119.99720634
0
ARC
8
BLACK
10
90.8579000000000008
20
-53.1587999999999994
40
0.4999527355460713
50
-30.00538775
51
60.00692966
0
LINE
8
BLACK
6
CONTINUOUS
10
159.1438399999999831
20
-80.4371809999999954
11
159.6438440000000014
21
-79.5711489999999912
0
ARC
8
BLACK
10
210.8588000000000022
20
-72.7852000000000032
40
0.4998538327351307
50
29.98325825
51
120.00782048
0
LINE
8
BLACK
6
CONTINUOUS
10
126.8987249999999989
20
-109.6720459999999946
11
126.1487249999999989
21
-108.3730079999999987
0
ARC
8
BLACK
10
135.8267999999999915
20
-102.785199999999989
40
0.4998538327351307
50
29.98325825
51
120.00782048
0
LINE
8
BLACK
6
CONTINUOUS
10
231.1272620000000018
20
-100.3365879999999919
11
231.1272620000000018
21
-99.3365879999999919
0
ARC
8
BLACK
10
156.5952000000000055
20
-59.6611999999999938
40
0.4999380086500725
50
-270.00710600
51
-179.98934166
0
LINE
8
BLACK
6
CONTINUOUS
10
173.6272620000000018
20
-29.661292999999997
11
173.6272620000000018
21
-40.336587999999999
0
LINE
8
BLACK
6
CONTINUOUS
10
60.5898779999999988
20
-57.6229049999999958
11
51.3448019999999943
21
-52.2852579999999989
0
LINE
8
BLACK
6
CONTINUOUS
10
246.1937889999999811
20
-81.6022449999999964
11
246.9437889999999811
21
-80.3032070000000004
0
LINE
8
BLACK
6
CONTINUOUS
10
105.5898779999999988
20
-27.6229049999999994
11
96.3448020000000014
21
-22.2852579999999989
0
LINE
8
BLACK
6
CONTINUOUS
10
127.5948019999999872
20
-80.1201939999999979
11
128.4608269999999948
21
-80.6201939999999979
0
LINE
8
BLACK
6
CONTINUOUS
10
66.3317370000000039
20
-107.6899959999999936
11
75.5768139999999988
21
-102.3523479999999921
0
ARC
8
BLACK
10
76.2107999999999919
20
-105.4504000000000019
40
0.5000222847043919
50
-239.99739374
51
-149.99816644
0
ARC
8
BLACK
10
109.5952999999999946
20
-38.3365999999999971
40
0.4999880014440346
50
-180.00137499
51
-90.00435458
0
LINE
8
BLACK
6
CONTINUOUS
10
156.1937889999999811
20
-21.6022449999999999
11
156.9437889999999811
21
-20.3032070000000004
0
ARC
8
BLACK
10
231.6271999999999878
20
-89.6611999999999938
40
0.4999380086500725
50
-270.00710600
51
-179.98934166
0
ARC
8
BLACK
10
225.8765999999999963
20
-106.8164000000000016
40
0.5001163684103931
50
-59.98697356
51
29.98383779
0
LINE
8
BLACK
6
CONTINUOUS
10
256.0058530000000019
20
-84.9578410000000019
11
256.8718779999999811
21
-85.4578410000000019
0
ARC
8
BLACK
10
121.2107999999999919
20
-75.4504000000000019
40
0.5000222847043919
50
-239.99739374
51
-149.99816644
0
ARC
8
BLACK
10
215.6272999999999911
20
-69.33659999999999
40
0.5000120014439653
50
0.00137520
51
90.00435437
0
LINE
8
BLACK
6
CONTINUOUS
10
154.0952619999999911
20
-68.3365879999999919
11
154.0952619999999911
21
-61.6612930000000006
0
LINE
8
BLACK
6
CONTINUOUS
10
199.1272620000000018
20
-38.336587999999999
11
199.1272620000000018
21
-31.661292999999997
0
ARC
8
BLACK
10
46.5899000000000001
20
-25.8907999999999987
40
0.4999424928579286
50
-30.00660224
51
59.99910627
0
ARC
8
BLACK
10
50.5952999999999946
20
-99.33659999999999
40
0.5000120014439653
50
0.00137520
51
90.00435437
0
LINE
8
BLACK
6
CONTINUOUS
10
81.0952619999999911
20
-100.3365879999999919
11
81.0952619999999911
21
-99.3365879999999919
0
LINE
8
BLACK
6
CONTINUOUS
10
91.0947689999999994
20
-77.2494779999999963
11
85.3137779999999992
21
-80.587097
0
LINE
8
BLACK
6
CONTINUOUS
10
75.7777760000000029
20
-45.7004249999999956
11
76.2777839999999969
21
-46.5664639999999963
0
LINE
8
BLACK
6
CONTINUOUS
10
201.3637369999999862
20
-77.6899959999999936
11
210.6088139999999953
21
-72.3523479999999921
0
ARC
8
BLACK
10
140.6271999999999878
20
-30.6611999999999973
40
0.5000620086479276
50
-89.99289664
51
-0.01065569
0
LINE
8
BLACK
6
CONTINUOUS
10
45.5898779999999988
20
-87.6229050000000029
11
36.3448020000000014
21
-82.2852579999999989
0
LINE
8
BLACK
6
CONTINUOUS
10
218.6272620000000018
20
-59.6612930000000006
11
218.6272620000000018
21
-70.3365879999999919
0
LINE
8
BLACK
6
CONTINUOUS
10
210.8097759999999994
20
-75.7004249999999956
11
211.3097839999999792
21
-76.5664639999999963
0
LINE
8
BLACK
6
CONTINUOUS
10
271.3228359999999952
20
-53.4088099999999955
11
270.8228399999999851
21
-54.2748289999999969
0
LINE
8
BLACK
6
CONTINUOUS
10
227.0548909999999978
20
-86.1408539999999903
11
226.3048909999999978
21
-87.4398920000000004
0
LINE
8
BLACK
6
CONTINUOUS
10
231.1272620000000018
20
-90.6612930000000006
11
231.1272620000000018
21
-89.6612930000000006
0
LINE
8
BLACK
6
CONTINUOUS
10
246.6272620000000018
20
-59.1612930000000006
11
248.1272620000000018
21
-59.1612930000000006
0
ARC
8
BLACK
10
60.8267999999999986
20
-72.7852000000000032
40
0.4998538327351307
50
29.98325825
51
120.00782048
0
LINE
8
BLACK
6
CONTINUOUS
10
216.1937889999999811
20
-81.6022449999999964
11
216.9437889999999811
21
-80.3032070000000004
0
ARC
8
BLACK
10
210.8765999999999963
20
-76.8164000000000016
40
0.5001163684103931
50
-59.98697356
51
29.98383779
0
ARC
8
BLACK
10
113.0952999999999946
20
-89.6612999999999971
40
0.5000070014439798
50
0.00080220
51
90.00435442
0
ARC
8
BLACK
10
53.0952999999999946
20
-89.6612999999999971
40
0.5000070014439798
50
0.00080220
51
90.00435442
0
ARC
8
BLACK
10
49.5951999999999984
20
-31.6611999999999973
40
0.4999380086500725
50
-270.00710600
51
-179.98934166
0
LINE
8
BLACK
6
CONTINUOUS
10
249.1758399999999938
20
-20.4371809999999989
11
249.6758439999999837
21
-19.5711489999999984
0
LINE
8
BLACK
6
CONTINUOUS
10
156.5952619999999911
20
-59.1612930000000006
11
158.0952619999999911
21
-59.1612930000000006
0
ARC
8
BLACK
10
240.8765999999999963
20
-76.8164000000000016
40
0.5001163684103931
50
-59.98697356
51
29.98383779
0
ARC
8
BLACK
10
53.710799999999999
20
-50.1869999999999976
40
0.5001141613281912
50
-119.98693667
51
-30.01639449
0
ARC
8
BLACK
10
166.2108000000000061
20
-105.4504000000000019
40
0.5000222847043919
50
-239.99739374
51
-149.99816644
0
LINE
8
BLACK
6
CONTINUOUS
10
97.5948020000000014
20
-80.1201939999999979
11
98.4608269999999948
21
-80.6201939999999979
0
ARC
8
BLACK
10
98.0952999999999946
20
-59.6612999999999971
40
0.5000070014439798
50
0.00080220
51
90.00435442
0
LINE
8
BLACK
6
CONTINUOUS
10
141.1272620000000018
20
-30.661292999999997
11
141.1272620000000018
21
-29.661292999999997
0
CIRCLE
8
BLACK
10
95.1679999999999922
20
-95.
40
2.
0
LINE
8
BLACK
6
CONTINUOUS
10
21.0952619999999982
20
-30.661292999999997
11
21.0952619999999982
21
-29.661292999999997
0
ARC
8
BLACK
10
158.7427999999999884
20
-20.1869999999999976
40
0.5001141613281912
50
-119.98693667
51
-30.01639449
0
ARC
8
BLACK
10
46.2239999999999966
20
-84.524799999999999
40
0.5000980196821418
50
-209.98868506
51
-120.01296426
0
LINE
8
BLACK
6
CONTINUOUS
10
76.2908359999999988
20
-23.408809999999999
11
75.7908400000000029
21
-24.2748290000000004
0
ARC
8
BLACK
10
225.8588000000000022
20
-102.785199999999989
40
0.4998538327351307
50
29.98325825
51
120.00782048
0
ARC
8
BLACK
10
150.8445999999999856
20
-76.8164000000000016
40
0.5001163684103931
50
-59.98697356
51
29.98383779
0
LINE
8
BLACK
6
CONTINUOUS
10
51.0952619999999982
20
-100.3365879999999919
11
51.0952619999999982
21
-99.3365879999999919
0
ARC
8
BLACK
10
158.7297999999999831
20
-49.7881
40
0.5000430072003808
50
30.00488173
51
120.00205031
0
LINE
8
BLACK
6
CONTINUOUS
10
137.0228909999999871
20
-86.1408539999999903
11
136.2728909999999871
21
-87.4398920000000004
0
LINE
8
BLACK
6
CONTINUOUS
10
81.3317369999999897
20
-77.6899959999999936
11
90.5768139999999988
21
-72.3523479999999921
0
ARC
8
BLACK
10
128.6978000000000009
20
-109.7881
40
0.5000430072003808
50
30.00488173
51
120.00205031
0
ARC
8
BLACK
10
233.7297999999999831
20
-79.7881
40
0.5000430072003808
50
30.00488173
51
120.00205031
0
ARC
8
BLACK
10
91.2239999999999895
20
-54.524799999999999
40
0.5000980196821418
50
-209.98868506
51
-120.01296426
0
ARC
8
BLACK
10
40.0638000000000005
20
-50.1541999999999959
40
0.4998888007277218
50
-150.01271775
51
-59.99555304
0
LINE
8
BLACK
6
CONTINUOUS
10
201.1937889999999811
20
-51.6022449999999964
11
201.9437889999999811
21
-50.3032070000000004
0
LINE
8
BLACK
6
CONTINUOUS
10
150.7777759999999887
20
-75.7004249999999956
11
151.2777839999999969
21
-76.5664639999999963
0
ARC
8
BLACK
10
150.8579000000000008
20
-53.1587999999999994
40
0.4999527355460713
50
-30.00538775
51
60.00692966
0
ARC
8
BLACK
10
158.0952999999999804
20
-59.6612999999999971
40
0.5000070014439798
50
0.00080220
51
90.00435442
0
ARC
8
BLACK
10
220.1088999999999771
20
-19.8213000000000008
40
0.5001130091659284
50
60.01277670
51
149.98749850
0
ARC
8
BLACK
10
226.2427999999999884
20
-105.4504000000000019
40
0.5000222847043919
50
-239.99739374
51
-149.99816644
0
ARC
8
BLACK
10
205.095799999999997
20
-80.154200000000003
40
0.4998888007277218
50
-150.01271775
51
-59.99555304
0
ARC
8
BLACK
10
255.871799999999979
20
-87.189700000000002
40
0.5001638243065966
50
-119.98124626
51
-30.01456300
0
ARC
8
BLACK
10
110.5952999999999946
20
-39.3365999999999971
40
0.5000120014439653
50
0.00137520
51
90.00435437
0
LINE
8
BLACK
6
CONTINUOUS
10
171.3317370000000039
20
-77.6899959999999936
11
180.5768139999999846
21
-72.3523479999999921
0
LINE
8
BLACK
6
CONTINUOUS
10
263.4797629999999913
20
-79.3550589999999971
11
262.6137370000000146
21
-79.8550589999999971
0
LINE
8
BLACK
6
CONTINUOUS
10
54.6307679999999962
20
-80.404083
11
54.1307759999999973
21
-79.5380719999999997
0
LINE
8
BLACK
6
CONTINUOUS
10
234.1758399999999938
20
-50.4371809999999954
11
234.6758439999999837
21
-49.5711489999999984
0
LINE
8
BLACK
6
CONTINUOUS
10
113.0952619999999911
20
-100.8365879999999919
11
111.5952619999999911
21
-100.8365879999999919
0
ARC
8
BLACK
10
79.5952999999999946
20
-98.33659999999999
40
0.4999880014440346
50
-180.00137499
51
-90.00435458
0
LINE
8
BLACK
6
CONTINUOUS
10
216.1272620000000018
20
-70.3365879999999919
11
216.1272620000000018
21
-69.3365879999999919
0
ARC
8
BLACK
10
220.1088999999999771
20
-79.8212999999999937
40
0.5001130091659284
50
60.01277670
51
149.98749850
0
ARC
8
BLACK
10
203.1270999999999844
20
-40.3365000000000009
40
0.5001620077414917
50
-89.98143943
51
-0.01008079
0
LINE
8
BLACK
6
CONTINUOUS
10
68.4477629999999948
20
-49.3550589999999971
11
67.5817370000000039
21
-49.8550589999999971
0
ARC
8
BLACK
10
46.210799999999999
20
-105.4504000000000019
40
0.5000222847043919
50
-239.99739374
51
-149.99816644
0
ARC
8
BLACK
10
226.6085999999999956
20
-44.0842999999999989
40
0.5001352585821159
50
-59.98445817
51
29.97796020
0
LINE
8
BLACK
6
CONTINUOUS
10
249.6627679999999998
20
-50.404083
11
249.1627759999999796
21
-49.5380719999999997
0
ARC
8
BLACK
10
76.2239999999999895
20
-84.524799999999999
40
0.5000980196821418
50
-209.98868506
51
-120.01296426
0
LINE
8
BLACK
6
CONTINUOUS
10
248.6272620000000018
20
-59.6612930000000006
11
248.6272620000000018
21
-70.3365879999999919
0
ARC
8
BLACK
10
226.2427999999999884
20
-45.4503999999999948
40
0.5000222847043919
50
-239.99739374
51
-149.99816644
0
ARC
8
BLACK
10
173.6978000000000009
20
-79.7881
40
0.5000430072003808
50
30.00488173
51
120.00205031
0
LINE
8
BLACK
6
CONTINUOUS
10
55.3268579999999943
20
-49.3881370000000004
11
61.1078239999999937
21
-52.7257979999999975
0
ARC
8
BLACK
10
226.2560000000000002
20
-84.524799999999999
40
0.5000980196821418
50
-209.98868506
51
-120.01296426
0
LINE
8
BLACK
6
CONTINUOUS
10
68.5952619999999911
20
-59.6612930000000006
11
68.5952619999999911
21
-70.3365879999999919
0
LINE
8
BLACK
6
CONTINUOUS
10
83.0952619999999911
20
-100.8365879999999919
11
81.5952619999999911
21
-100.8365879999999919
0
ARC
8
BLACK
10
184.6271999999999878
20
-61.6611999999999938
40
0.4999380086500725
50
-270.00710600
51
-179.98934166
0
LINE
8
BLACK
6
CONTINUOUS
10
173.1272620000000018
20
-100.8365879999999919
11
171.6272620000000018
21
-100.8365879999999919
0
ARC
8
BLACK
10
50.5951999999999984
20
-90.6611999999999938
40
0.5000620086479276
50
-89.99289664
51
-0.01065569
0
LINE
8
BLACK
6
CONTINUOUS
10
181.0947689999999852
20
-77.2494779999999963
11
175.313777999999985
21
-80.587097
0
LINE
8
BLACK
6
CONTINUOUS
10
247.6268019999999979
20
-20.1201939999999979
11
248.492826999999977
21
-20.6201939999999979
0
LINE
8
BLACK
6
CONTINUOUS
10
234.6627679999999998
20
-80.404083
11
234.1627759999999796
21
-79.5380719999999997
0
LINE
8
BLACK
6
CONTINUOUS
10
124.5952619999999911
20
-61.1612930000000006
11
125.5952619999999911
21
-61.1612930000000006
0
LINE
8
BLACK
6
CONTINUOUS
10
51.3317369999999968
20
-77.6899959999999936
11
60.5768139999999988
21
-72.3523479999999921
0
ARC
8
BLACK
10
130.0768999999999949
20
-19.8213000000000008
40
0.5001130091659284
50
60.01277670
51
149.98749850
0
LINE
8
BLACK
6
CONTINUOUS
10
242.0548909999999978
20
-56.1408539999999974
11
241.3048909999999978
21
-57.4398920000000004
0
ARC
8
BLACK
10
135.8579000000000008
20
-23.1587999999999994
40
0.4999527355460713
50
-30.00538775
51
60.00692966
0
ARC
8
BLACK
10
156.5952999999999804
20
-70.33659999999999
40
0.4999880014440346
50
-180.00137499
51
-90.00435458
0
LINE
8
BLACK
6
CONTINUOUS
10
114.6307679999999891
20
-80.404083
11
114.1307759999999973
21
-79.5380719999999997
0
LINE
8
BLACK
6
CONTINUOUS
10
226.1267689999999959
20
-47.2494779999999963
11
220.3457779999999957
21
-50.587097
0
LINE
8
BLACK
6
CONTINUOUS
10
136.2908359999999846
20
-23.408809999999999
11
135.7908400000000029
21
-24.2748290000000004
0
ARC
8
BLACK
10
79.5951999999999913
20
-91.6611999999999938
40
0.4999380086500725
50
-270.00710600
51
-179.98934166
0
ARC
8
BLACK
10
81.5951999999999913
20
-29.6611999999999973
40
0.4999380086500725
50
-270.00710600
51
-179.98934166
0
ARC
8
BLACK
10
180.8445999999999856
20
-76.8164000000000016
40
0.5001163684103931
50
-59.98697356
51
29.98383779
0
LINE
8
BLACK
6
CONTINUOUS
10
141.5952619999999911
20
-89.1612930000000006
11
143.0952619999999911
21
-89.1612930000000006
0
LINE
8
BLACK
6
CONTINUOUS
10
51.8987249999999989
20
-79.6720459999999946
11
51.1487249999999989
21
-78.3730079999999987
0
ARC
8
BLACK
10
70.0768999999999949
20
-19.8213000000000008
40
0.5001130091659284
50
60.01277670
51
149.98749850
0
ARC
8
BLACK
10
232.3768000000000029
20
-50.5533000000000001
40
0.5000450327420521
50
60.00514627
51
149.99067408
0
ARC
8
BLACK
10
270.8587999999999738
20
-72.7852000000000032
40
0.4998538327351307
50
29.98325825
51
120.00782048
0
ARC
8
BLACK
10
140.5952999999999804
20
-99.33659999999999
40
0.5000120014439653
50
0.00137520
51
90.00435437
0
ARC
8
BLACK
10
127.3447999999999922
20
-80.553299999999993
40
0.5000450327420521
50
60.00514627
51
149.99067408
0
ARC
8
BLACK
10
143.6978000000000009
20
-79.7881
40
0.5000430072003808
50
30.00488173
51
120.00205031
0
ARC
8
BLACK
10
95.5952999999999946
20
-69.33659999999999
40
0.5000120014439653
50
0.00137520
51
90.00435437
0
LINE
8
BLACK
6
CONTINUOUS
10
70.3268580000000014
20
-19.3881370000000004
11
76.1078239999999937
21
-22.7257979999999975
0
LINE
8
BLACK
6
CONTINUOUS
10
36.1617889999999989
20
-81.6022449999999964
11
36.9117889999999989
21
-80.3032070000000004
0
LINE
8
BLACK
6
CONTINUOUS
10
79.0952619999999911
20
-38.336587999999999
11
79.0952619999999911
21
-31.661292999999997
0
ARC
8
BLACK
10
106.2107999999999919
20
-45.4503999999999948
40
0.5000222847043919
50
-239.99739374
51
-149.99816644
0
ARC
8
BLACK
10
126.5951999999999913
20
-59.6611999999999938
40
0.4999380086500725
50
-270.00710600
51
-179.98934166
0
ARC
8
BLACK
10
186.6134999999999877
20
-108.1229000000000013
40
0.4998481892424939
50
-240.01729889
51
-149.97565546
0
LINE
8
BLACK
6
CONTINUOUS
10
255.6218779999999811
20
-87.6229050000000029
11
246.3768019999999979
21
-82.2852579999999989
0
ARC
8
BLACK
10
248.1270999999999844
20
-70.3365000000000009
40
0.5001620077414917
50
-89.98143943
51
-0.01008079
0
LINE
8
BLACK
6
CONTINUOUS
10
169.1272620000000018
20
-98.3365879999999919
11
169.1272620000000018
21
-91.6612930000000006
0
LINE
8
BLACK
6
CONTINUOUS
10
256.3228359999999952
20
-23.408809999999999
11
255.8228399999999851
21
-24.2748290000000004
0
LINE
8
BLACK
6
CONTINUOUS
10
159.6307679999999891
20
-110.404083
11
159.1307759999999973
21
-109.5380719999999997
0
LINE
8
BLACK
6
CONTINUOUS
10
195.6218779999999811
20
-27.6229049999999994
11
186.3768019999999979
21
-22.2852579999999989
0
LINE
8
BLACK
6
CONTINUOUS
10
143.4477629999999806
20
-79.3550589999999971
11
142.5817370000000039
21
-79.8550589999999971
0
LINE
8
BLACK
6
CONTINUOUS
10
256.8588139999999953
20
-104.5174119999999931
11
255.9927879999999902
21
-105.0174119999999931
0
ARC
8
BLACK
10
158.6978000000000009
20
-109.7881
40
0.5000430072003808
50
30.00488173
51
120.00205031
0
ARC
8
BLACK
10
271.6218999999999824
20
-55.8907999999999987
40
0.4999424928579286
50
-30.00660224
51
59.99910627
0
ARC
8
BLACK
10
106.2239999999999895
20
-84.524799999999999
40
0.5000980196821418
50
-209.98868506
51
-120.01296426
0
LINE
8
BLACK
6
CONTINUOUS
10
229.1272620000000018
20
-38.336587999999999
11
229.1272620000000018
21
-31.661292999999997
0
LINE
8
BLACK
6
CONTINUOUS
10
204.1758399999999938
20
-50.4371809999999954
11
204.6758439999999837
21
-49.5711489999999984
0
ARC
8
BLACK
10
211.6218999999999824
20
-55.8907999999999987
40
0.4999424928579286
50
-30.00660224
51
59.99910627
0
LINE
8
BLACK
6
CONTINUOUS
10
248.4797629999999913
20
-109.3550589999999971
11
247.6137369999999862
21
-109.8550589999999971
0
LINE
8
BLACK
6
CONTINUOUS
10
126.8987249999999989
20
-49.6720459999999946
11
126.1487249999999989
21
-48.3730079999999987
0
LINE
8
BLACK
6
CONTINUOUS
10
231.1937889999999811
20
-51.6022449999999964
11
231.9437889999999811
21
-50.3032070000000004
0
LINE
8
BLACK
6
CONTINUOUS
10
39.1438399999999973
20
-20.4371809999999989
11
39.6438440000000014
21
-19.5711489999999984
0
ARC
8
BLACK
10
233.1270999999999844
20
-40.3365000000000009
40
0.5001620077414917
50
-89.98143943
51
-0.01008079
0
ARC
8
BLACK
10
109.5952999999999946
20
-98.33659999999999
40
0.4999880014440346
50
-180.00137499
51
-90.00435458
0
ARC
8
BLACK
10
96.5952999999999946
20
-70.33659999999999
40
0.4999880014440346
50
-180.00137499
51
-90.00435458
0
LINE
8
BLACK
6
CONTINUOUS
10
36.3317369999999968
20
-107.6899959999999936
11
45.5768139999999988
21
-102.3523479999999921
0
ARC
8
BLACK
10
185.6272999999999911
20
-69.33659999999999
40
0.5000120014439653
50
0.00137520
51
90.00435437
0
LINE
8
BLACK
6
CONTINUOUS
10
231.6272620000000018
20
-89.1612930000000006
11
233.1272620000000018
21
-89.1612930000000006
0
LINE
8
BLACK
6
CONTINUOUS
10
20.5952619999999982
20
-98.8365879999999919
11
19.5952619999999982
21
-98.8365879999999919
0
LINE
8
BLACK
6
CONTINUOUS
10
81.0952619999999911
20
-30.661292999999997
11
81.0952619999999911
21
-29.661292999999997
0
ARC
8
BLACK
10
143.0952999999999804
20
-89.6612999999999971
40
0.5000070014439798
50
0.00080220
51
90.00435442
0
ARC
8
BLACK
10
160.0637999999999863
20
-110.1541999999999888
40
0.4998888007277218
50
-150.01271775
51
-59.99555304
0
LINE
8
BLACK
6
CONTINUOUS
10
91.2908359999999988
20
-53.4088099999999955
11
90.7908400000000029
21
-54.2748289999999969
0
ARC
8
BLACK
10
124.5952999999999946
20
-68.33659999999999
40
0.4999880014440346
50
-180.00137499
51
-90.00435458
0
ARC
8
BLACK
10
141.6271999999999878
20
-29.6611999999999973
40
0.4999380086500725
50
-270.00710600
51
-179.98934166
0
ARC
8
BLACK
10
67.3447999999999922
20
-20.5533000000000001
40
0.5000450327420521
50
60.00514627
51
149.99067408
0
ARC
8
BLACK
10
229.6272999999999911
20
-38.3365999999999971
40
0.4999880014440346
50
-180.00137499
51
-90.00435458
0
LINE
8
BLACK
6
CONTINUOUS
10
111.0952619999999911
20
-100.3365879999999919
11
111.0952619999999911
21
-99.3365879999999919
0
ARC
8
BLACK
10
64.5952999999999946
20
-68.33659999999999
40
0.4999880014440346
50
-180.00137499
51
-90.00435458
0
ARC
8
BLACK
10
51.5951999999999984
20
-29.6611999999999973
40
0.4999380086500725
50
-270.00710600
51
-179.98934166
0
LINE
8
BLACK
6
CONTINUOUS
10
110.5952619999999911
20
-98.8365879999999919
11
109.5952619999999911
21
-98.8365879999999919
0
ARC
8
BLACK
10
98.0951000000000022
20
-70.3365000000000009
40
0.5001620077414917
50
-89.98143943
51
-0.01008079
0
ARC
8
BLACK
10
70.0768999999999949
20
-79.8212999999999937
40
0.5001130091659284
50
60.01277670
51
149.98749850
0
ARC
8
BLACK
10
154.5952000000000055
20
-61.6611999999999938
40
0.4999380086500725
50
-270.00710600
51
-179.98934166
0
ARC
8
BLACK
10
96.5814999999999912
20
-48.1229000000000013
40
0.4998481892424939
50
-240.01729889
51
-149.97565546
0
ARC
8
BLACK
10
166.6085999999999956
20
-44.0842999999999989
40
0.5001352585821159
50
-59.98445817
51
29.97796020
0
ARC
8
BLACK
10
126.5947999999999922
20
-81.8521999999999963
40
0.5000382299064742
50
-209.99563154
51
-119.99720634
0
ARC
8
BLACK
10
186.6268000000000029
20
-81.8521999999999963
40
0.5000382299064742
50
-209.99563154
51
-119.99720634
0
LINE
8
BLACK
6
CONTINUOUS
10
226.2918259999999862
20
-102.5353609999999946
11
227.0418259999999862
21
-103.8343989999999906
0
ARC
8
BLACK
10
233.1272999999999911
20
-29.6612999999999971
40
0.5000070014439798
50
0.00080220
51
90.00435442
0
ARC
8
BLACK
10
90.8397999999999968
20
-57.1896999999999949
40
0.5001638243065966
50
-119.98124626
51
-30.01456300
0
ARC
8
BLACK
10
79.5952999999999946
20
-38.3365999999999971
40
0.4999880014440346
50
-180.00137499
51
-90.00435458
0
ARC
8
BLACK
10
98.6978000000000009
20
-109.7881
40
0.5000430072003808
50
30.00488173
51
120.00205031
0
ARC
8
BLACK
10
83.0952999999999946
20
-89.6612999999999971
40
0.5000070014439798
50
0.00080220
51
90.00435442
0
LINE
8
BLACK
6
CONTINUOUS
10
143.0952619999999911
20
-100.8365879999999919
11
141.5952619999999911
21
-100.8365879999999919
0
CIRCLE
8
BLACK
10
200.1999999999999886
20
-65.
40
2.
0
LINE
8
BLACK
6
CONTINUOUS
10
113.4477629999999948
20
-79.3550589999999971
11
112.5817369999999897
21
-79.8550589999999971
0
ARC
8
BLACK
10
225.8765999999999963
20
-46.8163999999999945
40
0.5001163684103931
50
-59.98697356
51
29.98383779
0
LINE
8
BLACK
6
CONTINUOUS
10
216.9307249999999954
20
-49.6720459999999946
11
216.1807249999999954
21
-48.3730079999999987
0
ARC
8
BLACK
10
173.1272999999999911
20
-89.6612999999999971
40
0.5000070014439798
50
0.00080220
51
90.00435442
0
ARC
8
BLACK
10
105.8397999999999968
20
-87.189700000000002
40
0.5001638243065966
50
-119.98124626
51
-30.01456300
0
ARC
8
BLACK
10
37.3447999999999993
20
-20.5533000000000001
40
0.5000450327420521
50
60.00514627
51
149.99067408
0
ARC
8
BLACK
10
199.6271999999999878
20
-31.6611999999999973
40
0.4999380086500725
50
-270.00710600
51
-179.98934166
0
LINE
8
BLACK
6
CONTINUOUS
10
241.1267689999999959
20
-77.2494779999999963
11
235.3457779999999957
21
-80.587097
0
ARC
8
BLACK
10
171.6272999999999911
20
-100.33659999999999
40
0.4999880014440346
50
-180.00137499
51
-90.00435458
0
ARC
8
BLACK
10
233.1272999999999911
20
-89.6612999999999971
40
0.5000070014439798
50
0.00080220
51
90.00435442
0
ARC
8
BLACK
10
53.6978000000000009
20
-79.7881
40
0.5000430072003808
50
30.00488173
51
120.00205031
0
LINE
8
BLACK
6
CONTINUOUS
10
166.0947689999999852
20
-107.2494779999999963
11
160.313777999999985
21
-110.587097
0
LINE
8
BLACK
6
CONTINUOUS
10
141.1272620000000018
20
-40.336587999999999
11
141.1272620000000018
21
-39.336587999999999
0
LINE
8
BLACK
6
CONTINUOUS
10
126.5952619999999911
20
-59.1612930000000006
11
128.0952619999999911
21
-59.1612930000000006
0
ARC
8
BLACK
10
240.889899999999983
20
-53.1587999999999994
40
0.4999527355460713
50
-30.00538775
51
60.00692966
0
LINE
8
BLACK
6
CONTINUOUS
10
185.6272620000000018
20
-68.8365879999999919
11
184.6272620000000018
21
-68.8365879999999919
0
LINE
8
BLACK
6
CONTINUOUS
10
40.3268580000000014
20
-19.3881370000000004
11
46.1078240000000008
21
-22.7257979999999975
0
ARC
8
BLACK
10
211.2427999999999884
20
-75.4504000000000019
40
0.5000222847043919
50
-239.99739374
51
-149.99816644
0
ARC
8
BLACK
10
166.2427999999999884
20
-45.4503999999999948
40
0.5000222847043919
50
-239.99739374
51
-149.99816644
0
ARC
8
BLACK
10
106.2239999999999895
20
-24.524799999999999
40
0.5000980196821418
50
-209.98868506
51
-120.01296426
0
ARC
8
BLACK
10
171.5947999999999922
20
-51.8521999999999963
40
0.5000382299064742
50
-209.99563154
51
-119.99720634
0
ARC
8
BLACK
10
190.1089000000000055
20
-19.8213000000000008
40
0.5001130091659284
50
60.01277670
51
149.98749850
0
ARC
8
BLACK
10
201.6134999999999877
20
-78.1229000000000013
40
0.4998481892424939
50
-240.01729889
51
-149.97565546
0
LINE
8
BLACK
6
CONTINUOUS
10
226.3228359999999952
20
-23.408809999999999
11
225.8228399999999851
21
-24.2748290000000004
0
LINE
8
BLACK
6
CONTINUOUS
10
69.1438399999999973
20
-20.4371809999999989
11
69.6438440000000014
21
-19.5711489999999984
0
LINE
8
BLACK
6
CONTINUOUS
10
262.6268019999999979
20
-50.1201939999999979
11
263.492826999999977
21
-50.6201939999999979
0
ARC
8
BLACK
10
45.8445999999999998
20
-106.8164000000000016
40
0.5001163684103931
50
-59.98697356
51
29.98383779
0
LINE
8
BLACK
6
CONTINUOUS
10
180.7777759999999887
20
-75.7004249999999956
11
181.2777839999999969
21
-76.5664639999999963
0
ARC
8
BLACK
10
100.0638000000000005
20
-50.1541999999999959
40
0.4998888007277218
50
-150.01271775
51
-59.99555304
0
LINE
8
BLACK
6
CONTINUOUS
10
21.0952619999999982
20
-90.6612930000000006
11
21.0952619999999982
21
-89.6612930000000006
0
LINE
8
BLACK
6
CONTINUOUS
10
165.7777759999999887
20
-105.7004249999999956
11
166.2777839999999969
21
-106.5664639999999963
0
LINE
8
BLACK
6
CONTINUOUS
10
111.5952619999999911
20
-89.1612930000000006
11
113.0952619999999911
21
-89.1612930000000006
0
LINE
8
BLACK
6
CONTINUOUS
10
245.6272620000000018
20
-68.8365879999999919
11
244.6272620000000018
21
-68.8365879999999919
0
ARC
8
BLACK
10
128.6978000000000009
20
-49.7881
40
0.5000430072003808
50
30.00488173
51
120.00205031
0
ARC
8
BLACK
10
52.3447999999999993
20
-50.5533000000000001
40
0.5000450327420521
50
60.00514627
51
149.99067408
0
LINE
8
BLACK
6
CONTINUOUS
10
46.8268139999999988
20
-44.5174120000000002
11
45.9607880000000009
21
-45.0174120000000002
0
LINE
8
BLACK
6
CONTINUOUS
10
201.1272620000000018
20
-30.661292999999997
11
201.1272620000000018
21
-29.661292999999997
0
ARC
8
BLACK
10
255.8588000000000022
20
-102.785199999999989
40
0.4998538327351307
50
29.98325825
51
120.00782048
0
ARC
8
BLACK
10
256.2559999999999718
20
-84.524799999999999
40
0.5000980196821418
50
-209.98868506
51
-120.01296426
0
ARC
8
BLACK
10
150.8397999999999968
20
-57.1896999999999949
40
0.5001638243065966
50
-119.98124626
51
-30.01456300
0
CIRCLE
8
BLACK
10
110.1679999999999922
20
-65.
40
2.
0
LINE
8
BLACK
6
CONTINUOUS
10
83.0952619999999911
20
-40.836587999999999
11
81.5952619999999911
21
-40.836587999999999
0
LINE
8
BLACK
6
CONTINUOUS
10
136.2908359999999846
20
-83.4088100000000026
11
135.7908400000000029
21
-84.2748289999999969
0
ARC
8
BLACK
10
180.8579000000000008
20
-53.1587999999999994
40
0.4999527355460713
50
-30.00538775
51
60.00692966
0
LINE
8
BLACK
6
CONTINUOUS
10
49.0952619999999982
20
-98.3365879999999919
11
49.0952619999999982
21
-91.6612930000000006
0
LINE
8
BLACK
6
CONTINUOUS
10
255.8097759999999994
20
-105.7004249999999956
11
256.3097839999999792
21
-106.5664639999999963
0
LINE
8
BLACK
6
CONTINUOUS
10
261.9307249999999954
20
-79.6720459999999946
11
261.1807249999999954
21
-78.3730079999999987
0
ARC
8
BLACK
10
262.3637999999999693
20
-79.421999999999997
40
0.5000086013760163
50
-149.99900457
51
-60.00890460
0
LINE
8
BLACK
6
CONTINUOUS
10
225.6218779999999811
20
-87.6229050000000029
11
216.3768019999999979
21
-82.2852579999999989
0
ARC
8
BLACK
10
156.5815000000000055
20
-108.1229000000000013
40
0.4998481892424939
50
-240.01729889
51
-149.97565546
0
LINE
8
BLACK
6
CONTINUOUS
10
66.1617889999999989
20
-21.6022449999999999
11
66.9117889999999989
21
-20.3032070000000004
0
ARC
8
BLACK
10
45.8397999999999968
20
-27.1896999999999984
40
0.5001638243065966
50
-119.98124626
51
-30.01456300
0
LINE
8
BLACK
6
CONTINUOUS
10
233.4797629999999913
20
-79.3550589999999971
11
232.6137369999999862
21
-79.8550589999999971
0
ARC
8
BLACK
10
173.1270999999999844
20
-100.3365000000000009
40
0.5001620077414917
50
-89.98143943
51
-0.01008079
0
LINE
8
BLACK
6
CONTINUOUS
10
186.3637369999999862
20
-107.6899959999999936
11
195.6088139999999953
21
-102.3523479999999921
0
LINE
8
BLACK
6
CONTINUOUS
10
142.5948019999999872
20
-50.1201939999999979
11
143.4608269999999948
21
-50.6201939999999979
0
ARC
8
BLACK
10
109.5951999999999913
20
-91.6611999999999938
40
0.4999380086500725
50
-270.00710600
51
-179.98934166
0
ARC
8
BLACK
10
165.871799999999979
20
-27.1896999999999984
40
0.5001638243065966
50
-119.98124626
51
-30.01456300
0
LINE
8
BLACK
6
CONTINUOUS
10
79.0952619999999911
20
-98.3365879999999919
11
79.0952619999999911
21
-91.6612930000000006
0
LINE
8
BLACK
6
CONTINUOUS
10
196.1267689999999959
20
-47.2494779999999963
11
190.3457779999999957
21
-50.587097
0
LINE
8
BLACK
6
CONTINUOUS
10
141.6272620000000018
20
-29.161292999999997
11
143.1272620000000018
21
-29.161292999999997
0
ARC
8
BLACK
10
181.5899000000000001
20
-55.8907999999999987
40
0.4999424928579286
50
-30.00660224
51
59.99910627
0
ARC
8
BLACK
10
186.6134999999999877
20
-48.1229000000000013
40
0.4998481892424939
50
-240.01729889
51
-149.97565546
0
LINE
8
BLACK
6
CONTINUOUS
10
166.0058530000000019
20
-24.9578409999999984
11
166.8718779999999811
21
-25.4578409999999984
0
ARC
8
BLACK
10
180.8267999999999915
20
-72.7852000000000032
40
0.4998538327351307
50
29.98325825
51
120.00782048
0
ARC
8
BLACK
10
21.5951999999999984
20
-89.6611999999999938
40
0.4999380086500725
50
-270.00710600
51
-179.98934166
0
LINE
8
BLACK
6
CONTINUOUS
10
186.1272620000000018
20
-60.6612930000000006
11
186.1272620000000018
21
-59.6612930000000006
0
CIRCLE
8
BLACK
10
260.1999999999999886
20
-65.
40
2.
0
ARC
8
BLACK
10
21.5952999999999982
20
-40.3365999999999971
40
0.4999880014440346
50
-180.00137499
51
-90.00435458
0
ARC
8
BLACK
10
128.7108000000000061
20
-20.1869999999999976
40
0.5001141613281912
50
-119.98693667
51
-30.01639449
0
ARC
8
BLACK
10
105.8579000000000008
20
-23.1587999999999994
40
0.4999527355460713
50
-30.00538775
51
60.00692966
0
LINE
8
BLACK
6
CONTINUOUS
10
36.5952619999999982
20
-59.1612930000000006
11
38.0952619999999982
21
-59.1612930000000006
0
ARC
8
BLACK
10
141.5952999999999804
20
-100.33659999999999
40
0.4999880014440346
50
-180.00137499
51
-90.00435458
0
LINE
8
BLACK
6
CONTINUOUS
10
66.3317370000000039
20
-47.6899960000000007
11
75.5768139999999988
21
-42.3523479999999992
0
ARC
8
BLACK
10
216.6268000000000029
20
-81.8521999999999963
40
0.5000382299064742
50
-209.99563154
51
-119.99720634
0
ARC
8
BLACK
10
247.3637999999999977
20
-49.421999999999997
40
0.5000086013760163
50
-149.99900457
51
-60.00890460
0
LINE
8
BLACK
6
CONTINUOUS
10
143.6272620000000018
20
-29.661292999999997
11
143.6272620000000018
21
-40.336587999999999
0
LINE
8
BLACK
6
CONTINUOUS
10
61.8268139999999988
20
-74.5174119999999931
11
60.9607879999999938
21
-75.0174119999999931
0
ARC
8
BLACK
10
75.8397999999999968
20
-27.1896999999999984
40
0.5001638243065966
50
-119.98124626
51
-30.01456300
0
LINE
8
BLACK
6
CONTINUOUS
10
46.2598259999999968
20
-102.5353609999999946
11
47.0098259999999968
21
-103.8343989999999906
0
LINE
8
BLACK
6
CONTINUOUS
10
201.9307249999999954
20
-79.6720459999999946
11
201.1807249999999954
21
-78.3730079999999987
0
LINE
8
BLACK
6
CONTINUOUS
10
49.0952619999999982
20
-38.336587999999999
11
49.0952619999999982
21
-31.661292999999997
0
ARC
8
BLACK
10
187.3637999999999977
20
-49.421999999999997
40
0.5000086013760163
50
-149.99900457
51
-60.00890460
0
LINE
8
BLACK
6
CONTINUOUS
10
144.1438399999999831
20
-50.4371809999999954
11
144.6438440000000014
21
-49.5711489999999984
0
LINE
8
BLACK
6
CONTINUOUS
10
230.6272620000000018
20
-38.836587999999999
11
229.6272620000000018
21
-38.836587999999999
0
ARC
8
BLACK
10
165.8765999999999963
20
-46.8163999999999945
40
0.5001163684103931
50
-59.98697356
51
29.98383779
0
LINE
8
BLACK
6
CONTINUOUS
10
106.2908359999999988
20
-83.4088100000000026
11
105.7908399999999887
21
-84.2748289999999969
0
ARC
8
BLACK
10
225.889899999999983
20
-23.1587999999999994
40
0.4999527355460713
50
-30.00538775
51
60.00692966
0
ARC
8
BLACK
10
76.2239999999999895
20
-24.524799999999999
40
0.5000980196821418
50
-209.98868506
51
-120.01296426
0
LINE
8
BLACK
6
CONTINUOUS
10
229.1272620000000018
20
-98.3365879999999919
11
229.1272620000000018
21
-91.6612930000000006
0
ARC
8
BLACK
10
75.8445999999999998
20
-106.8164000000000016
40
0.5001163684103931
50
-59.98697356
51
29.98383779
0
LINE
8
BLACK
6
CONTINUOUS
10
79.5952619999999911
20
-91.1612930000000006
11
80.5952619999999911
21
-91.1612930000000006
0
LINE
8
BLACK
6
CONTINUOUS
10
159.1758399999999938
20
-20.4371809999999989
11
159.6758439999999837
21
-19.5711489999999984
0
ARC
8
BLACK
10
51.5947999999999993
20
-51.8521999999999963
40
0.5000382299064742
50
-209.99563154
51
-119.99720634
0
ARC
8
BLACK
10
75.8445999999999998
20
-46.8163999999999945
40
0.5001163684103931
50
-59.98697356
51
29.98383779
0
LINE
8
BLACK
6
CONTINUOUS
10
249.1758399999999938
20
-80.4371809999999954
11
249.6758439999999837
21
-79.5711489999999912
0
ARC
8
BLACK
10
111.5951999999999913
20
-29.6611999999999973
40
0.4999380086500725
50
-270.00710600
51
-179.98934166
0
LINE
8
BLACK
6
CONTINUOUS
10
244.1272620000000018
20
-68.3365879999999919
11
244.1272620000000018
21
-61.6612930000000006
0
ARC
8
BLACK
10
225.871799999999979
20
-87.189700000000002
40
0.5001638243065966
50
-119.98124626
51
-30.01456300
0
LINE
8
BLACK
6
CONTINUOUS
10
211.2918259999999862
20
-72.5353609999999946
11
212.0418259999999862
21
-73.8343989999999906
0
ARC
8
BLACK
10
171.6271999999999878
20
-29.6611999999999973
40
0.4999380086500725
50
-270.00710600
51
-179.98934166
0
LINE
8
BLACK
6
CONTINUOUS
10
64.0952619999999911
20
-68.3365879999999919
11
64.0952619999999911
21
-61.6612930000000006
0
LINE
8
BLACK
6
CONTINUOUS
10
90.7777760000000029
20
-75.7004249999999956
11
91.2777839999999969
21
-76.5664639999999963
0
LINE
8
BLACK
6
CONTINUOUS
10
181.2598260000000039
20
-72.5353609999999946
11
182.0098260000000039
21
-73.8343989999999906
0
LINE
8
BLACK
6
CONTINUOUS
10
166.1267689999999959
20
-47.2494779999999963
11
160.3457779999999957
21
-50.587097
0
ARC
8
BLACK
10
218.7427999999999884
20
-20.1869999999999976
40
0.5001141613281912
50
-119.98693667
51
-30.01639449
0
LINE
8
BLACK
6
CONTINUOUS
10
230.6272620000000018
20
-98.8365879999999919
11
229.6272620000000018
21
-98.8365879999999919
0
LINE
8
BLACK
6
CONTINUOUS
10
51.0952619999999982
20
-40.336587999999999
11
51.0952619999999982
21
-39.336587999999999
0
ARC
8
BLACK
10
201.6268000000000029
20
-51.8521999999999963
40
0.5000382299064742
50
-209.99563154
51
-119.99720634
0
ARC
8
BLACK
10
255.889899999999983
20
-83.1587999999999994
40
0.4999527355460713
50
-30.00538775
51
60.00692966
0
LINE
8
BLACK
6
CONTINUOUS
10
141.1617889999999989
20
-51.6022449999999964
11
141.9117889999999989
21
-50.3032070000000004
0
ARC
8
BLACK
10
64.5951999999999913
20
-61.6611999999999938
40
0.4999380086500725
50
-270.00710600
51
-179.98934166
0
LINE
8
BLACK
6
CONTINUOUS
10
91.2598259999999897
20
-72.5353609999999946
11
92.0098259999999897
21
-73.8343989999999906
0
ARC
8
BLACK
10
246.6268000000000029
20
-21.8521999999999998
40
0.5000382299064742
50
-209.99563154
51
-119.99720634
0
LINE
8
BLACK
6
CONTINUOUS
10
216.1272620000000018
20
-60.6612930000000006
11
216.1272620000000018
21
-59.6612930000000006
0
ARC
8
BLACK
10
136.5765999999999849
20
-44.0842999999999989
40
0.5001352585821159
50
-59.98445817
51
29.97796020
0
ARC
8
BLACK
10
135.8397999999999968
20
-87.189700000000002
40
0.5001638243065966
50
-119.98124626
51
-30.01456300
0
ARC
8
BLACK
10
36.5947999999999993
20
-81.8521999999999963
40
0.5000382299064742
50
-209.99563154
51
-119.99720634
0
LINE
8
BLACK
6
CONTINUOUS
10
195.8097759999999994
20
-45.7004249999999956
11
196.3097839999999792
21
-46.5664639999999963
0
LINE
8
BLACK
6
CONTINUOUS
10
66.8987249999999989
20
-109.6720459999999946
11
66.1487249999999989
21
-108.3730079999999987
0
ARC
8
BLACK
10
49.5952999999999946
20
-38.3365999999999971
40
0.4999880014440346
50
-180.00137499
51
-90.00435458
0
ARC
8
BLACK
10
248.7427999999999884
20
-80.1869999999999976
40
0.5001141613281912
50
-119.98693667
51
-30.01639449
0
ARC
8
BLACK
10
235.1088999999999771
20
-49.8213000000000008
40
0.5001130091659284
50
60.01277670
51
149.98749850
0
LINE
8
BLACK
6
CONTINUOUS
10
92.0228910000000013
20
-56.1408539999999974
11
91.2728910000000013
21
-57.4398920000000004
0
ARC
8
BLACK
10
45.8445999999999998
20
-46.8163999999999945
40
0.5001163684103931
50
-59.98697356
51
29.98383779
0
LINE
8
BLACK
6
CONTINUOUS
10
218.4797629999999913
20
-49.3550589999999971
11
217.6137369999999862
21
-49.8550589999999971
0
ARC
8
BLACK
10
91.2107999999999919
20
-75.4504000000000019
40
0.5000222847043919
50
-239.99739374
51
-149.99816644
0
ARC
8
BLACK
10
250.095799999999997
20
-50.1541999999999959
40
0.4998888007277218
50
-150.01271775
51
-59.99555304
0
ARC
8
BLACK
10
214.6271999999999878
20
-61.6611999999999938
40
0.4999380086500725
50
-270.00710600
51
-179.98934166
0
ARC
8
BLACK
10
202.3768000000000029
20
-50.5533000000000001
40
0.5000450327420521
50
60.00514627
51
149.99067408
0
LINE
8
BLACK
6
CONTINUOUS
10
79.5952619999999911
20
-31.161292999999997
11
80.5952619999999911
21
-31.161292999999997
0
ARC
8
BLACK
10
83.0951000000000022
20
-100.3365000000000009
40
0.5001620077414917
50
-89.98143943
51
-0.01008079
0
LINE
8
BLACK
6
CONTINUOUS
10
211.0058530000000019
20
-54.9578409999999948
11
211.8718779999999811
21
-55.4578409999999948
0
LINE
8
BLACK
6
CONTINUOUS
10
45.7777759999999958
20
-45.7004249999999956
11
46.2777839999999969
21
-46.5664639999999963
0
LINE
8
BLACK
6
CONTINUOUS
10
199.6272620000000018
20
-91.1612930000000006
11
200.6272620000000018
21
-91.1612930000000006
0
ARC
8
BLACK
10
218.1270999999999844
20
-70.3365000000000009
40
0.5001620077414917
50
-89.98143943
51
-0.01008079
0
ARC
8
BLACK
10
230.6272999999999911
20
-99.33659999999999
40
0.5000120014439653
50
0.00137520
51
90.00435437
0
ARC
8
BLACK
10
60.8397999999999968
20
-57.1896999999999949
40
0.5001638243065966
50
-119.98124626
51
-30.01456300
0
LINE
8
BLACK
6
CONTINUOUS
10
256.1267689999999675
20
-107.2494779999999963
11
250.3457779999999957
21
-110.587097
0
LINE
8
BLACK
6
CONTINUOUS
10
136.0947689999999852
20
-107.2494779999999963
11
130.313777999999985
21
-110.587097
0
ARC
8
BLACK
10
45.8397999999999968
20
-87.189700000000002
40
0.5001638243065966
50
-119.98124626
51
-30.01456300
0
LINE
8
BLACK
6
CONTINUOUS
10
23.5952619999999982
20
-29.661292999999997
11
23.5952619999999982
21
-40.336587999999999
0
ARC
8
BLACK
10
66.5814999999999912
20
-48.1229000000000013
40
0.4998481892424939
50
-240.01729889
51
-149.97565546
0
LINE
8
BLACK
6
CONTINUOUS
10
120.5898779999999988
20
-57.6229049999999958
11
111.3448020000000014
21
-52.2852579999999989
0
LINE
8
BLACK
6
CONTINUOUS
10
129.1438399999999831
20
-80.4371809999999954
11
129.6438440000000014
21
-79.5711489999999912
0
ARC
8
BLACK
10
20.5951999999999984
20
-30.6611999999999973
40
0.5000620086479276
50
-89.99289664
51
-0.01065569
0
ARC
8
BLACK
10
80.5951999999999913
20
-30.6611999999999973
40
0.5000620086479276
50
-89.99289664
51
-0.01065569
0
ARC
8
BLACK
10
125.5951999999999913
20
-60.6611999999999938
40
0.5000620086479276
50
-89.99289664
51
-0.01065569
0
LINE
8
BLACK
6
CONTINUOUS
10
216.1937889999999811
20
-21.6022449999999999
11
216.9437889999999811
21
-20.3032070000000004
0
ARC
8
BLACK
10
37.3447999999999993
20
-80.553299999999993
40
0.5000450327420521
50
60.00514627
51
149.99067408
0
ARC
8
BLACK
10
244.6272999999999911
20
-68.33659999999999
40
0.4999880014440346
50
-180.00137499
51
-90.00435458
0
ARC
8
BLACK
10
231.6272999999999911
20
-100.33659999999999
40
0.4999880014440346
50
-180.00137499
51
-90.00435458
0
LINE
8
BLACK
6
CONTINUOUS
10
158.0952619999999911
20
-70.8365879999999919
11
156.5952619999999911
21
-70.8365879999999919
0
ARC
8
BLACK
10
217.3768000000000029
20
-80.553299999999993
40
0.5000450327420521
50
60.00514627
51
149.99067408
0
LINE
8
BLACK
6
CONTINUOUS
10
171.1272620000000018
20
-30.661292999999997
11
171.1272620000000018
21
-29.661292999999997
0
LINE
8
BLACK
6
CONTINUOUS
10
201.1272620000000018
20
-100.3365879999999919
11
201.1272620000000018
21
-99.3365879999999919
0
LINE
8
BLACK
6
CONTINUOUS
10
126.0952619999999911
20
-70.3365879999999919
11
126.0952619999999911
21
-69.3365879999999919
0
LINE
8
BLACK
6
CONTINUOUS
10
50.5952619999999982
20
-38.836587999999999
11
49.5952619999999982
21
-38.836587999999999
0
LINE
8
BLACK
6
CONTINUOUS
10
244.6272620000000018
20
-61.1612930000000006
11
245.6272620000000018
21
-61.1612930000000006
0
ARC
8
BLACK
10
94.5951999999999913
20
-61.6611999999999938
40
0.4999380086500725
50
-270.00710600
51
-179.98934166
0
ARC
8
BLACK
10
215.6271999999999878
20
-60.6611999999999938
40
0.5000620086479276
50
-89.99289664
51
-0.01065569
0
LINE
8
BLACK
6
CONTINUOUS
10
139.0952619999999911
20
-98.3365879999999919
11
139.0952619999999911
21
-91.6612930000000006
0
ARC
8
BLACK
10
232.3637999999999977
20
-79.421999999999997
40
0.5000086013760163
50
-149.99900457
51
-60.00890460
0
LINE
8
BLACK
6
CONTINUOUS
10
196.0058530000000019
20
-84.9578410000000019
11
196.8718779999999811
21
-85.4578410000000019
0
ARC
8
BLACK
10
61.5765999999999991
20
-74.0842999999999989
40
0.5001352585821159
50
-59.98445817
51
29.97796020
0
LINE
8
BLACK
6
CONTINUOUS
10
83.5952619999999911
20
-29.661292999999997
11
83.5952619999999911
21
-40.336587999999999
0
LINE
8
BLACK
6
CONTINUOUS
10
171.1272620000000018
20
-40.336587999999999
11
171.1272620000000018
21
-39.336587999999999
0
ARC
8
BLACK
10
127.3318000000000012
20
-49.421999999999997
40
0.5000086013760163
50
-149.99900457
51
-60.00890460
0
ARC
8
BLACK
10
20.5952999999999982
20
-99.33659999999999
40
0.5000120014439653
50
0.00137520
51
90.00435437
0
LINE
8
BLACK
6
CONTINUOUS
10
271.2918260000000146
20
-72.5353609999999946
11
272.0418260000000146
21
-73.8343989999999906
0
ARC
8
BLACK
10
169.6272999999999911
20
-38.3365999999999971
40
0.4999880014440346
50
-180.00137499
51
-90.00435458
0
ARC
8
BLACK
10
175.0637999999999863
20
-80.154200000000003
40
0.4998888007277218
50
-150.01271775
51
-59.99555304
0
ARC
8
BLACK
10
100.0638000000000005
20
-110.1541999999999888
40
0.4998888007277218
50
-150.01271775
51
-59.99555304
0
ARC
8
BLACK
10
80.5951999999999913
20
-90.6611999999999938
40
0.5000620086479276
50
-89.99289664
51
-0.01065569
0
ARC
8
BLACK
10
188.7297999999999831
20
-49.7881
40
0.5000430072003808
50
30.00488173
51
120.00205031
0
CIRCLE
8
BLACK
10
215.1999999999999886
20
-95.
40
2.
0
ARC
8
BLACK
10
187.3768000000000029
20
-80.553299999999993
40
0.5000450327420521
50
60.00514627
51
149.99067408
0
LINE
8
BLACK
6
CONTINUOUS
10
53.5952619999999982
20
-89.6612930000000006
11
53.5952619999999982
21
-100.3365879999999919
0
ARC
8
BLACK
10
195.8588000000000022
20
-102.785199999999989
40
0.4998538327351307
50
29.98325825
51
120.00782048
0
ARC
8
BLACK
10
180.8397999999999968
20
-57.1896999999999949
40
0.5001638243065966
50
-119.98124626
51
-30.01456300
0
LINE
8
BLACK
6
CONTINUOUS
10
231.1272620000000018
20
-40.336587999999999
11
231.1272620000000018
21
-39.336587999999999
0
ARC
8
BLACK
10
37.3318000000000012
20
-109.421999999999997
40
0.5000086013760163
50
-149.99900457
51
-60.00890460
0
ARC
8
BLACK
10
214.6272999999999911
20
-68.33659999999999
40
0.4999880014440346
50
-180.00137499
51
-90.00435458
0
LINE
8
BLACK
6
CONTINUOUS
10
182.0228909999999871
20
-56.1408539999999974
11
181.2728909999999871
21
-57.4398920000000004
0
ARC
8
BLACK
10
160.095799999999997
20
-50.1541999999999959
40
0.4998888007277218
50
-150.01271775
51
-59.99555304
0
LINE
8
BLACK
6
CONTINUOUS
10
81.5952619999999911
20
-89.1612930000000006
11
83.0952619999999911
21
-89.1612930000000006
0
ARC
8
BLACK
10
226.6085999999999956
20
-104.0842999999999989
40
0.5001352585821159
50
-59.98445817
51
29.97796020
0
ARC
8
BLACK
10
128.0951000000000022
20
-70.3365000000000009
40
0.5001620077414917
50
-89.98143943
51
-0.01008079
0
ARC
8
BLACK
10
124.5951999999999913
20
-61.6611999999999938
40
0.4999380086500725
50
-270.00710600
51
-179.98934166
0
ARC
8
BLACK
10
61.210799999999999
20
-75.4504000000000019
40
0.5000222847043919
50
-239.99739374
51
-149.99816644
0
ARC
8
BLACK
10
263.7298000000000116
20
-79.7881
40
0.5000430072003808
50
30.00488173
51
120.00205031
0
LINE
8
BLACK
6
CONTINUOUS
10
241.3228359999999952
20
-53.4088099999999955
11
240.8228399999999851
21
-54.2748289999999969
0
ARC
8
BLACK
10
76.5899000000000001
20
-85.8907999999999987
40
0.4999424928579286
50
-30.00660224
51
59.99910627
0
LINE
8
BLACK
6
CONTINUOUS
10
250.3588579999999979
20
-79.3881370000000004
11
256.139823999999976
21
-82.7257979999999975
0
LINE
8
BLACK
6
CONTINUOUS
10
225.6218779999999811
20
-27.6229049999999994
11
216.3768019999999979
21
-22.2852579999999989
0
ARC
8
BLACK
10
195.8588000000000022
20
-42.7851999999999961
40
0.4998538327351307
50
29.98325825
51
120.00782048
0
ARC
8
BLACK
10
245.6272999999999911
20
-69.33659999999999
40
0.5000120014439653
50
0.00137520
51
90.00435437
0
ARC
8
BLACK
10
46.5899000000000001
20
-85.8907999999999987
40
0.4999424928579286
50
-30.00660224
51
59.99910627
0
LINE
8
BLACK
6
CONTINUOUS
10
76.8268139999999988
20
-104.5174119999999931
11
75.9607879999999938
21
-105.0174119999999931
0
ARC
8
BLACK
10
256.6218999999999824
20
-25.8907999999999987
40
0.4999424928579286
50
-30.00660224
51
59.99910627
0
LINE
8
BLACK
6
CONTINUOUS
10
169.6272620000000018
20
-91.1612930000000006
11
170.6272620000000018
21
-91.1612930000000006
0
LINE
8
BLACK
6
CONTINUOUS
10
140.6272620000000018
20
-38.836587999999999
11
139.6272620000000018
21
-38.836587999999999
0
LINE
8
BLACK
6
CONTINUOUS
10
199.1272620000000018
20
-98.3365879999999919
11
199.1272620000000018
21
-91.6612930000000006
0
ARC
8
BLACK
10
229.6271999999999878
20
-91.6611999999999938
40
0.4999380086500725
50
-270.00710600
51
-179.98934166
0
LINE
8
BLACK
6
CONTINUOUS
10
261.3637370000000146
20
-77.6899959999999936
11
270.6088139999999953
21
-72.3523479999999921
0
LINE
8
BLACK
6
CONTINUOUS
10
96.1617889999999989
20
-21.6022449999999999
11
96.9117889999999989
21
-20.3032070000000004
0
ARC
8
BLACK
10
241.6085999999999956
20
-74.0842999999999989
40
0.5001352585821159
50
-59.98445817
51
29.97796020
0
LINE
8
BLACK
6
CONTINUOUS
10
121.0947689999999994
20
-77.2494779999999963
11
115.3137779999999992
21
-80.587097
0
LINE
8
BLACK
6
CONTINUOUS
10
246.1937889999999811
20
-21.6022449999999999
11
246.9437889999999811
21
-20.3032070000000004
0
ARC
8
BLACK
10
105.8267999999999915
20
-102.785199999999989
40
0.4998538327351307
50
29.98325825
51
120.00782048
0
LINE
8
BLACK
6
CONTINUOUS
10
175.3268579999999872
20
-49.3881370000000004
11
181.1078239999999937
21
-52.7257979999999975
0
ARC
8
BLACK
10
90.8445999999999998
20
-76.8164000000000016
40
0.5001163684103931
50
-59.98697356
51
29.98383779
0
ARC
8
BLACK
10
203.7427999999999884
20
-50.1869999999999976
40
0.5001141613281912
50
-119.98693667
51
-30.01639449
0
CIRCLE
8
BLACK
10
170.1680000000000064
20
-65.
40
2.
0
LINE
8
BLACK
6
CONTINUOUS
10
284.
20
-16.
11
284.
21
-114.
0
LINE
8
BLACK
6
CONTINUOUS
10
217.6268019999999979
20
-20.1201939999999979
11
218.492826999999977
21
-20.6201939999999979
0
ARC
8
BLACK
10
196.2427999999999884
20
-45.4503999999999948
40
0.5000222847043919
50
-239.99739374
51
-149.99816644
0
ARC
8
BLACK
10
110.5951999999999913
20
-90.6611999999999938
40
0.5000620086479276
50
-89.99289664
51
-0.01065569
0
ARC
8
BLACK
10
60.8579000000000008
20
-53.1587999999999994
40
0.4999527355460713
50
-30.00538775
51
60.00692966
0
LINE
8
BLACK
6
CONTINUOUS
10
188.1272620000000018
20
-70.8365879999999919
11
186.6272620000000018
21
-70.8365879999999919
0
ARC
8
BLACK
10
65.5952999999999946
20
-69.33659999999999
40
0.5000120014439653
50
0.00137520
51
90.00435437
0
LINE
8
BLACK
6
CONTINUOUS
10
96.3317369999999897
20
-47.6899960000000007
11
105.5768139999999988
21
-42.3523479999999992
0
LINE
8
BLACK
6
CONTINUOUS
10
195.6218779999999811
20
-87.6229050000000029
11
186.3768019999999979
21
-82.2852579999999989
0
ARC
8
BLACK
10
229.6271999999999878
20
-31.6611999999999973
40
0.4999380086500725
50
-270.00710600
51
-179.98934166
0
ARC
8
BLACK
10
248.1272999999999911
20
-59.6612999999999971
40
0.5000070014439798
50
0.00080220
51
90.00435442
0
ARC
8
BLACK
10
96.5947999999999922
20
-21.8521999999999998
40
0.5000382299064742
50
-209.99563154
51
-119.99720634
0
LINE
8
BLACK
6
CONTINUOUS
10
250.3588579999999979
20
-19.3881370000000004
11
256.139823999999976
21
-22.7257979999999975
0
ARC
8
BLACK
10
190.1089000000000055
20
-79.8212999999999937
40
0.5001130091659284
50
60.01277670
51
149.98749850
0
LINE
8
BLACK
6
CONTINUOUS
10
233.1272620000000018
20
-40.836587999999999
11
231.6272620000000018
21
-40.836587999999999
0
LINE
8
BLACK
6
CONTINUOUS
10
249.6627679999999998
20
-110.404083
11
249.1627759999999796
21
-109.5380719999999997
0
ARC
8
BLACK
10
49.5952999999999946
20
-98.33659999999999
40
0.4999880014440346
50
-180.00137499
51
-90.00435458
0
LINE
8
BLACK
6
CONTINUOUS
10
216.3637369999999862
20
-107.6899959999999936
11
225.6088139999999953
21
-102.3523479999999921
0
LINE
8
BLACK
6
CONTINUOUS
10
54.1438399999999973
20
-50.4371809999999954
11
54.6438439999999943
21
-49.5711489999999984
0
LINE
8
BLACK
6
CONTINUOUS
10
165.9738529999999912
20
-84.9578410000000019
11
166.8398779999999988
21
-85.4578410000000019
0
LINE
8
BLACK
6
CONTINUOUS
10
66.0952619999999911
20
-70.3365879999999919
11
66.0952619999999911
21
-69.3365879999999919
0
ARC
8
BLACK
10
172.3447999999999922
20
-50.5533000000000001
40
0.5000450327420521
50
60.00514627
51
149.99067408
0
ARC
8
BLACK
10
196.6218999999999824
20
-85.8907999999999987
40
0.4999424928579286
50
-30.00660224
51
59.99910627
0
ARC
8
BLACK
10
106.5899000000000001
20
-85.8907999999999987
40
0.4999424928579286
50
-30.00660224
51
59.99910627
0
LINE
8
BLACK
6
CONTINUOUS
10
60.7777759999999958
20
-75.7004249999999956
11
61.2777839999999969
21
-76.5664639999999963
0
ARC
8
BLACK
10
230.6272999999999911
20
-39.3365999999999971
40
0.5000120014439653
50
0.00137520
51
90.00435437
0
LINE
8
BLACK
6
CONTINUOUS
10
156.3317370000000039
20
-107.6899959999999936
11
165.5768139999999846
21
-102.3523479999999921
0
ARC
8
BLACK
10
255.889899999999983
20
-23.1587999999999994
40
0.4999527355460713
50
-30.00538775
51
60.00692966
0
LINE
8
BLACK
6
CONTINUOUS
10
81.5952619999999911
20
-29.161292999999997
11
83.0952619999999911
21
-29.161292999999997
0
LINE
8
BLACK
6
CONTINUOUS
10
186.6272620000000018
20
-59.1612930000000006
11
188.1272620000000018
21
-59.1612930000000006
0
LINE
8
BLACK
6
CONTINUOUS
10
81.8987249999999989
20
-79.6720459999999946
11
81.1487249999999989
21
-78.3730079999999987
0
LINE
8
BLACK
6
CONTINUOUS
10
107.0228910000000013
20
-86.1408539999999903
11
106.2728910000000013
21
-87.4398920000000004
0
ARC
8
BLACK
10
171.6271999999999878
20
-89.6611999999999938
40
0.4999380086500725
50
-270.00710600
51
-179.98934166
0
ARC
8
BLACK
10
130.0637999999999863
20
-50.1541999999999959
40
0.4998888007277218
50
-150.01271775
51
-59.99555304
0
LINE
8
BLACK
6
CONTINUOUS
10
264.1758399999999938
20
-50.4371809999999954
11
264.6758439999999837
21
-49.5711489999999984
0
ARC
8
BLACK
10
156.5947999999999922
20
-81.8521999999999963
40
0.5000382299064742
50
-209.99563154
51
-119.99720634
0
LINE
8
BLACK
6
CONTINUOUS
10
184.6272620000000018
20
-61.1612930000000006
11
185.6272620000000018
21
-61.1612930000000006
0
LINE
8
BLACK
6
CONTINUOUS
10
156.1617889999999989
20
-81.6022449999999964
11
156.9117889999999989
21
-80.3032070000000004
0
ARC
8
BLACK
10
203.7297999999999831
20
-79.7881
40
0.5000430072003808
50
30.00488173
51
120.00205031
0
ARC
8
BLACK
10
105.8445999999999998
20
-106.8164000000000016
40
0.5001163684103931
50
-59.98697356
51
29.98383779
0
ARC
8
BLACK
10
111.5951999999999913
20
-89.6611999999999938
40
0.4999380086500725
50
-270.00710600
51
-179.98934166
0
LINE
8
BLACK
6
CONTINUOUS
10
76.0947689999999994
20
-107.2494779999999963
11
70.3137779999999992
21
-110.587097
0
ARC
8
BLACK
10
225.889899999999983
20
-83.1587999999999994
40
0.4999527355460713
50
-30.00538775
51
60.00692966
0
ARC
8
BLACK
10
83.0952999999999946
20
-29.6612999999999971
40
0.5000070014439798
50
0.00080220
51
90.00435442
0
LINE
8
BLACK
6
CONTINUOUS
10
114.1438399999999973
20
-50.4371809999999954
11
114.6438440000000014
21
-49.5711489999999984
0
LINE
8
BLACK
6
CONTINUOUS
10
76.8268139999999988
20
-44.5174120000000002
11
75.9607879999999938
21
-45.0174120000000002
0
ARC
8
BLACK
10
51.5952999999999946
20
-40.3365999999999971
40
0.4999880014440346
50
-180.00137499
51
-90.00435458
0
LINE
8
BLACK
6
CONTINUOUS
10
51.0952619999999982
20
-30.661292999999997
11
51.0952619999999982
21
-29.661292999999997
0
ARC
8
BLACK
10
199.6272999999999911
20
-98.33659999999999
40
0.4999880014440346
50
-180.00137499
51
-90.00435458
0
LINE
8
BLACK
6
CONTINUOUS
10
45.7777759999999958
20
-105.7004249999999956
11
46.2777839999999969
21
-106.5664639999999963
0
ARC
8
BLACK
10
75.8579000000000008
20
-83.1587999999999994
40
0.4999527355460713
50
-30.00538775
51
60.00692966
0
LINE
8
BLACK
6
CONTINUOUS
10
121.8268139999999988
20
-74.5174119999999931
11
120.9607879999999938
21
-75.0174119999999931
0
LINE
8
BLACK
6
CONTINUOUS
10
165.8097759999999994
20
-45.7004249999999956
11
166.3097839999999792
21
-46.5664639999999963
0
LINE
8
BLACK
6
CONTINUOUS
10
212.0548909999999978
20
-56.1408539999999974
11
211.3048909999999978
21
-57.4398920000000004
0
LINE
8
BLACK
6
CONTINUOUS
10
81.0952619999999911
20
-40.336587999999999
11
81.0952619999999911
21
-39.336587999999999
0
LINE
8
BLACK
6
CONTINUOUS
10
21.5952619999999982
20
-29.161292999999997
11
23.0952619999999982
21
-29.161292999999997
0
ARC
8
BLACK
10
196.2427999999999884
20
-105.4504000000000019
40
0.5000222847043919
50
-239.99739374
51
-149.99816644
0
LINE
8
BLACK
6
CONTINUOUS
10
69.1438399999999973
20
-80.4371809999999954
11
69.6438440000000014
21
-79.5711489999999912
0
ARC
8
BLACK
10
151.5899000000000001
20
-55.8907999999999987
40
0.4999424928579286
50
-30.00660224
51
59.99910627
0
ARC
8
BLACK
10
151.2108000000000061
20
-75.4504000000000019
40
0.5000222847043919
50
-239.99739374
51
-149.99816644
0
CIRCLE
8
BLACK
10
230.1999999999999886
20
-65.
40
2.
0
ARC
8
BLACK
10
135.8267999999999915
20
-42.7851999999999961
40
0.4998538327351307
50
29.98325825
51
120.00782048
0
LINE
8
BLACK
6
CONTINUOUS
10
141.3317370000000039
20
-77.6899959999999936
11
150.5768139999999846
21
-72.3523479999999921
0
ARC
8
BLACK
10
156.6134999999999877
20
-48.1229000000000013
40
0.4998481892424939
50
-240.01729889
51
-149.97565546
0
LINE
8
BLACK
6
CONTINUOUS
10
171.1272620000000018
20
-90.6612930000000006
11
171.1272620000000018
21
-89.6612930000000006
0
LINE
8
BLACK
6
CONTINUOUS
10
151.8268139999999846
20
-74.5174119999999931
11
150.9607879999999795
21
-75.0174119999999931
0
ARC
8
BLACK
10
270.8765999999999963
20
-76.8164000000000016
40
0.5001163684103931
50
-59.98697356
51
29.98383779
0
LINE
8
BLACK
6
CONTINUOUS
10
80.5952619999999911
20
-38.836587999999999
11
79.5952619999999911
21
-38.836587999999999
0
LINE
8
BLACK
6
CONTINUOUS
10
203.4797629999999913
20
-79.3550589999999971
11
202.6137369999999862
21
-79.8550589999999971
0
LINE
8
BLACK
6
CONTINUOUS
10
270.6218779999999811
20
-57.6229049999999958
11
261.3768019999999979
21
-52.2852579999999989
0
LINE
8
BLACK
6
CONTINUOUS
10
211.8588139999999953
20
-74.5174119999999931
11
210.9927879999999902
21
-75.0174119999999931
0
LINE
8
BLACK
6
CONTINUOUS
10
81.0952619999999911
20
-90.6612930000000006
11
81.0952619999999911
21
-89.6612930000000006
0
ARC
8
BLACK
10
218.7427999999999884
20
-80.1869999999999976
40
0.5001141613281912
50
-119.98693667
51
-30.01639449
0
ARC
8
BLACK
10
65.5951999999999913
20
-60.6611999999999938
40
0.5000620086479276
50
-89.99289664
51
-0.01065569
0
ARC
8
BLACK
10
283.
20
-114.
40
1.
50
-90.00000000
51
-0.00000000
0
LINE
8
BLACK
6
CONTINUOUS
10
96.8987249999999989
20
-109.6720459999999946
11
96.1487249999999989
21
-108.3730079999999987
0
LINE
8
BLACK
6
CONTINUOUS
10
46.2908359999999988
20
-83.4088100000000026
11
45.7908399999999958
21
-84.2748289999999969
0
LINE
8
BLACK
6
CONTINUOUS
10
186.9307249999999954
20
-49.6720459999999946
11
186.1807249999999954
21
-48.3730079999999987
0
ARC
8
BLACK
10
196.6085999999999956
20
-104.0842999999999989
40
0.5001352585821159
50
-59.98445817
51
29.97796020
0
ARC
8
BLACK
10
19.5952999999999982
20
-98.33659999999999
40
0.4999880014440346
50
-180.00137499
51
-90.00435458
0
ARC
8
BLACK
10
105.8579000000000008
20
-83.1587999999999994
40
0.4999527355460713
50
-30.00538775
51
60.00692966
0
LINE
8
BLACK
6
CONTINUOUS
10
144.6307679999999891
20
-80.404083
11
144.1307759999999973
21
-79.5380719999999997
0
ARC
8
BLACK
10
113.095099999999988
20
-100.3365000000000009
40
0.5001620077414917
50
-89.98143943
51
-0.01008079
0
ARC
8
BLACK
10
143.1270999999999844
20
-40.3365000000000009
40
0.5001620077414917
50
-89.98143943
51
-0.01008079
0
LINE
8
BLACK
6
CONTINUOUS
10
157.5948019999999872
20
-80.1201939999999979
11
158.4608269999999948
21
-80.6201939999999979
0
ARC
8
BLACK
10
201.6272999999999911
20
-40.3365999999999971
40
0.4999880014440346
50
-180.00137499
51
-90.00435458
0
ARC
8
BLACK
10
120.8445999999999998
20
-76.8164000000000016
40
0.5001163684103931
50
-59.98697356
51
29.98383779
0
ARC
8
BLACK
10
36.5951999999999984
20
-59.6611999999999938
40
0.4999380086500725
50
-270.00710600
51
-179.98934166
0
ARC
8
BLACK
10
45.8579000000000008
20
-83.1587999999999994
40
0.4999527355460713
50
-30.00538775
51
60.00692966
0
ARC
8
BLACK
10
184.6272999999999911
20
-68.33659999999999
40
0.4999880014440346
50
-180.00137499
51
-90.00435458
0
ARC
8
BLACK
10
136.5765999999999849
20
-104.0842999999999989
40
0.5001352585821159
50
-59.98445817
51
29.97796020
0
LINE
8
BLACK
6
CONTINUOUS
10
166.8268139999999846
20
-104.5174119999999931
11
165.9607879999999795
21
-105.0174119999999931
0
LINE
8
BLACK
6
CONTINUOUS
10
197.0548909999999978
20
-86.1408539999999903
11
196.3048909999999978
21
-87.4398920000000004
0
LINE
8
BLACK
6
CONTINUOUS
10
76.2598259999999897
20
-42.5353609999999946
11
77.0098259999999897
21
-43.8343989999999977
0
LINE
8
BLACK
6
CONTINUOUS
10
226.3228359999999952
20
-83.4088100000000026
11
225.8228399999999851
21
-84.2748289999999969
0
ARC
8
BLACK
10
106.5899000000000001
20
-25.8907999999999987
40
0.4999424928579286
50
-30.00660224
51
59.99910627
0
LINE
8
BLACK
6
CONTINUOUS
10
96.3317369999999897
20
-107.6899959999999936
11
105.5768139999999988
21
-102.3523479999999921
0
LINE
8
BLACK
6
CONTINUOUS
10
80.5952619999999911
20
-98.8365879999999919
11
79.5952619999999911
21
-98.8365879999999919
0
LINE
8
BLACK
6
CONTINUOUS
10
186.1937889999999811
20
-21.6022449999999999
11
186.9437889999999811
21
-20.3032070000000004
0
ARC
8
BLACK
10
169.6271999999999878
20
-31.6611999999999973
40
0.4999380086500725
50
-270.00710600
51
-179.98934166
0
LINE
8
BLACK
6
CONTINUOUS
10
186.1937889999999811
20
-81.6022449999999964
11
186.9437889999999811
21
-80.3032070000000004
0
LINE
8
BLACK
6
CONTINUOUS
10
136.0947689999999852
20
-47.2494779999999963
11
130.313777999999985
21
-50.587097
0
LINE
8
BLACK
6
CONTINUOUS
10
105.9738529999999912
20
-24.9578409999999984
11
106.8398779999999988
21
-25.4578409999999984
0
ARC
8
BLACK
10
36.5814999999999984
20
-48.1229000000000013
40
0.4998481892424939
50
-240.01729889
51
-149.97565546
0
LINE
8
BLACK
6
CONTINUOUS
10
210.6218779999999811
20
-57.6229049999999958
11
201.3768019999999979
21
-52.2852579999999989
0
LINE
8
BLACK
6
CONTINUOUS
10
231.1272620000000018
20
-30.661292999999997
11
231.1272620000000018
21
-29.661292999999997
0
LINE
8
BLACK
6
CONTINUOUS
10
203.1272620000000018
20
-100.8365879999999919
11
201.6272620000000018
21
-100.8365879999999919
0
LINE
8
BLACK
6
CONTINUOUS
10
23.0952619999999982
20
-100.8365879999999919
11
21.5952619999999982
21
-100.8365879999999919
0
ARC
8
BLACK
10
49.5951999999999984
20
-91.6611999999999938
40
0.4999380086500725
50
-270.00710600
51
-179.98934166
0
ARC
8
BLACK
10
75.8267999999999915
20
-102.785199999999989
40
0.4998538327351307
50
29.98325825
51
120.00782048
0
LINE
8
BLACK
6
CONTINUOUS
10
256.3228359999999952
20
-83.4088100000000026
11
255.8228399999999851
21
-84.2748289999999969
0
LINE
8
BLACK
6
CONTINUOUS
10
215.6272620000000018
20
-68.8365879999999919
11
214.6272620000000018
21
-68.8365879999999919
0
ARC
8
BLACK
10
190.095799999999997
20
-110.1541999999999888
40
0.4998888007277218
50
-150.01271775
51
-59.99555304
0
ARC
8
BLACK
10
203.1272999999999911
20
-89.6612999999999971
40
0.5000070014439798
50
0.00080220
51
90.00435442
0
LINE
8
BLACK
6
CONTINUOUS
10
68.0952619999999911
20
-70.8365879999999919
11
66.5952619999999911
21
-70.8365879999999919
0
ARC
8
BLACK
10
233.1270999999999844
20
-100.3365000000000009
40
0.5001620077414917
50
-89.98143943
51
-0.01008079
0
LINE
8
BLACK
6
CONTINUOUS
10
241.2918259999999862
20
-72.5353609999999946
11
242.0418259999999862
21
-73.8343989999999906
0
ARC
8
BLACK
10
203.1272999999999911
20
-29.6612999999999971
40
0.5000070014439798
50
0.00080220
51
90.00435442
0
ARC
8
BLACK
10
136.2239999999999895
20
-24.524799999999999
40
0.5000980196821418
50
-209.98868506
51
-120.01296426
0
ARC
8
BLACK
10
96.5951999999999913
20
-59.6611999999999938
40
0.4999380086500725
50
-270.00710600
51
-179.98934166
0
ARC
8
BLACK
10
157.3447999999999922
20
-80.553299999999993
40
0.5000450327420521
50
60.00514627
51
149.99067408
0
LINE
8
BLACK
6
CONTINUOUS
10
21.5952619999999982
20
-89.1612930000000006
11
23.0952619999999982
21
-89.1612930000000006
0
LINE
8
BLACK
6
CONTINUOUS
10
124.0952619999999911
20
-68.3365879999999919
11
124.0952619999999911
21
-61.6612930000000006
0
LINE
8
BLACK
6
CONTINUOUS
10
85.3268580000000014
20
-49.3881370000000004
11
91.1078239999999937
21
-52.7257979999999975
0
LINE
8
BLACK
6
CONTINUOUS
10
65.5952619999999911
20
-68.8365879999999919
11
64.5952619999999911
21
-68.8365879999999919
0
LINE
8
BLACK
6
CONTINUOUS
10
196.0058530000000019
20
-24.9578409999999984
11
196.8718779999999811
21
-25.4578409999999984
0
ARC
8
BLACK
10
136.5899000000000001
20
-25.8907999999999987
40
0.4999424928579286
50
-30.00660224
51
59.99910627
0
ARC
8
BLACK
10
202.3637999999999977
20
-79.421999999999997
40
0.5000086013760163
50
-149.99900457
51
-60.00890460
0
ARC
8
BLACK
10
141.5947999999999922
20
-51.8521999999999963
40
0.5000382299064742
50
-209.99563154
51
-119.99720634
0
LINE
8
BLACK
6
CONTINUOUS
10
76.2598259999999897
20
-102.5353609999999946
11
77.0098259999999897
21
-103.8343989999999906
0
LINE
8
BLACK
6
CONTINUOUS
10
49.5952619999999982
20
-91.1612930000000006
11
50.5952619999999982
21
-91.1612930000000006
0
LINE
8
BLACK
6
CONTINUOUS
10
270.8097759999999994
20
-75.7004249999999956
11
271.3097839999999792
21
-76.5664639999999963
0
ARC
8
BLACK
10
166.5899000000000001
20
-85.8907999999999987
40
0.4999424928579286
50
-30.00660224
51
59.99910627
0
LINE
8
BLACK
6
CONTINUOUS
10
220.3588579999999979
20
-79.3881370000000004
11
226.139823999999976
21
-82.7257979999999975
0
LINE
8
BLACK
6
CONTINUOUS
10
75.5898779999999988
20
-87.6229050000000029
11
66.3448020000000014
21
-82.2852579999999989
0
ARC
8
BLACK
10
35.5951999999999984
20
-60.6611999999999938
40
0.5000620086479276
50
-89.99289664
51
-0.01065569
0
ARC
8
BLACK
10
139.5952999999999804
20
-98.33659999999999
40
0.4999880014440346
50
-180.00137499
51
-90.00435458
0
LINE
8
BLACK
6
CONTINUOUS
10
233.1272620000000018
20
-100.8365879999999919
11
231.6272620000000018
21
-100.8365879999999919
0
ARC
8
BLACK
10
255.8765999999999963
20
-46.8163999999999945
40
0.5001163684103931
50
-59.98697356
51
29.98383779
0
LINE
8
BLACK
6
CONTINUOUS
10
171.1272620000000018
20
-100.3365879999999919
11
171.1272620000000018
21
-99.3365879999999919
0
ARC
8
BLACK
10
154.5952999999999804
20
-68.33659999999999
40
0.4999880014440346
50
-180.00137499
51
-90.00435458
0
ARC
8
BLACK
10
97.3318000000000012
20
-49.421999999999997
40
0.5000086013760163
50
-149.99900457
51
-60.00890460
0
ARC
8
BLACK
10
246.6271999999999878
20
-59.6611999999999938
40
0.4999380086500725
50
-270.00710600
51
-179.98934166
0
LINE
8
BLACK
6
CONTINUOUS
10
219.1758399999999938
20
-80.4371809999999954
11
219.6758439999999837
21
-79.5711489999999912
0
LINE
8
BLACK
6
CONTINUOUS
10
49.5952619999999982
20
-31.161292999999997
11
50.5952619999999982
21
-31.161292999999997
0
ARC
8
BLACK
10
50.5952999999999946
20
-39.3365999999999971
40
0.5000120014439653
50
0.00137520
51
90.00435437
0
ARC
8
BLACK
10
40.0768999999999949
20
-19.8213000000000008
40
0.5001130091659284
50
60.01277670
51
149.98749850
0
LINE
8
BLACK
6
CONTINUOUS
10
36.0952619999999982
20
-60.6612930000000006
11
36.0952619999999982
21
-59.6612930000000006
0
ARC
8
BLACK
10
170.6271999999999878
20
-30.6611999999999973
40
0.5000620086479276
50
-89.99289664
51
-0.01065569
0
ARC
8
BLACK
10
160.1089000000000055
20
-19.8213000000000008
40
0.5001130091659284
50
60.01277670
51
149.98749850
0
LINE
8
BLACK
6
CONTINUOUS
10
111.0952619999999911
20
-30.661292999999997
11
111.0952619999999911
21
-29.661292999999997
0
ARC
8
BLACK
10
142.331799999999987
20
-79.421999999999997
40
0.5000086013760163
50
-149.99900457
51
-60.00890460
0
ARC
8
BLACK
10
126.5947999999999922
20
-21.8521999999999998
40
0.5000382299064742
50
-209.99563154
51
-119.99720634
0
ARC
8
BLACK
10
200.6272999999999911
20
-39.3365999999999971
40
0.5000120014439653
50
0.00137520
51
90.00435437
0
LINE
8
BLACK
6
CONTINUOUS
10
107.0228910000000013
20
-26.1408539999999974
11
106.2728910000000013
21
-27.4398920000000004
0
LINE
8
BLACK
6
CONTINUOUS
10
38.4477629999999948
20
-49.3550589999999971
11
37.5817369999999968
21
-49.8550589999999971
0
CIRCLE
8
BLACK
10
50.1679999999999993
20
-65.
40
2.
0
LINE
8
BLACK
6
CONTINUOUS
10
23.0952619999999982
20
-40.836587999999999
11
21.5952619999999982
21
-40.836587999999999
0
LINE
8
BLACK
6
CONTINUOUS
10
126.3317369999999897
20
-47.6899960000000007
11
135.5768139999999846
21
-42.3523479999999992
0
ARC
8
BLACK
10
106.5765999999999991
20
-44.0842999999999989
40
0.5001352585821159
50
-59.98445817
51
29.97796020
0
LINE
8
BLACK
6
CONTINUOUS
10
184.1272620000000018
20
-68.3365879999999919
11
184.1272620000000018
21
-61.6612930000000006
0
LINE
8
BLACK
6
CONTINUOUS
10
141.8987249999999847
20
-79.6720459999999946
11
141.1487249999999847
21
-78.3730079999999987
0
ARC
8
BLACK
10
165.8579000000000008
20
-83.1587999999999994
40
0.4999527355460713
50
-30.00538775
51
60.00692966
0
ARC
8
BLACK
10
36.5947999999999993
20
-21.8521999999999998
40
0.5000382299064742
50
-209.99563154
51
-119.99720634
0
ARC
8
BLACK
10
81.5952999999999946
20
-100.33659999999999
40
0.4999880014440346
50
-180.00137499
51
-90.00435458
0
ARC
8
BLACK
10
169.6272999999999911
20
-98.33659999999999
40
0.4999880014440346
50
-180.00137499
51
-90.00435458
0
ARC
8
BLACK
10
270.8718000000000075
20
-57.1896999999999949
40
0.5001638243065966
50
-119.98124626
51
-30.01456300
0
LINE
8
BLACK
6
CONTINUOUS
10
143.1272620000000018
20
-40.836587999999999
11
141.6272620000000018
21
-40.836587999999999
0
ARC
8
BLACK
10
143.7108000000000061
20
-50.1869999999999976
40
0.5001141613281912
50
-119.98693667
51
-30.01639449
0
ARC
8
BLACK
10
34.5951999999999984
20
-61.6611999999999938
40
0.4999380086500725
50
-270.00710600
51
-179.98934166
0
ARC
8
BLACK
10
255.8588000000000022
20
-42.7851999999999961
40
0.4998538327351307
50
29.98325825
51
120.00782048
0
LINE
8
BLACK
6
CONTINUOUS
10
83.5952619999999911
20
-89.6612930000000006
11
83.5952619999999911
21
-100.3365879999999919
0
ARC
8
BLACK
10
53.0950999999999951
20
-100.3365000000000009
40
0.5001620077414917
50
-89.98143943
51
-0.01008079
0
ARC
8
BLACK
10
186.6271999999999878
20
-59.6611999999999938
40
0.4999380086500725
50
-270.00710600
51
-179.98934166
0
ARC
8
BLACK
10
21.5951999999999984
20
-29.6611999999999973
40
0.4999380086500725
50
-270.00710600
51
-179.98934166
0
ARC
8
BLACK
10
34.5953000000000017
20
-68.33659999999999
40
0.4999880014440346
50
-180.00137499
51
-90.00435458
0
ARC
8
BLACK
10
250.095799999999997
20
-110.1541999999999888
40
0.4998888007277218
50
-150.01271775
51
-59.99555304
0
ARC
8
BLACK
10
270.8899000000000115
20
-53.1587999999999994
40
0.4999527355460713
50
-30.00538775
51
60.00692966
0
LINE
8
BLACK
6
CONTINUOUS
10
166.2908359999999846
20
-83.4088100000000026
11
165.7908400000000029
21
-84.2748289999999969
0
ARC
8
BLACK
10
216.6272999999999911
20
-70.33659999999999
40
0.4999880014440346
50
-180.00137499
51
-90.00435458
0
ARC
8
BLACK
10
170.6272999999999911
20
-39.3365999999999971
40
0.5000120014439653
50
0.00137520
51
90.00435437
0
LINE
8
BLACK
6
CONTINUOUS
10
90.9738529999999912
20
-54.9578409999999948
11
91.8398779999999988
21
-55.4578409999999948
0
ARC
8
BLACK
10
283.
20
-16.
40
1.
50
0.00000000
51
90.00000000
0
ARC
8
BLACK
10
256.2427999999999884
20
-105.4504000000000019
40
0.5000222847043919
50
-239.99739374
51
-149.99816644
0
ARC
8
BLACK
10
70.0638000000000005
20
-50.1541999999999959
40
0.4998888007277218
50
-150.01271775
51
-59.99555304
0
ARC
8
BLACK
10
113.0952999999999946
20
-29.6612999999999971
40
0.5000070014439798
50
0.00080220
51
90.00435442
0
LINE
8
BLACK
6
CONTINUOUS
10
77.0228910000000013
20
-26.1408539999999974
11
76.2728910000000013
21
-27.4398920000000004
0
ARC
8
BLACK
10
97.3318000000000012
20
-109.421999999999997
40
0.5000086013760163
50
-149.99900457
51
-60.00890460
0
ARC
8
BLACK
10
113.6978000000000009
20
-79.7881
40
0.5000430072003808
50
30.00488173
51
120.00205031
0
ARC
8
BLACK
10
200.6272999999999911
20
-99.33659999999999
40
0.5000120014439653
50
0.00137520
51
90.00435437
0
ARC
8
BLACK
10
19.5951999999999984
20
-31.6611999999999973
40
0.4999380086500725
50
-270.00710600
51
-179.98934166
0
LINE
8
BLACK
6
CONTINUOUS
10
62.0228909999999942
20
-56.1408539999999974
11
61.2728909999999942
21
-57.4398920000000004
0
LINE
8
BLACK
6
CONTINUOUS
10
196.2918259999999862
20
-102.5353609999999946
11
197.0418259999999862
21
-103.8343989999999906
0
LINE
8
BLACK
6
CONTINUOUS
10
36.8987249999999989
20
-109.6720459999999946
11
36.1487249999999989
21
-108.3730079999999987
0
LINE
8
BLACK
6
CONTINUOUS
10
190.3588579999999979
20
-79.3881370000000004
11
196.1398240000000044
21
-82.7257979999999975
0
ARC
8
BLACK
10
165.889899999999983
20
-23.1587999999999994
40
0.4999527355460713
50
-30.00538775
51
60.00692966
0
ARC
8
BLACK
10
188.7427999999999884
20
-20.1869999999999976
40
0.5001141613281912
50
-119.98693667
51
-30.01639449
0
LINE
8
BLACK
6
CONTINUOUS
10
167.0228909999999871
20
-86.1408539999999903
11
166.2728909999999871
21
-87.4398920000000004
0
LINE
8
BLACK
6
CONTINUOUS
10
40.3268580000000014
20
-79.3881370000000004
11
46.1078240000000008
21
-82.7257979999999975
0
LINE
8
BLACK
6
CONTINUOUS
10
196.3228359999999952
20
-83.4088100000000026
11
195.8228399999999851
21
-84.2748289999999969
0
ARC
8
BLACK
10
226.2560000000000002
20
-24.524799999999999
40
0.5000980196821418
50
-209.98868506
51
-120.01296426
0
LINE
8
BLACK
6
CONTINUOUS
10
106.8268139999999988
20
-104.5174119999999931
11
105.9607879999999938
21
-105.0174119999999931
0
ARC
8
BLACK
10
190.095799999999997
20
-50.1541999999999959
40
0.4998888007277218
50
-150.01271775
51
-59.99555304
0
ARC
8
BLACK
10
68.0952999999999946
20
-59.6612999999999971
40
0.5000070014439798
50
0.00080220
51
90.00435442
0
LINE
8
BLACK
6
CONTINUOUS
10
100.3268580000000014
20
-79.3881370000000004
11
106.1078239999999937
21
-82.7257979999999975
0
ARC
8
BLACK
10
75.8579000000000008
20
-23.1587999999999994
40
0.4999527355460713
50
-30.00538775
51
60.00692966
0
ARC
8
BLACK
10
188.7427999999999884
20
-80.1869999999999976
40
0.5001141613281912
50
-119.98693667
51
-30.01639449
0
ARC
8
BLACK
10
111.5947999999999922
20
-51.8521999999999963
40
0.5000382299064742
50
-209.99563154
51
-119.99720634
0
LINE
8
BLACK
6
CONTINUOUS
10
130.3268579999999872
20
-19.3881370000000004
11
136.1078239999999937
21
-22.7257979999999975
0
LINE
8
BLACK
6
CONTINUOUS
10
68.4477629999999948
20
-109.3550589999999971
11
67.5817370000000039
21
-109.8550589999999971
0
ARC
8
BLACK
10
165.8588000000000022
20
-42.7851999999999961
40
0.4998538327351307
50
29.98325825
51
120.00782048
0
ARC
8
BLACK
10
241.2427999999999884
20
-75.4504000000000019
40
0.5000222847043919
50
-239.99739374
51
-149.99816644
0
LINE
8
BLACK
6
CONTINUOUS
10
156.9307249999999954
20
-49.6720459999999946
11
156.1807249999999954
21
-48.3730079999999987
0
LINE
8
BLACK
6
CONTINUOUS
10
169.1272620000000018
20
-38.336587999999999
11
169.1272620000000018
21
-31.661292999999997
0
ARC
8
BLACK
10
85.0768999999999949
20
-49.8213000000000008
40
0.5001130091659284
50
60.01277670
51
149.98749850
0
LINE
8
BLACK
6
CONTINUOUS
10
75.5898779999999988
20
-27.6229049999999994
11
66.3448020000000014
21
-22.2852579999999989
0
LINE
8
BLACK
6
CONTINUOUS
10
145.3268579999999872
20
-49.3881370000000004
11
151.1078239999999937
21
-52.7257979999999975
0
ARC
8
BLACK
10
217.3637999999999977
20
-49.421999999999997
40
0.5000086013760163
50
-149.99900457
51
-60.00890460
0
LINE
8
BLACK
6
CONTINUOUS
10
136.2598260000000039
20
-42.5353609999999946
11
137.0098260000000039
21
-43.8343989999999977
0
LINE
8
BLACK
6
CONTINUOUS
10
261.1937889999999811
20
-51.6022449999999964
11
261.9437889999999811
21
-50.3032070000000004
0
ARC
8
BLACK
10
171.6272999999999911
20
-40.3365999999999971
40
0.4999880014440346
50
-180.00137499
51
-90.00435458
0
LINE
8
BLACK
6
CONTINUOUS
10
99.6307679999999891
20
-110.404083
11
99.1307759999999973
21
-109.5380719999999997
0
ARC
8
BLACK
10
126.5814999999999912
20
-108.1229000000000013
40
0.4998481892424939
50
-240.01729889
51
-149.97565546
0
LINE
8
BLACK
6
CONTINUOUS
10
271.1267689999999675
20
-77.2494779999999963
11
265.3457779999999957
21
-80.587097
0
LINE
8
BLACK
6
CONTINUOUS
10
216.3637369999999862
20
-47.6899960000000007
11
225.6088139999999953
21
-42.3523479999999992
0
LINE
8
BLACK
6
CONTINUOUS
10
19.0952619999999982
20
-38.336587999999999
11
19.0952619999999982
21
-31.661292999999997
0
ARC
8
BLACK
10
38.6978000000000009
20
-109.7881
40
0.5000430072003808
50
30.00488173
51
120.00205031
0
LINE
8
BLACK
6
CONTINUOUS
10
109.0952619999999911
20
-38.336587999999999
11
109.0952619999999911
21
-31.661292999999997
0
ARC
8
BLACK
10
35.5953000000000017
20
-69.33659999999999
40
0.5000120014439653
50
0.00137520
51
90.00435437
0
ARC
8
BLACK
10
166.2239999999999895
20
-84.524799999999999
40
0.5000980196821418
50
-209.98868506
51
-120.01296426
0
ARC
8
BLACK
10
80.5952999999999946
20
-39.3365999999999971
40
0.5000120014439653
50
0.00137520
51
90.00435437
0
LINE
8
BLACK
6
CONTINUOUS
10
226.8588139999999953
20
-44.5174120000000002
11
225.9927879999999902
21
-45.0174120000000002
0
LINE
8
BLACK
6
CONTINUOUS
10
115.3268580000000014
20
-49.3881370000000004
11
121.1078239999999937
21
-52.7257979999999975
0
ARC
8
BLACK
10
68.6978000000000009
20
-49.7881
40
0.5000430072003808
50
30.00488173
51
120.00205031
0
ARC
8
BLACK
10
68.7107999999999919
20
-80.1869999999999976
40
0.5001141613281912
50
-119.98693667
51
-30.01639449
0
LINE
8
BLACK
6
CONTINUOUS
10
201.1272620000000018
20
-90.6612930000000006
11
201.1272620000000018
21
-89.6612930000000006
0
ARC
8
BLACK
10
240.871799999999979
20
-57.1896999999999949
40
0.5001638243065966
50
-119.98124626
51
-30.01456300
0
ARC
8
BLACK
10
246.6272999999999911
20
-70.33659999999999
40
0.4999880014440346
50
-180.00137499
51
-90.00435458
0
LINE
8
BLACK
6
CONTINUOUS
10
98.4477629999999948
20
-49.3550589999999971
11
97.5817369999999897
21
-49.8550589999999971
0
ARC
8
BLACK
10
113.7107999999999919
20
-50.1869999999999976
40
0.5001141613281912
50
-119.98693667
51
-30.01639449
0
LINE
8
BLACK
6
CONTINUOUS
10
196.3228359999999952
20
-23.408809999999999
11
195.8228399999999851
21
-24.2748290000000004
0
ARC
8
BLACK
10
81.5952999999999946
20
-40.3365999999999971
40
0.4999880014440346
50
-180.00137499
51
-90.00435458
0
ARC
8
BLACK
10
271.2559999999999718
20
-54.524799999999999
40
0.5000980196821418
50
-209.98868506
51
-120.01296426
0
ARC
8
BLACK
10
265.095799999999997
20
-80.154200000000003
40
0.4998888007277218
50
-150.01271775
51
-59.99555304
0
LINE
8
BLACK
6
CONTINUOUS
10
160.3268579999999872
20
-79.3881370000000004
11
166.1078239999999937
21
-82.7257979999999975
0
LINE
8
BLACK
6
CONTINUOUS
10
188.4797629999999913
20
-109.3550589999999971
11
187.6137369999999862
21
-109.8550589999999971
0
ARC
8
BLACK
10
263.7427999999999884
20
-50.1869999999999976
40
0.5001141613281912
50
-119.98693667
51
-30.01639449
0
ARC
8
BLACK
10
211.2560000000000002
20
-54.524799999999999
40
0.5000980196821418
50
-209.98868506
51
-120.01296426
0
LINE
8
BLACK
6
CONTINUOUS
10
64.5952619999999911
20
-61.1612930000000006
11
65.5952619999999911
21
-61.1612930000000006
0
LINE
8
BLACK
6
CONTINUOUS
10
15.
20
-15.
11
283.
21
-15.
0
ARC
8
BLACK
10
247.3637999999999977
20
-109.421999999999997
40
0.5000086013760163
50
-149.99900457
51
-60.00890460
0
LINE
8
BLACK
6
CONTINUOUS
10
61.0947689999999994
20
-77.2494779999999963
11
55.3137779999999992
21
-80.587097
0
ARC
8
BLACK
10
111.5952999999999946
20
-40.3365999999999971
40
0.4999880014440346
50
-180.00137499
51
-90.00435458
0
LINE
8
BLACK
6
CONTINUOUS
10
158.4797629999999913
20
-49.3550589999999971
11
157.6137369999999862
21
-49.8550589999999971
0
LINE
8
BLACK
6
CONTINUOUS
10
53.4477629999999948
20
-79.3550589999999971
11
52.5817369999999968
21
-79.8550589999999971
0
ARC
8
BLACK
10
175.0768999999999949
20
-49.8213000000000008
40
0.5001130091659284
50
60.01277670
51
149.98749850
0
ARC
8
BLACK
10
187.3637999999999977
20
-109.421999999999997
40
0.5000086013760163
50
-149.99900457
51
-60.00890460
0
LINE
8
BLACK
6
CONTINUOUS
10
187.6268019999999979
20
-80.1201939999999979
11
188.4928270000000055
21
-80.6201939999999979
0
ARC
8
BLACK
10
130.0768999999999949
20
-79.8212999999999937
40
0.5001130091659284
50
60.01277670
51
149.98749850
0
LINE
8
BLACK
6
CONTINUOUS
10
220.3588579999999979
20
-19.3881370000000004
11
226.139823999999976
21
-22.7257979999999975
0
ARC
8
BLACK
10
21.5952999999999982
20
-100.33659999999999
40
0.4999880014440346
50
-180.00137499
51
-90.00435458
0
ARC
8
BLACK
10
245.6271999999999878
20
-60.6611999999999938
40
0.5000620086479276
50
-89.99289664
51
-0.01065569
0
ARC
8
BLACK
10
240.8588000000000022
20
-72.7852000000000032
40
0.4998538327351307
50
29.98325825
51
120.00782048
0
LINE
8
BLACK
6
CONTINUOUS
10
173.4477629999999806
20
-79.3550589999999971
11
172.5817370000000039
21
-79.8550589999999971
0
LINE
8
BLACK
6
CONTINUOUS
10
196.2918259999999862
20
-42.5353609999999946
11
197.0418259999999862
21
-43.8343989999999977
0
ARC
8
BLACK
10
211.6085999999999956
20
-74.0842999999999989
40
0.5001352585821159
50
-59.98445817
51
29.97796020
0
LINE
8
BLACK
6
CONTINUOUS
10
45.9738529999999983
20
-84.9578410000000019
11
46.8398779999999988
21
-85.4578410000000019
0
LINE
8
BLACK
6
CONTINUOUS
10
96.1617889999999989
20
-81.6022449999999964
11
96.9117889999999989
21
-80.3032070000000004
0
ARC
8
BLACK
10
140.5952000000000055
20
-90.6611999999999938
40
0.5000620086479276
50
-89.99289664
51
-0.01065569
0
ARC
8
BLACK
10
120.8397999999999968
20
-57.1896999999999949
40
0.5001638243065966
50
-119.98124626
51
-30.01456300
0
ARC
8
BLACK
10
170.6272999999999911
20
-99.33659999999999
40
0.5000120014439653
50
0.00137520
51
90.00435437
0
LINE
8
BLACK
6
CONTINUOUS
10
225.8097759999999994
20
-45.7004249999999956
11
226.3097839999999792
21
-46.5664639999999963
0
LINE
8
BLACK
6
CONTINUOUS
10
190.3588579999999979
20
-19.3881370000000004
11
196.1398240000000044
21
-22.7257979999999975
0
ARC
8
BLACK
10
45.8267999999999986
20
-102.785199999999989
40
0.4998538327351307
50
29.98325825
51
120.00782048
0
ARC
8
BLACK
10
216.6271999999999878
20
-59.6611999999999938
40
0.4999380086500725
50
-270.00710600
51
-179.98934166
0
LINE
8
BLACK
6
CONTINUOUS
10
122.0228910000000013
20
-56.1408539999999974
11
121.2728910000000013
21
-57.4398920000000004
0
ARC
8
BLACK
10
220.095799999999997
20
-50.1541999999999959
40
0.4998888007277218
50
-150.01271775
51
-59.99555304
0
ARC
8
BLACK
10
127.3447999999999922
20
-20.5533000000000001
40
0.5000450327420521
50
60.00514627
51
149.99067408
0
LINE
8
BLACK
6
CONTINUOUS
10
271.0058530000000019
20
-54.9578409999999948
11
271.8718779999999811
21
-55.4578409999999948
0
ARC
8
BLACK
10
52.3317999999999941
20
-79.421999999999997
40
0.5000086013760163
50
-149.99900457
51
-60.00890460
0
ARC
8
BLACK
10
97.3447999999999922
20
-20.5533000000000001
40
0.5000450327420521
50
60.00514627
51
149.99067408
0
LINE
8
BLACK
6
CONTINUOUS
10
136.8268139999999846
20
-44.5174120000000002
11
135.960788000000008
21
-45.0174120000000002
0
LINE
8
BLACK
6
CONTINUOUS
10
96.0952619999999911
20
-70.3365879999999919
11
96.0952619999999911
21
-69.3365879999999919
0
ARC
8
BLACK
10
141.5952000000000055
20
-89.6611999999999938
40
0.4999380086500725
50
-270.00710600
51
-179.98934166
0
LINE
8
BLACK
6
CONTINUOUS
10
135.9738529999999912
20
-84.9578410000000019
11
136.8398779999999988
21
-85.4578410000000019
0
LINE
8
BLACK
6
CONTINUOUS
10
99.6307679999999891
20
-50.404083
11
99.1307759999999973
21
-49.5380719999999997
0
LINE
8
BLACK
6
CONTINUOUS
10
151.2598260000000039
20
-72.5353609999999946
11
152.0098260000000039
21
-73.8343989999999906
0
LINE
8
BLACK
6
CONTINUOUS
10
246.1272620000000018
20
-70.3365879999999919
11
246.1272620000000018
21
-69.3365879999999919
0
ARC
8
BLACK
10
142.3447999999999922
20
-50.5533000000000001
40
0.5000450327420521
50
60.00514627
51
149.99067408
0
ARC
8
BLACK
10
38.710799999999999
20
-80.1869999999999976
40
0.5001141613281912
50
-119.98693667
51
-30.01639449
0
LINE
8
BLACK
6
CONTINUOUS
10
111.1617889999999989
20
-51.6022449999999964
11
111.9117889999999989
21
-50.3032070000000004
0
LINE
8
BLACK
6
CONTINUOUS
10
216.9307249999999954
20
-109.6720459999999946
11
216.1807249999999954
21
-108.3730079999999987
0
LINE
8
BLACK
6
CONTINUOUS
10
34.5952619999999982
20
-61.1612930000000006
11
35.5952619999999982
21
-61.1612930000000006
0
ARC
8
BLACK
10
231.6272999999999911
20
-40.3365999999999971
40
0.4999880014440346
50
-180.00137499
51
-90.00435458
0
LINE
8
BLACK
6
CONTINUOUS
10
113.5952619999999911
20
-29.661292999999997
11
113.5952619999999911
21
-40.336587999999999
0
ARC
8
BLACK
10
83.6978000000000009
20
-79.7881
40
0.5000430072003808
50
30.00488173
51
120.00205031
0
ARC
8
BLACK
10
121.5765999999999991
20
-74.0842999999999989
40
0.5001352585821159
50
-59.98445817
51
29.97796020
0
ARC
8
BLACK
10
66.5947999999999922
20
-21.8521999999999998
40
0.5000382299064742
50
-209.99563154
51
-119.99720634
0
ARC
8
BLACK
10
100.0768999999999949
20
-19.8213000000000008
40
0.5001130091659284
50
60.01277670
51
149.98749850
0
ARC
8
BLACK
10
46.2239999999999966
20
-24.524799999999999
40
0.5000980196821418
50
-209.98868506
51
-120.01296426
0
LINE
8
BLACK
6
CONTINUOUS
10
151.2908359999999846
20
-53.4088099999999955
11
150.7908400000000029
21
-54.2748289999999969
0
ARC
8
BLACK
10
81.5814999999999912
20
-78.1229000000000013
40
0.4998481892424939
50
-240.01729889
51
-149.97565546
0
ARC
8
BLACK
10
76.2107999999999919
20
-45.4503999999999948
40
0.5000222847043919
50
-239.99739374
51
-149.99816644
0
ARC
8
BLACK
10
230.6271999999999878
20
-90.6611999999999938
40
0.5000620086479276
50
-89.99289664
51
-0.01065569
0
LINE
8
BLACK
6
CONTINUOUS
10
36.8987249999999989
20
-49.6720459999999946
11
36.1487249999999989
21
-48.3730079999999987
0
LINE
8
BLACK
6
CONTINUOUS
10
200.6272620000000018
20
-98.8365879999999919
11
199.6272620000000018
21
-98.8365879999999919
0
ARC
8
BLACK
10
145.0768999999999949
20
-49.8213000000000008
40
0.5001130091659284
50
60.01277670
51
149.98749850
0
ARC
8
BLACK
10
121.5899000000000001
20
-55.8907999999999987
40
0.4999424928579286
50
-30.00660224
51
59.99910627
0
LINE
8
BLACK
6
CONTINUOUS
10
189.6627679999999998
20
-50.404083
11
189.1627759999999796
21
-49.5380719999999997
0
ARC
8
BLACK
10
171.5815000000000055
20
-78.1229000000000013
40
0.4998481892424939
50
-240.01729889
51
-149.97565546
0
ARC
8
BLACK
10
126.5952999999999946
20
-70.33659999999999
40
0.4999880014440346
50
-180.00137499
51
-90.00435458
0
LINE
8
BLACK
6
CONTINUOUS
10
187.6268019999999979
20
-20.1201939999999979
11
188.4928270000000055
21
-20.6201939999999979
0
ARC
8
BLACK
10
76.5899000000000001
20
-25.8907999999999987
40
0.4999424928579286
50
-30.00660224
51
59.99910627
0
ARC
8
BLACK
10
220.095799999999997
20
-110.1541999999999888
40
0.4998888007277218
50
-150.01271775
51
-59.99555304
0
ARC
8
BLACK
10
166.5765999999999849
20
-104.0842999999999989
40
0.5001352585821159
50
-59.98445817
51
29.97796020
0
LINE
8
BLACK
6
CONTINUOUS
10
47.0228910000000013
20
-26.1408539999999974
11
46.2728910000000013
21
-27.4398920000000004
0
LINE
8
BLACK
6
CONTINUOUS
10
248.1272620000000018
20
-70.8365879999999919
11
246.6272620000000018
21
-70.8365879999999919
0
LINE
8
BLACK
6
CONTINUOUS
10
111.0952619999999911
20
-90.6612930000000006
11
111.0952619999999911
21
-89.6612930000000006
0
LINE
8
BLACK
6
CONTINUOUS
10
246.3637369999999862
20
-47.6899960000000007
11
255.6088139999999953
21
-42.3523479999999992
0
ARC
8
BLACK
10
60.8445999999999998
20
-76.8164000000000016
40
0.5001163684103931
50
-59.98697356
51
29.98383779
0
ARC
8
BLACK
10
195.8765999999999963
20
-46.8163999999999945
40
0.5001163684103931
50
-59.98697356
51
29.98383779
0
ARC
8
BLACK
10
112.3447999999999922
20
-50.5533000000000001
40
0.5000450327420521
50
60.00514627
51
149.99067408
0
LINE
8
BLACK
6
CONTINUOUS
10
180.9738529999999912
20
-54.9578409999999948
11
181.8398779999999988
21
-55.4578409999999948
0
LINE
8
BLACK
6
CONTINUOUS
10
120.9738529999999912
20
-54.9578409999999948
11
121.8398779999999988
21
-55.4578409999999948
0
LINE
8
BLACK
6
CONTINUOUS
10
106.2598259999999897
20
-102.5353609999999946
11
107.0098259999999897
21
-103.8343989999999906
0
ARC
8
BLACK
10
169.6271999999999878
20
-91.6611999999999938
40
0.4999380086500725
50
-270.00710600
51
-179.98934166
0
LINE
8
BLACK
6
CONTINUOUS
10
265.3588579999999979
20
-49.3881370000000004
11
271.139823999999976
21
-52.7257979999999975
0
LINE
8
BLACK
6
CONTINUOUS
10
203.6272620000000018
20
-89.6612930000000006
11
203.6272620000000018
21
-100.3365879999999919
0
LINE
8
BLACK
6
CONTINUOUS
10
241.0058530000000019
20
-54.9578409999999948
11
241.8718779999999811
21
-55.4578409999999948
0
LINE
8
BLACK
6
CONTINUOUS
10
106.0947689999999994
20
-107.2494779999999963
11
100.3137779999999992
21
-110.587097
0
LINE
8
BLACK
6
CONTINUOUS
10
128.4477629999999806
20
-49.3550589999999971
11
127.5817369999999897
21
-49.8550589999999971
0
LINE
8
BLACK
6
CONTINUOUS
10
186.1272620000000018
20
-70.3365879999999919
11
186.1272620000000018
21
-69.3365879999999919
0
LINE
8
BLACK
6
CONTINUOUS
10
165.6218779999999811
20
-27.6229049999999994
11
156.3768019999999979
21
-22.2852579999999989
0
ARC
8
BLACK
10
83.7107999999999919
20
-50.1869999999999976
40
0.5001141613281912
50
-119.98693667
51
-30.01639449
0
LINE
8
BLACK
6
CONTINUOUS
10
143.5952619999999911
20
-89.6612930000000006
11
143.5952619999999911
21
-100.3365879999999919
0
LINE
8
BLACK
6
CONTINUOUS
10
201.6272620000000018
20
-29.161292999999997
11
203.1272620000000018
21
-29.161292999999997
0
ARC
8
BLACK
10
173.7108000000000061
20
-50.1869999999999976
40
0.5001141613281912
50
-119.98693667
51
-30.01639449
0
ARC
8
BLACK
10
226.6218999999999824
20
-85.8907999999999987
40
0.4999424928579286
50
-30.00660224
51
59.99910627
0
ARC
8
BLACK
10
90.8267999999999915
20
-72.7852000000000032
40
0.4998538327351307
50
29.98325825
51
120.00782048
0
ARC
8
BLACK
10
36.5814999999999984
20
-108.1229000000000013
40
0.4998481892424939
50
-240.01729889
51
-149.97565546
0
LINE
8
BLACK
6
CONTINUOUS
10
34.0952619999999982
20
-68.3365879999999919
11
34.0952619999999982
21
-61.6612930000000006
0
LINE
8
BLACK
6
CONTINUOUS
10
217.6268019999999979
20
-80.1201939999999979
11
218.492826999999977
21
-80.6201939999999979
0
ARC
8
BLACK
10
94.5952999999999946
20
-68.33659999999999
40
0.4999880014440346
50
-180.00137499
51
-90.00435458
0
ARC
8
BLACK
10
23.0952999999999982
20
-29.6612999999999971
40
0.5000070014439798
50
0.00080220
51
90.00435442
0
LINE
8
BLACK
6
CONTINUOUS
10
128.4477629999999806
20
-109.3550589999999971
11
127.5817369999999897
21
-109.8550589999999971
0
ARC
8
BLACK
10
250.1088999999999771
20
-19.8213000000000008
40
0.5001130091659284
50
60.01277670
51
149.98749850
0
ARC
8
BLACK
10
246.6268000000000029
20
-81.8521999999999963
40
0.5000382299064742
50
-209.99563154
51
-119.99720634
0
LINE
8
BLACK
6
CONTINUOUS
10
61.2908359999999988
20
-53.4088099999999955
11
60.7908399999999958
21
-54.2748289999999969
0
ARC
8
BLACK
10
76.5765999999999991
20
-104.0842999999999989
40
0.5001352585821159
50
-59.98445817
51
29.97796020
0
ARC
8
BLACK
10
157.3637999999999977
20
-49.421999999999997
40
0.5000086013760163
50
-149.99900457
51
-60.00890460
0
ARC
8
BLACK
10
136.2239999999999895
20
-84.524799999999999
40
0.5000980196821418
50
-209.98868506
51
-120.01296426
0
ARC
8
BLACK
10
166.2560000000000002
20
-24.524799999999999
40
0.5000980196821418
50
-209.98868506
51
-120.01296426
0
ARC
8
BLACK
10
151.5765999999999849
20
-74.0842999999999989
40
0.5001352585821159
50
-59.98445817
51
29.97796020
0
LINE
8
BLACK
6
CONTINUOUS
10
246.9307249999999954
20
-49.6720459999999946
11
246.1807249999999954
21
-48.3730079999999987
0
ARC
8
BLACK
10
70.0638000000000005
20
-110.1541999999999888
40
0.4998888007277218
50
-150.01271775
51
-59.99555304
0
ARC
8
BLACK
10
196.2560000000000002
20
-24.524799999999999
40
0.5000980196821418
50
-209.98868506
51
-120.01296426
0
LINE
8
BLACK
6
CONTINUOUS
10
169.6272620000000018
20
-31.161292999999997
11
170.6272620000000018
21
-31.161292999999997
0
LINE
8
BLACK
6
CONTINUOUS
10
126.3317369999999897
20
-107.6899959999999936
11
135.5768139999999846
21
-102.3523479999999921
0
ARC
8
BLACK
10
185.6271999999999878
20
-60.6611999999999938
40
0.5000620086479276
50
-89.99289664
51
-0.01065569
0
ARC
8
BLACK
10
201.6272999999999911
20
-100.33659999999999
40
0.4999880014440346
50
-180.00137499
51
-90.00435458
0
ARC
8
BLACK
10
115.0768999999999949
20
-49.8213000000000008
40
0.5001130091659284
50
60.01277670
51
149.98749850
0
LINE
8
BLACK
6
CONTINUOUS
10
112.5948020000000014
20
-50.1201939999999979
11
113.4608269999999948
21
-50.6201939999999979
0
ARC
8
BLACK
10
106.5765999999999991
20
-104.0842999999999989
40
0.5001352585821159
50
-59.98445817
51
29.97796020
0
ARC
8
BLACK
10
165.8267999999999915
20
-102.785199999999989
40
0.4998538327351307
50
29.98325825
51
120.00782048
0
LINE
8
BLACK
6
CONTINUOUS
10
141.0952619999999911
20
-100.3365879999999919
11
141.0952619999999911
21
-99.3365879999999919
0
ARC
8
BLACK
10
38.6978000000000009
20
-49.7881
40
0.5000430072003808
50
30.00488173
51
120.00205031
0
LINE
8
BLACK
6
CONTINUOUS
10
66.8987249999999989
20
-49.6720459999999946
11
66.1487249999999989
21
-48.3730079999999987
0
LINE
8
BLACK
6
CONTINUOUS
10
156.0952619999999911
20
-60.6612930000000006
11
156.0952619999999911
21
-59.6612930000000006
0
ARC
8
BLACK
10
216.6134999999999877
20
-48.1229000000000013
40
0.4998481892424939
50
-240.01729889
51
-149.97565546
0
ARC
8
BLACK
10
96.5814999999999912
20
-108.1229000000000013
40
0.4998481892424939
50
-240.01729889
51
-149.97565546
0
LINE
8
BLACK
6
CONTINUOUS
10
106.8268139999999988
20
-44.5174120000000002
11
105.9607879999999938
21
-45.0174120000000002
0
ARC
8
BLACK
10
188.1272999999999911
20
-59.6612999999999971
40
0.5000070014439798
50
0.00080220
51
90.00435442
0
LINE
8
BLACK
6
CONTINUOUS
10
219.6627679999999998
20
-110.404083
11
219.1627759999999796
21
-109.5380719999999997
0
ARC
8
BLACK
10
66.5952999999999946
20
-70.33659999999999
40
0.4999880014440346
50
-180.00137499
51
-90.00435458
0
CIRCLE
8
BLACK
10
140.1680000000000064
20
-65.
40
2.
0
LINE
8
BLACK
6
CONTINUOUS
10
189.1758399999999938
20
-80.4371809999999954
11
189.6758439999999837
21
-79.5711489999999912
0
ARC
8
BLACK
10
110.5952999999999946
20
-99.33659999999999
40
0.5000120014439653
50
0.00137520
51
90.00435437
0
ARC
8
BLACK
10
38.0950999999999951
20
-70.3365000000000009
40
0.5001620077414917
50
-89.98143943
51
-0.01008079
0
ARC
8
BLACK
10
105.8267999999999915
20
-42.7851999999999961
40
0.4998538327351307
50
29.98325825
51
120.00782048
0
ARC
8
BLACK
10
55.0638000000000005
20
-80.154200000000003
40
0.4998888007277218
50
-150.01271775
51
-59.99555304
0
ARC
8
BLACK
10
218.7297999999999831
20
-49.7881
40
0.5000430072003808
50
30.00488173
51
120.00205031
0
ARC
8
BLACK
10
261.6134999999999877
20
-78.1229000000000013
40
0.4998481892424939
50
-240.01729889
51
-149.97565546
0
LINE
8
BLACK
6
CONTINUOUS
10
128.5952619999999911
20
-59.6612930000000006
11
128.5952619999999911
21
-70.3365879999999919
0
LINE
8
BLACK
6
CONTINUOUS
10
156.3637369999999862
20
-47.6899960000000007
11
165.6088139999999953
21
-42.3523479999999992
0
LINE
8
BLACK
6
CONTINUOUS
10
226.0058530000000019
20
-24.9578409999999984
11
226.8718779999999811
21
-25.4578409999999984
0
LINE
8
BLACK
6
CONTINUOUS
10
171.6272620000000018
20
-89.1612930000000006
11
173.1272620000000018
21
-89.1612930000000006
0
LINE
8
BLACK
6
CONTINUOUS
10
166.2918259999999862
20
-42.5353609999999946
11
167.0418259999999862
21
-43.8343989999999977
0
LINE
8
BLACK
6
CONTINUOUS
10
98.5952619999999911
20
-59.6612930000000006
11
98.5952619999999911
21
-70.3365879999999919
0
LINE
8
BLACK
6
CONTINUOUS
10
46.0947689999999994
20
-47.2494779999999963
11
40.3137779999999992
21
-50.587097
0
LINE
8
BLACK
6
CONTINUOUS
10
156.0952619999999911
20
-70.3365879999999919
11
156.0952619999999911
21
-69.3365879999999919
0
ARC
8
BLACK
10
97.3447999999999922
20
-80.553299999999993
40
0.5000450327420521
50
60.00514627
51
149.99067408
0
LINE
8
BLACK
6
CONTINUOUS
10
188.4797629999999913
20
-49.3550589999999971
11
187.6137369999999862
21
-49.8550589999999971
0
LINE
8
BLACK
6
CONTINUOUS
10
97.5948020000000014
20
-20.1201939999999979
11
98.4608269999999948
21
-20.6201939999999979
0
ARC
8
BLACK
10
68.0951000000000022
20
-70.3365000000000009
40
0.5001620077414917
50
-89.98143943
51
-0.01008079
0
LINE
8
BLACK
6
CONTINUOUS
10
76.2908359999999988
20
-83.4088100000000026
11
75.7908400000000029
21
-84.2748289999999969
0
ARC
8
BLACK
10
188.7297999999999831
20
-109.7881
40
0.5000430072003808
50
30.00488173
51
120.00205031
0
LINE
8
BLACK
6
CONTINUOUS
10
196.1267689999999959
20
-107.2494779999999963
11
190.3457779999999957
21
-110.587097
0
LINE
8
BLACK
6
CONTINUOUS
10
111.3317369999999897
20
-77.6899959999999936
11
120.5768139999999988
21
-72.3523479999999921
0
LINE
8
BLACK
6
CONTINUOUS
10
105.9738529999999912
20
-84.9578410000000019
11
106.8398779999999988
21
-85.4578410000000019
0
ARC
8
BLACK
10
83.0951000000000022
20
-40.3365000000000009
40
0.5001620077414917
50
-89.98143943
51
-0.01008079
0
LINE
8
BLACK
6
CONTINUOUS
10
111.5952619999999911
20
-29.161292999999997
11
113.0952619999999911
21
-29.161292999999997
0
LINE
8
BLACK
6
CONTINUOUS
10
173.1272620000000018
20
-40.836587999999999
11
171.6272620000000018
21
-40.836587999999999
0
ARC
8
BLACK
10
248.7427999999999884
20
-20.1869999999999976
40
0.5001141613281912
50
-119.98693667
51
-30.01639449
0
LINE
8
BLACK
6
CONTINUOUS
10
283.
20
-115.
11
15.
21
-115.
0
ARC
8
BLACK
10
156.6268000000000029
20
-21.8521999999999998
40
0.5000382299064742
50
-209.99563154
51
-119.99720634
0
ARC
8
BLACK
10
75.8267999999999915
20
-42.7851999999999961
40
0.4998538327351307
50
29.98325825
51
120.00782048
0
ARC
8
BLACK
10
51.5951999999999984
20
-89.6611999999999938
40
0.4999380086500725
50
-270.00710600
51
-179.98934166
0
ARC
8
BLACK
10
45.8267999999999986
20
-42.7851999999999961
40
0.4998538327351307
50
29.98325825
51
120.00782048
0
ARC
8
BLACK
10
82.3318000000000012
20
-79.421999999999997
40
0.5000086013760163
50
-149.99900457
51
-60.00890460
0
LINE
8
BLACK
6
CONTINUOUS
10
257.0548909999999978
20
-86.1408539999999903
11
256.3048909999999978
21
-87.4398920000000004
0
ARC
8
BLACK
10
126.5814999999999912
20
-48.1229000000000013
40
0.4998481892424939
50
-240.01729889
51
-149.97565546
0
ARC
8
BLACK
10
250.1088999999999771
20
-79.8212999999999937
40
0.5001130091659284
50
60.01277670
51
149.98749850
0
ARC
8
BLACK
10
128.7108000000000061
20
-80.1869999999999976
40
0.5001141613281912
50
-119.98693667
51
-30.01639449
0
LINE
8
BLACK
6
CONTINUOUS
10
76.0947689999999994
20
-47.2494779999999963
11
70.3137779999999992
21
-50.587097
0
LINE
8
BLACK
6
CONTINUOUS
10
75.9738529999999912
20
-24.9578409999999984
11
76.8398779999999988
21
-25.4578409999999984
0
LINE
8
BLACK
6
CONTINUOUS
10
139.1272620000000018
20
-38.336587999999999
11
139.1272620000000018
21
-31.661292999999997
0
LINE
8
BLACK
6
CONTINUOUS
10
218.1272620000000018
20
-70.8365879999999919
11
216.6272620000000018
21
-70.8365879999999919
0
ARC
8
BLACK
10
248.7297999999999831
20
-49.7881
40
0.5000430072003808
50
30.00488173
51
120.00205031
0
LINE
8
BLACK
6
CONTINUOUS
10
94.0952619999999911
20
-68.3365879999999919
11
94.0952619999999911
21
-61.6612930000000006
0
ARC
8
BLACK
10
195.871799999999979
20
-87.189700000000002
40
0.5001638243065966
50
-119.98124626
51
-30.01456300
0
LINE
8
BLACK
6
CONTINUOUS
10
186.3637369999999862
20
-47.6899960000000007
11
195.6088139999999953
21
-42.3523479999999992
0
ARC
8
BLACK
10
53.0950999999999951
20
-40.3365000000000009
40
0.5001620077414917
50
-89.98143943
51
-0.01008079
0
ARC
8
BLACK
10
256.6218999999999824
20
-85.8907999999999987
40
0.4999424928579286
50
-30.00660224
51
59.99910627
0
LINE
8
BLACK
6
CONTINUOUS
10
53.0952619999999982
20
-40.836587999999999
11
51.5952619999999982
21
-40.836587999999999
0
ARC
8
BLACK
10
195.8765999999999963
20
-106.8164000000000016
40
0.5001163684103931
50
-59.98697356
51
29.98383779
0
LINE
8
BLACK
6
CONTINUOUS
10
229.6272620000000018
20
-91.1612930000000006
11
230.6272620000000018
21
-91.1612930000000006
0
LINE
8
BLACK
6
CONTINUOUS
10
204.6627679999999998
20
-80.404083
11
204.1627759999999796
21
-79.5380719999999997
0
LINE
8
BLACK
6
CONTINUOUS
10
94.5952619999999911
20
-61.1612930000000006
11
95.5952619999999911
21
-61.1612930000000006
0
ARC
8
BLACK
10
203.1270999999999844
20
-100.3365000000000009
40
0.5001620077414917
50
-89.98143943
51
-0.01008079
0
LINE
8
BLACK
6
CONTINUOUS
10
126.1617889999999989
20
-21.6022449999999999
11
126.9117889999999989
21
-20.3032070000000004
0
LINE
8
BLACK
6
CONTINUOUS
10
154.5952619999999911
20
-61.1612930000000006
11
155.5952619999999911
21
-61.1612930000000006
0
LINE
8
BLACK
6
CONTINUOUS
10
226.1267689999999959
20
-107.2494779999999963
11
220.3457779999999957
21
-110.587097
0
ARC
8
BLACK
10
61.2239999999999966
20
-54.524799999999999
40
0.5000980196821418
50
-209.98868506
51
-120.01296426
0
ARC
8
BLACK
10
261.6268000000000029
20
-51.8521999999999963
40
0.5000382299064742
50
-209.99563154
51
-119.99720634
0
LINE
8
BLACK
6
CONTINUOUS
10
100.3268580000000014
20
-19.3881370000000004
11
106.1078239999999937
21
-22.7257979999999975
0
ARC
8
BLACK
10
241.2560000000000002
20
-54.524799999999999
40
0.5000980196821418
50
-209.98868506
51
-120.01296426
0
LINE
8
BLACK
6
CONTINUOUS
10
225.8097759999999994
20
-105.7004249999999956
11
226.3097839999999792
21
-106.5664639999999963
0
LINE
8
BLACK
6
CONTINUOUS
10
201.6272620000000018
20
-89.1612930000000006
11
203.1272620000000018
21
-89.1612930000000006
0
ARC
8
BLACK
10
166.6218999999999824
20
-25.8907999999999987
40
0.4999424928579286
50
-30.00660224
51
59.99910627
0
LINE
8
BLACK
6
CONTINUOUS
10
174.6307679999999891
20
-80.404083
11
174.1307759999999973
21
-79.5380719999999997
0
ARC
8
BLACK
10
187.3768000000000029
20
-20.5533000000000001
40
0.5000450327420521
50
60.00514627
51
149.99067408
0
CIRCLE
8
BLACK
10
35.1679999999999993
20
-95.
40
2.
0
ARC
8
BLACK
10
246.6134999999999877
20
-48.1229000000000013
40
0.4998481892424939
50
-240.01729889
51
-149.97565546
0
LINE
8
BLACK
6
CONTINUOUS
10
23.5952619999999982
20
-89.6612930000000006
11
23.5952619999999982
21
-100.3365879999999919
0
LINE
8
BLACK
6
CONTINUOUS
10
232.6268019999999979
20
-50.1201939999999979
11
233.492826999999977
21
-50.6201939999999979
0
LINE
8
BLACK
6
CONTINUOUS
10
211.3228359999999952
20
-53.4088099999999955
11
210.8228399999999851
21
-54.2748289999999969
0
ARC
8
BLACK
10
256.6085999999999672
20
-104.0842999999999989
40
0.5001352585821159
50
-59.98445817
51
29.97796020
0
ARC
8
BLACK
10
231.6271999999999878
20
-29.6611999999999973
40
0.4999380086500725
50
-270.00710600
51
-179.98934166
0
LINE
8
BLACK
6
CONTINUOUS
10
256.1267689999999675
20
-47.2494779999999963
11
250.3457779999999957
21
-50.587097
0
ARC
8
BLACK
10
181.2239999999999895
20
-54.524799999999999
40
0.5000980196821418
50
-209.98868506
51
-120.01296426
0
LINE
8
BLACK
6
CONTINUOUS
10
196.8588139999999953
20
-44.5174120000000002
11
195.9927879999999902
21
-45.0174120000000002
0
ARC
8
BLACK
10
155.5952000000000055
20
-60.6611999999999938
40
0.5000620086479276
50
-89.99289664
51
-0.01065569
0
LINE
8
BLACK
6
CONTINUOUS
10
166.8588139999999953
20
-44.5174120000000002
11
165.9927879999999902
21
-45.0174120000000002
0
LINE
8
BLACK
6
CONTINUOUS
10
61.2598259999999968
20
-72.5353609999999946
11
62.0098259999999968
21
-73.8343989999999906
0
LINE
8
BLACK
6
CONTINUOUS
10
216.6272620000000018
20
-59.1612930000000006
11
218.1272620000000018
21
-59.1612930000000006
0
ARC
8
BLACK
10
110.5951999999999913
20
-30.6611999999999973
40
0.5000620086479276
50
-89.99289664
51
-0.01065569
0
ARC
8
BLACK
10
226.6218999999999824
20
-25.8907999999999987
40
0.4999424928579286
50
-30.00660224
51
59.99910627
0
LINE
8
BLACK
6
CONTINUOUS
10
235.3588579999999979
20
-49.3881370000000004
11
241.139823999999976
21
-52.7257979999999975
0
ARC
8
BLACK
10
127.3318000000000012
20
-109.421999999999997
40
0.5000086013760163
50
-149.99900457
51
-60.00890460
0
LINE
8
BLACK
6
CONTINUOUS
10
83.4477629999999948
20
-79.3550589999999971
11
82.5817369999999897
21
-79.8550589999999971
0
ARC
8
BLACK
10
121.2239999999999895
20
-54.524799999999999
40
0.5000980196821418
50
-209.98868506
51
-120.01296426
0
LINE
8
BLACK
6
CONTINUOUS
10
255.8097759999999994
20
-45.7004249999999956
11
256.3097839999999792
21
-46.5664639999999963
0
ARC
8
BLACK
10
157.3768000000000029
20
-20.5533000000000001
40
0.5000450327420521
50
60.00514627
51
149.99067408
0
LINE
8
BLACK
6
CONTINUOUS
10
69.6307680000000033
20
-110.404083
11
69.1307759999999973
21
-109.5380719999999997
0
ARC
8
BLACK
10
248.7297999999999831
20
-109.7881
40
0.5000430072003808
50
30.00488173
51
120.00205031
0
ARC
8
BLACK
10
165.8445999999999856
20
-106.8164000000000016
40
0.5001163684103931
50
-59.98697356
51
29.98383779
0
LINE
8
BLACK
6
CONTINUOUS
10
111.0952619999999911
20
-40.336587999999999
11
111.0952619999999911
21
-39.336587999999999
0
LINE
8
BLACK
6
CONTINUOUS
10
105.7777759999999887
20
-105.7004249999999956
11
106.2777839999999969
21
-106.5664639999999963
0
ARC
8
BLACK
10
136.5899000000000001
20
-85.8907999999999987
40
0.4999424928579286
50
-30.00660224
51
59.99910627
0
ARC
8
BLACK
10
256.6085999999999672
20
-44.0842999999999989
40
0.5001352585821159
50
-59.98445817
51
29.97796020
0
ARC
8
BLACK
10
111.5952999999999946
20
-100.33659999999999
40
0.4999880014440346
50
-180.00137499
51
-90.00435458
0
LINE
8
BLACK
6
CONTINUOUS
10
66.5952619999999911
20
-59.1612930000000006
11
68.0952619999999911
21
-59.1612930000000006
0
ARC
8
BLACK
10
262.3768000000000029
20
-50.5533000000000001
40
0.5000450327420521
50
60.00514627
51
149.99067408
0
ARC
8
BLACK
10
67.3318000000000012
20
-49.421999999999997
40
0.5000086013760163
50
-149.99900457
51
-60.00890460
0
LINE
8
BLACK
6
CONTINUOUS
10
82.5948020000000014
20
-50.1201939999999979
11
83.4608269999999948
21
-50.6201939999999979
0
LINE
8
BLACK
6
CONTINUOUS
10
205.3588579999999979
20
-49.3881370000000004
11
211.1398240000000044
21
-52.7257979999999975
0
LINE
8
BLACK
6
CONTINUOUS
10
181.2908359999999846
20
-53.4088099999999955
11
180.7908400000000029
21
-54.2748289999999969
0
LINE
8
BLACK
6
CONTINUOUS
10
200.6272620000000018
20
-38.836587999999999
11
199.6272620000000018
21
-38.836587999999999
0
LINE
8
BLACK
6
CONTINUOUS
10
199.6272620000000018
20
-31.161292999999997
11
200.6272620000000018
21
-31.161292999999997
0
ARC
8
BLACK
10
139.6271999999999878
20
-31.6611999999999973
40
0.4999380086500725
50
-270.00710600
51
-179.98934166
0
ARC
8
BLACK
10
231.6134999999999877
20
-78.1229000000000013
40
0.4998481892424939
50
-240.01729889
51
-149.97565546
0
LINE
8
BLACK
6
CONTINUOUS
10
36.1617889999999989
20
-21.6022449999999999
11
36.9117889999999989
21
-20.3032070000000004
0
ARC
8
BLACK
10
98.6978000000000009
20
-49.7881
40
0.5000430072003808
50
30.00488173
51
120.00205031
0
LINE
8
BLACK
6
CONTINUOUS
10
203.6272620000000018
20
-29.661292999999997
11
203.6272620000000018
21
-40.336587999999999
0
LINE
8
BLACK
6
CONTINUOUS
10
197.0548909999999978
20
-26.1408539999999974
11
196.3048909999999978
21
-27.4398920000000004
0
LINE
8
BLACK
6
CONTINUOUS
10
170.6272620000000018
20
-38.836587999999999
11
169.6272620000000018
21
-38.836587999999999
0
LINE
8
BLACK
6
CONTINUOUS
10
45.9738529999999983
20
-24.9578409999999984
11
46.8398779999999988
21
-25.4578409999999984
0
ARC
8
BLACK
10
81.5951999999999913
20
-89.6611999999999938
40
0.4999380086500725
50
-270.00710600
51
-179.98934166
0
LINE
8
BLACK
6
CONTINUOUS
10
171.1617889999999989
20
-51.6022449999999964
11
171.9117889999999989
21
-50.3032070000000004
0
LINE
8
BLACK
6
CONTINUOUS
10
37.5948020000000014
20
-20.1201939999999979
11
38.4608269999999948
21
-20.6201939999999979
0
ARC
8
BLACK
10
141.6272999999999911
20
-40.3365999999999971
40
0.4999880014440346
50
-180.00137499
51
-90.00435458
0
ARC
8
BLACK
10
172.331799999999987
20
-79.421999999999997
40
0.5000086013760163
50
-149.99900457
51
-60.00890460
0
ARC
8
BLACK
10
98.7107999999999919
20
-80.1869999999999976
40
0.5001141613281912
50
-119.98693667
51
-30.01639449
0
ARC
8
BLACK
10
247.3768000000000029
20
-20.5533000000000001
40
0.5000450327420521
50
60.00514627
51
149.99067408
0
LINE
8
BLACK
6
CONTINUOUS
10
272.0548909999999978
20
-56.1408539999999974
11
271.3048909999999978
21
-57.4398920000000004
0
LINE
8
BLACK
6
CONTINUOUS
10
203.1272620000000018
20
-40.836587999999999
11
201.6272620000000018
21
-40.836587999999999
0
LINE
8
BLACK
6
CONTINUOUS
10
39.6307679999999962
20
-110.404083
11
39.1307759999999973
21
-109.5380719999999997
0
ARC
8
BLACK
10
195.889899999999983
20
-83.1587999999999994
40
0.4999527355460713
50
-30.00538775
51
60.00692966
0
LINE
8
BLACK
6
CONTINUOUS
10
46.8268139999999988
20
-104.5174119999999931
11
45.9607880000000009
21
-105.0174119999999931
0
LINE
8
BLACK
6
CONTINUOUS
10
233.6272620000000018
20
-89.6612930000000006
11
233.6272620000000018
21
-100.3365879999999919
0
ARC
8
BLACK
10
216.6134999999999877
20
-108.1229000000000013
40
0.4998481892424939
50
-240.01729889
51
-149.97565546
0
ARC
8
BLACK
10
15.
20
-114.
40
1.
50
-180.00000000
51
-90.00000000
0
ARC
8
BLACK
10
151.2239999999999895
20
-54.524799999999999
40
0.5000980196821418
50
-209.98868506
51
-120.01296426
0
LINE
8
BLACK
6
CONTINUOUS
10
98.0952619999999911
20
-70.8365879999999919
11
96.5952619999999911
21
-70.8365879999999919
0
ARC
8
BLACK
10
37.3318000000000012
20
-49.421999999999997
40
0.5000086013760163
50
-149.99900457
51
-60.00890460
0
ARC
8
BLACK
10
201.6271999999999878
20
-89.6611999999999938
40
0.4999380086500725
50
-270.00710600
51
-179.98934166
0
ARC
8
BLACK
10
173.1270999999999844
20
-40.3365000000000009
40
0.5001620077414917
50
-89.98143943
51
-0.01008079
0
LINE
8
BLACK
6
CONTINUOUS
10
152.0228909999999871
20
-56.1408539999999974
11
151.2728909999999871
21
-57.4398920000000004
0
LINE
8
BLACK
6
CONTINUOUS
10
39.1438399999999973
20
-80.4371809999999954
11
39.6438440000000014
21
-79.5711489999999912
0
ARC
8
BLACK
10
128.0952999999999804
20
-59.6612999999999971
40
0.5000070014439798
50
0.00080220
51
90.00435442
0
ARC
8
BLACK
10
229.6272999999999911
20
-98.33659999999999
40
0.4999880014440346
50
-180.00137499
51
-90.00435458
0
LINE
8
BLACK
6
CONTINUOUS
10
233.6272620000000018
20
-29.661292999999997
11
233.6272620000000018
21
-40.336587999999999
0
LINE
8
BLACK
6
CONTINUOUS
10
66.1617889999999989
20
-81.6022449999999964
11
66.9117889999999989
21
-80.3032070000000004
0
LINE
8
BLACK
6
CONTINUOUS
10
113.5952619999999911
20
-89.6612930000000006
11
113.5952619999999911
21
-100.3365879999999919
0
LINE
8
BLACK
6
CONTINUOUS
10
135.5898779999999988
20
-87.6229050000000029
11
126.3448020000000014
21
-82.2852579999999989
0
LINE
8
BLACK
6
CONTINUOUS
10
189.6627679999999998
20
-110.404083
11
189.1627759999999796
21
-109.5380719999999997
0
LINE
8
BLACK
6
CONTINUOUS
10
188.6272620000000018
20
-59.6612930000000006
11
188.6272620000000018
21
-70.3365879999999919
0
ARC
8
BLACK
10
38.710799999999999
20
-20.1869999999999976
40
0.5001141613281912
50
-119.98693667
51
-30.01639449
0
LINE
8
BLACK
6
CONTINUOUS
10
21.0952619999999982
20
-100.3365879999999919
11
21.0952619999999982
21
-99.3365879999999919
0
LINE
8
BLACK
6
CONTINUOUS
10
36.0952619999999982
20
-70.3365879999999919
11
36.0952619999999982
21
-69.3365879999999919
0
LINE
8
BLACK
6
CONTINUOUS
10
38.0952619999999982
20
-70.8365879999999919
11
36.5952619999999982
21
-70.8365879999999919
0
ARC
8
BLACK
10
255.871799999999979
20
-27.1896999999999984
40
0.5001638243065966
50
-119.98124626
51
-30.01456300
0
LINE
8
BLACK
6
CONTINUOUS
10
201.1272620000000018
20
-40.336587999999999
11
201.1272620000000018
21
-39.336587999999999
0
LINE
8
BLACK
6
CONTINUOUS
10
99.1438399999999973
20
-20.4371809999999989
11
99.6438440000000014
21
-19.5711489999999984
0
ARC
8
BLACK
10
46.5765999999999991
20
-104.0842999999999989
40
0.5001352585821159
50
-59.98445817
51
29.97796020
0
LINE
8
BLACK
6
CONTINUOUS
10
75.7777760000000029
20
-105.7004249999999956
11
76.2777839999999969
21
-106.5664639999999963
0
LINE
8
BLACK
6
CONTINUOUS
10
157.6268019999999979
20
-20.1201939999999979
11
158.4928270000000055
21
-20.6201939999999979
0
LINE
8
BLACK
6
CONTINUOUS
10
110.5952619999999911
20
-38.836587999999999
11
109.5952619999999911
21
-38.836587999999999
0
ARC
8
BLACK
10
217.3768000000000029
20
-20.5533000000000001
40
0.5000450327420521
50
60.00514627
51
149.99067408
0
LINE
8
BLACK
6
CONTINUOUS
10
19.5952619999999982
20
-91.1612930000000006
11
20.5952619999999982
21
-91.1612930000000006
0
LINE
8
BLACK
6
CONTINUOUS
10
135.9738529999999912
20
-24.9578409999999984
11
136.8398779999999988
21
-25.4578409999999984
0
LINE
8
BLACK
6
CONTINUOUS
10
96.0952619999999911
20
-60.6612930000000006
11
96.0952619999999911
21
-59.6612930000000006
0
ARC
8
BLACK
10
55.0768999999999949
20
-49.8213000000000008
40
0.5001130091659284
50
60.01277670
51
149.98749850
0
LINE
8
BLACK
6
CONTINUOUS
10
140.5952619999999911
20
-98.8365879999999919
11
139.5952619999999911
21
-98.8365879999999919
0
ARC
8
BLACK
10
79.5951999999999913
20
-31.6611999999999973
40
0.4999380086500725
50
-270.00710600
51
-179.98934166
0
ARC
8
BLACK
10
246.6134999999999877
20
-108.1229000000000013
40
0.4998481892424939
50
-240.01729889
51
-149.97565546
0
ARC
8
BLACK
10
76.5765999999999991
20
-44.0842999999999989
40
0.5001352585821159
50
-59.98445817
51
29.97796020
0
LINE
8
BLACK
6
CONTINUOUS
10
120.7777759999999887
20
-75.7004249999999956
11
121.2777839999999969
21
-76.5664639999999963
0
ARC
8
BLACK
10
136.2108000000000061
20
-105.4504000000000019
40
0.5000222847043919
50
-239.99739374
51
-149.99816644
0
CIRCLE
8
BLACK
10
125.1679999999999922
20
-95.
40
2.
0
LINE
8
BLACK
6
CONTINUOUS
10
155.5952619999999911
20
-68.8365879999999919
11
154.5952619999999911
21
-68.8365879999999919
0
ARC
8
BLACK
10
67.3447999999999922
20
-80.553299999999993
40
0.5000450327420521
50
60.00514627
51
149.99067408
0
LINE
8
BLACK
6
CONTINUOUS
10
39.6307679999999962
20
-50.404083
11
39.1307759999999973
21
-49.5380719999999997
0
LINE
8
BLACK
6
CONTINUOUS
10
186.9307249999999954
20
-109.6720459999999946
11
186.1807249999999954
21
-108.3730079999999987
0
LINE
8
BLACK
6
CONTINUOUS
10
229.6272620000000018
20
-31.161292999999997
11
230.6272620000000018
21
-31.161292999999997
0
ARC
8
BLACK
10
81.5947999999999922
20
-51.8521999999999963
40
0.5000382299064742
50
-209.99563154
51
-119.99720634
0
LINE
8
BLACK
6
CONTINUOUS
10
226.0058530000000019
20
-84.9578410000000019
11
226.8718779999999811
21
-85.4578410000000019
0
ARC
8
BLACK
10
247.3768000000000029
20
-80.553299999999993
40
0.5000450327420521
50
60.00514627
51
149.99067408
0
LINE
8
BLACK
6
CONTINUOUS
10
81.1617889999999989
20
-51.6022449999999964
11
81.9117889999999989
21
-50.3032070000000004
0
LINE
8
BLACK
6
CONTINUOUS
10
52.5948019999999943
20
-50.1201939999999979
11
53.4608269999999948
21
-50.6201939999999979
0
LINE
8
BLACK
6
CONTINUOUS
10
158.4477629999999806
20
-109.3550589999999971
11
157.5817370000000039
21
-109.8550589999999971
0
LINE
8
BLACK
6
CONTINUOUS
10
36.3317369999999968
20
-47.6899960000000007
11
45.5768139999999988
21
-42.3523479999999992
0
ARC
8
BLACK
10
139.5952000000000055
20
-91.6611999999999938
40
0.4999380086500725
50
-270.00710600
51
-179.98934166
0
LINE
8
BLACK
6
CONTINUOUS
10
171.6272620000000018
20
-29.161292999999997
11
173.1272620000000018
21
-29.161292999999997
0
LINE
8
BLACK
6
CONTINUOUS
10
50.5952619999999982
20
-98.8365879999999919
11
49.5952619999999982
21
-98.8365879999999919
0
LINE
8
BLACK
6
CONTINUOUS
10
271.8588139999999953
20
-74.5174119999999931
11
270.9927879999999618
21
-75.0174119999999931
0
LINE
8
BLACK
6
CONTINUOUS
10
66.0952619999999911
20
-60.6612930000000006
11
66.0952619999999911
21
-59.6612930000000006
0
LINE
8
BLACK
6
CONTINUOUS
10
180.5898779999999988
20
-57.6229049999999958
11
171.3448019999999872
21
-52.2852579999999989
0
LINE
8
BLACK
6
CONTINUOUS
10
105.7777759999999887
20
-45.7004249999999956
11
106.2777839999999969
21
-46.5664639999999963
0
LINE
8
BLACK
6
CONTINUOUS
10
38.4477629999999948
20
-109.3550589999999971
11
37.5817369999999968
21
-109.8550589999999971
0
LINE
8
BLACK
6
CONTINUOUS
10
166.3228359999999952
20
-23.408809999999999
11
165.8228399999999851
21
-24.2748290000000004
0
LINE
8
BLACK
6
CONTINUOUS
10
150.9738529999999912
20
-54.9578409999999948
11
151.8398779999999988
21
-55.4578409999999948
0
ARC
8
BLACK
10
15.
20
-16.
40
1.
50
90.00000000
51
180.00000000
0
LINE
8
BLACK
6
CONTINUOUS
10
219.6627679999999998
20
-50.404083
11
219.1627759999999796
21
-49.5380719999999997
0
ARC
8
BLACK
10
91.5765999999999991
20
-74.0842999999999989
40
0.5001352585821159
50
-59.98445817
51
29.97796020
0
LINE
8
BLACK
6
CONTINUOUS
10
51.1617889999999989
20
-51.6022449999999964
11
51.9117889999999989
21
-50.3032070000000004
0
ARC
8
BLACK
10
195.889899999999983
20
-23.1587999999999994
40
0.4999527355460713
50
-30.00538775
51
60.00692966
0
ARC
8
BLACK
10
113.095099999999988
20
-40.3365000000000009
40
0.5001620077414917
50
-89.98143943
51
-0.01008079
0
ARC
8
BLACK
10
196.2560000000000002
20
-84.524799999999999
40
0.5000980196821418
50
-209.98868506
51
-120.01296426
0
LINE
8
BLACK
6
CONTINUOUS
10
158.5952619999999911
20
-59.6612930000000006
11
158.5952619999999911
21
-70.3365879999999919
0
ARC
8
BLACK
10
199.6272999999999911
20
-38.3365999999999971
40
0.4999880014440346
50
-180.00137499
51
-90.00435458
0
CIRCLE
8
BLACK
10
155.1680000000000064
20
-95.
40
2.
0
ARC
8
BLACK
10
51.5814999999999984
20
-78.1229000000000013
40
0.4998481892424939
50
-240.01729889
51
-149.97565546
0
ARC
8
BLACK
10
115.0638000000000005
20
-80.154200000000003
40
0.4998888007277218
50
-150.01271775
51
-59.99555304
0
ARC
8
BLACK
10
20.5951999999999984
20
-90.6611999999999938
40
0.5000620086479276
50
-89.99289664
51
-0.01065569
0
ARC
8
BLACK
10
46.5765999999999991
20
-44.0842999999999989
40
0.5001352585821159
50
-59.98445817
51
29.97796020
0
LINE
8
BLACK
6
CONTINUOUS
10
141.0952619999999911
20
-90.6612930000000006
11
141.0952619999999911
21
-89.6612930000000006
0
ARC
8
BLACK
10
271.2427999999999884
20
-75.4504000000000019
40
0.5000222847043919
50
-239.99739374
51
-149.99816644
0
LINE
8
BLACK
6
CONTINUOUS
10
21.0952619999999982
20
-40.336587999999999
11
21.0952619999999982
21
-39.336587999999999
0
LINE
8
BLACK
6
CONTINUOUS
10
84.6307679999999891
20
-80.404083
11
84.1307759999999973
21
-79.5380719999999997
0
LINE
8
BLACK
6
CONTINUOUS
10
106.2908359999999988
20
-23.408809999999999
11
105.7908399999999887
21
-24.2748290000000004
0
LINE
8
BLACK
6
CONTINUOUS
10
35.5952619999999982
20
-68.8365879999999919
11
34.5952619999999982
21
-68.8365879999999919
0
ARC
8
BLACK
10
150.8267999999999915
20
-72.7852000000000032
40
0.4998538327351307
50
29.98325825
51
120.00782048
0
LINE
8
BLACK
6
CONTINUOUS
10
90.5898779999999988
20
-57.6229049999999958
11
81.3448020000000014
21
-52.2852579999999989
0
LINE
8
BLACK
6
CONTINUOUS
10
189.1758399999999938
20
-20.4371809999999989
11
189.6758439999999837
21
-19.5711489999999984
0
LINE
8
BLACK
6
CONTINUOUS
10
96.5952619999999911
20
-59.1612930000000006
11
98.0952619999999911
21
-59.1612930000000006
0
ARC
8
BLACK
10
68.6978000000000009
20
-109.7881
40
0.5000430072003808
50
30.00488173
51
120.00205031
0
ARC
8
BLACK
10
210.889899999999983
20
-53.1587999999999994
40
0.4999527355460713
50
-30.00538775
51
60.00692966
0
ARC
8
BLACK
10
255.8765999999999963
20
-106.8164000000000016
40
0.5001163684103931
50
-59.98697356
51
29.98383779
0
LINE
8
BLACK
6
CONTINUOUS
10
246.9307249999999954
20
-109.6720459999999946
11
246.1807249999999954
21
-108.3730079999999987
0
LINE
8
BLACK
6
CONTINUOUS
10
95.5952619999999911
20
-68.8365879999999919
11
94.5952619999999911
21
-68.8365879999999919
0
LINE
8
BLACK
6
CONTINUOUS
10
109.5952619999999911
20
-91.1612930000000006
11
110.5952619999999911
21
-91.1612930000000006
0
ARC
8
BLACK
10
160.0768999999999949
20
-79.8212999999999937
40
0.5001130091659284
50
60.01277670
51
149.98749850
0
ARC
8
BLACK
10
165.8397999999999968
20
-87.189700000000002
40
0.5001638243065966
50
-119.98124626
51
-30.01456300
0
ARC
8
BLACK
10
38.0953000000000017
20
-59.6612999999999971
40
0.5000070014439798
50
0.00080220
51
90.00435442
0
ARC
8
BLACK
10
20.5952999999999982
20
-39.3365999999999971
40
0.5000120014439653
50
0.00137520
51
90.00435437
0
ARC
8
BLACK
10
141.5815000000000055
20
-78.1229000000000013
40
0.4998481892424939
50
-240.01729889
51
-149.97565546
0
LINE
8
BLACK
6
CONTINUOUS
10
227.0548909999999978
20
-26.1408539999999974
11
226.3048909999999978
21
-27.4398920000000004
0
LINE
8
BLACK
6
CONTINUOUS
10
256.8588139999999953
20
-44.5174120000000002
11
255.9927879999999902
21
-45.0174120000000002
0
LINE
8
BLACK
6
CONTINUOUS
10
170.6272620000000018
20
-98.8365879999999919
11
169.6272620000000018
21
-98.8365879999999919
0
ARC
8
BLACK
10
109.5951999999999913
20
-31.6611999999999973
40
0.4999380086500725
50
-270.00710600
51
-179.98934166
0
ARC
8
BLACK
10
66.5951999999999913
20
-59.6611999999999938
40
0.4999380086500725
50
-270.00710600
51
-179.98934166
0
LINE
8
BLACK
6
CONTINUOUS
10
129.1438399999999831
20
-20.4371809999999989
11
129.6438440000000014
21
-19.5711489999999984
0
LINE
8
BLACK
6
CONTINUOUS
10
91.8268139999999988
20
-74.5174119999999931
11
90.9607879999999938
21
-75.0174119999999931
0
CIRCLE
8
BLACK
10
65.1679999999999922
20
-95.
40
2.
0
LINE
8
BLACK
6
CONTINUOUS
10
218.4797629999999913
20
-109.3550589999999971
11
217.6137369999999862
21
-109.8550589999999971
0
ARC
8
BLACK
10
105.8445999999999998
20
-46.8163999999999945
40
0.5001163684103931
50
-59.98697356
51
29.98383779
0
ARC
8
BLACK
10
143.1272999999999911
20
-29.6612999999999971
40
0.5000070014439798
50
0.00080220
51
90.00435442
0
ARC
8
BLACK
10
139.6272999999999911
20
-38.3365999999999971
40
0.4999880014440346
50
-180.00137499
51
-90.00435458
0
ARC
8
BLACK
10
200.6271999999999878
20
-90.6611999999999938
40
0.5000620086479276
50
-89.99289664
51
-0.01065569
0
ARC
8
BLACK
10
271.6085999999999672
20
-74.0842999999999989
40
0.5001352585821159
50
-59.98445817
51
29.97796020
0
ARC
8
BLACK
10
143.0951000000000022
20
-100.3365000000000009
40
0.5001620077414917
50
-89.98143943
51
-0.01008079
0
LINE
8
BLACK
6
CONTINUOUS
10
126.0952619999999911
20
-60.6612930000000006
11
126.0952619999999911
21
-59.6612930000000006
0
ARC
8
BLACK
10
216.6268000000000029
20
-21.8521999999999998
40
0.5000382299064742
50
-209.99563154
51
-119.99720634
0
LINE
8
BLACK
6
CONTINUOUS
10
77.0228910000000013
20
-86.1408539999999903
11
76.2728910000000013
21
-87.4398920000000004
0
LINE
8
BLACK
6
CONTINUOUS
10
51.5952619999999982
20
-29.161292999999997
11
53.0952619999999982
21
-29.161292999999997
0
ARC
8
BLACK
10
120.8579000000000008
20
-53.1587999999999994
40
0.4999527355460713
50
-30.00538775
51
60.00692966
0
ARC
8
BLACK
10
40.0768999999999949
20
-79.8212999999999937
40
0.5001130091659284
50
60.01277670
51
149.98749850
0
ARC
8
BLACK
10
170.6271999999999878
20
-90.6611999999999938
40
0.5000620086479276
50
-89.99289664
51
-0.01065569
0
ARC
8
BLACK
10
112.3318000000000012
20
-79.421999999999997
40
0.5000086013760163
50
-149.99900457
51
-60.00890460
0
LINE
8
BLACK
6
CONTINUOUS
10
196.8588139999999953
20
-104.5174119999999931
11
195.9927879999999902
21
-105.0174119999999931
0
ARC
8
BLACK
10
158.0951000000000022
20
-70.3365000000000009
40
0.5001620077414917
50
-89.98143943
51
-0.01008079
0
ARC
8
BLACK
10
186.6268000000000029
20
-21.8521999999999998
40
0.5000382299064742
50
-209.99563154
51
-119.99720634
0
LINE
8
BLACK
6
CONTINUOUS
10
156.8987249999999847
20
-109.6720459999999946
11
156.1487249999999847
21
-108.3730079999999987
0
LINE
8
BLACK
6
CONTINUOUS
10
214.1272620000000018
20
-68.3365879999999919
11
214.1272620000000018
21
-61.6612930000000006
0
ARC
8
BLACK
10
135.8397999999999968
20
-27.1896999999999984
40
0.5001638243065966
50
-119.98124626
51
-30.01456300
0
LINE
8
BLACK
6
CONTINUOUS
10
67.5948020000000014
20
-80.1201939999999979
11
68.4608269999999948
21
-80.6201939999999979
0
LINE
8
BLACK
6
CONTINUOUS
10
51.5952619999999982
20
-89.1612930000000006
11
53.0952619999999982
21
-89.1612930000000006
0
ARC
8
BLACK
10
36.5953000000000017
20
-70.33659999999999
40
0.4999880014440346
50
-180.00137499
51
-90.00435458
0
LINE
8
BLACK
6
CONTINUOUS
10
47.0228910000000013
20
-86.1408539999999903
11
46.2728910000000013
21
-87.4398920000000004
0
ARC
8
BLACK
10
210.871799999999979
20
-57.1896999999999949
40
0.5001638243065966
50
-119.98124626
51
-30.01456300
0
ARC
8
BLACK
10
80.5952999999999946
20
-99.33659999999999
40
0.5000120014439653
50
0.00137520
51
90.00435437
0
ARC
8
BLACK
10
40.0638000000000005
20
-110.1541999999999888
40
0.4998888007277218
50
-150.01271775
51
-59.99555304
0
LINE
8
BLACK
6
CONTINUOUS
10
171.8987249999999847
20
-79.6720459999999946
11
171.1487249999999847
21
-78.3730079999999987
0
LINE
8
BLACK
6
CONTINUOUS
10
166.2598260000000039
20
-102.5353609999999946
11
167.0098260000000039
21
-103.8343989999999906
0
LINE
8
BLACK
6
CONTINUOUS
10
151.0947689999999852
20
-77.2494779999999963
11
145.313777999999985
21
-80.587097
0
ARC
8
BLACK
10
130.0637999999999863
20
-110.1541999999999888
40
0.4998888007277218
50
-150.01271775
51
-59.99555304
0
ARC
8
BLACK
10
53.0952999999999946
20
-29.6612999999999971
40
0.5000070014439798
50
0.00080220
51
90.00435442
0
LINE
8
BLACK
6
CONTINUOUS
10
240.8097759999999994
20
-75.7004249999999956
11
241.3097839999999792
21
-76.5664639999999963
0
ARC
8
BLACK
10
91.5899000000000001
20
-55.8907999999999987
40
0.4999424928579286
50
-30.00660224
51
59.99910627
0
ARC
8
BLACK
10
135.8579000000000008
20
-83.1587999999999994
40
0.4999527355460713
50
-30.00538775
51
60.00692966
0
LINE
8
BLACK
6
CONTINUOUS
10
246.3637369999999862
20
-107.6899959999999936
11
255.6088139999999953
21
-102.3523479999999921
0
ARC
8
BLACK
10
231.6268000000000029
20
-51.8521999999999963
40
0.5000382299064742
50
-209.99563154
51
-119.99720634
0
ARC
8
BLACK
10
46.210799999999999
20
-45.4503999999999948
40
0.5000222847043919
50
-239.99739374
51
-149.99816644
0
LINE
8
BLACK
6
CONTINUOUS
10
241.8588139999999953
20
-74.5174119999999931
11
240.9927879999999902
21
-75.0174119999999931
0
LINE
8
BLACK
6
CONTINUOUS
10
128.0952619999999911
20
-70.8365879999999919
11
126.5952619999999911
21
-70.8365879999999919
0
LINE
8
BLACK
6
CONTINUOUS
10
37.5948020000000014
20
-80.1201939999999979
11
38.4608269999999948
21
-80.6201939999999979
0
LINE
8
BLACK
6
CONTINUOUS
10
139.5952619999999911
20
-91.1612930000000006
11
140.5952619999999911
21
-91.1612930000000006
0
ARC
8
BLACK
10
199.6271999999999878
20
-91.6611999999999938
40
0.4999380086500725
50
-270.00710600
51
-179.98934166
0
ARC
8
BLACK
10
50.5951999999999984
20
-30.6611999999999973
40
0.5000620086479276
50
-89.99289664
51
-0.01065569
0
ARC
8
BLACK
10
244.6271999999999878
20
-61.6611999999999938
40
0.4999380086500725
50
-270.00710600
51
-179.98934166
0
ARC
8
BLACK
10
23.0950999999999986
20
-40.3365000000000009
40
0.5001620077414917
50
-89.98143943
51
-0.01008079
0
LINE
8
BLACK
6
CONTINUOUS
10
195.8097759999999994
20
-105.7004249999999956
11
196.3097839999999792
21
-106.5664639999999963
0
ARC
8
BLACK
10
136.2108000000000061
20
-45.4503999999999948
40
0.5000222847043919
50
-239.99739374
51
-149.99816644
0
LINE
8
BLACK
6
CONTINUOUS
10
14.
20
-114.
11
14.
21
-16.
0
ARC
8
BLACK
10
45.8579000000000008
20
-23.1587999999999994
40
0.4999527355460713
50
-30.00538775
51
60.00692966
0
LINE
8
BLACK
6
CONTINUOUS
10
256.0058530000000019
20
-24.9578409999999984
11
256.8718779999999811
21
-25.4578409999999984
0
LINE
8
BLACK
6
CONTINUOUS
10
247.6268019999999979
20
-80.1201939999999979
11
248.492826999999977
21
-80.6201939999999979
0
LINE
8
BLACK
6
CONTINUOUS
10
99.1438399999999973
20
-80.4371809999999954
11
99.6438440000000014
21
-79.5711489999999912
0
ARC
8
BLACK
10
96.5947999999999922
20
-81.8521999999999963
40
0.5000382299064742
50
-209.99563154
51
-119.99720634
0
ARC
8
BLACK
10
188.1270999999999844
20
-70.3365000000000009
40
0.5001620077414917
50
-89.98143943
51
-0.01008079
0
ARC
8
BLACK
10
125.5952999999999946
20
-69.33659999999999
40
0.5000120014439653
50
0.00137520
51
90.00435437
0
ARC
8
BLACK
10
106.2107999999999919
20
-105.4504000000000019
40
0.5000222847043919
50
-239.99739374
51
-149.99816644
0
LINE
8
BLACK
6
CONTINUOUS
10
75.9738529999999912
20
-84.9578410000000019
11
76.8398779999999988
21
-85.4578410000000019
0
LINE
8
BLACK
6
CONTINUOUS
10
46.2908359999999988
20
-23.408809999999999
11
45.7908399999999958
21
-24.2748290000000004
0
ARC
8
BLACK
10
201.6271999999999878
20
-29.6611999999999973
40
0.4999380086500725
50
-270.00710600
51
-179.98934166
0
ARC
8
BLACK
10
217.3637999999999977
20
-109.421999999999997
40
0.5000086013760163
50
-149.99900457
51
-60.00890460
0
ARC
8
BLACK
10
233.7427999999999884
20
-50.1869999999999976
40
0.5001141613281912
50
-119.98693667
51
-30.01639449
0
LINE
8
BLACK
6
CONTINUOUS
10
136.2598260000000039
20
-102.5353609999999946
11
137.0098260000000039
21
-103.8343989999999906
0
ARC
8
BLACK
10
145.0637999999999863
20
-80.154200000000003
40
0.4998888007277218
50
-150.01271775
51
-59.99555304
0
LINE
8
BLACK
6
CONTINUOUS
10
246.1272620000000018
20
-60.6612930000000006
11
246.1272620000000018
21
-59.6612930000000006
0
LINE
8
BLACK
6
CONTINUOUS
10
256.2918260000000146
20
-42.5353609999999946
11
257.0418260000000146
21
-43.8343989999999977
0
ARC
8
BLACK
10
200.6271999999999878
20
-30.6611999999999973
40
0.5000620086479276
50
-89.99289664
51
-0.01065569
0
LINE
8
BLACK
6
CONTINUOUS
10
45.5898779999999988
20
-27.6229049999999994
11
36.3448020000000014
21
-22.2852579999999989
0
LINE
8
BLACK
6
CONTINUOUS
10
51.0952619999999982
20
-90.6612930000000006
11
51.0952619999999982
21
-89.6612930000000006
0
ARC
8
BLACK
10
140.6272999999999911
20
-39.3365999999999971
40
0.5000120014439653
50
0.00137520
51
90.00435437
0
LINE
8
BLACK
6
CONTINUOUS
10
70.3268580000000014
20
-79.3881370000000004
11
76.1078239999999937
21
-82.7257979999999975
0
ARC
8
BLACK
10
111.5814999999999912
20
-78.1229000000000013
40
0.4998481892424939
50
-240.01729889
51
-149.97565546
0
ARC
8
BLACK
10
75.8397999999999968
20
-87.189700000000002
40
0.5001638243065966
50
-119.98124626
51
-30.01456300
0
ARC
8
BLACK
10
100.0768999999999949
20
-79.8212999999999937
40
0.5001130091659284
50
60.01277670
51
149.98749850
0
ARC
8
BLACK
10
256.2559999999999718
20
-24.524799999999999
40
0.5000980196821418
50
-209.98868506
51
-120.01296426
0
LINE
8
BLACK
6
CONTINUOUS
10
121.2908359999999988
20
-53.4088099999999955
11
120.7908399999999887
21
-54.2748289999999969
0
LINE
8
BLACK
6
CONTINUOUS
10
111.8987249999999989
20
-79.6720459999999946
11
111.1487249999999989
21
-78.3730079999999987
0
LINE
8
BLACK
6
CONTINUOUS
10
135.5898779999999988
20
-27.6229049999999994
11
126.3448020000000014
21
-22.2852579999999989
0
LINE
8
BLACK
6
CONTINUOUS
10
202.6268019999999979
20
-50.1201939999999979
11
203.492826999999977
21
-50.6201939999999979
0
LINE
8
BLACK
6
CONTINUOUS
10
130.3268579999999872
20
-79.3881370000000004
11
136.1078239999999937
21
-82.7257979999999975
0
LINE
8
BLACK
6
CONTINUOUS
10
257.0548909999999978
20
-26.1408539999999974
11
256.3048909999999978
21
-27.4398920000000004
0
LINE
8
BLACK
6
CONTINUOUS
10
109.0952619999999911
20
-98.3365879999999919
11
109.0952619999999911
21
-91.6612930000000006
0
ARC
8
BLACK
10
85.0638000000000005
20
-80.154200000000003
40
0.4998888007277218
50
-150.01271775
51
-59.99555304
0
ARC
8
BLACK
10
196.6085999999999956
20
-44.0842999999999989
40
0.5001352585821159
50
-59.98445817
51
29.97796020
0
LINE
8
BLACK
6
CONTINUOUS
10
38.5952619999999982
20
-59.6612930000000006
11
38.5952619999999982
21
-70.3365879999999919
0
LINE
8
BLACK
6
CONTINUOUS
10
60.9738529999999983
20
-54.9578409999999948
11
61.8398779999999988
21
-55.4578409999999948
0
LINE
8
BLACK
6
CONTINUOUS
10
150.5898779999999988
20
-57.6229049999999958
11
141.3448019999999872
21
-52.2852579999999989
0
LINE
8
BLACK
6
CONTINUOUS
10
53.5952619999999982
20
-29.661292999999997
11
53.5952619999999982
21
-40.336587999999999
0
ARC
8
BLACK
10
230.6271999999999878
20
-30.6611999999999973
40
0.5000620086479276
50
-89.99289664
51
-0.01065569
0
ARC
8
BLACK
10
173.1272999999999911
20
-29.6612999999999971
40
0.5000070014439798
50
0.00080220
51
90.00435442
0
LINE
8
BLACK
6
CONTINUOUS
10
139.6272620000000018
20
-31.161292999999997
11
140.6272620000000018
21
-31.161292999999997
0
ARC
8
BLACK
10
66.5814999999999912
20
-108.1229000000000013
40
0.4998481892424939
50
-240.01729889
51
-149.97565546
0
ARC
8
BLACK
10
135.8445999999999856
20
-106.8164000000000016
40
0.5001163684103931
50
-59.98697356
51
29.98383779
0
LINE
8
BLACK
6
CONTINUOUS
10
106.0947689999999994
20
-47.2494779999999963
11
100.3137779999999992
21
-50.587097
0
ARC
8
BLACK
10
51.5952999999999946
20
-100.33659999999999
40
0.4999880014440346
50
-180.00137499
51
-90.00435458
0
ARC
8
BLACK
10
181.2107999999999777
20
-75.4504000000000019
40
0.5000222847043919
50
-239.99739374
51
-149.99816644
0
LINE
8
BLACK
6
CONTINUOUS
10
84.1438399999999973
20
-50.4371809999999954
11
84.6438440000000014
21
-49.5711489999999984
0
LINE
8
BLACK
6
CONTINUOUS
10
240.6218779999999811
20
-57.6229049999999958
11
231.3768019999999979
21
-52.2852579999999989
0
LINE
8
BLACK
6
CONTINUOUS
10
127.5948019999999872
20
-20.1201939999999979
11
128.4608269999999948
21
-20.6201939999999979
0
ARC
8
BLACK
10
205.1088999999999771
20
-49.8213000000000008
40
0.5001130091659284
50
60.01277670
51
149.98749850
0
ARC
8
BLACK
10
68.7107999999999919
20
-20.1869999999999976
40
0.5001141613281912
50
-119.98693667
51
-30.01639449
0
LINE
8
BLACK
6
CONTINUOUS
10
211.1267689999999959
20
-77.2494779999999963
11
205.3457779999999957
21
-80.587097
0
LINE
8
BLACK
6
CONTINUOUS
10
231.9307249999999954
20
-79.6720459999999946
11
231.1807249999999954
21
-78.3730079999999987
0
ARC
8
BLACK
10
225.8588000000000022
20
-42.7851999999999961
40
0.4998538327351307
50
29.98325825
51
120.00782048
0
ARC
8
BLACK
10
98.7107999999999919
20
-20.1869999999999976
40
0.5001141613281912
50
-119.98693667
51
-30.01639449
0
CIRCLE
8
BLACK
10
80.1679999999999922
20
-65.
40
2.
0
LINE
8
BLACK
6
CONTINUOUS
10
129.6307679999999891
20
-110.404083
11
129.1307759999999973
21
-109.5380719999999997
0
ARC
8
BLACK
10
19.5952999999999982
20
-38.3365999999999971
40
0.4999880014440346
50
-180.00137499
51
-90.00435458
0
LINE
8
BLACK
6
CONTINUOUS
10
231.3637369999999862
20
-77.6899959999999936
11
240.6088139999999953
21
-72.3523479999999921
0
ARC
8
BLACK
10
82.3447999999999922
20
-50.5533000000000001
40
0.5000450327420521
50
60.00514627
51
149.99067408
0
LINE
8
BLACK
6
CONTINUOUS
10
125.5952619999999911
20
-68.8365879999999919
11
124.5952619999999911
21
-68.8365879999999919
0
LINE
8
BLACK
6
CONTINUOUS
10
135.7777759999999887
20
-105.7004249999999956
11
136.2777839999999969
21
-106.5664639999999963
0
ARC
8
BLACK
10
265.1089000000000055
20
-49.8213000000000008
40
0.5001130091659284
50
60.01277670
51
149.98749850
0
LINE
8
BLACK
6
CONTINUOUS
10
264.6627679999999714
20
-80.404083
11
264.162776000000008
21
-79.5380719999999997
0
LINE
8
BLACK
6
CONTINUOUS
10
172.5948019999999872
20
-50.1201939999999979
11
173.4608269999999948
21
-50.6201939999999979
0
LINE
8
BLACK
6
CONTINUOUS
10
165.5898779999999988
20
-87.6229050000000029
11
156.3448019999999872
21
-82.2852579999999989
0
ARC
8
BLACK
10
181.5765999999999849
20
-74.0842999999999989
40
0.5001352585821159
50
-59.98445817
51
29.97796020
0
ARC
8
BLACK
10
105.8397999999999968
20
-27.1896999999999984
40
0.5001638243065966
50
-119.98124626
51
-30.01456300
0
LINE
8
BLACK
6
CONTINUOUS
10
46.0947689999999994
20
-107.2494779999999963
11
40.3137779999999992
21
-110.587097
0
LINE
8
BLACK
6
CONTINUOUS
10
105.5898779999999988
20
-87.6229050000000029
11
96.3448020000000014
21
-82.2852579999999989
0
LINE
8
BLACK
6
CONTINUOUS
10
96.8987249999999989
20
-49.6720459999999946
11
96.1487249999999989
21
-48.3730079999999987
0
ARC
8
BLACK
10
196.6218999999999824
20
-25.8907999999999987
40
0.4999424928579286
50
-30.00660224
51
59.99910627
0
ARC
8
BLACK
10
120.8267999999999915
20
-72.7852000000000032
40
0.4998538327351307
50
29.98325825
51
120.00782048
0
LINE
8
BLACK
6
CONTINUOUS
10
69.6307680000000033
20
-50.404083
11
69.1307759999999973
21
-49.5380719999999997
0
ARC
8
BLACK
10
19.5951999999999984
20
-91.6611999999999938
40
0.4999380086500725
50
-270.00710600
51
-179.98934166
0
ARC
8
BLACK
10
158.7108000000000061
20
-80.1869999999999976
40
0.5001141613281912
50
-119.98693667
51
-30.01639449
0
LINE
8
BLACK
6
CONTINUOUS
10
135.7777759999999887
20
-45.7004249999999956
11
136.2777839999999969
21
-46.5664639999999963
0
ARC
8
BLACK
10
195.871799999999979
20
-27.1896999999999984
40
0.5001638243065966
50
-119.98124626
51
-30.01456300
0
LINE
8
BLACK
6
CONTINUOUS
10
67.5948020000000014
20
-20.1201939999999979
11
68.4608269999999948
21
-20.6201939999999979
0
LINE
8
BLACK
6
CONTINUOUS
10
256.2918260000000146
20
-102.5353609999999946
11
257.0418260000000146
21
-103.8343989999999906
0
LINE
8
BLACK
6
CONTINUOUS
10
137.0228909999999871
20
-26.1408539999999974
11
136.2728909999999871
21
-27.4398920000000004
0
LINE
8
BLACK
6
CONTINUOUS
10
160.3588579999999979
20
-19.3881370000000004
11
166.1398240000000044
21
-22.7257979999999975
0
LINE
8
BLACK
6
CONTINUOUS
10
46.2598259999999968
20
-42.5353609999999946
11
47.0098259999999968
21
-43.8343989999999977
0
LINE
8
BLACK
6
CONTINUOUS
10
248.4797629999999913
20
-49.3550589999999971
11
247.6137369999999862
21
-49.8550589999999971
0
LINE
8
BLACK
6
CONTINUOUS
10
129.6307679999999891
20
-50.404083
11
129.1307759999999973
21
-49.5380719999999997
0
ARC
8
BLACK
10
67.3318000000000012
20
-109.421999999999997
40
0.5000086013760163
50
-149.99900457
51
-60.00890460
0
ARC
8
BLACK
10
157.331799999999987
20
-109.421999999999997
40
0.5000086013760163
50
-149.99900457
51
-60.00890460
  0
ENDSEC
  0
EOF
