  0
SECTION
  2
HEADER
  9
$ANGBASE
  50
0.0
  9
$ANGDIR
  70
1
  9
$MEASUREMENT
  70
1
  0
ENDSEC
  0
SECTION
  2
TABLES
  0
TABLE
  2
LTYPE
  70
4
  0
LTYPE
  5
40F
  2
CONTINUOUS
  70
0
  3
Solid line
  72
65
  73
0
  40
0.0
  0
LTYPE
  5
410
  2
DASHDOT
 70
0
  3
Dash Dot ____ _ ____ _
 72
65
 73
4
 40
2.0
 49
1.25
 49
-0.25
 49
0.25
 49
-0.25
  0
LTYPE
  5
411
  2
DASHED
 70
0
  3
Dashed __ __ __ __ __
 72
65
 73
2
 40
0.75
 49
0.5
 49
-0.25
  0
LTYPE
  5
43B
  2
DOTTED
 70
0
  3
Dotted .  .  .  .
 72
65
 73
2
 40
0.2
 49
0.0
 49
-0.2
  0
ENDTAB
  0
TABLE
  2
STYLE
  70
4
  0
STYLE
  2
KICAD
  70
0
  40
0
  41
1
  42
1
  50
0
  71
0
  3
isocp.shx
  0
STYLE
  2
KICADB
  70
0
  40
0
  41
1
  42
1
  50
0
  71
0
  3
isocp.shx
  0
STYLE
  2
KICADI
  70
0
  40
0
  41
1
  42
1
  50
15
  71
0
  3
isocp.shx
  0
STYLE
  2
KICADBI
  70
0
  40
0
  41
1
  42
1
  50
15
  71
0
  3
isocp.shx
  0
ENDTAB
  0
TABLE
  2
LAYER
  70
1
  0
LAYER
  2
BLACK
  70
0
  62
7
  6
CONTINUOUS
  0
ENDTAB
  0
ENDSEC
  0
SECTION
  2
ENTITIES
0
LINE
8
BLACK
6
CONTINUOUS
10
47.7456709999999944
20
-95.9190299999999922
11
47.8267769999999999
21
-95.9732229999999902
0
LINE
8
BLACK
6
CONTINUOUS
10
47.8267769999999999
20
-95.9732229999999902
11
47.8809699999999978
21
-96.0543289999999956
0
LINE
8
BLACK
6
CONTINUOUS
10
47.8809699999999978
20
-96.0543289999999956
11
47.8999999999999986
21
-96.1499999999999915
0
LINE
8
BLACK
6
CONTINUOUS
10
47.8999999999999986
20
-96.1499999999999915
11
47.8999999999999986
21
-96.7999999999999972
0
LINE
8
BLACK
6
CONTINUOUS
10
47.8999999999999986
20
-96.7999999999999972
11
47.8809699999999978
21
-96.895670999999993
0
LINE
8
BLACK
6
CONTINUOUS
10
47.8809699999999978
20
-96.895670999999993
11
47.8267769999999999
21
-96.9767769999999985
0
LINE
8
BLACK
6
CONTINUOUS
10
47.8267769999999999
20
-96.9767769999999985
11
47.7456709999999944
21
-97.0309699999999964
0
LINE
8
BLACK
6
CONTINUOUS
10
47.7456709999999944
20
-97.0309699999999964
11
47.6499999999999986
21
-97.0499999999999972
0
LINE
8
BLACK
6
CONTINUOUS
10
47.6499999999999986
20
-97.0499999999999972
11
46.3500000000000014
21
-97.0499999999999972
0
LINE
8
BLACK
6
CONTINUOUS
10
46.3500000000000014
20
-97.0499999999999972
11
46.2543289999999985
21
-97.0309699999999964
0
LINE
8
BLACK
6
CONTINUOUS
10
46.2543289999999985
20
-97.0309699999999964
11
46.1732230000000001
21
-96.9767769999999985
0
LINE
8
BLACK
6
CONTINUOUS
10
46.1732230000000001
20
-96.9767769999999985
11
46.1190299999999951
21
-96.895670999999993
0
LINE
8
BLACK
6
CONTINUOUS
10
46.1190299999999951
20
-96.895670999999993
11
46.1000000000000014
21
-96.7999999999999972
0
LINE
8
BLACK
6
CONTINUOUS
10
46.1000000000000014
20
-96.7999999999999972
11
46.1000000000000014
21
-96.1499999999999915
0
LINE
8
BLACK
6
CONTINUOUS
10
46.1000000000000014
20
-96.1499999999999915
11
46.1190299999999951
21
-96.0543289999999956
0
LINE
8
BLACK
6
CONTINUOUS
10
46.1190299999999951
20
-96.0543289999999956
11
46.1732230000000001
21
-95.9732229999999902
0
LINE
8
BLACK
6
CONTINUOUS
10
46.1732230000000001
20
-95.9732229999999902
11
46.2543289999999985
21
-95.9190299999999922
0
LINE
8
BLACK
6
CONTINUOUS
10
46.2543289999999985
20
-95.9190299999999922
11
46.3500000000000014
21
-95.8999999999999915
0
LINE
8
BLACK
6
CONTINUOUS
10
46.3500000000000014
20
-95.8999999999999915
11
47.6499999999999986
21
-95.8999999999999915
0
LINE
8
BLACK
6
CONTINUOUS
10
47.6499999999999986
20
-95.8999999999999915
11
47.7456709999999944
21
-95.9190299999999922
0
LINE
8
BLACK
6
CONTINUOUS
10
77.7456710000000015
20
-95.9190299999999922
11
77.8267769999999928
21
-95.9732229999999902
0
LINE
8
BLACK
6
CONTINUOUS
10
77.8267769999999928
20
-95.9732229999999902
11
77.8809699999999907
21
-96.0543289999999956
0
LINE
8
BLACK
6
CONTINUOUS
10
77.8809699999999907
20
-96.0543289999999956
11
77.8999999999999915
21
-96.1499999999999915
0
LINE
8
BLACK
6
CONTINUOUS
10
77.8999999999999915
20
-96.1499999999999915
11
77.8999999999999915
21
-96.7999999999999972
0
LINE
8
BLACK
6
CONTINUOUS
10
77.8999999999999915
20
-96.7999999999999972
11
77.8809699999999907
21
-96.895670999999993
0
LINE
8
BLACK
6
CONTINUOUS
10
77.8809699999999907
20
-96.895670999999993
11
77.8267769999999928
21
-96.9767769999999985
0
LINE
8
BLACK
6
CONTINUOUS
10
77.8267769999999928
20
-96.9767769999999985
11
77.7456710000000015
21
-97.0309699999999964
0
LINE
8
BLACK
6
CONTINUOUS
10
77.7456710000000015
20
-97.0309699999999964
11
77.6499999999999915
21
-97.0499999999999972
0
LINE
8
BLACK
6
CONTINUOUS
10
77.6499999999999915
20
-97.0499999999999972
11
76.3499999999999943
21
-97.0499999999999972
0
LINE
8
BLACK
6
CONTINUOUS
10
76.3499999999999943
20
-97.0499999999999972
11
76.2543289999999985
21
-97.0309699999999964
0
LINE
8
BLACK
6
CONTINUOUS
10
76.2543289999999985
20
-97.0309699999999964
11
76.173222999999993
21
-96.9767769999999985
0
LINE
8
BLACK
6
CONTINUOUS
10
76.173222999999993
20
-96.9767769999999985
11
76.1190299999999951
21
-96.895670999999993
0
LINE
8
BLACK
6
CONTINUOUS
10
76.1190299999999951
20
-96.895670999999993
11
76.0999999999999943
21
-96.7999999999999972
0
LINE
8
BLACK
6
CONTINUOUS
10
76.0999999999999943
20
-96.7999999999999972
11
76.0999999999999943
21
-96.1499999999999915
0
LINE
8
BLACK
6
CONTINUOUS
10
76.0999999999999943
20
-96.1499999999999915
11
76.1190299999999951
21
-96.0543289999999956
0
LINE
8
BLACK
6
CONTINUOUS
10
76.1190299999999951
20
-96.0543289999999956
11
76.173222999999993
21
-95.9732229999999902
0
LINE
8
BLACK
6
CONTINUOUS
10
76.173222999999993
20
-95.9732229999999902
11
76.2543289999999985
21
-95.9190299999999922
0
LINE
8
BLACK
6
CONTINUOUS
10
76.2543289999999985
20
-95.9190299999999922
11
76.3499999999999943
21
-95.8999999999999915
0
LINE
8
BLACK
6
CONTINUOUS
10
76.3499999999999943
20
-95.8999999999999915
11
77.6499999999999915
21
-95.8999999999999915
0
LINE
8
BLACK
6
CONTINUOUS
10
77.6499999999999915
20
-95.8999999999999915
11
77.7456710000000015
21
-95.9190299999999922
0
LINE
8
BLACK
6
CONTINUOUS
10
107.7456710000000015
20
-95.9190299999999922
11
107.8267769999999928
21
-95.9732229999999902
0
LINE
8
BLACK
6
CONTINUOUS
10
107.8267769999999928
20
-95.9732229999999902
11
107.8809699999999907
21
-96.0543289999999956
0
LINE
8
BLACK
6
CONTINUOUS
10
107.8809699999999907
20
-96.0543289999999956
11
107.8999999999999915
21
-96.1499999999999915
0
LINE
8
BLACK
6
CONTINUOUS
10
107.8999999999999915
20
-96.1499999999999915
11
107.8999999999999915
21
-96.7999999999999972
0
LINE
8
BLACK
6
CONTINUOUS
10
107.8999999999999915
20
-96.7999999999999972
11
107.8809699999999907
21
-96.895670999999993
0
LINE
8
BLACK
6
CONTINUOUS
10
107.8809699999999907
20
-96.895670999999993
11
107.8267769999999928
21
-96.9767769999999985
0
LINE
8
BLACK
6
CONTINUOUS
10
107.8267769999999928
20
-96.9767769999999985
11
107.7456710000000015
21
-97.0309699999999964
0
LINE
8
BLACK
6
CONTINUOUS
10
107.7456710000000015
20
-97.0309699999999964
11
107.6499999999999915
21
-97.0499999999999972
0
LINE
8
BLACK
6
CONTINUOUS
10
107.6499999999999915
20
-97.0499999999999972
11
106.3499999999999943
21
-97.0499999999999972
0
LINE
8
BLACK
6
CONTINUOUS
10
106.3499999999999943
20
-97.0499999999999972
11
106.2543289999999985
21
-97.0309699999999964
0
LINE
8
BLACK
6
CONTINUOUS
10
106.2543289999999985
20
-97.0309699999999964
11
106.173222999999993
21
-96.9767769999999985
0
LINE
8
BLACK
6
CONTINUOUS
10
106.173222999999993
20
-96.9767769999999985
11
106.1190299999999951
21
-96.895670999999993
0
LINE
8
BLACK
6
CONTINUOUS
10
106.1190299999999951
20
-96.895670999999993
11
106.0999999999999943
21
-96.7999999999999972
0
LINE
8
BLACK
6
CONTINUOUS
10
106.0999999999999943
20
-96.7999999999999972
11
106.0999999999999943
21
-96.1499999999999915
0
LINE
8
BLACK
6
CONTINUOUS
10
106.0999999999999943
20
-96.1499999999999915
11
106.1190299999999951
21
-96.0543289999999956
0
LINE
8
BLACK
6
CONTINUOUS
10
106.1190299999999951
20
-96.0543289999999956
11
106.173222999999993
21
-95.9732229999999902
0
LINE
8
BLACK
6
CONTINUOUS
10
106.173222999999993
20
-95.9732229999999902
11
106.2543289999999985
21
-95.9190299999999922
0
LINE
8
BLACK
6
CONTINUOUS
10
106.2543289999999985
20
-95.9190299999999922
11
106.3499999999999943
21
-95.8999999999999915
0
LINE
8
BLACK
6
CONTINUOUS
10
106.3499999999999943
20
-95.8999999999999915
11
107.6499999999999915
21
-95.8999999999999915
0
LINE
8
BLACK
6
CONTINUOUS
10
107.6499999999999915
20
-95.8999999999999915
11
107.7456710000000015
21
-95.9190299999999922
0
LINE
8
BLACK
6
CONTINUOUS
10
137.7456709999999873
20
-95.9190299999999922
11
137.8267769999999928
21
-95.9732229999999902
0
LINE
8
BLACK
6
CONTINUOUS
10
137.8267769999999928
20
-95.9732229999999902
11
137.8809699999999907
21
-96.0543289999999956
0
LINE
8
BLACK
6
CONTINUOUS
10
137.8809699999999907
20
-96.0543289999999956
11
137.9000000000000057
21
-96.1499999999999915
0
LINE
8
BLACK
6
CONTINUOUS
10
137.9000000000000057
20
-96.1499999999999915
11
137.9000000000000057
21
-96.7999999999999972
0
LINE
8
BLACK
6
CONTINUOUS
10
137.9000000000000057
20
-96.7999999999999972
11
137.8809699999999907
21
-96.895670999999993
0
LINE
8
BLACK
6
CONTINUOUS
10
137.8809699999999907
20
-96.895670999999993
11
137.8267769999999928
21
-96.9767769999999985
0
LINE
8
BLACK
6
CONTINUOUS
10
137.8267769999999928
20
-96.9767769999999985
11
137.7456709999999873
21
-97.0309699999999964
0
LINE
8
BLACK
6
CONTINUOUS
10
137.7456709999999873
20
-97.0309699999999964
11
137.6500000000000057
21
-97.0499999999999972
0
LINE
8
BLACK
6
CONTINUOUS
10
137.6500000000000057
20
-97.0499999999999972
11
136.3499999999999943
21
-97.0499999999999972
0
LINE
8
BLACK
6
CONTINUOUS
10
136.3499999999999943
20
-97.0499999999999972
11
136.2543289999999843
21
-97.0309699999999964
0
LINE
8
BLACK
6
CONTINUOUS
10
136.2543289999999843
20
-97.0309699999999964
11
136.1732230000000072
21
-96.9767769999999985
0
LINE
8
BLACK
6
CONTINUOUS
10
136.1732230000000072
20
-96.9767769999999985
11
136.1190299999999809
21
-96.895670999999993
0
LINE
8
BLACK
6
CONTINUOUS
10
136.1190299999999809
20
-96.895670999999993
11
136.0999999999999943
21
-96.7999999999999972
0
LINE
8
BLACK
6
CONTINUOUS
10
136.0999999999999943
20
-96.7999999999999972
11
136.0999999999999943
21
-96.1499999999999915
0
LINE
8
BLACK
6
CONTINUOUS
10
136.0999999999999943
20
-96.1499999999999915
11
136.1190299999999809
21
-96.0543289999999956
0
LINE
8
BLACK
6
CONTINUOUS
10
136.1190299999999809
20
-96.0543289999999956
11
136.1732230000000072
21
-95.9732229999999902
0
LINE
8
BLACK
6
CONTINUOUS
10
136.1732230000000072
20
-95.9732229999999902
11
136.2543289999999843
21
-95.9190299999999922
0
LINE
8
BLACK
6
CONTINUOUS
10
136.2543289999999843
20
-95.9190299999999922
11
136.3499999999999943
21
-95.8999999999999915
0
LINE
8
BLACK
6
CONTINUOUS
10
136.3499999999999943
20
-95.8999999999999915
11
137.6500000000000057
21
-95.8999999999999915
0
LINE
8
BLACK
6
CONTINUOUS
10
137.6500000000000057
20
-95.8999999999999915
11
137.7456709999999873
21
-95.9190299999999922
0
LINE
8
BLACK
6
CONTINUOUS
10
167.7456709999999873
20
-95.9190299999999922
11
167.8267769999999928
21
-95.9732229999999902
0
LINE
8
BLACK
6
CONTINUOUS
10
167.8267769999999928
20
-95.9732229999999902
11
167.8809699999999907
21
-96.0543289999999956
0
LINE
8
BLACK
6
CONTINUOUS
10
167.8809699999999907
20
-96.0543289999999956
11
167.9000000000000057
21
-96.1499999999999915
0
LINE
8
BLACK
6
CONTINUOUS
10
167.9000000000000057
20
-96.1499999999999915
11
167.9000000000000057
21
-96.7999999999999972
0
LINE
8
BLACK
6
CONTINUOUS
10
167.9000000000000057
20
-96.7999999999999972
11
167.8809699999999907
21
-96.895670999999993
0
LINE
8
BLACK
6
CONTINUOUS
10
167.8809699999999907
20
-96.895670999999993
11
167.8267769999999928
21
-96.9767769999999985
0
LINE
8
BLACK
6
CONTINUOUS
10
167.8267769999999928
20
-96.9767769999999985
11
167.7456709999999873
21
-97.0309699999999964
0
LINE
8
BLACK
6
CONTINUOUS
10
167.7456709999999873
20
-97.0309699999999964
11
167.6500000000000057
21
-97.0499999999999972
0
LINE
8
BLACK
6
CONTINUOUS
10
167.6500000000000057
20
-97.0499999999999972
11
166.3499999999999943
21
-97.0499999999999972
0
LINE
8
BLACK
6
CONTINUOUS
10
166.3499999999999943
20
-97.0499999999999972
11
166.2543289999999843
21
-97.0309699999999964
0
LINE
8
BLACK
6
CONTINUOUS
10
166.2543289999999843
20
-97.0309699999999964
11
166.1732229999999788
21
-96.9767769999999985
0
LINE
8
BLACK
6
CONTINUOUS
10
166.1732229999999788
20
-96.9767769999999985
11
166.1190299999999809
21
-96.895670999999993
0
LINE
8
BLACK
6
CONTINUOUS
10
166.1190299999999809
20
-96.895670999999993
11
166.0999999999999943
21
-96.7999999999999972
0
LINE
8
BLACK
6
CONTINUOUS
10
166.0999999999999943
20
-96.7999999999999972
11
166.0999999999999943
21
-96.1499999999999915
0
LINE
8
BLACK
6
CONTINUOUS
10
166.0999999999999943
20
-96.1499999999999915
11
166.1190299999999809
21
-96.0543289999999956
0
LINE
8
BLACK
6
CONTINUOUS
10
166.1190299999999809
20
-96.0543289999999956
11
166.1732229999999788
21
-95.9732229999999902
0
LINE
8
BLACK
6
CONTINUOUS
10
166.1732229999999788
20
-95.9732229999999902
11
166.2543289999999843
21
-95.9190299999999922
0
LINE
8
BLACK
6
CONTINUOUS
10
166.2543289999999843
20
-95.9190299999999922
11
166.3499999999999943
21
-95.8999999999999915
0
LINE
8
BLACK
6
CONTINUOUS
10
166.3499999999999943
20
-95.8999999999999915
11
167.6500000000000057
21
-95.8999999999999915
0
LINE
8
BLACK
6
CONTINUOUS
10
167.6500000000000057
20
-95.8999999999999915
11
167.7456709999999873
21
-95.9190299999999922
0
LINE
8
BLACK
6
CONTINUOUS
10
197.7456709999999873
20
-95.9190299999999922
11
197.8267769999999928
21
-95.9732229999999902
0
LINE
8
BLACK
6
CONTINUOUS
10
197.8267769999999928
20
-95.9732229999999902
11
197.8809699999999907
21
-96.0543289999999956
0
LINE
8
BLACK
6
CONTINUOUS
10
197.8809699999999907
20
-96.0543289999999956
11
197.8999999999999773
21
-96.1499999999999915
0
LINE
8
BLACK
6
CONTINUOUS
10
197.8999999999999773
20
-96.1499999999999915
11
197.8999999999999773
21
-96.7999999999999972
0
LINE
8
BLACK
6
CONTINUOUS
10
197.8999999999999773
20
-96.7999999999999972
11
197.8809699999999907
21
-96.895670999999993
0
LINE
8
BLACK
6
CONTINUOUS
10
197.8809699999999907
20
-96.895670999999993
11
197.8267769999999928
21
-96.9767769999999985
0
LINE
8
BLACK
6
CONTINUOUS
10
197.8267769999999928
20
-96.9767769999999985
11
197.7456709999999873
21
-97.0309699999999964
0
LINE
8
BLACK
6
CONTINUOUS
10
197.7456709999999873
20
-97.0309699999999964
11
197.6499999999999773
21
-97.0499999999999972
0
LINE
8
BLACK
6
CONTINUOUS
10
197.6499999999999773
20
-97.0499999999999972
11
196.3499999999999943
21
-97.0499999999999972
0
LINE
8
BLACK
6
CONTINUOUS
10
196.3499999999999943
20
-97.0499999999999972
11
196.2543289999999843
21
-97.0309699999999964
0
LINE
8
BLACK
6
CONTINUOUS
10
196.2543289999999843
20
-97.0309699999999964
11
196.1732229999999788
21
-96.9767769999999985
0
LINE
8
BLACK
6
CONTINUOUS
10
196.1732229999999788
20
-96.9767769999999985
11
196.1190299999999809
21
-96.895670999999993
0
LINE
8
BLACK
6
CONTINUOUS
10
196.1190299999999809
20
-96.895670999999993
11
196.0999999999999943
21
-96.7999999999999972
0
LINE
8
BLACK
6
CONTINUOUS
10
196.0999999999999943
20
-96.7999999999999972
11
196.0999999999999943
21
-96.1499999999999915
0
LINE
8
BLACK
6
CONTINUOUS
10
196.0999999999999943
20
-96.1499999999999915
11
196.1190299999999809
21
-96.0543289999999956
0
LINE
8
BLACK
6
CONTINUOUS
10
196.1190299999999809
20
-96.0543289999999956
11
196.1732229999999788
21
-95.9732229999999902
0
LINE
8
BLACK
6
CONTINUOUS
10
196.1732229999999788
20
-95.9732229999999902
11
196.2543289999999843
21
-95.9190299999999922
0
LINE
8
BLACK
6
CONTINUOUS
10
196.2543289999999843
20
-95.9190299999999922
11
196.3499999999999943
21
-95.8999999999999915
0
LINE
8
BLACK
6
CONTINUOUS
10
196.3499999999999943
20
-95.8999999999999915
11
197.6499999999999773
21
-95.8999999999999915
0
LINE
8
BLACK
6
CONTINUOUS
10
197.6499999999999773
20
-95.8999999999999915
11
197.7456709999999873
21
-95.9190299999999922
0
LINE
8
BLACK
6
CONTINUOUS
10
227.7456709999999873
20
-95.9190299999999922
11
227.8267769999999928
21
-95.9732229999999902
0
LINE
8
BLACK
6
CONTINUOUS
10
227.8267769999999928
20
-95.9732229999999902
11
227.8809699999999907
21
-96.0543289999999956
0
LINE
8
BLACK
6
CONTINUOUS
10
227.8809699999999907
20
-96.0543289999999956
11
227.8999999999999773
21
-96.1499999999999915
0
LINE
8
BLACK
6
CONTINUOUS
10
227.8999999999999773
20
-96.1499999999999915
11
227.8999999999999773
21
-96.7999999999999972
0
LINE
8
BLACK
6
CONTINUOUS
10
227.8999999999999773
20
-96.7999999999999972
11
227.8809699999999907
21
-96.895670999999993
0
LINE
8
BLACK
6
CONTINUOUS
10
227.8809699999999907
20
-96.895670999999993
11
227.8267769999999928
21
-96.9767769999999985
0
LINE
8
BLACK
6
CONTINUOUS
10
227.8267769999999928
20
-96.9767769999999985
11
227.7456709999999873
21
-97.0309699999999964
0
LINE
8
BLACK
6
CONTINUOUS
10
227.7456709999999873
20
-97.0309699999999964
11
227.6499999999999773
21
-97.0499999999999972
0
LINE
8
BLACK
6
CONTINUOUS
10
227.6499999999999773
20
-97.0499999999999972
11
226.3499999999999943
21
-97.0499999999999972
0
LINE
8
BLACK
6
CONTINUOUS
10
226.3499999999999943
20
-97.0499999999999972
11
226.2543289999999843
21
-97.0309699999999964
0
LINE
8
BLACK
6
CONTINUOUS
10
226.2543289999999843
20
-97.0309699999999964
11
226.1732229999999788
21
-96.9767769999999985
0
LINE
8
BLACK
6
CONTINUOUS
10
226.1732229999999788
20
-96.9767769999999985
11
226.1190299999999809
21
-96.895670999999993
0
LINE
8
BLACK
6
CONTINUOUS
10
226.1190299999999809
20
-96.895670999999993
11
226.0999999999999943
21
-96.7999999999999972
0
LINE
8
BLACK
6
CONTINUOUS
10
226.0999999999999943
20
-96.7999999999999972
11
226.0999999999999943
21
-96.1499999999999915
0
LINE
8
BLACK
6
CONTINUOUS
10
226.0999999999999943
20
-96.1499999999999915
11
226.1190299999999809
21
-96.0543289999999956
0
LINE
8
BLACK
6
CONTINUOUS
10
226.1190299999999809
20
-96.0543289999999956
11
226.1732229999999788
21
-95.9732229999999902
0
LINE
8
BLACK
6
CONTINUOUS
10
226.1732229999999788
20
-95.9732229999999902
11
226.2543289999999843
21
-95.9190299999999922
0
LINE
8
BLACK
6
CONTINUOUS
10
226.2543289999999843
20
-95.9190299999999922
11
226.3499999999999943
21
-95.8999999999999915
0
LINE
8
BLACK
6
CONTINUOUS
10
226.3499999999999943
20
-95.8999999999999915
11
227.6499999999999773
21
-95.8999999999999915
0
LINE
8
BLACK
6
CONTINUOUS
10
227.6499999999999773
20
-95.8999999999999915
11
227.7456709999999873
21
-95.9190299999999922
0
LINE
8
BLACK
6
CONTINUOUS
10
257.7456710000000157
20
-95.9190299999999922
11
257.8267769999999928
21
-95.9732229999999902
0
LINE
8
BLACK
6
CONTINUOUS
10
257.8267769999999928
20
-95.9732229999999902
11
257.8809699999999907
21
-96.0543289999999956
0
LINE
8
BLACK
6
CONTINUOUS
10
257.8809699999999907
20
-96.0543289999999956
11
257.8999999999999773
21
-96.1499999999999915
0
LINE
8
BLACK
6
CONTINUOUS
10
257.8999999999999773
20
-96.1499999999999915
11
257.8999999999999773
21
-96.7999999999999972
0
LINE
8
BLACK
6
CONTINUOUS
10
257.8999999999999773
20
-96.7999999999999972
11
257.8809699999999907
21
-96.895670999999993
0
LINE
8
BLACK
6
CONTINUOUS
10
257.8809699999999907
20
-96.895670999999993
11
257.8267769999999928
21
-96.9767769999999985
0
LINE
8
BLACK
6
CONTINUOUS
10
257.8267769999999928
20
-96.9767769999999985
11
257.7456710000000157
21
-97.0309699999999964
0
LINE
8
BLACK
6
CONTINUOUS
10
257.7456710000000157
20
-97.0309699999999964
11
257.6499999999999773
21
-97.0499999999999972
0
LINE
8
BLACK
6
CONTINUOUS
10
257.6499999999999773
20
-97.0499999999999972
11
256.3499999999999659
21
-97.0499999999999972
0
LINE
8
BLACK
6
CONTINUOUS
10
256.3499999999999659
20
-97.0499999999999972
11
256.2543289999999843
21
-97.0309699999999964
0
LINE
8
BLACK
6
CONTINUOUS
10
256.2543289999999843
20
-97.0309699999999964
11
256.1732230000000072
21
-96.9767769999999985
0
LINE
8
BLACK
6
CONTINUOUS
10
256.1732230000000072
20
-96.9767769999999985
11
256.1190300000000093
21
-96.895670999999993
0
LINE
8
BLACK
6
CONTINUOUS
10
256.1190300000000093
20
-96.895670999999993
11
256.0999999999999659
21
-96.7999999999999972
0
LINE
8
BLACK
6
CONTINUOUS
10
256.0999999999999659
20
-96.7999999999999972
11
256.0999999999999659
21
-96.1499999999999915
0
LINE
8
BLACK
6
CONTINUOUS
10
256.0999999999999659
20
-96.1499999999999915
11
256.1190300000000093
21
-96.0543289999999956
0
LINE
8
BLACK
6
CONTINUOUS
10
256.1190300000000093
20
-96.0543289999999956
11
256.1732230000000072
21
-95.9732229999999902
0
LINE
8
BLACK
6
CONTINUOUS
10
256.1732230000000072
20
-95.9732229999999902
11
256.2543289999999843
21
-95.9190299999999922
0
LINE
8
BLACK
6
CONTINUOUS
10
256.2543289999999843
20
-95.9190299999999922
11
256.3499999999999659
21
-95.8999999999999915
0
LINE
8
BLACK
6
CONTINUOUS
10
256.3499999999999659
20
-95.8999999999999915
11
257.6499999999999773
21
-95.8999999999999915
0
LINE
8
BLACK
6
CONTINUOUS
10
257.6499999999999773
20
-95.8999999999999915
11
257.7456710000000157
21
-95.9190299999999922
0
LINE
8
BLACK
6
CONTINUOUS
10
47.7456709999999944
20
-92.9690299999999894
11
47.8267769999999999
21
-93.0232230000000015
0
LINE
8
BLACK
6
CONTINUOUS
10
47.8267769999999999
20
-93.0232230000000015
11
47.8809699999999978
21
-93.1043289999999928
0
LINE
8
BLACK
6
CONTINUOUS
10
47.8809699999999978
20
-93.1043289999999928
11
47.8999999999999986
21
-93.2000000000000028
0
LINE
8
BLACK
6
CONTINUOUS
10
47.8999999999999986
20
-93.2000000000000028
11
47.8999999999999986
21
-93.8499999999999943
0
LINE
8
BLACK
6
CONTINUOUS
10
47.8999999999999986
20
-93.8499999999999943
11
47.8809699999999978
21
-93.9456709999999902
0
LINE
8
BLACK
6
CONTINUOUS
10
47.8809699999999978
20
-93.9456709999999902
11
47.8267769999999999
21
-94.0267769999999956
0
LINE
8
BLACK
6
CONTINUOUS
10
47.8267769999999999
20
-94.0267769999999956
11
47.7456709999999944
21
-94.0809699999999935
0
LINE
8
BLACK
6
CONTINUOUS
10
47.7456709999999944
20
-94.0809699999999935
11
47.6499999999999986
21
-94.0999999999999943
0
LINE
8
BLACK
6
CONTINUOUS
10
47.6499999999999986
20
-94.0999999999999943
11
46.3500000000000014
21
-94.0999999999999943
0
LINE
8
BLACK
6
CONTINUOUS
10
46.3500000000000014
20
-94.0999999999999943
11
46.2543289999999985
21
-94.0809699999999935
0
LINE
8
BLACK
6
CONTINUOUS
10
46.2543289999999985
20
-94.0809699999999935
11
46.1732230000000001
21
-94.0267769999999956
0
LINE
8
BLACK
6
CONTINUOUS
10
46.1732230000000001
20
-94.0267769999999956
11
46.1190299999999951
21
-93.9456709999999902
0
LINE
8
BLACK
6
CONTINUOUS
10
46.1190299999999951
20
-93.9456709999999902
11
46.1000000000000014
21
-93.8499999999999943
0
LINE
8
BLACK
6
CONTINUOUS
10
46.1000000000000014
20
-93.8499999999999943
11
46.1000000000000014
21
-93.2000000000000028
0
LINE
8
BLACK
6
CONTINUOUS
10
46.1000000000000014
20
-93.2000000000000028
11
46.1190299999999951
21
-93.1043289999999928
0
LINE
8
BLACK
6
CONTINUOUS
10
46.1190299999999951
20
-93.1043289999999928
11
46.1732230000000001
21
-93.0232230000000015
0
LINE
8
BLACK
6
CONTINUOUS
10
46.1732230000000001
20
-93.0232230000000015
11
46.2543289999999985
21
-92.9690299999999894
0
LINE
8
BLACK
6
CONTINUOUS
10
46.2543289999999985
20
-92.9690299999999894
11
46.3500000000000014
21
-92.9500000000000028
0
LINE
8
BLACK
6
CONTINUOUS
10
46.3500000000000014
20
-92.9500000000000028
11
47.6499999999999986
21
-92.9500000000000028
0
LINE
8
BLACK
6
CONTINUOUS
10
47.6499999999999986
20
-92.9500000000000028
11
47.7456709999999944
21
-92.9690299999999894
0
LINE
8
BLACK
6
CONTINUOUS
10
77.7456710000000015
20
-92.9690299999999894
11
77.8267769999999928
21
-93.0232230000000015
0
LINE
8
BLACK
6
CONTINUOUS
10
77.8267769999999928
20
-93.0232230000000015
11
77.8809699999999907
21
-93.1043289999999928
0
LINE
8
BLACK
6
CONTINUOUS
10
77.8809699999999907
20
-93.1043289999999928
11
77.8999999999999915
21
-93.2000000000000028
0
LINE
8
BLACK
6
CONTINUOUS
10
77.8999999999999915
20
-93.2000000000000028
11
77.8999999999999915
21
-93.8499999999999943
0
LINE
8
BLACK
6
CONTINUOUS
10
77.8999999999999915
20
-93.8499999999999943
11
77.8809699999999907
21
-93.9456709999999902
0
LINE
8
BLACK
6
CONTINUOUS
10
77.8809699999999907
20
-93.9456709999999902
11
77.8267769999999928
21
-94.0267769999999956
0
LINE
8
BLACK
6
CONTINUOUS
10
77.8267769999999928
20
-94.0267769999999956
11
77.7456710000000015
21
-94.0809699999999935
0
LINE
8
BLACK
6
CONTINUOUS
10
77.7456710000000015
20
-94.0809699999999935
11
77.6499999999999915
21
-94.0999999999999943
0
LINE
8
BLACK
6
CONTINUOUS
10
77.6499999999999915
20
-94.0999999999999943
11
76.3499999999999943
21
-94.0999999999999943
0
LINE
8
BLACK
6
CONTINUOUS
10
76.3499999999999943
20
-94.0999999999999943
11
76.2543289999999985
21
-94.0809699999999935
0
LINE
8
BLACK
6
CONTINUOUS
10
76.2543289999999985
20
-94.0809699999999935
11
76.173222999999993
21
-94.0267769999999956
0
LINE
8
BLACK
6
CONTINUOUS
10
76.173222999999993
20
-94.0267769999999956
11
76.1190299999999951
21
-93.9456709999999902
0
LINE
8
BLACK
6
CONTINUOUS
10
76.1190299999999951
20
-93.9456709999999902
11
76.0999999999999943
21
-93.8499999999999943
0
LINE
8
BLACK
6
CONTINUOUS
10
76.0999999999999943
20
-93.8499999999999943
11
76.0999999999999943
21
-93.2000000000000028
0
LINE
8
BLACK
6
CONTINUOUS
10
76.0999999999999943
20
-93.2000000000000028
11
76.1190299999999951
21
-93.1043289999999928
0
LINE
8
BLACK
6
CONTINUOUS
10
76.1190299999999951
20
-93.1043289999999928
11
76.173222999999993
21
-93.0232230000000015
0
LINE
8
BLACK
6
CONTINUOUS
10
76.173222999999993
20
-93.0232230000000015
11
76.2543289999999985
21
-92.9690299999999894
0
LINE
8
BLACK
6
CONTINUOUS
10
76.2543289999999985
20
-92.9690299999999894
11
76.3499999999999943
21
-92.9500000000000028
0
LINE
8
BLACK
6
CONTINUOUS
10
76.3499999999999943
20
-92.9500000000000028
11
77.6499999999999915
21
-92.9500000000000028
0
LINE
8
BLACK
6
CONTINUOUS
10
77.6499999999999915
20
-92.9500000000000028
11
77.7456710000000015
21
-92.9690299999999894
0
LINE
8
BLACK
6
CONTINUOUS
10
107.7456710000000015
20
-92.9690299999999894
11
107.8267769999999928
21
-93.0232230000000015
0
LINE
8
BLACK
6
CONTINUOUS
10
107.8267769999999928
20
-93.0232230000000015
11
107.8809699999999907
21
-93.1043289999999928
0
LINE
8
BLACK
6
CONTINUOUS
10
107.8809699999999907
20
-93.1043289999999928
11
107.8999999999999915
21
-93.2000000000000028
0
LINE
8
BLACK
6
CONTINUOUS
10
107.8999999999999915
20
-93.2000000000000028
11
107.8999999999999915
21
-93.8499999999999943
0
LINE
8
BLACK
6
CONTINUOUS
10
107.8999999999999915
20
-93.8499999999999943
11
107.8809699999999907
21
-93.9456709999999902
0
LINE
8
BLACK
6
CONTINUOUS
10
107.8809699999999907
20
-93.9456709999999902
11
107.8267769999999928
21
-94.0267769999999956
0
LINE
8
BLACK
6
CONTINUOUS
10
107.8267769999999928
20
-94.0267769999999956
11
107.7456710000000015
21
-94.0809699999999935
0
LINE
8
BLACK
6
CONTINUOUS
10
107.7456710000000015
20
-94.0809699999999935
11
107.6499999999999915
21
-94.0999999999999943
0
LINE
8
BLACK
6
CONTINUOUS
10
107.6499999999999915
20
-94.0999999999999943
11
106.3499999999999943
21
-94.0999999999999943
0
LINE
8
BLACK
6
CONTINUOUS
10
106.3499999999999943
20
-94.0999999999999943
11
106.2543289999999985
21
-94.0809699999999935
0
LINE
8
BLACK
6
CONTINUOUS
10
106.2543289999999985
20
-94.0809699999999935
11
106.173222999999993
21
-94.0267769999999956
0
LINE
8
BLACK
6
CONTINUOUS
10
106.173222999999993
20
-94.0267769999999956
11
106.1190299999999951
21
-93.9456709999999902
0
LINE
8
BLACK
6
CONTINUOUS
10
106.1190299999999951
20
-93.9456709999999902
11
106.0999999999999943
21
-93.8499999999999943
0
LINE
8
BLACK
6
CONTINUOUS
10
106.0999999999999943
20
-93.8499999999999943
11
106.0999999999999943
21
-93.2000000000000028
0
LINE
8
BLACK
6
CONTINUOUS
10
106.0999999999999943
20
-93.2000000000000028
11
106.1190299999999951
21
-93.1043289999999928
0
LINE
8
BLACK
6
CONTINUOUS
10
106.1190299999999951
20
-93.1043289999999928
11
106.173222999999993
21
-93.0232230000000015
0
LINE
8
BLACK
6
CONTINUOUS
10
106.173222999999993
20
-93.0232230000000015
11
106.2543289999999985
21
-92.9690299999999894
0
LINE
8
BLACK
6
CONTINUOUS
10
106.2543289999999985
20
-92.9690299999999894
11
106.3499999999999943
21
-92.9500000000000028
0
LINE
8
BLACK
6
CONTINUOUS
10
106.3499999999999943
20
-92.9500000000000028
11
107.6499999999999915
21
-92.9500000000000028
0
LINE
8
BLACK
6
CONTINUOUS
10
107.6499999999999915
20
-92.9500000000000028
11
107.7456710000000015
21
-92.9690299999999894
0
LINE
8
BLACK
6
CONTINUOUS
10
137.7456709999999873
20
-92.9690299999999894
11
137.8267769999999928
21
-93.0232230000000015
0
LINE
8
BLACK
6
CONTINUOUS
10
137.8267769999999928
20
-93.0232230000000015
11
137.8809699999999907
21
-93.1043289999999928
0
LINE
8
BLACK
6
CONTINUOUS
10
137.8809699999999907
20
-93.1043289999999928
11
137.9000000000000057
21
-93.2000000000000028
0
LINE
8
BLACK
6
CONTINUOUS
10
137.9000000000000057
20
-93.2000000000000028
11
137.9000000000000057
21
-93.8499999999999943
0
LINE
8
BLACK
6
CONTINUOUS
10
137.9000000000000057
20
-93.8499999999999943
11
137.8809699999999907
21
-93.9456709999999902
0
LINE
8
BLACK
6
CONTINUOUS
10
137.8809699999999907
20
-93.9456709999999902
11
137.8267769999999928
21
-94.0267769999999956
0
LINE
8
BLACK
6
CONTINUOUS
10
137.8267769999999928
20
-94.0267769999999956
11
137.7456709999999873
21
-94.0809699999999935
0
LINE
8
BLACK
6
CONTINUOUS
10
137.7456709999999873
20
-94.0809699999999935
11
137.6500000000000057
21
-94.0999999999999943
0
LINE
8
BLACK
6
CONTINUOUS
10
137.6500000000000057
20
-94.0999999999999943
11
136.3499999999999943
21
-94.0999999999999943
0
LINE
8
BLACK
6
CONTINUOUS
10
136.3499999999999943
20
-94.0999999999999943
11
136.2543289999999843
21
-94.0809699999999935
0
LINE
8
BLACK
6
CONTINUOUS
10
136.2543289999999843
20
-94.0809699999999935
11
136.1732230000000072
21
-94.0267769999999956
0
LINE
8
BLACK
6
CONTINUOUS
10
136.1732230000000072
20
-94.0267769999999956
11
136.1190299999999809
21
-93.9456709999999902
0
LINE
8
BLACK
6
CONTINUOUS
10
136.1190299999999809
20
-93.9456709999999902
11
136.0999999999999943
21
-93.8499999999999943
0
LINE
8
BLACK
6
CONTINUOUS
10
136.0999999999999943
20
-93.8499999999999943
11
136.0999999999999943
21
-93.2000000000000028
0
LINE
8
BLACK
6
CONTINUOUS
10
136.0999999999999943
20
-93.2000000000000028
11
136.1190299999999809
21
-93.1043289999999928
0
LINE
8
BLACK
6
CONTINUOUS
10
136.1190299999999809
20
-93.1043289999999928
11
136.1732230000000072
21
-93.0232230000000015
0
LINE
8
BLACK
6
CONTINUOUS
10
136.1732230000000072
20
-93.0232230000000015
11
136.2543289999999843
21
-92.9690299999999894
0
LINE
8
BLACK
6
CONTINUOUS
10
136.2543289999999843
20
-92.9690299999999894
11
136.3499999999999943
21
-92.9500000000000028
0
LINE
8
BLACK
6
CONTINUOUS
10
136.3499999999999943
20
-92.9500000000000028
11
137.6500000000000057
21
-92.9500000000000028
0
LINE
8
BLACK
6
CONTINUOUS
10
137.6500000000000057
20
-92.9500000000000028
11
137.7456709999999873
21
-92.9690299999999894
0
LINE
8
BLACK
6
CONTINUOUS
10
167.7456709999999873
20
-92.9690299999999894
11
167.8267769999999928
21
-93.0232230000000015
0
LINE
8
BLACK
6
CONTINUOUS
10
167.8267769999999928
20
-93.0232230000000015
11
167.8809699999999907
21
-93.1043289999999928
0
LINE
8
BLACK
6
CONTINUOUS
10
167.8809699999999907
20
-93.1043289999999928
11
167.9000000000000057
21
-93.2000000000000028
0
LINE
8
BLACK
6
CONTINUOUS
10
167.9000000000000057
20
-93.2000000000000028
11
167.9000000000000057
21
-93.8499999999999943
0
LINE
8
BLACK
6
CONTINUOUS
10
167.9000000000000057
20
-93.8499999999999943
11
167.8809699999999907
21
-93.9456709999999902
0
LINE
8
BLACK
6
CONTINUOUS
10
167.8809699999999907
20
-93.9456709999999902
11
167.8267769999999928
21
-94.0267769999999956
0
LINE
8
BLACK
6
CONTINUOUS
10
167.8267769999999928
20
-94.0267769999999956
11
167.7456709999999873
21
-94.0809699999999935
0
LINE
8
BLACK
6
CONTINUOUS
10
167.7456709999999873
20
-94.0809699999999935
11
167.6500000000000057
21
-94.0999999999999943
0
LINE
8
BLACK
6
CONTINUOUS
10
167.6500000000000057
20
-94.0999999999999943
11
166.3499999999999943
21
-94.0999999999999943
0
LINE
8
BLACK
6
CONTINUOUS
10
166.3499999999999943
20
-94.0999999999999943
11
166.2543289999999843
21
-94.0809699999999935
0
LINE
8
BLACK
6
CONTINUOUS
10
166.2543289999999843
20
-94.0809699999999935
11
166.1732229999999788
21
-94.0267769999999956
0
LINE
8
BLACK
6
CONTINUOUS
10
166.1732229999999788
20
-94.0267769999999956
11
166.1190299999999809
21
-93.9456709999999902
0
LINE
8
BLACK
6
CONTINUOUS
10
166.1190299999999809
20
-93.9456709999999902
11
166.0999999999999943
21
-93.8499999999999943
0
LINE
8
BLACK
6
CONTINUOUS
10
166.0999999999999943
20
-93.8499999999999943
11
166.0999999999999943
21
-93.2000000000000028
0
LINE
8
BLACK
6
CONTINUOUS
10
166.0999999999999943
20
-93.2000000000000028
11
166.1190299999999809
21
-93.1043289999999928
0
LINE
8
BLACK
6
CONTINUOUS
10
166.1190299999999809
20
-93.1043289999999928
11
166.1732229999999788
21
-93.0232230000000015
0
LINE
8
BLACK
6
CONTINUOUS
10
166.1732229999999788
20
-93.0232230000000015
11
166.2543289999999843
21
-92.9690299999999894
0
LINE
8
BLACK
6
CONTINUOUS
10
166.2543289999999843
20
-92.9690299999999894
11
166.3499999999999943
21
-92.9500000000000028
0
LINE
8
BLACK
6
CONTINUOUS
10
166.3499999999999943
20
-92.9500000000000028
11
167.6500000000000057
21
-92.9500000000000028
0
LINE
8
BLACK
6
CONTINUOUS
10
167.6500000000000057
20
-92.9500000000000028
11
167.7456709999999873
21
-92.9690299999999894
0
LINE
8
BLACK
6
CONTINUOUS
10
197.7456709999999873
20
-92.9690299999999894
11
197.8267769999999928
21
-93.0232230000000015
0
LINE
8
BLACK
6
CONTINUOUS
10
197.8267769999999928
20
-93.0232230000000015
11
197.8809699999999907
21
-93.1043289999999928
0
LINE
8
BLACK
6
CONTINUOUS
10
197.8809699999999907
20
-93.1043289999999928
11
197.8999999999999773
21
-93.2000000000000028
0
LINE
8
BLACK
6
CONTINUOUS
10
197.8999999999999773
20
-93.2000000000000028
11
197.8999999999999773
21
-93.8499999999999943
0
LINE
8
BLACK
6
CONTINUOUS
10
197.8999999999999773
20
-93.8499999999999943
11
197.8809699999999907
21
-93.9456709999999902
0
LINE
8
BLACK
6
CONTINUOUS
10
197.8809699999999907
20
-93.9456709999999902
11
197.8267769999999928
21
-94.0267769999999956
0
LINE
8
BLACK
6
CONTINUOUS
10
197.8267769999999928
20
-94.0267769999999956
11
197.7456709999999873
21
-94.0809699999999935
0
LINE
8
BLACK
6
CONTINUOUS
10
197.7456709999999873
20
-94.0809699999999935
11
197.6499999999999773
21
-94.0999999999999943
0
LINE
8
BLACK
6
CONTINUOUS
10
197.6499999999999773
20
-94.0999999999999943
11
196.3499999999999943
21
-94.0999999999999943
0
LINE
8
BLACK
6
CONTINUOUS
10
196.3499999999999943
20
-94.0999999999999943
11
196.2543289999999843
21
-94.0809699999999935
0
LINE
8
BLACK
6
CONTINUOUS
10
196.2543289999999843
20
-94.0809699999999935
11
196.1732229999999788
21
-94.0267769999999956
0
LINE
8
BLACK
6
CONTINUOUS
10
196.1732229999999788
20
-94.0267769999999956
11
196.1190299999999809
21
-93.9456709999999902
0
LINE
8
BLACK
6
CONTINUOUS
10
196.1190299999999809
20
-93.9456709999999902
11
196.0999999999999943
21
-93.8499999999999943
0
LINE
8
BLACK
6
CONTINUOUS
10
196.0999999999999943
20
-93.8499999999999943
11
196.0999999999999943
21
-93.2000000000000028
0
LINE
8
BLACK
6
CONTINUOUS
10
196.0999999999999943
20
-93.2000000000000028
11
196.1190299999999809
21
-93.1043289999999928
0
LINE
8
BLACK
6
CONTINUOUS
10
196.1190299999999809
20
-93.1043289999999928
11
196.1732229999999788
21
-93.0232230000000015
0
LINE
8
BLACK
6
CONTINUOUS
10
196.1732229999999788
20
-93.0232230000000015
11
196.2543289999999843
21
-92.9690299999999894
0
LINE
8
BLACK
6
CONTINUOUS
10
196.2543289999999843
20
-92.9690299999999894
11
196.3499999999999943
21
-92.9500000000000028
0
LINE
8
BLACK
6
CONTINUOUS
10
196.3499999999999943
20
-92.9500000000000028
11
197.6499999999999773
21
-92.9500000000000028
0
LINE
8
BLACK
6
CONTINUOUS
10
197.6499999999999773
20
-92.9500000000000028
11
197.7456709999999873
21
-92.9690299999999894
0
LINE
8
BLACK
6
CONTINUOUS
10
227.7456709999999873
20
-92.9690299999999894
11
227.8267769999999928
21
-93.0232230000000015
0
LINE
8
BLACK
6
CONTINUOUS
10
227.8267769999999928
20
-93.0232230000000015
11
227.8809699999999907
21
-93.1043289999999928
0
LINE
8
BLACK
6
CONTINUOUS
10
227.8809699999999907
20
-93.1043289999999928
11
227.8999999999999773
21
-93.2000000000000028
0
LINE
8
BLACK
6
CONTINUOUS
10
227.8999999999999773
20
-93.2000000000000028
11
227.8999999999999773
21
-93.8499999999999943
0
LINE
8
BLACK
6
CONTINUOUS
10
227.8999999999999773
20
-93.8499999999999943
11
227.8809699999999907
21
-93.9456709999999902
0
LINE
8
BLACK
6
CONTINUOUS
10
227.8809699999999907
20
-93.9456709999999902
11
227.8267769999999928
21
-94.0267769999999956
0
LINE
8
BLACK
6
CONTINUOUS
10
227.8267769999999928
20
-94.0267769999999956
11
227.7456709999999873
21
-94.0809699999999935
0
LINE
8
BLACK
6
CONTINUOUS
10
227.7456709999999873
20
-94.0809699999999935
11
227.6499999999999773
21
-94.0999999999999943
0
LINE
8
BLACK
6
CONTINUOUS
10
227.6499999999999773
20
-94.0999999999999943
11
226.3499999999999943
21
-94.0999999999999943
0
LINE
8
BLACK
6
CONTINUOUS
10
226.3499999999999943
20
-94.0999999999999943
11
226.2543289999999843
21
-94.0809699999999935
0
LINE
8
BLACK
6
CONTINUOUS
10
226.2543289999999843
20
-94.0809699999999935
11
226.1732229999999788
21
-94.0267769999999956
0
LINE
8
BLACK
6
CONTINUOUS
10
226.1732229999999788
20
-94.0267769999999956
11
226.1190299999999809
21
-93.9456709999999902
0
LINE
8
BLACK
6
CONTINUOUS
10
226.1190299999999809
20
-93.9456709999999902
11
226.0999999999999943
21
-93.8499999999999943
0
LINE
8
BLACK
6
CONTINUOUS
10
226.0999999999999943
20
-93.8499999999999943
11
226.0999999999999943
21
-93.2000000000000028
0
LINE
8
BLACK
6
CONTINUOUS
10
226.0999999999999943
20
-93.2000000000000028
11
226.1190299999999809
21
-93.1043289999999928
0
LINE
8
BLACK
6
CONTINUOUS
10
226.1190299999999809
20
-93.1043289999999928
11
226.1732229999999788
21
-93.0232230000000015
0
LINE
8
BLACK
6
CONTINUOUS
10
226.1732229999999788
20
-93.0232230000000015
11
226.2543289999999843
21
-92.9690299999999894
0
LINE
8
BLACK
6
CONTINUOUS
10
226.2543289999999843
20
-92.9690299999999894
11
226.3499999999999943
21
-92.9500000000000028
0
LINE
8
BLACK
6
CONTINUOUS
10
226.3499999999999943
20
-92.9500000000000028
11
227.6499999999999773
21
-92.9500000000000028
0
LINE
8
BLACK
6
CONTINUOUS
10
227.6499999999999773
20
-92.9500000000000028
11
227.7456709999999873
21
-92.9690299999999894
0
LINE
8
BLACK
6
CONTINUOUS
10
257.7456710000000157
20
-92.9690299999999894
11
257.8267769999999928
21
-93.0232230000000015
0
LINE
8
BLACK
6
CONTINUOUS
10
257.8267769999999928
20
-93.0232230000000015
11
257.8809699999999907
21
-93.1043289999999928
0
LINE
8
BLACK
6
CONTINUOUS
10
257.8809699999999907
20
-93.1043289999999928
11
257.8999999999999773
21
-93.2000000000000028
0
LINE
8
BLACK
6
CONTINUOUS
10
257.8999999999999773
20
-93.2000000000000028
11
257.8999999999999773
21
-93.8499999999999943
0
LINE
8
BLACK
6
CONTINUOUS
10
257.8999999999999773
20
-93.8499999999999943
11
257.8809699999999907
21
-93.9456709999999902
0
LINE
8
BLACK
6
CONTINUOUS
10
257.8809699999999907
20
-93.9456709999999902
11
257.8267769999999928
21
-94.0267769999999956
0
LINE
8
BLACK
6
CONTINUOUS
10
257.8267769999999928
20
-94.0267769999999956
11
257.7456710000000157
21
-94.0809699999999935
0
LINE
8
BLACK
6
CONTINUOUS
10
257.7456710000000157
20
-94.0809699999999935
11
257.6499999999999773
21
-94.0999999999999943
0
LINE
8
BLACK
6
CONTINUOUS
10
257.6499999999999773
20
-94.0999999999999943
11
256.3499999999999659
21
-94.0999999999999943
0
LINE
8
BLACK
6
CONTINUOUS
10
256.3499999999999659
20
-94.0999999999999943
11
256.2543289999999843
21
-94.0809699999999935
0
LINE
8
BLACK
6
CONTINUOUS
10
256.2543289999999843
20
-94.0809699999999935
11
256.1732230000000072
21
-94.0267769999999956
0
LINE
8
BLACK
6
CONTINUOUS
10
256.1732230000000072
20
-94.0267769999999956
11
256.1190300000000093
21
-93.9456709999999902
0
LINE
8
BLACK
6
CONTINUOUS
10
256.1190300000000093
20
-93.9456709999999902
11
256.0999999999999659
21
-93.8499999999999943
0
LINE
8
BLACK
6
CONTINUOUS
10
256.0999999999999659
20
-93.8499999999999943
11
256.0999999999999659
21
-93.2000000000000028
0
LINE
8
BLACK
6
CONTINUOUS
10
256.0999999999999659
20
-93.2000000000000028
11
256.1190300000000093
21
-93.1043289999999928
0
LINE
8
BLACK
6
CONTINUOUS
10
256.1190300000000093
20
-93.1043289999999928
11
256.1732230000000072
21
-93.0232230000000015
0
LINE
8
BLACK
6
CONTINUOUS
10
256.1732230000000072
20
-93.0232230000000015
11
256.2543289999999843
21
-92.9690299999999894
0
LINE
8
BLACK
6
CONTINUOUS
10
256.2543289999999843
20
-92.9690299999999894
11
256.3499999999999659
21
-92.9500000000000028
0
LINE
8
BLACK
6
CONTINUOUS
10
256.3499999999999659
20
-92.9500000000000028
11
257.6499999999999773
21
-92.9500000000000028
0
LINE
8
BLACK
6
CONTINUOUS
10
257.6499999999999773
20
-92.9500000000000028
11
257.7456710000000157
21
-92.9690299999999894
0
LINE
8
BLACK
6
CONTINUOUS
10
62.7456709999999944
20
-65.9190299999999922
11
62.8267769999999999
21
-65.9732229999999902
0
LINE
8
BLACK
6
CONTINUOUS
10
62.8267769999999999
20
-65.9732229999999902
11
62.8809699999999978
21
-66.0543289999999956
0
LINE
8
BLACK
6
CONTINUOUS
10
62.8809699999999978
20
-66.0543289999999956
11
62.8999999999999986
21
-66.1499999999999915
0
LINE
8
BLACK
6
CONTINUOUS
10
62.8999999999999986
20
-66.1499999999999915
11
62.8999999999999986
21
-66.7999999999999972
0
LINE
8
BLACK
6
CONTINUOUS
10
62.8999999999999986
20
-66.7999999999999972
11
62.8809699999999978
21
-66.895670999999993
0
LINE
8
BLACK
6
CONTINUOUS
10
62.8809699999999978
20
-66.895670999999993
11
62.8267769999999999
21
-66.9767769999999985
0
LINE
8
BLACK
6
CONTINUOUS
10
62.8267769999999999
20
-66.9767769999999985
11
62.7456709999999944
21
-67.0309699999999964
0
LINE
8
BLACK
6
CONTINUOUS
10
62.7456709999999944
20
-67.0309699999999964
11
62.6499999999999986
21
-67.0499999999999972
0
LINE
8
BLACK
6
CONTINUOUS
10
62.6499999999999986
20
-67.0499999999999972
11
61.3499999999999943
21
-67.0499999999999972
0
LINE
8
BLACK
6
CONTINUOUS
10
61.3499999999999943
20
-67.0499999999999972
11
61.2543289999999985
21
-67.0309699999999964
0
LINE
8
BLACK
6
CONTINUOUS
10
61.2543289999999985
20
-67.0309699999999964
11
61.1732230000000001
21
-66.9767769999999985
0
LINE
8
BLACK
6
CONTINUOUS
10
61.1732230000000001
20
-66.9767769999999985
11
61.1190299999999951
21
-66.895670999999993
0
LINE
8
BLACK
6
CONTINUOUS
10
61.1190299999999951
20
-66.895670999999993
11
61.0999999999999943
21
-66.7999999999999972
0
LINE
8
BLACK
6
CONTINUOUS
10
61.0999999999999943
20
-66.7999999999999972
11
61.0999999999999943
21
-66.1499999999999915
0
LINE
8
BLACK
6
CONTINUOUS
10
61.0999999999999943
20
-66.1499999999999915
11
61.1190299999999951
21
-66.0543289999999956
0
LINE
8
BLACK
6
CONTINUOUS
10
61.1190299999999951
20
-66.0543289999999956
11
61.1732230000000001
21
-65.9732229999999902
0
LINE
8
BLACK
6
CONTINUOUS
10
61.1732230000000001
20
-65.9732229999999902
11
61.2543289999999985
21
-65.9190299999999922
0
LINE
8
BLACK
6
CONTINUOUS
10
61.2543289999999985
20
-65.9190299999999922
11
61.3499999999999943
21
-65.8999999999999915
0
LINE
8
BLACK
6
CONTINUOUS
10
61.3499999999999943
20
-65.8999999999999915
11
62.6499999999999986
21
-65.8999999999999915
0
LINE
8
BLACK
6
CONTINUOUS
10
62.6499999999999986
20
-65.8999999999999915
11
62.7456709999999944
21
-65.9190299999999922
0
LINE
8
BLACK
6
CONTINUOUS
10
92.7456710000000015
20
-65.9190299999999922
11
92.8267769999999928
21
-65.9732229999999902
0
LINE
8
BLACK
6
CONTINUOUS
10
92.8267769999999928
20
-65.9732229999999902
11
92.8809699999999907
21
-66.0543289999999956
0
LINE
8
BLACK
6
CONTINUOUS
10
92.8809699999999907
20
-66.0543289999999956
11
92.8999999999999915
21
-66.1499999999999915
0
LINE
8
BLACK
6
CONTINUOUS
10
92.8999999999999915
20
-66.1499999999999915
11
92.8999999999999915
21
-66.7999999999999972
0
LINE
8
BLACK
6
CONTINUOUS
10
92.8999999999999915
20
-66.7999999999999972
11
92.8809699999999907
21
-66.895670999999993
0
LINE
8
BLACK
6
CONTINUOUS
10
92.8809699999999907
20
-66.895670999999993
11
92.8267769999999928
21
-66.9767769999999985
0
LINE
8
BLACK
6
CONTINUOUS
10
92.8267769999999928
20
-66.9767769999999985
11
92.7456710000000015
21
-67.0309699999999964
0
LINE
8
BLACK
6
CONTINUOUS
10
92.7456710000000015
20
-67.0309699999999964
11
92.6499999999999915
21
-67.0499999999999972
0
LINE
8
BLACK
6
CONTINUOUS
10
92.6499999999999915
20
-67.0499999999999972
11
91.3499999999999943
21
-67.0499999999999972
0
LINE
8
BLACK
6
CONTINUOUS
10
91.3499999999999943
20
-67.0499999999999972
11
91.2543289999999985
21
-67.0309699999999964
0
LINE
8
BLACK
6
CONTINUOUS
10
91.2543289999999985
20
-67.0309699999999964
11
91.173222999999993
21
-66.9767769999999985
0
LINE
8
BLACK
6
CONTINUOUS
10
91.173222999999993
20
-66.9767769999999985
11
91.1190299999999951
21
-66.895670999999993
0
LINE
8
BLACK
6
CONTINUOUS
10
91.1190299999999951
20
-66.895670999999993
11
91.0999999999999943
21
-66.7999999999999972
0
LINE
8
BLACK
6
CONTINUOUS
10
91.0999999999999943
20
-66.7999999999999972
11
91.0999999999999943
21
-66.1499999999999915
0
LINE
8
BLACK
6
CONTINUOUS
10
91.0999999999999943
20
-66.1499999999999915
11
91.1190299999999951
21
-66.0543289999999956
0
LINE
8
BLACK
6
CONTINUOUS
10
91.1190299999999951
20
-66.0543289999999956
11
91.173222999999993
21
-65.9732229999999902
0
LINE
8
BLACK
6
CONTINUOUS
10
91.173222999999993
20
-65.9732229999999902
11
91.2543289999999985
21
-65.9190299999999922
0
LINE
8
BLACK
6
CONTINUOUS
10
91.2543289999999985
20
-65.9190299999999922
11
91.3499999999999943
21
-65.8999999999999915
0
LINE
8
BLACK
6
CONTINUOUS
10
91.3499999999999943
20
-65.8999999999999915
11
92.6499999999999915
21
-65.8999999999999915
0
LINE
8
BLACK
6
CONTINUOUS
10
92.6499999999999915
20
-65.8999999999999915
11
92.7456710000000015
21
-65.9190299999999922
0
LINE
8
BLACK
6
CONTINUOUS
10
122.7456710000000015
20
-65.9190299999999922
11
122.8267769999999928
21
-65.9732229999999902
0
LINE
8
BLACK
6
CONTINUOUS
10
122.8267769999999928
20
-65.9732229999999902
11
122.8809699999999907
21
-66.0543289999999956
0
LINE
8
BLACK
6
CONTINUOUS
10
122.8809699999999907
20
-66.0543289999999956
11
122.8999999999999915
21
-66.1499999999999915
0
LINE
8
BLACK
6
CONTINUOUS
10
122.8999999999999915
20
-66.1499999999999915
11
122.8999999999999915
21
-66.7999999999999972
0
LINE
8
BLACK
6
CONTINUOUS
10
122.8999999999999915
20
-66.7999999999999972
11
122.8809699999999907
21
-66.895670999999993
0
LINE
8
BLACK
6
CONTINUOUS
10
122.8809699999999907
20
-66.895670999999993
11
122.8267769999999928
21
-66.9767769999999985
0
LINE
8
BLACK
6
CONTINUOUS
10
122.8267769999999928
20
-66.9767769999999985
11
122.7456710000000015
21
-67.0309699999999964
0
LINE
8
BLACK
6
CONTINUOUS
10
122.7456710000000015
20
-67.0309699999999964
11
122.6499999999999915
21
-67.0499999999999972
0
LINE
8
BLACK
6
CONTINUOUS
10
122.6499999999999915
20
-67.0499999999999972
11
121.3499999999999943
21
-67.0499999999999972
0
LINE
8
BLACK
6
CONTINUOUS
10
121.3499999999999943
20
-67.0499999999999972
11
121.2543289999999985
21
-67.0309699999999964
0
LINE
8
BLACK
6
CONTINUOUS
10
121.2543289999999985
20
-67.0309699999999964
11
121.173222999999993
21
-66.9767769999999985
0
LINE
8
BLACK
6
CONTINUOUS
10
121.173222999999993
20
-66.9767769999999985
11
121.1190299999999951
21
-66.895670999999993
0
LINE
8
BLACK
6
CONTINUOUS
10
121.1190299999999951
20
-66.895670999999993
11
121.0999999999999943
21
-66.7999999999999972
0
LINE
8
BLACK
6
CONTINUOUS
10
121.0999999999999943
20
-66.7999999999999972
11
121.0999999999999943
21
-66.1499999999999915
0
LINE
8
BLACK
6
CONTINUOUS
10
121.0999999999999943
20
-66.1499999999999915
11
121.1190299999999951
21
-66.0543289999999956
0
LINE
8
BLACK
6
CONTINUOUS
10
121.1190299999999951
20
-66.0543289999999956
11
121.173222999999993
21
-65.9732229999999902
0
LINE
8
BLACK
6
CONTINUOUS
10
121.173222999999993
20
-65.9732229999999902
11
121.2543289999999985
21
-65.9190299999999922
0
LINE
8
BLACK
6
CONTINUOUS
10
121.2543289999999985
20
-65.9190299999999922
11
121.3499999999999943
21
-65.8999999999999915
0
LINE
8
BLACK
6
CONTINUOUS
10
121.3499999999999943
20
-65.8999999999999915
11
122.6499999999999915
21
-65.8999999999999915
0
LINE
8
BLACK
6
CONTINUOUS
10
122.6499999999999915
20
-65.8999999999999915
11
122.7456710000000015
21
-65.9190299999999922
0
LINE
8
BLACK
6
CONTINUOUS
10
152.7456709999999873
20
-65.9190299999999922
11
152.8267769999999928
21
-65.9732229999999902
0
LINE
8
BLACK
6
CONTINUOUS
10
152.8267769999999928
20
-65.9732229999999902
11
152.8809699999999907
21
-66.0543289999999956
0
LINE
8
BLACK
6
CONTINUOUS
10
152.8809699999999907
20
-66.0543289999999956
11
152.9000000000000057
21
-66.1499999999999915
0
LINE
8
BLACK
6
CONTINUOUS
10
152.9000000000000057
20
-66.1499999999999915
11
152.9000000000000057
21
-66.7999999999999972
0
LINE
8
BLACK
6
CONTINUOUS
10
152.9000000000000057
20
-66.7999999999999972
11
152.8809699999999907
21
-66.895670999999993
0
LINE
8
BLACK
6
CONTINUOUS
10
152.8809699999999907
20
-66.895670999999993
11
152.8267769999999928
21
-66.9767769999999985
0
LINE
8
BLACK
6
CONTINUOUS
10
152.8267769999999928
20
-66.9767769999999985
11
152.7456709999999873
21
-67.0309699999999964
0
LINE
8
BLACK
6
CONTINUOUS
10
152.7456709999999873
20
-67.0309699999999964
11
152.6500000000000057
21
-67.0499999999999972
0
LINE
8
BLACK
6
CONTINUOUS
10
152.6500000000000057
20
-67.0499999999999972
11
151.3499999999999943
21
-67.0499999999999972
0
LINE
8
BLACK
6
CONTINUOUS
10
151.3499999999999943
20
-67.0499999999999972
11
151.2543289999999843
21
-67.0309699999999964
0
LINE
8
BLACK
6
CONTINUOUS
10
151.2543289999999843
20
-67.0309699999999964
11
151.1732230000000072
21
-66.9767769999999985
0
LINE
8
BLACK
6
CONTINUOUS
10
151.1732230000000072
20
-66.9767769999999985
11
151.1190299999999809
21
-66.895670999999993
0
LINE
8
BLACK
6
CONTINUOUS
10
151.1190299999999809
20
-66.895670999999993
11
151.0999999999999943
21
-66.7999999999999972
0
LINE
8
BLACK
6
CONTINUOUS
10
151.0999999999999943
20
-66.7999999999999972
11
151.0999999999999943
21
-66.1499999999999915
0
LINE
8
BLACK
6
CONTINUOUS
10
151.0999999999999943
20
-66.1499999999999915
11
151.1190299999999809
21
-66.0543289999999956
0
LINE
8
BLACK
6
CONTINUOUS
10
151.1190299999999809
20
-66.0543289999999956
11
151.1732230000000072
21
-65.9732229999999902
0
LINE
8
BLACK
6
CONTINUOUS
10
151.1732230000000072
20
-65.9732229999999902
11
151.2543289999999843
21
-65.9190299999999922
0
LINE
8
BLACK
6
CONTINUOUS
10
151.2543289999999843
20
-65.9190299999999922
11
151.3499999999999943
21
-65.8999999999999915
0
LINE
8
BLACK
6
CONTINUOUS
10
151.3499999999999943
20
-65.8999999999999915
11
152.6500000000000057
21
-65.8999999999999915
0
LINE
8
BLACK
6
CONTINUOUS
10
152.6500000000000057
20
-65.8999999999999915
11
152.7456709999999873
21
-65.9190299999999922
0
LINE
8
BLACK
6
CONTINUOUS
10
182.7456709999999873
20
-65.9190299999999922
11
182.8267769999999928
21
-65.9732229999999902
0
LINE
8
BLACK
6
CONTINUOUS
10
182.8267769999999928
20
-65.9732229999999902
11
182.8809699999999907
21
-66.0543289999999956
0
LINE
8
BLACK
6
CONTINUOUS
10
182.8809699999999907
20
-66.0543289999999956
11
182.9000000000000057
21
-66.1499999999999915
0
LINE
8
BLACK
6
CONTINUOUS
10
182.9000000000000057
20
-66.1499999999999915
11
182.9000000000000057
21
-66.7999999999999972
0
LINE
8
BLACK
6
CONTINUOUS
10
182.9000000000000057
20
-66.7999999999999972
11
182.8809699999999907
21
-66.895670999999993
0
LINE
8
BLACK
6
CONTINUOUS
10
182.8809699999999907
20
-66.895670999999993
11
182.8267769999999928
21
-66.9767769999999985
0
LINE
8
BLACK
6
CONTINUOUS
10
182.8267769999999928
20
-66.9767769999999985
11
182.7456709999999873
21
-67.0309699999999964
0
LINE
8
BLACK
6
CONTINUOUS
10
182.7456709999999873
20
-67.0309699999999964
11
182.6500000000000057
21
-67.0499999999999972
0
LINE
8
BLACK
6
CONTINUOUS
10
182.6500000000000057
20
-67.0499999999999972
11
181.3499999999999943
21
-67.0499999999999972
0
LINE
8
BLACK
6
CONTINUOUS
10
181.3499999999999943
20
-67.0499999999999972
11
181.2543289999999843
21
-67.0309699999999964
0
LINE
8
BLACK
6
CONTINUOUS
10
181.2543289999999843
20
-67.0309699999999964
11
181.1732229999999788
21
-66.9767769999999985
0
LINE
8
BLACK
6
CONTINUOUS
10
181.1732229999999788
20
-66.9767769999999985
11
181.1190299999999809
21
-66.895670999999993
0
LINE
8
BLACK
6
CONTINUOUS
10
181.1190299999999809
20
-66.895670999999993
11
181.0999999999999943
21
-66.7999999999999972
0
LINE
8
BLACK
6
CONTINUOUS
10
181.0999999999999943
20
-66.7999999999999972
11
181.0999999999999943
21
-66.1499999999999915
0
LINE
8
BLACK
6
CONTINUOUS
10
181.0999999999999943
20
-66.1499999999999915
11
181.1190299999999809
21
-66.0543289999999956
0
LINE
8
BLACK
6
CONTINUOUS
10
181.1190299999999809
20
-66.0543289999999956
11
181.1732229999999788
21
-65.9732229999999902
0
LINE
8
BLACK
6
CONTINUOUS
10
181.1732229999999788
20
-65.9732229999999902
11
181.2543289999999843
21
-65.9190299999999922
0
LINE
8
BLACK
6
CONTINUOUS
10
181.2543289999999843
20
-65.9190299999999922
11
181.3499999999999943
21
-65.8999999999999915
0
LINE
8
BLACK
6
CONTINUOUS
10
181.3499999999999943
20
-65.8999999999999915
11
182.6500000000000057
21
-65.8999999999999915
0
LINE
8
BLACK
6
CONTINUOUS
10
182.6500000000000057
20
-65.8999999999999915
11
182.7456709999999873
21
-65.9190299999999922
0
LINE
8
BLACK
6
CONTINUOUS
10
212.7456709999999873
20
-65.9190299999999922
11
212.8267769999999928
21
-65.9732229999999902
0
LINE
8
BLACK
6
CONTINUOUS
10
212.8267769999999928
20
-65.9732229999999902
11
212.8809699999999907
21
-66.0543289999999956
0
LINE
8
BLACK
6
CONTINUOUS
10
212.8809699999999907
20
-66.0543289999999956
11
212.8999999999999773
21
-66.1499999999999915
0
LINE
8
BLACK
6
CONTINUOUS
10
212.8999999999999773
20
-66.1499999999999915
11
212.8999999999999773
21
-66.7999999999999972
0
LINE
8
BLACK
6
CONTINUOUS
10
212.8999999999999773
20
-66.7999999999999972
11
212.8809699999999907
21
-66.895670999999993
0
LINE
8
BLACK
6
CONTINUOUS
10
212.8809699999999907
20
-66.895670999999993
11
212.8267769999999928
21
-66.9767769999999985
0
LINE
8
BLACK
6
CONTINUOUS
10
212.8267769999999928
20
-66.9767769999999985
11
212.7456709999999873
21
-67.0309699999999964
0
LINE
8
BLACK
6
CONTINUOUS
10
212.7456709999999873
20
-67.0309699999999964
11
212.6499999999999773
21
-67.0499999999999972
0
LINE
8
BLACK
6
CONTINUOUS
10
212.6499999999999773
20
-67.0499999999999972
11
211.3499999999999943
21
-67.0499999999999972
0
LINE
8
BLACK
6
CONTINUOUS
10
211.3499999999999943
20
-67.0499999999999972
11
211.2543289999999843
21
-67.0309699999999964
0
LINE
8
BLACK
6
CONTINUOUS
10
211.2543289999999843
20
-67.0309699999999964
11
211.1732229999999788
21
-66.9767769999999985
0
LINE
8
BLACK
6
CONTINUOUS
10
211.1732229999999788
20
-66.9767769999999985
11
211.1190299999999809
21
-66.895670999999993
0
LINE
8
BLACK
6
CONTINUOUS
10
211.1190299999999809
20
-66.895670999999993
11
211.0999999999999943
21
-66.7999999999999972
0
LINE
8
BLACK
6
CONTINUOUS
10
211.0999999999999943
20
-66.7999999999999972
11
211.0999999999999943
21
-66.1499999999999915
0
LINE
8
BLACK
6
CONTINUOUS
10
211.0999999999999943
20
-66.1499999999999915
11
211.1190299999999809
21
-66.0543289999999956
0
LINE
8
BLACK
6
CONTINUOUS
10
211.1190299999999809
20
-66.0543289999999956
11
211.1732229999999788
21
-65.9732229999999902
0
LINE
8
BLACK
6
CONTINUOUS
10
211.1732229999999788
20
-65.9732229999999902
11
211.2543289999999843
21
-65.9190299999999922
0
LINE
8
BLACK
6
CONTINUOUS
10
211.2543289999999843
20
-65.9190299999999922
11
211.3499999999999943
21
-65.8999999999999915
0
LINE
8
BLACK
6
CONTINUOUS
10
211.3499999999999943
20
-65.8999999999999915
11
212.6499999999999773
21
-65.8999999999999915
0
LINE
8
BLACK
6
CONTINUOUS
10
212.6499999999999773
20
-65.8999999999999915
11
212.7456709999999873
21
-65.9190299999999922
0
LINE
8
BLACK
6
CONTINUOUS
10
242.7456709999999873
20
-65.9190299999999922
11
242.8267769999999928
21
-65.9732229999999902
0
LINE
8
BLACK
6
CONTINUOUS
10
242.8267769999999928
20
-65.9732229999999902
11
242.8809699999999907
21
-66.0543289999999956
0
LINE
8
BLACK
6
CONTINUOUS
10
242.8809699999999907
20
-66.0543289999999956
11
242.8999999999999773
21
-66.1499999999999915
0
LINE
8
BLACK
6
CONTINUOUS
10
242.8999999999999773
20
-66.1499999999999915
11
242.8999999999999773
21
-66.7999999999999972
0
LINE
8
BLACK
6
CONTINUOUS
10
242.8999999999999773
20
-66.7999999999999972
11
242.8809699999999907
21
-66.895670999999993
0
LINE
8
BLACK
6
CONTINUOUS
10
242.8809699999999907
20
-66.895670999999993
11
242.8267769999999928
21
-66.9767769999999985
0
LINE
8
BLACK
6
CONTINUOUS
10
242.8267769999999928
20
-66.9767769999999985
11
242.7456709999999873
21
-67.0309699999999964
0
LINE
8
BLACK
6
CONTINUOUS
10
242.7456709999999873
20
-67.0309699999999964
11
242.6499999999999773
21
-67.0499999999999972
0
LINE
8
BLACK
6
CONTINUOUS
10
242.6499999999999773
20
-67.0499999999999972
11
241.3499999999999943
21
-67.0499999999999972
0
LINE
8
BLACK
6
CONTINUOUS
10
241.3499999999999943
20
-67.0499999999999972
11
241.2543289999999843
21
-67.0309699999999964
0
LINE
8
BLACK
6
CONTINUOUS
10
241.2543289999999843
20
-67.0309699999999964
11
241.1732229999999788
21
-66.9767769999999985
0
LINE
8
BLACK
6
CONTINUOUS
10
241.1732229999999788
20
-66.9767769999999985
11
241.1190299999999809
21
-66.895670999999993
0
LINE
8
BLACK
6
CONTINUOUS
10
241.1190299999999809
20
-66.895670999999993
11
241.0999999999999943
21
-66.7999999999999972
0
LINE
8
BLACK
6
CONTINUOUS
10
241.0999999999999943
20
-66.7999999999999972
11
241.0999999999999943
21
-66.1499999999999915
0
LINE
8
BLACK
6
CONTINUOUS
10
241.0999999999999943
20
-66.1499999999999915
11
241.1190299999999809
21
-66.0543289999999956
0
LINE
8
BLACK
6
CONTINUOUS
10
241.1190299999999809
20
-66.0543289999999956
11
241.1732229999999788
21
-65.9732229999999902
0
LINE
8
BLACK
6
CONTINUOUS
10
241.1732229999999788
20
-65.9732229999999902
11
241.2543289999999843
21
-65.9190299999999922
0
LINE
8
BLACK
6
CONTINUOUS
10
241.2543289999999843
20
-65.9190299999999922
11
241.3499999999999943
21
-65.8999999999999915
0
LINE
8
BLACK
6
CONTINUOUS
10
241.3499999999999943
20
-65.8999999999999915
11
242.6499999999999773
21
-65.8999999999999915
0
LINE
8
BLACK
6
CONTINUOUS
10
242.6499999999999773
20
-65.8999999999999915
11
242.7456709999999873
21
-65.9190299999999922
0
LINE
8
BLACK
6
CONTINUOUS
10
273.7456710000000157
20
-65.9190299999999922
11
273.8267769999999928
21
-65.9732229999999902
0
LINE
8
BLACK
6
CONTINUOUS
10
273.8267769999999928
20
-65.9732229999999902
11
273.8809699999999907
21
-66.0543289999999956
0
LINE
8
BLACK
6
CONTINUOUS
10
273.8809699999999907
20
-66.0543289999999956
11
273.8999999999999773
21
-66.1499999999999915
0
LINE
8
BLACK
6
CONTINUOUS
10
273.8999999999999773
20
-66.1499999999999915
11
273.8999999999999773
21
-66.7999999999999972
0
LINE
8
BLACK
6
CONTINUOUS
10
273.8999999999999773
20
-66.7999999999999972
11
273.8809699999999907
21
-66.895670999999993
0
LINE
8
BLACK
6
CONTINUOUS
10
273.8809699999999907
20
-66.895670999999993
11
273.8267769999999928
21
-66.9767769999999985
0
LINE
8
BLACK
6
CONTINUOUS
10
273.8267769999999928
20
-66.9767769999999985
11
273.7456710000000157
21
-67.0309699999999964
0
LINE
8
BLACK
6
CONTINUOUS
10
273.7456710000000157
20
-67.0309699999999964
11
273.6499999999999773
21
-67.0499999999999972
0
LINE
8
BLACK
6
CONTINUOUS
10
273.6499999999999773
20
-67.0499999999999972
11
272.3499999999999659
21
-67.0499999999999972
0
LINE
8
BLACK
6
CONTINUOUS
10
272.3499999999999659
20
-67.0499999999999972
11
272.2543289999999843
21
-67.0309699999999964
0
LINE
8
BLACK
6
CONTINUOUS
10
272.2543289999999843
20
-67.0309699999999964
11
272.1732230000000072
21
-66.9767769999999985
0
LINE
8
BLACK
6
CONTINUOUS
10
272.1732230000000072
20
-66.9767769999999985
11
272.1190300000000093
21
-66.895670999999993
0
LINE
8
BLACK
6
CONTINUOUS
10
272.1190300000000093
20
-66.895670999999993
11
272.0999999999999659
21
-66.7999999999999972
0
LINE
8
BLACK
6
CONTINUOUS
10
272.0999999999999659
20
-66.7999999999999972
11
272.0999999999999659
21
-66.1499999999999915
0
LINE
8
BLACK
6
CONTINUOUS
10
272.0999999999999659
20
-66.1499999999999915
11
272.1190300000000093
21
-66.0543289999999956
0
LINE
8
BLACK
6
CONTINUOUS
10
272.1190300000000093
20
-66.0543289999999956
11
272.1732230000000072
21
-65.9732229999999902
0
LINE
8
BLACK
6
CONTINUOUS
10
272.1732230000000072
20
-65.9732229999999902
11
272.2543289999999843
21
-65.9190299999999922
0
LINE
8
BLACK
6
CONTINUOUS
10
272.2543289999999843
20
-65.9190299999999922
11
272.3499999999999659
21
-65.8999999999999915
0
LINE
8
BLACK
6
CONTINUOUS
10
272.3499999999999659
20
-65.8999999999999915
11
273.6499999999999773
21
-65.8999999999999915
0
LINE
8
BLACK
6
CONTINUOUS
10
273.6499999999999773
20
-65.8999999999999915
11
273.7456710000000157
21
-65.9190299999999922
0
LINE
8
BLACK
6
CONTINUOUS
10
62.7456709999999944
20
-62.9690299999999965
11
62.8267769999999999
21
-63.0232229999999944
0
LINE
8
BLACK
6
CONTINUOUS
10
62.8267769999999999
20
-63.0232229999999944
11
62.8809699999999978
21
-63.1043289999999999
0
LINE
8
BLACK
6
CONTINUOUS
10
62.8809699999999978
20
-63.1043289999999999
11
62.8999999999999986
21
-63.1999999999999957
0
LINE
8
BLACK
6
CONTINUOUS
10
62.8999999999999986
20
-63.1999999999999957
11
62.8999999999999986
21
-63.8499999999999943
0
LINE
8
BLACK
6
CONTINUOUS
10
62.8999999999999986
20
-63.8499999999999943
11
62.8809699999999978
21
-63.9456709999999973
0
LINE
8
BLACK
6
CONTINUOUS
10
62.8809699999999978
20
-63.9456709999999973
11
62.8267769999999999
21
-64.0267769999999956
0
LINE
8
BLACK
6
CONTINUOUS
10
62.8267769999999999
20
-64.0267769999999956
11
62.7456709999999944
21
-64.0809699999999935
0
LINE
8
BLACK
6
CONTINUOUS
10
62.7456709999999944
20
-64.0809699999999935
11
62.6499999999999986
21
-64.0999999999999943
0
LINE
8
BLACK
6
CONTINUOUS
10
62.6499999999999986
20
-64.0999999999999943
11
61.3499999999999943
21
-64.0999999999999943
0
LINE
8
BLACK
6
CONTINUOUS
10
61.3499999999999943
20
-64.0999999999999943
11
61.2543289999999985
21
-64.0809699999999935
0
LINE
8
BLACK
6
CONTINUOUS
10
61.2543289999999985
20
-64.0809699999999935
11
61.1732230000000001
21
-64.0267769999999956
0
LINE
8
BLACK
6
CONTINUOUS
10
61.1732230000000001
20
-64.0267769999999956
11
61.1190299999999951
21
-63.9456709999999973
0
LINE
8
BLACK
6
CONTINUOUS
10
61.1190299999999951
20
-63.9456709999999973
11
61.0999999999999943
21
-63.8499999999999943
0
LINE
8
BLACK
6
CONTINUOUS
10
61.0999999999999943
20
-63.8499999999999943
11
61.0999999999999943
21
-63.1999999999999957
0
LINE
8
BLACK
6
CONTINUOUS
10
61.0999999999999943
20
-63.1999999999999957
11
61.1190299999999951
21
-63.1043289999999999
0
LINE
8
BLACK
6
CONTINUOUS
10
61.1190299999999951
20
-63.1043289999999999
11
61.1732230000000001
21
-63.0232229999999944
0
LINE
8
BLACK
6
CONTINUOUS
10
61.1732230000000001
20
-63.0232229999999944
11
61.2543289999999985
21
-62.9690299999999965
0
LINE
8
BLACK
6
CONTINUOUS
10
61.2543289999999985
20
-62.9690299999999965
11
61.3499999999999943
21
-62.9499999999999957
0
LINE
8
BLACK
6
CONTINUOUS
10
61.3499999999999943
20
-62.9499999999999957
11
62.6499999999999986
21
-62.9499999999999957
0
LINE
8
BLACK
6
CONTINUOUS
10
62.6499999999999986
20
-62.9499999999999957
11
62.7456709999999944
21
-62.9690299999999965
0
LINE
8
BLACK
6
CONTINUOUS
10
92.7456710000000015
20
-62.9690299999999965
11
92.8267769999999928
21
-63.0232229999999944
0
LINE
8
BLACK
6
CONTINUOUS
10
92.8267769999999928
20
-63.0232229999999944
11
92.8809699999999907
21
-63.1043289999999999
0
LINE
8
BLACK
6
CONTINUOUS
10
92.8809699999999907
20
-63.1043289999999999
11
92.8999999999999915
21
-63.1999999999999957
0
LINE
8
BLACK
6
CONTINUOUS
10
92.8999999999999915
20
-63.1999999999999957
11
92.8999999999999915
21
-63.8499999999999943
0
LINE
8
BLACK
6
CONTINUOUS
10
92.8999999999999915
20
-63.8499999999999943
11
92.8809699999999907
21
-63.9456709999999973
0
LINE
8
BLACK
6
CONTINUOUS
10
92.8809699999999907
20
-63.9456709999999973
11
92.8267769999999928
21
-64.0267769999999956
0
LINE
8
BLACK
6
CONTINUOUS
10
92.8267769999999928
20
-64.0267769999999956
11
92.7456710000000015
21
-64.0809699999999935
0
LINE
8
BLACK
6
CONTINUOUS
10
92.7456710000000015
20
-64.0809699999999935
11
92.6499999999999915
21
-64.0999999999999943
0
LINE
8
BLACK
6
CONTINUOUS
10
92.6499999999999915
20
-64.0999999999999943
11
91.3499999999999943
21
-64.0999999999999943
0
LINE
8
BLACK
6
CONTINUOUS
10
91.3499999999999943
20
-64.0999999999999943
11
91.2543289999999985
21
-64.0809699999999935
0
LINE
8
BLACK
6
CONTINUOUS
10
91.2543289999999985
20
-64.0809699999999935
11
91.173222999999993
21
-64.0267769999999956
0
LINE
8
BLACK
6
CONTINUOUS
10
91.173222999999993
20
-64.0267769999999956
11
91.1190299999999951
21
-63.9456709999999973
0
LINE
8
BLACK
6
CONTINUOUS
10
91.1190299999999951
20
-63.9456709999999973
11
91.0999999999999943
21
-63.8499999999999943
0
LINE
8
BLACK
6
CONTINUOUS
10
91.0999999999999943
20
-63.8499999999999943
11
91.0999999999999943
21
-63.1999999999999957
0
LINE
8
BLACK
6
CONTINUOUS
10
91.0999999999999943
20
-63.1999999999999957
11
91.1190299999999951
21
-63.1043289999999999
0
LINE
8
BLACK
6
CONTINUOUS
10
91.1190299999999951
20
-63.1043289999999999
11
91.173222999999993
21
-63.0232229999999944
0
LINE
8
BLACK
6
CONTINUOUS
10
91.173222999999993
20
-63.0232229999999944
11
91.2543289999999985
21
-62.9690299999999965
0
LINE
8
BLACK
6
CONTINUOUS
10
91.2543289999999985
20
-62.9690299999999965
11
91.3499999999999943
21
-62.9499999999999957
0
LINE
8
BLACK
6
CONTINUOUS
10
91.3499999999999943
20
-62.9499999999999957
11
92.6499999999999915
21
-62.9499999999999957
0
LINE
8
BLACK
6
CONTINUOUS
10
92.6499999999999915
20
-62.9499999999999957
11
92.7456710000000015
21
-62.9690299999999965
0
LINE
8
BLACK
6
CONTINUOUS
10
122.7456710000000015
20
-62.9690299999999965
11
122.8267769999999928
21
-63.0232229999999944
0
LINE
8
BLACK
6
CONTINUOUS
10
122.8267769999999928
20
-63.0232229999999944
11
122.8809699999999907
21
-63.1043289999999999
0
LINE
8
BLACK
6
CONTINUOUS
10
122.8809699999999907
20
-63.1043289999999999
11
122.8999999999999915
21
-63.1999999999999957
0
LINE
8
BLACK
6
CONTINUOUS
10
122.8999999999999915
20
-63.1999999999999957
11
122.8999999999999915
21
-63.8499999999999943
0
LINE
8
BLACK
6
CONTINUOUS
10
122.8999999999999915
20
-63.8499999999999943
11
122.8809699999999907
21
-63.9456709999999973
0
LINE
8
BLACK
6
CONTINUOUS
10
122.8809699999999907
20
-63.9456709999999973
11
122.8267769999999928
21
-64.0267769999999956
0
LINE
8
BLACK
6
CONTINUOUS
10
122.8267769999999928
20
-64.0267769999999956
11
122.7456710000000015
21
-64.0809699999999935
0
LINE
8
BLACK
6
CONTINUOUS
10
122.7456710000000015
20
-64.0809699999999935
11
122.6499999999999915
21
-64.0999999999999943
0
LINE
8
BLACK
6
CONTINUOUS
10
122.6499999999999915
20
-64.0999999999999943
11
121.3499999999999943
21
-64.0999999999999943
0
LINE
8
BLACK
6
CONTINUOUS
10
121.3499999999999943
20
-64.0999999999999943
11
121.2543289999999985
21
-64.0809699999999935
0
LINE
8
BLACK
6
CONTINUOUS
10
121.2543289999999985
20
-64.0809699999999935
11
121.173222999999993
21
-64.0267769999999956
0
LINE
8
BLACK
6
CONTINUOUS
10
121.173222999999993
20
-64.0267769999999956
11
121.1190299999999951
21
-63.9456709999999973
0
LINE
8
BLACK
6
CONTINUOUS
10
121.1190299999999951
20
-63.9456709999999973
11
121.0999999999999943
21
-63.8499999999999943
0
LINE
8
BLACK
6
CONTINUOUS
10
121.0999999999999943
20
-63.8499999999999943
11
121.0999999999999943
21
-63.1999999999999957
0
LINE
8
BLACK
6
CONTINUOUS
10
121.0999999999999943
20
-63.1999999999999957
11
121.1190299999999951
21
-63.1043289999999999
0
LINE
8
BLACK
6
CONTINUOUS
10
121.1190299999999951
20
-63.1043289999999999
11
121.173222999999993
21
-63.0232229999999944
0
LINE
8
BLACK
6
CONTINUOUS
10
121.173222999999993
20
-63.0232229999999944
11
121.2543289999999985
21
-62.9690299999999965
0
LINE
8
BLACK
6
CONTINUOUS
10
121.2543289999999985
20
-62.9690299999999965
11
121.3499999999999943
21
-62.9499999999999957
0
LINE
8
BLACK
6
CONTINUOUS
10
121.3499999999999943
20
-62.9499999999999957
11
122.6499999999999915
21
-62.9499999999999957
0
LINE
8
BLACK
6
CONTINUOUS
10
122.6499999999999915
20
-62.9499999999999957
11
122.7456710000000015
21
-62.9690299999999965
0
LINE
8
BLACK
6
CONTINUOUS
10
152.7456709999999873
20
-62.9690299999999965
11
152.8267769999999928
21
-63.0232229999999944
0
LINE
8
BLACK
6
CONTINUOUS
10
152.8267769999999928
20
-63.0232229999999944
11
152.8809699999999907
21
-63.1043289999999999
0
LINE
8
BLACK
6
CONTINUOUS
10
152.8809699999999907
20
-63.1043289999999999
11
152.9000000000000057
21
-63.1999999999999957
0
LINE
8
BLACK
6
CONTINUOUS
10
152.9000000000000057
20
-63.1999999999999957
11
152.9000000000000057
21
-63.8499999999999943
0
LINE
8
BLACK
6
CONTINUOUS
10
152.9000000000000057
20
-63.8499999999999943
11
152.8809699999999907
21
-63.9456709999999973
0
LINE
8
BLACK
6
CONTINUOUS
10
152.8809699999999907
20
-63.9456709999999973
11
152.8267769999999928
21
-64.0267769999999956
0
LINE
8
BLACK
6
CONTINUOUS
10
152.8267769999999928
20
-64.0267769999999956
11
152.7456709999999873
21
-64.0809699999999935
0
LINE
8
BLACK
6
CONTINUOUS
10
152.7456709999999873
20
-64.0809699999999935
11
152.6500000000000057
21
-64.0999999999999943
0
LINE
8
BLACK
6
CONTINUOUS
10
152.6500000000000057
20
-64.0999999999999943
11
151.3499999999999943
21
-64.0999999999999943
0
LINE
8
BLACK
6
CONTINUOUS
10
151.3499999999999943
20
-64.0999999999999943
11
151.2543289999999843
21
-64.0809699999999935
0
LINE
8
BLACK
6
CONTINUOUS
10
151.2543289999999843
20
-64.0809699999999935
11
151.1732230000000072
21
-64.0267769999999956
0
LINE
8
BLACK
6
CONTINUOUS
10
151.1732230000000072
20
-64.0267769999999956
11
151.1190299999999809
21
-63.9456709999999973
0
LINE
8
BLACK
6
CONTINUOUS
10
151.1190299999999809
20
-63.9456709999999973
11
151.0999999999999943
21
-63.8499999999999943
0
LINE
8
BLACK
6
CONTINUOUS
10
151.0999999999999943
20
-63.8499999999999943
11
151.0999999999999943
21
-63.1999999999999957
0
LINE
8
BLACK
6
CONTINUOUS
10
151.0999999999999943
20
-63.1999999999999957
11
151.1190299999999809
21
-63.1043289999999999
0
LINE
8
BLACK
6
CONTINUOUS
10
151.1190299999999809
20
-63.1043289999999999
11
151.1732230000000072
21
-63.0232229999999944
0
LINE
8
BLACK
6
CONTINUOUS
10
151.1732230000000072
20
-63.0232229999999944
11
151.2543289999999843
21
-62.9690299999999965
0
LINE
8
BLACK
6
CONTINUOUS
10
151.2543289999999843
20
-62.9690299999999965
11
151.3499999999999943
21
-62.9499999999999957
0
LINE
8
BLACK
6
CONTINUOUS
10
151.3499999999999943
20
-62.9499999999999957
11
152.6500000000000057
21
-62.9499999999999957
0
LINE
8
BLACK
6
CONTINUOUS
10
152.6500000000000057
20
-62.9499999999999957
11
152.7456709999999873
21
-62.9690299999999965
0
LINE
8
BLACK
6
CONTINUOUS
10
182.7456709999999873
20
-62.9690299999999965
11
182.8267769999999928
21
-63.0232229999999944
0
LINE
8
BLACK
6
CONTINUOUS
10
182.8267769999999928
20
-63.0232229999999944
11
182.8809699999999907
21
-63.1043289999999999
0
LINE
8
BLACK
6
CONTINUOUS
10
182.8809699999999907
20
-63.1043289999999999
11
182.9000000000000057
21
-63.1999999999999957
0
LINE
8
BLACK
6
CONTINUOUS
10
182.9000000000000057
20
-63.1999999999999957
11
182.9000000000000057
21
-63.8499999999999943
0
LINE
8
BLACK
6
CONTINUOUS
10
182.9000000000000057
20
-63.8499999999999943
11
182.8809699999999907
21
-63.9456709999999973
0
LINE
8
BLACK
6
CONTINUOUS
10
182.8809699999999907
20
-63.9456709999999973
11
182.8267769999999928
21
-64.0267769999999956
0
LINE
8
BLACK
6
CONTINUOUS
10
182.8267769999999928
20
-64.0267769999999956
11
182.7456709999999873
21
-64.0809699999999935
0
LINE
8
BLACK
6
CONTINUOUS
10
182.7456709999999873
20
-64.0809699999999935
11
182.6500000000000057
21
-64.0999999999999943
0
LINE
8
BLACK
6
CONTINUOUS
10
182.6500000000000057
20
-64.0999999999999943
11
181.3499999999999943
21
-64.0999999999999943
0
LINE
8
BLACK
6
CONTINUOUS
10
181.3499999999999943
20
-64.0999999999999943
11
181.2543289999999843
21
-64.0809699999999935
0
LINE
8
BLACK
6
CONTINUOUS
10
181.2543289999999843
20
-64.0809699999999935
11
181.1732229999999788
21
-64.0267769999999956
0
LINE
8
BLACK
6
CONTINUOUS
10
181.1732229999999788
20
-64.0267769999999956
11
181.1190299999999809
21
-63.9456709999999973
0
LINE
8
BLACK
6
CONTINUOUS
10
181.1190299999999809
20
-63.9456709999999973
11
181.0999999999999943
21
-63.8499999999999943
0
LINE
8
BLACK
6
CONTINUOUS
10
181.0999999999999943
20
-63.8499999999999943
11
181.0999999999999943
21
-63.1999999999999957
0
LINE
8
BLACK
6
CONTINUOUS
10
181.0999999999999943
20
-63.1999999999999957
11
181.1190299999999809
21
-63.1043289999999999
0
LINE
8
BLACK
6
CONTINUOUS
10
181.1190299999999809
20
-63.1043289999999999
11
181.1732229999999788
21
-63.0232229999999944
0
LINE
8
BLACK
6
CONTINUOUS
10
181.1732229999999788
20
-63.0232229999999944
11
181.2543289999999843
21
-62.9690299999999965
0
LINE
8
BLACK
6
CONTINUOUS
10
181.2543289999999843
20
-62.9690299999999965
11
181.3499999999999943
21
-62.9499999999999957
0
LINE
8
BLACK
6
CONTINUOUS
10
181.3499999999999943
20
-62.9499999999999957
11
182.6500000000000057
21
-62.9499999999999957
0
LINE
8
BLACK
6
CONTINUOUS
10
182.6500000000000057
20
-62.9499999999999957
11
182.7456709999999873
21
-62.9690299999999965
0
LINE
8
BLACK
6
CONTINUOUS
10
212.7456709999999873
20
-62.9690299999999965
11
212.8267769999999928
21
-63.0232229999999944
0
LINE
8
BLACK
6
CONTINUOUS
10
212.8267769999999928
20
-63.0232229999999944
11
212.8809699999999907
21
-63.1043289999999999
0
LINE
8
BLACK
6
CONTINUOUS
10
212.8809699999999907
20
-63.1043289999999999
11
212.8999999999999773
21
-63.1999999999999957
0
LINE
8
BLACK
6
CONTINUOUS
10
212.8999999999999773
20
-63.1999999999999957
11
212.8999999999999773
21
-63.8499999999999943
0
LINE
8
BLACK
6
CONTINUOUS
10
212.8999999999999773
20
-63.8499999999999943
11
212.8809699999999907
21
-63.9456709999999973
0
LINE
8
BLACK
6
CONTINUOUS
10
212.8809699999999907
20
-63.9456709999999973
11
212.8267769999999928
21
-64.0267769999999956
0
LINE
8
BLACK
6
CONTINUOUS
10
212.8267769999999928
20
-64.0267769999999956
11
212.7456709999999873
21
-64.0809699999999935
0
LINE
8
BLACK
6
CONTINUOUS
10
212.7456709999999873
20
-64.0809699999999935
11
212.6499999999999773
21
-64.0999999999999943
0
LINE
8
BLACK
6
CONTINUOUS
10
212.6499999999999773
20
-64.0999999999999943
11
211.3499999999999943
21
-64.0999999999999943
0
LINE
8
BLACK
6
CONTINUOUS
10
211.3499999999999943
20
-64.0999999999999943
11
211.2543289999999843
21
-64.0809699999999935
0
LINE
8
BLACK
6
CONTINUOUS
10
211.2543289999999843
20
-64.0809699999999935
11
211.1732229999999788
21
-64.0267769999999956
0
LINE
8
BLACK
6
CONTINUOUS
10
211.1732229999999788
20
-64.0267769999999956
11
211.1190299999999809
21
-63.9456709999999973
0
LINE
8
BLACK
6
CONTINUOUS
10
211.1190299999999809
20
-63.9456709999999973
11
211.0999999999999943
21
-63.8499999999999943
0
LINE
8
BLACK
6
CONTINUOUS
10
211.0999999999999943
20
-63.8499999999999943
11
211.0999999999999943
21
-63.1999999999999957
0
LINE
8
BLACK
6
CONTINUOUS
10
211.0999999999999943
20
-63.1999999999999957
11
211.1190299999999809
21
-63.1043289999999999
0
LINE
8
BLACK
6
CONTINUOUS
10
211.1190299999999809
20
-63.1043289999999999
11
211.1732229999999788
21
-63.0232229999999944
0
LINE
8
BLACK
6
CONTINUOUS
10
211.1732229999999788
20
-63.0232229999999944
11
211.2543289999999843
21
-62.9690299999999965
0
LINE
8
BLACK
6
CONTINUOUS
10
211.2543289999999843
20
-62.9690299999999965
11
211.3499999999999943
21
-62.9499999999999957
0
LINE
8
BLACK
6
CONTINUOUS
10
211.3499999999999943
20
-62.9499999999999957
11
212.6499999999999773
21
-62.9499999999999957
0
LINE
8
BLACK
6
CONTINUOUS
10
212.6499999999999773
20
-62.9499999999999957
11
212.7456709999999873
21
-62.9690299999999965
0
LINE
8
BLACK
6
CONTINUOUS
10
242.7456709999999873
20
-62.9690299999999965
11
242.8267769999999928
21
-63.0232229999999944
0
LINE
8
BLACK
6
CONTINUOUS
10
242.8267769999999928
20
-63.0232229999999944
11
242.8809699999999907
21
-63.1043289999999999
0
LINE
8
BLACK
6
CONTINUOUS
10
242.8809699999999907
20
-63.1043289999999999
11
242.8999999999999773
21
-63.1999999999999957
0
LINE
8
BLACK
6
CONTINUOUS
10
242.8999999999999773
20
-63.1999999999999957
11
242.8999999999999773
21
-63.8499999999999943
0
LINE
8
BLACK
6
CONTINUOUS
10
242.8999999999999773
20
-63.8499999999999943
11
242.8809699999999907
21
-63.9456709999999973
0
LINE
8
BLACK
6
CONTINUOUS
10
242.8809699999999907
20
-63.9456709999999973
11
242.8267769999999928
21
-64.0267769999999956
0
LINE
8
BLACK
6
CONTINUOUS
10
242.8267769999999928
20
-64.0267769999999956
11
242.7456709999999873
21
-64.0809699999999935
0
LINE
8
BLACK
6
CONTINUOUS
10
242.7456709999999873
20
-64.0809699999999935
11
242.6499999999999773
21
-64.0999999999999943
0
LINE
8
BLACK
6
CONTINUOUS
10
242.6499999999999773
20
-64.0999999999999943
11
241.3499999999999943
21
-64.0999999999999943
0
LINE
8
BLACK
6
CONTINUOUS
10
241.3499999999999943
20
-64.0999999999999943
11
241.2543289999999843
21
-64.0809699999999935
0
LINE
8
BLACK
6
CONTINUOUS
10
241.2543289999999843
20
-64.0809699999999935
11
241.1732229999999788
21
-64.0267769999999956
0
LINE
8
BLACK
6
CONTINUOUS
10
241.1732229999999788
20
-64.0267769999999956
11
241.1190299999999809
21
-63.9456709999999973
0
LINE
8
BLACK
6
CONTINUOUS
10
241.1190299999999809
20
-63.9456709999999973
11
241.0999999999999943
21
-63.8499999999999943
0
LINE
8
BLACK
6
CONTINUOUS
10
241.0999999999999943
20
-63.8499999999999943
11
241.0999999999999943
21
-63.1999999999999957
0
LINE
8
BLACK
6
CONTINUOUS
10
241.0999999999999943
20
-63.1999999999999957
11
241.1190299999999809
21
-63.1043289999999999
0
LINE
8
BLACK
6
CONTINUOUS
10
241.1190299999999809
20
-63.1043289999999999
11
241.1732229999999788
21
-63.0232229999999944
0
LINE
8
BLACK
6
CONTINUOUS
10
241.1732229999999788
20
-63.0232229999999944
11
241.2543289999999843
21
-62.9690299999999965
0
LINE
8
BLACK
6
CONTINUOUS
10
241.2543289999999843
20
-62.9690299999999965
11
241.3499999999999943
21
-62.9499999999999957
0
LINE
8
BLACK
6
CONTINUOUS
10
241.3499999999999943
20
-62.9499999999999957
11
242.6499999999999773
21
-62.9499999999999957
0
LINE
8
BLACK
6
CONTINUOUS
10
242.6499999999999773
20
-62.9499999999999957
11
242.7456709999999873
21
-62.9690299999999965
0
LINE
8
BLACK
6
CONTINUOUS
10
273.7456710000000157
20
-62.9690299999999965
11
273.8267769999999928
21
-63.0232229999999944
0
LINE
8
BLACK
6
CONTINUOUS
10
273.8267769999999928
20
-63.0232229999999944
11
273.8809699999999907
21
-63.1043289999999999
0
LINE
8
BLACK
6
CONTINUOUS
10
273.8809699999999907
20
-63.1043289999999999
11
273.8999999999999773
21
-63.1999999999999957
0
LINE
8
BLACK
6
CONTINUOUS
10
273.8999999999999773
20
-63.1999999999999957
11
273.8999999999999773
21
-63.8499999999999943
0
LINE
8
BLACK
6
CONTINUOUS
10
273.8999999999999773
20
-63.8499999999999943
11
273.8809699999999907
21
-63.9456709999999973
0
LINE
8
BLACK
6
CONTINUOUS
10
273.8809699999999907
20
-63.9456709999999973
11
273.8267769999999928
21
-64.0267769999999956
0
LINE
8
BLACK
6
CONTINUOUS
10
273.8267769999999928
20
-64.0267769999999956
11
273.7456710000000157
21
-64.0809699999999935
0
LINE
8
BLACK
6
CONTINUOUS
10
273.7456710000000157
20
-64.0809699999999935
11
273.6499999999999773
21
-64.0999999999999943
0
LINE
8
BLACK
6
CONTINUOUS
10
273.6499999999999773
20
-64.0999999999999943
11
272.3499999999999659
21
-64.0999999999999943
0
LINE
8
BLACK
6
CONTINUOUS
10
272.3499999999999659
20
-64.0999999999999943
11
272.2543289999999843
21
-64.0809699999999935
0
LINE
8
BLACK
6
CONTINUOUS
10
272.2543289999999843
20
-64.0809699999999935
11
272.1732230000000072
21
-64.0267769999999956
0
LINE
8
BLACK
6
CONTINUOUS
10
272.1732230000000072
20
-64.0267769999999956
11
272.1190300000000093
21
-63.9456709999999973
0
LINE
8
BLACK
6
CONTINUOUS
10
272.1190300000000093
20
-63.9456709999999973
11
272.0999999999999659
21
-63.8499999999999943
0
LINE
8
BLACK
6
CONTINUOUS
10
272.0999999999999659
20
-63.8499999999999943
11
272.0999999999999659
21
-63.1999999999999957
0
LINE
8
BLACK
6
CONTINUOUS
10
272.0999999999999659
20
-63.1999999999999957
11
272.1190300000000093
21
-63.1043289999999999
0
LINE
8
BLACK
6
CONTINUOUS
10
272.1190300000000093
20
-63.1043289999999999
11
272.1732230000000072
21
-63.0232229999999944
0
LINE
8
BLACK
6
CONTINUOUS
10
272.1732230000000072
20
-63.0232229999999944
11
272.2543289999999843
21
-62.9690299999999965
0
LINE
8
BLACK
6
CONTINUOUS
10
272.2543289999999843
20
-62.9690299999999965
11
272.3499999999999659
21
-62.9499999999999957
0
LINE
8
BLACK
6
CONTINUOUS
10
272.3499999999999659
20
-62.9499999999999957
11
273.6499999999999773
21
-62.9499999999999957
0
LINE
8
BLACK
6
CONTINUOUS
10
273.6499999999999773
20
-62.9499999999999957
11
273.7456710000000157
21
-62.9690299999999965
0
LINE
8
BLACK
6
CONTINUOUS
10
47.7456709999999944
20
-35.9190309999999968
11
47.8267769999999999
21
-35.9732240000000019
0
LINE
8
BLACK
6
CONTINUOUS
10
47.8267769999999999
20
-35.9732240000000019
11
47.8809699999999978
21
-36.0543300000000002
0
LINE
8
BLACK
6
CONTINUOUS
10
47.8809699999999978
20
-36.0543300000000002
11
47.8999999999999986
21
-36.1500009999999961
0
LINE
8
BLACK
6
CONTINUOUS
10
47.8999999999999986
20
-36.1500009999999961
11
47.8999999999999986
21
-36.8000010000000017
0
LINE
8
BLACK
6
CONTINUOUS
10
47.8999999999999986
20
-36.8000010000000017
11
47.8809699999999978
21
-36.8956719999999976
0
LINE
8
BLACK
6
CONTINUOUS
10
47.8809699999999978
20
-36.8956719999999976
11
47.8267769999999999
21
-36.9767779999999959
0
LINE
8
BLACK
6
CONTINUOUS
10
47.8267769999999999
20
-36.9767779999999959
11
47.7456709999999944
21
-37.030971000000001
0
LINE
8
BLACK
6
CONTINUOUS
10
47.7456709999999944
20
-37.030971000000001
11
47.6499999999999986
21
-37.0500010000000017
0
LINE
8
BLACK
6
CONTINUOUS
10
47.6499999999999986
20
-37.0500010000000017
11
46.3500000000000014
21
-37.0500010000000017
0
LINE
8
BLACK
6
CONTINUOUS
10
46.3500000000000014
20
-37.0500010000000017
11
46.2543289999999985
21
-37.030971000000001
0
LINE
8
BLACK
6
CONTINUOUS
10
46.2543289999999985
20
-37.030971000000001
11
46.1732230000000001
21
-36.9767779999999959
0
LINE
8
BLACK
6
CONTINUOUS
10
46.1732230000000001
20
-36.9767779999999959
11
46.1190299999999951
21
-36.8956719999999976
0
LINE
8
BLACK
6
CONTINUOUS
10
46.1190299999999951
20
-36.8956719999999976
11
46.1000000000000014
21
-36.8000010000000017
0
LINE
8
BLACK
6
CONTINUOUS
10
46.1000000000000014
20
-36.8000010000000017
11
46.1000000000000014
21
-36.1500009999999961
0
LINE
8
BLACK
6
CONTINUOUS
10
46.1000000000000014
20
-36.1500009999999961
11
46.1190299999999951
21
-36.0543300000000002
0
LINE
8
BLACK
6
CONTINUOUS
10
46.1190299999999951
20
-36.0543300000000002
11
46.1732230000000001
21
-35.9732240000000019
0
LINE
8
BLACK
6
CONTINUOUS
10
46.1732230000000001
20
-35.9732240000000019
11
46.2543289999999985
21
-35.9190309999999968
0
LINE
8
BLACK
6
CONTINUOUS
10
46.2543289999999985
20
-35.9190309999999968
11
46.3500000000000014
21
-35.9000009999999961
0
LINE
8
BLACK
6
CONTINUOUS
10
46.3500000000000014
20
-35.9000009999999961
11
47.6499999999999986
21
-35.9000009999999961
0
LINE
8
BLACK
6
CONTINUOUS
10
47.6499999999999986
20
-35.9000009999999961
11
47.7456709999999944
21
-35.9190309999999968
0
LINE
8
BLACK
6
CONTINUOUS
10
77.7456710000000015
20
-35.9190299999999993
11
77.8267769999999928
21
-35.9732229999999973
0
LINE
8
BLACK
6
CONTINUOUS
10
77.8267769999999928
20
-35.9732229999999973
11
77.8809699999999907
21
-36.0543289999999956
0
LINE
8
BLACK
6
CONTINUOUS
10
77.8809699999999907
20
-36.0543289999999956
11
77.8999999999999915
21
-36.1499999999999986
0
LINE
8
BLACK
6
CONTINUOUS
10
77.8999999999999915
20
-36.1499999999999986
11
77.8999999999999915
21
-36.7999999999999972
0
LINE
8
BLACK
6
CONTINUOUS
10
77.8999999999999915
20
-36.7999999999999972
11
77.8809699999999907
21
-36.8956710000000001
0
LINE
8
BLACK
6
CONTINUOUS
10
77.8809699999999907
20
-36.8956710000000001
11
77.8267769999999928
21
-36.9767769999999985
0
LINE
8
BLACK
6
CONTINUOUS
10
77.8267769999999928
20
-36.9767769999999985
11
77.7456710000000015
21
-37.0309699999999964
0
LINE
8
BLACK
6
CONTINUOUS
10
77.7456710000000015
20
-37.0309699999999964
11
77.6499999999999915
21
-37.0499999999999972
0
LINE
8
BLACK
6
CONTINUOUS
10
77.6499999999999915
20
-37.0499999999999972
11
76.3499999999999943
21
-37.0499999999999972
0
LINE
8
BLACK
6
CONTINUOUS
10
76.3499999999999943
20
-37.0499999999999972
11
76.2543289999999985
21
-37.0309699999999964
0
LINE
8
BLACK
6
CONTINUOUS
10
76.2543289999999985
20
-37.0309699999999964
11
76.173222999999993
21
-36.9767769999999985
0
LINE
8
BLACK
6
CONTINUOUS
10
76.173222999999993
20
-36.9767769999999985
11
76.1190299999999951
21
-36.8956710000000001
0
LINE
8
BLACK
6
CONTINUOUS
10
76.1190299999999951
20
-36.8956710000000001
11
76.0999999999999943
21
-36.7999999999999972
0
LINE
8
BLACK
6
CONTINUOUS
10
76.0999999999999943
20
-36.7999999999999972
11
76.0999999999999943
21
-36.1499999999999986
0
LINE
8
BLACK
6
CONTINUOUS
10
76.0999999999999943
20
-36.1499999999999986
11
76.1190299999999951
21
-36.0543289999999956
0
LINE
8
BLACK
6
CONTINUOUS
10
76.1190299999999951
20
-36.0543289999999956
11
76.173222999999993
21
-35.9732229999999973
0
LINE
8
BLACK
6
CONTINUOUS
10
76.173222999999993
20
-35.9732229999999973
11
76.2543289999999985
21
-35.9190299999999993
0
LINE
8
BLACK
6
CONTINUOUS
10
76.2543289999999985
20
-35.9190299999999993
11
76.3499999999999943
21
-35.8999999999999986
0
LINE
8
BLACK
6
CONTINUOUS
10
76.3499999999999943
20
-35.8999999999999986
11
77.6499999999999915
21
-35.8999999999999986
0
LINE
8
BLACK
6
CONTINUOUS
10
77.6499999999999915
20
-35.8999999999999986
11
77.7456710000000015
21
-35.9190299999999993
0
LINE
8
BLACK
6
CONTINUOUS
10
107.7456710000000015
20
-35.9190299999999993
11
107.8267769999999928
21
-35.9732229999999973
0
LINE
8
BLACK
6
CONTINUOUS
10
107.8267769999999928
20
-35.9732229999999973
11
107.8809699999999907
21
-36.0543289999999956
0
LINE
8
BLACK
6
CONTINUOUS
10
107.8809699999999907
20
-36.0543289999999956
11
107.8999999999999915
21
-36.1499999999999986
0
LINE
8
BLACK
6
CONTINUOUS
10
107.8999999999999915
20
-36.1499999999999986
11
107.8999999999999915
21
-36.7999999999999972
0
LINE
8
BLACK
6
CONTINUOUS
10
107.8999999999999915
20
-36.7999999999999972
11
107.8809699999999907
21
-36.8956710000000001
0
LINE
8
BLACK
6
CONTINUOUS
10
107.8809699999999907
20
-36.8956710000000001
11
107.8267769999999928
21
-36.9767769999999985
0
LINE
8
BLACK
6
CONTINUOUS
10
107.8267769999999928
20
-36.9767769999999985
11
107.7456710000000015
21
-37.0309699999999964
0
LINE
8
BLACK
6
CONTINUOUS
10
107.7456710000000015
20
-37.0309699999999964
11
107.6499999999999915
21
-37.0499999999999972
0
LINE
8
BLACK
6
CONTINUOUS
10
107.6499999999999915
20
-37.0499999999999972
11
106.3499999999999943
21
-37.0499999999999972
0
LINE
8
BLACK
6
CONTINUOUS
10
106.3499999999999943
20
-37.0499999999999972
11
106.2543289999999985
21
-37.0309699999999964
0
LINE
8
BLACK
6
CONTINUOUS
10
106.2543289999999985
20
-37.0309699999999964
11
106.173222999999993
21
-36.9767769999999985
0
LINE
8
BLACK
6
CONTINUOUS
10
106.173222999999993
20
-36.9767769999999985
11
106.1190299999999951
21
-36.8956710000000001
0
LINE
8
BLACK
6
CONTINUOUS
10
106.1190299999999951
20
-36.8956710000000001
11
106.0999999999999943
21
-36.7999999999999972
0
LINE
8
BLACK
6
CONTINUOUS
10
106.0999999999999943
20
-36.7999999999999972
11
106.0999999999999943
21
-36.1499999999999986
0
LINE
8
BLACK
6
CONTINUOUS
10
106.0999999999999943
20
-36.1499999999999986
11
106.1190299999999951
21
-36.0543289999999956
0
LINE
8
BLACK
6
CONTINUOUS
10
106.1190299999999951
20
-36.0543289999999956
11
106.173222999999993
21
-35.9732229999999973
0
LINE
8
BLACK
6
CONTINUOUS
10
106.173222999999993
20
-35.9732229999999973
11
106.2543289999999985
21
-35.9190299999999993
0
LINE
8
BLACK
6
CONTINUOUS
10
106.2543289999999985
20
-35.9190299999999993
11
106.3499999999999943
21
-35.8999999999999986
0
LINE
8
BLACK
6
CONTINUOUS
10
106.3499999999999943
20
-35.8999999999999986
11
107.6499999999999915
21
-35.8999999999999986
0
LINE
8
BLACK
6
CONTINUOUS
10
107.6499999999999915
20
-35.8999999999999986
11
107.7456710000000015
21
-35.9190299999999993
0
LINE
8
BLACK
6
CONTINUOUS
10
137.7456709999999873
20
-35.9190299999999993
11
137.8267769999999928
21
-35.9732229999999973
0
LINE
8
BLACK
6
CONTINUOUS
10
137.8267769999999928
20
-35.9732229999999973
11
137.8809699999999907
21
-36.0543289999999956
0
LINE
8
BLACK
6
CONTINUOUS
10
137.8809699999999907
20
-36.0543289999999956
11
137.9000000000000057
21
-36.1499999999999986
0
LINE
8
BLACK
6
CONTINUOUS
10
137.9000000000000057
20
-36.1499999999999986
11
137.9000000000000057
21
-36.7999999999999972
0
LINE
8
BLACK
6
CONTINUOUS
10
137.9000000000000057
20
-36.7999999999999972
11
137.8809699999999907
21
-36.8956710000000001
0
LINE
8
BLACK
6
CONTINUOUS
10
137.8809699999999907
20
-36.8956710000000001
11
137.8267769999999928
21
-36.9767769999999985
0
LINE
8
BLACK
6
CONTINUOUS
10
137.8267769999999928
20
-36.9767769999999985
11
137.7456709999999873
21
-37.0309699999999964
0
LINE
8
BLACK
6
CONTINUOUS
10
137.7456709999999873
20
-37.0309699999999964
11
137.6500000000000057
21
-37.0499999999999972
0
LINE
8
BLACK
6
CONTINUOUS
10
137.6500000000000057
20
-37.0499999999999972
11
136.3499999999999943
21
-37.0499999999999972
0
LINE
8
BLACK
6
CONTINUOUS
10
136.3499999999999943
20
-37.0499999999999972
11
136.2543289999999843
21
-37.0309699999999964
0
LINE
8
BLACK
6
CONTINUOUS
10
136.2543289999999843
20
-37.0309699999999964
11
136.1732230000000072
21
-36.9767769999999985
0
LINE
8
BLACK
6
CONTINUOUS
10
136.1732230000000072
20
-36.9767769999999985
11
136.1190299999999809
21
-36.8956710000000001
0
LINE
8
BLACK
6
CONTINUOUS
10
136.1190299999999809
20
-36.8956710000000001
11
136.0999999999999943
21
-36.7999999999999972
0
LINE
8
BLACK
6
CONTINUOUS
10
136.0999999999999943
20
-36.7999999999999972
11
136.0999999999999943
21
-36.1499999999999986
0
LINE
8
BLACK
6
CONTINUOUS
10
136.0999999999999943
20
-36.1499999999999986
11
136.1190299999999809
21
-36.0543289999999956
0
LINE
8
BLACK
6
CONTINUOUS
10
136.1190299999999809
20
-36.0543289999999956
11
136.1732230000000072
21
-35.9732229999999973
0
LINE
8
BLACK
6
CONTINUOUS
10
136.1732230000000072
20
-35.9732229999999973
11
136.2543289999999843
21
-35.9190299999999993
0
LINE
8
BLACK
6
CONTINUOUS
10
136.2543289999999843
20
-35.9190299999999993
11
136.3499999999999943
21
-35.8999999999999986
0
LINE
8
BLACK
6
CONTINUOUS
10
136.3499999999999943
20
-35.8999999999999986
11
137.6500000000000057
21
-35.8999999999999986
0
LINE
8
BLACK
6
CONTINUOUS
10
137.6500000000000057
20
-35.8999999999999986
11
137.7456709999999873
21
-35.9190299999999993
0
LINE
8
BLACK
6
CONTINUOUS
10
167.7456709999999873
20
-35.9190299999999993
11
167.8267769999999928
21
-35.9732229999999973
0
LINE
8
BLACK
6
CONTINUOUS
10
167.8267769999999928
20
-35.9732229999999973
11
167.8809699999999907
21
-36.0543289999999956
0
LINE
8
BLACK
6
CONTINUOUS
10
167.8809699999999907
20
-36.0543289999999956
11
167.9000000000000057
21
-36.1499999999999986
0
LINE
8
BLACK
6
CONTINUOUS
10
167.9000000000000057
20
-36.1499999999999986
11
167.9000000000000057
21
-36.7999999999999972
0
LINE
8
BLACK
6
CONTINUOUS
10
167.9000000000000057
20
-36.7999999999999972
11
167.8809699999999907
21
-36.8956710000000001
0
LINE
8
BLACK
6
CONTINUOUS
10
167.8809699999999907
20
-36.8956710000000001
11
167.8267769999999928
21
-36.9767769999999985
0
LINE
8
BLACK
6
CONTINUOUS
10
167.8267769999999928
20
-36.9767769999999985
11
167.7456709999999873
21
-37.0309699999999964
0
LINE
8
BLACK
6
CONTINUOUS
10
167.7456709999999873
20
-37.0309699999999964
11
167.6500000000000057
21
-37.0499999999999972
0
LINE
8
BLACK
6
CONTINUOUS
10
167.6500000000000057
20
-37.0499999999999972
11
166.3499999999999943
21
-37.0499999999999972
0
LINE
8
BLACK
6
CONTINUOUS
10
166.3499999999999943
20
-37.0499999999999972
11
166.2543289999999843
21
-37.0309699999999964
0
LINE
8
BLACK
6
CONTINUOUS
10
166.2543289999999843
20
-37.0309699999999964
11
166.1732229999999788
21
-36.9767769999999985
0
LINE
8
BLACK
6
CONTINUOUS
10
166.1732229999999788
20
-36.9767769999999985
11
166.1190299999999809
21
-36.8956710000000001
0
LINE
8
BLACK
6
CONTINUOUS
10
166.1190299999999809
20
-36.8956710000000001
11
166.0999999999999943
21
-36.7999999999999972
0
LINE
8
BLACK
6
CONTINUOUS
10
166.0999999999999943
20
-36.7999999999999972
11
166.0999999999999943
21
-36.1499999999999986
0
LINE
8
BLACK
6
CONTINUOUS
10
166.0999999999999943
20
-36.1499999999999986
11
166.1190299999999809
21
-36.0543289999999956
0
LINE
8
BLACK
6
CONTINUOUS
10
166.1190299999999809
20
-36.0543289999999956
11
166.1732229999999788
21
-35.9732229999999973
0
LINE
8
BLACK
6
CONTINUOUS
10
166.1732229999999788
20
-35.9732229999999973
11
166.2543289999999843
21
-35.9190299999999993
0
LINE
8
BLACK
6
CONTINUOUS
10
166.2543289999999843
20
-35.9190299999999993
11
166.3499999999999943
21
-35.8999999999999986
0
LINE
8
BLACK
6
CONTINUOUS
10
166.3499999999999943
20
-35.8999999999999986
11
167.6500000000000057
21
-35.8999999999999986
0
LINE
8
BLACK
6
CONTINUOUS
10
167.6500000000000057
20
-35.8999999999999986
11
167.7456709999999873
21
-35.9190299999999993
0
LINE
8
BLACK
6
CONTINUOUS
10
197.7456709999999873
20
-35.9190299999999993
11
197.8267769999999928
21
-35.9732229999999973
0
LINE
8
BLACK
6
CONTINUOUS
10
197.8267769999999928
20
-35.9732229999999973
11
197.8809699999999907
21
-36.0543289999999956
0
LINE
8
BLACK
6
CONTINUOUS
10
197.8809699999999907
20
-36.0543289999999956
11
197.8999999999999773
21
-36.1499999999999986
0
LINE
8
BLACK
6
CONTINUOUS
10
197.8999999999999773
20
-36.1499999999999986
11
197.8999999999999773
21
-36.7999999999999972
0
LINE
8
BLACK
6
CONTINUOUS
10
197.8999999999999773
20
-36.7999999999999972
11
197.8809699999999907
21
-36.8956710000000001
0
LINE
8
BLACK
6
CONTINUOUS
10
197.8809699999999907
20
-36.8956710000000001
11
197.8267769999999928
21
-36.9767769999999985
0
LINE
8
BLACK
6
CONTINUOUS
10
197.8267769999999928
20
-36.9767769999999985
11
197.7456709999999873
21
-37.0309699999999964
0
LINE
8
BLACK
6
CONTINUOUS
10
197.7456709999999873
20
-37.0309699999999964
11
197.6499999999999773
21
-37.0499999999999972
0
LINE
8
BLACK
6
CONTINUOUS
10
197.6499999999999773
20
-37.0499999999999972
11
196.3499999999999943
21
-37.0499999999999972
0
LINE
8
BLACK
6
CONTINUOUS
10
196.3499999999999943
20
-37.0499999999999972
11
196.2543289999999843
21
-37.0309699999999964
0
LINE
8
BLACK
6
CONTINUOUS
10
196.2543289999999843
20
-37.0309699999999964
11
196.1732229999999788
21
-36.9767769999999985
0
LINE
8
BLACK
6
CONTINUOUS
10
196.1732229999999788
20
-36.9767769999999985
11
196.1190299999999809
21
-36.8956710000000001
0
LINE
8
BLACK
6
CONTINUOUS
10
196.1190299999999809
20
-36.8956710000000001
11
196.0999999999999943
21
-36.7999999999999972
0
LINE
8
BLACK
6
CONTINUOUS
10
196.0999999999999943
20
-36.7999999999999972
11
196.0999999999999943
21
-36.1499999999999986
0
LINE
8
BLACK
6
CONTINUOUS
10
196.0999999999999943
20
-36.1499999999999986
11
196.1190299999999809
21
-36.0543289999999956
0
LINE
8
BLACK
6
CONTINUOUS
10
196.1190299999999809
20
-36.0543289999999956
11
196.1732229999999788
21
-35.9732229999999973
0
LINE
8
BLACK
6
CONTINUOUS
10
196.1732229999999788
20
-35.9732229999999973
11
196.2543289999999843
21
-35.9190299999999993
0
LINE
8
BLACK
6
CONTINUOUS
10
196.2543289999999843
20
-35.9190299999999993
11
196.3499999999999943
21
-35.8999999999999986
0
LINE
8
BLACK
6
CONTINUOUS
10
196.3499999999999943
20
-35.8999999999999986
11
197.6499999999999773
21
-35.8999999999999986
0
LINE
8
BLACK
6
CONTINUOUS
10
197.6499999999999773
20
-35.8999999999999986
11
197.7456709999999873
21
-35.9190299999999993
0
LINE
8
BLACK
6
CONTINUOUS
10
227.7456709999999873
20
-35.9190299999999993
11
227.8267769999999928
21
-35.9732229999999973
0
LINE
8
BLACK
6
CONTINUOUS
10
227.8267769999999928
20
-35.9732229999999973
11
227.8809699999999907
21
-36.0543289999999956
0
LINE
8
BLACK
6
CONTINUOUS
10
227.8809699999999907
20
-36.0543289999999956
11
227.8999999999999773
21
-36.1499999999999986
0
LINE
8
BLACK
6
CONTINUOUS
10
227.8999999999999773
20
-36.1499999999999986
11
227.8999999999999773
21
-36.7999999999999972
0
LINE
8
BLACK
6
CONTINUOUS
10
227.8999999999999773
20
-36.7999999999999972
11
227.8809699999999907
21
-36.8956710000000001
0
LINE
8
BLACK
6
CONTINUOUS
10
227.8809699999999907
20
-36.8956710000000001
11
227.8267769999999928
21
-36.9767769999999985
0
LINE
8
BLACK
6
CONTINUOUS
10
227.8267769999999928
20
-36.9767769999999985
11
227.7456709999999873
21
-37.0309699999999964
0
LINE
8
BLACK
6
CONTINUOUS
10
227.7456709999999873
20
-37.0309699999999964
11
227.6499999999999773
21
-37.0499999999999972
0
LINE
8
BLACK
6
CONTINUOUS
10
227.6499999999999773
20
-37.0499999999999972
11
226.3499999999999943
21
-37.0499999999999972
0
LINE
8
BLACK
6
CONTINUOUS
10
226.3499999999999943
20
-37.0499999999999972
11
226.2543289999999843
21
-37.0309699999999964
0
LINE
8
BLACK
6
CONTINUOUS
10
226.2543289999999843
20
-37.0309699999999964
11
226.1732229999999788
21
-36.9767769999999985
0
LINE
8
BLACK
6
CONTINUOUS
10
226.1732229999999788
20
-36.9767769999999985
11
226.1190299999999809
21
-36.8956710000000001
0
LINE
8
BLACK
6
CONTINUOUS
10
226.1190299999999809
20
-36.8956710000000001
11
226.0999999999999943
21
-36.7999999999999972
0
LINE
8
BLACK
6
CONTINUOUS
10
226.0999999999999943
20
-36.7999999999999972
11
226.0999999999999943
21
-36.1499999999999986
0
LINE
8
BLACK
6
CONTINUOUS
10
226.0999999999999943
20
-36.1499999999999986
11
226.1190299999999809
21
-36.0543289999999956
0
LINE
8
BLACK
6
CONTINUOUS
10
226.1190299999999809
20
-36.0543289999999956
11
226.1732229999999788
21
-35.9732229999999973
0
LINE
8
BLACK
6
CONTINUOUS
10
226.1732229999999788
20
-35.9732229999999973
11
226.2543289999999843
21
-35.9190299999999993
0
LINE
8
BLACK
6
CONTINUOUS
10
226.2543289999999843
20
-35.9190299999999993
11
226.3499999999999943
21
-35.8999999999999986
0
LINE
8
BLACK
6
CONTINUOUS
10
226.3499999999999943
20
-35.8999999999999986
11
227.6499999999999773
21
-35.8999999999999986
0
LINE
8
BLACK
6
CONTINUOUS
10
227.6499999999999773
20
-35.8999999999999986
11
227.7456709999999873
21
-35.9190299999999993
0
LINE
8
BLACK
6
CONTINUOUS
10
257.7456710000000157
20
-35.9190299999999993
11
257.8267769999999928
21
-35.9732229999999973
0
LINE
8
BLACK
6
CONTINUOUS
10
257.8267769999999928
20
-35.9732229999999973
11
257.8809699999999907
21
-36.0543289999999956
0
LINE
8
BLACK
6
CONTINUOUS
10
257.8809699999999907
20
-36.0543289999999956
11
257.8999999999999773
21
-36.1499999999999986
0
LINE
8
BLACK
6
CONTINUOUS
10
257.8999999999999773
20
-36.1499999999999986
11
257.8999999999999773
21
-36.7999999999999972
0
LINE
8
BLACK
6
CONTINUOUS
10
257.8999999999999773
20
-36.7999999999999972
11
257.8809699999999907
21
-36.8956710000000001
0
LINE
8
BLACK
6
CONTINUOUS
10
257.8809699999999907
20
-36.8956710000000001
11
257.8267769999999928
21
-36.9767769999999985
0
LINE
8
BLACK
6
CONTINUOUS
10
257.8267769999999928
20
-36.9767769999999985
11
257.7456710000000157
21
-37.0309699999999964
0
LINE
8
BLACK
6
CONTINUOUS
10
257.7456710000000157
20
-37.0309699999999964
11
257.6499999999999773
21
-37.0499999999999972
0
LINE
8
BLACK
6
CONTINUOUS
10
257.6499999999999773
20
-37.0499999999999972
11
256.3499999999999659
21
-37.0499999999999972
0
LINE
8
BLACK
6
CONTINUOUS
10
256.3499999999999659
20
-37.0499999999999972
11
256.2543289999999843
21
-37.0309699999999964
0
LINE
8
BLACK
6
CONTINUOUS
10
256.2543289999999843
20
-37.0309699999999964
11
256.1732230000000072
21
-36.9767769999999985
0
LINE
8
BLACK
6
CONTINUOUS
10
256.1732230000000072
20
-36.9767769999999985
11
256.1190300000000093
21
-36.8956710000000001
0
LINE
8
BLACK
6
CONTINUOUS
10
256.1190300000000093
20
-36.8956710000000001
11
256.0999999999999659
21
-36.7999999999999972
0
LINE
8
BLACK
6
CONTINUOUS
10
256.0999999999999659
20
-36.7999999999999972
11
256.0999999999999659
21
-36.1499999999999986
0
LINE
8
BLACK
6
CONTINUOUS
10
256.0999999999999659
20
-36.1499999999999986
11
256.1190300000000093
21
-36.0543289999999956
0
LINE
8
BLACK
6
CONTINUOUS
10
256.1190300000000093
20
-36.0543289999999956
11
256.1732230000000072
21
-35.9732229999999973
0
LINE
8
BLACK
6
CONTINUOUS
10
256.1732230000000072
20
-35.9732229999999973
11
256.2543289999999843
21
-35.9190299999999993
0
LINE
8
BLACK
6
CONTINUOUS
10
256.2543289999999843
20
-35.9190299999999993
11
256.3499999999999659
21
-35.8999999999999986
0
LINE
8
BLACK
6
CONTINUOUS
10
256.3499999999999659
20
-35.8999999999999986
11
257.6499999999999773
21
-35.8999999999999986
0
LINE
8
BLACK
6
CONTINUOUS
10
257.6499999999999773
20
-35.8999999999999986
11
257.7456710000000157
21
-35.9190299999999993
0
LINE
8
BLACK
6
CONTINUOUS
10
77.7456710000000015
20
-32.9690299999999965
11
77.8267769999999928
21
-33.0232230000000015
0
LINE
8
BLACK
6
CONTINUOUS
10
77.8267769999999928
20
-33.0232230000000015
11
77.8809699999999907
21
-33.1043289999999999
0
LINE
8
BLACK
6
CONTINUOUS
10
77.8809699999999907
20
-33.1043289999999999
11
77.8999999999999915
21
-33.1999999999999957
0
LINE
8
BLACK
6
CONTINUOUS
10
77.8999999999999915
20
-33.1999999999999957
11
77.8999999999999915
21
-33.8500000000000014
0
LINE
8
BLACK
6
CONTINUOUS
10
77.8999999999999915
20
-33.8500000000000014
11
77.8809699999999907
21
-33.9456709999999973
0
LINE
8
BLACK
6
CONTINUOUS
10
77.8809699999999907
20
-33.9456709999999973
11
77.8267769999999928
21
-34.0267769999999956
0
LINE
8
BLACK
6
CONTINUOUS
10
77.8267769999999928
20
-34.0267769999999956
11
77.7456710000000015
21
-34.0809700000000007
0
LINE
8
BLACK
6
CONTINUOUS
10
77.7456710000000015
20
-34.0809700000000007
11
77.6499999999999915
21
-34.1000000000000014
0
LINE
8
BLACK
6
CONTINUOUS
10
77.6499999999999915
20
-34.1000000000000014
11
76.3499999999999943
21
-34.1000000000000014
0
LINE
8
BLACK
6
CONTINUOUS
10
76.3499999999999943
20
-34.1000000000000014
11
76.2543289999999985
21
-34.0809700000000007
0
LINE
8
BLACK
6
CONTINUOUS
10
76.2543289999999985
20
-34.0809700000000007
11
76.173222999999993
21
-34.0267769999999956
0
LINE
8
BLACK
6
CONTINUOUS
10
76.173222999999993
20
-34.0267769999999956
11
76.1190299999999951
21
-33.9456709999999973
0
LINE
8
BLACK
6
CONTINUOUS
10
76.1190299999999951
20
-33.9456709999999973
11
76.0999999999999943
21
-33.8500000000000014
0
LINE
8
BLACK
6
CONTINUOUS
10
76.0999999999999943
20
-33.8500000000000014
11
76.0999999999999943
21
-33.1999999999999957
0
LINE
8
BLACK
6
CONTINUOUS
10
76.0999999999999943
20
-33.1999999999999957
11
76.1190299999999951
21
-33.1043289999999999
0
LINE
8
BLACK
6
CONTINUOUS
10
76.1190299999999951
20
-33.1043289999999999
11
76.173222999999993
21
-33.0232230000000015
0
LINE
8
BLACK
6
CONTINUOUS
10
76.173222999999993
20
-33.0232230000000015
11
76.2543289999999985
21
-32.9690299999999965
0
LINE
8
BLACK
6
CONTINUOUS
10
76.2543289999999985
20
-32.9690299999999965
11
76.3499999999999943
21
-32.9499999999999957
0
LINE
8
BLACK
6
CONTINUOUS
10
76.3499999999999943
20
-32.9499999999999957
11
77.6499999999999915
21
-32.9499999999999957
0
LINE
8
BLACK
6
CONTINUOUS
10
77.6499999999999915
20
-32.9499999999999957
11
77.7456710000000015
21
-32.9690299999999965
0
LINE
8
BLACK
6
CONTINUOUS
10
107.7456710000000015
20
-32.9690299999999965
11
107.8267769999999928
21
-33.0232230000000015
0
LINE
8
BLACK
6
CONTINUOUS
10
107.8267769999999928
20
-33.0232230000000015
11
107.8809699999999907
21
-33.1043289999999999
0
LINE
8
BLACK
6
CONTINUOUS
10
107.8809699999999907
20
-33.1043289999999999
11
107.8999999999999915
21
-33.1999999999999957
0
LINE
8
BLACK
6
CONTINUOUS
10
107.8999999999999915
20
-33.1999999999999957
11
107.8999999999999915
21
-33.8500000000000014
0
LINE
8
BLACK
6
CONTINUOUS
10
107.8999999999999915
20
-33.8500000000000014
11
107.8809699999999907
21
-33.9456709999999973
0
LINE
8
BLACK
6
CONTINUOUS
10
107.8809699999999907
20
-33.9456709999999973
11
107.8267769999999928
21
-34.0267769999999956
0
LINE
8
BLACK
6
CONTINUOUS
10
107.8267769999999928
20
-34.0267769999999956
11
107.7456710000000015
21
-34.0809700000000007
0
LINE
8
BLACK
6
CONTINUOUS
10
107.7456710000000015
20
-34.0809700000000007
11
107.6499999999999915
21
-34.1000000000000014
0
LINE
8
BLACK
6
CONTINUOUS
10
107.6499999999999915
20
-34.1000000000000014
11
106.3499999999999943
21
-34.1000000000000014
0
LINE
8
BLACK
6
CONTINUOUS
10
106.3499999999999943
20
-34.1000000000000014
11
106.2543289999999985
21
-34.0809700000000007
0
LINE
8
BLACK
6
CONTINUOUS
10
106.2543289999999985
20
-34.0809700000000007
11
106.173222999999993
21
-34.0267769999999956
0
LINE
8
BLACK
6
CONTINUOUS
10
106.173222999999993
20
-34.0267769999999956
11
106.1190299999999951
21
-33.9456709999999973
0
LINE
8
BLACK
6
CONTINUOUS
10
106.1190299999999951
20
-33.9456709999999973
11
106.0999999999999943
21
-33.8500000000000014
0
LINE
8
BLACK
6
CONTINUOUS
10
106.0999999999999943
20
-33.8500000000000014
11
106.0999999999999943
21
-33.1999999999999957
0
LINE
8
BLACK
6
CONTINUOUS
10
106.0999999999999943
20
-33.1999999999999957
11
106.1190299999999951
21
-33.1043289999999999
0
LINE
8
BLACK
6
CONTINUOUS
10
106.1190299999999951
20
-33.1043289999999999
11
106.173222999999993
21
-33.0232230000000015
0
LINE
8
BLACK
6
CONTINUOUS
10
106.173222999999993
20
-33.0232230000000015
11
106.2543289999999985
21
-32.9690299999999965
0
LINE
8
BLACK
6
CONTINUOUS
10
106.2543289999999985
20
-32.9690299999999965
11
106.3499999999999943
21
-32.9499999999999957
0
LINE
8
BLACK
6
CONTINUOUS
10
106.3499999999999943
20
-32.9499999999999957
11
107.6499999999999915
21
-32.9499999999999957
0
LINE
8
BLACK
6
CONTINUOUS
10
107.6499999999999915
20
-32.9499999999999957
11
107.7456710000000015
21
-32.9690299999999965
0
LINE
8
BLACK
6
CONTINUOUS
10
137.7456709999999873
20
-32.9690299999999965
11
137.8267769999999928
21
-33.0232230000000015
0
LINE
8
BLACK
6
CONTINUOUS
10
137.8267769999999928
20
-33.0232230000000015
11
137.8809699999999907
21
-33.1043289999999999
0
LINE
8
BLACK
6
CONTINUOUS
10
137.8809699999999907
20
-33.1043289999999999
11
137.9000000000000057
21
-33.1999999999999957
0
LINE
8
BLACK
6
CONTINUOUS
10
137.9000000000000057
20
-33.1999999999999957
11
137.9000000000000057
21
-33.8500000000000014
0
LINE
8
BLACK
6
CONTINUOUS
10
137.9000000000000057
20
-33.8500000000000014
11
137.8809699999999907
21
-33.9456709999999973
0
LINE
8
BLACK
6
CONTINUOUS
10
137.8809699999999907
20
-33.9456709999999973
11
137.8267769999999928
21
-34.0267769999999956
0
LINE
8
BLACK
6
CONTINUOUS
10
137.8267769999999928
20
-34.0267769999999956
11
137.7456709999999873
21
-34.0809700000000007
0
LINE
8
BLACK
6
CONTINUOUS
10
137.7456709999999873
20
-34.0809700000000007
11
137.6500000000000057
21
-34.1000000000000014
0
LINE
8
BLACK
6
CONTINUOUS
10
137.6500000000000057
20
-34.1000000000000014
11
136.3499999999999943
21
-34.1000000000000014
0
LINE
8
BLACK
6
CONTINUOUS
10
136.3499999999999943
20
-34.1000000000000014
11
136.2543289999999843
21
-34.0809700000000007
0
LINE
8
BLACK
6
CONTINUOUS
10
136.2543289999999843
20
-34.0809700000000007
11
136.1732230000000072
21
-34.0267769999999956
0
LINE
8
BLACK
6
CONTINUOUS
10
136.1732230000000072
20
-34.0267769999999956
11
136.1190299999999809
21
-33.9456709999999973
0
LINE
8
BLACK
6
CONTINUOUS
10
136.1190299999999809
20
-33.9456709999999973
11
136.0999999999999943
21
-33.8500000000000014
0
LINE
8
BLACK
6
CONTINUOUS
10
136.0999999999999943
20
-33.8500000000000014
11
136.0999999999999943
21
-33.1999999999999957
0
LINE
8
BLACK
6
CONTINUOUS
10
136.0999999999999943
20
-33.1999999999999957
11
136.1190299999999809
21
-33.1043289999999999
0
LINE
8
BLACK
6
CONTINUOUS
10
136.1190299999999809
20
-33.1043289999999999
11
136.1732230000000072
21
-33.0232230000000015
0
LINE
8
BLACK
6
CONTINUOUS
10
136.1732230000000072
20
-33.0232230000000015
11
136.2543289999999843
21
-32.9690299999999965
0
LINE
8
BLACK
6
CONTINUOUS
10
136.2543289999999843
20
-32.9690299999999965
11
136.3499999999999943
21
-32.9499999999999957
0
LINE
8
BLACK
6
CONTINUOUS
10
136.3499999999999943
20
-32.9499999999999957
11
137.6500000000000057
21
-32.9499999999999957
0
LINE
8
BLACK
6
CONTINUOUS
10
137.6500000000000057
20
-32.9499999999999957
11
137.7456709999999873
21
-32.9690299999999965
0
LINE
8
BLACK
6
CONTINUOUS
10
167.7456709999999873
20
-32.9690299999999965
11
167.8267769999999928
21
-33.0232230000000015
0
LINE
8
BLACK
6
CONTINUOUS
10
167.8267769999999928
20
-33.0232230000000015
11
167.8809699999999907
21
-33.1043289999999999
0
LINE
8
BLACK
6
CONTINUOUS
10
167.8809699999999907
20
-33.1043289999999999
11
167.9000000000000057
21
-33.1999999999999957
0
LINE
8
BLACK
6
CONTINUOUS
10
167.9000000000000057
20
-33.1999999999999957
11
167.9000000000000057
21
-33.8500000000000014
0
LINE
8
BLACK
6
CONTINUOUS
10
167.9000000000000057
20
-33.8500000000000014
11
167.8809699999999907
21
-33.9456709999999973
0
LINE
8
BLACK
6
CONTINUOUS
10
167.8809699999999907
20
-33.9456709999999973
11
167.8267769999999928
21
-34.0267769999999956
0
LINE
8
BLACK
6
CONTINUOUS
10
167.8267769999999928
20
-34.0267769999999956
11
167.7456709999999873
21
-34.0809700000000007
0
LINE
8
BLACK
6
CONTINUOUS
10
167.7456709999999873
20
-34.0809700000000007
11
167.6500000000000057
21
-34.1000000000000014
0
LINE
8
BLACK
6
CONTINUOUS
10
167.6500000000000057
20
-34.1000000000000014
11
166.3499999999999943
21
-34.1000000000000014
0
LINE
8
BLACK
6
CONTINUOUS
10
166.3499999999999943
20
-34.1000000000000014
11
166.2543289999999843
21
-34.0809700000000007
0
LINE
8
BLACK
6
CONTINUOUS
10
166.2543289999999843
20
-34.0809700000000007
11
166.1732229999999788
21
-34.0267769999999956
0
LINE
8
BLACK
6
CONTINUOUS
10
166.1732229999999788
20
-34.0267769999999956
11
166.1190299999999809
21
-33.9456709999999973
0
LINE
8
BLACK
6
CONTINUOUS
10
166.1190299999999809
20
-33.9456709999999973
11
166.0999999999999943
21
-33.8500000000000014
0
LINE
8
BLACK
6
CONTINUOUS
10
166.0999999999999943
20
-33.8500000000000014
11
166.0999999999999943
21
-33.1999999999999957
0
LINE
8
BLACK
6
CONTINUOUS
10
166.0999999999999943
20
-33.1999999999999957
11
166.1190299999999809
21
-33.1043289999999999
0
LINE
8
BLACK
6
CONTINUOUS
10
166.1190299999999809
20
-33.1043289999999999
11
166.1732229999999788
21
-33.0232230000000015
0
LINE
8
BLACK
6
CONTINUOUS
10
166.1732229999999788
20
-33.0232230000000015
11
166.2543289999999843
21
-32.9690299999999965
0
LINE
8
BLACK
6
CONTINUOUS
10
166.2543289999999843
20
-32.9690299999999965
11
166.3499999999999943
21
-32.9499999999999957
0
LINE
8
BLACK
6
CONTINUOUS
10
166.3499999999999943
20
-32.9499999999999957
11
167.6500000000000057
21
-32.9499999999999957
0
LINE
8
BLACK
6
CONTINUOUS
10
167.6500000000000057
20
-32.9499999999999957
11
167.7456709999999873
21
-32.9690299999999965
0
LINE
8
BLACK
6
CONTINUOUS
10
197.7456709999999873
20
-32.9690299999999965
11
197.8267769999999928
21
-33.0232230000000015
0
LINE
8
BLACK
6
CONTINUOUS
10
197.8267769999999928
20
-33.0232230000000015
11
197.8809699999999907
21
-33.1043289999999999
0
LINE
8
BLACK
6
CONTINUOUS
10
197.8809699999999907
20
-33.1043289999999999
11
197.8999999999999773
21
-33.1999999999999957
0
LINE
8
BLACK
6
CONTINUOUS
10
197.8999999999999773
20
-33.1999999999999957
11
197.8999999999999773
21
-33.8500000000000014
0
LINE
8
BLACK
6
CONTINUOUS
10
197.8999999999999773
20
-33.8500000000000014
11
197.8809699999999907
21
-33.9456709999999973
0
LINE
8
BLACK
6
CONTINUOUS
10
197.8809699999999907
20
-33.9456709999999973
11
197.8267769999999928
21
-34.0267769999999956
0
LINE
8
BLACK
6
CONTINUOUS
10
197.8267769999999928
20
-34.0267769999999956
11
197.7456709999999873
21
-34.0809700000000007
0
LINE
8
BLACK
6
CONTINUOUS
10
197.7456709999999873
20
-34.0809700000000007
11
197.6499999999999773
21
-34.1000000000000014
0
LINE
8
BLACK
6
CONTINUOUS
10
197.6499999999999773
20
-34.1000000000000014
11
196.3499999999999943
21
-34.1000000000000014
0
LINE
8
BLACK
6
CONTINUOUS
10
196.3499999999999943
20
-34.1000000000000014
11
196.2543289999999843
21
-34.0809700000000007
0
LINE
8
BLACK
6
CONTINUOUS
10
196.2543289999999843
20
-34.0809700000000007
11
196.1732229999999788
21
-34.0267769999999956
0
LINE
8
BLACK
6
CONTINUOUS
10
196.1732229999999788
20
-34.0267769999999956
11
196.1190299999999809
21
-33.9456709999999973
0
LINE
8
BLACK
6
CONTINUOUS
10
196.1190299999999809
20
-33.9456709999999973
11
196.0999999999999943
21
-33.8500000000000014
0
LINE
8
BLACK
6
CONTINUOUS
10
196.0999999999999943
20
-33.8500000000000014
11
196.0999999999999943
21
-33.1999999999999957
0
LINE
8
BLACK
6
CONTINUOUS
10
196.0999999999999943
20
-33.1999999999999957
11
196.1190299999999809
21
-33.1043289999999999
0
LINE
8
BLACK
6
CONTINUOUS
10
196.1190299999999809
20
-33.1043289999999999
11
196.1732229999999788
21
-33.0232230000000015
0
LINE
8
BLACK
6
CONTINUOUS
10
196.1732229999999788
20
-33.0232230000000015
11
196.2543289999999843
21
-32.9690299999999965
0
LINE
8
BLACK
6
CONTINUOUS
10
196.2543289999999843
20
-32.9690299999999965
11
196.3499999999999943
21
-32.9499999999999957
0
LINE
8
BLACK
6
CONTINUOUS
10
196.3499999999999943
20
-32.9499999999999957
11
197.6499999999999773
21
-32.9499999999999957
0
LINE
8
BLACK
6
CONTINUOUS
10
197.6499999999999773
20
-32.9499999999999957
11
197.7456709999999873
21
-32.9690299999999965
0
LINE
8
BLACK
6
CONTINUOUS
10
227.7456709999999873
20
-32.9690299999999965
11
227.8267769999999928
21
-33.0232230000000015
0
LINE
8
BLACK
6
CONTINUOUS
10
227.8267769999999928
20
-33.0232230000000015
11
227.8809699999999907
21
-33.1043289999999999
0
LINE
8
BLACK
6
CONTINUOUS
10
227.8809699999999907
20
-33.1043289999999999
11
227.8999999999999773
21
-33.1999999999999957
0
LINE
8
BLACK
6
CONTINUOUS
10
227.8999999999999773
20
-33.1999999999999957
11
227.8999999999999773
21
-33.8500000000000014
0
LINE
8
BLACK
6
CONTINUOUS
10
227.8999999999999773
20
-33.8500000000000014
11
227.8809699999999907
21
-33.9456709999999973
0
LINE
8
BLACK
6
CONTINUOUS
10
227.8809699999999907
20
-33.9456709999999973
11
227.8267769999999928
21
-34.0267769999999956
0
LINE
8
BLACK
6
CONTINUOUS
10
227.8267769999999928
20
-34.0267769999999956
11
227.7456709999999873
21
-34.0809700000000007
0
LINE
8
BLACK
6
CONTINUOUS
10
227.7456709999999873
20
-34.0809700000000007
11
227.6499999999999773
21
-34.1000000000000014
0
LINE
8
BLACK
6
CONTINUOUS
10
227.6499999999999773
20
-34.1000000000000014
11
226.3499999999999943
21
-34.1000000000000014
0
LINE
8
BLACK
6
CONTINUOUS
10
226.3499999999999943
20
-34.1000000000000014
11
226.2543289999999843
21
-34.0809700000000007
0
LINE
8
BLACK
6
CONTINUOUS
10
226.2543289999999843
20
-34.0809700000000007
11
226.1732229999999788
21
-34.0267769999999956
0
LINE
8
BLACK
6
CONTINUOUS
10
226.1732229999999788
20
-34.0267769999999956
11
226.1190299999999809
21
-33.9456709999999973
0
LINE
8
BLACK
6
CONTINUOUS
10
226.1190299999999809
20
-33.9456709999999973
11
226.0999999999999943
21
-33.8500000000000014
0
LINE
8
BLACK
6
CONTINUOUS
10
226.0999999999999943
20
-33.8500000000000014
11
226.0999999999999943
21
-33.1999999999999957
0
LINE
8
BLACK
6
CONTINUOUS
10
226.0999999999999943
20
-33.1999999999999957
11
226.1190299999999809
21
-33.1043289999999999
0
LINE
8
BLACK
6
CONTINUOUS
10
226.1190299999999809
20
-33.1043289999999999
11
226.1732229999999788
21
-33.0232230000000015
0
LINE
8
BLACK
6
CONTINUOUS
10
226.1732229999999788
20
-33.0232230000000015
11
226.2543289999999843
21
-32.9690299999999965
0
LINE
8
BLACK
6
CONTINUOUS
10
226.2543289999999843
20
-32.9690299999999965
11
226.3499999999999943
21
-32.9499999999999957
0
LINE
8
BLACK
6
CONTINUOUS
10
226.3499999999999943
20
-32.9499999999999957
11
227.6499999999999773
21
-32.9499999999999957
0
LINE
8
BLACK
6
CONTINUOUS
10
227.6499999999999773
20
-32.9499999999999957
11
227.7456709999999873
21
-32.9690299999999965
0
LINE
8
BLACK
6
CONTINUOUS
10
257.7456710000000157
20
-32.9690299999999965
11
257.8267769999999928
21
-33.0232230000000015
0
LINE
8
BLACK
6
CONTINUOUS
10
257.8267769999999928
20
-33.0232230000000015
11
257.8809699999999907
21
-33.1043289999999999
0
LINE
8
BLACK
6
CONTINUOUS
10
257.8809699999999907
20
-33.1043289999999999
11
257.8999999999999773
21
-33.1999999999999957
0
LINE
8
BLACK
6
CONTINUOUS
10
257.8999999999999773
20
-33.1999999999999957
11
257.8999999999999773
21
-33.8500000000000014
0
LINE
8
BLACK
6
CONTINUOUS
10
257.8999999999999773
20
-33.8500000000000014
11
257.8809699999999907
21
-33.9456709999999973
0
LINE
8
BLACK
6
CONTINUOUS
10
257.8809699999999907
20
-33.9456709999999973
11
257.8267769999999928
21
-34.0267769999999956
0
LINE
8
BLACK
6
CONTINUOUS
10
257.8267769999999928
20
-34.0267769999999956
11
257.7456710000000157
21
-34.0809700000000007
0
LINE
8
BLACK
6
CONTINUOUS
10
257.7456710000000157
20
-34.0809700000000007
11
257.6499999999999773
21
-34.1000000000000014
0
LINE
8
BLACK
6
CONTINUOUS
10
257.6499999999999773
20
-34.1000000000000014
11
256.3499999999999659
21
-34.1000000000000014
0
LINE
8
BLACK
6
CONTINUOUS
10
256.3499999999999659
20
-34.1000000000000014
11
256.2543289999999843
21
-34.0809700000000007
0
LINE
8
BLACK
6
CONTINUOUS
10
256.2543289999999843
20
-34.0809700000000007
11
256.1732230000000072
21
-34.0267769999999956
0
LINE
8
BLACK
6
CONTINUOUS
10
256.1732230000000072
20
-34.0267769999999956
11
256.1190300000000093
21
-33.9456709999999973
0
LINE
8
BLACK
6
CONTINUOUS
10
256.1190300000000093
20
-33.9456709999999973
11
256.0999999999999659
21
-33.8500000000000014
0
LINE
8
BLACK
6
CONTINUOUS
10
256.0999999999999659
20
-33.8500000000000014
11
256.0999999999999659
21
-33.1999999999999957
0
LINE
8
BLACK
6
CONTINUOUS
10
256.0999999999999659
20
-33.1999999999999957
11
256.1190300000000093
21
-33.1043289999999999
0
LINE
8
BLACK
6
CONTINUOUS
10
256.1190300000000093
20
-33.1043289999999999
11
256.1732230000000072
21
-33.0232230000000015
0
LINE
8
BLACK
6
CONTINUOUS
10
256.1732230000000072
20
-33.0232230000000015
11
256.2543289999999843
21
-32.9690299999999965
0
LINE
8
BLACK
6
CONTINUOUS
10
256.2543289999999843
20
-32.9690299999999965
11
256.3499999999999659
21
-32.9499999999999957
0
LINE
8
BLACK
6
CONTINUOUS
10
256.3499999999999659
20
-32.9499999999999957
11
257.6499999999999773
21
-32.9499999999999957
0
LINE
8
BLACK
6
CONTINUOUS
10
257.6499999999999773
20
-32.9499999999999957
11
257.7456710000000157
21
-32.9690299999999965
0
LINE
8
BLACK
6
CONTINUOUS
10
47.7456709999999944
20
-32.969028999999999
11
47.8267769999999999
21
-33.023221999999997
0
LINE
8
BLACK
6
CONTINUOUS
10
47.8267769999999999
20
-33.023221999999997
11
47.8809699999999978
21
-33.1043279999999953
0
LINE
8
BLACK
6
CONTINUOUS
10
47.8809699999999978
20
-33.1043279999999953
11
47.8999999999999986
21
-33.1999989999999983
0
LINE
8
BLACK
6
CONTINUOUS
10
47.8999999999999986
20
-33.1999989999999983
11
47.8999999999999986
21
-33.8499989999999968
0
LINE
8
BLACK
6
CONTINUOUS
10
47.8999999999999986
20
-33.8499989999999968
11
47.8809699999999978
21
-33.9456699999999998
0
LINE
8
BLACK
6
CONTINUOUS
10
47.8809699999999978
20
-33.9456699999999998
11
47.8267769999999999
21
-34.0267759999999981
0
LINE
8
BLACK
6
CONTINUOUS
10
47.8267769999999999
20
-34.0267759999999981
11
47.7456709999999944
21
-34.0809689999999961
0
LINE
8
BLACK
6
CONTINUOUS
10
47.7456709999999944
20
-34.0809689999999961
11
47.6499999999999986
21
-34.0999989999999968
0
LINE
8
BLACK
6
CONTINUOUS
10
47.6499999999999986
20
-34.0999989999999968
11
46.3500000000000014
21
-34.0999989999999968
0
LINE
8
BLACK
6
CONTINUOUS
10
46.3500000000000014
20
-34.0999989999999968
11
46.2543289999999985
21
-34.0809689999999961
0
LINE
8
BLACK
6
CONTINUOUS
10
46.2543289999999985
20
-34.0809689999999961
11
46.1732230000000001
21
-34.0267759999999981
0
LINE
8
BLACK
6
CONTINUOUS
10
46.1732230000000001
20
-34.0267759999999981
11
46.1190299999999951
21
-33.9456699999999998
0
LINE
8
BLACK
6
CONTINUOUS
10
46.1190299999999951
20
-33.9456699999999998
11
46.1000000000000014
21
-33.8499989999999968
0
LINE
8
BLACK
6
CONTINUOUS
10
46.1000000000000014
20
-33.8499989999999968
11
46.1000000000000014
21
-33.1999989999999983
0
LINE
8
BLACK
6
CONTINUOUS
10
46.1000000000000014
20
-33.1999989999999983
11
46.1190299999999951
21
-33.1043279999999953
0
LINE
8
BLACK
6
CONTINUOUS
10
46.1190299999999951
20
-33.1043279999999953
11
46.1732230000000001
21
-33.023221999999997
0
LINE
8
BLACK
6
CONTINUOUS
10
46.1732230000000001
20
-33.023221999999997
11
46.2543289999999985
21
-32.969028999999999
0
LINE
8
BLACK
6
CONTINUOUS
10
46.2543289999999985
20
-32.969028999999999
11
46.3500000000000014
21
-32.9499989999999983
0
LINE
8
BLACK
6
CONTINUOUS
10
46.3500000000000014
20
-32.9499989999999983
11
47.6499999999999986
21
-32.9499989999999983
0
LINE
8
BLACK
6
CONTINUOUS
10
47.6499999999999986
20
-32.9499989999999983
11
47.7456709999999944
21
-32.969028999999999
  0
ENDSEC
  0
EOF
