%TF.GenerationSoftware,KiCad,Pcbnew,(5.1.10)-1*%
%TF.CreationDate,2021-06-11T22:20:09-04:00*%
%TF.ProjectId,Adapter,41646170-7465-4722-9e6b-696361645f70,rev?*%
%TF.SameCoordinates,Original*%
%TF.FileFunction,Paste,Top*%
%TF.FilePolarity,Positive*%
%FSLAX46Y46*%
G04 Gerber Fmt 4.6, Leading zero omitted, Abs format (unit mm)*
G04 Created by KiCad (PCBNEW (5.1.10)-1) date 2021-06-11 22:20:09*
%MOMM*%
%LPD*%
G01*
G04 APERTURE LIST*
%ADD10R,1.300000X0.300000*%
%ADD11R,1.600000X2.000000*%
G04 APERTURE END LIST*
D10*
%TO.C,J1*%
X134600000Y-97850000D03*
X134600000Y-98350000D03*
X134600000Y-98850000D03*
X134600000Y-99350000D03*
X134600000Y-99850000D03*
X134600000Y-100350000D03*
X134600000Y-100850000D03*
X134600000Y-101350000D03*
X134600000Y-101850000D03*
X134600000Y-102350000D03*
X134600000Y-102850000D03*
X134600000Y-103350000D03*
X134600000Y-103850000D03*
X134600000Y-104350000D03*
D11*
X131900000Y-96150000D03*
X131900000Y-106050000D03*
%TD*%
%TO.C,R2*%
G36*
G01*
X141725000Y-97655000D02*
X142275000Y-97655000D01*
G75*
G02*
X142475000Y-97855000I0J-200000D01*
G01*
X142475000Y-98255000D01*
G75*
G02*
X142275000Y-98455000I-200000J0D01*
G01*
X141725000Y-98455000D01*
G75*
G02*
X141525000Y-98255000I0J200000D01*
G01*
X141525000Y-97855000D01*
G75*
G02*
X141725000Y-97655000I200000J0D01*
G01*
G37*
G36*
G01*
X141725000Y-96005000D02*
X142275000Y-96005000D01*
G75*
G02*
X142475000Y-96205000I0J-200000D01*
G01*
X142475000Y-96605000D01*
G75*
G02*
X142275000Y-96805000I-200000J0D01*
G01*
X141725000Y-96805000D01*
G75*
G02*
X141525000Y-96605000I0J200000D01*
G01*
X141525000Y-96205000D01*
G75*
G02*
X141725000Y-96005000I200000J0D01*
G01*
G37*
%TD*%
%TO.C,R1*%
G36*
G01*
X144265000Y-97655000D02*
X144815000Y-97655000D01*
G75*
G02*
X145015000Y-97855000I0J-200000D01*
G01*
X145015000Y-98255000D01*
G75*
G02*
X144815000Y-98455000I-200000J0D01*
G01*
X144265000Y-98455000D01*
G75*
G02*
X144065000Y-98255000I0J200000D01*
G01*
X144065000Y-97855000D01*
G75*
G02*
X144265000Y-97655000I200000J0D01*
G01*
G37*
G36*
G01*
X144265000Y-96005000D02*
X144815000Y-96005000D01*
G75*
G02*
X145015000Y-96205000I0J-200000D01*
G01*
X145015000Y-96605000D01*
G75*
G02*
X144815000Y-96805000I-200000J0D01*
G01*
X144265000Y-96805000D01*
G75*
G02*
X144065000Y-96605000I0J200000D01*
G01*
X144065000Y-96205000D01*
G75*
G02*
X144265000Y-96005000I200000J0D01*
G01*
G37*
%TD*%
%TO.C,D2*%
G36*
G01*
X142256250Y-93070000D02*
X141743750Y-93070000D01*
G75*
G02*
X141525000Y-92851250I0J218750D01*
G01*
X141525000Y-92413750D01*
G75*
G02*
X141743750Y-92195000I218750J0D01*
G01*
X142256250Y-92195000D01*
G75*
G02*
X142475000Y-92413750I0J-218750D01*
G01*
X142475000Y-92851250D01*
G75*
G02*
X142256250Y-93070000I-218750J0D01*
G01*
G37*
G36*
G01*
X142256250Y-94645000D02*
X141743750Y-94645000D01*
G75*
G02*
X141525000Y-94426250I0J218750D01*
G01*
X141525000Y-93988750D01*
G75*
G02*
X141743750Y-93770000I218750J0D01*
G01*
X142256250Y-93770000D01*
G75*
G02*
X142475000Y-93988750I0J-218750D01*
G01*
X142475000Y-94426250D01*
G75*
G02*
X142256250Y-94645000I-218750J0D01*
G01*
G37*
%TD*%
%TO.C,D1*%
G36*
G01*
X144796250Y-93070000D02*
X144283750Y-93070000D01*
G75*
G02*
X144065000Y-92851250I0J218750D01*
G01*
X144065000Y-92413750D01*
G75*
G02*
X144283750Y-92195000I218750J0D01*
G01*
X144796250Y-92195000D01*
G75*
G02*
X145015000Y-92413750I0J-218750D01*
G01*
X145015000Y-92851250D01*
G75*
G02*
X144796250Y-93070000I-218750J0D01*
G01*
G37*
G36*
G01*
X144796250Y-94645000D02*
X144283750Y-94645000D01*
G75*
G02*
X144065000Y-94426250I0J218750D01*
G01*
X144065000Y-93988750D01*
G75*
G02*
X144283750Y-93770000I218750J0D01*
G01*
X144796250Y-93770000D01*
G75*
G02*
X145015000Y-93988750I0J-218750D01*
G01*
X145015000Y-94426250D01*
G75*
G02*
X144796250Y-94645000I-218750J0D01*
G01*
G37*
%TD*%
M02*
