M48
; DRILL file {KiCad (5.1.10)-1} date 06/11/21 22:20:11
; FORMAT={-:-/ absolute / inch / decimal}
; #@! TF.CreationDate,2021-06-11T22:20:11-04:00
; #@! TF.GenerationSoftware,Kicad,Pcbnew,(5.1.10)-1
; #@! TF.FileFunction,Plated,1,2,PTH
FMAT,2
INCH
T1C0.0138
T2C0.0394
%
G90
G05
T1
X5.4311Y-4.1181
X5.4626Y-4.0118
X5.5453Y-3.8583
X5.6398Y-3.9016
X5.7657Y-3.6476
T2
X5.6142Y-4.3839
X5.6849Y-4.4546
X6.0406Y-3.528
X6.0406Y-3.628
X6.0406Y-3.728
X6.0406Y-3.828
X6.0406Y-3.928
X6.0406Y-4.028
X6.0406Y-4.128
X6.0406Y-4.228
X6.0406Y-4.328
X6.0406Y-4.428
X6.1406Y-3.528
X6.1406Y-3.628
X6.1406Y-3.728
X6.1406Y-3.828
X6.1406Y-3.928
X6.1406Y-4.028
X6.1406Y-4.128
X6.1406Y-4.228
X6.1406Y-4.328
X6.1406Y-4.428
T0
M30
