%TF.GenerationSoftware,KiCad,Pcbnew,(5.1.10)-1*%
%TF.CreationDate,2021-06-11T22:20:09-04:00*%
%TF.ProjectId,Adapter,41646170-7465-4722-9e6b-696361645f70,rev?*%
%TF.SameCoordinates,Original*%
%TF.FileFunction,Copper,L2,Bot*%
%TF.FilePolarity,Positive*%
%FSLAX46Y46*%
G04 Gerber Fmt 4.6, Leading zero omitted, Abs format (unit mm)*
G04 Created by KiCad (PCBNEW (5.1.10)-1) date 2021-06-11 22:20:09*
%MOMM*%
%LPD*%
G01*
G04 APERTURE LIST*
%TA.AperFunction,ComponentPad*%
%ADD10C,1.700000*%
%TD*%
%TA.AperFunction,ComponentPad*%
%ADD11C,0.100000*%
%TD*%
%TA.AperFunction,ViaPad*%
%ADD12C,0.800000*%
%TD*%
%TA.AperFunction,Conductor*%
%ADD13C,0.250000*%
%TD*%
%TA.AperFunction,Conductor*%
%ADD14C,0.254000*%
%TD*%
%TA.AperFunction,Conductor*%
%ADD15C,0.100000*%
%TD*%
G04 APERTURE END LIST*
D10*
%TO.P,J2,20*%
%TO.N,N/C*%
X153430000Y-89610000D03*
%TO.P,J2,18*%
X153430000Y-92150000D03*
%TO.P,J2,16*%
X153430000Y-94690000D03*
%TO.P,J2,14*%
X153430000Y-97230000D03*
%TO.P,J2,12*%
%TO.N,GND*%
X153430000Y-99770000D03*
%TO.P,J2,10*%
X153430000Y-102310000D03*
%TO.P,J2,8*%
X153430000Y-104850000D03*
%TO.P,J2,6*%
X153430000Y-107390000D03*
%TO.P,J2,4*%
X153430000Y-109930000D03*
%TO.P,J2,2*%
%TO.N,N/C*%
X153430000Y-112470000D03*
%TO.P,J2,19*%
%TO.N,+5V*%
X155970000Y-89610000D03*
%TO.P,J2,17*%
%TO.N,TXO*%
X155970000Y-92150000D03*
%TO.P,J2,15*%
%TO.N,RESET*%
X155970000Y-94690000D03*
%TO.P,J2,13*%
%TO.N,SWO*%
X155970000Y-97230000D03*
%TO.P,J2,11*%
%TO.N,N/C*%
X155970000Y-99770000D03*
%TO.P,J2,9*%
%TO.N,SWDCLK*%
X155970000Y-102310000D03*
%TO.P,J2,7*%
%TO.N,SWDIO*%
X155970000Y-104850000D03*
%TO.P,J2,5*%
%TO.N,RXI*%
X155970000Y-107390000D03*
%TO.P,J2,3*%
%TO.N,N/C*%
X155970000Y-109930000D03*
%TO.P,J2,1*%
%TO.N,VDD*%
%TA.AperFunction,ComponentPad*%
G36*
G01*
X156820000Y-111870000D02*
X156820000Y-113070000D01*
G75*
G02*
X156570000Y-113320000I-250000J0D01*
G01*
X155370000Y-113320000D01*
G75*
G02*
X155120000Y-113070000I0J250000D01*
G01*
X155120000Y-111870000D01*
G75*
G02*
X155370000Y-111620000I250000J0D01*
G01*
X156570000Y-111620000D01*
G75*
G02*
X156820000Y-111870000I0J-250000D01*
G01*
G37*
%TD.AperFunction*%
%TD*%
%TO.P,JP1,2*%
%TO.N,+5V*%
%TA.AperFunction,ComponentPad*%
G36*
G01*
X143795010Y-113747092D02*
X143795010Y-113747092D01*
G75*
G02*
X143795010Y-112545010I601041J601041D01*
G01*
X143795010Y-112545010D01*
G75*
G02*
X144997092Y-112545010I601041J-601041D01*
G01*
X144997092Y-112545010D01*
G75*
G02*
X144997092Y-113747092I-601041J-601041D01*
G01*
X144997092Y-113747092D01*
G75*
G02*
X143795010Y-113747092I-601041J601041D01*
G01*
G37*
%TD.AperFunction*%
%TA.AperFunction,ComponentPad*%
D11*
%TO.P,JP1,1*%
%TO.N,+BATT*%
G36*
X142600000Y-112552082D02*
G01*
X141397918Y-111350000D01*
X142600000Y-110147918D01*
X143802082Y-111350000D01*
X142600000Y-112552082D01*
G37*
%TD.AperFunction*%
%TD*%
D12*
%TO.N,VDD*%
X146450000Y-92650000D03*
%TO.N,TXO*%
X140850000Y-98000000D03*
%TO.N,SWO*%
X143250000Y-99100000D03*
%TO.N,GND*%
X137950000Y-104600000D03*
X138750000Y-101900000D03*
%TD*%
D13*
%TO.N,VDD*%
X155970000Y-112470000D02*
X157230000Y-112470000D01*
X157230000Y-112470000D02*
X158000000Y-111700000D01*
X158000000Y-111700000D02*
X158000000Y-91600000D01*
X158000000Y-91600000D02*
X157250000Y-90850000D01*
X148250000Y-90850000D02*
X146450000Y-92650000D01*
X157250000Y-90850000D02*
X148250000Y-90850000D01*
%TO.N,TXO*%
X154720000Y-93400000D02*
X155970000Y-92150000D01*
X147950000Y-93400000D02*
X154720000Y-93400000D01*
X143350000Y-98000000D02*
X147950000Y-93400000D01*
X140850000Y-98000000D02*
X143350000Y-98000000D01*
%TO.N,SWO*%
X154690000Y-95950000D02*
X155970000Y-97230000D01*
X146400000Y-95950000D02*
X154690000Y-95950000D01*
X143250000Y-99100000D02*
X146400000Y-95950000D01*
%TO.N,+5V*%
X155970000Y-89610000D02*
X157610000Y-89610000D01*
X157610000Y-89610000D02*
X158800000Y-90800000D01*
X158800000Y-90800000D02*
X158800000Y-115150000D01*
X158800000Y-115150000D02*
X157200000Y-116750000D01*
X148000000Y-116750000D02*
X157200000Y-116750000D01*
X144396051Y-113146051D02*
X148000000Y-116750000D01*
%TD*%
D14*
%TO.N,GND*%
X159440001Y-90385127D02*
X159434974Y-90375723D01*
X159363799Y-90288997D01*
X159340001Y-90259999D01*
X159311004Y-90236202D01*
X158173804Y-89099003D01*
X158150001Y-89069999D01*
X158034276Y-88975026D01*
X157902247Y-88904454D01*
X157758986Y-88860997D01*
X157647333Y-88850000D01*
X157647322Y-88850000D01*
X157610000Y-88846324D01*
X157572678Y-88850000D01*
X157248178Y-88850000D01*
X157123475Y-88663368D01*
X156916632Y-88456525D01*
X156673411Y-88294010D01*
X156403158Y-88182068D01*
X156116260Y-88125000D01*
X155823740Y-88125000D01*
X155536842Y-88182068D01*
X155266589Y-88294010D01*
X155023368Y-88456525D01*
X154816525Y-88663368D01*
X154700000Y-88837760D01*
X154583475Y-88663368D01*
X154376632Y-88456525D01*
X154133411Y-88294010D01*
X153863158Y-88182068D01*
X153576260Y-88125000D01*
X153283740Y-88125000D01*
X152996842Y-88182068D01*
X152726589Y-88294010D01*
X152483368Y-88456525D01*
X152276525Y-88663368D01*
X152114010Y-88906589D01*
X152002068Y-89176842D01*
X151945000Y-89463740D01*
X151945000Y-89756260D01*
X152002068Y-90043158D01*
X152021471Y-90090000D01*
X148287322Y-90090000D01*
X148249999Y-90086324D01*
X148212676Y-90090000D01*
X148212667Y-90090000D01*
X148101014Y-90100997D01*
X147957753Y-90144454D01*
X147825724Y-90215026D01*
X147825722Y-90215027D01*
X147825723Y-90215027D01*
X147738996Y-90286201D01*
X147738992Y-90286205D01*
X147709999Y-90309999D01*
X147686205Y-90338992D01*
X146410198Y-91615000D01*
X146348061Y-91615000D01*
X146148102Y-91654774D01*
X145959744Y-91732795D01*
X145790226Y-91846063D01*
X145646063Y-91990226D01*
X145532795Y-92159744D01*
X145454774Y-92348102D01*
X145415000Y-92548061D01*
X145415000Y-92751939D01*
X145454774Y-92951898D01*
X145532795Y-93140256D01*
X145646063Y-93309774D01*
X145790226Y-93453937D01*
X145959744Y-93567205D01*
X146148102Y-93645226D01*
X146348061Y-93685000D01*
X146551939Y-93685000D01*
X146599697Y-93675500D01*
X143035199Y-97240000D01*
X141553711Y-97240000D01*
X141509774Y-97196063D01*
X141340256Y-97082795D01*
X141151898Y-97004774D01*
X140951939Y-96965000D01*
X140748061Y-96965000D01*
X140548102Y-97004774D01*
X140359744Y-97082795D01*
X140190226Y-97196063D01*
X140046063Y-97340226D01*
X139932795Y-97509744D01*
X139854774Y-97698102D01*
X139815000Y-97898061D01*
X139815000Y-98101939D01*
X139854774Y-98301898D01*
X139932795Y-98490256D01*
X140046063Y-98659774D01*
X140190226Y-98803937D01*
X140359744Y-98917205D01*
X140548102Y-98995226D01*
X140748061Y-99035000D01*
X140951939Y-99035000D01*
X141151898Y-98995226D01*
X141340256Y-98917205D01*
X141509774Y-98803937D01*
X141553711Y-98760000D01*
X142270556Y-98760000D01*
X142254774Y-98798102D01*
X142215000Y-98998061D01*
X142215000Y-99201939D01*
X142254774Y-99401898D01*
X142332795Y-99590256D01*
X142446063Y-99759774D01*
X142590226Y-99903937D01*
X142759744Y-100017205D01*
X142948102Y-100095226D01*
X143148061Y-100135000D01*
X143351939Y-100135000D01*
X143551898Y-100095226D01*
X143740256Y-100017205D01*
X143909774Y-99903937D01*
X143975180Y-99838531D01*
X151939389Y-99838531D01*
X151981401Y-100128019D01*
X152079081Y-100403747D01*
X152152528Y-100541157D01*
X152401603Y-100618792D01*
X153250395Y-99770000D01*
X152401603Y-98921208D01*
X152152528Y-98998843D01*
X152026629Y-99262883D01*
X151954661Y-99546411D01*
X151939389Y-99838531D01*
X143975180Y-99838531D01*
X144053937Y-99759774D01*
X144167205Y-99590256D01*
X144245226Y-99401898D01*
X144285000Y-99201939D01*
X144285000Y-99139801D01*
X146714802Y-96710000D01*
X152038039Y-96710000D01*
X152002068Y-96796842D01*
X151945000Y-97083740D01*
X151945000Y-97376260D01*
X152002068Y-97663158D01*
X152114010Y-97933411D01*
X152276525Y-98176632D01*
X152483368Y-98383475D01*
X152656729Y-98499311D01*
X152581208Y-98741603D01*
X153430000Y-99590395D01*
X154278792Y-98741603D01*
X154203271Y-98499311D01*
X154376632Y-98383475D01*
X154583475Y-98176632D01*
X154700000Y-98002240D01*
X154816525Y-98176632D01*
X155023368Y-98383475D01*
X155197760Y-98500000D01*
X155023368Y-98616525D01*
X154816525Y-98823368D01*
X154700689Y-98996729D01*
X154458397Y-98921208D01*
X153609605Y-99770000D01*
X154458397Y-100618792D01*
X154700689Y-100543271D01*
X154816525Y-100716632D01*
X155023368Y-100923475D01*
X155197760Y-101040000D01*
X155023368Y-101156525D01*
X154816525Y-101363368D01*
X154700689Y-101536729D01*
X154458397Y-101461208D01*
X153609605Y-102310000D01*
X154458397Y-103158792D01*
X154700689Y-103083271D01*
X154816525Y-103256632D01*
X155023368Y-103463475D01*
X155197760Y-103580000D01*
X155023368Y-103696525D01*
X154816525Y-103903368D01*
X154700689Y-104076729D01*
X154458397Y-104001208D01*
X153609605Y-104850000D01*
X154458397Y-105698792D01*
X154700689Y-105623271D01*
X154816525Y-105796632D01*
X155023368Y-106003475D01*
X155197760Y-106120000D01*
X155023368Y-106236525D01*
X154816525Y-106443368D01*
X154700689Y-106616729D01*
X154458397Y-106541208D01*
X153609605Y-107390000D01*
X154458397Y-108238792D01*
X154700689Y-108163271D01*
X154816525Y-108336632D01*
X155023368Y-108543475D01*
X155197760Y-108660000D01*
X155023368Y-108776525D01*
X154816525Y-108983368D01*
X154700689Y-109156729D01*
X154458397Y-109081208D01*
X153609605Y-109930000D01*
X154458397Y-110778792D01*
X154700689Y-110703271D01*
X154816525Y-110876632D01*
X155003608Y-111063715D01*
X154876614Y-111131595D01*
X154742038Y-111242038D01*
X154631595Y-111376614D01*
X154563715Y-111503608D01*
X154376632Y-111316525D01*
X154203271Y-111200689D01*
X154278792Y-110958397D01*
X153430000Y-110109605D01*
X152581208Y-110958397D01*
X152656729Y-111200689D01*
X152483368Y-111316525D01*
X152276525Y-111523368D01*
X152114010Y-111766589D01*
X152002068Y-112036842D01*
X151945000Y-112323740D01*
X151945000Y-112616260D01*
X152002068Y-112903158D01*
X152114010Y-113173411D01*
X152276525Y-113416632D01*
X152483368Y-113623475D01*
X152726589Y-113785990D01*
X152996842Y-113897932D01*
X153283740Y-113955000D01*
X153576260Y-113955000D01*
X153863158Y-113897932D01*
X154133411Y-113785990D01*
X154376632Y-113623475D01*
X154563715Y-113436392D01*
X154631595Y-113563386D01*
X154742038Y-113697962D01*
X154876614Y-113808405D01*
X155030150Y-113890472D01*
X155196746Y-113941008D01*
X155370000Y-113958072D01*
X156570000Y-113958072D01*
X156743254Y-113941008D01*
X156909850Y-113890472D01*
X157063386Y-113808405D01*
X157197962Y-113697962D01*
X157308405Y-113563386D01*
X157390472Y-113409850D01*
X157441008Y-113243254D01*
X157445380Y-113198863D01*
X157522247Y-113175546D01*
X157654276Y-113104974D01*
X157770001Y-113010001D01*
X157793803Y-112980998D01*
X158040001Y-112734801D01*
X158040001Y-114835197D01*
X156885199Y-115990000D01*
X148314802Y-115990000D01*
X145837260Y-113512459D01*
X145881051Y-113292311D01*
X145881051Y-112999791D01*
X145823983Y-112712893D01*
X145712041Y-112442640D01*
X145549526Y-112199419D01*
X145342683Y-111992576D01*
X145099462Y-111830061D01*
X144829209Y-111718119D01*
X144542311Y-111661051D01*
X144355840Y-111661051D01*
X144391584Y-111594180D01*
X144427894Y-111474482D01*
X144440154Y-111350000D01*
X144427894Y-111225518D01*
X144391584Y-111105820D01*
X144332619Y-110995506D01*
X144253267Y-110898815D01*
X143352983Y-109998531D01*
X151939389Y-109998531D01*
X151981401Y-110288019D01*
X152079081Y-110563747D01*
X152152528Y-110701157D01*
X152401603Y-110778792D01*
X153250395Y-109930000D01*
X152401603Y-109081208D01*
X152152528Y-109158843D01*
X152026629Y-109422883D01*
X151954661Y-109706411D01*
X151939389Y-109998531D01*
X143352983Y-109998531D01*
X143051185Y-109696733D01*
X142954494Y-109617381D01*
X142844180Y-109558416D01*
X142724482Y-109522106D01*
X142600000Y-109509846D01*
X142475518Y-109522106D01*
X142355820Y-109558416D01*
X142245506Y-109617381D01*
X142148815Y-109696733D01*
X140946733Y-110898815D01*
X140867381Y-110995506D01*
X140808416Y-111105820D01*
X140772106Y-111225518D01*
X140759846Y-111350000D01*
X140772106Y-111474482D01*
X140808416Y-111594180D01*
X140843848Y-111660468D01*
X138097749Y-108914369D01*
X138084953Y-108897623D01*
X138051885Y-108868505D01*
X138043766Y-108860386D01*
X138027565Y-108847090D01*
X137987381Y-108811706D01*
X137977385Y-108805908D01*
X137968450Y-108798575D01*
X137921247Y-108773345D01*
X137874922Y-108746474D01*
X137863978Y-108742734D01*
X137853792Y-108737290D01*
X137802603Y-108721762D01*
X137782723Y-108714969D01*
X137771516Y-108712332D01*
X137729382Y-108699551D01*
X137708423Y-108697487D01*
X136522290Y-108418397D01*
X152581208Y-108418397D01*
X152656514Y-108660000D01*
X152581208Y-108901603D01*
X153430000Y-109750395D01*
X154278792Y-108901603D01*
X154203486Y-108660000D01*
X154278792Y-108418397D01*
X153430000Y-107569605D01*
X152581208Y-108418397D01*
X136522290Y-108418397D01*
X132442857Y-107458531D01*
X151939389Y-107458531D01*
X151981401Y-107748019D01*
X152079081Y-108023747D01*
X152152528Y-108161157D01*
X152401603Y-108238792D01*
X153250395Y-107390000D01*
X152401603Y-106541208D01*
X152152528Y-106618843D01*
X152026629Y-106882883D01*
X151954661Y-107166411D01*
X151939389Y-107458531D01*
X132442857Y-107458531D01*
X129760000Y-106827271D01*
X129760000Y-105878397D01*
X152581208Y-105878397D01*
X152656514Y-106120000D01*
X152581208Y-106361603D01*
X153430000Y-107210395D01*
X154278792Y-106361603D01*
X154203486Y-106120000D01*
X154278792Y-105878397D01*
X153430000Y-105029605D01*
X152581208Y-105878397D01*
X129760000Y-105878397D01*
X129760000Y-104918531D01*
X151939389Y-104918531D01*
X151981401Y-105208019D01*
X152079081Y-105483747D01*
X152152528Y-105621157D01*
X152401603Y-105698792D01*
X153250395Y-104850000D01*
X152401603Y-104001208D01*
X152152528Y-104078843D01*
X152026629Y-104342883D01*
X151954661Y-104626411D01*
X151939389Y-104918531D01*
X129760000Y-104918531D01*
X129760000Y-103338397D01*
X152581208Y-103338397D01*
X152656514Y-103580000D01*
X152581208Y-103821603D01*
X153430000Y-104670395D01*
X154278792Y-103821603D01*
X154203486Y-103580000D01*
X154278792Y-103338397D01*
X153430000Y-102489605D01*
X152581208Y-103338397D01*
X129760000Y-103338397D01*
X129760000Y-102378531D01*
X151939389Y-102378531D01*
X151981401Y-102668019D01*
X152079081Y-102943747D01*
X152152528Y-103081157D01*
X152401603Y-103158792D01*
X153250395Y-102310000D01*
X152401603Y-101461208D01*
X152152528Y-101538843D01*
X152026629Y-101802883D01*
X151954661Y-102086411D01*
X151939389Y-102378531D01*
X129760000Y-102378531D01*
X129760000Y-100798397D01*
X152581208Y-100798397D01*
X152656514Y-101040000D01*
X152581208Y-101281603D01*
X153430000Y-102130395D01*
X154278792Y-101281603D01*
X154203486Y-101040000D01*
X154278792Y-100798397D01*
X153430000Y-99949605D01*
X152581208Y-100798397D01*
X129760000Y-100798397D01*
X129760000Y-95372729D01*
X137708423Y-93502513D01*
X137729382Y-93500449D01*
X137771516Y-93487668D01*
X137782723Y-93485031D01*
X137802603Y-93478238D01*
X137853792Y-93462710D01*
X137863978Y-93457266D01*
X137874922Y-93453526D01*
X137921247Y-93426655D01*
X137968450Y-93401425D01*
X137977385Y-93394092D01*
X137987381Y-93388294D01*
X138027565Y-93352910D01*
X138043766Y-93339614D01*
X138051885Y-93331495D01*
X138084953Y-93302377D01*
X138097749Y-93285631D01*
X146873381Y-84510000D01*
X159440001Y-84510000D01*
X159440001Y-90385127D01*
%TA.AperFunction,Conductor*%
D15*
G36*
X159440001Y-90385127D02*
G01*
X159434974Y-90375723D01*
X159363799Y-90288997D01*
X159340001Y-90259999D01*
X159311004Y-90236202D01*
X158173804Y-89099003D01*
X158150001Y-89069999D01*
X158034276Y-88975026D01*
X157902247Y-88904454D01*
X157758986Y-88860997D01*
X157647333Y-88850000D01*
X157647322Y-88850000D01*
X157610000Y-88846324D01*
X157572678Y-88850000D01*
X157248178Y-88850000D01*
X157123475Y-88663368D01*
X156916632Y-88456525D01*
X156673411Y-88294010D01*
X156403158Y-88182068D01*
X156116260Y-88125000D01*
X155823740Y-88125000D01*
X155536842Y-88182068D01*
X155266589Y-88294010D01*
X155023368Y-88456525D01*
X154816525Y-88663368D01*
X154700000Y-88837760D01*
X154583475Y-88663368D01*
X154376632Y-88456525D01*
X154133411Y-88294010D01*
X153863158Y-88182068D01*
X153576260Y-88125000D01*
X153283740Y-88125000D01*
X152996842Y-88182068D01*
X152726589Y-88294010D01*
X152483368Y-88456525D01*
X152276525Y-88663368D01*
X152114010Y-88906589D01*
X152002068Y-89176842D01*
X151945000Y-89463740D01*
X151945000Y-89756260D01*
X152002068Y-90043158D01*
X152021471Y-90090000D01*
X148287322Y-90090000D01*
X148249999Y-90086324D01*
X148212676Y-90090000D01*
X148212667Y-90090000D01*
X148101014Y-90100997D01*
X147957753Y-90144454D01*
X147825724Y-90215026D01*
X147825722Y-90215027D01*
X147825723Y-90215027D01*
X147738996Y-90286201D01*
X147738992Y-90286205D01*
X147709999Y-90309999D01*
X147686205Y-90338992D01*
X146410198Y-91615000D01*
X146348061Y-91615000D01*
X146148102Y-91654774D01*
X145959744Y-91732795D01*
X145790226Y-91846063D01*
X145646063Y-91990226D01*
X145532795Y-92159744D01*
X145454774Y-92348102D01*
X145415000Y-92548061D01*
X145415000Y-92751939D01*
X145454774Y-92951898D01*
X145532795Y-93140256D01*
X145646063Y-93309774D01*
X145790226Y-93453937D01*
X145959744Y-93567205D01*
X146148102Y-93645226D01*
X146348061Y-93685000D01*
X146551939Y-93685000D01*
X146599697Y-93675500D01*
X143035199Y-97240000D01*
X141553711Y-97240000D01*
X141509774Y-97196063D01*
X141340256Y-97082795D01*
X141151898Y-97004774D01*
X140951939Y-96965000D01*
X140748061Y-96965000D01*
X140548102Y-97004774D01*
X140359744Y-97082795D01*
X140190226Y-97196063D01*
X140046063Y-97340226D01*
X139932795Y-97509744D01*
X139854774Y-97698102D01*
X139815000Y-97898061D01*
X139815000Y-98101939D01*
X139854774Y-98301898D01*
X139932795Y-98490256D01*
X140046063Y-98659774D01*
X140190226Y-98803937D01*
X140359744Y-98917205D01*
X140548102Y-98995226D01*
X140748061Y-99035000D01*
X140951939Y-99035000D01*
X141151898Y-98995226D01*
X141340256Y-98917205D01*
X141509774Y-98803937D01*
X141553711Y-98760000D01*
X142270556Y-98760000D01*
X142254774Y-98798102D01*
X142215000Y-98998061D01*
X142215000Y-99201939D01*
X142254774Y-99401898D01*
X142332795Y-99590256D01*
X142446063Y-99759774D01*
X142590226Y-99903937D01*
X142759744Y-100017205D01*
X142948102Y-100095226D01*
X143148061Y-100135000D01*
X143351939Y-100135000D01*
X143551898Y-100095226D01*
X143740256Y-100017205D01*
X143909774Y-99903937D01*
X143975180Y-99838531D01*
X151939389Y-99838531D01*
X151981401Y-100128019D01*
X152079081Y-100403747D01*
X152152528Y-100541157D01*
X152401603Y-100618792D01*
X153250395Y-99770000D01*
X152401603Y-98921208D01*
X152152528Y-98998843D01*
X152026629Y-99262883D01*
X151954661Y-99546411D01*
X151939389Y-99838531D01*
X143975180Y-99838531D01*
X144053937Y-99759774D01*
X144167205Y-99590256D01*
X144245226Y-99401898D01*
X144285000Y-99201939D01*
X144285000Y-99139801D01*
X146714802Y-96710000D01*
X152038039Y-96710000D01*
X152002068Y-96796842D01*
X151945000Y-97083740D01*
X151945000Y-97376260D01*
X152002068Y-97663158D01*
X152114010Y-97933411D01*
X152276525Y-98176632D01*
X152483368Y-98383475D01*
X152656729Y-98499311D01*
X152581208Y-98741603D01*
X153430000Y-99590395D01*
X154278792Y-98741603D01*
X154203271Y-98499311D01*
X154376632Y-98383475D01*
X154583475Y-98176632D01*
X154700000Y-98002240D01*
X154816525Y-98176632D01*
X155023368Y-98383475D01*
X155197760Y-98500000D01*
X155023368Y-98616525D01*
X154816525Y-98823368D01*
X154700689Y-98996729D01*
X154458397Y-98921208D01*
X153609605Y-99770000D01*
X154458397Y-100618792D01*
X154700689Y-100543271D01*
X154816525Y-100716632D01*
X155023368Y-100923475D01*
X155197760Y-101040000D01*
X155023368Y-101156525D01*
X154816525Y-101363368D01*
X154700689Y-101536729D01*
X154458397Y-101461208D01*
X153609605Y-102310000D01*
X154458397Y-103158792D01*
X154700689Y-103083271D01*
X154816525Y-103256632D01*
X155023368Y-103463475D01*
X155197760Y-103580000D01*
X155023368Y-103696525D01*
X154816525Y-103903368D01*
X154700689Y-104076729D01*
X154458397Y-104001208D01*
X153609605Y-104850000D01*
X154458397Y-105698792D01*
X154700689Y-105623271D01*
X154816525Y-105796632D01*
X155023368Y-106003475D01*
X155197760Y-106120000D01*
X155023368Y-106236525D01*
X154816525Y-106443368D01*
X154700689Y-106616729D01*
X154458397Y-106541208D01*
X153609605Y-107390000D01*
X154458397Y-108238792D01*
X154700689Y-108163271D01*
X154816525Y-108336632D01*
X155023368Y-108543475D01*
X155197760Y-108660000D01*
X155023368Y-108776525D01*
X154816525Y-108983368D01*
X154700689Y-109156729D01*
X154458397Y-109081208D01*
X153609605Y-109930000D01*
X154458397Y-110778792D01*
X154700689Y-110703271D01*
X154816525Y-110876632D01*
X155003608Y-111063715D01*
X154876614Y-111131595D01*
X154742038Y-111242038D01*
X154631595Y-111376614D01*
X154563715Y-111503608D01*
X154376632Y-111316525D01*
X154203271Y-111200689D01*
X154278792Y-110958397D01*
X153430000Y-110109605D01*
X152581208Y-110958397D01*
X152656729Y-111200689D01*
X152483368Y-111316525D01*
X152276525Y-111523368D01*
X152114010Y-111766589D01*
X152002068Y-112036842D01*
X151945000Y-112323740D01*
X151945000Y-112616260D01*
X152002068Y-112903158D01*
X152114010Y-113173411D01*
X152276525Y-113416632D01*
X152483368Y-113623475D01*
X152726589Y-113785990D01*
X152996842Y-113897932D01*
X153283740Y-113955000D01*
X153576260Y-113955000D01*
X153863158Y-113897932D01*
X154133411Y-113785990D01*
X154376632Y-113623475D01*
X154563715Y-113436392D01*
X154631595Y-113563386D01*
X154742038Y-113697962D01*
X154876614Y-113808405D01*
X155030150Y-113890472D01*
X155196746Y-113941008D01*
X155370000Y-113958072D01*
X156570000Y-113958072D01*
X156743254Y-113941008D01*
X156909850Y-113890472D01*
X157063386Y-113808405D01*
X157197962Y-113697962D01*
X157308405Y-113563386D01*
X157390472Y-113409850D01*
X157441008Y-113243254D01*
X157445380Y-113198863D01*
X157522247Y-113175546D01*
X157654276Y-113104974D01*
X157770001Y-113010001D01*
X157793803Y-112980998D01*
X158040001Y-112734801D01*
X158040001Y-114835197D01*
X156885199Y-115990000D01*
X148314802Y-115990000D01*
X145837260Y-113512459D01*
X145881051Y-113292311D01*
X145881051Y-112999791D01*
X145823983Y-112712893D01*
X145712041Y-112442640D01*
X145549526Y-112199419D01*
X145342683Y-111992576D01*
X145099462Y-111830061D01*
X144829209Y-111718119D01*
X144542311Y-111661051D01*
X144355840Y-111661051D01*
X144391584Y-111594180D01*
X144427894Y-111474482D01*
X144440154Y-111350000D01*
X144427894Y-111225518D01*
X144391584Y-111105820D01*
X144332619Y-110995506D01*
X144253267Y-110898815D01*
X143352983Y-109998531D01*
X151939389Y-109998531D01*
X151981401Y-110288019D01*
X152079081Y-110563747D01*
X152152528Y-110701157D01*
X152401603Y-110778792D01*
X153250395Y-109930000D01*
X152401603Y-109081208D01*
X152152528Y-109158843D01*
X152026629Y-109422883D01*
X151954661Y-109706411D01*
X151939389Y-109998531D01*
X143352983Y-109998531D01*
X143051185Y-109696733D01*
X142954494Y-109617381D01*
X142844180Y-109558416D01*
X142724482Y-109522106D01*
X142600000Y-109509846D01*
X142475518Y-109522106D01*
X142355820Y-109558416D01*
X142245506Y-109617381D01*
X142148815Y-109696733D01*
X140946733Y-110898815D01*
X140867381Y-110995506D01*
X140808416Y-111105820D01*
X140772106Y-111225518D01*
X140759846Y-111350000D01*
X140772106Y-111474482D01*
X140808416Y-111594180D01*
X140843848Y-111660468D01*
X138097749Y-108914369D01*
X138084953Y-108897623D01*
X138051885Y-108868505D01*
X138043766Y-108860386D01*
X138027565Y-108847090D01*
X137987381Y-108811706D01*
X137977385Y-108805908D01*
X137968450Y-108798575D01*
X137921247Y-108773345D01*
X137874922Y-108746474D01*
X137863978Y-108742734D01*
X137853792Y-108737290D01*
X137802603Y-108721762D01*
X137782723Y-108714969D01*
X137771516Y-108712332D01*
X137729382Y-108699551D01*
X137708423Y-108697487D01*
X136522290Y-108418397D01*
X152581208Y-108418397D01*
X152656514Y-108660000D01*
X152581208Y-108901603D01*
X153430000Y-109750395D01*
X154278792Y-108901603D01*
X154203486Y-108660000D01*
X154278792Y-108418397D01*
X153430000Y-107569605D01*
X152581208Y-108418397D01*
X136522290Y-108418397D01*
X132442857Y-107458531D01*
X151939389Y-107458531D01*
X151981401Y-107748019D01*
X152079081Y-108023747D01*
X152152528Y-108161157D01*
X152401603Y-108238792D01*
X153250395Y-107390000D01*
X152401603Y-106541208D01*
X152152528Y-106618843D01*
X152026629Y-106882883D01*
X151954661Y-107166411D01*
X151939389Y-107458531D01*
X132442857Y-107458531D01*
X129760000Y-106827271D01*
X129760000Y-105878397D01*
X152581208Y-105878397D01*
X152656514Y-106120000D01*
X152581208Y-106361603D01*
X153430000Y-107210395D01*
X154278792Y-106361603D01*
X154203486Y-106120000D01*
X154278792Y-105878397D01*
X153430000Y-105029605D01*
X152581208Y-105878397D01*
X129760000Y-105878397D01*
X129760000Y-104918531D01*
X151939389Y-104918531D01*
X151981401Y-105208019D01*
X152079081Y-105483747D01*
X152152528Y-105621157D01*
X152401603Y-105698792D01*
X153250395Y-104850000D01*
X152401603Y-104001208D01*
X152152528Y-104078843D01*
X152026629Y-104342883D01*
X151954661Y-104626411D01*
X151939389Y-104918531D01*
X129760000Y-104918531D01*
X129760000Y-103338397D01*
X152581208Y-103338397D01*
X152656514Y-103580000D01*
X152581208Y-103821603D01*
X153430000Y-104670395D01*
X154278792Y-103821603D01*
X154203486Y-103580000D01*
X154278792Y-103338397D01*
X153430000Y-102489605D01*
X152581208Y-103338397D01*
X129760000Y-103338397D01*
X129760000Y-102378531D01*
X151939389Y-102378531D01*
X151981401Y-102668019D01*
X152079081Y-102943747D01*
X152152528Y-103081157D01*
X152401603Y-103158792D01*
X153250395Y-102310000D01*
X152401603Y-101461208D01*
X152152528Y-101538843D01*
X152026629Y-101802883D01*
X151954661Y-102086411D01*
X151939389Y-102378531D01*
X129760000Y-102378531D01*
X129760000Y-100798397D01*
X152581208Y-100798397D01*
X152656514Y-101040000D01*
X152581208Y-101281603D01*
X153430000Y-102130395D01*
X154278792Y-101281603D01*
X154203486Y-101040000D01*
X154278792Y-100798397D01*
X153430000Y-99949605D01*
X152581208Y-100798397D01*
X129760000Y-100798397D01*
X129760000Y-95372729D01*
X137708423Y-93502513D01*
X137729382Y-93500449D01*
X137771516Y-93487668D01*
X137782723Y-93485031D01*
X137802603Y-93478238D01*
X137853792Y-93462710D01*
X137863978Y-93457266D01*
X137874922Y-93453526D01*
X137921247Y-93426655D01*
X137968450Y-93401425D01*
X137977385Y-93394092D01*
X137987381Y-93388294D01*
X138027565Y-93352910D01*
X138043766Y-93339614D01*
X138051885Y-93331495D01*
X138084953Y-93302377D01*
X138097749Y-93285631D01*
X146873381Y-84510000D01*
X159440001Y-84510000D01*
X159440001Y-90385127D01*
G37*
%TD.AperFunction*%
%TD*%
M02*
