%TF.GenerationSoftware,KiCad,Pcbnew,(5.1.10)-1*%
%TF.CreationDate,2021-06-11T22:20:09-04:00*%
%TF.ProjectId,Adapter,41646170-7465-4722-9e6b-696361645f70,rev?*%
%TF.SameCoordinates,Original*%
%TF.FileFunction,Copper,L1,Top*%
%TF.FilePolarity,Positive*%
%FSLAX46Y46*%
G04 Gerber Fmt 4.6, Leading zero omitted, Abs format (unit mm)*
G04 Created by KiCad (PCBNEW (5.1.10)-1) date 2021-06-11 22:20:09*
%MOMM*%
%LPD*%
G01*
G04 APERTURE LIST*
%TA.AperFunction,SMDPad,CuDef*%
%ADD10R,1.300000X0.300000*%
%TD*%
%TA.AperFunction,SMDPad,CuDef*%
%ADD11R,1.600000X2.000000*%
%TD*%
%TA.AperFunction,ComponentPad*%
%ADD12C,1.700000*%
%TD*%
%TA.AperFunction,ComponentPad*%
%ADD13C,0.100000*%
%TD*%
%TA.AperFunction,ViaPad*%
%ADD14C,0.800000*%
%TD*%
%TA.AperFunction,Conductor*%
%ADD15C,0.250000*%
%TD*%
G04 APERTURE END LIST*
D10*
%TO.P,J1,1*%
%TO.N,VDD*%
X134600000Y-97850000D03*
%TO.P,J1,2*%
X134600000Y-98350000D03*
%TO.P,J1,3*%
%TO.N,TXO*%
X134600000Y-98850000D03*
%TO.P,J1,4*%
%TO.N,SWO*%
X134600000Y-99350000D03*
%TO.P,J1,5*%
%TO.N,RXI*%
X134600000Y-99850000D03*
%TO.P,J1,6*%
%TO.N,RESET*%
X134600000Y-100350000D03*
%TO.P,J1,7*%
%TO.N,GND*%
X134600000Y-100850000D03*
%TO.P,J1,8*%
X134600000Y-101350000D03*
%TO.P,J1,9*%
%TO.N,SWDCLK*%
X134600000Y-101850000D03*
%TO.P,J1,10*%
%TO.N,SWDIO*%
X134600000Y-102350000D03*
%TO.P,J1,11*%
%TO.N,GND*%
X134600000Y-102850000D03*
%TO.P,J1,12*%
X134600000Y-103350000D03*
%TO.P,J1,13*%
%TO.N,+BATT*%
X134600000Y-103850000D03*
%TO.P,J1,14*%
X134600000Y-104350000D03*
D11*
%TO.P,J1,15*%
%TO.N,N/C*%
X131900000Y-96150000D03*
%TO.P,J1,16*%
X131900000Y-106050000D03*
%TD*%
D12*
%TO.P,J2,20*%
%TO.N,N/C*%
X153430000Y-89610000D03*
%TO.P,J2,18*%
X153430000Y-92150000D03*
%TO.P,J2,16*%
X153430000Y-94690000D03*
%TO.P,J2,14*%
X153430000Y-97230000D03*
%TO.P,J2,12*%
%TO.N,GND*%
X153430000Y-99770000D03*
%TO.P,J2,10*%
X153430000Y-102310000D03*
%TO.P,J2,8*%
X153430000Y-104850000D03*
%TO.P,J2,6*%
X153430000Y-107390000D03*
%TO.P,J2,4*%
X153430000Y-109930000D03*
%TO.P,J2,2*%
%TO.N,N/C*%
X153430000Y-112470000D03*
%TO.P,J2,19*%
%TO.N,+5V*%
X155970000Y-89610000D03*
%TO.P,J2,17*%
%TO.N,TXO*%
X155970000Y-92150000D03*
%TO.P,J2,15*%
%TO.N,RESET*%
X155970000Y-94690000D03*
%TO.P,J2,13*%
%TO.N,SWO*%
X155970000Y-97230000D03*
%TO.P,J2,11*%
%TO.N,N/C*%
X155970000Y-99770000D03*
%TO.P,J2,9*%
%TO.N,SWDCLK*%
X155970000Y-102310000D03*
%TO.P,J2,7*%
%TO.N,SWDIO*%
X155970000Y-104850000D03*
%TO.P,J2,5*%
%TO.N,RXI*%
X155970000Y-107390000D03*
%TO.P,J2,3*%
%TO.N,N/C*%
X155970000Y-109930000D03*
%TO.P,J2,1*%
%TO.N,VDD*%
%TA.AperFunction,ComponentPad*%
G36*
G01*
X156820000Y-111870000D02*
X156820000Y-113070000D01*
G75*
G02*
X156570000Y-113320000I-250000J0D01*
G01*
X155370000Y-113320000D01*
G75*
G02*
X155120000Y-113070000I0J250000D01*
G01*
X155120000Y-111870000D01*
G75*
G02*
X155370000Y-111620000I250000J0D01*
G01*
X156570000Y-111620000D01*
G75*
G02*
X156820000Y-111870000I0J-250000D01*
G01*
G37*
%TD.AperFunction*%
%TD*%
%TO.P,R2,2*%
%TO.N,TXO*%
%TA.AperFunction,SMDPad,CuDef*%
G36*
G01*
X141725000Y-97655000D02*
X142275000Y-97655000D01*
G75*
G02*
X142475000Y-97855000I0J-200000D01*
G01*
X142475000Y-98255000D01*
G75*
G02*
X142275000Y-98455000I-200000J0D01*
G01*
X141725000Y-98455000D01*
G75*
G02*
X141525000Y-98255000I0J200000D01*
G01*
X141525000Y-97855000D01*
G75*
G02*
X141725000Y-97655000I200000J0D01*
G01*
G37*
%TD.AperFunction*%
%TO.P,R2,1*%
%TO.N,Net-(D2-Pad1)*%
%TA.AperFunction,SMDPad,CuDef*%
G36*
G01*
X141725000Y-96005000D02*
X142275000Y-96005000D01*
G75*
G02*
X142475000Y-96205000I0J-200000D01*
G01*
X142475000Y-96605000D01*
G75*
G02*
X142275000Y-96805000I-200000J0D01*
G01*
X141725000Y-96805000D01*
G75*
G02*
X141525000Y-96605000I0J200000D01*
G01*
X141525000Y-96205000D01*
G75*
G02*
X141725000Y-96005000I200000J0D01*
G01*
G37*
%TD.AperFunction*%
%TD*%
%TO.P,R1,2*%
%TO.N,RXI*%
%TA.AperFunction,SMDPad,CuDef*%
G36*
G01*
X144265000Y-97655000D02*
X144815000Y-97655000D01*
G75*
G02*
X145015000Y-97855000I0J-200000D01*
G01*
X145015000Y-98255000D01*
G75*
G02*
X144815000Y-98455000I-200000J0D01*
G01*
X144265000Y-98455000D01*
G75*
G02*
X144065000Y-98255000I0J200000D01*
G01*
X144065000Y-97855000D01*
G75*
G02*
X144265000Y-97655000I200000J0D01*
G01*
G37*
%TD.AperFunction*%
%TO.P,R1,1*%
%TO.N,Net-(D1-Pad1)*%
%TA.AperFunction,SMDPad,CuDef*%
G36*
G01*
X144265000Y-96005000D02*
X144815000Y-96005000D01*
G75*
G02*
X145015000Y-96205000I0J-200000D01*
G01*
X145015000Y-96605000D01*
G75*
G02*
X144815000Y-96805000I-200000J0D01*
G01*
X144265000Y-96805000D01*
G75*
G02*
X144065000Y-96605000I0J200000D01*
G01*
X144065000Y-96205000D01*
G75*
G02*
X144265000Y-96005000I200000J0D01*
G01*
G37*
%TD.AperFunction*%
%TD*%
%TO.P,JP1,2*%
%TO.N,+5V*%
%TA.AperFunction,ComponentPad*%
G36*
G01*
X143795010Y-113747092D02*
X143795010Y-113747092D01*
G75*
G02*
X143795010Y-112545010I601041J601041D01*
G01*
X143795010Y-112545010D01*
G75*
G02*
X144997092Y-112545010I601041J-601041D01*
G01*
X144997092Y-112545010D01*
G75*
G02*
X144997092Y-113747092I-601041J-601041D01*
G01*
X144997092Y-113747092D01*
G75*
G02*
X143795010Y-113747092I-601041J601041D01*
G01*
G37*
%TD.AperFunction*%
%TA.AperFunction,ComponentPad*%
D13*
%TO.P,JP1,1*%
%TO.N,+BATT*%
G36*
X142600000Y-112552082D02*
G01*
X141397918Y-111350000D01*
X142600000Y-110147918D01*
X143802082Y-111350000D01*
X142600000Y-112552082D01*
G37*
%TD.AperFunction*%
%TD*%
%TO.P,D2,2*%
%TO.N,VDD*%
%TA.AperFunction,SMDPad,CuDef*%
G36*
G01*
X142256250Y-93070000D02*
X141743750Y-93070000D01*
G75*
G02*
X141525000Y-92851250I0J218750D01*
G01*
X141525000Y-92413750D01*
G75*
G02*
X141743750Y-92195000I218750J0D01*
G01*
X142256250Y-92195000D01*
G75*
G02*
X142475000Y-92413750I0J-218750D01*
G01*
X142475000Y-92851250D01*
G75*
G02*
X142256250Y-93070000I-218750J0D01*
G01*
G37*
%TD.AperFunction*%
%TO.P,D2,1*%
%TO.N,Net-(D2-Pad1)*%
%TA.AperFunction,SMDPad,CuDef*%
G36*
G01*
X142256250Y-94645000D02*
X141743750Y-94645000D01*
G75*
G02*
X141525000Y-94426250I0J218750D01*
G01*
X141525000Y-93988750D01*
G75*
G02*
X141743750Y-93770000I218750J0D01*
G01*
X142256250Y-93770000D01*
G75*
G02*
X142475000Y-93988750I0J-218750D01*
G01*
X142475000Y-94426250D01*
G75*
G02*
X142256250Y-94645000I-218750J0D01*
G01*
G37*
%TD.AperFunction*%
%TD*%
%TO.P,D1,2*%
%TO.N,VDD*%
%TA.AperFunction,SMDPad,CuDef*%
G36*
G01*
X144796250Y-93070000D02*
X144283750Y-93070000D01*
G75*
G02*
X144065000Y-92851250I0J218750D01*
G01*
X144065000Y-92413750D01*
G75*
G02*
X144283750Y-92195000I218750J0D01*
G01*
X144796250Y-92195000D01*
G75*
G02*
X145015000Y-92413750I0J-218750D01*
G01*
X145015000Y-92851250D01*
G75*
G02*
X144796250Y-93070000I-218750J0D01*
G01*
G37*
%TD.AperFunction*%
%TO.P,D1,1*%
%TO.N,Net-(D1-Pad1)*%
%TA.AperFunction,SMDPad,CuDef*%
G36*
G01*
X144796250Y-94645000D02*
X144283750Y-94645000D01*
G75*
G02*
X144065000Y-94426250I0J218750D01*
G01*
X144065000Y-93988750D01*
G75*
G02*
X144283750Y-93770000I218750J0D01*
G01*
X144796250Y-93770000D01*
G75*
G02*
X145015000Y-93988750I0J-218750D01*
G01*
X145015000Y-94426250D01*
G75*
G02*
X144796250Y-94645000I-218750J0D01*
G01*
G37*
%TD.AperFunction*%
%TD*%
D14*
%TO.N,VDD*%
X146450000Y-92650000D03*
%TO.N,TXO*%
X140850000Y-98000000D03*
%TO.N,SWO*%
X143250000Y-99100000D03*
%TO.N,GND*%
X137950000Y-104600000D03*
X138750000Y-101900000D03*
%TD*%
D15*
%TO.N,VDD*%
X134600000Y-97850000D02*
X136200000Y-97850000D01*
X141417500Y-92632500D02*
X142000000Y-92632500D01*
X136200000Y-97850000D02*
X141417500Y-92632500D01*
X142000000Y-92632500D02*
X144540000Y-92632500D01*
X135700000Y-98350000D02*
X136200000Y-97850000D01*
X134600000Y-98350000D02*
X135700000Y-98350000D01*
X146432500Y-92632500D02*
X146450000Y-92650000D01*
X144540000Y-92632500D02*
X146432500Y-92632500D01*
%TO.N,Net-(D1-Pad1)*%
X144540000Y-94207500D02*
X144540000Y-96405000D01*
%TO.N,Net-(D2-Pad1)*%
X142000000Y-94207500D02*
X142000000Y-96405000D01*
%TO.N,TXO*%
X141205000Y-98850000D02*
X142000000Y-98055000D01*
X134600000Y-98850000D02*
X141205000Y-98850000D01*
X140905000Y-98055000D02*
X142000000Y-98055000D01*
X140850000Y-98000000D02*
X140905000Y-98055000D01*
%TO.N,SWO*%
X143150000Y-99350000D02*
X134600000Y-99350000D01*
X143300000Y-99350000D02*
X143150000Y-99350000D01*
X143250000Y-98950000D02*
X143300000Y-99350000D01*
%TO.N,RXI*%
X134600000Y-99850000D02*
X144100000Y-99850000D01*
X144540000Y-99410000D02*
X144100000Y-99850000D01*
X144540000Y-98055000D02*
X144540000Y-99410000D01*
X144540000Y-98055000D02*
X145795000Y-98055000D01*
X145795000Y-98055000D02*
X150400000Y-93450000D01*
X150400000Y-93450000D02*
X156850000Y-93450000D01*
X156850000Y-93450000D02*
X157900000Y-94500000D01*
X157900000Y-105460000D02*
X155970000Y-107390000D01*
X157900000Y-94500000D02*
X157900000Y-105460000D01*
%TO.N,RESET*%
X134600000Y-100350000D02*
X144700000Y-100350000D01*
X144700000Y-100350000D02*
X149100000Y-95950000D01*
X154710000Y-95950000D02*
X155970000Y-94690000D01*
X149100000Y-95950000D02*
X154710000Y-95950000D01*
%TO.N,GND*%
X134600000Y-103350000D02*
X136700000Y-103350000D01*
X136700000Y-103350000D02*
X137950000Y-104600000D01*
X136200000Y-102850000D02*
X136700000Y-103350000D01*
X134600000Y-102850000D02*
X136200000Y-102850000D01*
X138200000Y-101350000D02*
X138750000Y-101900000D01*
X134600000Y-101350000D02*
X138200000Y-101350000D01*
X137700000Y-100850000D02*
X138200000Y-101350000D01*
X134600000Y-100850000D02*
X137700000Y-100850000D01*
%TO.N,SWDCLK*%
X134600000Y-101850000D02*
X137350000Y-101850000D01*
X137350000Y-101850000D02*
X139050000Y-103550000D01*
X154730000Y-103550000D02*
X155970000Y-102310000D01*
X139050000Y-103550000D02*
X154730000Y-103550000D01*
%TO.N,SWDIO*%
X134600000Y-102350000D02*
X136900000Y-102350000D01*
X136900000Y-102350000D02*
X140650000Y-106100000D01*
X154720000Y-106100000D02*
X155970000Y-104850000D01*
X140650000Y-106100000D02*
X154720000Y-106100000D01*
%TO.N,+BATT*%
X134600000Y-104350000D02*
X136550000Y-104350000D01*
X142600000Y-110400000D02*
X142600000Y-111350000D01*
X136550000Y-104350000D02*
X142600000Y-110400000D01*
X136050000Y-103850000D02*
X136550000Y-104350000D01*
X134600000Y-103850000D02*
X136050000Y-103850000D01*
%TD*%
M02*
