%TF.GenerationSoftware,KiCad,Pcbnew,(5.1.10)-1*%
%TF.CreationDate,2021-06-11T22:20:09-04:00*%
%TF.ProjectId,Adapter,41646170-7465-4722-9e6b-696361645f70,rev?*%
%TF.SameCoordinates,Original*%
%TF.FileFunction,Legend,Top*%
%TF.FilePolarity,Positive*%
%FSLAX46Y46*%
G04 Gerber Fmt 4.6, Leading zero omitted, Abs format (unit mm)*
G04 Created by KiCad (PCBNEW (5.1.10)-1) date 2021-06-11 22:20:09*
%MOMM*%
%LPD*%
G01*
G04 APERTURE LIST*
%ADD10C,0.150000*%
%ADD11C,0.120000*%
G04 APERTURE END LIST*
D10*
%TO.C,J1*%
X134100000Y-106850000D02*
X133100000Y-106850000D01*
X134100000Y-105850000D02*
X134100000Y-106850000D01*
X134100000Y-104850000D02*
X134100000Y-105850000D01*
X134100000Y-95350000D02*
X133100000Y-95350000D01*
X134100000Y-97350000D02*
X134100000Y-95350000D01*
X129100000Y-106850000D02*
X130600000Y-106850000D01*
X129100000Y-95350000D02*
X129100000Y-106850000D01*
X130600000Y-95350000D02*
X129100000Y-95350000D01*
D11*
%TO.C,J2*%
X159260000Y-117680000D02*
X150140000Y-117680000D01*
X150140000Y-117680000D02*
X150140000Y-84400000D01*
X150140000Y-84400000D02*
X159260000Y-84400000D01*
X159260000Y-84400000D02*
X159260000Y-117680000D01*
X159260000Y-103090000D02*
X157950000Y-103090000D01*
X157950000Y-103090000D02*
X157950000Y-116380000D01*
X157950000Y-116380000D02*
X151450000Y-116380000D01*
X151450000Y-116380000D02*
X151450000Y-85700000D01*
X151450000Y-85700000D02*
X157950000Y-85700000D01*
X157950000Y-85700000D02*
X157950000Y-98990000D01*
X157950000Y-98990000D02*
X157950000Y-98990000D01*
X157950000Y-98990000D02*
X159260000Y-98990000D01*
X159650000Y-112470000D02*
X160650000Y-112970000D01*
X160650000Y-112970000D02*
X160650000Y-111970000D01*
X160650000Y-111970000D02*
X159650000Y-112470000D01*
%TO.C,R2*%
X142522500Y-96992742D02*
X142522500Y-97467258D01*
X141477500Y-96992742D02*
X141477500Y-97467258D01*
%TO.C,R1*%
X145062500Y-96992742D02*
X145062500Y-97467258D01*
X144017500Y-96992742D02*
X144017500Y-97467258D01*
%TO.C,JP1*%
X144396051Y-115026955D02*
X146276955Y-113146051D01*
X142557574Y-113188478D02*
X144396051Y-115026955D01*
X144438478Y-111307574D02*
X146276955Y-113146051D01*
X142557574Y-113188478D02*
X144438478Y-111307574D01*
X141659548Y-112290452D02*
X140719096Y-111350000D01*
X140719096Y-111350000D02*
X141659548Y-110409548D01*
%TO.C,D2*%
X141265000Y-92620000D02*
X141265000Y-94905000D01*
X141265000Y-94905000D02*
X142735000Y-94905000D01*
X142735000Y-94905000D02*
X142735000Y-92620000D01*
%TO.C,D1*%
X143805000Y-92620000D02*
X143805000Y-94905000D01*
X143805000Y-94905000D02*
X145275000Y-94905000D01*
X145275000Y-94905000D02*
X145275000Y-92620000D01*
%TO.C,J1*%
D10*
X133616666Y-99783333D02*
X134116666Y-99783333D01*
X134216666Y-99816666D01*
X134283333Y-99883333D01*
X134316666Y-99983333D01*
X134316666Y-100050000D01*
X134316666Y-99083333D02*
X134316666Y-99483333D01*
X134316666Y-99283333D02*
X133616666Y-99283333D01*
X133716666Y-99350000D01*
X133783333Y-99416666D01*
X133816666Y-99483333D01*
%TO.C,J2*%
X148666666Y-116652380D02*
X148666666Y-117366666D01*
X148619047Y-117509523D01*
X148523809Y-117604761D01*
X148380952Y-117652380D01*
X148285714Y-117652380D01*
X149095238Y-116747619D02*
X149142857Y-116700000D01*
X149238095Y-116652380D01*
X149476190Y-116652380D01*
X149571428Y-116700000D01*
X149619047Y-116747619D01*
X149666666Y-116842857D01*
X149666666Y-116938095D01*
X149619047Y-117080952D01*
X149047619Y-117652380D01*
X149666666Y-117652380D01*
%TO.C,R2*%
X143752380Y-97396666D02*
X143276190Y-97730000D01*
X143752380Y-97968095D02*
X142752380Y-97968095D01*
X142752380Y-97587142D01*
X142800000Y-97491904D01*
X142847619Y-97444285D01*
X142942857Y-97396666D01*
X143085714Y-97396666D01*
X143180952Y-97444285D01*
X143228571Y-97491904D01*
X143276190Y-97587142D01*
X143276190Y-97968095D01*
X142847619Y-97015714D02*
X142800000Y-96968095D01*
X142752380Y-96872857D01*
X142752380Y-96634761D01*
X142800000Y-96539523D01*
X142847619Y-96491904D01*
X142942857Y-96444285D01*
X143038095Y-96444285D01*
X143180952Y-96491904D01*
X143752380Y-97063333D01*
X143752380Y-96444285D01*
%TO.C,R1*%
X146352380Y-97366666D02*
X145876190Y-97700000D01*
X146352380Y-97938095D02*
X145352380Y-97938095D01*
X145352380Y-97557142D01*
X145400000Y-97461904D01*
X145447619Y-97414285D01*
X145542857Y-97366666D01*
X145685714Y-97366666D01*
X145780952Y-97414285D01*
X145828571Y-97461904D01*
X145876190Y-97557142D01*
X145876190Y-97938095D01*
X146352380Y-96414285D02*
X146352380Y-96985714D01*
X146352380Y-96700000D02*
X145352380Y-96700000D01*
X145495238Y-96795238D01*
X145590476Y-96890476D01*
X145638095Y-96985714D01*
%TO.C,JP1*%
X139975960Y-109904471D02*
X140481036Y-110409547D01*
X140548379Y-110544234D01*
X140548379Y-110678921D01*
X140481036Y-110813608D01*
X140413692Y-110880952D01*
X141019784Y-110274860D02*
X140312677Y-109567753D01*
X140582051Y-109298379D01*
X140683066Y-109264708D01*
X140750410Y-109264708D01*
X140851425Y-109298379D01*
X140952441Y-109399395D01*
X140986112Y-109500410D01*
X140986112Y-109567753D01*
X140952441Y-109668769D01*
X140683066Y-109938143D01*
X142097280Y-109197364D02*
X141693219Y-109601425D01*
X141895250Y-109399395D02*
X141188143Y-108692288D01*
X141221815Y-108860647D01*
X141221815Y-108995334D01*
X141188143Y-109096349D01*
%TO.C,D2*%
X141002380Y-94788095D02*
X140002380Y-94788095D01*
X140002380Y-94550000D01*
X140050000Y-94407142D01*
X140145238Y-94311904D01*
X140240476Y-94264285D01*
X140430952Y-94216666D01*
X140573809Y-94216666D01*
X140764285Y-94264285D01*
X140859523Y-94311904D01*
X140954761Y-94407142D01*
X141002380Y-94550000D01*
X141002380Y-94788095D01*
X140097619Y-93835714D02*
X140050000Y-93788095D01*
X140002380Y-93692857D01*
X140002380Y-93454761D01*
X140050000Y-93359523D01*
X140097619Y-93311904D01*
X140192857Y-93264285D01*
X140288095Y-93264285D01*
X140430952Y-93311904D01*
X141002380Y-93883333D01*
X141002380Y-93264285D01*
%TO.C,D1*%
X146652380Y-94838095D02*
X145652380Y-94838095D01*
X145652380Y-94600000D01*
X145700000Y-94457142D01*
X145795238Y-94361904D01*
X145890476Y-94314285D01*
X146080952Y-94266666D01*
X146223809Y-94266666D01*
X146414285Y-94314285D01*
X146509523Y-94361904D01*
X146604761Y-94457142D01*
X146652380Y-94600000D01*
X146652380Y-94838095D01*
X146652380Y-93314285D02*
X146652380Y-93885714D01*
X146652380Y-93600000D02*
X145652380Y-93600000D01*
X145795238Y-93695238D01*
X145890476Y-93790476D01*
X145938095Y-93885714D01*
%TD*%
M02*
