0
SECTION
2
HEADER
9
$INSUNITS
70
4
9
$ACADVER
1
AC1014
9
$HANDSEED
5
FFFF
0
ENDSEC
0
SECTION
2
TABLES
0
TABLE
2
VPORT
5
8
100
AcDbSymbolTable
0
ENDTAB
0
TABLE
2
LTYPE
5
5
100
AcDbSymbolTable
0
LTYPE
5
14
100
AcDbSymbolTableRecord
100
AcDbLinetypeTableRecord
2
BYBLOCK
70
0
0
LTYPE
5
15
100
AcDbSymbolTableRecord
100
AcDbLinetypeTableRecord
2
BYLAYER
70
0
0
LTYPE
5
16
100
AcDbSymbolTableRecord
100
AcDbLinetypeTableRecord
2
DASHED
70
0
3
Dashed __ __ __ __ __ __ __ __ __ __ __ __ __ _
72
65
73
2
40
0.75
49
0.5
74
0
49
-0.25
74
0
0
ENDTAB
0
TABLE
2
LAYER
5
2
100
AcDbSymbolTable
70
2
0
LAYER
5
50
100
AcDbSymbolTableRecord
100
AcDbLayerTableRecord
2
0
70
0
62
7
6
CONTINUOUS
0
ENDTAB
0
TABLE
2
STYLE
5
3
100
AcDbSymbolTable
70
1
0
STYLE
5
11
100
AcDbSymbolTableRecord
100
AcDbTextStyleTableRecord
2
STANDARD
70
0
0
ENDTAB
0
TABLE
2
VIEW
5
6
100
AcDbSymbolTable
70
0
0
ENDTAB
0
TABLE
2
UCS
5
7
100
AcDbSymbolTable
70
0
0
ENDTAB
0
TABLE
2
APPID
5
9
100
AcDbSymbolTable
70
2
0
APPID
5
12
100
AcDbSymbolTableRecord
100
AcDbRegAppTableRecord
2
ACAD
70
0
0
ENDTAB
0
TABLE
2
DIMSTYLE
5
A
100
AcDbSymbolTable
70
1
0
ENDTAB
0
TABLE
2
BLOCK_RECORD
5
1
100
AcDbSymbolTable
70
1
0
BLOCK_RECORD
5
1F
100
AcDbSymbolTableRecord
100
AcDbBlockTableRecord
2
*MODEL_SPACE
0
BLOCK_RECORD
5
1B
100
AcDbSymbolTableRecord
100
AcDbBlockTableRecord
2
*PAPER_SPACE
0
ENDTAB
0
ENDSEC
0
SECTION
2
BLOCKS
0
BLOCK
5
20
100
AcDbEntity
100
AcDbBlockBegin
2
*MODEL_SPACE
0
ENDBLK
5
21
100
AcDbEntity
100
AcDbBlockEnd
0
BLOCK
5
1C
100
AcDbEntity
100
AcDbBlockBegin
2
*PAPER_SPACE
0
ENDBLK
5
1D
100
AcDbEntity
100
AcDbBlockEnd
0
ENDSEC
0
SECTION
2
ENTITIES
0
SPLINE
5
100
100
AcDbEntity
8
0
100
AcDbSpline
70
0
71
3
72
32
73
28
74
0
42
0.000000001
43
0.0000000001
44
0.0000000001
40
0
40
0
40
0
40
0
40
0.08995881
40
0.08995881
40
0.08995881
40
0.18816002900000001
40
0.18816002900000001
40
0.18816002900000001
40
0.29431574100000002
40
0.29431574100000002
40
0.29431574100000002
40
0.40201348399999998
40
0.40201348399999998
40
0.40201348399999998
40
0.513846531
40
0.513846531
40
0.513846531
40
0.63363506199999997
40
0.63363506199999997
40
0.63363506199999997
40
0.756578839
40
0.756578839
40
0.756578839
40
0.87714859700000003
40
0.87714859700000003
40
0.87714859700000003
40
1
40
1
40
1
40
1
10
-23.535466573130002
20
45.795344833409999
30
1.7097434579227411e-13
10
-23.514095412240003
20
45.807683478900003
30
2.3536728122053319e-13
10
-23.498430877071968
20
45.816650762426136
30
1.9428902930940239e-13
10
-23.485206925184052
20
45.823860469749377
30
1.2656542480726785e-13
10
-23.470771338548456
20
45.831730761139156
30
5.3290705182007514e-14
10
-23.459244057152357
20
45.837506648243902
30
-1.1102230246251565e-14
10
-23.446422835526846
20
45.843367483135978
30
-3.219646771412954e-14
10
-23.432563069586813
20
45.849703057248178
30
-5.8841820305133297e-14
10
-23.417191250024349
20
45.856137898394977
30
-5.6621374255882984e-14
10
-23.400597935980638
20
45.862446994139304
30
-4.8849813083506888e-14
10
-23.383763585405152
20
45.868847736588606
30
-4.1078251911130792e-14
10
-23.365671995443225
20
45.875119053915611
30
-1.8873791418627661e-14
10
-23.346987248226068
20
45.881043314087677
30
4.3298697960381105e-14
10
-23.327585056912554
20
45.887195049934768
30
1.0880185641326534e-13
10
-23.30754328253008
20
45.892972564817143
30
2.120525977034049e-13
10
-23.287480067775821
20
45.898219712312567
30
2.7533531010703882e-13
10
-23.265989613147049
20
45.90384012691522
30
3.4305891460917337e-13
10
-23.244474559233822
20
45.908852032563551
30
3.6082248300317588e-13
10
-23.223394807317455
20
45.913071580406744
30
3.6415315207705135e-13
10
-23.201759811903571
20
45.917402271707019
30
3.6859404417555197e-13
10
-23.180583352326384
20
45.920898313840098
30
3.6082248300317588e-13
10
-23.162030081410727
20
45.923389161037306
30
3.5416114485542494e-13
10
-23.143835070333356
20
45.925831910488412
30
3.4861002973229915e-13
10
-23.128162919555937
20
45.927307910412587
30
3.3306690738754696e-13
10
-23.109358029273174
20
45.928125360432581
30
2.8532731732866523e-13
10
-23.090197277913788
20
45.928958279760806
30
2.3425705819590803e-13
10
-23.067784098140002
20
45.929107488740001
30
1.4654943925052066e-13
10
-23.03613544748
20
45.929107488740001
30
9.2148511043887993e-14
0
LINE
5
101
100
AcDbEntity
8
0
100
AcDbLine
10
-23.535466573130002
20
45.795344833409999
30
1.7097434579227411e-13
11
-27.892198714230005
21
43.279984358950017
31
0
0
SPLINE
5
102
100
AcDbEntity
8
0
100
AcDbSpline
70
0
71
3
72
32
73
28
74
0
42
0.000000001
43
0.0000000001
44
0.0000000001
40
0
40
0
40
0
40
0
40
0.087141932000000005
40
0.087141932000000005
40
0.087141932000000005
40
0.18458940600000001
40
0.18458940600000001
40
0.18458940600000001
40
0.29072869699999998
40
0.29072869699999998
40
0.29072869699999998
40
0.39888233899999997
40
0.39888233899999997
40
0.39888233899999997
40
0.51318110100000003
40
0.51318110100000003
40
0.51318110100000003
40
0.636818777
40
0.636818777
40
0.636818777
40
0.76113376399999999
40
0.76113376399999999
40
0.76113376399999999
40
0.88052096899999999
40
0.88052096899999999
40
0.88052096899999999
40
1
40
1
40
1
40
1
10
-28.257706134660001
20
42.914432246910003
30
4.3298697960381105e-14
10
-28.245730284490005
20
42.935175027859998
30
2.4202861936828413e-13
10
-28.236844843638377
20
42.950445418865534
30
3.7858605139717838e-13
10
-28.22917668558113
20
42.963049719082534
30
3.4638958368304884e-13
10
-28.220601679085853
20
42.977144623676637
30
3.141931159689193e-13
10
-28.213548895615812
20
42.987905557886506
30
1.6209256159527285e-13
10
-28.205484209568851
20
42.999305985201858
30
8.3266726846886741e-14
10
-28.196700194714211
20
43.011723272409832
30
0
10
-28.186715713776266
20
43.024899219395039
30
-4.4408920985006262e-15
10
-28.175584370094153
20
43.038614503965192
30
-2.6645352591003757e-14
10
-28.16424177162537
20
43.05259008231468
30
-4.9960036108132044e-14
10
-28.151708366160271
20
43.067125664006156
30
-9.6589403142388619e-14
10
-28.138474064406974
20
43.081664081425508
30
-1.099120794378905e-13
10
-28.124487810422693
20
43.097028548878875
30
-1.2212453270876722e-13
10
-28.109718749771421
20
43.112396183458024
30
-9.2148511043887993e-14
10
-28.094647133467738
20
43.127301076695773
30
-5.9952043329758453e-14
10
-28.078344073130562
20
43.143423791663977
30
-2.55351295663786e-14
10
-28.06168699598355
20
43.15900505843193
30
-4.4408920985006262e-15
10
-28.045038871042635
20
43.173597732334613
30
-2.7755575615628914e-14
10
-28.028299544467092
20
43.188270347715289
30
-4.9960036108132044e-14
10
-28.011569268450138
20
43.201943509158163
30
-1.1102230246251565e-13
10
-27.996646129645889
20
43.213388855634783
30
-1.4210854715202004e-13
10
-27.982314536370918
20
43.224380514477154
30
-1.7319479184152442e-13
10
-27.969649651867957
20
43.233317476686381
30
-1.7208456881689926e-13
10
-27.953840718937446
20
43.243338568479828
30
-1.27675647831893e-13
10
-27.9380196266547
20
43.253367367939902
30
-8.5487172896137054e-14
10
-27.919049647630004
20
43.264481965329999
30
1.3322676295501878e-14
10
-27.892198714230002
20
43.279984358950003
30
1.3100631690576847e-13
0
LINE
5
103
100
AcDbEntity
8
0
100
AcDbLine
10
-28.257706134660001
20
42.914432246910003
30
4.3298697960381105e-14
11
-51.293841582140011
21
3.0146752418310108
31
0
0
SPLINE
5
104
100
AcDbEntity
8
0
100
AcDbSpline
70
0
71
3
72
32
73
28
74
0
42
0.000000001
43
0.0000000001
44
0.0000000001
40
0
40
0
40
0
40
0
40
0.08995881
40
0.08995881
40
0.08995881
40
0.18816002900000001
40
0.18816002900000001
40
0.18816002900000001
40
0.29431574100000002
40
0.29431574100000002
40
0.29431574100000002
40
0.40201348399999998
40
0.40201348399999998
40
0.40201348399999998
40
0.513846531
40
0.513846531
40
0.513846531
40
0.63363506199999997
40
0.63363506199999997
40
0.63363506199999997
40
0.756578839
40
0.756578839
40
0.756578839
40
0.87714859700000003
40
0.87714859700000003
40
0.87714859700000003
40
1
40
1
40
1
40
1
10
-51.427665287360007
20
2.5153604744539999
30
-5.773159728050814e-14
10
-51.427665287360007
20
2.5400377654419999
30
3.3306690738754696e-14
10
-51.427598915113826
20
2.5580872925973219
30
1.4210854715202004e-13
10
-51.427230728865595
20
2.5731444245305868
30
1.5543122344752192e-13
10
-51.426828807826439
20
2.5895811549685552
30
1.6764367671839864e-13
10
-51.426067232088869
20
2.6024520170446683
30
9.3258734068513149e-14
10
-51.424732253180053
20
2.6164859381262979
30
3.8857805861880479e-14
10
-51.423289138338774
20
2.631656634577348
30
-2.1094237467877974e-14
10
-51.421175964461895
20
2.6481864413971836
30
-3.6637359812630166e-14
10
-51.418343144631649
20
2.6657112207658411
30
7.7715611723760958e-15
10
-51.415469174910264
20
2.6834905672467664
30
5.440092820663267e-14
10
-51.411854500051966
20
2.7022940024125215
30
1.5543122344752192e-13
10
-51.407642686251307
20
2.7214375982517773
30
2.2093438190040615e-13
10
-51.403269150115804
20
2.7413162567417748
30
2.8976820942716586e-13
10
-51.398251737581546
20
2.7615616999344494
30
3.1752378504279477e-13
10
-51.392764293232005
20
2.7815605273404751
30
3.1086244689504383e-13
10
-51.386886487742402
20
2.802982014288697
30
3.0087043967341742e-13
10
-51.38046939839893
20
2.8241205503652504
30
2.5868196473766147e-13
10
-51.373583758065081
20
2.8444859249510657
30
2.1316282072803006e-13
10
-51.366516749039775
20
2.865387726239538
30
1.6209256159527285e-13
10
-51.358956180550088
20
2.8854750992606797
30
1.1435297153639112e-13
10
-51.351836682041011
20
2.9027881267945039
30
1.0436096431476471e-13
10
-51.34485465958111
20
2.9197668433341835
30
9.6589403142388619e-14
10
-51.338296837621883
20
2.93407732400085
30
1.1879386363489175e-13
10
-51.329602324966004
20
2.9507715617125863
30
1.1879386363489175e-13
10
-51.320743278585745
20
2.9677817188110382
30
1.1768364061026659e-13
10
-51.309665907470006
20
2.987266706368001
30
8.992806499463768e-14
10
-51.293841582140004
20
3.014675241831001
30
8.3266726846886741e-14
0
LINE
5
105
100
AcDbEntity
8
0
100
AcDbLine
10
-51.427665287360007
20
2.5153604744539999
30
-5.773159728050814e-14
11
-51.427665287360007
21
-2.5153604744539937
31
0
0
SPLINE
5
106
100
AcDbEntity
8
0
100
AcDbSpline
70
0
71
3
72
32
73
28
74
0
42
0.000000001
43
0.0000000001
44
0.0000000001
40
0
40
0
40
0
40
0
40
0.087141932000000005
40
0.087141932000000005
40
0.087141932000000005
40
0.18458940600000001
40
0.18458940600000001
40
0.18458940600000001
40
0.29072869699999998
40
0.29072869699999998
40
0.29072869699999998
40
0.39888233899999997
40
0.39888233899999997
40
0.39888233899999997
40
0.51318110100000003
40
0.51318110100000003
40
0.51318110100000003
40
0.636818777
40
0.636818777
40
0.636818777
40
0.76113376399999999
40
0.76113376399999999
40
0.76113376399999999
40
0.88052096899999999
40
0.88052096899999999
40
0.88052096899999999
40
1
40
1
40
1
40
1
10
-51.293841582140004
20
-3.0146752418310001
30
4.8849813083506888e-14
10
-51.305817432300003
20
-2.9939324608840003
30
0
10
-51.314599258412663
20
-2.9786022478774612
30
-2.2204460492503131e-14
10
-51.321680823570219
20
-2.9656592780905267
30
-5.1070259132757201e-14
10
-51.329599865766468
20
-2.9511856523302535
30
-8.659739592076221e-14
10
-51.335392716426341
20
-2.9396972955744411
30
-1.1102230246251565e-13
10
-51.341233433072475
20
-2.9270128589262265
30
-6.106226635438361e-14
10
-51.347595111813924
20
-2.9131970353105627
30
-8.8817841970012523e-15
10
-51.354013576153434
20
-2.897962247679486
30
1.2323475573339238e-13
10
-51.360325689169208
20
-2.881464578987333
30
1.6986412276764895e-13
10
-51.366757595816964
20
-2.8646538113935902
30
2.1538326677728037e-13
10
-51.373079076085446
20
-2.8465317730216455
30
1.7541523789077473e-13
10
-51.379052564022913
20
-2.8278013227933103
30
1.4432899320127035e-13
10
-51.385365456159029
20
-2.8080066378135724
30
1.1213252548714081e-13
10
-51.391289687773849
20
-2.7875324388094542
30
9.5479180117763462e-14
10
-51.396661895806488
20
-2.7670275895944485
30
9.5479180117763462e-14
10
-51.402473046378184
20
-2.7448473676977874
30
9.4368957093138306e-14
10
-51.407638280650062
20
-2.7226312823499144
30
1.021405182655144e-13
10
-51.411951844490751
20
-2.7009172462746451
30
1.3433698597964394e-13
10
-51.416289038864889
20
-2.6790842565279371
30
1.6764367671839864e-13
10
-51.419765206019477
20
-2.6577588317658387
30
2.298161660974074e-13
10
-51.422215597421442
20
-2.6391123412198554
30
2.6756374893466273e-13
10
-51.424568856571426
20
-2.6212049879468036
30
3.0198066269804258e-13
10
-51.425976050622999
20
-2.6057683951263528
30
3.0531133177191805e-13
10
-51.426750104222506
20
-2.5870669117037859
30
2.7200464103316335e-13
10
-51.427524753180982
20
-2.5683510441399964
30
2.375877272697835e-13
10
-51.427665287360007
20
-2.5463652616979999
30
1.7208456881689926e-13
10
-51.427665287360007
20
-2.5153604744539999
30
1.7541523789077473e-13
0
LINE
5
107
100
AcDbEntity
8
0
100
AcDbLine
10
-51.293841582140004
20
-3.0146752418310001
30
4.8849813083506888e-14
11
-28.257706134660001
21
-42.914432246910003
31
0
0
SPLINE
5
108
100
AcDbEntity
8
0
100
AcDbSpline
70
0
71
3
72
32
73
28
74
0
42
0.000000001
43
0.0000000001
44
0.0000000001
40
0
40
0
40
0
40
0
40
0.08995881
40
0.08995881
40
0.08995881
40
0.18816002900000001
40
0.18816002900000001
40
0.18816002900000001
40
0.29431574100000002
40
0.29431574100000002
40
0.29431574100000002
40
0.40201348399999998
40
0.40201348399999998
40
0.40201348399999998
40
0.513846531
40
0.513846531
40
0.513846531
40
0.63363506199999997
40
0.63363506199999997
40
0.63363506199999997
40
0.756578839
40
0.756578839
40
0.756578839
40
0.87714859700000003
40
0.87714859700000003
40
0.87714859700000003
40
1
40
1
40
1
40
1
10
-27.892198714230002
20
-43.279984358950003
30
1.7652546091539989e-13
10
-27.913569875130001
20
-43.267645713459999
30
6.6613381477509392e-15
10
-27.929168038047077
20
-43.258563469830811
30
-3.9968028886505635e-14
10
-27.942023803684258
20
-43.2507160452205
30
-2.2204460492503131e-15
10
-27.956057469277994
20
-43.242149606171971
30
3.7747582837255322e-14
10
-27.966823174936511
20
-43.235054631199972
30
9.6589403142388619e-14
10
-27.978309417653197
20
-43.226881545009313
30
1.3877787807814457e-13
10
-27.990726068751943
20
-43.218046422669261
30
1.8429702208777599e-13
10
-28.003984714437561
20
-43.207951456994522
30
2.3425705819590803e-13
10
-28.017745208651029
20
-43.196735773370627
30
2.9976021664879227e-13
10
-28.031705589505101
20
-43.18535716933944
30
3.6637359812630166e-13
10
-28.046182504608751
20
-43.172825051503352
30
4.2965631052993558e-13
10
-28.06065543802525
20
-43.159605715837515
30
4.2632564145606011e-13
10
-28.075684093203243
20
-43.145878793195969
30
4.2077452633293433e-13
10
-28.090708455051477
20
-43.131410864885709
30
3.5194069880617462e-13
10
-28.105284225456195
20
-43.116659184974957
30
3.0864200084579352e-13
10
-28.12089687459536
20
-43.10085811262919
30
2.6090241078691179e-13
10
-28.135994839165093
20
-43.084731482200638
30
2.4646951146678475e-13
10
-28.150188950747619
20
-43.068585655457198
30
2.1316282072803006e-13
10
-28.164756937136197
20
-43.05201454546814
30
1.7652546091539989e-13
10
-28.178372828223701
20
-43.035423214578749
30
1.1546319456101628e-13
10
-28.189806600630291
20
-43.020601034240769
30
1.0880185641326534e-13
10
-28.201019589247753
20
-43.006065067150857
30
1.021405182655144e-13
10
-28.210133918065949
20
-42.99323058640708
30
1.5432100042289676e-13
10
-28.220244295692826
20
-42.977353798715654
30
2.0539125955565396e-13
10
-28.230546000671968
20
-42.961176560945766
30
2.5979218776228663e-13
10
-28.24188180933
20
-42.941840782369994
30
2.9753977059954195e-13
10
-28.257706134660001
20
-42.914432246909996
30
2.964295475749168e-13
0
LINE
5
109
100
AcDbEntity
8
0
100
AcDbLine
10
-27.892198714230002
20
-43.279984358950003
30
1.7652546091539989e-13
11
-23.535466573130002
21
-45.795344833409999
31
0
0
SPLINE
5
110
100
AcDbEntity
8
0
100
AcDbSpline
70
0
71
3
72
32
73
28
74
0
42
0.000000001
43
0.0000000001
44
0.0000000001
40
0
40
0
40
0
40
0
40
0.087141932000000005
40
0.087141932000000005
40
0.087141932000000005
40
0.18458940600000001
40
0.18458940600000001
40
0.18458940600000001
40
0.29072869699999998
40
0.29072869699999998
40
0.29072869699999998
40
0.39888233899999997
40
0.39888233899999997
40
0.39888233899999997
40
0.51318110100000003
40
0.51318110100000003
40
0.51318110100000003
40
0.636818777
40
0.636818777
40
0.636818777
40
0.76113376399999999
40
0.76113376399999999
40
0.76113376399999999
40
0.88052096899999999
40
0.88052096899999999
40
0.88052096899999999
40
1
40
1
40
1
40
1
10
-23.03613544748
20
-45.929107488740001
30
2.9753977059954195e-13
10
-23.060087147810002
20
-45.929107488740001
30
2.5646151868841116e-13
10
-23.077754414774297
20
-45.929047666741823
30
2.4757973449140991e-13
10
-23.092504137989096
20
-45.928708997173253
30
2.1427304375265521e-13
10
-23.108998186680608
20
-45.928330276008573
30
1.7652546091539989e-13
10
-23.121843820810533
20
-45.927602853462304
30
9.8809849191638932e-14
10
-23.13574922350363
20
-45.926318844130016
30
6.2172489379008766e-14
10
-23.150894917099706
20
-45.92492030772295
30
2.4424906541753444e-14
10
-23.167297862377172
20
-45.922861467078789
30
4.9960036108132044e-14
10
-23.184741319075059
20
-45.920079082956057
30
4.4408920985006262e-14
10
-23.202515824191611
20
-45.917243893711053
30
3.7747582837255322e-14
10
-23.221370709925164
20
-45.913657437027268
30
-8.8817841970012523e-15
10
-23.240578499617452
20
-45.909465404216448
30
-2.55351295663786e-14
10
-23.260877645739448
20
-45.905035186688139
30
-4.1078251911130792e-14
10
-23.281570938008844
20
-45.899928622262813
30
-1.2212453270876722e-14
10
-23.302014762346886
20
-45.894328666286448
30
2.2204460492503131e-14
10
-23.324128973257668
20
-45.888271159358951
30
6.106226635438361e-14
10
-23.345951284676516
20
-45.881636340781455
30
9.5479180117763462e-14
10
-23.366912973454767
20
-45.874514978610051
30
1.1990408665951691e-13
10
-23.387989494401069
20
-45.867354604245236
30
1.4321877017664519e-13
10
-23.408195937565822
20
-45.859702340925999
30
1.6431300764452317e-13
10
-23.425569467770472
20
-45.852501196856814
30
1.8318679906315083e-13
10
-23.442254320193907
20
-45.845585502426303
30
2.0095036745715333e-13
10
-23.456326398751752
20
-45.839085871815392
30
2.1316282072803006e-13
10
-23.472909385285917
20
-45.830405480186194
30
1.9539925233402755e-13
10
-23.489505126531288
20
-45.821718412082397
30
1.7652546091539989e-13
10
-23.50861563974
20
-45.810847227030003
30
1.1879386363489175e-13
10
-23.535466573130002
20
-45.795344833409999
30
6.3282712403633923e-14
0
LINE
5
111
100
AcDbEntity
8
0
100
AcDbLine
10
-23.03613544748
20
-45.929107488740001
30
2.9753977059954195e-13
11
23.03613544748
21
-45.929107488740001
31
0
0
SPLINE
5
112
100
AcDbEntity
8
0
100
AcDbSpline
70
0
71
3
72
32
73
28
74
0
42
0.000000001
43
0.0000000001
44
0.0000000001
40
0
40
0
40
0
40
0
40
0.08995881
40
0.08995881
40
0.08995881
40
0.18816002900000001
40
0.18816002900000001
40
0.18816002900000001
40
0.29431574100000002
40
0.29431574100000002
40
0.29431574100000002
40
0.40201348399999998
40
0.40201348399999998
40
0.40201348399999998
40
0.513846531
40
0.513846531
40
0.513846531
40
0.63363506199999997
40
0.63363506199999997
40
0.63363506199999997
40
0.756578839
40
0.756578839
40
0.756578839
40
0.87714859700000003
40
0.87714859700000003
40
0.87714859700000003
40
1
40
1
40
1
40
1
10
23.535466573130009
20
-45.795344833409999
30
1.7208456881689926e-13
10
23.51409541224001
20
-45.807683478900003
30
3.1308289294429414e-13
10
23.498430877071975
20
-45.816650762426136
30
3.6637359812630166e-13
10
23.485206925184055
20
-45.823860469749377
30
3.2085445411667024e-13
10
23.470771338548438
20
-45.831730761139127
30
2.708944180085382e-13
10
23.459244057152361
20
-45.837506648243917
30
1.5099033134902129e-13
10
23.446422835526853
20
-45.843367483135992
30
9.3258734068513149e-14
10
23.432563069586813
20
-45.849703057248206
30
2.9976021664879227e-14
10
23.417191250024352
20
-45.856137898394984
30
3.4416913763379853e-14
10
23.400597935980642
20
-45.862446994139312
30
2.9976021664879227e-14
10
23.383763585405148
20
-45.86884773658862
30
2.4424906541753444e-14
10
23.365671995443215
20
-45.87511905391559
30
7.7715611723760958e-15
10
23.346987248226057
20
-45.881043314087655
30
3.3306690738754696e-15
10
23.327585056912554
20
-45.887195049934761
30
-1.1102230246251565e-15
10
23.307543282530077
20
-45.892972564817157
30
9.9920072216264089e-15
10
23.287480067775817
20
-45.898219712312589
30
3.3306690738754696e-15
10
23.265989613147052
20
-45.90384012691522
30
-1.1102230246251565e-15
10
23.244474559233822
20
-45.908852032563551
30
-2.4424906541753444e-14
10
23.223394807317455
20
-45.913071580406744
30
6.6613381477509392e-15
10
23.201759811903564
20
-45.917402271707019
30
3.9968028886505635e-14
10
23.180583352326384
20
-45.920898313840098
30
1.354472090042691e-13
10
23.162030081410727
20
-45.923389161037306
30
2.0095036745715333e-13
10
23.143835070333356
20
-45.925831910488384
30
2.6645352591003757e-13
10
23.128162919555937
20
-45.927307910412587
30
2.8532731732866523e-13
10
23.109358029273174
20
-45.928125360432581
30
2.4868995751603507e-13
10
23.090197277913788
20
-45.928958279760806
30
2.120525977034049e-13
10
23.067784098140002
20
-45.929107488740001
30
1.2878587085651816e-13
10
23.03613544748
20
-45.929107488740001
30
1.3322676295501878e-13
0
LINE
5
113
100
AcDbEntity
8
0
100
AcDbLine
10
23.535466573130009
20
-45.795344833409999
30
1.7208456881689926e-13
11
27.892198714230005
21
-43.279984358950003
31
0
0
SPLINE
5
114
100
AcDbEntity
8
0
100
AcDbSpline
70
0
71
3
72
32
73
28
74
0
42
0.000000001
43
0.0000000001
44
0.0000000001
40
0
40
0
40
0
40
0
40
0.087141932000000005
40
0.087141932000000005
40
0.087141932000000005
40
0.18458940600000001
40
0.18458940600000001
40
0.18458940600000001
40
0.29072869699999998
40
0.29072869699999998
40
0.29072869699999998
40
0.39888233899999997
40
0.39888233899999997
40
0.39888233899999997
40
0.51318110100000003
40
0.51318110100000003
40
0.51318110100000003
40
0.636818777
40
0.636818777
40
0.636818777
40
0.76113376399999999
40
0.76113376399999999
40
0.76113376399999999
40
0.88052096899999999
40
0.88052096899999999
40
0.88052096899999999
40
1
40
1
40
1
40
1
10
28.257706134660001
20
-42.914432246910003
30
3.1530333899354446e-13
10
28.245730284490005
20
-42.935175027859998
30
3.2307490016592055e-13
10
28.23684484363838
20
-42.950445418865534
30
2.8532731732866523e-13
10
28.22917668558113
20
-42.963049719082534
30
2.808864252301646e-13
10
28.220601679085846
20
-42.977144623676615
30
2.7755575615628914e-13
10
28.213548895615798
20
-42.987905557886492
30
2.8199664825478976e-13
10
28.205484209568837
20
-42.999305985201843
30
3.1197266991966899e-13
10
28.196700194714211
20
-43.011723272409839
30
3.4305891460917337e-13
10
28.186715713776263
20
-43.024899219395053
30
4.0301095793893182e-13
10
28.17558437009415
20
-43.038614503965213
30
4.1078251911130792e-13
10
28.164241771625377
20
-43.052590082314694
30
4.1855408028368402e-13
10
28.151708366160271
20
-43.067125664006134
30
3.6748382115092681e-13
10
28.138474064406974
20
-43.081664081425487
30
2.9087843245179101e-13
10
28.1244878104227
20
-43.097028548878853
30
2.0872192862952943e-13
10
28.109718749771421
20
-43.112396183458017
30
1.1324274851176597e-13
10
28.094647133467738
20
-43.127301076695765
30
8.4376949871511897e-14
10
28.078344073130552
20
-43.143423791663949
30
5.1070259132757201e-14
10
28.061686995983543
20
-43.15900505843193
30
9.4368957093138306e-14
10
28.045038871042628
20
-43.173597732334613
30
1.5210055437364645e-13
10
28.028299544467103
20
-43.188270347715275
30
2.0650148258027912e-13
10
28.011569268450138
20
-43.201943509158163
30
2.5868196473766147e-13
10
27.996646129645889
20
-43.213388855634783
30
2.4980018054066022e-13
10
27.982314536370932
20
-43.22438051447719
30
2.3647750424515834e-13
10
27.96964965186795
20
-43.233317476686366
30
1.7208456881689926e-13
10
27.953840718937435
20
-43.243338568479821
30
1.021405182655144e-13
10
27.9380196266547
20
-43.253367367939887
30
2.7755575615628914e-14
10
27.919049647630004
20
-43.264481965329992
30
-4.6629367034256575e-14
10
27.892198714230002
20
-43.279984358949989
30
-6.5503158452884236e-14
0
LINE
5
115
100
AcDbEntity
8
0
100
AcDbLine
10
28.257706134660001
20
-42.914432246910003
30
3.1530333899354446e-13
11
51.293841582140011
21
-3.0146752418310019
31
0
0
SPLINE
5
116
100
AcDbEntity
8
0
100
AcDbSpline
70
0
71
3
72
32
73
28
74
0
42
0.000000001
43
0.0000000001
44
0.0000000001
40
0
40
0
40
0
40
0
40
0.08995881
40
0.08995881
40
0.08995881
40
0.18816002900000001
40
0.18816002900000001
40
0.18816002900000001
40
0.29431574100000002
40
0.29431574100000002
40
0.29431574100000002
40
0.40201348399999998
40
0.40201348399999998
40
0.40201348399999998
40
0.513846531
40
0.513846531
40
0.513846531
40
0.63363506199999997
40
0.63363506199999997
40
0.63363506199999997
40
0.756578839
40
0.756578839
40
0.756578839
40
0.87714859700000003
40
0.87714859700000003
40
0.87714859700000003
40
1
40
1
40
1
40
1
10
51.427665287360007
20
-2.5153604744539999
30
-5.773159728050814e-14
10
51.427665287360007
20
-2.5400377654419999
30
-1.1213252548714081e-13
10
51.427598915113819
20
-2.5580872925973219
30
-3.9968028886505635e-14
10
51.427230728865581
20
-2.5731444245305868
30
-4.2188474935755949e-14
10
51.426828807826446
20
-2.5895811549685552
30
-4.3298697960381105e-14
10
51.426067232088869
20
-2.6024520170446674
30
-9.8809849191638932e-14
10
51.424732253180053
20
-2.6164859381262966
30
-1.1657341758564144e-13
10
51.423289138338752
20
-2.6316566345773467
30
-1.3655743202889425e-13
10
51.421175964461902
20
-2.6481864413971823
30
-1.0325074129013956e-13
10
51.418343144631663
20
-2.6657112207658402
30
-6.4392935428259079e-14
10
51.415469174910243
20
-2.6834905672467673
30
-2.4424906541753444e-14
10
51.411854500051966
20
-2.7022940024125215
30
2.1094237467877974e-14
10
51.407642686251307
20
-2.7214375982517773
30
7.4384942649885488e-14
10
51.40326915011579
20
-2.7413162567417744
30
1.2989609388114332e-13
10
51.398251737581553
20
-2.7615616999344499
30
1.9317880628477724e-13
10
51.39276429323202
20
-2.781560527340476
30
2.1760371282653068e-13
10
51.386886487742423
20
-2.8029820142886979
30
2.4313884239290928e-13
10
51.38046939839893
20
-2.8241205503652504
30
2.1760371282653068e-13
10
51.373583758065081
20
-2.8444859249510657
30
1.8873791418627661e-13
10
51.366516749039768
20
-2.8653877262395384
30
1.5987211554602254e-13
10
51.358956180550095
20
-2.8854750992606797
30
1.3211653993039363e-13
10
51.351836682041025
20
-2.9027881267945039
30
1.3655743202889425e-13
10
51.34485465958111
20
-2.919766843334183
30
1.4210854715202004e-13
10
51.338296837621883
20
-2.93407732400085
30
1.7430501486614958e-13
10
51.329602324966004
20
-2.9507715617125863
30
1.7985612998927536e-13
10
51.320743278585752
20
-2.9677817188110382
30
1.8096635301390052e-13
10
51.309665907469999
20
-2.9872667063680005
30
1.3988810110276972e-13
10
51.29384158213999
20
-3.0146752418310001
30
1.1435297153639112e-13
0
LINE
5
117
100
AcDbEntity
8
0
100
AcDbLine
10
51.427665287360007
20
-2.5153604744539999
30
-5.773159728050814e-14
11
51.427665287360007
21
2.5153604744540026
31
0
0
SPLINE
5
118
100
AcDbEntity
8
0
100
AcDbSpline
70
0
71
3
72
32
73
28
74
0
42
0.000000001
43
0.0000000001
44
0.0000000001
40
0
40
0
40
0
40
0
40
0.087141932000000005
40
0.087141932000000005
40
0.087141932000000005
40
0.18458940600000001
40
0.18458940600000001
40
0.18458940600000001
40
0.29072869699999998
40
0.29072869699999998
40
0.29072869699999998
40
0.39888233899999997
40
0.39888233899999997
40
0.39888233899999997
40
0.51318110100000003
40
0.51318110100000003
40
0.51318110100000003
40
0.636818777
40
0.636818777
40
0.636818777
40
0.76113376399999999
40
0.76113376399999999
40
0.76113376399999999
40
0.88052096899999999
40
0.88052096899999999
40
0.88052096899999999
40
1
40
1
40
1
40
1
10
51.29384158213999
20
3.0146752418310023
30
1.9428902930940239e-13
10
51.305817432299996
20
2.9939324608840021
30
1.7763568394002505e-13
10
51.314599258412663
20
2.9786022478774603
30
1.1102230246251565e-13
10
51.321680823570219
20
2.9656592780905253
30
9.3258734068513149e-14
10
51.329599865766447
20
2.9511856523302527
30
7.3274719625260332e-14
10
51.335392716426355
20
2.9396972955744416
30
1.2323475573339238e-13
10
51.341233433072482
20
2.9270128589262274
30
1.7430501486614958e-13
10
51.347595111813916
20
2.9131970353105645
30
2.298161660974074e-13
10
51.354013576153434
20
2.8979622476794771
30
2.631228568361621e-13
10
51.360325689169208
20
2.8814645789873241
30
2.6534330288541241e-13
10
51.366757595816985
20
2.8646538113935822
30
2.6756374893466273e-13
10
51.373079076085446
20
2.8465317730216451
30
2.5868196473766147e-13
10
51.379052564022913
20
2.8278013227933094
30
2.7311486405778851e-13
10
51.385365456159036
20
2.8080066378135724
30
2.8754776337791554e-13
10
51.391289687773842
20
2.7875324388094547
30
3.1974423109204508e-13
10
51.396661895806481
20
2.7670275895944489
30
2.7644553313166398e-13
10
51.402473046378191
20
2.7448473676977874
30
2.298161660974074e-13
10
51.407638280650062
20
2.722631282349913
30
9.7699626167013776e-14
10
51.411951844490751
20
2.7009172462746447
30
4.2188474935755949e-14
10
51.416289038864882
20
2.6790842565279376
30
-1.5543122344752192e-14
10
51.41976520601947
20
2.6577588317658387
30
1.3322676295501878e-14
10
51.422215597421435
20
2.6391123412198554
30
5.1070259132757201e-14
10
51.424568856571405
20
2.6212049879468022
30
8.7707618945387367e-14
10
51.425976050622999
20
2.6057683951263524
30
1.1879386363489175e-13
10
51.426750104222506
20
2.5870669117037854
30
1.5099033134902129e-13
10
51.427524753180975
20
2.5683510441399973
30
1.8318679906315083e-13
10
51.427665287360007
20
2.5463652616980004
30
2.1427304375265521e-13
10
51.427665287360007
20
2.5153604744540004
30
2.5646151868841116e-13
0
LINE
5
119
100
AcDbEntity
8
0
100
AcDbLine
10
51.29384158213999
20
3.0146752418310023
30
1.9428902930940239e-13
11
28.257706134660001
21
42.914432246910003
31
0
0
SPLINE
5
120
100
AcDbEntity
8
0
100
AcDbSpline
70
0
71
3
72
32
73
28
74
0
42
0.000000001
43
0.0000000001
44
0.0000000001
40
0
40
0
40
0
40
0
40
0.08995881
40
0.08995881
40
0.08995881
40
0.18816002900000001
40
0.18816002900000001
40
0.18816002900000001
40
0.29431574100000002
40
0.29431574100000002
40
0.29431574100000002
40
0.40201348399999998
40
0.40201348399999998
40
0.40201348399999998
40
0.513846531
40
0.513846531
40
0.513846531
40
0.63363506199999997
40
0.63363506199999997
40
0.63363506199999997
40
0.756578839
40
0.756578839
40
0.756578839
40
0.87714859700000003
40
0.87714859700000003
40
0.87714859700000003
40
1
40
1
40
1
40
1
10
27.892198714230002
20
43.279984358950003
30
2.2426505097428162e-13
10
27.913569875130001
20
43.267645713459999
30
1.3655743202889425e-13
10
27.929168038047077
20
43.258563469830804
30
6.6613381477509392e-15
10
27.942023803684258
20
43.250716045220486
30
-2.886579864025407e-14
10
27.956057469278001
20
43.242149606171949
30
-6.5503158452884236e-14
10
27.966823174936508
20
43.235054631199958
30
-3.1086244689504383e-14
10
27.978309417653193
20
43.226881545009299
30
4.1078251911130792e-14
10
27.990726068751943
20
43.218046422669261
30
1.1768364061026659e-13
10
28.003984714437561
20
43.207951456994522
30
2.2426505097428162e-13
10
28.017745208651029
20
43.196735773370627
30
2.5979218776228663e-13
10
28.031705589505101
20
43.18535716933944
30
2.9531932455029164e-13
10
28.046182504608748
20
43.172825051503352
30
2.6867397195928788e-13
10
28.060655438025247
20
43.159605715837515
30
2.5313084961453569e-13
10
28.075684093203236
20
43.145878793195998
30
2.3647750424515834e-13
10
28.090708455051477
20
43.131410864885702
30
2.3647750424515834e-13
10
28.105284225456195
20
43.116659184974949
30
1.9317880628477724e-13
10
28.120896874595353
20
43.100858112629197
30
1.4765966227514582e-13
10
28.135994839165093
20
43.084731482200638
30
4.6629367034256575e-14
10
28.150188950747619
20
43.068585655457198
30
-9.9920072216264089e-15
10
28.164756937136204
20
43.052014545468154
30
-6.7723604502134549e-14
10
28.178372828223704
20
43.035423214578756
30
-7.2164496600635175e-14
10
28.189806600630295
20
43.020601034240784
30
-5.9952043329758453e-14
10
28.201019589247768
20
43.006065067150878
30
-4.3298697960381105e-14
10
28.210133918065949
20
42.99323058640708
30
-1.6653345369377348e-14
10
28.220244295692826
20
42.977353798715654
30
5.1070259132757201e-14
10
28.230546000671964
20
42.961176560945766
30
1.1879386363489175e-13
10
28.24188180933
20
42.941840782370008
30
2.375877272697835e-13
10
28.257706134660001
20
42.914432246910003
30
2.7533531010703882e-13
0
LINE
5
121
100
AcDbEntity
8
0
100
AcDbLine
10
27.892198714230002
20
43.279984358950003
30
2.2426505097428162e-13
11
23.535466573130002
21
45.795344833409992
31
0
0
SPLINE
5
122
100
AcDbEntity
8
0
100
AcDbSpline
70
0
71
3
72
32
73
28
74
0
42
0.000000001
43
0.0000000001
44
0.0000000001
40
0
40
0
40
0
40
0
40
0.087141932000000005
40
0.087141932000000005
40
0.087141932000000005
40
0.18458940600000001
40
0.18458940600000001
40
0.18458940600000001
40
0.29072869699999998
40
0.29072869699999998
40
0.29072869699999998
40
0.39888233899999997
40
0.39888233899999997
40
0.39888233899999997
40
0.51318110100000003
40
0.51318110100000003
40
0.51318110100000003
40
0.636818777
40
0.636818777
40
0.636818777
40
0.76113376399999999
40
0.76113376399999999
40
0.76113376399999999
40
0.88052096899999999
40
0.88052096899999999
40
0.88052096899999999
40
1
40
1
40
1
40
1
10
23.03613544748
20
45.929107488740001
30
4.3409720262843621e-13
10
23.060087147810002
20
45.929107488740001
30
3.5971225997855072e-13
10
23.077754414774297
20
45.929047666741816
30
2.8754776337791554e-13
10
23.092504137989096
20
45.928708997173246
30
2.6978419498391304e-13
10
23.108998186680616
20
45.928330276008573
30
2.4868995751603507e-13
10
23.121843820810525
20
45.927602853462311
30
2.708944180085382e-13
10
23.135749223503623
20
45.926318844130023
30
2.6645352591003757e-13
10
23.150894917099698
20
45.924920307722928
30
2.631228568361621e-13
10
23.167297862377186
20
45.922861467078803
30
2.19824158875781e-13
10
23.184741319075073
20
45.920079082956065
30
1.3988810110276972e-13
10
23.202515824191625
20
45.917243893711046
30
5.773159728050814e-14
10
23.221370709925161
20
45.913657437027268
30
-4.5519144009631418e-14
10
23.240578499617449
20
45.909465404216448
30
-1.021405182655144e-13
10
23.260877645739445
20
45.905035186688124
30
-1.6320278461989801e-13
10
23.281570938008848
20
45.899928622262806
30
-1.7097434579227411e-13
10
23.302014762346893
20
45.894328666286441
30
-1.4988010832439613e-13
10
23.324128973257654
20
45.888271159358936
30
-1.27675647831893e-13
10
23.345951284676513
20
45.881636340781462
30
-7.2164496600635175e-14
10
23.366912973454763
20
45.874514978610065
30
-1.2212453270876722e-14
10
23.387989494401058
20
45.867354604245236
30
4.6629367034256575e-14
10
23.408195937565822
20
45.859702340925999
30
1.099120794378905e-13
10
23.425569467770472
20
45.852501196856814
30
1.532107773982716e-13
10
23.442254320193896
20
45.845585502426324
30
1.9428902930940239e-13
10
23.456326398751752
20
45.839085871815392
30
2.2315482794965646e-13
10
23.472909385285917
20
45.830405480186194
30
2.7866597918091429e-13
10
23.489505126531288
20
45.821718412082376
30
3.3417713041217212e-13
10
23.50861563974
20
45.810847227030003
30
4.2077452633293433e-13
10
23.535466573130002
20
45.795344833409999
30
4.1744385725905886e-13
0
LINE
5
123
100
AcDbEntity
8
0
100
AcDbLine
10
23.03613544748
20
45.929107488740001
30
4.3409720262843621e-13
11
-23.03613544748
21
45.929107488740009
31
9.2148511043887993e-14
0
LWPOLYLINE
5
124
100
AcDbEntity
8
0
100
AcDbPolyline
90
3
70
1
43
0.0
10
-17.351132104950004
20
31.57924576864
10
-17.351677643270001
20
30.079245867840001
10
-18.65044289387
20
30.829718268280004
0
LWPOLYLINE
5
125
100
AcDbEntity
8
0
100
AcDbPolyline
90
3
70
1
43
0.0
10
-13.444236524160003
20
38.548167667750008
10
-12.605447168950001
20
37.304611308920002
10
-14.10179324434
20
37.199976598299997
0
LWPOLYLINE
5
126
100
AcDbEntity
8
0
100
AcDbPolyline
90
3
70
1
43
0.0
10
-39.783859750220003
20
7.2296661602989998
10
-38.283859849419997
20
7.2291206219779998
10
-39.034332249869998
20
5.9303553713750006
0
LWPOLYLINE
5
127
100
AcDbEntity
8
0
100
AcDbPolyline
90
3
70
1
43
0.0
10
26.469999211849998
20
30.870000455040003
10
25.719999999999999
20
29.570961894320003
10
24.969999211850002
20
30.869999544960002
0
LWPOLYLINE
5
128
100
AcDbEntity
8
0
100
AcDbPolyline
90
3
70
1
43
0.0
10
39.134253340539999
20
-5.7328623327440011
10
39.647283555530002
20
-7.1424012639230003
10
38.170071926010003
20
-6.8819289974230005
0
LWPOLYLINE
5
129
100
AcDbEntity
8
0
100
AcDbPolyline
90
3
70
1
43
0.0
10
13.109767969949999
20
-36.488025376940001
10
14.58697959947
20
-36.748497643439997
10
13.622798184940002
20
-37.897564308120003
0
LWPOLYLINE
5
130
100
AcDbEntity
8
0
100
AcDbPolyline
90
3
70
1
43
0.0
10
-25.719999999999999
20
-29.530961894320001
10
-24.969999999999999
20
-30.830000000000002
10
-26.470000000000002
20
-30.830000000000002
0
SPLINE
5
131
100
AcDbEntity
8
0
100
AcDbSpline
70
0
71
3
72
29
73
25
74
0
42
0.000000001
43
0.0000000001
44
0.0000000001
40
0
40
0
40
0
40
0
40
0.088802008000000002
40
0.088802008000000002
40
0.088802008000000002
40
0.177604015
40
0.177604015
40
0.177604015
40
0.33698198299999998
40
0.33698198299999998
40
0.33698198299999998
40
0.49660851700000003
40
0.49660851700000003
40
0.49660851700000003
40
0.65585243999999998
40
0.65585243999999998
40
0.65585243999999998
40
0.81728071300000005
40
0.81728071300000005
40
0.81728071300000005
40
0.90864035700000001
40
0.90864035700000001
40
0.90864035700000001
40
1
40
1
40
1
40
1
10
-8.5411753114110009
20
18.826688551339998
30
2.9309887850104133e-13
10
-8.6218324732300022
20
18.82616114787
30
2.4757973449140991e-13
10
-8.7067747554392678
20
18.829051326911273
30
2.0761170560490427e-13
10
-8.7939859893799603
20
18.836798809081458
30
1.8540724511240114e-13
10
-8.8811972223385673
20
18.844546291164395
30
1.6542323066914832e-13
10
-8.9706774069774973
20
18.857151076266852
30
1.3655743202889425e-13
10
-9.0601722465589329
20
18.876231808865001
30
1.1879386363489175e-13
10
-9.2207936802498978
20
18.910477075297369
30
8.5487172896137054e-14
10
-9.3814623197153502
20
18.965582342845117
30
8.8817841970012523e-14
10
-9.5297668152954014
20
19.043929829781629
30
1.1102230246251565e-13
10
-9.6783026066794537
20
19.122399507518299
30
1.3211653993039363e-13
10
-9.8144356578477261
20
19.224183958343101
30
1.4876988529977098e-13
10
-9.9341070145102179
20
19.342349472536888
30
1.5765166949677223e-13
10
-10.053491529278089
20
19.460231754210259
30
1.6764367671839864e-13
10
-10.156493169481312
20
19.594416665379963
30
1.865174681370263e-13
10
-10.236721592956435
20
19.741595312944465
30
2.2648549702353193e-13
10
-10.318050510274691
20
19.890792811041859
30
2.6756374893466273e-13
10
-10.375977165196428
20
20.053342960732238
30
2.8532731732866523e-13
10
-10.412070609307154
20
20.216172550099266
30
2.3425705819590803e-13
10
-10.432497540373252
20
20.30832526313262
30
2.0317081350640365e-13
10
-10.445931412250147
20
20.400567479181145
30
1.7985612998927536e-13
10
-10.454168764255979
20
20.490393057456366
30
1.9984014443252818e-13
10
-10.46240611617165
20
20.580218634748384
30
2.2426505097428162e-13
10
-10.465446948329999
20
20.667627574320001
30
2.5979218776228663e-13
10
-10.464905317840001
20
20.750426862090002
30
2.7977620220553945e-13
0
LINE
5
132
100
AcDbEntity
8
0
100
AcDbLine
10
-10.464905317840001
20
20.750426862090002
30
2.7977620220553945e-13
11
-10.464888425421357
21
37.734915830350005
31
0
0
SPLINE
5
133
100
AcDbEntity
8
0
100
AcDbSpline
70
0
71
3
72
29
73
25
74
0
42
0.000000001
43
0.0000000001
44
0.0000000001
40
0
40
0
40
0
40
0
40
0.088783175000000006
40
0.088783175000000006
40
0.088783175000000006
40
0.17756634900000001
40
0.17756634900000001
40
0.17756634900000001
40
0.33691189999999999
40
0.33691189999999999
40
0.33691189999999999
40
0.49652668599999999
40
0.49652668599999999
40
0.49652668599999999
40
0.65574922499999999
40
0.65574922499999999
40
0.65574922499999999
40
0.81720241400000004
40
0.81720241400000004
40
0.81720241400000004
40
0.90860120700000002
40
0.90860120700000002
40
0.90860120700000002
40
1
40
1
40
1
40
1
10
-10.464888425420003
20
37.734915830349998
30
1.1768364061026659e-13
10
-10.465415397740001
20
37.815557253649999
30
5.8841820305133297e-14
10
-10.462525893563727
20
37.900481202018263
30
1.2545520178264269e-13
10
-10.4547815672339
20
37.987672780681663
30
1.6875389974302379e-13
10
-10.4470372409913
20
38.074864358362987
30
2.1316282072803006e-13
10
-10.434438092704506
20
38.164323566288381
30
2.3092638912203256e-13
10
-10.415366941275849
20
38.253798068083775
30
2.3203661214665772e-13
10
-10.381138573492967
20
38.414384394824424
30
2.3314683517128287e-13
10
-10.326062547900012
20
38.575019986276786
30
1.9317880628477724e-13
10
-10.247749792242315
20
38.723303039778791
30
1.5765166949677223e-13
10
-10.169304717014747
20
38.871836636754786
30
1.1990408665951691e-13
10
-10.067544322439446
20
39.007975918082003
30
8.5487172896137054e-14
10
-9.9494066307918558
20
39.127655310214607
30
1.0658141036401503e-13
10
-9.8315592578315023
20
39.247040594992228
30
1.2323475573339238e-13
10
-9.6974149820093185
20
39.350046790220631
30
1.9539925233402755e-13
10
-9.5502715904310911
20
39.430292233160188
30
2.2537527399890678e-13
10
-9.4010667733255122
20
39.511661885639555
30
2.5646151868841116e-13
10
-9.2384960633378714
20
39.569628578816349
30
2.2204460492503131e-13
10
-9.0756406016158451
20
39.605749303024773
30
1.5876189252139739e-13
10
-8.9834479807884478
20
39.626197276925971
30
1.2434497875801753e-13
10
-8.8911641055127237
20
39.639644268547983
30
8.1046280797636427e-14
10
-8.8012989427956132
20
39.647889485873989
30
7.1054273576010019e-14
10
-8.7114337800785009
20
39.656134703199996
30
6.2172489379008766e-14
10
-8.6239873299200003
20
39.659178146229998
30
1.0547118733938987e-13
10
-8.5411553138869998
20
39.658636529890003
30
2.5424107263916085e-13
0
LINE
5
134
100
AcDbEntity
8
0
100
AcDbLine
10
-8.5411553138869998
20
39.658636529890003
30
2.5424107263916085e-13
11
8.4433096881669965
21
39.658633181183916
31
0
0
SPLINE
5
135
100
AcDbEntity
8
0
100
AcDbSpline
70
0
71
3
72
29
73
25
74
0
42
0.000000001
43
0.0000000001
44
0.0000000001
40
0
40
0
40
0
40
0
40
0.088798780999999993
40
0.088798780999999993
40
0.088798780999999993
40
0.17759756199999999
40
0.17759756199999999
40
0.17759756199999999
40
0.33697286700000001
40
0.33697286700000001
40
0.33697286700000001
40
0.49659856200000002
40
0.49659856200000002
40
0.49659856200000002
40
0.65583972300000004
40
0.65583972300000004
40
0.65583972300000004
40
0.81727211099999997
40
0.81727211099999997
40
0.81727211099999997
40
0.90863605599999997
40
0.90863605599999997
40
0.90863605599999997
40
1
40
1
40
1
40
1
10
8.443309688167
20
39.658633181189998
30
2.7200464103316335e-13
10
8.5239637219039999
20
39.659160448690002
30
2.7311486405778851e-13
10
8.608902367204001
20
39.656270362930002
30
1.8096635301390052e-13
10
8.6961097194620578
20
39.648523461802448
30
1.5210055437364645e-13
10
8.7833170717201163
20
39.640776560674887
30
1.1879386363489175e-13
10
8.8727931309362287
20
39.628172844179765
30
1.3988810110276972e-13
10
8.9622839680501141
20
39.609093937117869
30
1.5432100042289676e-13
10
9.1229013695404699
20
39.574851275250069
30
1.8096635301390052e-13
10
9.2835663747306256
20
39.51975023198947
30
1.8984813721090177e-13
10
9.4318688099464083
20
39.441407525760624
30
1.8207657603852567e-13
10
9.580404238892017
20
39.362941737538549
30
1.7430501486614958e-13
10
9.7165382223863546
20
39.26116120035288
30
1.9428902930940239e-13
10
9.8362109670190669
20
39.143000044487131
30
2.375877272697835e-13
10
9.9555954232331452
20
39.025123535663397
30
2.808864252301646e-13
10
10.058597854420661
20
38.890945234038803
30
3.1974423109204508e-13
10
10.138829047044615
20
38.743772435028653
30
2.4646951146678475e-13
10
10.220164255454534
20
38.594574474880311
30
1.6986412276764895e-13
10
10.27809722946747
20
38.432021937077415
30
6.6613381477509392e-15
10
10.314195158468745
20
38.269189125460827
30
3.3306690738754696e-15
10
10.334625068728677
20
38.177032599567553
30
1.1102230246251565e-15
10
10.348061030382869
20
38.084786299613953
30
5.2180482157382357e-14
10
10.356299863507346
20
37.994956782361193
30
1.2878587085651816e-13
10
10.364538696541645
20
37.90512726609164
30
2.0539125955565396e-13
10
10.36758040116
20
37.817714532469999
30
3.2751579226442118e-13
10
10.367039307240001
20
37.734911866090002
30
3.0975222387041867e-13
0
LINE
5
136
100
AcDbEntity
8
0
100
AcDbLine
10
10.367039307240001
20
37.734911866090009
30
3.0975222387041867e-13
11
10.367056199644058
21
20.75043082924001
31
0
0
SPLINE
5
137
100
AcDbEntity
8
0
100
AcDbSpline
70
0
71
3
72
29
73
25
74
0
42
0.000000001
43
0.0000000001
44
0.0000000001
40
0
40
0
40
0
40
0
40
0.088779831000000003
40
0.088779831000000003
40
0.088779831000000003
40
0.17755966100000001
40
0.17755966100000001
40
0.17755966100000001
40
0.33690371299999999
40
0.33690371299999999
40
0.33690371299999999
40
0.496518032
40
0.496518032
40
0.496518032
40
0.65573718299999995
40
0.65573718299999995
40
0.65573718299999995
40
0.817194694
40
0.817194694
40
0.817194694
40
0.90859734700000006
40
0.90859734700000006
40
0.90859734700000006
40
1
40
1
40
1
40
1
10
10.36705619964
20
20.750430829239995
30
3.4305891460917337e-13
10
10.36758369517
20
20.669792120029996
30
4.6296300126869028e-13
10
10.364694995088733
20
20.584871232731736
30
5.0404125317982107e-13
10
10.35695196264269
20
20.497682833393682
30
4.8183679268731794e-13
10
10.349208930283865
20
20.410494435037695
30
4.6074255521943996e-13
10
10.336611565669621
20
20.321038524693016
30
3.8857805861880479e-13
10
10.3175429019338
20
20.231567106987821
30
3.5416114485542494e-13
10
10.283318031871637
20
20.070981777692531
30
2.9198865547641617e-13
10
10.228246593653045
20
19.910346493165402
30
2.964295475749168e-13
10
10.149938007790034
20
19.762062459639569
30
3.3195668436292181e-13
10
10.071496600988246
20
19.613526918257712
30
3.6970426720017713e-13
10
9.9697391536040616
20
19.477384561874114
30
4.0301095793893182e-13
10
9.8516042766946459
20
19.357702092191417
30
3.6637359812630166e-13
10
9.7337618743159098
20
19.238315928519839
30
3.3195668436292181e-13
10
9.5996230354547887
20
19.135308250722073
30
2.4646951146678475e-13
10
9.4524842245326202
20
19.055059842219944
30
2.1649348980190553e-13
10
9.3032768833692927
20
18.973683272774078
30
1.8762769116165146e-13
10
9.140701484312455
20
18.915710386669126
30
2.1538326677728037e-13
10
8.9778406970388467
20
18.87958572520882
30
2.0872192862952943e-13
10
8.885643635816491
20
18.859135206210059
30
2.042810365310288e-13
10
8.7933551133437469
20
18.845686608900031
30
1.8540724511240114e-13
10
8.7034855396083728
20
18.837440398535016
30
1.787459069646502e-13
10
8.6136159658730005
20
18.82919418817
30
1.7097434579227411e-13
10
8.526165340875
20
18.826150364750003
30
2.3092638912203256e-13
10
8.4433296857860007
20
18.826691902490005
30
2.6423307986078726e-13
0
LINE
5
138
100
AcDbEntity
8
0
100
AcDbLine
10
8.4433296857860007
20
18.826691902490005
30
2.6423307986078726e-13
11
-8.5411753114110009
21
18.826688551339998
31
2.9309887850104133e-13
0
SPLINE
5
139
100
AcDbEntity
8
0
100
AcDbSpline
70
0
71
3
72
23
73
19
74
0
42
0.000000001
43
0.0000000001
44
0.0000000001
40
0
40
0
40
0
40
0
40
0.21874538499999999
40
0.21874538499999999
40
0.21874538499999999
40
0.46342251000000001
40
0.46342251000000001
40
0.46342251000000001
40
0.59398411100000004
40
0.59398411100000004
40
0.59398411100000004
40
0.72454571099999998
40
0.72454571099999998
40
0.72454571099999998
40
0.86227285600000003
40
0.86227285600000003
40
0.86227285600000003
40
1
40
1
40
1
40
1
10
14.77561759112
20
4.9673806961049998
30
1.8873791418627661e-13
10
14.674762348010002
20
4.9673809434049998
30
1.609823385706477e-13
10
14.571531824579655
20
4.9823534386387971
30
6.2172489379008766e-14
10
14.471585903269409
20
5.0116812473572478
30
3.4416913763379853e-14
10
14.359791633042096
20
5.0444857973585213
30
4.4408920985006262e-15
10
14.252106888583743
20
5.0952509795854848
30
5.5511151231257827e-14
10
14.153631802131144
20
5.158119479781246
30
9.4368957093138306e-14
10
14.101084736499793
20
5.1916665963661215
30
1.1435297153639112e-13
10
14.051160003018705
20
5.2286599777107288
30
1.3322676295501878e-13
10
14.00522000126378
20
5.2689634495343505
30
1.5210055437364645e-13
10
13.959279999860719
20
5.3092669210492822
30
1.7208456881689926e-13
10
13.917324730122784
20
5.3528804829925143
30
1.8540724511240114e-13
10
13.879870008394853
20
5.3994403463748686
30
1.5987211554602254e-13
10
13.84035967847888
20
5.4485555307417988
30
1.3100631690576847e-13
10
13.805857455129185
20
5.5009492917511071
30
5.6621374255882984e-14
10
13.774138166839416
20
5.5545457867828487
30
1.9984014443252818e-14
10
13.742418878779949
20
5.6081422814254402
30
-1.7763568394002505e-14
10
13.71348252574
20
5.6629415100729998
30
-1.4432899320127035e-14
10
13.682930730279999
20
5.7158589800110002
30
5.440092820663267e-14
0
LINE
5
140
100
AcDbEntity
8
0
100
AcDbLine
10
13.682930730280001
20
5.7158589800110002
30
5.440092820663267e-14
11
11.790503042741138
21
8.9936527643246578
31
0
0
SPLINE
5
141
100
AcDbEntity
8
0
100
AcDbSpline
70
0
71
3
72
23
73
19
74
0
42
0.000000001
43
0.0000000001
44
0.0000000001
40
0
40
0
40
0
40
0
40
0.12533471600000001
40
0.12533471600000001
40
0.12533471600000001
40
0.250669433
40
0.250669433
40
0.250669433
40
0.38777930399999999
40
0.38777930399999999
40
0.38777930399999999
40
0.52488917499999999
40
0.52488917499999999
40
0.52488917499999999
40
0.77698703800000002
40
0.77698703800000002
40
0.77698703800000002
40
1
40
1
40
1
40
1
10
11.790503042739999
20
8.9936527643240005
30
2.964295475749168e-13
10
11.762968307640001
20
9.0413445118899993
30
2.6978419498391304e-13
10
11.732734064190616
20
9.0884492545885855
30
2.631228568361621e-13
10
11.704323156082683
20
9.1372133689647601
30
2.6867397195928788e-13
10
11.675912247748069
20
9.1859774837300083
30
2.7644553313166398e-13
10
11.649324674784005
20
9.2364009701993233
30
2.8754776337791554e-13
10
11.6274430357157
20
9.2895495295780375
30
2.8532731732866523e-13
10
11.603505624105125
20
9.3476913780193698
30
2.8310687127941492e-13
10
11.585199925272565
20
9.4090943916756871
30
2.6423307986078726e-13
10
11.571338380431817
20
9.4718415815059487
30
2.55351295663786e-13
10
11.557476835591068
20
9.5345887713362067
30
2.4757973449140991e-13
10
11.548059444742131
20
9.5986801373404145
30
2.5091040356528538e-13
10
11.543811928004628
20
9.6636820697316068
30
2.453592884421596e-13
10
11.536002206612794
20
9.7831982513688196
30
2.375877272697835e-13
10
11.545670047243293
20
9.9057927440366207
30
1.9872992140790302e-13
10
11.573530863139034
20
10.022615260778798
30
1.8984813721090177e-13
10
11.598177335753705
20
10.125959792053013
30
1.8096635301390052e-13
10
11.637061042020001
20
10.22478736177
30
1.9984014443252818e-13
10
11.688667987900001
20
10.314172300870002
30
1.9317880628477724e-13
0
LINE
5
142
100
AcDbEntity
8
0
100
AcDbLine
10
11.688667987900004
20
10.314172300869998
30
1.9317880628477724e-13
11
22.24418315240451
21
28.596674084353182
31
0
0
SPLINE
5
143
100
AcDbEntity
8
0
100
AcDbSpline
70
0
71
3
72
23
73
19
74
0
42
0.000000001
43
0.0000000001
44
0.0000000001
40
0
40
0
40
0
40
0
40
0.21594501799999999
40
0.21594501799999999
40
0.21594501799999999
40
0.45968536100000001
40
0.45968536100000001
40
0.45968536100000001
40
0.59249655300000004
40
0.59249655300000004
40
0.59249655300000004
40
0.72530774600000003
40
0.72530774600000003
40
0.72530774600000003
40
0.86265387299999996
40
0.86265387299999996
40
0.86265387299999996
40
1
40
1
40
1
40
1
10
22.244183152409999
20
28.596674084350006
30
2.3314683517128287e-13
10
22.293880888549999
20
28.682752208960007
30
1.1990408665951691e-13
10
22.35738593213857
20
28.763488882278999
30
3.5527136788005009e-14
10
22.431577289293557
20
28.83494664090761
30
-7.7715611723760958e-15
10
22.51531817393203
20
28.915602072366315
30
-5.5511151231257827e-14
10
22.612673391641607
20
28.984436192916647
30
-6.5503158452884236e-14
10
22.715642797434334
20
29.037538413740307
30
-2.6645352591003757e-14
10
22.771749592700733
20
29.066473177508314
30
-4.4408920985006262e-15
10
22.829523256972863
20
29.090737093832814
30
3.219646771412954e-14
10
22.888369794716219
20
29.110809162780132
30
6.3282712403633923e-14
10
22.947216332902659
20
29.130881231878597
30
9.6589403142388619e-14
10
23.007135744576463
20
29.146761453536744
30
1.27675647831893e-13
10
23.067284130408368
20
29.156568536618941
30
1.5543122344752192e-13
10
23.129486326267823
20
29.166710489628187
30
1.8540724511240114e-13
10
23.191933400228915
20
29.170357479809095
30
2.1538326677728037e-13
10
23.254006772571959
20
29.170862089824546
30
2.2870594307278225e-13
10
23.316080144915002
20
29.171366699840007
30
2.4424906541753444e-13
10
23.377779815640004
20
29.168728929690001
30
2.4757973449140991e-13
10
23.43870949303
20
29.168728966660002
30
2.6423307986078726e-13
0
LINE
5
144
100
AcDbEntity
8
0
100
AcDbLine
10
23.438709493030004
20
29.168728966660002
30
2.6423307986078726e-13
11
27.223356233599993
21
29.168731262881906
31
0
0
SPLINE
5
145
100
AcDbEntity
8
0
100
AcDbSpline
70
0
71
3
72
23
73
19
74
0
42
0.000000001
43
0.0000000001
44
0.0000000001
40
0
40
0
40
0
40
0
40
0.124770955
40
0.124770955
40
0.124770955
40
0.24954190900000001
40
0.24954190900000001
40
0.24954190900000001
40
0.37841107099999999
40
0.37841107099999999
40
0.37841107099999999
40
0.507280234
40
0.507280234
40
0.507280234
40
0.76521121299999995
40
0.76521121299999995
40
0.76521121299999995
40
1
40
1
40
1
40
1
10
27.223356233600001
20
29.168731262880002
30
3.3195668436292181e-13
10
27.278084776100002
20
29.168731296090002
30
2.9087843245179101e-13
10
27.333735948823012
20
29.171138603659653
30
2.3536728122053319e-13
10
27.389930756293396
20
29.171273210168174
30
1.8873791418627661e-13
10
27.446125563313398
20
29.171407816675618
30
1.4321877017664519e-13
10
27.502864005072055
20
29.169269722158383
30
9.7699626167013776e-14
10
27.559562203356126
20
29.162231193632422
30
6.6613381477509392e-14
10
27.618122702138376
20
29.154961478656499
30
2.9976021664879227e-14
10
27.676640270367152
20
29.142464125001744
30
8.8817841970012523e-15
10
27.734396111436013
20
29.124887359904911
30
-1.1102230246251565e-15
10
27.792151952953041
20
29.107310594671681
30
-1.1102230246251565e-14
10
27.849146067298349
20
29.084654417917555
30
-1.3322676295501878e-14
10
27.904536842968181
20
29.058168633946174
30
-1.3322676295501878e-14
10
28.01540120076719
20
29.005157471071477
30
-1.3322676295501878e-14
10
28.119842612634201
20
28.93680497047842
30
-6.6613381477509392e-15
10
28.210241767558625
20
28.854044652948282
30
5.773159728050814e-14
10
28.292530091407194
20
28.778709791506003
30
1.1546319456101628e-13
10
28.363182927150007
20
28.691436537020003
30
2.3536728122053319e-13
10
28.417891006470008
20
28.596680868720004
30
2.9420910152566648e-13
0
LINE
5
146
100
AcDbEntity
8
0
100
AcDbLine
10
28.417891006470015
20
28.596680868720007
30
2.9420910152566648e-13
11
38.97343954673822
21
10.314224809148973
31
0
0
SPLINE
5
147
100
AcDbEntity
8
0
100
AcDbSpline
70
0
71
3
72
23
73
19
74
0
42
0.000000001
43
0.0000000001
44
0.0000000001
40
0
40
0
40
0
40
0
40
0.21939688700000001
40
0.21939688700000001
40
0.21939688700000001
40
0.46387432200000001
40
0.46387432200000001
40
0.46387432200000001
40
0.594320297
40
0.594320297
40
0.594320297
40
0.72476627100000002
40
0.72476627100000002
40
0.72476627100000002
40
0.86238313600000005
40
0.86238313600000005
40
0.86238313600000005
40
1
40
1
40
1
40
1
10
38.973439546740003
20
10.314224809150003
30
2.7311486405778851e-13
10
39.024035251290002
20
10.226591869770001
30
3.0309088572266774e-13
10
39.062758824366746
20
10.129383626193087
30
2.2759572004815709e-13
10
39.087323597388433
20
10.027845091119625
30
2.1871393585115584e-13
10
39.114696514031948
20
9.9146990891509752
30
2.0539125955565396e-13
10
39.124488450369967
20
9.7961761647579628
30
2.7311486405778851e-13
10
39.119225552966185
20
9.679569748999608
30
2.9976021664879227e-13
10
39.116417425569239
20
9.6173519921957773
30
3.1086244689504383e-13
10
39.109323223142425
20
9.5556798607999998
30
3.0753177782116836e-13
10
39.097378387577031
20
9.4958003543866951
30
2.8199664825478976e-13
10
39.085433552103211
20
9.4359208484324277
30
2.5424107263916085e-13
10
39.068638083565169
20
9.3778339674331495
30
2.0206059048177849e-13
10
39.047049375917425
20
9.3221698757486777
30
1.6764367671839864e-13
10
39.024273891364061
20
9.2634458112506053
30
1.27675647831893e-13
10
38.996163693874905
20
9.2074182292777422
30
1.0658141036401503e-13
10
38.965627135391628
20
9.1531986484836629
30
1.0103029524088925e-13
10
38.935090577130261
20
9.0989790680835743
30
9.9920072216264089e-14
10
38.90212765791
20
9.0465674888360006
30
1.1768364061026659e-13
10
38.871604179360006
20
8.9936991394929997
30
1.3766765505351941e-13
0
LINE
5
148
100
AcDbEntity
8
0
100
AcDbLine
10
38.871604179360006
20
8.9936991394929997
30
1.3766765505351941e-13
11
36.979113595018404
21
5.7158010064879239
31
0
0
SPLINE
5
149
100
AcDbEntity
8
0
100
AcDbSpline
70
0
71
3
72
23
73
19
74
0
42
0.000000001
43
0.0000000001
44
0.0000000001
40
0
40
0
40
0
40
0
40
0.12767276899999999
40
0.12767276899999999
40
0.12767276899999999
40
0.25534553799999998
40
0.25534553799999998
40
0.25534553799999998
40
0.39022043899999997
40
0.39022043899999997
40
0.39022043899999997
40
0.52509533900000005
40
0.52509533900000005
40
0.52509533900000005
40
0.77661118600000001
40
0.77661118600000001
40
0.77661118600000001
40
1
40
1
40
1
40
1
10
36.979113595020003
20
5.7158010064870002
30
5.3290705182007514e-14
10
36.951015419329998
20
5.6671334155460009
30
2.886579864025407e-14
10
36.924788629654998
20
5.6164194317770004
30
3.8857805861880479e-14
10
36.896103304289753
20
5.5665430902542692
30
6.6613381477509392e-14
10
36.867417978924507
20
5.516666748731538
30
9.7699626167013776e-14
10
36.836274117868996
20
5.4676280494550733
30
1.4765966227514582e-13
10
36.800260352313821
20
5.4214423154134463
30
1.865174681370263e-13
10
36.762215018904534
20
5.3726512039237537
30
2.2648549702353193e-13
10
36.71873485295108
20
5.3270440128388055
30
2.4757973449140991e-13
10
36.671992421789533
20
5.2845172615238045
30
2.1760371282653068e-13
10
36.625249990974552
20
5.241990510524106
30
1.8762769116165146e-13
10
36.57524529499986
20
5.2025441992486812
30
1.1546319456101628e-13
10
36.521965726704352
20
5.166978417100947
30
5.440092820663267e-14
10
36.422609539988848
20
5.100655047659302
30
-5.2180482157382357e-14
10
36.311864950773398
20
5.0478262585522522
30
-5.6621374255882984e-14
10
36.197029295071509
20
5.0135583800858416
30
-3.3306690738754696e-15
10
36.095035717974326
20
4.9831226806250903
30
4.1078251911130792e-14
10
35.98981492011
20
4.9673286782559991
30
6.2172489379008766e-14
10
35.886421908430002
20
4.9673289317789999
30
9.5479180117763462e-14
0
LINE
5
150
100
AcDbEntity
8
0
100
AcDbLine
10
35.886421908430009
20
4.9673289317789999
30
9.5479180117763462e-14
11
14.77561759112
21
4.9673806961049998
31
1.8873791418627661e-13
0
LINE
5
151
100
AcDbEntity
8
0
100
AcDbLine
10
-14.019808686240003
20
-8.9764654561190049
30
0
11
-15.441724556146553
21
-22.503872899200363
31
0
0
SPLINE
5
152
100
AcDbEntity
8
0
100
AcDbSpline
70
0
71
3
72
26
73
22
74
0
42
0.000000001
43
0.0000000001
44
0.0000000001
40
0
40
0
40
0
40
0
40
0.100277937
40
0.100277937
40
0.100277937
40
0.200555873
40
0.200555873
40
0.200555873
40
0.39734560099999999
40
0.39734560099999999
40
0.39734560099999999
40
0.59665891000000004
40
0.59665891000000004
40
0.59665891000000004
40
0.793907429
40
0.793907429
40
0.793907429
40
0.89695371400000001
40
0.89695371400000001
40
0.89695371400000001
40
1
40
1
40
1
40
1
10
-15.441724556149998
20
-22.503872899200005
30
4.2521541843143495e-13
10
-15.446961458419999
20
-22.553694208760003
30
4.3409720262843621e-13
10
-15.450006654920186
20
-22.606155398201579
30
3.8968828164342995e-13
10
-15.455494978106943
20
-22.659975427488614
30
3.4305891460917337e-13
10
-15.460983301238967
20
-22.713795456238937
30
2.9531932455029164e-13
10
-15.468914751008839
20
-22.768974324807623
30
2.4646951146678475e-13
10
-15.48243710613546
20
-22.823914604107138
30
2.0983215165415459e-13
10
-15.50897395654777
20
-22.931731767591586
30
1.3655743202889425e-13
10
-15.557042402770907
20
-23.038630080303125
30
1.3433698597964394e-13
10
-15.61856614741745
20
-23.134271738557963
30
1.9206858326015208e-13
10
-15.680878856785959
20
-23.231139880908454
30
2.4868995751603507e-13
10
-15.756994171872194
20
-23.316460812764088
30
3.4638958368304884e-13
10
-15.846104921588877
20
-23.38940324899681
30
3.2529534621517087e-13
10
-15.934292526805923
20
-23.461590036679695
30
3.0420110874729289e-13
10
-16.035207708416266
20
-23.521653470803827
30
1.7985612998927536e-13
10
-16.139651075020002
20
-23.560337039854335
30
9.6589403142388619e-14
10
-16.194214227007006
20
-23.580546053850512
30
5.5511151231257827e-14
10
-16.249740295264083
20
-23.594920050700523
30
2.1094237467877974e-14
10
-16.304215083660608
20
-23.606522055065046
30
-3.3306690738754696e-15
10
-16.358689872585778
20
-23.618124059542165
30
-2.7755575615628914e-14
10
-16.412113381630004
20
-23.62695407148
30
-4.2188474935755949e-14
10
-16.462642318450005
20
-23.637694321080001
30
-1.1102230246251565e-14
0
LINE
5
153
100
AcDbEntity
8
0
100
AcDbLine
10
-16.462642318450005
20
-23.637694321079998
30
-1.1102230246251565e-14
11
-29.767240964670492
21
-26.465672094927612
31
0
0
SPLINE
5
154
100
AcDbEntity
8
0
100
AcDbSpline
70
0
71
3
72
26
73
22
74
0
42
0.000000001
43
0.0000000001
44
0.0000000001
40
0
40
0
40
0
40
0
40
0.102445157
40
0.102445157
40
0.102445157
40
0.20489031399999999
40
0.20489031399999999
40
0.20489031399999999
40
0.39653328500000001
40
0.39653328500000001
40
0.39653328500000001
40
0.59603892599999997
40
0.59603892599999997
40
0.59603892599999997
40
0.79012165999999995
40
0.79012165999999995
40
0.79012165999999995
40
0.89506083000000003
40
0.89506083000000003
40
0.89506083000000003
40
1
40
1
40
1
40
1
10
-29.767240964670002
20
-26.46567209493
30
1.4543921622589551e-13
10
-29.81739128549
20
-26.476331867270005
30
1.9650947535865271e-13
10
-29.869440814034999
20
-26.489927781970003
30
2.7644553313166398e-13
10
-29.923585063905222
20
-26.501459145486876
30
3.2973623831367149e-13
10
-29.977729313775448
20
-26.51299050900375
30
3.8191672047105385e-13
10
-30.033968284970882
20
-26.522457321337498
30
4.0412118096355698e-13
10
-30.091703103721553
20
-26.526269840163799
30
3.9190872769268026e-13
10
-30.199706961781196
20
-26.533401875061912
30
3.6748382115092681e-13
10
-30.312945501326073
20
-26.520746849819908
30
2.4091839634365897e-13
10
-30.420053232922438
20
-26.492663182996374
30
1.4654943925052066e-13
10
-30.531555348218863
20
-26.463427307962579
30
4.9960036108132044e-14
10
-30.636413269871223
20
-26.417470817441725
30
7.7715611723760958e-15
10
-30.733484980240316
20
-26.355329590032408
30
2.6645352591003757e-14
10
-30.827918114301369
20
-26.294877468231412
30
4.4408920985006262e-14
10
-30.914982569538871
20
-26.21910850957153
30
1.2323475573339238e-13
10
-30.983507872152046
20
-26.13348316743307
30
1.9872992140790302e-13
10
-31.020559021587246
20
-26.087186146828572
30
2.4091839634365897e-13
10
-31.052190270358622
20
-26.038007623469284
30
2.7866597918091429e-13
10
-31.080728190674311
20
-25.988901025724644
30
3.0864200084579352e-13
10
-31.109266110989999
20
-25.939794427980001
30
3.3750779948604759e-13
10
-31.134710702850001
20
-25.890759755850002
30
3.652633751016765e-13
10
-31.161062028869999
20
-25.845118897999999
30
3.6193270602780103e-13
0
LINE
5
155
100
AcDbEntity
8
0
100
AcDbLine
10
-31.161062028869999
20
-25.845118897999999
30
3.6193270602780103e-13
11
-37.962136072679286
21
-14.065565435409582
31
0
0
SPLINE
5
156
100
AcDbEntity
8
0
100
AcDbSpline
70
0
71
3
72
26
73
22
74
0
42
0.000000001
43
0.0000000001
44
0.0000000001
40
0
40
0
40
0
40
0
40
0.10059202
40
0.10059202
40
0.10059202
40
0.20118404000000001
40
0.20118404000000001
40
0.20118404000000001
40
0.394298649
40
0.394298649
40
0.394298649
40
0.59503996299999995
40
0.59503996299999995
40
0.59503996299999995
40
0.791198332
40
0.791198332
40
0.791198332
40
0.895599166
40
0.895599166
40
0.895599166
40
1
40
1
40
1
40
1
10
-37.962136072680003
20
-14.065565435410001
30
6.9944050551384862e-14
10
-37.98725866617999
20
-14.022052759130002
30
1.3322676295501878e-14
10
-38.015728020615001
20
-13.977671173840003
30
4.6629367034256575e-14
10
-38.043000286506874
20
-13.930733539741771
30
8.659739592076221e-14
10
-38.070272552398748
20
-13.883795905643538
30
1.2434497875801753e-13
10
-38.096347729747499
20
-13.834302222737072
30
1.5654144647214707e-13
10
-38.117721565910777
20
-13.78170295217476
30
1.7541523789077473e-13
10
-38.158754642028548
20
-13.680723892719282
30
2.0872192862952943e-13
10
-38.182460654547292
20
-13.568299011167003
30
2.3869795029440866e-13
10
-38.18931349178078
20
-13.456909666260241
30
2.0761170560490427e-13
10
-38.196436969170691
20
-13.341121204797018
30
1.7208456881689926e-13
10
-38.185349815127509
20
-13.226451688331871
30
4.7739590058881731e-14
10
-38.156230325997605
20
-13.114181202858212
30
2.2204460492503131e-15
10
-38.127775637821976
20
-13.004473864201705
30
-4.1078251911130792e-14
10
-38.082102576017974
20
-12.897057266692078
30
2.2204460492503131e-14
10
-38.021055821719813
20
-12.804581821869084
30
1.1435297153639112e-13
10
-37.988565074094758
20
-12.755363867961433
30
1.6431300764452317e-13
10
-37.951719484072385
20
-12.710378232685715
30
2.1094237467877974e-13
10
-37.914016214688701
20
-12.668322505135357
30
2.1427304375265521e-13
10
-37.876312945304988
20
-12.626266777584998
30
2.1538326677728037e-13
10
-37.837751996560002
20
-12.587140957760001
30
1.5765166949677223e-13
10
-37.802677343759996
20
-12.548186149219999
30
5.8841820305133297e-14
0
LINE
5
157
100
AcDbEntity
8
0
100
AcDbLine
10
-37.802677343759996
20
-12.548186149219998
30
5.8841820305133297e-14
11
-28.70115982877687
21
-2.4398074801218161
31
0
0
SPLINE
5
158
100
AcDbEntity
8
0
100
AcDbSpline
70
0
71
3
72
26
73
22
74
0
42
0.000000001
43
0.0000000001
44
0.0000000001
40
0
40
0
40
0
40
0
40
0.099562161999999996
40
0.099562161999999996
40
0.099562161999999996
40
0.19912432399999999
40
0.19912432399999999
40
0.19912432399999999
40
0.39441968999999999
40
0.39441968999999999
40
0.39441968999999999
40
0.59502766200000001
40
0.59502766200000001
40
0.59502766200000001
40
0.79044679100000004
40
0.79044679100000004
40
0.79044679100000004
40
0.89522339500000003
40
0.89522339500000003
40
0.89522339500000003
40
1
40
1
40
1
40
1
10
-28.701159828769999
20
-2.4398074801279996
30
1.2656542480726785e-13
10
-28.667914114449999
20
-2.402883937541
30
5.2180482157382357e-14
10
-28.634889403240003
20
-2.3625395959299995
30
3.219646771412954e-14
10
-28.599125598936787
20
-2.3224966370020268
30
5.773159728050814e-14
10
-28.563361794633568
20
-2.2824536780740536
30
8.3266726846886741e-14
10
-28.524858897237127
20
-2.2427121018291087
30
1.5099033134902129e-13
10
-28.482021375485807
20
-2.206381265307261
30
2.0317081350640365e-13
10
-28.397993775834482
20
-2.1351168022513014
30
3.0975222387041867e-13
10
-28.297288071091621
20
-2.0769756622066318
30
3.5194069880617462e-13
10
-28.192278590230156
20
-2.0355834474430266
30
3.4638958368304884e-13
10
-28.084412543903202
20
-1.9930652431948246
30
3.3861802251067274e-13
10
-27.972005386032684
20
-1.9682195980762887
30
3.1530333899354446e-13
10
-27.856315563993927
20
-1.9612268466920515
30
2.7311486405778851e-13
10
-27.74361812713942
20
-1.9544149669287632
30
2.298161660974074e-13
10
-27.627805645993298
20
-1.9645443738357304
30
1.5543122344752192e-13
10
-27.521344165403082
20
-1.9937935268344913
30
9.8809849191638932e-14
10
-27.464263405448136
20
-2.0094758550526599
30
6.9944050551384862e-14
10
-27.409870789758632
20
-2.0306545614932632
30
4.5519144009631418e-14
10
-27.358013045764473
20
-2.0535811712306002
30
1.9984014443252818e-14
10
-27.306155301275375
20
-2.0765077811867512
30
-7.7715611723760958e-15
10
-27.25683242853
20
-2.1011822944729994
30
-3.7747582837255322e-14
10
-27.208757131220001
20
-2.1225871210839999
30
-4.4408920985006262e-14
0
LINE
5
159
100
AcDbEntity
8
0
100
AcDbLine
10
-27.208757131219997
20
-2.1225871210839999
30
-4.4408920985006262e-14
11
-14.782655612420116
21
-7.6551280172442748
31
0
0
SPLINE
5
160
100
AcDbEntity
8
0
100
AcDbSpline
70
0
71
3
72
26
73
22
74
0
42
0.000000001
43
0.0000000001
44
0.0000000001
40
0
40
0
40
0
40
0
40
0.099596079000000004
40
0.099596079000000004
40
0.099596079000000004
40
0.19919215700000001
40
0.19919215700000001
40
0.19919215700000001
40
0.394411293
40
0.394411293
40
0.394411293
40
0.59514576500000005
40
0.59514576500000005
40
0.59514576500000005
40
0.79063223199999999
40
0.79063223199999999
40
0.79063223199999999
40
0.89531611600000005
40
0.89531611600000005
40
0.89531611600000005
40
1
40
1
40
1
40
1
10
-14.782655612420001
20
-7.6551280172440004
30
2.042810365310288e-13
10
-14.737248921050004
20
-7.6753446858899999
30
1.9539925233402755e-13
10
-14.688656439781058
20
-7.6942944965476343
30
2.0317081350640365e-13
10
-14.639505246535832
20
-7.7159449005428362
30
1.9872992140790302e-13
10
-14.590354053784109
20
-7.7375953043206556
30
1.9428902930940239e-13
10
-14.540644149067329
20
-7.761946301381812
30
1.7652546091539989e-13
10
-14.492841100581275
20
-7.7914769140059175
30
1.609823385706477e-13
10
-14.399141930784513
20
-7.849360123845047
30
1.3211653993039363e-13
10
-14.312768952202115
20
-7.9271435513406487
30
1.4099832412739488e-13
10
-14.240982183066675
20
-8.0141888875466698
30
1.5765166949677223e-13
10
-14.167167292302139
20
-8.1036934308071125
30
1.7652546091539989e-13
10
-14.108774433281841
20
-8.2029906107812849
30
1.8873791418627661e-13
10
-14.066369534298005
20
-8.3109346225323222
30
1.7319479184152442e-13
10
-14.02507326961935
20
-8.4160565444462456
30
1.5765166949677223e-13
10
-13.99893991397331
20
-8.5293790825334614
30
1.0769163338864018e-13
10
-13.993891493384758
20
-8.6397033626728756
30
3.3306690738754696e-14
10
-13.99118804140987
20
-8.698782511842305
30
-8.8817841970012523e-15
10
-13.994531012444932
20
-8.7570018653426551
30
-4.6629367034256575e-14
10
-14.000312212384966
20
-8.8133514104278277
30
-6.106226635438361e-14
10
-14.006093412325004
20
-8.869700955513002
30
-7.2164496600635175e-14
10
-14.01431284117
20
-8.9241806921830005
30
-6.6613381477509392e-14
10
-14.019808686240001
20
-8.9764654561190014
30
-5.3290705182007514e-14
0
SPLINE
5
161
100
AcDbEntity
8
0
100
AcDbSpline
70
0
71
3
72
17
73
13
74
0
42
0.000000001
43
0.0000000001
44
0.0000000001
40
0
40
0
40
0
40
0
40
0.30527625200000003
40
0.30527625200000003
40
0.30527625200000003
40
0.63913723899999997
40
0.63913723899999997
40
0.63913723899999997
40
0.81956861999999997
40
0.81956861999999997
40
0.81956861999999997
40
1
40
1
40
1
40
1
10
-38.127734942890001
20
10.492506123
30
-4.4408920985006262e-14
10
-38.230132540390002
20
10.551625368910001
30
-2.2204460492503131e-15
10
-38.326086234086105
20
10.62260082777691
30
7.7715611723760958e-15
10
-38.408929293656705
20
10.707721706038232
30
-3.3306690738754696e-15
10
-38.499529415523831
20
10.800812931590331
30
-1.6653345369377348e-14
10
-38.57444870901147
20
10.910822628953646
30
-1.2212453270876722e-14
10
-38.628658496833005
20
11.029310755474814
30
1.1102230246251565e-14
10
-38.657955561363508
20
11.093346318576767
30
2.6645352591003757e-14
10
-38.681203919101179
20
11.159858209837694
30
3.9968028886505635e-14
10
-38.698622879837423
20
11.227872466113645
30
4.7739590058881731e-14
10
-38.716041840477111
20
11.295886722012636
30
5.1070259132757201e-14
10
-38.727631404180002
20
11.365403342910001
30
4.5519144009631418e-14
10
-38.734390736720002
20
11.435388237390001
30
7.8825834748386114e-14
0
LINE
5
162
100
AcDbEntity
8
0
100
AcDbLine
10
-38.734390736720002
20
11.435388237390001
30
7.8825834748386114e-14
11
-38.848521379872636
21
12.617076069929665
31
0
0
ARC
5
163
100
AcDbEntity
8
0
100
AcDbCircle
10
-37.659427287803638
20
12.733240584675229
30
0
40
1.194754767420128
210
0
220
0
230
1
100
AcDbArc
50
180.42007871135121
51
185.57961186585109
0
LINE
5
164
100
AcDbEntity
8
0
100
AcDbLine
10
-38.854149943552272
20
12.724481011965697
30
0
11
-38.899890272112202
21
18.14712651468998
31
0
0
SPLINE
5
165
100
AcDbEntity
8
0
100
AcDbSpline
70
0
71
3
72
35
73
31
74
0
42
0.000000001
43
0.0000000001
44
0.0000000001
40
0
40
0
40
0
40
0
40
0.053228049999999999
40
0.053228049999999999
40
0.053228049999999999
40
0.1064561
40
0.1064561
40
0.1064561
40
0.212912199
40
0.212912199
40
0.212912199
40
0.33079361099999999
40
0.33079361099999999
40
0.33079361099999999
40
0.44867502300000001
40
0.44867502300000001
40
0.44867502300000001
40
0.57902164099999998
40
0.57902164099999998
40
0.57902164099999998
40
0.70936825800000003
40
0.70936825800000003
40
0.70936825800000003
40
0.85468412900000001
40
0.85468412900000001
40
0.85468412900000001
40
0.92734206500000005
40
0.92734206500000005
40
0.92734206500000005
40
1
40
1
40
1
40
1
10
-38.89989027211
20
18.147126514690001
30
2.808864252301646e-13
10
-38.900064232250003
20
18.167749982149999
30
3.0642155479654321e-13
10
-38.901739202050003
20
18.188333923839998
30
3.4527936065842368e-13
10
-38.904245818314095
20
18.208929975000895
30
3.7081449022480228e-13
10
-38.906752434578188
20
18.229526026161793
30
3.9523939676655573e-13
10
-38.910090697306373
20
18.250134186793584
30
4.1078251911130792e-13
10
-38.913630351770991
20
18.270797601358417
30
4.0967229608668276e-13
10
-38.920709660633712
20
18.312124430099892
30
4.0856207306205761e-13
10
-38.928594536427077
20
18.353672274569369
30
3.4083846855992306e-13
10
-38.934246543044978
20
18.395595300381547
30
3.0087043967341742e-13
10
-38.940505146610271
20
18.442017680352958
30
2.5313084961453569e-13
10
-38.944025880060138
20
18.488900095241483
30
2.4757973449140991e-13
10
-38.945431365282097
20
18.536130735277204
30
2.1871393585115584e-13
10
-38.946836850504056
20
18.583361375312926
30
1.9095836023552692e-13
10
-38.946127087498098
20
18.630940240495853
30
1.3655743202889425e-13
10
-38.94461119842093
20
18.678502964277047
30
1.1657341758564144e-13
10
-38.942935013761115
20
18.731095142149389
30
9.3258734068513149e-14
10
-38.940273203800345
20
18.78366758443136
30
1.1879386363489175e-13
10
-38.935407808236107
20
18.836150790003281
30
1.2545520178264269e-13
10
-38.930542412709194
20
18.888633995172551
30
1.3322676295501878e-13
10
-38.923473431612614
20
18.941027963633143
30
1.1213252548714081e-13
10
-38.916615388004494
20
18.994624300574003
30
1.0769163338864018e-13
10
-38.908969753593659
20
19.054375743029709
30
1.021405182655144e-13
10
-38.901586287581495
20
19.115621576176082
30
1.1657341758564144e-13
10
-38.889334201588611
20
19.176148772073187
30
1.4321877017664519e-13
10
-38.883208158550019
20
19.206412370230005
30
1.5876189252139739e-13
10
-38.87586496049947
20
19.236496309072024
30
1.7652546091539989e-13
10
-38.866024475867064
20
19.265834456141285
30
2.0095036745715333e-13
10
-38.856183991370102
20
19.295172602806765
30
2.2648549702353193e-13
10
-38.843846220360007
20
19.323764957720002
30
2.6090241078691179e-13
10
-38.82803197393001
20
19.351155529180001
30
2.7644553313166398e-13
0
LINE
5
166
100
AcDbEntity
8
0
100
AcDbLine
10
-38.828031973930003
20
19.351155529180001
30
2.7644553313166398e-13
11
-36.183090453150832
21
23.932243856400426
31
0
0
SPLINE
5
167
100
AcDbEntity
8
0
100
AcDbSpline
70
0
71
3
72
38
73
34
74
0
42
0.000000001
43
0.0000000001
44
0.0000000001
40
0
40
0
40
0
40
0
40
0.053019043000000002
40
0.053019043000000002
40
0.053019043000000002
40
0.106038086
40
0.106038086
40
0.106038086
40
0.21207617100000001
40
0.21207617100000001
40
0.21207617100000001
40
0.32972731100000002
40
0.32972731100000002
40
0.32972731100000002
40
0.44737845100000001
40
0.44737845100000001
40
0.44737845100000001
40
0.57787571999999998
40
0.57787571999999998
40
0.57787571999999998
40
0.70837298900000001
40
0.70837298900000001
40
0.70837298900000001
40
0.78127974200000005
40
0.78127974200000005
40
0.78127974200000005
40
0.85418649400000002
40
0.85418649400000002
40
0.85418649400000002
40
0.92709324699999995
40
0.92709324699999995
40
0.92709324699999995
40
1
40
1
40
1
40
1
10
-36.183090453150001
20
23.9322438564
30
-5.2180482157382357e-14
10
-36.171757493680005
20
23.951872754789999
30
1.8873791418627661e-13
10
-36.158542226045
20
23.970056902190002
30
3.4527936065842368e-13
10
-36.144048975809071
20
23.987198920951709
30
3.4972025275692431e-13
10
-36.12955572557312
20
24.004340939713416
30
3.5416114485542494e-13
10
-36.113784492736265
20
24.020440829836826
30
3.3639757646142243e-13
10
-36.097418919660392
20
24.035950996208399
30
3.397282455352979e-13
10
-36.064687773817305
20
24.066971328659001
30
3.5083047578154947e-13
10
-36.029579267063056
20
24.095632766146696
30
3.0198066269804258e-13
10
-35.995146214251143
20
24.124032349259473
30
2.9531932455029164e-13
10
-35.956942130152463
20
24.155542191489673
30
2.8754776337791554e-13
10
-35.919569549911245
20
24.186729683209848
30
3.8413716652030416e-13
10
-35.881224516554376
20
24.216418159671015
30
4.4853010194856324e-13
10
-35.842879483197521
20
24.24610663613219
30
5.1292303737682232e-13
10
-35.803561996725023
20
24.274296097334368
30
5.1514348342607263e-13
10
-35.76395242079596
20
24.301222875078103
30
4.4853010194856324e-13
10
-35.720017942260597
20
24.331089742143959
30
3.730349362740526e-13
10
-35.675724106445301
20
24.359403131386983
30
2.3314683517128287e-13
10
-35.630984419343669
20
24.386389726819473
30
1.3877787807814457e-13
10
-35.586244732242037
20
24.41337632225196
30
4.3298697960381105e-14
10
-35.541059193854082
20
24.439036123873919
30
-2.2204460492503131e-15
10
-35.49446023429504
20
24.461365063227731
30
2.55351295663786e-14
10
-35.468426135185815
20
24.473839887250453
30
4.2188474935755949e-14
10
-35.441950867816338
20
24.485275056043658
30
8.4376949871511897e-14
10
-35.415202461144617
20
24.496024870131894
30
1.4099832412739488e-13
10
-35.388454054839784
20
24.506774684072688
30
1.9872992140790302e-13
10
-35.36143250924021
20
24.516839143327317
30
2.6978419498391304e-13
10
-35.334450759231657
20
24.526983159234014
30
2.9087843245179101e-13
10
-35.307469008853033
20
24.537127175279863
30
3.141931159689193e-13
10
-35.280527054066503
20
24.54735074797993
30
2.8421709430404007e-13
10
-35.254032133673256
20
24.558623168799969
30
2.0761170560490427e-13
10
-35.227537213280009
20
24.569895589620007
30
1.3100631690576847e-13
10
-35.201489327280001
20
24.582216858559999
30
-9.9920072216264089e-14
10
-35.17627804384
20
24.596490392090004
30
7.8825834748386114e-14
0
LINE
5
168
100
AcDbEntity
8
0
100
AcDbLine
10
-35.176278043840007
20
24.596490392090004
30
7.8825834748386114e-14
11
-30.457347069878765
21
27.268144123757601
31
0
0
ARC
5
169
100
AcDbEntity
8
0
100
AcDbCircle
10
-29.867578918756045
20
26.229098710586175
30
0
40
1.194755976221813
210
0
220
0
230
1
100
AcDbArc
50
114.41998702753558
51
119.57949332699664
0
LINE
5
170
100
AcDbEntity
8
0
100
AcDbLine
10
-30.361517427972565
20
27.316971217744388
30
0
11
-29.28108596372779
21
27.808971203185109
31
0
0
SPLINE
5
171
100
AcDbEntity
8
0
100
AcDbSpline
70
0
71
3
72
17
73
13
74
0
42
0.000000001
43
0.0000000001
44
0.0000000001
40
0
40
0
40
0
40
0
40
0.30479922100000001
40
0.30479922100000001
40
0.30479922100000001
40
0.63817336099999999
40
0.63817336099999999
40
0.63817336099999999
40
0.81908668100000004
40
0.81908668100000004
40
0.81908668100000004
40
1
40
1
40
1
40
1
10
-29.281085963730003
20
27.808971203190005
30
1.021405182655144e-13
10
-29.173655929880002
20
27.857892006440004
30
2.5202062658991053e-13
10
-29.060341017878791
20
27.894734925280943
30
3.8524738954492932e-13
10
-28.943128511953567
20
27.91274629406184
30
3.5305092183079978e-13
10
-28.814927336662297
20
27.932446228195062
30
3.1974423109204508e-13
10
-28.682063512612554
20
27.92961818603851
30
2.0983215165415459e-13
10
-28.554287068509161
20
27.90507156458429
30
1.8873791418627661e-13
10
-28.484946175059726
20
27.891750762970638
30
1.787459069646502e-13
10
-28.417103487307358
20
27.872033957995818
30
1.7763568394002505e-13
10
-28.351432866421934
20
27.846666610887432
30
1.4988010832439613e-13
10
-28.285762245899505
20
27.821299263919272
30
1.2434497875801753e-13
10
-28.222263692220004
20
27.790281374879999
30
6.4392935428259079e-14
10
-28.161205214479999
20
27.755029225710004
30
3.6637359812630166e-14
0
LINE
5
172
100
AcDbEntity
8
0
100
AcDbLine
10
-28.161205214479999
20
27.75502922571
30
3.6637359812630166e-14
11
-12.625019122651029
21
18.785202758888229
31
0
0
SPLINE
5
173
100
AcDbEntity
8
0
100
AcDbSpline
70
0
71
3
72
17
73
13
74
0
42
0.000000001
43
0.0000000001
44
0.0000000001
40
0
40
0
40
0
40
0
40
0.30539982500000001
40
0.30539982500000001
40
0.30539982500000001
40
0.63938545300000005
40
0.63938545300000005
40
0.63938545300000005
40
0.81969272699999995
40
0.81969272699999995
40
0.81969272699999995
40
1
40
1
40
1
40
1
10
-12.625019122649999
20
18.785202758890001
30
2.3536728122053319e-13
10
-12.522579156719999
20
18.726058982400001
30
1.3655743202889425e-13
10
-12.42659066255721
20
18.655046947337915
30
1.6653345369377348e-13
10
-12.343724826823358
20
18.569880986371508
30
1.6764367671839864e-13
10
-12.253102645925528
20
18.476743385662051
30
1.6986412276764895e-13
10
-12.178174687854778
20
18.366678203683655
30
1.7319479184152442e-13
10
-12.123974699755761
20
18.248134096636583
30
1.8318679906315083e-13
10
-12.094714003229733
20
18.184136238649657
30
1.8873791418627661e-13
10
-12.071494569225473
20
18.1176671588155
30
1.9984014443252818e-13
10
-12.05409644101594
20
18.049698790005454
30
2.0761170560490427e-13
10
-12.036698312902899
20
17.981730421572376
30
2.1760371282653068e-13
10
-12.025121490520004
20
17.912262764179999
30
2.0650148258027912e-13
10
-12.018366952420003
20
17.842328064309999
30
1.9872992140790302e-13
0
LINE
5
174
100
AcDbEntity
8
0
100
AcDbLine
10
-12.018366952420003
20
17.842328064309999
30
1.9872992140790302e-13
11
-11.904236316290476
21
16.660649661779949
31
0
0
ARC
5
175
100
AcDbEntity
8
0
100
AcDbCircle
10
-13.093331178758898
20
16.544479037489634
30
0
40
1.194756128211085
210
0
220
-0
230
1
100
AcDbArc
50
0.42040728084285667
51
5.5798998751453333
0
LINE
5
176
100
AcDbEntity
8
0
100
AcDbLine
10
-11.898607212508399
20
16.553245471463502
30
0
11
-11.852864398428073
21
11.130856120500026
31
0
0
SPLINE
5
177
100
AcDbEntity
8
0
100
AcDbSpline
70
0
71
3
72
35
73
31
74
0
42
0.000000001
43
0.0000000001
44
0.0000000001
40
0
40
0
40
0
40
0
40
0.053228108000000003
40
0.053228108000000003
40
0.053228108000000003
40
0.10645621600000001
40
0.10645621600000001
40
0.10645621600000001
40
0.21291243200000001
40
0.21291243200000001
40
0.21291243200000001
40
0.33079393000000001
40
0.33079393000000001
40
0.33079393000000001
40
0.44867542700000002
40
0.44867542700000002
40
0.44867542700000002
40
0.57902203500000005
40
0.57902203500000005
40
0.57902203500000005
40
0.70936864200000005
40
0.70936864200000005
40
0.70936864200000005
40
0.85468432100000002
40
0.85468432100000002
40
0.85468432100000002
40
0.927342161
40
0.927342161
40
0.927342161
40
1
40
1
40
1
40
1
10
-11.85286439843
20
11.130856120500001
30
-7.7715611723760958e-15
10
-11.852690418290003
20
11.110232376940001
30
9.9920072216264089e-15
10
-11.851015414899997
20
11.089648166665
30
4.8849813083506888e-14
10
-11.848508755273748
20
11.069051853167499
30
6.8833827526759706e-14
10
-11.846002095647499
20
11.048455539669998
30
8.7707618945387367e-14
10
-11.842663779784999
20
11.02784712295
30
9.3258734068513149e-14
10
-11.839124066656536
20
11.00718345723805
30
8.7707618945387367e-14
10
-11.832044640399609
20
10.965856125814142
30
7.5495165674510645e-14
10
-11.824159625078838
20
10.924307798422442
30
4.7739590058881731e-14
10
-11.818507476642015
20
10.882384300350047
30
6.106226635438361e-14
10
-11.812248718349769
20
10.835961414586631
30
7.8825834748386114e-14
10
-11.80872782533995
20
10.789078507319463
30
1.3766765505351941e-13
10
-11.80732215580819
20
10.741847381390013
30
1.4210854715202004e-13
10
-11.805916486288359
20
10.694616255861229
30
1.4543921622589551e-13
10
-11.806626040210695
20
10.647036911676073
30
9.8809849191638932e-14
10
-11.808141682276293
20
10.599473708685885
30
1.0436096431476471e-13
10
-11.809817592467638
20
10.546881042888751
30
1.1213252548714081e-13
10
-11.812479080014031
20
10.494308112397713
30
1.8762769116165146e-13
10
-11.817344106218851
20
10.441824410007694
30
2.0095036745715333e-13
10
-11.822209132386345
20
10.389340708020324
30
2.1316282072803006e-13
10
-11.829277697178455
20
10.336946234132609
30
1.5210055437364645e-13
10
-11.836135181329318
20
10.283349394560503
30
1.2212453270876722e-13
10
-11.843780182519216
20
10.223597466114258
30
8.8817841970012523e-14
10
-11.851162838042805
20
10.162351154171912
30
1.1435297153639112e-13
10
-11.863414050956164
20
10.101823432559481
30
1.3322676295501878e-13
10
-11.869539657455
20
10.071559571544999
30
1.4099832412739488e-13
10
-11.87688240331803
20
10.041475358115473
30
1.4876988529977098e-13
10
-11.886722451546682
20
10.012136912586961
30
1.4765966227514582e-13
10
-11.896562499639902
20
9.982798467462235
30
1.4765966227514582e-13
10
-11.90889985003
20
9.9542057902180012
30
1.4543921622589551e-13
10
-11.924713716629999
20
9.9268148629810007
30
1.4210854715202004e-13
0
LINE
5
178
100
AcDbEntity
8
0
100
AcDbLine
10
-11.924713716629999
20
9.9268148629810007
30
1.4210854715202004e-13
11
-14.569712891690347
21
5.3454571337862422
31
0
0
SPLINE
5
179
100
AcDbEntity
8
0
100
AcDbSpline
70
0
71
3
72
38
73
34
74
0
42
0.000000001
43
0.0000000001
44
0.0000000001
40
0
40
0
40
0
40
0
40
0.053018965000000001
40
0.053018965000000001
40
0.053018965000000001
40
0.10603793
40
0.10603793
40
0.10603793
40
0.21207586
40
0.21207586
40
0.21207586
40
0.32972694299999999
40
0.32972694299999999
40
0.32972694299999999
40
0.44737802599999998
40
0.44737802599999998
40
0.44737802599999998
40
0.57787534299999999
40
0.57787534299999999
40
0.57787534299999999
40
0.70837265999999999
40
0.70837265999999999
40
0.70837265999999999
40
0.78127949500000005
40
0.78127949500000005
40
0.78127949500000005
40
0.85418632999999999
40
0.85418632999999999
40
0.85418632999999999
40
0.92709316500000005
40
0.92709316500000005
40
0.92709316500000005
40
1
40
1
40
1
40
1
10
-14.569712891690001
20
5.3454571337859988
30
2.2204460492503131e-15
10
-14.581045285960002
20
5.3258284879309992
30
1.8762769116165146e-13
10
-14.594259941525003
20
5.3076445013139999
30
3.2085445411667024e-13
10
-14.608752554062503
20
5.2905025834411248
30
2.6978419498391304e-13
10
-14.623245166599997
20
5.2733606655682497
30
2.1538326677728037e-13
10
-14.639015736110004
20
5.2572608164395005
30
1.0880185641326534e-13
10
-14.65538064490439
20
5.2417506677407752
30
6.3282712403633923e-14
10
-14.68811046249316
20
5.210730370343323
30
-3.219646771412954e-14
10
-14.723217637219486
20
5.1820688746659709
30
6.9944050551384862e-14
10
-14.757649456171279
20
5.1536693065720343
30
1.7985612998927536e-13
10
-14.795852208614091
20
5.1221594502122949
30
2.9976021664879227e-13
10
-14.833223576422043
20
5.0909720351146479
30
3.8413716652030416e-13
10
-14.871567426328259
20
5.0612836364062774
30
4.163336342344337e-13
10
-14.909911276234475
20
5.031595237697907
30
4.4853010194856324e-13
10
-14.949227608238953
20
5.0034058553788157
30
4.496403249731884e-13
10
-14.988836060293282
20
4.9764791849480723
30
4.0412118096355698e-13
10
-15.032769329684541
20
4.946612411456873
30
3.5305092183079978e-13
10
-15.077061994607273
20
4.9182991534139369
30
2.3203661214665772e-13
10
-15.12180053762253
20
4.8913127133840213
30
1.2101430968414206e-13
10
-15.166539080637788
20
4.8643262733541084
30
1.1102230246251565e-14
10
-15.211723501745569
20
4.8386666513372152
30
-6.5503158452884236e-14
10
-15.258321352168389
20
4.8163378774267276
30
-3.8857805861880479e-14
10
-15.284354851325553
20
4.8038631363924402
30
-2.4424906541753444e-14
10
-15.310829521952773
20
4.7924280477412191
30
1.2212453270876722e-14
10
-15.33757733759639
20
4.7816783191719425
30
3.219646771412954e-14
10
-15.364325153240006
20
4.7709285906026659
30
5.5511151231257827e-14
10
-15.391346113900005
20
4.7608642221153339
30
5.1070259132757201e-14
10
-15.41832728846
20
4.750720315223667
30
3.1086244689504383e-14
10
-15.445308463019998
20
4.740576408332001
30
9.9920072216264089e-15
10
-15.472249851479997
20
4.7303529630360011
30
-8.8817841970012523e-15
10
-15.498744220227499
20
4.7190807043305005
30
4.2188474935755949e-14
10
-15.525238588975
20
4.707808445625
30
9.5479180117763462e-14
10
-15.551285938010002
20
4.6954873735099998
30
3.1752378504279477e-13
10
-15.57649670428
20
4.6812140871730001
30
1.6875389974302379e-13
0
LINE
5
180
100
AcDbEntity
8
0
100
AcDbLine
10
-15.57649670428
20
4.6812140871730001
30
1.6875389974302379e-13
11
-20.295383034441539
21
2.0095770937607504
31
0
0
ARC
5
181
100
AcDbEntity
8
0
100
AcDbCircle
10
-20.885160181493291
20
3.0486161734239854
30
1.0946799022804043e-12
40
1.1947549088660205
210
3.7880049885591258e-13
220
-8.3426754561905573e-13
230
1
100
AcDbArc
50
294.42049894746179
51
299.58001844231069
0
LINE
5
182
100
AcDbEntity
8
0
100
AcDbLine
10
-20.391212393771955
20
1.9607490513614363
30
0
11
-21.471646724718703
21
1.4687460053671675
31
0
0
SPLINE
5
183
100
AcDbEntity
8
0
100
AcDbSpline
70
0
71
3
72
17
73
13
74
0
42
0.000000001
43
0.0000000001
44
0.0000000001
40
0
40
0
40
0
40
0
40
0.30506030899999997
40
0.30506030899999997
40
0.30506030899999997
40
0.63868078699999997
40
0.63868078699999997
40
0.63868078699999997
40
0.81934039400000003
40
0.81934039400000003
40
0.81934039400000003
40
1
40
1
40
1
40
1
10
-21.471646724719999
20
1.4687460053700003
30
-1.4432899320127035e-14
10
-21.579173182980004
20
1.4197811183119999
30
-9.9920072216264089e-15
10
-21.692595174757692
20
1.3829199234650866
30
-2.55351295663786e-14
10
-21.809915332567769
20
1.364922733567997
30
3.4416913763379853e-14
10
-21.938219166180009
20
1.3452406218052249
30
1.0103029524088925e-13
10
-22.071185236524492
20
1.3481200059006349
30
2.1538326677728037e-13
10
-22.199042795965838
20
1.3727491800690148
30
2.5757174171303632e-13
10
-22.268279242658569
20
1.3860861819001613
30
2.808864252301646e-13
10
-22.336017691996762
20
1.4058009968766445
30
2.7977620220553945e-13
10
-22.401588527477596
20
1.4311493833933506
30
2.5424107263916085e-13
10
-22.467159362595478
20
1.4564977697697457
30
2.2759572004815709e-13
10
-22.530562583879998
20
1.4874797276240002
30
1.7763568394002505e-13
10
-22.59153325942
20
1.5226811429800002
30
1.8096635301390052e-13
0
LINE
5
184
100
AcDbEntity
8
0
100
AcDbLine
10
-22.591533259420004
20
1.5226811429800002
30
1.8096635301390052e-13
11
-38.127734942890001
21
10.492506123
31
-4.4408920985006262e-14
0
LINE
5
185
100
AcDbEntity
8
0
100
AcDbLine
10
12.647242048480001
20
-35.326121925080002
30
0
11
0.57687034920665958
21
-41.542393971551761
31
0
0
SPLINE
5
186
100
AcDbEntity
8
0
100
AcDbSpline
70
0
71
3
72
26
73
22
74
0
42
0.000000001
43
0.0000000001
44
0.0000000001
40
0
40
0
40
0
40
0
40
0.133768638
40
0.133768638
40
0.133768638
40
0.26753727500000002
40
0.26753727500000002
40
0.26753727500000002
40
0.53902641699999998
40
0.53902641699999998
40
0.53902641699999998
40
0.66147221300000003
40
0.66147221300000003
40
0.66147221300000003
40
0.78391800899999997
40
0.78391800899999997
40
0.78391800899999997
40
0.89195900500000003
40
0.89195900500000003
40
0.89195900500000003
40
1
40
1
40
1
40
1
10
-0.57854287368760005
20
-41.539739258570009
30
1.2323475573339238e-13
10
-0.52966756082980004
20
-41.564907392290003
30
8.5487172896137054e-14
10
-0.48006197801363459
20
-41.588827195514412
30
5.9952043329758453e-14
10
-0.4292966271430485
20
-41.609626967163173
30
3.8857805861880479e-14
10
-0.37853127665196351
20
-41.630426738656453
30
2.1094237467877974e-14
10
-0.32660615812379834
20
-41.648106478620726
30
-2.2204460492503131e-15
10
-0.27340236720665273
20
-41.661590130662766
30
-1.3322676295501878e-14
10
-0.16542300918087527
20
-41.688955776347854
30
-3.6637359812630166e-14
10
-0.052176744597733568
20
-41.699037555435517
30
-2.1094237467877974e-14
10
0.062601935283209606
20
-41.6922712165847
30
-3.4416913763379853e-14
10
0.11436889258513827
20
-41.689219493261653
30
-3.8857805861880479e-14
10
0.16644756603911909
20
-41.682740611190837
30
-4.5519144009631418e-14
10
0.21712134858240587
20
-41.673282774843941
30
-3.3306690738754696e-14
10
0.26779513112569231
20
-41.663824938497036
30
-2.1094237467877974e-14
10
0.31706402275828449
20
-41.651388147874087
30
7.7715611723760958e-15
10
0.36466549782328117
20
-41.636199714412157
30
3.3306690738754696e-14
10
0.40666702784797415
20
-41.622798082567591
30
5.773159728050814e-14
10
0.44737038206045698
20
-41.60725414492687
30
8.3266726846886741e-14
10
0.48239959182596504
20
-41.591647402164952
30
1.1879386363489175e-13
10
0.51742880126725166
20
-41.576040659547495
30
1.5654144647214707e-13
10
0.54678386636659204
20
-41.560371111809992
30
-1.0753098411697692e-09
10
0.57687034921092295
20
-41.542393971560038
30
-4.4052517189641094e-09
0
LINE
5
187
100
AcDbEntity
8
0
100
AcDbLine
10
-0.57854287368760005
20
-41.539739258570009
30
1.2323475573339238e-13
11
-12.645161075939022
21
-35.326085724408117
31
0
0
SPLINE
5
188
100
AcDbEntity
8
0
100
AcDbSpline
70
0
71
3
72
35
73
31
74
0
42
0.000000001
43
0.0000000001
44
0.0000000001
40
0
40
0
40
0
40
0
40
0.065194076000000004
40
0.065194076000000004
40
0.065194076000000004
40
0.13038815200000001
40
0.13038815200000001
40
0.13038815200000001
40
0.27402853100000002
40
0.27402853100000002
40
0.27402853100000002
40
0.43333218299999998
40
0.43333218299999998
40
0.43333218299999998
40
0.58986698000000004
40
0.58986698000000004
40
0.58986698000000004
40
0.73022408599999999
40
0.73022408599999999
40
0.73022408599999999
40
0.79913782
40
0.79913782
40
0.79913782
40
0.868051554
40
0.868051554
40
0.868051554
40
0.934025777
40
0.934025777
40
0.934025777
40
1
40
1
40
1
40
1
10
-12.645161075940001
20
-35.32608572441
30
1.6875389974302379e-13
10
-12.678790256340001
20
-35.308768521509997
30
1.9650947535865271e-13
10
-12.715745486459999
20
-35.293803805139994
30
1.9761969838327786e-13
10
-12.754257877860322
20
-35.278503528933278
30
2.2204460492503131e-13
10
-12.792770269260643
20
-35.263203252726555
30
2.4424906541753444e-13
10
-12.832839821941286
20
-35.247567416683133
30
3.2307490016592055e-13
10
-12.872984356653225
20
-35.229624541822815
30
3.0420110874729289e-13
10
-12.961433745533315
20
-35.190091481406625
30
2.6423307986078726e-13
10
-13.050247128239434
20
-35.139359099349178
30
2.5313084961453569e-13
10
-13.133801795290523
20
-35.078870483870233
30
1.9650947535865271e-13
10
-13.226467685589258
20
-35.011785884001426
30
1.3655743202889425e-13
10
-13.312665455897161
20
-34.932701303040574
30
1.1657341758564144e-13
10
-13.38754909820954
20
-34.840540104726571
30
1.0769163338864018e-13
10
-13.461131188769446
20
-34.749980759173333
30
9.7699626167013776e-14
10
-13.523789034814842
20
-34.646795414917868
30
8.5487172896137054e-14
10
-13.568823239961979
20
-34.533581147201915
30
9.3258734068513149e-14
10
-13.60920321186984
20
-34.432067443673617
30
1.0103029524088925e-13
10
-13.635414071026783
20
-34.322490653289314
30
1.609823385706477e-13
10
-13.643285747342862
20
-34.209026705276187
30
1.8762769116165146e-13
10
-13.647150650397929
20
-34.153317204312501
30
1.9872992140790302e-13
10
-13.646594530853967
20
-34.096670627151255
30
1.9761969838327786e-13
10
-13.641275881835975
20
-34.040985534153741
30
1.6320278461989801e-13
10
-13.635957232817976
20
-33.985300441156234
30
1.27675647831893e-13
10
-13.625876054325957
20
-33.930576832322437
30
6.7723604502134549e-14
10
-13.611818352805829
20
-33.878463242027721
30
4.8849813083506888e-14
10
-13.598360281662046
20
-33.828572553657324
30
3.3306690738754696e-14
10
-13.58125768911102
20
-33.781073972253665
30
5.8841820305133297e-14
10
-13.56287251855051
20
-33.736444731226833
30
1.1213252548714081e-13
10
-13.54448734799
20
-33.6918154902
30
1.6431300764452317e-13
10
-13.524819599420002
20
-33.65005558955
30
2.2648549702353193e-13
10
-13.50694212064
20
-33.611058359120001
30
2.3314683517128287e-13
0
LINE
5
189
100
AcDbEntity
8
0
100
AcDbLine
10
-13.50694212064
20
-33.611058359120001
30
2.3314683517128287e-13
11
-6.4493644596255306
21
-18.21593549324205
31
0
0
SPLINE
5
190
100
AcDbEntity
8
0
100
AcDbSpline
70
0
71
3
72
35
73
31
74
0
42
0.000000001
43
0.0000000001
44
0.0000000001
40
0
40
0
40
0
40
0
40
0.081212637000000004
40
0.081212637000000004
40
0.081212637000000004
40
0.16242527300000001
40
0.16242527300000001
40
0.16242527300000001
40
0.34178805800000001
40
0.34178805800000001
40
0.34178805800000001
40
0.53960802799999996
40
0.53960802799999996
40
0.53960802799999996
40
0.64867416200000005
40
0.64867416200000005
40
0.64867416200000005
40
0.75774029600000004
40
0.75774029600000004
40
0.75774029600000004
40
0.818305222
40
0.818305222
40
0.818305222
40
0.87887014799999996
40
0.87887014799999996
40
0.87887014799999996
40
0.93943507400000004
40
0.93943507400000004
40
0.93943507400000004
40
1
40
1
40
1
40
1
10
-6.4493644596300008
20
-18.21593549324
30
6.9944050551384862e-14
10
-6.4358365506349999
20
-18.186426243589999
30
-6.6613381477509392e-14
10
-6.4178471931407453
20
-18.159031021706337
30
-7.1054273576010019e-14
10
-6.3978263441169876
20
-18.132721584845733
30
-4.5519144009631418e-14
10
-6.3778054953397518
20
-18.106412148309094
30
-2.2204460492503131e-14
10
-6.3557531550830459
20
-18.081188496768771
30
3.6637359812630166e-14
10
-6.3332442047052826
20
-18.056507296842099
30
8.8817841970012523e-14
10
-6.2835318911290727
20
-18.001997445000931
30
2.0539125955565396e-13
10
-6.2315923581728914
20
-17.950133523880368
30
2.6645352591003757e-13
10
-6.1781528710413545
20
-17.903723417769061
30
2.0317081350640365e-13
10
-6.1192142359104631
20
-17.852537516531875
30
1.3211653993039363e-13
10
-6.0584510599887071
20
-17.807985623262216
30
-5.9952043329758453e-14
10
-5.9956040007743061
20
-17.766272041880697
30
-9.2148511043887993e-14
10
-5.9609538803553006
20
-17.743273660794209
30
-1.1213252548714081e-13
10
-5.925670309021152
20
-17.721138058957106
30
-7.6605388699135801e-14
10
-5.8895396045696025
20
-17.700888758532468
30
6.6613381477509392e-15
10
-5.8534089001180529
20
-17.68063945810783
30
8.7707618945387367e-14
10
-5.8164310625491069
20
-17.662276459095665
30
2.1316282072803006e-13
10
-5.7786579995754614
20
-17.646315634357574
30
2.6201263381153694e-13
10
-5.7576824439204657
20
-17.637452514948187
30
2.8754776337791554e-13
10
-5.7364616700152329
20
-17.6293301376841
30
2.8421709430404007e-13
10
-5.715166649153117
20
-17.621651450465382
30
2.4868995751603507e-13
10
-5.693871628291002
20
-17.613972763246664
30
2.1316282072803006e-13
10
-5.6725023604720013
20
-17.606737766073334
30
1.4432899320127035e-13
10
-5.6512960592203338
20
-17.599473224941665
30
9.9920072216264089e-14
10
-5.6300897579686682
20
-17.592208683809993
30
5.5511151231257827e-14
10
-5.609046423284334
20
-17.584914598719998
30
4.4408920985006262e-14
10
-5.5884652832834174
20
-17.576962825939997
30
3.5527136788005009e-14
10
-5.5678841432824999
20
-17.569011053160001
30
2.6645352591003757e-14
10
-5.547765197965
20
-17.560401592689999
30
-8.2156503822261584e-14
10
-5.5284308460469997
20
-17.550445423829999
30
-4.7739590058881731e-14
0
LINE
5
191
100
AcDbEntity
8
0
100
AcDbLine
10
-5.5284308460470015
20
-17.550445423829999
30
-4.7739590058881731e-14
11
-0.57854507880221007
21
-15.001515997745614
31
0
0
SPLINE
5
192
100
AcDbEntity
8
0
100
AcDbSpline
70
0
71
3
72
23
73
19
74
0
42
0.000000001
43
0.0000000001
44
0.0000000001
40
0
40
0
40
0
40
0
40
0.126543817
40
0.126543817
40
0.126543817
40
0.25308763400000001
40
0.25308763400000001
40
0.25308763400000001
40
0.52254094200000001
40
0.52254094200000001
40
0.52254094200000001
40
0.77922336199999997
40
0.77922336199999997
40
0.77922336199999997
40
0.88961168099999999
40
0.88961168099999999
40
0.88961168099999999
40
1
40
1
40
1
40
1
10
-0.57854507880509998
20
-15.00151599774
30
1.0658141036401503e-13
10
-0.53387155885240001
20
-14.978511497250002
30
5.8841820305133297e-14
10
-0.48839278351009996
20
-14.956174085035002
30
5.8841820305133297e-14
10
-0.44168663775692951
20
-14.936386642897725
30
6.6613381477509392e-14
10
-0.39498049200375906
20
-14.916599200760444
30
7.7715611723760958e-14
10
-0.34704697583971811
20
-14.899361728700898
30
9.1038288019262836e-14
10
-0.29781723677206046
20
-14.885840459909499
30
9.7699626167013776e-14
10
-0.19299096901567389
20
-14.857049242048571
30
1.0880185641326534e-13
10
-0.082287577041155691
20
-14.845107431929044
30
8.2156503822261584e-14
10
0.028586981534707359
20
-14.847720541879138
30
1.0769163338864018e-13
10
0.13420657931557523
20
-14.850209802043338
30
1.3211653993039363e-13
10
0.23998150312510713
20
-14.865907000638137
30
1.9317880628477724e-13
10
0.3390877518434775
20
-14.896931548819637
30
1.609823385706477e-13
10
0.38170918341022353
20
-14.910273902851864
30
1.4988010832439613e-13
10
0.42309724450181196
20
-14.926451047930936
30
1.2101430968414206e-13
10
0.46331583862120607
20
-14.944337654387969
30
9.1038288019262836e-14
10
0.50353443274060017
20
-14.962224260845003
30
6.4392935428259079e-14
10
0.54258355988780016
20
-14.98182032868
30
3.4416913763379853e-14
10
0.58084468522590016
20
-15.001523005030002
30
1.4432899320127035e-14
0
LINE
5
193
100
AcDbEntity
8
0
100
AcDbLine
10
0.58084468522590016
20
-15.001523005030002
30
1.4432899320127035e-14
11
5.5306155438625879
21
-17.550421719802742
31
0
0
SPLINE
5
194
100
AcDbEntity
8
0
100
AcDbSpline
70
0
71
3
72
35
73
31
74
0
42
0.000000001
43
0.0000000001
44
0.0000000001
40
0
40
0
40
0
40
0
40
0.053334012
40
0.053334012
40
0.053334012
40
0.106668024
40
0.106668024
40
0.106668024
40
0.213336048
40
0.213336048
40
0.213336048
40
0.33185579799999998
40
0.33185579799999998
40
0.33185579799999998
40
0.45037554800000001
40
0.45037554800000001
40
0.45037554800000001
40
0.58240890300000003
40
0.58240890300000003
40
0.58240890300000003
40
0.71444225699999997
40
0.71444225699999997
40
0.71444225699999997
40
0.85722112800000005
40
0.85722112800000005
40
0.85722112800000005
40
0.92861056399999997
40
0.92861056399999997
40
0.92861056399999997
40
1
40
1
40
1
40
1
10
5.5306155438640001
20
-17.550421719799999
30
3.5305092183079978e-13
10
5.5476382640219999
20
-17.559187618420001
30
3.4083846855992306e-13
10
5.5653091048314982
20
-17.566760360955001
30
3.1752378504279477e-13
10
5.5833694522263748
20
-17.573724850457502
30
2.9531932455029164e-13
10
5.6014297996212488
20
-17.580689339959999
30
2.7200464103316335e-13
10
5.619879653601501
20
-17.58704557643
30
2.4980018054066022e-13
10
5.6384727220679887
20
-17.593335671508719
30
2.3092638912203256e-13
10
5.6756588590009631
20
-17.605915861666155
30
1.9095836023552692e-13
10
5.7134178538788918
20
-17.618231486258466
30
1.6653345369377348e-13
10
5.7504896315809484
20
-17.632857851159674
30
1.5876189252139739e-13
10
5.7916803995406454
20
-17.649109329779922
30
1.5210055437364645e-13
10
5.8320227551948225
20
-17.668213560894959
30
1.6209256159527285e-13
10
5.8715528008533981
20
-17.68967013597489
30
1.6209256159527285e-13
10
5.911082846511972
20
-17.711126711054824
30
1.609823385706477e-13
10
5.9498005821749489
20
-17.734935630099649
30
1.5210055437364645e-13
10
5.9878896111022488
20
-17.759811598342257
30
1.5432100042289676e-13
10
6.0303215456782455
20
-17.787523920937819
30
1.5543122344752192e-13
10
6.0719732298943541
20
-17.816560494528872
30
1.7319479184152442e-13
10
6.112149089670357
20
-17.847885599301119
30
1.6431300764452317e-13
10
6.1523249491420753
20
-17.879210703836112
30
1.5654144647214707e-13
10
6.1910249841960407
20
-17.912824339517648
30
1.2101430968414206e-13
10
6.2298488428333947
20
-17.947997327179969
30
1.1213252548714081e-13
10
6.2718323760556505
20
-17.986032863777201
30
1.0325074129013956e-13
10
6.313960707738195
20
-18.02589189602601
30
1.1546319456101628e-13
10
6.352627968242893
20
-18.069587008150172
30
1.1768364061026659e-13
10
6.3719615986306515
20
-18.091434564365269
30
1.1768364061026659e-13
10
6.3904299612118267
20
-18.114241140562633
30
1.1990408665951691e-13
10
6.4071712413681636
20
-18.138488938356318
30
1.3433698597964394e-13
10
6.4239125215245032
20
-18.162736736150002
30
1.532107773982716e-13
10
6.4389267192560009
20
-18.188425755540003
30
1.8318679906315083e-13
10
6.4515266712520001
20
-18.215911319500002
30
2.1649348980190553e-13
0
LINE
5
195
100
AcDbEntity
8
0
100
AcDbLine
10
6.4515266712520001
20
-18.215911319500002
30
2.1649348980190553e-13
11
13.509004377476192
21
-33.611109252051754
31
0
0
SPLINE
5
196
100
AcDbEntity
8
0
100
AcDbSpline
70
0
71
3
72
35
73
31
74
0
42
0.000000001
43
0.0000000001
44
0.0000000001
40
0
40
0
40
0
40
0
40
0.073400900000000005
40
0.073400900000000005
40
0.073400900000000005
40
0.14680179900000001
40
0.14680179900000001
40
0.14680179900000001
40
0.28792229800000002
40
0.28792229800000002
40
0.28792229800000002
40
0.43846297899999997
40
0.43846297899999997
40
0.43846297899999997
40
0.608638448
40
0.608638448
40
0.608638448
40
0.70502459500000003
40
0.70502459500000003
40
0.70502459500000003
40
0.80141074099999998
40
0.80141074099999998
40
0.80141074099999998
40
0.90070537100000003
40
0.90070537100000003
40
0.90070537100000003
40
0.95035268500000003
40
0.95035268500000003
40
0.95035268500000003
40
1
40
1
40
1
40
1
10
13.50900437748
20
-33.611109252049999
30
2.1094237467877974e-13
10
13.529173153830001
20
-33.6551054667
30
2.1760371282653068e-13
10
13.551089259344291
20
-33.70226213723123
30
2.2093438190040615e-13
10
13.571105012169252
20
-33.752669323753139
30
1.9872992140790302e-13
10
13.591120764721518
20
-33.803076509588308
30
1.7652546091539989e-13
10
13.609236164636233
20
-33.856734211325573
30
1.2434497875801753e-13
10
13.622291434859662
20
-33.913042093114178
30
8.7707618945387367e-14
10
13.647391485044466
20
-34.021299573388937
30
1.8873791418627661e-14
10
13.653787336995254
20
-34.1393531450803
30
1.9984014443252818e-14
10
13.641484105972168
20
-34.252587173340061
30
5.5511151231257827e-14
10
13.628359600391189
20
-34.3733798848695
30
9.3258734068513149e-14
10
13.593956259443903
20
-34.488688141820838
30
1.4099832412739488e-13
10
13.54473936966027
20
-34.594003400924109
30
1.6875389974302379e-13
10
13.489103197125278
20
-34.71305476625411
30
1.9984014443252818e-13
10
13.414537257376814
20
-34.819336394560324
30
2.0983215165415459e-13
10
13.328257217624234
20
-34.910689649201778
30
1.4988010832439613e-13
10
13.279388831107497
20
-34.962431467705592
30
1.1546319456101628e-13
10
13.226762552935751
20
-35.009384253266361
30
5.6621374255882984e-14
10
13.171797819849612
20
-35.051990300236611
30
7.7715611723760958e-15
10
13.11683308733372
20
-35.094596346764824
30
-4.4408920985006262e-14
10
13.059529899951968
20
-35.132855654792714
30
-6.9944050551384862e-14
10
13.000832023868576
20
-35.165326644619689
30
-2.2204460492503131e-14
10
12.940362919859723
20
-35.198777457359952
30
2.55351295663786e-14
10
12.878413686823983
20
-35.226085352490003
30
1.6431300764452317e-13
10
12.818227413648149
20
-35.251131574658444
30
2.3203661214665772e-13
10
12.788134277666376
20
-35.263654685490437
30
2.6756374893466273e-13
10
12.758481881631813
20
-35.275612378104789
30
2.7755575615628914e-13
10
12.729813195771539
20
-35.287854004743537
30
2.4868995751603507e-13
10
12.701144509333822
20
-35.300095631628871
30
2.2315482794965646e-13
10
12.673459533110002
20
-35.312621192549997
30
1.532107773982716e-13
10
12.647242048480001
20
-35.326121925080002
30
1.2878587085651816e-13
0
LINE
5
197
100
AcDbEntity
8
0
100
AcDbLine
10
36.916958678820002
20
-6.7102019540280011
30
0
11
36.265682861727051
21
-20.266844898144946
31
0
0
SPLINE
5
198
100
AcDbEntity
8
0
100
AcDbSpline
70
0
71
3
72
26
73
22
74
0
42
0.000000001
43
0.0000000001
44
0.0000000001
40
0
40
0
40
0
40
0
40
0.13236625238620001
40
0.13236625238620001
40
0.13236625238620001
40
0.26473250577430002
40
0.26473250577430002
40
0.26473250577430002
40
0.53714668999530002
40
0.53714668999530002
40
0.53714668999530002
40
0.66061113572679997
40
0.66061113572679997
40
0.66061113572679997
40
0.7840755814582
40
0.7840755814582
40
0.7840755814582
40
0.89305006093829997
40
0.89305006093829997
40
0.89305006093829997
40
1
40
1
40
1
40
1
10
35.685216592730001
20
-21.270917609309997
30
3.9968028886505635e-14
10
35.730799529080002
20
-21.241593192639996
30
2.55351295663786e-14
10
35.775734508199946
20
-21.211053576375576
30
4.2188474935755949e-14
10
35.818634889310559
20
-21.178005637051086
30
7.1054273576010019e-14
10
35.861535270745904
20
-21.144957697476457
30
9.9920072216264089e-14
10
35.902401054141109
20
-21.109401434803786
30
1.3433698597964394e-13
10
35.940361123530366
20
-21.070676229965024
30
1.6764367671839864e-13
10
36.018484218133089
20
-20.990978460972403
30
2.3647750424515834e-13
10
36.084300155536873
20
-20.897858631407967
30
3.0198066269804258e-13
10
36.136190936698107
20
-20.795240481706522
30
3.0975222387041867e-13
10
36.159709045907313
20
-20.748731548953572
30
3.1197266991966899e-13
10
36.180366770293659
20
-20.700271553656773
30
3.0642155479654321e-13
10
36.197738182517256
20
-20.651265198701857
30
2.8754776337791554e-13
10
36.215109594740838
20
-20.602258843746981
30
2.6867397195928788e-13
10
36.229194694801656
20
-20.552706129134002
30
2.3647750424515834e-13
10
36.239978926175425
20
-20.504130021839298
30
1.8984813721090177e-13
10
36.249497504528797
20
-20.461254876883594
30
1.4876988529977098e-13
10
36.256444538452179
20
-20.419140558651904
30
9.9920072216264089e-14
10
36.260632925584481
20
-20.378917343415829
30
6.4392935428259079e-14
10
36.264743500378742
20
-20.339441399700494
30
2.9976021664879227e-14
10
36.266196977160007
20
-20.301786945429999
30
-9.7951202704393836e-10
10
36.265682861650006
20
-20.266844899770003
30
-9.9621311200337459e-10
0
LINE
5
199
100
AcDbEntity
8
0
100
AcDbLine
10
35.685216592730001
20
-21.270917609309997
30
3.9968028886505635e-14
11
24.270686480160215
21
-28.614113638480308
31
0
0
SPLINE
5
200
100
AcDbEntity
8
0
100
AcDbSpline
70
0
71
3
72
35
73
31
74
0
42
0.000000001
43
0.0000000001
44
0.0000000001
40
0
40
0
40
0
40
0
40
0.065146571
40
0.065146571
40
0.065146571
40
0.130293142
40
0.130293142
40
0.130293142
40
0.27385493599999999
40
0.27385493599999999
40
0.27385493599999999
40
0.43316506700000001
40
0.43316506700000001
40
0.43316506700000001
40
0.58996469799999995
40
0.58996469799999995
40
0.58996469799999995
40
0.73077518399999997
40
0.73077518399999997
40
0.73077518399999997
40
0.79970643600000002
40
0.79970643600000002
40
0.79970643600000002
40
0.86863768799999996
40
0.86863768799999996
40
0.86863768799999996
40
0.93431884399999998
40
0.93431884399999998
40
0.93431884399999998
40
1
40
1
40
1
40
1
10
24.270686480160002
20
-28.614113638479999
30
2.3647750424515834e-13
10
24.238899601690001
20
-28.634562774580004
30
2.808864252301646e-13
10
24.207486551875004
20
-28.659064670165002
30
3.1752378504279477e-13
10
24.175005952458982
20
-28.684747340427293
30
3.5416114485542494e-13
10
24.142525353042959
20
-28.710430010689581
30
3.8968828164342995e-13
10
24.108977204025908
20
-28.737293455629171
30
4.3742787170231168e-13
10
24.073396394412384
20
-28.763071279711816
30
4.0634162701280729e-13
10
23.994987895213093
20
-28.819877196184699
30
3.3639757646142243e-13
10
23.906708433582978
20
-28.871411144129549
30
2.9531932455029164e-13
10
23.812614004562292
20
-28.913527144567418
30
2.0317081350640365e-13
10
23.70819767347594
20
-28.960263155312404
30
1.021405182655144e-13
10
23.596620628534257
20
-28.995401641484637
30
6.4392935428259079e-14
10
23.479370852039079
20
-29.014207972815388
30
1.6653345369377348e-14
10
23.363968764463895
20
-29.032717943239845
30
-3.4416913763379853e-14
10
23.243071324896416
20
-29.03540644585819
30
-5.773159728050814e-14
10
23.122301529894095
20
-29.017743395478973
30
-6.3282712403633923e-14
10
23.013846851653206
20
-29.001881478634672
30
-6.5503158452884236e-14
10
22.905495112958747
20
-28.969606958304382
30
1.1102230246251565e-14
10
22.803019988273377
20
-28.919393856299372
30
1.5432100042289676e-13
10
22.752855125953264
20
-28.89481293135313
30
2.2204460492503131e-13
10
22.704098545231631
20
-28.865933174726564
30
2.9309887850104133e-13
10
22.658567585844484
20
-28.833415363653948
30
3.0753177782116836e-13
10
22.613036626457344
20
-28.80089755258134
30
3.219646771412954e-13
10
22.570731288404666
20
-28.76474168706266
30
2.8643754035329039e-13
10
22.532680925017225
20
-28.726463049596582
30
2.3980817331903381e-13
10
22.496424629345896
20
-28.689989242927911
30
1.9761969838327786e-13
10
22.464031525032944
20
-28.651588121788969
30
1.4432899320127035e-13
10
22.434737715231474
20
-28.613523494201985
30
9.7699626167013776e-14
10
22.405443905429998
20
-28.575458866615008
30
5.1070259132757201e-14
10
22.379249390140004
20
-28.537730732579995
30
8.8817841970012523e-15
10
22.354538708350002
20
-28.502923219079999
30
2.4424906541753444e-14
0
LINE
5
201
100
AcDbEntity
8
0
100
AcDbLine
10
22.354538708350002
20
-28.502923219079999
30
2.4424906541753444e-14
11
12.55077647224612
21
-14.693325038612791
31
0
0
SPLINE
5
202
100
AcDbEntity
8
0
100
AcDbSpline
70
0
71
3
72
32
73
28
74
0
42
0.000000001
43
0.0000000001
44
0.0000000001
40
0
40
0
40
0
40
0
40
0.10528647200000001
40
0.10528647200000001
40
0.10528647200000001
40
0.21057294400000001
40
0.21057294400000001
40
0.21057294400000001
40
0.32810095700000003
40
0.32810095700000003
40
0.32810095700000003
40
0.44562897000000001
40
0.44562897000000001
40
0.44562897000000001
40
0.57638809000000002
40
0.57638809000000002
40
0.57638809000000002
40
0.70714721000000003
40
0.70714721000000003
40
0.70714721000000003
40
0.85357360500000001
40
0.85357360500000001
40
0.85357360500000001
40
0.92678680300000005
40
0.92678680300000005
40
0.92678680300000005
40
1
40
1
40
1
40
1
10
12.55077647225
20
-14.693325038610002
30
6.8833827526759706e-14
10
12.525596754560002
20
-14.657856840259999
30
3.5416114485542494e-13
10
12.506978905785001
20
-14.61891061685
30
2.375877272697835e-13
10
12.491533984956419
20
-14.578760388506502
30
2.9309887850104133e-13
10
12.476089064127835
20
-14.538610160163001
30
3.4638958368304884e-13
10
12.463817071245682
20
-14.497255926886004
30
3.4638958368304884e-13
10
12.452716310528276
20
-14.456003730111185
30
3.4083846855992306e-13
10
12.4403248767085
20
-14.409955186297978
30
3.3528735343679728e-13
10
12.429392864024253
20
-14.364033785703992
30
3.4972025275692431e-13
10
12.42009753965206
20
-14.318477394945127
30
3.1530333899354446e-13
10
12.410802215279869
20
-14.272921004186259
30
2.808864252301646e-13
10
12.403143579219728
20
-14.227729623262517
30
1.8540724511240114e-13
10
12.397646522785344
20
-14.182598486888798
30
1.1213252548714081e-13
10
12.391530616937853
20
-14.132386562716921
30
3.219646771412954e-14
10
12.388090380348931
20
-14.08224921108846
30
0
10
12.386318613968459
20
-14.032555623710479
30
0
10
12.384546847587981
20
-13.982862036332492
30
-2.2204460492503131e-15
10
12.384443551415975
20
-13.933612213204986
30
5.5511151231257827e-15
10
12.388335707128581
20
-13.885043774074441
30
-1.9984014443252818e-14
10
12.392694212522128
20
-13.830655969593478
30
-4.8849813083506888e-14
10
12.402062982572717
20
-13.777122615186361
30
-9.5479180117763462e-14
10
12.412030429128215
20
-13.723760784430263
30
-4.8849813083506888e-14
10
12.417014152440002
20
-13.697079868869999
30
-2.55351295663786e-14
10
12.422147544880058
20
-13.670441834223082
30
7.7715611723760958e-15
10
12.426296424319169
20
-13.643700161569745
30
3.4416913763379853e-14
10
12.430445303701612
20
-13.616958489281672
30
6.106226635438361e-14
10
12.433609670110002
20
-13.590113178990002
30
8.659739592076221e-14
10
12.43491253927
20
-13.563027788850002
30
1.6986412276764895e-13
0
LINE
5
203
100
AcDbEntity
8
0
100
AcDbLine
10
12.43491253927
20
-13.563027788850002
30
1.6986412276764895e-13
11
12.702420483338352
21
-8.0017962672549192
31
0
0
SPLINE
5
204
100
AcDbEntity
8
0
100
AcDbSpline
70
0
71
3
72
20
73
16
74
0
42
0.000000001
43
0.0000000001
44
0.0000000001
40
0
40
0
40
0
40
0
40
0.15411751300000001
40
0.15411751300000001
40
0.15411751300000001
40
0.30823502600000002
40
0.30823502600000002
40
0.30823502600000002
40
0.63538909600000004
40
0.63538909600000004
40
0.63538909600000004
40
0.81769454799999997
40
0.81769454799999997
40
0.81769454799999997
40
1
40
1
40
1
40
1
10
12.702420483339997
20
-8.0017962672549992
30
1.8984813721090177e-13
10
12.70539727611
20
-7.9399116235480003
30
1.9428902930940239e-13
10
12.710560637430001
20
-7.8780118472475014
30
1.9317880628477724e-13
10
12.720030502122388
20
-7.8167705631601763
30
1.7985612998927536e-13
10
12.729500366814774
20
-7.7555292790728467
30
1.6320278461989801e-13
10
12.743276734879556
20
-7.6949464871987017
30
1.3988810110276972e-13
10
12.762389288349237
20
-7.6356937830013933
30
1.4099832412739488e-13
10
12.802960600032009
20
-7.5099146748434773
30
1.4321877017664519e-13
10
12.867577288206018
20
-7.3901290726320878
30
2.7866597918091429e-13
10
12.950348934237677
20
-7.2866710291819885
30
2.9087843245179101e-13
10
12.996473142145547
20
-7.2290193992505429
30
2.9753977059954195e-13
10
13.048234893522771
20
-7.1764378621822704
30
2.6423307986078726e-13
10
13.104131625556388
20
-7.1285990064623839
30
2.1316282072803006e-13
10
13.160028357590008
20
-7.0807601507425
30
1.6542323066914832e-13
10
13.220060070280004
20
-7.0376639763710003
30
1.099120794378905e-13
10
13.282121432970001
20
-6.9977391493759997
30
9.4368957093138306e-14
0
LINE
5
205
100
AcDbEntity
8
0
100
AcDbLine
10
13.282121432970001
20
-6.9977391493759997
30
9.4368957093138306e-14
11
17.96444899110821
21
-3.9855410670322122
31
0
0
SPLINE
5
206
100
AcDbEntity
8
0
100
AcDbSpline
70
0
71
3
72
35
73
31
74
0
42
0.000000001
43
0.0000000001
44
0.0000000001
40
0
40
0
40
0
40
0
40
0.058538931000000002
40
0.058538931000000002
40
0.058538931000000002
40
0.117077862
40
0.117077862
40
0.117077862
40
0.23415572400000001
40
0.23415572400000001
40
0.23415572400000001
40
0.36453822600000002
40
0.36453822600000002
40
0.36453822600000002
40
0.494920727
40
0.494920727
40
0.494920727
40
0.62835674600000002
40
0.62835674600000002
40
0.62835674600000002
40
0.76179276399999996
40
0.76179276399999996
40
0.76179276399999996
40
0.88089638199999998
40
0.88089638199999998
40
0.88089638199999998
40
0.94044819099999999
40
0.94044819099999999
40
0.94044819099999999
40
1
40
1
40
1
40
1
10
17.96444899111
20
-3.9855410670350011
30
3.2085445411667024e-13
10
17.982329890909998
20
-3.9740380674220011
30
3.1086244689504383e-13
10
17.999371587254998
20
-3.9612809283145003
30
2.8421709430404007e-13
10
18.015986393394996
20
-3.9478126980960004
30
2.6978419498391304e-13
10
18.032601199534998
20
-3.9343444678774997
30
2.55351295663786e-13
10
18.048789115470004
20
-3.9201651465480007
30
2.4980018054066022e-13
10
18.065018541737949
20
-3.9059101896563013
30
2.375877272697835e-13
10
18.097477394273838
20
-3.8774002758729029
30
2.1538326677728037e-13
10
18.130102288141504
20
-3.848587819840708
30
1.5987211554602254e-13
10
18.164950396218845
20
-3.8222633289305441
30
1.0547118733938987e-13
10
18.203758617034236
20
-3.7929473427132399
30
4.2188474935755949e-14
10
18.24532405115152
20
-3.7667169118595289
30
-8.8817841970012523e-15
10
18.288110726401708
20
-3.7417524368490889
30
-1.5543122344752192e-14
10
18.330897401323735
20
-3.716787962030121
30
-2.55351295663786e-14
10
18.374905317359939
20
-3.6930894430350021
30
7.7715611723760958e-15
10
18.420113346153219
20
-3.6716561513733033
30
6.8833827526759706e-14
10
18.466380133051356
20
-3.6497208986249068
30
1.3211653993039363e-13
10
18.51390390348875
20
-3.6301582174986495
30
2.1316282072803006e-13
10
18.562845873595901
20
-3.6122079436578036
30
2.5313084961453569e-13
10
18.611787843336273
20
-3.5942576699514817
30
2.9531932455029164e-13
10
18.662148012725119
20
-3.5779198035064019
30
2.9420910152566648e-13
10
18.713737693777329
20
-3.5628884377887182
30
3.1308289294429414e-13
10
18.759786112764051
20
-3.5494715952653042
30
3.2862601528904634e-13
10
18.806814103868021
20
-3.5370956633097683
30
3.5638159090467525e-13
10
18.85477137436601
20
-3.5287600604469227
30
3.5971225997855072e-13
10
18.878750009615004
20
-3.5245922590154994
30
3.6193270602780103e-13
10
18.902960964712502
20
-3.5214345398572497
30
3.5860203695392556e-13
10
18.927382246676252
20
-3.519891752667875
30
3.5305092183079978e-13
10
18.951803528640003
20
-3.5183489654784985
30
3.4972025275692431e-13
10
18.976435137469998
20
-3.5184211102580005
30
3.4416913763379853e-13
10
19.001235135990001
20
-3.5207532920530005
30
3.3639757646142243e-13
0
LINE
5
207
100
AcDbEntity
8
0
100
AcDbLine
10
19.001235135990001
20
-3.5207532920530009
30
3.3639757646142243e-13
11
35.862594518889992
21
-5.1063886846460971
31
0
0
SPLINE
5
208
100
AcDbEntity
8
0
100
AcDbSpline
70
0
71
3
72
35
73
31
74
0
42
0.000000001
43
0.0000000001
44
0.0000000001
40
0
40
0
40
0
40
0
40
0.072775113000000002
40
0.072775113000000002
40
0.072775113000000002
40
0.145550226
40
0.145550226
40
0.145550226
40
0.28513869600000002
40
0.28513869600000002
40
0.28513869600000002
40
0.43642133
40
0.43642133
40
0.43642133
40
0.60584433999999998
40
0.60584433999999998
40
0.60584433999999998
40
0.70186133100000003
40
0.70186133100000003
40
0.70186133100000003
40
0.79787832199999997
40
0.79787832199999997
40
0.79787832199999997
40
0.89893916100000004
40
0.89893916100000004
40
0.89893916100000004
40
0.94946958000000004
40
0.94946958000000004
40
0.94946958000000004
40
1
40
1
40
1
40
1
10
35.862594518889999
20
-5.1063886846460003
30
2.0317081350640365e-13
10
35.910294464250001
20
-5.1108743681469999
30
2.3536728122053319e-13
10
35.961595840750007
20
-5.1154069028964999
30
2.0983215165415459e-13
10
36.014769203036366
20
-5.1231414852176904
30
1.8984813721090177e-13
10
36.067942565322738
20
-5.1308760675388818
30
1.6986412276764895e-13
10
36.122987913395441
20
-5.1418126974317619
30
1.6209256159527285e-13
10
36.177838134664036
20
-5.1583541194996938
30
1.7430501486614958e-13
10
36.283045232948375
20
-5.1900818860795521
30
1.9761969838327786e-13
10
36.38753445388631
20
-5.2424298506457836
30
2.2759572004815709e-13
10
36.478910270998078
20
-5.3084165309337212
30
2.2537527399890678e-13
10
36.57794118878499
20
-5.3799313115089031
30
2.2204460492503131e-13
10
36.661569490287398
20
-5.4674657241841391
30
2.2426505097428162e-13
10
36.728946304043809
20
-5.5629996818474314
30
1.8318679906315083e-13
10
36.804402305099565
20
-5.6699891639616027
30
1.4099832412739488e-13
10
36.859475697963198
20
-5.7870116715904185
30
8.992806499463768e-14
10
36.895893498063892
20
-5.9067753201353455
30
1.3322676295501878e-13
10
36.916532533956996
20
-5.9746488938870179
30
1.5876189252139739e-13
10
36.931179726508496
20
-6.0434028731640108
30
2.0095036745715333e-13
10
36.940907912812897
20
-6.1120484880398385
30
1.9539925233402755e-13
10
36.950636099117304
20
-6.1806941029156643
30
1.8762769116165146e-13
10
36.955445279174597
20
-6.249231353390325
30
1.3433698597964394e-13
10
36.954540874396564
20
-6.3161416419056877
30
1.021405182655144e-13
10
36.953588960524748
20
-6.3865667804636592
30
6.8833827526759706e-14
10
36.946307417070898
20
-6.4551895363068947
30
4.7739590058881731e-14
10
36.937826764025658
20
-6.5210895560383255
30
2.3314683517128287e-14
10
36.933586437544996
20
-6.5540395655779999
30
1.2212453270876722e-14
10
36.929046333672424
20
-6.5863088911031937
30
4.4408920985006262e-15
10
36.92525016536888
20
-6.6178488184995734
30
1.3322676295501878e-14
10
36.921453996990195
20
-6.6493887465201293
30
2.1094237467877974e-14
10
36.918401764210003
20
-6.6801992763830009
30
4.8849813083506888e-14
10
36.916958678820002
20
-6.7102019540280011
30
9.2148511043887993e-14
0
LINE
5
209
100
AcDbEntity
8
0
100
AcDbLine
10
-5.8927831746176684
20
10.206339284733303
30
0
11
3.197332989727415
21
11.445287154434318
31
0
0
SPLINE
5
210
100
AcDbEntity
8
0
100
AcDbSpline
70
0
71
3
72
38
73
34
74
0
42
0.000000001
43
0.0000000001
44
0.0000000001
40
0
40
0
40
0
40
0
40
0.041383285999999998
40
0.041383285999999998
40
0.041383285999999998
40
0.082766571999999997
40
0.082766571999999997
40
0.082766571999999997
40
0.16553314299999999
40
0.16553314299999999
40
0.16553314299999999
40
0.255745901
40
0.255745901
40
0.255745901
40
0.345958659
40
0.345958659
40
0.345958659
40
0.54317424999999997
40
0.54317424999999997
40
0.54317424999999997
40
0.65109257200000004
40
0.65109257200000004
40
0.65109257200000004
40
0.75901089399999999
40
0.75901089399999999
40
0.75901089399999999
40
0.879505447
40
0.879505447
40
0.879505447
40
0.93975272399999998
40
0.93975272399999998
40
0.93975272399999998
40
1
40
1
40
1
40
1
10
3.1973329897280003
20
11.445287154430002
30
1.1102230246251565e-15
10
3.2142983833030003
20
11.447599472320002
30
-1.1102230246251565e-15
10
3.2311754503200003
20
11.451249236645003
30
0
10
3.2480530593213564
20
11.455685746674529
30
-1.1102230246251565e-15
10
3.2649306683227124
20
11.460122256704057
30
1.1102230246251565e-15
10
3.2818088193084263
20
11.465345512438113
30
-2.2204460492503131e-15
10
3.2987736799414562
20
11.470861733695488
30
-1.1102230246251565e-14
10
3.3327034007975707
20
11.481894176076931
30
-2.9976021664879227e-14
10
3.3669799602345796
20
11.494098480523363
30
-7.4384942649885488e-14
10
3.4019560048509407
20
11.505066867597499
30
-9.8809849191638932e-14
10
3.4400787083851112
20
11.517022037865088
30
-1.27675647831893e-13
10
3.4790324185940573
20
11.527508905992544
30
-1.1990408665951691e-13
10
3.5184766719376221
20
11.53619126827085
30
-8.992806499463768e-14
10
3.557920925281187
20
11.544873630549153
30
-5.8841820305133297e-14
10
3.5978557217593741
20
11.55175148697831
30
-9.9920072216264089e-15
10
3.6378784424246158
20
11.557882566424931
30
3.1086244689504383e-14
10
3.7253727689967371
20
11.571285819837637
30
1.2434497875801753e-13
10
3.8132872944886156
20
11.581120147658053
30
1.8540724511240114e-13
10
3.9041334955364793
20
11.585508940644605
30
2.4091839634365897e-13
10
3.9538454352844892
20
11.587910531575181
30
2.7311486405778851e-13
10
4.0044352320457444
20
11.588681518827592
30
2.9087843245179101e-13
10
4.0553936968075464
20
11.587216441537489
30
2.708944180085382e-13
10
4.1063521615693483
20
11.585751364247383
30
2.5091040356528538e-13
10
4.1576792943316967
20
11.582050222414768
30
2.0206059048177849e-13
10
4.2103301802247595
20
11.577697800780516
30
1.8096635301390052e-13
10
4.2691167221498505
20
11.572838170927419
30
1.5543122344752192e-13
10
4.3295535206134268
20
11.567166623258164
30
1.6431300764452317e-13
10
4.3894603288584175
20
11.555699585587774
30
1.2545520178264269e-13
10
4.4194137332295007
20
11.549966066704997
30
1.0769163338864018e-13
10
4.4492346400437377
20
11.542783675297892
30
7.5495165674510645e-14
10
4.4783819437589196
20
11.533036848784469
30
3.8857805861880479e-14
10
4.5075292469903072
20
11.523290022432828
30
2.2204460492503131e-15
10
4.5360029471450005
20
11.510978761059999
30
-3.8857805861880479e-14
10
4.5633691739460005
20
11.495178882089998
30
-6.106226635438361e-14
0
LINE
5
211
100
AcDbEntity
8
0
100
AcDbLine
10
4.5633691739460005
20
11.495178882089998
30
-6.106226635438361e-14
11
7.6734190916798584
21
9.6995929341110276
31
0
0
SPLINE
5
212
100
AcDbEntity
8
0
100
AcDbSpline
70
0
71
3
72
38
73
34
74
0
42
0.000000001
43
0.0000000001
44
0.0000000001
40
0
40
0
40
0
40
0
40
0.065504874000000005
40
0.065504874000000005
40
0.065504874000000005
40
0.13100974800000001
40
0.13100974800000001
40
0.13100974800000001
40
0.203025499
40
0.203025499
40
0.203025499
40
0.27504124899999999
40
0.27504124899999999
40
0.27504124899999999
40
0.43257801000000001
40
0.43257801000000001
40
0.43257801000000001
40
0.604601583
40
0.604601583
40
0.604601583
40
0.69857729700000004
40
0.69857729700000004
40
0.69857729700000004
40
0.79255301199999995
40
0.79255301199999995
40
0.79255301199999995
40
0.89627650599999997
40
0.89627650599999997
40
0.89627650599999997
40
0.94813825299999999
40
0.94813825299999999
40
0.94813825299999999
40
1
40
1
40
1
40
1
10
7.6734190916809997
20
9.6995929341129976
30
3.5527136788005009e-14
10
7.7016546075730012
20
9.6832911714679994
30
1.3322676295501878e-14
10
7.7267041343175009
20
9.6620652908705011
30
-1.099120794378905e-13
10
7.7502807391228092
20
9.6388641322855424
30
-1.354472090042691e-13
10
7.7738573439281176
20
9.6156629737005854
30
-1.5876189252139739e-13
10
7.7959610267942363
20
9.590486537128168
30
-1.1990408665951691e-13
10
7.8174489659830462
20
9.5649780758028875
30
-7.7715611723760958e-14
10
7.8410727054642395
20
9.5369341931569256
30
-2.9976021664879227e-14
10
7.863952214010971
20
9.5084890021399691
30
1.3322676295501878e-14
10
7.8860793348652711
20
9.4801116174694116
30
4.6629367034256575e-14
10
7.9082064554123201
20
9.451734233192898
30
8.2156503822261584e-14
10
7.9295811882878322
20
9.4234246552608951
30
1.0547118733938987e-13
10
7.9496539536212421
20
9.3948119347462438
30
1.1213252548714081e-13
10
7.993563771056154
20
9.332220691674042
30
1.2878587085651816e-13
10
8.0312432878262676
20
9.2681788214754732
30
4.2188474935755949e-14
10
8.0653496358997039
20
9.2039037926252938
30
5.6621374255882984e-14
10
8.1025923456033411
20
9.1337181416870621
30
7.5495165674510645e-14
10
8.1355745057186457
20
9.0632544786868561
30
2.2759572004815709e-13
10
8.1659284629818956
20
8.9918183600273132
30
1.8873791418627661e-13
10
8.1825106950376085
20
8.952793125640282
30
1.6653345369377348e-13
10
8.1983085692882494
20
8.9134776727163203
30
8.992806499463768e-14
10
8.2122154307945845
20
8.8736613525561445
30
3.4416913763379853e-14
10
8.2261222924489044
20
8.833845031972281
30
-2.2204460492503131e-14
10
8.2381381413186681
20
8.793527844141547
30
-4.3298697960381105e-14
10
8.2481613724179663
20
8.7529822646856363
30
1.5543122344752192e-14
10
8.2592242789442842
20
8.7082310311630025
30
8.2156503822261584e-14
10
8.2678597538914271
20
8.6632015681416679
30
2.7311486405778851e-13
10
8.2772550114114747
20
8.6191171029605567
30
3.3861802251067274e-13
10
8.2819526401715002
20
8.5970748703700046
30
3.730349362740526e-13
10
8.2868402145747488
20
8.5752688872395026
30
3.5638159090467525e-13
10
8.2926027273943745
20
8.5539373505055014
30
2.4757973449140991e-13
10
8.298365240214002
20
8.5326058137715037
30
1.4099832412739488e-13
10
8.3050026914499995
20
8.5117487234339997
30
-1.5210055437364645e-13
10
8.3132304631170015
20
8.4916260050869994
30
-3.3306690738754696e-14
0
LINE
5
213
100
AcDbEntity
8
0
100
AcDbLine
10
8.3132304631170015
20
8.4916260050869994
30
-3.3306690738754696e-14
11
11.586035069482357
21
0.48730503341796627
31
0
0
SPLINE
5
214
100
AcDbEntity
8
0
100
AcDbSpline
70
0
71
3
72
23
73
19
74
0
42
0.000000001
43
0.0000000001
44
0.0000000001
40
0
40
0
40
0
40
0
40
0.161888263
40
0.161888263
40
0.161888263
40
0.32377652600000001
40
0.32377652600000001
40
0.32377652600000001
40
0.48869286299999998
40
0.48869286299999998
40
0.48869286299999998
40
0.6536092
40
0.6536092
40
0.6536092
40
0.8268046
40
0.8268046
40
0.8268046
40
1
40
1
40
1
40
1
10
11.586035069479998
20
0.48730503341700004
30
2.9531932455029164e-13
10
11.606739976619998
20
0.43666689813990001
30
2.8976820942716586e-13
10
11.626275695619999
20
0.38571033929339998
30
2.4424906541753444e-13
10
11.642597892809754
20
0.33396582378824508
30
2.4980018054066022e-13
10
11.658920089999512
20
0.28222130828309022
30
2.5646151868841116e-13
10
11.672028765379018
20
0.22968883611928018
30
3.0531133177191805e-13
10
11.681073584768519
20
0.17633188348141249
30
3.0642155479654321e-13
10
11.690287584936916
20
0.12197690419227389
30
3.0531133177191805e-13
10
11.69528428076346
20
0.066766312624656765
30
2.4646951146678475e-13
10
11.69582367585647
20
0.011496057712274618
30
1.9428902930940239e-13
10
11.696363070949475
20
-0.043774197200107418
30
1.4321877017664519e-13
10
11.692445165308957
20
-0.099104115457254865
30
1.099120794378905e-13
10
11.684327220371902
20
-0.15366423400443405
30
1.0325074129013956e-13
10
11.675801741658711
20
-0.21096335747348199
30
9.7699626167013776e-14
10
11.662643941374354
20
-0.26741345083824092
30
1.099120794378905e-13
10
11.645748997072175
20
-0.3229923847912205
30
1.2434497875801753e-13
10
11.628854052769999
20
-0.37857131874419997
30
1.3877787807814457e-13
10
11.608221964450001
20
-0.43327909328539999
30
1.4432899320127035e-13
10
11.58603016747
20
-0.48755299461680002
30
1.27675647831893e-13
0
LINE
5
215
100
AcDbEntity
8
0
100
AcDbLine
10
11.586030167469998
20
-0.48755299461680007
30
1.27675647831893e-13
11
8.3132542764697703
21
-8.4916959652106705
31
0
0
SPLINE
5
216
100
AcDbEntity
8
0
100
AcDbSpline
70
0
71
3
72
38
73
34
74
0
42
0.000000001
43
0.0000000001
44
0.0000000001
40
0
40
0
40
0
40
0
40
0.041635641000000001
40
0.041635641000000001
40
0.041635641000000001
40
0.083271281000000003
40
0.083271281000000003
40
0.083271281000000003
40
0.16654256200000001
40
0.16654256200000001
40
0.16654256200000001
40
0.25779893500000001
40
0.25779893500000001
40
0.25779893500000001
40
0.34905530899999998
40
0.34905530899999998
40
0.34905530899999998
40
0.54997828400000004
40
0.54997828400000004
40
0.54997828400000004
40
0.66090089500000004
40
0.66090089500000004
40
0.66090089500000004
40
0.77182350499999997
40
0.77182350499999997
40
0.77182350499999997
40
0.88591175200000005
40
0.88591175200000005
40
0.88591175200000005
40
0.94295587599999997
40
0.94295587599999997
40
0.94295587599999997
40
1
40
1
40
1
40
1
10
8.3132542764729997
20
-8.4916959652119992
30
2.2537527399890678e-13
10
8.3067318373940005
20
-8.5076477250159996
30
2.375877272697835e-13
10
8.3014211374467255
20
-8.5241951128367184
30
2.4757973449140991e-13
10
8.2967955579630299
20
-8.5411379669413083
30
2.55351295663786e-13
10
8.2921699785904313
20
-8.5580808206389669
30
2.6423307986078726e-13
10
8.2882295196484996
20
-8.5754191406015003
30
2.6534330288541241e-13
10
8.2844999301717994
20
-8.5929797912544927
30
2.6423307986078726e-13
10
8.2770407511288209
20
-8.6281010929822433
30
2.5757174171303632e-13
10
8.2704250499670202
20
-8.6641117174931832
30
2.2315482794965646e-13
10
8.2623756670097617
20
-8.7001101695408227
30
2.2093438190040615e-13
10
8.2535544085308921
20
-8.7395606034483073
30
2.120525977034049e-13
10
8.2430113263307128
20
-8.7789964184660825
30
2.453592884421596e-13
10
8.2306138682074721
20
-8.8179340867585747
30
2.6978419498391304e-13
10
8.2182164099483757
20
-8.856871755477755
30
2.9420910152566648e-13
10
8.2039645757255784
20
-8.8953112774607312
30
3.0198066269804258e-13
10
8.1890083760616434
20
-8.9334449169896786
30
2.8976820942716586e-13
10
8.1560786857895788
20
-9.0174053458988226
30
2.631228568361621e-13
10
8.1197344663822726
20
-9.0998829585165257
30
1.8318679906315083e-13
10
8.0769150890379233
20
-9.1822675341672433
30
2.0317081350640365e-13
10
8.0532759948206998
20
-9.2277492031366837
30
2.120525977034049e-13
10
8.0276634269463969
20
-9.2732025166582268
30
2.3314683517128287e-13
10
7.999770852779772
20
-9.3177768768631104
30
2.2648549702353193e-13
10
7.9718782788646037
20
-9.3623512366661394
30
2.2204460492503131e-13
10
7.9417056986982262
20
-9.4060466431683523
30
1.9206858326015208e-13
10
7.9102043626207994
20
-9.4505486234847087
30
1.5654144647214707e-13
10
7.877804005189331
20
-9.4963206524905335
30
1.1768364061026659e-13
10
7.8439979664692157
20
-9.5429459501132854
30
7.6605388699135801e-14
10
7.8058450109967001
20
-9.5863538965441428
30
6.106226635438361e-14
10
7.7867685330932366
20
-9.6080578699498123
30
5.3290705182007514e-14
10
7.7666053259826189
20
-9.6289575055434078
30
5.2180482157382357e-14
10
7.7447318084248096
20
-9.6481238662774551
30
6.6613381477509392e-14
10
7.7228582908670038
20
-9.6672902270115042
30
8.1046280797636427e-14
10
7.6992744628620002
20
-9.6847233128859997
30
1.0769163338864018e-13
10
7.6734410527710004
20
-9.6996379360460008
30
1.3988810110276972e-13
0
LINE
5
217
100
AcDbEntity
8
0
100
AcDbLine
10
7.6734410527709995
20
-9.699637936045999
30
1.3988810110276972e-13
11
4.5631420598452657
21
-11.495333402968733
31
0
0
SPLINE
5
218
100
AcDbEntity
8
0
100
AcDbSpline
70
0
71
3
72
38
73
34
74
0
42
0.000000001
43
0.0000000001
44
0.0000000001
40
0
40
0
40
0
40
0
40
0.053379844000000003
40
0.053379844000000003
40
0.053379844000000003
40
0.10675968800000001
40
0.10675968800000001
40
0.10675968800000001
40
0.21351937500000001
40
0.21351937500000001
40
0.21351937500000001
40
0.33178977799999998
40
0.33178977799999998
40
0.33178977799999998
40
0.45006017999999998
40
0.45006017999999998
40
0.45006017999999998
40
0.58051383700000003
40
0.58051383700000003
40
0.58051383700000003
40
0.71096749400000003
40
0.71096749400000003
40
0.71096749400000003
40
0.78322562100000004
40
0.78322562100000004
40
0.78322562100000004
40
0.85548374699999996
40
0.85548374699999996
40
0.85548374699999996
40
0.92774187399999997
40
0.92774187399999997
40
0.92774187399999997
40
1
40
1
40
1
40
1
10
4.5631420598460011
20
-11.495333402970003
30
2.0317081350640365e-13
10
4.5390092318100006
20
-11.509266214570001
30
1.2878587085651816e-13
10
4.5138961083000009
20
-11.520288267510001
30
3.3306690738754696e-14
10
4.4881899808415406
20
-11.529186323853365
30
3.9968028886505635e-14
10
4.4624838533830822
20
-11.538084380196722
30
4.7739590058881731e-14
10
4.4361847219761614
20
-11.544858439943456
30
9.7699626167013776e-14
10
4.4097191646082852
20
-11.550413328186803
30
1.2989609388114332e-13
10
4.3567880503683272
20
-11.561523104569426
30
1.9095836023552692e-13
10
4.3031912322970154
20
-11.567756195029915
30
1.4988010832439613e-13
10
4.2508271354591187
20
-11.573238201195551
30
1.2545520178264269e-13
10
4.1928171973469102
20
-11.579311271440298
30
9.8809849191638932e-14
10
4.1363201321446077
20
-11.584462563871924
30
1.4432899320127035e-13
10
4.080231559794731
20
-11.586679385538446
30
2.0206059048177849e-13
10
4.0241429879190953
20
-11.588896207186226
30
2.6090241078691179e-13
10
3.9684629088889767
20
-11.588178558118509
30
2.9753977059954195e-13
10
3.9134201304999694
20
-11.586059075211379
30
2.808864252301646e-13
10
3.8527072927074113
20
-11.58372126041149
30
2.6201263381153694e-13
10
3.7927698172952056
20
-11.579677925245747
30
1.9984014443252818e-13
10
3.7342065231650947
20
-11.573053738341608
30
1.9095836023552692e-13
10
3.6756432290349843
20
-11.566429551437468
30
1.8318679906315083e-13
10
3.6184541161869683
20
-11.557224512794944
30
2.120525977034049e-13
10
3.5624454268806662
20
-11.544173320854043
30
2.19824158875781e-13
10
3.5314222798254749
20
-11.536944281006063
30
2.2426505097428162e-13
10
3.5007612913230757
20
-11.528535226304847
30
2.3425705819590803e-13
10
3.4703321780004948
20
-11.519477310182358
30
2.6534330288541241e-13
10
3.4399030650990308
20
-11.510419394185224
30
2.9753977059954195e-13
10
3.4097058273709697
20
-11.500712616784782
30
3.4194869158454821e-13
10
3.3795531448940763
20
-11.491203296974671
30
3.3195668436292181e-13
10
3.3494004619998914
20
-11.481693977032958
30
3.1974423109204508e-13
10
3.3192923343581091
20
-11.472382114687045
30
2.5868196473766147e-13
10
3.2889785001117025
20
-11.46437580876994
30
2.1871393585115584e-13
10
3.2586646662848171
20
-11.456369502963636
30
1.787459069646502e-13
10
3.228145125859001
20
-11.44966875355
30
1.1324274851176597e-13
10
3.1971161567590007
20
-11.4454396569
30
1.0880185641326534e-13
0
LINE
5
219
100
AcDbEntity
8
0
100
AcDbLine
10
3.1971161567590007
20
-11.4454396569
30
1.0880185641326534e-13
11
-5.3709774629529639
21
-10.277650425342415
31
0
0
SPLINE
5
220
100
AcDbEntity
8
0
100
AcDbSpline
70
0
71
3
72
23
73
19
74
0
42
0.000000001
43
0.0000000001
44
0.0000000001
40
0
40
0
40
0
40
0
40
0.16133962600000001
40
0.16133962600000001
40
0.16133962600000001
40
0.322679251
40
0.322679251
40
0.322679251
40
0.48758586300000001
40
0.48758586300000001
40
0.48758586300000001
40
0.65249247499999996
40
0.65249247499999996
40
0.65249247499999996
40
0.82624623799999997
40
0.82624623799999997
40
0.82624623799999997
40
1
40
1
40
1
40
1
10
-5.3709774629540004
20
-10.27765042535
30
1.7652546091539989e-13
10
-5.4249931485739999
20
-10.270288351730002
30
2.2093438190040615e-13
10
-5.4787050813554563
20
-10.261772655278609
30
2.4313884239290928e-13
10
-5.5315019546696709
20
-10.250103238369126
30
2.5313084961453569e-13
10
-5.584298827656645
20
-10.238433821531974
30
2.6423307986078726e-13
10
-5.6361806411877202
20
-10.223610684275812
30
2.6867397195928788e-13
10
-5.6867568901663574
20
-10.204879714662169
30
2.6534330288541241e-13
10
-5.7384513072491758
20
-10.185734630257388
30
2.6645352591003757e-13
10
-5.7887817933265868
20
-10.162507010288699
30
2.5868196473766147e-13
10
-5.8369405350195134
20
-10.135386697463877
30
2.5757174171303632e-13
10
-5.885099276712439
20
-10.108266384639048
30
2.55351295663786e-13
10
-5.9310862740208838
20
-10.077253378958099
30
2.6090241078691179e-13
10
-5.9743108050281455
20
-10.042987167828095
30
2.7311486405778851e-13
10
-6.0198543088654723
20
-10.006882592909109
30
2.8643754035329039e-13
10
-6.0623309856309673
20
-9.9671663835107633
30
3.0531133177191805e-13
10
-6.1021673780211376
20
-9.9246286002854607
30
3.1308289294429414e-13
10
-6.1420037701820371
20
-9.8820908173049755
30
3.219646771412954e-13
10
-6.1791998779980002
20
-9.8367314605300002
30
3.1641356201816961e-13
10
-6.2152243830410008
20
-9.7902241441860003
30
3.1530333899354446e-13
0
LINE
5
221
100
AcDbEntity
8
0
100
AcDbLine
10
-6.215224383040999
20
-9.7902241441860003
30
3.1530333899354446e-13
11
-11.510601995907418
21
-2.9539386350489938
31
0
0
SPLINE
5
222
100
AcDbEntity
8
0
100
AcDbSpline
70
0
71
3
72
38
73
34
74
0
42
0.000000001
43
0.0000000001
44
0.0000000001
40
0
40
0
40
0
40
0
40
0.043973981000000002
40
0.043973981000000002
40
0.043973981000000002
40
0.087947961000000005
40
0.087947961000000005
40
0.087947961000000005
40
0.17589592200000001
40
0.17589592200000001
40
0.17589592200000001
40
0.272219763
40
0.272219763
40
0.272219763
40
0.368543603
40
0.368543603
40
0.368543603
40
0.58043386900000005
40
0.58043386900000005
40
0.58043386900000005
40
0.69050276300000002
40
0.69050276300000002
40
0.69050276300000002
40
0.80057165699999999
40
0.80057165699999999
40
0.80057165699999999
40
0.90028582899999998
40
0.90028582899999998
40
0.90028582899999998
40
0.95014291399999995
40
0.95014291399999995
40
0.95014291399999995
40
1
40
1
40
1
40
1
10
-11.510601995909999
20
-2.9539386350510006
30
1.2545520178264269e-13
10
-11.52178481822
20
-2.939501710679
30
1.2545520178264269e-13
10
-11.534170710535832
20
-2.9258836606881582
30
1.2989609388114332e-13
10
-11.547324058975367
20
-2.9127239996281151
30
1.3100631690576847e-13
10
-11.560477407115782
20
-2.8995643388673322
30
1.3100631690576847e-13
10
-11.574398211344995
20
-2.8868630670165003
30
1.3100631690576847e-13
10
-11.588585982399017
20
-2.8742043546771261
30
1.2545520178264269e-13
10
-11.616961524829703
20
-2.8488869297105119
30
1.1546319456101628e-13
10
-11.646404934583892
20
-2.8237397427936006
30
9.5479180117763462e-14
10
-11.674579931709941
20
-2.7968983185366429
30
1.1435297153639112e-13
10
-11.705438224642339
20
-2.7675006036499861
30
1.3100631690576847e-13
10
-11.734775001338452
20
-2.7360705772238445
30
1.9872992140790302e-13
10
-11.763544861449111
20
-2.7038831682217501
30
2.5091040356528538e-13
10
-11.792314721261096
20
-2.6716957595538142
30
3.0531133177191805e-13
10
-11.820517664499402
20
-2.638750968325652
30
3.4305891460917337e-13
10
-11.84761010920985
20
-2.6049766013322606
30
3.5416114485542494e-13
10
-11.907207248571062
20
-2.5306807716995205
30
3.7747582837255322e-13
10
-11.961430700218905
20
-2.4523706358924913
30
2.808864252301646e-13
10
-12.01276127811218
20
-2.3680057753937152
30
1.865174681370263e-13
10
-12.03942555129353
20
-2.3241814550846138
30
1.3655743202889425e-13
10
-12.065309209866768
20
-2.2787233246118075
30
8.3266726846886741e-14
10
-12.089109902651952
20
-2.2316626507424928
30
5.1070259132757201e-14
10
-12.112910595437132
20
-2.1846019768731786
30
1.7763568394002505e-14
10
-12.134628322434271
20
-2.1359387596073551
30
1.6653345369377348e-14
10
-12.156218894387179
20
-2.0857799479639869
30
8.3266726846886741e-14
10
-12.175778335088838
20
-2.0403398223321032
30
1.3988810110276972e-13
10
-12.195233419613022
20
-1.9936722620100258
30
2.4646951146678475e-13
10
-12.210520911620687
20
-1.945480943373167
30
2.9420910152566648e-13
10
-12.21816465747121
20
-1.9213852845380326
30
3.1974423109204508e-13
10
-12.224766505234395
20
-1.8969086861394842
30
3.3195668436292181e-13
10
-12.229431163399241
20
-1.8719917446582757
30
3.3084646133829665e-13
10
-12.234095821657647
20
-1.8470748026773001
30
3.3195668436292181e-13
10
-12.236823290240002
20
-1.8217175175960003
30
3.2751579226442118e-13
10
-12.236823515399999
20
-1.7958730677190005
30
3.0864200084579352e-13
0
LINE
5
223
100
AcDbEntity
8
0
100
AcDbLine
10
-12.236823515399999
20
-1.7958730677190007
30
3.0864200084579352e-13
11
-12.236854805054582
21
1.7955847472000031
31
0
0
SPLINE
5
224
100
AcDbEntity
8
0
100
AcDbSpline
70
0
71
3
72
35
73
31
74
0
42
0.000000001
43
0.0000000001
44
0.0000000001
40
0
40
0
40
0
40
0
40
0.054789234999999999
40
0.054789234999999999
40
0.054789234999999999
40
0.109578469
40
0.109578469
40
0.109578469
40
0.219156937
40
0.219156937
40
0.219156937
40
0.34113328799999998
40
0.34113328799999998
40
0.34113328799999998
40
0.46310963799999999
40
0.46310963799999999
40
0.46310963799999999
40
0.59879791000000004
40
0.59879791000000004
40
0.59879791000000004
40
0.73448618200000004
40
0.73448618200000004
40
0.73448618200000004
40
0.86724309099999997
40
0.86724309099999997
40
0.86724309099999997
40
0.93362154600000002
40
0.93362154600000002
40
0.93362154600000002
40
1
40
1
40
1
40
1
10
-11.510653464280001
20
2.9536499988370006
30
-7.6605388699135801e-14
10
-11.52489998778
20
2.9352576894710003
30
-7.2164496600635175e-14
10
-11.54061445803341
20
2.9180344058733221
30
-2.7755575615628914e-14
10
-11.557213633575351
20
2.9014565909574515
30
2.2204460492503131e-14
10
-11.573812808814335
20
2.8848787763441552
30
7.5495165674510645e-14
10
-11.591296689309553
20
2.8689464303891041
30
1.3211653993039363e-13
10
-11.609017829961401
20
2.8530588192472637
30
1.7652546091539989e-13
10
-11.644460111265101
20
2.8212835969635819
30
2.6423307986078726e-13
10
-11.680851433195292
20
2.789687313932748
30
2.6978419498391304e-13
10
-11.715164340512075
20
2.7555847088080601
30
2.2204460492503131e-13
10
-11.753359465002244
20
2.7176236804361036
30
1.6986412276764895e-13
10
-11.788979258747132
20
2.6765571079132142
30
7.5495165674510645e-14
10
-11.823638518582563
20
2.634147802056519
30
3.3306690738754696e-14
10
-11.858297778133846
20
2.5917384965475065
30
-6.6613381477509392e-15
10
-11.891996503791422
20
2.5479864577267071
30
1.1102230246251565e-15
10
-11.924363341606687
20
2.5026221039010528
30
2.55351295663786e-14
10
-11.960368684390412
20
2.4521581346070089
30
4.9960036108132044e-14
10
-11.994725860945207
20
2.3996989799400041
30
7.5495165674510645e-14
10
-12.026461495887666
20
2.3452178783855082
30
5.773159728050814e-14
10
-12.058197130830127
20
2.2907367768310127
30
3.9968028886505635e-14
10
-12.087311224160249
20
2.2342337283890252
30
-6.6613381477509392e-15
10
-12.116677726714169
20
2.1753685959656726
30
1.2212453270876722e-14
10
-12.145409805395214
20
2.1177751657213841
30
2.886579864025407e-14
10
-12.174383505178987
20
2.0579206083767474
30
1.0436096431476471e-13
10
-12.197296031022129
20
1.9949242800154241
30
1.6209256159527285e-13
10
-12.208752294029996
20
1.9634261155975008
30
1.8873791418627661e-13
10
-12.218693263529881
20
1.931142508413572
30
2.1538326677728037e-13
10
-12.225718967770842
20
1.897957525535189
30
2.453592884421596e-13
10
-12.232744671905959
20
1.8647725431567426
30
2.7422508708241367e-13
10
-12.236855110869998
20
1.8306861851109999
30
2.9976021664879227e-13
10
-12.236854805059998
20
1.7955847471999997
30
3.2529534621517087e-13
0
LINE
5
225
100
AcDbEntity
8
0
100
AcDbLine
10
-11.510653464280001
20
2.9536499988370006
30
-7.6605388699135801e-14
11
-5.8927831746176684
21
10.206339284733303
31
0
0
CIRCLE
5
226
100
AcDbEntity
8
0
100
AcDbCircle
10
-16.02
20
38.969999999999999
30
0
40
2
210
0
220
0
230
1
0
CIRCLE
5
227
100
AcDbEntity
8
0
100
AcDbCircle
10
-7.9428511573154301
20
-13.058153135205677
30
4.4408920985006262e-15
40
2.0000000000000004
210
2.5087532973079024e-18
220
-1.5524636465293504e-18
230
1
0
CIRCLE
5
228
100
AcDbEntity
8
0
100
AcDbCircle
10
-41.740000000000002
20
5.617496002107
30
0
40
2
210
0
220
0
230
1
0
CIRCLE
5
229
100
AcDbEntity
8
0
100
AcDbCircle
10
25.719999999999999
20
33.369999999999997
30
0
40
2
210
0
220
0
230
1
0
CIRCLE
5
230
100
AcDbEntity
8
0
100
AcDbCircle
10
41.740000000000002
20
-5.5825814400200002
30
0
40
2
210
0
220
0
230
1
0
CIRCLE
5
231
100
AcDbEntity
8
0
100
AcDbCircle
10
16.02
20
-38.93
30
0
40
2
210
0
220
0
230
1
0
CIRCLE
5
232
100
AcDbEntity
8
0
100
AcDbCircle
10
-25.719999999999999
20
-33.329999999999998
30
0
40
2
210
0
220
0
230
1
0
ENDSEC
0
SECTION
2
OBJECTS
0
DICTIONARY
5
C
100
AcDbDictionary
3
ACAD_GROUP
350
D
3
ACAD_MLINESTYLE
350
17
0
DICTIONARY
5
D
100
AcDbDictionary
0
DICTIONARY
5
1A
330
C
100
AcDbDictionary
0
DICTIONARY
5
17
100
AcDbDictionary
0
ENDSEC
0
EOF
