0
SECTION
2
HEADER
9
$INSUNITS
70
4
9
$ACADVER
1
AC1014
9
$HANDSEED
5
FFFF
0
ENDSEC
0
SECTION
2
TABLES
0
TABLE
2
VPORT
5
8
100
AcDbSymbolTable
0
ENDTAB
0
TABLE
2
LTYPE
5
5
100
AcDbSymbolTable
0
LTYPE
5
14
100
AcDbSymbolTableRecord
100
AcDbLinetypeTableRecord
2
BYBLOCK
70
0
0
LTYPE
5
15
100
AcDbSymbolTableRecord
100
AcDbLinetypeTableRecord
2
BYLAYER
70
0
0
LTYPE
5
16
100
AcDbSymbolTableRecord
100
AcDbLinetypeTableRecord
2
DASHED
70
0
3
Dashed __ __ __ __ __ __ __ __ __ __ __ __ __ _
72
65
73
2
40
0.75
49
0.5
74
0
49
-0.25
74
0
0
ENDTAB
0
TABLE
2
LAYER
5
2
100
AcDbSymbolTable
70
2
0
LAYER
5
50
100
AcDbSymbolTableRecord
100
AcDbLayerTableRecord
2
0
70
0
62
7
6
CONTINUOUS
0
ENDTAB
0
TABLE
2
STYLE
5
3
100
AcDbSymbolTable
70
1
0
STYLE
5
11
100
AcDbSymbolTableRecord
100
AcDbTextStyleTableRecord
2
STANDARD
70
0
0
ENDTAB
0
TABLE
2
VIEW
5
6
100
AcDbSymbolTable
70
0
0
ENDTAB
0
TABLE
2
UCS
5
7
100
AcDbSymbolTable
70
0
0
ENDTAB
0
TABLE
2
APPID
5
9
100
AcDbSymbolTable
70
2
0
APPID
5
12
100
AcDbSymbolTableRecord
100
AcDbRegAppTableRecord
2
ACAD
70
0
0
ENDTAB
0
TABLE
2
DIMSTYLE
5
A
100
AcDbSymbolTable
70
1
0
ENDTAB
0
TABLE
2
BLOCK_RECORD
5
1
100
AcDbSymbolTable
70
1
0
BLOCK_RECORD
5
1F
100
AcDbSymbolTableRecord
100
AcDbBlockTableRecord
2
*MODEL_SPACE
0
BLOCK_RECORD
5
1B
100
AcDbSymbolTableRecord
100
AcDbBlockTableRecord
2
*PAPER_SPACE
0
ENDTAB
0
ENDSEC
0
SECTION
2
BLOCKS
0
BLOCK
5
20
100
AcDbEntity
100
AcDbBlockBegin
2
*MODEL_SPACE
0
ENDBLK
5
21
100
AcDbEntity
100
AcDbBlockEnd
0
BLOCK
5
1C
100
AcDbEntity
100
AcDbBlockBegin
2
*PAPER_SPACE
0
ENDBLK
5
1D
100
AcDbEntity
100
AcDbBlockEnd
0
ENDSEC
0
SECTION
2
ENTITIES
0
LWPOLYLINE
5
100
100
AcDbEntity
8
0
100
AcDbPolyline
90
4
70
1
43
0.0
10
418.00000000000006
20
390.89999900000004
10
166
20
390.89999900000004
10
166
20
26.899998999999966
10
418.00000000000006
20
26.899999000000001
0
CIRCLE
5
101
100
AcDbEntity
8
0
100
AcDbCircle
10
185.5
20
388.09999900000008
30
0
40
1.1299999999999999
210
-0
220
0
230
1
0
CIRCLE
5
102
100
AcDbEntity
8
0
100
AcDbCircle
10
185.5
20
372.499999
30
0
40
0.75000000000000011
210
0
220
0
230
1
0
CIRCLE
5
103
100
AcDbEntity
8
0
100
AcDbCircle
10
186.55889200000001
20
373.55889100000007
30
0
40
0.14999999999999999
210
-0
220
0
230
1
0
CIRCLE
5
104
100
AcDbEntity
8
0
100
AcDbCircle
10
185.5
20
353.09999900000003
30
0
40
1.1299999999999999
210
-0
220
0
230
1
0
CIRCLE
5
105
100
AcDbEntity
8
0
100
AcDbCircle
10
220.5
20
388.09999900000008
30
0
40
1.1299999999999999
210
-0
220
0
230
1
0
CIRCLE
5
106
100
AcDbEntity
8
0
100
AcDbCircle
10
220.5
20
372.499999
30
0
40
0.75000000000000011
210
0
220
0
230
1
0
CIRCLE
5
107
100
AcDbEntity
8
0
100
AcDbCircle
10
221.55889200000001
20
373.55889100000007
30
0
40
0.14999999999999999
210
-0
220
0
230
1
0
CIRCLE
5
108
100
AcDbEntity
8
0
100
AcDbCircle
10
220.5
20
353.09999900000003
30
0
40
1.1299999999999999
210
-0
220
0
230
1
0
CIRCLE
5
109
100
AcDbEntity
8
0
100
AcDbCircle
10
186.55889200000001
20
338.55889100000007
30
0
40
0.14999999999999999
210
-0
220
0
230
1
0
CIRCLE
5
110
100
AcDbEntity
8
0
100
AcDbCircle
10
185.5
20
337.499999
30
0
40
0.75000000000000011
210
0
220
0
230
1
0
CIRCLE
5
111
100
AcDbEntity
8
0
100
AcDbCircle
10
185.5
20
318.09999900000003
30
0
40
1.1299999999999999
210
-0
220
0
230
1
0
CIRCLE
5
112
100
AcDbEntity
8
0
100
AcDbCircle
10
185.5
20
302.499999
30
0
40
0.75000000000000011
210
0
220
0
230
1
0
CIRCLE
5
113
100
AcDbEntity
8
0
100
AcDbCircle
10
186.55889200000001
20
303.55889100000002
30
0
40
0.14999999999999999
210
-0
220
0
230
1
0
CIRCLE
5
114
100
AcDbEntity
8
0
100
AcDbCircle
10
221.55889200000001
20
338.55889100000007
30
0
40
0.14999999999999999
210
-0
220
0
230
1
0
CIRCLE
5
115
100
AcDbEntity
8
0
100
AcDbCircle
10
220.5
20
337.499999
30
0
40
0.75000000000000011
210
0
220
0
230
1
0
CIRCLE
5
116
100
AcDbEntity
8
0
100
AcDbCircle
10
220.5
20
318.09999900000003
30
0
40
1.1299999999999999
210
-0
220
0
230
1
0
CIRCLE
5
117
100
AcDbEntity
8
0
100
AcDbCircle
10
220.5
20
302.499999
30
0
40
0.75000000000000011
210
0
220
0
230
1
0
CIRCLE
5
118
100
AcDbEntity
8
0
100
AcDbCircle
10
221.55889200000001
20
303.55889100000002
30
0
40
0.14999999999999999
210
-0
220
0
230
1
0
CIRCLE
5
119
100
AcDbEntity
8
0
100
AcDbCircle
10
255.5
20
388.09999900000008
30
0
40
1.1299999999999999
210
-0
220
0
230
1
0
CIRCLE
5
120
100
AcDbEntity
8
0
100
AcDbCircle
10
255.5
20
372.499999
30
0
40
0.75000000000000011
210
0
220
0
230
1
0
CIRCLE
5
121
100
AcDbEntity
8
0
100
AcDbCircle
10
256.55889200000001
20
373.55889100000007
30
0
40
0.14999999999999999
210
-0
220
0
230
1
0
CIRCLE
5
122
100
AcDbEntity
8
0
100
AcDbCircle
10
255.5
20
353.09999900000003
30
0
40
1.1299999999999999
210
-0
220
0
230
1
0
CIRCLE
5
123
100
AcDbEntity
8
0
100
AcDbCircle
10
290.5
20
388.09999900000008
30
0
40
1.1299999999999999
210
-0
220
0
230
1
0
CIRCLE
5
124
100
AcDbEntity
8
0
100
AcDbCircle
10
290.5
20
372.499999
30
0
40
0.75000000000000011
210
0
220
0
230
1
0
CIRCLE
5
125
100
AcDbEntity
8
0
100
AcDbCircle
10
290.5
20
353.09999900000003
30
0
40
1.1299999999999999
210
-0
220
0
230
1
0
CIRCLE
5
126
100
AcDbEntity
8
0
100
AcDbCircle
10
256.55889200000001
20
338.55889100000007
30
0
40
0.14999999999999999
210
-0
220
0
230
1
0
CIRCLE
5
127
100
AcDbEntity
8
0
100
AcDbCircle
10
255.5
20
337.499999
30
0
40
0.75000000000000011
210
0
220
0
230
1
0
CIRCLE
5
128
100
AcDbEntity
8
0
100
AcDbCircle
10
255.5
20
318.09999900000003
30
0
40
1.1299999999999999
210
-0
220
0
230
1
0
CIRCLE
5
129
100
AcDbEntity
8
0
100
AcDbCircle
10
255.5
20
302.499999
30
0
40
0.75000000000000011
210
0
220
0
230
1
0
CIRCLE
5
130
100
AcDbEntity
8
0
100
AcDbCircle
10
256.55889200000001
20
303.55889100000002
30
0
40
0.14999999999999999
210
-0
220
0
230
1
0
CIRCLE
5
131
100
AcDbEntity
8
0
100
AcDbCircle
10
290.5
20
337.499999
30
0
40
0.75000000000000011
210
0
220
0
230
1
0
CIRCLE
5
132
100
AcDbEntity
8
0
100
AcDbCircle
10
290.5
20
318.09999900000003
30
0
40
1.1299999999999999
210
-0
220
0
230
1
0
CIRCLE
5
133
100
AcDbEntity
8
0
100
AcDbCircle
10
290.5
20
302.499999
30
0
40
0.75000000000000011
210
0
220
0
230
1
0
CIRCLE
5
134
100
AcDbEntity
8
0
100
AcDbCircle
10
185.5
20
283.09999900000003
30
0
40
1.1299999999999999
210
-0
220
0
230
1
0
CIRCLE
5
135
100
AcDbEntity
8
0
100
AcDbCircle
10
186.55889200000001
20
268.55889100000002
30
0
40
0.14999999999999999
210
-0
220
0
230
1
0
CIRCLE
5
136
100
AcDbEntity
8
0
100
AcDbCircle
10
185.5
20
267.499999
30
0
40
0.75000000000000011
210
0
220
0
230
1
0
CIRCLE
5
137
100
AcDbEntity
8
0
100
AcDbCircle
10
220.5
20
283.09999900000003
30
0
40
1.1299999999999999
210
-0
220
0
230
1
0
CIRCLE
5
138
100
AcDbEntity
8
0
100
AcDbCircle
10
220.5
20
267.499999
30
0
40
0.75000000000000011
210
0
220
0
230
1
0
CIRCLE
5
139
100
AcDbEntity
8
0
100
AcDbCircle
10
221.55889200000001
20
268.55889100000002
30
0
40
0.14999999999999999
210
-0
220
0
230
1
0
CIRCLE
5
140
100
AcDbEntity
8
0
100
AcDbCircle
10
185.5
20
248.09999900000003
30
0
40
1.1299999999999999
210
-0
220
0
230
1
0
CIRCLE
5
141
100
AcDbEntity
8
0
100
AcDbCircle
10
185.5
20
232.49999900000003
30
0
40
0.75000000000000011
210
0
220
0
230
1
0
CIRCLE
5
142
100
AcDbEntity
8
0
100
AcDbCircle
10
186.55889200000001
20
233.55889099999999
30
0
40
0.14999999999999999
210
-0
220
0
230
1
0
CIRCLE
5
143
100
AcDbEntity
8
0
100
AcDbCircle
10
185.5
20
213.09999900000003
30
0
40
1.1299999999999999
210
-0
220
0
230
1
0
CIRCLE
5
144
100
AcDbEntity
8
0
100
AcDbCircle
10
220.5
20
248.09999900000003
30
0
40
1.1299999999999999
210
-0
220
0
230
1
0
CIRCLE
5
145
100
AcDbEntity
8
0
100
AcDbCircle
10
220.5
20
232.49999900000003
30
0
40
0.75000000000000011
210
0
220
0
230
1
0
CIRCLE
5
146
100
AcDbEntity
8
0
100
AcDbCircle
10
221.55889200000001
20
233.55889099999999
30
0
40
0.14999999999999999
210
-0
220
0
230
1
0
CIRCLE
5
147
100
AcDbEntity
8
0
100
AcDbCircle
10
220.5
20
213.09999900000003
30
0
40
1.1299999999999999
210
-0
220
0
230
1
0
CIRCLE
5
148
100
AcDbEntity
8
0
100
AcDbCircle
10
255.5
20
283.09999900000003
30
0
40
1.1299999999999999
210
-0
220
0
230
1
0
CIRCLE
5
149
100
AcDbEntity
8
0
100
AcDbCircle
10
256.55889200000001
20
268.55889100000002
30
0
40
0.14999999999999999
210
-0
220
0
230
1
0
CIRCLE
5
150
100
AcDbEntity
8
0
100
AcDbCircle
10
255.5
20
267.499999
30
0
40
0.75000000000000011
210
0
220
0
230
1
0
CIRCLE
5
151
100
AcDbEntity
8
0
100
AcDbCircle
10
290.5
20
283.09999900000003
30
0
40
1.1299999999999999
210
-0
220
0
230
1
0
CIRCLE
5
152
100
AcDbEntity
8
0
100
AcDbCircle
10
290.5
20
267.499999
30
0
40
0.75000000000000011
210
0
220
0
230
1
0
CIRCLE
5
153
100
AcDbEntity
8
0
100
AcDbCircle
10
255.5
20
248.09999900000003
30
0
40
1.1299999999999999
210
-0
220
0
230
1
0
CIRCLE
5
154
100
AcDbEntity
8
0
100
AcDbCircle
10
255.5
20
232.49999900000003
30
0
40
0.75000000000000011
210
0
220
0
230
1
0
CIRCLE
5
155
100
AcDbEntity
8
0
100
AcDbCircle
10
256.55889200000001
20
233.55889099999999
30
0
40
0.14999999999999999
210
-0
220
0
230
1
0
CIRCLE
5
156
100
AcDbEntity
8
0
100
AcDbCircle
10
255.5
20
213.09999900000003
30
0
40
1.1299999999999999
210
-0
220
0
230
1
0
CIRCLE
5
157
100
AcDbEntity
8
0
100
AcDbCircle
10
290.5
20
248.09999900000003
30
0
40
1.1299999999999999
210
-0
220
0
230
1
0
CIRCLE
5
158
100
AcDbEntity
8
0
100
AcDbCircle
10
290.5
20
232.49999900000003
30
0
40
0.75000000000000011
210
0
220
0
230
1
0
CIRCLE
5
159
100
AcDbEntity
8
0
100
AcDbCircle
10
290.5
20
213.09999900000003
30
0
40
1.1299999999999999
210
-0
220
0
230
1
0
CIRCLE
5
160
100
AcDbEntity
8
0
100
AcDbCircle
10
291.55889200000001
20
373.55889100000007
30
0
40
0.14999999999999999
210
-0
220
0
230
1
0
CIRCLE
5
161
100
AcDbEntity
8
0
100
AcDbCircle
10
325.50000000000006
20
388.09999900000008
30
0
40
1.1299999999999999
210
-0
220
0
230
1
0
CIRCLE
5
162
100
AcDbEntity
8
0
100
AcDbCircle
10
325.50000000000006
20
372.499999
30
0
40
0.75000000000000011
210
0
220
0
230
1
0
CIRCLE
5
163
100
AcDbEntity
8
0
100
AcDbCircle
10
326.55889200000001
20
373.55889100000007
30
0
40
0.14999999999999999
210
-0
220
0
230
1
0
CIRCLE
5
164
100
AcDbEntity
8
0
100
AcDbCircle
10
325.50000000000006
20
353.09999900000003
30
0
40
1.1299999999999999
210
-0
220
0
230
1
0
CIRCLE
5
165
100
AcDbEntity
8
0
100
AcDbCircle
10
291.55889200000001
20
338.55889100000007
30
0
40
0.14999999999999999
210
-0
220
0
230
1
0
CIRCLE
5
166
100
AcDbEntity
8
0
100
AcDbCircle
10
291.55889200000001
20
303.55889100000002
30
0
40
0.14999999999999999
210
-0
220
0
230
1
0
CIRCLE
5
167
100
AcDbEntity
8
0
100
AcDbCircle
10
326.55889200000001
20
338.55889100000007
30
0
40
0.14999999999999999
210
-0
220
0
230
1
0
CIRCLE
5
168
100
AcDbEntity
8
0
100
AcDbCircle
10
325.50000000000006
20
337.499999
30
0
40
0.75000000000000011
210
0
220
0
230
1
0
CIRCLE
5
169
100
AcDbEntity
8
0
100
AcDbCircle
10
325.50000000000006
20
318.09999900000003
30
0
40
1.1299999999999999
210
-0
220
0
230
1
0
CIRCLE
5
170
100
AcDbEntity
8
0
100
AcDbCircle
10
326.55889200000001
20
303.55889100000002
30
0
40
0.14999999999999999
210
-0
220
0
230
1
0
CIRCLE
5
171
100
AcDbEntity
8
0
100
AcDbCircle
10
325.50000000000006
20
302.499999
30
0
40
0.75000000000000011
210
0
220
0
230
1
0
CIRCLE
5
172
100
AcDbEntity
8
0
100
AcDbCircle
10
360.50000000000006
20
388.09999900000008
30
0
40
1.1299999999999999
210
-0
220
0
230
1
0
CIRCLE
5
173
100
AcDbEntity
8
0
100
AcDbCircle
10
360.50000000000006
20
372.499999
30
0
40
0.75000000000000011
210
0
220
0
230
1
0
CIRCLE
5
174
100
AcDbEntity
8
0
100
AcDbCircle
10
361.55889200000001
20
373.55889100000007
30
0
40
0.14999999999999999
210
-0
220
0
230
1
0
CIRCLE
5
175
100
AcDbEntity
8
0
100
AcDbCircle
10
360.50000000000006
20
353.09999900000003
30
0
40
1.1299999999999999
210
-0
220
0
230
1
0
CIRCLE
5
176
100
AcDbEntity
8
0
100
AcDbCircle
10
395.50000000000006
20
388.09999900000008
30
0
40
1.1299999999999999
210
-0
220
0
230
1
0
CIRCLE
5
177
100
AcDbEntity
8
0
100
AcDbCircle
10
395.50000000000006
20
372.499999
30
0
40
0.75000000000000011
210
0
220
0
230
1
0
CIRCLE
5
178
100
AcDbEntity
8
0
100
AcDbCircle
10
396.55889200000001
20
373.55889100000007
30
0
40
0.14999999999999999
210
-0
220
0
230
1
0
CIRCLE
5
179
100
AcDbEntity
8
0
100
AcDbCircle
10
395.50000000000006
20
353.09999900000003
30
0
40
1.1299999999999999
210
-0
220
0
230
1
0
CIRCLE
5
180
100
AcDbEntity
8
0
100
AcDbCircle
10
361.55889200000001
20
338.55889100000007
30
0
40
0.14999999999999999
210
-0
220
0
230
1
0
CIRCLE
5
181
100
AcDbEntity
8
0
100
AcDbCircle
10
360.50000000000006
20
337.499999
30
0
40
0.75000000000000011
210
0
220
0
230
1
0
CIRCLE
5
182
100
AcDbEntity
8
0
100
AcDbCircle
10
360.50000000000006
20
318.09999900000003
30
0
40
1.1299999999999999
210
-0
220
0
230
1
0
CIRCLE
5
183
100
AcDbEntity
8
0
100
AcDbCircle
10
361.55889200000001
20
303.55889100000002
30
0
40
0.14999999999999999
210
-0
220
0
230
1
0
CIRCLE
5
184
100
AcDbEntity
8
0
100
AcDbCircle
10
360.50000000000006
20
302.499999
30
0
40
0.75000000000000011
210
0
220
0
230
1
0
CIRCLE
5
185
100
AcDbEntity
8
0
100
AcDbCircle
10
396.55889200000001
20
338.55889100000007
30
0
40
0.14999999999999999
210
-0
220
0
230
1
0
CIRCLE
5
186
100
AcDbEntity
8
0
100
AcDbCircle
10
395.50000000000006
20
337.499999
30
0
40
0.75000000000000011
210
0
220
0
230
1
0
CIRCLE
5
187
100
AcDbEntity
8
0
100
AcDbCircle
10
395.50000000000006
20
318.09999900000003
30
0
40
1.1299999999999999
210
-0
220
0
230
1
0
CIRCLE
5
188
100
AcDbEntity
8
0
100
AcDbCircle
10
396.55889200000001
20
303.55889100000002
30
0
40
0.14999999999999999
210
-0
220
0
230
1
0
CIRCLE
5
189
100
AcDbEntity
8
0
100
AcDbCircle
10
395.50000000000006
20
302.499999
30
0
40
0.75000000000000011
210
0
220
0
230
1
0
CIRCLE
5
190
100
AcDbEntity
8
0
100
AcDbCircle
10
291.55889200000001
20
268.55889100000002
30
0
40
0.14999999999999999
210
-0
220
0
230
1
0
CIRCLE
5
191
100
AcDbEntity
8
0
100
AcDbCircle
10
325.50000000000006
20
283.09999900000003
30
0
40
1.1299999999999999
210
-0
220
0
230
1
0
CIRCLE
5
192
100
AcDbEntity
8
0
100
AcDbCircle
10
326.55889200000001
20
268.55889100000002
30
0
40
0.14999999999999999
210
-0
220
0
230
1
0
CIRCLE
5
193
100
AcDbEntity
8
0
100
AcDbCircle
10
325.50000000000006
20
267.499999
30
0
40
0.75000000000000011
210
0
220
0
230
1
0
CIRCLE
5
194
100
AcDbEntity
8
0
100
AcDbCircle
10
291.55889200000001
20
233.55889099999999
30
0
40
0.14999999999999999
210
-0
220
0
230
1
0
CIRCLE
5
195
100
AcDbEntity
8
0
100
AcDbCircle
10
325.50000000000006
20
248.09999900000003
30
0
40
1.1299999999999999
210
-0
220
0
230
1
0
CIRCLE
5
196
100
AcDbEntity
8
0
100
AcDbCircle
10
326.55889200000001
20
233.55889099999999
30
0
40
0.14999999999999999
210
-0
220
0
230
1
0
CIRCLE
5
197
100
AcDbEntity
8
0
100
AcDbCircle
10
325.50000000000006
20
232.49999900000003
30
0
40
0.75000000000000011
210
0
220
0
230
1
0
CIRCLE
5
198
100
AcDbEntity
8
0
100
AcDbCircle
10
325.50000000000006
20
213.09999900000003
30
0
40
1.1299999999999999
210
-0
220
0
230
1
0
CIRCLE
5
199
100
AcDbEntity
8
0
100
AcDbCircle
10
360.50000000000006
20
283.09999900000003
30
0
40
1.1299999999999999
210
-0
220
0
230
1
0
CIRCLE
5
200
100
AcDbEntity
8
0
100
AcDbCircle
10
361.55889200000001
20
268.55889100000002
30
0
40
0.14999999999999999
210
-0
220
0
230
1
0
CIRCLE
5
201
100
AcDbEntity
8
0
100
AcDbCircle
10
360.50000000000006
20
267.499999
30
0
40
0.75000000000000011
210
0
220
0
230
1
0
CIRCLE
5
202
100
AcDbEntity
8
0
100
AcDbCircle
10
395.50000000000006
20
283.09999900000003
30
0
40
1.1299999999999999
210
-0
220
0
230
1
0
CIRCLE
5
203
100
AcDbEntity
8
0
100
AcDbCircle
10
396.55889200000001
20
268.55889100000002
30
0
40
0.14999999999999999
210
-0
220
0
230
1
0
CIRCLE
5
204
100
AcDbEntity
8
0
100
AcDbCircle
10
395.50000000000006
20
267.499999
30
0
40
0.75000000000000011
210
0
220
0
230
1
0
CIRCLE
5
205
100
AcDbEntity
8
0
100
AcDbCircle
10
360.50000000000006
20
248.09999900000003
30
0
40
1.1299999999999999
210
-0
220
0
230
1
0
CIRCLE
5
206
100
AcDbEntity
8
0
100
AcDbCircle
10
361.55889200000001
20
233.55889099999999
30
0
40
0.14999999999999999
210
-0
220
0
230
1
0
CIRCLE
5
207
100
AcDbEntity
8
0
100
AcDbCircle
10
360.50000000000006
20
232.49999900000003
30
0
40
0.75000000000000011
210
0
220
0
230
1
0
CIRCLE
5
208
100
AcDbEntity
8
0
100
AcDbCircle
10
360.50000000000006
20
213.09999900000003
30
0
40
1.1299999999999999
210
-0
220
0
230
1
0
CIRCLE
5
209
100
AcDbEntity
8
0
100
AcDbCircle
10
395.50000000000006
20
248.09999900000003
30
0
40
1.1299999999999999
210
-0
220
0
230
1
0
CIRCLE
5
210
100
AcDbEntity
8
0
100
AcDbCircle
10
396.55889200000001
20
233.55889099999999
30
0
40
0.14999999999999999
210
-0
220
0
230
1
0
CIRCLE
5
211
100
AcDbEntity
8
0
100
AcDbCircle
10
395.50000000000006
20
232.49999900000003
30
0
40
0.75000000000000011
210
0
220
0
230
1
0
CIRCLE
5
212
100
AcDbEntity
8
0
100
AcDbCircle
10
395.50000000000006
20
213.09999900000003
30
0
40
1.1299999999999999
210
-0
220
0
230
1
0
CIRCLE
5
213
100
AcDbEntity
8
0
100
AcDbCircle
10
185.5
20
197.49999900000003
30
0
40
0.75000000000000011
210
0
220
0
230
1
0
CIRCLE
5
214
100
AcDbEntity
8
0
100
AcDbCircle
10
186.55889200000001
20
198.55889099999999
30
0
40
0.14999999999999999
210
-0
220
0
230
1
0
CIRCLE
5
215
100
AcDbEntity
8
0
100
AcDbCircle
10
185.5
20
178.09999900000003
30
0
40
1.1299999999999999
210
-0
220
0
230
1
0
CIRCLE
5
216
100
AcDbEntity
8
0
100
AcDbCircle
10
220.5
20
197.49999900000003
30
0
40
0.75000000000000011
210
0
220
0
230
1
0
CIRCLE
5
217
100
AcDbEntity
8
0
100
AcDbCircle
10
221.55889200000001
20
198.55889099999999
30
0
40
0.14999999999999999
210
-0
220
0
230
1
0
CIRCLE
5
218
100
AcDbEntity
8
0
100
AcDbCircle
10
220.5
20
178.09999900000003
30
0
40
1.1299999999999999
210
-0
220
0
230
1
0
CIRCLE
5
219
100
AcDbEntity
8
0
100
AcDbCircle
10
185.5
20
162.49999900000003
30
0
40
0.75000000000000011
210
0
220
0
230
1
0
CIRCLE
5
220
100
AcDbEntity
8
0
100
AcDbCircle
10
186.55889200000001
20
163.55889099999999
30
0
40
0.14999999999999999
210
-0
220
0
230
1
0
CIRCLE
5
221
100
AcDbEntity
8
0
100
AcDbCircle
10
185.5
20
143.09999900000003
30
0
40
1.1299999999999999
210
-0
220
0
230
1
0
CIRCLE
5
222
100
AcDbEntity
8
0
100
AcDbCircle
10
185.5
20
127.499999
30
0
40
0.75000000000000011
210
0
220
0
230
1
0
CIRCLE
5
223
100
AcDbEntity
8
0
100
AcDbCircle
10
186.55889200000001
20
128.55889099999999
30
0
40
0.14999999999999999
210
-0
220
0
230
1
0
CIRCLE
5
224
100
AcDbEntity
8
0
100
AcDbCircle
10
220.5
20
162.49999900000003
30
0
40
0.75000000000000011
210
0
220
0
230
1
0
CIRCLE
5
225
100
AcDbEntity
8
0
100
AcDbCircle
10
221.55889200000001
20
163.55889099999999
30
0
40
0.14999999999999999
210
-0
220
0
230
1
0
CIRCLE
5
226
100
AcDbEntity
8
0
100
AcDbCircle
10
220.5
20
143.09999900000003
30
0
40
1.1299999999999999
210
-0
220
0
230
1
0
CIRCLE
5
227
100
AcDbEntity
8
0
100
AcDbCircle
10
220.5
20
127.499999
30
0
40
0.75000000000000011
210
0
220
0
230
1
0
CIRCLE
5
228
100
AcDbEntity
8
0
100
AcDbCircle
10
221.55889200000001
20
128.55889099999999
30
0
40
0.14999999999999999
210
-0
220
0
230
1
0
CIRCLE
5
229
100
AcDbEntity
8
0
100
AcDbCircle
10
255.5
20
197.49999900000003
30
0
40
0.75000000000000011
210
0
220
0
230
1
0
CIRCLE
5
230
100
AcDbEntity
8
0
100
AcDbCircle
10
256.55889200000001
20
198.55889099999999
30
0
40
0.14999999999999999
210
-0
220
0
230
1
0
CIRCLE
5
231
100
AcDbEntity
8
0
100
AcDbCircle
10
255.5
20
178.09999900000003
30
0
40
1.1299999999999999
210
-0
220
0
230
1
0
CIRCLE
5
232
100
AcDbEntity
8
0
100
AcDbCircle
10
290.5
20
197.49999900000003
30
0
40
0.75000000000000011
210
0
220
0
230
1
0
CIRCLE
5
233
100
AcDbEntity
8
0
100
AcDbCircle
10
290.5
20
178.09999900000003
30
0
40
1.1299999999999999
210
-0
220
0
230
1
0
CIRCLE
5
234
100
AcDbEntity
8
0
100
AcDbCircle
10
255.5
20
162.49999900000003
30
0
40
0.75000000000000011
210
0
220
0
230
1
0
CIRCLE
5
235
100
AcDbEntity
8
0
100
AcDbCircle
10
256.55889200000001
20
163.55889099999999
30
0
40
0.14999999999999999
210
-0
220
0
230
1
0
CIRCLE
5
236
100
AcDbEntity
8
0
100
AcDbCircle
10
255.5
20
143.09999900000003
30
0
40
1.1299999999999999
210
-0
220
0
230
1
0
CIRCLE
5
237
100
AcDbEntity
8
0
100
AcDbCircle
10
255.5
20
127.499999
30
0
40
0.75000000000000011
210
0
220
0
230
1
0
CIRCLE
5
238
100
AcDbEntity
8
0
100
AcDbCircle
10
256.55889200000001
20
128.55889099999999
30
0
40
0.14999999999999999
210
-0
220
0
230
1
0
CIRCLE
5
239
100
AcDbEntity
8
0
100
AcDbCircle
10
290.5
20
162.49999900000003
30
0
40
0.75000000000000011
210
0
220
0
230
1
0
CIRCLE
5
240
100
AcDbEntity
8
0
100
AcDbCircle
10
290.5
20
143.09999900000003
30
0
40
1.1299999999999999
210
-0
220
0
230
1
0
CIRCLE
5
241
100
AcDbEntity
8
0
100
AcDbCircle
10
290.5
20
127.499999
30
0
40
0.75000000000000011
210
0
220
0
230
1
0
CIRCLE
5
242
100
AcDbEntity
8
0
100
AcDbCircle
10
185.5
20
108.09999900000001
30
0
40
1.1299999999999999
210
-0
220
0
230
1
0
CIRCLE
5
243
100
AcDbEntity
8
0
100
AcDbCircle
10
186.55889200000001
20
93.558891000000003
30
0
40
0.14999999999999999
210
-0
220
0
230
1
0
CIRCLE
5
244
100
AcDbEntity
8
0
100
AcDbCircle
10
185.5
20
92.499999000000003
30
0
40
0.75000000000000011
210
0
220
0
230
1
0
CIRCLE
5
245
100
AcDbEntity
8
0
100
AcDbCircle
10
220.5
20
108.09999900000001
30
0
40
1.1299999999999999
210
-0
220
0
230
1
0
CIRCLE
5
246
100
AcDbEntity
8
0
100
AcDbCircle
10
220.5
20
92.499999000000003
30
0
40
0.75000000000000011
210
0
220
0
230
1
0
CIRCLE
5
247
100
AcDbEntity
8
0
100
AcDbCircle
10
221.55889200000001
20
93.558891000000003
30
0
40
0.14999999999999999
210
-0
220
0
230
1
0
CIRCLE
5
248
100
AcDbEntity
8
0
100
AcDbCircle
10
185.5
20
73.099998999999997
30
0
40
1.1299999999999999
210
-0
220
0
230
1
0
CIRCLE
5
249
100
AcDbEntity
8
0
100
AcDbCircle
10
185.5
20
57.499999000000003
30
0
40
0.74999899999999997
210
0
220
0
230
1
0
CIRCLE
5
250
100
AcDbEntity
8
0
100
AcDbCircle
10
186.55889200000001
20
58.558892
30
0
40
0.14999999999999999
210
-0
220
0
230
1
0
CIRCLE
5
251
100
AcDbEntity
8
0
100
AcDbCircle
10
220.5
20
73.099998999999997
30
0
40
1.1299999999999999
210
-0
220
0
230
1
0
CIRCLE
5
252
100
AcDbEntity
8
0
100
AcDbCircle
10
220.5
20
57.499999000000003
30
0
40
0.75000000000000011
210
0
220
0
230
1
0
CIRCLE
5
253
100
AcDbEntity
8
0
100
AcDbCircle
10
221.55889200000001
20
58.558891000000003
30
0
40
0.14999999999999999
210
-0
220
0
230
1
0
CIRCLE
5
254
100
AcDbEntity
8
0
100
AcDbCircle
10
255.5
20
108.09999900000001
30
0
40
1.1299999999999999
210
-0
220
0
230
1
0
CIRCLE
5
255
100
AcDbEntity
8
0
100
AcDbCircle
10
256.55889200000001
20
93.558891000000003
30
0
40
0.14999999999999999
210
-0
220
0
230
1
0
CIRCLE
5
256
100
AcDbEntity
8
0
100
AcDbCircle
10
255.5
20
92.499999000000003
30
0
40
0.75000000000000011
210
0
220
0
230
1
0
CIRCLE
5
257
100
AcDbEntity
8
0
100
AcDbCircle
10
290.5
20
108.09999900000001
30
0
40
1.1299999999999999
210
-0
220
0
230
1
0
CIRCLE
5
258
100
AcDbEntity
8
0
100
AcDbCircle
10
290.5
20
92.499999000000003
30
0
40
0.75000000000000011
210
0
220
0
230
1
0
CIRCLE
5
259
100
AcDbEntity
8
0
100
AcDbCircle
10
255.5
20
73.099998999999997
30
0
40
1.1299999999999999
210
-0
220
0
230
1
0
CIRCLE
5
260
100
AcDbEntity
8
0
100
AcDbCircle
10
255.5
20
57.499999000000003
30
0
40
0.75000000000000011
210
0
220
0
230
1
0
CIRCLE
5
261
100
AcDbEntity
8
0
100
AcDbCircle
10
256.55889200000001
20
58.558891000000003
30
0
40
0.14999999999999999
210
-0
220
0
230
1
0
CIRCLE
5
262
100
AcDbEntity
8
0
100
AcDbCircle
10
290.5
20
73.099998999999997
30
0
40
1.1299999999999999
210
-0
220
0
230
1
0
CIRCLE
5
263
100
AcDbEntity
8
0
100
AcDbCircle
10
290.5
20
57.499999000000003
30
0
40
0.75000000000000011
210
0
220
0
230
1
0
CIRCLE
5
264
100
AcDbEntity
8
0
100
AcDbCircle
10
291.55889200000001
20
198.55889099999999
30
0
40
0.14999999999999999
210
-0
220
0
230
1
0
CIRCLE
5
265
100
AcDbEntity
8
0
100
AcDbCircle
10
325.50000000000006
20
197.49999900000003
30
0
40
0.75000000000000011
210
0
220
0
230
1
0
CIRCLE
5
266
100
AcDbEntity
8
0
100
AcDbCircle
10
326.55889200000001
20
198.55889099999999
30
0
40
0.14999999999999999
210
-0
220
0
230
1
0
CIRCLE
5
267
100
AcDbEntity
8
0
100
AcDbCircle
10
325.50000000000006
20
178.09999900000003
30
0
40
1.1299999999999999
210
-0
220
0
230
1
0
CIRCLE
5
268
100
AcDbEntity
8
0
100
AcDbCircle
10
291.55889200000001
20
163.55889099999999
30
0
40
0.14999999999999999
210
-0
220
0
230
1
0
CIRCLE
5
269
100
AcDbEntity
8
0
100
AcDbCircle
10
291.55889200000001
20
128.55889099999999
30
0
40
0.14999999999999999
210
-0
220
0
230
1
0
CIRCLE
5
270
100
AcDbEntity
8
0
100
AcDbCircle
10
325.50000000000006
20
162.49999900000003
30
0
40
0.75000000000000011
210
0
220
0
230
1
0
CIRCLE
5
271
100
AcDbEntity
8
0
100
AcDbCircle
10
326.55889200000001
20
163.55889099999999
30
0
40
0.14999999999999999
210
-0
220
0
230
1
0
CIRCLE
5
272
100
AcDbEntity
8
0
100
AcDbCircle
10
325.50000000000006
20
143.09999900000003
30
0
40
1.1299999999999999
210
-0
220
0
230
1
0
CIRCLE
5
273
100
AcDbEntity
8
0
100
AcDbCircle
10
326.55889200000001
20
128.55889099999999
30
0
40
0.14999999999999999
210
-0
220
0
230
1
0
CIRCLE
5
274
100
AcDbEntity
8
0
100
AcDbCircle
10
325.50000000000006
20
127.499999
30
0
40
0.75000000000000011
210
0
220
0
230
1
0
CIRCLE
5
275
100
AcDbEntity
8
0
100
AcDbCircle
10
360.50000000000006
20
197.49999900000003
30
0
40
0.75000000000000011
210
0
220
0
230
1
0
CIRCLE
5
276
100
AcDbEntity
8
0
100
AcDbCircle
10
361.55889200000001
20
198.55889099999999
30
0
40
0.14999999999999999
210
-0
220
0
230
1
0
CIRCLE
5
277
100
AcDbEntity
8
0
100
AcDbCircle
10
360.50000000000006
20
178.09999900000003
30
0
40
1.1299999999999999
210
-0
220
0
230
1
0
CIRCLE
5
278
100
AcDbEntity
8
0
100
AcDbCircle
10
395.50000000000006
20
197.49999900000003
30
0
40
0.75000000000000011
210
0
220
0
230
1
0
CIRCLE
5
279
100
AcDbEntity
8
0
100
AcDbCircle
10
396.55889200000001
20
198.55889099999999
30
0
40
0.14999999999999999
210
-0
220
0
230
1
0
CIRCLE
5
280
100
AcDbEntity
8
0
100
AcDbCircle
10
395.50000000000006
20
178.09999900000003
30
0
40
1.1299999999999999
210
-0
220
0
230
1
0
CIRCLE
5
281
100
AcDbEntity
8
0
100
AcDbCircle
10
360.50000000000006
20
162.49999900000003
30
0
40
0.75000000000000011
210
0
220
0
230
1
0
CIRCLE
5
282
100
AcDbEntity
8
0
100
AcDbCircle
10
361.55889200000001
20
163.55889099999999
30
0
40
0.14999999999999999
210
-0
220
0
230
1
0
CIRCLE
5
283
100
AcDbEntity
8
0
100
AcDbCircle
10
360.50000000000006
20
143.09999900000003
30
0
40
1.1299999999999999
210
-0
220
0
230
1
0
CIRCLE
5
284
100
AcDbEntity
8
0
100
AcDbCircle
10
361.55889200000001
20
128.55889099999999
30
0
40
0.14999999999999999
210
-0
220
0
230
1
0
CIRCLE
5
285
100
AcDbEntity
8
0
100
AcDbCircle
10
360.50000000000006
20
127.499999
30
0
40
0.75000000000000011
210
0
220
0
230
1
0
CIRCLE
5
286
100
AcDbEntity
8
0
100
AcDbCircle
10
395.50000000000006
20
162.49999900000003
30
0
40
0.75000000000000011
210
0
220
0
230
1
0
CIRCLE
5
287
100
AcDbEntity
8
0
100
AcDbCircle
10
396.55889200000001
20
163.55889099999999
30
0
40
0.14999999999999999
210
-0
220
0
230
1
0
CIRCLE
5
288
100
AcDbEntity
8
0
100
AcDbCircle
10
395.50000000000006
20
143.09999900000003
30
0
40
1.1299999999999999
210
-0
220
0
230
1
0
CIRCLE
5
289
100
AcDbEntity
8
0
100
AcDbCircle
10
396.55889200000001
20
128.55889099999999
30
0
40
0.14999999999999999
210
-0
220
0
230
1
0
CIRCLE
5
290
100
AcDbEntity
8
0
100
AcDbCircle
10
395.50000000000006
20
127.499999
30
0
40
0.75000000000000011
210
0
220
0
230
1
0
CIRCLE
5
291
100
AcDbEntity
8
0
100
AcDbCircle
10
291.55889200000001
20
93.558891000000003
30
0
40
0.14999999999999999
210
-0
220
0
230
1
0
CIRCLE
5
292
100
AcDbEntity
8
0
100
AcDbCircle
10
325.50000000000006
20
108.09999900000001
30
0
40
1.1299999999999999
210
-0
220
0
230
1
0
CIRCLE
5
293
100
AcDbEntity
8
0
100
AcDbCircle
10
326.55889200000001
20
93.558891000000003
30
0
40
0.14999999999999999
210
-0
220
0
230
1
0
CIRCLE
5
294
100
AcDbEntity
8
0
100
AcDbCircle
10
325.50000000000006
20
92.499999000000003
30
0
40
0.75000000000000011
210
0
220
0
230
1
0
CIRCLE
5
295
100
AcDbEntity
8
0
100
AcDbCircle
10
291.55889200000001
20
58.558891000000003
30
0
40
0.14999999999999999
210
-0
220
0
230
1
0
CIRCLE
5
296
100
AcDbEntity
8
0
100
AcDbCircle
10
299.68999700000001
20
28.999996000000003
30
0
40
0.69999999999999996
210
-0
220
0
230
1
0
CIRCLE
5
297
100
AcDbEntity
8
0
100
AcDbCircle
10
303.49999800000001
20
29.000000000000004
30
0
40
0.69999999999999996
210
-0
220
0
230
1
0
CIRCLE
5
298
100
AcDbEntity
8
0
100
AcDbCircle
10
311.31344000000001
20
36.262877000000003
30
0
40
1.3500000000000001
210
-0
220
0
230
1
0
CIRCLE
5
299
100
AcDbEntity
8
0
100
AcDbCircle
10
311.31344100000001
20
30.062739000000001
30
0
40
1.3500000000000001
210
-0
220
0
230
1
0
CIRCLE
5
300
100
AcDbEntity
8
0
100
AcDbCircle
10
316.01244000000003
20
33.26313900000001
30
0
40
1.3500000000000001
210
0
220
0
230
1
0
CIRCLE
5
301
100
AcDbEntity
8
0
100
AcDbCircle
10
325.50000000000006
20
73.099998999999997
30
0
40
1.1299999999999999
210
-0
220
0
230
1
0
CIRCLE
5
302
100
AcDbEntity
8
0
100
AcDbCircle
10
326.55889200000001
20
58.558891000000003
30
0
40
0.14999999999999999
210
-0
220
0
230
1
0
CIRCLE
5
303
100
AcDbEntity
8
0
100
AcDbCircle
10
325.50000000000006
20
57.499999000000003
30
0
40
0.75000000000000011
210
0
220
0
230
1
0
CIRCLE
5
304
100
AcDbEntity
8
0
100
AcDbCircle
10
360.50000000000006
20
108.09999900000001
30
0
40
1.1299999999999999
210
-0
220
0
230
1
0
CIRCLE
5
305
100
AcDbEntity
8
0
100
AcDbCircle
10
361.55889200000001
20
93.558891000000003
30
0
40
0.14999999999999999
210
-0
220
0
230
1
0
CIRCLE
5
306
100
AcDbEntity
8
0
100
AcDbCircle
10
360.50000000000006
20
92.499999000000003
30
0
40
0.75000000000000011
210
0
220
0
230
1
0
CIRCLE
5
307
100
AcDbEntity
8
0
100
AcDbCircle
10
395.50000000000006
20
108.09999900000001
30
0
40
1.1299999999999999
210
-0
220
0
230
1
0
CIRCLE
5
308
100
AcDbEntity
8
0
100
AcDbCircle
10
396.55889200000001
20
93.558891000000003
30
0
40
0.14999999999999999
210
-0
220
0
230
1
0
CIRCLE
5
309
100
AcDbEntity
8
0
100
AcDbCircle
10
395.50000000000006
20
92.499999000000003
30
0
40
0.75000000000000011
210
0
220
0
230
1
0
CIRCLE
5
310
100
AcDbEntity
8
0
100
AcDbCircle
10
360.50000000000006
20
73.099998999999997
30
0
40
1.1299999999999999
210
-0
220
0
230
1
0
CIRCLE
5
311
100
AcDbEntity
8
0
100
AcDbCircle
10
361.55889200000001
20
58.558891000000003
30
0
40
0.14999999999999999
210
-0
220
0
230
1
0
CIRCLE
5
312
100
AcDbEntity
8
0
100
AcDbCircle
10
360.50000000000006
20
57.499999000000003
30
0
40
0.75000000000000011
210
0
220
0
230
1
0
CIRCLE
5
313
100
AcDbEntity
8
0
100
AcDbCircle
10
395.50000000000006
20
73.099998999999997
30
0
40
1.1299999999999999
210
-0
220
0
230
1
0
CIRCLE
5
314
100
AcDbEntity
8
0
100
AcDbCircle
10
396.55889200000001
20
58.558891000000003
30
0
40
0.14999999999999999
210
-0
220
0
230
1
0
CIRCLE
5
315
100
AcDbEntity
8
0
100
AcDbCircle
10
395.50000000000006
20
57.499999000000003
30
0
40
0.75000000000000011
210
0
220
0
230
1
0
LWPOLYLINE
5
316
100
AcDbEntity
8
0
100
AcDbPolyline
90
4
70
1
43
0.0
10
418.5
20
27.499999000000006
10
162.5
20
27.499999000000006
10
162.49999999999997
20
402.499999
10
418.5
20
402.499999
0
CIRCLE
5
317
100
AcDbEntity
8
0
100
AcDbCircle
10
410.50000000000006
20
35.499999000000003
30
0
40
2.5000000000000213
210
0
220
0
230
1
0
CIRCLE
5
318
100
AcDbEntity
8
0
100
AcDbCircle
10
170.49999999999997
20
35.499999000000003
30
0
40
2.4999999999999862
210
0
220
0
230
1
0
CIRCLE
5
319
100
AcDbEntity
8
0
100
AcDbCircle
10
410.50000000000006
20
394.499999
30
0
40
2.5000000000000338
210
0
220
0
230
1
0
CIRCLE
5
320
100
AcDbEntity
8
0
100
AcDbCircle
10
170.49999999999997
20
394.499999
30
0
40
2.5000000000000115
210
0
220
0
230
1
0
ENDSEC
0
SECTION
2
OBJECTS
0
DICTIONARY
5
C
100
AcDbDictionary
3
ACAD_GROUP
350
D
3
ACAD_MLINESTYLE
350
17
0
DICTIONARY
5
D
100
AcDbDictionary
0
DICTIONARY
5
1A
330
C
100
AcDbDictionary
0
DICTIONARY
5
17
100
AcDbDictionary
0
ENDSEC
0
EOF
