0
SECTION
2
HEADER
9
$INSUNITS
70
4
9
$ACADVER
1
AC1014
9
$HANDSEED
5
FFFF
0
ENDSEC
0
SECTION
2
TABLES
0
TABLE
2
VPORT
5
8
100
AcDbSymbolTable
0
ENDTAB
0
TABLE
2
LTYPE
5
5
100
AcDbSymbolTable
0
LTYPE
5
14
100
AcDbSymbolTableRecord
100
AcDbLinetypeTableRecord
2
BYBLOCK
70
0
0
LTYPE
5
15
100
AcDbSymbolTableRecord
100
AcDbLinetypeTableRecord
2
BYLAYER
70
0
0
ENDTAB
0
TABLE
2
LAYER
5
2
100
AcDbSymbolTable
70
2
0
LAYER
5
50
100
AcDbSymbolTableRecord
100
AcDbLayerTableRecord
2
0
70
0
6
CONTINUOUS
0
ENDTAB
0
TABLE
2
STYLE
5
3
100
AcDbSymbolTable
70
1
0
STYLE
5
11
100
AcDbSymbolTableRecord
100
AcDbTextStyleTableRecord
2
STANDARD
70
0
0
ENDTAB
0
TABLE
2
VIEW
5
6
100
AcDbSymbolTable
70
0
0
ENDTAB
0
TABLE
2
UCS
5
7
100
AcDbSymbolTable
70
0
0
ENDTAB
0
TABLE
2
APPID
5
9
100
AcDbSymbolTable
70
2
0
APPID
5
12
100
AcDbSymbolTableRecord
100
AcDbRegAppTableRecord
2
ACAD
70
0
0
ENDTAB
0
TABLE
2
DIMSTYLE
5
A
100
AcDbSymbolTable
70
1
0
ENDTAB
0
TABLE
2
BLOCK_RECORD
5
1
100
AcDbSymbolTable
70
1
0
BLOCK_RECORD
5
1F
100
AcDbSymbolTableRecord
100
AcDbBlockTableRecord
2
*MODEL_SPACE
0
BLOCK_RECORD
5
1B
100
AcDbSymbolTableRecord
100
AcDbBlockTableRecord
2
*PAPER_SPACE
0
ENDTAB
0
ENDSEC
0
SECTION
2
BLOCKS
0
BLOCK
5
20
100
AcDbEntity
100
AcDbBlockBegin
2
*MODEL_SPACE
0
ENDBLK
5
21
100
AcDbEntity
100
AcDbBlockEnd
0
BLOCK
5
1C
100
AcDbEntity
100
AcDbBlockBegin
2
*PAPER_SPACE
0
ENDBLK
5
1D
100
AcDbEntity
100
AcDbBlockEnd
0
ENDSEC
0
SECTION
2
ENTITIES
0
LWPOLYLINE
5
100
100
AcDbEntity
8
0
100
AcDbPolyline
90
112
70
1
43
0.0
10
48.34794200000001
20
31.401534999999985
10
48.227778000000008
20
31.451654999999981
10
48.098745000000029
20
31.468986999999984
10
-80.181931999999989
20
31.464262999999981
10
-80.311439000000007
20
31.447210999999982
10
-80.432096999999985
20
31.397164999999987
10
-86.826979000000009
20
27.700091999999987
10
-86.930430999999999
20
27.620619999999985
10
-87.009800999999982
20
27.517088999999988
10
-87.059684999999973
20
27.396548999999979
10
-87.076725999999979
20
27.267207999999989
10
-87.076313999999996
20
15.91126899999999
10
-87.093346999999994
20
15.78186999999998
10
-87.143279999999976
20
15.661283999999993
10
-87.222711999999973
20
15.557723999999986
10
-87.326232999999988
20
15.478240999999979
10
-87.446795000000009
20
15.428249999999988
10
-87.576184999999995
20
15.411140999999979
10
-87.70534099999999
20
15.394188999999976
10
-87.825735999999992
20
15.344454999999977
10
-87.929201000000006
20
15.265312999999985
10
-88.008716000000007
20
15.162132999999978
10
-88.058882999999994
20
15.04191699999998
10
-88.076274999999981
20
14.912822999999982
10
-88.075859999999992
20
2.9492739999999884
10
-88.058819999999997
20
2.8198609999999924
10
-88.008866999999995
20
2.6992669999999919
10
-87.929403999999991
20
2.5957119999999811
10
-87.825845999999999
20
2.5162519999999944
10
-87.705252000000002
20
2.4663009999999908
10
-87.57583799999999
20
2.4492909999999846
10
-86.075704000000002
20
2.4493559999999981
10
-85.946277000000009
20
2.4323529999999849
10
-85.825664999999987
20
2.3824189999999845
10
-85.722093999999984
20
2.3029609999999856
10
-85.642627000000005
20
2.1993969999999941
10
-85.592682999999994
20
2.0787889999999898
10
-85.575681999999986
20
1.949362999999984
10
-85.575570999999997
20
-6.2506210000000095
10
-85.558511999999993
20
-6.3800260000000186
10
-85.508549999999985
20
-6.5006110000000206
10
-85.429087999999993
20
-6.6041610000000261
10
-85.325537999999995
20
-6.6836230000000185
10
-85.204953999999987
20
-6.7335860000000203
10
-85.075548999999995
20
-6.7506140000000237
10
-82.822783999999984
20
-6.7505120000000218
10
-82.627687000000009
20
-6.7697200000000102
10
-82.440087000000005
20
-6.8266210000000171
10
-82.267192999999992
20
-6.9190280000000115
10
-82.115648999999991
20
-7.0433900000000271
10
-81.991278999999992
20
-7.1949290000000232
10
-81.898863999999989
20
-7.3678190000000221
10
-81.841953999999987
20
-7.5554160000000081
10
-81.822737999999987
20
-7.7505120000000183
10
-81.822737999999987
20
-17.758566000000027
10
-81.841385000000002
20
-17.950732000000027
10
-81.896612000000005
20
-18.135733000000016
10
-81.986361000000002
20
-18.306673000000018
10
-82.107285000000005
20
-18.457181000000009
10
-82.254878999999988
20
-18.581646000000021
10
-82.423640000000006
20
-18.675429000000019
10
-82.607277000000011
20
-18.735034000000024
10
-82.798944999999989
20
-18.75828300000002
10
-82.990638999999987
20
-18.781477000000013
10
-83.174300999999986
20
-18.841084000000023
10
-83.343080999999998
20
-18.934880000000014
10
-83.490687000000008
20
-19.05936800000001
10
-83.611612999999991
20
-19.209906000000032
10
-83.701349999999991
20
-19.380879000000011
10
-83.756551000000002
20
-19.565912000000019
10
-83.775151999999991
20
-19.758106000000026
10
-83.774339999999995
20
-27.435002000000015
10
-83.757287999999988
20
-27.564395000000026
10
-83.70733700000001
20
-27.684970000000018
10
-83.627889999999994
20
-27.788515000000018
10
-83.524346000000008
20
-27.867959000000013
10
-77.435698999999985
20
-31.383342000000027
10
-77.315100999999999
20
-31.433313000000016
10
-77.185675999999987
20
-31.450333000000015
10
42.611340999999996
20
-31.446061000000025
10
42.740741
20
-31.429005000000032
10
42.861320000000021
20
-31.379044000000018
10
42.964862000000004
20
-31.299581000000032
10
43.04431300000001
20
-31.196030000000015
10
43.09426000000002
20
-31.07544500000003
10
43.111323000000006
20
-30.946043000000021
10
43.111054000000024
20
-23.71097500000003
10
43.132124000000012
20
-23.334616000000015
10
43.195107000000021
20
-22.962966000000016
10
43.299213000000023
20
-22.600678000000016
10
43.443139000000031
20
-22.252288000000018
10
43.625083999999994
20
-21.92215700000002
10
43.842769000000033
20
-21.614418000000022
10
44.093470000000003
20
-21.332923000000008
10
44.374049000000007
20
-21.08119600000002
10
44.68099200000001
20
-20.862389000000015
10
45.010457000000024
20
-20.679241000000026
10
45.358320000000028
20
-20.53404500000001
10
45.720225000000028
20
-20.428618000000025
10
46.091643000000033
20
-20.364280000000008
10
46.467923000000013
20
-20.341901000000018
10
48.098770000000037
20
-20.341654000000009
10
48.228164000000007
20
-20.324592000000017
10
48.34873500000004
20
-20.27462700000001
10
48.452270000000013
20
-20.195163000000012
10
48.531714000000008
20
-20.091613000000024
10
48.581655999999995
20
-19.971032000000015
10
48.59868800000001
20
-19.841635000000011
10
48.596806000000008
20
30.96922799999998
10
48.579882000000012
20
31.098320999999984
10
48.530181000000034
20
31.218658999999988
10
48.45107800000001
20
31.322070999999987
0
LWPOLYLINE
5
101
100
AcDbEntity
8
0
100
AcDbPolyline
90
56
70
1
43
0.0
10
28.879429999999999
20
-20.221373000000025
10
29.008827000000004
20
-20.204331000000018
10
29.138226000000031
20
-20.221357000000015
10
29.258808999999992
20
-20.271293000000021
10
29.362361000000021
20
-20.350734000000017
10
29.441826000000013
20
-20.454268000000013
10
30.191826000000006
20
-21.753306000000023
10
30.241799
20
-21.873878000000033
10
30.258812000000042
20
-22.003290000000018
10
30.24176200000003
20
-22.132698000000026
10
30.191809000000021
20
-22.253287000000022
10
30.112356000000027
20
-22.356845000000014
10
30.008814000000008
20
-22.436319000000022
10
29.142788000000017
20
-22.936319000000012
10
29.039220000000014
20
-23.015754000000026
10
28.959768000000032
20
-23.119317000000024
10
28.909824000000022
20
-23.23991300000003
10
28.892790999999995
20
-23.369326000000026
10
28.909828000000033
20
-23.498738000000028
10
28.959776000000019
20
-23.619332000000028
10
29.459784000000013
20
-24.485371000000029
10
29.50973900000001
20
-24.605954000000025
10
29.526760000000003
20
-24.73536300000001
10
29.509715000000014
20
-24.864770000000007
10
29.45976500000004
20
-24.98535900000002
10
29.380312000000011
20
-25.088915000000025
10
29.276769000000016
20
-25.168385000000022
10
23.495778000000023
20
-28.506004000000029
10
23.375194999999991
20
-28.555987000000016
10
23.245778000000001
20
-28.573035000000022
10
23.116361000000012
20
-28.55599800000002
10
22.995765000000006
20
-28.50603900000003
10
22.892214000000024
20
-28.426564000000027
10
22.812767000000029
20
-28.32299100000002
10
22.312775999999985
20
-27.456979000000032
10
22.233317000000028
20
-27.353428000000015
10
22.129761999999999
20
-27.273972000000022
10
22.009172000000028
20
-27.224024000000018
10
21.879763000000025
20
-27.206987000000016
10
21.750354999999999
20
-27.224021000000018
10
21.629763000000004
20
-27.273966000000023
10
20.763737000000013
20
-27.77396600000003
10
20.643151000000017
20
-27.823921000000027
10
20.513741000000003
20
-27.840953000000024
10
20.384332000000001
20
-27.823913000000022
10
20.263742000000029
20
-27.773962000000019
10
20.160188000000012
20
-27.694505000000014
10
20.080725000000008
20
-27.590954000000014
10
19.330725000000015
20
-26.291916000000022
10
19.280825000000021
20
-26.171311000000017
10
19.263794999999995
20
-26.041911000000013
10
19.280828999999997
20
-25.912512000000021
10
19.330767000000009
20
-25.791929000000025
10
19.410206000000017
20
-25.688374000000014
10
19.513737000000013
20
-25.608903000000023
10
28.758814000000008
20
-20.271256000000015
0
CIRCLE
5
102
100
AcDbEntity
8
0
100
AcDbCircle
10
7.3361570000000142
20
-27.568018000000016
30
0
40
0.44999999999999996
210
0
220
2.4651903288156624e-32
230
1
0
CIRCLE
5
103
100
AcDbEntity
8
0
100
AcDbCircle
10
7.3761570000000276
20
-24.768018000000023
30
0
40
0.44999999999999996
210
0
220
2.4651903288156624e-32
230
1
0
LWPOLYLINE
5
104
100
AcDbEntity
8
0
100
AcDbPolyline
90
56
70
1
43
0.0
10
-0.82061699999997018
20
-20.222282000000007
10
-0.69119900000000456
20
-20.205256000000009
10
-0.56178500000001463
20
-20.222304000000015
10
-0.44119099999999634
20
-20.272264000000018
10
-0.33763499999999169
20
-20.351732000000027
10
-0.25817399999997548
20
-20.455292000000025
10
0.49182600000001742
20
-21.754330000000017
10
0.54180900000002197
20
-21.87490900000002
10
0.55884599999998841
20
-22.004325000000016
10
0.54180500000001075
20
-22.133740000000017
10
0.49184800000002582
20
-22.254334000000018
10
0.41237899999998717
20
-22.357888000000017
10
0.30881399999998393
20
-22.437343000000016
10
-0.5572119999999714
20
-22.937343000000023
10
-0.66079099999999613
20
-23.016772000000021
10
-0.7402529999999885
20
-23.120332000000019
10
-0.79020199999998653
20
-23.240930000000013
10
-0.80723399999996559
20
-23.37034700000002
10
-0.79018699999998887
20
-23.499762000000022
10
-0.74022400000000488
20
-23.620355000000028
10
-0.24021599999997534
20
-24.486395000000023
10
-0.19023599999997032
20
-24.606967000000015
10
-0.17321899999998891
20
-24.736381000000023
10
-0.19026900000000069
20
-24.865791000000019
10
-0.24022399999999777
20
-24.98638200000002
10
-0.31968299999999061
20
-25.089939000000019
10
-0.42323100000000835
20
-25.169409000000016
10
-6.2042220000000015
20
-28.507028000000005
10
-6.3247949999999875
20
-28.557044000000023
10
-6.454217999999976
20
-28.574096000000022
10
-6.5836429999999879
20
-28.557057000000015
10
-6.7042419999999758
20
-28.507090000000019
10
-6.8077929999999931
20
-28.427602000000007
10
-6.8872320000000009
20
-28.32401400000002
10
-7.3872239999999856
20
-27.458003000000009
10
-7.4666709999999803
20
-27.354447000000022
10
-7.5702319999999901
20
-27.275000000000009
10
-7.6908249999999967
20
-27.22505700000001
10
-7.8202329999999876
20
-27.20802100000002
10
-7.9496430000000018
20
-27.225052000000005
10
-8.0702369999999846
20
-27.274990000000017
10
-8.9362629999999754
20
-27.774990000000024
10
-9.0568389999999788
20
-27.824979000000027
10
-9.1862560000000038
20
-27.842014000000006
10
-9.3156719999999993
20
-27.824972000000017
10
-9.4362659999999998
20
-27.775013000000026
10
-9.5398199999999811
20
-27.695542000000017
10
-9.6192749999999982
20
-27.591977000000014
10
-10.369275000000009
20
-26.292939000000022
10
-10.419193999999994
20
-26.172337000000017
10
-10.436233999999995
20
-26.042933000000019
10
-10.419201999999999
20
-25.913528000000028
10
-10.369258999999982
20
-25.79294100000002
10
-10.289807999999976
20
-25.689388000000015
10
-10.186262999999975
20
-25.609927000000017
10
-0.94118600000001607
20
-20.272279000000015
0
CIRCLE
5
105
100
AcDbEntity
8
0
100
AcDbCircle
10
8.8461570000000123
20
-17.518018000000026
30
0
40
0.5
210
0
220
0
230
1
0
CIRCLE
5
106
100
AcDbEntity
8
0
100
AcDbCircle
10
-20.853842999999994
20
-17.518018000000026
30
0
40
0.5
210
0
220
0
230
1
0
LWPOLYLINE
5
107
100
AcDbEntity
8
0
100
AcDbPolyline
90
44
70
1
43
0.0
10
18.065308000000009
20
-10.94127600000002
10
18.34993800000003
20
-10.920919000000016
10
18.634568000000016
20
-10.94127600000002
10
18.913402999999995
20
-11.001933000000008
10
19.180768000000015
20
-11.101655000000008
10
19.431220000000025
20
-11.238412000000011
10
19.659659000000005
20
-11.409420000000026
10
19.861436999999995
20
-11.611198000000016
10
20.03244500000001
20
-11.839637000000014
10
20.169202000000013
20
-12.090089000000006
10
20.268924000000013
20
-12.357454000000025
10
20.329581000000019
20
-12.636289000000005
10
20.349938000000023
20
-12.920919000000026
10
20.329581000000019
20
-13.20554900000003
10
20.268924000000013
20
-13.484384000000009
10
20.169202000000013
20
-13.751749000000029
10
20.03244500000001
20
-14.002201000000021
10
19.861436999999995
20
-14.230640000000019
10
19.659659000000005
20
-14.432418000000027
10
19.431220000000025
20
-14.603426000000024
10
19.180768000000015
20
-14.740183000000027
10
18.913402999999995
20
-14.839905000000027
10
18.634568000000016
20
-14.900562000000015
10
18.34993800000003
20
-14.920919000000019
10
18.065308000000009
20
-14.900562000000015
10
17.786473000000029
20
-14.839905000000027
10
17.51910800000001
20
-14.740183000000027
10
17.268656
20
-14.603426000000024
10
17.040216999999984
20
-14.432418000000027
10
16.838438999999994
20
-14.230640000000019
10
16.667431000000015
20
-14.002201000000021
10
16.530674000000012
20
-13.751749000000029
10
16.430952000000012
20
-13.484384000000009
10
16.370295000000006
20
-13.20554900000003
10
16.349938000000037
20
-12.920919000000026
10
16.370295000000006
20
-12.636289000000005
10
16.430952000000012
20
-12.357454000000025
10
16.530674000000012
20
-12.090089000000006
10
16.667431000000015
20
-11.839637000000014
10
16.838438999999994
20
-11.611198000000016
10
17.040216999999984
20
-11.409420000000026
10
17.268656
20
-11.238412000000011
10
17.51910800000001
20
-11.101655000000008
10
17.786473000000029
20
-11.001933000000008
0
LWPOLYLINE
5
108
100
AcDbEntity
8
0
100
AcDbPolyline
90
56
70
1
43
0.0
10
23.129445000000004
20
2.7428999999999881
10
23.258854999999983
20
2.7599359999999784
10
23.388264999999997
20
2.742900999999982
10
23.508858000000004
20
2.6929559999999775
10
29.289823999999989
20
-0.64470500000002318
10
29.393367999999995
20
-0.72418600000002442
10
29.472842000000021
20
-0.82772900000000149
10
29.522802000000006
20
-0.94831500000001512
10
29.539841000000031
20
-1.0777240000000177
10
29.522799000000006
20
-1.2071330000000202
10
29.472836000000022
20
-1.3277180000000222
10
28.972840000000026
20
-2.1937360000000261
10
28.922917000000012
20
-2.3143320000000145
10
28.905889000000009
20
-2.4437360000000119
10
28.922927000000023
20
-2.5731390000000154
10
28.972870000000022
20
-2.6937250000000112
10
29.052316000000005
20
-2.797280000000022
10
29.155853000000036
20
-2.8767490000000251
10
30.021878000000015
20
-3.3767490000000144
10
30.125397000000014
20
-3.4562430000000255
10
30.204842999999997
20
-3.5597920000000194
10
30.254790000000007
20
-3.6803730000000279
10
30.27183400000002
20
-3.8097700000000145
10
30.254814000000003
20
-3.9391710000000124
10
30.204891000000025
20
-4.0597610000000195
10
29.454891000000032
20
-5.3587990000000296
10
29.375409000000019
20
-5.4623360000000076
10
29.271862000000013
20
-5.5417970000000238
10
29.151277000000029
20
-5.5917500000000153
10
29.021872000000037
20
-5.6087910000000107
10
28.892465999999999
20
-5.59175800000002
10
28.771878000000015
20
-5.5418120000000037
10
19.526802000000032
20
-0.20416500000001392
10
19.42320800000001
20
-0.12474600000002667
10
19.343733999999984
20
-0.021188000000016416
10
19.29377800000001
20
0.099413999999971026
10
19.276748999999995
20
0.22883699999997731
10
19.293806999999994
20
0.35825699999998406
10
19.343788999999987
20
0.47884799999998506
10
20.093789000000015
20
1.7778859999999774
10
20.173268000000029
20
1.8814109999999751
10
20.276825000000009
20
1.9608489999999712
10
20.397408000000006
20
2.0107889999999884
10
20.526806999999998
20
2.0278309999999955
10
20.65620899999999
20
2.0108149999999902
10
20.776802000000032
20
1.9608989999999871
10
21.642827000000011
20
1.46089899999998
10
21.763408999999996
20
1.4109509999999759
10
21.892817000000022
20
1.3939359999999823
10
22.022220000000026
20
1.4109819999999829
10
22.142807000000033
20
1.460928999999993
10
22.246365000000026
20
1.5403759999999878
10
22.325840000000028
20
1.6439109999999779
10
22.825844000000011
20
2.5099439999999795
10
22.905294000000005
20
2.6135009999999781
10
23.008853000000009
20
2.6929539999999896
0
LWPOLYLINE
5
109
100
AcDbEntity
8
0
100
AcDbPolyline
90
56
70
1
43
0.0
10
4.6478400000000164
20
-7.0972160000000173
10
4.7772620000000288
20
-7.0802010000000237
10
6.2772620000000146
20
-7.0802010000000237
10
6.4066689999999937
20
-7.0972510000000177
10
6.527257000000013
20
-7.1472000000000158
10
6.6308100000000181
20
-7.2266570000000208
10
6.7102690000000109
20
-7.3302070000000263
10
6.7602210000000085
20
-7.4507940000000161
10
6.7772620000000217
20
-7.5802010000000308
10
6.7772620000000217
20
-18.25549500000001
10
6.7601820000000146
20
-18.384893000000009
10
6.7102280000000292
20
-18.505471000000018
10
6.6307749999999999
20
-18.609016000000018
10
6.5272339999999929
20
-18.688475000000011
10
6.406659000000019
20
-18.738436000000007
10
6.2772620000000146
20
-18.755495000000018
10
4.7772620000000288
20
-18.755495000000018
10
4.647849000000015
20
-18.738476000000013
10
4.5272560000000084
20
-18.688524000000015
10
4.4237010000000154
20
-18.609061000000011
10
4.3442420000000226
20
-18.50550400000003
10
4.2942940000000362
20
-18.384909000000018
10
4.2772620000000217
20
-18.25549500000001
10
4.2772620000000217
20
-17.255495000000014
10
4.2602370000000178
20
-17.126085000000018
10
4.2102830000000324
20
-17.00549500000001
10
4.1308200000000284
20
-16.901942000000005
10
4.0272649999999999
20
-16.822483000000013
10
3.9066730000000049
20
-16.772533000000021
10
3.7772620000000146
20
-16.755495000000025
10
2.7772620000000359
20
-16.755495000000025
10
2.6478490000000221
20
-16.73847600000002
10
2.5272560000000155
20
-16.688524000000022
10
2.4237010000000225
20
-16.609061000000018
10
2.3442420000000297
20
-16.50550400000002
10
2.2942940000000078
20
-16.384909000000007
10
2.2772620000000288
20
-16.255495000000018
10
2.2772620000000288
20
-9.5802010000000237
10
2.294261000000013
20
-9.4507800000000231
10
2.3442059999999998
20
-9.3301770000000062
10
2.4236700000000155
20
-9.2266160000000141
10
2.5272350000000188
20
-9.1471560000000096
10
2.6478400000000235
20
-9.0972160000000279
10
2.7772620000000359
20
-9.0802010000000166
10
3.7772620000000146
20
-9.0802010000000166
10
3.906665000000018
20
-9.0631630000000207
10
4.027245999999991
20
-9.013200000000019
10
4.1307919999999854
20
-8.9337380000000088
10
4.210250000000002
20
-8.830188000000021
10
4.2602080000000342
20
-8.7096050000000247
10
4.2772620000000217
20
-8.5802010000000273
10
4.2772620000000217
20
-7.5802010000000308
10
4.2942610000000059
20
-7.4507800000000124
10
4.3442059999999927
20
-7.3301770000000133
10
4.4236700000000084
20
-7.2266160000000212
10
4.5272350000000117
20
-7.1471560000000167
0
CIRCLE
5
110
100
AcDbEntity
8
0
100
AcDbCircle
10
8.8461570000000123
20
-8.3180180000000092
30
0
40
0.5
210
0
220
0
230
1
0
LWPOLYLINE
5
111
100
AcDbEntity
8
0
100
AcDbPolyline
90
44
70
1
43
0.0
10
-11.63469199999998
20
-10.94127600000002
10
-11.350061999999994
20
-10.920919000000016
10
-11.065432000000008
20
-10.94127600000002
10
-10.786596999999993
20
-11.001933000000008
10
-10.519232000000009
20
-11.101655000000008
10
-10.268779999999982
20
-11.238412000000011
10
-10.040341000000002
20
-11.409420000000026
10
-9.8385629999999757
20
-11.611198000000016
10
-9.6675549999999788
20
-11.839637000000014
10
-9.5307979999999937
20
-12.090089000000006
10
-9.4310760000000116
20
-12.357454000000025
10
-9.3704189999999876
20
-12.636289000000005
10
-9.3500620000000012
20
-12.920919000000026
10
-9.3704189999999876
20
-13.20554900000003
10
-9.4310760000000116
20
-13.484384000000009
10
-9.5307979999999937
20
-13.751749000000029
10
-9.6675549999999788
20
-14.002201000000021
10
-9.8385629999999757
20
-14.230640000000019
10
-10.040341000000002
20
-14.432418000000027
10
-10.268779999999982
20
-14.603426000000024
10
-10.519232000000009
20
-14.740183000000027
10
-10.786596999999993
20
-14.839905000000027
10
-11.065432000000008
20
-14.900562000000015
10
-11.350061999999994
20
-14.920919000000019
10
-11.63469199999998
20
-14.900562000000015
10
-11.913526999999995
20
-14.839905000000027
10
-12.180891999999979
20
-14.740183000000027
10
-12.431343999999989
20
-14.603426000000024
10
-12.659782999999987
20
-14.432418000000027
10
-12.861560999999977
20
-14.230640000000019
10
-13.032568999999974
20
-14.002201000000021
10
-13.169325999999995
20
-13.751749000000029
10
-13.269047999999977
20
-13.484384000000009
10
-13.329705000000001
20
-13.20554900000003
10
-13.350061999999987
20
-12.920919000000026
10
-13.329705000000001
20
-12.636289000000005
10
-13.269047999999977
20
-12.357454000000025
10
-13.169325999999995
20
-12.090089000000006
10
-13.032568999999974
20
-11.839637000000014
10
-12.861560999999977
20
-11.611198000000016
10
-12.659782999999987
20
-11.409420000000026
10
-12.431343999999989
20
-11.238412000000011
10
-12.180891999999979
20
-11.101655000000008
10
-11.913526999999995
20
-11.001933000000008
0
CIRCLE
5
112
100
AcDbEntity
8
0
100
AcDbCircle
10
-20.853842999999994
20
-8.3180180000000092
30
0
40
0.5
210
0
220
0
230
1
0
LWPOLYLINE
5
113
100
AcDbEntity
8
0
100
AcDbPolyline
90
56
70
1
43
0.0
10
-6.5705540000000084
20
2.741878999999976
10
-6.4411439999999942
20
2.758914999999984
10
-6.31173399999998
20
2.741878999999976
10
-6.1911420000000028
20
2.6919319999999836
10
-0.41017599999999987
20
-0.64572900000001709
10
-0.30661399999999617
20
-0.7251880000000277
10
-0.22714100000001736
20
-0.82873600000000991
10
-0.17718299999998521
20
-0.94932700000001091
10
-0.16014699999999493
20
-1.0787410000000186
10
-0.17719499999998334
20
-1.2081540000000146
10
-0.22716400000000192
20
-1.3287410000000044
10
-0.72715999999999781
20
-2.19476000000002
10
-0.77710699999997246
20
-2.3153460000000159
10
-0.79413099999996462
20
-2.4447540000000245
10
-0.77708799999996359
20
-2.5741590000000159
10
-0.72713999999997725
20
-2.6947470000000173
10
-0.64768900000000684
20
-2.798303000000022
10
-0.54414699999998817
20
-2.8777720000000073
10
0.32187800000002653
20
-3.3777720000000144
10
0.42540200000001249
20
-3.457276000000018
10
0.50487000000000393
20
-3.5608140000000077
10
0.55482900000001223
20
-3.6813950000000162
10
0.57187200000001326
20
-3.810797000000008
10
0.55483899999998698
20
-3.9402010000000232
10
0.50489100000000064
20
-4.0607850000000134
10
-0.24510899999999225
20
-5.3598230000000058
10
-0.32460399999997946
20
-5.4633550000000142
10
-0.42814399999997477
20
-5.5428240000000173
10
-0.54872700000000663
20
-5.5927830000000078
10
-0.67813099999998627
20
-5.6098250000000149
10
-0.80753699999998929
20
-5.5927890000000069
10
-0.92812199999997347
20
-5.5428360000000154
10
-10.173197999999992
20
-0.20518800000001391
10
-10.276786999999992
20
-0.12577800000000749
10
-10.356240000000003
20
-0.02221000000002249
10
-10.406182999999984
20
0.098391999999982716
10
-10.423211999999999
20
0.22781099999997778
10
-10.406167999999987
20
0.35722699999999108
10
-10.356210999999984
20
0.47782399999997338
10
-9.6062109999999912
20
1.7768619999999835
10
-9.5267119999999927
20
1.8803789999999942
10
-9.4231650000000045
20
1.9598299999999824
10
-9.3025859999999838
20
2.0097799999999921
10
-9.1731880000000032
20
2.0268239999999871
10
-9.0437869999999876
20
2.0098029999999945
10
-8.9231979999999922
20
1.9598749999999754
10
-8.0571729999999953
20
1.459874999999986
10
-7.9365739999999896
20
1.4099829999999791
10
-7.8071779999999791
20
1.3929739999999846
10
-7.6777849999999859
20
1.4100169999999856
10
-7.5572060000000008
20
1.459950999999986
10
-7.4536469999999966
20
1.539376999999984
10
-7.3741599999999963
20
1.6428879999999779
10
-6.874155999999978
20
2.5089199999999856
10
-6.7947019999999902
20
2.6124759999999903
10
-6.6911459999999856
20
2.6919309999999719
0
LWPOLYLINE
5
114
100
AcDbEntity
8
0
100
AcDbPolyline
90
37
70
1
43
0.0
10
-26.277824999999986
20
-25.01133900000001
10
-26.04058199999999
20
-25.001261000000028
10
-25.805048999999975
20
-25.031423000000022
10
-25.578000999999979
20
-25.10095500000002
10
-25.365969999999987
20
-25.207859000000017
10
-25.175055000000004
20
-25.349059000000018
10
-25.010749999999984
20
-25.520492000000026
10
-24.877779999999987
20
-25.717227000000022
10
-24.779972000000008
20
-25.933604000000017
10
-24.720137999999974
20
-26.163399000000016
10
-24.700000000000006
20
-26.400000000000006
10
-24.720137999999974
20
-26.636601000000013
10
-24.779972000000008
20
-26.866396000000012
10
-24.877779999999987
20
-27.082773000000024
10
-25.010749999999984
20
-27.279508000000021
10
-25.175055000000004
20
-27.450941000000029
10
-25.365969999999987
20
-27.592141000000012
10
-25.578000999999979
20
-27.699045000000027
10
-25.805048999999975
20
-27.768577000000008
10
-26.04058199999999
20
-27.798739000000019
10
-26.277824999999986
20
-27.788661000000019
10
-26.509951999999988
20
-27.738633000000021
10
-26.730284999999991
20
-27.650096000000026
10
-26.932486000000004
20
-27.525596000000014
10
-27.110738999999988
20
-27.368714000000018
10
-27.259913999999998
20
-27.183965000000025
10
-27.375719999999983
20
-26.976662000000022
10
-27.45482599999999
20
-26.752769000000018
10
-27.494955999999995
20
-26.518728000000014
10
-27.494955999999995
20
-26.281272000000016
10
-27.45482599999999
20
-26.047231000000011
10
-27.375719999999983
20
-25.823338000000007
10
-27.259913999999998
20
-25.616035000000021
10
-27.110738999999988
20
-25.431286000000028
10
-26.932486000000004
20
-25.274404000000033
10
-26.730284999999991
20
-25.149904000000021
10
-26.509951999999988
20
-25.061367000000025
0
LWPOLYLINE
5
115
100
AcDbEntity
8
0
100
AcDbPolyline
90
56
70
1
43
0.0
10
-30.520575999999995
20
-20.223399000000022
10
-30.391174999999997
20
-20.206355000000027
10
-30.261771999999993
20
-20.223383000000013
10
-30.141184999999986
20
-20.27332300000003
10
-30.037633999999986
20
-20.352773000000024
10
-29.958174
20
-20.456316000000019
10
-29.208174000000007
20
-21.755354000000011
10
-29.158211999999981
20
-21.875936000000014
10
-29.141183999999996
20
-22.005347000000022
10
-29.158226999999997
20
-22.134756000000024
10
-29.208177999999982
20
-22.255346000000031
10
-29.287635999999981
20
-22.358901000000024
10
-29.391185999999987
20
-22.438366000000016
10
-30.257211999999996
20
-22.938366000000023
10
-30.360801999999989
20
-23.017789000000022
10
-30.440275000000003
20
-23.12134600000002
10
-30.490229999999983
20
-23.241947000000014
10
-30.507258999999998
20
-23.371369000000026
10
-30.490202999999987
20
-23.500788000000021
10
-30.440223999999994
20
-23.621379000000022
10
-29.940215999999982
20
-24.487418000000005
10
-29.890226999999996
20
-24.607997000000026
10
-29.873185999999983
20
-24.737415000000027
10
-29.890226000000002
20
-24.866833000000028
10
-29.940186000000004
20
-24.987429000000017
10
-30.019659999999995
20
-25.090981000000028
10
-30.123230999999997
20
-25.170432000000016
10
-35.90422199999999
20
-28.508052000000017
10
-36.024798999999987
20
-28.558057000000012
10
-36.154218999999998
20
-28.575107000000024
10
-36.283641999999986
20
-28.558069000000028
10
-36.404239999999994
20
-28.508105000000015
10
-36.507789999999986
20
-28.428621000000014
10
-36.587231999999986
20
-28.325038000000013
10
-37.087223999999992
20
-27.459026000000009
10
-37.166674999999998
20
-27.35547200000001
10
-37.270233999999988
20
-27.276022000000015
10
-37.390825999999997
20
-27.226078000000022
10
-37.520234999999985
20
-27.209042000000014
10
-37.649644000000002
20
-27.226074000000011
10
-37.770236999999995
20
-27.276014000000028
10
-38.636262999999985
20
-27.776014000000018
10
-38.756841999999985
20
-27.825992000000017
10
-38.886256999999986
20
-27.84302600000002
10
-39.015670999999998
20
-27.825985000000024
10
-39.136263999999997
20
-27.776028000000021
10
-39.239817999999985
20
-27.696562000000018
10
-39.31927499999999
20
-27.593001000000026
10
-40.069274999999998
20
-26.293963000000016
10
-40.119214999999997
20
-26.173363000000016
10
-40.136263999999997
20
-26.043955000000025
10
-40.119233999999992
20
-25.914544000000017
10
-40.069284999999994
20
-25.793953000000016
10
-39.98982199999999
20
-25.690402000000017
10
-39.886262999999985
20
-25.610950000000017
10
-30.641185999999987
20
-20.273303000000027
0
CIRCLE
5
116
100
AcDbEntity
8
0
100
AcDbCircle
10
-50.553842999999986
20
-17.518018000000026
30
0
40
0.5
210
0
220
0
230
1
0
LWPOLYLINE
5
117
100
AcDbEntity
8
0
100
AcDbPolyline
90
101
70
1
43
0.0
10
-60.40470899999999
20
-20.398944000000014
10
-60.208783999999994
20
-20.392521000000023
10
-60.015371999999978
20
-20.424447000000026
10
-59.831903999999994
20
-20.493493000000029
10
-59.665432999999993
20
-20.597007000000023
10
-59.522355999999981
20
-20.731010000000012
10
-59.408172999999991
20
-20.890352000000014
10
-59.001584999999999
20
-21.594584000000019
10
-58.887680999999986
20
-21.753566000000006
10
-58.745036999999996
20
-21.887361000000016
10
-58.579079999999983
20
-21.990832000000022
10
-58.396155999999984
20
-22.060022000000021
10
-58.203264999999988
20
-22.092284000000006
10
-58.007781999999999
20
-22.086385000000011
10
-57.81718699999999
20
-22.042549000000022
10
-57.638768999999996
20
-21.962454000000022
10
-57.306627999999989
20
-21.795089000000019
10
-56.958601999999985
20
-21.663916000000025
10
-56.598620999999994
20
-21.570414000000024
10
-56.230750999999998
20
-21.515638000000017
10
-55.859144999999977
20
-21.500208000000018
10
-55.487999999999985
20
-21.524297000000026
10
-55.121506999999994
20
-21.587633000000022
10
-54.763802999999989
20
-21.689501000000018
10
-54.418928999999991
20
-21.828751000000022
10
-54.090777999999986
20
-22.003811000000013
10
-53.783055999999988
20
-22.212703000000023
10
-53.499237999999991
20
-22.453069000000028
10
-53.242526999999988
20
-22.722195000000021
10
-53.015823999999995
20
-23.017042000000032
10
-52.821687999999995
20
-23.334280000000014
10
-52.662310999999988
20
-23.670327000000029
10
-52.539492999999986
20
-24.021389000000024
10
-52.454620999999989
20
-24.383502000000021
10
-52.408652999999994
20
-24.752576000000026
10
-52.402106999999987
20
-25.124444000000015
10
-52.435058999999988
20
-25.494907000000016
10
-52.507135999999988
20
-25.859782000000013
10
-52.617522999999991
20
-26.214949000000018
10
-52.76497599999999
20
-26.556397000000018
10
-52.947827999999987
20
-26.880271000000011
10
-53.164014000000002
20
-27.182913000000024
10
-53.411093999999991
20
-27.460906000000023
10
-53.686277999999987
20
-27.711111000000024
10
-53.986458999999996
20
-27.930703000000019
10
-54.308245999999997
20
-28.117202000000017
10
-54.648006000000002
20
-28.268502000000026
10
-55.001902999999984
20
-28.382895000000019
10
-55.365939999999995
20
-28.459090000000025
10
-55.736007999999977
20
-28.496225000000024
10
-56.107925999999999
20
-28.493881000000023
10
-56.477495999999988
20
-28.452085000000018
10
-56.840543999999994
20
-28.371309000000018
10
-57.192971999999997
20
-28.252465000000022
10
-57.530797999999983
20
-28.096895000000028
10
-57.850208999999992
20
-27.906355000000023
10
-58.147597999999988
20
-27.682998000000012
10
-58.419606999999978
20
-27.429345000000023
10
-58.663164999999999
20
-27.148260000000022
10
-58.875519999999995
20
-26.842917000000028
10
-59.054275999999994
20
-26.516765000000007
10
-59.197412999999997
20
-26.173486000000015
10
-59.280088999999982
20
-25.997530000000015
10
-59.395254999999985
20
-25.840901000000027
10
-59.538550999999984
20
-25.709515000000014
10
-59.704559999999987
20
-25.608337000000017
10
-59.887008000000002
20
-25.541191000000012
10
-60.078999999999994
20
-25.510614000000018
10
-60.273280999999997
20
-25.517762000000026
10
-60.462506999999981
20
-25.562366000000019
10
-60.63952699999998
20
-25.642739000000017
10
-65.604221999999993
20
-28.509075000000017
10
-65.724801999999997
20
-28.55907000000002
10
-65.85421999999997
20
-28.57611900000002
10
-65.983640000000008
20
-28.559082000000018
10
-66.104236999999998
20
-28.50912000000001
10
-66.207787999999994
20
-28.42964000000002
10
-66.287231999999989
20
-28.326061000000013
10
-66.787223999999995
20
-27.46005000000002
10
-66.866677999999979
20
-27.356497000000033
10
-66.970235999999971
20
-27.277045000000015
10
-67.09082699999999
20
-27.227099000000017
10
-67.220234999999988
20
-27.210062000000015
10
-67.349643999999984
20
-27.227095000000006
10
-67.470236999999997
20
-27.277037000000011
10
-68.336261999999991
20
-27.777037000000018
10
-68.456844999999987
20
-27.827005000000025
10
-68.586256999999989
20
-27.844038000000015
10
-68.715668999999991
20
-27.82699700000002
10
-68.836260999999993
20
-27.777044000000028
10
-68.93981500000001
20
-27.697581000000024
10
-69.019274999999993
20
-27.59402500000002
10
-69.769275000000007
20
-26.29498700000001
10
-69.819188999999994
20
-26.174376000000024
10
-69.83624300000001
20
-26.04497300000002
10
-69.819218000000006
20
-25.915565000000029
10
-69.769273999999996
20
-25.794976000000016
10
-69.689815999999993
20
-25.691426000000011
10
-69.586261999999991
20
-25.611974000000028
10
-60.774198999999989
20
-20.524327000000024
10
-60.595615999999985
20
-20.443468000000014
0
LWPOLYLINE
5
118
100
AcDbEntity
8
0
100
AcDbPolyline
90
26
70
1
43
0.0
10
-76.565142999999992
20
-25.093847000000018
10
-76.401296000000002
20
-25.053462000000017
10
-76.23254399999999
20
-25.053462000000017
10
-76.068696999999986
20
-25.093847000000018
10
-75.919274999999985
20
-25.172269000000025
10
-75.792962000000003
20
-25.284172000000016
10
-75.697101000000004
20
-25.423052000000013
10
-75.637260999999995
20
-25.580837000000027
10
-75.616919999999993
20
-25.748358000000025
10
-75.637260999999995
20
-25.915879000000022
10
-75.697101000000004
20
-26.073664000000019
10
-75.792962000000003
20
-26.212544000000015
10
-75.919274999999985
20
-26.324447000000006
10
-76.068696999999986
20
-26.402869000000013
10
-76.23254399999999
20
-26.443254000000014
10
-76.401296000000002
20
-26.443254000000014
10
-76.565142999999992
20
-26.402869000000013
10
-76.714564999999993
20
-26.324447000000006
10
-76.840877999999989
20
-26.212544000000015
10
-76.936738999999989
20
-26.073664000000019
10
-76.996578999999997
20
-25.915879000000022
10
-77.016919999999999
20
-25.748358000000025
10
-76.996578999999997
20
-25.580837000000027
10
-76.936738999999989
20
-25.423052000000013
10
-76.840877999999989
20
-25.284172000000016
10
-76.714564999999993
20
-25.172269000000025
0
CIRCLE
5
119
100
AcDbEntity
8
0
100
AcDbCircle
10
-78.763842999999994
20
-23.048018000000017
30
1.1102230246251565e-15
40
0.44999999999999996
210
0
220
2.4651903288156624e-32
230
1
0
CIRCLE
5
120
100
AcDbEntity
8
0
100
AcDbCircle
10
-81.303843000000001
20
-23.048018000000017
30
1.1102230246251565e-15
40
0.44999999999999996
210
0
220
2.4651903288156624e-32
230
1
0
CIRCLE
5
121
100
AcDbEntity
8
0
100
AcDbCircle
10
-80.253842999999989
20
-17.518018000000026
30
0
40
0.5
210
0
220
0
230
1
0
LWPOLYLINE
5
122
100
AcDbEntity
8
0
100
AcDbPolyline
90
56
70
1
43
0.0
10
-25.05214800000001
20
-7.098260000000014
10
-24.922737999999995
20
-7.081224000000006
10
-23.422737999999992
20
-7.081224000000006
10
-23.293333999999994
20
-7.0983270000000154
10
-23.172743999999987
20
-7.1482570000000223
10
-23.069187999999983
20
-7.2277000000000236
10
-22.989726000000008
20
-7.3312420000000245
10
-22.939774999999987
20
-7.4518230000000329
10
-22.922738000000003
20
-7.5812240000000131
10
-22.922738000000003
20
-18.256519000000022
10
-22.939778999999998
20
-18.385928000000007
10
-22.98972899999999
20
-18.506518000000014
10
-23.069186999999989
20
-18.610071000000019
10
-23.172739999999994
20
-18.68953000000003
10
-23.293328999999989
20
-18.739481000000016
10
-23.422737999999992
20
-18.756519000000011
10
-24.922737999999995
20
-18.756519000000011
10
-25.052152999999997
20
-18.739552000000028
10
-25.172744999999974
20
-18.689581000000022
10
-25.276296999999985
20
-18.610105000000026
10
-25.355752999999979
20
-18.506539000000028
10
-25.405701999999977
20
-18.385938000000017
10
-25.422738000000003
20
-18.256519000000022
10
-25.422738000000003
20
-17.256519000000026
10
-25.439684999999983
20
-17.127094000000014
10
-25.489647000000009
20
-17.006492000000009
10
-25.569123999999999
20
-16.902932000000011
10
-25.672697999999983
20
-16.823475000000023
10
-25.79330999999998
20
-16.773536000000018
10
-25.922737999999992
20
-16.756519000000019
10
-26.922737999999988
20
-16.756519000000019
10
-27.05215299999999
20
-16.739552000000018
10
-27.172744999999985
20
-16.689581000000029
10
-27.276296999999978
20
-16.610105000000033
10
-27.355752999999972
20
-16.506539000000018
10
-27.40570199999997
20
-16.385938000000024
10
-27.422737999999995
20
-16.256519000000011
10
-27.422737999999995
20
-9.581224000000006
10
-27.405700999999976
20
-9.4518140000000272
10
-27.355751999999978
20
-9.3312230000000085
10
-27.276293000000003
20
-9.2276690000000094
10
-27.172738999999986
20
-9.1482100000000166
10
-27.052148000000003
20
-9.0982600000000247
10
-26.922737999999988
20
-9.0812240000000166
10
-25.922737999999992
20
-9.0812240000000166
10
-25.793328999999989
20
-9.064185000000009
10
-25.672739
20
-9.0142340000000232
10
-25.569185999999995
20
-8.9347750000000303
10
-25.489727000000002
20
-8.8312230000000191
10
-25.439775999999981
20
-8.7106330000000298
10
-25.422738000000003
20
-8.5812240000000095
10
-25.422738000000003
20
-7.5812240000000131
10
-25.405700999999983
20
-7.4518140000000166
10
-25.355751999999985
20
-7.3312230000000156
10
-25.276292999999992
20
-7.2276690000000166
10
-25.172738999999993
20
-7.1482100000000059
0
LWPOLYLINE
5
123
100
AcDbEntity
8
0
100
AcDbPolyline
90
44
70
1
43
0.0
10
-41.33469199999999
20
-10.94127600000002
10
-41.050061999999997
20
-10.920919000000016
10
-40.765431999999997
20
-10.94127600000002
10
-40.486596999999982
20
-11.001933000000008
10
-40.219231999999998
20
-11.101655000000008
10
-39.968779999999988
20
-11.238412000000011
10
-39.740340999999987
20
-11.409420000000026
10
-39.538562999999996
20
-11.611198000000016
10
-39.367555000000003
20
-11.839637000000014
10
-39.230798
20
-12.090089000000006
10
-39.131076
20
-12.357454000000025
10
-39.070418999999994
20
-12.636289000000005
10
-39.05006199999999
20
-12.920919000000026
10
-39.070418999999994
20
-13.20554900000003
10
-39.131076
20
-13.484384000000009
10
-39.230798
20
-13.751749000000029
10
-39.367555000000003
20
-14.002201000000021
10
-39.538562999999996
20
-14.230640000000019
10
-39.740340999999987
20
-14.432418000000027
10
-39.968779999999988
20
-14.603426000000024
10
-40.219231999999998
20
-14.740183000000027
10
-40.486596999999982
20
-14.839905000000027
10
-40.765431999999997
20
-14.900562000000015
10
-41.050061999999997
20
-14.920919000000019
10
-41.33469199999999
20
-14.900562000000015
10
-41.613526999999984
20
-14.839905000000027
10
-41.880891999999989
20
-14.740183000000027
10
-42.131343999999977
20
-14.603426000000024
10
-42.359782999999993
20
-14.432418000000027
10
-42.561560999999998
20
-14.230640000000019
10
-42.732568999999984
20
-14.002201000000021
10
-42.869325999999987
20
-13.751749000000029
10
-42.969047999999987
20
-13.484384000000009
10
-43.029704999999993
20
-13.20554900000003
10
-43.050061999999997
20
-12.920919000000026
10
-43.029704999999993
20
-12.636289000000005
10
-42.969047999999987
20
-12.357454000000025
10
-42.869325999999987
20
-12.090089000000006
10
-42.732568999999984
20
-11.839637000000014
10
-42.561560999999998
20
-11.611198000000016
10
-42.359782999999993
20
-11.409420000000026
10
-42.131343999999977
20
-11.238412000000011
10
-41.880891999999989
20
-11.101655000000008
10
-41.613526999999984
20
-11.001933000000008
0
CIRCLE
5
124
100
AcDbEntity
8
0
100
AcDbCircle
10
-50.553842999999986
20
-8.3180180000000092
30
0
40
0.5
210
0
220
0
230
1
0
LWPOLYLINE
5
125
100
AcDbEntity
8
0
100
AcDbPolyline
90
56
70
1
43
0.0
10
-36.270552999999985
20
2.7408579999999816
10
-36.141142999999985
20
2.7578949999999836
10
-36.011732999999992
20
2.7408579999999816
10
-35.891141999999988
20
2.6909089999999836
10
-30.110175999999989
20
-0.64675300000002878
10
-30.006595999999988
20
-0.72618900000000153
10
-29.927122999999973
20
-0.82974200000000664
10
-29.877167
20
-0.95034000000001839
10
-29.860135000000003
20
-1.0797590000000135
10
-29.877187999999997
20
-1.2091760000000207
10
-29.927163999999991
20
-1.3297650000000161
10
-30.427160000000004
20
-2.1957830000000023
10
-30.477116999999971
20
-2.3163760000000089
10
-30.494164999999995
20
-2.445788000000011
10
-30.477132000000005
20
-2.575201000000007
10
-30.427178999999978
20
-2.6957940000000136
10
-30.34771199999998
20
-2.7993460000000248
10
-30.244146999999977
20
-2.878796000000019
10
-29.378121999999998
20
-3.3787960000000083
10
-29.274567999999999
20
-3.4582440000000148
10
-29.195120999999986
20
-3.5618060000000185
10
-29.145178999999999
20
-3.6823980000000134
10
-29.128141999999979
20
-3.811806000000022
10
-29.145172999999982
20
-3.9412150000000246
10
-29.195108999999988
20
-4.0618090000000073
10
-29.945108999999981
20
-5.3608470000000175
10
-30.024601000000004
20
-5.464380000000002
10
-30.128142999999987
20
-5.5438470000000173
10
-30.248725999999984
20
-5.5938040000000022
10
-30.378130999999975
20
-5.6108450000000154
10
-30.507536000000002
20
-5.593810000000019
10
-30.628121999999998
20
-5.5438590000000154
10
-39.873197999999981
20
-0.20621200000000783
10
-39.976762999999984
20
-0.12676400000001919
10
-40.056227
20
-0.023209000000008473
10
-40.106178999999997
20
0.097383999999980375
10
-40.12321399999999
20
0.22679799999998806
10
-40.106170999999989
20
0.35620999999999015
10
-40.05621099999999
20
0.47680099999999115
10
-39.306210999999998
20
1.7758389999999835
10
-39.226707999999988
20
1.8793539999999886
10
-39.123162999999991
20
1.9588079999999941
10
-39.002583999999985
20
2.0087579999999861
10
-38.87318599999999
20
2.0258029999999749
10
-38.743784999999988
20
2.0087809999999884
10
-38.623197999999981
20
1.9588509999999815
10
-37.757173000000002
20
1.4588509999999744
10
-37.636566999999985
20
1.4089399999999763
10
-37.507163999999982
20
1.3918989999999809
10
-37.377760999999992
20
1.4089289999999899
10
-37.257173999999992
20
1.4588709999999772
10
-37.153620999999987
20
1.5383209999999714
10
-37.074159999999985
20
1.641863999999984
10
-36.574155999999988
20
2.5078959999999917
10
-36.494698999999997
20
2.6114509999999846
10
-36.391144000000004
20
2.6909089999999836
0
LWPOLYLINE
5
126
100
AcDbEntity
8
0
100
AcDbPolyline
90
56
70
1
43
0.0
10
-54.752151999999995
20
-7.0992600000000294
10
-54.622737999999984
20
-7.0822480000000176
10
-53.122737999999984
20
-7.0822480000000176
10
-52.993322999999997
20
-7.0992660000000285
10
-52.872724999999988
20
-7.1492080000000158
10
-52.769168999999998
20
-7.2286690000000142
10
-52.689714999999993
20
-7.3322310000000179
10
-52.639782000000004
20
-7.4528310000000175
10
-52.622737999999991
20
-7.582248000000007
10
-52.622737999999991
20
-18.257542000000022
10
-52.63977999999998
20
-18.386947000000013
10
-52.68973299999999
20
-18.507533000000009
10
-52.769192999999994
20
-18.611082000000021
10
-52.872744999999988
20
-18.69053700000002
10
-52.993331999999995
20
-18.740486000000018
10
-53.122737999999984
20
-18.757542000000029
10
-54.622737999999984
20
-18.757542000000029
10
-54.752140999999988
20
-18.740486000000018
10
-54.872723999999984
20
-18.690527000000028
10
-54.976273999999989
20
-18.611069000000029
10
-55.055737999999991
20
-18.507524000000029
10
-55.105702999999991
20
-18.386944000000014
10
-55.122737999999991
20
-18.257542000000022
10
-55.122737999999991
20
-17.257542000000026
10
-55.139748999999995
20
-17.128118000000025
10
-55.189686999999985
20
-17.007510000000021
10
-55.26914699999999
20
-16.903942000000018
10
-55.372710000000005
20
-16.824477000000027
10
-55.493314999999996
20
-16.774532000000022
10
-55.622737999999984
20
-16.757542000000019
10
-56.622737999999977
20
-16.757542000000019
10
-56.752140999999995
20
-16.740486000000026
10
-56.872723999999991
20
-16.690527000000017
10
-56.976273999999982
20
-16.611069000000018
10
-57.055737999999998
20
-16.507524000000018
10
-57.105702999999991
20
-16.386944000000021
10
-57.122737999999984
20
-16.257542000000029
10
-57.122737999999984
20
-9.5822480000000176
10
-57.105706999999995
20
-9.452833000000016
10
-57.055760999999983
20
-9.332236000000016
10
-56.97630199999999
20
-9.2286770000000296
10
-56.872745999999985
20
-9.1492130000000316
10
-56.752152000000002
20
-9.0992600000000223
10
-56.622737999999977
20
-9.0822480000000105
10
-55.622737999999984
20
-9.0822480000000105
10
-55.493326999999994
20
-9.0652100000000146
10
-55.372734000000001
20
-9.0152600000000227
10
-55.269176999999985
20
-8.9358010000000121
10
-55.189713000000005
20
-8.8322490000000187
10
-55.139756999999996
20
-8.7116590000000116
10
-55.122737999999991
20
-8.5822480000000212
10
-55.122737999999991
20
-7.582248000000007
10
-55.105706999999988
20
-7.4528330000000231
10
-55.05576099999999
20
-7.3322360000000231
10
-54.976301999999997
20
-7.2286770000000189
10
-54.872745999999992
20
-7.1492130000000209
0
LWPOLYLINE
5
127
100
AcDbEntity
8
0
100
AcDbPolyline
90
44
70
1
43
0.0
10
-71.034691999999993
20
-10.94127600000002
10
-70.750061999999986
20
-10.920919000000016
10
-70.465432000000007
20
-10.94127600000002
10
-70.186596999999992
20
-11.001933000000008
10
-69.919232000000008
20
-11.101655000000008
10
-69.668779999999998
20
-11.238412000000011
10
-69.440340999999989
20
-11.409420000000026
10
-69.238562999999985
20
-11.611198000000016
10
-69.067554999999999
20
-11.839637000000014
10
-68.93079800000001
20
-12.090089000000006
10
-68.83107600000001
20
-12.357454000000025
10
-68.770419000000004
20
-12.636289000000005
10
-68.750062
20
-12.920919000000026
10
-68.770419000000004
20
-13.20554900000003
10
-68.83107600000001
20
-13.484384000000009
10
-68.93079800000001
20
-13.751749000000029
10
-69.067554999999999
20
-14.002201000000021
10
-69.238562999999985
20
-14.230640000000019
10
-69.440340999999989
20
-14.432418000000027
10
-69.668779999999998
20
-14.603426000000024
10
-69.919232000000008
20
-14.740183000000027
10
-70.186596999999992
20
-14.839905000000027
10
-70.465432000000007
20
-14.900562000000015
10
-70.750061999999986
20
-14.920919000000019
10
-71.034691999999993
20
-14.900562000000015
10
-71.313526999999993
20
-14.839905000000027
10
-71.580891999999992
20
-14.740183000000027
10
-71.831343999999987
20
-14.603426000000024
10
-72.059782999999996
20
-14.432418000000027
10
-72.261560999999986
20
-14.230640000000019
10
-72.432568999999987
20
-14.002201000000021
10
-72.56932599999999
20
-13.751749000000029
10
-72.669047999999989
20
-13.484384000000009
10
-72.729704999999996
20
-13.20554900000003
10
-72.750061999999986
20
-12.920919000000026
10
-72.729704999999996
20
-12.636289000000005
10
-72.669047999999989
20
-12.357454000000025
10
-72.56932599999999
20
-12.090089000000006
10
-72.432568999999987
20
-11.839637000000014
10
-72.261560999999986
20
-11.611198000000016
10
-72.059782999999996
20
-11.409420000000026
10
-71.831343999999987
20
-11.238412000000011
10
-71.580891999999992
20
-11.101655000000008
10
-71.313526999999993
20
-11.001933000000008
0
CIRCLE
5
128
100
AcDbEntity
8
0
100
AcDbCircle
10
-80.253842999999989
20
-8.3180180000000092
30
0
40
0.5
210
0
220
0
230
1
0
LWPOLYLINE
5
129
100
AcDbEntity
8
0
100
AcDbPolyline
90
56
70
1
43
0.0
10
-65.97054799999998
20
2.7397939999999821
10
-65.841145999999995
20
2.7568279999999845
10
-65.711744999999993
20
2.739794999999976
10
-65.591141999999991
20
2.6898849999999896
10
-59.810175999999977
20
-0.64777600000001101
10
-59.706628999999992
20
-0.7272420000000146
10
-59.627175000000001
20
-0.83079700000002532
10
-59.577224999999991
20
-0.95138600000002072
10
-59.560183999999992
20
-1.0807930000000177
10
-59.577211999999982
20
-1.2102020000000202
10
-59.627163999999993
20
-1.3307880000000161
10
-60.127159999999989
20
-2.1968070000000139
10
-60.177112999999984
20
-2.3173990000000089
10
-60.194151999999988
20
-2.446810000000017
10
-60.177116999999996
20
-2.5762220000000191
10
-60.127167999999998
20
-2.6968150000000257
10
-60.047709000000005
20
-2.8003720000000065
10
-59.944146999999987
20
-2.8798200000000129
10
-59.078121999999986
20
-3.37982000000002
10
-58.974555999999993
20
-3.4592720000000199
10
-58.89508699999999
20
-3.5628240000000133
10
-58.845131999999992
20
-3.6834170000000022
10
-58.82809499999999
20
-3.8128320000000215
10
-58.845138999999982
20
-3.9422460000000115
10
-58.895108999999991
20
-4.0628320000000251
10
-59.645108999999991
20
-5.3618700000000175
10
-59.724582999999996
20
-5.4653980000000146
10
-59.828137999999988
20
-5.5448370000000224
10
-59.948721999999997
20
-5.5947760000000102
10
-60.078119999999977
20
-5.6118120000000182
10
-60.207520999999993
20
-5.5947870000000144
10
-60.328121999999986
20
-5.5448830000000093
10
-69.573197999999991
20
-0.20723600000001952
10
-69.67674199999999
20
-0.12777100000000985
10
-69.756192999999996
20
-0.024217000000010813
10
-69.806139000000002
20
0.096369999999996736
10
-69.823174999999992
20
0.22577599999998199
10
-69.806141999999994
20
0.35518099999999109
10
-69.756210999999993
20
0.47577699999999723
10
-69.006211000000008
20
1.7748149999999896
10
-68.926749000000001
20
1.8783739999999938
10
-68.823192999999989
20
1.9578399999999796
10
-68.702600000000004
20
2.0077989999999879
10
-68.573185999999993
20
2.0248459999999824
10
-68.443767999999992
20
2.0078209999999963
10
-68.323197999999991
20
1.9578279999999815
10
-67.457172999999983
20
1.4578279999999921
10
-67.336583999999988
20
1.4079099999999833
10
-67.20718500000001
20
1.3908949999999898
10
-67.077789999999993
20
1.4079399999999787
10
-66.95721199999997
20
1.4578859999999771
10
-66.853663999999995
20
1.537330999999984
10
-66.774159999999995
20
1.6408399999999723
10
-66.274155999999991
20
2.5068729999999739
10
-66.194687999999985
20
2.6104089999999935
10
-66.091132999999985
20
2.6898529999999887
0
CIRCLE
5
130
100
AcDbEntity
8
0
100
AcDbCircle
10
-83.973842999999988
20
-3.5180180000000227
30
0
40
0.40000000000000008
210
0
220
0
230
1
0
CIRCLE
5
131
100
AcDbEntity
8
0
100
AcDbCircle
10
-83.973842999999988
20
-1.2180180000000185
30
0
40
0.40000000000000008
210
0
220
0
230
1
0
LWPOLYLINE
5
132
100
AcDbEntity
8
0
100
AcDbPolyline
90
56
70
1
43
0.0
10
43.72942400000003
20
5.4996019999999746
10
43.85882500000001
20
5.5166459999999873
10
43.988228000000014
20
5.4996179999999839
10
44.10881400000001
20
5.4496779999999845
10
44.212366000000038
20
5.3702289999999842
10
44.291826000000007
20
5.2666859999999893
10
45.041826
20
3.9676479999999792
10
45.091786999999997
20
3.8470649999999829
10
45.108815
20
3.7176539999999747
10
45.091773000000011
20
3.5882449999999899
10
45.041821000000013
20
3.4676549999999828
10
44.962364000000044
20
3.3640999999999899
10
44.858814000000002
20
3.284634999999998
10
43.992788000000012
20
2.7846349999999909
10
43.889199000000012
20
2.7052109999999807
10
43.809725999999998
20
2.6016539999999821
10
43.759771000000036
20
2.4810539999999826
10
43.742742000000021
20
2.3516319999999702
10
43.75979700000002
20
2.2222139999999868
10
43.809776000000014
20
2.1016229999999858
10
44.309784000000043
20
1.2355829999999912
10
44.359772
20
1.1150029999999767
10
44.376813000000013
20
0.98558599999998719
10
44.359773000000011
20
0.85616799999998605
10
44.309814000000003
20
0.73557199999997991
10
44.230340000000012
20
0.63201999999998648
10
44.12676900000001
20
0.55256899999998055
10
38.345778000000017
20
-2.7850500000000089
10
38.225202000000031
20
-2.8350570000000097
10
38.095780999999995
20
-2.8521070000000215
10
37.966358000000007
20
-2.8350690000000256
10
37.845759000000001
20
-2.7851040000000182
10
37.742208000000019
20
-2.7056200000000175
10
37.662767000000024
20
-2.6020360000000231
10
37.162776000000015
20
-1.7360250000000121
10
37.083326000000021
20
-1.6324700000000192
10
36.979766000000005
20
-1.5530210000000189
10
36.85917400000001
20
-1.503077000000026
10
36.729766000000019
20
-1.486040000000024
10
36.600357000000017
20
-1.5030720000000208
10
36.479762999999998
20
-1.5530120000000203
10
35.613737000000008
20
-2.0530120000000096
10
35.493158000000022
20
-2.1029910000000207
10
35.363743000000021
20
-2.1200250000000231
10
35.234329000000031
20
-2.102983000000016
10
35.113736000000024
20
-2.053027000000025
10
35.010182000000007
20
-1.9735600000000098
10
34.930725000000002
20
-1.8699990000000177
10
34.18072500000001
20
-0.5709610000000076
10
34.130783000000022
20
-0.45036200000001969
10
34.113734000000022
20
-0.32095400000001106
10
34.130765000000025
20
-0.19154300000002067
10
34.180714000000023
20
-0.07095100000000798
10
34.260177000000027
20
0.032599999999991525
10
34.363737000000008
20
0.11205199999999138
10
43.608814000000002
20
5.4496989999999812
0
LWPOLYLINE
5
133
100
AcDbEntity
8
0
100
AcDbPolyline
90
44
70
1
43
0.0
10
32.915370000000017
20
14.779642999999991
10
33.200000000000003
20
14.799999999999978
10
33.484629999999989
20
14.779642999999991
10
33.763465000000004
20
14.718985999999985
10
34.030830000000023
20
14.619263999999985
10
34.281282000000033
20
14.482506999999982
10
34.509721000000013
20
14.311498999999976
10
34.711499000000039
20
14.109720999999986
10
34.882507000000018
20
13.881281999999979
10
35.019264000000021
20
13.630829999999987
10
35.118986000000021
20
13.363464999999985
10
35.179643000000027
20
13.084629999999988
10
35.199999999999996
20
12.799999999999976
10
35.179643000000027
20
12.51536999999999
10
35.118986000000021
20
12.236534999999984
10
35.019264000000021
20
11.969169999999991
10
34.882507000000018
20
11.718717999999981
10
34.711499000000039
20
11.490278999999983
10
34.509721000000013
20
11.288500999999975
10
34.281282000000033
20
11.117492999999978
10
34.030830000000023
20
10.980735999999993
10
33.763465000000004
20
10.881013999999993
10
33.484629999999989
20
10.820356999999987
10
33.200000000000003
20
10.799999999999983
10
32.915370000000017
20
10.820356999999987
10
32.636535000000002
20
10.881013999999993
10
32.369170000000018
20
10.980735999999993
10
32.118718000000008
20
11.117492999999978
10
31.890279000000028
20
11.288500999999975
10
31.688501000000038
20
11.490278999999983
10
31.517493000000023
20
11.718717999999981
10
31.38073600000002
20
11.969169999999991
10
31.28101400000002
20
12.236534999999984
10
31.220357000000014
20
12.51536999999999
10
31.20000000000001
20
12.799999999999976
10
31.220357000000014
20
13.084629999999988
10
31.28101400000002
20
13.363464999999985
10
31.38073600000002
20
13.630829999999987
10
31.517493000000023
20
13.881281999999979
10
31.688501000000038
20
14.109720999999986
10
31.890279000000028
20
14.311498999999976
10
32.118718000000008
20
14.482506999999982
10
32.369170000000018
20
14.619263999999985
10
32.636535000000002
20
14.718985999999985
0
CIRCLE
5
134
100
AcDbEntity
8
0
100
AcDbCircle
10
23.696157000000007
20
8.2019819999999832
30
0
40
0.5
210
0
220
0
230
1
0
LWPOLYLINE
5
135
100
AcDbEntity
8
0
100
AcDbPolyline
90
56
70
1
43
0.0
10
19.497853999999997
20
18.623717999999982
10
19.627262000000023
20
18.64075399999998
10
21.127262000000009
20
18.64075399999998
10
21.256686000000009
20
18.623767999999981
10
21.37729199999999
20
18.573822999999983
10
21.480855000000005
20
18.49435699999999
10
21.560314000000034
20
18.390787999999986
10
21.61025200000001
20
18.270178999999978
10
21.627262000000016
20
18.140753999999983
10
21.627262000000016
20
7.4654589999999743
10
21.610237000000012
20
7.3360489999999778
10
21.560283000000027
20
7.2154589999999708
10
21.480820000000023
20
7.1119059999999834
10
21.377264999999994
20
7.0324469999999906
10
21.256673000000035
20
6.9824969999999809
10
21.127262000000009
20
6.965458999999985
10
19.627262000000023
20
6.965458999999985
10
19.497865999999995
20
6.9825419999999738
10
19.377290000000009
20
7.0324979999999826
10
19.273746000000003
20
7.1119519999999881
10
19.19428700000001
20
7.2154909999999894
10
19.144325000000002
20
7.3360639999999933
10
19.127262000000016
20
7.4654589999999743
10
19.127262000000016
20
8.4654589999999708
10
19.110224000000002
20
8.594875999999978
10
19.060288000000014
20
8.7154769999999893
10
18.980832999999997
20
8.819038999999993
10
18.877276000000016
20
8.8984989999999797
10
18.756678000000022
20
8.9484409999999848
10
18.627262000000009
20
8.9654589999999779
10
17.62726200000003
20
8.9654589999999779
10
17.497866000000002
20
8.9825419999999845
10
17.377290000000016
20
9.0324979999999933
10
17.27374600000001
20
9.111951999999981
10
17.194287000000017
20
9.2154909999999823
10
17.144325000000009
20
9.3360639999999862
10
17.127262000000023
20
9.465458999999985
10
17.127262000000023
20
16.14075399999998
10
17.144315000000034
20
16.270162999999975
10
17.194259999999986
20
16.390752999999982
10
17.273715000000003
20
16.494306999999992
10
17.37726600000002
20
16.573766999999986
10
17.497854000000004
20
16.623717999999982
10
17.62726200000003
20
16.64075399999998
10
18.627262000000009
20
16.64075399999998
10
18.756667
20
16.657813999999984
10
18.877254000000008
20
16.707761999999988
10
18.980806000000001
20
16.787216999999977
10
19.060266000000006
20
16.890764999999988
10
19.110219000000015
20
17.011348999999978
10
19.127262000000016
20
17.140753999999987
10
19.127262000000016
20
18.140753999999983
10
19.144315000000027
20
18.270162999999975
10
19.194260000000014
20
18.390752999999982
10
19.273714999999996
20
18.494306999999992
10
19.377266000000013
20
18.573766999999989
0
LWPOLYLINE
5
136
100
AcDbEntity
8
0
100
AcDbPolyline
90
56
70
1
43
0.0
10
14.029421000000006
20
5.4985889999999848
10
14.15882400000001
20
5.5156349999999854
10
14.288229000000001
20
5.4986059999999704
10
14.40881700000002
20
5.4486629999999714
10
14.512368000000002
20
5.3692109999999893
10
14.591826000000019
20
5.2656629999999893
10
15.341826000000012
20
3.9666239999999853
10
15.391766999999987
20
3.8460389999999833
10
15.408785000000016
20
3.7166319999999864
10
15.391741000000003
20
3.5872289999999829
10
15.341795000000005
20
3.466642999999987
10
15.262349000000022
20
3.3630859999999707
10
15.158814000000014
20
3.2836119999999802
10
14.292788000000023
20
2.7836119999999909
10
14.189180999999991
20
2.7042099999999891
10
14.109708000000012
20
2.6006479999999854
10
14.059756000000014
20
2.4800409999999751
10
14.042730000000034
20
2.3506139999999931
10
14.059790999999997
20
2.2211919999999807
10
14.109775999999989
20
2.1005989999999919
10
14.609784000000019
20
1.2345599999999912
10
14.659751000000014
20
1.1139769999999949
10
14.676783000000029
20
0.98456399999998112
10
14.659742000000016
20
0.85515199999997904
10
14.60978800000003
20
0.73456099999997804
10
14.530325000000026
20
0.63100599999998508
10
14.426769000000021
20
0.55154599999998055
10
8.6457780000000284
20
-2.7860740000000206
10
8.5251979999999961
20
-2.8360690000000055
10
8.3957800000000304
20
-2.8531180000000056
10
8.2663589999999942
20
-2.8360810000000036
10
8.1457620000000119
20
-2.7861190000000136
10
8.0422120000000064
20
-2.7066390000000062
10
7.9627680000000112
20
-2.603060000000017
10
7.462775999999991
20
-1.7370480000000121
10
7.383322000000021
20
-1.633495000000007
10
7.2797640000000285
20
-1.5540430000000072
10
7.1591730000000098
20
-1.5040980000000204
10
7.0297640000000072
20
-1.4870610000000184
10
6.9003560000000164
20
-1.5040940000000091
10
6.7797630000000098
20
-1.5540360000000142
10
5.9137370000000189
20
-2.0540360000000213
10
5.7931549999999987
20
-2.1040040000000282
10
5.663741999999985
20
-2.1210370000000189
10
5.5343299999999829
20
-2.1039960000000058
10
5.4137389999999996
20
-2.0540420000000204
10
5.3101850000000184
20
-1.9745790000000163
10
5.2307250000000138
20
-1.8710230000000116
10
4.4807250000000209
20
-0.57198500000001928
10
4.4308080000000061
20
-0.45137600000002109
10
4.4137550000000303
20
-0.32197200000002368
10
4.4307799999999986
20
-0.19256400000001506
10
4.4807250000000209
20
-0.071975000000019662
10
4.5601820000000259
20
0.031575999999979842
10
4.6637370000000189
20
0.1110279999999797
10
13.908814000000014
20
5.4486749999999873
0
LWPOLYLINE
5
137
100
AcDbEntity
8
0
100
AcDbPolyline
90
56
70
1
43
0.0
10
-15.670581999999982
20
5.4975759999999774
10
-15.54117699999999
20
5.5146229999999896
10
-15.411770000000011
20
5.4975929999999984
10
-15.29118099999998
20
5.4476479999999761
10
-15.187629000000005
20
5.3681909999999711
10
-15.10817399999997
20
5.2646389999999776
10
-14.358173999999977
20
3.9656009999999853
10
-14.308207999999993
20
3.8450259999999936
10
-14.291194000000011
20
3.7156149999999855
10
-14.308242999999994
20
3.5862079999999885
10
-14.35819399999998
20
3.465619999999987
10
-14.43764599999998
20
3.3620619999999946
10
-14.541185999999993
20
3.2825879999999863
10
-15.407212000000001
20
2.7825879999999792
10
-15.510774999999981
20
2.7031459999999896
10
-15.590225999999987
20
2.5995849999999798
10
-15.640170999999992
20
2.4789909999999971
10
-15.657205999999988
20
2.3495799999999889
10
-15.640169999999998
20
2.2201689999999807
10
-15.590223999999999
20
2.0995749999999802
10
-15.090215999999987
20
1.2335359999999795
10
-15.040268999999977
20
1.1129499999999837
10
-15.023245999999979
20
0.98354199999997505
10
-15.04028899999998
20
0.85413599999997203
10
-15.090237999999978
20
0.73354799999998832
10
-15.169688999999984
20
0.62999199999998368
10
-15.273231000000003
20
0.55052199999998663
10
-21.054221999999996
20
-2.7870970000000206
10
-21.174804999999974
20
-2.837082000000013
10
-21.304221000000005
20
-2.8541300000000192
10
-21.433638999999989
20
-2.8370930000000172
10
-21.554234999999995
20
-2.7871340000000089
10
-21.657785999999994
20
-2.7076570000000189
10
-21.737231999999995
20
-2.604083000000017
10
-22.23722399999998
20
-1.7380720000000238
10
-22.316681999999997
20
-1.6345200000000126
10
-22.420237000000007
20
-1.5550660000000072
10
-22.540827999999991
20
-1.5051180000000208
10
-22.670235999999999
20
-1.4880810000000189
10
-22.799644999999984
20
-1.5051150000000213
10
-22.920236999999997
20
-1.5550590000000142
10
-23.78626299999997
20
-2.0550590000000213
10
-23.906848999999983
20
-2.1050170000000179
10
-24.03625899999998
20
-2.1220490000000147
10
-24.165668999999994
20
-2.1050080000000193
10
-24.286258999999983
20
-2.0550570000000157
10
-24.389812999999982
20
-1.9755980000000051
10
-24.469274999999993
20
-1.8720460000000116
10
-25.219275000000003
20
-0.57300800000001928
10
-25.269212000000003
20
-0.45240200000000286
10
-25.286273999999977
20
-0.32299300000001807
10
-25.269250999999979
20
-0.19358000000002207
10
-25.219300999999987
20
-0.072987000000015456
10
-25.139832000000002
20
0.03056199999997844
10
-25.03626299999997
20
0.11000399999998578
10
-15.791185999999993
20
5.4476519999999873
0
LWPOLYLINE
5
138
100
AcDbEntity
8
0
100
AcDbPolyline
90
44
70
1
43
0.0
10
3.2153700000000285
20
14.779642999999991
10
3.5000000000000142
20
14.799999999999978
10
3.7846299999999999
20
14.779642999999991
10
4.063465000000015
20
14.718985999999985
10
4.3308299999999988
20
14.619263999999985
10
4.5812820000000087
20
14.482506999999982
10
4.8097210000000246
20
14.311498999999976
10
5.0114990000000148
20
14.109720999999986
10
5.182506999999994
20
13.881281999999979
10
5.3192640000000324
20
13.630829999999987
10
5.4189859999999967
20
13.363464999999985
10
5.4796430000000029
20
13.084629999999988
10
5.5000000000000071
20
12.799999999999976
10
5.4796430000000029
20
12.51536999999999
10
5.4189859999999967
20
12.236534999999984
10
5.3192640000000324
20
11.969169999999991
10
5.182506999999994
20
11.718717999999981
10
5.0114990000000148
20
11.490278999999983
10
4.8097210000000246
20
11.288500999999975
10
4.5812820000000087
20
11.117492999999978
10
4.3308299999999988
20
10.980735999999993
10
4.063465000000015
20
10.881013999999993
10
3.7846299999999999
20
10.820356999999987
10
3.5000000000000142
20
10.799999999999983
10
3.2153700000000285
20
10.820356999999987
10
2.9365350000000134
20
10.881013999999993
10
2.6691700000000296
20
10.980735999999993
10
2.4187179999999842
20
11.117492999999978
10
2.1902790000000039
20
11.288500999999975
10
1.9885010000000136
20
11.490278999999983
10
1.8174929999999989
20
11.718717999999981
10
1.680735999999996
20
11.969169999999991
10
1.5810139999999961
20
12.236534999999984
10
1.52035699999999
20
12.51536999999999
10
1.5000000000000213
20
12.799999999999976
10
1.52035699999999
20
13.084629999999988
10
1.5810139999999961
20
13.363464999999985
10
1.680735999999996
20
13.630829999999987
10
1.8174929999999989
20
13.881281999999979
10
1.9885010000000136
20
14.109720999999986
10
2.1902790000000039
20
14.311498999999976
10
2.4187179999999842
20
14.482506999999982
10
2.6691700000000296
20
14.619263999999985
10
2.9365350000000134
20
14.718985999999985
0
CIRCLE
5
139
100
AcDbEntity
8
0
100
AcDbCircle
10
-6.0038429999999998
20
8.2019819999999832
30
0
40
0.5
210
0
220
0
230
1
0
LWPOLYLINE
5
140
100
AcDbEntity
8
0
100
AcDbPolyline
90
56
70
1
43
0.0
10
-10.202142999999992
20
18.622693999999981
10
-10.072738000000001
20
18.639729999999979
10
-8.5727379999999975
20
18.639729999999979
10
-8.4433299999999889
20
18.622725999999979
10
-8.322743999999993
20
18.572758999999984
10
-8.2191949999999991
20
18.49328899999999
10
-8.1397379999999764
20
18.389731999999981
10
-8.089783999999991
20
18.269139999999986
10
-8.0727380000000082
20
18.139729999999979
10
-8.0727380000000082
20
7.4644359999999921
10
-8.0897449999999793
20
7.33502399999999
10
-8.1397049999999815
20
7.2144339999999829
10
-8.2191719999999968
20
7.1108819999999895
10
-8.3227299999999893
20
7.0314229999999789
10
-8.4433250000000015
20
6.9814739999999809
10
-8.5727379999999975
20
6.964435999999985
10
-10.072738000000001
20
6.964435999999985
10
-10.202150000000003
20
6.9814999999999827
10
-10.32274499999998
20
7.0314339999999831
10
-10.426304000000002
20
7.1108849999999713
10
-10.505764999999982
20
7.2144349999999946
10
-10.555711999999993
20
7.3350259999999778
10
-10.572738000000008
20
7.4644359999999921
10
-10.572738000000008
20
8.4644359999999885
10
-10.589834999999983
20
8.5938319999999813
10
-10.639783999999981
20
8.7144099999999902
10
-10.719232999999981
20
8.8179559999999846
10
-10.822771000000007
20
8.8974149999999774
10
-10.943343999999975
20
8.9473769999999853
10
-11.072737999999998
20
8.9644359999999956
10
-12.072737999999994
20
8.9644359999999956
10
-12.202149999999996
20
8.9814999999999756
10
-12.322744999999991
20
9.0314339999999937
10
-12.426303999999995
20
9.1108849999999819
10
-12.505764999999975
20
9.2144349999999875
10
-12.555711999999986
20
9.3350259999999885
10
-12.572738000000001
20
9.464435999999985
10
-12.572738000000001
20
16.139729999999979
10
-12.555666999999993
20
16.269136999999986
10
-12.505726999999993
20
16.389726999999993
10
-12.426275999999987
20
16.493281999999994
10
-12.322728999999999
20
16.572742999999981
10
-12.202142999999985
20
16.622693999999978
10
-12.072737999999994
20
16.639729999999986
10
-11.072737999999998
20
16.639729999999986
10
-10.943337
20
16.656812999999985
10
-10.822752999999992
20
16.706757999999986
10
-10.719202999999986
20
16.786207999999981
10
-10.639742000000005
20
16.889750999999986
10
-10.589785999999997
20
17.010329999999982
10
-10.572738000000008
20
17.139729999999986
10
-10.572738000000008
20
18.139729999999979
10
-10.555666999999982
20
18.269136999999986
10
-10.505727
20
18.389726999999993
10
-10.426275999999994
20
18.493281999999986
10
-10.322728999999988
20
18.572742999999985
0
CIRCLE
5
141
100
AcDbEntity
8
0
100
AcDbCircle
10
23.696157000000007
20
17.401981999999983
30
0
40
0.5
210
0
220
0
230
1
0
LWPOLYLINE
5
142
100
AcDbEntity
8
0
100
AcDbPolyline
90
56
70
1
43
0.0
10
37.979447000000022
20
28.463858999999978
10
38.108857000000036
20
28.48089599999998
10
38.238267000000015
20
28.463858999999978
10
38.358858000000033
20
28.41390999999998
10
44.139824000000019
20
25.07624899999999
10
44.243402000000032
20
24.996810999999994
10
44.322876000000022
20
24.893257999999989
10
44.372831999999995
20
24.772660999999978
10
44.38986400000001
20
24.643241999999983
10
44.372810999999999
20
24.513825999999987
10
44.322836000000017
20
24.393236999999985
10
43.822840000000021
20
23.527218999999988
10
43.772886000000035
20
23.406624999999988
10
43.755837
20
23.277213999999979
10
43.772869000000014
20
23.147799999999989
10
43.822822000000023
20
23.027207999999987
10
43.902289000000003
20
22.923655999999994
10
44.00585300000003
20
22.844205999999978
10
44.871878000000009
20
22.344205999999982
10
44.975431000000015
20
22.264755999999988
10
45.054877000000033
20
22.161194999999985
10
45.104819999999997
20
22.040602999999983
10
45.121857000000034
20
21.911195999999986
10
45.104827000000007
20
21.781786999999994
10
45.054891000000019
20
21.661192999999983
10
44.304891000000026
20
20.36215499999998
10
44.225400000000015
20
20.258621999999988
10
44.121858000000032
20
20.179154999999991
10
44.001274000000024
20
20.129196999999984
10
43.871870000000008
20
20.112154999999987
10
43.742464000000005
20
20.129190999999985
10
43.621878000000009
20
20.179141999999981
10
34.376802000000026
20
25.516789999999983
10
34.273236000000011
20
25.596236999999988
10
34.193772000000031
20
25.699790999999983
10
34.143820000000034
20
25.820384999999987
10
34.126785999999996
20
25.949798999999985
10
34.143828999999997
20
26.079210999999987
10
34.193789000000017
20
26.199801999999988
10
34.94378900000001
20
27.49883999999998
10
35.023292000000019
20
27.602355999999979
10
35.126836000000026
20
27.68180899999998
10
35.247415000000011
20
27.731759999999987
10
35.376813000000027
20
27.748804999999983
10
35.506214000000007
20
27.731782999999979
10
35.626802000000026
20
27.68185299999999
10
36.492827000000041
20
27.181852999999983
10
36.613433000000022
20
27.131940999999991
10
36.74283599999999
20
27.114899999999977
10
36.872239000000029
20
27.131929999999986
10
36.992826000000036
20
27.181871999999991
10
37.096379000000006
20
27.261321999999986
10
37.175840000000022
20
27.364865999999985
10
37.675844000000005
20
28.230897999999982
10
37.75530100000001
20
28.334451999999981
10
37.858856000000038
20
28.41390999999998
0
CIRCLE
5
143
100
AcDbEntity
8
0
100
AcDbCircle
10
33.384157000000023
20
29.07998199999998
30
0
40
0.44999999999999996
210
0
220
2.4651903288156624e-32
230
1
0
LWPOLYLINE
5
144
100
AcDbEntity
8
0
100
AcDbPolyline
90
26
70
1
43
0.0
10
30.152877999999994
20
29.420024999999981
10
30.316725000000027
20
29.460409999999982
10
30.485477000000039
20
29.460409999999982
10
30.649324000000036
20
29.420024999999981
10
30.798746000000001
20
29.341602999999985
10
30.925059000000026
20
29.229699999999987
10
31.020920000000025
20
29.090819999999979
10
31.080760000000005
20
28.933034999999983
10
31.101101000000035
20
28.765513999999985
10
31.080760000000005
20
28.597992999999988
10
31.020920000000025
20
28.440207999999991
10
30.925059000000026
20
28.301327999999984
10
30.798746000000001
20
28.189424999999986
10
30.649324000000036
20
28.11100299999999
10
30.485477000000039
20
28.070617999999989
10
30.316725000000027
20
28.070617999999989
10
30.152877999999994
20
28.11100299999999
10
30.003456000000028
20
28.189424999999986
10
29.877143000000004
20
28.301327999999984
10
29.78128200000004
20
28.440207999999991
10
29.721442000000025
20
28.597992999999988
10
29.70110100000003
20
28.765513999999985
10
29.721442000000025
20
28.933034999999983
10
29.78128200000004
20
29.090819999999979
10
29.877143000000004
20
29.229699999999987
10
30.003456000000028
20
29.341602999999985
0
LWPOLYLINE
5
145
100
AcDbEntity
8
0
100
AcDbPolyline
90
37
70
1
43
0.0
10
18.172174999999982
20
27.788660999999983
10
18.409417999999995
20
27.798738999999983
10
18.644950999999992
20
27.768576999999979
10
18.871998999999988
20
27.699044999999991
10
19.084029999999998
20
27.592140999999984
10
19.274945000000017
20
27.450940999999986
10
19.439250000000001
20
27.279507999999986
10
19.572220000000016
20
27.082772999999989
10
19.67002800000003
20
26.866395999999988
10
19.729862000000011
20
26.636600999999978
10
19.750000000000014
20
26.399999999999977
10
19.729862000000011
20
26.163398999999991
10
19.67002800000003
20
25.933603999999981
10
19.572220000000016
20
25.717226999999987
10
19.439250000000001
20
25.52049199999999
10
19.274945000000017
20
25.349058999999983
10
19.084029999999998
20
25.207858999999981
10
18.871998999999988
20
25.100954999999985
10
18.644950999999992
20
25.031422999999986
10
18.409417999999995
20
25.001260999999985
10
18.172174999999982
20
25.011338999999992
10
17.940047999999997
20
25.06136699999999
10
17.719715000000029
20
25.149903999999985
10
17.517514000000034
20
25.27440399999999
10
17.339261000000015
20
25.431285999999986
10
17.190086000000022
20
25.616034999999975
10
17.074280000000002
20
25.823337999999978
10
16.995174000000013
20
26.047230999999982
10
16.955044000000008
20
26.28127199999998
10
16.955044000000008
20
26.518727999999989
10
16.995174000000013
20
26.752768999999983
10
17.074280000000002
20
26.976661999999987
10
17.190086000000022
20
27.183964999999979
10
17.339261000000015
20
27.368713999999983
10
17.517514000000034
20
27.525595999999979
10
17.719715000000029
20
27.650095999999991
10
17.940047999999997
20
27.738632999999986
0
CIRCLE
5
146
100
AcDbEntity
8
0
100
AcDbCircle
10
15.016157000000021
20
29.071981999999991
30
0
40
0.44999999999999996
210
0
220
2.4651903288156624e-32
230
1
0
CIRCLE
5
147
100
AcDbEntity
8
0
100
AcDbCircle
10
-6.0038429999999998
20
17.401981999999983
30
0
40
0.5
210
0
220
0
230
1
0
CIRCLE
5
148
100
AcDbEntity
8
0
100
AcDbCircle
10
-14.423842999999987
20
16.231981999999981
30
0
40
0.44999999999999996
210
0
220
2.4651903288156624e-32
230
1
0
LWPOLYLINE
5
149
100
AcDbEntity
8
0
100
AcDbPolyline
90
56
70
1
43
0.0
10
8.279443999999998
20
28.46282699999999
10
8.4088540000000123
20
28.479861999999983
10
8.5382640000000265
20
28.462828999999985
10
8.6588580000000093
20
28.412886999999991
10
14.439823999999994
20
25.075224999999985
10
14.543357999999991
20
24.995746999999994
10
14.622810000000008
20
24.892195999999984
10
14.672757999999995
20
24.771610999999993
10
14.689799000000008
20
24.642207999999979
10
14.672771000000004
20
24.512802999999987
10
14.622836000000028
20
24.39221299999998
10
14.122839999999997
20
23.526194999999987
10
14.07290500000002
20
23.405597999999976
10
14.05586600000003
20
23.276190999999979
10
14.072900000000033
20
23.146783999999982
10
14.122847000000007
20
23.026194999999987
10
14.202303000000001
20
22.922641999999982
10
14.305853000000006
20
22.843181999999977
10
15.171878000000021
20
22.343181999999977
10
15.275436000000013
20
22.263721999999984
10
15.354903000000029
20
22.160171999999989
10
15.40485799999999
20
22.039580999999977
10
15.421895000000028
20
21.910169999999987
10
15.404852000000027
20
21.780758999999989
10
15.354890999999995
20
21.660169999999994
10
14.604891000000002
20
20.361130999999979
10
14.525435000000009
20
20.257583999999991
10
14.421874000000017
20
20.178140999999982
10
14.301285000000021
20
20.128199999999985
10
14.171879000000018
20
20.111161999999993
10
14.042472000000004
20
20.128188999999992
10
13.921878000000021
20
20.178118999999981
10
4.6768020000000021
20
25.515765999999978
10
4.5732470000000092
20
25.595218999999982
10
4.4937940000000154
20
25.698776999999993
10
4.4438470000000052
20
25.819367999999983
10
4.4268110000000149
20
25.948776999999978
10
4.4438449999999818
20
26.078186999999986
10
4.4937889999999925
20
26.198778999999988
10
5.2437890000000209
20
27.497816999999991
10
5.3232950000000301
20
27.601330999999981
10
5.4268380000000249
20
27.680786999999984
10
5.5474159999999983
20
27.730739999999983
10
5.6768140000000145
20
27.747784999999983
10
5.8062150000000301
20
27.730761999999984
10
5.9268020000000021
20
27.680829999999979
10
6.7928270000000168
20
27.180829999999983
10
6.9134359999999973
20
27.130927999999983
10
7.0428360000000012
20
27.113887999999982
10
7.172237999999993
20
27.13091699999999
10
7.2928240000000244
20
27.180856999999989
10
7.3963760000000178
20
27.260302999999979
10
7.4758400000000336
20
27.363841999999991
10
7.9758440000000164
20
28.229874999999982
10
8.0552889999999877
20
28.333433999999986
10
8.1588500000000153
20
28.412883999999991
0
LWPOLYLINE
5
150
100
AcDbEntity
8
0
100
AcDbPolyline
90
56
70
1
43
0.0
10
-21.420554999999997
20
28.461805999999985
10
-21.291144999999982
20
28.478841999999986
10
-21.161734999999986
20
28.461806999999979
10
-21.041141999999997
20
28.411862999999986
10
-15.260175999999994
20
25.074201999999985
10
-15.156630999999994
20
24.994729999999983
10
-15.07716799999999
20
24.891180999999989
10
-15.027214999999998
20
24.770593999999981
10
-15.010175999999991
20
24.64118599999999
10
-15.02721300000001
20
24.511777999999993
10
-15.077163999999996
20
24.391189999999987
10
-15.577159999999974
20
23.525170999999983
10
-15.627073999999972
20
23.404570999999983
10
-15.644103999999981
20
23.275168999999991
10
-15.627067999999991
20
23.145767999999983
10
-15.577125999999986
20
23.025182999999984
10
-15.49768199999999
20
22.921627999999981
10
-15.394146999999982
20
22.842158999999977
10
-14.528121999999986
20
22.342158999999981
10
-14.424547000000008
20
22.262720999999985
10
-14.345078999999981
20
22.159165999999981
10
-14.295125999999989
20
22.038568999999981
10
-14.278092999999998
20
21.909151999999992
10
-14.295141999999981
20
21.779736999999983
10
-14.345108999999994
20
21.659145999999989
10
-15.095108999999987
20
20.360107999999979
10
-15.174559999999992
20
20.256558999999974
10
-15.278122999999972
20
20.177118999999983
10
-15.398713999999991
20
20.127178999999984
10
-15.528118999999982
20
20.110141999999982
10
-15.657527000000009
20
20.127166999999986
10
-15.778121999999986
20
20.177094999999987
10
-25.023197999999987
20
25.514741999999977
10
-25.126734999999982
20
25.594217999999984
10
-25.206187999999976
20
25.697769999999984
10
-25.256136999999974
20
25.818354999999986
10
-25.273176999999993
20
25.947758999999984
10
-25.256148999999972
20
26.077164999999987
10
-25.206210999999978
20
26.197754999999987
10
-24.456210999999985
20
27.496792999999986
10
-24.376797000000003
20
27.600380999999985
10
-24.273230999999988
20
27.67983899999998
10
-24.152629000000001
20
27.729784999999978
10
-24.023209999999988
20
27.746813999999986
10
-23.893792999999999
20
27.729767999999986
10
-23.773197999999987
20
27.679805999999978
10
-22.90717299999999
20
27.179805999999978
10
-22.786560999999992
20
27.129914999999983
10
-22.657161999999982
20
27.112875999999986
10
-22.527762999999972
20
27.129904999999983
10
-22.407178999999999
20
27.179841999999983
10
-22.303625999999994
20
27.25928399999998
10
-22.224159999999991
20
27.36281899999998
10
-21.724155999999972
20
28.228850999999977
10
-21.64470699999999
20
28.332408999999991
10
-21.541147999999986
20
28.41186099999998
0
LWPOLYLINE
5
151
100
AcDbEntity
8
0
100
AcDbPolyline
90
56
70
1
43
0.0
10
-45.370615999999977
20
5.4966229999999783
10
-45.241198999999988
20
5.5136479999999821
10
-45.111783999999986
20
5.4965999999999759
10
-44.991190999999979
20
5.4466409999999854
10
-44.887634999999989
20
5.3671739999999879
10
-44.808172999999996
20
5.2636149999999837
10
-44.058172999999989
20
3.9645769999999914
10
-44.008197999999993
20
3.8439939999999773
10
-43.991159999999994
20
3.7145799999999873
10
-44.008198999999983
20
3.5851659999999796
10
-44.058154999999992
20
3.4645719999999791
10
-44.137622999999984
20
3.361018999999974
10
-44.241185999999985
20
3.2815639999999924
10
-45.10721199999999
20
2.7815639999999853
10
-45.210785999999992
20
2.702127999999977
10
-45.290247999999984
20
2.5985699999999845
10
-45.340197999999994
20
2.4779739999999784
10
-45.357230999999985
20
2.3485579999999828
10
-45.340184999999984
20
2.2191439999999751
10
-45.290223999999988
20
2.0985519999999802
10
-44.790215999999994
20
1.2325119999999856
10
-44.74024399999999
20
1.1119369999999762
10
-44.723224999999985
20
0.98252399999998019
10
-44.740273999999985
20
0.85311499999997764
10
-44.790227999999992
20
0.73252499999997056
10
-44.869683999999985
20
0.62896799999998976
10
-44.973230999999991
20
0.54949799999997495
10
-50.754221999999984
20
-2.7881210000000145
10
-50.87483499999999
20
-2.8380060000000107
10
-51.00423099999999
20
-2.8550420000000187
10
-51.133628999999985
20
-2.8380120000000097
10
-51.254211000000005
20
-2.7880770000000155
10
-51.357763999999989
20
-2.7086380000000077
10
-51.437232000000002
20
-2.6051070000000287
10
-51.937223999999986
20
-1.7390960000000177
10
-52.016668999999993
20
-1.6355390000000192
10
-52.120231999999987
20
-1.5560930000000184
10
-52.240823999999989
20
-1.5061510000000133
10
-52.370232999999985
20
-1.4891150000000231
10
-52.499641999999994
20
-1.506146000000026
10
-52.620236999999989
20
-1.5560830000000259
10
-53.486261999999996
20
-2.0560830000000152
10
-53.606838000000003
20
-2.1060740000000067
10
-53.736254999999993
20
-2.1231110000000086
10
-53.865671999999982
20
-2.1060680000000076
10
-53.986266999999977
20
-2.0561090000000171
10
-54.089820999999993
20
-1.9766370000000144
10
-54.169274999999985
20
-1.8730700000000233
10
-54.919274999999992
20
-0.5740320000000132
10
-54.969201999999996
20
-0.45343300000002529
10
-54.986240999999993
20
-0.32402700000002227
10
-54.969207000000004
20
-0.19462200000001317
10
-54.919261999999982
20
-0.074033000000017779
10
-54.839808999999988
20
0.029519999999987334
10
-54.736261999999996
20
0.10898099999998578
10
-45.491185999999985
20
5.4466279999999934
0
CIRCLE
5
152
100
AcDbEntity
8
0
100
AcDbCircle
10
-35.703842999999992
20
8.2019819999999832
30
0
40
0.5
210
0
220
0
230
1
0
LWPOLYLINE
5
153
100
AcDbEntity
8
0
100
AcDbPolyline
90
44
70
1
43
0.0
10
-26.484629999999996
20
14.779642999999991
10
-26.20000000000001
20
14.799999999999978
10
-25.915369999999989
20
14.779642999999991
10
-25.636534999999991
20
14.718985999999985
10
-25.36916999999999
20
14.619263999999985
10
-25.11871799999998
20
14.482506999999982
10
-24.890278999999982
20
14.311498999999976
10
-24.688500999999992
20
14.109720999999986
10
-24.517492999999995
20
13.881281999999979
10
-24.380735999999992
20
13.630829999999987
10
-24.281013999999992
20
13.363464999999985
10
-24.220356999999986
20
13.084629999999988
10
-24.199999999999999
20
12.799999999999976
10
-24.220356999999986
20
12.51536999999999
10
-24.281013999999992
20
12.236534999999984
10
-24.380735999999992
20
11.969169999999991
10
-24.517492999999995
20
11.718717999999981
10
-24.688500999999992
20
11.490278999999983
10
-24.890278999999982
20
11.288500999999975
10
-25.11871799999998
20
11.117492999999978
10
-25.36916999999999
20
10.980735999999993
10
-25.636534999999991
20
10.881013999999993
10
-25.915369999999989
20
10.820356999999987
10
-26.20000000000001
20
10.799999999999983
10
-26.484629999999996
20
10.820356999999987
10
-26.763464999999975
20
10.881013999999993
10
-27.030829999999995
20
10.980735999999993
10
-27.281281999999987
20
11.117492999999978
10
-27.509721000000003
20
11.288500999999975
10
-27.711498999999993
20
11.490278999999983
10
-27.88250699999999
20
11.718717999999981
10
-28.019263999999975
20
11.969169999999991
10
-28.118985999999992
20
12.236534999999984
10
-28.179642999999981
20
12.51536999999999
10
-28.200000000000003
20
12.799999999999976
10
-28.179642999999981
20
13.084629999999988
10
-28.118985999999992
20
13.363464999999985
10
-28.019263999999975
20
13.630829999999987
10
-27.88250699999999
20
13.881281999999979
10
-27.711498999999993
20
14.109720999999986
10
-27.509721000000003
20
14.311498999999976
10
-27.281281999999987
20
14.482506999999982
10
-27.030829999999995
20
14.619263999999985
10
-26.763464999999975
20
14.718985999999985
0
LWPOLYLINE
5
154
100
AcDbEntity
8
0
100
AcDbPolyline
90
56
70
1
43
0.0
10
-39.902160999999992
20
18.621691999999975
10
-39.77273799999999
20
18.638706999999979
10
-38.27273799999999
20
18.638706999999979
10
-38.143331999999987
20
18.621649999999981
10
-38.022744999999993
20
18.571701999999988
10
-37.919193
20
18.492245999999994
10
-37.839732999999995
20
18.388696999999993
10
-37.789779999999986
20
18.268111999999981
10
-37.772737999999997
20
18.138706999999982
10
-37.772737999999997
20
7.4634119999999804
10
-37.789726999999985
20
7.3339989999999844
10
-37.839691999999978
20
7.2134079999999834
10
-37.919163000000005
20
7.10985599999999
10
-38.022724999999994
20
7.030398999999985
10
-38.143323000000002
20
6.9804499999999869
10
-38.27273799999999
20
6.9634119999999911
10
-39.77273799999999
20
6.9634119999999911
10
-39.90215199999998
20
6.9804239999999851
10
-40.022745999999998
20
7.0303769999999766
10
-40.126302000000003
20
7.1098409999999923
10
-40.205760999999995
20
7.2133999999999965
10
-40.255706999999994
20
7.3339969999999788
10
-40.272737999999997
20
7.4634119999999804
10
-40.272737999999997
20
8.4634119999999946
10
-40.289757000000002
20
8.592822999999985
10
-40.339712999999989
20
8.7134129999999921
10
-40.419176999999991
20
8.8169649999999855
10
-40.522733999999986
20
8.8964239999999783
10
-40.643326999999978
20
8.9463739999999881
10
-40.77273799999999
20
8.9634119999999839
10
-41.772737999999983
20
8.9634119999999839
10
-41.902151999999987
20
8.980423999999978
10
-42.022745999999991
20
9.0303769999999872
10
-42.126301999999995
20
9.1098409999999852
10
-42.205760999999988
20
9.2133999999999894
10
-42.255706999999987
20
9.3339969999999717
10
-42.27273799999999
20
9.4634119999999911
10
-42.27273799999999
20
16.138706999999979
10
-42.25574499999999
20
16.268128999999981
10
-42.205797999999994
20
16.38873199999999
10
-42.126332999999988
20
16.492292999999982
10
-42.022766999999988
20
16.571751999999982
10
-41.902160999999992
20
16.621691999999975
10
-41.772737999999983
20
16.638706999999975
10
-40.77273799999999
20
16.638706999999975
10
-40.643333999999989
20
16.655736999999988
10
-40.522752000000004
20
16.705700999999991
10
-40.419204999999998
20
16.785164999999989
10
-40.339746999999981
20
16.888716999999982
10
-40.289789999999996
20
17.009301999999984
10
-40.272737999999997
20
17.138706999999975
10
-40.272737999999997
20
18.138706999999982
10
-40.25574499999999
20
18.268128999999984
10
-40.205797999999987
20
18.388731999999983
10
-40.126332999999988
20
18.492292999999982
10
-40.022766999999995
20
18.571751999999986
0
CIRCLE
5
155
100
AcDbEntity
8
0
100
AcDbCircle
10
-78.923843000000005
20
0.69198199999997101
30
0
40
0.44999999999999996
210
0
220
2.4651903288156624e-32
230
1
0
CIRCLE
5
156
100
AcDbEntity
8
0
100
AcDbCircle
10
-78.923843000000005
20
3.2319819999999844
30
0
40
0.44999999999999996
210
0
220
2.4651903288156624e-32
230
1
0
CIRCLE
5
157
100
AcDbEntity
8
0
100
AcDbCircle
10
-82.718842999999993
20
5.3119819999999862
30
0
40
0.59999999999999998
210
0
220
0
230
1
0
CIRCLE
5
158
100
AcDbEntity
8
0
100
AcDbCircle
10
-86.51884299999999
20
5.3119819999999862
30
0
40
0.59999999999999998
210
0
220
0
230
1
0
CIRCLE
5
159
100
AcDbEntity
8
0
100
AcDbCircle
10
-65.403842999999995
20
8.2019819999999832
30
0
40
0.5
210
0
220
0
230
1
0
LWPOLYLINE
5
160
100
AcDbEntity
8
0
100
AcDbPolyline
90
44
70
1
43
0.0
10
-56.184629999999984
20
14.779642999999991
10
-55.899999999999999
20
14.799999999999978
10
-55.615369999999977
20
14.779642999999991
10
-55.336534999999998
20
14.718985999999985
10
-55.069169999999978
20
14.619263999999985
10
-54.81871799999999
20
14.482506999999982
10
-54.590278999999988
20
14.311498999999976
10
-54.388500999999998
20
14.109720999999986
10
-54.217492999999983
20
13.881281999999979
10
-54.08073599999998
20
13.630829999999987
10
-53.981013999999981
20
13.363464999999985
10
-53.920356999999996
20
13.084629999999988
10
-53.899999999999991
20
12.799999999999976
10
-53.920356999999996
20
12.51536999999999
10
-53.981013999999981
20
12.236534999999984
10
-54.08073599999998
20
11.969169999999991
10
-54.217492999999983
20
11.718717999999981
10
-54.388500999999998
20
11.490278999999983
10
-54.590278999999988
20
11.288500999999975
10
-54.81871799999999
20
11.117492999999978
10
-55.069169999999978
20
10.980735999999993
10
-55.336534999999998
20
10.881013999999993
10
-55.615369999999977
20
10.820356999999987
10
-55.899999999999999
20
10.799999999999983
10
-56.184629999999984
20
10.820356999999987
10
-56.463464999999985
20
10.881013999999993
10
-56.730829999999997
20
10.980735999999993
10
-56.981281999999993
20
11.117492999999978
10
-57.209720999999988
20
11.288500999999975
10
-57.411498999999999
20
11.490278999999983
10
-57.582506999999993
20
11.718717999999981
10
-57.719263999999995
20
11.969169999999991
10
-57.818985999999995
20
12.236534999999984
10
-57.879642999999987
20
12.51536999999999
10
-57.899999999999991
20
12.799999999999976
10
-57.879642999999987
20
13.084629999999988
10
-57.818985999999995
20
13.363464999999985
10
-57.719263999999995
20
13.630829999999987
10
-57.582506999999993
20
13.881281999999979
10
-57.411498999999999
20
14.109720999999986
10
-57.209720999999988
20
14.311498999999976
10
-56.981281999999993
20
14.482506999999982
10
-56.730829999999997
20
14.619263999999985
10
-56.463464999999985
20
14.718985999999985
0
LWPOLYLINE
5
161
100
AcDbEntity
8
0
100
AcDbPolyline
90
56
70
1
43
0.0
10
-69.602129000000005
20
18.620605999999977
10
-69.472737999999993
20
18.637682999999974
10
-67.972737999999993
20
18.637682999999974
10
-67.843318999999994
20
18.620668999999985
10
-67.722716999999989
20
18.570727999999981
10
-67.619154999999992
20
18.491266999999993
10
-67.539694999999995
20
18.387704999999983
10
-67.489754999999988
20
18.267102999999985
10
-67.472737999999993
20
18.137682999999978
10
-67.472737999999993
20
7.4623879999999865
10
-67.48980499999999
20
7.3329889999999764
10
-67.539762999999994
20
7.2124109999999853
10
-67.619218999999987
20
7.1088659999999848
10
-67.722762999999986
20
7.029406999999992
10
-67.843339999999998
20
6.9794469999999897
10
-67.972737999999993
20
6.9623879999999794
10
-69.472737999999993
20
6.9623879999999794
10
-69.602148
20
6.9794229999999757
10
-69.72273899999999
20
7.0293729999999854
10
-69.826292999999993
20
7.108831999999996
10
-69.905753000000004
20
7.212386999999989
10
-69.955702000000002
20
7.3329779999999722
10
-69.972738000000007
20
7.4623879999999865
10
-69.972738000000007
20
8.4623879999999829
10
-69.989775000000009
20
8.5917969999999855
10
-70.039725999999987
20
8.7123869999999926
10
-70.119185999999999
20
8.8159399999999799
10
-70.222739000000004
20
8.8953989999999727
10
-70.343329000000011
20
8.9453499999999941
10
-70.472737999999993
20
8.96238799999999
10
-71.472737999999993
20
8.96238799999999
10
-71.602147999999985
20
8.9794229999999864
10
-71.72273899999999
20
9.0293729999999961
10
-71.826293000000007
20
9.1088319999999889
10
-71.90575299999999
20
9.2123869999999819
10
-71.955701999999988
20
9.3329779999999829
10
-71.972737999999993
20
9.4623879999999794
10
-71.972737999999993
20
16.137682999999974
10
-71.955664999999996
20
16.26707399999999
10
-71.905695000000009
20
16.387641999999978
10
-71.826235999999994
20
16.491179999999979
10
-71.722698000000008
20
16.570636999999984
10
-71.602128999999991
20
16.620605999999974
10
-71.472737999999993
20
16.637682999999974
10
-70.472737999999993
20
16.637682999999974
10
-70.343308999999991
20
16.654673999999979
10
-70.222694999999987
20
16.704606999999978
10
-70.119124999999997
20
16.784068999999988
10
-70.039664999999985
20
16.887638999999986
10
-69.989733000000001
20
17.008252999999982
10
-69.972738000000007
20
17.137682999999981
10
-69.972738000000007
20
18.137682999999978
10
-69.95566500000001
20
18.267073999999994
10
-69.905694999999994
20
18.387641999999982
10
-69.826235999999994
20
18.491179999999979
10
-69.722697999999994
20
18.570636999999984
0
CIRCLE
5
162
100
AcDbEntity
8
0
100
AcDbCircle
10
-82.718842999999993
20
13.951981999999985
30
0
40
0.59999999999999998
210
0
220
0
230
1
0
CIRCLE
5
163
100
AcDbEntity
8
0
100
AcDbCircle
10
-86.51884299999999
20
13.951981999999985
30
0
40
0.59999999999999998
210
0
220
0
230
1
0
CIRCLE
5
164
100
AcDbEntity
8
0
100
AcDbCircle
10
-35.703842999999992
20
17.401981999999983
30
0
40
0.5
210
0
220
0
230
1
0
LWPOLYLINE
5
165
100
AcDbEntity
8
0
100
AcDbPolyline
90
101
70
1
43
0.0
10
-41.316470999999986
20
28.489757999999981
10
-40.944327999999985
20
28.498313999999986
10
-40.573382000000002
20
28.467296999999981
10
-40.207826999999995
20
28.397058999999985
10
-39.851799999999997
20
28.28839399999999
10
-39.509326999999992
20
28.142530999999984
10
-39.184282999999986
20
27.961120999999984
10
-38.880343999999987
20
27.746214999999985
10
-38.600947999999988
20
27.500244999999985
10
-38.349255999999997
20
27.225991999999984
10
-38.128114999999987
20
26.926558999999983
10
-37.940025999999989
20
26.60533299999998
10
-37.787116999999988
20
26.265947999999987
10
-37.671117999999986
20
25.912242999999986
10
-37.593339999999991
20
25.548217999999991
10
-37.554663999999995
20
25.177991999999989
10
-37.555526999999991
20
24.805751999999977
10
-37.595919000000002
20
24.435707999999991
10
-37.675382999999997
20
24.072047999999981
10
-37.793020999999989
20
23.718883999999989
10
-37.947500999999981
20
23.380210999999989
10
-38.137076999999984
20
23.059860999999984
10
-38.35960399999999
20
22.761455999999978
10
-38.612563999999985
20
22.488372999999982
10
-38.893096999999997
20
22.24370099999998
10
-39.198028999999991
20
22.030205999999986
10
-39.523910999999984
20
21.850303999999987
10
-39.867055999999991
20
21.706030999999975
10
-40.223582999999991
20
21.599017999999983
10
-40.589458999999991
20
21.530474999999978
10
-40.960545999999987
20
21.501177999999975
10
-41.332644999999992
20
21.511457999999983
10
-41.701547999999988
20
21.561198999999984
10
-42.063080999999997
20
21.649838999999986
10
-42.413155999999987
20
21.776373999999983
10
-42.747811999999996
20
21.939372999999982
10
-42.925690999999979
20
22.016536999999978
10
-43.115117000000005
20
22.057922999999988
10
-43.308968999999991
20
22.061974999999983
10
-43.499959999999987
20
22.02854099999999
10
-43.680907999999988
20
21.958876999999983
10
-43.845009999999988
20
21.855603999999982
10
-43.986097999999991
20
21.722602999999985
10
-44.098925999999992
20
21.564907999999985
10
-44.545108999999989
20
20.792096999999981
10
-44.659292999999991
20
20.632747999999985
10
-44.802371000000001
20
20.498736999999991
10
-44.968844999999988
20
20.395213999999982
10
-45.152315999999985
20
20.326157999999985
10
-45.345733999999993
20
20.294223999999979
10
-45.541664999999995
20
20.300636999999995
10
-45.732581000000003
20
20.345150999999984
10
-45.911134999999987
20
20.426070999999986
10
-54.723197999999996
20
25.513718999999995
10
-54.826768999999977
20
25.593163999999984
10
-54.906240999999994
20
25.696714999999983
10
-54.956195999999991
20
25.817308999999984
10
-54.973226999999994
20
25.946724999999979
10
-54.95617399999999
20
26.076137999999986
10
-54.906210999999985
20
26.196730999999982
10
-54.156210999999992
20
27.495769999999986
10
-54.076743999999991
20
27.599317999999986
10
-53.973186999999996
20
27.67877499999998
10
-53.852596999999989
20
27.728727999999983
10
-53.723187999999986
20
27.745773999999983
10
-53.593774999999994
20
27.728750999999985
10
-53.473197999999996
20
27.678781999999984
10
-52.607172999999996
20
27.178781999999984
10
-52.486584000000001
20
27.128812999999987
10
-52.357169999999996
20
27.111764999999988
10
-52.227754999999988
20
27.128798999999979
10
-52.107159999999993
20
27.178754999999981
10
-52.003608999999997
20
27.258225999999979
10
-51.924159999999979
20
27.361794999999987
10
-51.424155999999996
20
28.227826999999984
10
-51.344691999999995
20
28.331371999999988
10
-51.241137999999999
20
28.410823999999984
10
-51.120549999999994
20
28.460768999999981
10
-50.991143999999991
20
28.477804999999989
10
-50.861737999999988
20
28.460769999999982
10
-50.741142000000004
20
28.410838999999982
10
-45.815692999999996
20
25.567113999999982
10
-45.636805000000003
20
25.486110999999987
10
-45.44553699999998
20
25.441628999999992
10
-45.249263999999997
20
25.435381999999986
10
-45.055553999999987
20
25.467611999999988
10
-44.871876999999998
20
25.53707499999998
10
-44.705316999999987
20
25.641093999999978
10
-44.562294999999992
20
25.775655999999991
10
-44.448326999999992
20
25.935573999999981
10
-44.367758999999992
20
26.114662999999982
10
-44.230607999999982
20
26.460715999999991
10
-44.057479999999991
20
26.790245999999982
10
-43.850331999999987
20
27.099524999999982
10
-43.611508999999984
20
27.385054999999987
10
-43.343711999999996
20
27.643604999999987
10
-43.049969999999988
20
27.872250999999988
10
-42.733606000000002
20
28.068406999999986
10
-42.398197999999994
20
28.229853999999985
10
-42.047540999999988
20
28.354764999999986
10
-41.685599999999994
20
28.441727999999991
0
CIRCLE
5
166
100
AcDbEntity
8
0
100
AcDbCircle
10
-65.403842999999995
20
17.401981999999983
30
0
40
0.5
210
0
220
0
230
1
0
LWPOLYLINE
5
167
100
AcDbEntity
8
0
100
AcDbPolyline
90
20
70
1
43
0.0
10
-81.047008999999989
20
17.190419999999982
10
-80.92340200000001
20
17.209996999999984
10
-80.799794999999989
20
17.190419999999982
10
-80.688287999999986
20
17.133603999999991
10
-80.599794999999986
20
17.045110999999984
10
-80.542979000000003
20
16.933603999999988
10
-80.523402000000004
20
16.809996999999974
10
-80.542979000000003
20
16.686389999999989
10
-80.599794999999986
20
16.574882999999978
10
-80.688287999999986
20
16.486389999999986
10
-80.799794999999989
20
16.429573999999985
10
-80.92340200000001
20
16.409996999999983
10
-81.047008999999989
20
16.429573999999985
10
-81.158515999999992
20
16.486389999999986
10
-81.247008999999991
20
16.574882999999978
10
-81.303824999999989
20
16.686389999999989
10
-81.323402000000002
20
16.809996999999974
10
-81.303824999999989
20
16.933603999999988
10
-81.247008999999991
20
17.045110999999984
10
-81.158515999999992
20
17.133603999999991
0
LWPOLYLINE
5
168
100
AcDbEntity
8
0
100
AcDbPolyline
90
20
70
1
43
0.0
10
-86.047008999999989
20
17.189103999999986
10
-85.923401999999982
20
17.208680999999977
10
-85.799794999999989
20
17.189103999999986
10
-85.688287999999986
20
17.132287999999988
10
-85.599794999999986
20
17.043794999999982
10
-85.542978999999974
20
16.932287999999982
10
-85.523402000000004
20
16.808680999999986
10
-85.542978999999974
20
16.685073999999986
10
-85.599794999999972
20
16.573566999999976
10
-85.688287999999986
20
16.48507399999998
10
-85.799795000000003
20
16.428257999999978
10
-85.92340200000001
20
16.408680999999987
10
-86.047008999999974
20
16.428257999999978
10
-86.158515999999992
20
16.48507399999998
10
-86.247009000000006
20
16.573566999999976
10
-86.303824999999989
20
16.685073999999986
10
-86.323401999999987
20
16.808680999999986
10
-86.303824999999989
20
16.932287999999982
10
-86.247009000000006
20
17.043794999999982
10
-86.158515999999992
20
17.132287999999988
0
LWPOLYLINE
5
169
100
AcDbEntity
8
0
100
AcDbPolyline
90
20
70
1
43
0.0
10
-81.047008999999989
20
20.690419999999989
10
-80.92340200000001
20
20.70999699999998
10
-80.799794999999989
20
20.690419999999989
10
-80.688287999999986
20
20.633603999999988
10
-80.599794999999986
20
20.545110999999991
10
-80.542979000000003
20
20.433603999999981
10
-80.523402000000004
20
20.309996999999981
10
-80.542979000000003
20
20.186389999999985
10
-80.599794999999986
20
20.074882999999986
10
-80.688287999999986
20
19.986389999999979
10
-80.799794999999989
20
19.929573999999981
10
-80.92340200000001
20
19.90999699999999
10
-81.047008999999989
20
19.929573999999981
10
-81.158515999999992
20
19.986389999999979
10
-81.247008999999991
20
20.074882999999986
10
-81.303824999999989
20
20.186389999999985
10
-81.323402000000002
20
20.309996999999981
10
-81.303824999999989
20
20.433603999999981
10
-81.247008999999991
20
20.545110999999991
10
-81.158515999999992
20
20.633603999999988
0
LWPOLYLINE
5
170
100
AcDbEntity
8
0
100
AcDbPolyline
90
20
70
1
43
0.0
10
-86.047008999999989
20
20.689103999999983
10
-85.923401999999982
20
20.708680999999984
10
-85.799794999999989
20
20.689103999999983
10
-85.688287999999986
20
20.632287999999981
10
-85.599794999999986
20
20.543794999999989
10
-85.542978999999974
20
20.432287999999978
10
-85.523402000000004
20
20.308680999999993
10
-85.542978999999974
20
20.185073999999979
10
-85.599794999999972
20
20.073566999999983
10
-85.688287999999986
20
19.985073999999976
10
-85.799795000000003
20
19.928257999999985
10
-85.92340200000001
20
19.908680999999984
10
-86.047008999999974
20
19.928257999999985
10
-86.158515999999992
20
19.985073999999976
10
-86.247009000000006
20
20.073566999999983
10
-86.303824999999989
20
20.185073999999979
10
-86.323401999999987
20
20.308680999999993
10
-86.303824999999989
20
20.432287999999978
10
-86.247009000000006
20
20.543794999999989
10
-86.158515999999992
20
20.632287999999981
0
CIRCLE
5
171
100
AcDbEntity
8
0
100
AcDbCircle
10
-63.923842999999998
20
26.731981999999981
30
0
40
0.44999999999999996
210
0
220
2.4651903288156624e-32
230
1
0
LWPOLYLINE
5
172
100
AcDbEntity
8
0
100
AcDbPolyline
90
37
70
1
43
0.0
10
-70.177824999999984
20
27.788660999999983
10
-69.940581999999992
20
27.798738999999983
10
-69.705049000000002
20
27.768576999999979
10
-69.478001000000006
20
27.699044999999991
10
-69.265969999999996
20
27.592140999999984
10
-69.075054999999992
20
27.450940999999986
10
-68.910749999999993
20
27.279507999999986
10
-68.777779999999993
20
27.082772999999989
10
-68.679971999999992
20
26.866395999999988
10
-68.620137999999997
20
26.636600999999978
10
-68.599999999999994
20
26.399999999999977
10
-68.620137999999997
20
26.163398999999991
10
-68.679971999999992
20
25.933603999999981
10
-68.777779999999993
20
25.717226999999987
10
-68.910749999999993
20
25.52049199999999
10
-69.075054999999992
20
25.349058999999983
10
-69.265969999999996
20
25.207858999999981
10
-69.478001000000006
20
25.100954999999985
10
-69.705049000000002
20
25.031422999999986
10
-69.940581999999992
20
25.001260999999985
10
-70.177824999999984
20
25.011338999999992
10
-70.40995199999999
20
25.06136699999999
10
-70.630285000000001
20
25.149903999999985
10
-70.832485999999989
20
25.27440399999999
10
-71.010739000000001
20
25.431285999999986
10
-71.159913999999986
20
25.616034999999975
10
-71.275719999999993
20
25.823337999999978
10
-71.354826000000003
20
26.047230999999982
10
-71.394956000000008
20
26.28127199999998
10
-71.394956000000008
20
26.518727999999989
10
-71.354826000000003
20
26.752768999999983
10
-71.275719999999993
20
26.976661999999987
10
-71.159913999999986
20
27.183964999999979
10
-71.010739000000001
20
27.368713999999983
10
-70.832485999999989
20
27.525595999999979
10
-70.630285000000001
20
27.650095999999991
10
-70.40995199999999
20
27.738632999999986
0
LWPOLYLINE
5
173
100
AcDbEntity
8
0
100
AcDbPolyline
90
20
70
1
43
0.0
10
-81.047008999999989
20
24.190419999999982
10
-80.92340200000001
20
24.209996999999987
10
-80.799794999999989
20
24.190419999999982
10
-80.688287999999986
20
24.133603999999984
10
-80.599794999999986
20
24.045110999999988
10
-80.542979000000003
20
23.933603999999988
10
-80.523402000000004
20
23.809996999999974
10
-80.542979000000003
20
23.686389999999982
10
-80.599794999999986
20
23.574882999999982
10
-80.688287999999986
20
23.486389999999986
10
-80.799794999999989
20
23.429573999999988
10
-80.92340200000001
20
23.409996999999983
10
-81.047008999999989
20
23.429573999999988
10
-81.158515999999992
20
23.486389999999986
10
-81.247008999999991
20
23.574882999999982
10
-81.303824999999989
20
23.686389999999982
10
-81.323402000000002
20
23.809996999999974
10
-81.303824999999989
20
23.933603999999988
10
-81.247008999999991
20
24.045110999999988
10
-81.158515999999992
20
24.133603999999984
0
LWPOLYLINE
5
174
100
AcDbEntity
8
0
100
AcDbPolyline
90
20
70
1
43
0.0
10
-86.047008999999989
20
24.189103999999979
10
-85.923401999999982
20
24.208680999999981
10
-85.799794999999989
20
24.189103999999979
10
-85.688287999999986
20
24.132287999999988
10
-85.599794999999986
20
24.043794999999982
10
-85.542978999999974
20
23.932287999999986
10
-85.523402000000004
20
23.808680999999989
10
-85.542978999999974
20
23.685073999999986
10
-85.599794999999972
20
23.573566999999976
10
-85.688287999999986
20
23.485073999999983
10
-85.799795000000003
20
23.428257999999982
10
-85.92340200000001
20
23.40868099999998
10
-86.047008999999974
20
23.428257999999982
10
-86.158515999999992
20
23.485073999999983
10
-86.247009000000006
20
23.573566999999976
10
-86.303824999999989
20
23.685073999999986
10
-86.323401999999987
20
23.808680999999989
10
-86.303824999999989
20
23.932287999999986
10
-86.247009000000006
20
24.043794999999982
10
-86.158515999999992
20
24.132287999999988
0
LWPOLYLINE
5
175
100
AcDbEntity
8
0
100
AcDbPolyline
90
104
70
1
43
0.0
10
-8.1750574955799955
20
29.974503004349046
10
-8.1750574955799955
20
29.989614567846402
10
-8.3020574955799962
20
30.116556551319519
10
-8.6100574955799978
20
30.116556551319519
10
-8.6100574955799978
20
31.073905766323659
10
-8.6100574955799978
20
31.085995017121544
10
-8.7100574955799974
20
31.18292702211744
10
-8.9100574955799967
20
31.18292702211744
10
-9.0100574955799981
20
31.085995017121544
10
-9.0100574955799999
20
31.073905766323659
10
-9.0100574955799981
20
30.116556551319519
10
-9.318057495579998
20
30.116556551319519
10
-9.4450574955799986
20
29.989614567846402
10
-9.5720574955799993
20
30.116556551319519
10
-9.8800574955799991
20
30.116556551319519
10
-9.8800574955800009
20
31.073905766323659
10
-9.8800574955799991
20
31.085995017121544
10
-9.9800574955799988
20
31.18292702211744
10
-10.18005749558
20
31.18292702211744
10
-10.280057495579999
20
31.085995017121544
10
-10.280057495579999
20
31.073905766323659
10
-10.280057495579999
20
30.116556551319519
10
-10.588057495579999
20
30.116556551319519
10
-10.715057495579998
20
29.989614567846402
10
-10.842057495579997
20
30.116556551319519
10
-11.15005749558
20
30.116556551319519
10
-11.150057495579999
20
31.073905766323659
10
-11.150057495579999
20
31.085995017121544
10
-11.250057495579998
20
31.18292702211744
10
-11.450057495580001
20
31.18292702211744
10
-11.550057495580003
20
31.085995017121544
10
-11.550057495580003
20
31.073905766323659
10
-11.550057495580003
20
30.116556551319519
10
-11.858057495580001
20
30.116556551319519
10
-11.985057495580001
20
29.989614567846402
10
-12.11205749558
20
30.116556551319519
10
-12.420057495580002
20
30.116556551319519
10
-12.420057495580002
20
31.073905766323659
10
-12.420057495580002
20
31.085995017121544
10
-12.520057495580001
20
31.18292702211744
10
-12.720057495580001
20
31.18292702211744
10
-12.820057495580002
20
31.085995017121544
10
-12.820057495580002
20
31.073905766323659
10
-12.820057495580004
20
30.116556551319519
10
-13.128057495580004
20
30.116556551319519
10
-13.255057495580001
20
29.989614567846409
10
-13.382057495580002
20
30.116556551319519
10
-13.690057495580003
20
30.116556551319526
10
-13.690057495580003
20
31.073905766323659
10
-13.690057495580003
20
31.085995017121544
10
-13.790057495580005
20
31.18292702211744
10
-13.990057495580004
20
31.18292702211744
10
-14.090057495580004
20
31.085995017121544
10
-14.090057495580004
20
31.073905766323659
10
-14.090057495580004
20
30.116556551319526
10
-14.398057495580002
20
30.116556551319526
10
-14.525057495580002
20
29.989614567846409
10
-14.525057495580002
20
29.974503004349053
10
-14.525057495580004
20
26.829940169652772
10
-14.398057495580005
20
26.702998186179656
10
-14.090057495580005
20
26.702998186179656
10
-14.090057495580005
20
25.706358906082393
10
-13.990057495580006
20
25.609426901086497
10
-13.790057495580006
20
25.609426901086497
10
-13.690057495580007
20
25.706358906082393
10
-13.690057495580003
20
26.702998186179656
10
-13.382057495580003
20
26.702998186179656
10
-13.255057495580003
20
26.829940169652772
10
-13.128057495580004
20
26.702998186179656
10
-12.820057495580002
20
26.702998186179656
10
-12.820057495580004
20
25.706358906082393
10
-12.720057495580004
20
25.609426901086497
10
-12.520057495580003
20
25.609426901086497
10
-12.420057495580004
20
25.706358906082393
10
-12.420057495580004
20
26.702998186179656
10
-12.112057495580002
20
26.702998186179656
10
-11.985057495580003
20
26.829940169652772
10
-11.858057495580001
20
26.702998186179656
10
-11.550057495580003
20
26.702998186179656
10
-11.550057495580003
20
25.706358906082393
10
-11.450057495580221
20
25.60942690108639
10
-11.250057495580002
20
25.609426901086497
10
-11.15005749558
20
25.706358906082393
10
-11.15005749558
20
26.702998186179656
10
-10.842057495580001
20
26.702998186179656
10
-10.71505749558
20
26.829940169652772
10
-10.588057495580001
20
26.702998186179656
10
-10.280057495580001
20
26.702998186179656
10
-10.280057495579999
20
25.706358906082393
10
-10.180057495580002
20
25.609426901086497
10
-9.9800574955800023
20
25.609426901086497
10
-9.8800574955800009
20
25.706358906082393
10
-9.8800574955799991
20
26.702998186179656
10
-9.5720574955799993
20
26.702998186179656
10
-9.4450574955799986
20
26.829940169652772
10
-9.3180574955799997
20
26.702998186179656
10
-9.0100574955799981
20
26.702998186179656
10
-9.0100574955799999
20
25.706358906082393
10
-8.9100574955799985
20
25.609426901086497
10
-8.7100574955799992
20
25.609426901086497
10
-8.6100574955799996
20
25.706358906082393
10
-8.6100574955799996
20
26.702998186179656
10
-8.3020574955799979
20
26.702998186179656
10
-8.1750574955799991
20
26.829940169652772
0
LINE
5
176
100
AcDbEntity
8
0
100
AcDbLine
10
-89.75
20
25.280598744717548
30
0
11
-89.75
21
-11.105684687395897
31
0
0
SPLINE
5
177
100
AcDbEntity
8
0
100
AcDbSpline
70
0
71
3
72
8
73
4
74
0
42
0.000000001
43
0.0000000001
44
0.0000000001
40
0.97980801279789975
40
0.97980801279789975
40
0.97980801279789975
40
0.97980801279789975
40
0.99999969747042827
40
0.99999969747042827
40
0.99999969747042827
40
0.99999969747042827
10
-89.749913594614853
20
-11.111313394221652
30
0
10
-89.749964442280898
20
-11.109457325879797
30
0
10
-89.749983569713294
20
-11.107582760248995
30
0
10
-89.749971871688956
20
-11.105684744827151
30
0
0
LINE
5
178
100
AcDbEntity
8
0
100
AcDbLine
10
-17.324899577219853
20
23.348261584340932
30
0
11
-16.52320742526733
21
22.885401821204624
31
0
0
LINE
5
179
100
AcDbEntity
8
0
100
AcDbLine
10
-22.30417403633
20
26.223063079060005
30
0
11
-21.502476079881131
21
25.760199964677465
31
0
0
LINE
5
180
100
AcDbEntity
8
0
100
AcDbLine
10
-52.054014376870008
20
26.409070661299999
30
0
11
-55.450533731119869
21
28.370062969840227
31
0
0
LINE
5
181
100
AcDbEntity
8
0
100
AcDbLine
10
-55.450533731119869
20
28.370062969840227
30
0
11
-55.523436558997844
21
25.688323617809946
31
0
0
ARC
5
182
100
AcDbEntity
8
0
100
AcDbCircle
10
-59.548135590650013
20
25.797734676170005
30
0
40
4.026185921569005
210
0
220
0
230
1
100
AcDbArc
50
285.67808849300309
51
358.44280323596297
0
ARC
5
183
100
AcDbEntity
8
0
100
AcDbCircle
10
-55.899999999999949
20
12.799999999999914
30
0
40
9.4738140784266296
210
0
220
0
230
1
100
AcDbArc
50
105.67808849297819
51
134.97395547768562
0
ARC
5
184
100
AcDbEntity
8
0
100
AcDbCircle
10
-65.441601331300006
20
22.350279788279991
30
0
40
4.0261859215689917
210
0
220
0
230
1
100
AcDbArc
50
240.00006923674019
51
314.97395547776449
0
LINE
5
185
100
AcDbEntity
8
0
100
AcDbLine
10
-67.45469007862728
20
18.863498067204716
30
0
11
-69.608842826341416
21
20.107195265167551
31
0
0
LINE
5
186
100
AcDbEntity
8
0
100
AcDbLine
10
-69.608842826341416
20
20.107195265167551
30
0
11
-69.608842826339995
21
16.27381407843
31
0
0
LINE
5
187
100
AcDbEntity
8
0
100
AcDbLine
10
-69.608842826339995
20
9.3261859215689995
30
0
11
-69.608842826339995
21
5.4041962605379998
31
0
0
LINE
5
188
100
AcDbEntity
8
0
100
AcDbLine
10
-69.608842826339995
20
5.4041962605379998
30
0
11
-67.249897385719038
21
6.6819516971342017
31
0
0
ARC
5
189
100
AcDbEntity
8
0
100
AcDbCircle
10
-65.332300625889999
20
3.1417545639600024
30
0
40
4.026185921568997
210
0
220
-0
230
1
100
AcDbArc
50
45.678088493024156
51
118.44280323595611
0
ARC
5
190
100
AcDbEntity
8
0
100
AcDbCircle
10
-55.899999999999999
20
12.800000000000002
30
0
40
9.4738140784292408
210
0
220
0
230
1
100
AcDbArc
50
225.67808849296912
51
237.88278647247284
0
LINE
5
191
100
AcDbEntity
8
0
100
AcDbLine
10
-66.904076539779993
20
0.68815205877620012
30
0
11
-70.300595894030636
21
2.6491443673168833
31
0
0
LINE
5
192
100
AcDbEntity
8
0
100
AcDbLine
10
-70.300595894030636
20
2.6491443673168833
30
0
11
-70.373498721907907
21
-0.032594984715266229
31
0
0
ARC
5
193
100
AcDbEntity
8
0
100
AcDbCircle
10
-74.398197753559984
20
0.076816073649664113
30
0
40
4.0261859215689935
210
0
220
0
230
1
100
AcDbArc
50
285.67808849300042
51
358.44280323589345
0
ARC
5
194
100
AcDbEntity
8
0
100
AcDbCircle
10
-70.750062162909998
20
-12.920918602520002
30
0
40
9.4738140784262086
210
0
220
0
230
1
100
AcDbArc
50
105.67808849297955
51
117.88278647253004
0
ARC
5
195
100
AcDbEntity
8
0
100
AcDbCircle
10
-55.899999999999999
20
12.800000000000002
30
0
40
9.4738140784310083
210
0
220
-0
230
1
100
AcDbArc
50
2.1172135275040707
51
14.973955477710373
0
ARC
5
196
100
AcDbEntity
8
0
100
AcDbCircle
10
-42.85841442444999
20
16.28812925155
30
0
40
4.026185921569005
210
0
220
0
230
1
100
AcDbArc
50
120.00006923679555
51
194.97395547771538
0
LINE
5
197
100
AcDbEntity
8
0
100
AcDbLine
10
-44.871511598692145
20
19.774906107343718
30
0
11
-42.717437012526567
21
21.018565120194054
31
0
0
LINE
5
198
100
AcDbEntity
8
0
100
AcDbLine
10
-42.717437012526567
20
21.018565120194054
30
0
11
-46.037200292569167
21
22.935242041291438
31
0
0
ARC
5
199
100
AcDbEntity
8
0
100
AcDbCircle
10
-26.200000000000003
20
12.800000000000002
30
0
40
9.4738140784310012
210
0
220
0
230
1
100
AcDbArc
50
122.1172135275271
51
134.97395547768582
0
ARC
5
200
100
AcDbEntity
8
0
100
AcDbCircle
10
-35.741601331299997
20
22.350279788280002
30
0
40
4.026185921568997
210
0
220
0
230
1
100
AcDbArc
50
240.00006923674016
51
314.97395547776421
0
LINE
5
201
100
AcDbEntity
8
0
100
AcDbLine
10
-37.754690078627277
20
18.86349806720472
30
0
11
-39.90884282634142
21
20.107195265167551
31
0
0
LINE
5
202
100
AcDbEntity
8
0
100
AcDbLine
10
-39.90884282634142
20
20.107195265167551
30
0
11
-39.908842826339999
21
16.27381407843
31
0
0
LINE
5
203
100
AcDbEntity
8
0
100
AcDbLine
10
7.3459856231289997
20
26.409070661299999
30
0
11
3.949466268876884
21
28.370062969841531
31
0
0
LINE
5
204
100
AcDbEntity
8
0
100
AcDbLine
10
3.949466268876884
20
28.370062969841531
30
0
11
3.8765634409981553
21
25.688323617809999
31
0
0
ARC
5
205
100
AcDbEntity
8
0
100
AcDbCircle
10
-0.14813559065010362
20
25.797734676170002
30
0
40
4.0261859215690059
210
0
220
0
230
1
100
AcDbArc
50
285.67808849298387
51
358.44280323596223
0
ARC
5
206
100
AcDbEntity
8
0
100
AcDbCircle
10
3.5000000000000004
20
12.800000000000002
30
0
40
9.4738140784265497
210
0
220
0
230
1
100
AcDbArc
50
105.6780884929867
51
117.88278647249723
0
LINE
5
207
100
AcDbEntity
8
0
100
AcDbLine
10
-25.058904989249999
20
-16.394732680960004
30
0
11
-25.058904989249999
21
-20.316722341990001
31
0
0
LINE
5
208
100
AcDbEntity
8
0
100
AcDbLine
10
-25.058904989249999
20
-20.316722341990001
30
0
11
-22.699959548628193
21
-19.038966905393345
31
0
0
ARC
5
209
100
AcDbEntity
8
0
100
AcDbCircle
10
-20.7823627888
20
-22.579164038569996
30
0
40
4.026185921568997
210
0
220
-0
230
1
100
AcDbArc
50
45.678088493113513
51
118.44280323592895
0
ARC
5
210
100
AcDbEntity
8
0
100
AcDbCircle
10
-11.350062162909991
20
-12.920918602519997
30
0
40
9.4738140784363996
210
0
220
0
230
1
100
AcDbArc
50
225.67808849297333
51
254.97395547768858
0
ARC
5
211
100
AcDbEntity
8
0
100
AcDbCircle
10
-14.850046407160001
20
-25.959327642360002
30
0
40
4.0261859215689979
210
0
220
-0
230
1
100
AcDbArc
50
6.9234673329816973e-05
51
74.973955477791151
0
LINE
5
212
100
AcDbEntity
8
0
100
AcDbLine
10
-10.823860485593942
20
-25.95932277707
30
0
11
-10.82385747983899
21
-28.446681595090002
31
0
0
LINE
5
213
100
AcDbEntity
8
0
100
AcDbLine
10
-10.82385747983899
20
-28.446681595090002
30
0
11
-7.5040603851892618
21
-26.530017244396475
31
0
0
LINE
5
214
100
AcDbEntity
8
0
100
AcDbLine
10
-31.187221114130001
20
-23.056232249130005
30
0
11
-27.790652185870822
21
-21.095244154418577
31
0
0
LINE
5
215
100
AcDbEntity
8
0
100
AcDbLine
10
-27.790652185870822
20
-21.095244154418577
30
0
11
-30.076728218190361
21
-19.691193917470592
31
0
0
ARC
5
216
100
AcDbEntity
8
0
100
AcDbCircle
10
-27.969625946369998
20
-16.260407842660001
30
0
40
4.0261859215690041
210
0
220
0
230
1
100
AcDbArc
50
165.67808849295841
51
238.44280323591809
0
ARC
5
217
100
AcDbEntity
8
0
100
AcDbCircle
10
-41.05006216291001
20
-12.920918602520002
30
0
40
9.4738140784303404
210
-0
220
0
230
1
100
AcDbArc
50
345.67808849295255
51
357.88278647249592
0
ARC
5
218
100
AcDbEntity
8
0
100
AcDbCircle
10
33.200000000000003
20
12.800000000000002
30
0
40
9.4738140784310083
210
0
220
-0
230
1
100
AcDbArc
50
2.1172135275040707
51
14.973955477710373
0
ARC
5
219
100
AcDbEntity
8
0
100
AcDbCircle
10
46.241585575550005
20
16.28812925155
30
0
40
4.026185921569005
210
0
220
0
230
1
100
AcDbArc
50
120.00006923679548
51
194.97395547771541
0
LINE
5
220
100
AcDbEntity
8
0
100
AcDbLine
10
44.228488401307857
20
19.774906107343718
30
0
11
46.382562987473435
21
21.018565120194058
31
0
0
LINE
5
221
100
AcDbEntity
8
0
100
AcDbLine
10
46.382562987473435
20
21.018565120194058
30
0
11
43.062799707430841
21
22.935242041291438
31
0
0
ARC
5
222
100
AcDbEntity
8
0
100
AcDbCircle
10
-70.750062162909998
20
-12.920918602520002
30
0
40
9.4738140784310083
210
0
220
-0
230
1
100
AcDbArc
50
2.1172135275040707
51
14.973955477710422
0
ARC
5
223
100
AcDbEntity
8
0
100
AcDbCircle
10
-57.708476587359996
20
-9.4327893509740051
30
0
40
4.0261859215690086
210
0
220
0
230
1
100
AcDbArc
50
120.00006923677408
51
194.9739554776603
0
LINE
5
224
100
AcDbEntity
8
0
100
AcDbLine
10
-59.721573761600844
20
-5.9460124951795308
30
0
11
-57.56749917544046
21
-4.7023534823291948
31
0
0
LINE
5
225
100
AcDbEntity
8
0
100
AcDbLine
10
-57.56749917544046
20
-4.7023534823291948
30
0
11
-60.887262455479174
21
-2.7856765612385637
31
0
0
ARC
5
226
100
AcDbEntity
8
0
100
AcDbCircle
10
-55.899999999999999
20
12.800000000000002
30
0
40
9.4738140784310048
210
0
220
0
230
1
100
AcDbArc
50
242.11721352748407
51
254.97395547768704
0
ARC
5
227
100
AcDbEntity
8
0
100
AcDbCircle
10
-59.39998424425
20
-0.23840903983319783
30
0
40
4.0261859215689979
210
0
220
-0
230
1
100
AcDbArc
50
6.9234673329816973e-05
51
74.973955477769778
0
LINE
5
228
100
AcDbEntity
8
0
100
AcDbLine
10
-55.373798322683939
20
-0.23840417454710008
30
0
11
-55.373795316929005
21
-2.7257629925610001
31
0
0
LINE
5
229
100
AcDbEntity
8
0
100
AcDbLine
10
-55.373795316929005
20
-2.7257629925610001
30
0
11
-52.053998222280043
21
-0.80909864186792446
31
0
0
ARC
5
230
100
AcDbEntity
8
0
100
AcDbCircle
10
-41.05006216291001
20
-12.920918602520002
30
0
40
9.4738140784309994
210
0
220
0
230
1
100
AcDbArc
50
122.11721352754316
51
134.97395547771572
0
ARC
5
231
100
AcDbEntity
8
0
100
AcDbCircle
10
-50.59166349421001
20
-3.3706388142429922
30
0
40
4.0261859215690068
210
0
220
0
230
1
100
AcDbArc
50
240.00006923673337
51
314.97395547772396
0
LINE
5
232
100
AcDbEntity
8
0
100
AcDbLine
10
-52.60475224153771
20
-6.85742053531804
30
0
11
-54.75890498925142
21
-5.6137233373544486
31
0
0
LINE
5
233
100
AcDbEntity
8
0
100
AcDbLine
10
-54.75890498925142
20
-5.6137233373544486
30
0
11
-54.758904989250006
21
-9.4471045240939997
31
0
0
LINE
5
234
100
AcDbEntity
8
0
100
AcDbLine
10
-16.337158951220001
20
2.6646863533920002
30
0
11
-12.940590022960393
21
4.6256744481036769
31
0
0
LINE
5
235
100
AcDbEntity
8
0
100
AcDbLine
10
-12.940590022960393
20
4.6256744481036769
30
0
11
-15.226666055280809
21
6.0297246850526864
31
0
0
ARC
5
236
100
AcDbEntity
8
0
100
AcDbCircle
10
-13.119563783459999
20
9.4605107598660041
30
0
40
4.0261859215690059
210
0
220
0
230
1
100
AcDbArc
50
165.67808849290327
51
238.44280323593293
0
ARC
5
237
100
AcDbEntity
8
0
100
AcDbCircle
10
-26.200000000000003
20
12.800000000000002
30
0
40
9.47381407842885
210
-0
220
0
230
1
100
AcDbArc
50
345.67808849301116
51
357.88278647249592
0
LINE
5
238
100
AcDbEntity
8
0
100
AcDbLine
10
-10.208842826340002
20
9.3261859215689995
30
0
11
-10.208842826340002
21
5.4041962605379998
31
0
0
LINE
5
239
100
AcDbEntity
8
0
100
AcDbLine
10
-10.208842826340002
20
5.4041962605379998
30
0
11
-7.8498973857167087
21
6.681951697135462
31
0
0
ARC
5
240
100
AcDbEntity
8
0
100
AcDbCircle
10
-5.9323006258919992
20
3.1417545639600069
30
0
40
4.0261859215689944
210
0
220
-0
230
1
100
AcDbArc
50
45.678088492973096
51
118.44280323589345
0
ARC
5
241
100
AcDbEntity
8
0
100
AcDbCircle
10
3.5000000000000004
20
12.800000000000002
30
0
40
9.4738140784306353
210
0
220
0
230
1
100
AcDbArc
50
225.67808849298214
51
237.88278647249342
0
LINE
5
242
100
AcDbEntity
8
0
100
AcDbLine
10
-7.5040765397799998
20
0.68815205877620012
30
0
11
-10.900595894030644
21
2.6491443673168815
31
0
0
LINE
5
243
100
AcDbEntity
8
0
100
AcDbLine
10
-10.900595894030644
20
2.6491443673168815
30
0
11
-10.973498721907935
21
-0.032594984715265674
31
0
0
ARC
5
244
100
AcDbEntity
8
0
100
AcDbCircle
10
-14.99819775356
20
0.076816073649668276
30
0
40
4.0261859215689988
210
0
220
0
230
1
100
AcDbArc
50
285.67808849300042
51
358.44280323589345
0
ARC
5
245
100
AcDbEntity
8
0
100
AcDbCircle
10
-11.35006216291
20
-12.920918602520002
30
0
40
9.4738140784262121
210
0
220
0
230
1
100
AcDbArc
50
105.67808849297961
51
117.88278647253007
0
LINE
5
246
100
AcDbEntity
8
0
100
AcDbLine
10
-37.204076539779997
20
0.68815205877620012
30
0
11
-40.600595894030647
21
2.6491443673168815
31
0
0
LINE
5
247
100
AcDbEntity
8
0
100
AcDbLine
10
-40.600595894030647
20
2.6491443673168815
30
0
11
-40.673498721907933
21
-0.032594984715265674
31
0
0
ARC
5
248
100
AcDbEntity
8
0
100
AcDbCircle
10
-44.698197753559995
20
0.076816073649659949
30
0
40
4.026185921568989
210
0
220
0
230
1
100
AcDbArc
50
285.67808849300047
51
358.44280323589368
0
ARC
5
249
100
AcDbEntity
8
0
100
AcDbCircle
10
-41.05006216291001
20
-12.920918602520002
30
0
40
9.4738140784262086
210
0
220
0
230
1
100
AcDbArc
50
105.67808849297951
51
117.88278647252997
0
LINE
5
250
100
AcDbEntity
8
0
100
AcDbLine
10
-46.03715895122
20
2.6646863533920002
30
0
11
-42.640590022960396
21
4.6256744481036751
31
0
0
LINE
5
251
100
AcDbEntity
8
0
100
AcDbLine
10
-42.640590022960396
20
4.6256744481036751
30
0
11
-44.926666055280805
21
6.0297246850526847
31
0
0
ARC
5
252
100
AcDbEntity
8
0
100
AcDbCircle
10
-42.819563783460019
20
9.4605107598659934
30
0
40
4.0261859215689837
210
0
220
0
230
1
100
AcDbArc
50
165.6780884929031
51
238.44280323593318
0
ARC
5
253
100
AcDbEntity
8
0
100
AcDbCircle
10
-55.899999999999999
20
12.800000000000002
30
0
40
9.4738140784288518
210
-0
220
0
230
1
100
AcDbArc
50
345.67808849301116
51
357.88278647249592
0
LINE
5
254
100
AcDbEntity
8
0
100
AcDbLine
10
-39.908842826339999
20
9.3261859215689995
30
0
11
-39.908842826339999
21
5.4041962605379998
31
0
0
LINE
5
255
100
AcDbEntity
8
0
100
AcDbLine
10
-39.908842826339999
20
5.4041962605379998
30
0
11
-37.549897385719028
21
6.6819516971342052
31
0
0
ARC
5
256
100
AcDbEntity
8
0
100
AcDbCircle
10
-35.632300625889997
20
3.1417545639600104
30
0
40
4.0261859215689926
210
0
220
-0
230
1
100
AcDbArc
50
45.678088493023985
51
118.44280323595608
0
ARC
5
257
100
AcDbEntity
8
0
100
AcDbCircle
10
-26.200000000000003
20
12.800000000000002
30
0
40
9.4738140784292355
210
0
220
0
230
1
100
AcDbArc
50
225.67808849296918
51
237.8827864724729
0
LINE
5
258
100
AcDbEntity
8
0
100
AcDbLine
10
-54.758904989250006
20
-16.394732680960004
30
0
11
-54.758904989250006
21
-20.316722341990001
31
0
0
LINE
5
259
100
AcDbEntity
8
0
100
AcDbLine
10
-54.758904989250006
20
-20.316722341990001
30
0
11
-52.39995954862826
21
-19.038966905393231
31
0
0
ARC
5
260
100
AcDbEntity
8
0
100
AcDbCircle
10
-50.48236278880001
20
-22.579164038569989
30
0
40
4.0261859215689908
210
0
220
-0
230
1
100
AcDbArc
50
45.678088493113272
51
118.44280323592892
0
ARC
5
261
100
AcDbEntity
8
0
100
AcDbCircle
10
-41.05006216291001
20
-12.920918602520002
30
0
40
9.4738140784363942
210
0
220
0
230
1
100
AcDbArc
50
225.67808849297344
51
237.88278647250502
0
LINE
5
262
100
AcDbEntity
8
0
100
AcDbLine
10
-60.88722111413
20
-23.056232249130005
30
0
11
-57.490652185870829
21
-21.095244154418573
31
0
0
LINE
5
263
100
AcDbEntity
8
0
100
AcDbLine
10
-57.490652185870829
20
-21.095244154418573
30
0
11
-59.776728218190371
21
-19.691193917470589
31
0
0
ARC
5
264
100
AcDbEntity
8
0
100
AcDbCircle
10
-57.669625946370012
20
-16.260407842660008
30
0
40
4.0261859215689926
210
0
220
0
230
1
100
AcDbArc
50
165.67808849295827
51
238.44280323591801
0
ARC
5
265
100
AcDbEntity
8
0
100
AcDbCircle
10
-70.750062162909998
20
-12.920918602520002
30
0
40
9.4738140784303368
210
-0
220
0
230
1
100
AcDbArc
50
345.67808849295255
51
357.88278647249609
0
ARC
5
266
100
AcDbEntity
8
0
100
AcDbCircle
10
18.34993783709
20
-12.920918602520002
30
0
40
9.4738140784310048
210
0
220
0
230
1
100
AcDbArc
50
242.1172135275124
51
254.97395547768863
0
ARC
5
267
100
AcDbEntity
8
0
100
AcDbCircle
10
14.849953592839997
20
-25.959327642360009
30
0
40
4.0261859215690059
210
0
220
-0
230
1
100
AcDbArc
50
6.9234673329816973e-05
51
74.97395547779108
0
LINE
5
268
100
AcDbEntity
8
0
100
AcDbLine
10
18.876139514406063
20
-25.95932277707
30
0
11
18.876142520161007
21
-28.446681595090002
31
0
0
LINE
5
269
100
AcDbEntity
8
0
100
AcDbLine
10
18.876142520161007
20
-28.446681595090002
30
0
11
22.195939614812993
21
-26.530017244395175
31
0
0
ARC
5
270
100
AcDbEntity
8
0
100
AcDbCircle
10
3.5000000000000004
20
12.800000000000002
30
0
40
9.4738140784310012
210
0
220
-0
230
1
100
AcDbArc
50
2.1172135275040707
51
14.973955477710373
0
ARC
5
271
100
AcDbEntity
8
0
100
AcDbCircle
10
16.541585575550009
20
16.288129251549996
30
0
40
4.0261859215690095
210
0
220
0
230
1
100
AcDbArc
50
120.00006923679554
51
194.97395547771538
0
LINE
5
272
100
AcDbEntity
8
0
100
AcDbLine
10
14.528488401307856
20
19.774906107343718
30
0
11
16.682562987473432
21
21.018565120194058
31
0
0
LINE
5
273
100
AcDbEntity
8
0
100
AcDbLine
10
16.682562987473432
20
21.018565120194058
30
0
11
13.362799707430831
21
22.935242041291438
31
0
0
LINE
5
274
100
AcDbEntity
8
0
100
AcDbLine
10
37.045985623130008
20
26.409070661299999
30
0
11
33.649466268880133
21
28.370062969840234
31
0
0
LINE
5
275
100
AcDbEntity
8
0
100
AcDbLine
10
33.649466268880133
20
28.370062969840234
30
0
11
33.576563441002151
21
25.688323617809946
31
0
0
ARC
5
276
100
AcDbEntity
8
0
100
AcDbCircle
10
29.551864409350017
20
25.797734676169988
30
0
40
4.0261859215689801
210
0
220
0
230
1
100
AcDbArc
50
285.67808849300286
51
358.44280323596325
0
ARC
5
277
100
AcDbEntity
8
0
100
AcDbCircle
10
33.200000000000045
20
12.799999999999921
30
0
40
9.4738140784266207
210
0
220
0
230
1
100
AcDbArc
50
105.67808849297808
51
134.97395547768568
0
ARC
5
278
100
AcDbEntity
8
0
100
AcDbCircle
10
23.658398668699995
20
22.350279788280009
30
0
40
4.0261859215690068
210
0
220
0
230
1
100
AcDbArc
50
240.0000692367403
51
314.97395547776421
0
LINE
5
279
100
AcDbEntity
8
0
100
AcDbLine
10
21.645309921372721
20
18.863498067204716
30
0
11
19.491157173658586
21
20.107195265167551
31
0
0
LINE
5
280
100
AcDbEntity
8
0
100
AcDbLine
10
19.491157173658586
20
20.107195265167551
30
0
11
19.49115717366
21
16.27381407843
31
0
0
LINE
5
281
100
AcDbEntity
8
0
100
AcDbLine
10
4.6410950107489999
20
-16.394732680960004
30
0
11
4.6410950107489999
21
-20.316722341990001
31
0
0
LINE
5
282
100
AcDbEntity
8
0
100
AcDbLine
10
4.6410950107489999
20
-20.316722341990001
30
0
11
7.0000404513739012
21
-19.038966905391668
31
0
0
ARC
5
283
100
AcDbEntity
8
0
100
AcDbCircle
10
8.9176372111979987
20
-22.57916403857001
30
0
40
4.0261859215690068
210
0
220
-0
230
1
100
AcDbArc
50
45.678088493093242
51
118.44280323586622
0
ARC
5
284
100
AcDbEntity
8
0
100
AcDbCircle
10
18.34993783709
20
-12.920918602520002
30
0
40
9.4738140784377869
210
0
220
0
230
1
100
AcDbArc
50
225.67808849297339
51
237.88278647250507
0
LINE
5
285
100
AcDbEntity
8
0
100
AcDbLine
10
-1.4872211141260003
20
-23.056232249130005
30
0
11
1.9093478141316764
21
-21.095244154419444
31
0
0
LINE
5
286
100
AcDbEntity
8
0
100
AcDbLine
10
1.9093478141316764
20
-21.095244154419444
30
0
11
-0.37672821819032282
21
-19.691193917469388
31
0
0
ARC
5
287
100
AcDbEntity
8
0
100
AcDbCircle
10
1.7303740536320031
20
-16.260407842660001
30
0
40
4.026185921569005
210
0
220
0
230
1
100
AcDbArc
50
165.67808849296898
51
238.44280323588529
0
ARC
5
288
100
AcDbEntity
8
0
100
AcDbCircle
10
-11.35006216291
20
-12.920918602520002
30
0
40
9.4738140784322731
210
-0
220
0
230
1
100
AcDbArc
50
345.67808849295113
51
357.88278647249643
0
ARC
5
289
100
AcDbEntity
8
0
100
AcDbCircle
10
3.5000000000000004
20
12.800000000000002
30
0
40
9.4738140784309977
210
0
220
0
230
1
100
AcDbArc
50
122.11721352750664
51
134.97395547770725
0
ARC
5
290
100
AcDbEntity
8
0
100
AcDbCircle
10
-6.0416013313029993
20
22.350279788279998
30
0
40
4.026185921568997
210
0
220
0
230
1
100
AcDbArc
50
240.00006923683873
51
314.97395547774408
0
LINE
5
291
100
AcDbEntity
8
0
100
AcDbLine
10
-8.0546900786242777
20
18.863498067201256
30
0
11
-10.208842826340167
21
20.107195265169715
31
0
0
LINE
5
292
100
AcDbEntity
8
0
100
AcDbLine
10
-10.208842826340167
20
20.107195265169715
30
0
11
-10.208842826340002
21
16.27381407843
31
0
0
ARC
5
293
100
AcDbEntity
8
0
100
AcDbCircle
10
-26.200000000000003
20
12.800000000000002
30
0
40
9.4738140784310012
210
0
220
-0
230
1
100
AcDbArc
50
2.1172135275040707
51
14.973955477710373
0
ARC
5
294
100
AcDbEntity
8
0
100
AcDbCircle
10
-13.158414424449997
20
16.28812925155
30
0
40
4.0261859215690015
210
0
220
0
230
1
100
AcDbArc
50
120.00006923679548
51
194.97395547771544
0
LINE
5
295
100
AcDbEntity
8
0
100
AcDbLine
10
-15.171511598692145
20
19.774906107343718
30
0
11
-13.017437012526567
21
21.018565120194058
31
0
0
LINE
5
296
100
AcDbEntity
8
0
100
AcDbLine
10
-13.017437012526567
20
21.018565120194058
30
0
11
-16.337200292569168
21
22.935242041291438
31
0
0
ARC
5
297
100
AcDbEntity
8
0
100
AcDbCircle
10
-41.05006216291001
20
-12.920918602520002
30
0
40
9.4738140784310083
210
0
220
0
230
1
100
AcDbArc
50
242.1172135275124
51
254.97395547768869
0
ARC
5
298
100
AcDbEntity
8
0
100
AcDbCircle
10
-44.550046407160011
20
-25.959327642360002
30
0
40
4.0261859215689979
210
0
220
-0
230
1
100
AcDbArc
50
6.9234673329816973e-05
51
74.973955477790994
0
LINE
5
299
100
AcDbEntity
8
0
100
AcDbLine
10
-40.52386048559395
20
-25.95932277707
30
0
11
-40.523857479838988
21
-28.446681595090002
31
0
0
LINE
5
300
100
AcDbEntity
8
0
100
AcDbLine
10
-40.523857479838988
20
-28.446681595090002
30
0
11
-37.204060385187013
21
-26.530017244395175
31
0
0
LINE
5
301
100
AcDbEntity
8
0
100
AcDbLine
10
43.062841048780001
20
2.6646863533920002
30
0
11
46.459409977039613
21
4.6256744481036796
31
0
0
LINE
5
302
100
AcDbEntity
8
0
100
AcDbLine
10
46.459409977039613
20
4.6256744481036796
30
0
11
44.17333394471919
21
6.0297246850526882
31
0
0
ARC
5
303
100
AcDbEntity
8
0
100
AcDbCircle
10
46.280436216539982
20
9.4605107598659934
30
0
40
4.0261859215689837
210
0
220
0
230
1
100
AcDbArc
50
165.67808849290302
51
238.44280323593307
0
ARC
5
304
100
AcDbEntity
8
0
100
AcDbCircle
10
33.200000000000003
20
12.800000000000002
30
0
40
9.4738140784288518
210
-0
220
0
230
1
100
AcDbArc
50
345.67808849301116
51
357.88278647249592
0
ARC
5
305
100
AcDbEntity
8
0
100
AcDbCircle
10
-11.35006216291
20
-12.920918602520002
30
0
40
9.4738140784309977
210
0
220
0
230
1
100
AcDbArc
50
122.11721352754314
51
134.97395547771578
0
ARC
5
306
100
AcDbEntity
8
0
100
AcDbCircle
10
-20.89166349421
20
-3.3706388142430028
30
0
40
4.0261859215689979
210
0
220
0
230
1
100
AcDbArc
50
240.00006923673314
51
314.97395547772396
0
LINE
5
307
100
AcDbEntity
8
0
100
AcDbLine
10
-22.904752241537707
20
-6.8574205353180346
30
0
11
-25.058904989251417
21
-5.6137233373544513
31
0
0
LINE
5
308
100
AcDbEntity
8
0
100
AcDbLine
10
-25.058904989251417
20
-5.6137233373544513
30
0
11
-25.058904989249999
21
-9.4471045240939997
31
0
0
ARC
5
309
100
AcDbEntity
8
0
100
AcDbCircle
10
-41.05006216291001
20
-12.920918602520002
30
0
40
9.4738140784309994
210
0
220
-0
230
1
100
AcDbArc
50
2.1172135275040707
51
14.973955477710373
0
ARC
5
310
100
AcDbEntity
8
0
100
AcDbCircle
10
-28.008476587360008
20
-9.432789350973998
30
0
40
4.0261859215689935
210
0
220
0
230
1
100
AcDbArc
50
120.00006923677408
51
194.97395547766058
0
LINE
5
311
100
AcDbEntity
8
0
100
AcDbLine
10
-30.021573761600848
20
-5.9460124951795361
30
0
11
-27.867499175440468
21
-4.7023534823291966
31
0
0
LINE
5
312
100
AcDbEntity
8
0
100
AcDbLine
10
-27.867499175440468
20
-4.7023534823291966
30
0
11
-31.187262455479178
21
-2.7856765612385637
31
0
0
ARC
5
313
100
AcDbEntity
8
0
100
AcDbCircle
10
-26.200000000000003
20
12.800000000000002
30
0
40
9.4738140784310012
210
0
220
0
230
1
100
AcDbArc
50
242.1172135274841
51
254.97395547768713
0
ARC
5
314
100
AcDbEntity
8
0
100
AcDbCircle
10
-29.699984244250007
20
-0.23840903983320783
30
0
40
4.0261859215690068
210
0
220
-0
230
1
100
AcDbArc
50
6.9234673329816973e-05
51
74.973955477769621
0
LINE
5
315
100
AcDbEntity
8
0
100
AcDbLine
10
-25.67379832268394
20
-0.23840417454710008
30
0
11
-25.673795316928995
21
-2.7257629925610001
31
0
0
LINE
5
316
100
AcDbEntity
8
0
100
AcDbLine
10
-25.673795316928995
20
-2.7257629925610001
30
0
11
-22.353998222280044
21
-0.80909864186792446
31
0
0
LINE
5
317
100
AcDbEntity
8
0
100
AcDbLine
10
-22.354014376870005
20
26.409070661299999
30
0
11
-25.750533731119873
21
28.370062969840234
31
0
0
LINE
5
318
100
AcDbEntity
8
0
100
AcDbLine
10
-25.750533731119873
20
28.370062969840234
30
0
11
-25.823436558997848
21
25.688323617809946
31
0
0
ARC
5
319
100
AcDbEntity
8
0
100
AcDbCircle
10
-29.84813559065001
20
25.797734676170005
30
0
40
4.0261859215690077
210
0
220
0
230
1
100
AcDbArc
50
285.6780884930032
51
358.44280323596297
0
ARC
5
320
100
AcDbEntity
8
0
100
AcDbCircle
10
-26.200000000000003
20
12.800000000000002
30
0
40
9.4738140784265266
210
0
220
0
230
1
100
AcDbArc
50
105.67808849297795
51
117.88278647251592
0
ARC
5
321
100
AcDbEntity
8
0
100
AcDbCircle
10
3.5000000000000004
20
12.800000000000002
30
0
40
9.4738140784310012
210
0
220
0
230
1
100
AcDbArc
50
242.11721352750226
51
254.97395547771632
0
ARC
5
322
100
AcDbEntity
8
0
100
AcDbCircle
10
1.5755750417956182e-05
20
-0.23840903983320005
30
0
40
4.0261859215690006
210
0
220
-0
230
1
100
AcDbArc
50
6.9234673329816973e-05
51
74.973955477706724
0
LINE
5
323
100
AcDbEntity
8
0
100
AcDbLine
10
4.0262016773164788
20
-0.23840417454710008
30
0
11
4.0262046830680074
21
-2.7257629925610001
31
0
0
LINE
5
324
100
AcDbEntity
8
0
100
AcDbLine
10
4.0262046830680074
20
-2.7257629925610001
30
0
11
7.3460017777172055
21
-0.80909864186835767
31
0
0
ARC
5
325
100
AcDbEntity
8
0
100
AcDbCircle
10
18.34993783709
20
-12.920918602520002
30
0
40
9.4738140784309994
210
0
220
0
230
1
100
AcDbArc
50
122.11721352754316
51
134.97395547771572
0
ARC
5
326
100
AcDbEntity
8
0
100
AcDbCircle
10
8.8083365057870004
20
-3.3706388142429971
30
0
40
4.0261859215690023
210
0
220
0
230
1
100
AcDbArc
50
240.00006923683171
51
314.9739554777542
0
LINE
5
327
100
AcDbEntity
8
0
100
AcDbLine
10
6.7952477584652904
20
-6.8574205353214968
30
0
11
4.6410950107490851
21
-5.6137233373518525
31
0
0
LINE
5
328
100
AcDbEntity
8
0
100
AcDbLine
10
4.6410950107490851
20
-5.6137233373518525
30
0
11
4.6410950107489999
21
-9.4471045240939997
31
0
0
ARC
5
329
100
AcDbEntity
8
0
100
AcDbCircle
10
-11.35006216291
20
-12.920918602520002
30
0
40
9.4738140784310012
210
0
220
-0
230
1
100
AcDbArc
50
2.1172135275035542
51
14.973955477710373
0
ARC
5
330
100
AcDbEntity
8
0
100
AcDbCircle
10
1.6915234126430054
20
-9.4327893509740015
30
0
40
4.026185921569005
210
0
220
0
230
1
100
AcDbArc
50
120.00006923682717
51
194.97395547764944
0
LINE
5
331
100
AcDbEntity
8
0
100
AcDbLine
10
-0.32157376160107082
20
-5.946012495181396
30
0
11
1.8325008245577099
21
-4.7023534823294986
31
0
0
LINE
5
332
100
AcDbEntity
8
0
100
AcDbLine
10
1.8325008245577099
20
-4.7023534823294986
30
0
11
-1.4872624554781715
21
-2.7856765612402956
31
0
0
ARC
5
333
100
AcDbEntity
8
0
100
AcDbCircle
10
-70.750062162909998
20
-12.920918602520002
30
0
40
9.473814078431003
210
0
220
0
230
1
100
AcDbArc
50
242.11721352751246
51
254.97395547768863
0
ARC
5
334
100
AcDbEntity
8
0
100
AcDbCircle
10
-74.250046407160028
20
-25.959327642360005
30
0
40
4.0261859215690157
210
0
220
-0
230
1
100
AcDbArc
50
6.9234673329816973e-05
51
74.973955477790824
0
LINE
5
335
100
AcDbEntity
8
0
100
AcDbLine
10
-70.223860485593946
20
-25.95932277707
30
0
11
-70.223857479839012
21
-28.446681595090002
31
0
0
LINE
5
336
100
AcDbEntity
8
0
100
AcDbLine
10
-70.223857479839012
20
-28.446681595090002
30
0
11
-66.904060385187009
21
-26.530017244395168
31
0
0
LINE
5
337
100
AcDbEntity
8
0
100
AcDbLine
10
-84.458904989250016
20
-16.394732680960004
30
0
11
-84.458904989250016
21
-20.316722341990001
31
0
0
LINE
5
338
100
AcDbEntity
8
0
100
AcDbLine
10
-84.458904989250016
20
-20.316722341990001
30
0
11
-82.099959548628263
21
-19.038966905393227
31
0
0
ARC
5
339
100
AcDbEntity
8
0
100
AcDbCircle
10
-80.18236278880002
20
-22.57916403857001
30
0
40
4.0261859215690086
210
0
220
-0
230
1
100
AcDbArc
50
45.678088493113222
51
118.44280323592866
0
ARC
5
340
100
AcDbEntity
8
0
100
AcDbCircle
10
-70.750062162909998
20
-12.920918602520002
30
0
40
9.473814078436396
210
0
220
0
230
1
100
AcDbArc
50
225.67808849297344
51
237.88278647250507
0
ARC
5
341
100
AcDbEntity
8
0
100
AcDbCircle
10
-70.750062162909998
20
-12.920918602520002
30
0
40
9.4738140784309994
210
0
220
0
230
1
100
AcDbArc
50
122.11721352754316
51
134.97395547771578
0
ARC
5
342
100
AcDbEntity
8
0
100
AcDbCircle
10
-80.291663494210013
20
-3.3706388142429944
30
0
40
4.0261859215690059
210
0
220
0
230
1
100
AcDbArc
50
240.00006923673328
51
314.97395547772396
0
LINE
5
343
100
AcDbEntity
8
0
100
AcDbLine
10
-82.304752241537713
20
-6.8574205353180346
30
0
11
-84.458904989251437
21
-5.6137233373544486
31
0
0
LINE
5
344
100
AcDbEntity
8
0
100
AcDbLine
10
-84.458904989251437
20
-5.6137233373544486
30
0
11
-84.458904989250016
21
-9.4471045240939997
31
0
0
LINE
5
345
100
AcDbEntity
8
0
100
AcDbLine
10
13.362841048780002
20
2.6646863533920002
30
0
11
16.75940997703961
21
4.6256744481036769
31
0
0
LINE
5
346
100
AcDbEntity
8
0
100
AcDbLine
10
16.75940997703961
20
4.6256744481036769
30
0
11
14.473333944719194
21
6.0297246850526856
31
0
0
ARC
5
347
100
AcDbEntity
8
0
100
AcDbCircle
10
16.580436216539994
20
9.4605107598659988
30
0
40
4.0261859215689952
210
0
220
0
230
1
100
AcDbArc
50
165.67808849290316
51
238.44280323593304
0
ARC
5
348
100
AcDbEntity
8
0
100
AcDbCircle
10
3.5000000000000004
20
12.800000000000002
30
0
40
9.4738140784288518
210
-0
220
0
230
1
100
AcDbArc
50
345.67808849301116
51
357.88278647249592
0
LINE
5
349
100
AcDbEntity
8
0
100
AcDbLine
10
19.49115717366
20
9.3261859215689995
30
0
11
19.49115717366
21
5.4041962605379998
31
0
0
LINE
5
350
100
AcDbEntity
8
0
100
AcDbLine
10
19.49115717366
20
5.4041962605379998
30
0
11
21.850102614280974
21
6.6819516971342079
31
0
0
ARC
5
351
100
AcDbEntity
8
0
100
AcDbCircle
10
23.767699374109998
20
3.1417545639599997
30
0
40
4.0261859215689997
210
0
220
-0
230
1
100
AcDbArc
50
45.678088493023964
51
118.44280323595589
0
ARC
5
352
100
AcDbEntity
8
0
100
AcDbCircle
10
33.200000000000003
20
12.800000000000002
30
0
40
9.4738140784292408
210
0
220
0
230
1
100
AcDbArc
50
225.67808849296918
51
237.88278647247296
0
LINE
5
353
100
AcDbEntity
8
0
100
AcDbLine
10
22.195923460220005
20
0.68815205877620012
30
0
11
18.799404105969359
21
2.6491443673168815
31
0
0
LINE
5
354
100
AcDbEntity
8
0
100
AcDbLine
10
18.799404105969359
20
2.6491443673168815
30
0
11
18.726501278092069
21
-0.032594984715265674
31
0
0
ARC
5
355
100
AcDbEntity
8
0
100
AcDbCircle
10
14.701802246440003
20
0.076816073649668276
30
0
40
4.0261859215689988
210
0
220
0
230
1
100
AcDbArc
50
285.67808849300042
51
358.44280323589345
0
ARC
5
356
100
AcDbEntity
8
0
100
AcDbCircle
10
18.34993783709
20
-12.920918602520002
30
0
40
9.4738140784262121
210
0
220
0
230
1
100
AcDbArc
50
105.6780884929796
51
117.88278647253004
0
LINE
5
357
100
AcDbEntity
8
0
100
AcDbLine
10
28.36880600288
20
-2.875783230603
30
0
11
28.212737544521435
21
-2.7856765612375121
31
0
0
ARC
5
358
100
AcDbEntity
8
0
100
AcDbCircle
10
33.200000000000003
20
12.800000000000002
30
0
40
9.4738140784310012
210
0
220
0
230
1
100
AcDbArc
50
242.1172135274841
51
254.97395547768713
0
ARC
5
359
100
AcDbEntity
8
0
100
AcDbCircle
10
29.700015755750005
20
-0.23840903983320283
30
0
40
4.0261859215690023
210
0
220
-0
230
1
100
AcDbArc
50
6.9234673329816973e-05
51
74.973955477769792
0
LINE
5
360
100
AcDbEntity
8
0
100
AcDbLine
10
33.72620167731607
20
-0.23840417454710008
30
0
11
33.726204683071018
21
-2.7257629925610001
31
0
0
LINE
5
361
100
AcDbEntity
8
0
100
AcDbLine
10
33.726204683071018
20
-2.7257629925610001
30
0
11
37.046001777719958
21
-0.80909864186792446
31
0
0
LINE
5
362
100
AcDbEntity
8
0
100
AcDbLine
10
28.212778885870001
20
-23.056232249130005
30
0
11
28.368972570777689
21
-22.966054789745996
31
0
0
LINE
5
363
100
AcDbEntity
8
0
100
AcDbLine
10
-69.472676034179997
20
16.137647286269999
30
0
11
-69.472676034179997
21
15.211886948310001
31
0
0
LINE
5
364
100
AcDbEntity
8
0
100
AcDbLine
10
-69.472676034179997
20
10.38811305169
30
0
11
-69.472676034179997
21
9.4623527137290004
31
0
0
LINE
5
365
100
AcDbEntity
8
0
100
AcDbLine
10
-69.472676034179997
20
9.4623527137290004
30
0
11
-69.608842826339995
21
9.3261859215689995
31
0
0
ELLIPSE
5
366
100
AcDbEntity
8
0
100
AcDbEllipse
10
-69.122316075437936
20
11.199999999999999
30
0
11
0
21
1.0000000000000002
31
0.0
40
0.60012186986092952
41
2.3032400688479999
42
2.5181733177395622
0
LINE
5
367
100
AcDbEntity
8
0
100
AcDbLine
10
-69.568532203789999
20
15.068688655990002
30
0
11
-69.568532203793268
21
10.531311344015018
31
0
0
ELLIPSE
5
368
100
AcDbEntity
8
0
100
AcDbEllipse
10
-69.122316075441859
20
14.400000000000002
30
0
11
0
21
-1.0000000000000002
31
0.0
40
0.60012186986092952
41
3.7650119894347296
42
3.9799452383198548
0
LINE
5
369
100
AcDbEntity
8
0
100
AcDbLine
10
-69.472676034179997
20
16.137647286269999
30
0
11
-69.608842826339995
21
16.27381407843
31
0
0
LINE
5
370
100
AcDbEntity
8
0
100
AcDbLine
10
61.722733061950009
20
31.522107019910003
30
0
11
61.586044308974557
21
31.453809507331286
31
0
0
ELLIPSE
5
371
100
AcDbEntity
8
0
100
AcDbEllipse
10
61.086696851805378
20
31.454478406266091
30
0
11
0.50056903444675072
21
0.0005526568226150684
31
0.0
40
0.03489406923166722
41
4.6807592802281128
42
6.2132701594361386
0
LINE
5
372
100
AcDbEntity
8
0
100
AcDbLine
10
56.929114082029997
20
31.437002774810004
30
0
11
61.070885917969591
21
31.437002774809336
31
0
0
ELLIPSE
5
373
100
AcDbEntity
8
0
100
AcDbEllipse
10
56.913303148189797
20
31.454478406266695
30
0
11
-0.50056903444675072
21
0.00055265682261506808
31
0.0
40
0.034894069231667213
41
0.069915147794817528
42
1.6024260269604298
0
LINE
5
374
100
AcDbEntity
8
0
100
AcDbLine
10
56.277266938050005
20
31.522107019910003
30
0
11
56.413955691023006
21
31.453809507330995
31
0
0
LINE
5
375
100
AcDbEntity
8
0
100
AcDbLine
10
1.7227330619530001
20
31.522107019910003
30
0
11
1.5860443089775358
21
31.453809507331279
31
0
0
ELLIPSE
5
376
100
AcDbEntity
8
0
100
AcDbEllipse
10
1.0866968518093705
20
31.454478406266091
30
0
11
0.50056903444675072
21
0.0005526568226150684
31
0.0
40
0.03489406923166722
41
4.6807592802200988
42
6.2132701594355417
0
LINE
5
377
100
AcDbEntity
8
0
100
AcDbLine
10
-3.0708859179700005
20
31.437002774810004
30
0
11
1.0708859179695753
21
31.437002774809336
31
0
0
ELLIPSE
5
378
100
AcDbEntity
8
0
100
AcDbEllipse
10
-3.0866968518102009
20
31.454478406266695
30
0
11
-0.50056903444675072
21
0.00055265682261506808
31
0.0
40
0.034894069231667213
41
0.069915147795272095
42
1.6024260269603978
0
LINE
5
379
100
AcDbEntity
8
0
100
AcDbLine
10
-3.7227330619530004
20
31.522107019910003
30
0
11
-3.5860443089769785
21
31.453809507330991
31
0
0
LINE
5
380
100
AcDbEntity
8
0
100
AcDbLine
10
-58.277266938050005
20
31.522107019910003
30
0
11
-58.41395569102545
21
31.453809507331311
31
0
0
ELLIPSE
5
381
100
AcDbEntity
8
0
100
AcDbEllipse
10
-58.913303148194629
20
31.454478406266091
30
0
11
0.50056903444675072
21
0.0005526568226150684
31
0.0
40
0.03489406923166722
41
4.6807592802281057
42
6.2132701594374984
0
LINE
5
382
100
AcDbEntity
8
0
100
AcDbLine
10
-63.07088591797001
20
31.437002774810004
30
0
11
-58.929114082030416
21
31.437002774809336
31
0
0
ELLIPSE
5
383
100
AcDbEntity
8
0
100
AcDbEllipse
10
-63.086696851810203
20
31.454478406266695
30
0
11
-0.50056903444675072
21
0.00055265682261506808
31
0.0
40
0.034894069231667213
41
0.069915147794815544
42
1.602426026960373
0
LINE
5
384
100
AcDbEntity
8
0
100
AcDbLine
10
-63.722733061950009
20
31.522107019910003
30
0
11
-63.586044308976994
21
31.453809507330995
31
0
0
LINE
5
385
100
AcDbEntity
8
0
100
AcDbLine
10
-63.722733061950009
20
31.812172135670004
30
0
11
-63.722733061950009
21
31.522107019910003
31
0
0
LINE
5
386
100
AcDbEntity
8
0
100
AcDbLine
10
-63.722733061950009
20
31.812172135670004
30
0
11
-58.277266938050005
21
31.812172135670004
31
0
0
LINE
5
387
100
AcDbEntity
8
0
100
AcDbLine
10
-58.277266938050005
20
31.522107019910003
30
0
11
-58.277266938050005
21
31.812172135670004
31
0
0
LINE
5
388
100
AcDbEntity
8
0
100
AcDbLine
10
-3.7227330619530004
20
31.812172135670004
30
0
11
-3.7227330619530004
21
31.522107019910003
31
0
0
LINE
5
389
100
AcDbEntity
8
0
100
AcDbLine
10
-3.7227330619530004
20
31.812172135670004
30
0
11
1.7227330619529995
21
31.812172135670004
31
0
0
LINE
5
390
100
AcDbEntity
8
0
100
AcDbLine
10
1.7227330619530001
20
31.522107019910003
30
0
11
1.7227330619529995
21
31.812172135670004
31
0
0
LINE
5
391
100
AcDbEntity
8
0
100
AcDbLine
10
56.277266938050005
20
31.812172135670004
30
0
11
56.277266938050005
21
31.522107019910003
31
0
0
LINE
5
392
100
AcDbEntity
8
0
100
AcDbLine
10
56.277266938050005
20
31.812172135670004
30
0
11
61.722733061950009
21
31.812172135670004
31
0
0
LINE
5
393
100
AcDbEntity
8
0
100
AcDbLine
10
61.722733061950009
20
31.522107019910003
30
0
11
61.722733061950009
21
31.812172135670004
31
0
0
SPLINE
5
394
100
AcDbEntity
8
0
100
AcDbSpline
70
0
71
3
72
17
73
13
74
0
42
0.000000001
43
0.0000000001
44
0.0000000001
40
8.1091643455918168e-08
40
8.1091643455918168e-08
40
8.1091643455918168e-08
40
8.1091643455918168e-08
40
0.25
40
0.25
40
0.25
40
0.5
40
0.5
40
0.5
40
0.75
40
0.75
40
0.75
40
1
40
1
40
1
40
1
10
-89.231704169451632
20
-29.37794970473767
30
0
10
-89.305841495583351
20
-29.335127894804472
30
0
10
-89.373571977401056
20
-29.283055050547485
30
0
10
-89.431966297661077
20
-29.225776960337768
30
0
10
-89.490360636862292
20
-29.168498851548957
30
0
10
-89.539876998416815
20
-29.106525380294705
30
0
10
-89.583064816704749
20
-29.03639564063856
30
0
10
-89.626252634992639
20
-28.966265900982421
30
0
10
-89.662808448960419
20
-28.887860647388028
30
0
10
-89.689186378061137
20
-28.800045551951342
30
0
10
-89.715564307161841
20
-28.712230456514657
30
0
10
-89.731512682234126
20
-28.61489963364707
30
0
10
-89.731532760424315
20
-28.512221107610003
30
0
0
ARC
5
395
100
AcDbEntity
8
0
100
AcDbCircle
10
-80.289309160864818
20
-32.232114317167728
30
0
40
1.9994179529634495
210
0
220
0
230
1
100
AcDbArc
50
240.00079704901813
51
269.99920245003801
0
ARC
5
396
100
AcDbEntity
8
0
100
AcDbCircle
10
80.289309160864391
20
-32.232114317166555
30
0
40
1.9994179529646283
210
0
220
0
230
1
100
AcDbArc
50
270.00079704921421
51
299.99920245006803
0
SPLINE
5
397
100
AcDbEntity
8
0
100
AcDbSpline
70
0
71
3
72
17
73
13
74
0
42
0.000000001
43
0.0000000001
44
0.0000000001
40
8.1093054681809676e-08
40
8.1093054681809676e-08
40
8.1093054681809676e-08
40
8.1093054681809676e-08
40
0.25
40
0.25
40
0.25
40
0.5
40
0.5
40
0.5
40
0.75
40
0.75
40
0.75
40
1
40
1
40
1
40
1
10
89.731532760515989
20
-28.512221189944114
30
0
10
89.731516648339849
20
-28.597836902716946
30
0
10
89.720285483276157
20
-28.682529642703877
30
0
10
89.699878362205325
20
-28.761739652589039
30
0
10
89.679471234515006
20
-28.840949688167733
30
0
10
89.650558814823881
20
-28.914818850806622
30
0
10
89.611418587863085
20
-28.987285468406675
30
0
10
89.572278360902274
20
-29.059752086006739
30
0
10
89.522655326482493
20
-29.130612976354982
30
0
10
89.459794187549662
20
-29.197364480771448
30
0
10
89.396933048616859
20
-29.2641159851879
30
0
10
89.320616270981446
20
-29.32659309457943
30
0
10
89.231704098101574
20
-29.377949745822747
30
0
0
SPLINE
5
398
100
AcDbEntity
8
0
100
AcDbSpline
70
0
71
3
72
17
73
13
74
0
42
0.000000001
43
0.0000000001
44
0.0000000001
40
8.1089129844453742e-08
40
8.1089129844453742e-08
40
8.1089129844453742e-08
40
8.1089129844453742e-08
40
0.25
40
0.25
40
0.25
40
0.5
40
0.5
40
0.5
40
0.75
40
0.75
40
0.75
40
1
40
1
40
1
40
1
10
89.231704169449358
20
29.377949704738985
30
0
10
89.305841495581987
20
29.335127894805527
30
0
10
89.373571977400474
20
29.28305505054805
30
0
10
89.431966297661077
20
29.225776960337761
30
0
10
89.490360636862292
20
29.168498851548943
30
0
10
89.539876998416815
20
29.106525380294698
30
0
10
89.583064816704749
20
29.036395640638553
30
0
10
89.626252634992639
20
28.966265900982414
30
0
10
89.662808448960448
20
28.887860647388031
30
0
10
89.689186378061152
20
28.800045551951349
30
0
10
89.715564307161856
20
28.712230456514661
30
0
10
89.731512682234126
20
28.61489963364707
30
0
10
89.731532760424315
20
28.512221107610003
30
0
0
ARC
5
399
100
AcDbEntity
8
0
100
AcDbCircle
10
80.289309160864775
20
32.232114317167806
30
0
40
1.9994179529633724
210
0
220
-0
230
1
100
AcDbArc
50
60.000797049015333
51
89.999202450036805
0
ARC
5
400
100
AcDbEntity
8
0
100
AcDbCircle
10
-80.289309160864391
20
32.232114317166555
30
0
40
1.9994179529646283
210
0
220
0
230
1
100
AcDbArc
50
90.000797049214242
51
119.9992024500681
0
SPLINE
5
401
100
AcDbEntity
8
0
100
AcDbSpline
70
0
71
3
72
17
73
13
74
0
42
0.000000001
43
0.0000000001
44
0.0000000001
40
8.1090495877745067e-08
40
8.1090495877745067e-08
40
8.1090495877745067e-08
40
8.1090495877745067e-08
40
0.25
40
0.25
40
0.25
40
0.5
40
0.5
40
0.5
40
0.75
40
0.75
40
0.75
40
1
40
1
40
1
40
1
10
-89.731532760515989
20
28.512221189941485
30
0
10
-89.731516648340076
20
28.597836902715208
30
0
10
-89.720285483276413
20
28.682529642703077
30
0
10
-89.699878362205382
20
28.761739652589057
30
0
10
-89.67947123451502
20
28.840949688167758
30
0
10
-89.650558814823924
20
28.91481885080664
30
0
10
-89.611418587863113
20
28.987285468406686
30
0
10
-89.572278360902317
20
29.059752086006725
30
0
10
-89.522655326482493
20
29.130612976354993
30
0
10
-89.459794187549662
20
29.197364480771459
30
0
10
-89.39693304861683
20
29.264115985187921
30
0
10
-89.32061627098156
20
29.326593094579636
30
0
10
-89.231704098101574
20
29.377949745822768
30
0
0
SPLINE
5
402
100
AcDbEntity
8
0
100
AcDbSpline
70
0
71
3
72
8
73
4
74
0
42
0.000000001
43
0.0000000001
44
0.0000000001
40
0.98049845415053805
40
0.98049845415053805
40
0.98049845415053805
40
0.98049845415053805
40
0.99999605649101719
40
0.99999605649101719
40
0.99999605649101719
40
0.99999605649101719
10
-89.749911266004119
20
25.286172693725444
30
0
10
-89.749961086743397
20
25.28433977103948
30
0
10
-89.749980174353979
20
25.282482675906728
30
0
10
-89.749968781455024
20
25.280599959042789
30
0
0
LWPOLYLINE
5
403
100
AcDbEntity
8
0
100
AcDbPolyline
90
12
70
1
43
0.0
10
-1.5000000000000002
20
-29.478961903890003
10
-1.4416025714045793
20
-29.566602571408787
10
0.99999999999999978
20
-29.566602571400004
10
0.99999999999999978
20
-28.725000000000005
10
6.0000000000000009
20
-28.725000000000005
10
6.0000000000000009
20
-29.566602571400004
10
8.4416025714039993
20
-29.566602571400004
10
8.5
20
-29.478961903890003
10
8.4999999999998828
20
-27.475000000002517
10
8.4022218454230018
20
-27.328258218010003
10
-1.402221845423
20
-27.328258218010003
10
-1.5000000000000002
20
-27.475000000000005
0
LINE
5
404
100
AcDbEntity
8
0
100
AcDbLine
10
-66.052491150575918
20
-25.881137576348145
30
0
11
-66.854219551019568
21
-26.344010517150739
31
0
0
LINE
5
405
100
AcDbEntity
8
0
100
AcDbLine
10
-61.07322874046001
20
-23.006391174049998
30
0
11
-61.874968751347282
21
-23.469270818070513
31
0
0
LINE
5
406
100
AcDbEntity
8
0
100
AcDbLine
10
-60.88722111413
20
-23.056232249130005
30
0
11
-61.07322874046001
21
-23.006391174049998
31
0
0
ELLIPSE
5
407
100
AcDbEntity
8
0
100
AcDbEllipse
10
-62.753261932457541
20
-23.571782899650707
30
0
11
-0.86602782425331792
21
-0.49999581987292396
31
0.0
40
0.60012186618154051
41
2.3032317523970423
42
2.5181641091030009
0
LINE
5
408
100
AcDbEntity
8
0
100
AcDbLine
10
-65.880552063147931
20
-25.892554467828539
30
0
11
-61.951056439610127
21
-23.623882929304468
31
0
0
ELLIPSE
5
409
100
AcDbEntity
8
0
100
AcDbEllipse
10
-65.524546317861436
20
-25.171777541905783
30
0
11
0.86602782425331792
21
0.49999581987292396
31
0.0
40
0.60012186618154051
41
3.7650027838229581
42
3.9799343645941732
0
LINE
5
410
100
AcDbEntity
8
0
100
AcDbLine
10
-66.854219551019568
20
-26.344010517150739
30
0
11
-66.904060385187009
21
-26.530017244395168
31
0
0
LINE
5
411
100
AcDbEntity
8
0
100
AcDbLine
10
-66.904076539779993
20
0.68815205877620012
30
0
11
-66.854236199243303
21
0.50214447653277383
31
0
0
LINE
5
412
100
AcDbEntity
8
0
100
AcDbLine
10
-66.854236199243303
20
0.50214447653277383
30
0
11
-66.05253824279022
21
0.03928136214973392
31
0
0
ELLIPSE
5
413
100
AcDbEntity
8
0
100
AcDbEllipse
10
-65.524555496205636
20
-0.6700755604958325
30
0
11
0.86602419752767434
21
-0.50000209236000304
31
0.0
40
0.60012186894103781
41
2.3033213699855235
42
2.5182395188886453
0
LINE
5
414
100
AcDbEntity
8
0
100
AcDbLine
10
-61.95102593389251
20
-2.2180557652211617
30
0
11
-65.880615719070605
21
0.050706099037125946
31
0
0
ELLIPSE
5
415
100
AcDbEntity
8
0
100
AcDbEllipse
10
-62.753275750736378
20
-2.2700782393695262
30
0
11
-0.86602419752767434
21
0.50000209236000304
31
0.0
40
0.60012186894103781
41
3.7649372728269666
42
3.9798538358563267
0
LINE
5
416
100
AcDbEntity
8
0
100
AcDbLine
10
-61.8749617237767
20
-2.372656547735446
30
0
11
-61.073269588179492
21
-2.8355167813211302
31
0
0
LINE
5
417
100
AcDbEntity
8
0
100
AcDbLine
10
-61.073269588179492
20
-2.8355167813211302
30
0
11
-60.887262455479174
21
-2.7856765612385637
31
0
0
LINE
5
418
100
AcDbEntity
8
0
100
AcDbLine
10
-61.282715481147605
20
-12.570918602519914
30
0
11
-61.289026519140002
21
-12.57746508292
31
0
0
ARC
5
419
100
AcDbEntity
8
0
100
AcDbCircle
10
-70.750062162909998
20
-12.920918602520002
30
0
40
9.4672675980390029
210
-0
220
0
230
1
100
AcDbArc
50
-2.0790324061222409
51
2.079032406061744
0
LINE
5
420
100
AcDbEntity
8
0
100
AcDbLine
10
-61.282715481147612
20
-13.270918602520091
30
0
11
-61.289026519136826
21
-13.264372122130117
31
0
0
LINE
5
421
100
AcDbEntity
8
0
100
AcDbLine
10
-75.786844395121292
20
-4.8969558696829392
30
0
11
-75.778019457799999
21
-4.8991481487120003
31
0
0
ARC
5
422
100
AcDbEntity
8
0
100
AcDbCircle
10
-70.750062162909998
20
-12.920918602520002
30
0
40
9.4672675980389993
210
0
220
0
230
1
100
AcDbArc
50
117.92096759392311
51
122.0790324061466
0
LINE
5
423
100
AcDbEntity
8
0
100
AcDbLine
10
-75.180626612471556
20
-4.5469558696820558
30
0
11
-75.183140511801682
21
-4.5556946291008247
31
0
0
LINE
5
424
100
AcDbEntity
8
0
100
AcDbLine
10
-75.180626612465346
20
-21.294881335361232
30
0
11
-75.183140511800005
21
-21.286142575949999
31
0
0
ARC
5
425
100
AcDbEntity
8
0
100
AcDbCircle
10
-70.750062162909998
20
-12.920918602520002
30
0
40
9.4672675980390082
210
0
220
0
230
1
100
AcDbArc
50
237.92096759389182
51
242.07903240611645
0
LINE
5
426
100
AcDbEntity
8
0
100
AcDbLine
10
-75.786844395114542
20
-20.944881335361313
30
0
11
-75.778019457796148
21
-20.94268905633383
31
0
0
LINE
5
427
100
AcDbEntity
8
0
100
AcDbLine
10
-54.622738197090008
20
-9.5832713162540006
30
0
11
-54.622738197090008
21
-10.509031654219999
31
0
0
LINE
5
428
100
AcDbEntity
8
0
100
AcDbLine
10
-54.622738197090008
20
-15.332805550830003
30
0
11
-54.622738197090008
21
-16.2585658888
31
0
0
LINE
5
429
100
AcDbEntity
8
0
100
AcDbLine
10
-54.622738197090008
20
-16.2585658888
30
0
11
-54.758904989250006
21
-16.394732680960004
31
0
0
ELLIPSE
5
430
100
AcDbEntity
8
0
100
AcDbEllipse
10
-54.272378238347933
20
-14.520918602520002
30
0
11
0
21
1.0000000000000002
31
0.0
40
0.60012186986092952
41
2.3032400688479893
42
2.5181733177395391
0
LINE
5
431
100
AcDbEntity
8
0
100
AcDbLine
10
-54.71859436670001
20
-10.652229946540002
30
0
11
-54.718594366703272
21
-15.189607258504982
31
0
0
ELLIPSE
5
432
100
AcDbEntity
8
0
100
AcDbEllipse
10
-54.272378238351848
20
-11.320918602520001
30
0
11
0
21
-1.0000000000000002
31
0.0
40
0.60012186986092952
41
3.7650119894405893
42
3.9799452383273102
0
LINE
5
433
100
AcDbEntity
8
0
100
AcDbLine
10
-54.622738197090008
20
-9.5832713162540006
30
0
11
-54.758904989250006
21
-9.4471045240939997
31
0
0
LINE
5
434
100
AcDbEntity
8
0
100
AcDbLine
10
-37.204076539779997
20
0.68815205877620012
30
0
11
-37.154236199243293
21
0.50214447653277372
31
0
0
LINE
5
435
100
AcDbEntity
8
0
100
AcDbLine
10
-37.154236199243293
20
0.50214447653277372
30
0
11
-36.35253824279021
21
0.039281362149730312
31
0
0
ELLIPSE
5
436
100
AcDbEntity
8
0
100
AcDbEllipse
10
-35.824555496205633
20
-0.67007556049583172
30
0
11
0.86602419752767434
21
-0.50000209236000304
31
0.0
40
0.60012186894103781
41
2.3033213699855084
42
2.5182395188886293
0
LINE
5
437
100
AcDbEntity
8
0
100
AcDbLine
10
-32.2510259338925
20
-2.2180557652211705
30
0
11
-36.180615719070602
21
0.050706099037126431
31
0
0
ELLIPSE
5
438
100
AcDbEntity
8
0
100
AcDbEllipse
10
-33.053275750736368
20
-2.2700782393695262
30
0
11
-0.86602419752767434
21
0.50000209236000304
31
0.0
40
0.60012186894103781
41
3.7649372728269785
42
3.9798538358563169
0
LINE
5
439
100
AcDbEntity
8
0
100
AcDbLine
10
-32.174961723776697
20
-2.3726565477354451
30
0
11
-31.373269588179497
21
-2.8355167813211244
31
0
0
LINE
5
440
100
AcDbEntity
8
0
100
AcDbLine
10
-31.373269588179497
20
-2.8355167813211244
30
0
11
-31.187262455479178
21
-2.7856765612385637
31
0
0
LINE
5
441
100
AcDbEntity
8
0
100
AcDbLine
10
-31.187221114130001
20
-23.056232249130005
30
0
11
-31.373228740463681
21
-23.006391174044296
31
0
0
LINE
5
442
100
AcDbEntity
8
0
100
AcDbLine
10
-31.373228740463681
20
-23.006391174044296
30
0
11
-32.174968751347265
21
-23.469270818070505
31
0
0
ELLIPSE
5
443
100
AcDbEntity
8
0
100
AcDbEllipse
10
-33.053261932457538
20
-23.571782899650703
30
0
11
-0.86602782425331792
21
-0.49999581987292396
31
0.0
40
0.60012186618154051
41
2.3032317523970414
42
2.5181641091030067
0
LINE
5
444
100
AcDbEntity
8
0
100
AcDbLine
10
-36.180552063147921
20
-25.892554467828539
30
0
11
-32.251056439610124
21
-23.623882929304465
31
0
0
ELLIPSE
5
445
100
AcDbEntity
8
0
100
AcDbEllipse
10
-35.824546317861433
20
-25.171777541905776
30
0
11
0.86602782425331792
21
0.49999581987292396
31
0.0
40
0.60012186618154051
41
3.7650041660056033
42
3.9799343645941936
0
LINE
5
446
100
AcDbEntity
8
0
100
AcDbLine
10
-36.352490352901931
20
-25.881138075717772
30
0
11
-37.15421955101958
21
-26.344010517150739
31
0
0
LINE
5
447
100
AcDbEntity
8
0
100
AcDbLine
10
-37.15421955101958
20
-26.344010517150739
30
0
11
-37.204060385187013
21
-26.530017244395175
31
0
0
LINE
5
448
100
AcDbEntity
8
0
100
AcDbLine
10
-31.582715481147616
20
-12.570918602519914
30
0
11
-31.589026519139999
21
-12.57746508292
31
0
0
ARC
5
449
100
AcDbEntity
8
0
100
AcDbCircle
10
-41.05006216291001
20
-12.920918602520002
30
0
40
9.4672675980389975
210
-0
220
0
230
1
100
AcDbArc
50
-2.0790324061222409
51
2.079032406061744
0
LINE
5
450
100
AcDbEntity
8
0
100
AcDbLine
10
-31.582715481147613
20
-13.270918602520091
30
0
11
-31.58902651913683
21
-13.264372122130117
31
0
0
LINE
5
451
100
AcDbEntity
8
0
100
AcDbLine
10
-46.086844395121304
20
-4.8969558696829392
30
0
11
-46.078019457800004
21
-4.8991481487120003
31
0
0
ARC
5
452
100
AcDbEntity
8
0
100
AcDbCircle
10
-41.05006216291001
20
-12.920918602520002
30
0
40
9.4672675980389993
210
0
220
0
230
1
100
AcDbArc
50
117.92096759392311
51
122.07903240614658
0
LINE
5
453
100
AcDbEntity
8
0
100
AcDbLine
10
-45.480626612471553
20
-4.5469558696820558
30
0
11
-45.483140511801693
21
-4.5556946291008247
31
0
0
LINE
5
454
100
AcDbEntity
8
0
100
AcDbLine
10
-45.480626612465365
20
-21.294881335361232
30
0
11
-45.483140511800002
21
-21.286142575949999
31
0
0
ARC
5
455
100
AcDbEntity
8
0
100
AcDbCircle
10
-41.05006216291001
20
-12.920918602520002
30
0
40
9.4672675980390011
210
0
220
0
230
1
100
AcDbArc
50
237.92096759389204
51
242.07903240611657
0
LINE
5
456
100
AcDbEntity
8
0
100
AcDbLine
10
-46.086844395114554
20
-20.944881335361302
30
0
11
-46.078019457796131
21
-20.942689056333833
31
0
0
LINE
5
457
100
AcDbEntity
8
0
100
AcDbLine
10
-24.922738197090002
20
-9.5832713162540006
30
0
11
-24.922738197090002
21
-10.509031654219999
31
0
0
LINE
5
458
100
AcDbEntity
8
0
100
AcDbLine
10
-24.922738197090002
20
-15.332805550830003
30
0
11
-24.922738197090002
21
-16.2585658888
31
0
0
LINE
5
459
100
AcDbEntity
8
0
100
AcDbLine
10
-24.922738197090002
20
-16.2585658888
30
0
11
-25.058904989249999
21
-16.394732680960004
31
0
0
ELLIPSE
5
460
100
AcDbEntity
8
0
100
AcDbEllipse
10
-24.57237823834793
20
-14.520918602520002
30
0
11
0
21
1.0000000000000002
31
0.0
40
0.60012186986092952
41
2.3032400688479844
42
2.5181733177395449
0
LINE
5
461
100
AcDbEntity
8
0
100
AcDbLine
10
-25.0185943667
20
-10.652229946540002
30
0
11
-25.018594366703265
21
-15.189607258504982
31
0
0
ELLIPSE
5
462
100
AcDbEntity
8
0
100
AcDbEllipse
10
-24.572378238351853
20
-11.320918602520001
30
0
11
0
21
-1.0000000000000002
31
0.0
40
0.60012186986092952
41
3.765011989440572
42
3.9799452383273004
0
LINE
5
463
100
AcDbEntity
8
0
100
AcDbLine
10
-24.922738197090002
20
-9.5832713162540006
30
0
11
-25.058904989249999
21
-9.4471045240939997
31
0
0
LINE
5
464
100
AcDbEntity
8
0
100
AcDbLine
10
-7.5040765397799998
20
0.68815205877620012
30
0
11
-7.4542361992432937
21
0.50214447653277516
31
0
0
LINE
5
465
100
AcDbEntity
8
0
100
AcDbLine
10
-7.4542361992432937
20
0.50214447653277516
30
0
11
-6.6525382427894453
21
0.039281362146981261
31
0
0
ELLIPSE
5
466
100
AcDbEntity
8
0
100
AcDbEllipse
10
-6.1245554962020279
20
-0.67007556049652517
30
0
11
0.86602419752767434
21
-0.50000209236000304
31
0.0
40
0.60012186894103781
41
2.3033213699885091
42
2.5182395188937967
0
LINE
5
467
100
AcDbEntity
8
0
100
AcDbLine
10
-2.5510259338968622
20
-2.2180557652209605
30
0
11
-6.4806157190695268
21
0.05070609903650547
31
0
0
ELLIPSE
5
468
100
AcDbEntity
8
0
100
AcDbEllipse
10
-3.3532757507390669
20
-2.2700782393690071
30
0
11
-0.86602419752767434
21
0.50000209236000304
31
0.0
40
0.60012186894103781
41
3.7649372728288242
42
3.9798538358560496
0
LINE
5
469
100
AcDbEntity
8
0
100
AcDbLine
10
-2.4749617237798782
20
-2.3726565477336079
30
0
11
-1.6732695881747461
21
-2.8355167813215596
31
0
0
LINE
5
470
100
AcDbEntity
8
0
100
AcDbLine
10
-1.6732695881747461
20
-2.8355167813215596
30
0
11
-1.4872624554781715
21
-2.7856765612402956
31
0
0
LINE
5
471
100
AcDbEntity
8
0
100
AcDbLine
10
-1.4872211141260003
20
-23.056232249130005
30
0
11
-1.6732287404596813
21
-23.006391174044293
31
0
0
LINE
5
472
100
AcDbEntity
8
0
100
AcDbLine
10
-1.6732287404596813
20
-23.006391174044293
30
0
11
-2.4749687513473906
21
-23.46927081807058
31
0
0
ELLIPSE
5
473
100
AcDbEntity
8
0
100
AcDbEllipse
10
-3.3532619324561352
20
-23.571782899651396
30
0
11
-0.86602782425331792
21
-0.49999581987292396
31
0.0
40
0.60012186618154051
41
2.3032317523989656
42
2.5181641091041662
0
LINE
5
474
100
AcDbEntity
8
0
100
AcDbLine
10
-6.4805520631481404
20
-25.892554467826354
30
0
11
-2.5510564396078612
21
-23.623882929303768
31
0
0
ELLIPSE
5
475
100
AcDbEntity
8
0
100
AcDbEllipse
10
-6.1245463178627304
20
-25.171777541906994
30
0
11
0.86602782425331792
21
0.49999581987292396
31
0.0
40
0.60012186618154051
41
3.7650041660099132
42
3.9799343645934706
0
LINE
5
476
100
AcDbEntity
8
0
100
AcDbLine
10
-6.6524903529000028
20
-25.881138075719548
30
0
11
-7.4542195510185767
21
-26.344010517152469
31
0
0
LINE
5
477
100
AcDbEntity
8
0
100
AcDbLine
10
-7.4542195510185767
20
-26.344010517152469
30
0
11
-7.5040603851892618
21
-26.530017244396475
31
0
0
LINE
5
478
100
AcDbEntity
8
0
100
AcDbLine
10
-1.8827154811476046
20
-12.570918602519987
30
0
11
-1.8890265191370001
21
-12.57746508292
31
0
0
ARC
5
479
100
AcDbEntity
8
0
100
AcDbCircle
10
-11.35006216291
20
-12.920918602520002
30
0
40
9.4672675980390011
210
-0
220
0
230
1
100
AcDbArc
50
-2.0790324061215286
51
2.0790324060610428
0
LINE
5
480
100
AcDbEntity
8
0
100
AcDbLine
10
-1.882715481147605
20
-13.27091860252002
30
0
11
-1.8890265191368159
21
-13.264372122130009
31
0
0
LINE
5
481
100
AcDbEntity
8
0
100
AcDbLine
10
-16.38684439512129
20
-4.8969558696829392
30
0
11
-16.378019457800001
21
-4.8991481487120003
31
0
0
ARC
5
482
100
AcDbEntity
8
0
100
AcDbCircle
10
-11.35006216291
20
-12.920918602520002
30
0
40
9.4672675980389993
210
0
220
0
230
1
100
AcDbArc
50
117.92096759392311
51
122.0790324061466
0
LINE
5
483
100
AcDbEntity
8
0
100
AcDbLine
10
-15.780626612471558
20
-4.5469558696820611
30
0
11
-15.783140511801683
21
-4.5556946291008247
31
0
0
LINE
5
484
100
AcDbEntity
8
0
100
AcDbLine
10
4.7772618029089999
20
-9.5832713162540006
30
0
11
4.7772618029089999
21
-10.509031654219999
31
0
0
LINE
5
485
100
AcDbEntity
8
0
100
AcDbLine
10
4.7772618029089999
20
-15.332805550830003
30
0
11
4.7772618029089999
21
-16.2585658888
31
0
0
LINE
5
486
100
AcDbEntity
8
0
100
AcDbLine
10
4.7772618029089999
20
-16.2585658888
30
0
11
4.6410950107489999
21
-16.394732680960004
31
0
0
ELLIPSE
5
487
100
AcDbEntity
8
0
100
AcDbEllipse
10
5.1276217616502713
20
-14.520918602520002
30
0
11
0
21
1.0000000000000002
31
0.0
40
0.60012186986092952
41
2.3032400688524626
42
2.5181733177406285
0
LINE
5
488
100
AcDbEntity
8
0
100
AcDbLine
10
4.6814056332970004
20
-10.652229946540002
30
0
11
4.6814056332967313
21
-15.189607258508314
31
0
0
ELLIPSE
5
489
100
AcDbEntity
8
0
100
AcDbEllipse
10
5.1276217616499515
20
-11.320918602520001
30
0
11
0
21
-1.0000000000000002
31
0.0
40
0.60012186986092952
41
3.7650119894443628
42
3.9799452383326486
0
LINE
5
490
100
AcDbEntity
8
0
100
AcDbLine
10
4.7772618029089999
20
-9.5832713162540006
30
0
11
4.6410950107489999
21
-9.4471045240939997
31
0
0
LINE
5
491
100
AcDbEntity
8
0
100
AcDbLine
10
31.835108702700001
20
-4.8468282574419996
30
0
11
31.421160882621209
21
-4.607834038169905
31
0
0
LINE
5
492
100
AcDbEntity
8
0
100
AcDbLine
10
22.195923460220005
20
0.68815205877620012
30
0
11
22.245763800756713
21
0.50214447653277372
31
0
0
LINE
5
493
100
AcDbEntity
8
0
100
AcDbLine
10
22.245763800756713
20
0.50214447653277372
30
0
11
23.047461757209788
21
0.039281362149732255
31
0
0
ELLIPSE
5
494
100
AcDbEntity
8
0
100
AcDbEllipse
10
23.575444503794373
20
-0.67007556049583172
30
0
11
0.86602419752767434
21
-0.50000209236000304
31
0.0
40
0.60012186894103781
41
2.3033213699855084
42
2.5182395188886364
0
LINE
5
495
100
AcDbEntity
8
0
100
AcDbLine
10
27.148974066107499
20
-2.2180557652211688
30
0
11
23.219384280929404
21
0.050706099037126431
31
0
0
ELLIPSE
5
496
100
AcDbEntity
8
0
100
AcDbEllipse
10
26.346724249263637
20
-2.2700782393695262
30
0
11
-0.86602419752767434
21
0.50000209236000304
31
0.0
40
0.60012186894103781
41
3.7649372728269777
42
3.9798538358563196
0
LINE
5
497
100
AcDbEntity
8
0
100
AcDbLine
10
27.225038276223309
20
-2.3726565477354451
30
0
11
28.026730411820505
21
-2.8355167813211284
31
0
0
LINE
5
498
100
AcDbEntity
8
0
100
AcDbLine
10
28.026730411820505
20
-2.8355167813211284
30
0
11
28.212737544521435
21
-2.7856765612375121
31
0
0
ELLIPSE
5
499
100
AcDbEntity
8
0
100
AcDbEllipse
10
28.421177626781144
20
-2.875783230603
30
0
11
1.7327833494059164
21
-0.99974287335156664
31
0.0
40
0.013086284484543468
41
4.689711340815812
42
5.7369088920129272
0
ELLIPSE
5
500
100
AcDbEntity
8
0
100
AcDbEllipse
10
31.368789258713861
20
-4.6078340381720011
30
0
11
1.7327833494059164
21
-0.99974287335156664
31
0.0
40
0.013086284484543468
41
1.5481186872281134
42
2.5953162384221353
0
LINE
5
501
100
AcDbEntity
8
0
100
AcDbLine
10
31.42137819693
20
-21.23400406543
30
0
11
31.834994757940763
21
-20.995205098281318
31
0
0
ELLIPSE
5
502
100
AcDbEntity
8
0
100
AcDbEllipse
10
31.584739786691415
20
-20.562141691681248
30
0
11
0.43320909043950084
21
-0.25011687495607193
31
0.0
40
0.9995431788646757
41
5.7597855716608573
42
6.8065850427003722
0
LINE
5
503
100
AcDbEntity
8
0
100
AcDbLine
10
32.084911181488998
20
-20.56234319503
30
0
11
32.085021987779228
21
-5.2796955966860004
31
0
0
ELLIPSE
5
504
100
AcDbEntity
8
0
100
AcDbEllipse
10
31.584850590112886
20
-5.279889848742739
30
0
11
0.43321181143732318
21
0.25011216396889402
31
0.0
40
0.99954317695369921
41
5.7597819480847994
42
6.8065886662814368
0
ELLIPSE
5
505
100
AcDbEntity
8
0
100
AcDbEllipse
10
31.369005917797921
20
-21.234004064000999
30
0
11
-1.7328122782202966
21
-0.99974282395095593
31
0.0
40
0.013086120707390431
41
0.54627650961381746
42
1.5934740608062341
0
ELLIPSE
5
506
100
AcDbEntity
8
0
100
AcDbEllipse
10
28.421344849910319
20
-22.966054791176585
30
0
11
-1.7328122782202966
21
-0.99974282395095593
31
0.0
40
0.013086120707390431
41
3.6878691631974463
42
4.7350667143944385
0
LINE
5
507
100
AcDbEntity
8
0
100
AcDbLine
10
28.212778885870001
20
-23.056232249130005
30
0
11
28.026771259536325
21
-23.006391174044296
31
0
0
LINE
5
508
100
AcDbEntity
8
0
100
AcDbLine
10
28.026771259536325
20
-23.006391174044296
30
0
11
27.225031248652748
21
-23.469270818070505
31
0
0
ELLIPSE
5
509
100
AcDbEntity
8
0
100
AcDbEllipse
10
26.346738067542468
20
-23.571782899650703
30
0
11
-0.86602782425331792
21
-0.49999581987292396
31
0.0
40
0.60012186618154051
41
2.3032317523970312
42
2.5181641091029952
0
LINE
5
510
100
AcDbEntity
8
0
100
AcDbLine
10
23.219447936852081
20
-25.892554467828539
30
0
11
27.148943560389888
21
-23.623882929304465
31
0
0
ELLIPSE
5
511
100
AcDbEntity
8
0
100
AcDbEllipse
10
23.575453682138573
20
-25.171777541905783
30
0
11
0.86602782425331792
21
0.49999581987292396
31
0.0
40
0.60012186618154051
41
3.7650041660056033
42
3.9799343645941869
0
LINE
5
512
100
AcDbEntity
8
0
100
AcDbLine
10
23.047509647098071
20
-25.881138075717779
30
0
11
22.245780448980423
21
-26.344010517150735
31
0
0
LINE
5
513
100
AcDbEntity
8
0
100
AcDbLine
10
22.245780448980423
20
-26.344010517150735
30
0
11
22.195939614812993
21
-26.530017244395175
31
0
0
LINE
5
514
100
AcDbEntity
8
0
100
AcDbLine
10
13.919373387534641
20
-21.294881335361229
30
0
11
13.916859488200002
21
-21.286142575949999
31
0
0
LINE
5
515
100
AcDbEntity
8
0
100
AcDbLine
10
13.313155604878705
20
-4.8969558696829392
30
0
11
13.3219805422
21
-4.8991481487120003
31
0
0
ARC
5
516
100
AcDbEntity
8
0
100
AcDbCircle
10
18.34993783709
20
-12.920918602520002
30
0
40
9.4672675980390011
210
0
220
0
230
1
100
AcDbArc
50
117.92096759392311
51
122.0790324061466
0
LINE
5
517
100
AcDbEntity
8
0
100
AcDbLine
10
13.919373387528445
20
-4.5469558696820584
30
0
11
13.916859488198316
21
-4.5556946291008229
31
0
0
ARC
5
518
100
AcDbEntity
8
0
100
AcDbCircle
10
18.34993783709
20
-12.920918602520002
30
0
40
9.4672675980390046
210
0
220
0
230
1
100
AcDbArc
50
237.92096759389193
51
242.07903240611657
0
LINE
5
519
100
AcDbEntity
8
0
100
AcDbLine
10
13.313155604885459
20
-20.944881335361302
30
0
11
13.321980542203868
21
-20.942689056333833
31
0
0
LINE
5
520
100
AcDbEntity
8
0
100
AcDbLine
10
8.197571012336585
20
-0.1602189738219022
30
0
11
7.3958426118898224
21
-0.62309191462629132
31
0
0
LINE
5
521
100
AcDbEntity
8
0
100
AcDbLine
10
13.176833422450001
20
2.7145274284780001
30
0
11
12.375093411562087
21
2.251647784457115
31
0
0
LINE
5
522
100
AcDbEntity
8
0
100
AcDbLine
10
13.362841048780002
20
2.6646863533920002
30
0
11
13.176833422450001
21
2.7145274284780001
31
0
0
ELLIPSE
5
523
100
AcDbEntity
8
0
100
AcDbEllipse
10
11.496800230452637
20
2.1491357028759945
30
0
11
-0.86602782425331792
21
-0.49999581987292396
31
0.0
40
0.60012186618154051
41
2.3032317523955146
42
2.51816410910449
0
LINE
5
524
100
AcDbEntity
8
0
100
AcDbLine
10
8.3695100997643266
20
-0.17163586530155422
30
0
11
12.299005723299381
21
2.0970356732211384
31
0
0
ELLIPSE
5
525
100
AcDbEntity
8
0
100
AcDbEllipse
10
8.7255158450472372
20
0.54914106062176371
30
0
11
0.86602782425331792
21
0.49999581987292396
31
0.0
40
0.60012186618154051
41
3.7650027838286393
42
3.9799343645988228
0
LINE
5
526
100
AcDbEntity
8
0
100
AcDbLine
10
7.3958426118898224
20
-0.62309191462629132
30
0
11
7.3460017777172055
21
-0.80909864186835767
31
0
0
LINE
5
527
100
AcDbEntity
8
0
100
AcDbLine
10
-10.072676034180002
20
9.4623527137290004
30
0
11
-10.208842826340002
21
9.3261859215689995
31
0
0
LINE
5
528
100
AcDbEntity
8
0
100
AcDbLine
10
-10.072676034180002
20
10.38811305169
30
0
11
-10.072676034180002
21
9.4623527137290004
31
0
0
ELLIPSE
5
529
100
AcDbEntity
8
0
100
AcDbEllipse
10
-9.7223160754397302
20
11.199999999999999
30
0
11
0
21
1.0000000000000002
31
0.0
40
0.60012186986092952
41
2.3032400688524688
42
2.5181733177419789
0
LINE
5
530
100
AcDbEntity
8
0
100
AcDbLine
10
-10.168532203790001
20
15.068688655990002
30
0
11
-10.168532203793267
21
10.531311344011682
31
0
0
ELLIPSE
5
531
100
AcDbEntity
8
0
100
AcDbEllipse
10
-9.7223160754400482
20
14.400000000000002
30
0
11
0
21
-1.0000000000000002
31
0.0
40
0.60012186986092952
41
3.7650119894392673
42
3.9799452383218719
0
LINE
5
532
100
AcDbEntity
8
0
100
AcDbLine
10
-10.072676034180002
20
16.137647286269999
30
0
11
-10.072676034181065
21
15.211886948308884
31
0
0
LINE
5
533
100
AcDbEntity
8
0
100
AcDbLine
10
-10.072676034180002
20
16.137647286269999
30
0
11
-10.208842826340002
21
16.27381407843
31
0
0
LINE
5
534
100
AcDbEntity
8
0
100
AcDbLine
10
7.3459856231289997
20
26.409070661299999
30
0
11
7.3958259636657058
21
26.223063079056526
31
0
0
LINE
5
535
100
AcDbEntity
8
0
100
AcDbLine
10
7.3958259636657058
20
26.223063079056526
30
0
11
8.1975239201202719
21
25.760199964674349
31
0
0
ELLIPSE
5
536
100
AcDbEntity
8
0
100
AcDbEllipse
10
8.7255066667082737
20
25.050843042032994
30
0
11
0.86602419752767434
21
-0.50000209236000304
31
0.0
40
0.60012186894103781
41
2.3033213699862674
42
2.5182395188963791
0
LINE
5
537
100
AcDbEntity
8
0
100
AcDbLine
10
12.299036229014565
20
23.502862837309525
30
0
11
8.3694464438426674
21
25.771624701565973
31
0
0
ELLIPSE
5
538
100
AcDbEntity
8
0
100
AcDbEllipse
10
11.496786412174799
20
23.450840363156495
30
0
11
-0.86602419752767434
21
0.50000209236000304
31
0.0
40
0.60012186894103781
41
3.7649372728341488
42
3.9798538358629183
0
LINE
5
539
100
AcDbEntity
8
0
100
AcDbLine
10
12.375100439132593
20
23.348262054795697
30
0
11
13.176792574732673
21
22.885401821204624
31
0
0
LINE
5
540
100
AcDbEntity
8
0
100
AcDbLine
10
13.176792574732673
20
22.885401821204624
30
0
11
13.362799707430831
21
22.935242041291438
31
0
0
LINE
5
541
100
AcDbEntity
8
0
100
AcDbLine
10
12.967346681762393
20
13.150000000000091
30
0
11
12.96103564377
21
13.143453519610002
31
0
0
ARC
5
542
100
AcDbEntity
8
0
100
AcDbCircle
10
3.5000000000000004
20
12.800000000000002
30
0
40
9.4672675980390011
210
-0
220
0
230
1
100
AcDbArc
50
-2.0790324061222409
51
2.0790324061222378
0
LINE
5
543
100
AcDbEntity
8
0
100
AcDbLine
10
12.967346681762393
20
12.449999999999912
30
0
11
12.96103564377318
21
12.456546480389886
31
0
0
LINE
5
544
100
AcDbEntity
8
0
100
AcDbLine
10
-1.5367822322061766
20
20.823962732840275
30
0
11
-1.5279572948860001
21
20.82177045381
31
0
0
ARC
5
545
100
AcDbEntity
8
0
100
AcDbCircle
10
3.5000000000000004
20
12.800000000000002
30
0
40
9.4672675980390029
210
0
220
0
230
1
100
AcDbArc
50
117.92096759389523
51
122.07903240611969
0
LINE
5
546
100
AcDbEntity
8
0
100
AcDbLine
10
-0.9305644495567561
20
21.173962732840486
30
0
11
-0.93307834888760954
21
21.165223973421341
31
0
0
LINE
5
547
100
AcDbEntity
8
0
100
AcDbLine
10
-0.93056444955683282
20
4.4260372671595585
30
0
11
-0.9330783488869
21
4.4347760265789997
31
0
0
ARC
5
548
100
AcDbEntity
8
0
100
AcDbCircle
10
3.5000000000000004
20
12.800000000000002
30
0
40
9.4672675980390029
210
0
220
0
230
1
100
AcDbArc
50
237.92096759388994
51
242.07903240610764
0
LINE
5
549
100
AcDbEntity
8
0
100
AcDbLine
10
-1.5367822322061735
20
4.7760372671597242
30
0
11
-1.5279572948864095
21
4.7782295461863473
31
0
0
LINE
5
550
100
AcDbEntity
8
0
100
AcDbLine
10
19.62732396582
20
16.137647286269999
30
0
11
19.62732396582
21
15.211886948310001
31
0
0
LINE
5
551
100
AcDbEntity
8
0
100
AcDbLine
10
19.62732396582
20
10.38811305169
30
0
11
19.62732396582
21
9.4623527137290004
31
0
0
LINE
5
552
100
AcDbEntity
8
0
100
AcDbLine
10
19.62732396582
20
9.4623527137290004
30
0
11
19.49115717366
21
9.3261859215689995
31
0
0
ELLIPSE
5
553
100
AcDbEntity
8
0
100
AcDbEllipse
10
19.977683924562072
20
11.199999999999999
30
0
11
0
21
1.0000000000000002
31
0.0
40
0.60012186986092952
41
2.3032400688479857
42
2.5181733177395507
0
LINE
5
554
100
AcDbEntity
8
0
100
AcDbLine
10
19.531467796210002
20
15.068688655990002
30
0
11
19.531467796206734
21
10.531311344015018
31
0
0
ELLIPSE
5
555
100
AcDbEntity
8
0
100
AcDbEllipse
10
19.97768392455815
20
14.400000000000002
30
0
11
0
21
-1.0000000000000002
31
0.0
40
0.60012186986092952
41
3.7650119894347354
42
3.9799452383198646
0
LINE
5
556
100
AcDbEntity
8
0
100
AcDbLine
10
19.62732396582
20
16.137647286269999
30
0
11
19.49115717366
21
16.27381407843
31
0
0
LINE
5
557
100
AcDbEntity
8
0
100
AcDbLine
10
42.667346681762403
20
13.150000000000091
30
0
11
42.661035643770006
21
13.143453519610002
31
0
0
ARC
5
558
100
AcDbEntity
8
0
100
AcDbCircle
10
33.200000000000003
20
12.800000000000002
30
0
40
9.4672675980390029
210
-0
220
0
230
1
100
AcDbArc
50
-2.0790324061222409
51
2.0790324061222378
0
LINE
5
559
100
AcDbEntity
8
0
100
AcDbLine
10
42.667346681762403
20
12.449999999999912
30
0
11
42.661035643773182
21
12.456546480389886
31
0
0
LINE
5
560
100
AcDbEntity
8
0
100
AcDbLine
10
28.769435550440512
20
4.4260372671609636
30
0
11
28.766921651110003
21
4.4347760265789997
31
0
0
ARC
5
561
100
AcDbEntity
8
0
100
AcDbCircle
10
33.200000000000003
20
12.800000000000002
30
0
40
9.4672675980390029
210
0
220
0
230
1
100
AcDbArc
50
237.92096759386951
51
242.07903240609102
0
LINE
5
562
100
AcDbEntity
8
0
100
AcDbLine
10
28.163217767790965
20
4.7760372671615228
30
0
11
28.172042705110727
21
4.778229546188145
31
0
0
LINE
5
563
100
AcDbEntity
8
0
100
AcDbLine
10
42.075100422780139
20
23.348261584340936
30
0
11
42.876792574732676
21
22.885401821204624
31
0
0
LINE
5
564
100
AcDbEntity
8
0
100
AcDbLine
10
37.095825963670002
20
26.223063079060005
30
0
11
37.897523920118878
21
25.760199964677465
31
0
0
LINE
5
565
100
AcDbEntity
8
0
100
AcDbLine
10
37.045985623130008
20
26.409070661299999
30
0
11
37.095825963670002
21
26.223063079060005
31
0
0
ELLIPSE
5
566
100
AcDbEntity
8
0
100
AcDbEllipse
10
38.425506666704379
20
25.050843042033168
30
0
11
0.86602419752767434
21
-0.50000209236000304
31
0.0
40
0.60012186894103781
41
2.3033213699855088
42
2.5182395188908209
0
LINE
5
567
100
AcDbEntity
8
0
100
AcDbLine
10
41.999036229015665
20
23.502862837308896
30
0
11
38.069446443839411
21
25.771624701566125
31
0
0
ELLIPSE
5
568
100
AcDbEntity
8
0
100
AcDbEllipse
10
41.19678641217449
20
23.450840363155976
30
0
11
-0.86602419752767434
21
0.50000209236000304
31
0.0
40
0.60012186894103781
41
3.7649365815011979
42
3.9798538358626558
0
LINE
5
569
100
AcDbEntity
8
0
100
AcDbLine
10
42.876792574732676
20
22.885401821204624
30
0
11
43.062799707430841
21
22.935242041291438
31
0
0
LINE
5
570
100
AcDbEntity
8
0
100
AcDbLine
10
43.062841048780001
20
2.6646863533920002
30
0
11
42.876833422446325
21
2.7145274284777048
31
0
0
LINE
5
571
100
AcDbEntity
8
0
100
AcDbLine
10
42.876833422446325
20
2.7145274284777048
30
0
11
42.075093411562079
21
2.2516477844571141
31
0
0
ELLIPSE
5
572
100
AcDbEntity
8
0
100
AcDbEllipse
10
41.196800230452631
20
2.1491357028759941
30
0
11
-0.86602782425331792
21
-0.49999581987292396
31
0.0
40
0.60012186618154051
41
2.3032317523929624
42
2.5181641091044837
0
LINE
5
573
100
AcDbEntity
8
0
100
AcDbLine
10
38.069510099766774
20
-0.17163586530303185
30
0
11
41.999005723298247
21
2.0970356732193056
31
0
0
ELLIPSE
5
574
100
AcDbEntity
8
0
100
AcDbEllipse
10
38.425515845049041
20
0.54914106062210988
30
0
11
0.86602782425331792
21
0.49999581987292396
31
0.0
40
0.60012186618154051
41
3.7650041660084694
42
3.9799343646006804
0
LINE
5
575
100
AcDbEntity
8
0
100
AcDbLine
10
37.897571810010689
20
-0.1602194731902572
30
0
11
37.095842611888827
21
-0.62309191462455926
31
0
0
LINE
5
576
100
AcDbEntity
8
0
100
AcDbLine
10
37.095842611888827
20
-0.62309191462455926
30
0
11
37.046001777719958
21
-0.80909864186792446
31
0
0
LINE
5
577
100
AcDbEntity
8
0
100
AcDbLine
10
-47.024899577219841
20
23.348261584340925
30
0
11
-46.223207425267326
21
22.885401821204624
31
0
0
LINE
5
578
100
AcDbEntity
8
0
100
AcDbLine
10
-52.004174036330006
20
26.223063079060005
30
0
11
-51.202476079881123
21
25.760199964677458
31
0
0
LINE
5
579
100
AcDbEntity
8
0
100
AcDbLine
10
-52.054014376870008
20
26.409070661299999
30
0
11
-52.004174036330006
21
26.223063079060005
31
0
0
ELLIPSE
5
580
100
AcDbEntity
8
0
100
AcDbEllipse
10
-50.674493333295629
20
25.050843042033168
30
0
11
0.86602419752767434
21
-0.50000209236000304
31
0.0
40
0.60012186894103781
41
2.3033213699855168
42
2.5182395188908244
0
LINE
5
581
100
AcDbEntity
8
0
100
AcDbLine
10
-47.100963770984336
20
23.502862837308886
30
0
11
-51.030553556160605
21
25.771624701566125
31
0
0
ELLIPSE
5
582
100
AcDbEntity
8
0
100
AcDbEllipse
10
-47.903213587825498
20
23.450840363155976
30
0
11
-0.86602419752767434
21
0.50000209236000304
31
0.0
40
0.60012186894103781
41
3.7649365815011806
42
3.9798538358626434
0
LINE
5
583
100
AcDbEntity
8
0
100
AcDbLine
10
-46.223207425267326
20
22.885401821204624
30
0
11
-46.037200292569167
21
22.935242041291438
31
0
0
LINE
5
584
100
AcDbEntity
8
0
100
AcDbLine
10
-46.432653318237598
20
13.150000000000091
30
0
11
-46.438964356230002
21
13.143453519610002
31
0
0
ARC
5
585
100
AcDbEntity
8
0
100
AcDbCircle
10
-55.899999999999999
20
12.800000000000002
30
0
40
9.4672675980390029
210
-0
220
0
230
1
100
AcDbArc
50
-2.0790324061222409
51
2.0790324061222378
0
LINE
5
586
100
AcDbEntity
8
0
100
AcDbLine
10
-46.432653318237598
20
12.449999999999912
30
0
11
-46.438964356226819
21
12.456546480389886
31
0
0
LINE
5
587
100
AcDbEntity
8
0
100
AcDbLine
10
-60.330564449559496
20
4.4260372671609636
30
0
11
-60.333078348890005
21
4.4347760265789997
31
0
0
ARC
5
588
100
AcDbEntity
8
0
100
AcDbCircle
10
-55.899999999999999
20
12.800000000000002
30
0
40
9.4672675980390029
210
0
220
0
230
1
100
AcDbArc
50
237.92096759386945
51
242.07903240609102
0
LINE
5
589
100
AcDbEntity
8
0
100
AcDbLine
10
-60.936782232209048
20
4.7760372671615281
30
0
11
-60.927957294889282
21
4.7782295461881503
31
0
0
LINE
5
590
100
AcDbEntity
8
0
100
AcDbLine
10
-39.772676034180002
20
16.137647286269999
30
0
11
-39.772676034180002
21
15.211886948310001
31
0
0
LINE
5
591
100
AcDbEntity
8
0
100
AcDbLine
10
-39.772676034180002
20
10.38811305169
30
0
11
-39.772676034180002
21
9.4623527137290004
31
0
0
LINE
5
592
100
AcDbEntity
8
0
100
AcDbLine
10
-39.772676034180002
20
9.4623527137290004
30
0
11
-39.908842826339999
21
9.3261859215689995
31
0
0
ELLIPSE
5
593
100
AcDbEntity
8
0
100
AcDbEllipse
10
-39.422316075437934
20
11.199999999999999
30
0
11
0
21
1.0000000000000002
31
0.0
40
0.60012186986092952
41
2.3032400688479906
42
2.5181733177395507
0
LINE
5
594
100
AcDbEntity
8
0
100
AcDbLine
10
-39.868532203789997
20
15.068688655990002
30
0
11
-39.868532203793265
21
10.531311344015018
31
0
0
ELLIPSE
5
595
100
AcDbEntity
8
0
100
AcDbEllipse
10
-39.422316075441856
20
14.400000000000002
30
0
11
0
21
-1.0000000000000002
31
0.0
40
0.60012186986092952
41
3.7650119894347411
42
3.9799452383198548
0
LINE
5
596
100
AcDbEntity
8
0
100
AcDbLine
10
-39.772676034180002
20
16.137647286269999
30
0
11
-39.908842826339999
21
16.27381407843
31
0
0
LINE
5
597
100
AcDbEntity
8
0
100
AcDbLine
10
-16.73265331823761
20
13.150000000000091
30
0
11
-16.738964356229999
21
13.143453519610002
31
0
0
ARC
5
598
100
AcDbEntity
8
0
100
AcDbCircle
10
-26.200000000000003
20
12.800000000000002
30
0
40
9.4672675980390011
210
-0
220
0
230
1
100
AcDbArc
50
-2.0790324061222409
51
2.0790324061222378
0
LINE
5
599
100
AcDbEntity
8
0
100
AcDbLine
10
-16.73265331823761
20
12.449999999999912
30
0
11
-16.738964356226823
21
12.456546480389886
31
0
0
LINE
5
600
100
AcDbEntity
8
0
100
AcDbLine
10
-31.236782232209048
20
20.823962732838478
30
0
11
-31.227957294890004
21
20.82177045381
31
0
0
ARC
5
601
100
AcDbEntity
8
0
100
AcDbCircle
10
-26.200000000000003
20
12.800000000000002
30
0
40
9.4672675980390011
210
0
220
0
230
1
100
AcDbArc
50
117.92096759391177
51
122.0790324061402
0
LINE
5
602
100
AcDbEntity
8
0
100
AcDbLine
10
-30.630564449559493
20
21.173962732839037
30
0
11
-30.633078348890027
21
21.165223973420058
31
0
0
LINE
5
603
100
AcDbEntity
8
0
100
AcDbLine
10
-30.630564449559493
20
4.4260372671609662
30
0
11
-30.633078348890002
21
4.4347760265789997
31
0
0
ARC
5
604
100
AcDbEntity
8
0
100
AcDbCircle
10
-26.200000000000003
20
12.800000000000002
30
0
40
9.4672675980390011
210
0
220
0
230
1
100
AcDbArc
50
237.92096759386945
51
242.07903240609102
0
LINE
5
605
100
AcDbEntity
8
0
100
AcDbLine
10
-31.236782232209045
20
4.7760372671615254
30
0
11
-31.227957294889283
21
4.7782295461881477
31
0
0
LINE
5
606
100
AcDbEntity
8
0
100
AcDbLine
10
-22.354014376870005
20
26.409070661299999
30
0
11
-22.30417403633
21
26.223063079060005
31
0
0
ELLIPSE
5
607
100
AcDbEntity
8
0
100
AcDbEllipse
10
-20.974493333295626
20
25.050843042033168
30
0
11
0.86602419752767434
21
-0.50000209236000304
31
0.0
40
0.60012186894103781
41
2.3033213699855208
42
2.5182395188908373
0
LINE
5
608
100
AcDbEntity
8
0
100
AcDbLine
10
-17.400963770984333
20
23.502862837308889
30
0
11
-21.330553556160602
21
25.771624701566125
31
0
0
ELLIPSE
5
609
100
AcDbEntity
8
0
100
AcDbEllipse
10
-18.203213587825502
20
23.450840363155976
30
0
11
-0.86602419752767434
21
0.50000209236000304
31
0.0
40
0.60012186894103781
41
3.7649365815011864
42
3.9798538358626492
0
LINE
5
610
100
AcDbEntity
8
0
100
AcDbLine
10
-16.52320742526733
20
22.885401821204624
30
0
11
-16.337200292569168
21
22.935242041291438
31
0
0
LINE
5
611
100
AcDbEntity
8
0
100
AcDbLine
10
-16.337158951220001
20
2.6646863533920002
30
0
11
-16.523166577553678
21
2.7145274284777048
31
0
0
LINE
5
612
100
AcDbEntity
8
0
100
AcDbLine
10
-16.523166577553678
20
2.7145274284777048
30
0
11
-17.324906588437912
21
2.2516477844571163
31
0
0
ELLIPSE
5
613
100
AcDbEntity
8
0
100
AcDbEllipse
10
-18.203199769547361
20
2.149135702875995
30
0
11
-0.86602782425331792
21
-0.49999581987292396
31
0.0
40
0.60012186618154051
41
2.3032317523929784
42
2.5181641091044957
0
LINE
5
614
100
AcDbEntity
8
0
100
AcDbLine
10
-21.330489900233232
20
-0.1716358653030296
30
0
11
-17.400994276701745
21
2.0970356732193118
31
0
0
ELLIPSE
5
615
100
AcDbEntity
8
0
100
AcDbEllipse
10
-20.974484154950961
20
0.54914106062211054
30
0
11
0.86602782425331792
21
0.49999581987292396
31
0.0
40
0.60012186618154051
41
3.7650041660084668
42
3.979934364600668
0
LINE
5
616
100
AcDbEntity
8
0
100
AcDbLine
10
-21.502428189989313
20
-0.16021947319025645
30
0
11
-22.304157388111179
21
-0.62309191462455926
31
0
0
LINE
5
617
100
AcDbEntity
8
0
100
AcDbLine
10
-22.304157388111179
20
-0.62309191462455926
30
0
11
-22.353998222280044
21
-0.80909864186792446
31
0
0
LINE
5
618
100
AcDbEntity
8
0
100
AcDbLine
10
-46.03715895122
20
2.6646863533920002
30
0
11
-46.223166577553684
21
2.7145274284777048
31
0
0
LINE
5
619
100
AcDbEntity
8
0
100
AcDbLine
10
-46.223166577553684
20
2.7145274284777048
30
0
11
-47.024906588437922
21
2.2516477844571146
31
0
0
ELLIPSE
5
620
100
AcDbEntity
8
0
100
AcDbEllipse
10
-47.903199769547371
20
2.1491357028759954
30
0
11
-0.86602782425331792
21
-0.49999581987292396
31
0.0
40
0.60012186618154051
41
2.3032317523929824
42
2.5181641091044966
0
LINE
5
621
100
AcDbEntity
8
0
100
AcDbLine
10
-51.030489900233235
20
-0.17163586530302979
30
0
11
-47.100994276701755
21
2.097035673219307
31
0
0
ELLIPSE
5
622
100
AcDbEntity
8
0
100
AcDbEllipse
10
-50.674484154950967
20
0.54914106062211054
30
0
11
0.86602782425331792
21
0.49999581987292396
31
0.0
40
0.60012186618154051
41
3.7650041660085005
42
3.9799343646006884
0
LINE
5
623
100
AcDbEntity
8
0
100
AcDbLine
10
-51.202428189989305
20
-0.16021947319025936
30
0
11
-52.004157388111182
21
-0.62309191462455726
31
0
0
LINE
5
624
100
AcDbEntity
8
0
100
AcDbLine
10
-52.004157388111182
20
-0.62309191462455726
30
0
11
-52.053998222280043
21
-0.80909864186792446
31
0
0
LINE
5
625
100
AcDbEntity
8
0
100
AcDbLine
10
-84.348924118660008
20
-16.28475181037
30
0
11
-84.458904989250016
21
-16.394732680960004
31
0
0
LINE
5
626
100
AcDbEntity
8
0
100
AcDbLine
10
-84.348924118660008
20
-15.29957624541
30
0
11
-84.348924118660008
21
-16.28475181037
31
0
0
ELLIPSE
5
627
100
AcDbEntity
8
0
100
AcDbEllipse
10
-83.972378238347929
20
-14.520918602520002
30
0
11
0
21
1.0000000000000002
31
0.0
40
0.60012186986092952
41
2.3032400688480079
42
2.4633199064991866
0
LINE
5
628
100
AcDbEntity
8
0
100
AcDbLine
10
-84.418594366700006
20
-10.652229946540002
30
0
11
-84.41859436670326
21
-15.189607258504996
31
0
0
ELLIPSE
5
629
100
AcDbEntity
8
0
100
AcDbEllipse
10
-83.972378238351851
20
-11.320918602520001
30
0
11
0
21
-1.0000000000000002
31
0.0
40
0.60012186986092952
41
3.8198654006776112
42
3.9799452383272911
0
LINE
5
630
100
AcDbEntity
8
0
100
AcDbLine
10
-84.348924118660008
20
-9.5570853946850001
30
0
11
-84.34892411866025
21
-10.542260959633175
31
0
0
LINE
5
631
100
AcDbEntity
8
0
100
AcDbLine
10
-84.348924118660008
20
-9.5570853946850001
30
0
11
-84.458904989250016
21
-9.4471045240939997
31
0
0
SPLINE
5
632
100
AcDbEntity
8
0
100
AcDbSpline
70
0
71
3
72
12
73
8
74
0
42
0.000000001
43
0.0000000001
44
0.0000000001
40
0.00096617155879861181
40
0.00096617155879861181
40
0.00096617155879861181
40
0.00096617155879861181
40
0.053503429143144349
40
0.053503429143144349
40
0.10664452242061342
40
0.10664452242061342
40
0.15918530382540963
40
0.15918530382540963
40
0.15918530382540963
40
0.15918530382540963
10
-89.749657113654976
20
-11.116947683451341
30
0
10
-89.745989602956584
20
-11.219539069219529
30
0
10
-89.742698252490257
20
-11.346394977727176
30
0
10
-89.737304575430997
20
-11.63122824610636
30
0
10
-89.735153473940755
20
-11.793057291937325
30
0
10
-89.732329108965985
20
-12.128278987411649
30
0
10
-89.731606131020385
20
-12.305488721468885
30
0
10
-89.73160329465891
20
-12.480624658645352
30
0
0
LINE
5
633
100
AcDbEntity
8
0
100
AcDbLine
10
-89.731601296400001
20
-28.51222110798
30
0
11
-89.73160329465891
21
-12.480624658645352
31
0
0
LINE
5
634
100
AcDbEntity
8
0
100
AcDbLine
10
-81.289028564940381
20
-33.963734741517534
30
0
11
-89.23173851067375
21
-29.378009016253056
31
0
0
LINE
5
635
100
AcDbEntity
8
0
100
AcDbLine
10
80.289336972460021
20
-34.231601296400001
30
0
11
-80.28933700247245
21
-34.231601296400001
31
0
0
LINE
5
636
100
AcDbEntity
8
0
100
AcDbLine
10
89.231738366410113
20
-29.378009099547079
30
0
11
81.289028538941096
21
-33.963734756531601
31
0
0
LINE
5
637
100
AcDbEntity
8
0
100
AcDbLine
10
89.731601296400001
20
28.51222110798
30
0
11
89.731601296400001
21
-28.512221274558634
31
0
0
LINE
5
638
100
AcDbEntity
8
0
100
AcDbLine
10
81.289028564940381
20
33.963734741517534
30
0
11
89.23173851067375
21
29.378009016253056
31
0
0
LINE
5
639
100
AcDbEntity
8
0
100
AcDbLine
10
-80.289336972460021
20
34.231601296400001
30
0
11
80.289337002472422
21
34.231601296400001
31
0
0
LINE
5
640
100
AcDbEntity
8
0
100
AcDbLine
10
-89.231738366410113
20
29.378009099547079
30
0
11
-81.289028538941096
21
33.963734756531601
31
0
0
LINE
5
641
100
AcDbEntity
8
0
100
AcDbLine
10
-89.731601296400001
20
26.655496499850003
30
0
11
-89.731601296400001
21
28.512221274558634
31
0
0
SPLINE
5
642
100
AcDbEntity
8
0
100
AcDbSpline
70
0
71
3
72
12
73
8
74
0
42
0.000000001
43
0.0000000001
44
0.0000000001
40
0
40
0
40
0
40
0
40
0.054843027102190613
40
0.054843027102190613
40
0.10862551542146628
40
0.10862551542146628
40
0.15918365735434264
40
0.15918365735434264
40
0.15918365735434264
40
0.15918365735434264
10
-89.731601210463111
20
26.655496499851719
30
0
10
-89.731597554983978
20
26.472686410792381
30
0
10
-89.732396423594423
20
26.287510776203948
30
0
10
-89.73542344071582
20
25.944528657105902
30
0
10
-89.737663941662163
20
25.781961601388467
30
0
10
-89.743119803997331
20
25.504449910460345
30
0
10
-89.74632600523509
20
25.384047842557685
30
0
10
-89.749864209696497
20
25.286171298347753
30
0
0
ENDSEC
0
SECTION
2
OBJECTS
0
DICTIONARY
5
C
100
AcDbDictionary
3
ACAD_GROUP
350
D
3
ACAD_MLINESTYLE
350
17
0
DICTIONARY
5
D
100
AcDbDictionary
0
DICTIONARY
5
1A
330
C
100
AcDbDictionary
0
DICTIONARY
5
17
100
AcDbDictionary
0
ENDSEC
0
EOF
