  0
SECTION
  2
HEADER
  9
$ANGBASE
  50
0.0
  9
$ANGDIR
  70
1
  9
$MEASUREMENT
  70
1
  0
ENDSEC
  0
SECTION
  2
TABLES
  0
TABLE
  2
LTYPE
  70
4
  0
LTYPE
  5
40F
  2
CONTINUOUS
  70
0
  3
Solid line
  72
65
  73
0
  40
0.0
  0
LTYPE
  5
410
  2
DASHDOT
 70
0
  3
Dash Dot ____ _ ____ _
 72
65
 73
4
 40
2.0
 49
1.25
 49
-0.25
 49
0.25
 49
-0.25
  0
LTYPE
  5
411
  2
DASHED
 70
0
  3
Dashed __ __ __ __ __
 72
65
 73
2
 40
0.75
 49
0.5
 49
-0.25
  0
LTYPE
  5
43B
  2
DOTTED
 70
0
  3
Dotted .  .  .  .
 72
65
 73
2
 40
0.2
 49
0.0
 49
-0.2
  0
ENDTAB
  0
TABLE
  2
STYLE
  70
4
  0
STYLE
  2
KICAD
  70
0
  40
0
  41
1
  42
1
  50
0
  71
0
  3
isocp.shx
  0
STYLE
  2
KICADB
  70
0
  40
0
  41
1
  42
1
  50
0
  71
0
  3
isocp.shx
  0
STYLE
  2
KICADI
  70
0
  40
0
  41
1
  42
1
  50
15
  71
0
  3
isocp.shx
  0
STYLE
  2
KICADBI
  70
0
  40
0
  41
1
  42
1
  50
15
  71
0
  3
isocp.shx
  0
ENDTAB
  0
TABLE
  2
LAYER
  70
1
  0
LAYER
  2
BLACK
  70
0
  62
7
  6
CONTINUOUS
  0
ENDTAB
  0
ENDSEC
  0
SECTION
  2
ENTITIES
0
LINE
8
BLACK
6
CONTINUOUS
10
157.3045630000000017
20
-132.1147399999999834
11
157.995237000000003
21
-132.3661249999999825
0
LINE
8
BLACK
6
CONTINUOUS
10
157.995237000000003
20
-132.3661249999999825
11
158.0494419999999991
21
-132.3990179999999839
0
LINE
8
BLACK
6
CONTINUOUS
10
158.0494419999999991
20
-132.3990179999999839
11
158.0869339999999852
21
-132.4501500000000078
0
LINE
8
BLACK
6
CONTINUOUS
10
158.0869339999999852
20
-132.4501500000000078
11
158.1020029999999963
21
-132.5117369999999823
0
LINE
8
BLACK
6
CONTINUOUS
10
158.1020029999999963
20
-132.5117369999999823
11
158.0923579999999902
21
-132.574403999999987
0
LINE
8
BLACK
6
CONTINUOUS
10
158.0923579999999902
20
-132.574403999999987
11
157.9812019999999961
21
-132.8798040000000071
0
LINE
8
BLACK
6
CONTINUOUS
10
157.9812019999999961
20
-132.8798040000000071
11
157.9483089999999947
21
-132.9340090000000032
0
LINE
8
BLACK
6
CONTINUOUS
10
157.9483089999999947
20
-132.9340090000000032
11
157.8971769999999992
21
-132.9715009999999893
0
LINE
8
BLACK
6
CONTINUOUS
10
157.8971769999999992
20
-132.9715009999999893
11
157.8355899999999963
21
-132.9865700000000004
0
LINE
8
BLACK
6
CONTINUOUS
10
157.8355899999999963
20
-132.9865700000000004
11
157.7729229999999916
21
-132.9769259999999917
0
LINE
8
BLACK
6
CONTINUOUS
10
157.7729229999999916
20
-132.9769259999999917
11
157.0822489999999902
21
-132.7255409999999927
0
LINE
8
BLACK
6
CONTINUOUS
10
157.0822489999999902
20
-132.7255409999999927
11
157.0280439999999942
21
-132.6926479999999913
0
LINE
8
BLACK
6
CONTINUOUS
10
157.0280439999999942
20
-132.6926479999999913
11
156.9905519999999797
21
-132.6415159999999958
0
LINE
8
BLACK
6
CONTINUOUS
10
156.9905519999999797
20
-132.6415159999999958
11
156.975482999999997
21
-132.5799289999999928
0
LINE
8
BLACK
6
CONTINUOUS
10
156.975482999999997
20
-132.5799289999999928
11
156.9851280000000031
21
-132.5172619999999881
0
LINE
8
BLACK
6
CONTINUOUS
10
156.9851280000000031
20
-132.5172619999999881
11
157.0962839999999971
21
-132.2118619999999964
0
LINE
8
BLACK
6
CONTINUOUS
10
157.0962839999999971
20
-132.2118619999999964
11
157.1291769999999985
21
-132.1576570000000004
0
LINE
8
BLACK
6
CONTINUOUS
10
157.1291769999999985
20
-132.1576570000000004
11
157.1803089999999941
21
-132.1201649999999859
0
LINE
8
BLACK
6
CONTINUOUS
10
157.1803089999999941
20
-132.1201649999999859
11
157.241895999999997
21
-132.1050960000000032
0
LINE
8
BLACK
6
CONTINUOUS
10
157.241895999999997
20
-132.1050960000000032
11
157.3045630000000017
21
-132.1147399999999834
0
LINE
8
BLACK
6
CONTINUOUS
10
155.2372389999999882
20
-131.3622959999999864
11
155.9279129999999896
21
-131.6136809999999855
0
LINE
8
BLACK
6
CONTINUOUS
10
155.9279129999999896
20
-131.6136809999999855
11
155.9821179999999856
21
-131.6465739999999869
0
LINE
8
BLACK
6
CONTINUOUS
10
155.9821179999999856
20
-131.6465739999999869
11
156.0196100000000001
21
-131.6977059999999824
0
LINE
8
BLACK
6
CONTINUOUS
10
156.0196100000000001
20
-131.6977059999999824
11
156.0346789999999828
21
-131.7592929999999853
0
LINE
8
BLACK
6
CONTINUOUS
10
156.0346789999999828
20
-131.7592929999999853
11
156.0250340000000051
21
-131.82195999999999
0
LINE
8
BLACK
6
CONTINUOUS
10
156.0250340000000051
20
-131.82195999999999
11
155.9138779999999826
21
-132.1273599999999817
0
LINE
8
BLACK
6
CONTINUOUS
10
155.9138779999999826
20
-132.1273599999999817
11
155.8809849999999813
21
-132.1815650000000062
0
LINE
8
BLACK
6
CONTINUOUS
10
155.8809849999999813
20
-132.1815650000000062
11
155.8298529999999857
21
-132.2190569999999923
0
LINE
8
BLACK
6
CONTINUOUS
10
155.8298529999999857
20
-132.2190569999999923
11
155.7682659999999828
21
-132.2341260000000034
0
LINE
8
BLACK
6
CONTINUOUS
10
155.7682659999999828
20
-132.2341260000000034
11
155.7055990000000065
21
-132.2244819999999947
0
LINE
8
BLACK
6
CONTINUOUS
10
155.7055990000000065
20
-132.2244819999999947
11
155.0149250000000052
21
-131.9730969999999957
0
LINE
8
BLACK
6
CONTINUOUS
10
155.0149250000000052
20
-131.9730969999999957
11
154.9607199999999807
21
-131.9402039999999943
0
LINE
8
BLACK
6
CONTINUOUS
10
154.9607199999999807
20
-131.9402039999999943
11
154.9232279999999946
21
-131.8890719999999988
0
LINE
8
BLACK
6
CONTINUOUS
10
154.9232279999999946
20
-131.8890719999999988
11
154.9081589999999835
21
-131.8274849999999958
0
LINE
8
BLACK
6
CONTINUOUS
10
154.9081589999999835
20
-131.8274849999999958
11
154.9178039999999896
21
-131.7648179999999911
0
LINE
8
BLACK
6
CONTINUOUS
10
154.9178039999999896
20
-131.7648179999999911
11
155.0289599999999837
21
-131.4594179999999994
0
LINE
8
BLACK
6
CONTINUOUS
10
155.0289599999999837
20
-131.4594179999999994
11
155.0618529999999851
21
-131.4052130000000034
0
LINE
8
BLACK
6
CONTINUOUS
10
155.0618529999999851
20
-131.4052130000000034
11
155.1129849999999806
21
-131.3677209999999889
0
LINE
8
BLACK
6
CONTINUOUS
10
155.1129849999999806
20
-131.3677209999999889
11
155.1745719999999835
21
-131.3526520000000062
0
LINE
8
BLACK
6
CONTINUOUS
10
155.1745719999999835
20
-131.3526520000000062
11
155.2372389999999882
21
-131.3622959999999864
0
LINE
8
BLACK
6
CONTINUOUS
10
153.9904999999999973
20
-131.1839089999999999
11
154.3381870000000049
21
-131.3104569999999853
0
LINE
8
BLACK
6
CONTINUOUS
10
154.3381870000000049
20
-131.3104569999999853
11
154.3832179999999994
21
-131.3377820000000042
0
LINE
8
BLACK
6
CONTINUOUS
10
154.3832179999999994
20
-131.3377820000000042
11
154.4143650000000036
21
-131.3802619999999877
0
LINE
8
BLACK
6
CONTINUOUS
10
154.4143650000000036
20
-131.3802619999999877
11
154.4268859999999961
21
-131.4314269999999851
0
LINE
8
BLACK
6
CONTINUOUS
10
154.4268859999999961
20
-131.4314269999999851
11
154.4188719999999932
21
-131.4834879999999941
0
LINE
8
BLACK
6
CONTINUOUS
10
154.4188719999999932
20
-131.4834879999999941
11
154.3265269999999987
21
-131.7372049999999888
0
LINE
8
BLACK
6
CONTINUOUS
10
154.3265269999999987
20
-131.7372049999999888
11
154.2992009999999823
21
-131.7822369999999808
0
LINE
8
BLACK
6
CONTINUOUS
10
154.2992009999999823
20
-131.7822369999999808
11
154.2567219999999963
21
-131.8133829999999875
0
LINE
8
BLACK
6
CONTINUOUS
10
154.2567219999999963
20
-131.8133829999999875
11
154.2055569999999989
21
-131.82590399999998
0
LINE
8
BLACK
6
CONTINUOUS
10
154.2055569999999989
20
-131.82590399999998
11
154.1534959999999899
21
-131.817891000000003
0
LINE
8
BLACK
6
CONTINUOUS
10
154.1534959999999899
20
-131.817891000000003
11
153.8058089999999822
21
-131.6913429999999892
0
LINE
8
BLACK
6
CONTINUOUS
10
153.8058089999999822
20
-131.6913429999999892
11
153.7607779999999877
21
-131.6640179999999987
0
LINE
8
BLACK
6
CONTINUOUS
10
153.7607779999999877
20
-131.6640179999999987
11
153.7296309999999835
21
-131.6215379999999868
0
LINE
8
BLACK
6
CONTINUOUS
10
153.7296309999999835
20
-131.6215379999999868
11
153.717109999999991
21
-131.5703729999999894
0
LINE
8
BLACK
6
CONTINUOUS
10
153.717109999999991
20
-131.5703729999999894
11
153.7251239999999939
21
-131.5183119999999803
0
LINE
8
BLACK
6
CONTINUOUS
10
153.7251239999999939
20
-131.5183119999999803
11
153.8174689999999885
21
-131.2645949999999857
0
LINE
8
BLACK
6
CONTINUOUS
10
153.8174689999999885
20
-131.2645949999999857
11
153.8447950000000048
21
-131.2195629999999937
0
LINE
8
BLACK
6
CONTINUOUS
10
153.8447950000000048
20
-131.2195629999999937
11
153.8872739999999908
21
-131.188416999999987
0
LINE
8
BLACK
6
CONTINUOUS
10
153.8872739999999908
20
-131.188416999999987
11
153.9384389999999883
21
-131.1758959999999945
0
LINE
8
BLACK
6
CONTINUOUS
10
153.9384389999999883
20
-131.1758959999999945
11
153.9904999999999973
21
-131.1839089999999999
0
LINE
8
BLACK
6
CONTINUOUS
10
155.5621579999999824
20
-130.4695879999999875
11
156.2528319999999837
21
-130.7209729999999865
0
LINE
8
BLACK
6
CONTINUOUS
10
156.2528319999999837
20
-130.7209729999999865
11
156.3070369999999798
21
-130.7538659999999879
0
LINE
8
BLACK
6
CONTINUOUS
10
156.3070369999999798
20
-130.7538659999999879
11
156.3445289999999943
21
-130.8049979999999834
0
LINE
8
BLACK
6
CONTINUOUS
10
156.3445289999999943
20
-130.8049979999999834
11
156.3595980000000054
21
-130.8665849999999864
0
LINE
8
BLACK
6
CONTINUOUS
10
156.3595980000000054
20
-130.8665849999999864
11
156.3499529999999993
21
-130.9292519999999911
0
LINE
8
BLACK
6
CONTINUOUS
10
156.3499529999999993
20
-130.9292519999999911
11
156.2387970000000053
21
-131.2346519999999828
0
LINE
8
BLACK
6
CONTINUOUS
10
156.2387970000000053
20
-131.2346519999999828
11
156.2059040000000039
21
-131.2888570000000072
0
LINE
8
BLACK
6
CONTINUOUS
10
156.2059040000000039
20
-131.2888570000000072
11
156.1547719999999799
21
-131.3263489999999933
0
LINE
8
BLACK
6
CONTINUOUS
10
156.1547719999999799
20
-131.3263489999999933
11
156.0931850000000054
21
-131.3414180000000044
0
LINE
8
BLACK
6
CONTINUOUS
10
156.0931850000000054
20
-131.3414180000000044
11
156.0305180000000007
21
-131.3317739999999958
0
LINE
8
BLACK
6
CONTINUOUS
10
156.0305180000000007
20
-131.3317739999999958
11
155.3398439999999994
21
-131.0803889999999967
0
LINE
8
BLACK
6
CONTINUOUS
10
155.3398439999999994
20
-131.0803889999999967
11
155.2856390000000033
21
-131.0474959999999953
0
LINE
8
BLACK
6
CONTINUOUS
10
155.2856390000000033
20
-131.0474959999999953
11
155.2481469999999888
21
-130.9963639999999998
0
LINE
8
BLACK
6
CONTINUOUS
10
155.2481469999999888
20
-130.9963639999999998
11
155.2330780000000061
21
-130.9347769999999969
0
LINE
8
BLACK
6
CONTINUOUS
10
155.2330780000000061
20
-130.9347769999999969
11
155.2427229999999838
21
-130.8721099999999922
0
LINE
8
BLACK
6
CONTINUOUS
10
155.2427229999999838
20
-130.8721099999999922
11
155.3538790000000063
21
-130.5667100000000005
0
LINE
8
BLACK
6
CONTINUOUS
10
155.3538790000000063
20
-130.5667100000000005
11
155.3867719999999792
21
-130.5125050000000044
0
LINE
8
BLACK
6
CONTINUOUS
10
155.3867719999999792
20
-130.5125050000000044
11
155.4379040000000032
21
-130.4750129999999899
0
LINE
8
BLACK
6
CONTINUOUS
10
155.4379040000000032
20
-130.4750129999999899
11
155.4994910000000061
21
-130.4599440000000072
0
LINE
8
BLACK
6
CONTINUOUS
10
155.4994910000000061
20
-130.4599440000000072
11
155.5621579999999824
21
-130.4695879999999875
0
LINE
8
BLACK
6
CONTINUOUS
10
157.9544009999999901
20
-130.3293239999999855
11
158.6450749999999914
21
-130.5807089999999846
0
LINE
8
BLACK
6
CONTINUOUS
10
158.6450749999999914
20
-130.5807089999999846
11
158.6992799999999875
21
-130.613601999999986
0
LINE
8
BLACK
6
CONTINUOUS
10
158.6992799999999875
20
-130.613601999999986
11
158.736772000000002
21
-130.6647339999999815
0
LINE
8
BLACK
6
CONTINUOUS
10
158.736772000000002
20
-130.6647339999999815
11
158.7518409999999847
21
-130.7263209999999845
0
LINE
8
BLACK
6
CONTINUOUS
10
158.7518409999999847
20
-130.7263209999999845
11
158.742196000000007
21
-130.7889879999999891
0
LINE
8
BLACK
6
CONTINUOUS
10
158.742196000000007
20
-130.7889879999999891
11
158.6310399999999845
21
-131.0943879999999808
0
LINE
8
BLACK
6
CONTINUOUS
10
158.6310399999999845
20
-131.0943879999999808
11
158.5981469999999831
21
-131.1485930000000053
0
LINE
8
BLACK
6
CONTINUOUS
10
158.5981469999999831
20
-131.1485930000000053
11
158.5470149999999876
21
-131.1860849999999914
0
LINE
8
BLACK
6
CONTINUOUS
10
158.5470149999999876
20
-131.1860849999999914
11
158.4854279999999846
21
-131.2011540000000025
0
LINE
8
BLACK
6
CONTINUOUS
10
158.4854279999999846
20
-131.2011540000000025
11
158.42276099999998
21
-131.1915099999999939
0
LINE
8
BLACK
6
CONTINUOUS
10
158.42276099999998
20
-131.1915099999999939
11
157.732087000000007
21
-130.9401249999999948
0
LINE
8
BLACK
6
CONTINUOUS
10
157.732087000000007
20
-130.9401249999999948
11
157.6778819999999826
21
-130.9072319999999934
0
LINE
8
BLACK
6
CONTINUOUS
10
157.6778819999999826
20
-130.9072319999999934
11
157.6403899999999965
21
-130.8560999999999979
0
LINE
8
BLACK
6
CONTINUOUS
10
157.6403899999999965
20
-130.8560999999999979
11
157.6253209999999854
21
-130.7945129999999949
0
LINE
8
BLACK
6
CONTINUOUS
10
157.6253209999999854
20
-130.7945129999999949
11
157.6349659999999915
21
-130.7318459999999902
0
LINE
8
BLACK
6
CONTINUOUS
10
157.6349659999999915
20
-130.7318459999999902
11
157.7461219999999855
21
-130.4264459999999985
0
LINE
8
BLACK
6
CONTINUOUS
10
157.7461219999999855
20
-130.4264459999999985
11
157.7790149999999869
21
-130.3722410000000025
0
LINE
8
BLACK
6
CONTINUOUS
10
157.7790149999999869
20
-130.3722410000000025
11
157.8301469999999824
21
-130.334748999999988
0
LINE
8
BLACK
6
CONTINUOUS
10
157.8301469999999824
20
-130.334748999999988
11
157.8917339999999854
21
-130.3196800000000053
0
LINE
8
BLACK
6
CONTINUOUS
10
157.8917339999999854
20
-130.3196800000000053
11
157.9544009999999901
21
-130.3293239999999855
0
LINE
8
BLACK
6
CONTINUOUS
10
145.3738139999999817
20
-129.9105409999999949
11
145.7635259999999846
21
-130.1355409999999893
0
LINE
8
BLACK
6
CONTINUOUS
10
145.7635259999999846
20
-130.1355409999999893
11
145.8295300000000054
21
-130.1934249999999906
0
LINE
8
BLACK
6
CONTINUOUS
10
145.8295300000000054
20
-130.1934249999999906
11
145.8683589999999981
21
-130.2721619999999803
0
LINE
8
BLACK
6
CONTINUOUS
10
145.8683589999999981
20
-130.2721619999999803
11
145.874100999999996
21
-130.3597649999999817
0
LINE
8
BLACK
6
CONTINUOUS
10
145.874100999999996
20
-130.3597649999999817
11
145.8458809999999914
21
-130.4428969999999879
0
LINE
8
BLACK
6
CONTINUOUS
10
145.8458809999999914
20
-130.4428969999999879
11
145.5958809999999914
21
-130.8759090000000072
0
LINE
8
BLACK
6
CONTINUOUS
10
145.5958809999999914
20
-130.8759090000000072
11
145.5379969999999901
21
-130.941913999999997
0
LINE
8
BLACK
6
CONTINUOUS
10
145.5379969999999901
20
-130.941913999999997
11
145.4592600000000004
21
-130.9807429999999897
0
LINE
8
BLACK
6
CONTINUOUS
10
145.4592600000000004
20
-130.9807429999999897
11
145.371656999999999
21
-130.9864849999999876
0
LINE
8
BLACK
6
CONTINUOUS
10
145.371656999999999
20
-130.9864849999999876
11
145.2885259999999903
21
-130.958264999999983
0
LINE
8
BLACK
6
CONTINUOUS
10
145.2885259999999903
20
-130.958264999999983
11
144.8988139999999873
21
-130.7332649999999887
0
LINE
8
BLACK
6
CONTINUOUS
10
144.8988139999999873
20
-130.7332649999999887
11
144.8328099999999949
21
-130.6753809999999874
0
LINE
8
BLACK
6
CONTINUOUS
10
144.8328099999999949
20
-130.6753809999999874
11
144.7939810000000023
21
-130.5966439999999977
0
LINE
8
BLACK
6
CONTINUOUS
10
144.7939810000000023
20
-130.5966439999999977
11
144.7882390000000044
21
-130.5090409999999963
0
LINE
8
BLACK
6
CONTINUOUS
10
144.7882390000000044
20
-130.5090409999999963
11
144.8164589999999805
21
-130.4259089999999901
0
LINE
8
BLACK
6
CONTINUOUS
10
144.8164589999999805
20
-130.4259089999999901
11
145.0664589999999805
21
-129.9928969999999993
0
LINE
8
BLACK
6
CONTINUOUS
10
145.0664589999999805
20
-129.9928969999999993
11
145.1243429999999819
21
-129.926891999999981
0
LINE
8
BLACK
6
CONTINUOUS
10
145.1243429999999819
20
-129.926891999999981
11
145.2030799999999999
21
-129.8880629999999883
0
LINE
8
BLACK
6
CONTINUOUS
10
145.2030799999999999
20
-129.8880629999999883
11
145.2906830000000014
21
-129.8823209999999904
0
LINE
8
BLACK
6
CONTINUOUS
10
145.2906830000000014
20
-129.8823209999999904
11
145.3738139999999817
21
-129.9105409999999949
0
LINE
8
BLACK
6
CONTINUOUS
10
148.5856569999999977
20
-129.8460869999999829
11
148.6501229999999794
21
-129.9056789999999921
0
LINE
8
BLACK
6
CONTINUOUS
10
148.6501229999999794
20
-129.9056789999999921
11
148.9440160000000049
21
-130.3101879999999824
0
LINE
8
BLACK
6
CONTINUOUS
10
148.9440160000000049
20
-130.3101879999999824
11
148.9807710000000043
21
-130.3899140000000045
0
LINE
8
BLACK
6
CONTINUOUS
10
148.9807710000000043
20
-130.3899140000000045
11
148.984217000000001
21
-130.4776369999999872
0
LINE
8
BLACK
6
CONTINUOUS
10
148.984217000000001
20
-130.4776369999999872
11
148.9538309999999797
21
-130.5600019999999972
0
LINE
8
BLACK
6
CONTINUOUS
10
148.9538309999999797
20
-130.5600019999999972
11
148.8942389999999989
21
-130.6244680000000074
0
LINE
8
BLACK
6
CONTINUOUS
10
148.8942389999999989
20
-130.6244680000000074
11
148.5301809999999989
21
-130.8889719999999954
0
LINE
8
BLACK
6
CONTINUOUS
10
148.5301809999999989
20
-130.8889719999999954
11
148.4504550000000052
21
-130.9257259999999974
0
LINE
8
BLACK
6
CONTINUOUS
10
148.4504550000000052
20
-130.9257259999999974
11
148.3627319999999941
21
-130.9291729999999916
0
LINE
8
BLACK
6
CONTINUOUS
10
148.3627319999999941
20
-130.9291729999999916
11
148.280366999999984
21
-130.8987869999999987
0
LINE
8
BLACK
6
CONTINUOUS
10
148.280366999999984
20
-130.8987869999999987
11
148.2159010000000023
21
-130.8391949999999895
0
LINE
8
BLACK
6
CONTINUOUS
10
148.2159010000000023
20
-130.8391949999999895
11
147.9220080000000053
21
-130.4346859999999992
0
LINE
8
BLACK
6
CONTINUOUS
10
147.9220080000000053
20
-130.4346859999999992
11
147.8852530000000058
21
-130.3549600000000055
0
LINE
8
BLACK
6
CONTINUOUS
10
147.8852530000000058
20
-130.3549600000000055
11
147.8818069999999807
21
-130.2672369999999944
0
LINE
8
BLACK
6
CONTINUOUS
10
147.8818069999999807
20
-130.2672369999999944
11
147.912193000000002
21
-130.1848719999999844
0
LINE
8
BLACK
6
CONTINUOUS
10
147.912193000000002
20
-130.1848719999999844
11
147.9717849999999828
21
-130.1204060000000027
0
LINE
8
BLACK
6
CONTINUOUS
10
147.9717849999999828
20
-130.1204060000000027
11
148.3358429999999828
21
-129.8559019999999862
0
LINE
8
BLACK
6
CONTINUOUS
10
148.3358429999999828
20
-129.8559019999999862
11
148.415569000000005
21
-129.8191479999999842
0
LINE
8
BLACK
6
CONTINUOUS
10
148.415569000000005
20
-129.8191479999999842
11
148.5032919999999876
21
-129.81570099999999
0
LINE
8
BLACK
6
CONTINUOUS
10
148.5032919999999876
20
-129.81570099999999
11
148.5856569999999977
21
-129.8460869999999829
0
LINE
8
BLACK
6
CONTINUOUS
10
154.3393599999999992
20
-130.2254230000000064
11
154.6870470000000068
21
-130.3519709999999918
0
LINE
8
BLACK
6
CONTINUOUS
10
154.6870470000000068
20
-130.3519709999999918
11
154.7320780000000013
21
-130.3792959999999823
0
LINE
8
BLACK
6
CONTINUOUS
10
154.7320780000000013
20
-130.3792959999999823
11
154.7632250000000056
21
-130.4217759999999942
0
LINE
8
BLACK
6
CONTINUOUS
10
154.7632250000000056
20
-130.4217759999999942
11
154.775745999999998
21
-130.4729409999999916
0
LINE
8
BLACK
6
CONTINUOUS
10
154.775745999999998
20
-130.4729409999999916
11
154.7677319999999952
21
-130.5250020000000006
0
LINE
8
BLACK
6
CONTINUOUS
10
154.7677319999999952
20
-130.5250020000000006
11
154.6753870000000006
21
-130.7787189999999953
0
LINE
8
BLACK
6
CONTINUOUS
10
154.6753870000000006
20
-130.7787189999999953
11
154.6480609999999842
21
-130.8237509999999872
0
LINE
8
BLACK
6
CONTINUOUS
10
154.6480609999999842
20
-130.8237509999999872
11
154.6055819999999983
21
-130.854896999999994
0
LINE
8
BLACK
6
CONTINUOUS
10
154.6055819999999983
20
-130.854896999999994
11
154.5544170000000008
21
-130.8674179999999865
0
LINE
8
BLACK
6
CONTINUOUS
10
154.5544170000000008
20
-130.8674179999999865
11
154.5023559999999918
21
-130.8594049999999811
0
LINE
8
BLACK
6
CONTINUOUS
10
154.5023559999999918
20
-130.8594049999999811
11
154.1546689999999842
21
-130.7328569999999957
0
LINE
8
BLACK
6
CONTINUOUS
10
154.1546689999999842
20
-130.7328569999999957
11
154.1096379999999897
21
-130.7055320000000052
0
LINE
8
BLACK
6
CONTINUOUS
10
154.1096379999999897
20
-130.7055320000000052
11
154.0784909999999854
21
-130.6630519999999933
0
LINE
8
BLACK
6
CONTINUOUS
10
154.0784909999999854
20
-130.6630519999999933
11
154.065969999999993
21
-130.6118869999999959
0
LINE
8
BLACK
6
CONTINUOUS
10
154.065969999999993
20
-130.6118869999999959
11
154.0739839999999958
21
-130.5598259999999868
0
LINE
8
BLACK
6
CONTINUOUS
10
154.0739839999999958
20
-130.5598259999999868
11
154.1663289999999904
21
-130.3061089999999922
0
LINE
8
BLACK
6
CONTINUOUS
10
154.1663289999999904
20
-130.3061089999999922
11
154.1936550000000068
21
-130.2610770000000002
0
LINE
8
BLACK
6
CONTINUOUS
10
154.1936550000000068
20
-130.2610770000000002
11
154.2361339999999927
21
-130.2299309999999934
0
LINE
8
BLACK
6
CONTINUOUS
10
154.2361339999999927
20
-130.2299309999999934
11
154.2872989999999902
21
-130.217410000000001
0
LINE
8
BLACK
6
CONTINUOUS
10
154.2872989999999902
20
-130.217410000000001
11
154.3393599999999992
21
-130.2254230000000064
0
LINE
8
BLACK
6
CONTINUOUS
10
147.5607169999999826
20
-130.2412009999999896
11
146.9478819999999928
21
-130.7554309999999873
0
LINE
8
BLACK
6
CONTINUOUS
10
146.9478819999999928
20
-130.7554309999999873
11
146.369372999999996
21
-130.0659909999999968
0
LINE
8
BLACK
6
CONTINUOUS
10
146.369372999999996
20
-130.0659909999999968
11
146.9822079999999858
21
-129.5517609999999991
0
LINE
8
BLACK
6
CONTINUOUS
10
146.9822079999999858
20
-129.5517609999999991
11
147.5607169999999826
21
-130.2412009999999896
0
LINE
8
BLACK
6
CONTINUOUS
10
155.887077000000005
20
-129.5768799999999885
11
156.5777510000000063
21
-129.8282649999999876
0
LINE
8
BLACK
6
CONTINUOUS
10
156.5777510000000063
20
-129.8282649999999876
11
156.6319560000000024
21
-129.861157999999989
0
LINE
8
BLACK
6
CONTINUOUS
10
156.6319560000000024
20
-129.861157999999989
11
156.6694479999999885
21
-129.9122899999999845
0
LINE
8
BLACK
6
CONTINUOUS
10
156.6694479999999885
20
-129.9122899999999845
11
156.6845169999999996
21
-129.9738769999999874
0
LINE
8
BLACK
6
CONTINUOUS
10
156.6845169999999996
20
-129.9738769999999874
11
156.6748719999999935
21
-130.0365439999999921
0
LINE
8
BLACK
6
CONTINUOUS
10
156.6748719999999935
20
-130.0365439999999921
11
156.5637159999999994
21
-130.3419439999999838
0
LINE
8
BLACK
6
CONTINUOUS
10
156.5637159999999994
20
-130.3419439999999838
11
156.530822999999998
21
-130.3961490000000083
0
LINE
8
BLACK
6
CONTINUOUS
10
156.530822999999998
20
-130.3961490000000083
11
156.4796910000000025
21
-130.4336409999999944
0
LINE
8
BLACK
6
CONTINUOUS
10
156.4796910000000025
20
-130.4336409999999944
11
156.4181039999999996
21
-130.4487100000000055
0
LINE
8
BLACK
6
CONTINUOUS
10
156.4181039999999996
20
-130.4487100000000055
11
156.3554369999999949
21
-130.4390659999999968
0
LINE
8
BLACK
6
CONTINUOUS
10
156.3554369999999949
20
-130.4390659999999968
11
155.6647629999999936
21
-130.1876809999999978
0
LINE
8
BLACK
6
CONTINUOUS
10
155.6647629999999936
20
-130.1876809999999978
11
155.6105579999999975
21
-130.1547879999999964
0
LINE
8
BLACK
6
CONTINUOUS
10
155.6105579999999975
20
-130.1547879999999964
11
155.573065999999983
21
-130.1036560000000009
0
LINE
8
BLACK
6
CONTINUOUS
10
155.573065999999983
20
-130.1036560000000009
11
155.5579970000000003
21
-130.0420689999999979
0
LINE
8
BLACK
6
CONTINUOUS
10
155.5579970000000003
20
-130.0420689999999979
11
155.5676420000000064
21
-129.9794019999999932
0
LINE
8
BLACK
6
CONTINUOUS
10
155.5676420000000064
20
-129.9794019999999932
11
155.6787980000000005
21
-129.6740020000000015
0
LINE
8
BLACK
6
CONTINUOUS
10
155.6787980000000005
20
-129.6740020000000015
11
155.7116910000000018
21
-129.6197970000000055
0
LINE
8
BLACK
6
CONTINUOUS
10
155.7116910000000018
20
-129.6197970000000055
11
155.7628229999999974
21
-129.582304999999991
0
LINE
8
BLACK
6
CONTINUOUS
10
155.7628229999999974
20
-129.582304999999991
11
155.8244100000000003
21
-129.5672360000000083
0
LINE
8
BLACK
6
CONTINUOUS
10
155.8244100000000003
20
-129.5672360000000083
11
155.887077000000005
21
-129.5768799999999885
0
LINE
8
BLACK
6
CONTINUOUS
10
144.0314740000000029
20
-129.1355409999999893
11
144.4211860000000058
21
-129.3605409999999836
0
LINE
8
BLACK
6
CONTINUOUS
10
144.4211860000000058
20
-129.3605409999999836
11
144.4871899999999982
21
-129.4184249999999849
0
LINE
8
BLACK
6
CONTINUOUS
10
144.4871899999999982
20
-129.4184249999999849
11
144.5260189999999909
21
-129.497162000000003
0
LINE
8
BLACK
6
CONTINUOUS
10
144.5260189999999909
20
-129.497162000000003
11
144.5317609999999888
21
-129.5847650000000044
0
LINE
8
BLACK
6
CONTINUOUS
10
144.5317609999999888
20
-129.5847650000000044
11
144.5035409999999843
21
-129.6678969999999822
0
LINE
8
BLACK
6
CONTINUOUS
10
144.5035409999999843
20
-129.6678969999999822
11
144.2535409999999843
21
-130.1009090000000015
0
LINE
8
BLACK
6
CONTINUOUS
10
144.2535409999999843
20
-130.1009090000000015
11
144.1956569999999829
21
-130.1669139999999913
0
LINE
8
BLACK
6
CONTINUOUS
10
144.1956569999999829
20
-130.1669139999999913
11
144.1169199999999933
21
-130.205742999999984
0
LINE
8
BLACK
6
CONTINUOUS
10
144.1169199999999933
20
-130.205742999999984
11
144.0293169999999918
21
-130.2114849999999819
0
LINE
8
BLACK
6
CONTINUOUS
10
144.0293169999999918
20
-130.2114849999999819
11
143.9461859999999831
21
-130.1832650000000058
0
LINE
8
BLACK
6
CONTINUOUS
10
143.9461859999999831
20
-130.1832650000000058
11
143.5564739999999802
21
-129.958264999999983
0
LINE
8
BLACK
6
CONTINUOUS
10
143.5564739999999802
20
-129.958264999999983
11
143.4904699999999877
21
-129.9003809999999817
0
LINE
8
BLACK
6
CONTINUOUS
10
143.4904699999999877
20
-129.9003809999999817
11
143.4516409999999951
21
-129.821643999999992
0
LINE
8
BLACK
6
CONTINUOUS
10
143.4516409999999951
20
-129.821643999999992
11
143.4458989999999972
21
-129.7340409999999906
0
LINE
8
BLACK
6
CONTINUOUS
10
143.4458989999999972
20
-129.7340409999999906
11
143.4741190000000017
21
-129.6509089999999844
0
LINE
8
BLACK
6
CONTINUOUS
10
143.4741190000000017
20
-129.6509089999999844
11
143.7241190000000017
21
-129.2178969999999936
0
LINE
8
BLACK
6
CONTINUOUS
10
143.7241190000000017
20
-129.2178969999999936
11
143.7820030000000031
21
-129.1518920000000037
0
LINE
8
BLACK
6
CONTINUOUS
10
143.7820030000000031
20
-129.1518920000000037
11
143.8607399999999927
21
-129.1130629999999826
0
LINE
8
BLACK
6
CONTINUOUS
10
143.8607399999999927
20
-129.1130629999999826
11
143.9483429999999942
21
-129.1073209999999847
0
LINE
8
BLACK
6
CONTINUOUS
10
143.9483429999999942
20
-129.1073209999999847
11
144.0314740000000029
21
-129.1355409999999893
0
LINE
8
BLACK
6
CONTINUOUS
10
154.6180579999999907
20
-129.5428650000000061
11
154.9375529999999799
21
-129.6591509999999801
0
LINE
8
BLACK
6
CONTINUOUS
10
154.9375529999999799
20
-129.6591509999999801
11
154.9842529999999954
21
-129.6874899999999968
0
LINE
8
BLACK
6
CONTINUOUS
10
154.9842529999999954
20
-129.6874899999999968
11
155.0165539999999851
21
-129.7315419999999904
0
LINE
8
BLACK
6
CONTINUOUS
10
155.0165539999999851
20
-129.7315419999999904
11
155.0295370000000048
21
-129.7846009999999808
0
LINE
8
BLACK
6
CONTINUOUS
10
155.0295370000000048
20
-129.7846009999999808
11
155.0212279999999794
21
-129.8385910000000081
0
LINE
8
BLACK
6
CONTINUOUS
10
155.0212279999999794
20
-129.8385910000000081
11
154.9254619999999818
21
-130.1017049999999813
0
LINE
8
BLACK
6
CONTINUOUS
10
154.9254619999999818
20
-130.1017049999999813
11
154.8971239999999909
21
-130.1484049999999968
0
LINE
8
BLACK
6
CONTINUOUS
10
154.8971239999999909
20
-130.1484049999999968
11
154.8530719999999974
21
-130.1807059999999865
0
LINE
8
BLACK
6
CONTINUOUS
10
154.8530719999999974
20
-130.1807059999999865
11
154.8000119999999811
21
-130.1936890000000062
0
LINE
8
BLACK
6
CONTINUOUS
10
154.8000119999999811
20
-130.1936890000000062
11
154.7460219999999822
21
-130.1853789999999833
0
LINE
8
BLACK
6
CONTINUOUS
10
154.7460219999999822
20
-130.1853789999999833
11
154.426526999999993
21
-130.069092999999981
0
LINE
8
BLACK
6
CONTINUOUS
10
154.426526999999993
20
-130.069092999999981
11
154.3798270000000059
21
-130.0407539999999926
0
LINE
8
BLACK
6
CONTINUOUS
10
154.3798270000000059
20
-130.0407539999999926
11
154.3475259999999878
21
-129.9967019999999991
0
LINE
8
BLACK
6
CONTINUOUS
10
154.3475259999999878
20
-129.9967019999999991
11
154.3345429999999965
21
-129.9436429999999802
0
LINE
8
BLACK
6
CONTINUOUS
10
154.3345429999999965
20
-129.9436429999999802
11
154.3428519999999935
21
-129.8896529999999814
0
LINE
8
BLACK
6
CONTINUOUS
10
154.3428519999999935
20
-129.8896529999999814
11
154.4386179999999911
21
-129.6265390000000082
0
LINE
8
BLACK
6
CONTINUOUS
10
154.4386179999999911
20
-129.6265390000000082
11
154.4669559999999819
21
-129.5798389999999927
0
LINE
8
BLACK
6
CONTINUOUS
10
154.4669559999999819
20
-129.5798389999999927
11
154.5110080000000039
21
-129.547538000000003
0
LINE
8
BLACK
6
CONTINUOUS
10
154.5110080000000039
20
-129.547538000000003
11
154.5640679999999918
21
-129.5345549999999832
0
LINE
8
BLACK
6
CONTINUOUS
10
154.5640679999999918
20
-129.5345549999999832
11
154.6180579999999907
21
-129.5428650000000061
0
LINE
8
BLACK
6
CONTINUOUS
10
149.8396329999999921
20
-128.9350189999999827
11
149.9040990000000022
21
-128.9946109999999919
0
LINE
8
BLACK
6
CONTINUOUS
10
149.9040990000000022
20
-128.9946109999999919
11
150.1979919999999993
21
-129.3991199999999822
0
LINE
8
BLACK
6
CONTINUOUS
10
150.1979919999999993
20
-129.3991199999999822
11
150.2347469999999987
21
-129.4788460000000043
0
LINE
8
BLACK
6
CONTINUOUS
10
150.2347469999999987
20
-129.4788460000000043
11
150.2381929999999954
21
-129.566568999999987
0
LINE
8
BLACK
6
CONTINUOUS
10
150.2381929999999954
20
-129.566568999999987
11
150.2078070000000025
21
-129.648933999999997
0
LINE
8
BLACK
6
CONTINUOUS
10
150.2078070000000025
20
-129.648933999999997
11
150.1482149999999933
21
-129.7134000000000071
0
LINE
8
BLACK
6
CONTINUOUS
10
150.1482149999999933
20
-129.7134000000000071
11
149.7841569999999933
21
-129.9779039999999952
0
LINE
8
BLACK
6
CONTINUOUS
10
149.7841569999999933
20
-129.9779039999999952
11
149.7044309999999996
21
-130.0146579999999972
0
LINE
8
BLACK
6
CONTINUOUS
10
149.7044309999999996
20
-130.0146579999999972
11
149.6167079999999885
21
-130.0181049999999914
0
LINE
8
BLACK
6
CONTINUOUS
10
149.6167079999999885
20
-130.0181049999999914
11
149.5343430000000069
21
-129.9877189999999985
0
LINE
8
BLACK
6
CONTINUOUS
10
149.5343430000000069
20
-129.9877189999999985
11
149.4698769999999968
21
-129.9281269999999893
0
LINE
8
BLACK
6
CONTINUOUS
10
149.4698769999999968
20
-129.9281269999999893
11
149.1759839999999997
21
-129.523617999999999
0
LINE
8
BLACK
6
CONTINUOUS
10
149.1759839999999997
20
-129.523617999999999
11
149.1392290000000003
21
-129.4438920000000053
0
LINE
8
BLACK
6
CONTINUOUS
10
149.1392290000000003
20
-129.4438920000000053
11
149.1357830000000035
21
-129.3561689999999942
0
LINE
8
BLACK
6
CONTINUOUS
10
149.1357830000000035
20
-129.3561689999999942
11
149.1661689999999965
21
-129.2738039999999842
0
LINE
8
BLACK
6
CONTINUOUS
10
149.1661689999999965
20
-129.2738039999999842
11
149.2257610000000057
21
-129.2093380000000025
0
LINE
8
BLACK
6
CONTINUOUS
10
149.2257610000000057
20
-129.2093380000000025
11
149.5898190000000056
21
-128.944833999999986
0
LINE
8
BLACK
6
CONTINUOUS
10
149.5898190000000056
20
-128.944833999999986
11
149.6695449999999994
21
-128.908079999999984
0
LINE
8
BLACK
6
CONTINUOUS
10
149.6695449999999994
20
-128.908079999999984
11
149.7572679999999821
21
-128.9046329999999898
0
LINE
8
BLACK
6
CONTINUOUS
10
149.7572679999999821
20
-128.9046329999999898
11
149.8396329999999921
21
-128.9350189999999827
0
LINE
8
BLACK
6
CONTINUOUS
10
158.184976000000006
20
-129.3749279999999828
11
157.9626629999999921
21
-129.9857279999999946
0
LINE
8
BLACK
6
CONTINUOUS
10
157.9626629999999921
20
-129.9857279999999946
11
157.5867859999999894
21
-129.8489199999999926
0
LINE
8
BLACK
6
CONTINUOUS
10
157.5867859999999894
20
-129.8489199999999926
11
157.8090990000000033
21
-129.2381199999999808
0
LINE
8
BLACK
6
CONTINUOUS
10
157.8090990000000033
20
-129.2381199999999808
11
158.184976000000006
21
-129.3749279999999828
0
LINE
8
BLACK
6
CONTINUOUS
10
156.9633759999999825
20
-128.9303019999999833
11
156.7410629999999969
21
-129.5411019999999951
0
LINE
8
BLACK
6
CONTINUOUS
10
156.7410629999999969
20
-129.5411019999999951
11
156.3651859999999942
21
-129.404293999999993
0
LINE
8
BLACK
6
CONTINUOUS
10
156.3651859999999942
20
-129.404293999999993
11
156.5874989999999798
21
-128.7934939999999813
0
LINE
8
BLACK
6
CONTINUOUS
10
156.5874989999999798
20
-128.7934939999999813
11
156.9633759999999825
21
-128.9303019999999833
0
LINE
8
BLACK
6
CONTINUOUS
10
149.0162019999999927
20
-129.0199039999999968
11
148.4033670000000029
21
-129.5341339999999946
0
LINE
8
BLACK
6
CONTINUOUS
10
148.4033670000000029
20
-129.5341339999999946
11
147.8248580000000061
21
-128.8446940000000041
0
LINE
8
BLACK
6
CONTINUOUS
10
147.8248580000000061
20
-128.8446940000000041
11
148.4376929999999959
21
-128.3304640000000063
0
LINE
8
BLACK
6
CONTINUOUS
10
148.4376929999999959
20
-128.3304640000000063
11
149.0162019999999927
21
-129.0199039999999968
0
LINE
8
BLACK
6
CONTINUOUS
10
154.9463979999999879
20
-128.6407609999999977
11
155.2658930000000055
21
-128.757047
0
LINE
8
BLACK
6
CONTINUOUS
10
155.2658930000000055
20
-128.757047
11
155.3125929999999926
21
-128.7853859999999884
0
LINE
8
BLACK
6
CONTINUOUS
10
155.3125929999999926
20
-128.7853859999999884
11
155.3448939999999823
21
-128.8294379999999819
0
LINE
8
BLACK
6
CONTINUOUS
10
155.3448939999999823
20
-128.8294379999999819
11
155.357877000000002
21
-128.8824970000000008
0
LINE
8
BLACK
6
CONTINUOUS
10
155.357877000000002
20
-128.8824970000000008
11
155.349568000000005
21
-128.9364869999999996
0
LINE
8
BLACK
6
CONTINUOUS
10
155.349568000000005
20
-128.9364869999999996
11
155.253801999999979
21
-129.1996010000000012
0
LINE
8
BLACK
6
CONTINUOUS
10
155.253801999999979
20
-129.1996010000000012
11
155.2254639999999881
21
-129.2463009999999883
0
LINE
8
BLACK
6
CONTINUOUS
10
155.2254639999999881
20
-129.2463009999999883
11
155.1814119999999946
21
-129.2786020000000065
0
LINE
8
BLACK
6
CONTINUOUS
10
155.1814119999999946
20
-129.2786020000000065
11
155.1283520000000067
21
-129.2915849999999978
0
LINE
8
BLACK
6
CONTINUOUS
10
155.1283520000000067
20
-129.2915849999999978
11
155.0743619999999794
21
-129.2832750000000033
0
LINE
8
BLACK
6
CONTINUOUS
10
155.0743619999999794
20
-129.2832750000000033
11
154.7548669999999902
21
-129.1669890000000009
0
LINE
8
BLACK
6
CONTINUOUS
10
154.7548669999999902
20
-129.1669890000000009
11
154.7081670000000031
21
-129.1386499999999842
0
LINE
8
BLACK
6
CONTINUOUS
10
154.7081670000000031
20
-129.1386499999999842
11
154.675865999999985
21
-129.0945979999999906
0
LINE
8
BLACK
6
CONTINUOUS
10
154.675865999999985
20
-129.0945979999999906
11
154.6628829999999937
21
-129.0415390000000002
0
LINE
8
BLACK
6
CONTINUOUS
10
154.6628829999999937
20
-129.0415390000000002
11
154.6711919999999907
21
-128.9875490000000013
0
LINE
8
BLACK
6
CONTINUOUS
10
154.6711919999999907
20
-128.9875490000000013
11
154.7669579999999883
21
-128.7244349999999997
0
LINE
8
BLACK
6
CONTINUOUS
10
154.7669579999999883
20
-128.7244349999999997
11
154.7952959999999791
21
-128.6777349999999842
0
LINE
8
BLACK
6
CONTINUOUS
10
154.7952959999999791
20
-128.6777349999999842
11
154.8393480000000011
21
-128.6454339999999945
0
LINE
8
BLACK
6
CONTINUOUS
10
154.8393480000000011
20
-128.6454339999999945
11
154.892407999999989
21
-128.6324510000000032
0
LINE
8
BLACK
6
CONTINUOUS
10
154.892407999999989
20
-128.6324510000000032
11
154.9463979999999879
21
-128.6407609999999977
0
LINE
8
BLACK
6
CONTINUOUS
10
144.8575919999999826
20
-128.3297829999999919
11
144.3596629999999834
21
-128.7475949999999898
0
LINE
8
BLACK
6
CONTINUOUS
10
144.3596629999999834
20
-128.7475949999999898
11
144.1025479999999845
21
-128.4411769999999819
0
LINE
8
BLACK
6
CONTINUOUS
10
144.1025479999999845
20
-128.4411769999999819
11
144.6004769999999837
21
-128.0233649999999841
0
LINE
8
BLACK
6
CONTINUOUS
10
144.6004769999999837
20
-128.0233649999999841
11
144.8575919999999826
21
-128.3297829999999919
0
LINE
8
BLACK
6
CONTINUOUS
10
149.6561539999999866
20
-127.956483999999989
11
149.6972329999999829
21
-127.9894539999999949
0
LINE
8
BLACK
6
CONTINUOUS
10
149.6972329999999829
20
-127.9894539999999949
11
149.9350649999999803
21
-128.2728909999999871
0
LINE
8
BLACK
6
CONTINUOUS
10
149.9350649999999803
20
-128.2728909999999871
11
149.9604009999999903
21
-128.3190710000000081
0
LINE
8
BLACK
6
CONTINUOUS
10
149.9604009999999903
20
-128.3190710000000081
11
149.9661339999999825
21
-128.3714329999999961
0
LINE
8
BLACK
6
CONTINUOUS
10
149.9661339999999825
20
-128.3714329999999961
11
149.9513949999999909
21
-128.4220029999999895
0
LINE
8
BLACK
6
CONTINUOUS
10
149.9513949999999909
20
-128.4220029999999895
11
149.9184249999999849
21
-128.4630829999999833
0
LINE
8
BLACK
6
CONTINUOUS
10
149.9184249999999849
20
-128.4630829999999833
11
149.7115929999999935
21
-128.6366359999999815
0
LINE
8
BLACK
6
CONTINUOUS
10
149.7115929999999935
20
-128.6366359999999815
11
149.6654120000000034
21
-128.6619709999999941
0
LINE
8
BLACK
6
CONTINUOUS
10
149.6654120000000034
20
-128.6619709999999941
11
149.6130509999999845
21
-128.6677049999999838
0
LINE
8
BLACK
6
CONTINUOUS
10
149.6130509999999845
20
-128.6677049999999838
11
149.5624799999999937
21
-128.6529659999999922
0
LINE
8
BLACK
6
CONTINUOUS
10
149.5624799999999937
20
-128.6529659999999922
11
149.5214009999999973
21
-128.6199959999999862
0
LINE
8
BLACK
6
CONTINUOUS
10
149.5214009999999973
20
-128.6199959999999862
11
149.283569
21
-128.3365589999999941
0
LINE
8
BLACK
6
CONTINUOUS
10
149.283569
20
-128.3365589999999941
11
149.2582329999999899
21
-128.2903790000000015
0
LINE
8
BLACK
6
CONTINUOUS
10
149.2582329999999899
20
-128.2903790000000015
11
149.2524999999999977
21
-128.238016999999985
0
LINE
8
BLACK
6
CONTINUOUS
10
149.2524999999999977
20
-128.238016999999985
11
149.2672389999999893
21
-128.1874469999999917
0
LINE
8
BLACK
6
CONTINUOUS
10
149.2672389999999893
20
-128.1874469999999917
11
149.3002089999999953
21
-128.1463669999999979
0
LINE
8
BLACK
6
CONTINUOUS
10
149.3002089999999953
20
-128.1463669999999979
11
149.5070409999999868
21
-127.9728139999999996
0
LINE
8
BLACK
6
CONTINUOUS
10
149.5070409999999868
20
-127.9728139999999996
11
149.5532220000000052
21
-127.9474790000000013
0
LINE
8
BLACK
6
CONTINUOUS
10
149.5532220000000052
20
-127.9474790000000013
11
149.6055829999999958
21
-127.9417449999999974
0
LINE
8
BLACK
6
CONTINUOUS
10
149.6055829999999958
20
-127.9417449999999974
11
149.6561539999999866
21
-127.956483999999989
0
LINE
8
BLACK
6
CONTINUOUS
10
147.0028839999999946
20
-128.098464000000007
11
146.3900490000000048
21
-128.6126940000000047
0
LINE
8
BLACK
6
CONTINUOUS
10
146.3900490000000048
20
-128.6126940000000047
11
145.8115399999999795
21
-127.923254
0
LINE
8
BLACK
6
CONTINUOUS
10
145.8115399999999795
20
-127.923254
11
146.4243749999999977
21
-127.4090239999999881
0
LINE
8
BLACK
6
CONTINUOUS
10
146.4243749999999977
20
-127.4090239999999881
11
147.0028839999999946
21
-128.098464000000007
0
LINE
8
BLACK
6
CONTINUOUS
10
153.074514999999991
20
-126.2162309999999934
11
153.1201669999999808
21
-126.2310639999999893
0
LINE
8
BLACK
6
CONTINUOUS
10
153.1201669999999808
20
-126.2310639999999893
11
153.1787719999999808
21
-126.271136999999996
0
LINE
8
BLACK
6
CONTINUOUS
10
153.1787719999999808
20
-126.271136999999996
11
153.2064100000000053
21
-126.3365340000000003
0
LINE
8
BLACK
6
CONTINUOUS
10
153.2064100000000053
20
-126.3365340000000003
11
153.2010640000000024
21
-126.3898329999999959
0
LINE
8
BLACK
6
CONTINUOUS
10
153.2010640000000024
20
-126.3898329999999959
11
152.5400579999999877
21
-128.4242129999999804
0
LINE
8
BLACK
6
CONTINUOUS
10
152.5400579999999877
20
-128.4242129999999804
11
152.499984999999981
21
-128.4828190000000063
0
LINE
8
BLACK
6
CONTINUOUS
10
152.499984999999981
20
-128.4828190000000063
11
152.4345879999999909
21
-128.5104560000000049
0
LINE
8
BLACK
6
CONTINUOUS
10
152.4345879999999909
20
-128.5104560000000049
11
152.3812879999999836
21
-128.5051100000000019
0
LINE
8
BLACK
6
CONTINUOUS
10
152.3812879999999836
20
-128.5051100000000019
11
152.3356379999999888
21
-128.4902769999999919
0
LINE
8
BLACK
6
CONTINUOUS
10
152.3356379999999888
20
-128.4902769999999919
11
152.2770319999999913
21
-128.4502029999999877
0
LINE
8
BLACK
6
CONTINUOUS
10
152.2770319999999913
20
-128.4502029999999877
11
152.2493959999999902
21
-128.3848059999999975
0
LINE
8
BLACK
6
CONTINUOUS
10
152.2493959999999902
20
-128.3848059999999975
11
152.2547419999999931
21
-128.3315079999999853
0
LINE
8
BLACK
6
CONTINUOUS
10
152.2547419999999931
20
-128.3315079999999853
11
152.9157459999999844
21
-126.2971280000000007
0
LINE
8
BLACK
6
CONTINUOUS
10
152.9157459999999844
20
-126.2971280000000007
11
152.9558189999999911
21
-126.238521999999989
0
LINE
8
BLACK
6
CONTINUOUS
10
152.9558189999999911
20
-126.238521999999989
11
153.0212159999999812
21
-126.2108849999999904
0
LINE
8
BLACK
6
CONTINUOUS
10
153.0212159999999812
20
-126.2108849999999904
11
153.074514999999991
21
-126.2162309999999934
0
LINE
8
BLACK
6
CONTINUOUS
10
144.4397799999999847
20
-127.8318539999999928
11
143.9418509999999856
21
-128.2496659999999906
0
LINE
8
BLACK
6
CONTINUOUS
10
143.9418509999999856
20
-128.2496659999999906
11
143.6847359999999867
21
-127.943247999999997
0
LINE
8
BLACK
6
CONTINUOUS
10
143.6847359999999867
20
-127.943247999999997
11
144.1826649999999859
21
-127.5254359999999991
0
LINE
8
BLACK
6
CONTINUOUS
10
144.1826649999999859
20
-127.5254359999999991
11
144.4397799999999847
21
-127.8318539999999928
0
LINE
8
BLACK
6
CONTINUOUS
10
158.8348139999999944
20
-127.5895119999999991
11
158.6125009999999804
21
-128.2003119999999967
0
LINE
8
BLACK
6
CONTINUOUS
10
158.6125009999999804
20
-128.2003119999999967
11
158.2366240000000062
21
-128.0635039999999947
0
LINE
8
BLACK
6
CONTINUOUS
10
158.2366240000000062
20
-128.0635039999999947
11
158.4589369999999917
21
-127.4527039999999971
0
LINE
8
BLACK
6
CONTINUOUS
10
158.4589369999999917
20
-127.4527039999999971
11
158.8348139999999944
21
-127.5895119999999991
0
LINE
8
BLACK
6
CONTINUOUS
10
150.4375200000000063
20
-127.3008399999999938
11
150.4785990000000027
21
-127.3338099999999997
0
LINE
8
BLACK
6
CONTINUOUS
10
150.4785990000000027
20
-127.3338099999999997
11
150.716431
21
-127.6172469999999919
0
LINE
8
BLACK
6
CONTINUOUS
10
150.716431
20
-127.6172469999999919
11
150.7417669999999816
21
-127.6634269999999987
0
LINE
8
BLACK
6
CONTINUOUS
10
150.7417669999999816
20
-127.6634269999999987
11
150.7475000000000023
21
-127.7157890000000009
0
LINE
8
BLACK
6
CONTINUOUS
10
150.7475000000000023
20
-127.7157890000000009
11
150.7327609999999822
21
-127.7663589999999942
0
LINE
8
BLACK
6
CONTINUOUS
10
150.7327609999999822
20
-127.7663589999999942
11
150.6997910000000047
21
-127.807438999999988
0
LINE
8
BLACK
6
CONTINUOUS
10
150.6997910000000047
20
-127.807438999999988
11
150.4929589999999848
21
-127.9809920000000005
0
LINE
8
BLACK
6
CONTINUOUS
10
150.4929589999999848
20
-127.9809920000000005
11
150.4467779999999948
21
-128.0063269999999989
0
LINE
8
BLACK
6
CONTINUOUS
10
150.4467779999999948
20
-128.0063269999999989
11
150.3944170000000042
21
-128.0120609999999886
0
LINE
8
BLACK
6
CONTINUOUS
10
150.3944170000000042
20
-128.0120609999999886
11
150.343845999999985
21
-127.9973219999999969
0
LINE
8
BLACK
6
CONTINUOUS
10
150.343845999999985
20
-127.9973219999999969
11
150.3027669999999887
21
-127.964351999999991
0
LINE
8
BLACK
6
CONTINUOUS
10
150.3027669999999887
20
-127.964351999999991
11
150.0649349999999913
21
-127.6809149999999988
0
LINE
8
BLACK
6
CONTINUOUS
10
150.0649349999999913
20
-127.6809149999999988
11
150.0395989999999813
21
-127.6347349999999921
0
LINE
8
BLACK
6
CONTINUOUS
10
150.0395989999999813
20
-127.6347349999999921
11
150.0338659999999891
21
-127.5823729999999898
0
LINE
8
BLACK
6
CONTINUOUS
10
150.0338659999999891
20
-127.5823729999999898
11
150.0486049999999807
21
-127.5318029999999965
0
LINE
8
BLACK
6
CONTINUOUS
10
150.0486049999999807
20
-127.5318029999999965
11
150.0815749999999866
21
-127.4907229999999885
0
LINE
8
BLACK
6
CONTINUOUS
10
150.0815749999999866
20
-127.4907229999999885
11
150.2884070000000065
21
-127.3171699999999902
0
LINE
8
BLACK
6
CONTINUOUS
10
150.2884070000000065
20
-127.3171699999999902
11
150.3345879999999966
21
-127.2918349999999919
0
LINE
8
BLACK
6
CONTINUOUS
10
150.3345879999999966
20
-127.2918349999999919
11
150.3869489999999871
21
-127.2861009999999879
0
LINE
8
BLACK
6
CONTINUOUS
10
150.3869489999999871
20
-127.2861009999999879
11
150.4375200000000063
21
-127.3008399999999938
0
LINE
8
BLACK
6
CONTINUOUS
10
158.2240139999999826
20
-127.3671989999999994
11
158.0017009999999971
21
-127.977998999999997
0
LINE
8
BLACK
6
CONTINUOUS
10
158.0017009999999971
20
-127.977998999999997
11
157.6258239999999944
21
-127.8411909999999949
0
LINE
8
BLACK
6
CONTINUOUS
10
157.6258239999999944
20
-127.8411909999999949
11
157.8481369999999799
21
-127.2303909999999973
0
LINE
8
BLACK
6
CONTINUOUS
10
157.8481369999999799
20
-127.2303909999999973
11
158.2240139999999826
21
-127.3671989999999994
0
LINE
8
BLACK
6
CONTINUOUS
10
149.424714999999992
20
-126.7384289999999964
11
149.470359000000002
21
-126.7750629999999887
0
LINE
8
BLACK
6
CONTINUOUS
10
149.470359000000002
20
-126.7750629999999887
11
149.6631959999999992
21
-127.0048759999999959
0
LINE
8
BLACK
6
CONTINUOUS
10
149.6631959999999992
20
-127.0048759999999959
11
149.6913469999999791
21
-127.0561879999999917
0
LINE
8
BLACK
6
CONTINUOUS
10
149.6913469999999791
20
-127.0561879999999917
11
149.6977179999999805
21
-127.1143669999999872
0
LINE
8
BLACK
6
CONTINUOUS
10
149.6977179999999805
20
-127.1143669999999872
11
149.6813410000000033
21
-127.1705559999999906
0
LINE
8
BLACK
6
CONTINUOUS
10
149.6813410000000033
20
-127.1705559999999906
11
149.6447069999999826
21
-127.2162009999999981
0
LINE
8
BLACK
6
CONTINUOUS
10
149.6447069999999826
20
-127.2162009999999981
11
148.8595119999999952
21
-127.8750579999999957
0
LINE
8
BLACK
6
CONTINUOUS
10
148.8595119999999952
20
-127.8750579999999957
11
148.8081990000000019
21
-127.9032089999999897
0
LINE
8
BLACK
6
CONTINUOUS
10
148.8081990000000019
20
-127.9032089999999897
11
148.7500200000000063
21
-127.9095799999999912
0
LINE
8
BLACK
6
CONTINUOUS
10
148.7500200000000063
20
-127.9095799999999912
11
148.6938309999999888
21
-127.8932029999999997
0
LINE
8
BLACK
6
CONTINUOUS
10
148.6938309999999888
20
-127.8932029999999997
11
148.6481870000000072
21
-127.8565689999999933
0
LINE
8
BLACK
6
CONTINUOUS
10
148.6481870000000072
20
-127.8565689999999933
11
148.4553499999999815
21
-127.6267560000000003
0
LINE
8
BLACK
6
CONTINUOUS
10
148.4553499999999815
20
-127.6267560000000003
11
148.4271990000000017
21
-127.5754439999999903
0
LINE
8
BLACK
6
CONTINUOUS
10
148.4271990000000017
20
-127.5754439999999903
11
148.4208280000000002
21
-127.5172649999999948
0
LINE
8
BLACK
6
CONTINUOUS
10
148.4208280000000002
20
-127.5172649999999948
11
148.4372050000000058
21
-127.4610759999999914
0
LINE
8
BLACK
6
CONTINUOUS
10
148.4372050000000058
20
-127.4610759999999914
11
148.4738389999999981
21
-127.4154309999999981
0
LINE
8
BLACK
6
CONTINUOUS
10
148.4738389999999981
20
-127.4154309999999981
11
149.2590339999999856
21
-126.7565740000000005
0
LINE
8
BLACK
6
CONTINUOUS
10
149.2590339999999856
20
-126.7565740000000005
11
149.3103470000000073
21
-126.7284229999999923
0
LINE
8
BLACK
6
CONTINUOUS
10
149.3103470000000073
20
-126.7284229999999923
11
149.3685260000000028
21
-126.7220519999999908
0
LINE
8
BLACK
6
CONTINUOUS
10
149.3685260000000028
20
-126.7220519999999908
11
149.424714999999992
21
-126.7384289999999964
0
LINE
8
BLACK
6
CONTINUOUS
10
157.6132139999999993
20
-127.1448859999999996
11
157.3909009999999853
21
-127.7556859999999972
0
LINE
8
BLACK
6
CONTINUOUS
10
157.3909009999999853
20
-127.7556859999999972
11
157.0150239999999826
21
-127.6188779999999952
0
LINE
8
BLACK
6
CONTINUOUS
10
157.0150239999999826
20
-127.6188779999999952
11
157.2373369999999966
21
-127.0080779999999976
0
LINE
8
BLACK
6
CONTINUOUS
10
157.2373369999999966
20
-127.0080779999999976
11
157.6132139999999993
21
-127.1448859999999996
0
LINE
8
BLACK
6
CONTINUOUS
10
144.0219679999999869
20
-127.3339249999999936
11
143.5240389999999877
21
-127.7517369999999914
0
LINE
8
BLACK
6
CONTINUOUS
10
143.5240389999999877
20
-127.7517369999999914
11
143.2669239999999888
21
-127.4453189999999978
0
LINE
8
BLACK
6
CONTINUOUS
10
143.2669239999999888
20
-127.4453189999999978
11
143.764852999999988
21
-127.0275069999999999
0
LINE
8
BLACK
6
CONTINUOUS
10
143.764852999999988
20
-127.0275069999999999
11
144.0219679999999869
21
-127.3339249999999936
0
LINE
8
BLACK
6
CONTINUOUS
10
146.3130759999999952
20
-127.1084869999999967
11
145.8151469999999961
21
-127.5262989999999945
0
LINE
8
BLACK
6
CONTINUOUS
10
145.8151469999999961
20
-127.5262989999999945
11
145.5580319999999972
21
-127.2198810000000009
0
LINE
8
BLACK
6
CONTINUOUS
10
145.5580319999999972
20
-127.2198810000000009
11
146.0559609999999964
21
-126.8020689999999888
0
LINE
8
BLACK
6
CONTINUOUS
10
146.0559609999999964
20
-126.8020689999999888
11
146.3130759999999952
21
-127.1084869999999967
0
LINE
8
BLACK
6
CONTINUOUS
10
147.3451000000000022
20
-126.5455079999999981
11
147.386179999999996
21
-126.5784779999999898
0
LINE
8
BLACK
6
CONTINUOUS
10
147.386179999999996
20
-126.5784779999999898
11
147.5597329999999943
21
-126.7853099999999955
0
LINE
8
BLACK
6
CONTINUOUS
10
147.5597329999999943
20
-126.7853099999999955
11
147.5850680000000068
21
-126.8314909999999998
0
LINE
8
BLACK
6
CONTINUOUS
10
147.5850680000000068
20
-126.8314909999999998
11
147.5908019999999965
21
-126.8838519999999903
0
LINE
8
BLACK
6
CONTINUOUS
10
147.5908019999999965
20
-126.8838519999999903
11
147.5760630000000049
21
-126.9344229999999953
0
LINE
8
BLACK
6
CONTINUOUS
10
147.5760630000000049
20
-126.9344229999999953
11
147.5430929999999989
21
-126.9755019999999917
0
LINE
8
BLACK
6
CONTINUOUS
10
147.5430929999999989
20
-126.9755019999999917
11
147.2596560000000068
21
-127.213333999999989
0
LINE
8
BLACK
6
CONTINUOUS
10
147.2596560000000068
20
-127.213333999999989
11
147.2134759999999858
21
-127.238669999999999
0
LINE
8
BLACK
6
CONTINUOUS
10
147.2134759999999858
20
-127.238669999999999
11
147.1611139999999978
21
-127.2444029999999913
0
LINE
8
BLACK
6
CONTINUOUS
10
147.1611139999999978
20
-127.2444029999999913
11
147.1105440000000044
21
-127.2296639999999996
0
LINE
8
BLACK
6
CONTINUOUS
10
147.1105440000000044
20
-127.2296639999999996
11
147.0694639999999822
21
-127.1966939999999937
0
LINE
8
BLACK
6
CONTINUOUS
10
147.0694639999999822
20
-127.1966939999999937
11
146.8959109999999839
21
-126.989861999999988
0
LINE
8
BLACK
6
CONTINUOUS
10
146.8959109999999839
20
-126.989861999999988
11
146.8705759999999998
21
-126.943680999999998
0
LINE
8
BLACK
6
CONTINUOUS
10
146.8705759999999998
20
-126.943680999999998
11
146.8648419999999817
21
-126.8913199999999932
0
LINE
8
BLACK
6
CONTINUOUS
10
146.8648419999999817
20
-126.8913199999999932
11
146.8795810000000017
21
-126.8407489999999882
0
LINE
8
BLACK
6
CONTINUOUS
10
146.8795810000000017
20
-126.8407489999999882
11
146.9125509999999792
21
-126.7996699999999919
0
LINE
8
BLACK
6
CONTINUOUS
10
146.9125509999999792
20
-126.7996699999999919
11
147.1959879999999998
21
-126.5618379999999945
0
LINE
8
BLACK
6
CONTINUOUS
10
147.1959879999999998
20
-126.5618379999999945
11
147.2421679999999924
21
-126.5365019999999987
0
LINE
8
BLACK
6
CONTINUOUS
10
147.2421679999999924
20
-126.5365019999999987
11
147.2945299999999804
21
-126.5307689999999923
0
LINE
8
BLACK
6
CONTINUOUS
10
147.2945299999999804
20
-126.5307689999999923
11
147.3451000000000022
21
-126.5455079999999981
0
LINE
8
BLACK
6
CONTINUOUS
10
145.8952639999999974
20
-126.6105579999999975
11
145.3973349999999982
21
-127.0283699999999953
0
LINE
8
BLACK
6
CONTINUOUS
10
145.3973349999999982
20
-127.0283699999999953
11
145.1402199999999993
21
-126.7219519999999875
0
LINE
8
BLACK
6
CONTINUOUS
10
145.1402199999999993
20
-126.7219519999999875
11
145.6381489999999985
21
-126.3041399999999896
0
LINE
8
BLACK
6
CONTINUOUS
10
145.6381489999999985
20
-126.3041399999999896
11
145.8952639999999974
21
-126.6105579999999975
0
LINE
8
BLACK
6
CONTINUOUS
10
145.4774519999999995
20
-126.1126289999999983
11
144.9795230000000004
21
-126.5304409999999962
0
LINE
8
BLACK
6
CONTINUOUS
10
144.9795230000000004
20
-126.5304409999999962
11
144.7224080000000015
21
-126.2240229999999883
0
LINE
8
BLACK
6
CONTINUOUS
10
144.7224080000000015
20
-126.2240229999999883
11
145.2203370000000007
21
-125.8062109999999905
0
LINE
8
BLACK
6
CONTINUOUS
10
145.2203370000000007
20
-125.8062109999999905
11
145.4774519999999995
21
-126.1126289999999983
0
LINE
8
BLACK
6
CONTINUOUS
10
146.689456000000007
20
-125.7641419999999925
11
146.7305360000000007
21
-125.7971119999999985
0
LINE
8
BLACK
6
CONTINUOUS
10
146.7305360000000007
20
-125.7971119999999985
11
146.904088999999999
21
-126.00394399999999
0
LINE
8
BLACK
6
CONTINUOUS
10
146.904088999999999
20
-126.00394399999999
11
146.9294239999999832
21
-126.0501249999999942
0
LINE
8
BLACK
6
CONTINUOUS
10
146.9294239999999832
20
-126.0501249999999942
11
146.9351580000000013
21
-126.102485999999999
0
LINE
8
BLACK
6
CONTINUOUS
10
146.9351580000000013
20
-126.102485999999999
11
146.9204189999999812
21
-126.1530569999999898
0
LINE
8
BLACK
6
CONTINUOUS
10
146.9204189999999812
20
-126.1530569999999898
11
146.8874490000000037
21
-126.1941360000000003
0
LINE
8
BLACK
6
CONTINUOUS
10
146.8874490000000037
20
-126.1941360000000003
11
146.6040119999999831
21
-126.4319679999999977
0
LINE
8
BLACK
6
CONTINUOUS
10
146.6040119999999831
20
-126.4319679999999977
11
146.5578319999999906
21
-126.4573039999999935
0
LINE
8
BLACK
6
CONTINUOUS
10
146.5578319999999906
20
-126.4573039999999935
11
146.5054700000000025
21
-126.4630369999999999
0
LINE
8
BLACK
6
CONTINUOUS
10
146.5054700000000025
20
-126.4630369999999999
11
146.4548999999999808
21
-126.4482979999999941
0
LINE
8
BLACK
6
CONTINUOUS
10
146.4548999999999808
20
-126.4482979999999941
11
146.413819999999987
21
-126.4153279999999882
0
LINE
8
BLACK
6
CONTINUOUS
10
146.413819999999987
20
-126.4153279999999882
11
146.2402669999999887
21
-126.2084959999999967
0
LINE
8
BLACK
6
CONTINUOUS
10
146.2402669999999887
20
-126.2084959999999967
11
146.2149320000000046
21
-126.1623149999999924
0
LINE
8
BLACK
6
CONTINUOUS
10
146.2149320000000046
20
-126.1623149999999924
11
146.2091979999999865
21
-126.1099539999999877
0
LINE
8
BLACK
6
CONTINUOUS
10
146.2091979999999865
20
-126.1099539999999877
11
146.2239370000000065
21
-126.0593829999999969
0
LINE
8
BLACK
6
CONTINUOUS
10
146.2239370000000065
20
-126.0593829999999969
11
146.256906999999984
21
-126.0183040000000005
0
LINE
8
BLACK
6
CONTINUOUS
10
146.256906999999984
20
-126.0183040000000005
11
146.5403440000000046
21
-125.780471999999989
0
LINE
8
BLACK
6
CONTINUOUS
10
146.5403440000000046
20
-125.780471999999989
11
146.5865239999999972
21
-125.7551359999999931
0
LINE
8
BLACK
6
CONTINUOUS
10
146.5865239999999972
20
-125.7551359999999931
11
146.6388859999999852
21
-125.7494030000000009
0
LINE
8
BLACK
6
CONTINUOUS
10
146.6388859999999852
20
-125.7494030000000009
11
146.689456000000007
21
-125.7641419999999925
0
LINE
8
BLACK
6
CONTINUOUS
10
148.2034179999999992
20
-125.282944999999998
11
148.2490619999999808
21
-125.3195789999999903
0
LINE
8
BLACK
6
CONTINUOUS
10
148.2490619999999808
20
-125.3195789999999903
11
148.4418990000000065
21
-125.5493919999999974
0
LINE
8
BLACK
6
CONTINUOUS
10
148.4418990000000065
20
-125.5493919999999974
11
148.4700499999999863
21
-125.6007039999999932
0
LINE
8
BLACK
6
CONTINUOUS
10
148.4700499999999863
20
-125.6007039999999932
11
148.4764209999999878
21
-125.6588829999999888
0
LINE
8
BLACK
6
CONTINUOUS
10
148.4764209999999878
20
-125.6588829999999888
11
148.4600439999999821
21
-125.7150719999999922
0
LINE
8
BLACK
6
CONTINUOUS
10
148.4600439999999821
20
-125.7150719999999922
11
148.4234099999999899
21
-125.7607169999999996
0
LINE
8
BLACK
6
CONTINUOUS
10
148.4234099999999899
20
-125.7607169999999996
11
147.6382150000000024
21
-126.4195739999999972
0
LINE
8
BLACK
6
CONTINUOUS
10
147.6382150000000024
20
-126.4195739999999972
11
147.5869019999999807
21
-126.4477249999999913
0
LINE
8
BLACK
6
CONTINUOUS
10
147.5869019999999807
20
-126.4477249999999913
11
147.5287229999999852
21
-126.4540959999999927
0
LINE
8
BLACK
6
CONTINUOUS
10
147.5287229999999852
20
-126.4540959999999927
11
147.472533999999996
21
-126.4377190000000013
0
LINE
8
BLACK
6
CONTINUOUS
10
147.472533999999996
20
-126.4377190000000013
11
147.426889999999986
21
-126.4010849999999948
0
LINE
8
BLACK
6
CONTINUOUS
10
147.426889999999986
20
-126.4010849999999948
11
147.2340529999999887
21
-126.1712719999999877
0
LINE
8
BLACK
6
CONTINUOUS
10
147.2340529999999887
20
-126.1712719999999877
11
147.2059019999999805
21
-126.1199599999999919
0
LINE
8
BLACK
6
CONTINUOUS
10
147.2059019999999805
20
-126.1199599999999919
11
147.1995310000000075
21
-126.0617809999999963
0
LINE
8
BLACK
6
CONTINUOUS
10
147.1995310000000075
20
-126.0617809999999963
11
147.2159079999999847
21
-126.0055919999999929
0
LINE
8
BLACK
6
CONTINUOUS
10
147.2159079999999847
20
-126.0055919999999929
11
147.2525420000000054
21
-125.9599469999999997
0
LINE
8
BLACK
6
CONTINUOUS
10
147.2525420000000054
20
-125.9599469999999997
11
148.0377369999999928
21
-125.3010899999999879
0
LINE
8
BLACK
6
CONTINUOUS
10
148.0377369999999928
20
-125.3010899999999879
11
148.0890499999999861
21
-125.2729389999999938
0
LINE
8
BLACK
6
CONTINUOUS
10
148.0890499999999861
20
-125.2729389999999938
11
148.1472289999999816
21
-125.2665679999999924
0
LINE
8
BLACK
6
CONTINUOUS
10
148.1472289999999816
20
-125.2665679999999924
11
148.2034179999999992
21
-125.282944999999998
0
LINE
8
BLACK
6
CONTINUOUS
10
151.1674659999999903
20
-125.2760869999999898
11
151.2131100000000004
21
-125.3127209999999963
0
LINE
8
BLACK
6
CONTINUOUS
10
151.2131100000000004
20
-125.3127209999999963
11
151.4059469999999976
21
-125.5425339999999892
0
LINE
8
BLACK
6
CONTINUOUS
10
151.4059469999999976
20
-125.5425339999999892
11
151.4340980000000059
21
-125.5938459999999992
0
LINE
8
BLACK
6
CONTINUOUS
10
151.4340980000000059
20
-125.5938459999999992
11
151.4404690000000073
21
-125.6520249999999947
0
LINE
8
BLACK
6
CONTINUOUS
10
151.4404690000000073
20
-125.6520249999999947
11
151.4240920000000017
21
-125.7082139999999981
0
LINE
8
BLACK
6
CONTINUOUS
10
151.4240920000000017
20
-125.7082139999999981
11
151.387457999999981
21
-125.7538589999999914
0
LINE
8
BLACK
6
CONTINUOUS
10
151.387457999999981
20
-125.7538589999999914
11
150.6022629999999936
21
-126.412715999999989
0
LINE
8
BLACK
6
CONTINUOUS
10
150.6022629999999936
20
-126.412715999999989
11
150.5509500000000003
21
-126.4408669999999972
0
LINE
8
BLACK
6
CONTINUOUS
10
150.5509500000000003
20
-126.4408669999999972
11
150.4927710000000047
21
-126.4472379999999987
0
LINE
8
BLACK
6
CONTINUOUS
10
150.4927710000000047
20
-126.4472379999999987
11
150.4365819999999871
21
-126.4308609999999931
0
LINE
8
BLACK
6
CONTINUOUS
10
150.4365819999999871
20
-126.4308609999999931
11
150.3909380000000056
21
-126.3942270000000008
0
LINE
8
BLACK
6
CONTINUOUS
10
150.3909380000000056
20
-126.3942270000000008
11
150.1981009999999799
21
-126.1644139999999936
0
LINE
8
BLACK
6
CONTINUOUS
10
150.1981009999999799
20
-126.1644139999999936
11
150.16995
21
-126.1131019999999978
0
LINE
8
BLACK
6
CONTINUOUS
10
150.16995
20
-126.1131019999999978
11
150.1635789999999986
21
-126.0549229999999881
0
LINE
8
BLACK
6
CONTINUOUS
10
150.1635789999999986
20
-126.0549229999999881
11
150.1799560000000042
21
-125.9987339999999989
0
LINE
8
BLACK
6
CONTINUOUS
10
150.1799560000000042
20
-125.9987339999999989
11
150.2165899999999965
21
-125.9530889999999914
0
LINE
8
BLACK
6
CONTINUOUS
10
150.2165899999999965
20
-125.9530889999999914
11
151.0017849999999839
21
-125.2942319999999938
0
LINE
8
BLACK
6
CONTINUOUS
10
151.0017849999999839
20
-125.2942319999999938
11
151.0530980000000056
21
-125.2660809999999998
0
LINE
8
BLACK
6
CONTINUOUS
10
151.0530980000000056
20
-125.2660809999999998
11
151.1112770000000012
21
-125.2597099999999983
0
LINE
8
BLACK
6
CONTINUOUS
10
151.1112770000000012
20
-125.2597099999999983
11
151.1674659999999903
21
-125.2760869999999898
0
LINE
8
BLACK
6
CONTINUOUS
10
150.5568179999999927
20
-124.5483449999999976
11
150.6024620000000027
21
-124.5849789999999899
0
LINE
8
BLACK
6
CONTINUOUS
10
150.6024620000000027
20
-124.5849789999999899
11
150.795299
21
-124.8147919999999971
0
LINE
8
BLACK
6
CONTINUOUS
10
150.795299
20
-124.8147919999999971
11
150.8234499999999798
21
-124.8661039999999929
0
LINE
8
BLACK
6
CONTINUOUS
10
150.8234499999999798
20
-124.8661039999999929
11
150.8298209999999813
21
-124.9242829999999884
0
LINE
8
BLACK
6
CONTINUOUS
10
150.8298209999999813
20
-124.9242829999999884
11
150.8134440000000041
21
-124.9804719999999918
0
LINE
8
BLACK
6
CONTINUOUS
10
150.8134440000000041
20
-124.9804719999999918
11
150.7768099999999833
21
-125.0261169999999993
0
LINE
8
BLACK
6
CONTINUOUS
10
150.7768099999999833
20
-125.0261169999999993
11
149.9916149999999959
21
-125.6849739999999969
0
LINE
8
BLACK
6
CONTINUOUS
10
149.9916149999999959
20
-125.6849739999999969
11
149.9403020000000026
21
-125.7131249999999909
0
LINE
8
BLACK
6
CONTINUOUS
10
149.9403020000000026
20
-125.7131249999999909
11
149.8821230000000071
21
-125.7194959999999924
0
LINE
8
BLACK
6
CONTINUOUS
10
149.8821230000000071
20
-125.7194959999999924
11
149.8259339999999895
21
-125.7031190000000009
0
LINE
8
BLACK
6
CONTINUOUS
10
149.8259339999999895
20
-125.7031190000000009
11
149.7802899999999795
21
-125.6664849999999944
0
LINE
8
BLACK
6
CONTINUOUS
10
149.7802899999999795
20
-125.6664849999999944
11
149.5874529999999822
21
-125.4366719999999873
0
LINE
8
BLACK
6
CONTINUOUS
10
149.5874529999999822
20
-125.4366719999999873
11
149.5593020000000024
21
-125.3853599999999915
0
LINE
8
BLACK
6
CONTINUOUS
10
149.5593020000000024
20
-125.3853599999999915
11
149.5529310000000009
21
-125.3271809999999959
0
LINE
8
BLACK
6
CONTINUOUS
10
149.5529310000000009
20
-125.3271809999999959
11
149.5693080000000066
21
-125.2709919999999926
0
LINE
8
BLACK
6
CONTINUOUS
10
149.5693080000000066
20
-125.2709919999999926
11
149.6059419999999989
21
-125.2253469999999993
0
LINE
8
BLACK
6
CONTINUOUS
10
149.6059419999999989
20
-125.2253469999999993
11
150.3911369999999863
21
-124.5664899999999875
0
LINE
8
BLACK
6
CONTINUOUS
10
150.3911369999999863
20
-124.5664899999999875
11
150.4424499999999796
21
-124.5383389999999935
0
LINE
8
BLACK
6
CONTINUOUS
10
150.4424499999999796
20
-124.5383389999999935
11
150.5006290000000035
21
-124.531967999999992
0
LINE
8
BLACK
6
CONTINUOUS
10
150.5006290000000035
20
-124.531967999999992
11
150.5568179999999927
21
-124.5483449999999976
0
LINE
8
BLACK
6
CONTINUOUS
10
146.0238819999999862
20
-123.9712299999999914
11
146.0999559999999917
21
-124.0322859999999991
0
LINE
8
BLACK
6
CONTINUOUS
10
146.0999559999999917
20
-124.0322859999999991
11
146.7106039999999894
21
-124.7600279999999913
0
LINE
8
BLACK
6
CONTINUOUS
10
146.7106039999999894
20
-124.7600279999999913
11
146.757522999999992
21
-124.8455489999999912
0
LINE
8
BLACK
6
CONTINUOUS
10
146.757522999999992
20
-124.8455489999999912
11
146.7681419999999832
21
-124.9425139999999885
0
LINE
8
BLACK
6
CONTINUOUS
10
146.7681419999999832
20
-124.9425139999999885
11
146.7408460000000048
21
-125.0361619999999903
0
LINE
8
BLACK
6
CONTINUOUS
10
146.7408460000000048
20
-125.0361619999999903
11
146.679789999999997
21
-125.1122359999999958
0
LINE
8
BLACK
6
CONTINUOUS
10
146.679789999999997
20
-125.1122359999999958
11
146.2967679999999859
21
-125.4336299999999937
0
LINE
8
BLACK
6
CONTINUOUS
10
146.2967679999999859
20
-125.4336299999999937
11
146.211246999999986
21
-125.4805479999999989
0
LINE
8
BLACK
6
CONTINUOUS
10
146.211246999999986
20
-125.4805479999999989
11
146.1142820000000029
21
-125.4911679999999876
0
LINE
8
BLACK
6
CONTINUOUS
10
146.1142820000000029
20
-125.4911679999999876
11
146.0206340000000012
21
-125.463871999999995
0
LINE
8
BLACK
6
CONTINUOUS
10
146.0206340000000012
20
-125.463871999999995
11
145.9445599999999956
21
-125.4028160000000014
0
LINE
8
BLACK
6
CONTINUOUS
10
145.9445599999999956
20
-125.4028160000000014
11
145.333911999999998
21
-124.6750739999999951
0
LINE
8
BLACK
6
CONTINUOUS
10
145.333911999999998
20
-124.6750739999999951
11
145.2869929999999954
21
-124.5895529999999951
0
LINE
8
BLACK
6
CONTINUOUS
10
145.2869929999999954
20
-124.5895529999999951
11
145.2763740000000041
21
-124.4925879999999978
0
LINE
8
BLACK
6
CONTINUOUS
10
145.2763740000000041
20
-124.4925879999999978
11
145.3036699999999826
21
-124.3989399999999961
0
LINE
8
BLACK
6
CONTINUOUS
10
145.3036699999999826
20
-124.3989399999999961
11
145.3647259999999903
21
-124.3228659999999905
0
LINE
8
BLACK
6
CONTINUOUS
10
145.3647259999999903
20
-124.3228659999999905
11
145.7477480000000014
21
-124.0014719999999926
0
LINE
8
BLACK
6
CONTINUOUS
10
145.7477480000000014
20
-124.0014719999999926
11
145.8332690000000014
21
-123.9545539999999875
0
LINE
8
BLACK
6
CONTINUOUS
10
145.8332690000000014
20
-123.9545539999999875
11
145.9302339999999845
21
-123.9439339999999987
0
LINE
8
BLACK
6
CONTINUOUS
10
145.9302339999999845
20
-123.9439339999999987
11
146.0238819999999862
21
-123.9712299999999914
0
LINE
8
BLACK
6
CONTINUOUS
10
149.9461689999999976
20
-123.8206029999999913
11
149.9918129999999792
21
-123.8572369999999978
0
LINE
8
BLACK
6
CONTINUOUS
10
149.9918129999999792
20
-123.8572369999999978
11
150.1846500000000049
21
-124.0870499999999907
0
LINE
8
BLACK
6
CONTINUOUS
10
150.1846500000000049
20
-124.0870499999999907
11
150.2128009999999847
21
-124.1383620000000008
0
LINE
8
BLACK
6
CONTINUOUS
10
150.2128009999999847
20
-124.1383620000000008
11
150.2191719999999862
21
-124.1965409999999963
0
LINE
8
BLACK
6
CONTINUOUS
10
150.2191719999999862
20
-124.1965409999999963
11
150.2027949999999805
21
-124.2527299999999997
0
LINE
8
BLACK
6
CONTINUOUS
10
150.2027949999999805
20
-124.2527299999999997
11
150.1661609999999882
21
-124.298374999999993
0
LINE
8
BLACK
6
CONTINUOUS
10
150.1661609999999882
20
-124.298374999999993
11
149.3809660000000008
21
-124.9572319999999905
0
LINE
8
BLACK
6
CONTINUOUS
10
149.3809660000000008
20
-124.9572319999999905
11
149.3296529999999791
21
-124.9853829999999988
0
LINE
8
BLACK
6
CONTINUOUS
10
149.3296529999999791
20
-124.9853829999999988
11
149.2714739999999836
21
-124.9917540000000002
0
LINE
8
BLACK
6
CONTINUOUS
10
149.2714739999999836
20
-124.9917540000000002
11
149.2152849999999944
21
-124.9753769999999946
0
LINE
8
BLACK
6
CONTINUOUS
10
149.2152849999999944
20
-124.9753769999999946
11
149.1696409999999844
21
-124.9387429999999881
0
LINE
8
BLACK
6
CONTINUOUS
10
149.1696409999999844
20
-124.9387429999999881
11
148.9768039999999871
21
-124.7089299999999952
0
LINE
8
BLACK
6
CONTINUOUS
10
148.9768039999999871
20
-124.7089299999999952
11
148.9486530000000073
21
-124.6576179999999994
0
LINE
8
BLACK
6
CONTINUOUS
10
148.9486530000000073
20
-124.6576179999999994
11
148.9422820000000058
21
-124.5994389999999896
0
LINE
8
BLACK
6
CONTINUOUS
10
148.9422820000000058
20
-124.5994389999999896
11
148.9586589999999831
21
-124.5432500000000005
0
LINE
8
BLACK
6
CONTINUOUS
10
148.9586589999999831
20
-124.5432500000000005
11
148.9952930000000038
21
-124.497604999999993
0
LINE
8
BLACK
6
CONTINUOUS
10
148.9952930000000038
20
-124.497604999999993
11
149.7804879999999912
21
-123.8387479999999954
0
LINE
8
BLACK
6
CONTINUOUS
10
149.7804879999999912
20
-123.8387479999999954
11
149.8318009999999845
21
-123.8105970000000013
0
LINE
8
BLACK
6
CONTINUOUS
10
149.8318009999999845
20
-123.8105970000000013
11
149.88997999999998
21
-123.8042259999999999
0
LINE
8
BLACK
6
CONTINUOUS
10
149.88997999999998
20
-123.8042259999999999
11
149.9461689999999976
21
-123.8206029999999913
0
LINE
8
BLACK
6
CONTINUOUS
10
163.3430390000000045
20
-122.9450969999999899
11
163.3830169999999953
21
-122.9807500000000005
0
LINE
8
BLACK
6
CONTINUOUS
10
163.3830169999999953
20
-122.9807500000000005
11
163.4112299999999891
21
-123.0195819999999998
0
LINE
8
BLACK
6
CONTINUOUS
10
163.4112299999999891
20
-123.0195819999999998
11
163.4350890000000049
21
-123.0864499999999992
0
LINE
8
BLACK
6
CONTINUOUS
10
163.4350890000000049
20
-123.0864499999999992
11
163.4190079999999909
21
-123.1556019999999876
0
LINE
8
BLACK
6
CONTINUOUS
10
163.4190079999999909
20
-123.1556019999999876
11
163.3833549999999946
21
-123.1955789999999951
0
LINE
8
BLACK
6
CONTINUOUS
10
163.3833549999999946
20
-123.1955789999999951
11
161.6871249999999804
21
-124.4279709999999994
0
LINE
8
BLACK
6
CONTINUOUS
10
161.6871249999999804
20
-124.4279709999999994
11
161.6202580000000069
21
-124.4518289999999894
0
LINE
8
BLACK
6
CONTINUOUS
10
161.6202580000000069
20
-124.4518289999999894
11
161.5511060000000043
21
-124.4357490000000013
0
LINE
8
BLACK
6
CONTINUOUS
10
161.5511060000000043
20
-124.4357490000000013
11
161.5111279999999851
21
-124.4000959999999907
0
LINE
8
BLACK
6
CONTINUOUS
10
161.5111279999999851
20
-124.4000959999999907
11
161.4829139999999938
21
-124.3612629999999939
0
LINE
8
BLACK
6
CONTINUOUS
10
161.4829139999999938
20
-124.3612629999999939
11
161.4590560000000039
21
-124.2943959999999919
0
LINE
8
BLACK
6
CONTINUOUS
10
161.4590560000000039
20
-124.2943959999999919
11
161.475135999999992
21
-124.2252439999999893
0
LINE
8
BLACK
6
CONTINUOUS
10
161.475135999999992
20
-124.2252439999999893
11
161.5107889999999884
21
-124.1852659999999986
0
LINE
8
BLACK
6
CONTINUOUS
10
161.5107889999999884
20
-124.1852659999999986
11
163.20702
21
-122.9528749999999917
0
LINE
8
BLACK
6
CONTINUOUS
10
163.20702
20
-122.9528749999999917
11
163.273887000000002
21
-122.9290169999999875
0
LINE
8
BLACK
6
CONTINUOUS
10
163.273887000000002
20
-122.9290169999999875
11
163.3430390000000045
21
-122.9450969999999899
0
LINE
8
BLACK
6
CONTINUOUS
10
147.4793659999999988
20
-122.7499339999999961
11
147.5554400000000044
21
-122.8109899999999897
0
LINE
8
BLACK
6
CONTINUOUS
10
147.5554400000000044
20
-122.8109899999999897
11
148.166088000000002
21
-123.538731999999996
0
LINE
8
BLACK
6
CONTINUOUS
10
148.166088000000002
20
-123.538731999999996
11
148.2130070000000046
21
-123.624252999999996
0
LINE
8
BLACK
6
CONTINUOUS
10
148.2130070000000046
20
-123.624252999999996
11
148.2236259999999959
21
-123.7212179999999933
0
LINE
8
BLACK
6
CONTINUOUS
10
148.2236259999999959
20
-123.7212179999999933
11
148.196329999999989
21
-123.814865999999995
0
LINE
8
BLACK
6
CONTINUOUS
10
148.196329999999989
20
-123.814865999999995
11
148.1352739999999812
21
-123.8909400000000005
0
LINE
8
BLACK
6
CONTINUOUS
10
148.1352739999999812
20
-123.8909400000000005
11
147.7522519999999986
21
-124.2123339999999985
0
LINE
8
BLACK
6
CONTINUOUS
10
147.7522519999999986
20
-124.2123339999999985
11
147.6667309999999986
21
-124.2592519999999894
0
LINE
8
BLACK
6
CONTINUOUS
10
147.6667309999999986
20
-124.2592519999999894
11
147.5697659999999871
21
-124.2698719999999923
0
LINE
8
BLACK
6
CONTINUOUS
10
147.5697659999999871
20
-124.2698719999999923
11
147.4761179999999854
21
-124.2425759999999997
0
LINE
8
BLACK
6
CONTINUOUS
10
147.4761179999999854
20
-124.2425759999999997
11
147.4000439999999799
21
-124.1815199999999919
0
LINE
8
BLACK
6
CONTINUOUS
10
147.4000439999999799
20
-124.1815199999999919
11
146.7893959999999822
21
-123.4537779999999998
0
LINE
8
BLACK
6
CONTINUOUS
10
146.7893959999999822
20
-123.4537779999999998
11
146.7424769999999796
21
-123.3682569999999998
0
LINE
8
BLACK
6
CONTINUOUS
10
146.7424769999999796
20
-123.3682569999999998
11
146.7318579999999884
21
-123.2712919999999883
0
LINE
8
BLACK
6
CONTINUOUS
10
146.7318579999999884
20
-123.2712919999999883
11
146.7591539999999952
21
-123.1776440000000008
0
LINE
8
BLACK
6
CONTINUOUS
10
146.7591539999999952
20
-123.1776440000000008
11
146.820210000000003
21
-123.1015699999999953
0
LINE
8
BLACK
6
CONTINUOUS
10
146.820210000000003
20
-123.1015699999999953
11
147.2032319999999856
21
-122.7801759999999973
0
LINE
8
BLACK
6
CONTINUOUS
10
147.2032319999999856
20
-122.7801759999999973
11
147.2887529999999856
21
-122.7332579999999922
0
LINE
8
BLACK
6
CONTINUOUS
10
147.2887529999999856
20
-122.7332579999999922
11
147.3857179999999971
21
-122.7226379999999892
0
LINE
8
BLACK
6
CONTINUOUS
10
147.3857179999999971
20
-122.7226379999999892
11
147.4793659999999988
21
-122.7499339999999961
0
LINE
8
BLACK
6
CONTINUOUS
10
158.9030899999999917
20
-122.8856129999999922
11
158.9488910000000033
21
-122.9294569999999993
0
LINE
8
BLACK
6
CONTINUOUS
10
158.9488910000000033
20
-122.9294569999999993
11
159.3704699999999832
21
-123.5315339999999935
0
LINE
8
BLACK
6
CONTINUOUS
10
159.3704699999999832
20
-123.5315339999999935
11
159.3960050000000024
21
-123.5895689999999973
0
LINE
8
BLACK
6
CONTINUOUS
10
159.3960050000000024
20
-123.5895689999999973
11
159.397389000000004
21
-123.6529579999999982
0
LINE
8
BLACK
6
CONTINUOUS
10
159.397389000000004
20
-123.6529579999999982
11
159.3744079999999883
21
-123.7120509999999882
0
LINE
8
BLACK
6
CONTINUOUS
10
159.3744079999999883
20
-123.7120509999999882
11
159.3305639999999812
21
-123.7578519999999997
0
LINE
8
BLACK
6
CONTINUOUS
10
159.3305639999999812
20
-123.7578519999999997
11
159.0643389999999897
21
-123.9442650000000015
0
LINE
8
BLACK
6
CONTINUOUS
10
159.0643389999999897
20
-123.9442650000000015
11
159.0063040000000001
21
-123.9697999999999922
0
LINE
8
BLACK
6
CONTINUOUS
10
159.0063040000000001
20
-123.9697999999999922
11
158.9429149999999993
21
-123.9711839999999938
0
LINE
8
BLACK
6
CONTINUOUS
10
158.9429149999999993
20
-123.9711839999999938
11
158.8838219999999808
21
-123.9482029999999924
0
LINE
8
BLACK
6
CONTINUOUS
10
158.8838219999999808
20
-123.9482029999999924
11
158.8380209999999977
21
-123.9043589999999995
0
LINE
8
BLACK
6
CONTINUOUS
10
158.8380209999999977
20
-123.9043589999999995
11
158.4164419999999893
21
-123.3022819999999911
0
LINE
8
BLACK
6
CONTINUOUS
10
158.4164419999999893
20
-123.3022819999999911
11
158.3909069999999986
21
-123.2442470000000014
0
LINE
8
BLACK
6
CONTINUOUS
10
158.3909069999999986
20
-123.2442470000000014
11
158.389522999999997
21
-123.1808580000000006
0
LINE
8
BLACK
6
CONTINUOUS
10
158.389522999999997
20
-123.1808580000000006
11
158.4125039999999842
21
-123.1217649999999963
0
LINE
8
BLACK
6
CONTINUOUS
10
158.4125039999999842
20
-123.1217649999999963
11
158.4563479999999913
21
-123.075963999999999
0
LINE
8
BLACK
6
CONTINUOUS
10
158.4563479999999913
20
-123.075963999999999
11
158.7225729999999828
21
-122.8895509999999973
0
LINE
8
BLACK
6
CONTINUOUS
10
158.7225729999999828
20
-122.8895509999999973
11
158.7806080000000009
21
-122.8640159999999923
0
LINE
8
BLACK
6
CONTINUOUS
10
158.7806080000000009
20
-122.8640159999999923
11
158.8439970000000017
21
-122.8626319999999907
0
LINE
8
BLACK
6
CONTINUOUS
10
158.8439970000000017
20
-122.8626319999999907
11
158.9030899999999917
21
-122.8856129999999922
0
LINE
8
BLACK
6
CONTINUOUS
10
159.6812840000000051
20
-122.3407149999999888
11
159.7270849999999882
21
-122.3845589999999959
0
LINE
8
BLACK
6
CONTINUOUS
10
159.7270849999999882
20
-122.3845589999999959
11
160.1486639999999966
21
-122.9866359999999901
0
LINE
8
BLACK
6
CONTINUOUS
10
160.1486639999999966
20
-122.9866359999999901
11
160.1741989999999873
21
-123.0446709999999939
0
LINE
8
BLACK
6
CONTINUOUS
10
160.1741989999999873
20
-123.0446709999999939
11
160.1755829999999889
21
-123.1080599999999947
0
LINE
8
BLACK
6
CONTINUOUS
10
160.1755829999999889
20
-123.1080599999999947
11
160.1526020000000017
21
-123.167152999999999
0
LINE
8
BLACK
6
CONTINUOUS
10
160.1526020000000017
20
-123.167152999999999
11
160.1087579999999946
21
-123.2129539999999963
0
LINE
8
BLACK
6
CONTINUOUS
10
160.1087579999999946
20
-123.2129539999999963
11
159.8425330000000031
21
-123.399366999999998
0
LINE
8
BLACK
6
CONTINUOUS
10
159.8425330000000031
20
-123.399366999999998
11
159.784497999999985
21
-123.4249019999999888
0
LINE
8
BLACK
6
CONTINUOUS
10
159.784497999999985
20
-123.4249019999999888
11
159.7211089999999842
21
-123.4262859999999904
0
LINE
8
BLACK
6
CONTINUOUS
10
159.7211089999999842
20
-123.4262859999999904
11
159.6620159999999942
21
-123.4033049999999889
0
LINE
8
BLACK
6
CONTINUOUS
10
159.6620159999999942
20
-123.4033049999999889
11
159.6162149999999826
21
-123.359460999999996
0
LINE
8
BLACK
6
CONTINUOUS
10
159.6162149999999826
20
-123.359460999999996
11
159.1946360000000027
21
-122.7573839999999876
0
LINE
8
BLACK
6
CONTINUOUS
10
159.1946360000000027
20
-122.7573839999999876
11
159.1691009999999835
21
-122.699348999999998
0
LINE
8
BLACK
6
CONTINUOUS
10
159.1691009999999835
20
-122.699348999999998
11
159.1677169999999819
21
-122.6359599999999972
0
LINE
8
BLACK
6
CONTINUOUS
10
159.1677169999999819
20
-122.6359599999999972
11
159.1906979999999976
21
-122.5768669999999929
0
LINE
8
BLACK
6
CONTINUOUS
10
159.1906979999999976
20
-122.5768669999999929
11
159.2345420000000047
21
-122.5310659999999956
0
LINE
8
BLACK
6
CONTINUOUS
10
159.2345420000000047
20
-122.5310659999999956
11
159.5007669999999962
21
-122.3446529999999939
0
LINE
8
BLACK
6
CONTINUOUS
10
159.5007669999999962
20
-122.3446529999999939
11
159.5588019999999858
21
-122.3191179999999889
0
LINE
8
BLACK
6
CONTINUOUS
10
159.5588019999999858
20
-122.3191179999999889
11
159.6221909999999866
21
-122.3177340000000015
0
LINE
8
BLACK
6
CONTINUOUS
10
159.6221909999999866
20
-122.3177340000000015
11
159.6812840000000051
21
-122.3407149999999888
0
LINE
8
BLACK
6
CONTINUOUS
10
160.4594789999999875
20
-121.795817999999997
11
160.5052799999999991
21
-121.8396619999999899
0
LINE
8
BLACK
6
CONTINUOUS
10
160.5052799999999991
20
-121.8396619999999899
11
160.926858999999979
21
-122.4417389999999983
0
LINE
8
BLACK
6
CONTINUOUS
10
160.926858999999979
20
-122.4417389999999983
11
160.9523939999999982
21
-122.499773999999988
0
LINE
8
BLACK
6
CONTINUOUS
10
160.9523939999999982
20
-122.499773999999988
11
160.9537779999999998
21
-122.5631629999999888
0
LINE
8
BLACK
6
CONTINUOUS
10
160.9537779999999998
20
-122.5631629999999888
11
160.9307969999999841
21
-122.622255999999993
0
LINE
8
BLACK
6
CONTINUOUS
10
160.9307969999999841
20
-122.622255999999993
11
160.8869530000000054
21
-122.6680569999999904
0
LINE
8
BLACK
6
CONTINUOUS
10
160.8869530000000054
20
-122.6680569999999904
11
160.6207279999999855
21
-122.8544699999999921
0
LINE
8
BLACK
6
CONTINUOUS
10
160.6207279999999855
20
-122.8544699999999921
11
160.5626929999999959
21
-122.880004999999997
0
LINE
8
BLACK
6
CONTINUOUS
10
160.5626929999999959
20
-122.880004999999997
11
160.4993039999999951
21
-122.8813889999999986
0
LINE
8
BLACK
6
CONTINUOUS
10
160.4993039999999951
20
-122.8813889999999986
11
160.440211000000005
21
-122.8584079999999972
0
LINE
8
BLACK
6
CONTINUOUS
10
160.440211000000005
20
-122.8584079999999972
11
160.3944099999999935
21
-122.8145639999999901
0
LINE
8
BLACK
6
CONTINUOUS
10
160.3944099999999935
20
-122.8145639999999901
11
159.9728309999999851
21
-122.2124869999999959
0
LINE
8
BLACK
6
CONTINUOUS
10
159.9728309999999851
20
-122.2124869999999959
11
159.9472959999999944
21
-122.154451999999992
0
LINE
8
BLACK
6
CONTINUOUS
10
159.9472959999999944
20
-122.154451999999992
11
159.9459119999999928
21
-122.0910629999999912
0
LINE
8
BLACK
6
CONTINUOUS
10
159.9459119999999928
20
-122.0910629999999912
11
159.96889299999998
21
-122.0319700000000012
0
LINE
8
BLACK
6
CONTINUOUS
10
159.96889299999998
20
-122.0319700000000012
11
160.0127369999999871
21
-121.9861689999999896
0
LINE
8
BLACK
6
CONTINUOUS
10
160.0127369999999871
20
-121.9861689999999896
11
160.2789619999999786
21
-121.7997559999999879
0
LINE
8
BLACK
6
CONTINUOUS
10
160.2789619999999786
20
-121.7997559999999879
11
160.3369969999999967
21
-121.7742209999999972
0
LINE
8
BLACK
6
CONTINUOUS
10
160.3369969999999967
20
-121.7742209999999972
11
160.4003859999999975
21
-121.7728369999999956
0
LINE
8
BLACK
6
CONTINUOUS
10
160.4003859999999975
20
-121.7728369999999956
11
160.4594789999999875
21
-121.795817999999997
0
LINE
8
BLACK
6
CONTINUOUS
10
157.6412210000000016
20
-121.0834779999999995
11
157.6870219999999847
21
-121.1273219999999924
0
LINE
8
BLACK
6
CONTINUOUS
10
157.6870219999999847
20
-121.1273219999999924
11
158.1086009999999931
21
-121.7293990000000008
0
LINE
8
BLACK
6
CONTINUOUS
10
158.1086009999999931
20
-121.7293990000000008
11
158.1341359999999838
21
-121.7874339999999904
0
LINE
8
BLACK
6
CONTINUOUS
10
158.1341359999999838
20
-121.7874339999999904
11
158.1355199999999854
21
-121.8508229999999912
0
LINE
8
BLACK
6
CONTINUOUS
10
158.1355199999999854
20
-121.8508229999999912
11
158.1125389999999982
21
-121.9099159999999955
0
LINE
8
BLACK
6
CONTINUOUS
10
158.1125389999999982
20
-121.9099159999999955
11
158.0686949999999911
21
-121.9557169999999928
0
LINE
8
BLACK
6
CONTINUOUS
10
158.0686949999999911
20
-121.9557169999999928
11
157.8024699999999996
21
-122.1421299999999945
0
LINE
8
BLACK
6
CONTINUOUS
10
157.8024699999999996
20
-122.1421299999999945
11
157.7444349999999815
21
-122.1676649999999995
0
LINE
8
BLACK
6
CONTINUOUS
10
157.7444349999999815
20
-122.1676649999999995
11
157.6810459999999807
21
-122.1690490000000011
0
LINE
8
BLACK
6
CONTINUOUS
10
157.6810459999999807
20
-122.1690490000000011
11
157.6219529999999907
21
-122.1460679999999996
0
LINE
8
BLACK
6
CONTINUOUS
10
157.6219529999999907
20
-122.1460679999999996
11
157.5761519999999791
21
-122.1022239999999925
0
LINE
8
BLACK
6
CONTINUOUS
10
157.5761519999999791
20
-122.1022239999999925
11
157.1545729999999992
21
-121.5001469999999983
0
LINE
8
BLACK
6
CONTINUOUS
10
157.1545729999999992
20
-121.5001469999999983
11
157.12903799999998
21
-121.4421119999999945
0
LINE
8
BLACK
6
CONTINUOUS
10
157.12903799999998
20
-121.4421119999999945
11
157.1276540000000068
21
-121.3787229999999937
0
LINE
8
BLACK
6
CONTINUOUS
10
157.1276540000000068
20
-121.3787229999999937
11
157.1506349999999941
21
-121.3196299999999894
0
LINE
8
BLACK
6
CONTINUOUS
10
157.1506349999999941
20
-121.3196299999999894
11
157.1944790000000012
21
-121.2738289999999921
0
LINE
8
BLACK
6
CONTINUOUS
10
157.1944790000000012
20
-121.2738289999999921
11
157.4607039999999927
21
-121.0874159999999904
0
LINE
8
BLACK
6
CONTINUOUS
10
157.4607039999999927
20
-121.0874159999999904
11
157.5187389999999823
21
-121.0618809999999996
0
LINE
8
BLACK
6
CONTINUOUS
10
157.5187389999999823
20
-121.0618809999999996
11
157.5821279999999831
21
-121.060496999999998
0
LINE
8
BLACK
6
CONTINUOUS
10
157.5821279999999831
20
-121.060496999999998
11
157.6412210000000016
21
-121.0834779999999995
0
LINE
8
BLACK
6
CONTINUOUS
10
156.3892019999999832
20
-120.8045879999999954
11
156.4286620000000028
21
-120.8423629999999918
0
LINE
8
BLACK
6
CONTINUOUS
10
156.4286620000000028
20
-120.8423629999999918
11
156.623677999999984
21
-121.1208740000000006
0
LINE
8
BLACK
6
CONTINUOUS
10
156.623677999999984
20
-121.1208740000000006
11
156.6456780000000037
21
-121.1708739999999977
0
LINE
8
BLACK
6
CONTINUOUS
10
156.6456780000000037
20
-121.1708739999999977
11
156.646868999999981
21
-121.2254859999999894
0
LINE
8
BLACK
6
CONTINUOUS
10
156.646868999999981
20
-121.2254859999999894
11
156.6270710000000008
21
-121.2763969999999887
0
LINE
8
BLACK
6
CONTINUOUS
10
156.6270710000000008
20
-121.2763969999999887
11
156.5892969999999877
21
-121.3158559999999966
0
LINE
8
BLACK
6
CONTINUOUS
10
156.5892969999999877
20
-121.3158559999999966
11
156.3599339999999813
21
-121.4764579999999938
0
LINE
8
BLACK
6
CONTINUOUS
10
156.3599339999999813
20
-121.4764579999999938
11
156.3099349999999959
21
-121.4984579999999994
0
LINE
8
BLACK
6
CONTINUOUS
10
156.3099349999999959
20
-121.4984579999999994
11
156.2553230000000042
21
-121.4996499999999884
0
LINE
8
BLACK
6
CONTINUOUS
10
156.2553230000000042
20
-121.4996499999999884
11
156.2044119999999907
21
-121.479851999999994
0
LINE
8
BLACK
6
CONTINUOUS
10
156.2044119999999907
20
-121.479851999999994
11
156.1649519999999995
21
-121.4420769999999976
0
LINE
8
BLACK
6
CONTINUOUS
10
156.1649519999999995
20
-121.4420769999999976
11
155.9699359999999899
21
-121.1635659999999888
0
LINE
8
BLACK
6
CONTINUOUS
10
155.9699359999999899
20
-121.1635659999999888
11
155.9479359999999986
21
-121.1135659999999916
0
LINE
8
BLACK
6
CONTINUOUS
10
155.9479359999999986
20
-121.1135659999999916
11
155.9467449999999928
21
-121.058954
0
LINE
8
BLACK
6
CONTINUOUS
10
155.9467449999999928
20
-121.058954
11
155.9665430000000015
21
-121.0080430000000007
0
LINE
8
BLACK
6
CONTINUOUS
10
155.9665430000000015
20
-121.0080430000000007
11
156.0043169999999861
21
-120.9685839999999928
0
LINE
8
BLACK
6
CONTINUOUS
10
156.0043169999999861
20
-120.9685839999999928
11
156.2336799999999926
21
-120.8079819999999955
0
LINE
8
BLACK
6
CONTINUOUS
10
156.2336799999999926
20
-120.8079819999999955
11
156.2836790000000065
21
-120.78598199999999
0
LINE
8
BLACK
6
CONTINUOUS
10
156.2836790000000065
20
-120.78598199999999
11
156.3382909999999981
21
-120.784790000000001
0
LINE
8
BLACK
6
CONTINUOUS
10
156.3382909999999981
20
-120.784790000000001
11
156.3892019999999832
21
-120.8045879999999954
0
LINE
8
BLACK
6
CONTINUOUS
10
159.1976099999999974
20
-119.9936829999999901
11
159.2434109999999805
21
-120.0375269999999972
0
LINE
8
BLACK
6
CONTINUOUS
10
159.2434109999999805
20
-120.0375269999999972
11
159.6649899999999889
21
-120.6396039999999914
0
LINE
8
BLACK
6
CONTINUOUS
10
159.6649899999999889
20
-120.6396039999999914
11
159.6905249999999796
21
-120.6976389999999952
0
LINE
8
BLACK
6
CONTINUOUS
10
159.6905249999999796
20
-120.6976389999999952
11
159.6919089999999812
21
-120.761027999999996
0
LINE
8
BLACK
6
CONTINUOUS
10
159.6919089999999812
20
-120.761027999999996
11
159.668927999999994
21
-120.8201210000000003
0
LINE
8
BLACK
6
CONTINUOUS
10
159.668927999999994
20
-120.8201210000000003
11
159.6250839999999869
21
-120.8659219999999976
0
LINE
8
BLACK
6
CONTINUOUS
10
159.6250839999999869
20
-120.8659219999999976
11
159.3588589999999954
21
-121.0523349999999994
0
LINE
8
BLACK
6
CONTINUOUS
10
159.3588589999999954
20
-121.0523349999999994
11
159.3008240000000058
21
-121.0778699999999901
0
LINE
8
BLACK
6
CONTINUOUS
10
159.3008240000000058
20
-121.0778699999999901
11
159.2374350000000049
21
-121.0792539999999917
0
LINE
8
BLACK
6
CONTINUOUS
10
159.2374350000000049
20
-121.0792539999999917
11
159.1783419999999865
21
-121.0562729999999902
0
LINE
8
BLACK
6
CONTINUOUS
10
159.1783419999999865
20
-121.0562729999999902
11
159.1325410000000034
21
-121.0124289999999974
0
LINE
8
BLACK
6
CONTINUOUS
10
159.1325410000000034
20
-121.0124289999999974
11
158.710961999999995
21
-120.4103519999999889
0
LINE
8
BLACK
6
CONTINUOUS
10
158.710961999999995
20
-120.4103519999999889
11
158.6854270000000042
21
-120.3523169999999993
0
LINE
8
BLACK
6
CONTINUOUS
10
158.6854270000000042
20
-120.3523169999999993
11
158.6840430000000026
21
-120.2889279999999985
0
LINE
8
BLACK
6
CONTINUOUS
10
158.6840430000000026
20
-120.2889279999999985
11
158.7070239999999899
21
-120.2298349999999942
0
LINE
8
BLACK
6
CONTINUOUS
10
158.7070239999999899
20
-120.2298349999999942
11
158.750867999999997
21
-120.1840339999999969
0
LINE
8
BLACK
6
CONTINUOUS
10
158.750867999999997
20
-120.1840339999999969
11
159.0170929999999885
21
-119.9976209999999952
0
LINE
8
BLACK
6
CONTINUOUS
10
159.0170929999999885
20
-119.9976209999999952
11
159.0751280000000065
21
-119.9720859999999902
0
LINE
8
BLACK
6
CONTINUOUS
10
159.0751280000000065
20
-119.9720859999999902
11
159.1385169999999789
21
-119.9707019999999886
0
LINE
8
BLACK
6
CONTINUOUS
10
159.1385169999999789
20
-119.9707019999999886
11
159.1976099999999974
21
-119.9936829999999901
0
LINE
8
BLACK
6
CONTINUOUS
10
157.1755880000000047
20
-120.2539539999999931
11
157.2150479999999959
21
-120.2917289999999895
0
LINE
8
BLACK
6
CONTINUOUS
10
157.2150479999999959
20
-120.2917289999999895
11
157.4100640000000055
21
-120.5702399999999983
0
LINE
8
BLACK
6
CONTINUOUS
10
157.4100640000000055
20
-120.5702399999999983
11
157.4320639999999969
21
-120.6202399999999955
0
LINE
8
BLACK
6
CONTINUOUS
10
157.4320639999999969
20
-120.6202399999999955
11
157.4332550000000026
21
-120.6748520000000013
0
LINE
8
BLACK
6
CONTINUOUS
10
157.4332550000000026
20
-120.6748520000000013
11
157.413456999999994
21
-120.7257630000000006
0
LINE
8
BLACK
6
CONTINUOUS
10
157.413456999999994
20
-120.7257630000000006
11
157.3756829999999809
21
-120.7652219999999943
0
LINE
8
BLACK
6
CONTINUOUS
10
157.3756829999999809
20
-120.7652219999999943
11
157.1463200000000029
21
-120.9258239999999915
0
LINE
8
BLACK
6
CONTINUOUS
10
157.1463200000000029
20
-120.9258239999999915
11
157.096320999999989
21
-120.9478239999999971
0
LINE
8
BLACK
6
CONTINUOUS
10
157.096320999999989
20
-120.9478239999999971
11
157.0417089999999973
21
-120.9490160000000003
0
LINE
8
BLACK
6
CONTINUOUS
10
157.0417089999999973
20
-120.9490160000000003
11
156.9907979999999839
21
-120.9292179999999917
0
LINE
8
BLACK
6
CONTINUOUS
10
156.9907979999999839
20
-120.9292179999999917
11
156.9513379999999927
21
-120.8914429999999953
0
LINE
8
BLACK
6
CONTINUOUS
10
156.9513379999999927
20
-120.8914429999999953
11
156.7563219999999831
21
-120.6129320000000007
0
LINE
8
BLACK
6
CONTINUOUS
10
156.7563219999999831
20
-120.6129320000000007
11
156.7343219999999917
21
-120.5629319999999893
0
LINE
8
BLACK
6
CONTINUOUS
10
156.7343219999999917
20
-120.5629319999999893
11
156.733130999999986
21
-120.5083199999999977
0
LINE
8
BLACK
6
CONTINUOUS
10
156.733130999999986
20
-120.5083199999999977
11
156.7529289999999946
21
-120.4574089999999984
0
LINE
8
BLACK
6
CONTINUOUS
10
156.7529289999999946
20
-120.4574089999999984
11
156.7907029999999793
21
-120.4179499999999905
0
LINE
8
BLACK
6
CONTINUOUS
10
156.7907029999999793
20
-120.4179499999999905
11
157.0200659999999857
21
-120.2573479999999932
0
LINE
8
BLACK
6
CONTINUOUS
10
157.0200659999999857
20
-120.2573479999999932
11
157.0700649999999996
21
-120.2353479999999877
0
LINE
8
BLACK
6
CONTINUOUS
10
157.0700649999999996
20
-120.2353479999999877
11
157.1246769999999913
21
-120.2341559999999987
0
LINE
8
BLACK
6
CONTINUOUS
10
157.1246769999999913
20
-120.2341559999999987
11
157.1755880000000047
21
-120.2539539999999931
0
LINE
8
BLACK
6
CONTINUOUS
10
163.4622059999999806
20
-120.2700749999999914
11
163.5032750000000021
21
-120.306090999999995
0
LINE
8
BLACK
6
CONTINUOUS
10
163.5032750000000021
20
-120.306090999999995
11
163.527434999999997
21
-120.3550829999999934
0
LINE
8
BLACK
6
CONTINUOUS
10
163.527434999999997
20
-120.3550829999999934
11
163.5999050000000068
21
-120.6255429999999933
0
LINE
8
BLACK
6
CONTINUOUS
10
163.5999050000000068
20
-120.6255429999999933
11
163.603476999999998
21
-120.6800509999999917
0
LINE
8
BLACK
6
CONTINUOUS
10
163.603476999999998
20
-120.6800509999999917
11
163.5859189999999899
21
-120.7317769999999939
0
LINE
8
BLACK
6
CONTINUOUS
10
163.5859189999999899
20
-120.7317769999999939
11
163.549902000000003
21
-120.7728469999999987
0
LINE
8
BLACK
6
CONTINUOUS
10
163.549902000000003
20
-120.7728469999999987
11
163.5009100000000046
21
-120.7970069999999936
0
LINE
8
BLACK
6
CONTINUOUS
10
163.5009100000000046
20
-120.7970069999999936
11
163.1724949999999978
21
-120.8850049999999925
0
LINE
8
BLACK
6
CONTINUOUS
10
163.1724949999999978
20
-120.8850049999999925
11
163.1179860000000019
21
-120.8885779999999954
0
LINE
8
BLACK
6
CONTINUOUS
10
163.1179860000000019
20
-120.8885779999999954
11
163.0662599999999998
21
-120.8710189999999898
0
LINE
8
BLACK
6
CONTINUOUS
10
163.0662599999999998
20
-120.8710189999999898
11
163.0251910000000066
21
-120.8350030000000004
0
LINE
8
BLACK
6
CONTINUOUS
10
163.0251910000000066
20
-120.8350030000000004
11
163.0010309999999834
21
-120.7860109999999878
0
LINE
8
BLACK
6
CONTINUOUS
10
163.0010309999999834
20
-120.7860109999999878
11
162.928561000000002
21
-120.5155509999999879
0
LINE
8
BLACK
6
CONTINUOUS
10
162.928561000000002
20
-120.5155509999999879
11
162.9249889999999823
21
-120.4610429999999894
0
LINE
8
BLACK
6
CONTINUOUS
10
162.9249889999999823
20
-120.4610429999999894
11
162.9425469999999905
21
-120.4093170000000015
0
LINE
8
BLACK
6
CONTINUOUS
10
162.9425469999999905
20
-120.4093170000000015
11
162.9785640000000058
21
-120.3682469999999967
0
LINE
8
BLACK
6
CONTINUOUS
10
162.9785640000000058
20
-120.3682469999999967
11
163.0275560000000041
21
-120.3440869999999876
0
LINE
8
BLACK
6
CONTINUOUS
10
163.0275560000000041
20
-120.3440869999999876
11
163.3559709999999825
21
-120.2560889999999887
0
LINE
8
BLACK
6
CONTINUOUS
10
163.3559709999999825
20
-120.2560889999999887
11
163.4104799999999784
21
-120.252516
0
LINE
8
BLACK
6
CONTINUOUS
10
163.4104799999999784
20
-120.252516
11
163.4622059999999806
21
-120.2700749999999914
0
LINE
8
BLACK
6
CONTINUOUS
10
163.2137400000000014
20
-119.3427870000000013
11
163.2548089999999945
21
-119.3788029999999907
0
LINE
8
BLACK
6
CONTINUOUS
10
163.2548089999999945
20
-119.3788029999999907
11
163.2789689999999894
21
-119.427794999999989
0
LINE
8
BLACK
6
CONTINUOUS
10
163.2789689999999894
20
-119.427794999999989
11
163.3514389999999992
21
-119.698254999999989
0
LINE
8
BLACK
6
CONTINUOUS
10
163.3514389999999992
20
-119.698254999999989
11
163.3550109999999904
21
-119.7527630000000016
0
LINE
8
BLACK
6
CONTINUOUS
10
163.3550109999999904
20
-119.7527630000000016
11
163.3374529999999822
21
-119.8044889999999896
0
LINE
8
BLACK
6
CONTINUOUS
10
163.3374529999999822
20
-119.8044889999999896
11
163.3014359999999954
21
-119.8455589999999944
0
LINE
8
BLACK
6
CONTINUOUS
10
163.3014359999999954
20
-119.8455589999999944
11
163.252443999999997
21
-119.8697189999999893
0
LINE
8
BLACK
6
CONTINUOUS
10
163.252443999999997
20
-119.8697189999999893
11
162.9240289999999902
21
-119.9577169999999882
0
LINE
8
BLACK
6
CONTINUOUS
10
162.9240289999999902
20
-119.9577169999999882
11
162.8695199999999943
21
-119.9612899999999911
0
LINE
8
BLACK
6
CONTINUOUS
10
162.8695199999999943
20
-119.9612899999999911
11
162.8177939999999921
21
-119.9437309999999997
0
LINE
8
BLACK
6
CONTINUOUS
10
162.8177939999999921
20
-119.9437309999999997
11
162.776724999999999
21
-119.9077149999999961
0
LINE
8
BLACK
6
CONTINUOUS
10
162.776724999999999
20
-119.9077149999999961
11
162.7525650000000041
21
-119.8587229999999977
0
LINE
8
BLACK
6
CONTINUOUS
10
162.7525650000000041
20
-119.8587229999999977
11
162.6800949999999943
21
-119.5882629999999978
0
LINE
8
BLACK
6
CONTINUOUS
10
162.6800949999999943
20
-119.5882629999999978
11
162.6765230000000031
21
-119.5337549999999993
0
LINE
8
BLACK
6
CONTINUOUS
10
162.6765230000000031
20
-119.5337549999999993
11
162.6940809999999829
21
-119.4820289999999972
0
LINE
8
BLACK
6
CONTINUOUS
10
162.6940809999999829
20
-119.4820289999999972
11
162.7300979999999981
21
-119.4409589999999923
0
LINE
8
BLACK
6
CONTINUOUS
10
162.7300979999999981
20
-119.4409589999999923
11
162.7790899999999965
21
-119.4167989999999975
0
LINE
8
BLACK
6
CONTINUOUS
10
162.7790899999999965
20
-119.4167989999999975
11
163.1075050000000033
21
-119.3288009999999986
0
LINE
8
BLACK
6
CONTINUOUS
10
163.1075050000000033
20
-119.3288009999999986
11
163.1620139999999992
21
-119.3252279999999956
0
LINE
8
BLACK
6
CONTINUOUS
10
163.1620139999999992
20
-119.3252279999999956
11
163.2137400000000014
21
-119.3427870000000013
0
LINE
8
BLACK
6
CONTINUOUS
10
160.1362519999999847
20
-118.2385759999999948
11
160.2028169999999818
21
-118.2920000000000016
0
LINE
8
BLACK
6
CONTINUOUS
10
160.2028169999999818
20
-118.2920000000000016
11
160.692941999999988
21
-118.8761089999999996
0
LINE
8
BLACK
6
CONTINUOUS
10
160.692941999999988
20
-118.8761089999999996
11
160.7339959999999905
21
-118.9509389999999911
0
LINE
8
BLACK
6
CONTINUOUS
10
160.7339959999999905
20
-118.9509389999999911
11
160.7432880000000068
21
-119.0357839999999925
0
LINE
8
BLACK
6
CONTINUOUS
10
160.7432880000000068
20
-119.0357839999999925
11
160.7194039999999973
21
-119.1177259999999904
0
LINE
8
BLACK
6
CONTINUOUS
10
160.7194039999999973
20
-119.1177259999999904
11
160.6659799999999905
21
-119.1842909999999875
0
LINE
8
BLACK
6
CONTINUOUS
10
160.6659799999999905
20
-119.1842909999999875
11
160.3308349999999791
21
-119.4655099999999948
0
LINE
8
BLACK
6
CONTINUOUS
10
160.3308349999999791
20
-119.4655099999999948
11
160.2560049999999876
21
-119.5065639999999973
0
LINE
8
BLACK
6
CONTINUOUS
10
160.2560049999999876
20
-119.5065639999999973
11
160.1711599999999862
21
-119.5158559999999994
0
LINE
8
BLACK
6
CONTINUOUS
10
160.1711599999999862
20
-119.5158559999999994
11
160.0892179999999883
21
-119.4919719999999899
0
LINE
8
BLACK
6
CONTINUOUS
10
160.0892179999999883
20
-119.4919719999999899
11
160.0226529999999912
21
-119.4385479999999973
0
LINE
8
BLACK
6
CONTINUOUS
10
160.0226529999999912
20
-119.4385479999999973
11
159.532527999999985
21
-118.8544389999999993
0
LINE
8
BLACK
6
CONTINUOUS
10
159.532527999999985
20
-118.8544389999999993
11
159.4914739999999824
21
-118.7796089999999936
0
LINE
8
BLACK
6
CONTINUOUS
10
159.4914739999999824
20
-118.7796089999999936
11
159.4821819999999946
21
-118.6947639999999922
0
LINE
8
BLACK
6
CONTINUOUS
10
159.4821819999999946
20
-118.6947639999999922
11
159.5060660000000041
21
-118.6128219999999942
0
LINE
8
BLACK
6
CONTINUOUS
10
159.5060660000000041
20
-118.6128219999999942
11
159.5594899999999825
21
-118.5462569999999971
0
LINE
8
BLACK
6
CONTINUOUS
10
159.5594899999999825
20
-118.5462569999999971
11
159.8946349999999939
21
-118.2650379999999899
0
LINE
8
BLACK
6
CONTINUOUS
10
159.8946349999999939
20
-118.2650379999999899
11
159.9694649999999854
21
-118.2239840000000015
0
LINE
8
BLACK
6
CONTINUOUS
10
159.9694649999999854
20
-118.2239840000000015
11
160.0543099999999868
21
-118.2146919999999994
0
LINE
8
BLACK
6
CONTINUOUS
10
160.0543099999999868
20
-118.2146919999999994
11
160.1362519999999847
21
-118.2385759999999948
0
LINE
8
BLACK
6
CONTINUOUS
10
162.0086859999999831
20
-118.5508669999999967
11
162.0535699999999792
21
-118.5868899999999968
0
LINE
8
BLACK
6
CONTINUOUS
10
162.0535699999999792
20
-118.5868899999999968
11
162.2753319999999917
21
-118.8511749999999978
0
LINE
8
BLACK
6
CONTINUOUS
10
162.2753319999999917
20
-118.8511749999999978
11
162.3030139999999903
21
-118.9016329999999897
0
LINE
8
BLACK
6
CONTINUOUS
10
162.3030139999999903
20
-118.9016329999999897
11
162.3092790000000036
21
-118.95884199999999
0
LINE
8
BLACK
6
CONTINUOUS
10
162.3092790000000036
20
-118.95884199999999
11
162.2931749999999909
21
-119.0140940000000001
0
LINE
8
BLACK
6
CONTINUOUS
10
162.2931749999999909
20
-119.0140940000000001
11
162.2571519999999907
21
-119.0589779999999962
0
LINE
8
BLACK
6
CONTINUOUS
10
162.2571519999999907
20
-119.0589779999999962
11
162.0311679999999797
21
-119.2485999999999962
0
LINE
8
BLACK
6
CONTINUOUS
10
162.0311679999999797
20
-119.2485999999999962
11
161.9807109999999852
21
-119.2762819999999948
0
LINE
8
BLACK
6
CONTINUOUS
10
161.9807109999999852
20
-119.2762819999999948
11
161.9235019999999849
21
-119.2825469999999939
0
LINE
8
BLACK
6
CONTINUOUS
10
161.9235019999999849
20
-119.2825469999999939
11
161.8682499999999891
21
-119.2664429999999953
0
LINE
8
BLACK
6
CONTINUOUS
10
161.8682499999999891
20
-119.2664429999999953
11
161.8233659999999929
21
-119.2304199999999952
0
LINE
8
BLACK
6
CONTINUOUS
10
161.8233659999999929
20
-119.2304199999999952
11
161.6016039999999805
21
-118.9661349999999942
0
LINE
8
BLACK
6
CONTINUOUS
10
161.6016039999999805
20
-118.9661349999999942
11
161.5739219999999818
21
-118.9156769999999881
0
LINE
8
BLACK
6
CONTINUOUS
10
161.5739219999999818
20
-118.9156769999999881
11
161.567656999999997
21
-118.8584679999999878
0
LINE
8
BLACK
6
CONTINUOUS
10
161.567656999999997
20
-118.8584679999999878
11
161.5837609999999813
21
-118.8032159999999919
0
LINE
8
BLACK
6
CONTINUOUS
10
161.5837609999999813
20
-118.8032159999999919
11
161.6197839999999815
21
-118.7583319999999958
0
LINE
8
BLACK
6
CONTINUOUS
10
161.6197839999999815
20
-118.7583319999999958
11
161.8457679999999925
21
-118.5687099999999958
0
LINE
8
BLACK
6
CONTINUOUS
10
161.8457679999999925
20
-118.5687099999999958
11
161.8962249999999869
21
-118.5410279999999972
0
LINE
8
BLACK
6
CONTINUOUS
10
161.8962249999999869
20
-118.5410279999999972
11
161.9534339999999872
21
-118.5347629999999981
0
LINE
8
BLACK
6
CONTINUOUS
10
161.9534339999999872
20
-118.5347629999999981
11
162.0086859999999831
21
-118.5508669999999967
0
LINE
8
BLACK
6
CONTINUOUS
10
162.751749999999987
20
-117.9273629999999997
11
162.7966339999999832
21
-117.9633859999999999
0
LINE
8
BLACK
6
CONTINUOUS
10
162.7966339999999832
20
-117.9633859999999999
11
163.0183959999999956
21
-118.2276710000000008
0
LINE
8
BLACK
6
CONTINUOUS
10
163.0183959999999956
20
-118.2276710000000008
11
163.0460779999999943
21
-118.2781289999999927
0
LINE
8
BLACK
6
CONTINUOUS
10
163.0460779999999943
20
-118.2781289999999927
11
163.0523429999999792
21
-118.335337999999993
0
LINE
8
BLACK
6
CONTINUOUS
10
163.0523429999999792
20
-118.335337999999993
11
163.0362389999999948
21
-118.3905899999999889
0
LINE
8
BLACK
6
CONTINUOUS
10
163.0362389999999948
20
-118.3905899999999889
11
163.0002159999999947
21
-118.4354739999999993
0
LINE
8
BLACK
6
CONTINUOUS
10
163.0002159999999947
20
-118.4354739999999993
11
162.7742319999999836
21
-118.6250959999999992
0
LINE
8
BLACK
6
CONTINUOUS
10
162.7742319999999836
20
-118.6250959999999992
11
162.7237749999999892
21
-118.6527779999999979
0
LINE
8
BLACK
6
CONTINUOUS
10
162.7237749999999892
20
-118.6527779999999979
11
162.6665659999999889
21
-118.6590429999999969
0
LINE
8
BLACK
6
CONTINUOUS
10
162.6665659999999889
20
-118.6590429999999969
11
162.611313999999993
21
-118.6429389999999984
0
LINE
8
BLACK
6
CONTINUOUS
10
162.611313999999993
20
-118.6429389999999984
11
162.5664299999999969
21
-118.6069159999999982
0
LINE
8
BLACK
6
CONTINUOUS
10
162.5664299999999969
20
-118.6069159999999982
11
162.3446679999999844
21
-118.3426309999999972
0
LINE
8
BLACK
6
CONTINUOUS
10
162.3446679999999844
20
-118.3426309999999972
11
162.3169859999999858
21
-118.2921729999999911
0
LINE
8
BLACK
6
CONTINUOUS
10
162.3169859999999858
20
-118.2921729999999911
11
162.3107210000000009
21
-118.2349639999999908
0
LINE
8
BLACK
6
CONTINUOUS
10
162.3107210000000009
20
-118.2349639999999908
11
162.3268249999999853
21
-118.179711999999995
0
LINE
8
BLACK
6
CONTINUOUS
10
162.3268249999999853
20
-118.179711999999995
11
162.3628479999999854
21
-118.1348279999999988
0
LINE
8
BLACK
6
CONTINUOUS
10
162.3628479999999854
20
-118.1348279999999988
11
162.5888319999999965
21
-117.9452059999999989
0
LINE
8
BLACK
6
CONTINUOUS
10
162.5888319999999965
20
-117.9452059999999989
11
162.6392889999999909
21
-117.9175240000000002
0
LINE
8
BLACK
6
CONTINUOUS
10
162.6392889999999909
20
-117.9175240000000002
11
162.6964979999999912
21
-117.9112590000000012
0
LINE
8
BLACK
6
CONTINUOUS
10
162.6964979999999912
20
-117.9112590000000012
11
162.751749999999987
21
-117.9273629999999997
0
LINE
8
BLACK
6
CONTINUOUS
10
161.764095999999995
20
-116.872651999999988
11
161.8306609999999921
21
-116.9260759999999948
0
LINE
8
BLACK
6
CONTINUOUS
10
161.8306609999999921
20
-116.9260759999999948
11
162.3207859999999982
21
-117.5101849999999928
0
LINE
8
BLACK
6
CONTINUOUS
10
162.3207859999999982
20
-117.5101849999999928
11
162.3618400000000008
21
-117.5850149999999985
0
LINE
8
BLACK
6
CONTINUOUS
10
162.3618400000000008
20
-117.5850149999999985
11
162.3711319999999887
21
-117.6698599999999999
0
LINE
8
BLACK
6
CONTINUOUS
10
162.3711319999999887
20
-117.6698599999999999
11
162.3472479999999791
21
-117.7518019999999979
0
LINE
8
BLACK
6
CONTINUOUS
10
162.3472479999999791
20
-117.7518019999999979
11
162.2938240000000008
21
-117.818366999999995
0
LINE
8
BLACK
6
CONTINUOUS
10
162.2938240000000008
20
-117.818366999999995
11
161.9586789999999894
21
-118.099585999999988
0
LINE
8
BLACK
6
CONTINUOUS
10
161.9586789999999894
20
-118.099585999999988
11
161.8838489999999979
21
-118.1406399999999906
0
LINE
8
BLACK
6
CONTINUOUS
10
161.8838489999999979
20
-118.1406399999999906
11
161.7990039999999965
21
-118.1499319999999926
0
LINE
8
BLACK
6
CONTINUOUS
10
161.7990039999999965
20
-118.1499319999999926
11
161.7170619999999985
21
-118.1260479999999973
0
LINE
8
BLACK
6
CONTINUOUS
10
161.7170619999999985
20
-118.1260479999999973
11
161.6504970000000014
21
-118.0726239999999905
0
LINE
8
BLACK
6
CONTINUOUS
10
161.6504970000000014
20
-118.0726239999999905
11
161.1603719999999953
21
-117.4885149999999925
0
LINE
8
BLACK
6
CONTINUOUS
10
161.1603719999999953
20
-117.4885149999999925
11
161.1193179999999927
21
-117.413685000000001
0
LINE
8
BLACK
6
CONTINUOUS
10
161.1193179999999927
20
-117.413685000000001
11
161.1100260000000048
21
-117.3288399999999996
0
LINE
8
BLACK
6
CONTINUOUS
10
161.1100260000000048
20
-117.3288399999999996
11
161.133909999999986
21
-117.2468980000000016
0
LINE
8
BLACK
6
CONTINUOUS
10
161.133909999999986
20
-117.2468980000000016
11
161.1873339999999928
21
-117.1803329999999903
0
LINE
8
BLACK
6
CONTINUOUS
10
161.1873339999999928
20
-117.1803329999999903
11
161.5224790000000041
21
-116.8991139999999973
0
LINE
8
BLACK
6
CONTINUOUS
10
161.5224790000000041
20
-116.8991139999999973
11
161.5973089999999956
21
-116.8580599999999947
0
LINE
8
BLACK
6
CONTINUOUS
10
161.5973089999999956
20
-116.8580599999999947
11
161.682153999999997
21
-116.8487679999999926
0
LINE
8
BLACK
6
CONTINUOUS
10
161.682153999999997
20
-116.8487679999999926
11
161.764095999999995
21
-116.872651999999988
0
LINE
8
BLACK
6
CONTINUOUS
10
142.8521209999999826
20
-115.5200009999999935
11
142.8986139999999807
21
-115.5736569999999972
0
LINE
8
BLACK
6
CONTINUOUS
10
142.8986139999999807
20
-115.5736569999999972
11
142.9099999999999966
21
-115.6259989999999931
0
LINE
8
BLACK
6
CONTINUOUS
10
142.9099999999999966
20
-115.6259989999999931
11
142.9099999999999966
21
-115.6739989999999949
0
LINE
8
BLACK
6
CONTINUOUS
10
142.9099999999999966
20
-115.6739989999999949
11
142.8899979999999914
21
-115.7421199999999999
0
LINE
8
BLACK
6
CONTINUOUS
10
142.8899979999999914
20
-115.7421199999999999
11
142.8363420000000019
21
-115.788612999999998
0
LINE
8
BLACK
6
CONTINUOUS
10
142.8363420000000019
20
-115.788612999999998
11
142.7839999999999918
21
-115.7999989999999997
0
LINE
8
BLACK
6
CONTINUOUS
10
142.7839999999999918
20
-115.7999989999999997
11
140.23599999999999
21
-115.8000019999999921
0
LINE
8
BLACK
6
CONTINUOUS
10
140.23599999999999
20
-115.8000019999999921
11
140.1678789999999992
21
-115.7800000000000011
0
LINE
8
BLACK
6
CONTINUOUS
10
140.1678789999999992
20
-115.7800000000000011
11
140.1213860000000011
21
-115.7263439999999974
0
LINE
8
BLACK
6
CONTINUOUS
10
140.1213860000000011
20
-115.7263439999999974
11
140.1099999999999852
21
-115.6740020000000015
0
LINE
8
BLACK
6
CONTINUOUS
10
140.1099999999999852
20
-115.6740020000000015
11
140.1099999999999852
21
-115.626000999999988
0
LINE
8
BLACK
6
CONTINUOUS
10
140.1099999999999852
20
-115.626000999999988
11
140.1300019999999904
21
-115.5578799999999973
0
LINE
8
BLACK
6
CONTINUOUS
10
140.1300019999999904
20
-115.5578799999999973
11
140.1836579999999799
21
-115.5113869999999991
0
LINE
8
BLACK
6
CONTINUOUS
10
140.1836579999999799
20
-115.5113869999999991
11
140.23599999999999
21
-115.5000009999999975
0
LINE
8
BLACK
6
CONTINUOUS
10
140.23599999999999
20
-115.5000009999999975
11
142.7839999999999918
21
-115.4999989999999883
0
LINE
8
BLACK
6
CONTINUOUS
10
142.7839999999999918
20
-115.4999989999999883
11
142.8521209999999826
21
-115.5200009999999935
0
LINE
8
BLACK
6
CONTINUOUS
10
142.9121209999999849
20
-113.2669020000000017
11
142.958613999999983
21
-113.3205579999999912
0
LINE
8
BLACK
6
CONTINUOUS
10
142.958613999999983
20
-113.3205579999999912
11
142.9699999999999989
21
-113.3729000000000013
0
LINE
8
BLACK
6
CONTINUOUS
10
142.9699999999999989
20
-113.3729000000000013
11
142.9699999999999989
21
-113.4208999999999889
0
LINE
8
BLACK
6
CONTINUOUS
10
142.9699999999999989
20
-113.4208999999999889
11
142.9499979999999937
21
-113.4890209999999939
0
LINE
8
BLACK
6
CONTINUOUS
10
142.9499979999999937
20
-113.4890209999999939
11
142.8963420000000042
21
-113.5355139999999921
0
LINE
8
BLACK
6
CONTINUOUS
10
142.8963420000000042
20
-113.5355139999999921
11
142.8439999999999941
21
-113.5468999999999937
0
LINE
8
BLACK
6
CONTINUOUS
10
142.8439999999999941
20
-113.5468999999999937
11
140.2959999999999923
21
-113.5469030000000004
0
LINE
8
BLACK
6
CONTINUOUS
10
140.2959999999999923
20
-113.5469030000000004
11
140.2278790000000015
21
-113.5269009999999952
0
LINE
8
BLACK
6
CONTINUOUS
10
140.2278790000000015
20
-113.5269009999999952
11
140.1813860000000034
21
-113.4732449999999915
0
LINE
8
BLACK
6
CONTINUOUS
10
140.1813860000000034
20
-113.4732449999999915
11
140.1699999999999875
21
-113.4209029999999956
0
LINE
8
BLACK
6
CONTINUOUS
10
140.1699999999999875
20
-113.4209029999999956
11
140.1699999999999875
21
-113.3729019999999963
0
LINE
8
BLACK
6
CONTINUOUS
10
140.1699999999999875
20
-113.3729019999999963
11
140.1900019999999927
21
-113.3047809999999913
0
LINE
8
BLACK
6
CONTINUOUS
10
140.1900019999999927
20
-113.3047809999999913
11
140.2436579999999822
21
-113.2582879999999932
0
LINE
8
BLACK
6
CONTINUOUS
10
140.2436579999999822
20
-113.2582879999999932
11
140.2959999999999923
21
-113.2469019999999915
0
LINE
8
BLACK
6
CONTINUOUS
10
140.2959999999999923
20
-113.2469019999999915
11
142.8439999999999941
21
-113.2468999999999966
0
LINE
8
BLACK
6
CONTINUOUS
10
142.8439999999999941
20
-113.2468999999999966
11
142.9121209999999849
21
-113.2669020000000017
0
LINE
8
BLACK
6
CONTINUOUS
10
160.0635759999999834
20
-111.2075600000000009
11
160.1089949999999931
21
-111.2379079999999902
0
LINE
8
BLACK
6
CONTINUOUS
10
160.1089949999999931
20
-111.2379079999999902
11
160.1393429999999967
21
-111.2833269999999999
0
LINE
8
BLACK
6
CONTINUOUS
10
160.1393429999999967
20
-111.2833269999999999
11
160.1500000000000057
21
-111.3369029999999924
0
LINE
8
BLACK
6
CONTINUOUS
10
160.1500000000000057
20
-111.3369029999999924
11
160.1500000000000057
21
-111.6769029999999958
0
LINE
8
BLACK
6
CONTINUOUS
10
160.1500000000000057
20
-111.6769029999999958
11
160.1393429999999967
21
-111.7304789999999883
0
LINE
8
BLACK
6
CONTINUOUS
10
160.1393429999999967
20
-111.7304789999999883
11
160.1089949999999931
21
-111.775897999999998
0
LINE
8
BLACK
6
CONTINUOUS
10
160.1089949999999931
20
-111.775897999999998
11
160.0635759999999834
21
-111.8062460000000016
0
LINE
8
BLACK
6
CONTINUOUS
10
160.0635759999999834
20
-111.8062460000000016
11
160.0099999999999909
21
-111.8169029999999964
0
LINE
8
BLACK
6
CONTINUOUS
10
160.0099999999999909
20
-111.8169029999999964
11
159.7299999999999898
21
-111.8169029999999964
0
LINE
8
BLACK
6
CONTINUOUS
10
159.7299999999999898
20
-111.8169029999999964
11
159.6764239999999972
21
-111.8062460000000016
0
LINE
8
BLACK
6
CONTINUOUS
10
159.6764239999999972
20
-111.8062460000000016
11
159.6310049999999876
21
-111.775897999999998
0
LINE
8
BLACK
6
CONTINUOUS
10
159.6310049999999876
20
-111.775897999999998
11
159.600656999999984
21
-111.7304789999999883
0
LINE
8
BLACK
6
CONTINUOUS
10
159.600656999999984
20
-111.7304789999999883
11
159.5900000000000034
21
-111.6769029999999958
0
LINE
8
BLACK
6
CONTINUOUS
10
159.5900000000000034
20
-111.6769029999999958
11
159.5900000000000034
21
-111.3369029999999924
0
LINE
8
BLACK
6
CONTINUOUS
10
159.5900000000000034
20
-111.3369029999999924
11
159.600656999999984
21
-111.2833269999999999
0
LINE
8
BLACK
6
CONTINUOUS
10
159.600656999999984
20
-111.2833269999999999
11
159.6310049999999876
21
-111.2379079999999902
0
LINE
8
BLACK
6
CONTINUOUS
10
159.6310049999999876
20
-111.2379079999999902
11
159.6764239999999972
21
-111.2075600000000009
0
LINE
8
BLACK
6
CONTINUOUS
10
159.6764239999999972
20
-111.2075600000000009
11
159.7299999999999898
21
-111.1969029999999918
0
LINE
8
BLACK
6
CONTINUOUS
10
159.7299999999999898
20
-111.1969029999999918
11
160.0099999999999909
21
-111.1969029999999918
0
LINE
8
BLACK
6
CONTINUOUS
10
160.0099999999999909
20
-111.1969029999999918
11
160.0635759999999834
21
-111.2075600000000009
0
LINE
8
BLACK
6
CONTINUOUS
10
161.0235759999999914
20
-111.2075600000000009
11
161.068995000000001
21
-111.2379079999999902
0
LINE
8
BLACK
6
CONTINUOUS
10
161.068995000000001
20
-111.2379079999999902
11
161.0993430000000046
21
-111.2833269999999999
0
LINE
8
BLACK
6
CONTINUOUS
10
161.0993430000000046
20
-111.2833269999999999
11
161.1099999999999852
21
-111.3369029999999924
0
LINE
8
BLACK
6
CONTINUOUS
10
161.1099999999999852
20
-111.3369029999999924
11
161.1099999999999852
21
-111.6769029999999958
0
LINE
8
BLACK
6
CONTINUOUS
10
161.1099999999999852
20
-111.6769029999999958
11
161.0993430000000046
21
-111.7304789999999883
0
LINE
8
BLACK
6
CONTINUOUS
10
161.0993430000000046
20
-111.7304789999999883
11
161.068995000000001
21
-111.775897999999998
0
LINE
8
BLACK
6
CONTINUOUS
10
161.068995000000001
20
-111.775897999999998
11
161.0235759999999914
21
-111.8062460000000016
0
LINE
8
BLACK
6
CONTINUOUS
10
161.0235759999999914
20
-111.8062460000000016
11
160.9699999999999989
21
-111.8169029999999964
0
LINE
8
BLACK
6
CONTINUOUS
10
160.9699999999999989
20
-111.8169029999999964
11
160.6899999999999977
21
-111.8169029999999964
0
LINE
8
BLACK
6
CONTINUOUS
10
160.6899999999999977
20
-111.8169029999999964
11
160.6364240000000052
21
-111.8062460000000016
0
LINE
8
BLACK
6
CONTINUOUS
10
160.6364240000000052
20
-111.8062460000000016
11
160.5910049999999956
21
-111.775897999999998
0
LINE
8
BLACK
6
CONTINUOUS
10
160.5910049999999956
20
-111.775897999999998
11
160.560656999999992
21
-111.7304789999999883
0
LINE
8
BLACK
6
CONTINUOUS
10
160.560656999999992
20
-111.7304789999999883
11
160.5499999999999829
21
-111.6769029999999958
0
LINE
8
BLACK
6
CONTINUOUS
10
160.5499999999999829
20
-111.6769029999999958
11
160.5499999999999829
21
-111.3369029999999924
0
LINE
8
BLACK
6
CONTINUOUS
10
160.5499999999999829
20
-111.3369029999999924
11
160.560656999999992
21
-111.2833269999999999
0
LINE
8
BLACK
6
CONTINUOUS
10
160.560656999999992
20
-111.2833269999999999
11
160.5910049999999956
21
-111.2379079999999902
0
LINE
8
BLACK
6
CONTINUOUS
10
160.5910049999999956
20
-111.2379079999999902
11
160.6364240000000052
21
-111.2075600000000009
0
LINE
8
BLACK
6
CONTINUOUS
10
160.6364240000000052
20
-111.2075600000000009
11
160.6899999999999977
21
-111.1969029999999918
0
LINE
8
BLACK
6
CONTINUOUS
10
160.6899999999999977
20
-111.1969029999999918
11
160.9699999999999989
21
-111.1969029999999918
0
LINE
8
BLACK
6
CONTINUOUS
10
160.9699999999999989
20
-111.1969029999999918
11
161.0235759999999914
21
-111.2075600000000009
0
LINE
8
BLACK
6
CONTINUOUS
10
158.3535760000000039
20
-111.1975599999999957
11
158.3989949999999851
21
-111.2279079999999993
0
LINE
8
BLACK
6
CONTINUOUS
10
158.3989949999999851
20
-111.2279079999999993
11
158.4293429999999887
21
-111.2733269999999948
0
LINE
8
BLACK
6
CONTINUOUS
10
158.4293429999999887
20
-111.2733269999999948
11
158.4399999999999977
21
-111.3269030000000015
0
LINE
8
BLACK
6
CONTINUOUS
10
158.4399999999999977
20
-111.3269030000000015
11
158.4399999999999977
21
-111.6669029999999907
0
LINE
8
BLACK
6
CONTINUOUS
10
158.4399999999999977
20
-111.6669029999999907
11
158.4293429999999887
21
-111.7204789999999974
0
LINE
8
BLACK
6
CONTINUOUS
10
158.4293429999999887
20
-111.7204789999999974
11
158.3989949999999851
21
-111.7658979999999929
0
LINE
8
BLACK
6
CONTINUOUS
10
158.3989949999999851
20
-111.7658979999999929
11
158.3535760000000039
21
-111.7962459999999965
0
LINE
8
BLACK
6
CONTINUOUS
10
158.3535760000000039
20
-111.7962459999999965
11
158.2999999999999829
21
-111.8069029999999913
0
LINE
8
BLACK
6
CONTINUOUS
10
158.2999999999999829
20
-111.8069029999999913
11
158.0199999999999818
21
-111.8069029999999913
0
LINE
8
BLACK
6
CONTINUOUS
10
158.0199999999999818
20
-111.8069029999999913
11
157.9664239999999893
21
-111.7962459999999965
0
LINE
8
BLACK
6
CONTINUOUS
10
157.9664239999999893
20
-111.7962459999999965
11
157.9210049999999796
21
-111.7658979999999929
0
LINE
8
BLACK
6
CONTINUOUS
10
157.9210049999999796
20
-111.7658979999999929
11
157.8906570000000045
21
-111.7204789999999974
0
LINE
8
BLACK
6
CONTINUOUS
10
157.8906570000000045
20
-111.7204789999999974
11
157.8799999999999955
21
-111.6669029999999907
0
LINE
8
BLACK
6
CONTINUOUS
10
157.8799999999999955
20
-111.6669029999999907
11
157.8799999999999955
21
-111.3269030000000015
0
LINE
8
BLACK
6
CONTINUOUS
10
157.8799999999999955
20
-111.3269030000000015
11
157.8906570000000045
21
-111.2733269999999948
0
LINE
8
BLACK
6
CONTINUOUS
10
157.8906570000000045
20
-111.2733269999999948
11
157.9210049999999796
21
-111.2279079999999993
0
LINE
8
BLACK
6
CONTINUOUS
10
157.9210049999999796
20
-111.2279079999999993
11
157.9664239999999893
21
-111.1975599999999957
0
LINE
8
BLACK
6
CONTINUOUS
10
157.9664239999999893
20
-111.1975599999999957
11
158.0199999999999818
21
-111.1869030000000009
0
LINE
8
BLACK
6
CONTINUOUS
10
158.0199999999999818
20
-111.1869030000000009
11
158.2999999999999829
21
-111.1869030000000009
0
LINE
8
BLACK
6
CONTINUOUS
10
158.2999999999999829
20
-111.1869030000000009
11
158.3535760000000039
21
-111.1975599999999957
0
LINE
8
BLACK
6
CONTINUOUS
10
159.3135759999999834
20
-111.1975599999999957
11
159.3589949999999931
21
-111.2279079999999993
0
LINE
8
BLACK
6
CONTINUOUS
10
159.3589949999999931
20
-111.2279079999999993
11
159.3893429999999967
21
-111.2733269999999948
0
LINE
8
BLACK
6
CONTINUOUS
10
159.3893429999999967
20
-111.2733269999999948
11
159.4000000000000057
21
-111.3269030000000015
0
LINE
8
BLACK
6
CONTINUOUS
10
159.4000000000000057
20
-111.3269030000000015
11
159.4000000000000057
21
-111.6669029999999907
0
LINE
8
BLACK
6
CONTINUOUS
10
159.4000000000000057
20
-111.6669029999999907
11
159.3893429999999967
21
-111.7204789999999974
0
LINE
8
BLACK
6
CONTINUOUS
10
159.3893429999999967
20
-111.7204789999999974
11
159.3589949999999931
21
-111.7658979999999929
0
LINE
8
BLACK
6
CONTINUOUS
10
159.3589949999999931
20
-111.7658979999999929
11
159.3135759999999834
21
-111.7962459999999965
0
LINE
8
BLACK
6
CONTINUOUS
10
159.3135759999999834
20
-111.7962459999999965
11
159.2599999999999909
21
-111.8069029999999913
0
LINE
8
BLACK
6
CONTINUOUS
10
159.2599999999999909
20
-111.8069029999999913
11
158.9799999999999898
21
-111.8069029999999913
0
LINE
8
BLACK
6
CONTINUOUS
10
158.9799999999999898
20
-111.8069029999999913
11
158.9264239999999972
21
-111.7962459999999965
0
LINE
8
BLACK
6
CONTINUOUS
10
158.9264239999999972
20
-111.7962459999999965
11
158.8810049999999876
21
-111.7658979999999929
0
LINE
8
BLACK
6
CONTINUOUS
10
158.8810049999999876
20
-111.7658979999999929
11
158.850656999999984
21
-111.7204789999999974
0
LINE
8
BLACK
6
CONTINUOUS
10
158.850656999999984
20
-111.7204789999999974
11
158.8400000000000034
21
-111.6669029999999907
0
LINE
8
BLACK
6
CONTINUOUS
10
158.8400000000000034
20
-111.6669029999999907
11
158.8400000000000034
21
-111.3269030000000015
0
LINE
8
BLACK
6
CONTINUOUS
10
158.8400000000000034
20
-111.3269030000000015
11
158.850656999999984
21
-111.2733269999999948
0
LINE
8
BLACK
6
CONTINUOUS
10
158.850656999999984
20
-111.2733269999999948
11
158.8810049999999876
21
-111.2279079999999993
0
LINE
8
BLACK
6
CONTINUOUS
10
158.8810049999999876
20
-111.2279079999999993
11
158.9264239999999972
21
-111.1975599999999957
0
LINE
8
BLACK
6
CONTINUOUS
10
158.9264239999999972
20
-111.1975599999999957
11
158.9799999999999898
21
-111.1869030000000009
0
LINE
8
BLACK
6
CONTINUOUS
10
158.9799999999999898
20
-111.1869030000000009
11
159.2599999999999909
21
-111.1869030000000009
0
LINE
8
BLACK
6
CONTINUOUS
10
159.2599999999999909
20
-111.1869030000000009
11
159.3135759999999834
21
-111.1975599999999957
0
LINE
8
BLACK
6
CONTINUOUS
10
160.0735760000000028
20
-110.4375599999999906
11
160.118994999999984
21
-110.4679079999999942
0
LINE
8
BLACK
6
CONTINUOUS
10
160.118994999999984
20
-110.4679079999999942
11
160.1493429999999876
21
-110.5133269999999897
0
LINE
8
BLACK
6
CONTINUOUS
10
160.1493429999999876
20
-110.5133269999999897
11
160.1599999999999966
21
-110.5669029999999964
0
LINE
8
BLACK
6
CONTINUOUS
10
160.1599999999999966
20
-110.5669029999999964
11
160.1599999999999966
21
-110.9069029999999998
0
LINE
8
BLACK
6
CONTINUOUS
10
160.1599999999999966
20
-110.9069029999999998
11
160.1493429999999876
21
-110.9604789999999923
0
LINE
8
BLACK
6
CONTINUOUS
10
160.1493429999999876
20
-110.9604789999999923
11
160.118994999999984
21
-111.005898000000002
0
LINE
8
BLACK
6
CONTINUOUS
10
160.118994999999984
20
-111.005898000000002
11
160.0735760000000028
21
-111.0362459999999913
0
LINE
8
BLACK
6
CONTINUOUS
10
160.0735760000000028
20
-111.0362459999999913
11
160.0199999999999818
21
-111.0469030000000004
0
LINE
8
BLACK
6
CONTINUOUS
10
160.0199999999999818
20
-111.0469030000000004
11
159.7399999999999807
21
-111.0469030000000004
0
LINE
8
BLACK
6
CONTINUOUS
10
159.7399999999999807
20
-111.0469030000000004
11
159.6864239999999882
21
-111.0362459999999913
0
LINE
8
BLACK
6
CONTINUOUS
10
159.6864239999999882
20
-111.0362459999999913
11
159.6410050000000069
21
-111.005898000000002
0
LINE
8
BLACK
6
CONTINUOUS
10
159.6410050000000069
20
-111.005898000000002
11
159.6106570000000033
21
-110.9604789999999923
0
LINE
8
BLACK
6
CONTINUOUS
10
159.6106570000000033
20
-110.9604789999999923
11
159.5999999999999943
21
-110.9069029999999998
0
LINE
8
BLACK
6
CONTINUOUS
10
159.5999999999999943
20
-110.9069029999999998
11
159.5999999999999943
21
-110.5669029999999964
0
LINE
8
BLACK
6
CONTINUOUS
10
159.5999999999999943
20
-110.5669029999999964
11
159.6106570000000033
21
-110.5133269999999897
0
LINE
8
BLACK
6
CONTINUOUS
10
159.6106570000000033
20
-110.5133269999999897
11
159.6410050000000069
21
-110.4679079999999942
0
LINE
8
BLACK
6
CONTINUOUS
10
159.6410050000000069
20
-110.4679079999999942
11
159.6864239999999882
21
-110.4375599999999906
0
LINE
8
BLACK
6
CONTINUOUS
10
159.6864239999999882
20
-110.4375599999999906
11
159.7399999999999807
21
-110.4269029999999958
0
LINE
8
BLACK
6
CONTINUOUS
10
159.7399999999999807
20
-110.4269029999999958
11
160.0199999999999818
21
-110.4269029999999958
0
LINE
8
BLACK
6
CONTINUOUS
10
160.0199999999999818
20
-110.4269029999999958
11
160.0735760000000028
21
-110.4375599999999906
0
LINE
8
BLACK
6
CONTINUOUS
10
161.0335759999999823
20
-110.4375599999999906
11
161.0789949999999919
21
-110.4679079999999942
0
LINE
8
BLACK
6
CONTINUOUS
10
161.0789949999999919
20
-110.4679079999999942
11
161.1093429999999955
21
-110.5133269999999897
0
LINE
8
BLACK
6
CONTINUOUS
10
161.1093429999999955
20
-110.5133269999999897
11
161.1200000000000045
21
-110.5669029999999964
0
LINE
8
BLACK
6
CONTINUOUS
10
161.1200000000000045
20
-110.5669029999999964
11
161.1200000000000045
21
-110.9069029999999998
0
LINE
8
BLACK
6
CONTINUOUS
10
161.1200000000000045
20
-110.9069029999999998
11
161.1093429999999955
21
-110.9604789999999923
0
LINE
8
BLACK
6
CONTINUOUS
10
161.1093429999999955
20
-110.9604789999999923
11
161.0789949999999919
21
-111.005898000000002
0
LINE
8
BLACK
6
CONTINUOUS
10
161.0789949999999919
20
-111.005898000000002
11
161.0335759999999823
21
-111.0362459999999913
0
LINE
8
BLACK
6
CONTINUOUS
10
161.0335759999999823
20
-111.0362459999999913
11
160.9799999999999898
21
-111.0469030000000004
0
LINE
8
BLACK
6
CONTINUOUS
10
160.9799999999999898
20
-111.0469030000000004
11
160.6999999999999886
21
-111.0469030000000004
0
LINE
8
BLACK
6
CONTINUOUS
10
160.6999999999999886
20
-111.0469030000000004
11
160.6464239999999961
21
-111.0362459999999913
0
LINE
8
BLACK
6
CONTINUOUS
10
160.6464239999999961
20
-111.0362459999999913
11
160.6010049999999865
21
-111.005898000000002
0
LINE
8
BLACK
6
CONTINUOUS
10
160.6010049999999865
20
-111.005898000000002
11
160.5706569999999829
21
-110.9604789999999923
0
LINE
8
BLACK
6
CONTINUOUS
10
160.5706569999999829
20
-110.9604789999999923
11
160.5600000000000023
21
-110.9069029999999998
0
LINE
8
BLACK
6
CONTINUOUS
10
160.5600000000000023
20
-110.9069029999999998
11
160.5600000000000023
21
-110.5669029999999964
0
LINE
8
BLACK
6
CONTINUOUS
10
160.5600000000000023
20
-110.5669029999999964
11
160.5706569999999829
21
-110.5133269999999897
0
LINE
8
BLACK
6
CONTINUOUS
10
160.5706569999999829
20
-110.5133269999999897
11
160.6010049999999865
21
-110.4679079999999942
0
LINE
8
BLACK
6
CONTINUOUS
10
160.6010049999999865
20
-110.4679079999999942
11
160.6464239999999961
21
-110.4375599999999906
0
LINE
8
BLACK
6
CONTINUOUS
10
160.6464239999999961
20
-110.4375599999999906
11
160.6999999999999886
21
-110.4269029999999958
0
LINE
8
BLACK
6
CONTINUOUS
10
160.6999999999999886
20
-110.4269029999999958
11
160.9799999999999898
21
-110.4269029999999958
0
LINE
8
BLACK
6
CONTINUOUS
10
160.9799999999999898
20
-110.4269029999999958
11
161.0335759999999823
21
-110.4375599999999906
0
LINE
8
BLACK
6
CONTINUOUS
10
162.0725850000000037
20
-110.0761739999999946
11
162.1207990000000052
21
-110.0973879999999951
0
LINE
8
BLACK
6
CONTINUOUS
10
162.1207990000000052
20
-110.0973879999999951
11
162.4238849999999843
21
-110.3096120000000013
0
LINE
8
BLACK
6
CONTINUOUS
10
162.4238849999999843
20
-110.3096120000000013
11
162.4603099999999927
21
-110.347660999999988
0
LINE
8
BLACK
6
CONTINUOUS
10
162.4603099999999927
20
-110.347660999999988
11
162.4793999999999983
21
-110.3967549999999989
0
LINE
8
BLACK
6
CONTINUOUS
10
162.4793999999999983
20
-110.3967549999999989
11
162.4782519999999977
21
-110.4494169999999968
0
LINE
8
BLACK
6
CONTINUOUS
10
162.4782519999999977
20
-110.4494169999999968
11
162.4570369999999855
21
-110.4976300000000009
0
LINE
8
BLACK
6
CONTINUOUS
10
162.4570369999999855
20
-110.4976300000000009
11
162.3021719999999846
21
-110.7188009999999991
0
LINE
8
BLACK
6
CONTINUOUS
10
162.3021719999999846
20
-110.7188009999999991
11
162.2641219999999862
21
-110.7552259999999933
0
LINE
8
BLACK
6
CONTINUOUS
10
162.2641219999999862
20
-110.7552259999999933
11
162.215028999999987
21
-110.7743169999999964
0
LINE
8
BLACK
6
CONTINUOUS
10
162.215028999999987
20
-110.7743169999999964
11
162.162366999999989
21
-110.7731679999999983
0
LINE
8
BLACK
6
CONTINUOUS
10
162.162366999999989
20
-110.7731679999999983
11
162.1141529999999875
21
-110.7519539999999978
0
LINE
8
BLACK
6
CONTINUOUS
10
162.1141529999999875
20
-110.7519539999999978
11
161.81106699999998
21
-110.5397299999999916
0
LINE
8
BLACK
6
CONTINUOUS
10
161.81106699999998
20
-110.5397299999999916
11
161.7746420000000001
21
-110.5016809999999907
0
LINE
8
BLACK
6
CONTINUOUS
10
161.7746420000000001
20
-110.5016809999999907
11
161.7555519999999945
21
-110.4525869999999941
0
LINE
8
BLACK
6
CONTINUOUS
10
161.7555519999999945
20
-110.4525869999999941
11
161.756699999999995
21
-110.3999249999999961
0
LINE
8
BLACK
6
CONTINUOUS
10
161.756699999999995
20
-110.3999249999999961
11
161.7779149999999788
21
-110.351711999999992
0
LINE
8
BLACK
6
CONTINUOUS
10
161.7779149999999788
20
-110.351711999999992
11
161.9327799999999797
21
-110.1305409999999938
0
LINE
8
BLACK
6
CONTINUOUS
10
161.9327799999999797
20
-110.1305409999999938
11
161.9708300000000065
21
-110.0941159999999996
0
LINE
8
BLACK
6
CONTINUOUS
10
161.9708300000000065
20
-110.0941159999999996
11
162.0199230000000057
21
-110.0750249999999966
0
LINE
8
BLACK
6
CONTINUOUS
10
162.0199230000000057
20
-110.0750249999999966
11
162.0725850000000037
21
-110.0761739999999946
0
LINE
8
BLACK
6
CONTINUOUS
10
157.3050000000000068
20
-110.3369029999999924
11
156.9549999999999841
21
-110.3369029999999924
0
LINE
8
BLACK
6
CONTINUOUS
10
156.9549999999999841
20
-110.3369029999999924
11
156.9549999999999841
21
-109.9619029999999924
0
LINE
8
BLACK
6
CONTINUOUS
10
156.9549999999999841
20
-109.9619029999999924
11
157.3050000000000068
21
-109.9619029999999924
0
LINE
8
BLACK
6
CONTINUOUS
10
157.3050000000000068
20
-109.9619029999999924
11
157.3050000000000068
21
-110.3369029999999924
0
LINE
8
BLACK
6
CONTINUOUS
10
157.8050000000000068
20
-110.3369029999999924
11
157.4549999999999841
21
-110.3369029999999924
0
LINE
8
BLACK
6
CONTINUOUS
10
157.4549999999999841
20
-110.3369029999999924
11
157.4549999999999841
21
-109.9619029999999924
0
LINE
8
BLACK
6
CONTINUOUS
10
157.4549999999999841
20
-109.9619029999999924
11
157.8050000000000068
21
-109.9619029999999924
0
LINE
8
BLACK
6
CONTINUOUS
10
157.8050000000000068
20
-109.9619029999999924
11
157.8050000000000068
21
-110.3369029999999924
0
LINE
8
BLACK
6
CONTINUOUS
10
156.8050000000000068
20
-110.3119030000000009
11
156.4300000000000068
21
-110.3119030000000009
0
LINE
8
BLACK
6
CONTINUOUS
10
156.4300000000000068
20
-110.3119030000000009
11
156.4300000000000068
21
-109.9619029999999924
0
LINE
8
BLACK
6
CONTINUOUS
10
156.4300000000000068
20
-109.9619029999999924
11
156.8050000000000068
21
-109.9619029999999924
0
LINE
8
BLACK
6
CONTINUOUS
10
156.8050000000000068
20
-109.9619029999999924
11
156.8050000000000068
21
-110.3119030000000009
0
LINE
8
BLACK
6
CONTINUOUS
10
158.3299999999999841
20
-110.3119030000000009
11
157.9549999999999841
21
-110.3119030000000009
0
LINE
8
BLACK
6
CONTINUOUS
10
157.9549999999999841
20
-110.3119030000000009
11
157.9549999999999841
21
-109.9619029999999924
0
LINE
8
BLACK
6
CONTINUOUS
10
157.9549999999999841
20
-109.9619029999999924
11
158.3299999999999841
21
-109.9619029999999924
0
LINE
8
BLACK
6
CONTINUOUS
10
158.3299999999999841
20
-109.9619029999999924
11
158.3299999999999841
21
-110.3119030000000009
0
LINE
8
BLACK
6
CONTINUOUS
10
162.6576330000000041
20
-109.2406379999999899
11
162.7058470000000057
21
-109.2618519999999904
0
LINE
8
BLACK
6
CONTINUOUS
10
162.7058470000000057
20
-109.2618519999999904
11
163.0089329999999848
21
-109.4740759999999966
0
LINE
8
BLACK
6
CONTINUOUS
10
163.0089329999999848
20
-109.4740759999999966
11
163.0453579999999931
21
-109.5121249999999975
0
LINE
8
BLACK
6
CONTINUOUS
10
163.0453579999999931
20
-109.5121249999999975
11
163.0644479999999987
21
-109.5612189999999941
0
LINE
8
BLACK
6
CONTINUOUS
10
163.0644479999999987
20
-109.5612189999999941
11
163.0632999999999981
21
-109.6138809999999921
0
LINE
8
BLACK
6
CONTINUOUS
10
163.0632999999999981
20
-109.6138809999999921
11
163.0420849999999859
21
-109.6620939999999962
0
LINE
8
BLACK
6
CONTINUOUS
10
163.0420849999999859
20
-109.6620939999999962
11
162.887219999999985
21
-109.8832649999999944
0
LINE
8
BLACK
6
CONTINUOUS
10
162.887219999999985
20
-109.8832649999999944
11
162.8491699999999867
21
-109.9196899999999886
0
LINE
8
BLACK
6
CONTINUOUS
10
162.8491699999999867
20
-109.9196899999999886
11
162.8000769999999875
21
-109.9387809999999916
0
LINE
8
BLACK
6
CONTINUOUS
10
162.8000769999999875
20
-109.9387809999999916
11
162.7474149999999895
21
-109.9376319999999936
0
LINE
8
BLACK
6
CONTINUOUS
10
162.7474149999999895
20
-109.9376319999999936
11
162.699200999999988
21
-109.9164179999999931
0
LINE
8
BLACK
6
CONTINUOUS
10
162.699200999999988
20
-109.9164179999999931
11
162.3961149999999805
21
-109.7041940000000011
0
LINE
8
BLACK
6
CONTINUOUS
10
162.3961149999999805
20
-109.7041940000000011
11
162.3596900000000005
21
-109.6661450000000002
0
LINE
8
BLACK
6
CONTINUOUS
10
162.3596900000000005
20
-109.6661450000000002
11
162.3405999999999949
21
-109.6170509999999894
0
LINE
8
BLACK
6
CONTINUOUS
10
162.3405999999999949
20
-109.6170509999999894
11
162.3417479999999955
21
-109.5643889999999914
0
LINE
8
BLACK
6
CONTINUOUS
10
162.3417479999999955
20
-109.5643889999999914
11
162.3629629999999793
21
-109.5161760000000015
0
LINE
8
BLACK
6
CONTINUOUS
10
162.3629629999999793
20
-109.5161760000000015
11
162.5178279999999802
21
-109.2950049999999891
0
LINE
8
BLACK
6
CONTINUOUS
10
162.5178279999999802
20
-109.2950049999999891
11
162.5558779999999786
21
-109.2585799999999949
0
LINE
8
BLACK
6
CONTINUOUS
10
162.5558779999999786
20
-109.2585799999999949
11
162.6049710000000061
21
-109.2394889999999918
0
LINE
8
BLACK
6
CONTINUOUS
10
162.6049710000000061
20
-109.2394889999999918
11
162.6576330000000041
21
-109.2406379999999899
0
LINE
8
BLACK
6
CONTINUOUS
10
156.8050000000000068
20
-109.8119030000000009
11
156.4300000000000068
21
-109.8119030000000009
0
LINE
8
BLACK
6
CONTINUOUS
10
156.4300000000000068
20
-109.8119030000000009
11
156.4300000000000068
21
-109.4619029999999924
0
LINE
8
BLACK
6
CONTINUOUS
10
156.4300000000000068
20
-109.4619029999999924
11
156.8050000000000068
21
-109.4619029999999924
0
LINE
8
BLACK
6
CONTINUOUS
10
156.8050000000000068
20
-109.4619029999999924
11
156.8050000000000068
21
-109.8119030000000009
0
LINE
8
BLACK
6
CONTINUOUS
10
158.3299999999999841
20
-109.8119030000000009
11
157.9549999999999841
21
-109.8119030000000009
0
LINE
8
BLACK
6
CONTINUOUS
10
157.9549999999999841
20
-109.8119030000000009
11
157.9549999999999841
21
-109.4619029999999924
0
LINE
8
BLACK
6
CONTINUOUS
10
157.9549999999999841
20
-109.4619029999999924
11
158.3299999999999841
21
-109.4619029999999924
0
LINE
8
BLACK
6
CONTINUOUS
10
158.3299999999999841
20
-109.4619029999999924
11
158.3299999999999841
21
-109.8119030000000009
0
LINE
8
BLACK
6
CONTINUOUS
10
160.0629610000000014
20
-108.9014699999999891
11
160.0824259999999981
21
-108.9144769999999909
0
LINE
8
BLACK
6
CONTINUOUS
10
160.0824259999999981
20
-108.9144769999999909
11
160.0954329999999857
21
-108.9339420000000018
0
LINE
8
BLACK
6
CONTINUOUS
10
160.0954329999999857
20
-108.9339420000000018
11
160.0999999999999943
21
-108.956902999999997
0
LINE
8
BLACK
6
CONTINUOUS
10
160.0999999999999943
20
-108.956902999999997
11
160.0999999999999943
21
-109.7369029999999981
0
LINE
8
BLACK
6
CONTINUOUS
10
160.0999999999999943
20
-109.7369029999999981
11
160.0954329999999857
21
-109.7598639999999932
0
LINE
8
BLACK
6
CONTINUOUS
10
160.0954329999999857
20
-109.7598639999999932
11
160.0824259999999981
21
-109.7793289999999899
0
LINE
8
BLACK
6
CONTINUOUS
10
160.0824259999999981
20
-109.7793289999999899
11
160.0629610000000014
21
-109.7923359999999917
0
LINE
8
BLACK
6
CONTINUOUS
10
160.0629610000000014
20
-109.7923359999999917
11
160.039999999999992
21
-109.7969030000000004
0
LINE
8
BLACK
6
CONTINUOUS
10
160.039999999999992
20
-109.7969030000000004
11
159.3599999999999852
21
-109.7969030000000004
0
LINE
8
BLACK
6
CONTINUOUS
10
159.3599999999999852
20
-109.7969030000000004
11
159.3370390000000043
21
-109.7923359999999917
0
LINE
8
BLACK
6
CONTINUOUS
10
159.3370390000000043
20
-109.7923359999999917
11
159.3175739999999792
21
-109.7793289999999899
0
LINE
8
BLACK
6
CONTINUOUS
10
159.3175739999999792
20
-109.7793289999999899
11
159.3045669999999916
21
-109.7598639999999932
0
LINE
8
BLACK
6
CONTINUOUS
10
159.3045669999999916
20
-109.7598639999999932
11
159.2999999999999829
21
-109.7369029999999981
0
LINE
8
BLACK
6
CONTINUOUS
10
159.2999999999999829
20
-109.7369029999999981
11
159.2999999999999829
21
-108.956902999999997
0
LINE
8
BLACK
6
CONTINUOUS
10
159.2999999999999829
20
-108.956902999999997
11
159.3045669999999916
21
-108.9339420000000018
0
LINE
8
BLACK
6
CONTINUOUS
10
159.3045669999999916
20
-108.9339420000000018
11
159.3175739999999792
21
-108.9144769999999909
0
LINE
8
BLACK
6
CONTINUOUS
10
159.3175739999999792
20
-108.9144769999999909
11
159.3370390000000043
21
-108.9014699999999891
0
LINE
8
BLACK
6
CONTINUOUS
10
159.3370390000000043
20
-108.9014699999999891
11
159.3599999999999852
21
-108.8969029999999947
0
LINE
8
BLACK
6
CONTINUOUS
10
159.3599999999999852
20
-108.8969029999999947
11
160.039999999999992
21
-108.8969029999999947
0
LINE
8
BLACK
6
CONTINUOUS
10
160.039999999999992
20
-108.8969029999999947
11
160.0629610000000014
21
-108.9014699999999891
0
LINE
8
BLACK
6
CONTINUOUS
10
161.1853549999999871
20
-108.9115479999999963
11
161.1999999999999886
21
-108.9469029999999918
0
LINE
8
BLACK
6
CONTINUOUS
10
161.1999999999999886
20
-108.9469029999999918
11
161.1999999999999886
21
-109.746902999999989
0
LINE
8
BLACK
6
CONTINUOUS
10
161.1999999999999886
20
-109.746902999999989
11
161.1853549999999871
21
-109.7822579999999988
0
LINE
8
BLACK
6
CONTINUOUS
10
161.1853549999999871
20
-109.7822579999999988
11
161.1500000000000057
21
-109.7969030000000004
0
LINE
8
BLACK
6
CONTINUOUS
10
161.1500000000000057
20
-109.7969030000000004
11
160.4499999999999886
21
-109.7969030000000004
0
LINE
8
BLACK
6
CONTINUOUS
10
160.4499999999999886
20
-109.7969030000000004
11
160.4146449999999788
21
-109.7822579999999988
0
LINE
8
BLACK
6
CONTINUOUS
10
160.4146449999999788
20
-109.7822579999999988
11
160.4000000000000057
21
-109.746902999999989
0
LINE
8
BLACK
6
CONTINUOUS
10
160.4000000000000057
20
-109.746902999999989
11
160.4000000000000057
21
-109.0969029999999975
0
LINE
8
BLACK
6
CONTINUOUS
10
160.4000000000000057
20
-109.0969029999999975
11
160.4146449999999788
21
-109.0615480000000019
0
LINE
8
BLACK
6
CONTINUOUS
10
160.4146449999999788
20
-109.0615480000000019
11
160.5646449999999845
21
-108.9115479999999963
0
LINE
8
BLACK
6
CONTINUOUS
10
160.5646449999999845
20
-108.9115479999999963
11
160.5999999999999943
21
-108.8969029999999947
0
LINE
8
BLACK
6
CONTINUOUS
10
160.5999999999999943
20
-108.8969029999999947
11
161.1500000000000057
21
-108.8969029999999947
0
LINE
8
BLACK
6
CONTINUOUS
10
161.1500000000000057
20
-108.8969029999999947
11
161.1853549999999871
21
-108.9115479999999963
0
LINE
8
BLACK
6
CONTINUOUS
10
156.8050000000000068
20
-109.3119030000000009
11
156.4300000000000068
21
-109.3119030000000009
0
LINE
8
BLACK
6
CONTINUOUS
10
156.4300000000000068
20
-109.3119030000000009
11
156.4300000000000068
21
-108.9619029999999924
0
LINE
8
BLACK
6
CONTINUOUS
10
156.4300000000000068
20
-108.9619029999999924
11
156.8050000000000068
21
-108.9619029999999924
0
LINE
8
BLACK
6
CONTINUOUS
10
156.8050000000000068
20
-108.9619029999999924
11
156.8050000000000068
21
-109.3119030000000009
0
LINE
8
BLACK
6
CONTINUOUS
10
158.3299999999999841
20
-109.3119030000000009
11
157.9549999999999841
21
-109.3119030000000009
0
LINE
8
BLACK
6
CONTINUOUS
10
157.9549999999999841
20
-109.3119030000000009
11
157.9549999999999841
21
-108.9619029999999924
0
LINE
8
BLACK
6
CONTINUOUS
10
157.9549999999999841
20
-108.9619029999999924
11
158.3299999999999841
21
-108.9619029999999924
0
LINE
8
BLACK
6
CONTINUOUS
10
158.3299999999999841
20
-108.9619029999999924
11
158.3299999999999841
21
-109.3119030000000009
0
LINE
8
BLACK
6
CONTINUOUS
10
162.0435760000000016
20
-108.3775599999999883
11
162.0889949999999828
21
-108.4079079999999919
0
LINE
8
BLACK
6
CONTINUOUS
10
162.0889949999999828
20
-108.4079079999999919
11
162.1193429999999864
21
-108.4533270000000016
0
LINE
8
BLACK
6
CONTINUOUS
10
162.1193429999999864
20
-108.4533270000000016
11
162.1299999999999955
21
-108.5069029999999941
0
LINE
8
BLACK
6
CONTINUOUS
10
162.1299999999999955
20
-108.5069029999999941
11
162.1299999999999955
21
-108.7869029999999952
0
LINE
8
BLACK
6
CONTINUOUS
10
162.1299999999999955
20
-108.7869029999999952
11
162.1193429999999864
21
-108.840479000000002
0
LINE
8
BLACK
6
CONTINUOUS
10
162.1193429999999864
20
-108.840479000000002
11
162.0889949999999828
21
-108.8858979999999974
0
LINE
8
BLACK
6
CONTINUOUS
10
162.0889949999999828
20
-108.8858979999999974
11
162.0435760000000016
21
-108.916246000000001
0
LINE
8
BLACK
6
CONTINUOUS
10
162.0435760000000016
20
-108.916246000000001
11
161.9899999999999807
21
-108.9269029999999958
0
LINE
8
BLACK
6
CONTINUOUS
10
161.9899999999999807
20
-108.9269029999999958
11
161.6500000000000057
21
-108.9269029999999958
0
LINE
8
BLACK
6
CONTINUOUS
10
161.6500000000000057
20
-108.9269029999999958
11
161.5964239999999847
21
-108.916246000000001
0
LINE
8
BLACK
6
CONTINUOUS
10
161.5964239999999847
20
-108.916246000000001
11
161.5510050000000035
21
-108.8858979999999974
0
LINE
8
BLACK
6
CONTINUOUS
10
161.5510050000000035
20
-108.8858979999999974
11
161.5206569999999999
21
-108.840479000000002
0
LINE
8
BLACK
6
CONTINUOUS
10
161.5206569999999999
20
-108.840479000000002
11
161.5099999999999909
21
-108.7869029999999952
0
LINE
8
BLACK
6
CONTINUOUS
10
161.5099999999999909
20
-108.7869029999999952
11
161.5099999999999909
21
-108.5069029999999941
0
LINE
8
BLACK
6
CONTINUOUS
10
161.5099999999999909
20
-108.5069029999999941
11
161.5206569999999999
21
-108.4533270000000016
0
LINE
8
BLACK
6
CONTINUOUS
10
161.5206569999999999
20
-108.4533270000000016
11
161.5510050000000035
21
-108.4079079999999919
0
LINE
8
BLACK
6
CONTINUOUS
10
161.5510050000000035
20
-108.4079079999999919
11
161.5964239999999847
21
-108.3775599999999883
0
LINE
8
BLACK
6
CONTINUOUS
10
161.5964239999999847
20
-108.3775599999999883
11
161.6500000000000057
21
-108.3669029999999935
0
LINE
8
BLACK
6
CONTINUOUS
10
161.6500000000000057
20
-108.3669029999999935
11
161.9899999999999807
21
-108.3669029999999935
0
LINE
8
BLACK
6
CONTINUOUS
10
161.9899999999999807
20
-108.3669029999999935
11
162.0435760000000016
21
-108.3775599999999883
0
LINE
8
BLACK
6
CONTINUOUS
10
156.8050000000000068
20
-108.8119030000000009
11
156.4300000000000068
21
-108.8119030000000009
0
LINE
8
BLACK
6
CONTINUOUS
10
156.4300000000000068
20
-108.8119030000000009
11
156.4300000000000068
21
-108.4619029999999924
0
LINE
8
BLACK
6
CONTINUOUS
10
156.4300000000000068
20
-108.4619029999999924
11
156.8050000000000068
21
-108.4619029999999924
0
LINE
8
BLACK
6
CONTINUOUS
10
156.8050000000000068
20
-108.4619029999999924
11
156.8050000000000068
21
-108.8119030000000009
0
LINE
8
BLACK
6
CONTINUOUS
10
157.3050000000000068
20
-108.8119030000000009
11
156.9549999999999841
21
-108.8119030000000009
0
LINE
8
BLACK
6
CONTINUOUS
10
156.9549999999999841
20
-108.8119030000000009
11
156.9549999999999841
21
-108.4369030000000009
0
LINE
8
BLACK
6
CONTINUOUS
10
156.9549999999999841
20
-108.4369030000000009
11
157.3050000000000068
21
-108.4369030000000009
0
LINE
8
BLACK
6
CONTINUOUS
10
157.3050000000000068
20
-108.4369030000000009
11
157.3050000000000068
21
-108.8119030000000009
0
LINE
8
BLACK
6
CONTINUOUS
10
157.8050000000000068
20
-108.8119030000000009
11
157.4549999999999841
21
-108.8119030000000009
0
LINE
8
BLACK
6
CONTINUOUS
10
157.4549999999999841
20
-108.8119030000000009
11
157.4549999999999841
21
-108.4369030000000009
0
LINE
8
BLACK
6
CONTINUOUS
10
157.4549999999999841
20
-108.4369030000000009
11
157.8050000000000068
21
-108.4369030000000009
0
LINE
8
BLACK
6
CONTINUOUS
10
157.8050000000000068
20
-108.4369030000000009
11
157.8050000000000068
21
-108.8119030000000009
0
LINE
8
BLACK
6
CONTINUOUS
10
158.3299999999999841
20
-108.8119030000000009
11
157.9549999999999841
21
-108.8119030000000009
0
LINE
8
BLACK
6
CONTINUOUS
10
157.9549999999999841
20
-108.8119030000000009
11
157.9549999999999841
21
-108.4619029999999924
0
LINE
8
BLACK
6
CONTINUOUS
10
157.9549999999999841
20
-108.4619029999999924
11
158.3299999999999841
21
-108.4619029999999924
0
LINE
8
BLACK
6
CONTINUOUS
10
158.3299999999999841
20
-108.4619029999999924
11
158.3299999999999841
21
-108.8119030000000009
0
LINE
8
BLACK
6
CONTINUOUS
10
160.0853549999999927
20
-107.5115479999999906
11
160.0999999999999943
21
-107.5469030000000004
0
LINE
8
BLACK
6
CONTINUOUS
10
160.0999999999999943
20
-107.5469030000000004
11
160.0999999999999943
21
-108.1969029999999918
0
LINE
8
BLACK
6
CONTINUOUS
10
160.0999999999999943
20
-108.1969029999999918
11
160.0853549999999927
21
-108.2322580000000016
0
LINE
8
BLACK
6
CONTINUOUS
10
160.0853549999999927
20
-108.2322580000000016
11
159.9353549999999871
21
-108.3822579999999931
0
LINE
8
BLACK
6
CONTINUOUS
10
159.9353549999999871
20
-108.3822579999999931
11
159.9000000000000057
21
-108.3969029999999947
0
LINE
8
BLACK
6
CONTINUOUS
10
159.9000000000000057
20
-108.3969029999999947
11
159.3499999999999943
21
-108.3969029999999947
0
LINE
8
BLACK
6
CONTINUOUS
10
159.3499999999999943
20
-108.3969029999999947
11
159.3146449999999845
21
-108.3822579999999931
0
LINE
8
BLACK
6
CONTINUOUS
10
159.3146449999999845
20
-108.3822579999999931
11
159.2999999999999829
21
-108.3469029999999975
0
LINE
8
BLACK
6
CONTINUOUS
10
159.2999999999999829
20
-108.3469029999999975
11
159.2999999999999829
21
-107.5469030000000004
0
LINE
8
BLACK
6
CONTINUOUS
10
159.2999999999999829
20
-107.5469030000000004
11
159.3146449999999845
21
-107.5115479999999906
0
LINE
8
BLACK
6
CONTINUOUS
10
159.3146449999999845
20
-107.5115479999999906
11
159.3499999999999943
21
-107.496902999999989
0
LINE
8
BLACK
6
CONTINUOUS
10
159.3499999999999943
20
-107.496902999999989
11
160.0499999999999829
21
-107.496902999999989
0
LINE
8
BLACK
6
CONTINUOUS
10
160.0499999999999829
20
-107.496902999999989
11
160.0853549999999927
21
-107.5115479999999906
0
LINE
8
BLACK
6
CONTINUOUS
10
161.1629609999999957
20
-107.5014699999999976
11
161.1824259999999924
21
-107.5144769999999994
0
LINE
8
BLACK
6
CONTINUOUS
10
161.1824259999999924
20
-107.5144769999999994
11
161.19543299999998
21
-107.5339419999999961
0
LINE
8
BLACK
6
CONTINUOUS
10
161.19543299999998
20
-107.5339419999999961
11
161.1999999999999886
21
-107.5569029999999913
0
LINE
8
BLACK
6
CONTINUOUS
10
161.1999999999999886
20
-107.5569029999999913
11
161.1999999999999886
21
-108.3369029999999924
0
LINE
8
BLACK
6
CONTINUOUS
10
161.1999999999999886
20
-108.3369029999999924
11
161.19543299999998
21
-108.3598640000000017
0
LINE
8
BLACK
6
CONTINUOUS
10
161.19543299999998
20
-108.3598640000000017
11
161.1824259999999924
21
-108.3793289999999985
0
LINE
8
BLACK
6
CONTINUOUS
10
161.1824259999999924
20
-108.3793289999999985
11
161.1629609999999957
21
-108.3923360000000002
0
LINE
8
BLACK
6
CONTINUOUS
10
161.1629609999999957
20
-108.3923360000000002
11
161.1399999999999864
21
-108.3969029999999947
0
LINE
8
BLACK
6
CONTINUOUS
10
161.1399999999999864
20
-108.3969029999999947
11
160.4599999999999795
21
-108.3969029999999947
0
LINE
8
BLACK
6
CONTINUOUS
10
160.4599999999999795
20
-108.3969029999999947
11
160.4370389999999986
21
-108.3923360000000002
0
LINE
8
BLACK
6
CONTINUOUS
10
160.4370389999999986
20
-108.3923360000000002
11
160.4175740000000019
21
-108.3793289999999985
0
LINE
8
BLACK
6
CONTINUOUS
10
160.4175740000000019
20
-108.3793289999999985
11
160.4045669999999859
21
-108.3598640000000017
0
LINE
8
BLACK
6
CONTINUOUS
10
160.4045669999999859
20
-108.3598640000000017
11
160.4000000000000057
21
-108.3369029999999924
0
LINE
8
BLACK
6
CONTINUOUS
10
160.4000000000000057
20
-108.3369029999999924
11
160.4000000000000057
21
-107.5569029999999913
0
LINE
8
BLACK
6
CONTINUOUS
10
160.4000000000000057
20
-107.5569029999999913
11
160.4045669999999859
21
-107.5339419999999961
0
LINE
8
BLACK
6
CONTINUOUS
10
160.4045669999999859
20
-107.5339419999999961
11
160.4175740000000019
21
-107.5144769999999994
0
LINE
8
BLACK
6
CONTINUOUS
10
160.4175740000000019
20
-107.5144769999999994
11
160.4370389999999986
21
-107.5014699999999976
0
LINE
8
BLACK
6
CONTINUOUS
10
160.4370389999999986
20
-107.5014699999999976
11
160.4599999999999795
21
-107.496902999999989
0
LINE
8
BLACK
6
CONTINUOUS
10
160.4599999999999795
20
-107.496902999999989
11
161.1399999999999864
21
-107.496902999999989
0
LINE
8
BLACK
6
CONTINUOUS
10
161.1399999999999864
20
-107.496902999999989
11
161.1629609999999957
21
-107.5014699999999976
0
LINE
8
BLACK
6
CONTINUOUS
10
162.0435760000000016
20
-107.4175599999999946
11
162.0889949999999828
21
-107.4479079999999982
0
LINE
8
BLACK
6
CONTINUOUS
10
162.0889949999999828
20
-107.4479079999999982
11
162.1193429999999864
21
-107.4933269999999936
0
LINE
8
BLACK
6
CONTINUOUS
10
162.1193429999999864
20
-107.4933269999999936
11
162.1299999999999955
21
-107.5469030000000004
0
LINE
8
BLACK
6
CONTINUOUS
10
162.1299999999999955
20
-107.5469030000000004
11
162.1299999999999955
21
-107.8269030000000015
0
LINE
8
BLACK
6
CONTINUOUS
10
162.1299999999999955
20
-107.8269030000000015
11
162.1193429999999864
21
-107.880478999999994
0
LINE
8
BLACK
6
CONTINUOUS
10
162.1193429999999864
20
-107.880478999999994
11
162.0889949999999828
21
-107.9258979999999895
0
LINE
8
BLACK
6
CONTINUOUS
10
162.0889949999999828
20
-107.9258979999999895
11
162.0435760000000016
21
-107.956245999999993
0
LINE
8
BLACK
6
CONTINUOUS
10
162.0435760000000016
20
-107.956245999999993
11
161.9899999999999807
21
-107.9669030000000021
0
LINE
8
BLACK
6
CONTINUOUS
10
161.9899999999999807
20
-107.9669030000000021
11
161.6500000000000057
21
-107.9669030000000021
0
LINE
8
BLACK
6
CONTINUOUS
10
161.6500000000000057
20
-107.9669030000000021
11
161.5964239999999847
21
-107.956245999999993
0
LINE
8
BLACK
6
CONTINUOUS
10
161.5964239999999847
20
-107.956245999999993
11
161.5510050000000035
21
-107.9258979999999895
0
LINE
8
BLACK
6
CONTINUOUS
10
161.5510050000000035
20
-107.9258979999999895
11
161.5206569999999999
21
-107.880478999999994
0
LINE
8
BLACK
6
CONTINUOUS
10
161.5206569999999999
20
-107.880478999999994
11
161.5099999999999909
21
-107.8269030000000015
0
LINE
8
BLACK
6
CONTINUOUS
10
161.5099999999999909
20
-107.8269030000000015
11
161.5099999999999909
21
-107.5469030000000004
0
LINE
8
BLACK
6
CONTINUOUS
10
161.5099999999999909
20
-107.5469030000000004
11
161.5206569999999999
21
-107.4933269999999936
0
LINE
8
BLACK
6
CONTINUOUS
10
161.5206569999999999
20
-107.4933269999999936
11
161.5510050000000035
21
-107.4479079999999982
0
LINE
8
BLACK
6
CONTINUOUS
10
161.5510050000000035
20
-107.4479079999999982
11
161.5964239999999847
21
-107.4175599999999946
0
LINE
8
BLACK
6
CONTINUOUS
10
161.5964239999999847
20
-107.4175599999999946
11
161.6500000000000057
21
-107.4069029999999998
0
LINE
8
BLACK
6
CONTINUOUS
10
161.6500000000000057
20
-107.4069029999999998
11
161.9899999999999807
21
-107.4069029999999998
0
LINE
8
BLACK
6
CONTINUOUS
10
161.9899999999999807
20
-107.4069029999999998
11
162.0435760000000016
21
-107.4175599999999946
0
LINE
8
BLACK
6
CONTINUOUS
10
140.4658279999999877
20
-106.1989859999999908
11
140.5058070000000043
21
-106.2346399999999988
0
LINE
8
BLACK
6
CONTINUOUS
10
140.5058070000000043
20
-106.2346399999999988
11
140.5340209999999956
21
-106.2734739999999931
0
LINE
8
BLACK
6
CONTINUOUS
10
140.5340209999999956
20
-106.2734739999999931
11
140.5578789999999856
21
-106.3403419999999926
0
LINE
8
BLACK
6
CONTINUOUS
10
140.5578789999999856
20
-106.3403419999999926
11
140.5417970000000025
21
-106.4094929999999977
0
LINE
8
BLACK
6
CONTINUOUS
10
140.5417970000000025
20
-106.4094929999999977
11
140.5061450000000036
21
-106.4494699999999909
0
LINE
8
BLACK
6
CONTINUOUS
10
140.5061450000000036
20
-106.4494699999999909
11
138.5956610000000069
21
-107.8375229999999902
0
LINE
8
BLACK
6
CONTINUOUS
10
138.5956610000000069
20
-107.8375229999999902
11
138.5287930000000074
21
-107.8613809999999944
0
LINE
8
BLACK
6
CONTINUOUS
10
138.5287930000000074
20
-107.8613809999999944
11
138.4596420000000023
21
-107.8453009999999921
0
LINE
8
BLACK
6
CONTINUOUS
10
138.4596420000000023
20
-107.8453009999999921
11
138.4196649999999806
21
-107.8096489999999932
0
LINE
8
BLACK
6
CONTINUOUS
10
138.4196649999999806
20
-107.8096489999999932
11
138.3914509999999893
21
-107.7708169999999939
0
LINE
8
BLACK
6
CONTINUOUS
10
138.3914509999999893
20
-107.7708169999999939
11
138.3675920000000019
21
-107.7039499999999919
0
LINE
8
BLACK
6
CONTINUOUS
10
138.3675920000000019
20
-107.7039499999999919
11
138.3836709999999925
21
-107.6347979999999893
0
LINE
8
BLACK
6
CONTINUOUS
10
138.3836709999999925
20
-107.6347979999999893
11
138.4193249999999864
21
-107.5948190000000011
0
LINE
8
BLACK
6
CONTINUOUS
10
138.4193249999999864
20
-107.5948190000000011
11
140.3298089999999831
21
-106.2067639999999926
0
LINE
8
BLACK
6
CONTINUOUS
10
140.3298089999999831
20
-106.2067639999999926
11
140.3966769999999826
21
-106.1829059999999885
0
LINE
8
BLACK
6
CONTINUOUS
10
140.3966769999999826
20
-106.1829059999999885
11
140.4658279999999877
21
-106.1989859999999908
0
LINE
8
BLACK
6
CONTINUOUS
10
159.0935759999999846
20
-106.757559999999998
11
159.1389949999999942
21
-106.7879080000000016
0
LINE
8
BLACK
6
CONTINUOUS
10
159.1389949999999942
20
-106.7879080000000016
11
159.1693429999999978
21
-106.833326999999997
0
LINE
8
BLACK
6
CONTINUOUS
10
159.1693429999999978
20
-106.833326999999997
11
159.1800000000000068
21
-106.8869029999999896
0
LINE
8
BLACK
6
CONTINUOUS
10
159.1800000000000068
20
-106.8869029999999896
11
159.1800000000000068
21
-107.226902999999993
0
LINE
8
BLACK
6
CONTINUOUS
10
159.1800000000000068
20
-107.226902999999993
11
159.1693429999999978
21
-107.2804789999999997
0
LINE
8
BLACK
6
CONTINUOUS
10
159.1693429999999978
20
-107.2804789999999997
11
159.1389949999999942
21
-107.3258979999999951
0
LINE
8
BLACK
6
CONTINUOUS
10
159.1389949999999942
20
-107.3258979999999951
11
159.0935759999999846
21
-107.3562459999999987
0
LINE
8
BLACK
6
CONTINUOUS
10
159.0935759999999846
20
-107.3562459999999987
11
159.039999999999992
21
-107.3669029999999935
0
LINE
8
BLACK
6
CONTINUOUS
10
159.039999999999992
20
-107.3669029999999935
11
158.7599999999999909
21
-107.3669029999999935
0
LINE
8
BLACK
6
CONTINUOUS
10
158.7599999999999909
20
-107.3669029999999935
11
158.7064239999999984
21
-107.3562459999999987
0
LINE
8
BLACK
6
CONTINUOUS
10
158.7064239999999984
20
-107.3562459999999987
11
158.6610049999999887
21
-107.3258979999999951
0
LINE
8
BLACK
6
CONTINUOUS
10
158.6610049999999887
20
-107.3258979999999951
11
158.6306569999999851
21
-107.2804789999999997
0
LINE
8
BLACK
6
CONTINUOUS
10
158.6306569999999851
20
-107.2804789999999997
11
158.6200000000000045
21
-107.226902999999993
0
LINE
8
BLACK
6
CONTINUOUS
10
158.6200000000000045
20
-107.226902999999993
11
158.6200000000000045
21
-106.8869029999999896
0
LINE
8
BLACK
6
CONTINUOUS
10
158.6200000000000045
20
-106.8869029999999896
11
158.6306569999999851
21
-106.833326999999997
0
LINE
8
BLACK
6
CONTINUOUS
10
158.6306569999999851
20
-106.833326999999997
11
158.6610049999999887
21
-106.7879080000000016
0
LINE
8
BLACK
6
CONTINUOUS
10
158.6610049999999887
20
-106.7879080000000016
11
158.7064239999999984
21
-106.757559999999998
0
LINE
8
BLACK
6
CONTINUOUS
10
158.7064239999999984
20
-106.757559999999998
11
158.7599999999999909
21
-106.746902999999989
0
LINE
8
BLACK
6
CONTINUOUS
10
158.7599999999999909
20
-106.746902999999989
11
159.039999999999992
21
-106.746902999999989
0
LINE
8
BLACK
6
CONTINUOUS
10
159.039999999999992
20
-106.746902999999989
11
159.0935759999999846
21
-106.757559999999998
0
LINE
8
BLACK
6
CONTINUOUS
10
160.0535759999999925
20
-106.757559999999998
11
160.0989950000000022
21
-106.7879080000000016
0
LINE
8
BLACK
6
CONTINUOUS
10
160.0989950000000022
20
-106.7879080000000016
11
160.1293430000000058
21
-106.833326999999997
0
LINE
8
BLACK
6
CONTINUOUS
10
160.1293430000000058
20
-106.833326999999997
11
160.1399999999999864
21
-106.8869029999999896
0
LINE
8
BLACK
6
CONTINUOUS
10
160.1399999999999864
20
-106.8869029999999896
11
160.1399999999999864
21
-107.226902999999993
0
LINE
8
BLACK
6
CONTINUOUS
10
160.1399999999999864
20
-107.226902999999993
11
160.1293430000000058
21
-107.2804789999999997
0
LINE
8
BLACK
6
CONTINUOUS
10
160.1293430000000058
20
-107.2804789999999997
11
160.0989950000000022
21
-107.3258979999999951
0
LINE
8
BLACK
6
CONTINUOUS
10
160.0989950000000022
20
-107.3258979999999951
11
160.0535759999999925
21
-107.3562459999999987
0
LINE
8
BLACK
6
CONTINUOUS
10
160.0535759999999925
20
-107.3562459999999987
11
160.
21
-107.3669029999999935
0
LINE
8
BLACK
6
CONTINUOUS
10
160.
20
-107.3669029999999935
11
159.7199999999999989
21
-107.3669029999999935
0
LINE
8
BLACK
6
CONTINUOUS
10
159.7199999999999989
20
-107.3669029999999935
11
159.6664240000000063
21
-107.3562459999999987
0
LINE
8
BLACK
6
CONTINUOUS
10
159.6664240000000063
20
-107.3562459999999987
11
159.6210049999999967
21
-107.3258979999999951
0
LINE
8
BLACK
6
CONTINUOUS
10
159.6210049999999967
20
-107.3258979999999951
11
159.5906569999999931
21
-107.2804789999999997
0
LINE
8
BLACK
6
CONTINUOUS
10
159.5906569999999931
20
-107.2804789999999997
11
159.5799999999999841
21
-107.226902999999993
0
LINE
8
BLACK
6
CONTINUOUS
10
159.5799999999999841
20
-107.226902999999993
11
159.5799999999999841
21
-106.8869029999999896
0
LINE
8
BLACK
6
CONTINUOUS
10
159.5799999999999841
20
-106.8869029999999896
11
159.5906569999999931
21
-106.833326999999997
0
LINE
8
BLACK
6
CONTINUOUS
10
159.5906569999999931
20
-106.833326999999997
11
159.6210049999999967
21
-106.7879080000000016
0
LINE
8
BLACK
6
CONTINUOUS
10
159.6210049999999967
20
-106.7879080000000016
11
159.6664240000000063
21
-106.757559999999998
0
LINE
8
BLACK
6
CONTINUOUS
10
159.6664240000000063
20
-106.757559999999998
11
159.7199999999999989
21
-106.746902999999989
0
LINE
8
BLACK
6
CONTINUOUS
10
159.7199999999999989
20
-106.746902999999989
11
160.
21
-106.746902999999989
0
LINE
8
BLACK
6
CONTINUOUS
10
160.
20
-106.746902999999989
11
160.0535759999999925
21
-106.757559999999998
0
LINE
8
BLACK
6
CONTINUOUS
10
159.0735760000000028
20
-105.9475599999999957
11
159.118994999999984
21
-105.9779079999999993
0
LINE
8
BLACK
6
CONTINUOUS
10
159.118994999999984
20
-105.9779079999999993
11
159.1493429999999876
21
-106.0233269999999948
0
LINE
8
BLACK
6
CONTINUOUS
10
159.1493429999999876
20
-106.0233269999999948
11
159.1599999999999966
21
-106.0769030000000015
0
LINE
8
BLACK
6
CONTINUOUS
10
159.1599999999999966
20
-106.0769030000000015
11
159.1599999999999966
21
-106.4169029999999907
0
LINE
8
BLACK
6
CONTINUOUS
10
159.1599999999999966
20
-106.4169029999999907
11
159.1493429999999876
21
-106.4704789999999974
0
LINE
8
BLACK
6
CONTINUOUS
10
159.1493429999999876
20
-106.4704789999999974
11
159.118994999999984
21
-106.5158979999999929
0
LINE
8
BLACK
6
CONTINUOUS
10
159.118994999999984
20
-106.5158979999999929
11
159.0735760000000028
21
-106.5462459999999965
0
LINE
8
BLACK
6
CONTINUOUS
10
159.0735760000000028
20
-106.5462459999999965
11
159.0199999999999818
21
-106.5569029999999913
0
LINE
8
BLACK
6
CONTINUOUS
10
159.0199999999999818
20
-106.5569029999999913
11
158.7399999999999807
21
-106.5569029999999913
0
LINE
8
BLACK
6
CONTINUOUS
10
158.7399999999999807
20
-106.5569029999999913
11
158.6864239999999882
21
-106.5462459999999965
0
LINE
8
BLACK
6
CONTINUOUS
10
158.6864239999999882
20
-106.5462459999999965
11
158.6410050000000069
21
-106.5158979999999929
0
LINE
8
BLACK
6
CONTINUOUS
10
158.6410050000000069
20
-106.5158979999999929
11
158.6106570000000033
21
-106.4704789999999974
0
LINE
8
BLACK
6
CONTINUOUS
10
158.6106570000000033
20
-106.4704789999999974
11
158.5999999999999943
21
-106.4169029999999907
0
LINE
8
BLACK
6
CONTINUOUS
10
158.5999999999999943
20
-106.4169029999999907
11
158.5999999999999943
21
-106.0769030000000015
0
LINE
8
BLACK
6
CONTINUOUS
10
158.5999999999999943
20
-106.0769030000000015
11
158.6106570000000033
21
-106.0233269999999948
0
LINE
8
BLACK
6
CONTINUOUS
10
158.6106570000000033
20
-106.0233269999999948
11
158.6410050000000069
21
-105.9779079999999993
0
LINE
8
BLACK
6
CONTINUOUS
10
158.6410050000000069
20
-105.9779079999999993
11
158.6864239999999882
21
-105.9475599999999957
0
LINE
8
BLACK
6
CONTINUOUS
10
158.6864239999999882
20
-105.9475599999999957
11
158.7399999999999807
21
-105.9369030000000009
0
LINE
8
BLACK
6
CONTINUOUS
10
158.7399999999999807
20
-105.9369030000000009
11
159.0199999999999818
21
-105.9369030000000009
0
LINE
8
BLACK
6
CONTINUOUS
10
159.0199999999999818
20
-105.9369030000000009
11
159.0735760000000028
21
-105.9475599999999957
0
LINE
8
BLACK
6
CONTINUOUS
10
160.0335759999999823
20
-105.9475599999999957
11
160.0789949999999919
21
-105.9779079999999993
0
LINE
8
BLACK
6
CONTINUOUS
10
160.0789949999999919
20
-105.9779079999999993
11
160.1093429999999955
21
-106.0233269999999948
0
LINE
8
BLACK
6
CONTINUOUS
10
160.1093429999999955
20
-106.0233269999999948
11
160.1200000000000045
21
-106.0769030000000015
0
LINE
8
BLACK
6
CONTINUOUS
10
160.1200000000000045
20
-106.0769030000000015
11
160.1200000000000045
21
-106.4169029999999907
0
LINE
8
BLACK
6
CONTINUOUS
10
160.1200000000000045
20
-106.4169029999999907
11
160.1093429999999955
21
-106.4704789999999974
0
LINE
8
BLACK
6
CONTINUOUS
10
160.1093429999999955
20
-106.4704789999999974
11
160.0789949999999919
21
-106.5158979999999929
0
LINE
8
BLACK
6
CONTINUOUS
10
160.0789949999999919
20
-106.5158979999999929
11
160.0335759999999823
21
-106.5462459999999965
0
LINE
8
BLACK
6
CONTINUOUS
10
160.0335759999999823
20
-106.5462459999999965
11
159.9799999999999898
21
-106.5569029999999913
0
LINE
8
BLACK
6
CONTINUOUS
10
159.9799999999999898
20
-106.5569029999999913
11
159.6999999999999886
21
-106.5569029999999913
0
LINE
8
BLACK
6
CONTINUOUS
10
159.6999999999999886
20
-106.5569029999999913
11
159.6464239999999961
21
-106.5462459999999965
0
LINE
8
BLACK
6
CONTINUOUS
10
159.6464239999999961
20
-106.5462459999999965
11
159.6010049999999865
21
-106.5158979999999929
0
LINE
8
BLACK
6
CONTINUOUS
10
159.6010049999999865
20
-106.5158979999999929
11
159.5706569999999829
21
-106.4704789999999974
0
LINE
8
BLACK
6
CONTINUOUS
10
159.5706569999999829
20
-106.4704789999999974
11
159.5600000000000023
21
-106.4169029999999907
0
LINE
8
BLACK
6
CONTINUOUS
10
159.5600000000000023
20
-106.4169029999999907
11
159.5600000000000023
21
-106.0769030000000015
0
LINE
8
BLACK
6
CONTINUOUS
10
159.5600000000000023
20
-106.0769030000000015
11
159.5706569999999829
21
-106.0233269999999948
0
LINE
8
BLACK
6
CONTINUOUS
10
159.5706569999999829
20
-106.0233269999999948
11
159.6010049999999865
21
-105.9779079999999993
0
LINE
8
BLACK
6
CONTINUOUS
10
159.6010049999999865
20
-105.9779079999999993
11
159.6464239999999961
21
-105.9475599999999957
0
LINE
8
BLACK
6
CONTINUOUS
10
159.6464239999999961
20
-105.9475599999999957
11
159.6999999999999886
21
-105.9369030000000009
0
LINE
8
BLACK
6
CONTINUOUS
10
159.6999999999999886
20
-105.9369030000000009
11
159.9799999999999898
21
-105.9369030000000009
0
LINE
8
BLACK
6
CONTINUOUS
10
159.9799999999999898
20
-105.9369030000000009
11
160.0335759999999823
21
-105.9475599999999957
0
LINE
8
BLACK
6
CONTINUOUS
10
138.9640819999999906
20
-104.5062829999999963
11
139.0040599999999813
21
-104.5419359999999926
0
LINE
8
BLACK
6
CONTINUOUS
10
139.0040599999999813
20
-104.5419359999999926
11
139.0322730000000035
21
-104.580767999999992
0
LINE
8
BLACK
6
CONTINUOUS
10
139.0322730000000035
20
-104.580767999999992
11
139.056131999999991
21
-104.6476359999999914
0
LINE
8
BLACK
6
CONTINUOUS
10
139.056131999999991
20
-104.6476359999999914
11
139.0400510000000054
21
-104.716787999999994
0
LINE
8
BLACK
6
CONTINUOUS
10
139.0400510000000054
20
-104.716787999999994
11
139.0043979999999806
21
-104.7567650000000015
0
LINE
8
BLACK
6
CONTINUOUS
10
139.0043979999999806
20
-104.7567650000000015
11
137.2738549999999975
21
-106.0140859999999918
0
LINE
8
BLACK
6
CONTINUOUS
10
137.2738549999999975
20
-106.0140859999999918
11
137.2069879999999955
21
-106.037943999999996
0
LINE
8
BLACK
6
CONTINUOUS
10
137.2069879999999955
20
-106.037943999999996
11
137.137835999999993
21
-106.0218639999999937
0
LINE
8
BLACK
6
CONTINUOUS
10
137.137835999999993
20
-106.0218639999999937
11
137.0978580000000022
21
-105.9862109999999973
0
LINE
8
BLACK
6
CONTINUOUS
10
137.0978580000000022
20
-105.9862109999999973
11
137.0696439999999825
21
-105.9473780000000005
0
LINE
8
BLACK
6
CONTINUOUS
10
137.0696439999999825
20
-105.9473780000000005
11
137.0457859999999926
21
-105.8805109999999985
0
LINE
8
BLACK
6
CONTINUOUS
10
137.0457859999999926
20
-105.8805109999999985
11
137.0618659999999807
21
-105.8113589999999959
0
LINE
8
BLACK
6
CONTINUOUS
10
137.0618659999999807
20
-105.8113589999999959
11
137.0975190000000055
21
-105.771380999999991
0
LINE
8
BLACK
6
CONTINUOUS
10
137.0975190000000055
20
-105.771380999999991
11
138.828062999999986
21
-104.5140609999999981
0
LINE
8
BLACK
6
CONTINUOUS
10
138.828062999999986
20
-104.5140609999999981
11
138.8949309999999855
21
-104.4902029999999939
0
LINE
8
BLACK
6
CONTINUOUS
10
138.8949309999999855
20
-104.4902029999999939
11
138.9640819999999906
21
-104.5062829999999963
0
LINE
8
BLACK
6
CONTINUOUS
10
136.5499999999999829
20
-103.996902999999989
11
135.75
21
-103.996902999999989
0
LINE
8
BLACK
6
CONTINUOUS
10
135.75
20
-103.996902999999989
11
135.75
21
-103.0969029999999975
0
LINE
8
BLACK
6
CONTINUOUS
10
135.75
20
-103.0969029999999975
11
136.5499999999999829
21
-103.0969029999999975
0
LINE
8
BLACK
6
CONTINUOUS
10
136.5499999999999829
20
-103.0969029999999975
11
136.5499999999999829
21
-103.996902999999989
0
LINE
8
BLACK
6
CONTINUOUS
10
135.5999999999999943
20
-101.996902999999989
11
134.7999999999999829
21
-101.996902999999989
0
LINE
8
BLACK
6
CONTINUOUS
10
134.7999999999999829
20
-101.996902999999989
11
134.7999999999999829
21
-101.0969029999999975
0
LINE
8
BLACK
6
CONTINUOUS
10
134.7999999999999829
20
-101.0969029999999975
11
135.5999999999999943
21
-101.0969029999999975
0
LINE
8
BLACK
6
CONTINUOUS
10
135.5999999999999943
20
-101.0969029999999975
11
135.5999999999999943
21
-101.996902999999989
0
LINE
8
BLACK
6
CONTINUOUS
10
137.5
20
-101.996902999999989
11
136.6999999999999886
21
-101.996902999999989
0
LINE
8
BLACK
6
CONTINUOUS
10
136.6999999999999886
20
-101.996902999999989
11
136.6999999999999886
21
-101.0969029999999975
0
LINE
8
BLACK
6
CONTINUOUS
10
136.6999999999999886
20
-101.0969029999999975
11
137.5
21
-101.0969029999999975
0
LINE
8
BLACK
6
CONTINUOUS
10
137.5
20
-101.0969029999999975
11
137.5
21
-101.996902999999989
0
LINE
8
BLACK
6
CONTINUOUS
10
136.9621199999999988
20
-98.7431009999999958
11
137.0086129999999969
21
-98.7967569999999995
0
LINE
8
BLACK
6
CONTINUOUS
10
137.0086129999999969
20
-98.7967569999999995
11
137.0199989999999843
21
-98.8490989999999954
0
LINE
8
BLACK
6
CONTINUOUS
10
137.0199989999999843
20
-98.8490989999999954
11
137.0199989999999843
21
-98.8970989999999972
0
LINE
8
BLACK
6
CONTINUOUS
10
137.0199989999999843
20
-98.8970989999999972
11
136.9999970000000076
21
-98.9652200000000022
0
LINE
8
BLACK
6
CONTINUOUS
10
136.9999970000000076
20
-98.9652200000000022
11
136.9463409999999897
21
-99.0117130000000003
0
LINE
8
BLACK
6
CONTINUOUS
10
136.9463409999999897
20
-99.0117130000000003
11
136.893999000000008
21
-99.023099000000002
0
LINE
8
BLACK
6
CONTINUOUS
10
136.893999000000008
20
-99.023099000000002
11
134.3459990000000062
21
-99.0231019999999944
0
LINE
8
BLACK
6
CONTINUOUS
10
134.3459990000000062
20
-99.0231019999999944
11
134.277877999999987
21
-99.0030999999999892
0
LINE
8
BLACK
6
CONTINUOUS
10
134.277877999999987
20
-99.0030999999999892
11
134.2313849999999888
21
-98.9494439999999997
0
LINE
8
BLACK
6
CONTINUOUS
10
134.2313849999999888
20
-98.9494439999999997
11
134.2199990000000014
21
-98.8971019999999896
0
LINE
8
BLACK
6
CONTINUOUS
10
134.2199990000000014
20
-98.8971019999999896
11
134.2199990000000014
21
-98.8491009999999903
0
LINE
8
BLACK
6
CONTINUOUS
10
134.2199990000000014
20
-98.8491009999999903
11
134.2400010000000066
21
-98.7809799999999996
0
LINE
8
BLACK
6
CONTINUOUS
10
134.2400010000000066
20
-98.7809799999999996
11
134.2936569999999961
21
-98.7344870000000014
0
LINE
8
BLACK
6
CONTINUOUS
10
134.2936569999999961
20
-98.7344870000000014
11
134.3459990000000062
21
-98.7231009999999998
0
LINE
8
BLACK
6
CONTINUOUS
10
134.3459990000000062
20
-98.7231009999999998
11
136.893999000000008
21
-98.7230989999999906
0
LINE
8
BLACK
6
CONTINUOUS
10
136.893999000000008
20
-98.7230989999999906
11
136.9621199999999988
21
-98.7431009999999958
0
LINE
8
BLACK
6
CONTINUOUS
10
137.022120000000001
20
-96.4900019999999898
11
137.0686129999999991
21
-96.5436579999999935
0
LINE
8
BLACK
6
CONTINUOUS
10
137.0686129999999991
20
-96.5436579999999935
11
137.0799989999999866
21
-96.5959999999999894
0
LINE
8
BLACK
6
CONTINUOUS
10
137.0799989999999866
20
-96.5959999999999894
11
137.0799989999999866
21
-96.6439999999999912
0
LINE
8
BLACK
6
CONTINUOUS
10
137.0799989999999866
20
-96.6439999999999912
11
137.0599969999999814
21
-96.7121209999999962
0
LINE
8
BLACK
6
CONTINUOUS
10
137.0599969999999814
20
-96.7121209999999962
11
137.0063409999999919
21
-96.7586139999999943
0
LINE
8
BLACK
6
CONTINUOUS
10
137.0063409999999919
20
-96.7586139999999943
11
136.9539989999999818
21
-96.769999999999996
0
LINE
8
BLACK
6
CONTINUOUS
10
136.9539989999999818
20
-96.769999999999996
11
134.40599899999998
21
-96.7700030000000027
0
LINE
8
BLACK
6
CONTINUOUS
10
134.40599899999998
20
-96.7700030000000027
11
134.3378779999999892
21
-96.7500009999999975
0
LINE
8
BLACK
6
CONTINUOUS
10
134.3378779999999892
20
-96.7500009999999975
11
134.2913849999999911
21
-96.6963449999999938
0
LINE
8
BLACK
6
CONTINUOUS
10
134.2913849999999911
20
-96.6963449999999938
11
134.2799990000000037
21
-96.6440029999999979
0
LINE
8
BLACK
6
CONTINUOUS
10
134.2799990000000037
20
-96.6440029999999979
11
134.2799990000000037
21
-96.5960019999999986
0
LINE
8
BLACK
6
CONTINUOUS
10
134.2799990000000037
20
-96.5960019999999986
11
134.3000009999999804
21
-96.5278809999999936
0
LINE
8
BLACK
6
CONTINUOUS
10
134.3000009999999804
20
-96.5278809999999936
11
134.3536569999999983
21
-96.4813879999999955
0
LINE
8
BLACK
6
CONTINUOUS
10
134.3536569999999983
20
-96.4813879999999955
11
134.40599899999998
21
-96.4700019999999938
0
LINE
8
BLACK
6
CONTINUOUS
10
134.40599899999998
20
-96.4700019999999938
11
136.9539989999999818
21
-96.4699999999999989
0
LINE
8
BLACK
6
CONTINUOUS
10
136.9539989999999818
20
-96.4699999999999989
11
137.022120000000001
21
-96.4900019999999898
0
LINE
8
BLACK
6
CONTINUOUS
10
134.8477479999999957
20
-89.5435779999999966
11
134.8877259999999865
21
-89.5792309999999929
0
LINE
8
BLACK
6
CONTINUOUS
10
134.8877259999999865
20
-89.5792309999999929
11
134.9159389999999803
21
-89.6180629999999923
0
LINE
8
BLACK
6
CONTINUOUS
10
134.9159389999999803
20
-89.6180629999999923
11
134.9397979999999961
21
-89.6849309999999917
0
LINE
8
BLACK
6
CONTINUOUS
10
134.9397979999999961
20
-89.6849309999999917
11
134.9237169999999821
21
-89.7540829999999943
0
LINE
8
BLACK
6
CONTINUOUS
10
134.9237169999999821
20
-89.7540829999999943
11
134.8880639999999858
21
-89.7940600000000018
0
LINE
8
BLACK
6
CONTINUOUS
10
134.8880639999999858
20
-89.7940600000000018
11
133.1575210000000027
21
-91.0513809999999921
0
LINE
8
BLACK
6
CONTINUOUS
10
133.1575210000000027
20
-91.0513809999999921
11
133.0906540000000007
21
-91.0752389999999963
0
LINE
8
BLACK
6
CONTINUOUS
10
133.0906540000000007
20
-91.0752389999999963
11
133.0215019999999981
21
-91.059158999999994
0
LINE
8
BLACK
6
CONTINUOUS
10
133.0215019999999981
20
-91.059158999999994
11
132.9815240000000074
21
-91.0235059999999976
0
LINE
8
BLACK
6
CONTINUOUS
10
132.9815240000000074
20
-91.0235059999999976
11
132.9533099999999877
21
-90.9846730000000008
0
LINE
8
BLACK
6
CONTINUOUS
10
132.9533099999999877
20
-90.9846730000000008
11
132.9294519999999977
21
-90.9178059999999988
0
LINE
8
BLACK
6
CONTINUOUS
10
132.9294519999999977
20
-90.9178059999999988
11
132.9455319999999858
21
-90.8486539999999962
0
LINE
8
BLACK
6
CONTINUOUS
10
132.9455319999999858
20
-90.8486539999999962
11
132.9811849999999822
21
-90.8086759999999913
0
LINE
8
BLACK
6
CONTINUOUS
10
132.9811849999999822
20
-90.8086759999999913
11
134.7117289999999912
21
-89.5513559999999984
0
LINE
8
BLACK
6
CONTINUOUS
10
134.7117289999999912
20
-89.5513559999999984
11
134.7785969999999907
21
-89.5274979999999942
0
LINE
8
BLACK
6
CONTINUOUS
10
134.7785969999999907
20
-89.5274979999999942
11
134.8477479999999957
21
-89.5435779999999966
0
LINE
8
BLACK
6
CONTINUOUS
10
117.1995829999999899
20
-89.5204189999999898
11
117.2395619999999923
21
-89.5560729999999978
0
LINE
8
BLACK
6
CONTINUOUS
10
117.2395619999999923
20
-89.5560729999999978
11
117.2677759999999978
21
-89.5949069999999921
0
LINE
8
BLACK
6
CONTINUOUS
10
117.2677759999999978
20
-89.5949069999999921
11
117.2916339999999877
21
-89.6617749999999916
0
LINE
8
BLACK
6
CONTINUOUS
10
117.2916339999999877
20
-89.6617749999999916
11
117.2755519999999905
21
-89.7309259999999966
0
LINE
8
BLACK
6
CONTINUOUS
10
117.2755519999999905
20
-89.7309259999999966
11
117.2398999999999916
21
-89.7709029999999899
0
LINE
8
BLACK
6
CONTINUOUS
10
117.2398999999999916
20
-89.7709029999999899
11
115.5520859999999885
21
-90.9971769999999935
0
LINE
8
BLACK
6
CONTINUOUS
10
115.5520859999999885
20
-90.9971769999999935
11
115.485217999999989
21
-91.0210349999999977
0
LINE
8
BLACK
6
CONTINUOUS
10
115.485217999999989
20
-91.0210349999999977
11
115.4160669999999982
21
-91.0049549999999954
0
LINE
8
BLACK
6
CONTINUOUS
10
115.4160669999999982
20
-91.0049549999999954
11
115.3760899999999907
21
-90.9693029999999965
0
LINE
8
BLACK
6
CONTINUOUS
10
115.3760899999999907
20
-90.9693029999999965
11
115.3478759999999994
21
-90.9304709999999972
0
LINE
8
BLACK
6
CONTINUOUS
10
115.3478759999999994
20
-90.9304709999999972
11
115.3240169999999978
21
-90.8636039999999952
0
LINE
8
BLACK
6
CONTINUOUS
10
115.3240169999999978
20
-90.8636039999999952
11
115.3400959999999884
21
-90.7944519999999926
0
LINE
8
BLACK
6
CONTINUOUS
10
115.3400959999999884
20
-90.7944519999999926
11
115.3757499999999965
21
-90.7544729999999902
0
LINE
8
BLACK
6
CONTINUOUS
10
115.3757499999999965
20
-90.7544729999999902
11
117.0635639999999995
21
-89.5281969999999916
0
LINE
8
BLACK
6
CONTINUOUS
10
117.0635639999999995
20
-89.5281969999999916
11
117.1304310000000015
21
-89.5043390000000016
0
LINE
8
BLACK
6
CONTINUOUS
10
117.1304310000000015
20
-89.5043390000000016
11
117.1995829999999899
21
-89.5204189999999898
0
LINE
8
BLACK
6
CONTINUOUS
10
115.9228729999999956
20
-87.666852999999989
11
115.9628510000000006
21
-87.7025059999999996
0
LINE
8
BLACK
6
CONTINUOUS
10
115.9628510000000006
20
-87.7025059999999996
11
115.9910639999999944
21
-87.7413379999999989
0
LINE
8
BLACK
6
CONTINUOUS
10
115.9910639999999944
20
-87.7413379999999989
11
116.014922999999996
21
-87.8082059999999984
0
LINE
8
BLACK
6
CONTINUOUS
10
116.014922999999996
20
-87.8082059999999984
11
115.9988419999999962
21
-87.877358000000001
0
LINE
8
BLACK
6
CONTINUOUS
10
115.9988419999999962
20
-87.877358000000001
11
115.9631889999999999
21
-87.9173349999999942
0
LINE
8
BLACK
6
CONTINUOUS
10
115.9631889999999999
20
-87.9173349999999942
11
114.2326459999999884
21
-89.1746559999999988
0
LINE
8
BLACK
6
CONTINUOUS
10
114.2326459999999884
20
-89.1746559999999988
11
114.1657790000000006
21
-89.198514000000003
0
LINE
8
BLACK
6
CONTINUOUS
10
114.1657790000000006
20
-89.198514000000003
11
114.096626999999998
21
-89.1824340000000007
0
LINE
8
BLACK
6
CONTINUOUS
10
114.096626999999998
20
-89.1824340000000007
11
114.0566489999999931
21
-89.1467809999999901
0
LINE
8
BLACK
6
CONTINUOUS
10
114.0566489999999931
20
-89.1467809999999901
11
114.0284350000000018
21
-89.1079479999999933
0
LINE
8
BLACK
6
CONTINUOUS
10
114.0284350000000018
20
-89.1079479999999933
11
114.0045769999999976
21
-89.0410809999999913
0
LINE
8
BLACK
6
CONTINUOUS
10
114.0045769999999976
20
-89.0410809999999913
11
114.0206569999999999
21
-88.9719290000000029
0
LINE
8
BLACK
6
CONTINUOUS
10
114.0206569999999999
20
-88.9719290000000029
11
114.0563099999999963
21
-88.931950999999998
0
LINE
8
BLACK
6
CONTINUOUS
10
114.0563099999999963
20
-88.931950999999998
11
115.7868539999999911
21
-87.6746309999999909
0
LINE
8
BLACK
6
CONTINUOUS
10
115.7868539999999911
20
-87.6746309999999909
11
115.8537219999999905
21
-87.6507730000000009
0
LINE
8
BLACK
6
CONTINUOUS
10
115.8537219999999905
20
-87.6507730000000009
11
115.9228729999999956
21
-87.666852999999989
0
LINE
8
BLACK
6
CONTINUOUS
10
133.6377479999999878
20
-87.633578
11
133.6777260000000069
21
-87.6692309999999964
0
LINE
8
BLACK
6
CONTINUOUS
10
133.6777260000000069
20
-87.6692309999999964
11
133.7059390000000008
21
-87.7080629999999957
0
LINE
8
BLACK
6
CONTINUOUS
10
133.7059390000000008
20
-87.7080629999999957
11
133.7297979999999882
21
-87.7749309999999952
0
LINE
8
BLACK
6
CONTINUOUS
10
133.7297979999999882
20
-87.7749309999999952
11
133.7137170000000026
21
-87.8440829999999977
0
LINE
8
BLACK
6
CONTINUOUS
10
133.7137170000000026
20
-87.8440829999999977
11
133.6780640000000062
21
-87.884059999999991
0
LINE
8
BLACK
6
CONTINUOUS
10
133.6780640000000062
20
-87.884059999999991
11
131.9475209999999947
21
-89.1413809999999955
0
LINE
8
BLACK
6
CONTINUOUS
10
131.9475209999999947
20
-89.1413809999999955
11
131.8806539999999927
21
-89.1652389999999997
0
LINE
8
BLACK
6
CONTINUOUS
10
131.8806539999999927
20
-89.1652389999999997
11
131.8115019999999902
21
-89.1491589999999974
0
LINE
8
BLACK
6
CONTINUOUS
10
131.8115019999999902
20
-89.1491589999999974
11
131.7715239999999994
21
-89.113506000000001
0
LINE
8
BLACK
6
CONTINUOUS
10
131.7715239999999994
20
-89.113506000000001
11
131.7433100000000081
21
-89.07467299999999
0
LINE
8
BLACK
6
CONTINUOUS
10
131.7433100000000081
20
-89.07467299999999
11
131.7194519999999898
21
-89.0078060000000022
0
LINE
8
BLACK
6
CONTINUOUS
10
131.7194519999999898
20
-89.0078060000000022
11
131.7355320000000063
21
-88.9386539999999997
0
LINE
8
BLACK
6
CONTINUOUS
10
131.7355320000000063
20
-88.9386539999999997
11
131.7711850000000027
21
-88.8986759999999947
0
LINE
8
BLACK
6
CONTINUOUS
10
131.7711850000000027
20
-88.8986759999999947
11
133.5017289999999832
21
-87.6413560000000018
0
LINE
8
BLACK
6
CONTINUOUS
10
133.5017289999999832
20
-87.6413560000000018
11
133.5685969999999827
21
-87.6174979999999977
0
LINE
8
BLACK
6
CONTINUOUS
10
133.5685969999999827
20
-87.6174979999999977
11
133.6377479999999878
21
-87.633578
0
LINE
8
BLACK
6
CONTINUOUS
10
116.1980289999999911
20
-83.7980209999999914
11
116.2250310000000013
21
-83.8442809999999952
0
LINE
8
BLACK
6
CONTINUOUS
10
116.2250310000000013
20
-83.8442809999999952
11
116.8585700000000003
21
-85.7940940000000012
0
LINE
8
BLACK
6
CONTINUOUS
10
116.8585700000000003
20
-85.7940940000000012
11
116.860597999999996
21
-85.8650609999999972
0
LINE
8
BLACK
6
CONTINUOUS
10
116.860597999999996
20
-85.8650609999999972
11
116.8239349999999916
21
-85.9258590000000027
0
LINE
8
BLACK
6
CONTINUOUS
10
116.8239349999999916
20
-85.9258590000000027
11
116.7776719999999955
21
-85.9528639999999911
0
LINE
8
BLACK
6
CONTINUOUS
10
116.7776719999999955
20
-85.9528639999999911
11
116.732018999999994
21
-85.9676970000000011
0
LINE
8
BLACK
6
CONTINUOUS
10
116.732018999999994
20
-85.9676970000000011
11
116.6610510000000005
21
-85.9697230000000019
0
LINE
8
BLACK
6
CONTINUOUS
10
116.6610510000000005
20
-85.9697230000000019
11
116.6002539999999925
21
-85.9330599999999976
0
LINE
8
BLACK
6
CONTINUOUS
10
116.6002539999999925
20
-85.9330599999999976
11
116.5732509999999991
21
-85.8867989999999963
0
LINE
8
BLACK
6
CONTINUOUS
10
116.5732509999999991
20
-85.8867989999999963
11
115.9397139999999951
21
-83.9369849999999929
0
LINE
8
BLACK
6
CONTINUOUS
10
115.9397139999999951
20
-83.9369849999999929
11
115.9376859999999994
21
-83.8660179999999968
0
LINE
8
BLACK
6
CONTINUOUS
10
115.9376859999999994
20
-83.8660179999999968
11
115.9743489999999895
21
-83.8052199999999914
0
LINE
8
BLACK
6
CONTINUOUS
10
115.9743489999999895
20
-83.8052199999999914
11
116.0206129999999973
21
-83.778215000000003
0
LINE
8
BLACK
6
CONTINUOUS
10
116.0206129999999973
20
-83.778215000000003
11
116.0662639999999897
21
-83.7633829999999904
0
LINE
8
BLACK
6
CONTINUOUS
10
116.0662639999999897
20
-83.7633829999999904
11
116.1372319999999974
21
-83.7613569999999896
0
LINE
8
BLACK
6
CONTINUOUS
10
116.1372319999999974
20
-83.7613569999999896
11
116.1980289999999911
21
-83.7980209999999914
0
LINE
8
BLACK
6
CONTINUOUS
10
127.6073189999999897
20
-83.4120619999999917
11
127.6529709999999938
21
-83.4268950000000018
0
LINE
8
BLACK
6
CONTINUOUS
10
127.6529709999999938
20
-83.4268950000000018
11
127.7115759999999938
21
-83.4669679999999943
0
LINE
8
BLACK
6
CONTINUOUS
10
127.7115759999999938
20
-83.4669679999999943
11
127.7392139999999898
21
-83.5323649999999986
0
LINE
8
BLACK
6
CONTINUOUS
10
127.7392139999999898
20
-83.5323649999999986
11
127.7338680000000011
21
-83.5856639999999942
0
LINE
8
BLACK
6
CONTINUOUS
10
127.7338680000000011
20
-83.5856639999999942
11
127.0728620000000006
21
-85.6200439999999929
0
LINE
8
BLACK
6
CONTINUOUS
10
127.0728620000000006
20
-85.6200439999999929
11
127.032788999999994
21
-85.6786499999999904
0
LINE
8
BLACK
6
CONTINUOUS
10
127.032788999999994
20
-85.6786499999999904
11
126.9673919999999896
21
-85.7062870000000032
0
LINE
8
BLACK
6
CONTINUOUS
10
126.9673919999999896
20
-85.7062870000000032
11
126.9140919999999966
21
-85.7009410000000003
0
LINE
8
BLACK
6
CONTINUOUS
10
126.9140919999999966
20
-85.7009410000000003
11
126.8684419999999875
21
-85.6861079999999902
0
LINE
8
BLACK
6
CONTINUOUS
10
126.8684419999999875
20
-85.6861079999999902
11
126.80983599999999
21
-85.6460340000000002
0
LINE
8
BLACK
6
CONTINUOUS
10
126.80983599999999
20
-85.6460340000000002
11
126.7821999999999889
21
-85.5806369999999959
0
LINE
8
BLACK
6
CONTINUOUS
10
126.7821999999999889
20
-85.5806369999999959
11
126.7875459999999919
21
-85.5273389999999978
0
LINE
8
BLACK
6
CONTINUOUS
10
126.7875459999999919
20
-85.5273389999999978
11
127.4485499999999973
21
-83.492958999999999
0
LINE
8
BLACK
6
CONTINUOUS
10
127.4485499999999973
20
-83.492958999999999
11
127.4886229999999898
21
-83.4343530000000015
0
LINE
8
BLACK
6
CONTINUOUS
10
127.4886229999999898
20
-83.4343530000000015
11
127.5540199999999942
21
-83.406716000000003
0
LINE
8
BLACK
6
CONTINUOUS
10
127.5540199999999942
20
-83.406716000000003
11
127.6073189999999897
21
-83.4120619999999917
0
LINE
8
BLACK
6
CONTINUOUS
10
118.3379039999999947
20
-83.102729999999994
11
118.3649069999999881
21
-83.1489919999999927
0
LINE
8
BLACK
6
CONTINUOUS
10
118.3649069999999881
20
-83.1489919999999927
11
119.003317999999993
21
-85.1138049999999993
0
LINE
8
BLACK
6
CONTINUOUS
10
119.003317999999993
20
-85.1138049999999993
11
119.0053459999999887
21
-85.1847719999999953
0
LINE
8
BLACK
6
CONTINUOUS
10
119.0053459999999887
20
-85.1847719999999953
11
118.9686829999999986
21
-85.2455700000000007
0
LINE
8
BLACK
6
CONTINUOUS
10
118.9686829999999986
20
-85.2455700000000007
11
118.9224219999999974
21
-85.2725739999999917
0
LINE
8
BLACK
6
CONTINUOUS
10
118.9224219999999974
20
-85.2725739999999917
11
118.8767719999999883
21
-85.2874070000000017
0
LINE
8
BLACK
6
CONTINUOUS
10
118.8767719999999883
20
-85.2874070000000017
11
118.8058039999999949
21
-85.2894349999999974
0
LINE
8
BLACK
6
CONTINUOUS
10
118.8058039999999949
20
-85.2894349999999974
11
118.7450059999999894
21
-85.2527729999999906
0
LINE
8
BLACK
6
CONTINUOUS
10
118.7450059999999894
20
-85.2527729999999906
11
118.7180019999999985
21
-85.2065109999999919
0
LINE
8
BLACK
6
CONTINUOUS
10
118.7180019999999985
20
-85.2065109999999919
11
118.0795889999999986
21
-83.2416979999999995
0
LINE
8
BLACK
6
CONTINUOUS
10
118.0795889999999986
20
-83.2416979999999995
11
118.0775609999999887
21
-83.1707299999999918
0
LINE
8
BLACK
6
CONTINUOUS
10
118.0775609999999887
20
-83.1707299999999918
11
118.114223999999993
21
-83.1099320000000006
0
LINE
8
BLACK
6
CONTINUOUS
10
118.114223999999993
20
-83.1099320000000006
11
118.1604859999999917
21
-83.0829279999999954
0
LINE
8
BLACK
6
CONTINUOUS
10
118.1604859999999917
20
-83.0829279999999954
11
118.2061379999999957
21
-83.0680949999999996
0
LINE
8
BLACK
6
CONTINUOUS
10
118.2061379999999957
20
-83.0680949999999996
11
118.2771059999999892
21
-83.0660680000000013
0
LINE
8
BLACK
6
CONTINUOUS
10
118.2771059999999892
20
-83.0660680000000013
11
118.3379039999999947
21
-83.102729999999994
0
LINE
8
BLACK
6
CONTINUOUS
10
125.4773179999999968
20
-82.702061999999998
11
125.5229700000000008
21
-82.7168949999999938
0
LINE
8
BLACK
6
CONTINUOUS
10
125.5229700000000008
20
-82.7168949999999938
11
125.5815750000000008
21
-82.7569680000000005
0
LINE
8
BLACK
6
CONTINUOUS
10
125.5815750000000008
20
-82.7569680000000005
11
125.6092129999999969
21
-82.8223649999999907
0
LINE
8
BLACK
6
CONTINUOUS
10
125.6092129999999969
20
-82.8223649999999907
11
125.6038669999999939
21
-82.8756640000000004
0
LINE
8
BLACK
6
CONTINUOUS
10
125.6038669999999939
20
-82.8756640000000004
11
124.9428609999999935
21
-84.9100439999999992
0
LINE
8
BLACK
6
CONTINUOUS
10
124.9428609999999935
20
-84.9100439999999992
11
124.902788000000001
21
-84.9686499999999967
0
LINE
8
BLACK
6
CONTINUOUS
10
124.902788000000001
20
-84.9686499999999967
11
124.8373909999999967
21
-84.9962869999999953
0
LINE
8
BLACK
6
CONTINUOUS
10
124.8373909999999967
20
-84.9962869999999953
11
124.7840909999999894
21
-84.9909409999999923
0
LINE
8
BLACK
6
CONTINUOUS
10
124.7840909999999894
20
-84.9909409999999923
11
124.7384409999999946
21
-84.9761079999999964
0
LINE
8
BLACK
6
CONTINUOUS
10
124.7384409999999946
20
-84.9761079999999964
11
124.6798349999999971
21
-84.9360339999999923
0
LINE
8
BLACK
6
CONTINUOUS
10
124.6798349999999971
20
-84.9360339999999923
11
124.652198999999996
21
-84.8706370000000021
0
LINE
8
BLACK
6
CONTINUOUS
10
124.652198999999996
20
-84.8706370000000021
11
124.6575449999999989
21
-84.8173389999999898
0
LINE
8
BLACK
6
CONTINUOUS
10
124.6575449999999989
20
-84.8173389999999898
11
125.3185489999999902
21
-82.7829589999999911
0
LINE
8
BLACK
6
CONTINUOUS
10
125.3185489999999902
20
-82.7829589999999911
11
125.3586219999999969
21
-82.7243529999999936
0
LINE
8
BLACK
6
CONTINUOUS
10
125.3586219999999969
20
-82.7243529999999936
11
125.4240190000000013
21
-82.696715999999995
0
LINE
8
BLACK
6
CONTINUOUS
10
125.4240190000000013
20
-82.696715999999995
11
125.4773179999999968
21
-82.702061999999998
  0
ENDSEC
  0
EOF
