  0
SECTION
  2
HEADER
  9
$ANGBASE
  50
0.0
  9
$ANGDIR
  70
1
  9
$MEASUREMENT
  70
1
  0
ENDSEC
  0
SECTION
  2
TABLES
  0
TABLE
  2
LTYPE
  70
4
  0
LTYPE
  5
40F
  2
CONTINUOUS
  70
0
  3
Solid line
  72
65
  73
0
  40
0.0
  0
LTYPE
  5
410
  2
DASHDOT
 70
0
  3
Dash Dot ____ _ ____ _
 72
65
 73
4
 40
2.0
 49
1.25
 49
-0.25
 49
0.25
 49
-0.25
  0
LTYPE
  5
411
  2
DASHED
 70
0
  3
Dashed __ __ __ __ __
 72
65
 73
2
 40
0.75
 49
0.5
 49
-0.25
  0
LTYPE
  5
43B
  2
DOTTED
 70
0
  3
Dotted .  .  .  .
 72
65
 73
2
 40
0.2
 49
0.0
 49
-0.2
  0
ENDTAB
  0
TABLE
  2
STYLE
  70
4
  0
STYLE
  2
KICAD
  70
0
  40
0
  41
1
  42
1
  50
0
  71
0
  3
isocp.shx
  0
STYLE
  2
KICADB
  70
0
  40
0
  41
1
  42
1
  50
0
  71
0
  3
isocp.shx
  0
STYLE
  2
KICADI
  70
0
  40
0
  41
1
  42
1
  50
15
  71
0
  3
isocp.shx
  0
STYLE
  2
KICADBI
  70
0
  40
0
  41
1
  42
1
  50
15
  71
0
  3
isocp.shx
  0
ENDTAB
  0
TABLE
  2
LAYER
  70
1
  0
LAYER
  2
BLACK
  70
0
  62
7
  6
CONTINUOUS
  0
ENDTAB
  0
ENDSEC
  0
SECTION
  2
ENTITIES
0
LINE
8
BLACK
6
CONTINUOUS
10
142.1506459999999947
20
-104.0522589999999923
11
142.1575039999999888
21
-104.0505659999999892
0
LINE
8
BLACK
6
CONTINUOUS
10
142.1575039999999888
20
-104.0505659999999892
11
142.175849999999997
21
-104.0572009999999921
0
LINE
8
BLACK
6
CONTINUOUS
10
142.175849999999997
20
-104.0572009999999921
11
145.1344969999999819
21
-105.8441789999999969
0
LINE
8
BLACK
6
CONTINUOUS
10
145.1344969999999819
20
-105.8441789999999969
11
145.1379249999999956
21
-105.8473070000000007
0
LINE
8
BLACK
6
CONTINUOUS
10
145.1379249999999956
20
-105.8473070000000007
11
145.1397489999999948
21
-105.8478289999999902
0
LINE
8
BLACK
6
CONTINUOUS
10
145.1397489999999948
20
-105.8478289999999902
11
145.1440240000000017
21
-105.8528719999999907
0
LINE
8
BLACK
6
CONTINUOUS
10
145.1440240000000017
20
-105.8528719999999907
11
145.1489080000000058
21
-105.8573289999999929
0
LINE
8
BLACK
6
CONTINUOUS
10
145.1489080000000058
20
-105.8573289999999929
11
145.1493619999999964
21
-105.8591699999999918
0
LINE
8
BLACK
6
CONTINUOUS
10
145.1493619999999964
20
-105.8591699999999918
11
145.1523640000000057
21
-105.8627109999999902
0
LINE
8
BLACK
6
CONTINUOUS
10
145.1523640000000057
20
-105.8627109999999902
11
146.8637169999999799
21
-108.9457340000000016
0
LINE
8
BLACK
6
CONTINUOUS
10
146.8637169999999799
20
-108.9457340000000016
11
146.8696750000000009
21
-108.9643099999999976
0
LINE
8
BLACK
6
CONTINUOUS
10
146.8696750000000009
20
-108.9643099999999976
11
146.869513999999981
21
-108.9648719999999997
0
LINE
8
BLACK
6
CONTINUOUS
10
146.869513999999981
20
-108.9648719999999997
11
146.8697870000000023
21
-108.9653899999999993
0
LINE
8
BLACK
6
CONTINUOUS
10
146.8697870000000023
20
-108.9653899999999993
11
146.8677610000000016
21
-108.9847929999999963
0
LINE
8
BLACK
6
CONTINUOUS
10
146.8677610000000016
20
-108.9847929999999963
11
145.1226259999999968
21
-114.6190849999999983
0
LINE
8
BLACK
6
CONTINUOUS
10
145.1226259999999968
20
-114.6190849999999983
11
146.3672190000000057
21
-118.1935579999999959
0
LINE
8
BLACK
6
CONTINUOUS
10
146.3672190000000057
20
-118.1935579999999959
11
146.3677209999999889
21
-118.1971580000000017
0
LINE
8
BLACK
6
CONTINUOUS
10
146.3677209999999889
20
-118.1971580000000017
11
146.3686439999999891
21
-118.1984339999999918
0
LINE
8
BLACK
6
CONTINUOUS
10
146.3686439999999891
20
-118.1984339999999918
11
146.3682450000000017
21
-118.2009119999999882
0
LINE
8
BLACK
6
CONTINUOUS
10
146.3682450000000017
20
-118.2009119999999882
11
146.3699169999999867
21
-118.2128799999999984
0
LINE
8
BLACK
6
CONTINUOUS
10
146.3699169999999867
20
-118.2128799999999984
11
146.3645349999999894
21
-118.2240099999999927
0
LINE
8
BLACK
6
CONTINUOUS
10
146.3645349999999894
20
-118.2240099999999927
11
146.3625749999999925
21
-118.2362179999999938
0
LINE
8
BLACK
6
CONTINUOUS
10
146.3625749999999925
20
-118.2362179999999938
11
146.3543509999999799
21
-118.2450749999999999
0
LINE
8
BLACK
6
CONTINUOUS
10
146.3543509999999799
20
-118.2450749999999999
11
146.3532600000000059
21
-118.2473329999999976
0
LINE
8
BLACK
6
CONTINUOUS
10
146.3532600000000059
20
-118.2473329999999976
11
146.3517750000000035
21
-118.247848999999988
0
LINE
8
BLACK
6
CONTINUOUS
10
146.3517750000000035
20
-118.247848999999988
11
146.349300999999997
21
-118.2505149999999929
0
LINE
8
BLACK
6
CONTINUOUS
10
146.349300999999997
20
-118.2505149999999929
11
144.1494229999999845
21
-119.8414969999999897
0
LINE
8
BLACK
6
CONTINUOUS
10
144.1494229999999845
20
-119.8414969999999897
11
146.2107979999999827
21
-122.7510949999999923
0
LINE
8
BLACK
6
CONTINUOUS
10
146.2107979999999827
20
-122.7510949999999923
11
146.2174379999999871
21
-122.7659619999999876
0
LINE
8
BLACK
6
CONTINUOUS
10
146.2174379999999871
20
-122.7659619999999876
11
146.2183059999999841
21
-122.7670949999999976
0
LINE
8
BLACK
6
CONTINUOUS
10
146.2183059999999841
20
-122.7670949999999976
11
146.2182229999999947
21
-122.7677189999999996
0
LINE
8
BLACK
6
CONTINUOUS
10
146.2182229999999947
20
-122.7677189999999996
11
146.2187539999999899
21
-122.7689079999999962
0
LINE
8
BLACK
6
CONTINUOUS
10
146.2187539999999899
20
-122.7689079999999962
11
146.2156809999999894
21
-122.7869149999999934
0
LINE
8
BLACK
6
CONTINUOUS
10
146.2156809999999894
20
-122.7869149999999934
11
146.2132819999999924
21
-122.8050329999999946
0
LINE
8
BLACK
6
CONTINUOUS
10
146.2132819999999924
20
-122.8050329999999946
11
146.2124220000000037
21
-122.806010999999998
0
LINE
8
BLACK
6
CONTINUOUS
10
146.2124220000000037
20
-122.806010999999998
11
146.2123169999999845
21
-122.8066309999999959
0
LINE
8
BLACK
6
CONTINUOUS
10
146.2123169999999845
20
-122.8066309999999959
11
146.2111559999999884
21
-122.8074529999999953
0
LINE
8
BLACK
6
CONTINUOUS
10
146.2111559999999884
20
-122.8074529999999953
11
146.2004079999999817
21
-122.8196909999999917
0
LINE
8
BLACK
6
CONTINUOUS
10
146.2004079999999817
20
-122.8196909999999917
11
143.7204079999999919
21
-124.7196909999999974
0
LINE
8
BLACK
6
CONTINUOUS
10
143.7204079999999919
20
-124.7196909999999974
11
143.702904999999987
21
-124.7283059999999892
0
LINE
8
BLACK
6
CONTINUOUS
10
143.702904999999987
20
-124.7283059999999892
11
143.7022019999999998
21
-124.7282119999999992
0
LINE
8
BLACK
6
CONTINUOUS
10
143.7022019999999998
20
-124.7282119999999992
11
143.7016289999999969
21
-124.728628999999998
0
LINE
8
BLACK
6
CONTINUOUS
10
143.7016289999999969
20
-124.728628999999998
11
143.6833169999999882
21
-124.7257119999999873
0
LINE
8
BLACK
6
CONTINUOUS
10
143.6833169999999882
20
-124.7257119999999873
11
143.6649669999999901
21
-124.7232819999999975
0
LINE
8
BLACK
6
CONTINUOUS
10
143.6649669999999901
20
-124.7232819999999975
11
143.6645359999999982
21
-124.7227199999999954
0
LINE
8
BLACK
6
CONTINUOUS
10
143.6645359999999982
20
-124.7227199999999954
11
143.6638370000000009
21
-124.7226089999999914
0
LINE
8
BLACK
6
CONTINUOUS
10
143.6638370000000009
20
-124.7226089999999914
11
143.6495229999999879
21
-124.7093539999999905
0
LINE
8
BLACK
6
CONTINUOUS
10
143.6495229999999879
20
-124.7093539999999905
11
141.5137159999999881
21
-121.7641519999999957
0
LINE
8
BLACK
6
CONTINUOUS
10
141.5137159999999881
20
-121.7641519999999957
11
139.4599450000000047
21
-123.3000419999999906
0
LINE
8
BLACK
6
CONTINUOUS
10
139.4599450000000047
20
-123.3000419999999906
11
139.4567700000000059
21
-123.301558
0
LINE
8
BLACK
6
CONTINUOUS
10
139.4567700000000059
20
-123.301558
11
139.4558639999999912
21
-123.3027909999999991
0
LINE
8
BLACK
6
CONTINUOUS
10
139.4558639999999912
20
-123.3027909999999991
11
139.453409999999991
21
-123.3031639999999953
0
LINE
8
BLACK
6
CONTINUOUS
10
139.453409999999991
20
-123.3031639999999953
11
139.4423419999999965
21
-123.3084530000000001
0
LINE
8
BLACK
6
CONTINUOUS
10
139.4423419999999965
20
-123.3084530000000001
11
139.4301789999999812
21
-123.3066979999999973
0
LINE
8
BLACK
6
CONTINUOUS
10
139.4301789999999812
20
-123.3066979999999973
11
139.4180309999999849
21
-123.3085459999999927
0
LINE
8
BLACK
6
CONTINUOUS
10
139.4180309999999849
20
-123.3085459999999927
11
139.4069219999999802
21
-123.3033420000000007
0
LINE
8
BLACK
6
CONTINUOUS
10
139.4069219999999802
20
-123.3033420000000007
11
139.4044659999999851
21
-123.3029879999999991
0
LINE
8
BLACK
6
CONTINUOUS
10
139.4044659999999851
20
-123.3029879999999991
11
139.4035489999999982
21
-123.3017619999999965
0
LINE
8
BLACK
6
CONTINUOUS
10
139.4035489999999982
20
-123.3017619999999965
11
139.4003639999999962
21
-123.3002699999999976
0
LINE
8
BLACK
6
CONTINUOUS
10
139.4003639999999962
20
-123.3002699999999976
11
137.0903639999999939
21
-121.6002699999999948
0
LINE
8
BLACK
6
CONTINUOUS
10
137.0903639999999939
20
-121.6002699999999948
11
137.0843179999999961
21
-121.5936489999999992
0
LINE
8
BLACK
6
CONTINUOUS
10
137.0843179999999961
20
-121.5936489999999992
11
137.0819529999999986
21
-121.5924419999999913
0
LINE
8
BLACK
6
CONTINUOUS
10
137.0819529999999986
20
-121.5924419999999913
11
137.0799599999999998
21
-121.5888769999999965
0
LINE
8
BLACK
6
CONTINUOUS
10
137.0799599999999998
20
-121.5888769999999965
11
137.0772089999999821
21
-121.5858640000000008
0
LINE
8
BLACK
6
CONTINUOUS
10
137.0772089999999821
20
-121.5858640000000008
11
137.0768089999999972
21
-121.5832399999999893
0
LINE
8
BLACK
6
CONTINUOUS
10
137.0768089999999972
20
-121.5832399999999893
11
137.0724349999999845
21
-121.5754129999999975
0
LINE
8
BLACK
6
CONTINUOUS
10
137.0724349999999845
20
-121.5754129999999975
11
136.4924350000000004
21
-119.7854119999999938
0
LINE
8
BLACK
6
CONTINUOUS
10
136.4924350000000004
20
-119.7854119999999938
11
136.491375000000005
21
-119.7764029999999877
0
LINE
8
BLACK
6
CONTINUOUS
10
136.491375000000005
20
-119.7764029999999877
11
136.4901629999999955
21
-119.7740369999999928
0
LINE
8
BLACK
6
CONTINUOUS
10
136.4901629999999955
20
-119.7740369999999928
11
136.4906269999999893
21
-119.7700359999999904
0
LINE
8
BLACK
6
CONTINUOUS
10
136.4906269999999893
20
-119.7700359999999904
11
136.4901569999999822
21
-119.7660369999999972
0
LINE
8
BLACK
6
CONTINUOUS
10
136.4901569999999822
20
-119.7660369999999972
11
136.4913659999999993
21
-119.7636679999999956
0
LINE
8
BLACK
6
CONTINUOUS
10
136.4913659999999993
20
-119.7636679999999956
11
136.4924120000000016
21
-119.7546579999999921
0
LINE
8
BLACK
6
CONTINUOUS
10
136.4924120000000016
20
-119.7546579999999921
11
138.0583440000000053
21
-114.8972759999999909
0
LINE
8
BLACK
6
CONTINUOUS
10
138.0583440000000053
20
-114.8972759999999909
11
136.8210619999999835
21
-108.9902510000000007
0
LINE
8
BLACK
6
CONTINUOUS
10
136.8210619999999835
20
-108.9902510000000007
11
136.820966999999996
21
-108.9808799999999991
0
LINE
8
BLACK
6
CONTINUOUS
10
136.820966999999996
20
-108.9808799999999991
11
136.8207270000000051
21
-108.9715049999999934
0
LINE
8
BLACK
6
CONTINUOUS
10
136.8207270000000051
20
-108.9715049999999934
11
137.0707270000000051
21
-107.5215049999999906
0
LINE
8
BLACK
6
CONTINUOUS
10
137.0707270000000051
20
-107.5215049999999906
11
137.0772079999999846
21
-107.5046490000000006
0
LINE
8
BLACK
6
CONTINUOUS
10
137.0772079999999846
20
-107.5046490000000006
11
137.0773159999999962
21
-107.5039599999999922
0
LINE
8
BLACK
6
CONTINUOUS
10
137.0773159999999962
20
-107.5039599999999922
11
137.0775859999999966
21
-107.5036659999999955
0
LINE
8
BLACK
6
CONTINUOUS
10
137.0775859999999966
20
-107.5036659999999955
11
137.077729000000005
21
-107.5032949999999943
0
LINE
8
BLACK
6
CONTINUOUS
10
137.077729000000005
20
-107.5032949999999943
11
137.0782979999999895
21
-107.5028930000000003
0
LINE
8
BLACK
6
CONTINUOUS
10
137.0782979999999895
20
-107.5028930000000003
11
137.0905309999999986
21
-107.4896079999999898
0
LINE
8
BLACK
6
CONTINUOUS
10
137.0905309999999986
20
-107.4896079999999898
11
140.6405309999999815
21
-104.8996069999999889
0
LINE
8
BLACK
6
CONTINUOUS
10
140.6405309999999815
20
-104.8996069999999889
11
140.6431429999999807
21
-104.8983959999999911
0
LINE
8
BLACK
6
CONTINUOUS
10
140.6431429999999807
20
-104.8983959999999911
11
140.6453199999999981
21
-104.8965159999999912
0
LINE
8
BLACK
6
CONTINUOUS
10
140.6453199999999981
20
-104.8965159999999912
11
142.1253199999999879
21
-104.056516000000002
0
LINE
8
BLACK
6
CONTINUOUS
10
142.1253199999999879
20
-104.056516000000002
11
142.1438389999999856
21
-104.0503810000000016
0
LINE
8
BLACK
6
CONTINUOUS
10
142.1438389999999856
20
-104.0503810000000016
11
142.1506459999999947
21
-104.0522589999999923
0
LINE
8
BLACK
6
CONTINUOUS
10
162.7494269999999972
20
-118.3447609999999912
11
162.7670169999999814
21
-118.347927999999996
0
LINE
8
BLACK
6
CONTINUOUS
10
162.7670169999999814
20
-118.347927999999996
11
162.7678449999999941
21
-118.3491209999999967
0
LINE
8
BLACK
6
CONTINUOUS
10
162.7678449999999941
20
-118.3491209999999967
11
162.7692610000000002
21
-118.3494559999999893
0
LINE
8
BLACK
6
CONTINUOUS
10
162.7692610000000002
20
-118.3494559999999893
11
162.7825489999999888
21
-118.3637399999999928
0
LINE
8
BLACK
6
CONTINUOUS
10
162.7825489999999888
20
-118.3637399999999928
11
164.6473989999999787
21
-121.3853960000000001
0
LINE
8
BLACK
6
CONTINUOUS
10
164.6473989999999787
20
-121.3853960000000001
11
169.7494789999999796
21
-125.1096139999999934
0
LINE
8
BLACK
6
CONTINUOUS
10
169.7494789999999796
20
-125.1096139999999934
11
169.7510599999999954
21
-125.1113319999999902
0
LINE
8
BLACK
6
CONTINUOUS
10
169.7510599999999954
20
-125.1113319999999902
11
169.7520889999999838
21
-125.1116549999999989
0
LINE
8
BLACK
6
CONTINUOUS
10
169.7520889999999838
20
-125.1116549999999989
11
169.7530490000000043
21
-125.1134929999999912
0
LINE
8
BLACK
6
CONTINUOUS
10
169.7530490000000043
20
-125.1134929999999912
11
169.7626889999999946
21
-125.1239689999999882
0
LINE
8
BLACK
6
CONTINUOUS
10
169.7626889999999946
20
-125.1239689999999882
11
169.7644659999999988
21
-125.1353569999999991
0
LINE
8
BLACK
6
CONTINUOUS
10
169.7644659999999988
20
-125.1353569999999991
11
169.7698039999999935
21
-125.1455769999999887
0
LINE
8
BLACK
6
CONTINUOUS
10
169.7698039999999935
20
-125.1455769999999887
11
169.7682719999999961
21
-125.1597340000000003
0
LINE
8
BLACK
6
CONTINUOUS
10
169.7682719999999961
20
-125.1597340000000003
11
169.768591999999984
21
-125.1617799999999932
0
LINE
8
BLACK
6
CONTINUOUS
10
169.768591999999984
20
-125.1617799999999932
11
169.7679569999999956
21
-125.1626489999999876
0
LINE
8
BLACK
6
CONTINUOUS
10
169.7679569999999956
20
-125.1626489999999876
11
169.767706000000004
21
-125.1649729999999892
0
LINE
8
BLACK
6
CONTINUOUS
10
169.767706000000004
20
-125.1649729999999892
11
167.8877059999999801
21
-131.154972999999984
0
LINE
8
BLACK
6
CONTINUOUS
10
167.8877059999999801
20
-131.154972999999984
11
167.8862519999999847
21
-131.1576299999999833
0
LINE
8
BLACK
6
CONTINUOUS
10
167.8862519999999847
20
-131.1576299999999833
11
167.8862570000000005
21
-131.158978999999988
0
LINE
8
BLACK
6
CONTINUOUS
10
167.8862570000000005
20
-131.158978999999988
11
167.8846049999999934
21
-131.1606409999999983
0
LINE
8
BLACK
6
CONTINUOUS
10
167.8846049999999934
20
-131.1606409999999983
11
167.8783439999999985
21
-131.1720889999999997
0
LINE
8
BLACK
6
CONTINUOUS
10
167.8783439999999985
20
-131.1720889999999997
11
167.8677270000000021
21
-131.1776329999999859
0
LINE
8
BLACK
6
CONTINUOUS
10
167.8677270000000021
20
-131.1776329999999859
11
167.8592879999999923
21
-131.1861299999999915
0
LINE
8
BLACK
6
CONTINUOUS
10
167.8592879999999923
20
-131.1861299999999915
11
167.8465029999999842
21
-131.1887169999999969
0
LINE
8
BLACK
6
CONTINUOUS
10
167.8465029999999842
20
-131.1887169999999969
11
167.8444230000000061
21
-131.189803999999981
0
LINE
8
BLACK
6
CONTINUOUS
10
167.8444230000000061
20
-131.189803999999981
11
167.8431339999999921
21
-131.1893989999999803
0
LINE
8
BLACK
6
CONTINUOUS
10
167.8431339999999921
20
-131.1893989999999803
11
167.8401669999999797
21
-131.1899999999999977
0
LINE
8
BLACK
6
CONTINUOUS
10
167.8401669999999797
20
-131.1899999999999977
11
161.8601669999999899
21
-131.210000000000008
0
LINE
8
BLACK
6
CONTINUOUS
10
161.8601669999999899
20
-131.210000000000008
11
161.8588680000000011
21
-131.2097459999999955
0
LINE
8
BLACK
6
CONTINUOUS
10
161.8588680000000011
20
-131.2097459999999955
11
161.858271000000002
21
-131.2099699999999984
0
LINE
8
BLACK
6
CONTINUOUS
10
161.858271000000002
20
-131.2099699999999984
11
161.8569599999999866
21
-131.2093729999999994
0
LINE
8
BLACK
6
CONTINUOUS
10
161.8569599999999866
20
-131.2093729999999994
11
161.8410209999999836
21
-131.2062579999999912
0
LINE
8
BLACK
6
CONTINUOUS
10
161.8410209999999836
20
-131.2062579999999912
11
161.8333209999999838
21
-131.1986090000000047
0
LINE
8
BLACK
6
CONTINUOUS
10
161.8333209999999838
20
-131.1986090000000047
11
161.8234429999999975
21
-131.1941119999999898
0
LINE
8
BLACK
6
CONTINUOUS
10
161.8234429999999975
20
-131.1941119999999898
11
161.8148919999999862
21
-131.1803029999999808
0
LINE
8
BLACK
6
CONTINUOUS
10
161.8148919999999862
20
-131.1803029999999808
11
161.8138699999999801
21
-131.1792879999999855
0
LINE
8
BLACK
6
CONTINUOUS
10
161.8138699999999801
20
-131.1792879999999855
11
161.8138669999999877
21
-131.1786479999999813
0
LINE
8
BLACK
6
CONTINUOUS
10
161.8138669999999877
20
-131.1786479999999813
11
161.8131719999999802
21
-131.1775250000000028
0
LINE
8
BLACK
6
CONTINUOUS
10
161.8131719999999802
20
-131.1775250000000028
11
159.953171999999995
21
-126.2075249999999897
0
LINE
8
BLACK
6
CONTINUOUS
10
159.953171999999995
20
-126.2075249999999897
11
159.9521670000000029
21
-126.2013709999999946
0
LINE
8
BLACK
6
CONTINUOUS
10
159.9521670000000029
20
-126.2013709999999946
11
159.9502939999999853
21
-126.1954179999999894
0
LINE
8
BLACK
6
CONTINUOUS
10
159.9502939999999853
20
-126.1954179999999894
11
159.7617109999999911
21
-124.4653269999999878
0
LINE
8
BLACK
6
CONTINUOUS
10
159.7617109999999911
20
-124.4653269999999878
11
157.84931899999998
21
-121.7890699999999953
0
LINE
8
BLACK
6
CONTINUOUS
10
157.84931899999998
20
-121.7890699999999953
11
157.841290999999984
21
-121.7712889999999959
0
LINE
8
BLACK
6
CONTINUOUS
10
157.841290999999984
20
-121.7712889999999959
11
157.8413489999999797
21
-121.7709369999999893
0
LINE
8
BLACK
6
CONTINUOUS
10
157.8413489999999797
20
-121.7709369999999893
11
157.8411470000000065
21
-121.7706459999999993
0
LINE
8
BLACK
6
CONTINUOUS
10
157.8411470000000065
20
-121.7706459999999993
11
157.844475999999986
21
-121.7521539999999902
0
LINE
8
BLACK
6
CONTINUOUS
10
157.844475999999986
20
-121.7521539999999902
11
157.8475750000000062
21
-121.7335399999999908
0
LINE
8
BLACK
6
CONTINUOUS
10
157.8475750000000062
20
-121.7335399999999908
11
157.8478649999999845
21
-121.7333319999999901
0
LINE
8
BLACK
6
CONTINUOUS
10
157.8478649999999845
20
-121.7333319999999901
11
157.847927999999996
21
-121.7329829999999902
0
LINE
8
BLACK
6
CONTINUOUS
10
157.847927999999996
20
-121.7329829999999902
11
157.8614689999999996
21
-121.7189389999999918
0
LINE
8
BLACK
6
CONTINUOUS
10
157.8614689999999996
20
-121.7189389999999918
11
162.7114689999999939
21
-118.3489390000000014
0
LINE
8
BLACK
6
CONTINUOUS
10
162.7114689999999939
20
-118.3489390000000014
11
162.7293540000000007
21
-118.3411469999999923
0
LINE
8
BLACK
6
CONTINUOUS
10
162.7293540000000007
20
-118.3411469999999923
11
162.7307839999999999
21
-118.3414039999999972
0
LINE
8
BLACK
6
CONTINUOUS
10
162.7307839999999999
20
-118.3414039999999972
11
162.7320220000000006
21
-118.3406409999999909
0
LINE
8
BLACK
6
CONTINUOUS
10
162.7320220000000006
20
-118.3406409999999909
11
162.7494269999999972
21
-118.3447609999999912
0
LINE
8
BLACK
6
CONTINUOUS
10
121.8104099999999903
20
-77.1001139999999907
11
121.8219670000000008
21
-77.0983559999999954
0
LINE
8
BLACK
6
CONTINUOUS
10
121.8219670000000008
20
-77.0983559999999954
11
121.8344619999999878
21
-77.1042079999999999
0
LINE
8
BLACK
6
CONTINUOUS
10
121.8344619999999878
20
-77.1042079999999999
11
121.8366139999999973
21
-77.104574999999997
0
LINE
8
BLACK
6
CONTINUOUS
10
121.8366139999999973
20
-77.104574999999997
11
121.8372949999999975
21
-77.1055350000000033
0
LINE
8
BLACK
6
CONTINUOUS
10
121.8372949999999975
20
-77.1055350000000033
11
121.8396339999999896
21
-77.106630999999993
0
LINE
8
BLACK
6
CONTINUOUS
10
121.8396339999999896
20
-77.106630999999993
11
127.1264139999999969
21
-80.9969030000000032
0
LINE
8
BLACK
6
CONTINUOUS
10
127.1264139999999969
20
-80.9969030000000032
11
133.9099999999999966
21
-80.9969030000000032
0
LINE
8
BLACK
6
CONTINUOUS
10
133.9099999999999966
20
-80.9969030000000032
11
133.9126229999999964
21
-80.9974239999999952
0
LINE
8
BLACK
6
CONTINUOUS
10
133.9126229999999964
20
-80.9974239999999952
11
133.9137780000000078
21
-80.9970459999999974
0
LINE
8
BLACK
6
CONTINUOUS
10
133.9137780000000078
20
-80.9970459999999974
11
133.9157600000000059
21
-80.9980479999999972
0
LINE
8
BLACK
6
CONTINUOUS
10
133.9157600000000059
20
-80.9980479999999972
11
133.9291340000000048
21
-81.0007090000000005
0
LINE
8
BLACK
6
CONTINUOUS
10
133.9291340000000048
20
-81.0007090000000005
11
133.9374420000000043
21
-81.0090170000000001
0
LINE
8
BLACK
6
CONTINUOUS
10
133.9374420000000043
20
-81.0090170000000001
11
133.9479259999999954
21
-81.0143209999999954
0
LINE
8
BLACK
6
CONTINUOUS
10
133.9479259999999954
20
-81.0143209999999954
11
133.954622999999998
21
-81.0261979999999937
0
LINE
8
BLACK
6
CONTINUOUS
10
133.954622999999998
20
-81.0261979999999937
11
133.9561939999999822
21
-81.0277689999999922
0
LINE
8
BLACK
6
CONTINUOUS
10
133.9561939999999822
20
-81.0277689999999922
11
133.9561939999999822
21
-81.0289829999999967
0
LINE
8
BLACK
6
CONTINUOUS
10
133.9561939999999822
20
-81.0289829999999967
11
133.95750799999999
21
-81.0313139999999947
0
LINE
8
BLACK
6
CONTINUOUS
10
133.95750799999999
20
-81.0313139999999947
11
136.0522049999999865
21
-87.4151540000000011
0
LINE
8
BLACK
6
CONTINUOUS
10
136.0522049999999865
20
-87.4151540000000011
11
142.2081499999999892
21
-91.6086770000000001
0
LINE
8
BLACK
6
CONTINUOUS
10
142.2081499999999892
20
-91.6086770000000001
11
142.2218210000000056
21
-91.6225949999999898
0
LINE
8
BLACK
6
CONTINUOUS
10
142.2218210000000056
20
-91.6225949999999898
11
142.2227440000000058
21
-91.6274650000000008
0
LINE
8
BLACK
6
CONTINUOUS
10
142.2227440000000058
20
-91.6274650000000008
11
142.22623999999999
21
-91.6309779999999989
0
LINE
8
BLACK
6
CONTINUOUS
10
142.22623999999999
20
-91.6309779999999989
11
142.2299999999999898
21
-91.6501209999999986
0
LINE
8
BLACK
6
CONTINUOUS
10
142.2299999999999898
20
-91.6501209999999986
11
142.1999999999999886
21
-104.1001199999999898
0
LINE
8
BLACK
6
CONTINUOUS
10
142.1999999999999886
20
-104.1001199999999898
11
142.1961479999999938
21
-104.1192449999999923
0
LINE
8
BLACK
6
CONTINUOUS
10
142.1961479999999938
20
-104.1192449999999923
11
142.1955429999999865
21
-104.1198469999999929
0
LINE
8
BLACK
6
CONTINUOUS
10
142.1955429999999865
20
-104.1198469999999929
11
142.1955140000000029
21
-104.1206990000000019
0
LINE
8
BLACK
6
CONTINUOUS
10
142.1955140000000029
20
-104.1206990000000019
11
142.184127999999987
21
-104.136540999999994
0
LINE
8
BLACK
6
CONTINUOUS
10
142.184127999999987
20
-104.136540999999994
11
136.884128000000004
21
-109.0865409999999969
0
LINE
8
BLACK
6
CONTINUOUS
10
136.884128000000004
20
-109.0865409999999969
11
136.875236000000001
21
-109.0920529999999928
0
LINE
8
BLACK
6
CONTINUOUS
10
136.875236000000001
20
-109.0920529999999928
11
136.8735499999999945
21
-109.0941059999999965
0
LINE
8
BLACK
6
CONTINUOUS
10
136.8735499999999945
20
-109.0941059999999965
11
136.8716189999999813
21
-109.0942949999999882
0
LINE
8
BLACK
6
CONTINUOUS
10
136.8716189999999813
20
-109.0942949999999882
11
136.8675470000000018
21
-109.0968199999999939
0
LINE
8
BLACK
6
CONTINUOUS
10
136.8675470000000018
20
-109.0968199999999939
11
136.8514669999999853
21
-109.0962699999999899
0
LINE
8
BLACK
6
CONTINUOUS
10
136.8514669999999853
20
-109.0962699999999899
11
136.8354640000000018
21
-109.0978399999999908
0
LINE
8
BLACK
6
CONTINUOUS
10
136.8354640000000018
20
-109.0978399999999908
11
136.8312399999999798
21
-109.0955799999999982
0
LINE
8
BLACK
6
CONTINUOUS
10
136.8312399999999798
20
-109.0955799999999982
11
136.8292999999999893
21
-109.0955139999999943
0
LINE
8
BLACK
6
CONTINUOUS
10
136.8292999999999893
20
-109.0955139999999943
11
136.8274839999999983
21
-109.0935699999999997
0
LINE
8
BLACK
6
CONTINUOUS
10
136.8274839999999983
20
-109.0935699999999997
11
136.8182630000000017
21
-109.0886359999999939
0
LINE
8
BLACK
6
CONTINUOUS
10
136.8182630000000017
20
-109.0886359999999939
11
132.6182629999999847
21
-105.6386359999999911
0
LINE
8
BLACK
6
CONTINUOUS
10
132.6182629999999847
20
-105.6386359999999911
11
132.6058940000000064
21
-105.6235499999999945
0
LINE
8
BLACK
6
CONTINUOUS
10
132.6058940000000064
20
-105.6235499999999945
11
132.6058859999999981
21
-105.6234759999999966
0
LINE
8
BLACK
6
CONTINUOUS
10
132.6058859999999981
20
-105.6234759999999966
11
132.6058280000000025
21
-105.6234279999999899
0
LINE
8
BLACK
6
CONTINUOUS
10
132.6058280000000025
20
-105.6234279999999899
11
132.6039969999999926
21
-105.6042009999999891
0
LINE
8
BLACK
6
CONTINUOUS
10
132.6039969999999926
20
-105.6042009999999891
11
132.6021599999999978
21
-105.5854640000000018
0
LINE
8
BLACK
6
CONTINUOUS
10
132.6021599999999978
20
-105.5854640000000018
11
132.6022069999999928
21
-105.5854059999999919
0
LINE
8
BLACK
6
CONTINUOUS
10
132.6022069999999928
20
-105.5854059999999919
11
132.6021999999999821
21
-105.5853309999999965
0
LINE
8
BLACK
6
CONTINUOUS
10
132.6021999999999821
20
-105.5853309999999965
11
132.6114519999999857
21
-105.5681560000000019
0
LINE
8
BLACK
6
CONTINUOUS
10
132.6114519999999857
20
-105.5681560000000019
11
133.5614520000000027
21
-104.4181559999999962
0
LINE
8
BLACK
6
CONTINUOUS
10
133.5614520000000027
20
-104.4181559999999962
11
133.5765719999999988
21
-104.4058289999999971
0
LINE
8
BLACK
6
CONTINUOUS
10
133.5765719999999988
20
-104.4058289999999971
11
133.5790819999999997
21
-104.405588999999992
0
LINE
8
BLACK
6
CONTINUOUS
10
133.5790819999999997
20
-104.405588999999992
11
133.5808659999999861
21
-104.4038059999999888
0
LINE
8
BLACK
6
CONTINUOUS
10
133.5808659999999861
20
-104.4038059999999888
11
133.5999999999999943
21
-104.3999999999999915
0
LINE
8
BLACK
6
CONTINUOUS
10
133.5999999999999943
20
-104.3999999999999915
11
137.2292899999999918
21
-104.3999999999999915
0
LINE
8
BLACK
6
CONTINUOUS
10
137.2292899999999918
20
-104.3999999999999915
11
138.0499999999999829
21
-103.5792889999999886
0
LINE
8
BLACK
6
CONTINUOUS
10
138.0499999999999829
20
-103.5792889999999886
11
138.0499999999999829
21
-101.1707099999999997
0
LINE
8
BLACK
6
CONTINUOUS
10
138.0499999999999829
20
-101.1707099999999997
11
137.5792899999999861
21
-100.6999999999999886
0
LINE
8
BLACK
6
CONTINUOUS
10
137.5792899999999861
20
-100.6999999999999886
11
131.9499999999999886
21
-100.6999999999999886
0
LINE
8
BLACK
6
CONTINUOUS
10
131.9499999999999886
20
-100.6999999999999886
11
131.9308659999999804
21
-100.6961939999999913
0
LINE
8
BLACK
6
CONTINUOUS
10
131.9308659999999804
20
-100.6961939999999913
11
131.9267490000000009
21
-100.6920769999999976
0
LINE
8
BLACK
6
CONTINUOUS
10
131.9267490000000009
20
-100.6920769999999976
11
131.9210730000000069
21
-100.6907829999999962
0
LINE
8
BLACK
6
CONTINUOUS
10
131.9210730000000069
20
-100.6907829999999962
11
131.9136579999999981
21
-100.6789859999999948
0
LINE
8
BLACK
6
CONTINUOUS
10
131.9136579999999981
20
-100.6789859999999948
11
131.903806000000003
21
-100.6691339999999997
0
LINE
8
BLACK
6
CONTINUOUS
10
131.903806000000003
20
-100.6691339999999997
11
131.903806000000003
21
-100.6633109999999931
0
LINE
8
BLACK
6
CONTINUOUS
10
131.903806000000003
20
-100.6633109999999931
11
131.9007079999999803
21
-100.6583830000000006
0
LINE
8
BLACK
6
CONTINUOUS
10
131.9007079999999803
20
-100.6583830000000006
11
131.9012519999999995
21
-100.6388819999999953
0
LINE
8
BLACK
6
CONTINUOUS
10
131.9012519999999995
20
-100.6388819999999953
11
132.5480770000000064
21
-97.8027989999999932
0
LINE
8
BLACK
6
CONTINUOUS
10
132.5480770000000064
20
-97.8027989999999932
11
130.3674919999999986
21
-91.4770129999999995
0
LINE
8
BLACK
6
CONTINUOUS
10
130.3674919999999986
20
-91.4770129999999995
11
125.0925909999999988
21
-87.2969030000000004
0
LINE
8
BLACK
6
CONTINUOUS
10
125.0925909999999988
20
-87.2969030000000004
11
118.1263219999999876
21
-87.2969030000000004
0
LINE
8
BLACK
6
CONTINUOUS
10
118.1263219999999876
20
-87.2969030000000004
11
112.9395009999999928
21
-91.0872729999999962
0
LINE
8
BLACK
6
CONTINUOUS
10
112.9395009999999928
20
-91.0872729999999962
11
112.9367079999999959
21
-91.0885689999999926
0
LINE
8
BLACK
6
CONTINUOUS
10
112.9367079999999959
20
-91.0885689999999926
11
112.9358979999999946
21
-91.0896729999999906
0
LINE
8
BLACK
6
CONTINUOUS
10
112.9358979999999946
20
-91.0896729999999906
11
112.9335629999999924
21
-91.0900299999999987
0
LINE
8
BLACK
6
CONTINUOUS
10
112.9335629999999924
20
-91.0900299999999987
11
112.9218070000000012
21
-91.0954890000000006
0
LINE
8
BLACK
6
CONTINUOUS
10
112.9218070000000012
20
-91.0954890000000006
11
112.9099379999999968
21
-91.0936420000000027
0
LINE
8
BLACK
6
CONTINUOUS
10
112.9099379999999968
20
-91.0936420000000027
11
112.8980689999999925
21
-91.0954579999999936
0
LINE
8
BLACK
6
CONTINUOUS
10
112.8980689999999925
20
-91.0954579999999936
11
112.8863289999999893
21
-91.0899699999999939
0
LINE
8
BLACK
6
CONTINUOUS
10
112.8863289999999893
20
-91.0899699999999939
11
112.8839929999999896
21
-91.0896070000000009
0
LINE
8
BLACK
6
CONTINUOUS
10
112.8839929999999896
20
-91.0896070000000009
11
112.883184
21
-91.0884999999999962
0
LINE
8
BLACK
6
CONTINUOUS
10
112.883184
20
-91.0884999999999962
11
112.8803959999999904
21
-91.0871969999999891
0
LINE
8
BLACK
6
CONTINUOUS
10
112.8803959999999904
20
-91.0871969999999891
11
108.4703959999999938
21
-87.8471969999999942
0
LINE
8
BLACK
6
CONTINUOUS
10
108.4703959999999938
20
-87.8471969999999942
11
108.4572299999999956
21
-87.8328009999999892
0
LINE
8
BLACK
6
CONTINUOUS
10
108.4572299999999956
20
-87.8328009999999892
11
108.4559459999999973
21
-87.8244090000000028
0
LINE
8
BLACK
6
CONTINUOUS
10
108.4559459999999973
20
-87.8244090000000028
11
108.4511189999999914
21
-87.8174240000000026
0
LINE
8
BLACK
6
CONTINUOUS
10
108.4511189999999914
20
-87.8174240000000026
11
108.4508139999999941
21
-87.7979169999999982
0
LINE
8
BLACK
6
CONTINUOUS
10
108.4508139999999941
20
-87.7979169999999982
11
109.4008139999999969
21
-82.5979169999999954
0
LINE
8
BLACK
6
CONTINUOUS
10
109.4008139999999969
20
-82.5979169999999954
11
109.4026339999999919
21
-82.5933199999999914
0
LINE
8
BLACK
6
CONTINUOUS
10
109.4026339999999919
20
-82.5933199999999914
11
109.4024829999999895
21
-82.5913429999999948
0
LINE
8
BLACK
6
CONTINUOUS
10
109.4024829999999895
20
-82.5913429999999948
11
109.4056319999999971
21
-82.5857479999999953
0
LINE
8
BLACK
6
CONTINUOUS
10
109.4056319999999971
20
-82.5857479999999953
11
109.4079969999999946
21
-82.5797779999999904
0
LINE
8
BLACK
6
CONTINUOUS
10
109.4079969999999946
20
-82.5797779999999904
11
109.4096289999999954
21
-82.5786499999999961
0
LINE
8
BLACK
6
CONTINUOUS
10
109.4096289999999954
20
-82.5786499999999961
11
109.4120539999999977
21
-82.5743429999999989
0
LINE
8
BLACK
6
CONTINUOUS
10
109.4120539999999977
20
-82.5743429999999989
11
110.7420549999999935
21
-81.0243430000000018
0
LINE
8
BLACK
6
CONTINUOUS
10
110.7420549999999935
20
-81.0243430000000018
11
110.7574029999999965
21
-81.0122999999999962
0
LINE
8
BLACK
6
CONTINUOUS
10
110.7574029999999965
20
-81.0122999999999962
11
110.759381999999988
21
-81.0121479999999963
0
LINE
8
BLACK
6
CONTINUOUS
10
110.759381999999988
20
-81.0121479999999963
11
110.7607819999999919
21
-81.0107440000000025
0
LINE
8
BLACK
6
CONTINUOUS
10
110.7607819999999919
20
-81.0107440000000025
11
110.779910000000001
21
-81.0069029999999941
0
LINE
8
BLACK
6
CONTINUOUS
10
110.779910000000001
20
-81.0069029999999941
11
116.2940309999999897
21
-80.9969309999999894
0
LINE
8
BLACK
6
CONTINUOUS
10
116.2940309999999897
20
-80.9969309999999894
11
121.7810779999999937
21
-77.1061160000000001
0
LINE
8
BLACK
6
CONTINUOUS
10
121.7810779999999937
20
-77.1061160000000001
11
121.7834349999999972
21
-77.1050609999999921
0
LINE
8
BLACK
6
CONTINUOUS
10
121.7834349999999972
20
-77.1050609999999921
11
121.7841339999999946
21
-77.1041129999999981
0
LINE
8
BLACK
6
CONTINUOUS
10
121.7841339999999946
20
-77.1041129999999981
11
121.7862919999999889
21
-77.1037839999999903
0
LINE
8
BLACK
6
CONTINUOUS
10
121.7862919999999889
20
-77.1037839999999903
11
121.7988879999999909
21
-77.0981529999999964
0
LINE
8
BLACK
6
CONTINUOUS
10
121.7988879999999909
20
-77.0981529999999964
11
121.8104099999999903
21
-77.1001139999999907
0
LINE
8
BLACK
6
CONTINUOUS
10
119.6268419999999963
20
-86.9629219999999918
11
119.6288149999999888
21
-86.9647099999999966
0
LINE
8
BLACK
6
CONTINUOUS
10
119.6288149999999888
20
-86.9647099999999966
11
119.6314749999999947
21
-86.9648469999999918
0
LINE
8
BLACK
6
CONTINUOUS
10
119.6314749999999947
20
-86.9648469999999918
11
119.6427379999999943
21
-86.977328
0
LINE
8
BLACK
6
CONTINUOUS
10
119.6427379999999943
20
-86.977328
11
119.6551979999999986
21
-86.9886199999999974
0
LINE
8
BLACK
6
CONTINUOUS
10
119.6551979999999986
20
-86.9886199999999974
11
119.6553279999999972
21
-86.9912789999999916
0
LINE
8
BLACK
6
CONTINUOUS
10
119.6553279999999972
20
-86.9912789999999916
11
119.6571129999999954
21
-86.9932569999999998
0
LINE
8
BLACK
6
CONTINUOUS
10
119.6571129999999954
20
-86.9932569999999998
11
119.6599339999999927
21
-87.0125609999999909
0
LINE
8
BLACK
6
CONTINUOUS
10
119.6599339999999927
20
-87.0125609999999909
11
119.601309999999998
21
-88.1557090000000017
0
LINE
8
BLACK
6
CONTINUOUS
10
119.601309999999998
20
-88.1557090000000017
11
123.7396699999999896
21
-91.2066579999999902
0
LINE
8
BLACK
6
CONTINUOUS
10
123.7396699999999896
20
-91.2066579999999902
11
123.7412069999999886
21
-91.2083439999999968
0
LINE
8
BLACK
6
CONTINUOUS
10
123.7412069999999886
20
-91.2083439999999968
11
123.7422139999999899
21
-91.2086639999999989
0
LINE
8
BLACK
6
CONTINUOUS
10
123.7422139999999899
20
-91.2086639999999989
11
123.7431549999999874
21
-91.2104819999999989
0
LINE
8
BLACK
6
CONTINUOUS
10
123.7431549999999874
20
-91.2104819999999989
11
123.7528119999999916
21
-91.221074999999999
0
LINE
8
BLACK
6
CONTINUOUS
10
123.7528119999999916
20
-91.221074999999999
11
123.7545299999999884
21
-91.2324380000000019
0
LINE
8
BLACK
6
CONTINUOUS
10
123.7545299999999884
20
-91.2324380000000019
11
123.7598179999999957
21
-91.2426430000000011
0
LINE
8
BLACK
6
CONTINUOUS
10
123.7598179999999957
20
-91.2426430000000011
11
123.758229
21
-91.2568869999999919
0
LINE
8
BLACK
6
CONTINUOUS
10
123.758229
20
-91.2568869999999919
11
123.7585359999999923
21
-91.2589129999999926
0
LINE
8
BLACK
6
CONTINUOUS
10
123.7585359999999923
20
-91.2589129999999926
11
123.7579080000000005
21
-91.2597629999999924
0
LINE
8
BLACK
6
CONTINUOUS
10
123.7579080000000005
20
-91.2597629999999924
11
123.7576559999999972
21
-91.2620319999999907
0
LINE
8
BLACK
6
CONTINUOUS
10
123.7576559999999972
20
-91.2620319999999907
11
121.7576559999999972
21
-97.5620320000000021
0
LINE
8
BLACK
6
CONTINUOUS
10
121.7576559999999972
20
-97.5620320000000021
11
121.7563639999999907
21
-97.5643749999999983
0
LINE
8
BLACK
6
CONTINUOUS
10
121.7563639999999907
20
-97.5643749999999983
11
121.7563759999999888
21
-97.5655900000000003
0
LINE
8
BLACK
6
CONTINUOUS
10
121.7563759999999888
20
-97.5655900000000003
11
121.7548209999999926
21
-97.5671749999999918
0
LINE
8
BLACK
6
CONTINUOUS
10
121.7548209999999926
20
-97.5671749999999918
11
121.7482389999999981
21
-97.5791169999999966
0
LINE
8
BLACK
6
CONTINUOUS
10
121.7482389999999981
20
-97.5791169999999966
11
121.7378049999999945
21
-97.5845219999999927
0
LINE
8
BLACK
6
CONTINUOUS
10
121.7378049999999945
20
-97.5845219999999927
11
121.7295779999999894
21
-97.5929099999999892
0
LINE
8
BLACK
6
CONTINUOUS
10
121.7295779999999894
20
-97.5929099999999892
11
121.7162319999999909
21
-97.5956989999999962
0
LINE
8
BLACK
6
CONTINUOUS
10
121.7162319999999909
20
-97.5956989999999962
11
121.7142599999999959
21
-97.5967210000000023
0
LINE
8
BLACK
6
CONTINUOUS
10
121.7142599999999959
20
-97.5967210000000023
11
121.7131019999999921
21
-97.5963529999999935
0
LINE
8
BLACK
6
CONTINUOUS
10
121.7131019999999921
20
-97.5963529999999935
11
121.7104819999999989
21
-97.5969010000000026
0
LINE
8
BLACK
6
CONTINUOUS
10
121.7104819999999989
20
-97.5969010000000026
11
115.1704819999999927
21
-97.6599980000000016
0
LINE
8
BLACK
6
CONTINUOUS
10
115.1704819999999927
20
-97.6599980000000016
11
115.1689399999999921
21
-97.6597059999999999
0
LINE
8
BLACK
6
CONTINUOUS
10
115.1689399999999921
20
-97.6597059999999999
11
115.1682389999999998
21
-97.6599689999999896
0
LINE
8
BLACK
6
CONTINUOUS
10
115.1682389999999998
20
-97.6599689999999896
11
115.1667609999999939
21
-97.6592939999999885
0
LINE
8
BLACK
6
CONTINUOUS
10
115.1667609999999939
20
-97.6592939999999885
11
115.1513130000000018
21
-97.6563759999999945
0
LINE
8
BLACK
6
CONTINUOUS
10
115.1513130000000018
20
-97.6563759999999945
11
115.1434469999999948
21
-97.6486609999999899
0
LINE
8
BLACK
6
CONTINUOUS
10
115.1434469999999948
20
-97.6486609999999899
11
115.1334209999999985
21
-97.6440879999999964
0
LINE
8
BLACK
6
CONTINUOUS
10
115.1334209999999985
20
-97.6440879999999964
11
115.1251519999999999
21
-97.630714999999995
0
LINE
8
BLACK
6
CONTINUOUS
10
115.1251519999999999
20
-97.630714999999995
11
115.1239929999999987
21
-97.6295789999999926
0
LINE
8
BLACK
6
CONTINUOUS
10
115.1239929999999987
20
-97.6295789999999926
11
115.1239849999999905
21
-97.6288289999999961
0
LINE
8
BLACK
6
CONTINUOUS
10
115.1239849999999905
20
-97.6288289999999961
11
115.1231609999999961
21
-97.6274959999999936
0
LINE
8
BLACK
6
CONTINUOUS
10
115.1231609999999961
20
-97.6274959999999936
11
112.5975549999999998
21
-90.8658439999999956
0
LINE
8
BLACK
6
CONTINUOUS
10
112.5975549999999998
20
-90.8658439999999956
11
112.5972029999999933
21
-90.8636779999999931
0
LINE
8
BLACK
6
CONTINUOUS
10
112.5972029999999933
20
-90.8636779999999931
11
112.5965549999999951
21
-90.8628899999999931
0
LINE
8
BLACK
6
CONTINUOUS
10
112.5965549999999951
20
-90.8628899999999931
11
112.5967500000000001
21
-90.8608940000000018
0
LINE
8
BLACK
6
CONTINUOUS
10
112.5967500000000001
20
-90.8608940000000018
11
112.5944250000000011
21
-90.846587999999997
0
LINE
8
BLACK
6
CONTINUOUS
10
112.5944250000000011
20
-90.846587999999997
11
112.5991700000000009
21
-90.8361829999999912
0
LINE
8
BLACK
6
CONTINUOUS
10
112.5991700000000009
20
-90.8361829999999912
11
112.6002849999999995
21
-90.8248040000000003
0
LINE
8
BLACK
6
CONTINUOUS
10
112.6002849999999995
20
-90.8248040000000003
11
112.6094729999999942
21
-90.8135939999999948
0
LINE
8
BLACK
6
CONTINUOUS
10
112.6094729999999942
20
-90.8135939999999948
11
112.6103059999999942
21
-90.8117699999999957
0
LINE
8
BLACK
6
CONTINUOUS
10
112.6103059999999942
20
-90.8117699999999957
11
112.6112609999999989
21
-90.81141199999999
0
LINE
8
BLACK
6
CONTINUOUS
10
112.6112609999999989
20
-90.81141199999999
11
112.6126529999999946
21
-90.8097159999999946
0
LINE
8
BLACK
6
CONTINUOUS
10
112.6126529999999946
20
-90.8097159999999946
11
117.1382579999999933
21
-87.0913680000000028
0
LINE
8
BLACK
6
CONTINUOUS
10
117.1382579999999933
20
-87.0913680000000028
11
117.1468249999999927
21
-87.086781000000002
0
LINE
8
BLACK
6
CONTINUOUS
10
117.1468249999999927
20
-87.086781000000002
11
117.148619999999994
21
-87.0848019999999963
0
LINE
8
BLACK
6
CONTINUOUS
10
117.148619999999994
20
-87.0848019999999963
11
117.1521999999999935
21
-87.0839039999999898
0
LINE
8
BLACK
6
CONTINUOUS
10
117.1521999999999935
20
-87.0839039999999898
11
117.1554579999999959
21
-87.0821609999999993
0
LINE
8
BLACK
6
CONTINUOUS
10
117.1554579999999959
20
-87.0821609999999993
11
117.1581189999999992
21
-87.0824209999999965
0
LINE
8
BLACK
6
CONTINUOUS
10
117.1581189999999992
20
-87.0824209999999965
11
117.1675439999999924
21
-87.0800600000000031
0
LINE
8
BLACK
6
CONTINUOUS
10
117.1675439999999924
20
-87.0800600000000031
11
119.6075439999999901
21
-86.9600599999999986
0
LINE
8
BLACK
6
CONTINUOUS
10
119.6075439999999901
20
-86.9600599999999986
11
119.6268419999999963
21
-86.9629219999999918
0
LINE
8
BLACK
6
CONTINUOUS
10
174.8750289999999836
20
-94.1659480000000002
11
174.8780730000000005
21
-94.1667089999999973
0
LINE
8
BLACK
6
CONTINUOUS
10
174.8780730000000005
20
-94.1667089999999973
11
174.881212000000005
21
-94.1666369999999944
0
LINE
8
BLACK
6
CONTINUOUS
10
174.881212000000005
20
-94.1666369999999944
11
175.6812119999999879
21
-94.3066379999999924
0
LINE
8
BLACK
6
CONTINUOUS
10
175.6812119999999879
20
-94.3066379999999924
11
175.6856589999999869
21
-94.3083599999999933
0
LINE
8
BLACK
6
CONTINUOUS
10
175.6856589999999869
20
-94.3083599999999933
11
175.6903649999999857
21
-94.3091539999999924
0
LINE
8
BLACK
6
CONTINUOUS
10
175.6903649999999857
20
-94.3091539999999924
11
176.4003649999999936
21
-94.5791540000000026
0
LINE
8
BLACK
6
CONTINUOUS
10
176.4003649999999936
20
-94.5791540000000026
11
176.4032149999999888
21
-94.5809399999999982
0
LINE
8
BLACK
6
CONTINUOUS
10
176.4032149999999888
20
-94.5809399999999982
11
176.4064309999999978
21
-94.5819369999999964
0
LINE
8
BLACK
6
CONTINUOUS
10
176.4064309999999978
20
-94.5819369999999964
11
176.9964310000000012
21
-94.9019369999999896
0
LINE
8
BLACK
6
CONTINUOUS
10
176.9964310000000012
20
-94.9019369999999896
11
176.9984439999999779
21
-94.9036100000000005
0
LINE
8
BLACK
6
CONTINUOUS
10
176.9984439999999779
20
-94.9036100000000005
11
177.0008469999999932
21
-94.9046379999999914
0
LINE
8
BLACK
6
CONTINUOUS
10
177.0008469999999932
20
-94.9046379999999914
11
177.7308469999999829
21
-95.4046369999999939
0
LINE
8
BLACK
6
CONTINUOUS
10
177.7308469999999829
20
-95.4046369999999939
11
177.7339069999999879
21
-95.4077679999999901
0
LINE
8
BLACK
6
CONTINUOUS
10
177.7339069999999879
20
-95.4077679999999901
11
177.7375739999999951
21
-95.4101629999999972
0
LINE
8
BLACK
6
CONTINUOUS
10
177.7375739999999951
20
-95.4101629999999972
11
178.2175739999999848
21
-95.8801639999999935
0
LINE
8
BLACK
6
CONTINUOUS
10
178.2175739999999848
20
-95.8801639999999935
11
178.2194199999999853
21
-95.8828649999999953
0
LINE
8
BLACK
6
CONTINUOUS
10
178.2194199999999853
20
-95.8828649999999953
11
178.2219089999999824
21
-95.884997999999996
0
LINE
8
BLACK
6
CONTINUOUS
10
178.2219089999999824
20
-95.884997999999996
11
178.7719089999999937
21
-96.5849979999999988
0
LINE
8
BLACK
6
CONTINUOUS
10
178.7719089999999937
20
-96.5849979999999988
11
178.7741350000000011
21
-96.5893849999999929
0
LINE
8
BLACK
6
CONTINUOUS
10
178.7741350000000011
20
-96.5893849999999929
11
178.7771759999999972
21
-96.5932540000000017
0
LINE
8
BLACK
6
CONTINUOUS
10
178.7771759999999972
20
-96.5932540000000017
11
179.1071759999999813
21
-97.2432539999999932
0
LINE
8
BLACK
6
CONTINUOUS
10
179.1071759999999813
20
-97.2432539999999932
11
179.1076199999999972
21
-97.2448369999999898
0
LINE
8
BLACK
6
CONTINUOUS
10
179.1076199999999972
20
-97.2448369999999898
11
179.1085499999999797
21
-97.246192999999991
0
LINE
8
BLACK
6
CONTINUOUS
10
179.1085499999999797
20
-97.246192999999991
11
179.3185499999999877
21
-97.7361930000000001
0
LINE
8
BLACK
6
CONTINUOUS
10
179.3185499999999877
20
-97.7361930000000001
11
179.3193049999999857
21
-97.7397639999999939
0
LINE
8
BLACK
6
CONTINUOUS
10
179.3193049999999857
20
-97.7397639999999939
11
179.3209149999999852
21
-97.7430439999999976
0
LINE
8
BLACK
6
CONTINUOUS
10
179.3209149999999852
20
-97.7430439999999976
11
179.5309149999999931
21
-98.5330439999999896
0
LINE
8
BLACK
6
CONTINUOUS
10
179.5309149999999931
20
-98.5330439999999896
11
179.5311419999999885
21
-98.5366279999999932
0
LINE
8
BLACK
6
CONTINUOUS
10
179.5311419999999885
20
-98.5366279999999932
11
179.5322510000000023
21
-98.5400470000000013
0
LINE
8
BLACK
6
CONTINUOUS
10
179.5322510000000023
20
-98.5400470000000013
11
179.6122509999999863
21
-99.2200469999999939
0
LINE
8
BLACK
6
CONTINUOUS
10
179.6122509999999863
20
-99.2200469999999939
11
179.6120159999999828
21
-99.2229930000000024
0
LINE
8
BLACK
6
CONTINUOUS
10
179.6120159999999828
20
-99.2229930000000024
11
179.6125930000000039
21
-99.2258889999999951
0
LINE
8
BLACK
6
CONTINUOUS
10
179.6125930000000039
20
-99.2258889999999951
11
179.6125930000000039
21
-99.9958889999999911
0
LINE
8
BLACK
6
CONTINUOUS
10
179.6125930000000039
20
-99.9958889999999911
11
179.6116879999999867
21
-100.0004339999999985
0
LINE
8
BLACK
6
CONTINUOUS
10
179.6116879999999867
20
-100.0004339999999985
11
179.6117429999999899
21
-100.0050710000000009
0
LINE
8
BLACK
6
CONTINUOUS
10
179.6117429999999899
20
-100.0050710000000009
11
179.4417430000000024
21
-100.9150709999999975
0
LINE
8
BLACK
6
CONTINUOUS
10
179.4417430000000024
20
-100.9150709999999975
11
179.4399990000000003
21
-100.9194219999999973
0
LINE
8
BLACK
6
CONTINUOUS
10
179.4399990000000003
20
-100.9194219999999973
11
179.4391839999999831
21
-100.9240349999999893
0
LINE
8
BLACK
6
CONTINUOUS
10
179.4391839999999831
20
-100.9240349999999893
11
179.0691839999999786
21
-101.8740349999999921
0
LINE
8
BLACK
6
CONTINUOUS
10
179.0691839999999786
20
-101.8740349999999921
11
179.0667770000000019
21
-101.8778080000000017
0
LINE
8
BLACK
6
CONTINUOUS
10
179.0667770000000019
20
-101.8778080000000017
11
179.0652299999999855
21
-101.8820049999999924
0
LINE
8
BLACK
6
CONTINUOUS
10
179.0652299999999855
20
-101.8820049999999924
11
178.5752310000000023
21
-102.6820049999999895
0
LINE
8
BLACK
6
CONTINUOUS
10
178.5752310000000023
20
-102.6820049999999895
11
178.5722419999999886
21
-102.6852389999999957
0
LINE
8
BLACK
6
CONTINUOUS
10
178.5722419999999886
20
-102.6852389999999957
11
178.570022999999992
21
-102.6890399999999914
0
LINE
8
BLACK
6
CONTINUOUS
10
178.570022999999992
20
-102.6890399999999914
11
177.9500219999999899
21
-103.3890409999999918
0
LINE
8
BLACK
6
CONTINUOUS
10
177.9500219999999899
20
-103.3890409999999918
11
177.9468669999999975
21
-103.3914369999999963
0
LINE
8
BLACK
6
CONTINUOUS
10
177.9468669999999975
20
-103.3914369999999963
11
177.9443569999999966
21
-103.3945030000000003
0
LINE
8
BLACK
6
CONTINUOUS
10
177.9443569999999966
20
-103.3945030000000003
11
177.324356999999992
21
-103.9045029999999912
0
LINE
8
BLACK
6
CONTINUOUS
10
177.324356999999992
20
-103.9045029999999912
11
177.3206089999999904
21
-103.9065109999999947
0
LINE
8
BLACK
6
CONTINUOUS
10
177.3206089999999904
20
-103.9065109999999947
11
177.3173999999999921
21
-103.9093009999999992
0
LINE
8
BLACK
6
CONTINUOUS
10
177.3173999999999921
20
-103.9093009999999992
11
176.5473999999999819
21
-104.349300999999997
0
LINE
8
BLACK
6
CONTINUOUS
10
176.5473999999999819
20
-104.349300999999997
11
176.5441809999999805
21
-104.3503769999999946
0
LINE
8
BLACK
6
CONTINUOUS
10
176.5441809999999805
20
-104.3503769999999946
11
176.541341999999986
21
-104.3522409999999923
0
LINE
8
BLACK
6
CONTINUOUS
10
176.541341999999986
20
-104.3522409999999923
11
175.6513419999999996
21
-104.7122409999999917
0
LINE
8
BLACK
6
CONTINUOUS
10
175.6513419999999996
20
-104.7122409999999917
11
175.6457389999999918
21
-104.7133059999999887
0
LINE
8
BLACK
6
CONTINUOUS
10
175.6457389999999918
20
-104.7133059999999887
11
175.6403909999999939
21
-104.7152770000000004
0
LINE
8
BLACK
6
CONTINUOUS
10
175.6403909999999939
20
-104.7152770000000004
11
174.6903910000000053
21
-104.8652769999999919
0
LINE
8
BLACK
6
CONTINUOUS
10
174.6903910000000053
20
-104.8652769999999919
11
174.6864559999999926
21
-104.8651199999999903
0
LINE
8
BLACK
6
CONTINUOUS
10
174.6864559999999926
20
-104.8651199999999903
11
174.6825929999999971
21
-104.8658889999999957
0
LINE
8
BLACK
6
CONTINUOUS
10
174.6825929999999971
20
-104.8658889999999957
11
173.8856529999999907
21
-104.8658889999999957
0
LINE
8
BLACK
6
CONTINUOUS
10
173.8856529999999907
20
-104.8658889999999957
11
173.3720399999999984
21
-108.2902089999999902
0
LINE
8
BLACK
6
CONTINUOUS
10
173.3720399999999984
20
-108.2902089999999902
11
173.3654379999999833
21
-108.308565999999999
0
LINE
8
BLACK
6
CONTINUOUS
10
173.3654379999999833
20
-108.308565999999999
11
173.3648129999999981
21
-108.3090270000000004
0
LINE
8
BLACK
6
CONTINUOUS
10
173.3648129999999981
20
-108.3090270000000004
11
173.3646760000000029
21
-108.3097929999999991
0
LINE
8
BLACK
6
CONTINUOUS
10
173.3646760000000029
20
-108.3097929999999991
11
173.3495079999999859
21
-108.3203389999999899
0
LINE
8
BLACK
6
CONTINUOUS
10
173.3495079999999859
20
-108.3203389999999899
11
173.3346630000000062
21
-108.3313129999999944
0
LINE
8
BLACK
6
CONTINUOUS
10
173.3346630000000062
20
-108.3313129999999944
11
173.3338939999999866
21
-108.3311969999999889
0
LINE
8
BLACK
6
CONTINUOUS
10
173.3338939999999866
20
-108.3311969999999889
11
173.3332570000000032
21
-108.3316409999999905
0
LINE
8
BLACK
6
CONTINUOUS
10
173.3332570000000032
20
-108.3316409999999905
11
173.3137519999999938
21
-108.3320039999999977
0
LINE
8
BLACK
6
CONTINUOUS
10
173.3137519999999938
20
-108.3320039999999977
11
168.6937519999999893
21
-107.5020039999999995
0
LINE
8
BLACK
6
CONTINUOUS
10
168.6937519999999893
20
-107.5020039999999995
11
168.6787860000000023
21
-107.4961279999999988
0
LINE
8
BLACK
6
CONTINUOUS
10
168.6787860000000023
20
-107.4961279999999988
11
168.6773000000000025
21
-107.4959229999999906
0
LINE
8
BLACK
6
CONTINUOUS
10
168.6773000000000025
20
-107.4959229999999906
11
168.6768929999999784
21
-107.4953859999999963
0
LINE
8
BLACK
6
CONTINUOUS
10
168.6768929999999784
20
-107.4953859999999963
11
168.6755919999999946
21
-107.4948749999999933
0
LINE
8
BLACK
6
CONTINUOUS
10
168.6755919999999946
20
-107.4948749999999933
11
168.6651990000000012
21
-107.4799289999999985
0
LINE
8
BLACK
6
CONTINUOUS
10
168.6651990000000012
20
-107.4799289999999985
11
168.6542100000000062
21
-107.4654049999999899
0
LINE
8
BLACK
6
CONTINUOUS
10
168.6542100000000062
20
-107.4654049999999899
11
168.6541269999999884
21
-107.4640079999999926
0
LINE
8
BLACK
6
CONTINUOUS
10
168.6541269999999884
20
-107.4640079999999926
11
168.653743999999989
21
-107.4634559999999937
0
LINE
8
BLACK
6
CONTINUOUS
10
168.653743999999989
20
-107.4634559999999937
11
168.6540080000000046
21
-107.4619809999999944
0
LINE
8
BLACK
6
CONTINUOUS
10
168.6540080000000046
20
-107.4619809999999944
11
168.6530659999999955
21
-107.4459289999999925
0
LINE
8
BLACK
6
CONTINUOUS
10
168.6530659999999955
20
-107.4459289999999925
11
169.4212650000000053
21
-101.9020209999999906
0
LINE
8
BLACK
6
CONTINUOUS
10
169.4212650000000053
20
-101.9020209999999906
11
169.0160769999999957
21
-100.8742269999999905
0
LINE
8
BLACK
6
CONTINUOUS
10
169.0160769999999957
20
-100.8742269999999905
11
169.0150479999999789
21
-100.8685449999999975
0
LINE
8
BLACK
6
CONTINUOUS
10
169.0150479999999789
20
-100.8685449999999975
11
169.0131159999999966
21
-100.8631049999999902
0
LINE
8
BLACK
6
CONTINUOUS
10
169.0131159999999966
20
-100.8631049999999902
11
168.8731159999999818
21
-99.903103999999999
0
LINE
8
BLACK
6
CONTINUOUS
10
168.8731159999999818
20
-99.903103999999999
11
168.8733179999999834
21
-99.8991860000000003
0
LINE
8
BLACK
6
CONTINUOUS
10
168.8733179999999834
20
-99.8991860000000003
11
168.8725959999999873
21
-99.8953329999999937
0
LINE
8
BLACK
6
CONTINUOUS
10
168.8725959999999873
20
-99.8953329999999937
11
168.8825959999999782
21
-98.9953330000000022
0
LINE
8
BLACK
6
CONTINUOUS
10
168.8825959999999782
20
-98.9953330000000022
11
168.883404999999982
21
-98.9914879999999897
0
LINE
8
BLACK
6
CONTINUOUS
10
168.883404999999982
20
-98.9914879999999897
11
168.8832909999999856
21
-98.9875649999999894
0
LINE
8
BLACK
6
CONTINUOUS
10
168.8832909999999856
20
-98.9875649999999894
11
169.0132909999999811
21
-98.2175649999999933
0
LINE
8
BLACK
6
CONTINUOUS
10
169.0132909999999811
20
-98.2175649999999933
11
169.0146729999999877
21
-98.2139329999999973
0
LINE
8
BLACK
6
CONTINUOUS
10
169.0146729999999877
20
-98.2139329999999973
11
169.0151589999999828
21
-98.2100779999999958
0
LINE
8
BLACK
6
CONTINUOUS
10
169.0151589999999828
20
-98.2100779999999958
11
169.2851589999999931
21
-97.4000779999999935
0
LINE
8
BLACK
6
CONTINUOUS
10
169.2851589999999931
20
-97.4000779999999935
11
169.2871710000000007
21
-97.3965469999999982
0
LINE
8
BLACK
6
CONTINUOUS
10
169.2871710000000007
20
-97.3965469999999982
11
169.2883229999999912
21
-97.3926469999999966
0
LINE
8
BLACK
6
CONTINUOUS
10
169.2883229999999912
20
-97.3926469999999966
11
169.7083229999999787
21
-96.5926469999999995
0
LINE
8
BLACK
6
CONTINUOUS
10
169.7083229999999787
20
-96.5926469999999995
11
169.7114899999999977
21
-96.588727999999989
0
LINE
8
BLACK
6
CONTINUOUS
10
169.7114899999999977
20
-96.588727999999989
11
169.7138499999999794
21
-96.5842829999999992
0
LINE
8
BLACK
6
CONTINUOUS
10
169.7138499999999794
20
-96.5842829999999992
11
170.333849999999984
21
-95.8242829999999941
0
LINE
8
BLACK
6
CONTINUOUS
10
170.333849999999984
20
-95.8242829999999941
11
170.3359939999999995
21
-95.822511999999989
0
LINE
8
BLACK
6
CONTINUOUS
10
170.3359939999999995
20
-95.822511999999989
11
170.3375629999999887
21
-95.8202110000000005
0
LINE
8
BLACK
6
CONTINUOUS
10
170.3375629999999887
20
-95.8202110000000005
11
170.8875639999999976
21
-95.2802109999999942
0
LINE
8
BLACK
6
CONTINUOUS
10
170.8875639999999976
20
-95.2802109999999942
11
170.892296999999985
21
-95.2771099999999933
0
LINE
8
BLACK
6
CONTINUOUS
10
170.892296999999985
20
-95.2771099999999933
11
170.8964519999999823
21
-95.2732669999999899
0
LINE
8
BLACK
6
CONTINUOUS
10
170.8964519999999823
20
-95.2732669999999899
11
171.6464519999999823
21
-94.8132669999999962
0
LINE
8
BLACK
6
CONTINUOUS
10
171.6464519999999823
20
-94.8132669999999962
11
171.6485040000000026
21
-94.812507999999994
0
LINE
8
BLACK
6
CONTINUOUS
10
171.6485040000000026
20
-94.812507999999994
11
171.6502319999999884
21
-94.811167999999995
0
LINE
8
BLACK
6
CONTINUOUS
10
171.6502319999999884
20
-94.811167999999995
11
172.3702319999999872
21
-94.4511679999999956
0
LINE
8
BLACK
6
CONTINUOUS
10
172.3702319999999872
20
-94.4511679999999956
11
172.3747919999999851
21
-94.4499189999999942
0
LINE
8
BLACK
6
CONTINUOUS
10
172.3747919999999851
20
-94.4499189999999942
11
172.3790070000000014
21
-94.4477699999999913
0
LINE
8
BLACK
6
CONTINUOUS
10
172.3790070000000014
20
-94.4477699999999913
11
173.2290069999999957
21
-94.2077699999999965
0
LINE
8
BLACK
6
CONTINUOUS
10
173.2290069999999957
20
-94.2077699999999965
11
173.2334309999999959
21
-94.207419999999999
0
LINE
8
BLACK
6
CONTINUOUS
10
173.2334309999999959
20
-94.207419999999999
11
173.2376789999999858
21
-94.2061309999999992
0
LINE
8
BLACK
6
CONTINUOUS
10
173.2376789999999858
20
-94.2061309999999992
11
174.047678999999988
21
-94.1261310000000009
0
LINE
8
BLACK
6
CONTINUOUS
10
174.047678999999988
20
-94.1261310000000009
11
174.0513639999999782
21
-94.1264929999999964
0
LINE
8
BLACK
6
CONTINUOUS
10
174.0513639999999782
20
-94.1264929999999964
11
174.0550289999999904
21
-94.125947999999994
0
LINE
8
BLACK
6
CONTINUOUS
10
174.0550289999999904
20
-94.125947999999994
11
174.8750289999999836
21
-94.1659480000000002
0
LINE
8
BLACK
6
CONTINUOUS
10
160.4291340000000048
20
-92.3107090000000028
11
160.4561939999999822
21
-92.3377689999999944
0
LINE
8
BLACK
6
CONTINUOUS
10
160.4561939999999822
20
-92.3377689999999944
11
160.4599999999999795
21
-92.3569030000000026
0
LINE
8
BLACK
6
CONTINUOUS
10
160.4599999999999795
20
-92.3569030000000026
11
160.4599999999999795
21
-105.3569029999999884
0
LINE
8
BLACK
6
CONTINUOUS
10
160.4599999999999795
20
-105.3569029999999884
11
160.4561939999999822
21
-105.3760369999999966
0
LINE
8
BLACK
6
CONTINUOUS
10
160.4561939999999822
20
-105.3760369999999966
11
160.4291340000000048
21
-105.4030969999999883
0
LINE
8
BLACK
6
CONTINUOUS
10
160.4291340000000048
20
-105.4030969999999883
11
160.4099999999999966
21
-105.4069029999999998
0
LINE
8
BLACK
6
CONTINUOUS
10
160.4099999999999966
20
-105.4069029999999998
11
157.8100000000000023
21
-105.4069029999999998
0
LINE
8
BLACK
6
CONTINUOUS
10
157.8100000000000023
20
-105.4069029999999998
11
157.7908659999999941
21
-105.4030969999999883
0
LINE
8
BLACK
6
CONTINUOUS
10
157.7908659999999941
20
-105.4030969999999883
11
157.7638059999999882
21
-105.3760369999999966
0
LINE
8
BLACK
6
CONTINUOUS
10
157.7638059999999882
20
-105.3760369999999966
11
157.7599999999999909
21
-105.3569029999999884
0
LINE
8
BLACK
6
CONTINUOUS
10
157.7599999999999909
20
-105.3569029999999884
11
157.7599999999999909
21
-92.3569030000000026
0
LINE
8
BLACK
6
CONTINUOUS
10
157.7599999999999909
20
-92.3569030000000026
11
157.7638059999999882
21
-92.3377689999999944
0
LINE
8
BLACK
6
CONTINUOUS
10
157.7638059999999882
20
-92.3377689999999944
11
157.7908659999999941
21
-92.3107090000000028
0
LINE
8
BLACK
6
CONTINUOUS
10
157.7908659999999941
20
-92.3107090000000028
11
157.8100000000000023
21
-92.3069029999999913
0
LINE
8
BLACK
6
CONTINUOUS
10
157.8100000000000023
20
-92.3069029999999913
11
160.4099999999999966
21
-92.3069029999999913
0
LINE
8
BLACK
6
CONTINUOUS
10
160.4099999999999966
20
-92.3069029999999913
11
160.4291340000000048
21
-92.3107090000000028
  0
ENDSEC
  0
EOF
