  0
SECTION
  2
HEADER
  9
$ANGBASE
  50
0.0
  9
$ANGDIR
  70
1
  9
$MEASUREMENT
  70
1
  0
ENDSEC
  0
SECTION
  2
TABLES
  0
TABLE
  2
LTYPE
  70
4
  0
LTYPE
  5
40F
  2
CONTINUOUS
  70
0
  3
Solid line
  72
65
  73
0
  40
0.0
  0
LTYPE
  5
410
  2
DASHDOT
 70
0
  3
Dash Dot ____ _ ____ _
 72
65
 73
4
 40
2.0
 49
1.25
 49
-0.25
 49
0.25
 49
-0.25
  0
LTYPE
  5
411
  2
DASHED
 70
0
  3
Dashed __ __ __ __ __
 72
65
 73
2
 40
0.75
 49
0.5
 49
-0.25
  0
LTYPE
  5
43B
  2
DOTTED
 70
0
  3
Dotted .  .  .  .
 72
65
 73
2
 40
0.2
 49
0.0
 49
-0.2
  0
ENDTAB
  0
TABLE
  2
STYLE
  70
4
  0
STYLE
  2
KICAD
  70
0
  40
0
  41
1
  42
1
  50
0
  71
0
  3
isocp.shx
  0
STYLE
  2
KICADB
  70
0
  40
0
  41
1
  42
1
  50
0
  71
0
  3
isocp.shx
  0
STYLE
  2
KICADI
  70
0
  40
0
  41
1
  42
1
  50
15
  71
0
  3
isocp.shx
  0
STYLE
  2
KICADBI
  70
0
  40
0
  41
1
  42
1
  50
15
  71
0
  3
isocp.shx
  0
ENDTAB
  0
TABLE
  2
LAYER
  70
1
  0
LAYER
  2
BLACK
  70
0
  62
7
  6
CONTINUOUS
  0
ENDTAB
  0
ENDSEC
  0
SECTION
  2
ENTITIES
0
LINE
8
BLACK
6
CONTINUOUS
10
149.7646509999999864
20
-91.2510109999999912
11
149.7704229999999939
21
-91.2588749999999891
0
LINE
8
BLACK
6
CONTINUOUS
10
149.7704229999999939
20
-91.2588749999999891
11
150.8203649999999811
21
-93.5078129999999987
0
LINE
8
BLACK
6
CONTINUOUS
10
150.8203649999999811
20
-93.5078129999999987
11
150.8226879999999994
21
-93.5172869999999961
0
LINE
8
BLACK
6
CONTINUOUS
10
150.8226879999999994
20
-93.5172869999999961
11
150.8226819999999861
21
-93.5173009999999891
0
LINE
8
BLACK
6
CONTINUOUS
10
150.8226819999999861
20
-93.5173009999999891
11
150.8226889999999969
21
-93.5173149999999964
0
LINE
8
BLACK
6
CONTINUOUS
10
150.8226889999999969
20
-93.5173149999999964
11
150.819437999999991
21
-93.5262259999999941
0
LINE
8
BLACK
6
CONTINUOUS
10
150.819437999999991
20
-93.5262259999999941
11
150.8161519999999882
21
-93.535269999999997
0
LINE
8
BLACK
6
CONTINUOUS
10
150.8161519999999882
20
-93.535269999999997
11
150.8161379999999951
21
-93.5352759999999961
0
LINE
8
BLACK
6
CONTINUOUS
10
150.8161379999999951
20
-93.5352759999999961
11
150.8161329999999793
21
-93.5352910000000008
0
LINE
8
BLACK
6
CONTINUOUS
10
150.8161329999999793
20
-93.5352910000000008
11
150.8082629999999824
21
-93.5410529999999909
0
LINE
8
BLACK
6
CONTINUOUS
10
150.8082629999999824
20
-93.5410529999999909
11
143.9803409999999815
21
-96.719539999999995
0
LINE
8
BLACK
6
CONTINUOUS
10
143.9803409999999815
20
-96.719539999999995
11
143.9708640000000059
21
-96.7218519999999984
0
LINE
8
BLACK
6
CONTINUOUS
10
143.9708640000000059
20
-96.7218519999999984
11
143.9708519999999794
21
-96.7218469999999968
0
LINE
8
BLACK
6
CONTINUOUS
10
143.9708519999999794
20
-96.7218469999999968
11
143.9708410000000072
21
-96.7218529999999959
0
LINE
8
BLACK
6
CONTINUOUS
10
143.9708410000000072
20
-96.7218529999999959
11
143.9620479999999816
21
-96.7186370000000011
0
LINE
8
BLACK
6
CONTINUOUS
10
143.9620479999999816
20
-96.7186370000000011
11
143.9528880000000015
21
-96.715295999999995
0
LINE
8
BLACK
6
CONTINUOUS
10
143.9528880000000015
20
-96.715295999999995
11
143.9528819999999882
21
-96.7152839999999969
0
LINE
8
BLACK
6
CONTINUOUS
10
143.9528819999999882
20
-96.7152839999999969
11
143.9528709999999876
21
-96.7152799999999928
0
LINE
8
BLACK
6
CONTINUOUS
10
143.9528709999999876
20
-96.7152799999999928
11
143.9471159999999941
21
-96.7074049999999943
0
LINE
8
BLACK
6
CONTINUOUS
10
143.9471159999999941
20
-96.7074049999999943
11
142.9053690000000074
21
-94.4642059999999901
0
LINE
8
BLACK
6
CONTINUOUS
10
142.9053690000000074
20
-94.4642059999999901
11
142.9030889999999943
21
-94.4548259999999971
0
LINE
8
BLACK
6
CONTINUOUS
10
142.9030889999999943
20
-94.4548259999999971
11
142.903066999999993
21
-94.454779000000002
0
LINE
8
BLACK
6
CONTINUOUS
10
142.903066999999993
20
-94.454779000000002
11
142.9030730000000062
21
-94.4547609999999906
0
LINE
8
BLACK
6
CONTINUOUS
10
142.9030730000000062
20
-94.4547609999999906
11
142.903064999999998
21
-94.4547269999999912
0
LINE
8
BLACK
6
CONTINUOUS
10
142.903064999999998
20
-94.4547269999999912
11
142.906328000000002
21
-94.4458039999999954
0
LINE
8
BLACK
6
CONTINUOUS
10
142.906328000000002
20
-94.4458039999999954
11
142.9096030000000042
21
-94.4367949999999894
0
LINE
8
BLACK
6
CONTINUOUS
10
142.9096030000000042
20
-94.4367949999999894
11
142.9096309999999903
21
-94.4367730000000023
0
LINE
8
BLACK
6
CONTINUOUS
10
142.9096309999999903
20
-94.4367730000000023
11
142.9096380000000011
21
-94.4367570000000001
0
LINE
8
BLACK
6
CONTINUOUS
10
142.9096380000000011
20
-94.4367570000000001
11
142.9096830000000011
21
-94.4367349999999988
0
LINE
8
BLACK
6
CONTINUOUS
10
142.9096830000000011
20
-94.4367349999999988
11
142.9174659999999903
21
-94.4310239999999936
0
LINE
8
BLACK
6
CONTINUOUS
10
142.9174659999999903
20
-94.4310239999999936
11
149.7371929999999907
21
-91.2467989999999958
0
LINE
8
BLACK
6
CONTINUOUS
10
149.7371929999999907
20
-91.2467989999999958
11
149.7466670000000022
21
-91.2444749999999942
0
LINE
8
BLACK
6
CONTINUOUS
10
149.7466670000000022
20
-91.2444749999999942
11
149.7466679999999997
21
-91.2444749999999942
0
LINE
8
BLACK
6
CONTINUOUS
10
149.7466679999999997
20
-91.2444749999999942
11
149.7646509999999864
21
-91.2510109999999912
  0
ENDSEC
  0
EOF
