  0
SECTION
  2
HEADER
  9
$ANGBASE
  50
0.0
  9
$ANGDIR
  70
1
  9
$MEASUREMENT
  70
1
  0
ENDSEC
  0
SECTION
  2
TABLES
  0
TABLE
  2
LTYPE
  70
4
  0
LTYPE
  5
40F
  2
CONTINUOUS
  70
0
  3
Solid line
  72
65
  73
0
  40
0.0
  0
LTYPE
  5
410
  2
DASHDOT
 70
0
  3
Dash Dot ____ _ ____ _
 72
65
 73
4
 40
2.0
 49
1.25
 49
-0.25
 49
0.25
 49
-0.25
  0
LTYPE
  5
411
  2
DASHED
 70
0
  3
Dashed __ __ __ __ __
 72
65
 73
2
 40
0.75
 49
0.5
 49
-0.25
  0
LTYPE
  5
43B
  2
DOTTED
 70
0
  3
Dotted .  .  .  .
 72
65
 73
2
 40
0.2
 49
0.0
 49
-0.2
  0
ENDTAB
  0
TABLE
  2
STYLE
  70
4
  0
STYLE
  2
KICAD
  70
0
  40
0
  41
1
  42
1
  50
0
  71
0
  3
isocp.shx
  0
STYLE
  2
KICADB
  70
0
  40
0
  41
1
  42
1
  50
0
  71
0
  3
isocp.shx
  0
STYLE
  2
KICADI
  70
0
  40
0
  41
1
  42
1
  50
15
  71
0
  3
isocp.shx
  0
STYLE
  2
KICADBI
  70
0
  40
0
  41
1
  42
1
  50
15
  71
0
  3
isocp.shx
  0
ENDTAB
  0
TABLE
  2
LAYER
  70
1
  0
LAYER
  2
BLACK
  70
0
  62
7
  6
CONTINUOUS
  0
ENDTAB
  0
ENDSEC
  0
SECTION
  2
ENTITIES
0
ARC
8
BLACK
10
138.5295999999999879
20
-96.7365999999999957
40
0.1993719250671969
50
107.92504890
51
162.06897603
0
LINE
8
BLACK
6
CONTINUOUS
10
131.3966309999999851
20
-90.5451169999999905
11
131.573631000000006
21
-90.7878169999999898
0
LINE
8
BLACK
6
CONTINUOUS
10
132.9656310000000019
20
-97.9875169999999969
11
132.6856310000000008
21
-98.1909169999999989
0
LINE
8
BLACK
6
CONTINUOUS
10
152.2296309999999835
20
-106.3900170000000003
11
148.6436309999999992
21
-106.7200169999999986
0
LINE
8
BLACK
6
CONTINUOUS
10
121.7596309999999988
20
-77.1900169999999974
11
117.7196309999999926
21
-80.1231169999999935
0
ARC
8
BLACK
10
160.0345999999999833
20
-124.4279999999999973
40
0.1000906105985971
50
-53.94754733
51
36.07589919
0
LINE
8
BLACK
6
CONTINUOUS
10
141.745631000000003
20
-105.3950169999999957
11
140.6726309999999955
21
-105.0470169999999968
0
LINE
8
BLACK
6
CONTINUOUS
10
173.6750109999999836
20
-102.9639289999999932
11
177.7300109999999904
21
-100.018929
0
LINE
8
BLACK
6
CONTINUOUS
10
118.3016310000000004
20
-86.2888169999999946
11
118.4936309999999935
21
-86.8805169999999976
0
ARC
8
BLACK
10
174.2353999999999985
20
-99.4702999999999946
40
3.5999154135875191
50
-6.53387257
51
78.60561290
0
LINE
8
BLACK
6
CONTINUOUS
10
146.592630999999983
20
-120.3920169999999956
11
144.842630999999983
21
-115.0030169999999998
0
ARC
8
BLACK
10
174.2352999999999952
20
-99.4703999999999979
40
5.498947877707244
50
-460.93578402
51
-142.81326322
0
LINE
8
BLACK
6
CONTINUOUS
10
126.7736309999999946
20
-80.8361170000000016
11
121.7596309999999988
21
-77.1900169999999974
0
LINE
8
BLACK
6
CONTINUOUS
10
120.5206309999999945
20
-97.5655169999999998
11
120.8196310000000011
21
-96.6436169999999919
0
LINE
8
BLACK
6
CONTINUOUS
10
140.6726309999999955
20
-105.0470169999999968
11
140.5676310000000058
21
-105.1240169999999949
0
ARC
8
BLACK
10
138.1757000000000062
20
-97.5045999999999964
40
0.1004455290244419
50
161.88651868
51
179.81404392
0
LINE
8
BLACK
6
CONTINUOUS
10
137.1506310000000042
20
-107.6030169999999941
11
137.4216309999999908
21
-108.4390169999999927
0
LINE
8
BLACK
6
CONTINUOUS
10
136.6716309999999908
20
-107.3330169999999981
11
136.9156309999999905
21
-107.1560169999999914
0
LINE
8
BLACK
6
CONTINUOUS
10
159.7906309999999905
20
-126.4030169999999913
11
159.474630999999988
21
-126.5050169999999952
0
LINE
8
BLACK
6
CONTINUOUS
10
126.6586309999999997
20
-81.8427169999999933
11
126.8796309999999892
21
-81.1630169999999964
0
LINE
8
BLACK
6
CONTINUOUS
10
132.6196309999999983
20
-82.9400169999999974
11
132.0286309999999901
21
-81.1175169999999923
0
LINE
8
BLACK
6
CONTINUOUS
10
141.9316309999999817
20
-124.8740169999999949
11
141.7846309999999903
21
-125.323016999999993
0
LINE
8
BLACK
6
CONTINUOUS
10
146.4616309999999828
20
-108.9810169999999943
11
145.1656309999999905
21
-108.560017000000002
0
LINE
8
BLACK
6
CONTINUOUS
10
122.7406309999999934
20
-90.7292169999999913
11
119.2856309999999951
21
-88.2168169999999918
0
LINE
8
BLACK
6
CONTINUOUS
10
143.7256309999999928
20
-114.6760170000000016
11
143.7256309999999928
21
-114.3760169999999903
0
LINE
8
BLACK
6
CONTINUOUS
10
118.2646309999999943
20
-88.7872169999999983
11
117.552630999999991
21
-88.2699169999999924
0
LINE
8
BLACK
6
CONTINUOUS
10
167.0006309999999985
20
-129.7240170000000035
11
168.2876310000000046
21
-129.7250170000000082
0
LINE
8
BLACK
6
CONTINUOUS
10
153.198631000000006
20
-125.0700169999999929
11
152.5886309999999924
21
-125.0700169999999929
0
ARC
8
BLACK
10
168.9136000000000024
20
-125.2809999999999917
40
0.3004122700290386
50
-197.99469723
51
-144.05889181
0
LINE
8
BLACK
6
CONTINUOUS
10
141.7846309999999903
20
-125.323016999999993
11
143.6726309999999955
21
-131.1450169999999957
0
ARC
8
BLACK
10
140.2795999999999879
20
-91.7166999999999888
40
0.2002840597551387
50
-197.96816879
51
-126.09198516
0
ARC
8
BLACK
10
164.3035999999999888
20
-109.7719999999999914
40
0.24996600088212
50
-27.71739768
51
-0.00481350
0
ARC
8
BLACK
10
152.4385999999999797
20
-125.2069999999999936
40
0.100160952411606
50
-107.84505639
51
-18.19652983
0
LINE
8
BLACK
6
CONTINUOUS
10
170.7395759999999996
20
-98.9165169999999989
11
174.7895759999999825
21
-95.9756169999999997
0
LINE
8
BLACK
6
CONTINUOUS
10
162.3386309999999924
20
-113.0980169999999987
11
162.8386309999999924
21
-113.0990169999999893
0
LINE
8
BLACK
6
CONTINUOUS
10
136.559630999999996
20
-119.8110169999999925
11
137.3416310000000067
21
-120.3790169999999904
0
ARC
8
BLACK
10
152.849599999999981
20
-130.3880000000000052
40
0.3001088447630292
50
-3.18266809
51
42.30619324
0
LINE
8
BLACK
6
CONTINUOUS
10
139.1256309999999985
20
-114.7750169999999912
11
138.3616309999999885
21
-114.7750169999999912
0
LINE
8
BLACK
6
CONTINUOUS
10
162.2426309999999887
20
-130.3740169999999807
11
162.8346310000000017
21
-131.1530170000000055
0
LINE
8
BLACK
6
CONTINUOUS
10
119.2856309999999951
20
-88.2168169999999918
11
118.4996309999999937
21
-88.7872169999999983
0
ARC
8
BLACK
10
135.2956000000000074
20
-88.0853999999999928
40
0.0998610625268928
50
-144.08796831
51
-53.89344853
0
ARC
8
BLACK
10
160.8415999999999997
20
-99.0617000000000019
40
0.2000350765490893
50
-179.93925830
51
0.05012502
0
LINE
8
BLACK
6
CONTINUOUS
10
137.113630999999998
20
-121.5250169999999912
11
141.1746310000000051
21
-124.4740169999999893
0
ARC
8
BLACK
10
132.802599999999984
20
-82.8614000000000033
40
0.1988706408145757
50
-156.71385802
51
-108.47886242
0
LINE
8
BLACK
6
CONTINUOUS
10
146.4436309999999821
20
-120.9800169999999895
11
146.592630999999983
21
-120.3920169999999956
0
ARC
8
BLACK
10
126.7535999999999916
20
-81.8734999999999928
40
0.1001801530294299
50
-197.92127516
51
-108.13092285
0
LINE
8
BLACK
6
CONTINUOUS
10
155.6316309999999987
20
-103.6750169999999969
11
155.4596310000000017
21
-103.5200169999999957
0
LINE
8
BLACK
6
CONTINUOUS
10
110.7056309999999968
20
-81.8729170000000011
11
111.7486309999999889
21
-83.5483169999999973
0
LINE
8
BLACK
6
CONTINUOUS
10
131.5506309999999814
20
-90.9275169999999946
11
130.9766309999999976
21
-91.3447170000000028
0
ARC
8
BLACK
10
143.8255999999999801
20
-114.3759999999999906
40
0.0998700020026034
50
-270.08604342
51
-179.98852593
0
ARC
8
BLACK
10
143.8255999999999801
20
-114.6759999999999877
40
0.0997515392613066
50
-180.15918167
51
-89.81160141
0
LINE
8
BLACK
6
CONTINUOUS
10
159.9386309999999867
20
-124.1260169999999903
11
160.1156309999999792
21
-124.3690169999999995
0
ARC
8
BLACK
10
161.9995999999999867
20
-130.5490000000000066
40
0.2992831208905707
50
35.90845067
51
90.05149828
0
LINE
8
BLACK
6
CONTINUOUS
10
152.5886309999999924
20
-125.0700169999999929
11
152.5336309999999855
21
-125.2380169999999993
0
ARC
8
BLACK
10
117.519599999999997
20
-81.3533999999999935
40
0.2002866291093841
50
-53.86445836
51
0.14360675
0
ARC
8
BLACK
10
159.132630000000006
20
-97.3630199999999917
40
4.7499671249301292
50
-403.08025997
51
-136.98302269
0
ARC
8
BLACK
10
141.8066000000000031
20
-105.2049999999999983
40
0.1999495631203029
50
-107.99313674
51
-53.98703689
0
LINE
8
BLACK
6
CONTINUOUS
10
161.0896309999999971
20
-130.2500169999999855
11
161.9996309999999937
21
-130.2500169999999855
0
LINE
8
BLACK
6
CONTINUOUS
10
115.9486309999999918
20
-96.6446169999999967
11
116.2486309999999889
21
-97.5634170000000012
0
LINE
8
BLACK
6
CONTINUOUS
10
138.0756309999999871
20
-97.5675169999999952
11
138.0756309999999871
21
-97.5043170000000003
0
LINE
8
BLACK
6
CONTINUOUS
10
159.217630999999983
20
-124.526016999999996
11
159.7996310000000051
21
-124.1040169999999989
0
LINE
8
BLACK
6
CONTINUOUS
10
117.8306309999999968
20
-87.4503169999999983
11
117.9916309999999982
21
-86.954316999999989
0
ARC
8
BLACK
10
137.231599999999986
20
-108.5009999999999906
40
0.1996826033684457
50
-54.10729761
51
18.02917145
0
ARC
8
BLACK
10
167.0005999999999915
20
-130.0240000000000009
40
0.2994234590826176
50
89.86567739
51
162.04424611
0
ARC
8
BLACK
10
114.1765999999999934
20
-90.5970999999999975
40
0.100093569169053
50
-53.97443600
51
35.91264874
0
LINE
8
BLACK
6
CONTINUOUS
10
144.5426310000000001
20
-114.276016999999996
11
144.7996310000000051
21
-114.0900169999999889
0
LINE
8
BLACK
6
CONTINUOUS
10
162.2376309999999933
20
-115.7950170000000014
11
162.2376309999999933
21
-115.5850169999999935
0
LINE
8
BLACK
6
CONTINUOUS
10
164.184630999999996
20
-120.9250169999999969
11
162.6346309999999846
21
-116.1490170000000006
0
LINE
8
BLACK
6
CONTINUOUS
10
127.3716309999999936
20
-81.2692169999999976
11
127.1336309999999941
21
-81.9974169999999987
0
ARC
8
BLACK
10
173.5583000000000027
20
-102.8023999999999916
40
0.2002411944830534
50
-101.46690959
51
-54.05332449
0
LINE
8
BLACK
6
CONTINUOUS
10
138.4686309999999878
20
-96.5469169999999934
11
139.7486309999999889
21
-96.1308169999999933
0
LINE
8
BLACK
6
CONTINUOUS
10
150.8886310000000037
20
-128.9990169999999807
11
152.3776309999999796
21
-129.4820169999999848
0
LINE
8
BLACK
6
CONTINUOUS
10
155.7286310000000071
20
-103.6750169999999969
11
155.6316309999999987
21
-103.6750169999999969
0
LINE
8
BLACK
6
CONTINUOUS
10
162.2376309999999933
20
-115.5850169999999935
11
162.238630999999998
21
-113.658017000000001
0
ARC
8
BLACK
10
157.441599999999994
20
-99.0648999999999944
40
0.20004302808396
50
-179.91920533
51
0.03036023
0
LINE
8
BLACK
6
CONTINUOUS
10
155.745631000000003
20
-135.073016999999993
11
160.0966310000000021
21
-131.915017000000006
0
LINE
8
BLACK
6
CONTINUOUS
10
158.1456309999999803
20
-125.0720169999999882
11
153.198631000000006
21
-125.0700169999999929
0
LINE
8
BLACK
6
CONTINUOUS
10
160.613630999999998
20
-130.4040169999999819
11
161.0896309999999971
21
-130.2500169999999855
0
ARC
8
BLACK
10
135.1195999999999913
20
-87.8425999999999902
40
0.1002506934140607
50
-233.87974813
51
-144.26579693
0
LINE
8
BLACK
6
CONTINUOUS
10
117.1266309999999891
20
-87.961316999999994
11
117.8306309999999968
21
-87.4503169999999983
0
ARC
8
BLACK
10
131.3155999999999892
20
-90.6036000000000001
40
0.0997506852106791
50
35.83367097
51
126.03125854
0
ARC
8
BLACK
10
160.8375999999999806
20
-95.5117999999999938
40
0.1999750416076966
50
-359.92381075
51
-179.96303961
0
ARC
8
BLACK
10
159.8575999999999908
20
-124.1849999999999881
40
0.0995194955423308
50
35.75829568
51
126.15736304
0
LINE
8
BLACK
6
CONTINUOUS
10
162.238630999999998
20
-113.3960170000000005
11
162.238630999999998
21
-113.198016999999993
0
ARC
8
BLACK
10
139.1255999999999915
20
-114.6749999999999972
40
0.1000801139138041
50
-89.96564521
51
-0.08644740
0
LINE
8
BLACK
6
CONTINUOUS
10
159.8586310000000026
20
-126.3810169999999999
11
159.7906309999999905
21
-126.4030169999999913
0
ARC
8
BLACK
10
162.3375999999999806
20
-116.0489999999999924
40
0.1001615111757006
50
-179.92445574
51
-90.18305116
0
ARC
8
BLACK
10
152.1535999999999831
20
-125.1149999999999949
40
0.0999768278002458
50
-198.04605096
51
-108.09732067
0
LINE
8
BLACK
6
CONTINUOUS
10
156.0116309999999942
20
-113.6560169999999914
11
156.0116309999999942
21
-115.5830169999999981
0
LINE
8
BLACK
6
CONTINUOUS
10
140.9796309999999835
20
-103.1470169999999911
11
139.5906310000000019
21
-98.8638169999999974
0
LINE
8
BLACK
6
CONTINUOUS
10
154.9196309999999812
20
-103.5400169999999918
11
155.2596309999999846
21
-103.0900169999999889
0
ARC
8
BLACK
10
114.1345999999999918
20
-91.7124000000000024
40
0.2005467115287608
50
-53.87999801
51
17.88338031
0
LINE
8
BLACK
6
CONTINUOUS
10
165.7466309999999794
20
-122.2510169999999903
11
165.059630999999996
21
-122.7500169999999997
0
ARC
8
BLACK
10
154.927599999999984
20
-101.2860000000000014
40
1.0006114947370932
50
-0.00818813
51
43.00427513
0
LINE
8
BLACK
6
CONTINUOUS
10
114.2346309999999932
20
-90.6781170000000003
11
114.052630999999991
21
-90.8106169999999935
0
LINE
8
BLACK
6
CONTINUOUS
10
132.6646309999999858
20
-97.1830169999999924
11
133.0846310000000017
21
-97.4875169999999969
0
LINE
8
BLACK
6
CONTINUOUS
10
155.2596309999999846
20
-103.0900169999999889
11
149.745631000000003
21
-91.2667169999999999
0
ARC
8
BLACK
10
122.6315999999999917
20
-91.7107999999999919
40
0.2001221614539479
50
-197.98318571
51
-125.98695836
0
LINE
8
BLACK
6
CONTINUOUS
10
142.0716309999999964
20
-124.7730169999999958
11
141.9316309999999817
21
-124.8740169999999949
0
LINE
8
BLACK
6
CONTINUOUS
10
140.0896309999999971
20
-91.6549169999999975
11
140.3886310000000037
21
-90.7362169999999963
0
ARC
8
BLACK
10
137.2225999999999999
20
-120.5409999999999968
40
0.2006241622237959
50
-17.90525847
51
53.82044148
0
LINE
8
BLACK
6
CONTINUOUS
10
117.7946309999999954
20
-86.3480169999999987
11
118.1756309999999957
21
-86.224616999999995
0
LINE
8
BLACK
6
CONTINUOUS
10
140.5416309999999953
20
-104.5250169999999912
11
140.9796309999999835
21
-103.1470169999999911
0
LINE
8
BLACK
6
CONTINUOUS
10
155.2296309999999835
20
-103.8000169999999969
11
154.9196309999999812
21
-103.5400169999999918
0
LINE
8
BLACK
6
CONTINUOUS
10
115.3906309999999991
20
-82.1094169999999934
11
114.664631
21
-81.1102169999999916
0
ARC
8
BLACK
10
163.6636000000000024
20
-121.4269999999999925
40
0.1001964939755878
50
-233.95370463
51
-144.13772611
0
ARC
8
BLACK
10
138.1745999999999981
20
-97.8887
40
0.1000419155404373
50
-179.99140512
51
-89.75487606
0
ARC
8
BLACK
10
133.2975999999999885
20
-97.8874999999999886
40
0.1000990404599365
50
-89.95362984
51
-0.05151519
0
ARC
8
BLACK
10
164.3035999999999888
20
-105.5109999999999957
40
0.2498711086500398
50
-139.59143043
51
-89.53841141
0
LINE
8
BLACK
6
CONTINUOUS
10
114.052630999999991
20
-90.8106169999999935
11
114.3256310000000013
21
-91.6508169999999893
0
ARC
8
BLACK
10
163.3315999999999804
20
-101.289999999999992
40
0.9996830438218905
50
-223.07349939
51
-179.98303507
0
LINE
8
BLACK
6
CONTINUOUS
10
160.2476309999999842
20
-130.6730169999999873
11
160.613630999999998
21
-130.4040169999999819
0
LINE
8
BLACK
6
CONTINUOUS
10
117.552630999999991
20
-88.2699169999999924
11
117.4206310000000002
21
-88.3659169999999961
0
LINE
8
BLACK
6
CONTINUOUS
10
124.7176309999999972
20
-87.1804169999999914
11
124.9836309999999884
21
-86.9867169999999987
0
LINE
8
BLACK
6
CONTINUOUS
10
152.5076310000000035
20
-129.566016999999988
11
153.0716309999999964
21
-130.1860169999999925
0
LINE
8
BLACK
6
CONTINUOUS
10
145.0366309999999999
20
-108.3080169999999924
11
145.3956309999999803
21
-107.205016999999998
0
ARC
8
BLACK
10
117.1865999999999985
20
-88.0424000000000007
40
0.1004381538360796
50
-233.77655966
51
-144.34972023
0
LINE
8
BLACK
6
CONTINUOUS
10
139.7486309999999889
20
-96.1308169999999933
11
140.9466309999999964
21
-92.4493169999999935
0
LINE
8
BLACK
6
CONTINUOUS
10
122.441631000000001
20
-91.6490170000000006
11
122.7406309999999934
21
-90.7292169999999913
0
LINE
8
BLACK
6
CONTINUOUS
10
135.1956309999999917
20
-107.3040170000000018
11
136.6716309999999908
21
-107.3330169999999981
0
LINE
8
BLACK
6
CONTINUOUS
10
168.849630999999988
20
-124.5070169999999905
11
165.7466309999999794
21
-122.2510169999999903
0
LINE
8
BLACK
6
CONTINUOUS
10
130.9766309999999976
20
-91.3447170000000028
11
130.8736309999999889
21
-91.6617169999999959
0
LINE
8
BLACK
6
CONTINUOUS
10
164.7726309999999899
20
-105.7570169999999905
11
164.3056310000000053
21
-105.7610169999999954
0
LINE
8
BLACK
6
CONTINUOUS
10
151.967630999999983
20
-124.776016999999996
11
147.3266309999999919
21
-121.401016999999996
0
LINE
8
BLACK
6
CONTINUOUS
10
152.0586309999999912
20
-125.0840169999999887
11
152.0626309999999819
21
-125.0690169999999881
0
LINE
8
BLACK
6
CONTINUOUS
10
161.0416349999999852
20
-99.0615249999999889
11
161.0376310000000046
21
-95.5115169999999978
0
LINE
8
BLACK
6
CONTINUOUS
10
133.0846310000000017
20
-97.4875169999999969
11
133.2976309999999955
21
-97.4876170000000002
0
ARC
8
BLACK
10
133.2975999999999885
20
-97.5876999999999981
40
0.1001301879355072
50
0.06062559
51
89.88899064
0
ARC
8
BLACK
10
116.6975999999999942
20
-82.6432999999999964
40
0.1004713773021949
50
-161.74240900
51
-71.89885334
0
ARC
8
BLACK
10
160.4225999999999885
20
-130.9159999999999968
40
0.2994841060223397
50
-234.07983619
51
-179.95178863
0
ARC
8
BLACK
10
169.6551999999999794
20
-102.9450999999999965
40
0.2500395359558164
50
-62.30669889
51
37.16586507
0
LINE
8
BLACK
6
CONTINUOUS
10
126.8796309999999892
20
-81.1630169999999964
11
126.7736309999999946
21
-80.8361170000000016
0
LINE
8
BLACK
6
CONTINUOUS
10
160.6166309999999839
20
-125.8340169999999887
11
159.8586310000000026
21
-126.3810169999999999
0
LINE
8
BLACK
6
CONTINUOUS
10
146.2266309999999976
20
-121.6320169999999905
11
146.0506309999999814
21
-121.3890169999999955
0
LINE
8
BLACK
6
CONTINUOUS
10
144.7996310000000051
20
-114.0900169999999889
11
145.1926310000000058
21
-112.8820169999999905
0
LINE
8
BLACK
6
CONTINUOUS
10
155.927630999999991
20
-101.2860170000000011
11
155.927630999999991
21
-103.475016999999994
0
LINE
8
BLACK
6
CONTINUOUS
10
145.1926310000000058
20
-112.8820169999999905
11
146.4616309999999828
21
-108.9810169999999943
0
ARC
8
BLACK
10
164.8035999999999888
20
-109.4429999999999978
40
0.249921001800569
50
-242.31355352
51
-179.99312233
0
ARC
8
BLACK
10
164.8836000000000013
20
-122.5069999999999908
40
0.3001169086556104
50
-143.97798924
51
-53.99393341
0
ARC
8
BLACK
10
136.974599999999981
20
-107.2369999999999948
40
0.1000325723002263
50
35.98191509
51
125.90541990
0
LINE
8
BLACK
6
CONTINUOUS
10
138.0746309999999824
20
-97.8887169999999998
11
138.0756309999999871
21
-97.5675169999999952
0
LINE
8
BLACK
6
CONTINUOUS
10
162.3316309999999874
20
-103.5070169999999905
11
162.3316309999999874
21
-101.2900169999999918
0
ARC
8
BLACK
10
140.5086000000000013
20
-105.0420000000000016
40
0.1000760403543226
50
-143.97843814
51
-54.11683631
0
LINE
8
BLACK
6
CONTINUOUS
10
139.059630999999996
20
-114.2750169999999912
11
139.1256309999999985
21
-114.2750169999999912
0
LINE
8
BLACK
6
CONTINUOUS
10
108.7486309999999889
20
-87.4551170000000013
11
108.5606310000000008
21
-87.9357169999999968
0
LINE
8
BLACK
6
CONTINUOUS
10
171.0789340000000038
20
-105.8689449999999965
11
172.8621909999999957
21
-104.9190969999999936
0
LINE
8
BLACK
6
CONTINUOUS
10
155.4126310000000046
20
-113.0770169999999979
11
155.9126310000000046
21
-113.0790169999999932
0
LINE
8
BLACK
6
CONTINUOUS
10
114.2526309999999938
20
-91.874416999999994
11
113.4696309999999926
21
-92.4438169999999957
0
LINE
8
BLACK
6
CONTINUOUS
10
143.6726309999999955
20
-131.1450169999999957
11
148.4506309999999871
21
-131.1470170000000053
0
ARC
8
BLACK
10
162.3385999999999854
20
-113.1979999999999933
40
0.100245093615598
50
89.97085464
51
179.92169667
0
LINE
8
BLACK
6
CONTINUOUS
10
135.2146309999999971
20
-88.1439170000000018
11
135.038630999999981
21
-87.9011169999999993
0
LINE
8
BLACK
6
CONTINUOUS
10
169.7714239999999961
20
-103.1665369999999911
11
164.8866309999999942
21
-105.7290169999999989
0
ARC
8
BLACK
10
141.8366000000000042
20
-124.4499999999999886
40
0.1000916144589546
50
36.03725893
51
125.90427134
0
ARC
8
BLACK
10
170.8571000000000026
20
-99.0780999999999921
40
0.1997937940677838
50
125.97520251
51
173.42070696
0
LINE
8
BLACK
6
CONTINUOUS
10
139.0606310000000008
20
-112.7370169999999945
11
139.059630999999996
21
-114.2750169999999912
0
LINE
8
BLACK
6
CONTINUOUS
10
133.3976309999999899
20
-97.5876169999999945
11
133.3976309999999899
21
-97.8876169999999917
0
LINE
8
BLACK
6
CONTINUOUS
10
124.9836309999999884
20
-86.9867169999999987
11
125.2036309999999872
21
-86.3118169999999907
0
LINE
8
BLACK
6
CONTINUOUS
10
130.8736309999999889
20
-91.6617169999999959
11
132.6646309999999858
21
-97.1830169999999924
0
LINE
8
BLACK
6
CONTINUOUS
10
168.6286309999999844
20
-125.1880169999999879
11
168.849630999999988
21
-124.5070169999999905
0
LINE
8
BLACK
6
CONTINUOUS
10
117.0146309999999943
20
-82.6462169999999929
11
116.7296309999999977
21
-82.7388169999999974
0
LINE
8
BLACK
6
CONTINUOUS
10
125.5606310000000008
20
-87.4403169999999932
11
130.3726309999999842
21
-90.9387169999999969
0
LINE
8
BLACK
6
CONTINUOUS
10
162.2376309999999933
20
-116.0490169999999921
11
162.2376309999999933
21
-115.7950170000000014
0
LINE
8
BLACK
6
CONTINUOUS
10
138.0806309999999826
20
-97.4733169999999944
11
138.3396309999999971
21
-96.6752169999999893
0
LINE
8
BLACK
6
CONTINUOUS
10
135.6406309999999849
20
-87.3406169999999946
11
135.745631000000003
21
-87.0159170000000017
0
LINE
8
BLACK
6
CONTINUOUS
10
146.7156310000000019
20
-121.401016999999996
11
146.3666309999999839
21
-121.6540169999999961
0
LINE
8
BLACK
6
CONTINUOUS
10
118.4936309999999935
20
-86.8805169999999976
11
118.9026309999999995
21
-87.178016999999997
0
LINE
8
BLACK
6
CONTINUOUS
10
155.9106309999999951
20
-116.1430170000000004
11
155.3876309999999989
21
-116.1420169999999956
0
ARC
8
BLACK
10
155.9105999999999881
20
-116.0429999999999922
40
0.1005574778373046
50
-89.72076913
51
0.17663251
0
LINE
8
BLACK
6
CONTINUOUS
10
156.0126309999999989
20
-113.1790170000000018
11
156.0116309999999942
21
-113.6560169999999914
0
LINE
8
BLACK
6
CONTINUOUS
10
166.3176310000000058
20
-131.1550169999999866
11
166.7156310000000019
21
-129.9320170000000019
0
LINE
8
BLACK
6
CONTINUOUS
10
108.5606310000000008
20
-87.9357169999999968
11
112.7276309999999881
21
-90.9650169999999889
0
LINE
8
BLACK
6
CONTINUOUS
10
121.9766309999999976
20
-96.5045169999999928
11
123.2986310000000003
21
-92.4420169999999928
0
ARC
8
BLACK
10
140.3325999999999851
20
-104.7999999999999972
40
0.1003978838472206
50
-233.80535460
51
-144.08981470
0
LINE
8
BLACK
6
CONTINUOUS
10
160.0966310000000021
20
-131.915017000000006
11
160.1236309999999889
21
-130.9160169999999823
0
LINE
8
BLACK
6
CONTINUOUS
10
163.7556309999999939
20
-121.7240169999999893
11
163.5826309999999921
21
-121.4860169999999897
0
LINE
8
BLACK
6
CONTINUOUS
10
157.2376309999999933
20
-95.5152169999999927
11
157.2416309999999839
21
-99.0652169999999899
0
LINE
8
BLACK
6
CONTINUOUS
10
141.9176310000000001
20
-124.3910169999999908
11
142.0936309999999878
21
-124.6330169999999953
0
LINE
8
BLACK
6
CONTINUOUS
10
125.329630999999992
20
-86.2476169999999911
11
125.6146309999999886
21
-86.3405169999999913
0
LINE
8
BLACK
6
CONTINUOUS
10
140.427630999999991
20
-105.1010169999999988
11
140.2516310000000033
21
-104.8590169999999944
0
LINE
8
BLACK
6
CONTINUOUS
10
135.745631000000003
20
-87.0159170000000017
11
134.6626310000000046
21
-83.6762169999999941
0
LINE
8
BLACK
6
CONTINUOUS
10
164.842630999999983
20
-109.1400170000000003
11
164.6876309999999819
21
-109.2210169999999891
0
LINE
8
BLACK
6
CONTINUOUS
10
138.3616309999999885
20
-114.7750169999999912
11
138.1466309999999851
21
-114.9310169999999971
0
LINE
8
BLACK
6
CONTINUOUS
10
152.9986309999999889
20
-133.0760170000000073
11
155.745631000000003
21
-135.073016999999993
0
LINE
8
BLACK
6
CONTINUOUS
10
116.9216309999999908
20
-82.0344169999999906
11
117.0786310000000014
21
-82.5202170000000024
0
LINE
8
BLACK
6
CONTINUOUS
10
112.988630999999998
20
-90.9650169999999889
11
113.941631000000001
21
-90.2734169999999949
0
LINE
8
BLACK
6
CONTINUOUS
10
162.8346310000000017
20
-131.1530170000000055
11
166.3176310000000058
21
-131.1550169999999866
0
LINE
8
BLACK
6
CONTINUOUS
10
160.0506309999999814
20
-124.5400169999999918
11
160.6826309999999864
21
-125.4150169999999918
0
LINE
8
BLACK
6
CONTINUOUS
10
136.9156309999999905
20
-108.9770169999999894
11
139.0606310000000008
21
-112.7370169999999945
0
LINE
8
BLACK
6
CONTINUOUS
10
153.1486309999999946
20
-130.4050169999999866
11
152.9986309999999889
21
-133.0760170000000073
0
ARC
8
BLACK
10
174.2352999999999952
20
-99.4703999999999979
40
3.5999663657446854
50
-186.62252923
51
-101.48506033
0
ARC
8
BLACK
10
155.7265999999999906
20
-103.4749999999999943
40
0.2005330046102137
50
-89.54824500
51
-0.01228585
0
ARC
8
BLACK
10
137.1505999999999972
20
-107.4789999999999992
40
0.1000486430992445
50
-54.00057920
51
35.93764927
0
LINE
8
BLACK
6
CONTINUOUS
10
127.0076309999999893
20
-82.0616169999999983
11
126.7226309999999927
21
-81.9687169999999981
0
ARC
8
BLACK
10
164.7706000000000017
20
-105.5069999999999908
40
0.2498801414838722
50
-89.56408893
51
-62.29295471
0
ARC
8
BLACK
10
162.5326000000000022
20
-103.5060000000000002
40
0.2012587147951611
50
-179.87301791
51
-139.71160039
0
LINE
8
BLACK
6
CONTINUOUS
10
139.2256309999999928
20
-114.3750169999999997
11
139.2256309999999928
21
-114.6750169999999969
0
ARC
8
BLACK
10
111.1306000000000012
20
-81.6088000000000022
40
0.5000381341947832
50
-270.01649990
51
-148.11448333
0
LINE
8
BLACK
6
CONTINUOUS
10
114.0806309999999968
20
-90.2958169999999996
11
114.2576309999999893
21
-90.5384169999999955
0
LINE
8
BLACK
6
CONTINUOUS
10
125.6796310000000005
20
-86.4665169999999961
11
125.461630999999997
21
-87.1346169999999915
0
LINE
8
BLACK
6
CONTINUOUS
10
157.6416309999999896
20
-99.0648169999999908
11
157.6376309999999989
21
-95.5148169999999936
0
LINE
8
BLACK
6
CONTINUOUS
10
152.0626309999999819
20
-125.0690169999999881
11
151.967630999999983
21
-124.776016999999996
0
LINE
8
BLACK
6
CONTINUOUS
10
152.441631000000001
20
-107.4440169999999881
11
152.8396309999999971
21
-106.9670169999999985
0
LINE
8
BLACK
6
CONTINUOUS
10
164.842630999999983
20
-109.1400170000000003
11
171.0789340000000038
21
-105.8689449999999965
0
LINE
8
BLACK
6
CONTINUOUS
10
117.7196309999999926
20
-80.1231169999999935
11
117.7196309999999926
21
-81.3529169999999908
0
ARC
8
BLACK
10
158.4455999999999847
20
-126.2329999999999899
40
0.2998980000816944
50
-180.04184684
51
-89.99866264
0
LINE
8
BLACK
6
CONTINUOUS
10
164.6406309999999849
20
-122.6830169999999924
11
163.9376309999999819
21
-121.7160169999999937
0
LINE
8
BLACK
6
CONTINUOUS
10
158.1456309999999803
20
-126.2330169999999896
11
158.1456309999999803
21
-125.0720169999999882
0
LINE
8
BLACK
6
CONTINUOUS
10
136.2356309999999837
20
-87.7167170000000027
11
135.9736309999999833
21
-87.7166169999999994
0
ARC
8
BLACK
10
150.8575999999999908
20
-129.0939999999999941
40
0.0997194124982693
50
71.84442184
51
161.74002371
0
ARC
8
BLACK
10
174.9062999999999874
20
-96.1372999999999962
40
0.1999297952032162
50
78.60109420
51
126.00468127
0
LINE
8
BLACK
6
CONTINUOUS
10
162.238630999999998
20
-113.658017000000001
11
162.238630999999998
21
-113.3960170000000005
0
ARC
8
BLACK
10
115.5515999999999934
20
-81.9921999999999969
40
0.1996061785742115
50
-144.03573743
51
-89.92335920
0
ARC
8
BLACK
10
113.9996000000000009
20
-90.3541999999999916
40
0.0997530362044183
50
35.82772409
51
125.92948655
0
ARC
8
BLACK
10
115.7586000000000013
20
-96.7061999999999955
40
0.1997840469732256
50
17.95764767
51
89.96070996
0
LINE
8
BLACK
6
CONTINUOUS
10
135.0606310000000008
20
-87.7615169999999978
11
135.6406309999999849
21
-87.3406169999999946
0
LINE
8
BLACK
6
CONTINUOUS
10
132.0286309999999901
20
-81.1175169999999923
11
127.5826309999999921
21
-81.1157169999999894
0
LINE
8
BLACK
6
CONTINUOUS
10
153.8486309999999833
20
-120.8680169999999947
11
158.8796309999999892
21
-124.526016999999996
0
LINE
8
BLACK
6
CONTINUOUS
10
142.3976309999999899
20
-105.0240170000000006
11
145.3956309999999803
21
-107.205016999999998
0
ARC
8
BLACK
10
121.0095999999999918
20
-96.7053999999999974
40
0.2001336077374312
50
90.08645129
51
162.02097566
0
LINE
8
BLACK
6
CONTINUOUS
10
160.6376309999999989
20
-95.5119169999999968
11
160.6416269999999997
21
-99.0619119999999924
0
ARC
8
BLACK
10
131.4916000000000054
20
-90.8464999999999918
40
0.100371542386276
50
-53.81329736
51
35.74504837
0
LINE
8
BLACK
6
CONTINUOUS
10
152.8396309999999971
20
-106.9670169999999985
11
152.2296309999999835
21
-106.3900170000000003
0
LINE
8
BLACK
6
CONTINUOUS
10
140.2736309999999946
20
-104.7190169999999938
11
140.5416309999999953
21
-104.5250169999999912
0
LINE
8
BLACK
6
CONTINUOUS
10
112.7276309999999881
20
-90.9650169999999889
11
112.988630999999998
21
-90.9650169999999889
0
LINE
8
BLACK
6
CONTINUOUS
10
137.0556310000000053
20
-107.178016999999997
11
137.231630999999993
21
-107.421016999999992
0
ARC
8
BLACK
10
146.3075999999999794
20
-121.5729999999999933
40
0.0999494989732315
50
-144.03882743
51
-53.94459954
0
LINE
8
BLACK
6
CONTINUOUS
10
118.9026309999999995
20
-87.178016999999997
11
124.7176309999999972
21
-87.1804169999999914
0
LINE
8
BLACK
6
CONTINUOUS
10
138.1466309999999851
20
-114.9310169999999971
11
136.559630999999996
21
-119.8110169999999925
0
LINE
8
BLACK
6
CONTINUOUS
10
148.4506309999999871
20
-131.1470170000000053
11
150.5896309999999971
21
-129.594017000000008
0
LINE
8
BLACK
6
CONTINUOUS
10
162.6346309999999846
20
-116.1490170000000006
11
162.3376309999999876
21
-116.1490170000000006
0
LINE
8
BLACK
6
CONTINUOUS
10
125.461630999999997
20
-87.1346169999999915
11
125.5606310000000008
21
-87.4403169999999932
0
LINE
8
BLACK
6
CONTINUOUS
10
152.4076309999999808
20
-125.3020169999999922
11
152.1226309999999842
21
-125.2100169999999935
0
LINE
8
BLACK
6
CONTINUOUS
10
113.4696309999999926
20
-92.4438169999999957
11
114.7876309999999904
21
-96.506416999999999
0
LINE
8
BLACK
6
CONTINUOUS
10
155.4596310000000017
20
-103.5200169999999957
11
155.2296309999999835
21
-103.8000169999999969
0
LINE
8
BLACK
6
CONTINUOUS
10
116.4466309999999964
20
-82.1918170000000003
11
115.552630999999991
21
-82.1918170000000003
0
LINE
8
BLACK
6
CONTINUOUS
10
168.2876310000000046
20
-129.7250170000000082
11
169.3646310000000028
21
-126.4130169999999964
0
LINE
8
BLACK
6
CONTINUOUS
10
141.1746310000000051
20
-124.4740169999999893
11
141.6316309999999987
21
-124.4740169999999893
0
LINE
8
BLACK
6
CONTINUOUS
10
152.441631000000001
20
-107.4440169999999881
11
155.4126310000000046
21
-113.0770169999999979
0
LINE
8
BLACK
6
CONTINUOUS
10
163.6046309999999835
20
-121.3460169999999891
11
164.184630999999996
21
-120.9250169999999969
0
LINE
8
BLACK
6
CONTINUOUS
10
132.6856310000000008
20
-98.1909169999999989
11
130.7686309999999992
21
-104.0840169999999887
0
LINE
8
BLACK
6
CONTINUOUS
10
142.9216309999999908
20
-94.4490169999999978
11
148.6436309999999992
21
-106.7200169999999986
0
ARC
8
BLACK
10
177.6124999999999829
20
-99.8572999999999951
40
0.1998143894342947
50
-54.03085828
51
-6.50241529
0
ARC
8
BLACK
10
173.09729999999999
20
-105.3605000000000018
40
0.5001128375576855
50
79.07209155
51
118.04156093
0
LINE
8
BLACK
6
CONTINUOUS
10
142.3976309999999899
20
-105.0240170000000006
11
141.9246310000000051
21
-105.3670169999999899
0
LINE
8
BLACK
6
CONTINUOUS
10
169.3646310000000028
20
-126.4130169999999964
11
168.670630999999986
21
-125.4570169999999933
0
ARC
8
BLACK
10
116.9835999999999956
20
-82.5512999999999977
40
0.0998742293336975
50
-72.09314220
51
18.11112431
0
LINE
8
BLACK
6
CONTINUOUS
10
143.8256309999999871
20
-114.276016999999996
11
144.5426310000000001
21
-114.276016999999996
0
LINE
8
BLACK
6
CONTINUOUS
10
163.9376309999999819
20
-121.7160169999999937
11
163.894631000000004
21
-121.7470169999999996
0
ARC
8
BLACK
10
155.9125999999999976
20
-113.1779999999999973
40
0.0995171318567813
50
-0.30499454
51
90.09326957
0
ARC
8
BLACK
10
146.1315999999999917
20
-121.3309999999999889
40
0.1002120290434237
50
-233.89467934
51
-144.14203020
0
LINE
8
BLACK
6
CONTINUOUS
10
116.2486309999999889
20
-97.5634170000000012
11
120.5206309999999945
21
-97.5655169999999998
0
ARC
8
BLACK
10
145.2275999999999954
20
-108.3689999999999998
40
0.2005176561926655
50
-197.88508414
51
-108.15619111
0
ARC
8
BLACK
10
152.2855999999999881
20
-129.7680000000000007
40
0.3002381275737643
50
42.30117115
51
71.99973589
0
LINE
8
BLACK
6
CONTINUOUS
10
117.6376309999999989
20
-81.5152169999999927
11
116.9216309999999908
21
-82.0344169999999906
0
LINE
8
BLACK
6
CONTINUOUS
10
127.5826309999999921
20
-81.1157169999999894
11
127.3716309999999936
21
-81.2692169999999976
0
LINE
8
BLACK
6
CONTINUOUS
10
160.0936309999999878
20
-124.5090170000000001
11
160.0506309999999814
21
-124.5400169999999918
0
LINE
8
BLACK
6
CONTINUOUS
10
164.113630999999998
20
-105.6730170000000015
11
162.3796309999999892
21
-103.6360169999999954
0
LINE
8
BLACK
6
CONTINUOUS
10
135.9736309999999833
20
-87.7166169999999994
11
135.3546309999999835
21
-88.1661169999999998
0
LINE
8
BLACK
6
CONTINUOUS
10
138.4256309999999814
20
-97.9888169999999974
11
138.1756309999999814
21
-97.9887169999999941
0
ARC
8
BLACK
10
118.3825999999999965
20
-88.6259000000000015
40
0.199552101492317
50
-126.08594235
51
-53.92287123
0
LINE
8
BLACK
6
CONTINUOUS
10
159.474630999999988
20
-126.5050169999999952
11
159.3826310000000035
21
-126.5350169999999963
0
ARC
8
BLACK
10
117.3615999999999957
20
-88.2849999999999966
40
0.1000134669182106
50
-144.01358530
51
-54.00526886
0
LINE
8
BLACK
6
CONTINUOUS
10
141.6316309999999987
20
-124.4740169999999893
11
141.7776309999999853
21
-124.3690169999999995
0
ARC
8
BLACK
10
139.1255999999999915
20
-114.375
40
0.1005686956512811
50
0.30978085
51
89.66728291
0
LINE
8
BLACK
6
CONTINUOUS
10
121.0096309999999988
20
-96.5054169999999942
11
121.9766309999999976
21
-96.5045169999999928
0
LINE
8
BLACK
6
CONTINUOUS
10
162.8386309999999924
20
-113.0990169999999893
11
164.5246309999999994
21
-109.8890169999999955
0
LINE
8
BLACK
6
CONTINUOUS
10
114.664631
20
-81.1102169999999916
11
111.1306309999999939
21
-81.1088170000000019
0
LINE
8
BLACK
6
CONTINUOUS
10
137.2096310000000017
20
-107.560017000000002
11
137.1506310000000042
21
-107.6030169999999941
0
ARC
8
BLACK
10
142.0115999999999872
20
-124.6919999999999931
40
0.1004534162286181
50
-53.75707660
51
35.73181732
0
LINE
8
BLACK
6
CONTINUOUS
10
130.7686309999999992
20
-104.0840169999999887
11
135.1956309999999917
21
-107.3040170000000018
0
LINE
8
BLACK
6
CONTINUOUS
10
150.5896309999999971
20
-129.594017000000008
11
150.7626309999999989
21
-129.0630170000000021
0
LINE
8
BLACK
6
CONTINUOUS
10
164.5536309999999958
20
-109.7720169999999911
11
164.5536309999999958
21
-109.4430169999999976
0
LINE
8
BLACK
6
CONTINUOUS
10
116.6026309999999881
20
-82.6747170000000011
11
116.4466309999999964
21
-82.1918170000000003
0
LINE
8
BLACK
6
CONTINUOUS
10
140.9466309999999964
20
-92.4493169999999935
11
140.1616309999999999
21
-91.8785170000000022
0
ARC
8
BLACK
10
125.2985999999999933
20
-86.3423999999999978
40
0.0997210728833179
50
71.80445276
51
162.11867517
0
ARC
8
BLACK
10
163.8366000000000042
20
-121.6659999999999968
40
0.0997874461843773
50
-144.18358789
51
-53.96705431
0
LINE
8
BLACK
6
CONTINUOUS
10
149.745631000000003
20
-91.2667169999999999
11
142.9216309999999908
21
-94.4490169999999978
0
LINE
8
BLACK
6
CONTINUOUS
10
159.3826310000000035
20
-126.5350169999999963
11
158.4456309999999917
21
-126.533017000000001
0
ARC
8
BLACK
10
125.5835999999999899
20
-86.4356999999999971
40
0.1001701605968564
50
-17.93737550
51
71.84794455
0
LINE
8
BLACK
6
CONTINUOUS
10
134.6626310000000046
20
-83.6762169999999941
11
132.7396310000000028
21
-83.0500169999999969
0
LINE
8
BLACK
6
CONTINUOUS
10
117.9916309999999982
20
-86.954316999999989
11
117.7946309999999954
21
-86.3480169999999987
0
LINE
8
BLACK
6
CONTINUOUS
10
130.684630999999996
20
-90.9388170000000002
11
131.2576310000000035
21
-90.5229169999999925
0
ARC
8
BLACK
10
111.323599999999999
20
-83.8125
40
0.5001662413448152
50
-41.67726978
51
31.87679250
0
LINE
8
BLACK
6
CONTINUOUS
10
114.7876309999999904
20
-96.506416999999999
11
115.7586309999999941
21
-96.506416999999999
0
LINE
8
BLACK
6
CONTINUOUS
10
147.3266309999999919
20
-121.401016999999996
11
146.7156310000000019
21
-121.401016999999996
0
LINE
8
BLACK
6
CONTINUOUS
10
130.3726309999999842
20
-90.9387169999999969
11
130.684630999999996
21
-90.9388170000000002
0
LINE
8
BLACK
6
CONTINUOUS
10
140.3886310000000037
20
-90.7362169999999963
11
136.2356309999999837
21
-87.7167170000000027
0
ARC
8
BLACK
10
118.2065999999999946
20
-86.3199999999999932
40
0.1002305204665725
50
18.09725659
51
107.82882089
0
LINE
8
BLACK
6
CONTINUOUS
10
158.8796309999999892
20
-124.526016999999996
11
159.217630999999983
21
-124.526016999999996
0
LINE
8
BLACK
6
CONTINUOUS
10
156.0116309999999942
20
-115.5830169999999981
11
156.0116309999999942
21
-115.7920170000000013
0
LINE
8
BLACK
6
CONTINUOUS
10
137.3486309999999833
20
-108.6630169999999964
11
136.9156309999999905
21
-108.9770169999999894
0
LINE
8
BLACK
6
CONTINUOUS
10
146.0726310000000012
20
-121.2500169999999997
11
146.4436309999999821
21
-120.9800169999999895
0
LINE
8
BLACK
6
CONTINUOUS
10
123.2986310000000003
20
-92.4420169999999928
11
122.5136309999999895
21
-91.8727169999999944
0
LINE
8
BLACK
6
CONTINUOUS
10
144.842630999999983
20
-115.0030169999999998
11
144.5306309999999996
21
-114.776016999999996
0
ARC
8
BLACK
10
160.4395999999999844
20
-125.590999999999994
40
0.30024668931064
50
-53.95179322
51
35.95246704
0
LINE
8
BLACK
6
CONTINUOUS
10
156.0116309999999942
20
-115.7920170000000013
11
156.0106309999999894
21
-116.0430169999999919
0
LINE
8
BLACK
6
CONTINUOUS
10
144.5306309999999996
20
-114.776016999999996
11
143.8256309999999871
21
-114.776016999999996
0
LINE
8
BLACK
6
CONTINUOUS
10
137.413630999999981
20
-120.6030169999999941
11
137.113630999999998
21
-121.5250169999999912
0
LINE
8
BLACK
6
CONTINUOUS
10
139.5906310000000019
20
-98.8638169999999974
11
138.4256309999999814
21
-97.9888169999999974
0
ARC
8
BLACK
10
157.4376000000000033
20
-95.5150000000000006
40
0.1999750883710268
50
-359.94185556
51
-179.94613525
0
LINE
8
BLACK
6
CONTINUOUS
10
155.3876309999999989
20
-116.1420169999999956
11
153.8486309999999833
21
-120.8680169999999947
0
LINE
8
BLACK
6
CONTINUOUS
10
111.6976310000000012
20
-84.1451169999999991
11
108.7486309999999889
21
-87.4551170000000013
0
LINE
8
BLACK
6
CONTINUOUS
10
133.2976309999999955
20
-97.9876170000000002
11
132.9656310000000019
21
-97.9875169999999969
0
LINE
8
BLACK
6
CONTINUOUS
10
117.2806309999999996
20
-88.3437169999999981
11
117.1046309999999977
21
-88.1009169999999955
0
ARC
8
BLACK
10
127.0385999999999882
20
-81.966399999999993
40
0.1000627685505453
50
-107.98703043
51
-18.07461415
  0
ENDSEC
  0
EOF
