  0
SECTION
  2
HEADER
  9
$ANGBASE
  50
0.0
  9
$ANGDIR
  70
1
  9
$MEASUREMENT
  70
1
  0
ENDSEC
  0
SECTION
  2
TABLES
  0
TABLE
  2
LTYPE
  70
4
  0
LTYPE
  5
40F
  2
CONTINUOUS
  70
0
  3
Solid line
  72
65
  73
0
  40
0.0
  0
LTYPE
  5
410
  2
DASHDOT
 70
0
  3
Dash Dot ____ _ ____ _
 72
65
 73
4
 40
2.0
 49
1.25
 49
-0.25
 49
0.25
 49
-0.25
  0
LTYPE
  5
411
  2
DASHED
 70
0
  3
Dashed __ __ __ __ __
 72
65
 73
2
 40
0.75
 49
0.5
 49
-0.25
  0
LTYPE
  5
43B
  2
DOTTED
 70
0
  3
Dotted .  .  .  .
 72
65
 73
2
 40
0.2
 49
0.0
 49
-0.2
  0
ENDTAB
  0
TABLE
  2
STYLE
  70
4
  0
STYLE
  2
KICAD
  70
0
  40
0
  41
1
  42
1
  50
0
  71
0
  3
isocp.shx
  0
STYLE
  2
KICADB
  70
0
  40
0
  41
1
  42
1
  50
0
  71
0
  3
isocp.shx
  0
STYLE
  2
KICADI
  70
0
  40
0
  41
1
  42
1
  50
15
  71
0
  3
isocp.shx
  0
STYLE
  2
KICADBI
  70
0
  40
0
  41
1
  42
1
  50
15
  71
0
  3
isocp.shx
  0
ENDTAB
  0
TABLE
  2
LAYER
  70
1
  0
LAYER
  2
BLACK
  70
0
  62
7
  6
CONTINUOUS
  0
ENDTAB
  0
ENDSEC
  0
SECTION
  2
ENTITIES
0
LINE
8
BLACK
6
CONTINUOUS
10
138.4665929999999889
20
-98.020001999999991
11
138.474141000000003
21
-98.0252519999999947
0
LINE
8
BLACK
6
CONTINUOUS
10
138.474141000000003
20
-98.0252519999999947
11
139.5587449999999876
21
-98.8398689999999931
0
LINE
8
BLACK
6
CONTINUOUS
10
139.5587449999999876
20
-98.8398689999999931
11
139.6012010000000032
21
-98.8967719999999986
0
LINE
8
BLACK
6
CONTINUOUS
10
139.6012010000000032
20
-98.8967719999999986
11
139.6029309999999839
21
-98.9017489999999952
0
LINE
8
BLACK
6
CONTINUOUS
10
139.6029309999999839
20
-98.9017489999999952
11
140.9671510000000012
21
-103.1085339999999917
0
LINE
8
BLACK
6
CONTINUOUS
10
140.9671510000000012
20
-103.1085339999999917
11
140.9691379999999867
21
-103.1795029999999969
0
LINE
8
BLACK
6
CONTINUOUS
10
140.9691379999999867
20
-103.1795029999999969
11
140.9673760000000016
21
-103.1855699999999985
0
LINE
8
BLACK
6
CONTINUOUS
10
140.9673760000000016
20
-103.1855699999999985
11
140.5542039999999986
21
-104.4854589999999916
0
LINE
8
BLACK
6
CONTINUOUS
10
140.5542039999999986
20
-104.4854589999999916
11
140.5145069999999805
21
-104.544319999999999
0
LINE
8
BLACK
6
CONTINUOUS
10
140.5145069999999805
20
-104.544319999999999
11
140.5080069999999921
21
-104.5493559999999889
0
LINE
8
BLACK
6
CONTINUOUS
10
140.5080069999999921
20
-104.5493559999999889
11
140.2736349999999845
21
-104.7190119999999922
0
LINE
8
BLACK
6
CONTINUOUS
10
140.2736349999999845
20
-104.7190119999999922
11
140.2423629999999832
21
-104.7447879999999998
0
LINE
8
BLACK
6
CONTINUOUS
10
140.2423629999999832
20
-104.7447879999999998
11
140.2407589999999971
21
-104.7475919999999974
0
LINE
8
BLACK
6
CONTINUOUS
10
140.2407589999999971
20
-104.7475919999999974
11
140.205520000000007
21
-104.7868929999999921
0
LINE
8
BLACK
6
CONTINUOUS
10
140.205520000000007
20
-104.7868929999999921
11
137.0077519999999822
21
-107.1125429999999881
0
LINE
8
BLACK
6
CONTINUOUS
10
137.0077519999999822
20
-107.1125429999999881
11
136.9571300000000065
21
-107.1344330000000014
0
LINE
8
BLACK
6
CONTINUOUS
10
136.9571300000000065
20
-107.1344330000000014
11
136.9504169999999874
21
-107.135705999999999
0
LINE
8
BLACK
6
CONTINUOUS
10
136.9504169999999874
20
-107.135705999999999
11
136.9159429999999986
21
-107.1559699999999964
0
LINE
8
BLACK
6
CONTINUOUS
10
136.9159429999999986
20
-107.1559699999999964
11
136.9159129999999891
21
-107.1559899999999885
0
LINE
8
BLACK
6
CONTINUOUS
10
136.9159129999999891
20
-107.1559899999999885
11
136.7355479999999943
21
-107.2866949999999946
0
LINE
8
BLACK
6
CONTINUOUS
10
136.7355479999999943
20
-107.2866949999999946
11
136.6782660000000078
21
-107.3095629999999971
0
LINE
8
BLACK
6
CONTINUOUS
10
136.6782660000000078
20
-107.3095629999999971
11
136.533631999999983
21
-107.3288479999999936
0
LINE
8
BLACK
6
CONTINUOUS
10
136.533631999999983
20
-107.3288479999999936
11
136.5145039999999881
21
-107.3299289999999928
0
LINE
8
BLACK
6
CONTINUOUS
10
136.5145039999999881
20
-107.3299289999999928
11
135.2352349999999888
21
-107.3047949999999986
0
LINE
8
BLACK
6
CONTINUOUS
10
135.2352349999999888
20
-107.3047949999999986
11
135.1675199999999961
21
-107.283457999999996
0
LINE
8
BLACK
6
CONTINUOUS
10
135.1675199999999961
20
-107.283457999999996
11
135.1635949999999866
21
-107.2807159999999982
0
LINE
8
BLACK
6
CONTINUOUS
10
135.1635949999999866
20
-107.2807159999999982
11
132.9704499999999996
21
-105.6855199999999968
0
LINE
8
BLACK
6
CONTINUOUS
10
132.9704499999999996
20
-105.6855199999999968
11
132.927125999999987
21
-105.6292739999999952
0
LINE
8
BLACK
6
CONTINUOUS
10
132.927125999999987
20
-105.6292739999999952
11
132.9210879999999975
21
-105.558534999999992
0
LINE
8
BLACK
6
CONTINUOUS
10
132.9210879999999975
20
-105.558534999999992
11
132.9542529999999942
21
-105.4957610000000017
0
LINE
8
BLACK
6
CONTINUOUS
10
132.9542529999999942
20
-105.4957610000000017
11
132.9554699999999912
21
-105.4945269999999908
0
LINE
8
BLACK
6
CONTINUOUS
10
132.9554699999999912
20
-105.4945269999999908
11
133.9630949999999814
21
-104.4869039999999956
0
LINE
8
BLACK
6
CONTINUOUS
10
133.9630949999999814
20
-104.4869039999999956
11
134.0254070000000013
21
-104.4528789999999958
0
LINE
8
BLACK
6
CONTINUOUS
10
134.0254070000000013
20
-104.4528789999999958
11
134.052189999999996
21
-104.4499999999999886
0
LINE
8
BLACK
6
CONTINUOUS
10
134.052189999999996
20
-104.4499999999999886
11
137.25
21
-104.4499999999999886
0
LINE
8
BLACK
6
CONTINUOUS
10
137.25
20
-104.4499999999999886
11
138.0999999999999943
21
-103.5999999999999943
0
LINE
8
BLACK
6
CONTINUOUS
10
138.0999999999999943
20
-103.5999999999999943
11
138.0999999999999943
21
-101.1499999999999915
0
LINE
8
BLACK
6
CONTINUOUS
10
138.0999999999999943
20
-101.1499999999999915
11
138.0999989999999968
21
-101.1499979999999965
0
LINE
8
BLACK
6
CONTINUOUS
10
138.0999989999999968
20
-101.1499979999999965
11
137.5500009999999804
21
-100.5999999999999943
0
LINE
8
BLACK
6
CONTINUOUS
10
137.5500009999999804
20
-100.5999999999999943
11
132.0754529999999818
21
-100.5999999999999943
0
LINE
8
BLACK
6
CONTINUOUS
10
132.0754529999999818
20
-100.5999999999999943
11
132.007331999999991
21
-100.5799979999999891
0
LINE
8
BLACK
6
CONTINUOUS
10
132.007331999999991
20
-100.5799979999999891
11
131.9608389999999929
21
-100.5263419999999996
0
LINE
8
BLACK
6
CONTINUOUS
10
131.9608389999999929
20
-100.5263419999999996
11
131.9507349999999803
21
-100.4560680000000019
0
LINE
8
BLACK
6
CONTINUOUS
10
131.9507349999999803
20
-100.4560680000000019
11
131.9556330000000059
21
-100.435023000000001
0
LINE
8
BLACK
6
CONTINUOUS
10
131.9556330000000059
20
-100.435023000000001
11
132.6729719999999872
21
-98.2298309999999901
0
LINE
8
BLACK
6
CONTINUOUS
10
132.6729719999999872
20
-98.2298309999999901
11
132.7130659999999978
21
-98.1712389999999999
0
LINE
8
BLACK
6
CONTINUOUS
10
132.7130659999999978
20
-98.1712389999999999
11
132.7187389999999994
21
-98.1668659999999988
0
LINE
8
BLACK
6
CONTINUOUS
10
132.7187389999999994
20
-98.1668659999999988
11
132.9153289999999856
21
-98.0240579999999966
0
LINE
8
BLACK
6
CONTINUOUS
10
132.9153289999999856
20
-98.0240579999999966
11
132.9821979999999826
21
-98.000204999999994
0
LINE
8
BLACK
6
CONTINUOUS
10
132.9821979999999826
20
-98.000204999999994
11
132.9893820000000062
21
-98.
0
LINE
8
BLACK
6
CONTINUOUS
10
132.9893820000000062
20
-98.
11
138.3984719999999982
21
-98.
0
LINE
8
BLACK
6
CONTINUOUS
10
138.3984719999999982
20
-98.
11
138.4665929999999889
21
-98.020001999999991
0
LINE
8
BLACK
6
CONTINUOUS
10
164.0102779999999996
20
-121.8337760000000003
11
164.0483459999999809
21
-121.8683109999999914
0
LINE
8
BLACK
6
CONTINUOUS
10
164.0483459999999809
20
-121.8683109999999914
11
164.640626999999995
21
-122.6830109999999934
0
LINE
8
BLACK
6
CONTINUOUS
10
164.640626999999995
20
-122.6830109999999934
11
164.6773919999999976
21
-122.729541999999995
0
LINE
8
BLACK
6
CONTINUOUS
10
164.6773919999999976
20
-122.729541999999995
11
164.6773959999999875
21
-122.72954399999999
0
LINE
8
BLACK
6
CONTINUOUS
10
164.6773959999999875
20
-122.72954399999999
11
164.7783550000000048
21
-122.7915729999999996
0
LINE
8
BLACK
6
CONTINUOUS
10
164.7783550000000048
20
-122.7915729999999996
11
164.7783589999999947
21
-122.7915739999999971
0
LINE
8
BLACK
6
CONTINUOUS
10
164.7783589999999947
20
-122.7915739999999971
11
164.8953750000000014
21
-122.8101889999999941
0
LINE
8
BLACK
6
CONTINUOUS
10
164.8953750000000014
20
-122.8101889999999941
11
164.8953789999999913
21
-122.8101889999999941
0
LINE
8
BLACK
6
CONTINUOUS
10
164.8953789999999913
20
-122.8101889999999941
11
165.0106009999999799
21
-122.7825489999999888
0
LINE
8
BLACK
6
CONTINUOUS
10
165.0106009999999799
20
-122.7825489999999888
11
165.0600289999999859
21
-122.7497809999999987
0
LINE
8
BLACK
6
CONTINUOUS
10
165.0600289999999859
20
-122.7497809999999987
11
165.6725459999999828
21
-122.3048329999999879
0
LINE
8
BLACK
6
CONTINUOUS
10
165.6725459999999828
20
-122.3048329999999879
11
165.7394149999999797
21
-122.2809799999999996
0
LINE
8
BLACK
6
CONTINUOUS
10
165.7394149999999797
20
-122.2809799999999996
11
165.8085659999999848
21
-122.2970660000000009
0
LINE
8
BLACK
6
CONTINUOUS
10
165.8085659999999848
20
-122.2970660000000009
11
165.8206930000000057
21
-122.3048629999999974
0
LINE
8
BLACK
6
CONTINUOUS
10
165.8206930000000057
20
-122.3048629999999974
11
168.7756399999999815
21
-124.4532229999999942
0
LINE
8
BLACK
6
CONTINUOUS
10
168.7756399999999815
20
-124.4532229999999942
11
168.8189759999999922
21
-124.5094589999999926
0
LINE
8
BLACK
6
CONTINUOUS
10
168.8189759999999922
20
-124.5094589999999926
11
168.8250280000000032
21
-124.5801969999999983
0
LINE
8
BLACK
6
CONTINUOUS
10
168.8250280000000032
20
-124.5801969999999983
11
168.8213930000000005
21
-124.5940279999999944
0
LINE
8
BLACK
6
CONTINUOUS
10
168.8213930000000005
20
-124.5940279999999944
11
168.6286289999999894
21
-125.1880199999999945
0
LINE
8
BLACK
6
CONTINUOUS
10
168.6286289999999894
20
-125.1880199999999945
11
168.6152689999999836
21
-125.2334350000000001
0
LINE
8
BLACK
6
CONTINUOUS
10
168.6152689999999836
20
-125.2334350000000001
11
168.6152689999999836
21
-125.2334359999999975
0
LINE
8
BLACK
6
CONTINUOUS
10
168.6152689999999836
20
-125.2334359999999975
11
168.6148039999999924
21
-125.3280509999999879
0
LINE
8
BLACK
6
CONTINUOUS
10
168.6148039999999924
20
-125.3280509999999879
11
168.6148049999999898
21
-125.3280570000000012
0
LINE
8
BLACK
6
CONTINUOUS
10
168.6148049999999898
20
-125.3280570000000012
11
168.6438689999999951
21
-125.418100999999993
0
LINE
8
BLACK
6
CONTINUOUS
10
168.6438689999999951
20
-125.418100999999993
11
168.6438699999999926
21
-125.4181039999999996
0
LINE
8
BLACK
6
CONTINUOUS
10
168.6438699999999926
20
-125.4181039999999996
11
168.6703899999999976
21
-125.4573429999999945
0
LINE
8
BLACK
6
CONTINUOUS
10
168.6703899999999976
20
-125.4573429999999945
11
169.3268899999999917
21
-126.3610639999999989
0
LINE
8
BLACK
6
CONTINUOUS
10
169.3268899999999917
20
-126.3610639999999989
11
169.3507439999999917
21
-126.4279329999999959
0
LINE
8
BLACK
6
CONTINUOUS
10
169.3507439999999917
20
-126.4279329999999959
11
169.3447730000000035
21
-126.4740819999999957
0
LINE
8
BLACK
6
CONTINUOUS
10
169.3447730000000035
20
-126.4740819999999957
11
168.3159559999999999
21
-129.6379090000000076
0
LINE
8
BLACK
6
CONTINUOUS
10
168.3159559999999999
20
-129.6379090000000076
11
168.2758680000000027
21
-129.6965059999999994
0
LINE
8
BLACK
6
CONTINUOUS
10
168.2758680000000027
20
-129.6965059999999994
11
168.2104649999999992
21
-129.7241269999999815
0
LINE
8
BLACK
6
CONTINUOUS
10
168.2104649999999992
20
-129.7241269999999815
11
168.1960339999999974
21
-129.7249449999999911
0
LINE
8
BLACK
6
CONTINUOUS
10
168.1960339999999974
20
-129.7249449999999911
11
167.000630000000001
21
-129.7240170000000035
0
LINE
8
BLACK
6
CONTINUOUS
10
167.000630000000001
20
-129.7240170000000035
11
166.9376220000000046
21
-129.7274989999999946
0
LINE
8
BLACK
6
CONTINUOUS
10
166.9376220000000046
20
-129.7274989999999946
11
166.822593999999981
21
-129.7790310000000034
0
LINE
8
BLACK
6
CONTINUOUS
10
166.822593999999981
20
-129.7790310000000034
11
166.8225929999999835
21
-129.7790320000000008
0
LINE
8
BLACK
6
CONTINUOUS
10
166.8225929999999835
20
-129.7790320000000008
11
166.7383219999999824
21
-129.872762999999992
0
LINE
8
BLACK
6
CONTINUOUS
10
166.7383219999999824
20
-129.872762999999992
11
166.7157650000000046
21
-129.9316780000000051
0
LINE
8
BLACK
6
CONTINUOUS
10
166.7157650000000046
20
-129.9316780000000051
11
166.7157509999999832
21
-129.9317179999999894
0
LINE
8
BLACK
6
CONTINUOUS
10
166.7157509999999832
20
-129.9317179999999894
11
166.3459639999999808
21
-131.0679570000000069
0
LINE
8
BLACK
6
CONTINUOUS
10
166.3459639999999808
20
-131.0679570000000069
11
166.305862999999988
21
-131.1265439999999955
0
LINE
8
BLACK
6
CONTINUOUS
10
166.305862999999988
20
-131.1265439999999955
11
166.2404530000000022
21
-131.1541499999999871
0
LINE
8
BLACK
6
CONTINUOUS
10
166.2404530000000022
20
-131.1541499999999871
11
166.2260780000000011
21
-131.1549640000000068
0
LINE
8
BLACK
6
CONTINUOUS
10
166.2260780000000011
20
-131.1549640000000068
11
162.8970869999999991
21
-131.1530520000000024
0
LINE
8
BLACK
6
CONTINUOUS
10
162.8970869999999991
20
-131.1530520000000024
11
162.8289769999999805
21
-131.133010999999982
0
LINE
8
BLACK
6
CONTINUOUS
10
162.8289769999999805
20
-131.133010999999982
11
162.7968400000000031
21
-131.1032889999999895
0
LINE
8
BLACK
6
CONTINUOUS
10
162.7968400000000031
20
-131.1032889999999895
11
162.2426299999999912
21
-130.3740149999999858
0
LINE
8
BLACK
6
CONTINUOUS
10
162.2426299999999912
20
-130.3740149999999858
11
162.2135130000000061
21
-130.3365699999999947
0
LINE
8
BLACK
6
CONTINUOUS
10
162.2135130000000061
20
-130.3365699999999947
11
162.1368949999999813
21
-130.2807229999999947
0
LINE
8
BLACK
6
CONTINUOUS
10
162.1368949999999813
20
-130.2807229999999947
11
162.1368909999999914
21
-130.2807209999999998
0
LINE
8
BLACK
6
CONTINUOUS
10
162.1368909999999914
20
-130.2807209999999998
11
162.0467419999999947
21
-130.2513820000000067
0
LINE
8
BLACK
6
CONTINUOUS
10
162.0467419999999947
20
-130.2513820000000067
11
162.0467319999999916
21
-130.2513799999999833
0
LINE
8
BLACK
6
CONTINUOUS
10
162.0467319999999916
20
-130.2513799999999833
11
161.9993419999999844
21
-130.2497160000000065
0
LINE
8
BLACK
6
CONTINUOUS
10
161.9993419999999844
20
-130.2497160000000065
11
161.5361169999999902
21
-130.2498689999999897
0
LINE
8
BLACK
6
CONTINUOUS
10
161.5361169999999902
20
-130.2498689999999897
11
161.4679899999999861
21
-130.2298889999999858
0
LINE
8
BLACK
6
CONTINUOUS
10
161.4679899999999861
20
-130.2298889999999858
11
161.4214800000000025
21
-130.1762489999999843
0
LINE
8
BLACK
6
CONTINUOUS
10
161.4214800000000025
20
-130.1762489999999843
11
161.4169980000000066
21
-130.1650569999999902
0
LINE
8
BLACK
6
CONTINUOUS
10
161.4169980000000066
20
-130.1650569999999902
11
160.0889209999999991
21
-126.3254680000000008
0
LINE
8
BLACK
6
CONTINUOUS
10
160.0889209999999991
20
-126.3254680000000008
11
160.0855559999999969
21
-126.2545509999999922
0
LINE
8
BLACK
6
CONTINUOUS
10
160.0855559999999969
20
-126.2545509999999922
11
160.1210659999999848
21
-126.1930729999999983
0
LINE
8
BLACK
6
CONTINUOUS
10
160.1210659999999848
20
-126.1930729999999983
11
160.1342669999999941
21
-126.1821059999999903
0
LINE
8
BLACK
6
CONTINUOUS
10
160.1342669999999941
20
-126.1821059999999903
11
160.6166249999999991
21
-125.8340199999999953
0
LINE
8
BLACK
6
CONTINUOUS
10
160.6166249999999991
20
-125.8340199999999953
11
160.616626999999994
21
-125.8340189999999978
0
LINE
8
BLACK
6
CONTINUOUS
10
160.616626999999994
20
-125.8340189999999978
11
160.6626239999999939
21
-125.7968159999999926
0
LINE
8
BLACK
6
CONTINUOUS
10
160.6626239999999939
20
-125.7968159999999926
11
160.724142999999998
21
-125.6959209999999985
0
LINE
8
BLACK
6
CONTINUOUS
10
160.724142999999998
20
-125.6959209999999985
11
160.7241449999999929
21
-125.6959159999999969
0
LINE
8
BLACK
6
CONTINUOUS
10
160.7241449999999929
20
-125.6959159999999969
11
160.7425209999999822
21
-125.5791859999999929
0
LINE
8
BLACK
6
CONTINUOUS
10
160.7425209999999822
20
-125.5791859999999929
11
160.7149759999999787
21
-125.4642629999999883
0
LINE
8
BLACK
6
CONTINUOUS
10
160.7149759999999787
20
-125.4642629999999883
11
160.6826639999999884
21
-125.4147409999999923
0
LINE
8
BLACK
6
CONTINUOUS
10
160.6826639999999884
20
-125.4147409999999923
11
160.120506000000006
21
-124.6367229999999893
0
LINE
8
BLACK
6
CONTINUOUS
10
160.120506000000006
20
-124.6367229999999893
11
160.0968230000000005
21
-124.56979299999999
0
LINE
8
BLACK
6
CONTINUOUS
10
160.0968230000000005
20
-124.56979299999999
11
160.1130839999999864
21
-124.5006839999999926
0
LINE
8
BLACK
6
CONTINUOUS
10
160.1130839999999864
20
-124.5006839999999926
11
160.1146750000000054
21
-124.4987189999999941
0
LINE
8
BLACK
6
CONTINUOUS
10
160.1146750000000054
20
-124.4987189999999941
11
160.1236690000000067
21
-124.4822349999999886
0
LINE
8
BLACK
6
CONTINUOUS
10
160.1236690000000067
20
-124.4822349999999886
11
160.1619910000000004
21
-124.4393799999999999
0
LINE
8
BLACK
6
CONTINUOUS
10
160.1619910000000004
20
-124.4393799999999999
11
163.8741449999999986
21
-121.8392009999999885
0
LINE
8
BLACK
6
CONTINUOUS
10
163.8741449999999986
20
-121.8392009999999885
11
163.9414150000000063
21
-121.8165019999999998
0
LINE
8
BLACK
6
CONTINUOUS
10
163.9414150000000063
20
-121.8165019999999998
11
164.0102779999999996
21
-121.8337760000000003
0
LINE
8
BLACK
6
CONTINUOUS
10
144.5907279999999844
20
-114.8200019999999881
11
144.5967359999999928
21
-114.824112999999997
0
LINE
8
BLACK
6
CONTINUOUS
10
144.5967359999999928
20
-114.824112999999997
11
144.809552999999994
21
-114.978950999999995
0
LINE
8
BLACK
6
CONTINUOUS
10
144.809552999999994
20
-114.978950999999995
11
144.8528689999999983
21
-115.0352029999999957
0
LINE
8
BLACK
6
CONTINUOUS
10
144.8528689999999983
20
-115.0352029999999957
11
144.8552640000000054
21
-115.0419219999999996
0
LINE
8
BLACK
6
CONTINUOUS
10
144.8552640000000054
20
-115.0419219999999996
11
145.9168369999999868
21
-118.3109579999999994
0
LINE
8
BLACK
6
CONTINUOUS
10
145.9168369999999868
20
-118.3109579999999994
11
145.9188519999999869
21
-118.3819259999999929
0
LINE
8
BLACK
6
CONTINUOUS
10
145.9188519999999869
20
-118.3819259999999929
11
145.8821800000000053
21
-118.4427179999999993
0
LINE
8
BLACK
6
CONTINUOUS
10
145.8821800000000053
20
-118.4427179999999993
11
145.8726199999999835
21
-118.4506569999999925
0
LINE
8
BLACK
6
CONTINUOUS
10
145.8726199999999835
20
-118.4506569999999925
11
139.5570869999999957
21
-123.1895449999999954
0
LINE
8
BLACK
6
CONTINUOUS
10
139.5570869999999957
20
-123.1895449999999954
11
139.4905949999999848
21
-123.2144309999999905
0
LINE
8
BLACK
6
CONTINUOUS
10
139.4905949999999848
20
-123.2144309999999905
11
139.4212039999999888
21
-123.1994179999999943
0
LINE
8
BLACK
6
CONTINUOUS
10
139.4212039999999888
20
-123.1994179999999943
11
139.4074279999999817
21
-123.1907159999999948
0
LINE
8
BLACK
6
CONTINUOUS
10
139.4074279999999817
20
-123.1907159999999948
11
137.1877560000000074
21
-121.5788450000000012
0
LINE
8
BLACK
6
CONTINUOUS
10
137.1877560000000074
20
-121.5788450000000012
11
137.1443879999999922
21
-121.522632999999999
0
LINE
8
BLACK
6
CONTINUOUS
10
137.1443879999999922
20
-121.522632999999999
11
137.1382959999999969
21
-121.4518979999999999
0
LINE
8
BLACK
6
CONTINUOUS
10
137.1382959999999969
20
-121.4518979999999999
11
137.1419750000000022
21
-121.4379050000000007
0
LINE
8
BLACK
6
CONTINUOUS
10
137.1419750000000022
20
-121.4379050000000007
11
137.4136259999999936
21
-120.6030319999999989
0
LINE
8
BLACK
6
CONTINUOUS
10
137.4136259999999936
20
-120.6030319999999989
11
137.4244919999999865
21
-120.5623019999999883
0
LINE
8
BLACK
6
CONTINUOUS
10
137.4244919999999865
20
-120.5623019999999883
11
137.4156749999999931
21
-120.4786029999999926
0
LINE
8
BLACK
6
CONTINUOUS
10
137.4156749999999931
20
-120.4786029999999926
11
137.3737260000000049
21
-120.4056420000000003
0
LINE
8
BLACK
6
CONTINUOUS
10
137.3737260000000049
20
-120.4056420000000003
11
137.3737239999999815
21
-120.4056399999999911
0
LINE
8
BLACK
6
CONTINUOUS
10
137.3737239999999815
20
-120.4056399999999911
11
137.3410360000000026
21
-120.3790659999999946
0
LINE
8
BLACK
6
CONTINUOUS
10
137.3410360000000026
20
-120.3790659999999946
11
137.3410130000000038
21
-120.3790479999999974
0
LINE
8
BLACK
6
CONTINUOUS
10
137.3410130000000038
20
-120.3790479999999974
11
136.6336749999999824
21
-119.8648439999999908
0
LINE
8
BLACK
6
CONTINUOUS
10
136.6336749999999824
20
-119.8648439999999908
11
136.5903370000000052
21
-119.8086100000000016
0
LINE
8
BLACK
6
CONTINUOUS
10
136.5903370000000052
20
-119.8086100000000016
11
136.5842800000000068
21
-119.7378719999999959
0
LINE
8
BLACK
6
CONTINUOUS
10
136.5842800000000068
20
-119.7378719999999959
11
136.5879410000000007
21
-119.7239609999999885
0
LINE
8
BLACK
6
CONTINUOUS
10
136.5879410000000007
20
-119.7239609999999885
11
138.1339609999999993
21
-114.9699749999999909
0
LINE
8
BLACK
6
CONTINUOUS
10
138.1339609999999993
20
-114.9699749999999909
11
138.174049999999994
21
-114.9113799999999941
0
LINE
8
BLACK
6
CONTINUOUS
10
138.174049999999994
20
-114.9113799999999941
11
138.1797880000000021
21
-114.9069590000000005
0
LINE
8
BLACK
6
CONTINUOUS
10
138.1797880000000021
20
-114.9069590000000005
11
138.294099999999986
21
-114.8240169999999978
0
LINE
8
BLACK
6
CONTINUOUS
10
138.294099999999986
20
-114.8240169999999978
11
138.360982000000007
21
-114.8002010000000013
0
LINE
8
BLACK
6
CONTINUOUS
10
138.360982000000007
20
-114.8002010000000013
11
138.36809599999998
21
-114.7999999999999972
0
LINE
8
BLACK
6
CONTINUOUS
10
138.36809599999998
20
-114.7999999999999972
11
144.5226069999999936
21
-114.7999999999999972
0
LINE
8
BLACK
6
CONTINUOUS
10
144.5226069999999936
20
-114.7999999999999972
11
144.5907279999999844
21
-114.8200019999999881
0
LINE
8
BLACK
6
CONTINUOUS
10
119.3475660000000005
20
-88.2628720000000015
11
119.3596789999999999
21
-88.270662999999999
0
LINE
8
BLACK
6
CONTINUOUS
10
119.3596789999999999
20
-88.270662999999999
11
122.6666129999999981
21
-90.6753929999999997
0
LINE
8
BLACK
6
CONTINUOUS
10
122.6666129999999981
20
-90.6753929999999997
11
122.709943999999993
21
-90.7316330000000022
0
LINE
8
BLACK
6
CONTINUOUS
10
122.709943999999993
20
-90.7316330000000022
11
122.7159899999999908
21
-90.8023719999999912
0
LINE
8
BLACK
6
CONTINUOUS
10
122.7159899999999908
20
-90.8023719999999912
11
122.7123379999999884
21
-90.8162499999999966
0
LINE
8
BLACK
6
CONTINUOUS
10
122.7123379999999884
20
-90.8162499999999966
11
122.4416319999999985
21
-91.649013999999994
0
LINE
8
BLACK
6
CONTINUOUS
10
122.4416319999999985
20
-91.649013999999994
11
122.4302509999999984
21
-91.689629999999994
0
LINE
8
BLACK
6
CONTINUOUS
10
122.4302509999999984
20
-91.689629999999994
11
122.4302500000000009
21
-91.6896339999999981
0
LINE
8
BLACK
6
CONTINUOUS
10
122.4302500000000009
20
-91.6896339999999981
11
122.4388939999999906
21
-91.7734569999999934
0
LINE
8
BLACK
6
CONTINUOUS
10
122.4388939999999906
20
-91.7734569999999934
11
122.438894999999988
21
-91.7734590000000026
0
LINE
8
BLACK
6
CONTINUOUS
10
122.438894999999988
20
-91.7734590000000026
11
122.4810169999999943
21
-91.8464469999999977
0
LINE
8
BLACK
6
CONTINUOUS
10
122.4810169999999943
20
-91.8464469999999977
11
122.5139829999999961
21
-91.8727099999999979
0
LINE
8
BLACK
6
CONTINUOUS
10
122.5139829999999961
20
-91.8727099999999979
11
122.5140169999999955
21
-91.8727349999999916
0
LINE
8
BLACK
6
CONTINUOUS
10
122.5140169999999955
20
-91.8727349999999916
11
123.2244489999999928
21
-92.3881939999999986
0
LINE
8
BLACK
6
CONTINUOUS
10
123.2244489999999928
20
-92.3881939999999986
11
123.2678389999999951
21
-92.4443879999999893
0
LINE
8
BLACK
6
CONTINUOUS
10
123.2678389999999951
20
-92.4443879999999893
11
123.2739609999999999
21
-92.5151209999999935
0
LINE
8
BLACK
6
CONTINUOUS
10
123.2739609999999999
20
-92.5151209999999935
11
123.2702699999999965
21
-92.5291679999999985
0
LINE
8
BLACK
6
CONTINUOUS
10
123.2702699999999965
20
-92.5291679999999985
11
122.0049169999999918
21
-96.4175919999999991
0
LINE
8
BLACK
6
CONTINUOUS
10
122.0049169999999918
20
-96.4175919999999991
11
121.9648169999999965
21
-96.4761799999999994
0
LINE
8
BLACK
6
CONTINUOUS
10
121.9648169999999965
20
-96.4761799999999994
11
121.899407999999994
21
-96.5037870000000026
0
LINE
8
BLACK
6
CONTINUOUS
10
121.899407999999994
20
-96.5037870000000026
11
121.8852179999999947
21
-96.5046019999999913
0
LINE
8
BLACK
6
CONTINUOUS
10
121.8852179999999947
20
-96.5046019999999913
11
121.0096300000000014
21
-96.5054169999999942
0
LINE
8
BLACK
6
CONTINUOUS
10
121.0096300000000014
20
-96.5054169999999942
11
120.9674799999999948
21
-96.5072199999999896
0
LINE
8
BLACK
6
CONTINUOUS
10
120.9674799999999948
20
-96.5072199999999896
11
120.8904459999999972
21
-96.5414559999999966
0
LINE
8
BLACK
6
CONTINUOUS
10
120.8904459999999972
20
-96.5414559999999966
11
120.8904429999999905
21
-96.5414579999999916
0
LINE
8
BLACK
6
CONTINUOUS
10
120.8904429999999905
20
-96.5414579999999916
11
120.8340619999999888
21
-96.6041189999999972
0
LINE
8
BLACK
6
CONTINUOUS
10
120.8340619999999888
20
-96.6041189999999972
11
120.8192389999999961
21
-96.643622999999991
0
LINE
8
BLACK
6
CONTINUOUS
10
120.8192389999999961
20
-96.643622999999991
11
120.8192389999999961
21
-96.6436240000000026
0
LINE
8
BLACK
6
CONTINUOUS
10
120.8192389999999961
20
-96.6436240000000026
11
120.5488809999999944
21
-97.4782979999999952
0
LINE
8
BLACK
6
CONTINUOUS
10
120.5488809999999944
20
-97.4782979999999952
11
120.508860999999996
21
-97.5369400000000013
0
LINE
8
BLACK
6
CONTINUOUS
10
120.508860999999996
20
-97.5369400000000013
11
120.4434889999999996
21
-97.5646369999999905
0
LINE
8
BLACK
6
CONTINUOUS
10
120.4434889999999996
20
-97.5646369999999905
11
120.4289500000000004
21
-97.5654710000000023
0
LINE
8
BLACK
6
CONTINUOUS
10
120.4289500000000004
20
-97.5654710000000023
11
116.3399889999999886
21
-97.5634609999999896
0
LINE
8
BLACK
6
CONTINUOUS
10
116.3399889999999886
20
-97.5634609999999896
11
116.271878000000001
21
-97.5434249999999992
0
LINE
8
BLACK
6
CONTINUOUS
10
116.271878000000001
20
-97.5434249999999992
11
116.2254119999999915
21
-97.4897469999999942
0
LINE
8
BLACK
6
CONTINUOUS
10
116.2254119999999915
20
-97.4897469999999942
11
116.2202739999999892
21
-97.4765699999999953
0
LINE
8
BLACK
6
CONTINUOUS
10
116.2202739999999892
20
-97.4765699999999953
11
115.9486279999999994
21
-96.6446100000000001
0
LINE
8
BLACK
6
CONTINUOUS
10
115.9486279999999994
20
-96.6446100000000001
11
115.9339200000000005
21
-96.6051499999999947
0
LINE
8
BLACK
6
CONTINUOUS
10
115.9339200000000005
20
-96.6051499999999947
11
115.9339179999999914
21
-96.6051459999999906
0
LINE
8
BLACK
6
CONTINUOUS
10
115.9339179999999914
20
-96.6051459999999906
11
115.8776769999999914
21
-96.5425460000000015
0
LINE
8
BLACK
6
CONTINUOUS
10
115.8776769999999914
20
-96.5425460000000015
11
115.8776749999999964
21
-96.5425439999999924
0
LINE
8
BLACK
6
CONTINUOUS
10
115.8776749999999964
20
-96.5425439999999924
11
115.8008159999999975
21
-96.5082649999999944
0
LINE
8
BLACK
6
CONTINUOUS
10
115.8008159999999975
20
-96.5082649999999944
11
115.7587279999999907
21
-96.5064160000000015
0
LINE
8
BLACK
6
CONTINUOUS
10
115.7587279999999907
20
-96.5064160000000015
11
114.8792179999999945
21
-96.5064160000000015
0
LINE
8
BLACK
6
CONTINUOUS
10
114.8792179999999945
20
-96.5064160000000015
11
114.8110969999999895
21
-96.4864139999999963
0
LINE
8
BLACK
6
CONTINUOUS
10
114.8110969999999895
20
-96.4864139999999963
11
114.7646039999999914
21
-96.4327579999999926
0
LINE
8
BLACK
6
CONTINUOUS
10
114.7646039999999914
20
-96.4327579999999926
11
114.7593669999999975
21
-96.4192979999999977
0
LINE
8
BLACK
6
CONTINUOUS
10
114.7593669999999975
20
-96.4192979999999977
11
113.4978539999999896
21
-92.5308119999999974
0
LINE
8
BLACK
6
CONTINUOUS
10
113.4978539999999896
20
-92.5308119999999974
11
113.4958589999999958
21
-92.4598439999999897
0
LINE
8
BLACK
6
CONTINUOUS
10
113.4958589999999958
20
-92.4598439999999897
11
113.5325489999999888
21
-92.3990620000000007
0
LINE
8
BLACK
6
CONTINUOUS
10
113.5325489999999888
20
-92.3990620000000007
11
113.5435999999999979
21
-92.3900259999999918
0
LINE
8
BLACK
6
CONTINUOUS
10
113.5435999999999979
20
-92.3900259999999918
11
114.2526149999999916
21
-91.8744289999999921
0
LINE
8
BLACK
6
CONTINUOUS
10
114.2526149999999916
20
-91.8744289999999921
11
114.2853700000000003
21
-91.8479339999999951
0
LINE
8
BLACK
6
CONTINUOUS
10
114.2853700000000003
20
-91.8479339999999951
11
114.3274519999999939
21
-91.775123999999991
0
LINE
8
BLACK
6
CONTINUOUS
10
114.3274519999999939
20
-91.775123999999991
11
114.3274519999999939
21
-91.7751229999999936
0
LINE
8
BLACK
6
CONTINUOUS
10
114.3274519999999939
20
-91.7751229999999936
11
114.3363299999999896
21
-91.6914960000000008
0
LINE
8
BLACK
6
CONTINUOUS
10
114.3363299999999896
20
-91.6914960000000008
11
114.3363289999999921
21
-91.6914909999999992
0
LINE
8
BLACK
6
CONTINUOUS
10
114.3363289999999921
20
-91.6914909999999992
11
114.3254559999999884
21
-91.6508120000000019
0
LINE
8
BLACK
6
CONTINUOUS
10
114.3254559999999884
20
-91.6508120000000019
11
114.325451000000001
21
-91.6507979999999947
0
LINE
8
BLACK
6
CONTINUOUS
10
114.325451000000001
20
-91.6507979999999947
11
114.0936529999999891
21
-90.9369519999999909
0
LINE
8
BLACK
6
CONTINUOUS
10
114.0936529999999891
20
-90.9369519999999909
11
114.091637999999989
21
-90.8659839999999974
0
LINE
8
BLACK
6
CONTINUOUS
10
114.091637999999989
20
-90.8659839999999974
11
114.128311999999994
21
-90.8051930000000027
0
LINE
8
BLACK
6
CONTINUOUS
10
114.128311999999994
20
-90.8051930000000027
11
114.1391569999999973
21
-90.7963029999999947
0
LINE
8
BLACK
6
CONTINUOUS
10
114.1391569999999973
20
-90.7963029999999947
11
117.5006119999999896
21
-88.3401410000000027
0
LINE
8
BLACK
6
CONTINUOUS
10
117.5006119999999896
20
-88.3401410000000027
11
117.5674149999999969
21
-88.3161009999999891
0
LINE
8
BLACK
6
CONTINUOUS
10
117.5674149999999969
20
-88.3161009999999891
11
117.6366089999999929
21
-88.331994999999992
0
LINE
8
BLACK
6
CONTINUOUS
10
117.6366089999999929
20
-88.331994999999992
11
117.6490089999999924
21
-88.3399399999999986
0
LINE
8
BLACK
6
CONTINUOUS
10
117.6490089999999924
20
-88.3399399999999986
11
118.2646259999999927
21
-88.7872139999999916
0
LINE
8
BLACK
6
CONTINUOUS
10
118.2646259999999927
20
-88.7872139999999916
11
118.2646299999999968
21
-88.7872169999999983
0
LINE
8
BLACK
6
CONTINUOUS
10
118.2646299999999968
20
-88.7872169999999983
11
118.2999919999999889
21
-88.8101699999999994
0
LINE
8
BLACK
6
CONTINUOUS
10
118.2999919999999889
20
-88.8101699999999994
11
118.2999969999999905
21
-88.8101719999999943
0
LINE
8
BLACK
6
CONTINUOUS
10
118.2999969999999905
20
-88.8101719999999943
11
118.3823669999999879
21
-88.8276389999999907
0
LINE
8
BLACK
6
CONTINUOUS
10
118.3823669999999879
20
-88.8276389999999907
11
118.382370999999992
21
-88.8276389999999907
0
LINE
8
BLACK
6
CONTINUOUS
10
118.382370999999992
20
-88.8276389999999907
11
118.4647279999999938
21
-88.8101159999999936
0
LINE
8
BLACK
6
CONTINUOUS
10
118.4647279999999938
20
-88.8101159999999936
11
118.4647329999999954
21
-88.8101139999999987
0
LINE
8
BLACK
6
CONTINUOUS
10
118.4647329999999954
20
-88.8101139999999987
11
118.5001099999999923
21
-88.7871829999999989
0
LINE
8
BLACK
6
CONTINUOUS
10
118.5001099999999923
20
-88.7871829999999989
11
119.211545000000001
21
-88.2706099999999907
0
LINE
8
BLACK
6
CONTINUOUS
10
119.211545000000001
20
-88.2706099999999907
11
119.2784189999999995
21
-88.2467709999999954
0
LINE
8
BLACK
6
CONTINUOUS
10
119.2784189999999995
20
-88.2467709999999954
11
119.3475660000000005
21
-88.2628720000000015
0
LINE
8
BLACK
6
CONTINUOUS
10
132.0201289999999972
20
-81.1175130000000024
11
132.0284000000000049
21
-81.1209429999999969
0
LINE
8
BLACK
6
CONTINUOUS
10
132.0284000000000049
20
-81.1209429999999969
11
132.0312529999999924
21
-81.1256039999999956
0
LINE
8
BLACK
6
CONTINUOUS
10
132.0312529999999924
20
-81.1256039999999956
11
132.6196309999999983
21
-82.9400179999999949
0
LINE
8
BLACK
6
CONTINUOUS
10
132.6196309999999983
20
-82.9400179999999949
11
132.6196309999999983
21
-82.9400189999999924
0
LINE
8
BLACK
6
CONTINUOUS
10
132.6196309999999983
20
-82.9400189999999924
11
132.6384149999999806
21
-82.9777009999999962
0
LINE
8
BLACK
6
CONTINUOUS
10
132.6384149999999806
20
-82.9777009999999962
11
132.7004000000000019
21
-83.0345439999999968
0
LINE
8
BLACK
6
CONTINUOUS
10
132.7004000000000019
20
-83.0345439999999968
11
132.7395569999999907
21
-83.0500129999999928
0
LINE
8
BLACK
6
CONTINUOUS
10
132.7395569999999907
20
-83.0500129999999928
11
134.6569629999999904
21
-83.6743709999999936
0
LINE
8
BLACK
6
CONTINUOUS
10
134.6569629999999904
20
-83.6743709999999936
11
134.6637680000000046
21
-83.6801909999999936
0
LINE
8
BLACK
6
CONTINUOUS
10
134.6637680000000046
20
-83.6801909999999936
11
134.6644689999999969
21
-83.6818870000000032
0
LINE
8
BLACK
6
CONTINUOUS
10
134.6644689999999969
20
-83.6818870000000032
11
135.7444619999999986
21
-87.0123119999999943
0
LINE
8
BLACK
6
CONTINUOUS
10
135.7444619999999986
20
-87.0123119999999943
11
135.7444649999999911
21
-87.0195209999999975
0
LINE
8
BLACK
6
CONTINUOUS
10
135.7444649999999911
20
-87.0195209999999975
11
135.6681049999999971
21
-87.2556500000000028
0
LINE
8
BLACK
6
CONTINUOUS
10
135.6681049999999971
20
-87.2556500000000028
11
135.6638729999999953
21
-87.2614990000000006
0
LINE
8
BLACK
6
CONTINUOUS
10
135.6638729999999953
20
-87.2614990000000006
11
130.6312220000000082
21
-90.9365449999999953
0
LINE
8
BLACK
6
CONTINUOUS
10
130.6312220000000082
20
-90.9365449999999953
11
130.6243179999999882
21
-90.9387959999999964
0
LINE
8
BLACK
6
CONTINUOUS
10
130.6243179999999882
20
-90.9387959999999964
11
130.3764309999999966
21
-90.9387179999999944
0
LINE
8
BLACK
6
CONTINUOUS
10
130.3764309999999966
20
-90.9387179999999944
11
130.3695549999999912
21
-90.9364810000000006
0
LINE
8
BLACK
6
CONTINUOUS
10
130.3695549999999912
20
-90.9364810000000006
11
125.5637089999999887
21
-87.4425549999999987
0
LINE
8
BLACK
6
CONTINUOUS
10
125.5637089999999887
20
-87.4425549999999987
11
125.5594579999999922
21
-87.4366969999999952
0
LINE
8
BLACK
6
CONTINUOUS
10
125.5594579999999922
20
-87.4366969999999952
11
125.4799699999999945
21
-87.1912489999999991
0
LINE
8
BLACK
6
CONTINUOUS
10
125.4799699999999945
20
-87.1912489999999991
11
125.4799799999999976
21
-87.1840100000000007
0
LINE
8
BLACK
6
CONTINUOUS
10
125.4799799999999976
20
-87.1840100000000007
11
127.424233000000001
21
-81.2336919999999907
0
LINE
8
BLACK
6
CONTINUOUS
10
127.424233000000001
20
-81.2336919999999907
11
127.4284709999999876
21
-81.2278649999999942
0
LINE
8
BLACK
6
CONTINUOUS
10
127.4284709999999876
20
-81.2278649999999942
11
127.579550999999995
21
-81.1179569999999899
0
LINE
8
BLACK
6
CONTINUOUS
10
127.579550999999995
20
-81.1179569999999899
11
127.5864389999999986
21
-81.1157180000000011
0
LINE
8
BLACK
6
CONTINUOUS
10
127.5864389999999986
20
-81.1157180000000011
11
132.0201289999999972
21
-81.1175130000000024
0
LINE
8
BLACK
6
CONTINUOUS
10
159.1408199999999908
20
-92.6107709999999997
11
159.5615149999999858
21
-92.6301720000000017
0
LINE
8
BLACK
6
CONTINUOUS
10
159.5615149999999858
20
-92.6301720000000017
11
159.5729359999999986
21
-92.6312209999999965
0
LINE
8
BLACK
6
CONTINUOUS
10
159.5729359999999986
20
-92.6312209999999965
11
159.9901419999999916
21
-92.6888000000000005
0
LINE
8
BLACK
6
CONTINUOUS
10
159.9901419999999916
20
-92.6888000000000005
11
160.0014209999999935
21
-92.6908839999999969
0
LINE
8
BLACK
6
CONTINUOUS
10
160.0014209999999935
20
-92.6908839999999969
11
160.3125049999999874
21
-92.7631329999999963
0
LINE
8
BLACK
6
CONTINUOUS
10
160.3125049999999874
20
-92.7631329999999963
11
160.3743340000000046
21
-92.7980269999999905
0
LINE
8
BLACK
6
CONTINUOUS
10
160.3743340000000046
20
-92.7980269999999905
11
160.4074829999999849
21
-92.8608100000000007
0
LINE
8
BLACK
6
CONTINUOUS
10
160.4074829999999849
20
-92.8608100000000007
11
160.4099999999999966
21
-92.8858659999999929
0
LINE
8
BLACK
6
CONTINUOUS
10
160.4099999999999966
20
-92.8858659999999929
11
160.4099999999999966
21
-103.3609029999999933
0
LINE
8
BLACK
6
CONTINUOUS
10
160.4099999999999966
20
-103.3609029999999933
11
160.3899979999999914
21
-103.4290239999999983
0
LINE
8
BLACK
6
CONTINUOUS
10
160.3899979999999914
20
-103.4290239999999983
11
160.3363420000000019
21
-103.4755169999999964
0
LINE
8
BLACK
6
CONTINUOUS
10
160.3363420000000019
20
-103.4755169999999964
11
160.2839999999999918
21
-103.4869029999999981
0
LINE
8
BLACK
6
CONTINUOUS
10
160.2839999999999918
20
-103.4869029999999981
11
157.936000000000007
21
-103.4869029999999981
0
LINE
8
BLACK
6
CONTINUOUS
10
157.936000000000007
20
-103.4869029999999981
11
157.8678789999999879
21
-103.4669009999999929
0
LINE
8
BLACK
6
CONTINUOUS
10
157.8678789999999879
20
-103.4669009999999929
11
157.8213859999999897
21
-103.4132449999999892
0
LINE
8
BLACK
6
CONTINUOUS
10
157.8213859999999897
20
-103.4132449999999892
11
157.8100000000000023
21
-103.3609029999999933
0
LINE
8
BLACK
6
CONTINUOUS
10
157.8100000000000023
20
-103.3609029999999933
11
157.8100000000000023
21
-92.8961230000000029
0
LINE
8
BLACK
6
CONTINUOUS
10
157.8100000000000023
20
-92.8961230000000029
11
157.830001999999979
21
-92.8280019999999979
0
LINE
8
BLACK
6
CONTINUOUS
10
157.830001999999979
20
-92.8280019999999979
11
157.8836579999999969
21
-92.7815089999999998
0
LINE
8
BLACK
6
CONTINUOUS
10
157.8836579999999969
20
-92.7815089999999998
11
157.9076299999999833
21
-92.7733580000000018
0
LINE
8
BLACK
6
CONTINUOUS
10
157.9076299999999833
20
-92.7733580000000018
11
158.2686530000000005
21
-92.6899279999999948
0
LINE
8
BLACK
6
CONTINUOUS
10
158.2686530000000005
20
-92.6899279999999948
11
158.2799339999999972
21
-92.6878569999999939
0
LINE
8
BLACK
6
CONTINUOUS
10
158.2799339999999972
20
-92.6878569999999939
11
158.6971910000000037
21
-92.6307379999999938
0
LINE
8
BLACK
6
CONTINUOUS
10
158.6971910000000037
20
-92.6307379999999938
11
158.7086149999999805
21
-92.6297009999999972
0
LINE
8
BLACK
6
CONTINUOUS
10
158.7086149999999805
20
-92.6297009999999972
11
159.1293499999999881
21
-92.610763999999989
0
LINE
8
BLACK
6
CONTINUOUS
10
159.1293499999999881
20
-92.610763999999989
11
159.1408199999999908
21
-92.6107709999999997
0
LINE
8
BLACK
6
CONTINUOUS
10
136.2318290000000047
20
-87.7167149999999936
11
136.2387049999999817
21
-87.7189520000000016
0
LINE
8
BLACK
6
CONTINUOUS
10
136.2387049999999817
20
-87.7189520000000016
11
140.3817530000000033
21
-90.7312159999999892
0
LINE
8
BLACK
6
CONTINUOUS
10
140.3817530000000033
20
-90.7312159999999892
11
140.3864299999999901
21
-90.7388529999999918
0
LINE
8
BLACK
6
CONTINUOUS
10
140.3864299999999901
20
-90.7388529999999918
11
140.3859989999999982
21
-90.7442999999999955
0
LINE
8
BLACK
6
CONTINUOUS
10
140.3859989999999982
20
-90.7442999999999955
11
140.0896290000000022
21
-91.6549229999999966
0
LINE
8
BLACK
6
CONTINUOUS
10
140.0896290000000022
20
-91.6549229999999966
11
140.0781800000000032
21
-91.6954789999999917
0
LINE
8
BLACK
6
CONTINUOUS
10
140.0781800000000032
20
-91.6954789999999917
11
140.0781790000000058
21
-91.6954839999999933
0
LINE
8
BLACK
6
CONTINUOUS
10
140.0781790000000058
20
-91.6954839999999933
11
140.0866709999999955
21
-91.7792620000000028
0
LINE
8
BLACK
6
CONTINUOUS
10
140.0866709999999955
20
-91.7792620000000028
11
140.1286609999999939
21
-91.8522609999999986
0
LINE
8
BLACK
6
CONTINUOUS
10
140.1286609999999939
20
-91.8522609999999986
11
140.1286649999999838
21
-91.8522660000000002
0
LINE
8
BLACK
6
CONTINUOUS
10
140.1286649999999838
20
-91.8522660000000002
11
140.1616170000000068
21
-91.8785450000000026
0
LINE
8
BLACK
6
CONTINUOUS
10
140.1616170000000068
20
-91.8785450000000026
11
140.9397539999999935
21
-92.4443169999999981
0
LINE
8
BLACK
6
CONTINUOUS
10
140.9397539999999935
20
-92.4443169999999981
11
140.9444309999999803
21
-92.4519540000000006
0
LINE
8
BLACK
6
CONTINUOUS
10
140.9444309999999803
20
-92.4519540000000006
11
140.9439999999999884
21
-92.4573999999999927
0
LINE
8
BLACK
6
CONTINUOUS
10
140.9439999999999884
20
-92.4573999999999927
11
139.750473999999997
21
-96.1251510000000025
0
LINE
8
BLACK
6
CONTINUOUS
10
139.750473999999997
20
-96.1251510000000025
11
139.7446549999999945
21
-96.1319579999999974
0
LINE
8
BLACK
6
CONTINUOUS
10
139.7446549999999945
20
-96.1319579999999974
11
139.7429649999999981
21
-96.1326579999999922
0
LINE
8
BLACK
6
CONTINUOUS
10
139.7429649999999981
20
-96.1326579999999922
11
138.4686140000000023
21
-96.546921999999995
0
LINE
8
BLACK
6
CONTINUOUS
10
138.4686140000000023
20
-96.546921999999995
11
138.4242509999999982
21
-96.5639029999999963
0
LINE
8
BLACK
6
CONTINUOUS
10
138.4242509999999982
20
-96.5639029999999963
11
138.3570409999999811
21
-96.6308949999999953
0
LINE
8
BLACK
6
CONTINUOUS
10
138.3570409999999811
20
-96.6308949999999953
11
138.3399179999999831
21
-96.6752019999999987
0
LINE
8
BLACK
6
CONTINUOUS
10
138.3399179999999831
20
-96.6752019999999987
11
138.0844490000000064
21
-97.4615589999999941
0
LINE
8
BLACK
6
CONTINUOUS
10
138.0844490000000064
20
-97.4615589999999941
11
138.0786329999999964
21
-97.4683689999999956
0
LINE
8
BLACK
6
CONTINUOUS
10
138.0786329999999964
20
-97.4683689999999956
11
138.073299999999989
21
-97.4696440000000024
0
LINE
8
BLACK
6
CONTINUOUS
10
138.073299999999989
20
-97.4696440000000024
11
133.0512729999999806
21
-97.4605959999999953
0
LINE
8
BLACK
6
CONTINUOUS
10
133.0512729999999806
20
-97.4605959999999953
11
133.0444259999999872
21
-97.458367999999993
0
LINE
8
BLACK
6
CONTINUOUS
10
133.0444259999999872
20
-97.458367999999993
11
132.6677159999999844
21
-97.1852529999999888
0
LINE
8
BLACK
6
CONTINUOUS
10
132.6677159999999844
20
-97.1852529999999888
11
132.663454999999999
21
-97.1793909999999954
0
LINE
8
BLACK
6
CONTINUOUS
10
132.663454999999999
20
-97.1793909999999954
11
130.8748019999999883
21
-91.6653289999999998
0
LINE
8
BLACK
6
CONTINUOUS
10
130.8748019999999883
20
-91.6653289999999998
11
130.8748039999999833
21
-91.658102999999997
0
LINE
8
BLACK
6
CONTINUOUS
10
130.8748039999999833
20
-91.658102999999997
11
130.9754559999999799
21
-91.34832999999999
0
LINE
8
BLACK
6
CONTINUOUS
10
130.9754559999999799
20
-91.34832999999999
11
130.9797039999999981
21
-91.3424819999999897
0
LINE
8
BLACK
6
CONTINUOUS
10
130.9797039999999981
20
-91.3424819999999897
11
131.5506359999999972
21
-90.927511999999993
0
LINE
8
BLACK
6
CONTINUOUS
10
131.5506359999999972
20
-90.927511999999993
11
131.5506369999999947
21
-90.9275109999999955
0
LINE
8
BLACK
6
CONTINUOUS
10
131.5506369999999947
20
-90.9275109999999955
11
131.5806539999999814
21
-90.90106999999999
0
LINE
8
BLACK
6
CONTINUOUS
10
131.5806539999999814
20
-90.90106999999999
11
131.5823159999999916
21
-90.8907019999999903
0
LINE
8
BLACK
6
CONTINUOUS
10
131.5823159999999916
20
-90.8907019999999903
11
131.5870089999999948
21
-90.883074999999991
0
LINE
8
BLACK
6
CONTINUOUS
10
131.5870089999999948
20
-90.883074999999991
11
131.5870649999999955
21
-90.8830349999999925
0
LINE
8
BLACK
6
CONTINUOUS
10
131.5870649999999955
20
-90.8830349999999925
11
136.0137749999999812
21
-87.7188159999999897
0
LINE
8
BLACK
6
CONTINUOUS
10
136.0137749999999812
20
-87.7188159999999897
11
136.0205829999999878
21
-87.7166339999999991
0
LINE
8
BLACK
6
CONTINUOUS
10
136.0205829999999878
20
-87.7166339999999991
11
136.2318290000000047
21
-87.7167149999999936
0
LINE
8
BLACK
6
CONTINUOUS
10
121.7665059999999926
20
-77.1950159999999954
11
126.77055399999999
21
-80.8338799999999935
0
LINE
8
BLACK
6
CONTINUOUS
10
126.77055399999999
20
-80.8338799999999935
11
126.7748029999999915
21
-80.8397339999999929
0
LINE
8
BLACK
6
CONTINUOUS
10
126.7748029999999915
20
-80.8397339999999929
11
126.8416289999999975
21
-81.0458220000000011
0
LINE
8
BLACK
6
CONTINUOUS
10
126.8416289999999975
20
-81.0458220000000011
11
126.8416259999999909
21
-81.0530490000000015
0
LINE
8
BLACK
6
CONTINUOUS
10
126.8416259999999909
20
-81.0530490000000015
11
124.8911019999999894
21
-87.0513419999999911
0
LINE
8
BLACK
6
CONTINUOUS
10
124.8911019999999894
20
-87.0513419999999911
11
124.8868619999999936
21
-87.0571819999999974
0
LINE
8
BLACK
6
CONTINUOUS
10
124.8868619999999936
20
-87.0571819999999974
11
124.7207109999999943
21
-87.178173000000001
0
LINE
8
BLACK
6
CONTINUOUS
10
124.7207109999999943
20
-87.178173000000001
11
124.7138190000000009
21
-87.1804149999999964
0
LINE
8
BLACK
6
CONTINUOUS
10
124.7138190000000009
20
-87.1804149999999964
11
118.9064329999999927
21
-87.1780179999999945
0
LINE
8
BLACK
6
CONTINUOUS
10
118.9064329999999927
20
-87.1780179999999945
11
118.8995559999999898
21
-87.1757800000000032
0
LINE
8
BLACK
6
CONTINUOUS
10
118.8995559999999898
20
-87.1757800000000032
11
118.5571329999999932
21
-86.9267059999999958
0
LINE
8
BLACK
6
CONTINUOUS
10
118.5571329999999932
20
-86.9267059999999958
11
118.5528750000000002
21
-86.9208189999999945
0
LINE
8
BLACK
6
CONTINUOUS
10
118.5528750000000002
20
-86.9208189999999945
11
116.9755049999999983
21
-82.0052979999999963
0
LINE
8
BLACK
6
CONTINUOUS
10
116.9755049999999983
20
-82.0052979999999963
11
116.97623999999999
21
-81.9963729999999913
0
LINE
8
BLACK
6
CONTINUOUS
10
116.97623999999999
20
-81.9963729999999913
11
116.9797769999999986
21
-81.992250999999996
0
LINE
8
BLACK
6
CONTINUOUS
10
116.9797769999999986
20
-81.992250999999996
11
117.637638999999993
21
-81.5152099999999962
0
LINE
8
BLACK
6
CONTINUOUS
10
117.637638999999993
20
-81.5152099999999962
11
117.6744489999999956
21
-81.4851099999999917
0
LINE
8
BLACK
6
CONTINUOUS
10
117.6744489999999956
20
-81.4851099999999917
11
117.717378999999994
21
-81.4003950000000032
0
LINE
8
BLACK
6
CONTINUOUS
10
117.717378999999994
20
-81.4003950000000032
11
117.7173799999999915
21
-81.400392999999994
0
LINE
8
BLACK
6
CONTINUOUS
10
117.7173799999999915
20
-81.400392999999994
11
117.7198849999999908
21
-81.3528960000000012
0
LINE
8
BLACK
6
CONTINUOUS
10
117.7198849999999908
20
-81.3528960000000012
11
117.7196319999999901
21
-80.1290819999999968
0
LINE
8
BLACK
6
CONTINUOUS
10
117.7196319999999901
20
-80.1290819999999968
11
117.7230569999999972
21
-80.1208089999999942
0
LINE
8
BLACK
6
CONTINUOUS
10
117.7230569999999972
20
-80.1208089999999942
11
117.7244579999999985
21
-80.1196119999999894
0
LINE
8
BLACK
6
CONTINUOUS
10
117.7244579999999985
20
-80.1196119999999894
11
121.7527509999999893
21
-77.1950109999999938
0
LINE
8
BLACK
6
CONTINUOUS
10
121.7527509999999893
20
-77.1950109999999938
11
121.7614589999999879
21
-77.1929239999999908
0
LINE
8
BLACK
6
CONTINUOUS
10
121.7614589999999879
20
-77.1929239999999908
11
121.7665059999999926
21
-77.1950159999999954
0
LINE
8
BLACK
6
CONTINUOUS
10
142.4044969999999921
20
-105.029010999999997
11
145.3887569999999982
21
-107.2000159999999909
0
LINE
8
BLACK
6
CONTINUOUS
10
145.3887569999999982
20
-107.2000159999999909
11
145.3934309999999925
21
-107.2076539999999909
0
LINE
8
BLACK
6
CONTINUOUS
10
145.3934309999999925
20
-107.2076539999999909
11
145.3930000000000007
21
-107.2130980000000022
0
LINE
8
BLACK
6
CONTINUOUS
10
145.3930000000000007
20
-107.2130980000000022
11
145.0366280000000074
21
-108.308023999999989
0
LINE
8
BLACK
6
CONTINUOUS
10
145.0366280000000074
20
-108.308023999999989
11
145.0238339999999937
21
-108.3590899999999948
0
LINE
8
BLACK
6
CONTINUOUS
10
145.0238339999999937
20
-108.3590899999999948
11
145.0459369999999808
21
-108.4618260000000021
0
LINE
8
BLACK
6
CONTINUOUS
10
145.0459369999999808
20
-108.4618260000000021
11
145.0459380000000067
21
-108.4618289999999945
0
LINE
8
BLACK
6
CONTINUOUS
10
145.0459380000000067
20
-108.4618289999999945
11
145.1162459999999896
21
-108.5399339999999881
0
LINE
8
BLACK
6
CONTINUOUS
10
145.1162459999999896
20
-108.5399339999999881
11
145.1162479999999846
21
-108.5399359999999973
0
LINE
8
BLACK
6
CONTINUOUS
10
145.1162479999999846
20
-108.5399359999999973
11
145.1651139999999884
21
-108.5595319999999901
0
LINE
8
BLACK
6
CONTINUOUS
10
145.1651139999999884
20
-108.5595319999999901
11
146.4505020000000002
21
-108.9773989999999912
0
LINE
8
BLACK
6
CONTINUOUS
10
146.4505020000000002
20
-108.9773989999999912
11
146.4573110000000042
21
-108.9832159999999988
0
LINE
8
BLACK
6
CONTINUOUS
10
146.4573110000000042
20
-108.9832159999999988
11
146.4580119999999965
21
-108.9921429999999987
0
LINE
8
BLACK
6
CONTINUOUS
10
146.4580119999999965
20
-108.9921429999999987
11
146.4580109999999991
21
-108.9921449999999936
0
LINE
8
BLACK
6
CONTINUOUS
10
146.4580109999999991
20
-108.9921449999999936
11
145.1926310000000058
21
-112.882015999999993
0
LINE
8
BLACK
6
CONTINUOUS
10
145.1926310000000058
20
-112.882015999999993
11
145.1926310000000058
21
-112.8820169999999905
0
LINE
8
BLACK
6
CONTINUOUS
10
145.1926310000000058
20
-112.8820169999999905
11
144.8008089999999868
21
-114.0863930000000011
0
LINE
8
BLACK
6
CONTINUOUS
10
144.8008089999999868
20
-114.0863930000000011
11
144.7965429999999856
21
-114.0922509999999903
0
LINE
8
BLACK
6
CONTINUOUS
10
144.7965429999999856
20
-114.0922509999999903
11
144.5816489999999988
21
-114.2477779999999967
0
LINE
8
BLACK
6
CONTINUOUS
10
144.5816489999999988
20
-114.2477779999999967
11
144.5747889999999813
21
-114.25
0
LINE
8
BLACK
6
CONTINUOUS
10
144.5747889999999813
20
-114.25
11
139.0713549999999827
21
-114.25
0
LINE
8
BLACK
6
CONTINUOUS
10
139.0713549999999827
20
-114.25
11
139.0630819999999801
21
-114.2465729999999979
0
LINE
8
BLACK
6
CONTINUOUS
10
139.0630819999999801
20
-114.2465729999999979
11
139.0596549999999922
21
-114.2382999999999953
0
LINE
8
BLACK
6
CONTINUOUS
10
139.0596549999999922
20
-114.2382999999999953
11
139.0596549999999922
21
-114.2382920000000013
0
LINE
8
BLACK
6
CONTINUOUS
10
139.0596549999999922
20
-114.2382920000000013
11
139.0606310000000008
21
-112.737017999999992
0
LINE
8
BLACK
6
CONTINUOUS
10
139.0606310000000008
20
-112.737017999999992
11
136.9208289999999977
21
-108.9861279999999937
0
LINE
8
BLACK
6
CONTINUOUS
10
136.9208289999999977
20
-108.9861279999999937
11
136.9197059999999908
21
-108.9772430000000014
0
LINE
8
BLACK
6
CONTINUOUS
10
136.9197059999999908
20
-108.9772430000000014
11
136.9241229999999803
21
-108.9708579999999927
0
LINE
8
BLACK
6
CONTINUOUS
10
136.9241229999999803
20
-108.9708579999999927
11
137.3486369999999965
21
-108.6630109999999974
0
LINE
8
BLACK
6
CONTINUOUS
10
137.3486369999999965
20
-108.6630109999999974
11
137.3816819999999836
21
-108.6367589999999979
0
LINE
8
BLACK
6
CONTINUOUS
10
137.3816819999999836
20
-108.6367589999999979
11
137.4239129999999989
21
-108.5637479999999897
0
LINE
8
BLACK
6
CONTINUOUS
10
137.4239129999999989
20
-108.5637479999999897
11
137.4327679999999816
21
-108.4798720000000003
0
LINE
8
BLACK
6
CONTINUOUS
10
137.4327679999999816
20
-108.4798720000000003
11
137.4214780000000076
21
-108.4391990000000021
0
LINE
8
BLACK
6
CONTINUOUS
10
137.4214780000000076
20
-108.4391990000000021
11
137.1585199999999816
21
-107.627373999999989
0
LINE
8
BLACK
6
CONTINUOUS
10
137.1585199999999816
20
-107.627373999999989
11
137.1592310000000055
21
-107.6184480000000008
0
LINE
8
BLACK
6
CONTINUOUS
10
137.1592310000000055
20
-107.6184480000000008
11
137.1628100000000074
21
-107.6142770000000013
0
LINE
8
BLACK
6
CONTINUOUS
10
137.1628100000000074
20
-107.6142770000000013
11
140.7037760000000048
21
-105.0621439999999893
0
LINE
8
BLACK
6
CONTINUOUS
10
140.7037760000000048
20
-105.0621439999999893
11
140.712491
21
-105.0600869999999958
0
LINE
8
BLACK
6
CONTINUOUS
10
140.712491
20
-105.0600869999999958
11
140.714226999999994
21
-105.0605070000000012
0
LINE
8
BLACK
6
CONTINUOUS
10
140.714226999999994
20
-105.0605070000000012
11
141.7456279999999822
21
-105.3950150000000008
0
LINE
8
BLACK
6
CONTINUOUS
10
141.7456279999999822
20
-105.3950150000000008
11
141.7456410000000062
21
-105.3950189999999907
0
LINE
8
BLACK
6
CONTINUOUS
10
141.7456410000000062
20
-105.3950189999999907
11
141.7912959999999885
21
-105.4071799999999968
0
LINE
8
BLACK
6
CONTINUOUS
10
141.7912959999999885
20
-105.4071799999999968
11
141.8844949999999869
21
-105.3924209999999988
0
LINE
8
BLACK
6
CONTINUOUS
10
141.8844949999999869
20
-105.3924209999999988
11
141.8844990000000053
21
-105.3924189999999896
0
LINE
8
BLACK
6
CONTINUOUS
10
141.8844990000000053
20
-105.3924189999999896
11
141.9241649999999879
21
-105.3667349999999914
0
LINE
8
BLACK
6
CONTINUOUS
10
141.9241649999999879
20
-105.3667349999999914
11
142.3907539999999869
21
-105.0289939999999973
0
LINE
8
BLACK
6
CONTINUOUS
10
142.3907539999999869
20
-105.0289939999999973
11
142.3994649999999922
21
-105.0269189999999924
0
LINE
8
BLACK
6
CONTINUOUS
10
142.3994649999999922
20
-105.0269189999999924
11
142.4044969999999921
21
-105.029010999999997
0
LINE
8
BLACK
6
CONTINUOUS
10
174.470784999999978
20
-93.9741739999999908
11
174.4815339999999821
21
-93.9746449999999953
0
LINE
8
BLACK
6
CONTINUOUS
10
174.4815339999999821
20
-93.9746449999999953
11
174.9388479999999788
21
-94.0143039999999957
0
LINE
8
BLACK
6
CONTINUOUS
10
174.9388479999999788
20
-94.0143039999999957
11
174.9495179999999834
21
-94.0156909999999897
0
LINE
8
BLACK
6
CONTINUOUS
10
174.9495179999999834
20
-94.0156909999999897
11
175.4017599999999959
21
-94.0942189999999954
0
LINE
8
BLACK
6
CONTINUOUS
10
175.4017599999999959
20
-94.0942189999999954
11
175.412272999999999
21
-94.096509999999995
0
LINE
8
BLACK
6
CONTINUOUS
10
175.412272999999999
20
-94.096509999999995
11
175.8561980000000062
21
-94.2133419999999973
0
LINE
8
BLACK
6
CONTINUOUS
10
175.8561980000000062
20
-94.2133419999999973
11
175.8664770000000033
21
-94.2165229999999951
0
LINE
8
BLACK
6
CONTINUOUS
10
175.8664770000000033
20
-94.2165229999999951
11
176.298784999999981
21
-94.3707939999999894
0
LINE
8
BLACK
6
CONTINUOUS
10
176.298784999999981
20
-94.3707939999999894
11
176.3087549999999908
21
-94.3748389999999944
0
LINE
8
BLACK
6
CONTINUOUS
10
176.3087549999999908
20
-94.3748389999999944
11
176.7263470000000041
21
-94.5654389999999978
0
LINE
8
BLACK
6
CONTINUOUS
10
176.7263470000000041
20
-94.5654389999999978
11
176.7359349999999836
21
-94.5703209999999928
0
LINE
8
BLACK
6
CONTINUOUS
10
176.7359349999999836
20
-94.5703209999999928
11
177.1357329999999877
21
-94.7958479999999923
0
LINE
8
BLACK
6
CONTINUOUS
10
177.1357329999999877
20
-94.7958479999999923
11
177.1448709999999949
21
-94.8015290000000022
0
LINE
8
BLACK
6
CONTINUOUS
10
177.1448709999999949
20
-94.8015290000000022
11
177.5239709999999889
21
-95.0603429999999889
0
LINE
8
BLACK
6
CONTINUOUS
10
177.5239709999999889
20
-95.0603429999999889
11
177.532589999999999
21
-95.0667839999999984
0
LINE
8
BLACK
6
CONTINUOUS
10
177.532589999999999
20
-95.0667839999999984
11
177.888227999999998
21
-95.3569990000000018
0
LINE
8
BLACK
6
CONTINUOUS
10
177.888227999999998
20
-95.3569990000000018
11
177.8962659999999971
21
-95.3641509999999926
0
LINE
8
BLACK
6
CONTINUOUS
10
177.8962659999999971
20
-95.3641509999999926
11
178.2258579999999881
21
-95.6836589999999916
0
LINE
8
BLACK
6
CONTINUOUS
10
178.2258579999999881
20
-95.6836589999999916
11
178.233255999999983
21
-95.6914719999999903
0
LINE
8
BLACK
6
CONTINUOUS
10
178.233255999999983
20
-95.6914719999999903
11
178.5343609999999899
21
-96.037904999999995
0
LINE
8
BLACK
6
CONTINUOUS
10
178.5343609999999899
20
-96.037904999999995
11
178.5410669999999982
21
-96.0463189999999969
0
LINE
8
BLACK
6
CONTINUOUS
10
178.5410669999999982
20
-96.0463189999999969
11
178.8115479999999877
21
-96.4172189999999887
0
LINE
8
BLACK
6
CONTINUOUS
10
178.8115479999999877
20
-96.4172189999999887
11
178.8175099999999986
21
-96.4261759999999981
0
LINE
8
BLACK
6
CONTINUOUS
10
178.8175099999999986
20
-96.4261759999999981
11
179.0553400000000011
21
-96.8187649999999991
0
LINE
8
BLACK
6
CONTINUOUS
10
179.0553400000000011
20
-96.8187649999999991
11
179.0605170000000044
21
-96.8281969999999887
0
LINE
8
BLACK
6
CONTINUOUS
10
179.0605170000000044
20
-96.8281969999999887
11
179.2639910000000043
21
-97.239656999999994
0
LINE
8
BLACK
6
CONTINUOUS
10
179.2639910000000043
20
-97.239656999999994
11
179.2683449999999823
21
-97.2494959999999935
0
LINE
8
BLACK
6
CONTINUOUS
10
179.2683449999999823
20
-97.2494959999999935
11
179.4359759999999824
21
-97.6768209999999897
0
LINE
8
BLACK
6
CONTINUOUS
10
179.4359759999999824
20
-97.6768209999999897
11
179.4394739999999899
21
-97.686996999999991
0
LINE
8
BLACK
6
CONTINUOUS
10
179.4394739999999899
20
-97.686996999999991
11
179.5700349999999901
21
-98.1270639999999901
0
LINE
8
BLACK
6
CONTINUOUS
10
179.5700349999999901
20
-98.1270639999999901
11
179.572652000000005
21
-98.1374999999999886
0
LINE
8
BLACK
6
CONTINUOUS
10
179.572652000000005
20
-98.1374999999999886
11
179.6651929999999879
21
-98.5871020000000016
0
LINE
8
BLACK
6
CONTINUOUS
10
179.6651929999999879
20
-98.5871020000000016
11
179.6669100000000014
21
-98.5977239999999995
0
LINE
8
BLACK
6
CONTINUOUS
10
179.6669100000000014
20
-98.5977239999999995
11
179.720753000000002
21
-99.0535730000000001
0
LINE
8
BLACK
6
CONTINUOUS
10
179.720753000000002
20
-99.0535730000000001
11
179.7215579999999875
21
-99.0643019999999979
0
LINE
8
BLACK
6
CONTINUOUS
10
179.7215579999999875
20
-99.0643019999999979
11
179.736315999999988
21
-99.5230979999999903
0
LINE
8
BLACK
6
CONTINUOUS
10
179.736315999999988
20
-99.5230979999999903
11
179.7362019999999916
21
-99.5338569999999976
0
LINE
8
BLACK
6
CONTINUOUS
10
179.7362019999999916
20
-99.5338569999999976
11
179.7117629999999906
21
-99.9922239999999931
0
LINE
8
BLACK
6
CONTINUOUS
10
179.7117629999999906
20
-99.9922239999999931
11
179.7107319999999788
21
-100.0029339999999962
0
LINE
8
BLACK
6
CONTINUOUS
10
179.7107319999999788
20
-100.0029339999999962
11
179.6472760000000051
21
-100.4575479999999885
0
LINE
8
BLACK
6
CONTINUOUS
10
179.6472760000000051
20
-100.4575479999999885
11
179.6453349999999887
21
-100.4681319999999971
0
LINE
8
BLACK
6
CONTINUOUS
10
179.6453349999999887
20
-100.4681319999999971
11
179.5433219999999892
21
-100.9156849999999963
0
LINE
8
BLACK
6
CONTINUOUS
10
179.5433219999999892
20
-100.9156849999999963
11
179.5404849999999897
21
-100.9260629999999992
0
LINE
8
BLACK
6
CONTINUOUS
10
179.5404849999999897
20
-100.9260629999999992
11
179.4006660000000011
21
-101.3632649999999984
0
LINE
8
BLACK
6
CONTINUOUS
10
179.4006660000000011
20
-101.3632649999999984
11
179.3969539999999938
21
-101.3733639999999951
0
LINE
8
BLACK
6
CONTINUOUS
10
179.3969539999999938
20
-101.3733639999999951
11
179.2203389999999956
21
-101.7970569999999952
0
LINE
8
BLACK
6
CONTINUOUS
10
179.2203389999999956
20
-101.7970569999999952
11
179.2157789999999977
21
-101.8068030000000022
0
LINE
8
BLACK
6
CONTINUOUS
10
179.2157789999999977
20
-101.8068030000000022
11
179.0036629999999889
21
-102.2138759999999991
0
LINE
8
BLACK
6
CONTINUOUS
10
179.0036629999999889
20
-102.2138759999999991
11
178.9982880000000023
21
-102.223196999999999
0
LINE
8
BLACK
6
CONTINUOUS
10
178.9982880000000023
20
-102.223196999999999
11
178.7522160000000042
21
-102.6106889999999936
0
LINE
8
BLACK
6
CONTINUOUS
10
178.7522160000000042
20
-102.6106889999999936
11
178.7460659999999848
21
-102.6195170000000019
0
LINE
8
BLACK
6
CONTINUOUS
10
178.7460659999999848
20
-102.6195170000000019
11
178.4678289999999947
21
-102.9846069999999969
0
LINE
8
BLACK
6
CONTINUOUS
10
178.4678289999999947
20
-102.9846069999999969
11
178.4609470000000044
21
-102.9928790000000021
0
LINE
8
BLACK
6
CONTINUOUS
10
178.4609470000000044
20
-102.9928790000000021
11
178.1525780000000054
21
-103.3328969999999885
0
LINE
8
BLACK
6
CONTINUOUS
10
178.1525780000000054
20
-103.3328969999999885
11
178.1450159999999983
21
-103.3405509999999907
0
LINE
8
BLACK
6
CONTINUOUS
10
178.1450159999999983
20
-103.3405509999999907
11
177.808764999999994
21
-103.6530179999999888
0
LINE
8
BLACK
6
CONTINUOUS
10
177.808764999999994
20
-103.6530179999999888
11
177.8005780000000016
21
-103.6599989999999991
0
LINE
8
BLACK
6
CONTINUOUS
10
177.8005780000000016
20
-103.6599989999999991
11
177.4388909999999839
21
-103.9426419999999922
0
LINE
8
BLACK
6
CONTINUOUS
10
177.4388909999999839
20
-103.9426419999999922
11
177.4301379999999995
21
-103.9488989999999973
0
LINE
8
BLACK
6
CONTINUOUS
10
177.4301379999999995
20
-103.9488989999999973
11
177.0456609999999955
21
-104.1996509999999887
0
LINE
8
BLACK
6
CONTINUOUS
10
177.0456609999999955
20
-104.1996509999999887
11
177.0364059999999995
21
-104.2051389999999884
0
LINE
8
BLACK
6
CONTINUOUS
10
177.0364059999999995
20
-104.2051389999999884
11
176.6319320000000062
21
-104.4221769999999907
0
LINE
8
BLACK
6
CONTINUOUS
10
176.6319320000000062
20
-104.4221769999999907
11
176.6222429999999974
21
-104.4268549999999891
0
LINE
8
BLACK
6
CONTINUOUS
10
176.6222429999999974
20
-104.4268549999999891
11
176.2007209999999873
21
-104.6085980000000006
0
LINE
8
BLACK
6
CONTINUOUS
10
176.2007209999999873
20
-104.6085980000000006
11
176.1906669999999906
21
-104.6124319999999983
0
LINE
8
BLACK
6
CONTINUOUS
10
176.1906669999999906
20
-104.6124319999999983
11
175.7551939999999888
21
-104.7575420000000008
0
LINE
8
BLACK
6
CONTINUOUS
10
175.7551939999999888
20
-104.7575420000000008
11
175.7448499999999854
21
-104.7605039999999974
0
LINE
8
BLACK
6
CONTINUOUS
10
175.7448499999999854
20
-104.7605039999999974
11
175.2985689999999863
21
-104.8679369999999977
0
LINE
8
BLACK
6
CONTINUOUS
10
175.2985689999999863
20
-104.8679369999999977
11
175.2880099999999857
21
-104.8700070000000011
0
LINE
8
BLACK
6
CONTINUOUS
10
175.2880099999999857
20
-104.8700070000000011
11
174.8341979999999865
21
-104.9389709999999951
0
LINE
8
BLACK
6
CONTINUOUS
10
174.8341979999999865
20
-104.9389709999999951
11
174.8235019999999906
21
-104.9401319999999913
0
LINE
8
BLACK
6
CONTINUOUS
10
174.8235019999999906
20
-104.9401319999999913
11
174.7335649999999987
21
-104.9460219999999993
0
LINE
8
BLACK
6
CONTINUOUS
10
174.7335649999999987
20
-104.9460219999999993
11
174.7217399999999827
21
-104.9462399999999889
0
LINE
8
BLACK
6
CONTINUOUS
10
174.7217399999999827
20
-104.9462399999999889
11
173.4171099999999797
21
-104.909041000000002
0
LINE
8
BLACK
6
CONTINUOUS
10
173.4171099999999797
20
-104.909041000000002
11
173.3980939999999862
21
-104.9070469999999915
0
LINE
8
BLACK
6
CONTINUOUS
10
173.3980939999999862
20
-104.9070469999999915
11
173.192120999999986
21
-104.8694809999999933
0
LINE
8
BLACK
6
CONTINUOUS
10
173.192120999999986
20
-104.8694809999999933
11
173.1077239999999904
21
-104.8566599999999909
0
LINE
8
BLACK
6
CONTINUOUS
10
173.1077239999999904
20
-104.8566599999999909
11
173.0635329999999783
21
-104.8633079999999893
0
LINE
8
BLACK
6
CONTINUOUS
10
173.0635329999999783
20
-104.8633079999999893
11
172.9946510000000046
21
-104.8543049999999965
0
LINE
8
BLACK
6
CONTINUOUS
10
172.9946510000000046
20
-104.8543049999999965
11
171.4537440000000004
21
-104.1859609999999918
0
LINE
8
BLACK
6
CONTINUOUS
10
171.4537440000000004
20
-104.1859609999999918
11
171.4280349999999942
21
-104.1709800000000001
0
LINE
8
BLACK
6
CONTINUOUS
10
171.4280349999999942
20
-104.1709800000000001
11
170.1528089999999906
21
-103.2096559999999954
0
LINE
8
BLACK
6
CONTINUOUS
10
170.1528089999999906
20
-103.2096559999999954
11
170.1300200000000018
21
-103.1874449999999968
0
LINE
8
BLACK
6
CONTINUOUS
10
170.1300200000000018
20
-103.1874449999999968
11
169.915633999999983
21
-102.9177329999999984
0
LINE
8
BLACK
6
CONTINUOUS
10
169.915633999999983
20
-102.9177329999999984
11
169.8911599999999851
21
-102.8661630000000002
0
LINE
8
BLACK
6
CONTINUOUS
10
169.8911599999999851
20
-102.8661630000000002
11
169.8852669999999989
21
-102.8391259999999932
0
LINE
8
BLACK
6
CONTINUOUS
10
169.8852669999999989
20
-102.8391259999999932
11
169.8544420000000059
21
-102.7940289999999948
0
LINE
8
BLACK
6
CONTINUOUS
10
169.8544420000000059
20
-102.7940289999999948
11
169.7172649999999976
21
-102.6092149999999918
0
LINE
8
BLACK
6
CONTINUOUS
10
169.7172649999999976
20
-102.6092149999999918
11
169.7119280000000003
21
-102.6014330000000001
0
LINE
8
BLACK
6
CONTINUOUS
10
169.7119280000000003
20
-102.6014330000000001
11
169.4663329999999917
21
-102.2128299999999967
0
LINE
8
BLACK
6
CONTINUOUS
10
169.4663329999999917
20
-102.2128299999999967
11
169.4609789999999805
21
-102.2034969999999987
0
LINE
8
BLACK
6
CONTINUOUS
10
169.4609789999999805
20
-102.2034969999999987
11
169.2497539999999958
21
-101.7959729999999894
0
LINE
8
BLACK
6
CONTINUOUS
10
169.2497539999999958
20
-101.7959729999999894
11
169.2452150000000017
21
-101.786217999999991
0
LINE
8
BLACK
6
CONTINUOUS
10
169.2452150000000017
20
-101.786217999999991
11
169.0695199999999829
21
-101.3621399999999966
0
LINE
8
BLACK
6
CONTINUOUS
10
169.0695199999999829
20
-101.3621399999999966
11
169.0658300000000054
21
-101.3520319999999941
0
LINE
8
BLACK
6
CONTINUOUS
10
169.0658300000000054
20
-101.3520319999999941
11
168.9269630000000006
21
-100.9145309999999967
0
LINE
8
BLACK
6
CONTINUOUS
10
168.9269630000000006
20
-100.9145309999999967
11
168.9241480000000024
21
-100.9041459999999972
0
LINE
8
BLACK
6
CONTINUOUS
10
168.9241480000000024
20
-100.9041459999999972
11
168.8231089999999881
21
-100.4563720000000018
0
LINE
8
BLACK
6
CONTINUOUS
10
168.8231089999999881
20
-100.4563720000000018
11
168.8211909999999989
21
-100.4457850000000008
0
LINE
8
BLACK
6
CONTINUOUS
10
168.8211909999999989
20
-100.4457850000000008
11
168.7587230000000034
21
-99.9910339999999991
0
LINE
8
BLACK
6
CONTINUOUS
10
168.7587230000000034
20
-99.9910339999999991
11
168.7577149999999904
21
-99.980322000000001
0
LINE
8
BLACK
6
CONTINUOUS
10
168.7577149999999904
20
-99.980322000000001
11
168.7396719999999846
21
-99.6275139999999908
0
LINE
8
BLACK
6
CONTINUOUS
10
168.7396719999999846
20
-99.6275139999999908
11
170.6356710000000021
21
-99.6275139999999908
0
LINE
8
BLACK
6
CONTINUOUS
10
170.6356710000000021
20
-99.6275139999999908
11
170.6726819999999805
21
-100.0079089999999979
0
LINE
8
BLACK
6
CONTINUOUS
10
170.6726819999999805
20
-100.0079089999999979
11
170.6726840000000038
21
-100.0079259999999977
0
LINE
8
BLACK
6
CONTINUOUS
10
170.6726840000000038
20
-100.0079259999999977
11
170.7497679999999889
21
-100.3822399999999959
0
LINE
8
BLACK
6
CONTINUOUS
10
170.7497679999999889
20
-100.3822399999999959
11
170.7497709999999813
21
-100.382251999999994
0
LINE
8
BLACK
6
CONTINUOUS
10
170.7497709999999813
20
-100.382251999999994
11
170.8660619999999994
21
-100.7463049999999924
0
LINE
8
BLACK
6
CONTINUOUS
10
170.8660619999999994
20
-100.7463049999999924
11
170.8660659999999893
21
-100.7463159999999931
0
LINE
8
BLACK
6
CONTINUOUS
10
170.8660659999999893
20
-100.7463159999999931
11
171.0202689999999848
21
-101.0960299999999989
0
LINE
8
BLACK
6
CONTINUOUS
10
171.0202689999999848
20
-101.0960299999999989
11
171.0202699999999822
21
-101.0960329999999914
0
LINE
8
BLACK
6
CONTINUOUS
10
171.0202699999999822
20
-101.0960329999999914
11
171.2106310000000065
21
-101.4274360000000001
0
LINE
8
BLACK
6
CONTINUOUS
10
171.2106310000000065
20
-101.4274360000000001
11
171.2106389999999863
21
-101.4274489999999957
0
LINE
8
BLACK
6
CONTINUOUS
10
171.2106389999999863
20
-101.4274489999999957
11
171.4350269999999909
21
-101.7368299999999977
0
LINE
8
BLACK
6
CONTINUOUS
10
171.4350269999999909
20
-101.7368299999999977
11
171.4350279999999884
21
-101.7368309999999951
0
LINE
8
BLACK
6
CONTINUOUS
10
171.4350279999999884
20
-101.7368309999999951
11
171.6909169999999847
21
-102.0207079999999991
0
LINE
8
BLACK
6
CONTINUOUS
10
171.6909169999999847
20
-102.0207079999999991
11
171.6909320000000037
21
-102.0207229999999896
0
LINE
8
BLACK
6
CONTINUOUS
10
171.6909320000000037
20
-102.0207229999999896
11
171.9754419999999868
21
-102.2759020000000021
0
LINE
8
BLACK
6
CONTINUOUS
10
171.9754419999999868
20
-102.2759020000000021
11
172.2853899999999783
21
-102.4995270000000005
0
LINE
8
BLACK
6
CONTINUOUS
10
172.2853899999999783
20
-102.4995270000000005
11
172.6172779999999989
21
-102.689070000000001
0
LINE
8
BLACK
6
CONTINUOUS
10
172.6172779999999989
20
-102.689070000000001
11
172.6172789999999964
21
-102.6890709999999984
0
LINE
8
BLACK
6
CONTINUOUS
10
172.6172789999999964
20
-102.6890709999999984
11
172.9673679999999933
21
-102.8423979999999887
0
LINE
8
BLACK
6
CONTINUOUS
10
172.9673679999999933
20
-102.8423979999999887
11
172.9673709999999858
21
-102.8423990000000003
0
LINE
8
BLACK
6
CONTINUOUS
10
172.9673709999999858
20
-102.8423990000000003
11
173.3317260000000033
21
-102.9577899999999886
0
LINE
8
BLACK
6
CONTINUOUS
10
173.3317260000000033
20
-102.9577899999999886
11
173.518509999999992
21
-102.9982849999999956
0
LINE
8
BLACK
6
CONTINUOUS
10
173.518509999999992
20
-102.9982849999999956
11
173.5596429999999941
21
-103.0047229999999985
0
LINE
8
BLACK
6
CONTINUOUS
10
173.5596429999999941
20
-103.0047229999999985
11
173.6409639999999968
21
-102.9872569999999996
0
LINE
8
BLACK
6
CONTINUOUS
10
173.6409639999999968
20
-102.9872569999999996
11
173.6758609999999976
21
-102.9644979999999919
0
LINE
8
BLACK
6
CONTINUOUS
10
173.6758609999999976
20
-102.9644979999999919
11
177.730006000000003
21
-100.0189319999999924
0
LINE
8
BLACK
6
CONTINUOUS
10
177.730006000000003
20
-100.0189319999999924
11
177.7623879999999872
21
-99.9927899999999994
0
LINE
8
BLACK
6
CONTINUOUS
10
177.7623879999999872
20
-99.9927899999999994
11
177.8042449999999803
21
-99.9209809999999976
0
LINE
8
BLACK
6
CONTINUOUS
10
177.8042449999999803
20
-99.9209809999999976
11
177.8042449999999803
21
-99.9209800000000001
0
LINE
8
BLACK
6
CONTINUOUS
10
177.8042449999999803
20
-99.9209800000000001
11
177.8110259999999982
21
-99.8799449999999922
0
LINE
8
BLACK
6
CONTINUOUS
10
177.8110259999999982
20
-99.8799449999999922
11
177.8110289999999907
21
-99.8799239999999884
0
LINE
8
BLACK
6
CONTINUOUS
10
177.8110289999999907
20
-99.8799239999999884
11
177.8303579999999897
21
-99.6898059999999901
0
LINE
8
BLACK
6
CONTINUOUS
10
177.8303579999999897
20
-99.6898059999999901
11
177.8335380000000043
21
-99.3076319999999981
0
LINE
8
BLACK
6
CONTINUOUS
10
177.8335380000000043
20
-99.3076319999999981
11
177.7961969999999781
21
-98.9273000000000025
0
LINE
8
BLACK
6
CONTINUOUS
10
177.7961969999999781
20
-98.9273000000000025
11
177.7961959999999806
21
-98.9272919999999942
0
LINE
8
BLACK
6
CONTINUOUS
10
177.7961959999999806
20
-98.9272919999999942
11
177.7187539999999899
21
-98.5530550000000005
0
LINE
8
BLACK
6
CONTINUOUS
10
177.7187539999999899
20
-98.5530550000000005
11
177.7187529999999924
21
-98.5530539999999888
0
LINE
8
BLACK
6
CONTINUOUS
10
177.7187529999999924
20
-98.5530539999999888
11
177.6020759999999825
21
-98.189115000000001
0
LINE
8
BLACK
6
CONTINUOUS
10
177.6020759999999825
20
-98.189115000000001
11
177.6020739999999876
21
-98.1891069999999928
0
LINE
8
BLACK
6
CONTINUOUS
10
177.6020739999999876
20
-98.1891069999999928
11
177.4474969999999985
21
-97.839618999999999
0
LINE
8
BLACK
6
CONTINUOUS
10
177.4474969999999985
20
-97.839618999999999
11
177.4474859999999978
21
-97.8395960000000002
0
LINE
8
BLACK
6
CONTINUOUS
10
177.4474859999999978
20
-97.8395960000000002
11
177.2567279999999812
21
-97.5084429999999998
0
LINE
8
BLACK
6
CONTINUOUS
10
177.2567279999999812
20
-97.5084429999999998
11
177.0319399999999916
21
-97.1993659999999977
0
LINE
8
BLACK
6
CONTINUOUS
10
177.0319399999999916
20
-97.1993659999999977
11
176.7756629999999802
21
-96.9158549999999934
0
LINE
8
BLACK
6
CONTINUOUS
10
176.7756629999999802
20
-96.9158549999999934
11
176.7756559999999979
21
-96.9158479999999969
0
LINE
8
BLACK
6
CONTINUOUS
10
176.7756559999999979
20
-96.9158479999999969
11
176.4907780000000059
21
-96.6611029999999971
0
LINE
8
BLACK
6
CONTINUOUS
10
176.4907780000000059
20
-96.6611029999999971
11
176.4907659999999794
21
-96.6610929999999939
0
LINE
8
BLACK
6
CONTINUOUS
10
176.4907659999999794
20
-96.6610929999999939
11
176.180499999999995
21
-96.4379830000000027
0
LINE
8
BLACK
6
CONTINUOUS
10
176.180499999999995
20
-96.4379830000000027
11
176.1804860000000019
21
-96.437973999999997
0
LINE
8
BLACK
6
CONTINUOUS
10
176.1804860000000019
20
-96.437973999999997
11
175.8483209999999985
21
-96.2490030000000019
0
LINE
8
BLACK
6
CONTINUOUS
10
175.8483209999999985
20
-96.2490030000000019
11
175.848321999999996
21
-96.2490030000000019
0
LINE
8
BLACK
6
CONTINUOUS
10
175.848321999999996
20
-96.2490030000000019
11
175.4979809999999816
21
-96.0962949999999978
0
LINE
8
BLACK
6
CONTINUOUS
10
175.4979809999999816
20
-96.0962949999999978
11
175.1334319999999991
21
-95.981577999999999
0
LINE
8
BLACK
6
CONTINUOUS
10
175.1334319999999991
20
-95.981577999999999
11
175.1334070000000054
21
-95.9815719999999999
0
LINE
8
BLACK
6
CONTINUOUS
10
175.1334070000000054
20
-95.9815719999999999
11
174.9458139999999844
21
-95.941322999999997
0
LINE
8
BLACK
6
CONTINUOUS
10
174.9458139999999844
20
-95.941322999999997
11
174.9458019999999863
21
-95.9413210000000021
0
LINE
8
BLACK
6
CONTINUOUS
10
174.9458019999999863
20
-95.9413210000000021
11
174.9047049999999786
21
-95.9351529999999997
0
LINE
8
BLACK
6
CONTINUOUS
10
174.9047049999999786
20
-95.9351529999999997
11
174.8235799999999927
21
-95.9528449999999964
0
LINE
8
BLACK
6
CONTINUOUS
10
174.8235799999999927
20
-95.9528449999999964
11
174.7887810000000002
21
-95.9755559999999974
0
LINE
8
BLACK
6
CONTINUOUS
10
174.7887810000000002
20
-95.9755559999999974
11
170.7395740000000046
21
-98.9165179999999964
0
LINE
8
BLACK
6
CONTINUOUS
10
170.7395740000000046
20
-98.9165179999999964
11
170.7072609999999884
21
-98.9425990000000013
0
LINE
8
BLACK
6
CONTINUOUS
10
170.7072609999999884
20
-98.9425990000000013
11
170.7072599999999909
21
-98.9426009999999962
0
LINE
8
BLACK
6
CONTINUOUS
10
170.7072599999999909
20
-98.9426009999999962
11
170.6654460000000029
21
-99.0142400000000009
0
LINE
8
BLACK
6
CONTINUOUS
10
170.6654460000000029
20
-99.0142400000000009
11
170.6654439999999795
21
-99.014246
0
LINE
8
BLACK
6
CONTINUOUS
10
170.6654439999999795
20
-99.014246
11
170.6586259999999982
21
-99.0551759999999888
0
LINE
8
BLACK
6
CONTINUOUS
10
170.6586259999999982
20
-99.0551759999999888
11
170.6586199999999849
21
-99.055222999999998
0
LINE
8
BLACK
6
CONTINUOUS
10
170.6586199999999849
20
-99.055222999999998
11
170.6391519999999957
21
-99.2453119999999984
0
LINE
8
BLACK
6
CONTINUOUS
10
170.6391519999999957
20
-99.2453119999999984
11
170.6391519999999957
21
-99.2453229999999991
0
LINE
8
BLACK
6
CONTINUOUS
10
170.6391519999999957
20
-99.2453229999999991
11
170.6356710000000021
21
-99.6275139999999908
0
LINE
8
BLACK
6
CONTINUOUS
10
170.6356710000000021
20
-99.6275139999999908
11
168.7396719999999846
21
-99.6275139999999908
0
LINE
8
BLACK
6
CONTINUOUS
10
168.7396719999999846
20
-99.6275139999999908
11
168.7342709999999784
21
-99.521891999999994
0
LINE
8
BLACK
6
CONTINUOUS
10
168.7342709999999784
20
-99.521891999999994
11
168.7341809999999782
21
-99.5111319999999893
0
LINE
8
BLACK
6
CONTINUOUS
10
168.7341809999999782
20
-99.5111319999999893
11
168.7499359999999911
21
-99.0523809999999969
0
LINE
8
BLACK
6
CONTINUOUS
10
168.7499359999999911
20
-99.0523809999999969
11
168.7507640000000038
21
-99.0416539999999941
0
LINE
8
BLACK
6
CONTINUOUS
10
168.7507640000000038
20
-99.0416539999999941
11
168.8055999999999983
21
-98.5859079999999892
0
LINE
8
BLACK
6
CONTINUOUS
10
168.8055999999999983
20
-98.5859079999999892
11
168.8073409999999797
21
-98.5752899999999954
0
LINE
8
BLACK
6
CONTINUOUS
10
168.8073409999999797
20
-98.5752899999999954
11
168.9008539999999812
21
-98.1259110000000021
0
LINE
8
BLACK
6
CONTINUOUS
10
168.9008539999999812
20
-98.1259110000000021
11
168.9034939999999949
21
-98.1154799999999909
0
LINE
8
BLACK
6
CONTINUOUS
10
168.9034939999999949
20
-98.1154799999999909
11
169.0350149999999871
21
-97.6756899999999888
0
LINE
8
BLACK
6
CONTINUOUS
10
169.0350149999999871
20
-97.6756899999999888
11
169.0385339999999985
21
-97.6655229999999932
0
LINE
8
BLACK
6
CONTINUOUS
10
169.0385339999999985
20
-97.6655229999999932
11
169.2070919999999887
21
-97.2385629999999992
0
LINE
8
BLACK
6
CONTINUOUS
10
169.2070919999999887
20
-97.2385629999999992
11
169.211466999999999
21
-97.2287329999999912
0
LINE
8
BLACK
6
CONTINUOUS
10
169.211466999999999
20
-97.2287329999999912
11
169.4158349999999871
21
-96.8177170000000018
0
LINE
8
BLACK
6
CONTINUOUS
10
169.4158349999999871
20
-96.8177170000000018
11
169.4210329999999942
21
-96.8082950000000011
0
LINE
8
BLACK
6
CONTINUOUS
10
169.4210329999999942
20
-96.8082950000000011
11
169.6597229999999854
21
-96.4162129999999991
0
LINE
8
BLACK
6
CONTINUOUS
10
169.6597229999999854
20
-96.4162129999999991
11
169.6657050000000027
21
-96.4072699999999969
0
LINE
8
BLACK
6
CONTINUOUS
10
169.6657050000000027
20
-96.4072699999999969
11
169.9369759999999872
21
-96.0369799999999998
0
LINE
8
BLACK
6
CONTINUOUS
10
169.9369759999999872
20
-96.0369799999999998
11
169.943698999999981
21
-96.0285799999999909
0
LINE
8
BLACK
6
CONTINUOUS
10
169.943698999999981
20
-96.0285799999999909
11
170.2455769999999973
21
-95.682777999999999
0
LINE
8
BLACK
6
CONTINUOUS
10
170.2455769999999973
20
-95.682777999999999
11
170.2529930000000036
21
-95.674982
0
LINE
8
BLACK
6
CONTINUOUS
10
170.2529930000000036
20
-95.674982
11
170.5832659999999805
21
-95.3562029999999936
0
LINE
8
BLACK
6
CONTINUOUS
10
170.5832659999999805
20
-95.3562029999999936
11
170.5913199999999961
21
-95.3490680000000026
0
LINE
8
BLACK
6
CONTINUOUS
10
170.5913199999999961
20
-95.3490680000000026
11
170.9475850000000037
21
-95.059629000000001
0
LINE
8
BLACK
6
CONTINUOUS
10
170.9475850000000037
20
-95.059629000000001
11
170.9562179999999785
21
-95.0532070000000004
0
LINE
8
BLACK
6
CONTINUOUS
10
170.9562179999999785
20
-95.0532070000000004
11
171.3358800000000031
21
-94.7952179999999913
0
LINE
8
BLACK
6
CONTINUOUS
10
171.3358800000000031
20
-94.7952179999999913
11
171.3450289999999825
21
-94.7895559999999904
0
LINE
8
BLACK
6
CONTINUOUS
10
171.3450289999999825
20
-94.7895559999999904
11
171.7453319999999906
21
-94.5648899999999912
0
LINE
8
BLACK
6
CONTINUOUS
10
171.7453319999999906
20
-94.5648899999999912
11
171.7549309999999991
21
-94.5600299999999976
0
LINE
8
BLACK
6
CONTINUOUS
10
171.7549309999999991
20
-94.5600299999999976
11
172.1729139999999916
21
-94.3703479999999928
0
LINE
8
BLACK
6
CONTINUOUS
10
172.1729139999999916
20
-94.3703479999999928
11
172.1828929999999787
21
-94.3663239999999917
0
LINE
8
BLACK
6
CONTINUOUS
10
172.1828929999999787
20
-94.3663239999999917
11
172.615554000000003
21
-94.2129869999999983
0
LINE
8
BLACK
6
CONTINUOUS
10
172.615554000000003
20
-94.2129869999999983
11
172.6258399999999824
21
-94.2098289999999992
0
LINE
8
BLACK
6
CONTINUOUS
10
172.6258399999999824
20
-94.2098289999999992
11
173.0699999999999932
21
-94.0939659999999947
0
LINE
8
BLACK
6
CONTINUOUS
10
173.0699999999999932
20
-94.0939659999999947
11
173.0805179999999837
21
-94.0916969999999964
0
LINE
8
BLACK
6
CONTINUOUS
10
173.0805179999999837
20
-94.0916969999999964
11
173.5329480000000046
21
-94.0141500000000008
0
LINE
8
BLACK
6
CONTINUOUS
10
173.5329480000000046
20
-94.0141500000000008
11
173.5436210000000017
21
-94.0127869999999888
0
LINE
8
BLACK
6
CONTINUOUS
10
173.5436210000000017
20
-94.0127869999999888
11
174.0010079999999846
21
-93.9741219999999942
0
LINE
8
BLACK
6
CONTINUOUS
10
174.0010079999999846
20
-93.9741219999999942
11
174.0117579999999862
21
-93.9736740000000026
0
LINE
8
BLACK
6
CONTINUOUS
10
174.0117579999999862
20
-93.9736740000000026
11
174.470784999999978
21
-93.9741739999999908
0
LINE
8
BLACK
6
CONTINUOUS
10
114.6586729999999932
20
-81.1102139999999991
11
114.6669449999999983
21
-81.1136439999999936
0
LINE
8
BLACK
6
CONTINUOUS
10
114.6669449999999983
20
-81.1136439999999936
11
114.6681329999999974
21
-81.1150370000000009
0
LINE
8
BLACK
6
CONTINUOUS
10
114.6681329999999974
20
-81.1150370000000009
11
115.3906080000000003
21
-82.1093869999999981
0
LINE
8
BLACK
6
CONTINUOUS
10
115.3906080000000003
20
-82.1093869999999981
11
115.3906429999999972
21
-82.1094319999999982
0
LINE
8
BLACK
6
CONTINUOUS
10
115.3906429999999972
20
-82.1094319999999982
11
115.4203809999999919
21
-82.1462559999999939
0
LINE
8
BLACK
6
CONTINUOUS
10
115.4203809999999919
20
-82.1462559999999939
11
115.4203819999999894
21
-82.1462569999999914
0
LINE
8
BLACK
6
CONTINUOUS
10
115.4203819999999894
20
-82.1462569999999914
11
115.5045810000000017
21
-82.1892709999999909
0
LINE
8
BLACK
6
CONTINUOUS
10
115.5045810000000017
20
-82.1892709999999909
11
115.5518569999999983
21
-82.1918059999999997
0
LINE
8
BLACK
6
CONTINUOUS
10
115.5518569999999983
20
-82.1918059999999997
11
115.5518519999999967
21
-82.1918059999999997
0
LINE
8
BLACK
6
CONTINUOUS
10
115.5518519999999967
20
-82.1918059999999997
11
116.3795729999999935
21
-82.1918149999999912
0
LINE
8
BLACK
6
CONTINUOUS
10
116.3795729999999935
20
-82.1918149999999912
11
116.3878459999999961
21
-82.1952419999999933
0
LINE
8
BLACK
6
CONTINUOUS
10
116.3878459999999961
20
-82.1952419999999933
11
116.3906589999999994
21
-82.1997739999999908
0
LINE
8
BLACK
6
CONTINUOUS
10
116.3906589999999994
20
-82.1997739999999908
11
117.9052749999999889
21
-86.6885449999999906
0
LINE
8
BLACK
6
CONTINUOUS
10
117.9052749999999889
20
-86.6885449999999906
11
117.9053159999999991
21
-86.6886700000000019
0
LINE
8
BLACK
6
CONTINUOUS
10
117.9053159999999991
20
-86.6886700000000019
11
117.9778069999999985
21
-86.9117739999999941
0
LINE
8
BLACK
6
CONTINUOUS
10
117.9778069999999985
20
-86.9117739999999941
11
117.9780589999999876
21
-86.9181109999999961
0
LINE
8
BLACK
6
CONTINUOUS
10
117.9780589999999876
20
-86.9181109999999961
11
117.9073139999999995
21
-87.2139540000000011
0
LINE
8
BLACK
6
CONTINUOUS
10
117.9073139999999995
20
-87.2139540000000011
11
117.9070629999999937
21
-87.2148449999999968
0
LINE
8
BLACK
6
CONTINUOUS
10
117.9070629999999937
20
-87.2148449999999968
11
117.8537549999999925
21
-87.3790740000000028
0
LINE
8
BLACK
6
CONTINUOUS
10
117.8537549999999925
20
-87.3790740000000028
11
117.8495149999999967
21
-87.3849189999999965
0
LINE
8
BLACK
6
CONTINUOUS
10
117.8495149999999967
20
-87.3849189999999965
11
112.9373789999999929
21
-90.962773999999996
0
LINE
8
BLACK
6
CONTINUOUS
10
112.9373789999999929
20
-90.962773999999996
11
112.9304909999999893
21
-90.9650169999999889
0
LINE
8
BLACK
6
CONTINUOUS
10
112.9304909999999893
20
-90.9650169999999889
11
112.7314349999999905
21
-90.9650169999999889
0
LINE
8
BLACK
6
CONTINUOUS
10
112.7314349999999905
20
-90.9650169999999889
11
112.7245549999999952
21
-90.9627809999999926
0
LINE
8
BLACK
6
CONTINUOUS
10
112.7245549999999952
20
-90.9627809999999926
11
108.5679379999999981
21
-87.9410290000000003
0
LINE
8
BLACK
6
CONTINUOUS
10
108.5679379999999981
20
-87.9410290000000003
11
108.5632619999999946
21
-87.9333919999999978
0
LINE
8
BLACK
6
CONTINUOUS
10
108.5632619999999946
20
-87.9333919999999978
11
108.5639219999999909
21
-87.9273029999999949
0
LINE
8
BLACK
6
CONTINUOUS
10
108.5639219999999909
20
-87.9273029999999949
11
108.7478660000000019
21
-87.4570709999999991
0
LINE
8
BLACK
6
CONTINUOUS
10
108.7478660000000019
20
-87.4570709999999991
11
108.7500259999999912
21
-87.4535499999999928
0
LINE
8
BLACK
6
CONTINUOUS
10
108.7500259999999912
20
-87.4535499999999928
11
111.6976399999999927
21
-84.1451050000000009
0
LINE
8
BLACK
6
CONTINUOUS
10
111.6976399999999927
20
-84.1451050000000009
11
111.7388129999999933
21
-84.0957099999999969
0
LINE
8
BLACK
6
CONTINUOUS
10
111.7388129999999933
20
-84.0957099999999969
11
111.7388139999999908
21
-84.0957080000000019
0
LINE
8
BLACK
6
CONTINUOUS
10
111.7388139999999908
20
-84.0957080000000019
11
111.796953000000002
21
-83.9810109999999952
0
LINE
8
BLACK
6
CONTINUOUS
10
111.796953000000002
20
-83.9810109999999952
11
111.8241259999999926
21
-83.8553249999999935
0
LINE
8
BLACK
6
CONTINUOUS
10
111.8241259999999926
20
-83.8553249999999935
11
111.8185599999999909
21
-83.726863999999992
0
LINE
8
BLACK
6
CONTINUOUS
10
111.8185599999999909
20
-83.726863999999992
11
111.8185589999999934
21
-83.7268569999999954
0
LINE
8
BLACK
6
CONTINUOUS
10
111.8185589999999934
20
-83.7268569999999954
11
111.780619999999999
21
-83.6040019999999942
0
LINE
8
BLACK
6
CONTINUOUS
10
111.780619999999999
20
-83.6040019999999942
11
111.7483239999999967
21
-83.5483479999999901
0
LINE
8
BLACK
6
CONTINUOUS
10
111.7483239999999967
20
-83.5483479999999901
11
110.7057369999999992
21
-81.8730869999999982
0
LINE
8
BLACK
6
CONTINUOUS
10
110.7057369999999992
20
-81.8730869999999982
11
110.7055409999999966
21
-81.872760999999997
0
LINE
8
BLACK
6
CONTINUOUS
10
110.7055409999999966
20
-81.872760999999997
11
110.6729709999999898
21
-81.8164199999999937
0
LINE
8
BLACK
6
CONTINUOUS
10
110.6729709999999898
20
-81.8164199999999937
11
110.6718869999999981
21
-81.8139049999999912
0
LINE
8
BLACK
6
CONTINUOUS
10
110.6718869999999981
20
-81.8139049999999912
11
110.6346869999999996
21
-81.6890649999999994
0
LINE
8
BLACK
6
CONTINUOUS
10
110.6346869999999996
20
-81.6890649999999994
11
110.6342029999999994
21
-81.6860029999999995
0
LINE
8
BLACK
6
CONTINUOUS
10
110.6342029999999994
20
-81.6860029999999995
11
110.6311019999999985
21
-81.5559569999999923
0
LINE
8
BLACK
6
CONTINUOUS
10
110.6311019999999985
20
-81.5559569999999923
11
110.6314399999999978
21
-81.5528750000000002
0
LINE
8
BLACK
6
CONTINUOUS
10
110.6314399999999978
20
-81.5528750000000002
11
110.6626009999999951
21
-81.4265850000000029
0
LINE
8
BLACK
6
CONTINUOUS
10
110.6626009999999951
20
-81.4265850000000029
11
110.6637360000000001
21
-81.4236999999999966
0
LINE
8
BLACK
6
CONTINUOUS
10
110.6637360000000001
20
-81.4236999999999966
11
110.7269719999999893
21
-81.3100259999999935
0
LINE
8
BLACK
6
CONTINUOUS
10
110.7269719999999893
20
-81.3100259999999935
11
110.7288239999999888
21
-81.3075410000000005
0
LINE
8
BLACK
6
CONTINUOUS
10
110.7288239999999888
20
-81.3075410000000005
11
110.8196969999999908
21
-81.2144639999999924
0
LINE
8
BLACK
6
CONTINUOUS
10
110.8196969999999908
20
-81.2144639999999924
11
110.8221379999999954
21
-81.2125520000000023
0
LINE
8
BLACK
6
CONTINUOUS
10
110.8221379999999954
20
-81.2125520000000023
11
110.9342630000000014
21
-81.1466119999999904
0
LINE
8
BLACK
6
CONTINUOUS
10
110.9342630000000014
20
-81.1466119999999904
11
110.9371199999999931
21
-81.1454080000000033
0
LINE
8
BLACK
6
CONTINUOUS
10
110.9371199999999931
20
-81.1454080000000033
11
111.0628090000000014
21
-81.111181000000002
0
LINE
8
BLACK
6
CONTINUOUS
10
111.0628090000000014
20
-81.111181000000002
11
111.0655220000000014
21
-81.1107760000000013
0
LINE
8
BLACK
6
CONTINUOUS
10
111.0655220000000014
20
-81.1107760000000013
11
111.1305469999999929
21
-81.1087670000000003
0
LINE
8
BLACK
6
CONTINUOUS
10
111.1305469999999929
20
-81.1087670000000003
11
111.1309129999999925
21
-81.1087610000000012
0
LINE
8
BLACK
6
CONTINUOUS
10
111.1309129999999925
20
-81.1087610000000012
11
114.6586729999999932
21
-81.1102139999999991
  0
ENDSEC
  0
EOF
