0
SECTION
2
HEADER
9
$INSUNITS
70
4
9
$ACADVER
1
AC1014
9
$HANDSEED
5
FFFF
0
ENDSEC
0
SECTION
2
TABLES
0
TABLE
2
VPORT
5
8
100
AcDbSymbolTable
0
ENDTAB
0
TABLE
2
LTYPE
5
5
100
AcDbSymbolTable
0
LTYPE
5
14
100
AcDbSymbolTableRecord
100
AcDbLinetypeTableRecord
2
BYBLOCK
70
0
0
LTYPE
5
15
100
AcDbSymbolTableRecord
100
AcDbLinetypeTableRecord
2
BYLAYER
70
0
0
LTYPE
5
16
100
AcDbSymbolTableRecord
100
AcDbLinetypeTableRecord
2
DASHED
70
0
3
Dashed __ __ __ __ __ __ __ __ __ __ __ __ __ _
72
65
73
2
40
0.75
49
0.5
74
0
49
-0.25
74
0
0
ENDTAB
0
TABLE
2
LAYER
5
2
100
AcDbSymbolTable
70
3
0
LAYER
5
50
100
AcDbSymbolTableRecord
100
AcDbLayerTableRecord
2
1
70
0
62
7
6
DASHED
0
LAYER
5
51
100
AcDbSymbolTableRecord
100
AcDbLayerTableRecord
2
0
70
0
62
7
6
CONTINUOUS
0
ENDTAB
0
TABLE
2
STYLE
5
3
100
AcDbSymbolTable
70
1
0
STYLE
5
11
100
AcDbSymbolTableRecord
100
AcDbTextStyleTableRecord
2
STANDARD
70
0
0
ENDTAB
0
TABLE
2
VIEW
5
6
100
AcDbSymbolTable
70
0
0
ENDTAB
0
TABLE
2
UCS
5
7
100
AcDbSymbolTable
70
0
0
ENDTAB
0
TABLE
2
APPID
5
9
100
AcDbSymbolTable
70
2
0
APPID
5
12
100
AcDbSymbolTableRecord
100
AcDbRegAppTableRecord
2
ACAD
70
0
0
ENDTAB
0
TABLE
2
DIMSTYLE
5
A
100
AcDbSymbolTable
70
1
0
ENDTAB
0
TABLE
2
BLOCK_RECORD
5
1
100
AcDbSymbolTable
70
1
0
BLOCK_RECORD
5
1F
100
AcDbSymbolTableRecord
100
AcDbBlockTableRecord
2
*MODEL_SPACE
0
BLOCK_RECORD
5
1B
100
AcDbSymbolTableRecord
100
AcDbBlockTableRecord
2
*PAPER_SPACE
0
ENDTAB
0
ENDSEC
0
SECTION
2
BLOCKS
0
BLOCK
5
20
100
AcDbEntity
100
AcDbBlockBegin
2
*MODEL_SPACE
0
ENDBLK
5
21
100
AcDbEntity
100
AcDbBlockEnd
0
BLOCK
5
1C
100
AcDbEntity
100
AcDbBlockBegin
2
*PAPER_SPACE
0
ENDBLK
5
1D
100
AcDbEntity
100
AcDbBlockEnd
0
ENDSEC
0
SECTION
2
ENTITIES
0
ARC
5
100
100
AcDbEntity
8
0
100
AcDbCircle
10
138.52959999999999
20
-96.736599999999996
30
0
40
0.19937192506718784
210
0
220
0
230
1
100
AcDbArc
50
107.92504889999779
51
162.06897603000192
0
LINE
5
101
100
AcDbEntity
8
0
100
AcDbLine
10
132.88320667606024
20
-98.047392383890525
30
0
11
132.685631
21
-98.190917000000013
31
0
0
LINE
5
102
100
AcDbEntity
8
0
100
AcDbLine
10
152.22963099999998
20
-106.39001700000001
30
0
11
148.643631
21
-106.72001700000001
31
0
0
LINE
5
103
100
AcDbEntity
8
0
100
AcDbLine
10
121.75963100000001
20
-77.190016999999983
30
0
11
117.71963100000001
21
-80.123116999999993
31
0
0
LINE
5
104
100
AcDbEntity
8
0
100
AcDbLine
10
141.745631
20
-105.39501700000001
30
0
11
140.74203629607678
21
-105.06952682575462
31
0
0
LINE
5
105
100
AcDbEntity
8
0
100
AcDbLine
10
173.67501099999998
20
-102.96392900000001
30
0
11
177.73001099999999
21
-100.01892900000001
31
0
0
ARC
5
106
100
AcDbEntity
8
0
100
AcDbCircle
10
174.2354
20
-99.470299999999995
30
0
40
3.5999154135875093
210
0
220
0
230
1
100
AcDbArc
50
-6.5338725700001232
51
78.60561290000004
0
LINE
5
107
100
AcDbEntity
8
0
100
AcDbLine
10
146.59263099999998
20
-120.392017
30
0
11
144.84263099999995
21
-115.00301700000001
31
0
0
ARC
5
108
100
AcDbEntity
8
0
100
AcDbCircle
10
174.2353
20
-99.470400000000012
30
0
40
5.4989478777072485
210
0
220
0
230
1
100
AcDbArc
50
-100.93578401999979
51
217.18673677999976
0
LINE
5
109
100
AcDbEntity
8
0
100
AcDbLine
10
126.77363100000001
20
-80.836117000000002
30
0
11
121.75963100000001
21
-77.190016999999983
31
0
0
LINE
5
110
100
AcDbEntity
8
0
100
AcDbLine
10
120.52063099999999
20
-97.565517000000028
30
0
11
120.81963100000002
21
-96.643617000000006
31
0
0
ARC
5
111
100
AcDbEntity
8
0
100
AcDbCircle
10
138.17570000000001
20
-97.504600000000011
30
0
40
0.10044552902444805
210
0
220
0
230
1
100
AcDbArc
50
161.88651867998874
51
179.81404391999368
0
LINE
5
112
100
AcDbEntity
8
0
100
AcDbLine
10
137.16039726355754
20
-107.63314466174941
30
0
11
137.42163099999999
21
-108.43901700000002
31
0
0
LINE
5
113
100
AcDbEntity
8
0
100
AcDbLine
10
159.79063099999999
20
-126.40301700000002
30
0
11
159.47463099999996
21
-126.505017
31
0
0
LINE
5
114
100
AcDbEntity
8
0
100
AcDbLine
10
132.619631
20
-82.940016999999983
30
0
11
132.02863099999999
21
-81.117516999999992
31
0
0
LINE
5
115
100
AcDbEntity
8
0
100
AcDbLine
10
141.88797369416949
20
-125.0073648252918
30
0
11
141.78463099999999
21
-125.32301699999999
31
0
0
LINE
5
116
100
AcDbEntity
8
0
100
AcDbLine
10
146.46163099999998
20
-108.98101699999999
30
0
11
145.16563099999999
21
-108.560017
31
0
0
LINE
5
117
100
AcDbEntity
8
0
100
AcDbLine
10
122.74063099999999
20
-90.729217000000006
30
0
11
119.285631
21
-88.216816999999992
31
0
0
LINE
5
118
100
AcDbEntity
8
0
100
AcDbLine
10
118.26463099999999
20
-88.787216999999998
30
0
11
117.57829546026744
21
-88.288563383843183
31
0
0
LINE
5
119
100
AcDbEntity
8
0
100
AcDbLine
10
167.000631
20
-129.724017
30
0
11
168.287631
21
-129.72501700000004
31
0
0
LINE
5
120
100
AcDbEntity
8
0
100
AcDbLine
10
153.19863100000001
20
-125.07001700000002
30
0
11
152.94999445946956
21
-125.07001700000002
31
0
0
ARC
5
121
100
AcDbEntity
8
0
100
AcDbCircle
10
168.91360000000003
20
-125.28100000000002
30
0
40
0.3004122700290443
210
0
220
0
230
1
100
AcDbArc
50
162.00530277000038
51
215.9411081899957
0
LINE
5
122
100
AcDbEntity
8
0
100
AcDbLine
10
141.78463099999999
20
-125.32301699999999
30
0
11
143.672631
21
-131.145017
31
0
0
ARC
5
123
100
AcDbEntity
8
0
100
AcDbCircle
10
140.27960000000002
20
-91.716700000000003
30
0
40
0.20028405975514751
210
0
220
0
230
1
100
AcDbArc
50
162.03183121000231
51
233.90801483999633
0
ARC
5
124
100
AcDbEntity
8
0
100
AcDbCircle
10
164.30359999999996
20
-109.77200000000002
30
0
40
0.24996600088210949
210
0
220
0
230
1
100
AcDbArc
50
332.28260231999724
51
359.99518650004904
0
LINE
5
125
100
AcDbEntity
8
0
100
AcDbLine
10
170.739576
20
-98.916516999999999
30
0
11
174.78957599999998
21
-95.975617000000014
31
0
0
LINE
5
126
100
AcDbEntity
8
0
100
AcDbLine
10
136.55963100000002
20
-119.81101700000002
30
0
11
137.34163100000001
21
-120.379017
31
0
0
ARC
5
127
100
AcDbEntity
8
0
100
AcDbCircle
10
152.84959999999995
20
-130.38800000000003
30
0
40
0.30010884476302596
210
0
220
0
230
1
100
AcDbArc
50
-3.1826680899959787
51
42.30619323999948
0
LINE
5
128
100
AcDbEntity
8
0
100
AcDbLine
10
162.24263099999999
20
-130.37401699999998
30
0
11
162.83463100000003
21
-131.15301700000001
31
0
0
LINE
5
129
100
AcDbEntity
8
0
100
AcDbLine
10
119.285631
20
-88.216816999999992
30
0
11
118.49963099999999
21
-88.787216999999998
31
0
0
ARC
5
130
100
AcDbEntity
8
0
100
AcDbCircle
10
160.8416
20
-99.061700000000016
30
0
40
0.20003507654908159
210
0
220
0
230
1
100
AcDbArc
50
-179.93925830000208
51
0.050125019998922167
0
LINE
5
131
100
AcDbEntity
8
0
100
AcDbLine
10
137.113631
20
-121.52501700000002
30
0
11
141.17463100000003
21
-124.474017
31
0
0
ARC
5
132
100
AcDbEntity
8
0
100
AcDbCircle
10
132.80259999999998
20
-82.861400000000017
30
0
40
0.19887064081458133
210
0
220
0
230
1
100
AcDbArc
50
203.28614197999684
51
251.52113758000036
0
LINE
5
133
100
AcDbEntity
8
0
100
AcDbLine
10
146.46503571964666
20
-120.89554736810577
30
0
11
146.59263099999998
21
-120.392017
31
0
0
LINE
5
134
100
AcDbEntity
8
0
100
AcDbLine
10
155.631631
20
-103.675017
30
0
11
155.459631
21
-103.52001700000001
31
0
0
LINE
5
135
100
AcDbEntity
8
0
100
AcDbLine
10
110.70563100000001
20
-81.872917000000015
30
0
11
111.74863100000002
21
-83.548316999999983
31
0
0
ARC
5
136
100
AcDbEntity
8
0
100
AcDbCircle
10
161.99960000000002
20
-130.54900000000001
30
0
40
0.29928312089057596
210
0
220
-0
230
1
100
AcDbArc
50
35.908450669998565
51
90.051498280003557
0
ARC
5
137
100
AcDbEntity
8
0
100
AcDbCircle
10
117.5196
20
-81.353399999999993
30
0
40
0.20028662910937778
210
0
220
0
230
1
100
AcDbArc
50
-53.864458359998871
51
0.14360674999559545
0
ARC
5
138
100
AcDbEntity
8
0
100
AcDbCircle
10
159.13263000000001
20
-97.36302000000002
30
0
40
4.7499671249301141
210
0
220
0
230
1
100
AcDbArc
50
-43.080259970000171
51
223.01697730999985
0
ARC
5
139
100
AcDbEntity
8
0
100
AcDbCircle
10
141.8066
20
-105.205
30
0
40
0.19994956312031045
210
0
220
0
230
1
100
AcDbArc
50
252.00686326000181
51
306.01296310999999
0
LINE
5
140
100
AcDbEntity
8
0
100
AcDbLine
10
161.1685008532005
20
-130.25001699999999
30
0
11
161.99963100000002
21
-130.25001699999999
31
0
0
LINE
5
141
100
AcDbEntity
8
0
100
AcDbLine
10
115.94863100000001
20
-96.644617000000011
30
0
11
116.248631
21
-97.563417000000001
31
0
0
LINE
5
142
100
AcDbEntity
8
0
100
AcDbLine
10
138.07563099999999
20
-97.567517000000009
30
0
11
138.07563099999999
21
-97.504317
31
0
0
ARC
5
143
100
AcDbEntity
8
0
100
AcDbCircle
10
137.23160000000001
20
-108.501
30
0
40
0.1996826033684436
210
0
220
0
230
1
100
AcDbArc
50
-54.107297610006128
51
18.029171449998497
0
ARC
5
144
100
AcDbEntity
8
0
100
AcDbCircle
10
167.00060000000002
20
-130.024
30
0
40
0.29942345908262141
210
0
220
-0
230
1
100
AcDbArc
50
89.865677390002915
51
162.04424611000599
0
LINE
5
145
100
AcDbEntity
8
0
100
AcDbLine
10
144.62537182405848
20
-114.21613453589546
30
0
11
144.79963100000001
21
-114.09001700000002
31
0
0
LINE
5
146
100
AcDbEntity
8
0
100
AcDbLine
10
164.16016810876414
20
-120.84963972997261
30
0
11
162.65920784391966
21
-116.22474539132929
31
0
0
ARC
5
147
100
AcDbEntity
8
0
100
AcDbCircle
10
173.5583
20
-102.80240000000001
30
0
40
0.20024119448305755
210
0
220
0
230
1
100
AcDbArc
50
258.533090410005
51
305.94667551000049
0
LINE
5
148
100
AcDbEntity
8
0
100
AcDbLine
10
138.46863100000002
20
-96.546917000000008
30
0
11
139.74863099999999
21
-96.130817000000008
31
0
0
LINE
5
149
100
AcDbEntity
8
0
100
AcDbLine
10
150.888631
20
-128.99901699999998
30
0
11
152.37763099999998
21
-129.48201699999998
31
0
0
LINE
5
150
100
AcDbEntity
8
0
100
AcDbLine
10
155.72863100000001
20
-103.675017
30
0
11
155.631631
21
-103.675017
31
0
0
ARC
5
151
100
AcDbEntity
8
0
100
AcDbCircle
10
157.44159999999999
20
-99.064899999999994
30
0
40
0.20004302808395605
210
0
220
0
230
1
100
AcDbArc
50
-179.91920533000189
51
0.030360230003027847
0
LINE
5
152
100
AcDbEntity
8
0
100
AcDbLine
10
155.745631
20
-135.07301699999999
30
0
11
160.096631
21
-131.91501700000001
31
0
0
LINE
5
153
100
AcDbEntity
8
0
100
AcDbLine
10
158.14563099999998
20
-125.07201700000002
30
0
11
153.19863100000001
21
-125.07001700000002
31
0
0
LINE
5
154
100
AcDbEntity
8
0
100
AcDbLine
10
160.69062559750137
20
-130.37910698316131
30
0
11
161.01459071049317
21
-130.27429474072281
31
0
0
ARC
5
155
100
AcDbEntity
8
0
100
AcDbCircle
10
160.83759999999998
20
-95.511800000000008
30
0
40
0.19997504160769508
210
0
220
-0
230
1
100
AcDbArc
50
0.076189250001939282
51
180.03696038999286
0
LINE
5
156
100
AcDbEntity
8
0
100
AcDbLine
10
159.78376204506225
20
-126.40523930895044
30
0
11
159.79063099999999
21
-126.40301700000002
31
0
0
LINE
5
157
100
AcDbEntity
8
0
100
AcDbLine
10
140.85659351268649
20
-102.76761155315965
30
0
11
139.59063100000003
21
-98.863817000000012
31
0
0
LINE
5
158
100
AcDbEntity
8
0
100
AcDbLine
10
154.91963099999998
20
-103.54001700000001
30
0
11
155.25963099999998
21
-103.09001700000002
31
0
0
ARC
5
159
100
AcDbEntity
8
0
100
AcDbCircle
10
114.13460000000001
20
-91.712400000000002
30
0
40
0.20054671152876735
210
0
220
0
230
1
100
AcDbArc
50
-53.879998010002254
51
17.883380309996411
0
ARC
5
160
100
AcDbEntity
8
0
100
AcDbCircle
10
154.92759999999998
20
-101.286
30
0
40
1.0006114947371008
210
0
220
0
230
1
100
AcDbArc
50
-0.0081881299487214527
51
43.004275130001055
0
LINE
5
161
100
AcDbEntity
8
0
100
AcDbLine
10
132.66463099999999
20
-97.183017000000007
30
0
11
132.88317032958642
21
-97.34145801395016
31
0
0
LINE
5
162
100
AcDbEntity
8
0
100
AcDbLine
10
155.25963099999998
20
-103.09001700000002
30
0
11
149.745631
21
-91.266717000000014
31
0
0
ARC
5
163
100
AcDbEntity
8
0
100
AcDbCircle
10
122.63160000000001
20
-91.71080000000002
30
0
40
0.20012216145394407
210
0
220
0
230
1
100
AcDbArc
50
162.016814289998
51
234.01304163999734
0
LINE
5
164
100
AcDbEntity
8
0
100
AcDbLine
10
140.089631
20
-91.654917000000012
30
0
11
140.388631
21
-90.736217000000011
31
0
0
ARC
5
165
100
AcDbEntity
8
0
100
AcDbCircle
10
137.22260000000003
20
-120.541
30
0
40
0.20062416222380006
210
0
220
0
230
1
100
AcDbArc
50
-17.905258469998284
51
53.820441479999253
0
LINE
5
166
100
AcDbEntity
8
0
100
AcDbLine
10
155.22963099999998
20
-103.80001700000001
30
0
11
154.91963099999998
21
-103.54001700000001
31
0
0
LINE
5
167
100
AcDbEntity
8
0
100
AcDbLine
10
115.39063100000004
20
-82.109416999999993
30
0
11
114.664631
21
-81.110217000000006
31
0
0
ARC
5
168
100
AcDbEntity
8
0
100
AcDbCircle
10
138.1746
20
-97.888700000000014
30
0
40
0.10004191554044049
210
0
220
0
230
1
100
AcDbArc
50
180.00859487998068
51
238.78344219988293
0
ARC
5
169
100
AcDbEntity
8
0
100
AcDbCircle
10
164.30359999999996
20
-105.511
30
0
40
0.24987110865003875
210
0
220
0
230
1
100
AcDbArc
50
220.40856957000236
51
270.4615885900028
0
LINE
5
170
100
AcDbEntity
8
0
100
AcDbLine
10
114.06240239027547
20
-90.84068997475984
30
0
11
114.32563100000002
21
-91.650817000000004
31
0
0
ARC
5
171
100
AcDbEntity
8
0
100
AcDbCircle
10
163.33159999999998
20
-101.29000000000002
30
0
40
0.9996830438218961
210
0
220
0
230
1
100
AcDbArc
50
136.92650061000023
51
180.01696492998295
0
LINE
5
172
100
AcDbEntity
8
0
100
AcDbLine
10
160.24763099999998
20
-130.67301699999999
30
0
11
160.54842457911542
21
-130.45194193775396
31
0
0
LINE
5
173
100
AcDbEntity
8
0
100
AcDbLine
10
124.71763100000001
20
-87.180416999999991
30
0
11
124.90257293968881
21
-87.045743113843145
31
0
0
LINE
5
174
100
AcDbEntity
8
0
100
AcDbLine
10
152.507631
20
-129.56601699999999
30
0
11
153.071631
21
-130.18601699999999
31
0
0
LINE
5
175
100
AcDbEntity
8
0
100
AcDbLine
10
145.036631
20
-108.30801700000002
30
0
11
145.39563099999998
21
-107.205017
31
0
0
LINE
5
176
100
AcDbEntity
8
0
100
AcDbLine
10
139.74863099999999
20
-96.130817000000008
30
0
11
140.946631
21
-92.449317000000008
31
0
0
LINE
5
177
100
AcDbEntity
8
0
100
AcDbLine
10
122.44163100000002
20
-91.649017000000001
30
0
11
122.74063099999999
21
-90.729217000000006
31
0
0
LINE
5
178
100
AcDbEntity
8
0
100
AcDbLine
10
168.84963099999996
20
-124.50701700000002
30
0
11
167.29813099999998
21
-123.37901700000002
31
0
0
LINE
5
179
100
AcDbEntity
8
0
100
AcDbLine
10
130.94532306676439
20
-91.44107248384168
30
0
11
130.87363099999999
21
-91.661716999999996
31
0
0
LINE
5
180
100
AcDbEntity
8
0
100
AcDbLine
10
164.77263099999999
20
-105.75701700000002
30
0
11
164.30563100000001
21
-105.76101700000001
31
0
0
LINE
5
181
100
AcDbEntity
8
0
100
AcDbLine
10
151.9036152555999
20
-124.72946385685194
30
0
11
147.32663099999999
21
-121.40101700000001
31
0
0
LINE
5
182
100
AcDbEntity
8
0
100
AcDbLine
10
161.04163500000001
20
-99.061525000008416
30
0
11
161.03763100000003
21
-95.511516999999998
31
0
0
ARC
5
183
100
AcDbEntity
8
0
100
AcDbCircle
10
160.42259999999999
20
-130.916
30
0
40
0.2994841060223391
210
0
220
0
230
1
100
AcDbArc
50
125.92016380999931
51
180.04821137000016
0
ARC
5
184
100
AcDbEntity
8
0
100
AcDbCircle
10
169.65519999999998
20
-102.94510000000001
30
0
40
0.2500395359558068
210
0
220
0
230
1
100
AcDbArc
50
-62.306698890002316
51
37.165864980626196
0
LINE
5
185
100
AcDbEntity
8
0
100
AcDbLine
10
126.82843862271945
20
-81.005141640254536
30
0
11
126.77363100000001
21
-80.836117000000002
31
0
0
LINE
5
186
100
AcDbEntity
8
0
100
AcDbLine
10
160.21025922237473
20
-126.12726945694067
30
0
11
159.92244091967592
21
-126.3349694722128
31
0
0
LINE
5
187
100
AcDbEntity
8
0
100
AcDbLine
10
144.79963100000001
20
-114.09001700000002
30
0
11
145.19263100000001
21
-112.88201700000002
31
0
0
LINE
5
188
100
AcDbEntity
8
0
100
AcDbLine
10
155.92763099999999
20
-101.28601700000002
30
0
11
155.92763099999999
21
-103.47501700000001
31
0
0
LINE
5
189
100
AcDbEntity
8
0
100
AcDbLine
10
145.19263100000001
20
-112.88201700000002
30
0
11
146.46163099999998
21
-108.98101699999999
31
0
0
ARC
5
190
100
AcDbEntity
8
0
100
AcDbCircle
10
164.80359999999996
20
-109.443
30
0
40
0.24992100180056823
210
0
220
0
230
1
100
AcDbArc
50
117.6864464800028
51
180.00687766993923
0
LINE
5
191
100
AcDbEntity
8
0
100
AcDbLine
10
138.07463100000001
20
-97.888717000000014
30
0
11
138.07563099999999
21
-97.567517000000009
31
0
0
LINE
5
192
100
AcDbEntity
8
0
100
AcDbLine
10
162.33163099999999
20
-103.50701700000002
30
0
11
162.33163099999999
21
-101.29001700000002
31
0
0
LINE
5
193
100
AcDbEntity
8
0
100
AcDbLine
10
108.748631
20
-87.455117000000001
30
0
11
108.560631
21
-87.935716999999997
31
0
0
LINE
5
194
100
AcDbEntity
8
0
100
AcDbLine
10
171.078934
20
-105.868945
30
0
11
172.862191
21
-104.91909700000001
31
0
0
LINE
5
195
100
AcDbEntity
8
0
100
AcDbLine
10
114.25263100000001
20
-91.874416999999994
30
0
11
113.46963100000002
21
-92.443816999999996
31
0
0
LINE
5
196
100
AcDbEntity
8
0
100
AcDbLine
10
143.672631
20
-131.145017
30
0
11
148.45063099999999
21
-131.14701700000001
31
0
0
LINE
5
197
100
AcDbEntity
8
0
100
AcDbLine
10
169.77142400000002
20
-103.16653700000002
30
0
11
164.88663099999999
21
-105.72901700000001
31
0
0
ARC
5
198
100
AcDbEntity
8
0
100
AcDbCircle
10
170.85710000000003
20
-99.078100000000006
30
0
40
0.19979379406776843
210
0
220
0
230
1
100
AcDbArc
50
125.9752025100014
51
173.42070695999993
0
LINE
5
199
100
AcDbEntity
8
0
100
AcDbLine
10
139.060631
20
-112.73701700000001
30
0
11
139.05963100000002
21
-114.27501700000001
31
0
0
LINE
5
200
100
AcDbEntity
8
0
100
AcDbLine
10
130.87363099999999
20
-91.661716999999996
30
0
11
132.66463099999999
21
-97.183017000000007
31
0
0
LINE
5
201
100
AcDbEntity
8
0
100
AcDbLine
10
168.62863099999998
20
-125.18801699999997
30
0
11
168.84963099999996
21
-124.50701700000002
31
0
0
LINE
5
202
100
AcDbEntity
8
0
100
AcDbLine
10
125.56063100000001
20
-87.440316999999993
30
0
11
130.37263099999998
21
-90.938716999999997
31
0
0
LINE
5
203
100
AcDbEntity
8
0
100
AcDbLine
10
138.08063099999998
20
-97.473317000000009
30
0
11
138.339631
21
-96.675217000000018
31
0
0
LINE
5
204
100
AcDbEntity
8
0
100
AcDbLine
10
135.69039651690557
20
-87.186723063435693
30
0
11
135.745631
21
-87.015917000000002
31
0
0
LINE
5
205
100
AcDbEntity
8
0
100
AcDbLine
10
166.31763100000001
20
-131.15501699999999
30
0
11
166.715631
21
-129.932017
31
0
0
LINE
5
206
100
AcDbEntity
8
0
100
AcDbLine
10
108.560631
20
-87.935716999999997
30
0
11
111.50367247696258
21
-90.075231169945468
31
0
0
LINE
5
207
100
AcDbEntity
8
0
100
AcDbLine
10
121.976631
20
-96.504517000000021
30
0
11
123.298631
21
-92.442017000000021
31
0
0
LINE
5
208
100
AcDbEntity
8
0
100
AcDbLine
10
160.096631
20
-131.91501700000001
30
0
11
160.12363099999999
21
-130.91601699999998
31
0
0
LINE
5
209
100
AcDbEntity
8
0
100
AcDbLine
10
157.23763099999999
20
-95.515217000000007
30
0
11
157.24163099999998
21
-99.065217000000004
31
0
0
LINE
5
210
100
AcDbEntity
8
0
100
AcDbLine
10
135.745631
20
-87.015917000000002
30
0
11
134.662631
21
-83.676216999999994
31
0
0
LINE
5
211
100
AcDbEntity
8
0
100
AcDbLine
10
164.84263099999995
20
-109.140017
30
0
11
164.68763100000001
21
-109.221017
31
0
0
LINE
5
212
100
AcDbEntity
8
0
100
AcDbLine
10
152.99863099999996
20
-133.07601700000001
30
0
11
155.745631
21
-135.07301699999999
31
0
0
LINE
5
213
100
AcDbEntity
8
0
100
AcDbLine
10
162.83463100000003
20
-131.15301700000001
30
0
11
166.31763100000001
21
-131.15501699999999
31
0
0
LINE
5
214
100
AcDbEntity
8
0
100
AcDbLine
10
136.91563099999999
20
-108.977017
30
0
11
139.060631
21
-112.73701700000001
31
0
0
LINE
5
215
100
AcDbEntity
8
0
100
AcDbLine
10
153.14863099999999
20
-130.40501699999999
30
0
11
152.99863099999996
21
-133.07601700000001
31
0
0
ARC
5
216
100
AcDbEntity
8
0
100
AcDbCircle
10
174.2353
20
-99.470400000000012
30
0
40
3.5999663657446703
210
0
220
0
230
1
100
AcDbArc
50
173.37747077000012
51
258.51493966999993
0
ARC
5
217
100
AcDbEntity
8
0
100
AcDbCircle
10
155.72659999999999
20
-103.47499999999999
30
0
40
0.20053300461021001
210
0
220
0
230
1
100
AcDbArc
50
270.45175499999743
51
359.9877141500092
0
ARC
5
218
100
AcDbEntity
8
0
100
AcDbCircle
10
164.7706
20
-105.50700000000001
30
0
40
0.24988014148387891
210
0
220
0
230
1
100
AcDbArc
50
270.43591107000714
51
297.70704529000415
0
ARC
5
219
100
AcDbEntity
8
0
100
AcDbCircle
10
162.5326
20
-103.506
30
0
40
0.20125871479514418
210
0
220
0
230
1
100
AcDbArc
50
180.12698208999865
51
220.28839961000415
0
ARC
5
220
100
AcDbEntity
8
0
100
AcDbCircle
10
111.13060000000002
20
-81.608800000000002
30
0
40
0.50003813419478327
210
0
220
-0
230
1
100
AcDbArc
50
89.983500099999787
51
211.88551666999948
0
LINE
5
221
100
AcDbEntity
8
0
100
AcDbLine
10
157.64163099999996
20
-99.064817000000005
30
0
11
157.637631
21
-95.514816999999994
31
0
0
LINE
5
222
100
AcDbEntity
8
0
100
AcDbLine
10
152.44163100000003
20
-107.444017
30
0
11
152.839631
21
-106.967017
31
0
0
LINE
5
223
100
AcDbEntity
8
0
100
AcDbLine
10
164.84263099999995
20
-109.140017
30
0
11
171.078934
21
-105.868945
31
0
0
LINE
5
224
100
AcDbEntity
8
0
100
AcDbLine
10
117.71963100000001
20
-80.123116999999993
30
0
11
117.71963100000001
21
-81.352916999999991
31
0
0
ARC
5
225
100
AcDbEntity
8
0
100
AcDbCircle
10
158.44559999999998
20
-126.233
30
0
40
0.29989800008169581
210
0
220
0
230
1
100
AcDbArc
50
179.95815315999945
51
270.00133735999879
0
LINE
5
226
100
AcDbEntity
8
0
100
AcDbLine
10
158.14563099999998
20
-126.233017
30
0
11
158.14563099999998
21
-125.07201700000002
31
0
0
LINE
5
227
100
AcDbEntity
8
0
100
AcDbLine
10
136.23563099999998
20
-87.716717000000003
30
0
11
136.07551862130083
21
-87.716655888405086
31
0
0
ARC
5
228
100
AcDbEntity
8
0
100
AcDbCircle
10
150.85759999999999
20
-129.09399999999999
30
0
40
0.099719412498268864
210
0
220
-0
230
1
100
AcDbArc
50
71.844421839980072
51
132.26873138245983
0
ARC
5
229
100
AcDbEntity
8
0
100
AcDbCircle
10
174.90629999999999
20
-96.13730000000001
30
0
40
0.19992979520321891
210
0
220
-0
230
1
100
AcDbArc
50
78.601094199997647
51
126.00468127000096
0
ARC
5
230
100
AcDbEntity
8
0
100
AcDbCircle
10
115.55160000000001
20
-81.992199999999983
30
0
40
0.19960617857421645
210
0
220
0
230
1
100
AcDbArc
50
215.96426257000192
51
270.076640800002
0
ARC
5
231
100
AcDbEntity
8
0
100
AcDbCircle
10
115.7586
20
-96.706199999999995
30
0
40
0.19978404697321941
210
0
220
-0
230
1
100
AcDbArc
50
17.957647670000064
51
89.960709959994674
0
LINE
5
232
100
AcDbEntity
8
0
100
AcDbLine
10
132.02863099999999
20
-81.117516999999992
30
0
11
127.58263100000001
21
-81.115717000000004
31
0
0
LINE
5
233
100
AcDbEntity
8
0
100
AcDbLine
10
153.84863099999998
20
-120.86801700000001
30
0
11
158.36127523958476
21
-124.1491246581994
31
0
0
LINE
5
234
100
AcDbEntity
8
0
100
AcDbLine
10
142.39763099999999
20
-105.024017
30
0
11
145.39563099999998
21
-107.205017
31
0
0
ARC
5
235
100
AcDbEntity
8
0
100
AcDbCircle
10
121.00960000000001
20
-96.705400000000012
30
0
40
0.20013360773742966
210
0
220
0
230
1
100
AcDbArc
50
90.086451289997612
51
162.02097565999594
0
LINE
5
236
100
AcDbEntity
8
0
100
AcDbLine
10
160.637631
20
-95.511917000000011
30
0
11
160.641627
21
-99.061912000000021
31
0
0
LINE
5
237
100
AcDbEntity
8
0
100
AcDbLine
10
152.839631
20
-106.967017
30
0
11
152.22963099999998
21
-106.39001700000001
31
0
0
LINE
5
238
100
AcDbEntity
8
0
100
AcDbLine
10
120.16009336962908
20
-87.178535987048505
30
0
11
124.71763100000001
21
-87.180416999999991
31
0
0
LINE
5
239
100
AcDbEntity
8
0
100
AcDbLine
10
137.5722484442451
20
-116.69723431070184
30
0
11
136.55963100000002
21
-119.81101700000002
31
0
0
LINE
5
240
100
AcDbEntity
8
0
100
AcDbLine
10
125.49361397820576
20
-87.233376559974687
30
0
11
125.56063100000001
21
-87.440316999999993
31
0
0
LINE
5
241
100
AcDbEntity
8
0
100
AcDbLine
10
113.46963100000002
20
-92.443816999999996
30
0
11
114.78763100000002
21
-96.506417000000013
31
0
0
LINE
5
242
100
AcDbEntity
8
0
100
AcDbLine
10
155.459631
20
-103.52001700000001
30
0
11
155.22963099999998
21
-103.80001700000001
31
0
0
LINE
5
243
100
AcDbEntity
8
0
100
AcDbLine
10
116.40289398629831
20
-82.191816999999986
30
0
11
115.55263100000002
21
-82.191817
31
0
0
LINE
5
244
100
AcDbEntity
8
0
100
AcDbLine
10
168.287631
20
-129.72501700000004
30
0
11
169.364631
21
-126.413017
31
0
0
LINE
5
245
100
AcDbEntity
8
0
100
AcDbLine
10
141.17463100000003
20
-124.474017
30
0
11
141.5227362242089
21
-124.474017
31
0
0
LINE
5
246
100
AcDbEntity
8
0
100
AcDbLine
10
152.44163100000003
20
-107.444017
30
0
11
155.35387667893841
21
-112.96561912368226
31
0
0
LINE
5
247
100
AcDbEntity
8
0
100
AcDbLine
10
132.685631
20
-98.190917000000013
30
0
11
130.76863100000003
21
-104.084017
31
0
0
LINE
5
248
100
AcDbEntity
8
0
100
AcDbLine
10
142.92163099999999
20
-94.449017000000012
30
0
11
148.643631
21
-106.72001700000001
31
0
0
ARC
5
249
100
AcDbEntity
8
0
100
AcDbCircle
10
177.61250000000001
20
-99.857300000000009
30
0
40
0.1998143894342837
210
0
220
0
230
1
100
AcDbArc
50
305.96914171999452
51
353.49758471000291
0
ARC
5
250
100
AcDbEntity
8
0
100
AcDbCircle
10
173.09729999999999
20
-105.36050000000002
30
0
40
0.50011283755768698
210
0
220
-0
230
1
100
AcDbArc
50
79.072091550000607
51
118.04156093332197
0
LINE
5
251
100
AcDbEntity
8
0
100
AcDbLine
10
142.39763099999999
20
-105.024017
30
0
11
141.92463100000001
21
-105.36701700000002
31
0
0
LINE
5
252
100
AcDbEntity
8
0
100
AcDbLine
10
169.364631
20
-126.413017
30
0
11
168.67063099999996
21
-125.45701700000001
31
0
0
LINE
5
253
100
AcDbEntity
8
0
100
AcDbLine
10
116.248631
20
-97.563417000000001
30
0
11
120.52063099999999
21
-97.565517000000028
31
0
0
ARC
5
254
100
AcDbEntity
8
0
100
AcDbCircle
10
145.2276
20
-108.36900000000001
30
0
40
0.20051765619266038
210
0
220
0
230
1
100
AcDbArc
50
162.11491586000128
51
251.8438088900046
0
ARC
5
255
100
AcDbEntity
8
0
100
AcDbCircle
10
152.28559999999999
20
-129.768
30
0
40
0.30023812757375495
210
0
220
-0
230
1
100
AcDbArc
50
42.30117114999674
51
71.999735890000224
0
LINE
5
256
100
AcDbEntity
8
0
100
AcDbLine
10
117.637631
20
-81.515217000000007
30
0
11
116.94733954496867
21
-82.015774714318809
31
0
0
LINE
5
257
100
AcDbEntity
8
0
100
AcDbLine
10
127.58263100000001
20
-81.115717000000004
30
0
11
127.45427624065881
21
-81.209093566629718
31
0
0
LINE
5
258
100
AcDbEntity
8
0
100
AcDbLine
10
164.113631
20
-105.67301700000002
30
0
11
162.37963099999999
21
-103.63601700000001
31
0
0
ARC
5
259
100
AcDbEntity
8
0
100
AcDbCircle
10
118.3826
20
-88.625900000000001
30
0
40
0.19955210149231306
210
0
220
0
230
1
100
AcDbArc
50
233.91405765000258
51
306.07712876999915
0
LINE
5
260
100
AcDbEntity
8
0
100
AcDbLine
10
159.47463099999996
20
-126.505017
30
0
11
159.45869880728924
21
-126.51021228023176
31
0
0
LINE
5
261
100
AcDbEntity
8
0
100
AcDbLine
10
121.00963100000001
20
-96.505416999999994
30
0
11
121.976631
21
-96.504517000000021
31
0
0
LINE
5
262
100
AcDbEntity
8
0
100
AcDbLine
10
163.49795537619633
20
-111.84371970012442
30
0
11
164.524631
21
-109.889017
31
0
0
LINE
5
263
100
AcDbEntity
8
0
100
AcDbLine
10
114.664631
20
-81.110217000000006
30
0
11
111.13063099999999
21
-81.108817000000002
31
0
0
LINE
5
264
100
AcDbEntity
8
0
100
AcDbLine
10
130.76863100000003
20
-104.084017
30
0
11
134.70277031393479
21
-106.94553238081546
31
0
0
LINE
5
265
100
AcDbEntity
8
0
100
AcDbLine
10
164.553631
20
-109.77201700000002
30
0
11
164.553631
21
-109.443017
31
0
0
LINE
5
266
100
AcDbEntity
8
0
100
AcDbLine
10
140.946631
20
-92.449317000000008
30
0
11
140.16163100000003
21
-91.878517000000016
31
0
0
LINE
5
267
100
AcDbEntity
8
0
100
AcDbLine
10
149.745631
20
-91.266717000000014
30
0
11
142.92163099999999
21
-94.449017000000012
31
0
0
LINE
5
268
100
AcDbEntity
8
0
100
AcDbLine
10
159.30262127394573
20
-126.53484622150256
30
0
11
158.44563099999999
21
-126.533017
31
0
0
LINE
5
269
100
AcDbEntity
8
0
100
AcDbLine
10
134.662631
20
-83.676216999999994
30
0
11
132.739631
21
-83.050016999999983
31
0
0
ARC
5
270
100
AcDbEntity
8
0
100
AcDbCircle
10
111.32360000000003
20
-83.8125
30
0
40
0.50016624134481857
210
0
220
0
230
1
100
AcDbArc
50
-41.677269779999243
51
31.876792500002121
0
LINE
5
271
100
AcDbEntity
8
0
100
AcDbLine
10
114.78763100000002
20
-96.506417000000013
30
0
11
115.75863099999999
21
-96.506417000000013
31
0
0
LINE
5
272
100
AcDbEntity
8
0
100
AcDbLine
10
147.32663099999999
20
-121.40101700000001
30
0
11
146.82452577579113
21
-121.40101700000001
31
0
0
LINE
5
273
100
AcDbEntity
8
0
100
AcDbLine
10
130.37263099999998
20
-90.938716999999997
30
0
11
130.58217390556132
21
-90.938784161187669
31
0
0
LINE
5
274
100
AcDbEntity
8
0
100
AcDbLine
10
140.388631
20
-90.736217000000011
30
0
11
136.23563099999998
21
-87.716717000000003
31
0
0
LINE
5
275
100
AcDbEntity
8
0
100
AcDbLine
10
137.34863099999998
20
-108.66301700000001
30
0
11
136.91563099999999
21
-108.977017
31
0
0
LINE
5
276
100
AcDbEntity
8
0
100
AcDbLine
10
123.298631
20
-92.442017000000021
30
0
11
122.513631
21
-91.872716999999994
31
0
0
LINE
5
277
100
AcDbEntity
8
0
100
AcDbLine
10
144.84263099999995
20
-115.00301700000001
30
0
11
144.62496584186621
21
-114.84465164456296
31
0
0
LINE
5
278
100
AcDbEntity
8
0
100
AcDbLine
10
137.41363099999998
20
-120.60301699999999
30
0
11
137.113631
21
-121.52501700000002
31
0
0
ARC
5
279
100
AcDbEntity
8
0
100
AcDbCircle
10
157.43760000000003
20
-95.515000000000015
30
0
40
0.1999750883710294
210
0
220
-0
230
1
100
AcDbArc
50
0.058144440001541939
51
180.05386474998932
0
LINE
5
280
100
AcDbEntity
8
0
100
AcDbLine
10
155.36370464407429
20
-116.21549065698824
30
0
11
153.84863099999998
21
-120.86801700000001
31
0
0
LINE
5
281
100
AcDbEntity
8
0
100
AcDbLine
10
111.697631
20
-84.145116999999999
30
0
11
108.748631
21
-87.455117000000001
31
0
0
LINE
5
282
100
AcDbEntity
8
0
100
AcDbLine
10
155.3882612503848
20
-116.06474830282215
30
0
11
155.41160376929415
21
-113.20295548454142
31
0
0
LINE
5
283
100
AcDbEntity
8
0
100
AcDbLine
10
162.63479023297592
20
-116.06940051203912
30
0
11
162.64042393802424
21
-113.25254798786445
31
0
0
LINE
5
284
100
AcDbEntity
8
0
100
AcDbLine
10
164.23120328070087
20
-120.98913555078454
30
0
11
165.27434067367693
21
-122.42527861486174
31
0
0
LINE
5
285
100
AcDbEntity
8
0
100
AcDbLine
10
160.32245890019095
20
-125.42831045476568
30
0
11
159.56280057094597
21
-124.38063001016704
31
0
0
LINE
5
286
100
AcDbEntity
8
0
100
AcDbLine
10
148.45063099999999
20
-131.14701700000001
30
0
11
150.79052784893446
21
-129.02020780677847
31
0
0
LINE
5
287
100
AcDbEntity
8
0
100
AcDbLine
10
146.49091913704314
20
-121.05320930034981
30
0
11
146.65653684572447
21
-121.30955141562501
31
0
0
LINE
5
288
100
AcDbEntity
8
0
100
AcDbLine
10
141.69072515427553
20
-124.56548258437499
30
0
11
141.86589002534356
21
-124.83660174143247
31
0
0
LINE
5
289
100
AcDbEntity
8
0
100
AcDbLine
10
139.05963100000002
20
-114.27501700000001
30
0
11
139.05963100000002
21
-114.70667395081655
31
0
0
LINE
5
290
100
AcDbEntity
8
0
100
AcDbLine
10
144.542631
20
-114.37815393491147
30
0
11
144.54263100000003
21
-114.68292684571828
31
0
0
LINE
5
291
100
AcDbEntity
8
0
100
AcDbLine
10
137.13203422996529
20
-107.57738077464138
30
0
11
136.90863429218683
21
-107.26941701860781
31
0
0
LINE
5
292
100
AcDbEntity
8
0
100
AcDbLine
10
140.63402550081611
20
-104.9851025201768
30
0
11
140.45206432818355
21
-104.69327799803024
31
0
0
LINE
5
293
100
AcDbEntity
8
0
100
AcDbLine
10
132.96566168570544
20
-97.885640457894638
30
0
11
132.96577680622181
21
-97.503440343590171
31
0
0
LINE
5
294
100
AcDbEntity
8
0
100
AcDbLine
10
139.59063100000003
20
-98.863817000000012
30
0
11
138.12275085847219
21
-97.974257298857736
31
0
0
LINE
5
295
100
AcDbEntity
8
0
100
AcDbLine
10
130.74446369536193
20
-91.021988544682912
30
0
11
130.91746573633262
21
-91.262473231087
31
0
0
LINE
5
296
100
AcDbEntity
8
0
100
AcDbLine
10
135.91376299066229
20
-87.63417362340374
30
0
11
135.71886203451271
21
-87.365778313377945
31
0
0
LINE
5
297
100
AcDbEntity
8
0
100
AcDbLine
10
125.36246041349372
20
-87.103932209739995
30
0
11
125.07942247368868
21
-87.016356244683166
31
0
0
LINE
5
298
100
AcDbEntity
8
0
100
AcDbLine
10
127.27448676465322
20
-81.237467030194267
30
0
11
126.9565545288968
21
-81.133556192361226
31
0
0
LINE
5
299
100
AcDbEntity
8
0
100
AcDbLine
10
118.66892110678931
20
-86.508238589404243
30
0
11
117.64854928319684
21
-86.839337778401685
31
0
0
LINE
5
300
100
AcDbEntity
8
0
100
AcDbLine
10
116.89141236427928
20
-82.044179077391675
30
0
11
116.46437514173839
21
-82.182132704884694
31
0
0
LINE
5
301
100
AcDbEntity
8
0
100
AcDbLine
10
117.53399625709712
20
-88.244244086098561
30
0
11
117.21381338660905
21
-87.803131090357681
31
0
0
LINE
5
302
100
AcDbEntity
8
0
100
AcDbLine
10
114.03405883968173
20
-90.785025229058235
30
0
11
113.80846202394719
21
-90.474160906624689
31
0
0
LINE
5
303
100
AcDbEntity
8
0
100
AcDbLine
10
113.67561401782362
20
-90.393746096950537
30
0
11
111.50367247696258
21
-90.075231169945468
31
0
0
LINE
5
304
100
AcDbEntity
8
0
100
AcDbLine
10
140.42739188231141
20
-104.54039618143021
30
0
11
140.85659351268649
21
-102.76761155315965
31
0
0
LINE
5
305
100
AcDbEntity
8
0
100
AcDbLine
10
162.72755580386877
20
-112.97151832513391
30
0
11
163.49795537619633
21
-111.84371970012442
31
0
0
LINE
5
306
100
AcDbEntity
8
0
100
AcDbLine
10
165.47987492525857
20
-122.5901254290183
30
0
11
167.29813099999998
21
-123.37901700000002
31
0
0
LINE
5
307
100
AcDbEntity
8
0
100
AcDbLine
10
159.42887157234674
20
-124.30000043007655
30
0
11
158.36127523958476
21
-124.1491246581994
31
0
0
LINE
5
308
100
AcDbEntity
8
0
100
AcDbLine
10
152.04289556191102
20
-124.80052121164611
30
0
11
152.79520445961504
21
-125.04545370025048
31
0
0
LINE
5
309
100
AcDbEntity
8
0
100
AcDbLine
10
139.01780703212384
20
-114.82906816171541
30
0
11
137.5722484442451
21
-116.69723431070184
31
0
0
LINE
5
310
100
AcDbEntity
8
0
100
AcDbLine
10
136.77006221822947
20
-107.18821804821889
30
0
11
134.70277031393479
21
-106.94553238081546
31
0
0
ARC
5
311
100
AcDbEntity
8
0
100
AcDbCircle
10
154.91162040102319
20
-113.1988773167741
30
0
40
0.49999999999991712
210
-0
220
0
230
1
100
AcDbArc
50
-0.46732878409470641
51
27.808404178886555
0
ARC
5
312
100
AcDbEntity
8
0
100
AcDbCircle
10
163.14042293802711
20
-113.25354798586443
30
0
40
0.49999999999987638
210
0
220
-0
230
1
100
AcDbArc
50
145.66300561623788
51
179.88540859376371
0
ARC
5
313
100
AcDbEntity
8
0
100
AcDbCircle
10
154.8882778821152
20
-116.06067013505509
30
0
40
0.49999999999856681
210
-0
220
0
230
1
100
AcDbArc
50
341.96240053412248
51
359.53267121593257
0
ARC
5
314
100
AcDbEntity
8
0
100
AcDbCircle
10
163.13478923298027
20
-116.07040051003894
30
0
40
0.50000000000136491
210
0
220
0
230
1
100
AcDbArc
50
179.88540859378278
51
197.9802872353886
0
ARC
5
315
100
AcDbEntity
8
0
100
AcDbCircle
10
164.63574949782188
20
-120.69529484868315
30
0
40
0.49999999999835132
210
0
220
0
230
1
100
AcDbArc
50
197.98028723539255
51
215.99264566780749
0
ARC
5
316
100
AcDbEntity
8
0
100
AcDbCircle
10
159.91767020505404
20
-125.72181703440108
30
0
40
0.49999999999991934
210
-0
220
0
230
1
100
AcDbArc
50
-54.184431662130855
51
35.945338166755448
0
ARC
5
317
100
AcDbEntity
8
0
100
AcDbCircle
10
165.67888689079962
20
-122.13143791275945
30
0
40
0.50000000000023648
210
0
220
0
230
1
100
AcDbArc
50
215.99264566777757
51
246.5452971442464
0
ARC
5
318
100
AcDbEntity
8
0
100
AcDbCircle
10
161.1685008532005
20
-130.75001699999976
30
0
40
0.49999999999975842
210
0
220
-0
230
1
100
AcDbArc
50
90
51
107.92791976201634
0
ARC
5
319
100
AcDbEntity
8
0
100
AcDbCircle
10
160.84453574020881
20
-130.85482924243874
30
0
40
0.50000000000024558
210
0
220
0
230
1
100
AcDbArc
50
107.92791976201171
51
126.31487002771911
0
ARC
5
320
100
AcDbEntity
8
0
100
AcDbCircle
10
159.6298519023552
20
-125.92951704967336
30
0
40
0.49999999999978723
210
-0
220
0
230
1
100
AcDbArc
50
287.92791976198083
51
305.8155683378813
0
ARC
5
321
100
AcDbEntity
8
0
100
AcDbCircle
10
159.30368850737369
20
-126.03484736049103
30
0
40
0.50000000000001721
210
0
220
0
230
1
100
AcDbArc
50
269.87770396478265
51
288.06047193620913
0
ARC
5
322
100
AcDbEntity
8
0
100
AcDbCircle
10
144.74263099999999
20
-114.68292684571828
30
0
40
0.19999999999997797
210
0
220
0
230
1
100
AcDbArc
50
180
51
233.9617089741175
0
ARC
5
323
100
AcDbEntity
8
0
100
AcDbCircle
10
144.74263100000005
20
-114.3781539349115
30
0
40
0.20000000000001603
210
0
220
-0
230
1
100
AcDbArc
50
125.89459081977743
51
180
0
ARC
5
324
100
AcDbEntity
8
0
100
AcDbCircle
10
138.85963100000015
20
-114.70667395081659
30
0
40
0.19999999999986484
210
-0
220
0
230
1
100
AcDbArc
50
-37.732159896179354
51
0
0
ARC
5
325
100
AcDbEntity
8
0
100
AcDbCircle
10
146.65890806710956
20
-120.94467488472482
30
0
40
0.19999999999982668
210
0
220
0
230
1
100
AcDbArc
50
165.78048397195985
51
212.86572470516387
0
ARC
5
326
100
AcDbEntity
8
0
100
AcDbCircle
10
146.8245257757911
20
-121.20101700000005
30
0
40
0.19999999999996301
210
0
220
0
230
1
100
AcDbArc
50
212.8657247051261
51
270.00000000000813
0
ARC
5
327
100
AcDbEntity
8
0
100
AcDbCircle
10
141.52273622420896
20
-124.67401699999988
30
0
40
0.19999999999986476
210
0
220
-0
230
1
100
AcDbArc
50
32.865724705117842
51
90.000000000016286
0
ARC
5
328
100
AcDbEntity
8
0
100
AcDbCircle
10
141.69790109527696
20
-124.94513615705749
30
0
40
0.199999999999948
210
-0
220
0
230
1
100
AcDbArc
50
-18.128147045674716
51
32.865724705144189
0
ARC
5
329
100
AcDbEntity
8
0
100
AcDbCircle
10
159.40088509289114
20
-124.4980326420212
30
0
40
0.2000000000000115
210
0
220
-0
230
1
100
AcDbArc
50
35.945338166745877
51
81.956065610571656
0
ARC
5
330
100
AcDbEntity
8
0
100
AcDbCircle
10
152.94999445946971
20
-124.57001699999923
30
0
40
0.50000000000080458
210
0
220
0
230
1
100
AcDbArc
50
251.96607884628298
51
269.99999999998369
0
ARC
5
331
100
AcDbEntity
8
0
100
AcDbCircle
10
152.1976855617653
20
-124.32508451139611
30
0
40
0.4999999999994944
210
0
220
0
230
1
100
AcDbArc
50
233.97482885879012
51
251.96607884628196
0
ARC
5
332
100
AcDbEntity
8
0
100
AcDbCircle
10
140.80373723568422
20
-104.87928226196496
30
0
40
0.19999999999990037
210
0
220
0
230
1
100
AcDbArc
50
211.94475277619156
51
252.03086025984572
0
ARC
5
333
100
AcDbEntity
8
0
100
AcDbCircle
10
140.62177606305181
20
-104.58745773981832
30
0
40
0.20000000000010515
210
0
220
0
230
1
100
AcDbArc
50
166.39023325633133
51
211.94475277619077
0
ARC
5
334
100
AcDbEntity
8
0
100
AcDbCircle
10
136.74674373919711
20
-107.38685401811266
30
0
40
0.20000000000003981
210
0
220
-0
230
1
100
AcDbArc
50
35.957500517899312
51
83.304519506887388
0
ARC
5
335
100
AcDbEntity
8
0
100
AcDbCircle
10
136.97014367697611
20
-107.69481777414595
30
0
40
0.19999999999944049
210
0
220
-0
230
1
100
AcDbArc
50
17.960759243542686
51
35.957500517924245
0
ARC
5
336
100
AcDbEntity
8
0
100
AcDbCircle
10
132.765661694778
20
-97.885580216933562
30
0
40
0.19999999999986373
210
0
220
0
230
1
100
AcDbArc
50
305.99572633130032
51
359.98274223561316
0
ARC
5
337
100
AcDbEntity
8
0
100
AcDbCircle
10
132.76577681529429
20
-97.503380102629009
30
0
40
0.19999999999995333
210
0
220
0
230
1
100
AcDbArc
50
-0.017257764407965177
51
54.057888128625478
0
ARC
5
338
100
AcDbEntity
8
0
100
AcDbCircle
10
130.75511184397115
20
-91.379268837318946
30
0
40
0.20000000000000753
210
-0
220
0
230
1
100
AcDbArc
50
-18.000074596898504
51
35.730825365008556
0
ARC
5
339
100
AcDbEntity
8
0
100
AcDbCircle
10
130.58210980300046
20
-91.138784150914844
30
0
40
0.20000000000001325
210
0
220
-0
230
1
100
AcDbArc
50
35.730825365005252
51
89.981635968720482
0
ARC
5
340
100
AcDbEntity
8
0
100
AcDbCircle
10
136.07559495717317
20
-87.516655902972929
30
0
40
0.20000000000007923
210
0
220
0
230
1
100
AcDbArc
50
215.98607417589719
51
269.97813138291747
0
ARC
5
341
100
AcDbEntity
8
0
100
AcDbCircle
10
135.88069400102344
20
-87.248260592947204
30
0
40
0.19999999999993268
210
0
220
0
230
1
100
AcDbArc
50
162.08006748045943
51
215.9860741759046
0
ARC
5
342
100
AcDbEntity
8
0
100
AcDbCircle
10
125.30334277502186
20
-87.294995300946979
30
0
40
0.20000000000014162
210
0
220
-0
230
1
100
AcDbArc
50
17.944385786620881
51
72.807188696431481
0
ARC
5
343
100
AcDbEntity
8
0
100
AcDbCircle
10
125.02030483521695
20
-87.20741933589008
30
0
40
0.20000000000003315
210
0
220
-0
230
1
100
AcDbArc
50
72.807188696460457
51
126.06193826710656
0
ARC
5
344
100
AcDbEntity
8
0
100
AcDbCircle
10
127.33661911457423
20
-81.047362924259431
30
0
40
0.19999999999996559
210
0
220
0
230
1
100
AcDbArc
50
251.90088488949772
51
306.03544548699034
0
ARC
5
345
100
AcDbEntity
8
0
100
AcDbCircle
10
127.01868687881777
20
-80.943452086426447
30
0
40
0.19999999999990761
210
0
220
0
230
1
100
AcDbArc
50
197.9657107287795
51
251.90088488950428
0
ARC
5
346
100
AcDbEntity
8
0
100
AcDbCircle
10
116.82993120883907
20
-81.853863372506851
30
0
40
0.20000000000016432
210
-0
220
0
230
1
100
AcDbArc
50
287.90295992671531
51
305.94735672038189
0
ARC
5
347
100
AcDbEntity
8
0
100
AcDbCircle
10
116.40289398629841
20
-81.991817000000339
30
0
40
0.19999999999964047
210
0
220
0
230
1
100
AcDbArc
50
269.99999999997152
51
287.90295992669462
0
ARC
5
348
100
AcDbEntity
8
0
100
AcDbCircle
10
113.64659443570241
20
-90.591629557233389
30
0
40
0.20000000000001111
210
0
220
-0
230
1
100
AcDbArc
50
35.968703168469332
51
81.65705098523695
0
ARC
5
349
100
AcDbEntity
8
0
100
AcDbCircle
10
113.87219125143665
20
-90.902493879667091
30
0
40
0.20000000000036491
210
0
220
-0
230
1
100
AcDbArc
50
18.000152427949743
51
35.968703168452969
0
LINE
5
350
100
AcDbEntity
8
0
100
AcDbLine
10
117.19750400094263
20
-87.594779613174595
30
0
11
117.53211263145738
21
-86.938705598327374
31
0
0
LINE
5
351
100
AcDbEntity
8
0
100
AcDbLine
10
118.82151791211413
20
-86.520308076126682
30
0
11
120.0693083528334
21
-87.156701899216472
31
0
0
ARC
5
352
100
AcDbEntity
8
0
100
AcDbCircle
10
117.69585276656443
20
-88.126760170845998
30
0
40
0.2000000000000306
210
0
220
0
230
1
100
AcDbArc
50
215.9741065330891
51
233.99990940565502
0
ARC
5
353
100
AcDbEntity
8
0
100
AcDbCircle
10
117.37566989607632
20
-87.685647175105146
30
0
40
0.19999999999998186
210
0
220
0
230
1
100
AcDbArc
50
152.97766417115548
51
215.97410653308967
0
ARC
5
354
100
AcDbEntity
8
0
100
AcDbCircle
10
117.71027852659103
20
-87.029573160257769
30
0
40
0.19999999999987533
210
0
220
-0
230
1
100
AcDbArc
50
107.9776641711539
51
152.97766417118982
0
ARC
5
355
100
AcDbEntity
8
0
100
AcDbCircle
10
118.73065035018359
20
-86.698473971260412
30
0
40
0.20000000000000545
210
0
220
-0
230
1
100
AcDbArc
50
62.977664171164641
51
107.97766417117349
0
ARC
5
356
100
AcDbEntity
8
0
100
AcDbCircle
10
120.1601759147639
20
-86.97853600408294
30
0
40
0.19999999999981527
210
0
220
0
230
1
100
AcDbArc
50
242.97766417114963
51
269.97635256010705
0
ENDSEC
0
SECTION
2
OBJECTS
0
DICTIONARY
5
C
100
AcDbDictionary
3
ACAD_GROUP
350
D
3
ACAD_MLINESTYLE
350
17
0
DICTIONARY
5
D
100
AcDbDictionary
0
DICTIONARY
5
1A
330
C
100
AcDbDictionary
0
DICTIONARY
5
17
100
AcDbDictionary
0
ENDSEC
0
EOF
